solid OpenSCAD_Model
  facet normal 0 0 -1
    outer loop
      vertex 40 60.5 15
      vertex 50 74 15
      vertex 50 60.5 15
    endloop
  endfacet
  facet normal -0 0 -1
    outer loop
      vertex 50 74 15
      vertex 40 60.5 15
      vertex 40 74 15
    endloop
  endfacet
  facet normal 0 1 -0
    outer loop
      vertex 50 74 15
      vertex 40 74 35
      vertex 50 74 35
    endloop
  endfacet
  facet normal 0 1 0
    outer loop
      vertex 40 74 35
      vertex 50 74 15
      vertex 40 74 15
    endloop
  endfacet
  facet normal -1 0 0
    outer loop
      vertex 40 74 15
      vertex 40 60.5 15
      vertex 40 74 35
    endloop
  endfacet
  facet normal 1 0 0
    outer loop
      vertex 50 74 35
      vertex 50 60.5 15
      vertex 50 74 15
    endloop
  endfacet
  facet normal 0 -0.828849 0.559473
    outer loop
      vertex 40 60.5 15
      vertex 50 74 35
      vertex 40 74 35
    endloop
  endfacet
  facet normal 0 -0.828849 0.559473
    outer loop
      vertex 50 74 35
      vertex 40 60.5 15
      vertex 50 60.5 15
    endloop
  endfacet
  facet normal -0 0 1
    outer loop
      vertex 40 62.5 5
      vertex 50 58.5 5
      vertex 50 62.5 5
    endloop
  endfacet
  facet normal 0 0 1
    outer loop
      vertex 50 58.5 5
      vertex 40 62.5 5
      vertex 40 58.5 5
    endloop
  endfacet
  facet normal 0 1 -0
    outer loop
      vertex 50 62.5 -5
      vertex 40 62.5 5
      vertex 50 62.5 5
    endloop
  endfacet
  facet normal 0 1 0
    outer loop
      vertex 40 62.5 5
      vertex 50 62.5 -5
      vertex 40 62.5 -5
    endloop
  endfacet
  facet normal 1 0 0
    outer loop
      vertex 50 62.5 5
      vertex 50 58.5 5
      vertex 50 62.5 -5
    endloop
  endfacet
  facet normal -1 0 0
    outer loop
      vertex 40 62.5 -5
      vertex 40 58.5 5
      vertex 40 62.5 5
    endloop
  endfacet
  facet normal 0 -0.928477 -0.371391
    outer loop
      vertex 40 62.5 -5
      vertex 50 58.5 5
      vertex 40 58.5 5
    endloop
  endfacet
  facet normal 0 -0.928477 -0.371391
    outer loop
      vertex 50 58.5 5
      vertex 40 62.5 -5
      vertex 50 62.5 -5
    endloop
  endfacet
  facet normal 0 -1 0
    outer loop
      vertex 40 60.5 5
      vertex 50 60.5 15
      vertex 40 60.5 15
    endloop
  endfacet
  facet normal 0 -1 -0
    outer loop
      vertex 50 60.5 15
      vertex 40 60.5 5
      vertex 50 60.5 5
    endloop
  endfacet
  facet normal -0 0 1
    outer loop
      vertex 40 67.5 15
      vertex 50 60.5 15
      vertex 50 67.5 15
    endloop
  endfacet
  facet normal 0 0 1
    outer loop
      vertex 50 60.5 15
      vertex 40 67.5 15
      vertex 40 60.5 15
    endloop
  endfacet
  facet normal 0 0 -1
    outer loop
      vertex 40 60.5 5
      vertex 50 62.5 5
      vertex 50 60.5 5
    endloop
  endfacet
  facet normal -0 0 -1
    outer loop
      vertex 50 62.5 5
      vertex 40 60.5 5
      vertex 40 62.5 5
    endloop
  endfacet
  facet normal 0 1 -0
    outer loop
      vertex 50 62.5 5
      vertex 40 62.5 13
      vertex 50 62.5 13
    endloop
  endfacet
  facet normal 0 1 0
    outer loop
      vertex 40 62.5 13
      vertex 50 62.5 5
      vertex 40 62.5 5
    endloop
  endfacet
  facet normal 1 0 0
    outer loop
      vertex 50 67.5 15
      vertex 50 65.5 13
      vertex 50 67.5 -5
    endloop
  endfacet
  facet normal 1 0 0
    outer loop
      vertex 50 67.5 15
      vertex 50 62.5 13
      vertex 50 65.5 13
    endloop
  endfacet
  facet normal 1 -0 0
    outer loop
      vertex 50 60.5 15
      vertex 50 62.5 13
      vertex 50 67.5 15
    endloop
  endfacet
  facet normal 1 0 0
    outer loop
      vertex 50 60.5 5
      vertex 50 62.5 13
      vertex 50 60.5 15
    endloop
  endfacet
  facet normal 1 0 0
    outer loop
      vertex 50 62.5 13
      vertex 50 60.5 5
      vertex 50 62.5 5
    endloop
  endfacet
  facet normal 1 0 0
    outer loop
      vertex 50 67.5 -5
      vertex 50 65.5 13
      vertex 50 65.5 -5
    endloop
  endfacet
  facet normal -1 0 0
    outer loop
      vertex 40 62.5 5
      vertex 40 60.5 5
      vertex 40 62.5 13
    endloop
  endfacet
  facet normal -1 0 0
    outer loop
      vertex 40 65.5 13
      vertex 40 67.5 -5
      vertex 40 65.5 -5
    endloop
  endfacet
  facet normal -1 0 0
    outer loop
      vertex 40 67.5 -5
      vertex 40 65.5 13
      vertex 40 67.5 15
    endloop
  endfacet
  facet normal -1 0 0
    outer loop
      vertex 40 62.5 13
      vertex 40 67.5 15
      vertex 40 65.5 13
    endloop
  endfacet
  facet normal -1 0 0
    outer loop
      vertex 40 62.5 13
      vertex 40 60.5 15
      vertex 40 67.5 15
    endloop
  endfacet
  facet normal -1 0 0
    outer loop
      vertex 40 60.5 15
      vertex 40 62.5 13
      vertex 40 60.5 5
    endloop
  endfacet
  facet normal 0 -1 0
    outer loop
      vertex 40 65.5 -5
      vertex 50 65.5 13
      vertex 40 65.5 13
    endloop
  endfacet
  facet normal 0 -1 -0
    outer loop
      vertex 50 65.5 13
      vertex 40 65.5 -5
      vertex 50 65.5 -5
    endloop
  endfacet
  facet normal 0 0 -1
    outer loop
      vertex 40 65.5 -5
      vertex 50 67.5 -5
      vertex 50 65.5 -5
    endloop
  endfacet
  facet normal -0 0 -1
    outer loop
      vertex 50 67.5 -5
      vertex 40 65.5 -5
      vertex 40 67.5 -5
    endloop
  endfacet
  facet normal 0 1 -0
    outer loop
      vertex 50 67.5 -5
      vertex 40 67.5 15
      vertex 50 67.5 15
    endloop
  endfacet
  facet normal 0 1 0
    outer loop
      vertex 40 67.5 15
      vertex 50 67.5 -5
      vertex 40 67.5 -5
    endloop
  endfacet
  facet normal 0 0 -1
    outer loop
      vertex 40 62.5 13
      vertex 50 65.5 13
      vertex 50 62.5 13
    endloop
  endfacet
  facet normal -0 0 -1
    outer loop
      vertex 50 65.5 13
      vertex 40 62.5 13
      vertex 40 65.5 13
    endloop
  endfacet
  facet normal 0 0 -1
    outer loop
      vertex 40 -74 15
      vertex 50 -60.5 15
      vertex 50 -74 15
    endloop
  endfacet
  facet normal -0 0 -1
    outer loop
      vertex 50 -60.5 15
      vertex 40 -74 15
      vertex 40 -60.5 15
    endloop
  endfacet
  facet normal 0 -1 0
    outer loop
      vertex 40 -74 15
      vertex 50 -74 35
      vertex 40 -74 35
    endloop
  endfacet
  facet normal 0 -1 -0
    outer loop
      vertex 50 -74 35
      vertex 40 -74 15
      vertex 50 -74 15
    endloop
  endfacet
  facet normal 1 0 0
    outer loop
      vertex 50 -74 35
      vertex 50 -74 15
      vertex 50 -60.5 15
    endloop
  endfacet
  facet normal -1 0 0
    outer loop
      vertex 40 -60.5 15
      vertex 40 -74 15
      vertex 40 -74 35
    endloop
  endfacet
  facet normal 0 0.828849 0.559473
    outer loop
      vertex 50 -60.5 15
      vertex 40 -74 35
      vertex 50 -74 35
    endloop
  endfacet
  facet normal 0 0.828849 0.559473
    outer loop
      vertex 40 -74 35
      vertex 50 -60.5 15
      vertex 40 -60.5 15
    endloop
  endfacet
  facet normal -0 0 1
    outer loop
      vertex 40 -58.5 5
      vertex 50 -62.5 5
      vertex 50 -58.5 5
    endloop
  endfacet
  facet normal 0 0 1
    outer loop
      vertex 50 -62.5 5
      vertex 40 -58.5 5
      vertex 40 -62.5 5
    endloop
  endfacet
  facet normal 0 -1 0
    outer loop
      vertex 40 -62.5 -5
      vertex 50 -62.5 5
      vertex 40 -62.5 5
    endloop
  endfacet
  facet normal 0 -1 -0
    outer loop
      vertex 50 -62.5 5
      vertex 40 -62.5 -5
      vertex 50 -62.5 -5
    endloop
  endfacet
  facet normal -1 -0 0
    outer loop
      vertex 40 -58.5 5
      vertex 40 -62.5 -5
      vertex 40 -62.5 5
    endloop
  endfacet
  facet normal 1 -0 0
    outer loop
      vertex 50 -62.5 5
      vertex 50 -62.5 -5
      vertex 50 -58.5 5
    endloop
  endfacet
  facet normal 0 0.928477 -0.371391
    outer loop
      vertex 50 -62.5 -5
      vertex 40 -58.5 5
      vertex 50 -58.5 5
    endloop
  endfacet
  facet normal 0 0.928477 -0.371391
    outer loop
      vertex 40 -58.5 5
      vertex 50 -62.5 -5
      vertex 40 -62.5 -5
    endloop
  endfacet
  facet normal 0 1 -0
    outer loop
      vertex 50 -60.5 5
      vertex 40 -60.5 15
      vertex 50 -60.5 15
    endloop
  endfacet
  facet normal 0 1 0
    outer loop
      vertex 40 -60.5 15
      vertex 50 -60.5 5
      vertex 40 -60.5 5
    endloop
  endfacet
  facet normal -0 0 1
    outer loop
      vertex 40 -60.5 15
      vertex 50 -67.5 15
      vertex 50 -60.5 15
    endloop
  endfacet
  facet normal 0 0 1
    outer loop
      vertex 50 -67.5 15
      vertex 40 -60.5 15
      vertex 40 -67.5 15
    endloop
  endfacet
  facet normal 0 0 -1
    outer loop
      vertex 40 -62.5 5
      vertex 50 -60.5 5
      vertex 50 -62.5 5
    endloop
  endfacet
  facet normal -0 0 -1
    outer loop
      vertex 50 -60.5 5
      vertex 40 -62.5 5
      vertex 40 -60.5 5
    endloop
  endfacet
  facet normal 0 -1 0
    outer loop
      vertex 40 -62.5 5
      vertex 50 -62.5 13
      vertex 40 -62.5 13
    endloop
  endfacet
  facet normal 0 -1 -0
    outer loop
      vertex 50 -62.5 13
      vertex 40 -62.5 5
      vertex 50 -62.5 5
    endloop
  endfacet
  facet normal -1 0 0
    outer loop
      vertex 40 -65.5 -5
      vertex 40 -67.5 -5
      vertex 40 -65.5 13
    endloop
  endfacet
  facet normal -1 0 0
    outer loop
      vertex 40 -62.5 13
      vertex 40 -60.5 5
      vertex 40 -62.5 5
    endloop
  endfacet
  facet normal -1 0 0
    outer loop
      vertex 40 -60.5 5
      vertex 40 -62.5 13
      vertex 40 -60.5 15
    endloop
  endfacet
  facet normal -1 0 0
    outer loop
      vertex 40 -65.5 13
      vertex 40 -60.5 15
      vertex 40 -62.5 13
    endloop
  endfacet
  facet normal -1 0 0
    outer loop
      vertex 40 -65.5 13
      vertex 40 -67.5 15
      vertex 40 -60.5 15
    endloop
  endfacet
  facet normal -1 0 0
    outer loop
      vertex 40 -67.5 15
      vertex 40 -65.5 13
      vertex 40 -67.5 -5
    endloop
  endfacet
  facet normal 1 0 0
    outer loop
      vertex 50 -60.5 15
      vertex 50 -62.5 13
      vertex 50 -60.5 5
    endloop
  endfacet
  facet normal 1 0 0
    outer loop
      vertex 50 -60.5 15
      vertex 50 -65.5 13
      vertex 50 -62.5 13
    endloop
  endfacet
  facet normal 1 -0 0
    outer loop
      vertex 50 -67.5 15
      vertex 50 -65.5 13
      vertex 50 -60.5 15
    endloop
  endfacet
  facet normal 1 0 0
    outer loop
      vertex 50 -67.5 -5
      vertex 50 -65.5 13
      vertex 50 -67.5 15
    endloop
  endfacet
  facet normal 1 0 0
    outer loop
      vertex 50 -65.5 13
      vertex 50 -67.5 -5
      vertex 50 -65.5 -5
    endloop
  endfacet
  facet normal 1 0 0
    outer loop
      vertex 50 -60.5 5
      vertex 50 -62.5 13
      vertex 50 -62.5 5
    endloop
  endfacet
  facet normal 0 1 -0
    outer loop
      vertex 50 -65.5 -5
      vertex 40 -65.5 13
      vertex 50 -65.5 13
    endloop
  endfacet
  facet normal 0 1 0
    outer loop
      vertex 40 -65.5 13
      vertex 50 -65.5 -5
      vertex 40 -65.5 -5
    endloop
  endfacet
  facet normal 0 0 -1
    outer loop
      vertex 40 -67.5 -5
      vertex 50 -65.5 -5
      vertex 50 -67.5 -5
    endloop
  endfacet
  facet normal -0 0 -1
    outer loop
      vertex 50 -65.5 -5
      vertex 40 -67.5 -5
      vertex 40 -65.5 -5
    endloop
  endfacet
  facet normal 0 -1 0
    outer loop
      vertex 40 -67.5 -5
      vertex 50 -67.5 15
      vertex 40 -67.5 15
    endloop
  endfacet
  facet normal 0 -1 -0
    outer loop
      vertex 50 -67.5 15
      vertex 40 -67.5 -5
      vertex 50 -67.5 -5
    endloop
  endfacet
  facet normal 0 0 -1
    outer loop
      vertex 40 -65.5 13
      vertex 50 -62.5 13
      vertex 50 -65.5 13
    endloop
  endfacet
  facet normal -0 0 -1
    outer loop
      vertex 50 -62.5 13
      vertex 40 -65.5 13
      vertex 40 -62.5 13
    endloop
  endfacet
endsolid OpenSCAD_Model
