solid OpenSCAD_Model
  facet normal 1 -0 0
    outer loop
      vertex 62.5 -75 75
      vertex 62.5 75 0
      vertex 62.5 75 75
    endloop
  endfacet
  facet normal 1 0 0
    outer loop
      vertex 62.5 75 0
      vertex 62.5 -75 75
      vertex 62.5 -75 0
    endloop
  endfacet
  facet normal -0 0 1
    outer loop
      vertex -62.5 75 75
      vertex 62.5 -75 75
      vertex 62.5 75 75
    endloop
  endfacet
  facet normal 0 0 1
    outer loop
      vertex 62.5 -75 75
      vertex -62.5 75 75
      vertex -62.5 -75 75
    endloop
  endfacet
  facet normal 0 1 0
    outer loop
      vertex 62.5 75 75
      vertex 0 75 25
      vertex -62.5 75 75
    endloop
  endfacet
  facet normal 0 1 0
    outer loop
      vertex 62.5 75 75
      vertex 8.68241 75 24.2404
      vertex 0 75 25
    endloop
  endfacet
  facet normal 0 1 0
    outer loop
      vertex 62.5 75 75
      vertex 17.101 75 21.9846
      vertex 8.68241 75 24.2404
    endloop
  endfacet
  facet normal 0 1 0
    outer loop
      vertex 62.5 75 75
      vertex 25 75 18.3013
      vertex 17.101 75 21.9846
    endloop
  endfacet
  facet normal 0 1 0
    outer loop
      vertex 62.5 75 75
      vertex 32.1394 75 13.3022
      vertex 25 75 18.3013
    endloop
  endfacet
  facet normal 0 1 -0
    outer loop
      vertex 62.5 75 0
      vertex 32.1394 75 13.3022
      vertex 62.5 75 75
    endloop
  endfacet
  facet normal 0 1 0
    outer loop
      vertex 32.1394 75 13.3022
      vertex 62.5 75 0
      vertex 38.3022 75 7.13938
    endloop
  endfacet
  facet normal 0 1 0
    outer loop
      vertex 38.3022 75 7.13938
      vertex 62.5 75 0
      vertex 43.3013 75 0
    endloop
  endfacet
  facet normal 0 1 -0
    outer loop
      vertex -8.68241 75 24.2404
      vertex -62.5 75 75
      vertex 0 75 25
    endloop
  endfacet
  facet normal 0 1 -0
    outer loop
      vertex -17.101 75 21.9846
      vertex -62.5 75 75
      vertex -8.68241 75 24.2404
    endloop
  endfacet
  facet normal 0 1 -0
    outer loop
      vertex -25 75 18.3013
      vertex -62.5 75 75
      vertex -17.101 75 21.9846
    endloop
  endfacet
  facet normal 0 1 -0
    outer loop
      vertex -32.1394 75 13.3022
      vertex -62.5 75 75
      vertex -25 75 18.3013
    endloop
  endfacet
  facet normal 0 1 0
    outer loop
      vertex -62.5 75 0
      vertex -32.1394 75 13.3022
      vertex -38.3022 75 7.13938
    endloop
  endfacet
  facet normal 0 1 0
    outer loop
      vertex -62.5 75 0
      vertex -38.3022 75 7.13938
      vertex -43.3013 75 0
    endloop
  endfacet
  facet normal 0 1 0
    outer loop
      vertex -32.1394 75 13.3022
      vertex -62.5 75 0
      vertex -62.5 75 75
    endloop
  endfacet
  facet normal 0 -1 0
    outer loop
      vertex -62.5 -75 75
      vertex 0 -75 25
      vertex 62.5 -75 75
    endloop
  endfacet
  facet normal 0 -1 0
    outer loop
      vertex -62.5 -75 75
      vertex -8.68241 -75 24.2404
      vertex 0 -75 25
    endloop
  endfacet
  facet normal 0 -1 0
    outer loop
      vertex -62.5 -75 75
      vertex -17.101 -75 21.9846
      vertex -8.68241 -75 24.2404
    endloop
  endfacet
  facet normal 0 -1 0
    outer loop
      vertex -62.5 -75 75
      vertex -25 -75 18.3013
      vertex -17.101 -75 21.9846
    endloop
  endfacet
  facet normal 0 -1 0
    outer loop
      vertex -62.5 -75 75
      vertex -32.1394 -75 13.3022
      vertex -25 -75 18.3013
    endloop
  endfacet
  facet normal 0 -1 0
    outer loop
      vertex -62.5 -75 0
      vertex -32.1394 -75 13.3022
      vertex -62.5 -75 75
    endloop
  endfacet
  facet normal 0 -1 0
    outer loop
      vertex -32.1394 -75 13.3022
      vertex -62.5 -75 0
      vertex -38.3022 -75 7.13938
    endloop
  endfacet
  facet normal 0 -1 0
    outer loop
      vertex -38.3022 -75 7.13938
      vertex -62.5 -75 0
      vertex -43.3013 -75 0
    endloop
  endfacet
  facet normal 0 -1 0
    outer loop
      vertex 8.68241 -75 24.2404
      vertex 62.5 -75 75
      vertex 0 -75 25
    endloop
  endfacet
  facet normal 0 -1 0
    outer loop
      vertex 17.101 -75 21.9846
      vertex 62.5 -75 75
      vertex 8.68241 -75 24.2404
    endloop
  endfacet
  facet normal 0 -1 0
    outer loop
      vertex 25 -75 18.3013
      vertex 62.5 -75 75
      vertex 17.101 -75 21.9846
    endloop
  endfacet
  facet normal 0 -1 0
    outer loop
      vertex 32.1394 -75 13.3022
      vertex 62.5 -75 75
      vertex 25 -75 18.3013
    endloop
  endfacet
  facet normal 0 -1 0
    outer loop
      vertex 62.5 -75 0
      vertex 32.1394 -75 13.3022
      vertex 38.3022 -75 7.13938
    endloop
  endfacet
  facet normal 0 -1 0
    outer loop
      vertex 62.5 -75 0
      vertex 38.3022 -75 7.13938
      vertex 43.3013 -75 0
    endloop
  endfacet
  facet normal 0 -1 0
    outer loop
      vertex 32.1394 -75 13.3022
      vertex 62.5 -75 0
      vertex 62.5 -75 75
    endloop
  endfacet
  facet normal -1 0 0
    outer loop
      vertex -62.5 -72.975 0
      vertex -62.5 -75 0
      vertex -62.5 -72.975 73
    endloop
  endfacet
  facet normal -1 0 0
    outer loop
      vertex -62.5 72.975 73
      vertex -62.5 75 0
      vertex -62.5 72.975 0
    endloop
  endfacet
  facet normal -1 0 0
    outer loop
      vertex -62.5 75 0
      vertex -62.5 72.975 73
      vertex -62.5 75 75
    endloop
  endfacet
  facet normal -1 0 0
    outer loop
      vertex -62.5 -72.975 73
      vertex -62.5 75 75
      vertex -62.5 72.975 73
    endloop
  endfacet
  facet normal -1 0 0
    outer loop
      vertex -62.5 -72.975 73
      vertex -62.5 -75 75
      vertex -62.5 75 75
    endloop
  endfacet
  facet normal -1 0 0
    outer loop
      vertex -62.5 -75 75
      vertex -62.5 -72.975 73
      vertex -62.5 -75 0
    endloop
  endfacet
  facet normal 0 0 -1
    outer loop
      vertex -62.5 72.975 0
      vertex -43.3013 75 0
      vertex -43.3013 72.975 0
    endloop
  endfacet
  facet normal -0 0 -1
    outer loop
      vertex -43.3013 75 0
      vertex -62.5 72.975 0
      vertex -62.5 75 0
    endloop
  endfacet
  facet normal 0 0 -1
    outer loop
      vertex -62.5 -75 0
      vertex -43.3013 -72.975 0
      vertex -43.3013 -75 0
    endloop
  endfacet
  facet normal -0 0 -1
    outer loop
      vertex -43.3013 -72.975 0
      vertex -62.5 -75 0
      vertex -62.5 -72.975 0
    endloop
  endfacet
  facet normal 0 0 -1
    outer loop
      vertex 62.5 -75 0
      vertex 60.8125 -72.975 0
      vertex 62.5 75 0
    endloop
  endfacet
  facet normal 0 0 -1
    outer loop
      vertex 43.3013 -75 0
      vertex 60.8125 -72.975 0
      vertex 62.5 -75 0
    endloop
  endfacet
  facet normal -0 0 -1
    outer loop
      vertex 60.8125 -72.975 0
      vertex 43.3013 -75 0
      vertex 43.3013 -72.975 0
    endloop
  endfacet
  facet normal 0 0 -1
    outer loop
      vertex 60.8125 72.975 0
      vertex 62.5 75 0
      vertex 60.8125 -72.975 0
    endloop
  endfacet
  facet normal 0 0 -1
    outer loop
      vertex 43.3013 75 0
      vertex 60.8125 72.975 0
      vertex 43.3013 72.975 0
    endloop
  endfacet
  facet normal 0 0 -1
    outer loop
      vertex 60.8125 72.975 0
      vertex 43.3013 75 0
      vertex 62.5 75 0
    endloop
  endfacet
  facet normal -1 0 0
    outer loop
      vertex 60.8125 -72.975 0
      vertex 60.8125 72.975 73
      vertex 60.8125 72.975 0
    endloop
  endfacet
  facet normal -1 -0 0
    outer loop
      vertex 60.8125 72.975 73
      vertex 60.8125 -72.975 0
      vertex 60.8125 -72.975 73
    endloop
  endfacet
  facet normal 0 0 -1
    outer loop
      vertex -62.5 -72.975 73
      vertex 60.8125 72.975 73
      vertex 60.8125 -72.975 73
    endloop
  endfacet
  facet normal -0 0 -1
    outer loop
      vertex 60.8125 72.975 73
      vertex -62.5 -72.975 73
      vertex -62.5 72.975 73
    endloop
  endfacet
  facet normal 0 -1 0
    outer loop
      vertex 0 72.975 25
      vertex 60.8125 72.975 73
      vertex -62.5 72.975 73
    endloop
  endfacet
  facet normal 0 -1 0
    outer loop
      vertex 8.68241 72.975 24.2404
      vertex 60.8125 72.975 73
      vertex 0 72.975 25
    endloop
  endfacet
  facet normal 0 -1 0
    outer loop
      vertex -62.5 72.975 73
      vertex -8.68241 72.975 24.2404
      vertex 0 72.975 25
    endloop
  endfacet
  facet normal 0 -1 0
    outer loop
      vertex -62.5 72.975 73
      vertex -17.101 72.975 21.9846
      vertex -8.68241 72.975 24.2404
    endloop
  endfacet
  facet normal 0 -1 0
    outer loop
      vertex -62.5 72.975 73
      vertex -25 72.975 18.3013
      vertex -17.101 72.975 21.9846
    endloop
  endfacet
  facet normal 0 -1 0
    outer loop
      vertex -62.5 72.975 73
      vertex -32.1394 72.975 13.3022
      vertex -25 72.975 18.3013
    endloop
  endfacet
  facet normal 0 -1 0
    outer loop
      vertex -62.5 72.975 0
      vertex -32.1394 72.975 13.3022
      vertex -62.5 72.975 73
    endloop
  endfacet
  facet normal 0 -1 0
    outer loop
      vertex -32.1394 72.975 13.3022
      vertex -62.5 72.975 0
      vertex -38.3022 72.975 7.13938
    endloop
  endfacet
  facet normal 0 -1 0
    outer loop
      vertex -38.3022 72.975 7.13938
      vertex -62.5 72.975 0
      vertex -43.3013 72.975 0
    endloop
  endfacet
  facet normal 0 -1 0
    outer loop
      vertex 50 72.975 33.4815
      vertex 60.8125 72.975 73
      vertex 40 72.975 33.4815
    endloop
  endfacet
  facet normal 0 -1 0
    outer loop
      vertex 60.8125 72.975 0
      vertex 50 72.975 33.4815
      vertex 50 72.975 15
    endloop
  endfacet
  facet normal 0 -1 -0
    outer loop
      vertex 40 72.975 15
      vertex 38.3022 72.975 7.13938
      vertex 50 72.975 15
    endloop
  endfacet
  facet normal 0 -1 0
    outer loop
      vertex 43.3013 72.975 0
      vertex 50 72.975 15
      vertex 38.3022 72.975 7.13938
    endloop
  endfacet
  facet normal 0 -1 0
    outer loop
      vertex 50 72.975 33.4815
      vertex 60.8125 72.975 0
      vertex 60.8125 72.975 73
    endloop
  endfacet
  facet normal 0 -1 0
    outer loop
      vertex 60.8125 72.975 0
      vertex 50 72.975 15
      vertex 43.3013 72.975 0
    endloop
  endfacet
  facet normal 0 -1 0
    outer loop
      vertex 60.8125 72.975 73
      vertex 8.68241 72.975 24.2404
      vertex 40 72.975 33.4815
    endloop
  endfacet
  facet normal 0 -1 0
    outer loop
      vertex 17.101 72.975 21.9846
      vertex 40 72.975 33.4815
      vertex 8.68241 72.975 24.2404
    endloop
  endfacet
  facet normal 0 -1 0
    outer loop
      vertex 25 72.975 18.3013
      vertex 40 72.975 33.4815
      vertex 17.101 72.975 21.9846
    endloop
  endfacet
  facet normal 0 -1 0
    outer loop
      vertex 25 72.975 18.3013
      vertex 40 72.975 15
      vertex 40 72.975 33.4815
    endloop
  endfacet
  facet normal 0 -1 0
    outer loop
      vertex 38.3022 72.975 7.13938
      vertex 40 72.975 15
      vertex 32.1394 72.975 13.3022
    endloop
  endfacet
  facet normal 0 -1 0
    outer loop
      vertex 32.1394 72.975 13.3022
      vertex 40 72.975 15
      vertex 25 72.975 18.3013
    endloop
  endfacet
  facet normal 0 1 0
    outer loop
      vertex 60.8125 -72.975 73
      vertex 8.68241 -72.975 24.2404
      vertex 0 -72.975 25
    endloop
  endfacet
  facet normal 0 1 0
    outer loop
      vertex 40 -72.975 33.4815
      vertex 17.101 -72.975 21.9846
      vertex 8.68241 -72.975 24.2404
    endloop
  endfacet
  facet normal 0 1 0
    outer loop
      vertex 40 -72.975 33.4815
      vertex 25 -72.975 18.3013
      vertex 17.101 -72.975 21.9846
    endloop
  endfacet
  facet normal 0 1 -0
    outer loop
      vertex 40 -72.975 15
      vertex 25 -72.975 18.3013
      vertex 40 -72.975 33.4815
    endloop
  endfacet
  facet normal 0 1 0
    outer loop
      vertex 25 -72.975 18.3013
      vertex 40 -72.975 15
      vertex 32.1394 -72.975 13.3022
    endloop
  endfacet
  facet normal 0 1 0
    outer loop
      vertex 40 -72.975 33.4815
      vertex 60.8125 -72.975 73
      vertex 50 -72.975 33.4815
    endloop
  endfacet
  facet normal 0 1 -0
    outer loop
      vertex 60.8125 -72.975 0
      vertex 50 -72.975 33.4815
      vertex 60.8125 -72.975 73
    endloop
  endfacet
  facet normal 0 1 0
    outer loop
      vertex 38.3022 -72.975 7.13938
      vertex 40 -72.975 15
      vertex 50 -72.975 15
    endloop
  endfacet
  facet normal 0 1 0
    outer loop
      vertex 40 -72.975 15
      vertex 38.3022 -72.975 7.13938
      vertex 32.1394 -72.975 13.3022
    endloop
  endfacet
  facet normal 0 1 0
    outer loop
      vertex 50 -72.975 33.4815
      vertex 60.8125 -72.975 0
      vertex 50 -72.975 15
    endloop
  endfacet
  facet normal 0 1 0
    outer loop
      vertex 43.3013 -72.975 0
      vertex 50 -72.975 15
      vertex 60.8125 -72.975 0
    endloop
  endfacet
  facet normal 0 1 0
    outer loop
      vertex 50 -72.975 15
      vertex 43.3013 -72.975 0
      vertex 38.3022 -72.975 7.13938
    endloop
  endfacet
  facet normal 0 1 0
    outer loop
      vertex 8.68241 -72.975 24.2404
      vertex 60.8125 -72.975 73
      vertex 40 -72.975 33.4815
    endloop
  endfacet
  facet normal 0 1 0
    outer loop
      vertex 60.8125 -72.975 73
      vertex 0 -72.975 25
      vertex -62.5 -72.975 73
    endloop
  endfacet
  facet normal 0 1 -0
    outer loop
      vertex -8.68241 -72.975 24.2404
      vertex -62.5 -72.975 73
      vertex 0 -72.975 25
    endloop
  endfacet
  facet normal 0 1 -0
    outer loop
      vertex -17.101 -72.975 21.9846
      vertex -62.5 -72.975 73
      vertex -8.68241 -72.975 24.2404
    endloop
  endfacet
  facet normal 0 1 -0
    outer loop
      vertex -25 -72.975 18.3013
      vertex -62.5 -72.975 73
      vertex -17.101 -72.975 21.9846
    endloop
  endfacet
  facet normal 0 1 -0
    outer loop
      vertex -32.1394 -72.975 13.3022
      vertex -62.5 -72.975 73
      vertex -25 -72.975 18.3013
    endloop
  endfacet
  facet normal 0 1 0
    outer loop
      vertex -62.5 -72.975 0
      vertex -32.1394 -72.975 13.3022
      vertex -38.3022 -72.975 7.13938
    endloop
  endfacet
  facet normal 0 1 0
    outer loop
      vertex -62.5 -72.975 0
      vertex -38.3022 -72.975 7.13938
      vertex -43.3013 -72.975 0
    endloop
  endfacet
  facet normal 0 1 0
    outer loop
      vertex -32.1394 -72.975 13.3022
      vertex -62.5 -72.975 0
      vertex -62.5 -72.975 73
    endloop
  endfacet
  facet normal -0.819149 0 -0.57358
    outer loop
      vertex 43.3013 72.975 0
      vertex 38.3022 75 7.13938
      vertex 43.3013 75 0
    endloop
  endfacet
  facet normal -0.819149 -0 -0.57358
    outer loop
      vertex 38.3022 75 7.13938
      vertex 43.3013 72.975 0
      vertex 38.3022 72.975 7.13938
    endloop
  endfacet
  facet normal -0.819149 0 -0.57358
    outer loop
      vertex 43.3013 -75 0
      vertex 38.3022 -72.975 7.13938
      vertex 43.3013 -72.975 0
    endloop
  endfacet
  facet normal -0.819149 -0 -0.57358
    outer loop
      vertex 38.3022 -72.975 7.13938
      vertex 43.3013 -75 0
      vertex 38.3022 -75 7.13938
    endloop
  endfacet
  facet normal 0.422612 0 -0.906311
    outer loop
      vertex -25 72.975 18.3013
      vertex -17.101 75 21.9846
      vertex -17.101 72.975 21.9846
    endloop
  endfacet
  facet normal 0.422612 0 -0.906311
    outer loop
      vertex -17.101 75 21.9846
      vertex -25 72.975 18.3013
      vertex -25 75 18.3013
    endloop
  endfacet
  facet normal 0.422612 0 -0.906311
    outer loop
      vertex -25 -75 18.3013
      vertex -17.101 -72.975 21.9846
      vertex -17.101 -75 21.9846
    endloop
  endfacet
  facet normal 0.422612 0 -0.906311
    outer loop
      vertex -17.101 -72.975 21.9846
      vertex -25 -75 18.3013
      vertex -25 -72.975 18.3013
    endloop
  endfacet
  facet normal 0.258824 0 -0.965925
    outer loop
      vertex -17.101 72.975 21.9846
      vertex -8.68241 75 24.2404
      vertex -8.68241 72.975 24.2404
    endloop
  endfacet
  facet normal 0.258824 0 -0.965925
    outer loop
      vertex -8.68241 75 24.2404
      vertex -17.101 72.975 21.9846
      vertex -17.101 75 21.9846
    endloop
  endfacet
  facet normal 0.258824 0 -0.965925
    outer loop
      vertex -17.101 -75 21.9846
      vertex -8.68241 -72.975 24.2404
      vertex -8.68241 -75 24.2404
    endloop
  endfacet
  facet normal 0.258824 0 -0.965925
    outer loop
      vertex -8.68241 -72.975 24.2404
      vertex -17.101 -75 21.9846
      vertex -17.101 -72.975 21.9846
    endloop
  endfacet
  facet normal -0.0871543 0 -0.996195
    outer loop
      vertex 0 72.975 25
      vertex 8.68241 75 24.2404
      vertex 8.68241 72.975 24.2404
    endloop
  endfacet
  facet normal -0.0871543 0 -0.996195
    outer loop
      vertex 8.68241 75 24.2404
      vertex 0 72.975 25
      vertex 0 75 25
    endloop
  endfacet
  facet normal -0.0871543 0 -0.996195
    outer loop
      vertex 0 -75 25
      vertex 8.68241 -72.975 24.2404
      vertex 8.68241 -75 24.2404
    endloop
  endfacet
  facet normal -0.0871543 0 -0.996195
    outer loop
      vertex 8.68241 -72.975 24.2404
      vertex 0 -75 25
      vertex 0 -72.975 25
    endloop
  endfacet
  facet normal 0.573579 0 -0.81915
    outer loop
      vertex -32.1394 72.975 13.3022
      vertex -25 75 18.3013
      vertex -25 72.975 18.3013
    endloop
  endfacet
  facet normal 0.573579 0 -0.81915
    outer loop
      vertex -25 75 18.3013
      vertex -32.1394 72.975 13.3022
      vertex -32.1394 75 13.3022
    endloop
  endfacet
  facet normal 0.573579 0 -0.81915
    outer loop
      vertex -32.1394 -75 13.3022
      vertex -25 -72.975 18.3013
      vertex -25 -75 18.3013
    endloop
  endfacet
  facet normal 0.573579 0 -0.81915
    outer loop
      vertex -25 -72.975 18.3013
      vertex -32.1394 -75 13.3022
      vertex -32.1394 -72.975 13.3022
    endloop
  endfacet
  facet normal -0.422612 0 -0.906311
    outer loop
      vertex 17.101 72.975 21.9846
      vertex 25 75 18.3013
      vertex 25 72.975 18.3013
    endloop
  endfacet
  facet normal -0.422612 0 -0.906311
    outer loop
      vertex 25 75 18.3013
      vertex 17.101 72.975 21.9846
      vertex 17.101 75 21.9846
    endloop
  endfacet
  facet normal -0.422612 0 -0.906311
    outer loop
      vertex 17.101 -75 21.9846
      vertex 25 -72.975 18.3013
      vertex 25 -75 18.3013
    endloop
  endfacet
  facet normal -0.422612 0 -0.906311
    outer loop
      vertex 25 -72.975 18.3013
      vertex 17.101 -75 21.9846
      vertex 17.101 -72.975 21.9846
    endloop
  endfacet
  facet normal -0.573579 0 -0.81915
    outer loop
      vertex 25 72.975 18.3013
      vertex 32.1394 75 13.3022
      vertex 32.1394 72.975 13.3022
    endloop
  endfacet
  facet normal -0.573579 0 -0.81915
    outer loop
      vertex 32.1394 75 13.3022
      vertex 25 72.975 18.3013
      vertex 25 75 18.3013
    endloop
  endfacet
  facet normal -0.573579 0 -0.81915
    outer loop
      vertex 25 -75 18.3013
      vertex 32.1394 -72.975 13.3022
      vertex 32.1394 -75 13.3022
    endloop
  endfacet
  facet normal -0.573579 0 -0.81915
    outer loop
      vertex 32.1394 -72.975 13.3022
      vertex 25 -75 18.3013
      vertex 25 -72.975 18.3013
    endloop
  endfacet
  facet normal -0.707108 0 -0.707106
    outer loop
      vertex 32.1394 72.975 13.3022
      vertex 38.3022 75 7.13938
      vertex 38.3022 72.975 7.13938
    endloop
  endfacet
  facet normal -0.707108 0 -0.707106
    outer loop
      vertex 38.3022 75 7.13938
      vertex 32.1394 72.975 13.3022
      vertex 32.1394 75 13.3022
    endloop
  endfacet
  facet normal -0.707108 0 -0.707106
    outer loop
      vertex 32.1394 -75 13.3022
      vertex 38.3022 -72.975 7.13938
      vertex 38.3022 -75 7.13938
    endloop
  endfacet
  facet normal -0.707108 0 -0.707106
    outer loop
      vertex 38.3022 -72.975 7.13938
      vertex 32.1394 -75 13.3022
      vertex 32.1394 -72.975 13.3022
    endloop
  endfacet
  facet normal 0.0871543 0 -0.996195
    outer loop
      vertex -8.68241 72.975 24.2404
      vertex 0 75 25
      vertex 0 72.975 25
    endloop
  endfacet
  facet normal 0.0871543 0 -0.996195
    outer loop
      vertex 0 75 25
      vertex -8.68241 72.975 24.2404
      vertex -8.68241 75 24.2404
    endloop
  endfacet
  facet normal 0.0871543 0 -0.996195
    outer loop
      vertex -8.68241 -75 24.2404
      vertex 0 -72.975 25
      vertex 0 -75 25
    endloop
  endfacet
  facet normal 0.0871543 0 -0.996195
    outer loop
      vertex 0 -72.975 25
      vertex -8.68241 -75 24.2404
      vertex -8.68241 -72.975 24.2404
    endloop
  endfacet
  facet normal 0.707108 0 -0.707106
    outer loop
      vertex -38.3022 72.975 7.13938
      vertex -32.1394 75 13.3022
      vertex -32.1394 72.975 13.3022
    endloop
  endfacet
  facet normal 0.707108 0 -0.707106
    outer loop
      vertex -32.1394 75 13.3022
      vertex -38.3022 72.975 7.13938
      vertex -38.3022 75 7.13938
    endloop
  endfacet
  facet normal 0.707108 0 -0.707106
    outer loop
      vertex -38.3022 -75 7.13938
      vertex -32.1394 -72.975 13.3022
      vertex -32.1394 -75 13.3022
    endloop
  endfacet
  facet normal 0.707108 0 -0.707106
    outer loop
      vertex -32.1394 -72.975 13.3022
      vertex -38.3022 -75 7.13938
      vertex -38.3022 -72.975 7.13938
    endloop
  endfacet
  facet normal -0.258824 0 -0.965925
    outer loop
      vertex 8.68241 72.975 24.2404
      vertex 17.101 75 21.9846
      vertex 17.101 72.975 21.9846
    endloop
  endfacet
  facet normal -0.258824 0 -0.965925
    outer loop
      vertex 17.101 75 21.9846
      vertex 8.68241 72.975 24.2404
      vertex 8.68241 75 24.2404
    endloop
  endfacet
  facet normal -0.258824 0 -0.965925
    outer loop
      vertex 8.68241 -75 24.2404
      vertex 17.101 -72.975 21.9846
      vertex 17.101 -75 21.9846
    endloop
  endfacet
  facet normal -0.258824 0 -0.965925
    outer loop
      vertex 17.101 -72.975 21.9846
      vertex 8.68241 -75 24.2404
      vertex 8.68241 -72.975 24.2404
    endloop
  endfacet
  facet normal 0.819149 0 -0.57358
    outer loop
      vertex -38.3022 72.975 7.13938
      vertex -43.3013 75 0
      vertex -38.3022 75 7.13938
    endloop
  endfacet
  facet normal 0.819149 0 -0.57358
    outer loop
      vertex -43.3013 75 0
      vertex -38.3022 72.975 7.13938
      vertex -43.3013 72.975 0
    endloop
  endfacet
  facet normal 0.819149 0 -0.57358
    outer loop
      vertex -38.3022 -75 7.13938
      vertex -43.3013 -72.975 0
      vertex -38.3022 -72.975 7.13938
    endloop
  endfacet
  facet normal 0.819149 0 -0.57358
    outer loop
      vertex -43.3013 -72.975 0
      vertex -38.3022 -75 7.13938
      vertex -43.3013 -75 0
    endloop
  endfacet
  facet normal 0 0 -1
    outer loop
      vertex 40 60.5 15
      vertex 50 72.975 15
      vertex 50 60.5 15
    endloop
  endfacet
  facet normal -0 0 -1
    outer loop
      vertex 50 72.975 15
      vertex 40 60.5 15
      vertex 40 72.975 15
    endloop
  endfacet
  facet normal -1 0 0
    outer loop
      vertex 40 72.975 15
      vertex 40 60.5 15
      vertex 40 72.975 33.4815
    endloop
  endfacet
  facet normal 1 0 0
    outer loop
      vertex 50 72.975 33.4815
      vertex 50 60.5 15
      vertex 50 72.975 15
    endloop
  endfacet
  facet normal 0 -0.828849 0.559472
    outer loop
      vertex 40 60.5 15
      vertex 50 72.975 33.4815
      vertex 40 72.975 33.4815
    endloop
  endfacet
  facet normal 0 -0.828849 0.559472
    outer loop
      vertex 50 72.975 33.4815
      vertex 40 60.5 15
      vertex 50 60.5 15
    endloop
  endfacet
  facet normal -0 0 1
    outer loop
      vertex 40 62.5 5
      vertex 50 58.5 5
      vertex 50 62.5 5
    endloop
  endfacet
  facet normal 0 0 1
    outer loop
      vertex 50 58.5 5
      vertex 40 62.5 5
      vertex 40 58.5 5
    endloop
  endfacet
  facet normal 0 1 -0
    outer loop
      vertex 50 62.5 -5
      vertex 40 62.5 5
      vertex 50 62.5 5
    endloop
  endfacet
  facet normal 0 1 0
    outer loop
      vertex 40 62.5 5
      vertex 50 62.5 -5
      vertex 40 62.5 -5
    endloop
  endfacet
  facet normal 1 0 0
    outer loop
      vertex 50 62.5 5
      vertex 50 58.5 5
      vertex 50 62.5 -5
    endloop
  endfacet
  facet normal -1 0 0
    outer loop
      vertex 40 62.5 -5
      vertex 40 58.5 5
      vertex 40 62.5 5
    endloop
  endfacet
  facet normal 0 -0.928477 -0.371391
    outer loop
      vertex 40 62.5 -5
      vertex 50 58.5 5
      vertex 40 58.5 5
    endloop
  endfacet
  facet normal 0 -0.928477 -0.371391
    outer loop
      vertex 50 58.5 5
      vertex 40 62.5 -5
      vertex 50 62.5 -5
    endloop
  endfacet
  facet normal 0 -1 0
    outer loop
      vertex 40 60.5 5
      vertex 50 60.5 15
      vertex 40 60.5 15
    endloop
  endfacet
  facet normal 0 -1 -0
    outer loop
      vertex 50 60.5 15
      vertex 40 60.5 5
      vertex 50 60.5 5
    endloop
  endfacet
  facet normal -0 0 1
    outer loop
      vertex 40 67.5 15
      vertex 50 60.5 15
      vertex 50 67.5 15
    endloop
  endfacet
  facet normal 0 0 1
    outer loop
      vertex 50 60.5 15
      vertex 40 67.5 15
      vertex 40 60.5 15
    endloop
  endfacet
  facet normal 0 0 -1
    outer loop
      vertex 40 60.5 5
      vertex 50 62.5 5
      vertex 50 60.5 5
    endloop
  endfacet
  facet normal -0 0 -1
    outer loop
      vertex 50 62.5 5
      vertex 40 60.5 5
      vertex 40 62.5 5
    endloop
  endfacet
  facet normal 0 1 -0
    outer loop
      vertex 50 62.5 5
      vertex 40 62.5 13
      vertex 50 62.5 13
    endloop
  endfacet
  facet normal 0 1 0
    outer loop
      vertex 40 62.5 13
      vertex 50 62.5 5
      vertex 40 62.5 5
    endloop
  endfacet
  facet normal 1 0 0
    outer loop
      vertex 50 67.5 15
      vertex 50 65.5 13
      vertex 50 67.5 -5
    endloop
  endfacet
  facet normal 1 0 0
    outer loop
      vertex 50 67.5 15
      vertex 50 62.5 13
      vertex 50 65.5 13
    endloop
  endfacet
  facet normal 1 -0 0
    outer loop
      vertex 50 60.5 15
      vertex 50 62.5 13
      vertex 50 67.5 15
    endloop
  endfacet
  facet normal 1 0 0
    outer loop
      vertex 50 60.5 5
      vertex 50 62.5 13
      vertex 50 60.5 15
    endloop
  endfacet
  facet normal 1 0 0
    outer loop
      vertex 50 62.5 13
      vertex 50 60.5 5
      vertex 50 62.5 5
    endloop
  endfacet
  facet normal 1 0 0
    outer loop
      vertex 50 67.5 -5
      vertex 50 65.5 13
      vertex 50 65.5 -5
    endloop
  endfacet
  facet normal -1 0 0
    outer loop
      vertex 40 62.5 5
      vertex 40 60.5 5
      vertex 40 62.5 13
    endloop
  endfacet
  facet normal -1 0 0
    outer loop
      vertex 40 65.5 13
      vertex 40 67.5 -5
      vertex 40 65.5 -5
    endloop
  endfacet
  facet normal -1 0 0
    outer loop
      vertex 40 67.5 -5
      vertex 40 65.5 13
      vertex 40 67.5 15
    endloop
  endfacet
  facet normal -1 0 0
    outer loop
      vertex 40 62.5 13
      vertex 40 67.5 15
      vertex 40 65.5 13
    endloop
  endfacet
  facet normal -1 0 0
    outer loop
      vertex 40 62.5 13
      vertex 40 60.5 15
      vertex 40 67.5 15
    endloop
  endfacet
  facet normal -1 0 0
    outer loop
      vertex 40 60.5 15
      vertex 40 62.5 13
      vertex 40 60.5 5
    endloop
  endfacet
  facet normal 0 -1 0
    outer loop
      vertex 40 65.5 -5
      vertex 50 65.5 13
      vertex 40 65.5 13
    endloop
  endfacet
  facet normal 0 -1 -0
    outer loop
      vertex 50 65.5 13
      vertex 40 65.5 -5
      vertex 50 65.5 -5
    endloop
  endfacet
  facet normal 0 0 -1
    outer loop
      vertex 40 65.5 -5
      vertex 50 67.5 -5
      vertex 50 65.5 -5
    endloop
  endfacet
  facet normal -0 0 -1
    outer loop
      vertex 50 67.5 -5
      vertex 40 65.5 -5
      vertex 40 67.5 -5
    endloop
  endfacet
  facet normal 0 1 -0
    outer loop
      vertex 50 67.5 -5
      vertex 40 67.5 15
      vertex 50 67.5 15
    endloop
  endfacet
  facet normal 0 1 0
    outer loop
      vertex 40 67.5 15
      vertex 50 67.5 -5
      vertex 40 67.5 -5
    endloop
  endfacet
  facet normal 0 0 -1
    outer loop
      vertex 40 62.5 13
      vertex 50 65.5 13
      vertex 50 62.5 13
    endloop
  endfacet
  facet normal -0 0 -1
    outer loop
      vertex 50 65.5 13
      vertex 40 62.5 13
      vertex 40 65.5 13
    endloop
  endfacet
  facet normal 0 0 -1
    outer loop
      vertex 40 -72.975 15
      vertex 50 -60.5 15
      vertex 50 -72.975 15
    endloop
  endfacet
  facet normal -0 0 -1
    outer loop
      vertex 50 -60.5 15
      vertex 40 -72.975 15
      vertex 40 -60.5 15
    endloop
  endfacet
  facet normal 1 0 0
    outer loop
      vertex 50 -72.975 33.4815
      vertex 50 -72.975 15
      vertex 50 -60.5 15
    endloop
  endfacet
  facet normal -1 0 0
    outer loop
      vertex 40 -60.5 15
      vertex 40 -72.975 15
      vertex 40 -72.975 33.4815
    endloop
  endfacet
  facet normal 0 0.828849 0.559472
    outer loop
      vertex 50 -60.5 15
      vertex 40 -72.975 33.4815
      vertex 50 -72.975 33.4815
    endloop
  endfacet
  facet normal 0 0.828849 0.559472
    outer loop
      vertex 40 -72.975 33.4815
      vertex 50 -60.5 15
      vertex 40 -60.5 15
    endloop
  endfacet
  facet normal -0 0 1
    outer loop
      vertex 40 -58.5 5
      vertex 50 -62.5 5
      vertex 50 -58.5 5
    endloop
  endfacet
  facet normal 0 0 1
    outer loop
      vertex 50 -62.5 5
      vertex 40 -58.5 5
      vertex 40 -62.5 5
    endloop
  endfacet
  facet normal 0 -1 0
    outer loop
      vertex 40 -62.5 -5
      vertex 50 -62.5 5
      vertex 40 -62.5 5
    endloop
  endfacet
  facet normal 0 -1 -0
    outer loop
      vertex 50 -62.5 5
      vertex 40 -62.5 -5
      vertex 50 -62.5 -5
    endloop
  endfacet
  facet normal -1 -0 0
    outer loop
      vertex 40 -58.5 5
      vertex 40 -62.5 -5
      vertex 40 -62.5 5
    endloop
  endfacet
  facet normal 1 -0 0
    outer loop
      vertex 50 -62.5 5
      vertex 50 -62.5 -5
      vertex 50 -58.5 5
    endloop
  endfacet
  facet normal 0 0.928477 -0.371391
    outer loop
      vertex 50 -62.5 -5
      vertex 40 -58.5 5
      vertex 50 -58.5 5
    endloop
  endfacet
  facet normal 0 0.928477 -0.371391
    outer loop
      vertex 40 -58.5 5
      vertex 50 -62.5 -5
      vertex 40 -62.5 -5
    endloop
  endfacet
  facet normal 0 1 -0
    outer loop
      vertex 50 -60.5 5
      vertex 40 -60.5 15
      vertex 50 -60.5 15
    endloop
  endfacet
  facet normal 0 1 0
    outer loop
      vertex 40 -60.5 15
      vertex 50 -60.5 5
      vertex 40 -60.5 5
    endloop
  endfacet
  facet normal -0 0 1
    outer loop
      vertex 40 -60.5 15
      vertex 50 -67.5 15
      vertex 50 -60.5 15
    endloop
  endfacet
  facet normal 0 0 1
    outer loop
      vertex 50 -67.5 15
      vertex 40 -60.5 15
      vertex 40 -67.5 15
    endloop
  endfacet
  facet normal 0 0 -1
    outer loop
      vertex 40 -62.5 5
      vertex 50 -60.5 5
      vertex 50 -62.5 5
    endloop
  endfacet
  facet normal -0 0 -1
    outer loop
      vertex 50 -60.5 5
      vertex 40 -62.5 5
      vertex 40 -60.5 5
    endloop
  endfacet
  facet normal 0 -1 0
    outer loop
      vertex 40 -62.5 5
      vertex 50 -62.5 13
      vertex 40 -62.5 13
    endloop
  endfacet
  facet normal 0 -1 -0
    outer loop
      vertex 50 -62.5 13
      vertex 40 -62.5 5
      vertex 50 -62.5 5
    endloop
  endfacet
  facet normal -1 0 0
    outer loop
      vertex 40 -65.5 -5
      vertex 40 -67.5 -5
      vertex 40 -65.5 13
    endloop
  endfacet
  facet normal -1 0 0
    outer loop
      vertex 40 -62.5 13
      vertex 40 -60.5 5
      vertex 40 -62.5 5
    endloop
  endfacet
  facet normal -1 0 0
    outer loop
      vertex 40 -60.5 5
      vertex 40 -62.5 13
      vertex 40 -60.5 15
    endloop
  endfacet
  facet normal -1 0 0
    outer loop
      vertex 40 -65.5 13
      vertex 40 -60.5 15
      vertex 40 -62.5 13
    endloop
  endfacet
  facet normal -1 0 0
    outer loop
      vertex 40 -65.5 13
      vertex 40 -67.5 15
      vertex 40 -60.5 15
    endloop
  endfacet
  facet normal -1 0 0
    outer loop
      vertex 40 -67.5 15
      vertex 40 -65.5 13
      vertex 40 -67.5 -5
    endloop
  endfacet
  facet normal 1 0 0
    outer loop
      vertex 50 -60.5 15
      vertex 50 -62.5 13
      vertex 50 -60.5 5
    endloop
  endfacet
  facet normal 1 0 0
    outer loop
      vertex 50 -60.5 15
      vertex 50 -65.5 13
      vertex 50 -62.5 13
    endloop
  endfacet
  facet normal 1 -0 0
    outer loop
      vertex 50 -67.5 15
      vertex 50 -65.5 13
      vertex 50 -60.5 15
    endloop
  endfacet
  facet normal 1 0 0
    outer loop
      vertex 50 -67.5 -5
      vertex 50 -65.5 13
      vertex 50 -67.5 15
    endloop
  endfacet
  facet normal 1 0 0
    outer loop
      vertex 50 -65.5 13
      vertex 50 -67.5 -5
      vertex 50 -65.5 -5
    endloop
  endfacet
  facet normal 1 0 0
    outer loop
      vertex 50 -60.5 5
      vertex 50 -62.5 13
      vertex 50 -62.5 5
    endloop
  endfacet
  facet normal 0 1 -0
    outer loop
      vertex 50 -65.5 -5
      vertex 40 -65.5 13
      vertex 50 -65.5 13
    endloop
  endfacet
  facet normal 0 1 0
    outer loop
      vertex 40 -65.5 13
      vertex 50 -65.5 -5
      vertex 40 -65.5 -5
    endloop
  endfacet
  facet normal 0 0 -1
    outer loop
      vertex 40 -67.5 -5
      vertex 50 -65.5 -5
      vertex 50 -67.5 -5
    endloop
  endfacet
  facet normal -0 0 -1
    outer loop
      vertex 50 -65.5 -5
      vertex 40 -67.5 -5
      vertex 40 -65.5 -5
    endloop
  endfacet
  facet normal 0 -1 0
    outer loop
      vertex 40 -67.5 -5
      vertex 50 -67.5 15
      vertex 40 -67.5 15
    endloop
  endfacet
  facet normal 0 -1 -0
    outer loop
      vertex 50 -67.5 15
      vertex 40 -67.5 -5
      vertex 50 -67.5 -5
    endloop
  endfacet
  facet normal 0 0 -1
    outer loop
      vertex 40 -65.5 13
      vertex 50 -62.5 13
      vertex 50 -65.5 13
    endloop
  endfacet
  facet normal -0 0 -1
    outer loop
      vertex 50 -62.5 13
      vertex 40 -65.5 13
      vertex 40 -62.5 13
    endloop
  endfacet
endsolid OpenSCAD_Model
