solid OpenSCAD_Model
  facet normal 0.164338 0.986216 0.0192619
    outer loop
      vertex 27.9084 84.1133 480
      vertex 25 84.4589 487.119
      vertex 25 84.3556 492.408
    endloop
  endfacet
  facet normal 0.164396 0.986206 0.019286
    outer loop
      vertex 25 84.4589 487.119
      vertex 27.9084 84.1133 480
      vertex 26.7554 84.3055 480
    endloop
  endfacet
  facet normal 0.211737 0.976805 0.031934
    outer loop
      vertex 30 83.2093 498.16
      vertex 25 83.7573 514.55
      vertex 25 83.7437 514.966
    endloop
  endfacet
  facet normal 0.211668 0.97682 0.0319123
    outer loop
      vertex 25 83.7573 514.55
      vertex 30 83.2093 498.16
      vertex 30 83.2618 496.553
    endloop
  endfacet
  facet normal 0.257054 0.965256 0.0469464
    outer loop
      vertex 30 82.4874 515.256
      vertex 26.4949 83.1491 520.843
      vertex 28.1047 82.7204 520.843
    endloop
  endfacet
  facet normal 0.257052 0.965257 0.0469454
    outer loop
      vertex 26.4949 83.1491 520.843
      vertex 30 82.4874 515.256
      vertex 30 82.7012 510.86
    endloop
  endfacet
  facet normal 0.241762 0.969446 0.0415477
    outer loop
      vertex 26.4949 83.1491 520.843
      vertex 25 83.5372 520.486
      vertex 25 83.5219 520.843
    endloop
  endfacet
  facet normal 0.241757 0.969446 0.0415677
    outer loop
      vertex 30 82.7278 510.283
      vertex 25 83.5372 520.486
      vertex 26.4949 83.1491 520.843
    endloop
  endfacet
  facet normal 0.241737 0.969451 0.0415575
    outer loop
      vertex 25 83.5372 520.486
      vertex 30 82.7278 510.283
      vertex 30 82.9138 505.944
    endloop
  endfacet
  facet normal 0.210897 0.976994 0.0316932
    outer loop
      vertex 30 83.2618 496.553
      vertex 25 83.9315 509.18
      vertex 25 83.7573 514.55
    endloop
  endfacet
  facet normal 0.210879 0.976999 0.0316859
    outer loop
      vertex 25 83.9315 509.18
      vertex 30 83.2618 496.553
      vertex 30 83.4117 491.931
    endloop
  endfacet
  facet normal 0.272406 0.960742 0.0526181
    outer loop
      vertex 30 82.2271 520.038
      vertex 28.1047 82.7204 520.843
      vertex 29.7059 82.2664 520.843
    endloop
  endfacet
  facet normal 0.272409 0.960741 0.0526256
    outer loop
      vertex 28.1047 82.7204 520.843
      vertex 30 82.2271 520.038
      vertex 30 82.4582 515.819
    endloop
  endfacet
  facet normal 0.163999 0.986274 0.0191867
    outer loop
      vertex 26.7554 84.3055 480
      vertex 25 84.5173 484.117
      vertex 25 84.4589 487.119
    endloop
  endfacet
  facet normal 0.164038 0.986267 0.0192037
    outer loop
      vertex 25 84.5173 484.117
      vertex 26.7554 84.3055 480
      vertex 25.9323 84.4424 480
    endloop
  endfacet
  facet normal 0.238419 0.97032 0.04043
    outer loop
      vertex 30 82.9515 505.057
      vertex 25 83.5391 520.44
      vertex 25 83.5381 520.464
    endloop
  endfacet
  facet normal 0.230989 0.972216 0.0379425
    outer loop
      vertex 25 83.5391 520.44
      vertex 30 82.9515 505.057
      vertex 30 82.9908 504.05
    endloop
  endfacet
  facet normal 0.22635 0.973362 0.0364892
    outer loop
      vertex 30 82.9908 504.05
      vertex 25 83.7307 515.329
      vertex 25 83.5391 520.44
    endloop
  endfacet
  facet normal 0.226387 0.973353 0.0365062
    outer loop
      vertex 25 83.7307 515.329
      vertex 30 82.9908 504.05
      vertex 30 83.1592 499.56
    endloop
  endfacet
  facet normal 0.2611 0.964099 0.0483673
    outer loop
      vertex 30 82.4874 515.256
      vertex 28.1047 82.7204 520.843
      vertex 30 82.4725 515.553
    endloop
  endfacet
  facet normal 0.221461 0.974544 0.034901
    outer loop
      vertex 30 83.1592 499.56
      vertex 25 83.7437 514.966
      vertex 25 83.7307 515.329
    endloop
  endfacet
  facet normal 0.221385 0.974563 0.0348754
    outer loop
      vertex 25 83.7437 514.966
      vertex 30 83.1592 499.56
      vertex 30 83.2093 498.16
    endloop
  endfacet
  facet normal 0.250555 0.967075 0.0445827
    outer loop
      vertex 30 82.7278 510.283
      vertex 26.4949 83.1491 520.843
      vertex 30 82.7012 510.86
    endloop
  endfacet
  facet normal 0.236547 0.970808 0.0397149
    outer loop
      vertex 30 82.9138 505.944
      vertex 25 83.5381 520.464
      vertex 25 83.5372 520.486
    endloop
  endfacet
  facet normal 0.240767 0.969707 0.0412153
    outer loop
      vertex 25 83.5381 520.464
      vertex 30 82.9138 505.944
      vertex 30 82.9515 505.057
    endloop
  endfacet
  facet normal 0.182975 0.982828 0.0238544
    outer loop
      vertex 30 83.6716 482.643
      vertex 25 84.1781 500.127
      vertex 25 84.1398 501.705
    endloop
  endfacet
  facet normal 0.18327 0.982773 0.0238721
    outer loop
      vertex 29.8772 83.7587 480
      vertex 30 83.6716 482.643
      vertex 30 83.7358 480
    endloop
  endfacet
  facet normal 0.183071 0.98281 0.0238825
    outer loop
      vertex 30 83.6716 482.643
      vertex 29.8772 83.7587 480
      vertex 25 84.1781 500.127
    endloop
  endfacet
  facet normal 0.148322 0.988813 0.0157748
    outer loop
      vertex 25 84.5876 480
      vertex 25 84.5794 480.514
      vertex 25.106 84.5717 480
    endloop
  endfacet
  facet normal 0.192728 0.980895 0.0264674
    outer loop
      vertex 30 83.5991 485.335
      vertex 25 84.1398 501.705
      vertex 25 84.1034 503.054
    endloop
  endfacet
  facet normal 0.19257 0.980928 0.026418
    outer loop
      vertex 25 84.1398 501.705
      vertex 30 83.5991 485.335
      vertex 30 83.6716 482.643
    endloop
  endfacet
  facet normal 0.270024 0.961465 0.0516878
    outer loop
      vertex 30 82.4725 515.553
      vertex 28.1047 82.7204 520.843
      vertex 30 82.4582 515.819
    endloop
  endfacet
  facet normal 0.195424 0.98034 0.0272472
    outer loop
      vertex 30 83.4747 489.813
      vertex 25 84.1034 503.054
      vertex 25 83.9569 508.325
    endloop
  endfacet
  facet normal 0.195391 0.980347 0.0272343
    outer loop
      vertex 25 84.1034 503.054
      vertex 30 83.4747 489.813
      vertex 30 83.5991 485.335
    endloop
  endfacet
  facet normal 0.287659 0.955938 0.0586059
    outer loop
      vertex 30 82.2248 520.078
      vertex 29.7059 82.2664 520.843
      vertex 30 82.1779 520.843
    endloop
  endfacet
  facet normal 0.202096 0.978934 0.0290818
    outer loop
      vertex 30 83.4117 491.931
      vertex 25 83.9569 508.325
      vertex 25 83.9315 509.18
    endloop
  endfacet
  facet normal 0.202211 0.978909 0.0291177
    outer loop
      vertex 25 83.9569 508.325
      vertex 30 83.4117 491.931
      vertex 30 83.4747 489.813
    endloop
  endfacet
  facet normal 0.154548 0.987839 0.017026
    outer loop
      vertex 25.9323 84.4424 480
      vertex 25 84.5794 480.514
      vertex 25 84.5173 484.117
    endloop
  endfacet
  facet normal 0.154577 0.987833 0.0170794
    outer loop
      vertex 25 84.5794 480.514
      vertex 25.9323 84.4424 480
      vertex 25.106 84.5717 480
    endloop
  endfacet
  facet normal 0.173568 0.984588 0.0214652
    outer loop
      vertex 28.7281 83.9689 480
      vertex 25 84.3556 492.408
      vertex 25 84.3067 494.651
    endloop
  endfacet
  facet normal 0.173451 0.984609 0.0214292
    outer loop
      vertex 25 84.3556 492.408
      vertex 28.7281 83.9689 480
      vertex 27.9084 84.1133 480
    endloop
  endfacet
  facet normal 0.179873 0.983419 0.0230949
    outer loop
      vertex 29.8772 83.7587 480
      vertex 25 84.3067 494.651
      vertex 25 84.1781 500.127
    endloop
  endfacet
  facet normal 0.179892 0.983415 0.0231013
    outer loop
      vertex 25 84.3067 494.651
      vertex 29.8772 83.7587 480
      vertex 28.7281 83.9689 480
    endloop
  endfacet
  facet normal 0.278998 0.958708 0.0551257
    outer loop
      vertex 30 82.2271 520.038
      vertex 29.7059 82.2664 520.843
      vertex 30 82.2248 520.078
    endloop
  endfacet
  facet normal 0.250762 0.967814 0.0213224
    outer loop
      vertex 25.4944 83.1491 532.621
      vertex 25 83.385 527.728
      vertex 25 83.2772 532.621
    endloop
  endfacet
  facet normal 0.250868 0.967787 0.0213104
    outer loop
      vertex 25 83.385 527.728
      vertex 25.4944 83.1491 532.621
      vertex 26.4949 83.1491 520.843
    endloop
  endfacet
  facet normal 0.266655 0.963492 0.024028
    outer loop
      vertex 28.1047 82.7204 520.843
      vertex 25.4944 83.1491 532.621
      vertex 27.0434 82.7204 532.621
    endloop
  endfacet
  facet normal 0.257276 0.966091 0.0218547
    outer loop
      vertex 26.4949 83.1491 520.843
      vertex 25.4944 83.1491 532.621
      vertex 28.1047 82.7204 520.843
    endloop
  endfacet
  facet normal 0.272702 0.961785 0.0245728
    outer loop
      vertex 28.1047 82.7204 520.843
      vertex 27.0434 82.7204 532.621
      vertex 29.7059 82.2664 520.843
    endloop
  endfacet
  facet normal 0.282536 0.958879 0.0269078
    outer loop
      vertex 29.7059 82.2664 520.843
      vertex 27.0434 82.7204 532.621
      vertex 28.5842 82.2664 532.621
    endloop
  endfacet
  facet normal 0.288046 0.957224 0.0274269
    outer loop
      vertex 29.7059 82.2664 520.843
      vertex 30 82.0165 526.476
      vertex 30 82.1779 520.843
    endloop
  endfacet
  facet normal 0.288011 0.957234 0.0274292
    outer loop
      vertex 30 82.0165 526.476
      vertex 29.7059 82.2664 520.843
      vertex 28.5842 82.2664 532.621
    endloop
  endfacet
  facet normal 0.241925 0.970103 0.0192893
    outer loop
      vertex 25 83.5219 520.843
      vertex 25 83.385 527.728
      vertex 26.4949 83.1491 520.843
    endloop
  endfacet
  facet normal 0.298302 0.954002 0.0299319
    outer loop
      vertex 30 82.0165 526.476
      vertex 28.5842 82.2664 532.621
      vertex 30 81.8237 532.621
    endloop
  endfacet
  facet normal 0.253515 0.967317 0.0053765
    outer loop
      vertex 25.2442 83.1491 544.399
      vertex 25 83.2605 535.871
      vertex 25 83.2131 544.399
    endloop
  endfacet
  facet normal 0.253347 0.96736 0.00538186
    outer loop
      vertex 25 83.2605 535.871
      vertex 25.2442 83.1491 544.399
      vertex 25.4944 83.1491 532.621
    endloop
  endfacet
  facet normal 0.314189 0.949328 0.00788331
    outer loop
      vertex 30 81.7874 537.253
      vertex 29.8207 81.7874 544.399
      vertex 30 81.7377 543.238
    endloop
  endfacet
  facet normal 0.301093 0.953565 0.0075547
    outer loop
      vertex 30 81.7874 537.253
      vertex 28.3037 82.2664 544.399
      vertex 29.8207 81.7874 544.399
    endloop
  endfacet
  facet normal 0.301078 0.95357 0.00755084
    outer loop
      vertex 28.3037 82.2664 544.399
      vertex 30 81.7874 537.253
      vertex 30 81.8181 533.376
    endloop
  endfacet
  facet normal 0.285202 0.958443 0.00679226
    outer loop
      vertex 28.5842 82.2664 532.621
      vertex 26.778 82.7204 544.399
      vertex 28.3037 82.2664 544.399
    endloop
  endfacet
  facet normal 0.316851 0.948439 0.00833254
    outer loop
      vertex 30 81.7377 543.238
      vertex 29.8207 81.7874 544.399
      vertex 30 81.7275 544.399
    endloop
  endfacet
  facet normal 0.282632 0.959207 0.00636871
    outer loop
      vertex 27.0434 82.7204 532.621
      vertex 26.778 82.7204 544.399
      vertex 28.5842 82.2664 532.621
    endloop
  endfacet
  facet normal 0.26918 0.963071 0.00606558
    outer loop
      vertex 27.0434 82.7204 532.621
      vertex 25.2442 83.1491 544.399
      vertex 26.778 82.7204 544.399
    endloop
  endfacet
  facet normal 0.298429 0.954406 0.00707904
    outer loop
      vertex 28.5842 82.2664 532.621
      vertex 30 81.8181 533.376
      vertex 30 81.8237 532.621
    endloop
  endfacet
  facet normal 0.298415 0.95441 0.00710693
    outer loop
      vertex 30 81.8181 533.376
      vertex 28.5842 82.2664 532.621
      vertex 28.3037 82.2664 544.399
    endloop
  endfacet
  facet normal 0.266728 0.963755 0.0056661
    outer loop
      vertex 25.4944 83.1491 532.621
      vertex 25.2442 83.1491 544.399
      vertex 27.0434 82.7204 532.621
    endloop
  endfacet
  facet normal 0.250816 0.968022 0.00497414
    outer loop
      vertex 25 83.2772 532.621
      vertex 25 83.2605 535.871
      vertex 25.4944 83.1491 532.621
    endloop
  endfacet
  facet normal 0.285208 0.958462 0.00256982
    outer loop
      vertex 26.778 82.7204 544.399
      vertex 26.5127 82.7204 573.843
      vertex 28.3037 82.2664 544.399
    endloop
  endfacet
  facet normal 0.3011 0.953588 0.00286742
    outer loop
      vertex 28.3037 82.2664 544.399
      vertex 28.0233 82.2664 573.843
      vertex 29.8207 81.7874 544.399
    endloop
  endfacet
  facet normal 0.27172 0.962374 0.00196403
    outer loop
      vertex 26.5127 82.7204 573.843
      vertex 25 83.1477 573.745
      vertex 25 83.1475 573.843
    endloop
  endfacet
  facet normal 0.27169 0.962382 0.00244802
    outer loop
      vertex 25 83.1477 573.745
      vertex 26.5127 82.7204 573.843
      vertex 26.778 82.7204 544.399
    endloop
  endfacet
  facet normal 0.253518 0.967329 0.0020312
    outer loop
      vertex 25 83.2131 544.399
      vertex 25 83.2046 548.447
      vertex 25.2442 83.1491 544.399
    endloop
  endfacet
  facet normal 0.287824 0.957679 0.00274099
    outer loop
      vertex 28.3037 82.2664 544.399
      vertex 26.5127 82.7204 573.843
      vertex 28.0233 82.2664 573.843
    endloop
  endfacet
  facet normal 0.316861 0.948467 0.00318283
    outer loop
      vertex 29.8207 81.7874 544.399
      vertex 30 81.6547 566.093
      vertex 30 81.7275 544.399
    endloop
  endfacet
  facet normal 0.317052 0.948403 0.00318086
    outer loop
      vertex 30 81.6547 566.093
      vertex 29.8207 81.7874 544.399
      vertex 29.5253 81.7874 573.843
    endloop
  endfacet
  facet normal 0.303831 0.952721 0.00304821
    outer loop
      vertex 29.8207 81.7874 544.399
      vertex 28.0233 82.2664 573.843
      vertex 29.5253 81.7874 573.843
    endloop
  endfacet
  facet normal 0.319936 0.947433 0.00337408
    outer loop
      vertex 30 81.6547 566.093
      vertex 29.5253 81.7874 573.843
      vertex 30 81.6271 573.843
    endloop
  endfacet
  facet normal 0.255724 0.966747 0.00217225
    outer loop
      vertex 25 83.2046 548.447
      vertex 25 83.1491 573.147
      vertex 25.2442 83.1491 544.399
    endloop
  endfacet
  facet normal 0.268706 0.96322 0.00225503
    outer loop
      vertex 26.778 82.7204 544.399
      vertex 25 83.1491 573.147
      vertex 25 83.1477 573.745
    endloop
  endfacet
  facet normal 0.269184 0.963086 0.00228659
    outer loop
      vertex 25 83.1491 573.147
      vertex 26.778 82.7204 544.399
      vertex 25.2442 83.1491 544.399
    endloop
  endfacet
  facet normal 0.259403 0.889972 0.375046
    outer loop
      vertex 26.5127 82.7204 573.843
      vertex 26.5127 80.2387 579.732
      vertex 28.0233 79.7984 579.732
    endloop
  endfacet
  facet normal 0.244533 0.892842 0.378202
    outer loop
      vertex 25 83.1378 573.866
      vertex 25 80.653 579.732
      vertex 26.5127 80.2387 579.732
    endloop
  endfacet
  facet normal 0.29783 0.881971 0.365273
    outer loop
      vertex 30 81.6271 573.843
      vertex 29.5253 81.7874 573.843
      vertex 30 80.8518 575.715
    endloop
  endfacet
  facet normal 0.267114 0.888771 0.372472
    outer loop
      vertex 28.0233 82.2664 573.843
      vertex 26.5127 82.7204 573.843
      vertex 28.0233 79.7984 579.732
    endloop
  endfacet
  facet normal 0.274391 0.886884 0.371681
    outer loop
      vertex 28.0233 82.2664 573.843
      vertex 28.0233 79.7984 579.732
      vertex 29.5253 79.3337 579.732
    endloop
  endfacet
  facet normal 0.28927 0.883633 0.368125
    outer loop
      vertex 30 80.8518 575.715
      vertex 29.5253 79.3337 579.732
      vertex 30 79.1783 579.732
    endloop
  endfacet
  facet normal 0.289633 0.883514 0.368123
    outer loop
      vertex 29.5253 79.3337 579.732
      vertex 30 80.8518 575.715
      vertex 29.5253 81.7874 573.843
    endloop
  endfacet
  facet normal 0.251796 0.891826 0.375827
    outer loop
      vertex 26.5127 82.7204 573.843
      vertex 25 83.1378 573.866
      vertex 26.5127 80.2387 579.732
    endloop
  endfacet
  facet normal 0.251773 0.891727 0.376076
    outer loop
      vertex 25 83.1378 573.866
      vertex 26.5127 82.7204 573.843
      vertex 25 83.1475 573.843
    endloop
  endfacet
  facet normal 0.282396 0.885508 0.368954
    outer loop
      vertex 29.5253 81.7874 573.843
      vertex 28.0233 82.2664 573.843
      vertex 29.5253 79.3337 579.732
    endloop
  endfacet
  facet normal 0.20091 0.699994 0.685306
    outer loop
      vertex 29.5253 73.6086 585.621
      vertex 26.5127 80.2387 579.732
      vertex 28.0233 74.0397 585.621
    endloop
  endfacet
  facet normal 0.177811 0.699726 0.69193
    outer loop
      vertex 25 77.7261 582.695
      vertex 25 74.8327 585.621
      vertex 26.5127 74.4483 585.621
    endloop
  endfacet
  facet normal 0.179162 0.69989 0.691415
    outer loop
      vertex 25 80.6305 579.755
      vertex 25 77.7261 582.695
      vertex 26.5127 74.4483 585.621
    endloop
  endfacet
  facet normal 0.1893 0.699845 0.688754
    outer loop
      vertex 28.0233 74.0397 585.621
      vertex 25 80.6305 579.755
      vertex 26.5127 74.4483 585.621
    endloop
  endfacet
  facet normal 0.260508 0.705813 0.658759
    outer loop
      vertex 25 80.6305 579.755
      vertex 28.0233 74.0397 585.621
      vertex 25 80.6417 579.743
    endloop
  endfacet
  facet normal 0.224473 0.700152 0.677789
    outer loop
      vertex 30 78.2725 580.671
      vertex 29.5253 79.3337 579.732
      vertex 30 77.3693 581.604
    endloop
  endfacet
  facet normal 0.204124 0.700316 0.684025
    outer loop
      vertex 28.0233 79.7984 579.732
      vertex 26.5127 80.2387 579.732
      vertex 29.5253 73.6086 585.621
    endloop
  endfacet
  facet normal 0.21266 0.700068 0.681675
    outer loop
      vertex 30 75.4138 583.619
      vertex 29.5253 73.6086 585.621
      vertex 30 73.4644 585.621
    endloop
  endfacet
  facet normal 0.212496 0.700115 0.681678
    outer loop
      vertex 29.5253 73.6086 585.621
      vertex 30 75.4138 583.619
      vertex 28.0233 79.7984 579.732
    endloop
  endfacet
  facet normal 0.22933 0.700534 0.675766
    outer loop
      vertex 30 79.1783 579.732
      vertex 29.5253 79.3337 579.732
      vertex 30 78.2725 580.671
    endloop
  endfacet
  facet normal 0.216701 0.700419 0.68004
    outer loop
      vertex 28.0233 79.7984 579.732
      vertex 30 77.3693 581.604
      vertex 29.5253 79.3337 579.732
    endloop
  endfacet
  facet normal 0.217019 0.70052 0.679834
    outer loop
      vertex 30 77.3693 581.604
      vertex 28.0233 79.7984 579.732
      vertex 30 75.4138 583.619
    endloop
  endfacet
  facet normal 0.191523 0.700126 0.687853
    outer loop
      vertex 26.5127 80.2387 579.732
      vertex 25 80.6417 579.743
      vertex 28.0233 74.0397 585.621
    endloop
  endfacet
  facet normal 0.187647 0.68514 0.703826
    outer loop
      vertex 25 80.6417 579.743
      vertex 26.5127 80.2387 579.732
      vertex 25 80.653 579.732
    endloop
  endfacet
  facet normal 0.155802 0.576002 0.802464
    outer loop
      vertex 26.5127 74.4483 585.621
      vertex 30 68.0912 589.507
      vertex 28.0233 74.0397 585.621
    endloop
  endfacet
  facet normal 0.15695 0.576344 0.801994
    outer loop
      vertex 30 68.0912 589.507
      vertex 26.5127 74.4483 585.621
      vertex 30 67.1561 590.179
    endloop
  endfacet
  facet normal 0.174098 0.578592 0.79682
    outer loop
      vertex 30 72.6009 586.249
      vertex 29.5253 73.6086 585.621
      vertex 30 72.1726 586.56
    endloop
  endfacet
  facet normal 0.165755 0.577508 0.799381
    outer loop
      vertex 28.0233 74.0397 585.621
      vertex 30 72.1726 586.56
      vertex 29.5253 73.6086 585.621
    endloop
  endfacet
  facet normal 0.165787 0.577531 0.799358
    outer loop
      vertex 30 72.1726 586.56
      vertex 28.0233 74.0397 585.621
      vertex 30 69.875 588.22
    endloop
  endfacet
  facet normal 0.155558 0.576003 0.80251
    outer loop
      vertex 30 67.1561 590.179
      vertex 29.5253 65.4299 591.51
      vertex 30 65.3017 591.51
    endloop
  endfacet
  facet normal 0.155561 0.576003 0.80251
    outer loop
      vertex 29.5253 65.4299 591.51
      vertex 30 67.1561 590.179
      vertex 26.5127 74.4483 585.621
    endloop
  endfacet
  facet normal 0.164224 0.577158 0.799949
    outer loop
      vertex 30 69.875 588.22
      vertex 28.0233 74.0397 585.621
      vertex 30 68.0912 589.507
    endloop
  endfacet
  facet normal 0.13605 0.573387 0.80791
    outer loop
      vertex 25 74.8005 585.644
      vertex 25 70.658 588.584
      vertex 26.5127 66.1763 591.51
    endloop
  endfacet
  facet normal 0.141904 0.558423 0.817329
    outer loop
      vertex 25 74.8166 585.632
      vertex 26.5127 74.4483 585.621
      vertex 25 74.8327 585.621
    endloop
  endfacet
  facet normal 0.145776 0.574687 0.805285
    outer loop
      vertex 26.5127 74.4483 585.621
      vertex 25 74.8166 585.632
      vertex 28.0233 65.8131 591.51
    endloop
  endfacet
  facet normal 0.146625 0.574716 0.80511
    outer loop
      vertex 29.5253 65.4299 591.51
      vertex 26.5127 74.4483 585.621
      vertex 28.0233 65.8131 591.51
    endloop
  endfacet
  facet normal 0.215635 0.583548 0.782926
    outer loop
      vertex 25 74.8005 585.644
      vertex 28.0233 65.8131 591.51
      vertex 25 74.8166 585.632
    endloop
  endfacet
  facet normal 0.13788 0.573461 0.807547
    outer loop
      vertex 28.0233 65.8131 591.51
      vertex 25 74.8005 585.644
      vertex 26.5127 66.1763 591.51
    endloop
  endfacet
  facet normal 0.12928 0.57232 0.809776
    outer loop
      vertex 25 70.658 588.584
      vertex 25 66.518 591.51
      vertex 26.5127 66.1763 591.51
    endloop
  endfacet
  facet normal 0.175884 0.579003 0.796129
    outer loop
      vertex 30 73.4644 585.621
      vertex 29.5253 73.6086 585.621
      vertex 30 72.6009 586.249
    endloop
  endfacet
  facet normal 0 0 1
    outer loop
      vertex 29.5253 65.4299 591.51
      vertex 30 -65.3017 591.51
      vertex 30 65.3017 591.51
    endloop
  endfacet
  facet normal 0 0 1
    outer loop
      vertex 29.5253 65.4299 591.51
      vertex 29.5253 -65.4299 591.51
      vertex 30 -65.3017 591.51
    endloop
  endfacet
  facet normal 0 0 1
    outer loop
      vertex 28.0233 65.8131 591.51
      vertex 29.5253 -65.4299 591.51
      vertex 29.5253 65.4299 591.51
    endloop
  endfacet
  facet normal 0 0 1
    outer loop
      vertex 28.0233 65.8131 591.51
      vertex 28.0233 -65.8131 591.51
      vertex 29.5253 -65.4299 591.51
    endloop
  endfacet
  facet normal 0 0 1
    outer loop
      vertex 26.5127 66.1763 591.51
      vertex 28.0233 -65.8131 591.51
      vertex 28.0233 65.8131 591.51
    endloop
  endfacet
  facet normal 0 0 1
    outer loop
      vertex 26.5127 66.1763 591.51
      vertex 26.5127 -66.1763 591.51
      vertex 28.0233 -65.8131 591.51
    endloop
  endfacet
  facet normal 0 0 1
    outer loop
      vertex 25 66.518 591.51
      vertex 26.5127 -66.1763 591.51
      vertex 26.5127 66.1763 591.51
    endloop
  endfacet
  facet normal 0 0 1
    outer loop
      vertex 26.5127 -66.1763 591.51
      vertex 25 66.518 591.51
      vertex 25 -66.518 591.51
    endloop
  endfacet
  facet normal 0.164396 -0.986206 0.019286
    outer loop
      vertex 27.9084 -84.1133 480
      vertex 25 -84.4589 487.119
      vertex 26.7554 -84.3055 480
    endloop
  endfacet
  facet normal 0.164338 -0.986216 0.0192619
    outer loop
      vertex 25 -84.4589 487.119
      vertex 27.9084 -84.1133 480
      vertex 25 -84.3556 492.408
    endloop
  endfacet
  facet normal 0.211737 -0.976805 0.031934
    outer loop
      vertex 25 -83.7573 514.55
      vertex 30 -83.2093 498.16
      vertex 25 -83.7437 514.966
    endloop
  endfacet
  facet normal 0.211668 -0.97682 0.0319123
    outer loop
      vertex 30 -83.2093 498.16
      vertex 25 -83.7573 514.55
      vertex 30 -83.2618 496.553
    endloop
  endfacet
  facet normal 0.257054 -0.965256 0.0469464
    outer loop
      vertex 26.4949 -83.1491 520.843
      vertex 30 -82.4874 515.256
      vertex 28.1047 -82.7204 520.843
    endloop
  endfacet
  facet normal 0.257052 -0.965257 0.0469454
    outer loop
      vertex 30 -82.4874 515.256
      vertex 26.4949 -83.1491 520.843
      vertex 30 -82.7012 510.86
    endloop
  endfacet
  facet normal 0.241762 -0.969446 0.0415477
    outer loop
      vertex 25 -83.5372 520.486
      vertex 26.4949 -83.1491 520.843
      vertex 25 -83.5219 520.843
    endloop
  endfacet
  facet normal 0.241757 -0.969446 0.0415677
    outer loop
      vertex 25 -83.5372 520.486
      vertex 30 -82.7278 510.283
      vertex 26.4949 -83.1491 520.843
    endloop
  endfacet
  facet normal 0.241737 -0.969451 0.0415575
    outer loop
      vertex 30 -82.7278 510.283
      vertex 25 -83.5372 520.486
      vertex 30 -82.9138 505.944
    endloop
  endfacet
  facet normal 0.210897 -0.976994 0.0316932
    outer loop
      vertex 25 -83.9315 509.18
      vertex 30 -83.2618 496.553
      vertex 25 -83.7573 514.55
    endloop
  endfacet
  facet normal 0.210879 -0.976999 0.0316859
    outer loop
      vertex 30 -83.2618 496.553
      vertex 25 -83.9315 509.18
      vertex 30 -83.4117 491.931
    endloop
  endfacet
  facet normal 0.272406 -0.960742 0.0526181
    outer loop
      vertex 28.1047 -82.7204 520.843
      vertex 30 -82.2271 520.038
      vertex 29.7059 -82.2664 520.843
    endloop
  endfacet
  facet normal 0.272409 -0.960741 0.0526256
    outer loop
      vertex 30 -82.2271 520.038
      vertex 28.1047 -82.7204 520.843
      vertex 30 -82.4582 515.819
    endloop
  endfacet
  facet normal 0.164038 -0.986267 0.0192037
    outer loop
      vertex 26.7554 -84.3055 480
      vertex 25 -84.5173 484.117
      vertex 25.9323 -84.4424 480
    endloop
  endfacet
  facet normal 0.163999 -0.986274 0.0191867
    outer loop
      vertex 25 -84.5173 484.117
      vertex 26.7554 -84.3055 480
      vertex 25 -84.4589 487.119
    endloop
  endfacet
  facet normal 0.238419 -0.97032 0.04043
    outer loop
      vertex 25 -83.5391 520.44
      vertex 30 -82.9515 505.057
      vertex 25 -83.5381 520.464
    endloop
  endfacet
  facet normal 0.230989 -0.972216 0.0379425
    outer loop
      vertex 30 -82.9515 505.057
      vertex 25 -83.5391 520.44
      vertex 30 -82.9908 504.05
    endloop
  endfacet
  facet normal 0.22635 -0.973362 0.0364892
    outer loop
      vertex 25 -83.7307 515.329
      vertex 30 -82.9908 504.05
      vertex 25 -83.5391 520.44
    endloop
  endfacet
  facet normal 0.226387 -0.973353 0.0365062
    outer loop
      vertex 30 -82.9908 504.05
      vertex 25 -83.7307 515.329
      vertex 30 -83.1592 499.56
    endloop
  endfacet
  facet normal 0.2611 -0.964099 0.0483673
    outer loop
      vertex 30 -82.4874 515.256
      vertex 30 -82.4725 515.553
      vertex 28.1047 -82.7204 520.843
    endloop
  endfacet
  facet normal 0.221461 -0.974544 0.034901
    outer loop
      vertex 25 -83.7437 514.966
      vertex 30 -83.1592 499.56
      vertex 25 -83.7307 515.329
    endloop
  endfacet
  facet normal 0.221385 -0.974563 0.0348754
    outer loop
      vertex 30 -83.1592 499.56
      vertex 25 -83.7437 514.966
      vertex 30 -83.2093 498.16
    endloop
  endfacet
  facet normal 0.250555 -0.967075 0.0445827
    outer loop
      vertex 30 -82.7278 510.283
      vertex 30 -82.7012 510.86
      vertex 26.4949 -83.1491 520.843
    endloop
  endfacet
  facet normal 0.236547 -0.970808 0.0397149
    outer loop
      vertex 25 -83.5381 520.464
      vertex 30 -82.9138 505.944
      vertex 25 -83.5372 520.486
    endloop
  endfacet
  facet normal 0.240767 -0.969707 0.0412153
    outer loop
      vertex 30 -82.9138 505.944
      vertex 25 -83.5381 520.464
      vertex 30 -82.9515 505.057
    endloop
  endfacet
  facet normal 0.182975 -0.982828 0.0238544
    outer loop
      vertex 25 -84.1781 500.127
      vertex 30 -83.6716 482.643
      vertex 25 -84.1398 501.705
    endloop
  endfacet
  facet normal 0.183071 -0.98281 0.0238825
    outer loop
      vertex 29.8772 -83.7587 480
      vertex 30 -83.6716 482.643
      vertex 25 -84.1781 500.127
    endloop
  endfacet
  facet normal 0.18327 -0.982773 0.0238721
    outer loop
      vertex 30 -83.6716 482.643
      vertex 29.8772 -83.7587 480
      vertex 30 -83.7358 480
    endloop
  endfacet
  facet normal 0.148322 -0.988813 0.0157748
    outer loop
      vertex 25.106 -84.5717 480
      vertex 25 -84.5794 480.514
      vertex 25 -84.5876 480
    endloop
  endfacet
  facet normal 0.192728 -0.980895 0.0264674
    outer loop
      vertex 25 -84.1398 501.705
      vertex 30 -83.5991 485.335
      vertex 25 -84.1034 503.054
    endloop
  endfacet
  facet normal 0.19257 -0.980928 0.026418
    outer loop
      vertex 30 -83.5991 485.335
      vertex 25 -84.1398 501.705
      vertex 30 -83.6716 482.643
    endloop
  endfacet
  facet normal 0.270024 -0.961465 0.0516878
    outer loop
      vertex 30 -82.4725 515.553
      vertex 30 -82.4582 515.819
      vertex 28.1047 -82.7204 520.843
    endloop
  endfacet
  facet normal 0.195424 -0.98034 0.0272472
    outer loop
      vertex 25 -84.1034 503.054
      vertex 30 -83.4747 489.813
      vertex 25 -83.9569 508.325
    endloop
  endfacet
  facet normal 0.195391 -0.980347 0.0272343
    outer loop
      vertex 30 -83.4747 489.813
      vertex 25 -84.1034 503.054
      vertex 30 -83.5991 485.335
    endloop
  endfacet
  facet normal 0.287659 -0.955938 0.0586059
    outer loop
      vertex 30 -82.2248 520.078
      vertex 30 -82.1779 520.843
      vertex 29.7059 -82.2664 520.843
    endloop
  endfacet
  facet normal 0.202096 -0.978934 0.0290818
    outer loop
      vertex 25 -83.9569 508.325
      vertex 30 -83.4117 491.931
      vertex 25 -83.9315 509.18
    endloop
  endfacet
  facet normal 0.202211 -0.978909 0.0291177
    outer loop
      vertex 30 -83.4117 491.931
      vertex 25 -83.9569 508.325
      vertex 30 -83.4747 489.813
    endloop
  endfacet
  facet normal 0.154577 -0.987833 0.0170794
    outer loop
      vertex 25.9323 -84.4424 480
      vertex 25 -84.5794 480.514
      vertex 25.106 -84.5717 480
    endloop
  endfacet
  facet normal 0.154548 -0.987839 0.017026
    outer loop
      vertex 25 -84.5794 480.514
      vertex 25.9323 -84.4424 480
      vertex 25 -84.5173 484.117
    endloop
  endfacet
  facet normal 0.173451 -0.984609 0.0214292
    outer loop
      vertex 28.7281 -83.9689 480
      vertex 25 -84.3556 492.408
      vertex 27.9084 -84.1133 480
    endloop
  endfacet
  facet normal 0.173568 -0.984588 0.0214652
    outer loop
      vertex 25 -84.3556 492.408
      vertex 28.7281 -83.9689 480
      vertex 25 -84.3067 494.651
    endloop
  endfacet
  facet normal 0.179892 -0.983415 0.0231013
    outer loop
      vertex 29.8772 -83.7587 480
      vertex 25 -84.3067 494.651
      vertex 28.7281 -83.9689 480
    endloop
  endfacet
  facet normal 0.179873 -0.983419 0.0230949
    outer loop
      vertex 25 -84.3067 494.651
      vertex 29.8772 -83.7587 480
      vertex 25 -84.1781 500.127
    endloop
  endfacet
  facet normal 0.278998 -0.958708 0.0551257
    outer loop
      vertex 30 -82.2271 520.038
      vertex 30 -82.2248 520.078
      vertex 29.7059 -82.2664 520.843
    endloop
  endfacet
  facet normal 0.250762 -0.967814 0.0213224
    outer loop
      vertex 25 -83.385 527.728
      vertex 25.4944 -83.1491 532.621
      vertex 25 -83.2772 532.621
    endloop
  endfacet
  facet normal 0.250868 -0.967787 0.0213104
    outer loop
      vertex 25.4944 -83.1491 532.621
      vertex 25 -83.385 527.728
      vertex 26.4949 -83.1491 520.843
    endloop
  endfacet
  facet normal 0.266655 -0.963492 0.024028
    outer loop
      vertex 28.1047 -82.7204 520.843
      vertex 27.0434 -82.7204 532.621
      vertex 25.4944 -83.1491 532.621
    endloop
  endfacet
  facet normal 0.257276 -0.966091 0.0218547
    outer loop
      vertex 26.4949 -83.1491 520.843
      vertex 28.1047 -82.7204 520.843
      vertex 25.4944 -83.1491 532.621
    endloop
  endfacet
  facet normal 0.272702 -0.961785 0.0245728
    outer loop
      vertex 28.1047 -82.7204 520.843
      vertex 29.7059 -82.2664 520.843
      vertex 27.0434 -82.7204 532.621
    endloop
  endfacet
  facet normal 0.282536 -0.958879 0.0269078
    outer loop
      vertex 29.7059 -82.2664 520.843
      vertex 28.5842 -82.2664 532.621
      vertex 27.0434 -82.7204 532.621
    endloop
  endfacet
  facet normal 0.288011 -0.957234 0.0274292
    outer loop
      vertex 29.7059 -82.2664 520.843
      vertex 30 -82.0165 526.476
      vertex 28.5842 -82.2664 532.621
    endloop
  endfacet
  facet normal 0.288046 -0.957224 0.0274269
    outer loop
      vertex 30 -82.0165 526.476
      vertex 29.7059 -82.2664 520.843
      vertex 30 -82.1779 520.843
    endloop
  endfacet
  facet normal 0.241925 -0.970103 0.0192893
    outer loop
      vertex 26.4949 -83.1491 520.843
      vertex 25 -83.385 527.728
      vertex 25 -83.5219 520.843
    endloop
  endfacet
  facet normal 0.298302 -0.954002 0.0299319
    outer loop
      vertex 30 -82.0165 526.476
      vertex 30 -81.8237 532.621
      vertex 28.5842 -82.2664 532.621
    endloop
  endfacet
  facet normal 0.253515 -0.967317 0.0053765
    outer loop
      vertex 25 -83.2605 535.871
      vertex 25.2442 -83.1491 544.399
      vertex 25 -83.2131 544.399
    endloop
  endfacet
  facet normal 0.253347 -0.96736 0.00538186
    outer loop
      vertex 25.2442 -83.1491 544.399
      vertex 25 -83.2605 535.871
      vertex 25.4944 -83.1491 532.621
    endloop
  endfacet
  facet normal 0.314189 -0.949328 0.00788331
    outer loop
      vertex 30 -81.7874 537.253
      vertex 30 -81.7377 543.238
      vertex 29.8207 -81.7874 544.399
    endloop
  endfacet
  facet normal 0.301093 -0.953565 0.0075547
    outer loop
      vertex 28.3037 -82.2664 544.399
      vertex 30 -81.7874 537.253
      vertex 29.8207 -81.7874 544.399
    endloop
  endfacet
  facet normal 0.301078 -0.95357 0.00755084
    outer loop
      vertex 30 -81.7874 537.253
      vertex 28.3037 -82.2664 544.399
      vertex 30 -81.8181 533.376
    endloop
  endfacet
  facet normal 0.285202 -0.958443 0.00679226
    outer loop
      vertex 28.5842 -82.2664 532.621
      vertex 28.3037 -82.2664 544.399
      vertex 26.778 -82.7204 544.399
    endloop
  endfacet
  facet normal 0.316851 -0.948439 0.00833254
    outer loop
      vertex 30 -81.7377 543.238
      vertex 30 -81.7275 544.399
      vertex 29.8207 -81.7874 544.399
    endloop
  endfacet
  facet normal 0.282632 -0.959207 0.00636871
    outer loop
      vertex 27.0434 -82.7204 532.621
      vertex 28.5842 -82.2664 532.621
      vertex 26.778 -82.7204 544.399
    endloop
  endfacet
  facet normal 0.26918 -0.963071 0.00606558
    outer loop
      vertex 27.0434 -82.7204 532.621
      vertex 26.778 -82.7204 544.399
      vertex 25.2442 -83.1491 544.399
    endloop
  endfacet
  facet normal 0.298415 -0.95441 0.00710693
    outer loop
      vertex 28.5842 -82.2664 532.621
      vertex 30 -81.8181 533.376
      vertex 28.3037 -82.2664 544.399
    endloop
  endfacet
  facet normal 0.298429 -0.954406 0.00707904
    outer loop
      vertex 30 -81.8181 533.376
      vertex 28.5842 -82.2664 532.621
      vertex 30 -81.8237 532.621
    endloop
  endfacet
  facet normal 0.266728 -0.963755 0.0056661
    outer loop
      vertex 25.4944 -83.1491 532.621
      vertex 27.0434 -82.7204 532.621
      vertex 25.2442 -83.1491 544.399
    endloop
  endfacet
  facet normal 0.250816 -0.968022 0.00497414
    outer loop
      vertex 25.4944 -83.1491 532.621
      vertex 25 -83.2605 535.871
      vertex 25 -83.2772 532.621
    endloop
  endfacet
  facet normal 0.285208 -0.958462 0.00256982
    outer loop
      vertex 26.778 -82.7204 544.399
      vertex 28.3037 -82.2664 544.399
      vertex 26.5127 -82.7204 573.843
    endloop
  endfacet
  facet normal 0.3011 -0.953588 0.00286742
    outer loop
      vertex 28.3037 -82.2664 544.399
      vertex 29.8207 -81.7874 544.399
      vertex 28.0233 -82.2664 573.843
    endloop
  endfacet
  facet normal 0.27172 -0.962374 0.00196403
    outer loop
      vertex 25 -83.1477 573.745
      vertex 26.5127 -82.7204 573.843
      vertex 25 -83.1475 573.843
    endloop
  endfacet
  facet normal 0.27169 -0.962382 0.00244802
    outer loop
      vertex 26.5127 -82.7204 573.843
      vertex 25 -83.1477 573.745
      vertex 26.778 -82.7204 544.399
    endloop
  endfacet
  facet normal 0.253518 -0.967329 0.0020312
    outer loop
      vertex 25.2442 -83.1491 544.399
      vertex 25 -83.2046 548.447
      vertex 25 -83.2131 544.399
    endloop
  endfacet
  facet normal 0.287824 -0.957679 0.00274099
    outer loop
      vertex 28.3037 -82.2664 544.399
      vertex 28.0233 -82.2664 573.843
      vertex 26.5127 -82.7204 573.843
    endloop
  endfacet
  facet normal 0.317052 -0.948403 0.00318086
    outer loop
      vertex 29.8207 -81.7874 544.399
      vertex 30 -81.6547 566.093
      vertex 29.5253 -81.7874 573.843
    endloop
  endfacet
  facet normal 0.316861 -0.948467 0.00318283
    outer loop
      vertex 30 -81.6547 566.093
      vertex 29.8207 -81.7874 544.399
      vertex 30 -81.7275 544.399
    endloop
  endfacet
  facet normal 0.303831 -0.952721 0.00304821
    outer loop
      vertex 29.8207 -81.7874 544.399
      vertex 29.5253 -81.7874 573.843
      vertex 28.0233 -82.2664 573.843
    endloop
  endfacet
  facet normal 0.319936 -0.947433 0.00337408
    outer loop
      vertex 30 -81.6547 566.093
      vertex 30 -81.6271 573.843
      vertex 29.5253 -81.7874 573.843
    endloop
  endfacet
  facet normal 0.255724 -0.966747 0.00217225
    outer loop
      vertex 25.2442 -83.1491 544.399
      vertex 25 -83.1491 573.147
      vertex 25 -83.2046 548.447
    endloop
  endfacet
  facet normal 0.269184 -0.963086 0.00228659
    outer loop
      vertex 26.778 -82.7204 544.399
      vertex 25 -83.1491 573.147
      vertex 25.2442 -83.1491 544.399
    endloop
  endfacet
  facet normal 0.268706 -0.96322 0.00225503
    outer loop
      vertex 25 -83.1491 573.147
      vertex 26.778 -82.7204 544.399
      vertex 25 -83.1477 573.745
    endloop
  endfacet
  facet normal 0.259403 -0.889972 0.375046
    outer loop
      vertex 28.0233 -79.7984 579.732
      vertex 26.5127 -80.2387 579.732
      vertex 26.5127 -82.7204 573.843
    endloop
  endfacet
  facet normal 0.244533 -0.892842 0.378202
    outer loop
      vertex 26.5127 -80.2387 579.732
      vertex 25 -80.653 579.732
      vertex 25 -83.1378 573.866
    endloop
  endfacet
  facet normal 0.29783 -0.881971 0.365273
    outer loop
      vertex 30 -81.6271 573.843
      vertex 30 -80.8518 575.715
      vertex 29.5253 -81.7874 573.843
    endloop
  endfacet
  facet normal 0.267114 -0.888771 0.372472
    outer loop
      vertex 28.0233 -82.2664 573.843
      vertex 28.0233 -79.7984 579.732
      vertex 26.5127 -82.7204 573.843
    endloop
  endfacet
  facet normal 0.274391 -0.886884 0.371681
    outer loop
      vertex 29.5253 -79.3337 579.732
      vertex 28.0233 -79.7984 579.732
      vertex 28.0233 -82.2664 573.843
    endloop
  endfacet
  facet normal 0.28927 -0.883633 0.368125
    outer loop
      vertex 29.5253 -79.3337 579.732
      vertex 30 -80.8518 575.715
      vertex 30 -79.1783 579.732
    endloop
  endfacet
  facet normal 0.289633 -0.883514 0.368123
    outer loop
      vertex 30 -80.8518 575.715
      vertex 29.5253 -79.3337 579.732
      vertex 29.5253 -81.7874 573.843
    endloop
  endfacet
  facet normal 0.251773 -0.891727 0.376076
    outer loop
      vertex 26.5127 -82.7204 573.843
      vertex 25 -83.1378 573.866
      vertex 25 -83.1475 573.843
    endloop
  endfacet
  facet normal 0.251796 -0.891826 0.375827
    outer loop
      vertex 25 -83.1378 573.866
      vertex 26.5127 -82.7204 573.843
      vertex 26.5127 -80.2387 579.732
    endloop
  endfacet
  facet normal 0.282396 -0.885508 0.368954
    outer loop
      vertex 29.5253 -81.7874 573.843
      vertex 29.5253 -79.3337 579.732
      vertex 28.0233 -82.2664 573.843
    endloop
  endfacet
  facet normal 0.20091 -0.699994 0.685306
    outer loop
      vertex 29.5253 -73.6086 585.621
      vertex 28.0233 -74.0397 585.621
      vertex 26.5127 -80.2387 579.732
    endloop
  endfacet
  facet normal 0.177811 -0.699726 0.69193
    outer loop
      vertex 26.5127 -74.4483 585.621
      vertex 25 -74.8327 585.621
      vertex 25 -77.7261 582.695
    endloop
  endfacet
  facet normal 0.179162 -0.69989 0.691415
    outer loop
      vertex 26.5127 -74.4483 585.621
      vertex 25 -77.7261 582.695
      vertex 25 -80.6305 579.755
    endloop
  endfacet
  facet normal 0.1893 -0.699845 0.688754
    outer loop
      vertex 25 -80.6305 579.755
      vertex 28.0233 -74.0397 585.621
      vertex 26.5127 -74.4483 585.621
    endloop
  endfacet
  facet normal 0.260508 -0.705813 0.658759
    outer loop
      vertex 28.0233 -74.0397 585.621
      vertex 25 -80.6305 579.755
      vertex 25 -80.6417 579.743
    endloop
  endfacet
  facet normal 0.224473 -0.700152 0.677789
    outer loop
      vertex 30 -78.2725 580.671
      vertex 30 -77.3693 581.604
      vertex 29.5253 -79.3337 579.732
    endloop
  endfacet
  facet normal 0.204124 -0.700316 0.684025
    outer loop
      vertex 28.0233 -79.7984 579.732
      vertex 29.5253 -73.6086 585.621
      vertex 26.5127 -80.2387 579.732
    endloop
  endfacet
  facet normal 0.21266 -0.700068 0.681675
    outer loop
      vertex 29.5253 -73.6086 585.621
      vertex 30 -75.4138 583.619
      vertex 30 -73.4644 585.621
    endloop
  endfacet
  facet normal 0.212496 -0.700115 0.681678
    outer loop
      vertex 30 -75.4138 583.619
      vertex 29.5253 -73.6086 585.621
      vertex 28.0233 -79.7984 579.732
    endloop
  endfacet
  facet normal 0.22933 -0.700534 0.675766
    outer loop
      vertex 30 -79.1783 579.732
      vertex 30 -78.2725 580.671
      vertex 29.5253 -79.3337 579.732
    endloop
  endfacet
  facet normal 0.217019 -0.70052 0.679834
    outer loop
      vertex 28.0233 -79.7984 579.732
      vertex 30 -77.3693 581.604
      vertex 30 -75.4138 583.619
    endloop
  endfacet
  facet normal 0.216701 -0.700419 0.68004
    outer loop
      vertex 30 -77.3693 581.604
      vertex 28.0233 -79.7984 579.732
      vertex 29.5253 -79.3337 579.732
    endloop
  endfacet
  facet normal 0.187647 -0.68514 0.703826
    outer loop
      vertex 26.5127 -80.2387 579.732
      vertex 25 -80.6417 579.743
      vertex 25 -80.653 579.732
    endloop
  endfacet
  facet normal 0.191523 -0.700126 0.687853
    outer loop
      vertex 25 -80.6417 579.743
      vertex 26.5127 -80.2387 579.732
      vertex 28.0233 -74.0397 585.621
    endloop
  endfacet
  facet normal 0.15695 -0.576344 0.801994
    outer loop
      vertex 26.5127 -74.4483 585.621
      vertex 30 -68.0912 589.507
      vertex 30 -67.1561 590.179
    endloop
  endfacet
  facet normal 0.155802 -0.576002 0.802464
    outer loop
      vertex 30 -68.0912 589.507
      vertex 26.5127 -74.4483 585.621
      vertex 28.0233 -74.0397 585.621
    endloop
  endfacet
  facet normal 0.174098 -0.578592 0.79682
    outer loop
      vertex 30 -72.6009 586.249
      vertex 30 -72.1726 586.56
      vertex 29.5253 -73.6086 585.621
    endloop
  endfacet
  facet normal 0.165787 -0.577531 0.799358
    outer loop
      vertex 28.0233 -74.0397 585.621
      vertex 30 -72.1726 586.56
      vertex 30 -69.875 588.22
    endloop
  endfacet
  facet normal 0.165755 -0.577508 0.799381
    outer loop
      vertex 30 -72.1726 586.56
      vertex 28.0233 -74.0397 585.621
      vertex 29.5253 -73.6086 585.621
    endloop
  endfacet
  facet normal 0.155558 -0.576003 0.80251
    outer loop
      vertex 29.5253 -65.4299 591.51
      vertex 30 -67.1561 590.179
      vertex 30 -65.3017 591.51
    endloop
  endfacet
  facet normal 0.155561 -0.576003 0.80251
    outer loop
      vertex 30 -67.1561 590.179
      vertex 29.5253 -65.4299 591.51
      vertex 26.5127 -74.4483 585.621
    endloop
  endfacet
  facet normal 0.164224 -0.577158 0.799949
    outer loop
      vertex 30 -69.875 588.22
      vertex 30 -68.0912 589.507
      vertex 28.0233 -74.0397 585.621
    endloop
  endfacet
  facet normal 0.13605 -0.573387 0.80791
    outer loop
      vertex 26.5127 -66.1763 591.51
      vertex 25 -70.658 588.584
      vertex 25 -74.8005 585.644
    endloop
  endfacet
  facet normal 0.145776 -0.574687 0.805285
    outer loop
      vertex 25 -74.8166 585.632
      vertex 26.5127 -74.4483 585.621
      vertex 28.0233 -65.8131 591.51
    endloop
  endfacet
  facet normal 0.141904 -0.558423 0.817329
    outer loop
      vertex 26.5127 -74.4483 585.621
      vertex 25 -74.8166 585.632
      vertex 25 -74.8327 585.621
    endloop
  endfacet
  facet normal 0.146625 -0.574716 0.80511
    outer loop
      vertex 29.5253 -65.4299 591.51
      vertex 28.0233 -65.8131 591.51
      vertex 26.5127 -74.4483 585.621
    endloop
  endfacet
  facet normal 0.13788 -0.573461 0.807547
    outer loop
      vertex 25 -74.8005 585.644
      vertex 28.0233 -65.8131 591.51
      vertex 26.5127 -66.1763 591.51
    endloop
  endfacet
  facet normal 0.215635 -0.583548 0.782926
    outer loop
      vertex 28.0233 -65.8131 591.51
      vertex 25 -74.8005 585.644
      vertex 25 -74.8166 585.632
    endloop
  endfacet
  facet normal 0.12928 -0.57232 0.809776
    outer loop
      vertex 26.5127 -66.1763 591.51
      vertex 25 -66.518 591.51
      vertex 25 -70.658 588.584
    endloop
  endfacet
  facet normal 0.175884 -0.579003 0.796129
    outer loop
      vertex 30 -73.4644 585.621
      vertex 30 -72.6009 586.249
      vertex 29.5253 -73.6086 585.621
    endloop
  endfacet
  facet normal 1 0 0
    outer loop
      vertex 30 -83.6716 482.643
      vertex 30 83.6716 482.643
      vertex 30 83.5991 485.335
    endloop
  endfacet
  facet normal 1 0 0
    outer loop
      vertex 30 -83.5991 485.335
      vertex 30 83.5991 485.335
      vertex 30 83.4747 489.813
    endloop
  endfacet
  facet normal 1 0 0
    outer loop
      vertex 30 -83.4747 489.813
      vertex 30 83.4747 489.813
      vertex 30 83.4117 491.931
    endloop
  endfacet
  facet normal 1 0 0
    outer loop
      vertex 30 -83.4117 491.931
      vertex 30 83.4117 491.931
      vertex 30 83.2618 496.553
    endloop
  endfacet
  facet normal 1 0 0
    outer loop
      vertex 30 -83.2618 496.553
      vertex 30 83.2618 496.553
      vertex 30 83.2093 498.16
    endloop
  endfacet
  facet normal 1 0 0
    outer loop
      vertex 30 -83.2093 498.16
      vertex 30 83.2093 498.16
      vertex 30 83.1592 499.56
    endloop
  endfacet
  facet normal 1 0 0
    outer loop
      vertex 30 -83.1592 499.56
      vertex 30 83.1592 499.56
      vertex 30 82.9908 504.05
    endloop
  endfacet
  facet normal 1 0 0
    outer loop
      vertex 30 -82.9908 504.05
      vertex 30 82.9908 504.05
      vertex 30 82.9515 505.057
    endloop
  endfacet
  facet normal 1 0 0
    outer loop
      vertex 30 -82.9908 504.05
      vertex 30 82.9515 505.057
      vertex 30 82.9138 505.944
    endloop
  endfacet
  facet normal 1 0 0
    outer loop
      vertex 30 -82.9138 505.944
      vertex 30 82.9138 505.944
      vertex 30 82.7278 510.283
    endloop
  endfacet
  facet normal 1 0 0
    outer loop
      vertex 30 -82.7278 510.283
      vertex 30 82.7278 510.283
      vertex 30 82.7012 510.86
    endloop
  endfacet
  facet normal 1 0 0
    outer loop
      vertex 30 -82.7012 510.86
      vertex 30 82.7012 510.86
      vertex 30 82.4874 515.256
    endloop
  endfacet
  facet normal 1 0 0
    outer loop
      vertex 30 -82.4874 515.256
      vertex 30 82.4874 515.256
      vertex 30 82.4725 515.553
    endloop
  endfacet
  facet normal 1 0 0
    outer loop
      vertex 30 -82.4874 515.256
      vertex 30 82.4725 515.553
      vertex 30 82.4582 515.819
    endloop
  endfacet
  facet normal 1 0 0
    outer loop
      vertex 30 -82.4582 515.819
      vertex 30 82.4582 515.819
      vertex 30 82.2271 520.038
    endloop
  endfacet
  facet normal 1 0 0
    outer loop
      vertex 30 -82.2271 520.038
      vertex 30 82.2271 520.038
      vertex 30 82.2248 520.078
    endloop
  endfacet
  facet normal 1 0 0
    outer loop
      vertex 30 -82.2271 520.038
      vertex 30 82.2248 520.078
      vertex 30 82.1779 520.843
    endloop
  endfacet
  facet normal 1 0 0
    outer loop
      vertex 30 -82.0165 526.476
      vertex 30 82.0165 526.476
      vertex 30 81.8237 532.621
    endloop
  endfacet
  facet normal 1 -0 0
    outer loop
      vertex 30 -81.7874 537.253
      vertex 30 81.8181 533.376
      vertex 30 81.7874 537.253
    endloop
  endfacet
  facet normal 1 0 0
    outer loop
      vertex 30 -81.7874 537.253
      vertex 30 81.7874 537.253
      vertex 30 81.7377 543.238
    endloop
  endfacet
  facet normal 1 0 0
    outer loop
      vertex 30 -81.7377 543.238
      vertex 30 81.7377 543.238
      vertex 30 81.7275 544.399
    endloop
  endfacet
  facet normal 1 0 0
    outer loop
      vertex 30 80.8518 575.715
      vertex 30 81.6547 566.093
      vertex 30 81.6271 573.843
    endloop
  endfacet
  facet normal 1 0 0
    outer loop
      vertex 30 77.3693 581.604
      vertex 30 81.6547 566.093
      vertex 30 80.8518 575.715
    endloop
  endfacet
  facet normal 1 0 0
    outer loop
      vertex 30 68.0912 589.507
      vertex 30 81.6547 566.093
      vertex 30 69.875 588.22
    endloop
  endfacet
  facet normal 1 0 0
    outer loop
      vertex 30 78.2725 580.671
      vertex 30 80.8518 575.715
      vertex 30 79.1783 579.732
    endloop
  endfacet
  facet normal 1 0 0
    outer loop
      vertex 30 77.3693 581.604
      vertex 30 80.8518 575.715
      vertex 30 78.2725 580.671
    endloop
  endfacet
  facet normal 1 0 0
    outer loop
      vertex 30 81.6547 566.093
      vertex 30 77.3693 581.604
      vertex 30 75.4138 583.619
    endloop
  endfacet
  facet normal 1 0 0
    outer loop
      vertex 30 72.1726 586.56
      vertex 30 81.6547 566.093
      vertex 30 75.4138 583.619
    endloop
  endfacet
  facet normal 1 0 0
    outer loop
      vertex 30 65.3017 591.51
      vertex 30 81.6547 566.093
      vertex 30 67.1561 590.179
    endloop
  endfacet
  facet normal 1 0 0
    outer loop
      vertex 30 67.1561 590.179
      vertex 30 81.6547 566.093
      vertex 30 68.0912 589.507
    endloop
  endfacet
  facet normal 1 0 0
    outer loop
      vertex 30 72.6009 586.249
      vertex 30 75.4138 583.619
      vertex 30 73.4644 585.621
    endloop
  endfacet
  facet normal 1 0 0
    outer loop
      vertex 30 72.1726 586.56
      vertex 30 75.4138 583.619
      vertex 30 72.6009 586.249
    endloop
  endfacet
  facet normal 1 0 0
    outer loop
      vertex 30 81.6547 566.093
      vertex 30 72.1726 586.56
      vertex 30 69.875 588.22
    endloop
  endfacet
  facet normal 1 0 0
    outer loop
      vertex 30 81.6547 566.093
      vertex 30 65.3017 591.51
      vertex 30 81.7275 544.399
    endloop
  endfacet
  facet normal 1 0 0
    outer loop
      vertex 30 -81.7377 543.238
      vertex 30 81.7275 544.399
      vertex 30 65.3017 591.51
    endloop
  endfacet
  facet normal 1 0 0
    outer loop
      vertex 30 81.7377 543.238
      vertex 30 -81.7377 543.238
      vertex 30 -81.7874 537.253
    endloop
  endfacet
  facet normal 1 0 0
    outer loop
      vertex 30 81.8181 533.376
      vertex 30 -81.8181 533.376
      vertex 30 81.8237 532.621
    endloop
  endfacet
  facet normal 1 0 0
    outer loop
      vertex 30 -81.7377 543.238
      vertex 30 65.3017 591.51
      vertex 30 -65.3017 591.51
    endloop
  endfacet
  facet normal 1 0 0
    outer loop
      vertex 30 -81.6547 566.093
      vertex 30 -65.3017 591.51
      vertex 30 -67.1561 590.179
    endloop
  endfacet
  facet normal 1 0 0
    outer loop
      vertex 30 -81.6547 566.093
      vertex 30 -67.1561 590.179
      vertex 30 -68.0912 589.507
    endloop
  endfacet
  facet normal 1 0 0
    outer loop
      vertex 30 -81.6547 566.093
      vertex 30 -68.0912 589.507
      vertex 30 -69.875 588.22
    endloop
  endfacet
  facet normal 1 0 0
    outer loop
      vertex 30 -81.6547 566.093
      vertex 30 -69.875 588.22
      vertex 30 -72.1726 586.56
    endloop
  endfacet
  facet normal 1 0 0
    outer loop
      vertex 30 -75.4138 583.619
      vertex 30 -72.1726 586.56
      vertex 30 -72.6009 586.249
    endloop
  endfacet
  facet normal 1 0 0
    outer loop
      vertex 30 -75.4138 583.619
      vertex 30 -72.6009 586.249
      vertex 30 -73.4644 585.621
    endloop
  endfacet
  facet normal 1 0 0
    outer loop
      vertex 30 -72.1726 586.56
      vertex 30 -75.4138 583.619
      vertex 30 -81.6547 566.093
    endloop
  endfacet
  facet normal 1 0 0
    outer loop
      vertex 30 -81.6547 566.093
      vertex 30 -75.4138 583.619
      vertex 30 -77.3693 581.604
    endloop
  endfacet
  facet normal 1 0 0
    outer loop
      vertex 30 -80.8518 575.715
      vertex 30 -77.3693 581.604
      vertex 30 -78.2725 580.671
    endloop
  endfacet
  facet normal 1 0 0
    outer loop
      vertex 30 -80.8518 575.715
      vertex 30 -78.2725 580.671
      vertex 30 -79.1783 579.732
    endloop
  endfacet
  facet normal 1 0 0
    outer loop
      vertex 30 -77.3693 581.604
      vertex 30 -80.8518 575.715
      vertex 30 -81.6547 566.093
    endloop
  endfacet
  facet normal 1 0 0
    outer loop
      vertex 30 -81.6547 566.093
      vertex 30 -80.8518 575.715
      vertex 30 -81.6271 573.843
    endloop
  endfacet
  facet normal 1 0 0
    outer loop
      vertex 30 -65.3017 591.51
      vertex 30 -81.6547 566.093
      vertex 30 -81.7275 544.399
    endloop
  endfacet
  facet normal 1 0 0
    outer loop
      vertex 30 -65.3017 591.51
      vertex 30 -81.7275 544.399
      vertex 30 -81.7377 543.238
    endloop
  endfacet
  facet normal 1 0 0
    outer loop
      vertex 30 -81.8181 533.376
      vertex 30 81.8181 533.376
      vertex 30 -81.7874 537.253
    endloop
  endfacet
  facet normal 1 0 0
    outer loop
      vertex 30 -81.8237 532.621
      vertex 30 81.8237 532.621
      vertex 30 -81.8181 533.376
    endloop
  endfacet
  facet normal 1 0 0
    outer loop
      vertex 30 -82.0165 526.476
      vertex 30 81.8237 532.621
      vertex 30 -81.8237 532.621
    endloop
  endfacet
  facet normal 1 0 0
    outer loop
      vertex 30 82.0165 526.476
      vertex 30 -82.0165 526.476
      vertex 30 82.1779 520.843
    endloop
  endfacet
  facet normal 1 0 0
    outer loop
      vertex 30 -82.1779 520.843
      vertex 30 82.1779 520.843
      vertex 30 -82.0165 526.476
    endloop
  endfacet
  facet normal 1 0 0
    outer loop
      vertex 30 -82.2248 520.078
      vertex 30 82.1779 520.843
      vertex 30 -82.1779 520.843
    endloop
  endfacet
  facet normal 1 0 0
    outer loop
      vertex 30 -82.2271 520.038
      vertex 30 82.1779 520.843
      vertex 30 -82.2248 520.078
    endloop
  endfacet
  facet normal 1 0 0
    outer loop
      vertex 30 82.2271 520.038
      vertex 30 -82.2271 520.038
      vertex 30 -82.4582 515.819
    endloop
  endfacet
  facet normal 1 0 0
    outer loop
      vertex 30 82.4582 515.819
      vertex 30 -82.4582 515.819
      vertex 30 -82.4725 515.553
    endloop
  endfacet
  facet normal 1 0 0
    outer loop
      vertex 30 82.4582 515.819
      vertex 30 -82.4725 515.553
      vertex 30 -82.4874 515.256
    endloop
  endfacet
  facet normal 1 0 0
    outer loop
      vertex 30 82.4874 515.256
      vertex 30 -82.4874 515.256
      vertex 30 -82.7012 510.86
    endloop
  endfacet
  facet normal 1 0 0
    outer loop
      vertex 30 82.7012 510.86
      vertex 30 -82.7012 510.86
      vertex 30 -82.7278 510.283
    endloop
  endfacet
  facet normal 1 0 0
    outer loop
      vertex 30 82.7278 510.283
      vertex 30 -82.7278 510.283
      vertex 30 -82.9138 505.944
    endloop
  endfacet
  facet normal 1 0 0
    outer loop
      vertex 30 82.9138 505.944
      vertex 30 -82.9138 505.944
      vertex 30 -82.9515 505.057
    endloop
  endfacet
  facet normal 1 0 0
    outer loop
      vertex 30 82.9138 505.944
      vertex 30 -82.9515 505.057
      vertex 30 -82.9908 504.05
    endloop
  endfacet
  facet normal 1 0 0
    outer loop
      vertex 30 82.9908 504.05
      vertex 30 -82.9908 504.05
      vertex 30 -83.1592 499.56
    endloop
  endfacet
  facet normal 1 0 0
    outer loop
      vertex 30 83.1592 499.56
      vertex 30 -83.1592 499.56
      vertex 30 -83.2093 498.16
    endloop
  endfacet
  facet normal 1 0 0
    outer loop
      vertex 30 83.2093 498.16
      vertex 30 -83.2093 498.16
      vertex 30 -83.2618 496.553
    endloop
  endfacet
  facet normal 1 0 0
    outer loop
      vertex 30 83.2618 496.553
      vertex 30 -83.2618 496.553
      vertex 30 -83.4117 491.931
    endloop
  endfacet
  facet normal 1 0 0
    outer loop
      vertex 30 83.4117 491.931
      vertex 30 -83.4117 491.931
      vertex 30 -83.4747 489.813
    endloop
  endfacet
  facet normal 1 0 0
    outer loop
      vertex 30 83.4747 489.813
      vertex 30 -83.4747 489.813
      vertex 30 -83.5991 485.335
    endloop
  endfacet
  facet normal 1 0 0
    outer loop
      vertex 30 -83.6716 482.643
      vertex 30 83.5991 485.335
      vertex 30 -83.5991 485.335
    endloop
  endfacet
  facet normal 1 0 0
    outer loop
      vertex 30 83.6716 482.643
      vertex 30 -83.6716 482.643
      vertex 30 83.7358 480
    endloop
  endfacet
  facet normal 1 0 0
    outer loop
      vertex 30 83.7358 480
      vertex 30 -83.6716 482.643
      vertex 30 -83.7358 480
    endloop
  endfacet
  facet normal -1 0 0
    outer loop
      vertex 25 -84.5794 480.514
      vertex 25 84.5794 480.514
      vertex 25 84.5876 480
    endloop
  endfacet
  facet normal -1 0 0
    outer loop
      vertex 25 84.5794 480.514
      vertex 25 -84.5173 484.117
      vertex 25 84.5173 484.117
    endloop
  endfacet
  facet normal -1 0 0
    outer loop
      vertex 25 84.5173 484.117
      vertex 25 -84.5173 484.117
      vertex 25 84.4589 487.119
    endloop
  endfacet
  facet normal -1 0 0
    outer loop
      vertex 25 84.4589 487.119
      vertex 25 -84.4589 487.119
      vertex 25 84.3556 492.408
    endloop
  endfacet
  facet normal -1 0 -0
    outer loop
      vertex 25 -84.3556 492.408
      vertex 25 84.3556 492.408
      vertex 25 -84.4589 487.119
    endloop
  endfacet
  facet normal -1 0 -0
    outer loop
      vertex 25 -84.3067 494.651
      vertex 25 84.3067 494.651
      vertex 25 -84.3556 492.408
    endloop
  endfacet
  facet normal -1 0 0
    outer loop
      vertex 25 84.3067 494.651
      vertex 25 -84.3067 494.651
      vertex 25 84.1781 500.127
    endloop
  endfacet
  facet normal -1 0 -0
    outer loop
      vertex 25 -84.1781 500.127
      vertex 25 84.1781 500.127
      vertex 25 -84.3067 494.651
    endloop
  endfacet
  facet normal -1 0 -0
    outer loop
      vertex 25 -84.1398 501.705
      vertex 25 84.1398 501.705
      vertex 25 -84.1781 500.127
    endloop
  endfacet
  facet normal -1 0 0
    outer loop
      vertex 25 84.1398 501.705
      vertex 25 -84.1398 501.705
      vertex 25 84.1034 503.054
    endloop
  endfacet
  facet normal -1 0 0
    outer loop
      vertex 25 84.1034 503.054
      vertex 25 -84.1034 503.054
      vertex 25 83.9569 508.325
    endloop
  endfacet
  facet normal -1 0 -0
    outer loop
      vertex 25 -83.9569 508.325
      vertex 25 83.9569 508.325
      vertex 25 -84.1034 503.054
    endloop
  endfacet
  facet normal -1 0 0
    outer loop
      vertex 25 83.9569 508.325
      vertex 25 -83.9569 508.325
      vertex 25 83.9315 509.18
    endloop
  endfacet
  facet normal -1 0 0
    outer loop
      vertex 25 83.9315 509.18
      vertex 25 -83.9315 509.18
      vertex 25 83.7573 514.55
    endloop
  endfacet
  facet normal -1 0 -0
    outer loop
      vertex 25 -83.7573 514.55
      vertex 25 83.7573 514.55
      vertex 25 -83.9315 509.18
    endloop
  endfacet
  facet normal -1 0 0
    outer loop
      vertex 25 83.7573 514.55
      vertex 25 -83.7573 514.55
      vertex 25 83.7437 514.966
    endloop
  endfacet
  facet normal -1 0 0
    outer loop
      vertex 25 -83.385 527.728
      vertex 25 83.385 527.728
      vertex 25 83.5219 520.843
    endloop
  endfacet
  facet normal -1 0 0
    outer loop
      vertex 25 -83.2605 535.871
      vertex 25 83.2605 535.871
      vertex 25 83.2772 532.621
    endloop
  endfacet
  facet normal -1 0 0
    outer loop
      vertex 25 66.518 591.51
      vertex 25 83.2046 548.447
      vertex 25 83.2131 544.399
    endloop
  endfacet
  facet normal -1 0 0
    outer loop
      vertex 25 83.2046 548.447
      vertex 25 70.658 588.584
      vertex 25 83.1491 573.147
    endloop
  endfacet
  facet normal -1 -0 -0
    outer loop
      vertex 25 77.7261 582.695
      vertex 25 83.1491 573.147
      vertex 25 70.658 588.584
    endloop
  endfacet
  facet normal -1 -0 -0
    outer loop
      vertex 25 80.6305 579.755
      vertex 25 83.1491 573.147
      vertex 25 77.7261 582.695
    endloop
  endfacet
  facet normal -1 0 0
    outer loop
      vertex 25 83.1477 573.745
      vertex 25 83.1378 573.866
      vertex 25 83.1475 573.843
    endloop
  endfacet
  facet normal -1 0 0
    outer loop
      vertex 25 83.2605 535.871
      vertex 25 -83.2605 535.871
      vertex 25 83.2131 544.399
    endloop
  endfacet
  facet normal -1 0 0
    outer loop
      vertex 25 83.385 527.728
      vertex 25 -83.385 527.728
      vertex 25 83.2772 532.621
    endloop
  endfacet
  facet normal -1 -0 0
    outer loop
      vertex 25 83.7437 514.966
      vertex 25 -83.7573 514.55
      vertex 25 83.7307 515.329
    endloop
  endfacet
  facet normal -1 0 0
    outer loop
      vertex 25 83.1378 573.866
      vertex 25 80.6417 579.743
      vertex 25 80.653 579.732
    endloop
  endfacet
  facet normal -1 0 0
    outer loop
      vertex 25 83.1378 573.866
      vertex 25 80.6305 579.755
      vertex 25 80.6417 579.743
    endloop
  endfacet
  facet normal -1 0 0
    outer loop
      vertex 25 83.1491 573.147
      vertex 25 83.1378 573.866
      vertex 25 83.1477 573.745
    endloop
  endfacet
  facet normal -1 -0 -0
    outer loop
      vertex 25 83.1378 573.866
      vertex 25 83.1491 573.147
      vertex 25 80.6305 579.755
    endloop
  endfacet
  facet normal -1 0 0
    outer loop
      vertex 25 77.7261 582.695
      vertex 25 74.8166 585.632
      vertex 25 74.8327 585.621
    endloop
  endfacet
  facet normal -1 0 0
    outer loop
      vertex 25 77.7261 582.695
      vertex 25 74.8005 585.644
      vertex 25 74.8166 585.632
    endloop
  endfacet
  facet normal -1 0 0
    outer loop
      vertex 25 77.7261 582.695
      vertex 25 70.658 588.584
      vertex 25 74.8005 585.644
    endloop
  endfacet
  facet normal -1 0 0
    outer loop
      vertex 25 83.2046 548.447
      vertex 25 66.518 591.51
      vertex 25 70.658 588.584
    endloop
  endfacet
  facet normal -1 -0 0
    outer loop
      vertex 25 83.2772 532.621
      vertex 25 -83.385 527.728
      vertex 25 -83.2772 532.621
    endloop
  endfacet
  facet normal -1 0 0
    outer loop
      vertex 25 83.2131 544.399
      vertex 25 -83.2131 544.399
      vertex 25 66.518 591.51
    endloop
  endfacet
  facet normal -1 0 -0
    outer loop
      vertex 25 -83.2046 548.447
      vertex 25 -66.518 591.51
      vertex 25 -83.2131 544.399
    endloop
  endfacet
  facet normal -1 0 -0
    outer loop
      vertex 25 -83.1491 573.147
      vertex 25 -70.658 588.584
      vertex 25 -83.2046 548.447
    endloop
  endfacet
  facet normal -1 0 0
    outer loop
      vertex 25 -70.658 588.584
      vertex 25 -83.1491 573.147
      vertex 25 -74.8005 585.644
    endloop
  endfacet
  facet normal -1 0 -0
    outer loop
      vertex 25 -77.7261 582.695
      vertex 25 -74.8005 585.644
      vertex 25 -83.1491 573.147
    endloop
  endfacet
  facet normal -1 0 0
    outer loop
      vertex 25 -74.8005 585.644
      vertex 25 -77.7261 582.695
      vertex 25 -74.8166 585.632
    endloop
  endfacet
  facet normal -1 0 0
    outer loop
      vertex 25 -74.8166 585.632
      vertex 25 -77.7261 582.695
      vertex 25 -74.8327 585.621
    endloop
  endfacet
  facet normal -1 0 0
    outer loop
      vertex 25 -77.7261 582.695
      vertex 25 -83.1491 573.147
      vertex 25 -80.6305 579.755
    endloop
  endfacet
  facet normal -1 0 -0
    outer loop
      vertex 25 -83.1378 573.866
      vertex 25 -80.6305 579.755
      vertex 25 -83.1491 573.147
    endloop
  endfacet
  facet normal -1 0 0
    outer loop
      vertex 25 -80.6417 579.743
      vertex 25 -83.1378 573.866
      vertex 25 -80.653 579.732
    endloop
  endfacet
  facet normal -1 0 0
    outer loop
      vertex 25 -83.1378 573.866
      vertex 25 -83.1477 573.745
      vertex 25 -83.1475 573.843
    endloop
  endfacet
  facet normal -1 0 0
    outer loop
      vertex 25 -83.1378 573.866
      vertex 25 -83.1491 573.147
      vertex 25 -83.1477 573.745
    endloop
  endfacet
  facet normal -1 0 0
    outer loop
      vertex 25 -80.6305 579.755
      vertex 25 -83.1378 573.866
      vertex 25 -80.6417 579.743
    endloop
  endfacet
  facet normal -1 0 0
    outer loop
      vertex 25 -66.518 591.51
      vertex 25 -83.2046 548.447
      vertex 25 -70.658 588.584
    endloop
  endfacet
  facet normal -1 -0 0
    outer loop
      vertex 25 66.518 591.51
      vertex 25 -83.2131 544.399
      vertex 25 -66.518 591.51
    endloop
  endfacet
  facet normal -1 -0 0
    outer loop
      vertex 25 83.2131 544.399
      vertex 25 -83.2605 535.871
      vertex 25 -83.2131 544.399
    endloop
  endfacet
  facet normal -1 0 0
    outer loop
      vertex 25 83.2772 532.621
      vertex 25 -83.2772 532.621
      vertex 25 -83.2605 535.871
    endloop
  endfacet
  facet normal -1 0 0
    outer loop
      vertex 25 83.5219 520.843
      vertex 25 -83.5219 520.843
      vertex 25 -83.385 527.728
    endloop
  endfacet
  facet normal -1 -0 0
    outer loop
      vertex 25 83.5219 520.843
      vertex 25 -83.5372 520.486
      vertex 25 -83.5219 520.843
    endloop
  endfacet
  facet normal -1 0 0
    outer loop
      vertex 25 83.5219 520.843
      vertex 25 -83.5381 520.464
      vertex 25 -83.5372 520.486
    endloop
  endfacet
  facet normal -1 0 0
    outer loop
      vertex 25 83.5219 520.843
      vertex 25 -83.5391 520.44
      vertex 25 -83.5381 520.464
    endloop
  endfacet
  facet normal -1 -0 0
    outer loop
      vertex 25 83.5372 520.486
      vertex 25 -83.5391 520.44
      vertex 25 83.5219 520.843
    endloop
  endfacet
  facet normal -1 -0 0
    outer loop
      vertex 25 83.5381 520.464
      vertex 25 -83.5391 520.44
      vertex 25 83.5372 520.486
    endloop
  endfacet
  facet normal -1 0 0
    outer loop
      vertex 25 83.5391 520.44
      vertex 25 -83.5391 520.44
      vertex 25 83.5381 520.464
    endloop
  endfacet
  facet normal -1 0 -0
    outer loop
      vertex 25 -83.5391 520.44
      vertex 25 83.5391 520.44
      vertex 25 -83.7307 515.329
    endloop
  endfacet
  facet normal -1 0 0
    outer loop
      vertex 25 83.7307 515.329
      vertex 25 -83.7307 515.329
      vertex 25 83.5391 520.44
    endloop
  endfacet
  facet normal -1 0 -0
    outer loop
      vertex 25 -83.7307 515.329
      vertex 25 83.7307 515.329
      vertex 25 -83.7437 514.966
    endloop
  endfacet
  facet normal -1 0 -0
    outer loop
      vertex 25 -83.7437 514.966
      vertex 25 83.7307 515.329
      vertex 25 -83.7573 514.55
    endloop
  endfacet
  facet normal -1 0 -0
    outer loop
      vertex 25 -83.9315 509.18
      vertex 25 83.9315 509.18
      vertex 25 -83.9569 508.325
    endloop
  endfacet
  facet normal -1 0 -0
    outer loop
      vertex 25 -84.1034 503.054
      vertex 25 84.1034 503.054
      vertex 25 -84.1398 501.705
    endloop
  endfacet
  facet normal -1 0 0
    outer loop
      vertex 25 84.1781 500.127
      vertex 25 -84.1781 500.127
      vertex 25 84.1398 501.705
    endloop
  endfacet
  facet normal -1 0 0
    outer loop
      vertex 25 84.3556 492.408
      vertex 25 -84.3556 492.408
      vertex 25 84.3067 494.651
    endloop
  endfacet
  facet normal -1 -0 0
    outer loop
      vertex 25 84.4589 487.119
      vertex 25 -84.5173 484.117
      vertex 25 -84.4589 487.119
    endloop
  endfacet
  facet normal -1 0 0
    outer loop
      vertex 25 84.5794 480.514
      vertex 25 -84.5794 480.514
      vertex 25 -84.5173 484.117
    endloop
  endfacet
  facet normal -1 0 -0
    outer loop
      vertex 25 -84.5794 480.514
      vertex 25 84.5876 480
      vertex 25 -84.5876 480
    endloop
  endfacet
  facet normal 0 0 -1
    outer loop
      vertex 29.8772 -83.7587 480
      vertex 30 83.7358 480
      vertex 30 -83.7358 480
    endloop
  endfacet
  facet normal 0 0 -1
    outer loop
      vertex 29.8772 -83.7587 480
      vertex 29.8772 83.7587 480
      vertex 30 83.7358 480
    endloop
  endfacet
  facet normal 0 0 -1
    outer loop
      vertex 28.7281 -83.9689 480
      vertex 29.8772 83.7587 480
      vertex 29.8772 -83.7587 480
    endloop
  endfacet
  facet normal 0 0 -1
    outer loop
      vertex 28.7281 -83.9689 480
      vertex 28.7281 83.9689 480
      vertex 29.8772 83.7587 480
    endloop
  endfacet
  facet normal 0 0 -1
    outer loop
      vertex 27.9084 -84.1133 480
      vertex 28.7281 83.9689 480
      vertex 28.7281 -83.9689 480
    endloop
  endfacet
  facet normal 0 0 -1
    outer loop
      vertex 27.9084 -84.1133 480
      vertex 27.9084 84.1133 480
      vertex 28.7281 83.9689 480
    endloop
  endfacet
  facet normal 0 0 -1
    outer loop
      vertex 26.7554 -84.3055 480
      vertex 27.9084 84.1133 480
      vertex 27.9084 -84.1133 480
    endloop
  endfacet
  facet normal 0 0 -1
    outer loop
      vertex 26.7554 -84.3055 480
      vertex 26.7554 84.3055 480
      vertex 27.9084 84.1133 480
    endloop
  endfacet
  facet normal 0 0 -1
    outer loop
      vertex 25.9323 -84.4424 480
      vertex 26.7554 84.3055 480
      vertex 26.7554 -84.3055 480
    endloop
  endfacet
  facet normal 0 0 -1
    outer loop
      vertex 25.9323 -84.4424 480
      vertex 25.9323 84.4424 480
      vertex 26.7554 84.3055 480
    endloop
  endfacet
  facet normal 0 0 -1
    outer loop
      vertex 25.106 -84.5717 480
      vertex 25.9323 84.4424 480
      vertex 25.9323 -84.4424 480
    endloop
  endfacet
  facet normal 0 0 -1
    outer loop
      vertex 25.106 -84.5717 480
      vertex 25.106 84.5717 480
      vertex 25.9323 84.4424 480
    endloop
  endfacet
  facet normal 0 0 -1
    outer loop
      vertex 25 -84.5876 480
      vertex 25.106 84.5717 480
      vertex 25.106 -84.5717 480
    endloop
  endfacet
  facet normal -0 0 -1
    outer loop
      vertex 25.106 84.5717 480
      vertex 25 -84.5876 480
      vertex 25 84.5876 480
    endloop
  endfacet
endsolid OpenSCAD_Model
