solid OpenSCAD_Model
  facet normal 0.126505 0.988324 -0.0849277
    outer loop
      vertex 29.1021 82.0563 120
      vertex 29.0771 82.0595 120
      vertex 29.2445 82.0715 120.389
    endloop
  endfacet
  facet normal 0.127528 0.988177 -0.0851001
    outer loop
      vertex 30 81.9405 120
      vertex 29.2445 82.0715 120.389
      vertex 30 81.974 120.389
    endloop
  endfacet
  facet normal 0.127442 0.988174 -0.0852649
    outer loop
      vertex 29.2445 82.0715 120.389
      vertex 30 81.9405 120
      vertex 29.1021 82.0563 120
    endloop
  endfacet
  facet normal 0.11759 0.989742 -0.0811347
    outer loop
      vertex 29.0771 82.0595 120
      vertex 26.7876 82.3634 120.389
      vertex 29.2445 82.0715 120.389
    endloop
  endfacet
  facet normal 0.117616 0.989751 -0.0809882
    outer loop
      vertex 26.7876 82.3634 120.389
      vertex 29.0771 82.0595 120
      vertex 26.6527 82.3476 120
    endloop
  endfacet
  facet normal 0.107733 0.991164 -0.07738
    outer loop
      vertex 26.6278 82.3504 120
      vertex 25 82.5577 120.389
      vertex 26.7876 82.3634 120.389
    endloop
  endfacet
  facet normal 0.107714 0.99116 -0.0774583
    outer loop
      vertex 25 82.5577 120.389
      vertex 26.6278 82.3504 120
      vertex 25 82.5273 120
    endloop
  endfacet
  facet normal 0.111397 0.990641 -0.078868
    outer loop
      vertex 26.6527 82.3476 120
      vertex 26.6278 82.3504 120
      vertex 26.7876 82.3634 120.389
    endloop
  endfacet
  facet normal 0.103481 0.992607 -0.0634309
    outer loop
      vertex 28.6499 84.0616 149.833
      vertex 25 83.2976 131.923
      vertex 26.037 84.334 149.833
    endloop
  endfacet
  facet normal 0.103381 0.992618 -0.063411
    outer loop
      vertex 25 83.2976 131.923
      vertex 28.6499 84.0616 149.833
      vertex 25 82.8517 124.943
    endloop
  endfacet
  facet normal 0.127713 0.989608 -0.0660699
    outer loop
      vertex 30 81.974 120.389
      vertex 29.2445 82.0715 120.389
      vertex 30 82.295 125.197
    endloop
  endfacet
  facet normal 0.122698 0.990293 -0.0653138
    outer loop
      vertex 30 82.295 125.197
      vertex 29.2445 82.0715 120.389
      vertex 30 82.7053 131.418
    endloop
  endfacet
  facet normal 0.0938048 0.993622 -0.0625834
    outer loop
      vertex 26.037 84.334 149.833
      vertex 25 83.9694 142.49
      vertex 25 84.4319 149.833
    endloop
  endfacet
  facet normal 0.117729 0.990916 -0.0650092
    outer loop
      vertex 26.7876 82.3634 120.389
      vertex 30 82.7053 131.418
      vertex 29.2445 82.0715 120.389
    endloop
  endfacet
  facet normal 0.11774 0.990914 -0.0650125
    outer loop
      vertex 30 82.7053 131.418
      vertex 26.7876 82.3634 120.389
      vertex 30 83.3688 141.531
    endloop
  endfacet
  facet normal 0.113096 0.991498 -0.0643483
    outer loop
      vertex 30 83.3688 141.531
      vertex 28.6499 84.0616 149.833
      vertex 30 83.9076 149.833
    endloop
  endfacet
  facet normal 0.113139 0.991494 -0.0643409
    outer loop
      vertex 28.6499 84.0616 149.833
      vertex 30 83.3688 141.531
      vertex 26.7876 82.3634 120.389
    endloop
  endfacet
  facet normal 0.107853 0.992102 -0.0640416
    outer loop
      vertex 26.7876 82.3634 120.389
      vertex 25 82.8517 124.943
      vertex 28.6499 84.0616 149.833
    endloop
  endfacet
  facet normal 0.107835 0.992104 -0.0640488
    outer loop
      vertex 25 82.8517 124.943
      vertex 26.7876 82.3634 120.389
      vertex 25 82.5577 120.389
    endloop
  endfacet
  facet normal 0.0979142 0.99319 -0.0631423
    outer loop
      vertex 26.037 84.334 149.833
      vertex 25 83.2976 131.923
      vertex 25 83.9694 142.49
    endloop
  endfacet
  facet normal 0.0772235 0.997014 -0
    outer loop
      vertex 25.9838 85.435 179.278
      vertex 25 85.5112 240
      vertex 25.9838 85.435 240
    endloop
  endfacet
  facet normal 0.0772235 0.997014 0
    outer loop
      vertex 25 85.5112 240
      vertex 25.9838 85.435 179.278
      vertex 25 85.5112 179.278
    endloop
  endfacet
  facet normal 0.0952688 0.994729 -0.0379209
    outer loop
      vertex 30 84.7351 170.312
      vertex 28.8619 85.1859 179.278
      vertex 30 85.0769 179.278
    endloop
  endfacet
  facet normal 0.0952756 0.994728 -0.03792
    outer loop
      vertex 28.8619 85.1859 179.278
      vertex 30 84.7351 170.312
      vertex 26.037 84.334 149.833
    endloop
  endfacet
  facet normal 0.0938819 0.994866 -0.0377902
    outer loop
      vertex 26.037 84.334 149.833
      vertex 25 84.7561 158.369
      vertex 28.8619 85.1859 179.278
    endloop
  endfacet
  facet normal 0.0939219 0.994862 -0.0377852
    outer loop
      vertex 25 84.7561 158.369
      vertex 26.037 84.334 149.833
      vertex 25 84.4319 149.833
    endloop
  endfacet
  facet normal 0.113234 0.992706 -0.0413789
    outer loop
      vertex 30 83.9076 149.833
      vertex 28.6499 84.0616 149.833
      vertex 30 84.186 156.512
    endloop
  endfacet
  facet normal 0.0953374 0.995445 -0
    outer loop
      vertex 30 85.0769 179.278
      vertex 28.8619 85.1859 240
      vertex 30 85.0769 240
    endloop
  endfacet
  facet normal 0.0953374 0.995445 0
    outer loop
      vertex 28.8619 85.1859 240
      vertex 30 85.0769 179.278
      vertex 28.8619 85.1859 179.278
    endloop
  endfacet
  facet normal 0.104226 0.993766 -0.0395777
    outer loop
      vertex 30 84.186 156.512
      vertex 28.6499 84.0616 149.833
      vertex 30 84.4332 162.719
    endloop
  endfacet
  facet normal 0.103609 0.993833 -0.039515
    outer loop
      vertex 26.037 84.334 149.833
      vertex 30 84.4332 162.719
      vertex 28.6499 84.0616 149.833
    endloop
  endfacet
  facet normal 0.103609 0.993833 -0.0395151
    outer loop
      vertex 30 84.4332 162.719
      vertex 26.037 84.334 149.833
      vertex 30 84.7351 170.312
    endloop
  endfacet
  facet normal 0.0862278 0.996275 -0
    outer loop
      vertex 28.8619 85.1859 179.278
      vertex 25.9838 85.435 240
      vertex 28.8619 85.1859 240
    endloop
  endfacet
  facet normal 0.0862278 0.996275 0
    outer loop
      vertex 25.9838 85.435 240
      vertex 28.8619 85.1859 179.278
      vertex 25.9838 85.435 179.278
    endloop
  endfacet
  facet normal 0.0771762 0.996403 -0.0349871
    outer loop
      vertex 25.9838 85.435 179.278
      vertex 25 85.3146 173.679
      vertex 25 85.5112 179.278
    endloop
  endfacet
  facet normal 0.0861707 0.995616 -0.036374
    outer loop
      vertex 28.8619 85.1859 179.278
      vertex 25 85.1068 167.964
      vertex 25.9838 85.435 179.278
    endloop
  endfacet
  facet normal 0.0862172 0.995612 -0.0363899
    outer loop
      vertex 25 85.1068 167.964
      vertex 28.8619 85.1859 179.278
      vertex 25 84.7561 158.369
    endloop
  endfacet
  facet normal 0.0841961 0.995791 -0.0362074
    outer loop
      vertex 25.9838 85.435 179.278
      vertex 25 85.1068 167.964
      vertex 25 85.3146 173.679
    endloop
  endfacet
  facet normal 0.126505 -0.988324 -0.0849277
    outer loop
      vertex 29.1021 -82.0563 120
      vertex 29.2445 -82.0715 120.389
      vertex 29.0771 -82.0595 120
    endloop
  endfacet
  facet normal 0.127442 -0.988174 -0.0852649
    outer loop
      vertex 30 -81.9405 120
      vertex 29.2445 -82.0715 120.389
      vertex 29.1021 -82.0563 120
    endloop
  endfacet
  facet normal 0.127528 -0.988177 -0.0851001
    outer loop
      vertex 29.2445 -82.0715 120.389
      vertex 30 -81.9405 120
      vertex 30 -81.974 120.389
    endloop
  endfacet
  facet normal 0.117616 -0.989751 -0.0809882
    outer loop
      vertex 29.0771 -82.0595 120
      vertex 26.7876 -82.3634 120.389
      vertex 26.6527 -82.3476 120
    endloop
  endfacet
  facet normal 0.11759 -0.989742 -0.0811347
    outer loop
      vertex 26.7876 -82.3634 120.389
      vertex 29.0771 -82.0595 120
      vertex 29.2445 -82.0715 120.389
    endloop
  endfacet
  facet normal 0.107714 -0.99116 -0.0774583
    outer loop
      vertex 26.6278 -82.3504 120
      vertex 25 -82.5577 120.389
      vertex 25 -82.5273 120
    endloop
  endfacet
  facet normal 0.107733 -0.991164 -0.07738
    outer loop
      vertex 25 -82.5577 120.389
      vertex 26.6278 -82.3504 120
      vertex 26.7876 -82.3634 120.389
    endloop
  endfacet
  facet normal 0.111397 -0.990641 -0.078868
    outer loop
      vertex 26.6527 -82.3476 120
      vertex 26.7876 -82.3634 120.389
      vertex 26.6278 -82.3504 120
    endloop
  endfacet
  facet normal 0.103481 -0.992607 -0.0634309
    outer loop
      vertex 25 -83.2976 131.923
      vertex 28.6499 -84.0616 149.833
      vertex 26.037 -84.334 149.833
    endloop
  endfacet
  facet normal 0.103381 -0.992618 -0.063411
    outer loop
      vertex 28.6499 -84.0616 149.833
      vertex 25 -83.2976 131.923
      vertex 25 -82.8517 124.943
    endloop
  endfacet
  facet normal 0.127713 -0.989608 -0.0660699
    outer loop
      vertex 30 -81.974 120.389
      vertex 30 -82.295 125.197
      vertex 29.2445 -82.0715 120.389
    endloop
  endfacet
  facet normal 0.122698 -0.990293 -0.0653138
    outer loop
      vertex 30 -82.295 125.197
      vertex 30 -82.7053 131.418
      vertex 29.2445 -82.0715 120.389
    endloop
  endfacet
  facet normal 0.0938048 -0.993622 -0.0625834
    outer loop
      vertex 25 -83.9694 142.49
      vertex 26.037 -84.334 149.833
      vertex 25 -84.4319 149.833
    endloop
  endfacet
  facet normal 0.11774 -0.990914 -0.0650125
    outer loop
      vertex 26.7876 -82.3634 120.389
      vertex 30 -82.7053 131.418
      vertex 30 -83.3688 141.531
    endloop
  endfacet
  facet normal 0.117729 -0.990916 -0.0650092
    outer loop
      vertex 30 -82.7053 131.418
      vertex 26.7876 -82.3634 120.389
      vertex 29.2445 -82.0715 120.389
    endloop
  endfacet
  facet normal 0.113096 -0.991498 -0.0643483
    outer loop
      vertex 28.6499 -84.0616 149.833
      vertex 30 -83.3688 141.531
      vertex 30 -83.9076 149.833
    endloop
  endfacet
  facet normal 0.113139 -0.991494 -0.0643409
    outer loop
      vertex 30 -83.3688 141.531
      vertex 28.6499 -84.0616 149.833
      vertex 26.7876 -82.3634 120.389
    endloop
  endfacet
  facet normal 0.107835 -0.992104 -0.0640488
    outer loop
      vertex 26.7876 -82.3634 120.389
      vertex 25 -82.8517 124.943
      vertex 25 -82.5577 120.389
    endloop
  endfacet
  facet normal 0.107853 -0.992102 -0.0640416
    outer loop
      vertex 25 -82.8517 124.943
      vertex 26.7876 -82.3634 120.389
      vertex 28.6499 -84.0616 149.833
    endloop
  endfacet
  facet normal 0.0979142 -0.99319 -0.0631423
    outer loop
      vertex 25 -83.2976 131.923
      vertex 26.037 -84.334 149.833
      vertex 25 -83.9694 142.49
    endloop
  endfacet
  facet normal 0.0772235 -0.997014 0
    outer loop
      vertex 25 -85.5112 179.278
      vertex 25.9838 -85.435 240
      vertex 25 -85.5112 240
    endloop
  endfacet
  facet normal 0.0772235 -0.997014 0
    outer loop
      vertex 25.9838 -85.435 240
      vertex 25 -85.5112 179.278
      vertex 25.9838 -85.435 179.278
    endloop
  endfacet
  facet normal 0.0952688 -0.994729 -0.0379209
    outer loop
      vertex 28.8619 -85.1859 179.278
      vertex 30 -84.7351 170.312
      vertex 30 -85.0769 179.278
    endloop
  endfacet
  facet normal 0.0952756 -0.994728 -0.03792
    outer loop
      vertex 30 -84.7351 170.312
      vertex 28.8619 -85.1859 179.278
      vertex 26.037 -84.334 149.833
    endloop
  endfacet
  facet normal 0.0939219 -0.994862 -0.0377852
    outer loop
      vertex 26.037 -84.334 149.833
      vertex 25 -84.7561 158.369
      vertex 25 -84.4319 149.833
    endloop
  endfacet
  facet normal 0.0938819 -0.994866 -0.0377902
    outer loop
      vertex 25 -84.7561 158.369
      vertex 26.037 -84.334 149.833
      vertex 28.8619 -85.1859 179.278
    endloop
  endfacet
  facet normal 0.113234 -0.992706 -0.0413789
    outer loop
      vertex 30 -83.9076 149.833
      vertex 30 -84.186 156.512
      vertex 28.6499 -84.0616 149.833
    endloop
  endfacet
  facet normal 0.0953374 -0.995445 0
    outer loop
      vertex 28.8619 -85.1859 179.278
      vertex 30 -85.0769 240
      vertex 28.8619 -85.1859 240
    endloop
  endfacet
  facet normal 0.0953374 -0.995445 0
    outer loop
      vertex 30 -85.0769 240
      vertex 28.8619 -85.1859 179.278
      vertex 30 -85.0769 179.278
    endloop
  endfacet
  facet normal 0.104226 -0.993766 -0.0395777
    outer loop
      vertex 30 -84.186 156.512
      vertex 30 -84.4332 162.719
      vertex 28.6499 -84.0616 149.833
    endloop
  endfacet
  facet normal 0.103609 -0.993833 -0.0395151
    outer loop
      vertex 26.037 -84.334 149.833
      vertex 30 -84.4332 162.719
      vertex 30 -84.7351 170.312
    endloop
  endfacet
  facet normal 0.103609 -0.993833 -0.039515
    outer loop
      vertex 30 -84.4332 162.719
      vertex 26.037 -84.334 149.833
      vertex 28.6499 -84.0616 149.833
    endloop
  endfacet
  facet normal 0.0862278 -0.996275 0
    outer loop
      vertex 25.9838 -85.435 179.278
      vertex 28.8619 -85.1859 240
      vertex 25.9838 -85.435 240
    endloop
  endfacet
  facet normal 0.0862278 -0.996275 0
    outer loop
      vertex 28.8619 -85.1859 240
      vertex 25.9838 -85.435 179.278
      vertex 28.8619 -85.1859 179.278
    endloop
  endfacet
  facet normal 0.0771762 -0.996403 -0.0349871
    outer loop
      vertex 25 -85.3146 173.679
      vertex 25.9838 -85.435 179.278
      vertex 25 -85.5112 179.278
    endloop
  endfacet
  facet normal 0.0861707 -0.995616 -0.036374
    outer loop
      vertex 25 -85.1068 167.964
      vertex 28.8619 -85.1859 179.278
      vertex 25.9838 -85.435 179.278
    endloop
  endfacet
  facet normal 0.0862172 -0.995612 -0.0363899
    outer loop
      vertex 28.8619 -85.1859 179.278
      vertex 25 -85.1068 167.964
      vertex 25 -84.7561 158.369
    endloop
  endfacet
  facet normal 0.0841961 -0.995791 -0.0362074
    outer loop
      vertex 25 -85.1068 167.964
      vertex 25.9838 -85.435 179.278
      vertex 25 -85.3146 173.679
    endloop
  endfacet
  facet normal 1 0 0
    outer loop
      vertex 30 -85.0769 179.278
      vertex 30 85.0769 179.278
      vertex 30 85.0769 240
    endloop
  endfacet
  facet normal 1 0 0
    outer loop
      vertex 30 85.0769 179.278
      vertex 30 -85.0769 179.278
      vertex 30 84.7351 170.312
    endloop
  endfacet
  facet normal 1 0 -0
    outer loop
      vertex 30 -84.7351 170.312
      vertex 30 84.7351 170.312
      vertex 30 -85.0769 179.278
    endloop
  endfacet
  facet normal 1 0 0
    outer loop
      vertex 30 84.7351 170.312
      vertex 30 -84.7351 170.312
      vertex 30 84.4332 162.719
    endloop
  endfacet
  facet normal 1 0 -0
    outer loop
      vertex 30 -84.4332 162.719
      vertex 30 84.4332 162.719
      vertex 30 -84.7351 170.312
    endloop
  endfacet
  facet normal 1 0 0
    outer loop
      vertex 30 84.4332 162.719
      vertex 30 -84.4332 162.719
      vertex 30 84.186 156.512
    endloop
  endfacet
  facet normal 1 0 -0
    outer loop
      vertex 30 -84.186 156.512
      vertex 30 84.186 156.512
      vertex 30 -84.4332 162.719
    endloop
  endfacet
  facet normal 1 0 0
    outer loop
      vertex 30 84.186 156.512
      vertex 30 -84.186 156.512
      vertex 30 83.9076 149.833
    endloop
  endfacet
  facet normal 1 0 -0
    outer loop
      vertex 30 -83.9076 149.833
      vertex 30 83.9076 149.833
      vertex 30 -84.186 156.512
    endloop
  endfacet
  facet normal 1 0 0
    outer loop
      vertex 30 83.9076 149.833
      vertex 30 -83.9076 149.833
      vertex 30 83.3688 141.531
    endloop
  endfacet
  facet normal 1 0 0
    outer loop
      vertex 30 81.9405 120
      vertex 30 -81.974 120.389
      vertex 30 -81.9405 120
    endloop
  endfacet
  facet normal 1 0 0
    outer loop
      vertex 30 81.974 120.389
      vertex 30 -81.974 120.389
      vertex 30 81.9405 120
    endloop
  endfacet
  facet normal 1 0 -0
    outer loop
      vertex 30 -81.974 120.389
      vertex 30 81.974 120.389
      vertex 30 -82.295 125.197
    endloop
  endfacet
  facet normal 1 0 0
    outer loop
      vertex 30 82.295 125.197
      vertex 30 -82.295 125.197
      vertex 30 81.974 120.389
    endloop
  endfacet
  facet normal 1 0 -0
    outer loop
      vertex 30 -82.295 125.197
      vertex 30 82.295 125.197
      vertex 30 -82.7053 131.418
    endloop
  endfacet
  facet normal 1 0 0
    outer loop
      vertex 30 82.7053 131.418
      vertex 30 -82.7053 131.418
      vertex 30 82.295 125.197
    endloop
  endfacet
  facet normal 1 0 -0
    outer loop
      vertex 30 -82.7053 131.418
      vertex 30 82.7053 131.418
      vertex 30 -83.3688 141.531
    endloop
  endfacet
  facet normal 1 0 0
    outer loop
      vertex 30 83.3688 141.531
      vertex 30 -83.3688 141.531
      vertex 30 82.7053 131.418
    endloop
  endfacet
  facet normal 1 0 0
    outer loop
      vertex 30 -85.0769 179.278
      vertex 30 85.0769 240
      vertex 30 -85.0769 240
    endloop
  endfacet
  facet normal 1 0 -0
    outer loop
      vertex 30 -83.3688 141.531
      vertex 30 83.3688 141.531
      vertex 30 -83.9076 149.833
    endloop
  endfacet
  facet normal -1 0 0
    outer loop
      vertex 25 -85.5112 179.278
      vertex 25 85.5112 179.278
      vertex 25 85.3146 173.679
    endloop
  endfacet
  facet normal -1 0 0
    outer loop
      vertex 25 -85.3146 173.679
      vertex 25 85.3146 173.679
      vertex 25 85.1068 167.964
    endloop
  endfacet
  facet normal -1 0 0
    outer loop
      vertex 25 -85.1068 167.964
      vertex 25 85.1068 167.964
      vertex 25 84.7561 158.369
    endloop
  endfacet
  facet normal -1 0 0
    outer loop
      vertex 25 -84.7561 158.369
      vertex 25 84.7561 158.369
      vertex 25 84.4319 149.833
    endloop
  endfacet
  facet normal -1 0 0
    outer loop
      vertex 25 -84.4319 149.833
      vertex 25 84.4319 149.833
      vertex 25 83.9694 142.49
    endloop
  endfacet
  facet normal -1 0 0
    outer loop
      vertex 25 -83.9694 142.49
      vertex 25 83.9694 142.49
      vertex 25 83.2976 131.923
    endloop
  endfacet
  facet normal -1 0 0
    outer loop
      vertex 25 -83.2976 131.923
      vertex 25 83.2976 131.923
      vertex 25 82.8517 124.943
    endloop
  endfacet
  facet normal -1 0 0
    outer loop
      vertex 25 -82.8517 124.943
      vertex 25 82.8517 124.943
      vertex 25 82.5577 120.389
    endloop
  endfacet
  facet normal -1 0 0
    outer loop
      vertex 25 -82.5577 120.389
      vertex 25 82.5577 120.389
      vertex 25 82.5273 120
    endloop
  endfacet
  facet normal -1 0 0
    outer loop
      vertex 25 -82.5577 120.389
      vertex 25 82.5273 120
      vertex 25 -82.5273 120
    endloop
  endfacet
  facet normal -1 0 0
    outer loop
      vertex 25 82.5577 120.389
      vertex 25 -82.5577 120.389
      vertex 25 -82.8517 124.943
    endloop
  endfacet
  facet normal -1 0 0
    outer loop
      vertex 25 82.8517 124.943
      vertex 25 -82.8517 124.943
      vertex 25 -83.2976 131.923
    endloop
  endfacet
  facet normal -1 0 0
    outer loop
      vertex 25 83.2976 131.923
      vertex 25 -83.2976 131.923
      vertex 25 -83.9694 142.49
    endloop
  endfacet
  facet normal -1 0 0
    outer loop
      vertex 25 83.9694 142.49
      vertex 25 -83.9694 142.49
      vertex 25 -84.4319 149.833
    endloop
  endfacet
  facet normal -1 0 0
    outer loop
      vertex 25 84.4319 149.833
      vertex 25 -84.4319 149.833
      vertex 25 -84.7561 158.369
    endloop
  endfacet
  facet normal -1 0 0
    outer loop
      vertex 25 84.7561 158.369
      vertex 25 -84.7561 158.369
      vertex 25 -85.1068 167.964
    endloop
  endfacet
  facet normal -1 0 0
    outer loop
      vertex 25 85.1068 167.964
      vertex 25 -85.1068 167.964
      vertex 25 -85.3146 173.679
    endloop
  endfacet
  facet normal -1 0 0
    outer loop
      vertex 25 85.3146 173.679
      vertex 25 -85.3146 173.679
      vertex 25 -85.5112 179.278
    endloop
  endfacet
  facet normal -1 0 0
    outer loop
      vertex 25 85.5112 179.278
      vertex 25 -85.5112 179.278
      vertex 25 85.5112 240
    endloop
  endfacet
  facet normal -1 -0 0
    outer loop
      vertex 25 85.5112 240
      vertex 25 -85.5112 179.278
      vertex 25 -85.5112 240
    endloop
  endfacet
  facet normal 0 0 1
    outer loop
      vertex 28.8619 85.1859 240
      vertex 30 -85.0769 240
      vertex 30 85.0769 240
    endloop
  endfacet
  facet normal 0 0 1
    outer loop
      vertex 28.8619 85.1859 240
      vertex 28.8619 -85.1859 240
      vertex 30 -85.0769 240
    endloop
  endfacet
  facet normal 0 0 1
    outer loop
      vertex 25.9838 85.435 240
      vertex 28.8619 -85.1859 240
      vertex 28.8619 85.1859 240
    endloop
  endfacet
  facet normal 0 0 1
    outer loop
      vertex 25.9838 85.435 240
      vertex 25.9838 -85.435 240
      vertex 28.8619 -85.1859 240
    endloop
  endfacet
  facet normal 0 0 1
    outer loop
      vertex 25 85.5112 240
      vertex 25.9838 -85.435 240
      vertex 25.9838 85.435 240
    endloop
  endfacet
  facet normal 0 0 1
    outer loop
      vertex 25.9838 -85.435 240
      vertex 25 85.5112 240
      vertex 25 -85.5112 240
    endloop
  endfacet
  facet normal 0 0 -1
    outer loop
      vertex 29.1021 -82.0563 120
      vertex 30 81.9405 120
      vertex 30 -81.9405 120
    endloop
  endfacet
  facet normal 0 0 -1
    outer loop
      vertex 29.1021 -82.0563 120
      vertex 29.1021 82.0563 120
      vertex 30 81.9405 120
    endloop
  endfacet
  facet normal 0 0 -1
    outer loop
      vertex 29.0771 -82.0595 120
      vertex 29.1021 82.0563 120
      vertex 29.1021 -82.0563 120
    endloop
  endfacet
  facet normal 0 0 -1
    outer loop
      vertex 29.0771 -82.0595 120
      vertex 29.0771 82.0595 120
      vertex 29.1021 82.0563 120
    endloop
  endfacet
  facet normal 0 0 -1
    outer loop
      vertex 26.6527 -82.3476 120
      vertex 29.0771 82.0595 120
      vertex 29.0771 -82.0595 120
    endloop
  endfacet
  facet normal 0 0 -1
    outer loop
      vertex 26.6527 -82.3476 120
      vertex 26.6527 82.3476 120
      vertex 29.0771 82.0595 120
    endloop
  endfacet
  facet normal 0 0 -1
    outer loop
      vertex 26.6278 -82.3504 120
      vertex 26.6527 82.3476 120
      vertex 26.6527 -82.3476 120
    endloop
  endfacet
  facet normal 0 0 -1
    outer loop
      vertex 26.6278 -82.3504 120
      vertex 26.6278 82.3504 120
      vertex 26.6527 82.3476 120
    endloop
  endfacet
  facet normal 0 0 -1
    outer loop
      vertex 25 -82.5273 120
      vertex 26.6278 82.3504 120
      vertex 26.6278 -82.3504 120
    endloop
  endfacet
  facet normal -0 0 -1
    outer loop
      vertex 26.6278 82.3504 120
      vertex 25 -82.5273 120
      vertex 25 82.5273 120
    endloop
  endfacet
endsolid OpenSCAD_Model
