solid OpenSCAD_Model
  facet normal 0.016941 0.0874941 -0.996021
    outer loop
      vertex 540 9.64213 -94.5233
      vertex 541.852 0 -95.3388
      vertex 540 0 -95.3703
    endloop
  endfacet
  facet normal 0.0166646 0.0874418 -0.99603
    outer loop
      vertex 540 9.64213 -94.5233
      vertex 541.852 16.4984 -93.8904
      vertex 541.852 0 -95.3388
    endloop
  endfacet
  facet normal 0.0166722 0.0874398 -0.99603
    outer loop
      vertex 541.852 16.4984 -93.8904
      vertex 540 9.64213 -94.5233
      vertex 540 16.4984 -93.9214
    endloop
  endfacet
  facet normal 0.0161618 0.25976 -0.965538
    outer loop
      vertex 540 25.8475 -91.4062
      vertex 541.852 16.4984 -93.8904
      vertex 540 16.4984 -93.9214
    endloop
  endfacet
  facet normal 0.0153949 0.259621 -0.965588
    outer loop
      vertex 540 25.8475 -91.4062
      vertex 541.852 32.4955 -89.5892
      vertex 541.852 16.4984 -93.8904
    endloop
  endfacet
  facet normal 0.0154328 0.259611 -0.96559
    outer loop
      vertex 541.852 32.4955 -89.5892
      vertex 540 25.8475 -91.4062
      vertex 540 32.4955 -89.6188
    endloop
  endfacet
  facet normal 0.0144733 0.423973 -0.905559
    outer loop
      vertex 540 41.2676 -85.5118
      vertex 541.852 32.4955 -89.5892
      vertex 540 32.4955 -89.6188
    endloop
  endfacet
  facet normal 0.0133389 0.423783 -0.905666
    outer loop
      vertex 540 41.2676 -85.5118
      vertex 541.852 47.5052 -82.5658
      vertex 541.852 32.4955 -89.5892
    endloop
  endfacet
  facet normal 0.0133503 0.42378 -0.905667
    outer loop
      vertex 541.852 47.5052 -82.5658
      vertex 540 41.2676 -85.5118
      vertex 540 47.5052 -82.5931
    endloop
  endfacet
  facet normal 0.0120581 0.57508 -0.818008
    outer loop
      vertex 540 55.4338 -77.0191
      vertex 541.852 47.5052 -82.5658
      vertex 540 47.5052 -82.5931
    endloop
  endfacet
  facet normal 0.0106557 0.574869 -0.818176
    outer loop
      vertex 540 55.4338 -77.0191
      vertex 541.852 61.0715 -73.0338
      vertex 541.852 47.5052 -82.5658
    endloop
  endfacet
  facet normal 0.0106469 0.574871 -0.818174
    outer loop
      vertex 541.852 61.0715 -73.0338
      vertex 540 55.4338 -77.0191
      vertex 540 61.0715 -73.0579
    endloop
  endfacet
  facet normal 0.0091827 0.708493 -0.705658
    outer loop
      vertex 540 67.9156 -66.1863
      vertex 541.852 61.0715 -73.0338
      vertex 540 61.0715 -73.0579
    endloop
  endfacet
  facet normal 0.0076989 0.70831 -0.705859
    outer loop
      vertex 541.852 72.7822 -61.2826
      vertex 540 67.9156 -66.1863
      vertex 540 72.7822 -61.3028
    endloop
  endfacet
  facet normal 0.00772543 0.708305 -0.705864
    outer loop
      vertex 540 67.9156 -66.1863
      vertex 541.852 72.7822 -61.2826
      vertex 541.852 61.0715 -73.0338
    endloop
  endfacet
  facet normal 0.0062391 0.820216 -0.57202
    outer loop
      vertex 540 78.3338 -53.3424
      vertex 541.852 72.7822 -61.2826
      vertex 540 72.7822 -61.3028
    endloop
  endfacet
  facet normal 0.00485113 0.820067 -0.572248
    outer loop
      vertex 541.852 82.2815 -47.6694
      vertex 540 78.3338 -53.3424
      vertex 540 82.2815 -47.6851
    endloop
  endfacet
  facet normal 0.0048368 0.820069 -0.572245
    outer loop
      vertex 540 78.3338 -53.3424
      vertex 541.852 82.2815 -47.6694
      vertex 541.852 72.7822 -61.2826
    endloop
  endfacet
  facet normal 0.00357084 0.90695 -0.421223
    outer loop
      vertex 540 86.372 -38.8777
      vertex 541.852 82.2815 -47.6694
      vertex 540 82.2815 -47.6851
    endloop
  endfacet
  facet normal 0.00245752 0.906863 -0.421419
    outer loop
      vertex 541.852 89.2806 -32.6078
      vertex 540 86.372 -38.8777
      vertex 540 89.2806 -32.6186
    endloop
  endfacet
  facet normal 0.00245417 0.906863 -0.421418
    outer loop
      vertex 540 86.372 -38.8777
      vertex 541.852 89.2806 -32.6078
      vertex 541.852 82.2815 -47.6694
    endloop
  endfacet
  facet normal 0.00150366 0.966184 -0.25785
    outer loop
      vertex 540 91.7857 -23.2318
      vertex 541.852 89.2806 -32.6078
      vertex 540 89.2806 -32.6186
    endloop
  endfacet
  facet normal 0.000766158 0.966148 -0.257986
    outer loop
      vertex 541.852 93.567 -16.5554
      vertex 540 91.7857 -23.2318
      vertex 540 93.567 -16.5609
    endloop
  endfacet
  facet normal 0.000766341 0.966148 -0.257986
    outer loop
      vertex 540 91.7857 -23.2318
      vertex 541.852 93.567 -16.5554
      vertex 541.852 89.2806 -32.6078
    endloop
  endfacet
  facet normal 0.000257809 0.996225 -0.0868113
    outer loop
      vertex 540 94.4106 -6.87996
      vertex 541.852 93.567 -16.5554
      vertex 540 93.567 -16.5609
    endloop
  endfacet
  facet normal 0 0.99622 -0.0868657
    outer loop
      vertex 541.852 95.0105 0
      vertex 540 94.4106 -6.87996
      vertex 540 95.0105 0
    endloop
  endfacet
  facet normal -1.17686e-05 0.99622 -0.0868625
    outer loop
      vertex 540 94.4106 -6.87996
      vertex 541.852 95.0105 0
      vertex 541.852 93.567 -16.5554
    endloop
  endfacet
  facet normal 0.000257809 -0.996225 -0.0868113
    outer loop
      vertex 540 -93.567 -16.5609
      vertex 541.852 -93.567 -16.5554
      vertex 540 -94.4106 -6.87996
    endloop
  endfacet
  facet normal 0 -0.99622 -0.0868657
    outer loop
      vertex 540 -94.4106 -6.87996
      vertex 541.852 -95.0105 0
      vertex 540 -95.0105 0
    endloop
  endfacet
  facet normal -1.17686e-05 -0.99622 -0.0868625
    outer loop
      vertex 541.852 -95.0105 0
      vertex 540 -94.4106 -6.87996
      vertex 541.852 -93.567 -16.5554
    endloop
  endfacet
  facet normal 0.00150366 -0.966184 -0.25785
    outer loop
      vertex 540 -89.2806 -32.6186
      vertex 541.852 -89.2806 -32.6078
      vertex 540 -91.7857 -23.2318
    endloop
  endfacet
  facet normal 0.000766158 -0.966148 -0.257986
    outer loop
      vertex 540 -91.7857 -23.2318
      vertex 541.852 -93.567 -16.5554
      vertex 540 -93.567 -16.5609
    endloop
  endfacet
  facet normal 0.000766341 -0.966148 -0.257986
    outer loop
      vertex 541.852 -93.567 -16.5554
      vertex 540 -91.7857 -23.2318
      vertex 541.852 -89.2806 -32.6078
    endloop
  endfacet
  facet normal 0.00357084 -0.90695 -0.421223
    outer loop
      vertex 540 -82.2815 -47.6851
      vertex 541.852 -82.2815 -47.6694
      vertex 540 -86.372 -38.8777
    endloop
  endfacet
  facet normal 0.00245752 -0.906863 -0.421419
    outer loop
      vertex 540 -86.372 -38.8777
      vertex 541.852 -89.2806 -32.6078
      vertex 540 -89.2806 -32.6186
    endloop
  endfacet
  facet normal 0.00245417 -0.906863 -0.421418
    outer loop
      vertex 541.852 -89.2806 -32.6078
      vertex 540 -86.372 -38.8777
      vertex 541.852 -82.2815 -47.6694
    endloop
  endfacet
  facet normal 0.0062391 -0.820216 -0.57202
    outer loop
      vertex 540 -72.7822 -61.3028
      vertex 541.852 -72.7822 -61.2826
      vertex 540 -78.3338 -53.3424
    endloop
  endfacet
  facet normal 0.00485113 -0.820067 -0.572248
    outer loop
      vertex 540 -78.3338 -53.3424
      vertex 541.852 -82.2815 -47.6694
      vertex 540 -82.2815 -47.6851
    endloop
  endfacet
  facet normal 0.0048368 -0.820069 -0.572245
    outer loop
      vertex 541.852 -82.2815 -47.6694
      vertex 540 -78.3338 -53.3424
      vertex 541.852 -72.7822 -61.2826
    endloop
  endfacet
  facet normal 0.0091827 -0.708493 -0.705658
    outer loop
      vertex 540 -61.0715 -73.0579
      vertex 541.852 -61.0715 -73.0338
      vertex 540 -67.9156 -66.1863
    endloop
  endfacet
  facet normal 0.0076989 -0.70831 -0.705859
    outer loop
      vertex 540 -67.9156 -66.1863
      vertex 541.852 -72.7822 -61.2826
      vertex 540 -72.7822 -61.3028
    endloop
  endfacet
  facet normal 0.00772543 -0.708305 -0.705864
    outer loop
      vertex 541.852 -72.7822 -61.2826
      vertex 540 -67.9156 -66.1863
      vertex 541.852 -61.0715 -73.0338
    endloop
  endfacet
  facet normal 0.0120581 -0.57508 -0.818008
    outer loop
      vertex 540 -47.5052 -82.5931
      vertex 541.852 -47.5052 -82.5658
      vertex 540 -55.4338 -77.0191
    endloop
  endfacet
  facet normal 0.0106469 -0.574871 -0.818174
    outer loop
      vertex 540 -55.4338 -77.0191
      vertex 541.852 -61.0715 -73.0338
      vertex 540 -61.0715 -73.0579
    endloop
  endfacet
  facet normal 0.0106557 -0.574869 -0.818176
    outer loop
      vertex 541.852 -61.0715 -73.0338
      vertex 540 -55.4338 -77.0191
      vertex 541.852 -47.5052 -82.5658
    endloop
  endfacet
  facet normal 0.0144733 -0.423973 -0.905559
    outer loop
      vertex 540 -32.4955 -89.6188
      vertex 541.852 -32.4955 -89.5892
      vertex 540 -41.2676 -85.5118
    endloop
  endfacet
  facet normal 0.0133503 -0.42378 -0.905667
    outer loop
      vertex 540 -41.2676 -85.5118
      vertex 541.852 -47.5052 -82.5658
      vertex 540 -47.5052 -82.5931
    endloop
  endfacet
  facet normal 0.0133389 -0.423783 -0.905666
    outer loop
      vertex 541.852 -47.5052 -82.5658
      vertex 540 -41.2676 -85.5118
      vertex 541.852 -32.4955 -89.5892
    endloop
  endfacet
  facet normal 0.0161618 -0.25976 -0.965538
    outer loop
      vertex 540 -16.4984 -93.9214
      vertex 541.852 -16.4984 -93.8904
      vertex 540 -25.8475 -91.4062
    endloop
  endfacet
  facet normal 0.0154328 -0.259611 -0.96559
    outer loop
      vertex 540 -25.8475 -91.4062
      vertex 541.852 -32.4955 -89.5892
      vertex 540 -32.4955 -89.6188
    endloop
  endfacet
  facet normal 0.0153949 -0.259621 -0.965588
    outer loop
      vertex 541.852 -32.4955 -89.5892
      vertex 540 -25.8475 -91.4062
      vertex 541.852 -16.4984 -93.8904
    endloop
  endfacet
  facet normal 0.016941 -0.0874941 -0.996021
    outer loop
      vertex 540 0 -95.3703
      vertex 541.852 0 -95.3388
      vertex 540 -9.64213 -94.5233
    endloop
  endfacet
  facet normal 0.0166722 -0.0874398 -0.99603
    outer loop
      vertex 540 -9.64213 -94.5233
      vertex 541.852 -16.4984 -93.8904
      vertex 540 -16.4984 -93.9214
    endloop
  endfacet
  facet normal 0.0166646 -0.0874418 -0.99603
    outer loop
      vertex 541.852 -16.4984 -93.8904
      vertex 540 -9.64213 -94.5233
      vertex 541.852 0 -95.3388
    endloop
  endfacet
  facet normal 0.016928 0.0870481 -0.99606
    outer loop
      vertex 541.852 0 -95.3388
      vertex 545 0.104128 -95.2762
      vertex 545 0 -95.2853
    endloop
  endfacet
  facet normal 0.0169143 0.0874415 -0.996026
    outer loop
      vertex 545 0.104128 -95.2762
      vertex 541.852 0 -95.3388
      vertex 541.852 16.4984 -93.8904
    endloop
  endfacet
  facet normal 0.0166744 0.0873961 -0.996034
    outer loop
      vertex 545 16.4984 -93.8377
      vertex 545 0.104128 -95.2762
      vertex 541.852 16.4984 -93.8904
    endloop
  endfacet
  facet normal 0.0161668 0.259116 -0.965711
    outer loop
      vertex 541.852 16.4984 -93.8904
      vertex 545 16.5994 -93.8106
      vertex 545 16.4984 -93.8377
    endloop
  endfacet
  facet normal 0.0161473 0.259618 -0.965576
    outer loop
      vertex 545 16.5994 -93.8106
      vertex 541.852 16.4984 -93.8904
      vertex 541.852 32.4955 -89.5892
    endloop
  endfacet
  facet normal 0.0154291 0.259488 -0.965623
    outer loop
      vertex 545 32.4955 -89.5389
      vertex 545 16.5994 -93.8106
      vertex 541.852 32.4955 -89.5892
    endloop
  endfacet
  facet normal 0.0144716 0.423679 -0.905697
    outer loop
      vertex 541.852 32.4955 -89.5892
      vertex 545 32.5902 -89.4946
      vertex 545 32.4955 -89.5389
    endloop
  endfacet
  facet normal 0.0144673 0.423776 -0.905651
    outer loop
      vertex 545 32.5902 -89.4946
      vertex 541.852 32.4955 -89.5892
      vertex 541.852 47.5052 -82.5658
    endloop
  endfacet
  facet normal 0.0133217 0.423584 -0.905759
    outer loop
      vertex 545 47.5052 -82.5195
      vertex 545 32.5902 -89.4946
      vertex 541.852 47.5052 -82.5658
    endloop
  endfacet
  facet normal 0.0120363 0.574575 -0.818363
    outer loop
      vertex 541.852 47.5052 -82.5658
      vertex 545 47.5908 -82.4594
      vertex 545 47.5052 -82.5195
    endloop
  endfacet
  facet normal 0.0120218 0.574861 -0.818163
    outer loop
      vertex 545 47.5908 -82.4594
      vertex 541.852 47.5052 -82.5658
      vertex 541.852 61.0715 -73.0338
    endloop
  endfacet
  facet normal 0.010658 0.574656 -0.818326
    outer loop
      vertex 545 61.0715 -72.9928
      vertex 545 47.5908 -82.4594
      vertex 541.852 61.0715 -73.0338
    endloop
  endfacet
  facet normal 0.00919663 0.70803 -0.706122
    outer loop
      vertex 541.852 61.0715 -73.0338
      vertex 545 61.1455 -72.9186
      vertex 545 61.0715 -72.9928
    endloop
  endfacet
  facet normal 0.00918062 0.708296 -0.705855
    outer loop
      vertex 545 61.1455 -72.9186
      vertex 541.852 61.0715 -73.0338
      vertex 541.852 72.7822 -61.2826
    endloop
  endfacet
  facet normal 0.00771555 0.708107 -0.706063
    outer loop
      vertex 545 72.7822 -61.2482
      vertex 545 61.1455 -72.9186
      vertex 541.852 72.7822 -61.2826
    endloop
  endfacet
  facet normal 0.00625733 0.819798 -0.572618
    outer loop
      vertex 541.852 72.7822 -61.2826
      vertex 545 72.8422 -61.1623
      vertex 545 72.7822 -61.2482
    endloop
  endfacet
  facet normal 0.00623785 0.820062 -0.57224
    outer loop
      vertex 545 72.8422 -61.1623
      vertex 541.852 72.7822 -61.2826
      vertex 541.852 82.2815 -47.6694
    endloop
  endfacet
  facet normal 0.00485537 0.819917 -0.572461
    outer loop
      vertex 545 82.2815 -47.6427
      vertex 545 72.8422 -61.1623
      vertex 541.852 82.2815 -47.6694
    endloop
  endfacet
  facet normal 0.0035681 0.907198 -0.420688
    outer loop
      vertex 541.852 82.2815 -47.6694
      vertex 545 82.3256 -47.5476
      vertex 545 82.2815 -47.6427
    endloop
  endfacet
  facet normal 0.00360101 0.90686 -0.421416
    outer loop
      vertex 545 82.3256 -47.5476
      vertex 541.852 82.2815 -47.6694
      vertex 541.852 89.2806 -32.6078
    endloop
  endfacet
  facet normal 0.00245095 0.906771 -0.421617
    outer loop
      vertex 545 89.2806 -32.5895
      vertex 545 82.3256 -47.5476
      vertex 541.852 89.2806 -32.6078
    endloop
  endfacet
  facet normal 0.00150233 0.966028 -0.258434
    outer loop
      vertex 541.852 89.2806 -32.6078
      vertex 545 89.3077 -32.4882
      vertex 545 89.2806 -32.5895
    endloop
  endfacet
  facet normal 0.00148429 0.966148 -0.257986
    outer loop
      vertex 545 89.3077 -32.4882
      vertex 541.852 89.2806 -32.6078
      vertex 541.852 93.567 -16.5554
    endloop
  endfacet
  facet normal 0.000762551 0.966113 -0.258119
    outer loop
      vertex 545 93.567 -16.5461
      vertex 545 89.3077 -32.4882
      vertex 541.852 93.567 -16.5554
    endloop
  endfacet
  facet normal 0.000256291 0.99623 -0.086753
    outer loop
      vertex 541.852 93.567 -16.5554
      vertex 545 93.5761 -16.4416
      vertex 545 93.567 -16.5461
    endloop
  endfacet
  facet normal 0.000260277 0.99622 -0.0868625
    outer loop
      vertex 545 93.5761 -16.4416
      vertex 541.852 93.567 -16.5554
      vertex 541.852 95.0105 0
    endloop
  endfacet
  facet normal 0 0.996216 -0.086912
    outer loop
      vertex 545 95.0105 0
      vertex 545 93.5761 -16.4416
      vertex 541.852 95.0105 0
    endloop
  endfacet
  facet normal 0.000260277 -0.99622 -0.0868625
    outer loop
      vertex 541.852 -93.567 -16.5554
      vertex 545 -93.5761 -16.4416
      vertex 541.852 -95.0105 0
    endloop
  endfacet
  facet normal 0.000256291 -0.99623 -0.086753
    outer loop
      vertex 545 -93.5761 -16.4416
      vertex 541.852 -93.567 -16.5554
      vertex 545 -93.567 -16.5461
    endloop
  endfacet
  facet normal 0 -0.996216 -0.086912
    outer loop
      vertex 545 -93.5761 -16.4416
      vertex 545 -95.0105 0
      vertex 541.852 -95.0105 0
    endloop
  endfacet
  facet normal 0.00148429 -0.966148 -0.257986
    outer loop
      vertex 541.852 -89.2806 -32.6078
      vertex 545 -89.3077 -32.4882
      vertex 541.852 -93.567 -16.5554
    endloop
  endfacet
  facet normal 0.00150233 -0.966028 -0.258434
    outer loop
      vertex 545 -89.3077 -32.4882
      vertex 541.852 -89.2806 -32.6078
      vertex 545 -89.2806 -32.5895
    endloop
  endfacet
  facet normal 0.000762551 -0.966113 -0.258119
    outer loop
      vertex 545 -89.3077 -32.4882
      vertex 545 -93.567 -16.5461
      vertex 541.852 -93.567 -16.5554
    endloop
  endfacet
  facet normal 0.00360101 -0.90686 -0.421416
    outer loop
      vertex 541.852 -82.2815 -47.6694
      vertex 545 -82.3256 -47.5476
      vertex 541.852 -89.2806 -32.6078
    endloop
  endfacet
  facet normal 0.0035681 -0.907198 -0.420688
    outer loop
      vertex 545 -82.3256 -47.5476
      vertex 541.852 -82.2815 -47.6694
      vertex 545 -82.2815 -47.6427
    endloop
  endfacet
  facet normal 0.00245095 -0.906771 -0.421617
    outer loop
      vertex 545 -82.3256 -47.5476
      vertex 545 -89.2806 -32.5895
      vertex 541.852 -89.2806 -32.6078
    endloop
  endfacet
  facet normal 0.00623785 -0.820062 -0.57224
    outer loop
      vertex 541.852 -72.7822 -61.2826
      vertex 545 -72.8422 -61.1623
      vertex 541.852 -82.2815 -47.6694
    endloop
  endfacet
  facet normal 0.00625733 -0.819798 -0.572618
    outer loop
      vertex 545 -72.8422 -61.1623
      vertex 541.852 -72.7822 -61.2826
      vertex 545 -72.7822 -61.2482
    endloop
  endfacet
  facet normal 0.00485537 -0.819917 -0.572461
    outer loop
      vertex 545 -72.8422 -61.1623
      vertex 545 -82.2815 -47.6427
      vertex 541.852 -82.2815 -47.6694
    endloop
  endfacet
  facet normal 0.00918062 -0.708296 -0.705855
    outer loop
      vertex 541.852 -61.0715 -73.0338
      vertex 545 -61.1455 -72.9186
      vertex 541.852 -72.7822 -61.2826
    endloop
  endfacet
  facet normal 0.00919663 -0.70803 -0.706122
    outer loop
      vertex 545 -61.1455 -72.9186
      vertex 541.852 -61.0715 -73.0338
      vertex 545 -61.0715 -72.9928
    endloop
  endfacet
  facet normal 0.00771555 -0.708107 -0.706063
    outer loop
      vertex 545 -61.1455 -72.9186
      vertex 545 -72.7822 -61.2482
      vertex 541.852 -72.7822 -61.2826
    endloop
  endfacet
  facet normal 0.0120218 -0.574861 -0.818163
    outer loop
      vertex 541.852 -47.5052 -82.5658
      vertex 545 -47.5908 -82.4594
      vertex 541.852 -61.0715 -73.0338
    endloop
  endfacet
  facet normal 0.0120363 -0.574575 -0.818363
    outer loop
      vertex 545 -47.5908 -82.4594
      vertex 541.852 -47.5052 -82.5658
      vertex 545 -47.5052 -82.5195
    endloop
  endfacet
  facet normal 0.010658 -0.574656 -0.818326
    outer loop
      vertex 545 -47.5908 -82.4594
      vertex 545 -61.0715 -72.9928
      vertex 541.852 -61.0715 -73.0338
    endloop
  endfacet
  facet normal 0.0144673 -0.423776 -0.905651
    outer loop
      vertex 541.852 -32.4955 -89.5892
      vertex 545 -32.5902 -89.4946
      vertex 541.852 -47.5052 -82.5658
    endloop
  endfacet
  facet normal 0.0144716 -0.423679 -0.905697
    outer loop
      vertex 545 -32.5902 -89.4946
      vertex 541.852 -32.4955 -89.5892
      vertex 545 -32.4955 -89.5389
    endloop
  endfacet
  facet normal 0.0133217 -0.423584 -0.905759
    outer loop
      vertex 545 -32.5902 -89.4946
      vertex 545 -47.5052 -82.5195
      vertex 541.852 -47.5052 -82.5658
    endloop
  endfacet
  facet normal 0.0161473 -0.259618 -0.965576
    outer loop
      vertex 541.852 -16.4984 -93.8904
      vertex 545 -16.5994 -93.8106
      vertex 541.852 -32.4955 -89.5892
    endloop
  endfacet
  facet normal 0.0161668 -0.259116 -0.965711
    outer loop
      vertex 545 -16.5994 -93.8106
      vertex 541.852 -16.4984 -93.8904
      vertex 545 -16.4984 -93.8377
    endloop
  endfacet
  facet normal 0.0154291 -0.259488 -0.965623
    outer loop
      vertex 545 -16.5994 -93.8106
      vertex 545 -32.4955 -89.5389
      vertex 541.852 -32.4955 -89.5892
    endloop
  endfacet
  facet normal 0.0169143 -0.0874415 -0.996026
    outer loop
      vertex 541.852 0 -95.3388
      vertex 545 -0.104128 -95.2762
      vertex 541.852 -16.4984 -93.8904
    endloop
  endfacet
  facet normal 0.016928 -0.0870481 -0.99606
    outer loop
      vertex 545 -0.104128 -95.2762
      vertex 541.852 0 -95.3388
      vertex 545 0 -95.2853
    endloop
  endfacet
  facet normal 0.0166744 -0.0873961 -0.996034
    outer loop
      vertex 545 -0.104128 -95.2762
      vertex 545 -16.4984 -93.8377
      vertex 541.852 -16.4984 -93.8904
    endloop
  endfacet
  facet normal 0 0 1
    outer loop
      vertex 545 95.0105 0
      vertex 543.181 89.9662 0
      vertex 545 89.9662 0
    endloop
  endfacet
  facet normal -0 0 1
    outer loop
      vertex 541.852 95.0105 0
      vertex 543.181 89.9662 0
      vertex 545 95.0105 0
    endloop
  endfacet
  facet normal 0 0 1
    outer loop
      vertex 543.181 89.9662 0
      vertex 541.852 95.0105 0
      vertex 543.162 89.9662 0
    endloop
  endfacet
  facet normal 0 0 1
    outer loop
      vertex 541.852 95.0105 0
      vertex 540.118 89.9662 0
      vertex 543.162 89.9662 0
    endloop
  endfacet
  facet normal -0 0 1
    outer loop
      vertex 540 95.0105 0
      vertex 540.118 89.9662 0
      vertex 541.852 95.0105 0
    endloop
  endfacet
  facet normal 0 0 1
    outer loop
      vertex 540.118 89.9662 0
      vertex 540 95.0105 0
      vertex 540.098 89.9662 0
    endloop
  endfacet
  facet normal 0 0 1
    outer loop
      vertex 540.098 89.9662 0
      vertex 540 95.0105 0
      vertex 540 89.9662 0
    endloop
  endfacet
  facet normal -0 0 1
    outer loop
      vertex 543.181 -89.9662 0
      vertex 545 -95.0105 0
      vertex 545 -89.9662 0
    endloop
  endfacet
  facet normal 0 0 1
    outer loop
      vertex 541.852 -95.0105 0
      vertex 543.181 -89.9662 0
      vertex 543.162 -89.9662 0
    endloop
  endfacet
  facet normal 0 0 1
    outer loop
      vertex 543.181 -89.9662 0
      vertex 541.852 -95.0105 0
      vertex 545 -95.0105 0
    endloop
  endfacet
  facet normal -0 0 1
    outer loop
      vertex 540.118 -89.9662 0
      vertex 541.852 -95.0105 0
      vertex 543.162 -89.9662 0
    endloop
  endfacet
  facet normal 0 0 1
    outer loop
      vertex 540 -95.0105 0
      vertex 540.118 -89.9662 0
      vertex 540.098 -89.9662 0
    endloop
  endfacet
  facet normal 0 0 1
    outer loop
      vertex 540 -95.0105 0
      vertex 540.098 -89.9662 0
      vertex 540 -89.9662 0
    endloop
  endfacet
  facet normal 0 0 1
    outer loop
      vertex 540.118 -89.9662 0
      vertex 540 -95.0105 0
      vertex 541.852 -95.0105 0
    endloop
  endfacet
  facet normal -0.0162619 -0.0873939 0.996041
    outer loop
      vertex 540 0.500335 -90.0416
      vertex 540 0 -90.0855
      vertex 540.098 0 -90.0839
    endloop
  endfacet
  facet normal -0.016262 -0.0873436 0.996046
    outer loop
      vertex 540 0.500335 -90.0416
      vertex 540.098 15.624 -88.7138
      vertex 540 15.624 -88.7154
    endloop
  endfacet
  facet normal -0.0160118 -0.0873456 0.996049
    outer loop
      vertex 540.098 15.624 -88.7138
      vertex 540 0.500335 -90.0416
      vertex 540.098 0 -90.0839
    endloop
  endfacet
  facet normal -0.0157657 -0.259377 0.965647
    outer loop
      vertex 540 16.1091 -88.5851
      vertex 540 15.624 -88.7154
      vertex 540.098 15.624 -88.7138
    endloop
  endfacet
  facet normal -0.0147807 -0.259354 0.965669
    outer loop
      vertex 540 16.1091 -88.5851
      vertex 540.098 30.7732 -84.6452
      vertex 540 30.7732 -84.6467
    endloop
  endfacet
  facet normal -0.0155949 -0.259346 0.965659
    outer loop
      vertex 540.098 30.7732 -84.6452
      vertex 540 16.1091 -88.5851
      vertex 540.098 15.624 -88.7138
    endloop
  endfacet
  facet normal -0.0138633 -0.423618 0.905735
    outer loop
      vertex 540 31.2284 -84.4338
      vertex 540 30.7732 -84.6467
      vertex 540.098 30.7732 -84.6452
    endloop
  endfacet
  facet normal -0.0129408 -0.423387 0.905856
    outer loop
      vertex 540 31.2284 -84.4338
      vertex 540.098 44.9874 -78.0016
      vertex 540 44.9874 -78.003
    endloop
  endfacet
  facet normal -0.0125409 -0.423392 0.90586
    outer loop
      vertex 540.098 44.9874 -78.0016
      vertex 540 31.2284 -84.4338
      vertex 540.098 30.7732 -84.6452
    endloop
  endfacet
  facet normal -0.0116912 -0.574557 0.818381
    outer loop
      vertex 540 45.3989 -77.7141
      vertex 540 44.9874 -78.003
      vertex 540.098 44.9874 -78.0016
    endloop
  endfacet
  facet normal -0.0100222 -0.574446 0.818481
    outer loop
      vertex 540 45.3989 -77.7141
      vertex 540.098 57.8347 -68.9849
      vertex 540 57.8347 -68.9861
    endloop
  endfacet
  facet normal -0.010904 -0.574436 0.818477
    outer loop
      vertex 540.098 57.8347 -68.9849
      vertex 540 45.3989 -77.7141
      vertex 540.098 44.9874 -78.0016
    endloop
  endfacet
  facet normal -0.00864716 -0.707974 0.706185
    outer loop
      vertex 540 58.1899 -68.63
      vertex 540 57.8347 -68.9861
      vertex 540.098 57.8347 -68.9849
    endloop
  endfacet
  facet normal -0.00792746 -0.707903 0.706265
    outer loop
      vertex 540 58.1899 -68.63
      vertex 540.098 68.9248 -57.8691
      vertex 540 68.9248 -57.8702
    endloop
  endfacet
  facet normal -0.00809418 -0.707901 0.706265
    outer loop
      vertex 540.098 68.9248 -57.8691
      vertex 540 58.1899 -68.63
      vertex 540.098 57.8347 -68.9849
    endloop
  endfacet
  facet normal -0.00642336 -0.820045 0.572263
    outer loop
      vertex 540 69.2128 -57.4575
      vertex 540 68.9248 -57.8702
      vertex 540.098 68.9248 -57.8691
    endloop
  endfacet
  facet normal -0.00467493 -0.819766 0.572679
    outer loop
      vertex 540 69.2128 -57.4575
      vertex 540.098 77.9205 -44.992
      vertex 540 77.9205 -44.9928
    endloop
  endfacet
  facet normal -0.00388118 -0.819772 0.572677
    outer loop
      vertex 540.098 77.9205 -44.992
      vertex 540 69.2128 -57.4575
      vertex 540.098 68.9248 -57.8691
    endloop
  endfacet
  facet normal -0.00344234 -0.906735 0.421686
    outer loop
      vertex 540 78.1328 -44.5363
      vertex 540 77.9205 -44.9928
      vertex 540.098 77.9205 -44.992
    endloop
  endfacet
  facet normal -0.00277555 -0.90668 0.42181
    outer loop
      vertex 540 78.1328 -44.5363
      vertex 540.098 80.2429 -40
      vertex 540 80.2432 -40
    endloop
  endfacet
  facet normal -0.0027502 -0.90668 0.42181
    outer loop
      vertex 540.098 80.2429 -40
      vertex 540 78.1328 -44.5363
      vertex 540.098 77.9205 -44.992
    endloop
  endfacet
  facet normal -0.000790597 -0.966075 0.258262
    outer loop
      vertex 540 84.7479 -30
      vertex 540.098 88.608 -15.5603
      vertex 540 88.608 -15.5606
    endloop
  endfacet
  facet normal -0.00098579 -0.966074 0.258263
    outer loop
      vertex 540.098 88.608 -15.5603
      vertex 540 84.7479 -30
      vertex 540.098 84.7478 -30
    endloop
  endfacet
  facet normal -0.000265586 -0.996229 0.0867581
    outer loop
      vertex 540 88.6517 -15.0588
      vertex 540 88.608 -15.5606
      vertex 540.098 88.608 -15.5603
    endloop
  endfacet
  facet normal 0 -0.996212 0.0869605
    outer loop
      vertex 540 88.6517 -15.0588
      vertex 540.098 89.9662 0
      vertex 540 89.9662 0
    endloop
  endfacet
  facet normal 0.000752717 -0.996212 0.0869556
    outer loop
      vertex 540.098 89.9662 0
      vertex 540 88.6517 -15.0588
      vertex 540.098 88.608 -15.5603
    endloop
  endfacet
  facet normal -0.000265586 0.996229 0.0867581
    outer loop
      vertex 540 -88.608 -15.5606
      vertex 540 -88.6517 -15.0588
      vertex 540.098 -88.608 -15.5603
    endloop
  endfacet
  facet normal 0 0.996212 0.0869605
    outer loop
      vertex 540.098 -89.9662 0
      vertex 540 -88.6517 -15.0588
      vertex 540 -89.9662 0
    endloop
  endfacet
  facet normal 0.000752717 0.996212 0.0869556
    outer loop
      vertex 540 -88.6517 -15.0588
      vertex 540.098 -89.9662 0
      vertex 540.098 -88.608 -15.5603
    endloop
  endfacet
  facet normal -0.000790601 0.966074 0.258263
    outer loop
      vertex 540.098 -84.7478 -30
      vertex 540 -88.608 -15.5606
      vertex 540.098 -88.608 -15.5603
    endloop
  endfacet
  facet normal -0.00098579 0.966074 0.258262
    outer loop
      vertex 540 -88.608 -15.5606
      vertex 540.098 -84.7478 -30
      vertex 540 -84.7479 -30
    endloop
  endfacet
  facet normal -0.00344234 0.906735 0.421686
    outer loop
      vertex 540 -77.9205 -44.9928
      vertex 540 -78.1328 -44.5363
      vertex 540.098 -77.9205 -44.992
    endloop
  endfacet
  facet normal -0.00277555 0.90668 0.42181
    outer loop
      vertex 540.098 -80.2429 -40
      vertex 540 -78.1328 -44.5363
      vertex 540 -80.2432 -40
    endloop
  endfacet
  facet normal -0.0027502 0.90668 0.42181
    outer loop
      vertex 540 -78.1328 -44.5363
      vertex 540.098 -80.2429 -40
      vertex 540.098 -77.9205 -44.992
    endloop
  endfacet
  facet normal -0.00642336 0.820045 0.572263
    outer loop
      vertex 540 -68.9248 -57.8702
      vertex 540 -69.2128 -57.4575
      vertex 540.098 -68.9248 -57.8691
    endloop
  endfacet
  facet normal -0.00467493 0.819766 0.572679
    outer loop
      vertex 540.098 -77.9205 -44.992
      vertex 540 -69.2128 -57.4575
      vertex 540 -77.9205 -44.9928
    endloop
  endfacet
  facet normal -0.00388118 0.819772 0.572677
    outer loop
      vertex 540 -69.2128 -57.4575
      vertex 540.098 -77.9205 -44.992
      vertex 540.098 -68.9248 -57.8691
    endloop
  endfacet
  facet normal -0.00864716 0.707974 0.706185
    outer loop
      vertex 540 -57.8347 -68.9861
      vertex 540 -58.1899 -68.63
      vertex 540.098 -57.8347 -68.9849
    endloop
  endfacet
  facet normal -0.00792746 0.707903 0.706265
    outer loop
      vertex 540.098 -68.9248 -57.8691
      vertex 540 -58.1899 -68.63
      vertex 540 -68.9248 -57.8702
    endloop
  endfacet
  facet normal -0.00809418 0.707901 0.706265
    outer loop
      vertex 540 -58.1899 -68.63
      vertex 540.098 -68.9248 -57.8691
      vertex 540.098 -57.8347 -68.9849
    endloop
  endfacet
  facet normal -0.0116912 0.574557 0.818381
    outer loop
      vertex 540 -44.9874 -78.003
      vertex 540 -45.3989 -77.7141
      vertex 540.098 -44.9874 -78.0016
    endloop
  endfacet
  facet normal -0.010904 0.574436 0.818477
    outer loop
      vertex 540 -45.3989 -77.7141
      vertex 540.098 -57.8347 -68.9849
      vertex 540.098 -44.9874 -78.0016
    endloop
  endfacet
  facet normal -0.0100222 0.574446 0.818481
    outer loop
      vertex 540.098 -57.8347 -68.9849
      vertex 540 -45.3989 -77.7141
      vertex 540 -57.8347 -68.9861
    endloop
  endfacet
  facet normal -0.0138633 0.423618 0.905735
    outer loop
      vertex 540 -30.7732 -84.6467
      vertex 540 -31.2284 -84.4338
      vertex 540.098 -30.7732 -84.6452
    endloop
  endfacet
  facet normal -0.0125409 0.423392 0.90586
    outer loop
      vertex 540 -31.2284 -84.4338
      vertex 540.098 -44.9874 -78.0016
      vertex 540.098 -30.7732 -84.6452
    endloop
  endfacet
  facet normal -0.0129408 0.423387 0.905856
    outer loop
      vertex 540.098 -44.9874 -78.0016
      vertex 540 -31.2284 -84.4338
      vertex 540 -44.9874 -78.003
    endloop
  endfacet
  facet normal -0.0157657 0.259377 0.965647
    outer loop
      vertex 540 -15.624 -88.7154
      vertex 540 -16.1091 -88.5851
      vertex 540.098 -15.624 -88.7138
    endloop
  endfacet
  facet normal -0.0155949 0.259346 0.965659
    outer loop
      vertex 540 -16.1091 -88.5851
      vertex 540.098 -30.7732 -84.6452
      vertex 540.098 -15.624 -88.7138
    endloop
  endfacet
  facet normal -0.0147807 0.259354 0.965669
    outer loop
      vertex 540.098 -30.7732 -84.6452
      vertex 540 -16.1091 -88.5851
      vertex 540 -30.7732 -84.6467
    endloop
  endfacet
  facet normal -0.0162619 0.0873939 0.996041
    outer loop
      vertex 540 0 -90.0855
      vertex 540 -0.500335 -90.0416
      vertex 540.098 0 -90.0839
    endloop
  endfacet
  facet normal -0.0160118 0.0873456 0.996049
    outer loop
      vertex 540 -0.500335 -90.0416
      vertex 540.098 -15.624 -88.7138
      vertex 540.098 0 -90.0839
    endloop
  endfacet
  facet normal -0.016262 0.0873436 0.996046
    outer loop
      vertex 540.098 -15.624 -88.7138
      vertex 540 -0.500335 -90.0416
      vertex 540 -15.624 -88.7154
    endloop
  endfacet
  facet normal -0.016579 -0.0873448 0.99604
    outer loop
      vertex 540.098 15.624 -88.7138
      vertex 540.098 0 -90.0839
      vertex 543.162 0 -90.0329
    endloop
  endfacet
  facet normal -0.0163191 -0.0872945 0.996049
    outer loop
      vertex 543.162 15.624 -88.6636
      vertex 540.098 15.624 -88.7138
      vertex 543.162 0 -90.0329
    endloop
  endfacet
  facet normal -0.0158211 -0.259345 0.965655
    outer loop
      vertex 540.098 30.7732 -84.6452
      vertex 540.098 15.624 -88.7138
      vertex 543.162 15.624 -88.6636
    endloop
  endfacet
  facet normal -0.015097 -0.259211 0.965703
    outer loop
      vertex 543.162 30.7732 -84.5973
      vertex 540.098 30.7732 -84.6452
      vertex 543.162 15.624 -88.6636
    endloop
  endfacet
  facet normal -0.0141611 -0.423382 0.90584
    outer loop
      vertex 540.098 44.9874 -78.0016
      vertex 540.098 30.7732 -84.6452
      vertex 543.162 30.7732 -84.5973
    endloop
  endfacet
  facet normal -0.0130688 -0.423195 0.905944
    outer loop
      vertex 543.162 44.9874 -77.9574
      vertex 540.098 44.9874 -78.0016
      vertex 543.162 30.7732 -84.5973
    endloop
  endfacet
  facet normal -0.0118069 -0.574431 0.818468
    outer loop
      vertex 540.098 57.8347 -68.9849
      vertex 540.098 44.9874 -78.0016
      vertex 543.162 44.9874 -77.9574
    endloop
  endfacet
  facet normal -0.0104467 -0.574222 0.818633
    outer loop
      vertex 543.162 57.8347 -68.9458
      vertex 540.098 57.8347 -68.9849
      vertex 543.162 44.9874 -77.9574
    endloop
  endfacet
  facet normal -0.00901264 -0.707896 0.706259
    outer loop
      vertex 540.098 68.9248 -57.8691
      vertex 540.098 57.8347 -68.9849
      vertex 543.162 57.8347 -68.9458
    endloop
  endfacet
  facet normal -0.00756272 -0.707704 0.706468
    outer loop
      vertex 543.162 68.9248 -57.8363
      vertex 540.098 68.9248 -57.8691
      vertex 543.162 57.8347 -68.9458
    endloop
  endfacet
  facet normal -0.00613042 -0.819763 0.572671
    outer loop
      vertex 540.098 77.9205 -44.992
      vertex 540.098 68.9248 -57.8691
      vertex 543.162 68.9248 -57.8363
    endloop
  endfacet
  facet normal -0.00476788 -0.819616 0.572893
    outer loop
      vertex 543.162 77.9205 -44.9665
      vertex 540.098 77.9205 -44.992
      vertex 543.162 68.9248 -57.8363
    endloop
  endfacet
  facet normal -0.00350121 -0.906678 0.421809
    outer loop
      vertex 540.098 77.9205 -44.992
      vertex 542.092 80.2352 -40
      vertex 540.098 80.2429 -40
    endloop
  endfacet
  facet normal -0.00351051 -0.906677 0.421812
    outer loop
      vertex 542.092 80.2352 -40
      vertex 540.098 77.9205 -44.992
      vertex 543.162 77.9205 -44.9665
    endloop
  endfacet
  facet normal -0.00237237 -0.906586 0.422015
    outer loop
      vertex 543.162 80.2324 -40
      vertex 542.092 80.2352 -40
      vertex 543.162 77.9205 -44.9665
    endloop
  endfacet
  facet normal -0.00145722 -0.966074 0.258263
    outer loop
      vertex 540.098 88.608 -15.5603
      vertex 540.098 84.7478 -30
      vertex 543.015 84.7434 -30
    endloop
  endfacet
  facet normal -0.000750563 -0.966039 0.258396
    outer loop
      vertex 543.015 84.7434 -30
      vertex 543.162 88.608 -15.5514
      vertex 540.098 88.608 -15.5603
    endloop
  endfacet
  facet normal -0.000657169 -0.966039 0.258395
    outer loop
      vertex 543.162 88.608 -15.5514
      vertex 543.015 84.7434 -30
      vertex 543.162 84.7433 -30
    endloop
  endfacet
  facet normal 0 -0.996212 0.0869556
    outer loop
      vertex 540.098 88.608 -15.5603
      vertex 540.118 89.9662 0
      vertex 540.098 89.9662 0
    endloop
  endfacet
  facet normal -0.000252581 -0.996212 0.0869559
    outer loop
      vertex 540.118 89.9662 0
      vertex 540.098 88.608 -15.5603
      vertex 543.162 88.608 -15.5514
    endloop
  endfacet
  facet normal 0 -0.996208 0.087005
    outer loop
      vertex 543.162 89.9662 0
      vertex 540.118 89.9662 0
      vertex 543.162 88.608 -15.5514
    endloop
  endfacet
  facet normal -0.000252581 0.996212 0.0869559
    outer loop
      vertex 540.098 -88.608 -15.5603
      vertex 540.118 -89.9662 0
      vertex 543.162 -88.608 -15.5514
    endloop
  endfacet
  facet normal 0 0.996212 0.0869556
    outer loop
      vertex 540.118 -89.9662 0
      vertex 540.098 -88.608 -15.5603
      vertex 540.098 -89.9662 0
    endloop
  endfacet
  facet normal 0 0.996208 0.087005
    outer loop
      vertex 543.162 -88.608 -15.5514
      vertex 540.118 -89.9662 0
      vertex 543.162 -89.9662 0
    endloop
  endfacet
  facet normal -0.00145722 0.966074 0.258263
    outer loop
      vertex 540.098 -84.7478 -30
      vertex 540.098 -88.608 -15.5603
      vertex 543.015 -84.7434 -30
    endloop
  endfacet
  facet normal -0.000657169 0.966039 0.258395
    outer loop
      vertex 543.015 -84.7434 -30
      vertex 543.162 -88.608 -15.5514
      vertex 543.162 -84.7433 -30
    endloop
  endfacet
  facet normal -0.000750563 0.966039 0.258396
    outer loop
      vertex 543.162 -88.608 -15.5514
      vertex 543.015 -84.7434 -30
      vertex 540.098 -88.608 -15.5603
    endloop
  endfacet
  facet normal -0.00351051 0.906677 0.421812
    outer loop
      vertex 540.098 -77.9205 -44.992
      vertex 542.092 -80.2352 -40
      vertex 543.162 -77.9205 -44.9665
    endloop
  endfacet
  facet normal -0.00350121 0.906678 0.421809
    outer loop
      vertex 542.092 -80.2352 -40
      vertex 540.098 -77.9205 -44.992
      vertex 540.098 -80.2429 -40
    endloop
  endfacet
  facet normal -0.00237237 0.906586 0.422015
    outer loop
      vertex 543.162 -77.9205 -44.9665
      vertex 542.092 -80.2352 -40
      vertex 543.162 -80.2324 -40
    endloop
  endfacet
  facet normal -0.00613042 0.819763 0.572671
    outer loop
      vertex 540.098 -68.9248 -57.8691
      vertex 540.098 -77.9205 -44.992
      vertex 543.162 -68.9248 -57.8363
    endloop
  endfacet
  facet normal -0.00476788 0.819616 0.572893
    outer loop
      vertex 543.162 -68.9248 -57.8363
      vertex 540.098 -77.9205 -44.992
      vertex 543.162 -77.9205 -44.9665
    endloop
  endfacet
  facet normal -0.00901264 0.707896 0.706259
    outer loop
      vertex 540.098 -57.8347 -68.9849
      vertex 540.098 -68.9248 -57.8691
      vertex 543.162 -57.8347 -68.9458
    endloop
  endfacet
  facet normal -0.00756272 0.707704 0.706468
    outer loop
      vertex 543.162 -57.8347 -68.9458
      vertex 540.098 -68.9248 -57.8691
      vertex 543.162 -68.9248 -57.8363
    endloop
  endfacet
  facet normal -0.0118069 0.574431 0.818468
    outer loop
      vertex 540.098 -44.9874 -78.0016
      vertex 540.098 -57.8347 -68.9849
      vertex 543.162 -44.9874 -77.9574
    endloop
  endfacet
  facet normal -0.0104467 0.574222 0.818633
    outer loop
      vertex 543.162 -44.9874 -77.9574
      vertex 540.098 -57.8347 -68.9849
      vertex 543.162 -57.8347 -68.9458
    endloop
  endfacet
  facet normal -0.0141611 0.423382 0.90584
    outer loop
      vertex 540.098 -30.7732 -84.6452
      vertex 540.098 -44.9874 -78.0016
      vertex 543.162 -30.7732 -84.5973
    endloop
  endfacet
  facet normal -0.0130688 0.423195 0.905944
    outer loop
      vertex 543.162 -30.7732 -84.5973
      vertex 540.098 -44.9874 -78.0016
      vertex 543.162 -44.9874 -77.9574
    endloop
  endfacet
  facet normal -0.0158211 0.259345 0.965655
    outer loop
      vertex 540.098 -15.624 -88.7138
      vertex 540.098 -30.7732 -84.6452
      vertex 543.162 -15.624 -88.6636
    endloop
  endfacet
  facet normal -0.015097 0.259211 0.965703
    outer loop
      vertex 543.162 -15.624 -88.6636
      vertex 540.098 -30.7732 -84.6452
      vertex 543.162 -30.7732 -84.5973
    endloop
  endfacet
  facet normal -0.016579 0.0873448 0.99604
    outer loop
      vertex 540.098 0 -90.0839
      vertex 540.098 -15.624 -88.7138
      vertex 543.162 0 -90.0329
    endloop
  endfacet
  facet normal -0.0163191 0.0872945 0.996049
    outer loop
      vertex 543.162 0 -90.0329
      vertex 540.098 -15.624 -88.7138
      vertex 543.162 -15.624 -88.6636
    endloop
  endfacet
  facet normal -0.0165876 -0.0872941 0.996044
    outer loop
      vertex 543.162 0 -90.0329
      vertex 545 6.25041 -89.4545
      vertex 543.162 15.624 -88.6636
    endloop
  endfacet
  facet normal -0.0165827 -0.0872956 0.996044
    outer loop
      vertex 545 6.25041 -89.4545
      vertex 543.162 0 -90.0329
      vertex 545 0 -90.0023
    endloop
  endfacet
  facet normal -0.0163119 -0.0872409 0.996054
    outer loop
      vertex 545 15.624 -88.6335
      vertex 543.162 15.624 -88.6636
      vertex 545 6.25041 -89.4545
    endloop
  endfacet
  facet normal -0.0158461 -0.259208 0.965692
    outer loop
      vertex 543.162 15.624 -88.6636
      vertex 545 21.6845 -87.0067
      vertex 543.162 30.7732 -84.5973
    endloop
  endfacet
  facet normal -0.0158146 -0.259217 0.96569
    outer loop
      vertex 545 21.6845 -87.0067
      vertex 543.162 15.624 -88.6636
      vertex 545 15.624 -88.6335
    endloop
  endfacet
  facet normal -0.0151324 -0.259076 0.965738
    outer loop
      vertex 545 30.7732 -84.5685
      vertex 543.162 30.7732 -84.5973
      vertex 545 21.6845 -87.0067
    endloop
  endfacet
  facet normal -0.014174 -0.423189 0.905931
    outer loop
      vertex 543.162 30.7732 -84.5973
      vertex 545 36.4597 -81.9122
      vertex 543.162 44.9874 -77.9574
    endloop
  endfacet
  facet normal -0.0141953 -0.423183 0.905933
    outer loop
      vertex 545 36.4597 -81.9122
      vertex 543.162 30.7732 -84.5973
      vertex 545 30.7732 -84.5685
    endloop
  endfacet
  facet normal -0.0130631 -0.422998 0.906036
    outer loop
      vertex 545 44.9874 -77.9309
      vertex 543.162 44.9874 -77.9574
      vertex 545 36.4597 -81.9122
    endloop
  endfacet
  facet normal -0.0117952 -0.574213 0.818621
    outer loop
      vertex 543.162 44.9874 -77.9574
      vertex 545 50.127 -74.3258
      vertex 543.162 57.8347 -68.9458
    endloop
  endfacet
  facet normal -0.0118028 -0.574211 0.818622
    outer loop
      vertex 545 50.127 -74.3258
      vertex 543.162 44.9874 -77.9574
      vertex 545 44.9874 -77.9309
    endloop
  endfacet
  facet normal -0.0104242 -0.574002 0.818787
    outer loop
      vertex 545 57.8347 -68.9224
      vertex 543.162 57.8347 -68.9458
      vertex 545 50.127 -74.3258
    endloop
  endfacet
  facet normal -0.0090091 -0.707696 0.70646
    outer loop
      vertex 543.162 57.8347 -68.9458
      vertex 545 62.2713 -64.478
      vertex 543.162 68.9248 -57.8363
    endloop
  endfacet
  facet normal -0.00899406 -0.707699 0.706457
    outer loop
      vertex 545 62.2713 -64.478
      vertex 543.162 57.8347 -68.9458
      vertex 545 57.8347 -68.9224
    endloop
  endfacet
  facet normal -0.00753579 -0.707501 0.706672
    outer loop
      vertex 545 68.9248 -57.8167
      vertex 543.162 68.9248 -57.8363
      vertex 545 62.2713 -64.478
    endloop
  endfacet
  facet normal -0.00608922 -0.81961 0.572889
    outer loop
      vertex 543.162 68.9248 -57.8363
      vertex 545 72.5236 -52.6681
      vertex 543.162 77.9205 -44.9665
    endloop
  endfacet
  facet normal -0.0061092 -0.819607 0.572894
    outer loop
      vertex 545 72.5236 -52.6681
      vertex 543.162 68.9248 -57.8363
      vertex 545 68.9248 -57.8167
    endloop
  endfacet
  facet normal -0.00477067 -0.819468 0.573104
    outer loop
      vertex 545 77.9205 -44.9512
      vertex 543.162 77.9205 -44.9665
      vertex 545 72.5236 -52.6681
    endloop
  endfacet
  facet normal -0.00350203 -0.906581 0.422017
    outer loop
      vertex 543.162 80.2324 -40
      vertex 545 77.9205 -44.9512
      vertex 545 80.2253 -40
    endloop
  endfacet
  facet normal -0.00351295 -0.906583 0.422013
    outer loop
      vertex 545 77.9205 -44.9512
      vertex 543.162 80.2324 -40
      vertex 543.162 77.9205 -44.9665
    endloop
  endfacet
  facet normal -0.00145268 -0.966038 0.258395
    outer loop
      vertex 543.162 84.7433 -30
      vertex 545 86.1727 -24.6457
      vertex 543.162 88.608 -15.5514
    endloop
  endfacet
  facet normal -0.00147166 -0.966037 0.258401
    outer loop
      vertex 545 86.1727 -24.6457
      vertex 543.162 84.7433 -30
      vertex 545 84.7405 -30
    endloop
  endfacet
  facet normal -0.000745485 -0.966003 0.258529
    outer loop
      vertex 545 88.608 -15.5461
      vertex 543.162 88.608 -15.5514
      vertex 545 86.1727 -24.6457
    endloop
  endfacet
  facet normal 0 -0.996203 0.0870591
    outer loop
      vertex 543.162 89.9662 0
      vertex 545 89.1548 -9.28472
      vertex 543.181 89.9662 0
    endloop
  endfacet
  facet normal -0.000275309 -0.996208 0.087005
    outer loop
      vertex 543.162 88.608 -15.5514
      vertex 545 89.1548 -9.28472
      vertex 543.162 89.9662 0
    endloop
  endfacet
  facet normal -0.000250864 -0.996208 0.0869979
    outer loop
      vertex 545 89.1548 -9.28472
      vertex 543.162 88.608 -15.5514
      vertex 545 88.608 -15.5461
    endloop
  endfacet
  facet normal 0 -0.996203 0.0870591
    outer loop
      vertex 545 89.9662 0
      vertex 543.181 89.9662 0
      vertex 545 89.1548 -9.28472
    endloop
  endfacet
  facet normal 0 0.996203 0.0870591
    outer loop
      vertex 545 -89.1548 -9.28472
      vertex 543.162 -89.9662 0
      vertex 543.181 -89.9662 0
    endloop
  endfacet
  facet normal -0.000250864 0.996208 0.0869979
    outer loop
      vertex 543.162 -88.608 -15.5514
      vertex 545 -89.1548 -9.28472
      vertex 545 -88.608 -15.5461
    endloop
  endfacet
  facet normal -0.000275309 0.996208 0.087005
    outer loop
      vertex 545 -89.1548 -9.28472
      vertex 543.162 -88.608 -15.5514
      vertex 543.162 -89.9662 0
    endloop
  endfacet
  facet normal 0 0.996203 0.0870591
    outer loop
      vertex 545 -89.1548 -9.28472
      vertex 543.181 -89.9662 0
      vertex 545 -89.9662 0
    endloop
  endfacet
  facet normal -0.00147166 0.966037 0.258401
    outer loop
      vertex 543.162 -84.7433 -30
      vertex 545 -86.1727 -24.6457
      vertex 545 -84.7405 -30
    endloop
  endfacet
  facet normal -0.00145268 0.966038 0.258395
    outer loop
      vertex 545 -86.1727 -24.6457
      vertex 543.162 -84.7433 -30
      vertex 543.162 -88.608 -15.5514
    endloop
  endfacet
  facet normal -0.000745485 0.966003 0.258529
    outer loop
      vertex 545 -86.1727 -24.6457
      vertex 543.162 -88.608 -15.5514
      vertex 545 -88.608 -15.5461
    endloop
  endfacet
  facet normal -0.00350203 0.906581 0.422017
    outer loop
      vertex 545 -77.9205 -44.9512
      vertex 543.162 -80.2324 -40
      vertex 545 -80.2253 -40
    endloop
  endfacet
  facet normal -0.00351295 0.906583 0.422013
    outer loop
      vertex 543.162 -80.2324 -40
      vertex 545 -77.9205 -44.9512
      vertex 543.162 -77.9205 -44.9665
    endloop
  endfacet
  facet normal -0.0061092 0.819607 0.572894
    outer loop
      vertex 543.162 -68.9248 -57.8363
      vertex 545 -72.5236 -52.6681
      vertex 545 -68.9248 -57.8167
    endloop
  endfacet
  facet normal -0.00608922 0.81961 0.572889
    outer loop
      vertex 545 -72.5236 -52.6681
      vertex 543.162 -68.9248 -57.8363
      vertex 543.162 -77.9205 -44.9665
    endloop
  endfacet
  facet normal -0.00477067 0.819468 0.573104
    outer loop
      vertex 545 -72.5236 -52.6681
      vertex 543.162 -77.9205 -44.9665
      vertex 545 -77.9205 -44.9512
    endloop
  endfacet
  facet normal -0.00899406 0.707699 0.706457
    outer loop
      vertex 543.162 -57.8347 -68.9458
      vertex 545 -62.2713 -64.478
      vertex 545 -57.8347 -68.9224
    endloop
  endfacet
  facet normal -0.0090091 0.707696 0.70646
    outer loop
      vertex 545 -62.2713 -64.478
      vertex 543.162 -57.8347 -68.9458
      vertex 543.162 -68.9248 -57.8363
    endloop
  endfacet
  facet normal -0.00753579 0.707501 0.706672
    outer loop
      vertex 545 -62.2713 -64.478
      vertex 543.162 -68.9248 -57.8363
      vertex 545 -68.9248 -57.8167
    endloop
  endfacet
  facet normal -0.0118028 0.574211 0.818622
    outer loop
      vertex 543.162 -44.9874 -77.9574
      vertex 545 -50.127 -74.3258
      vertex 545 -44.9874 -77.9309
    endloop
  endfacet
  facet normal -0.0117952 0.574213 0.818621
    outer loop
      vertex 545 -50.127 -74.3258
      vertex 543.162 -44.9874 -77.9574
      vertex 543.162 -57.8347 -68.9458
    endloop
  endfacet
  facet normal -0.0104242 0.574002 0.818787
    outer loop
      vertex 545 -50.127 -74.3258
      vertex 543.162 -57.8347 -68.9458
      vertex 545 -57.8347 -68.9224
    endloop
  endfacet
  facet normal -0.0141953 0.423183 0.905933
    outer loop
      vertex 543.162 -30.7732 -84.5973
      vertex 545 -36.4597 -81.9122
      vertex 545 -30.7732 -84.5685
    endloop
  endfacet
  facet normal -0.014174 0.423189 0.905931
    outer loop
      vertex 545 -36.4597 -81.9122
      vertex 543.162 -30.7732 -84.5973
      vertex 543.162 -44.9874 -77.9574
    endloop
  endfacet
  facet normal -0.0130631 0.422998 0.906036
    outer loop
      vertex 545 -36.4597 -81.9122
      vertex 543.162 -44.9874 -77.9574
      vertex 545 -44.9874 -77.9309
    endloop
  endfacet
  facet normal -0.0158146 0.259217 0.96569
    outer loop
      vertex 543.162 -15.624 -88.6636
      vertex 545 -21.6845 -87.0067
      vertex 545 -15.624 -88.6335
    endloop
  endfacet
  facet normal -0.0158461 0.259208 0.965692
    outer loop
      vertex 545 -21.6845 -87.0067
      vertex 543.162 -15.624 -88.6636
      vertex 543.162 -30.7732 -84.5973
    endloop
  endfacet
  facet normal -0.0151324 0.259076 0.965738
    outer loop
      vertex 545 -21.6845 -87.0067
      vertex 543.162 -30.7732 -84.5973
      vertex 545 -30.7732 -84.5685
    endloop
  endfacet
  facet normal -0.0165827 0.0872956 0.996044
    outer loop
      vertex 543.162 0 -90.0329
      vertex 545 -6.25041 -89.4545
      vertex 545 0 -90.0023
    endloop
  endfacet
  facet normal -0.0165876 0.0872941 0.996044
    outer loop
      vertex 545 -6.25041 -89.4545
      vertex 543.162 0 -90.0329
      vertex 543.162 -15.624 -88.6636
    endloop
  endfacet
  facet normal -0.0163119 0.0872409 0.996054
    outer loop
      vertex 545 -6.25041 -89.4545
      vertex 543.162 -15.624 -88.6636
      vertex 545 -15.624 -88.6335
    endloop
  endfacet
  facet normal -0.00307668 -0.935674 0.352852
    outer loop
      vertex 540 68.2203 -37.4888
      vertex 540 67.2733 -40
      vertex 540.517 67.2716 -40
    endloop
  endfacet
  facet normal -0.00209951 -0.935624 0.352992
    outer loop
      vertex 540 68.2203 -37.4888
      vertex 541.799 70.4424 -31.5883
      vertex 540 70.4424 -31.599
    endloop
  endfacet
  facet normal -0.00204345 -0.935606 0.35304
    outer loop
      vertex 541.799 67.2688 -40
      vertex 540 68.2203 -37.4888
      vertex 540.517 67.2716 -40
    endloop
  endfacet
  facet normal -0.00211379 -0.935623 0.352995
    outer loop
      vertex 540 68.2203 -37.4888
      vertex 541.799 67.2688 -40
      vertex 541.799 70.4424 -31.5883
    endloop
  endfacet
  facet normal -0.00131008 -0.977316 0.211782
    outer loop
      vertex 540 70.4424 -31.599
      vertex 541.492 70.7869 -30
      vertex 540 70.7889 -30
    endloop
  endfacet
  facet normal -0.00125936 -0.977326 0.211737
    outer loop
      vertex 541.492 70.7869 -30
      vertex 540 70.4424 -31.599
      vertex 541.799 70.4424 -31.5883
    endloop
  endfacet
  facet normal -0.000636679 -0.977302 0.211852
    outer loop
      vertex 541.799 70.7867 -30
      vertex 541.492 70.7869 -30
      vertex 541.799 70.4424 -31.5883
    endloop
  endfacet
  facet normal -0.00125936 0.977326 0.211737
    outer loop
      vertex 540 -70.4424 -31.599
      vertex 541.492 -70.7869 -30
      vertex 541.799 -70.4424 -31.5883
    endloop
  endfacet
  facet normal -0.00131008 0.977316 0.211782
    outer loop
      vertex 541.492 -70.7869 -30
      vertex 540 -70.4424 -31.599
      vertex 540 -70.7889 -30
    endloop
  endfacet
  facet normal -0.000636679 0.977302 0.211852
    outer loop
      vertex 541.799 -70.4424 -31.5883
      vertex 541.492 -70.7869 -30
      vertex 541.799 -70.7867 -30
    endloop
  endfacet
  facet normal -0.00307668 0.935674 0.352852
    outer loop
      vertex 540 -67.2733 -40
      vertex 540 -68.2203 -37.4888
      vertex 540.517 -67.2716 -40
    endloop
  endfacet
  facet normal -0.00209951 0.935624 0.352992
    outer loop
      vertex 541.799 -70.4424 -31.5883
      vertex 540 -68.2203 -37.4888
      vertex 540 -70.4424 -31.599
    endloop
  endfacet
  facet normal -0.00211379 0.935623 0.352995
    outer loop
      vertex 541.799 -67.2688 -40
      vertex 540 -68.2203 -37.4888
      vertex 541.799 -70.4424 -31.5883
    endloop
  endfacet
  facet normal -0.00204345 0.935606 0.35304
    outer loop
      vertex 540 -68.2203 -37.4888
      vertex 541.799 -67.2688 -40
      vertex 540.517 -67.2716 -40
    endloop
  endfacet
  facet normal -0.00307734 -0.93562 0.352995
    outer loop
      vertex 541.799 70.4424 -31.5883
      vertex 541.799 67.2688 -40
      vertex 543.532 67.2631 -40
    endloop
  endfacet
  facet normal -0.00211198 -0.935557 0.35317
    outer loop
      vertex 543.532 67.2631 -40
      vertex 544.809 70.4424 -31.5703
      vertex 541.799 70.4424 -31.5883
    endloop
  endfacet
  facet normal -0.0021246 -0.935556 0.353171
    outer loop
      vertex 544.809 70.4424 -31.5703
      vertex 543.532 67.2631 -40
      vertex 544.809 67.2602 -40
    endloop
  endfacet
  facet normal -0.00126406 -0.977301 0.211852
    outer loop
      vertex 541.799 70.4424 -31.5883
      vertex 544.505 70.7832 -30
      vertex 541.799 70.7867 -30
    endloop
  endfacet
  facet normal -0.00126692 -0.9773 0.211857
    outer loop
      vertex 544.505 70.7832 -30
      vertex 541.799 70.4424 -31.5883
      vertex 544.809 70.4424 -31.5703
    endloop
  endfacet
  facet normal -0.000642944 -0.977275 0.211972
    outer loop
      vertex 544.809 70.783 -30
      vertex 544.505 70.7832 -30
      vertex 544.809 70.4424 -31.5703
    endloop
  endfacet
  facet normal -0.00126692 0.9773 0.211857
    outer loop
      vertex 541.799 -70.4424 -31.5883
      vertex 544.505 -70.7832 -30
      vertex 544.809 -70.4424 -31.5703
    endloop
  endfacet
  facet normal -0.00126406 0.977301 0.211852
    outer loop
      vertex 544.505 -70.7832 -30
      vertex 541.799 -70.4424 -31.5883
      vertex 541.799 -70.7867 -30
    endloop
  endfacet
  facet normal -0.000642944 0.977275 0.211972
    outer loop
      vertex 544.809 -70.4424 -31.5703
      vertex 544.505 -70.7832 -30
      vertex 544.809 -70.783 -30
    endloop
  endfacet
  facet normal -0.00307734 0.93562 0.352995
    outer loop
      vertex 541.799 -67.2688 -40
      vertex 541.799 -70.4424 -31.5883
      vertex 543.532 -67.2631 -40
    endloop
  endfacet
  facet normal -0.0021246 0.935556 0.353171
    outer loop
      vertex 543.532 -67.2631 -40
      vertex 544.809 -70.4424 -31.5703
      vertex 544.809 -67.2602 -40
    endloop
  endfacet
  facet normal -0.00211198 0.935557 0.35317
    outer loop
      vertex 544.809 -70.4424 -31.5703
      vertex 543.532 -67.2631 -40
      vertex 541.799 -70.4424 -31.5883
    endloop
  endfacet
  facet normal -0.00278239 -0.935555 0.353171
    outer loop
      vertex 544.809 67.2602 -40
      vertex 545 70.0914 -32.4986
      vertex 544.809 70.4424 -31.5703
    endloop
  endfacet
  facet normal -0.00293891 -0.935553 0.353174
    outer loop
      vertex 545 70.0914 -32.4986
      vertex 544.809 67.2602 -40
      vertex 545 67.2596 -40
    endloop
  endfacet
  facet normal -0.00203475 -0.935506 0.353306
    outer loop
      vertex 545 70.4424 -31.5692
      vertex 544.809 70.4424 -31.5703
      vertex 545 70.0914 -32.4986
    endloop
  endfacet
  facet normal -0.00102332 -0.97727 0.211995
    outer loop
      vertex 544.809 70.783 -30
      vertex 545 70.4424 -31.5692
      vertex 545 70.7828 -30
    endloop
  endfacet
  facet normal -0.00122078 -0.977275 0.211972
    outer loop
      vertex 545 70.4424 -31.5692
      vertex 544.809 70.783 -30
      vertex 544.809 70.4424 -31.5703
    endloop
  endfacet
  facet normal -0.00102332 0.97727 0.211995
    outer loop
      vertex 545 -70.4424 -31.5692
      vertex 544.809 -70.783 -30
      vertex 545 -70.7828 -30
    endloop
  endfacet
  facet normal -0.00122078 0.977275 0.211972
    outer loop
      vertex 544.809 -70.783 -30
      vertex 545 -70.4424 -31.5692
      vertex 544.809 -70.4424 -31.5703
    endloop
  endfacet
  facet normal -0.00293891 0.935553 0.353174
    outer loop
      vertex 544.809 -67.2602 -40
      vertex 545 -70.0914 -32.4986
      vertex 545 -67.2596 -40
    endloop
  endfacet
  facet normal -0.00278239 0.935555 0.353171
    outer loop
      vertex 545 -70.0914 -32.4986
      vertex 544.809 -67.2602 -40
      vertex 544.809 -70.4424 -31.5703
    endloop
  endfacet
  facet normal -0.00203475 0.935506 0.353306
    outer loop
      vertex 545 -70.0914 -32.4986
      vertex 544.809 -70.4424 -31.5703
      vertex 545 -70.4424 -31.5692
    endloop
  endfacet
  facet normal 0 0 1
    outer loop
      vertex 545 84.7405 -30
      vertex 544.809 70.783 -30
      vertex 545 70.7828 -30
    endloop
  endfacet
  facet normal 0 0 1
    outer loop
      vertex 545 84.7405 -30
      vertex 544.505 70.7832 -30
      vertex 544.809 70.783 -30
    endloop
  endfacet
  facet normal 0 0 1
    outer loop
      vertex 543.162 84.7433 -30
      vertex 544.505 70.7832 -30
      vertex 545 84.7405 -30
    endloop
  endfacet
  facet normal 0 0 1
    outer loop
      vertex 541.799 70.7867 -30
      vertex 543.162 84.7433 -30
      vertex 543.015 84.7434 -30
    endloop
  endfacet
  facet normal 0 0 1
    outer loop
      vertex 543.162 84.7433 -30
      vertex 541.799 70.7867 -30
      vertex 544.505 70.7832 -30
    endloop
  endfacet
  facet normal 0 0 1
    outer loop
      vertex 543.015 84.7434 -30
      vertex 541.492 70.7869 -30
      vertex 541.799 70.7867 -30
    endloop
  endfacet
  facet normal 0 0 1
    outer loop
      vertex 540.098 84.7478 -30
      vertex 541.492 70.7869 -30
      vertex 543.015 84.7434 -30
    endloop
  endfacet
  facet normal 0 0 1
    outer loop
      vertex 540 70.7889 -30
      vertex 540.098 84.7478 -30
      vertex 540 84.7479 -30
    endloop
  endfacet
  facet normal 0 0 1
    outer loop
      vertex 540.098 84.7478 -30
      vertex 540 70.7889 -30
      vertex 541.492 70.7869 -30
    endloop
  endfacet
  facet normal -0 0 1
    outer loop
      vertex 544.809 -70.783 -30
      vertex 545 -84.7405 -30
      vertex 545 -70.7828 -30
    endloop
  endfacet
  facet normal -0 0 1
    outer loop
      vertex 544.505 -70.7832 -30
      vertex 545 -84.7405 -30
      vertex 544.809 -70.783 -30
    endloop
  endfacet
  facet normal 0 0 1
    outer loop
      vertex 544.505 -70.7832 -30
      vertex 543.162 -84.7433 -30
      vertex 545 -84.7405 -30
    endloop
  endfacet
  facet normal -0 0 1
    outer loop
      vertex 541.799 -70.7867 -30
      vertex 543.162 -84.7433 -30
      vertex 544.505 -70.7832 -30
    endloop
  endfacet
  facet normal 0 0 1
    outer loop
      vertex 543.162 -84.7433 -30
      vertex 541.799 -70.7867 -30
      vertex 543.015 -84.7434 -30
    endloop
  endfacet
  facet normal -0 0 1
    outer loop
      vertex 541.492 -70.7869 -30
      vertex 543.015 -84.7434 -30
      vertex 541.799 -70.7867 -30
    endloop
  endfacet
  facet normal 0 0 1
    outer loop
      vertex 541.492 -70.7869 -30
      vertex 540.098 -84.7478 -30
      vertex 543.015 -84.7434 -30
    endloop
  endfacet
  facet normal -0 0 1
    outer loop
      vertex 540 -70.7889 -30
      vertex 540.098 -84.7478 -30
      vertex 541.492 -70.7869 -30
    endloop
  endfacet
  facet normal 0 0 1
    outer loop
      vertex 540.098 -84.7478 -30
      vertex 540 -70.7889 -30
      vertex 540 -84.7479 -30
    endloop
  endfacet
  facet normal 0 0 -1
    outer loop
      vertex 544.809 67.2602 -40
      vertex 545 80.2253 -40
      vertex 545 67.2596 -40
    endloop
  endfacet
  facet normal 0 0 -1
    outer loop
      vertex 543.532 67.2631 -40
      vertex 545 80.2253 -40
      vertex 544.809 67.2602 -40
    endloop
  endfacet
  facet normal 0 0 -1
    outer loop
      vertex 543.532 67.2631 -40
      vertex 543.162 80.2324 -40
      vertex 545 80.2253 -40
    endloop
  endfacet
  facet normal 0 0 -1
    outer loop
      vertex 541.799 67.2688 -40
      vertex 543.162 80.2324 -40
      vertex 543.532 67.2631 -40
    endloop
  endfacet
  facet normal -0 0 -1
    outer loop
      vertex 543.162 80.2324 -40
      vertex 541.799 67.2688 -40
      vertex 542.092 80.2352 -40
    endloop
  endfacet
  facet normal 0 0 -1
    outer loop
      vertex 540.517 67.2716 -40
      vertex 542.092 80.2352 -40
      vertex 541.799 67.2688 -40
    endloop
  endfacet
  facet normal 0 0 -1
    outer loop
      vertex 540.517 67.2716 -40
      vertex 540.098 80.2429 -40
      vertex 542.092 80.2352 -40
    endloop
  endfacet
  facet normal 0 0 -1
    outer loop
      vertex 540 67.2733 -40
      vertex 540.098 80.2429 -40
      vertex 540.517 67.2716 -40
    endloop
  endfacet
  facet normal -0 0 -1
    outer loop
      vertex 540.098 80.2429 -40
      vertex 540 67.2733 -40
      vertex 540 80.2432 -40
    endloop
  endfacet
  facet normal 0 0 -1
    outer loop
      vertex 545 -80.2253 -40
      vertex 544.809 -67.2602 -40
      vertex 545 -67.2596 -40
    endloop
  endfacet
  facet normal 0 0 -1
    outer loop
      vertex 545 -80.2253 -40
      vertex 543.532 -67.2631 -40
      vertex 544.809 -67.2602 -40
    endloop
  endfacet
  facet normal 0 0 -1
    outer loop
      vertex 543.162 -80.2324 -40
      vertex 543.532 -67.2631 -40
      vertex 545 -80.2253 -40
    endloop
  endfacet
  facet normal 0 0 -1
    outer loop
      vertex 541.799 -67.2688 -40
      vertex 543.162 -80.2324 -40
      vertex 542.092 -80.2352 -40
    endloop
  endfacet
  facet normal 0 0 -1
    outer loop
      vertex 543.162 -80.2324 -40
      vertex 541.799 -67.2688 -40
      vertex 543.532 -67.2631 -40
    endloop
  endfacet
  facet normal 0 0 -1
    outer loop
      vertex 542.092 -80.2352 -40
      vertex 540.517 -67.2716 -40
      vertex 541.799 -67.2688 -40
    endloop
  endfacet
  facet normal 0 0 -1
    outer loop
      vertex 540.098 -80.2429 -40
      vertex 540.517 -67.2716 -40
      vertex 542.092 -80.2352 -40
    endloop
  endfacet
  facet normal 0 0 -1
    outer loop
      vertex 540 -67.2733 -40
      vertex 540.098 -80.2429 -40
      vertex 540 -80.2432 -40
    endloop
  endfacet
  facet normal 0 0 -1
    outer loop
      vertex 540.098 -80.2429 -40
      vertex 540 -67.2733 -40
      vertex 540.517 -67.2716 -40
    endloop
  endfacet
  facet normal 1 0 0
    outer loop
      vertex 545 -80.2253 -40
      vertex 545 -70.0914 -32.4986
      vertex 545 -70.4424 -31.5692
    endloop
  endfacet
  facet normal 1 0 0
    outer loop
      vertex 545 -70.0914 -32.4986
      vertex 545 -80.2253 -40
      vertex 545 -67.2596 -40
    endloop
  endfacet
  facet normal 1 -0 0
    outer loop
      vertex 545 -84.7405 -30
      vertex 545 -70.4424 -31.5692
      vertex 545 -70.7828 -30
    endloop
  endfacet
  facet normal 1 0 0
    outer loop
      vertex 545 -77.9205 -44.9512
      vertex 545 -82.3256 -47.5476
      vertex 545 -82.2815 -47.6427
    endloop
  endfacet
  facet normal 1 0 0
    outer loop
      vertex 545 -70.4424 -31.5692
      vertex 545 -84.7405 -30
      vertex 545 -80.2253 -40
    endloop
  endfacet
  facet normal 1 -0 0
    outer loop
      vertex 545 -89.2806 -32.5895
      vertex 545 -80.2253 -40
      vertex 545 -84.7405 -30
    endloop
  endfacet
  facet normal 1 0 0
    outer loop
      vertex 545 -89.3077 -32.4882
      vertex 545 -84.7405 -30
      vertex 545 -86.1727 -24.6457
    endloop
  endfacet
  facet normal 1 -0 0
    outer loop
      vertex 545 -93.567 -16.5461
      vertex 545 -86.1727 -24.6457
      vertex 545 -88.608 -15.5461
    endloop
  endfacet
  facet normal 1 0 0
    outer loop
      vertex 545 -80.2253 -40
      vertex 545 -89.2806 -32.5895
      vertex 545 -82.3256 -47.5476
    endloop
  endfacet
  facet normal 1 0 0
    outer loop
      vertex 545 -93.5761 -16.4416
      vertex 545 -88.608 -15.5461
      vertex 545 -89.1548 -9.28472
    endloop
  endfacet
  facet normal 1 0 0
    outer loop
      vertex 545 -84.7405 -30
      vertex 545 -89.3077 -32.4882
      vertex 545 -89.2806 -32.5895
    endloop
  endfacet
  facet normal 1 -0 0
    outer loop
      vertex 545 -95.0105 0
      vertex 545 -89.1548 -9.28472
      vertex 545 -89.9662 0
    endloop
  endfacet
  facet normal 1 0 0
    outer loop
      vertex 545 -86.1727 -24.6457
      vertex 545 -93.567 -16.5461
      vertex 545 -89.3077 -32.4882
    endloop
  endfacet
  facet normal 1 0 0
    outer loop
      vertex 545 -88.608 -15.5461
      vertex 545 -93.5761 -16.4416
      vertex 545 -93.567 -16.5461
    endloop
  endfacet
  facet normal 1 0 0
    outer loop
      vertex 545 -89.1548 -9.28472
      vertex 545 -95.0105 0
      vertex 545 -93.5761 -16.4416
    endloop
  endfacet
  facet normal 1 0 0
    outer loop
      vertex 545 89.1548 -9.28472
      vertex 545 95.0105 0
      vertex 545 89.9662 0
    endloop
  endfacet
  facet normal 1 0 0
    outer loop
      vertex 545 95.0105 0
      vertex 545 89.1548 -9.28472
      vertex 545 93.5761 -16.4416
    endloop
  endfacet
  facet normal 1 -0 0
    outer loop
      vertex 545 88.608 -15.5461
      vertex 545 93.5761 -16.4416
      vertex 545 89.1548 -9.28472
    endloop
  endfacet
  facet normal 1 0 0
    outer loop
      vertex 545 93.5761 -16.4416
      vertex 545 88.608 -15.5461
      vertex 545 93.567 -16.5461
    endloop
  endfacet
  facet normal 1 0 0
    outer loop
      vertex 545 86.1727 -24.6457
      vertex 545 93.567 -16.5461
      vertex 545 88.608 -15.5461
    endloop
  endfacet
  facet normal 1 0 0
    outer loop
      vertex 545 93.567 -16.5461
      vertex 545 86.1727 -24.6457
      vertex 545 89.3077 -32.4882
    endloop
  endfacet
  facet normal 1 -0 0
    outer loop
      vertex 545 84.7405 -30
      vertex 545 89.3077 -32.4882
      vertex 545 86.1727 -24.6457
    endloop
  endfacet
  facet normal 1 0 0
    outer loop
      vertex 545 89.3077 -32.4882
      vertex 545 84.7405 -30
      vertex 545 89.2806 -32.5895
    endloop
  endfacet
  facet normal 1 0 0
    outer loop
      vertex 545 80.2253 -40
      vertex 545 89.2806 -32.5895
      vertex 545 84.7405 -30
    endloop
  endfacet
  facet normal 1 0 0
    outer loop
      vertex 545 89.2806 -32.5895
      vertex 545 80.2253 -40
      vertex 545 82.3256 -47.5476
    endloop
  endfacet
  facet normal 1 -0 0
    outer loop
      vertex 545 77.9205 -44.9512
      vertex 545 82.3256 -47.5476
      vertex 545 80.2253 -40
    endloop
  endfacet
  facet normal 1 0 0
    outer loop
      vertex 545 70.4424 -31.5692
      vertex 545 84.7405 -30
      vertex 545 70.7828 -30
    endloop
  endfacet
  facet normal 1 0 0
    outer loop
      vertex 545 84.7405 -30
      vertex 545 70.4424 -31.5692
      vertex 545 80.2253 -40
    endloop
  endfacet
  facet normal 1 -0 0
    outer loop
      vertex 545 70.0914 -32.4986
      vertex 545 80.2253 -40
      vertex 545 70.4424 -31.5692
    endloop
  endfacet
  facet normal 1 0 0
    outer loop
      vertex 545 80.2253 -40
      vertex 545 70.0914 -32.4986
      vertex 545 67.2596 -40
    endloop
  endfacet
  facet normal 1 0 0
    outer loop
      vertex 545 82.3256 -47.5476
      vertex 545 77.9205 -44.9512
      vertex 545 82.2815 -47.6427
    endloop
  endfacet
  facet normal 1 0 0
    outer loop
      vertex 545 72.5236 -52.6681
      vertex 545 82.2815 -47.6427
      vertex 545 77.9205 -44.9512
    endloop
  endfacet
  facet normal 1 0 0
    outer loop
      vertex 545 82.2815 -47.6427
      vertex 545 72.5236 -52.6681
      vertex 545 72.8422 -61.1623
    endloop
  endfacet
  facet normal 1 -0 0
    outer loop
      vertex 545 68.9248 -57.8167
      vertex 545 72.8422 -61.1623
      vertex 545 72.5236 -52.6681
    endloop
  endfacet
  facet normal 1 0 0
    outer loop
      vertex 545 72.8422 -61.1623
      vertex 545 68.9248 -57.8167
      vertex 545 72.7822 -61.2482
    endloop
  endfacet
  facet normal 1 0 0
    outer loop
      vertex 545 62.2713 -64.478
      vertex 545 72.7822 -61.2482
      vertex 545 68.9248 -57.8167
    endloop
  endfacet
  facet normal 1 -0 0
    outer loop
      vertex 545 62.2713 -64.478
      vertex 545 61.1455 -72.9186
      vertex 545 72.7822 -61.2482
    endloop
  endfacet
  facet normal 1 -0 0
    outer loop
      vertex 545 57.8347 -68.9224
      vertex 545 61.1455 -72.9186
      vertex 545 62.2713 -64.478
    endloop
  endfacet
  facet normal 1 0 0
    outer loop
      vertex 545 61.1455 -72.9186
      vertex 545 57.8347 -68.9224
      vertex 545 61.0715 -72.9928
    endloop
  endfacet
  facet normal 1 0 0
    outer loop
      vertex 545 50.127 -74.3258
      vertex 545 61.0715 -72.9928
      vertex 545 57.8347 -68.9224
    endloop
  endfacet
  facet normal 1 -0 0
    outer loop
      vertex 545 50.127 -74.3258
      vertex 545 47.5908 -82.4594
      vertex 545 61.0715 -72.9928
    endloop
  endfacet
  facet normal 1 -0 0
    outer loop
      vertex 545 44.9874 -77.9309
      vertex 545 47.5908 -82.4594
      vertex 545 50.127 -74.3258
    endloop
  endfacet
  facet normal 1 0 0
    outer loop
      vertex 545 47.5908 -82.4594
      vertex 545 44.9874 -77.9309
      vertex 545 47.5052 -82.5195
    endloop
  endfacet
  facet normal 1 -0 0
    outer loop
      vertex 545 36.4597 -81.9122
      vertex 545 47.5052 -82.5195
      vertex 545 44.9874 -77.9309
    endloop
  endfacet
  facet normal 1 0 0
    outer loop
      vertex 545 36.4597 -81.9122
      vertex 545 32.5902 -89.4946
      vertex 545 47.5052 -82.5195
    endloop
  endfacet
  facet normal 1 -0 0
    outer loop
      vertex 545 30.7732 -84.5685
      vertex 545 32.5902 -89.4946
      vertex 545 36.4597 -81.9122
    endloop
  endfacet
  facet normal 1 0 0
    outer loop
      vertex 545 32.5902 -89.4946
      vertex 545 30.7732 -84.5685
      vertex 545 32.4955 -89.5389
    endloop
  endfacet
  facet normal 1 -0 0
    outer loop
      vertex 545 21.6845 -87.0067
      vertex 545 32.4955 -89.5389
      vertex 545 30.7732 -84.5685
    endloop
  endfacet
  facet normal 1 0 0
    outer loop
      vertex 545 21.6845 -87.0067
      vertex 545 16.5994 -93.8106
      vertex 545 32.4955 -89.5389
    endloop
  endfacet
  facet normal 1 -0 0
    outer loop
      vertex 545 15.624 -88.6335
      vertex 545 16.5994 -93.8106
      vertex 545 21.6845 -87.0067
    endloop
  endfacet
  facet normal 1 0 0
    outer loop
      vertex 545 16.5994 -93.8106
      vertex 545 15.624 -88.6335
      vertex 545 16.4984 -93.8377
    endloop
  endfacet
  facet normal 1 -0 0
    outer loop
      vertex 545 6.25041 -89.4545
      vertex 545 16.4984 -93.8377
      vertex 545 15.624 -88.6335
    endloop
  endfacet
  facet normal 1 0 0
    outer loop
      vertex 545 6.25041 -89.4545
      vertex 545 0.104128 -95.2762
      vertex 545 16.4984 -93.8377
    endloop
  endfacet
  facet normal 1 -0 0
    outer loop
      vertex 545 0 -90.0023
      vertex 545 0.104128 -95.2762
      vertex 545 6.25041 -89.4545
    endloop
  endfacet
  facet normal 1 0 0
    outer loop
      vertex 545 -0.104128 -95.2762
      vertex 545 0.104128 -95.2762
      vertex 545 0 -90.0023
    endloop
  endfacet
  facet normal 1 0 0
    outer loop
      vertex 545 0.104128 -95.2762
      vertex 545 -0.104128 -95.2762
      vertex 545 0 -95.2853
    endloop
  endfacet
  facet normal 1 0 0
    outer loop
      vertex 545 -6.25041 -89.4545
      vertex 545 -0.104128 -95.2762
      vertex 545 0 -90.0023
    endloop
  endfacet
  facet normal 1 0 0
    outer loop
      vertex 545 -16.4984 -93.8377
      vertex 545 -6.25041 -89.4545
      vertex 545 -15.624 -88.6335
    endloop
  endfacet
  facet normal 1 0 0
    outer loop
      vertex 545 -6.25041 -89.4545
      vertex 545 -16.4984 -93.8377
      vertex 545 -0.104128 -95.2762
    endloop
  endfacet
  facet normal 1 0 0
    outer loop
      vertex 545 -15.624 -88.6335
      vertex 545 -16.5994 -93.8106
      vertex 545 -16.4984 -93.8377
    endloop
  endfacet
  facet normal 1 0 0
    outer loop
      vertex 545 -21.6845 -87.0067
      vertex 545 -16.5994 -93.8106
      vertex 545 -15.624 -88.6335
    endloop
  endfacet
  facet normal 1 0 0
    outer loop
      vertex 545 -32.4955 -89.5389
      vertex 545 -21.6845 -87.0067
      vertex 545 -30.7732 -84.5685
    endloop
  endfacet
  facet normal 1 0 0
    outer loop
      vertex 545 -21.6845 -87.0067
      vertex 545 -32.4955 -89.5389
      vertex 545 -16.5994 -93.8106
    endloop
  endfacet
  facet normal 1 0 0
    outer loop
      vertex 545 -30.7732 -84.5685
      vertex 545 -32.5902 -89.4946
      vertex 545 -32.4955 -89.5389
    endloop
  endfacet
  facet normal 1 0 0
    outer loop
      vertex 545 -36.4597 -81.9122
      vertex 545 -32.5902 -89.4946
      vertex 545 -30.7732 -84.5685
    endloop
  endfacet
  facet normal 1 0 0
    outer loop
      vertex 545 -47.5052 -82.5195
      vertex 545 -36.4597 -81.9122
      vertex 545 -44.9874 -77.9309
    endloop
  endfacet
  facet normal 1 0 0
    outer loop
      vertex 545 -36.4597 -81.9122
      vertex 545 -47.5052 -82.5195
      vertex 545 -32.5902 -89.4946
    endloop
  endfacet
  facet normal 1 0 0
    outer loop
      vertex 545 -44.9874 -77.9309
      vertex 545 -47.5908 -82.4594
      vertex 545 -47.5052 -82.5195
    endloop
  endfacet
  facet normal 1 0 0
    outer loop
      vertex 545 -50.127 -74.3258
      vertex 545 -47.5908 -82.4594
      vertex 545 -44.9874 -77.9309
    endloop
  endfacet
  facet normal 1 -0 0
    outer loop
      vertex 545 -61.0715 -72.9928
      vertex 545 -50.127 -74.3258
      vertex 545 -57.8347 -68.9224
    endloop
  endfacet
  facet normal 1 0 0
    outer loop
      vertex 545 -50.127 -74.3258
      vertex 545 -61.0715 -72.9928
      vertex 545 -47.5908 -82.4594
    endloop
  endfacet
  facet normal 1 0 0
    outer loop
      vertex 545 -57.8347 -68.9224
      vertex 545 -61.1455 -72.9186
      vertex 545 -61.0715 -72.9928
    endloop
  endfacet
  facet normal 1 0 0
    outer loop
      vertex 545 -62.2713 -64.478
      vertex 545 -61.1455 -72.9186
      vertex 545 -57.8347 -68.9224
    endloop
  endfacet
  facet normal 1 -0 0
    outer loop
      vertex 545 -72.7822 -61.2482
      vertex 545 -62.2713 -64.478
      vertex 545 -68.9248 -57.8167
    endloop
  endfacet
  facet normal 1 0 0
    outer loop
      vertex 545 -72.8422 -61.1623
      vertex 545 -68.9248 -57.8167
      vertex 545 -72.5236 -52.6681
    endloop
  endfacet
  facet normal 1 0 0
    outer loop
      vertex 545 -62.2713 -64.478
      vertex 545 -72.7822 -61.2482
      vertex 545 -61.1455 -72.9186
    endloop
  endfacet
  facet normal 1 0 0
    outer loop
      vertex 545 -68.9248 -57.8167
      vertex 545 -72.8422 -61.1623
      vertex 545 -72.7822 -61.2482
    endloop
  endfacet
  facet normal 1 -0 0
    outer loop
      vertex 545 -82.2815 -47.6427
      vertex 545 -72.5236 -52.6681
      vertex 545 -77.9205 -44.9512
    endloop
  endfacet
  facet normal 1 0 0
    outer loop
      vertex 545 -82.3256 -47.5476
      vertex 545 -77.9205 -44.9512
      vertex 545 -80.2253 -40
    endloop
  endfacet
  facet normal 1 0 0
    outer loop
      vertex 545 -72.5236 -52.6681
      vertex 545 -82.2815 -47.6427
      vertex 545 -72.8422 -61.1623
    endloop
  endfacet
  facet normal -1 0 0
    outer loop
      vertex 540 77.9205 -44.9928
      vertex 540 82.2815 -47.6851
      vertex 540 78.3338 -53.3424
    endloop
  endfacet
  facet normal -1 0 0
    outer loop
      vertex 540 82.2815 -47.6851
      vertex 540 78.1328 -44.5363
      vertex 540 80.2432 -40
    endloop
  endfacet
  facet normal -1 0 0
    outer loop
      vertex 540 82.2815 -47.6851
      vertex 540 77.9205 -44.9928
      vertex 540 78.1328 -44.5363
    endloop
  endfacet
  facet normal -1 0 0
    outer loop
      vertex 540 69.2128 -57.4575
      vertex 540 78.3338 -53.3424
      vertex 540 72.7822 -61.3028
    endloop
  endfacet
  facet normal -1 -0 0
    outer loop
      vertex 540 78.3338 -53.3424
      vertex 540 69.2128 -57.4575
      vertex 540 77.9205 -44.9928
    endloop
  endfacet
  facet normal -1 0 0
    outer loop
      vertex 540 72.7822 -61.3028
      vertex 540 68.9248 -57.8702
      vertex 540 69.2128 -57.4575
    endloop
  endfacet
  facet normal -1 0 0
    outer loop
      vertex 540 67.9156 -66.1863
      vertex 540 68.9248 -57.8702
      vertex 540 72.7822 -61.3028
    endloop
  endfacet
  facet normal -1 0 0
    outer loop
      vertex 540 58.1899 -68.63
      vertex 540 67.9156 -66.1863
      vertex 540 61.0715 -73.0579
    endloop
  endfacet
  facet normal -1 -0 0
    outer loop
      vertex 540 67.9156 -66.1863
      vertex 540 58.1899 -68.63
      vertex 540 68.9248 -57.8702
    endloop
  endfacet
  facet normal -1 0 0
    outer loop
      vertex 540 61.0715 -73.0579
      vertex 540 57.8347 -68.9861
      vertex 540 58.1899 -68.63
    endloop
  endfacet
  facet normal -1 0 0
    outer loop
      vertex 540 55.4338 -77.0191
      vertex 540 57.8347 -68.9861
      vertex 540 61.0715 -73.0579
    endloop
  endfacet
  facet normal -1 0 0
    outer loop
      vertex 540 45.3989 -77.7141
      vertex 540 55.4338 -77.0191
      vertex 540 47.5052 -82.5931
    endloop
  endfacet
  facet normal -1 -0 0
    outer loop
      vertex 540 55.4338 -77.0191
      vertex 540 45.3989 -77.7141
      vertex 540 57.8347 -68.9861
    endloop
  endfacet
  facet normal -1 0 0
    outer loop
      vertex 540 47.5052 -82.5931
      vertex 540 44.9874 -78.003
      vertex 540 45.3989 -77.7141
    endloop
  endfacet
  facet normal -1 0 0
    outer loop
      vertex 540 41.2676 -85.5118
      vertex 540 44.9874 -78.003
      vertex 540 47.5052 -82.5931
    endloop
  endfacet
  facet normal -1 0 0
    outer loop
      vertex 540 31.2284 -84.4338
      vertex 540 41.2676 -85.5118
      vertex 540 32.4955 -89.6188
    endloop
  endfacet
  facet normal -1 0 0
    outer loop
      vertex 540 41.2676 -85.5118
      vertex 540 31.2284 -84.4338
      vertex 540 44.9874 -78.003
    endloop
  endfacet
  facet normal -1 0 0
    outer loop
      vertex 540 32.4955 -89.6188
      vertex 540 30.7732 -84.6467
      vertex 540 31.2284 -84.4338
    endloop
  endfacet
  facet normal -1 0 0
    outer loop
      vertex 540 25.8475 -91.4062
      vertex 540 30.7732 -84.6467
      vertex 540 32.4955 -89.6188
    endloop
  endfacet
  facet normal -1 0 0
    outer loop
      vertex 540 16.1091 -88.5851
      vertex 540 25.8475 -91.4062
      vertex 540 16.4984 -93.9214
    endloop
  endfacet
  facet normal -1 0 0
    outer loop
      vertex 540 25.8475 -91.4062
      vertex 540 16.1091 -88.5851
      vertex 540 30.7732 -84.6467
    endloop
  endfacet
  facet normal -1 0 0
    outer loop
      vertex 540 16.4984 -93.9214
      vertex 540 15.624 -88.7154
      vertex 540 16.1091 -88.5851
    endloop
  endfacet
  facet normal -1 0 0
    outer loop
      vertex 540 9.64213 -94.5233
      vertex 540 15.624 -88.7154
      vertex 540 16.4984 -93.9214
    endloop
  endfacet
  facet normal -1 0 0
    outer loop
      vertex 540 9.64213 -94.5233
      vertex 540 0.500335 -90.0416
      vertex 540 15.624 -88.7154
    endloop
  endfacet
  facet normal -1 0 0
    outer loop
      vertex 540 0 -95.3703
      vertex 540 0.500335 -90.0416
      vertex 540 9.64213 -94.5233
    endloop
  endfacet
  facet normal -1 0 0
    outer loop
      vertex 540 0 -95.3703
      vertex 540 0 -90.0855
      vertex 540 0.500335 -90.0416
    endloop
  endfacet
  facet normal -1 0 0
    outer loop
      vertex 540 0 -95.3703
      vertex 540 -0.500335 -90.0416
      vertex 540 0 -90.0855
    endloop
  endfacet
  facet normal -1 0 0
    outer loop
      vertex 540 -9.64213 -94.5233
      vertex 540 -0.500335 -90.0416
      vertex 540 0 -95.3703
    endloop
  endfacet
  facet normal -1 0 0
    outer loop
      vertex 540 -9.64213 -94.5233
      vertex 540 -15.624 -88.7154
      vertex 540 -0.500335 -90.0416
    endloop
  endfacet
  facet normal -1 0 0
    outer loop
      vertex 540 -16.4984 -93.9214
      vertex 540 -15.624 -88.7154
      vertex 540 -9.64213 -94.5233
    endloop
  endfacet
  facet normal -1 -0 0
    outer loop
      vertex 540 -15.624 -88.7154
      vertex 540 -16.4984 -93.9214
      vertex 540 -16.1091 -88.5851
    endloop
  endfacet
  facet normal -1 0 0
    outer loop
      vertex 540 -25.8475 -91.4062
      vertex 540 -16.1091 -88.5851
      vertex 540 -16.4984 -93.9214
    endloop
  endfacet
  facet normal -1 0 0
    outer loop
      vertex 540 -25.8475 -91.4062
      vertex 540 -30.7732 -84.6467
      vertex 540 -16.1091 -88.5851
    endloop
  endfacet
  facet normal -1 0 0
    outer loop
      vertex 540 -32.4955 -89.6188
      vertex 540 -30.7732 -84.6467
      vertex 540 -25.8475 -91.4062
    endloop
  endfacet
  facet normal -1 -0 0
    outer loop
      vertex 540 -30.7732 -84.6467
      vertex 540 -32.4955 -89.6188
      vertex 540 -31.2284 -84.4338
    endloop
  endfacet
  facet normal -1 0 0
    outer loop
      vertex 540 -41.2676 -85.5118
      vertex 540 -31.2284 -84.4338
      vertex 540 -32.4955 -89.6188
    endloop
  endfacet
  facet normal -1 0 0
    outer loop
      vertex 540 -41.2676 -85.5118
      vertex 540 -44.9874 -78.003
      vertex 540 -31.2284 -84.4338
    endloop
  endfacet
  facet normal -1 0 0
    outer loop
      vertex 540 -47.5052 -82.5931
      vertex 540 -44.9874 -78.003
      vertex 540 -41.2676 -85.5118
    endloop
  endfacet
  facet normal -1 -0 0
    outer loop
      vertex 540 -44.9874 -78.003
      vertex 540 -47.5052 -82.5931
      vertex 540 -45.3989 -77.7141
    endloop
  endfacet
  facet normal -1 0 0
    outer loop
      vertex 540 -55.4338 -77.0191
      vertex 540 -45.3989 -77.7141
      vertex 540 -47.5052 -82.5931
    endloop
  endfacet
  facet normal -1 0 0
    outer loop
      vertex 540 -55.4338 -77.0191
      vertex 540 -57.8347 -68.9861
      vertex 540 -45.3989 -77.7141
    endloop
  endfacet
  facet normal -1 0 0
    outer loop
      vertex 540 -61.0715 -73.0579
      vertex 540 -57.8347 -68.9861
      vertex 540 -55.4338 -77.0191
    endloop
  endfacet
  facet normal -1 -0 0
    outer loop
      vertex 540 -57.8347 -68.9861
      vertex 540 -61.0715 -73.0579
      vertex 540 -58.1899 -68.63
    endloop
  endfacet
  facet normal -1 0 0
    outer loop
      vertex 540 -67.9156 -66.1863
      vertex 540 -58.1899 -68.63
      vertex 540 -61.0715 -73.0579
    endloop
  endfacet
  facet normal -1 0 0
    outer loop
      vertex 540 -67.9156 -66.1863
      vertex 540 -68.9248 -57.8702
      vertex 540 -58.1899 -68.63
    endloop
  endfacet
  facet normal -1 0 0
    outer loop
      vertex 540 -72.7822 -61.3028
      vertex 540 -68.9248 -57.8702
      vertex 540 -67.9156 -66.1863
    endloop
  endfacet
  facet normal -1 -0 0
    outer loop
      vertex 540 -68.9248 -57.8702
      vertex 540 -72.7822 -61.3028
      vertex 540 -69.2128 -57.4575
    endloop
  endfacet
  facet normal -1 0 0
    outer loop
      vertex 540 -78.3338 -53.3424
      vertex 540 -69.2128 -57.4575
      vertex 540 -72.7822 -61.3028
    endloop
  endfacet
  facet normal -1 0 0
    outer loop
      vertex 540 -69.2128 -57.4575
      vertex 540 -78.3338 -53.3424
      vertex 540 -77.9205 -44.9928
    endloop
  endfacet
  facet normal -1 0 0
    outer loop
      vertex 540 -82.2815 -47.6851
      vertex 540 -77.9205 -44.9928
      vertex 540 -78.3338 -53.3424
    endloop
  endfacet
  facet normal -1 -0 0
    outer loop
      vertex 540 -77.9205 -44.9928
      vertex 540 -82.2815 -47.6851
      vertex 540 -78.1328 -44.5363
    endloop
  endfacet
  facet normal -1 -0 0
    outer loop
      vertex 540 -78.1328 -44.5363
      vertex 540 -82.2815 -47.6851
      vertex 540 -80.2432 -40
    endloop
  endfacet
  facet normal -1 0 0
    outer loop
      vertex 540 88.608 -15.5606
      vertex 540 93.567 -16.5609
      vertex 540 91.7857 -23.2318
    endloop
  endfacet
  facet normal -1 0 0
    outer loop
      vertex 540 93.567 -16.5609
      vertex 540 88.6517 -15.0588
      vertex 540 94.4106 -6.87996
    endloop
  endfacet
  facet normal -1 0 -0
    outer loop
      vertex 540 89.9662 0
      vertex 540 94.4106 -6.87996
      vertex 540 88.6517 -15.0588
    endloop
  endfacet
  facet normal -1 0 0
    outer loop
      vertex 540 84.7479 -30
      vertex 540 91.7857 -23.2318
      vertex 540 89.2806 -32.6186
    endloop
  endfacet
  facet normal -1 0 0
    outer loop
      vertex 540 94.4106 -6.87996
      vertex 540 89.9662 0
      vertex 540 95.0105 0
    endloop
  endfacet
  facet normal -1 0 0
    outer loop
      vertex 540 93.567 -16.5609
      vertex 540 88.608 -15.5606
      vertex 540 88.6517 -15.0588
    endloop
  endfacet
  facet normal -1 0 0
    outer loop
      vertex 540 84.7479 -30
      vertex 540 89.2806 -32.6186
      vertex 540 86.372 -38.8777
    endloop
  endfacet
  facet normal -1 -0 0
    outer loop
      vertex 540 91.7857 -23.2318
      vertex 540 84.7479 -30
      vertex 540 88.608 -15.5606
    endloop
  endfacet
  facet normal -1 0 0
    outer loop
      vertex 540 80.2432 -40
      vertex 540 86.372 -38.8777
      vertex 540 82.2815 -47.6851
    endloop
  endfacet
  facet normal -1 -0 0
    outer loop
      vertex 540 86.372 -38.8777
      vertex 540 80.2432 -40
      vertex 540 84.7479 -30
    endloop
  endfacet
  facet normal -1 0 0
    outer loop
      vertex 540 70.4424 -31.599
      vertex 540 84.7479 -30
      vertex 540 80.2432 -40
    endloop
  endfacet
  facet normal -1 -0 0
    outer loop
      vertex 540 84.7479 -30
      vertex 540 70.4424 -31.599
      vertex 540 70.7889 -30
    endloop
  endfacet
  facet normal -1 0 0
    outer loop
      vertex 540 80.2432 -40
      vertex 540 68.2203 -37.4888
      vertex 540 70.4424 -31.599
    endloop
  endfacet
  facet normal -1 0 -0
    outer loop
      vertex 540 68.2203 -37.4888
      vertex 540 80.2432 -40
      vertex 540 67.2733 -40
    endloop
  endfacet
  facet normal -1 0 0
    outer loop
      vertex 540 -80.2432 -40
      vertex 540 -68.2203 -37.4888
      vertex 540 -67.2733 -40
    endloop
  endfacet
  facet normal -1 -0 0
    outer loop
      vertex 540 -68.2203 -37.4888
      vertex 540 -80.2432 -40
      vertex 540 -70.4424 -31.599
    endloop
  endfacet
  facet normal -1 0 0
    outer loop
      vertex 540 -84.7479 -30
      vertex 540 -70.4424 -31.599
      vertex 540 -80.2432 -40
    endloop
  endfacet
  facet normal -1 0 0
    outer loop
      vertex 540 -70.4424 -31.599
      vertex 540 -84.7479 -30
      vertex 540 -70.7889 -30
    endloop
  endfacet
  facet normal -1 0 0
    outer loop
      vertex 540 -86.372 -38.8777
      vertex 540 -80.2432 -40
      vertex 540 -82.2815 -47.6851
    endloop
  endfacet
  facet normal -1 0 0
    outer loop
      vertex 540 -80.2432 -40
      vertex 540 -86.372 -38.8777
      vertex 540 -84.7479 -30
    endloop
  endfacet
  facet normal -1 0 0
    outer loop
      vertex 540 -89.2806 -32.6186
      vertex 540 -84.7479 -30
      vertex 540 -86.372 -38.8777
    endloop
  endfacet
  facet normal -1 0 0
    outer loop
      vertex 540 -91.7857 -23.2318
      vertex 540 -84.7479 -30
      vertex 540 -89.2806 -32.6186
    endloop
  endfacet
  facet normal -1 0 0
    outer loop
      vertex 540 -84.7479 -30
      vertex 540 -91.7857 -23.2318
      vertex 540 -88.608 -15.5606
    endloop
  endfacet
  facet normal -1 0 0
    outer loop
      vertex 540 -93.567 -16.5609
      vertex 540 -88.608 -15.5606
      vertex 540 -91.7857 -23.2318
    endloop
  endfacet
  facet normal -1 -0 0
    outer loop
      vertex 540 -88.608 -15.5606
      vertex 540 -93.567 -16.5609
      vertex 540 -88.6517 -15.0588
    endloop
  endfacet
  facet normal -1 0 0
    outer loop
      vertex 540 -94.4106 -6.87996
      vertex 540 -88.6517 -15.0588
      vertex 540 -93.567 -16.5609
    endloop
  endfacet
  facet normal -1 0 0
    outer loop
      vertex 540 -88.6517 -15.0588
      vertex 540 -94.4106 -6.87996
      vertex 540 -89.9662 0
    endloop
  endfacet
  facet normal -1 -0 0
    outer loop
      vertex 540 -89.9662 0
      vertex 540 -94.4106 -6.87996
      vertex 540 -95.0105 0
    endloop
  endfacet
endsolid OpenSCAD_Model
