solid OpenSCAD_Model
  facet normal 1 -0 0
    outer loop
      vertex 4.5 1.6 70
      vertex 4.5 5.8 68
      vertex 4.5 5.8 70
    endloop
  endfacet
  facet normal 1 0 0
    outer loop
      vertex 4.5 5.8 68
      vertex 4.5 1.6 70
      vertex 4.5 1.6 68
    endloop
  endfacet
  facet normal -0 0 1
    outer loop
      vertex 1.5 5.8 70
      vertex 4.5 1.6 70
      vertex 4.5 5.8 70
    endloop
  endfacet
  facet normal 0 0 1
    outer loop
      vertex 4.5 1.6 70
      vertex 1.5 5.8 70
      vertex 1.5 1.6 70
    endloop
  endfacet
  facet normal 0 0 -1
    outer loop
      vertex 1.5 1.6 68
      vertex 4.5 5.8 68
      vertex 4.5 1.6 68
    endloop
  endfacet
  facet normal -0 0 -1
    outer loop
      vertex 4.5 5.8 68
      vertex 1.5 1.6 68
      vertex 1.5 5.8 68
    endloop
  endfacet
  facet normal -1 0 0
    outer loop
      vertex 1.5 1.6 68
      vertex 1.5 5.8 70
      vertex 1.5 5.8 68
    endloop
  endfacet
  facet normal -1 -0 0
    outer loop
      vertex 1.5 5.8 70
      vertex 1.5 1.6 68
      vertex 1.5 1.6 70
    endloop
  endfacet
  facet normal 0 1 -0
    outer loop
      vertex 4.5 5.8 68
      vertex 1.5 5.8 70
      vertex 4.5 5.8 70
    endloop
  endfacet
  facet normal 0 1 0
    outer loop
      vertex 1.5 5.8 70
      vertex 4.5 5.8 68
      vertex 1.5 5.8 68
    endloop
  endfacet
  facet normal 0 -1 0
    outer loop
      vertex 1.5 1.6 68
      vertex 4.5 1.6 70
      vertex 1.5 1.6 70
    endloop
  endfacet
  facet normal 0 -1 -0
    outer loop
      vertex 4.5 1.6 70
      vertex 1.5 1.6 68
      vertex 4.5 1.6 68
    endloop
  endfacet
  facet normal 1 -0 0
    outer loop
      vertex 78.5 2 70
      vertex 78.5 6.2 68
      vertex 78.5 6.2 70
    endloop
  endfacet
  facet normal 1 0 0
    outer loop
      vertex 78.5 6.2 68
      vertex 78.5 2 70
      vertex 78.5 2 68
    endloop
  endfacet
  facet normal -0 0 1
    outer loop
      vertex 75.5 6.2 70
      vertex 78.5 2 70
      vertex 78.5 6.2 70
    endloop
  endfacet
  facet normal 0 0 1
    outer loop
      vertex 78.5 2 70
      vertex 75.5 6.2 70
      vertex 75.5 2 70
    endloop
  endfacet
  facet normal 0 0 -1
    outer loop
      vertex 75.5 2 68
      vertex 78.5 6.2 68
      vertex 78.5 2 68
    endloop
  endfacet
  facet normal -0 0 -1
    outer loop
      vertex 78.5 6.2 68
      vertex 75.5 2 68
      vertex 75.5 6.2 68
    endloop
  endfacet
  facet normal -1 0 0
    outer loop
      vertex 75.5 2 68
      vertex 75.5 6.2 70
      vertex 75.5 6.2 68
    endloop
  endfacet
  facet normal -1 -0 0
    outer loop
      vertex 75.5 6.2 70
      vertex 75.5 2 68
      vertex 75.5 2 70
    endloop
  endfacet
  facet normal 0 1 -0
    outer loop
      vertex 78.5 6.2 68
      vertex 75.5 6.2 70
      vertex 78.5 6.2 70
    endloop
  endfacet
  facet normal 0 1 0
    outer loop
      vertex 75.5 6.2 70
      vertex 78.5 6.2 68
      vertex 75.5 6.2 68
    endloop
  endfacet
  facet normal 0 -1 0
    outer loop
      vertex 75.5 2 68
      vertex 78.5 2 70
      vertex 75.5 2 70
    endloop
  endfacet
  facet normal 0 -1 -0
    outer loop
      vertex 78.5 2 70
      vertex 75.5 2 68
      vertex 78.5 2 68
    endloop
  endfacet
endsolid OpenSCAD_Model
