solid OpenSCAD_Model
  facet normal 0 1 -0
    outer loop
      vertex 1.55 -2.68468 -0.0499992
      vertex -1.55 -2.68468 2.5
      vertex 1.55 -2.68468 2.5
    endloop
  endfacet
  facet normal 0 1 0
    outer loop
      vertex -1.55 -2.68468 2.5
      vertex 1.55 -2.68468 -0.0499992
      vertex -1.55 -2.68468 -0.0499992
    endloop
  endfacet
  facet normal -0.866026 0.5 0
    outer loop
      vertex 1.55 -2.68468 -0.0499992
      vertex 3.1 0 2.5
      vertex 3.1 0 -0.0499992
    endloop
  endfacet
  facet normal -0.866026 0.5 0
    outer loop
      vertex 3.1 0 2.5
      vertex 1.55 -2.68468 -0.0499992
      vertex 1.55 -2.68468 2.5
    endloop
  endfacet
  facet normal 0 -1 0
    outer loop
      vertex -1.55 2.68468 -0.0499992
      vertex 1.55 2.68468 2.5
      vertex -1.55 2.68468 2.5
    endloop
  endfacet
  facet normal 0 -1 -0
    outer loop
      vertex 1.55 2.68468 2.5
      vertex -1.55 2.68468 -0.0499992
      vertex 1.55 2.68468 -0.0499992
    endloop
  endfacet
  facet normal -0.866026 -0.5 0
    outer loop
      vertex 3.1 0 -0.0499992
      vertex 1.55 2.68468 2.5
      vertex 1.55 2.68468 -0.0499992
    endloop
  endfacet
  facet normal -0.866026 -0.5 0
    outer loop
      vertex 1.55 2.68468 2.5
      vertex 3.1 0 -0.0499992
      vertex 3.1 0 2.5
    endloop
  endfacet
  facet normal 0.866026 -0.5 0
    outer loop
      vertex -3.1 0 2.5
      vertex -1.55 2.68468 -0.0499992
      vertex -1.55 2.68468 2.5
    endloop
  endfacet
  facet normal 0.866026 -0.5 0
    outer loop
      vertex -1.55 2.68468 -0.0499992
      vertex -3.1 0 2.5
      vertex -3.1 0 -0.0499992
    endloop
  endfacet
  facet normal 0.866026 0.5 0
    outer loop
      vertex -1.55 -2.68468 2.5
      vertex -3.1 0 -0.0499992
      vertex -3.1 0 2.5
    endloop
  endfacet
  facet normal 0.866026 0.5 0
    outer loop
      vertex -3.1 0 -0.0499992
      vertex -1.55 -2.68468 2.5
      vertex -1.55 -2.68468 -0.0499992
    endloop
  endfacet
  facet normal 0 0 1
    outer loop
      vertex 3.1 0 -0.0499992
      vertex 1.57569 0.277837 -0.0499992
      vertex 1.6 0 -0.0499992
    endloop
  endfacet
  facet normal -0 0 1
    outer loop
      vertex 1.38564 0.799999 -0.0499992
      vertex 3.1 0 -0.0499992
      vertex 1.55 2.68468 -0.0499992
    endloop
  endfacet
  facet normal 0 0 1
    outer loop
      vertex 3.1 0 -0.0499992
      vertex 1.50351 0.547232 -0.0499992
      vertex 1.57569 0.277837 -0.0499992
    endloop
  endfacet
  facet normal 0 0 1
    outer loop
      vertex 3.1 0 -0.0499992
      vertex 1.38564 0.799999 -0.0499992
      vertex 1.50351 0.547232 -0.0499992
    endloop
  endfacet
  facet normal 0 0 1
    outer loop
      vertex 1.55 2.68468 -0.0499992
      vertex 1.22567 1.02846 -0.0499992
      vertex 1.38564 0.799999 -0.0499992
    endloop
  endfacet
  facet normal 0 0 1
    outer loop
      vertex 1.55 2.68468 -0.0499992
      vertex 1.02846 1.22567 -0.0499992
      vertex 1.22567 1.02846 -0.0499992
    endloop
  endfacet
  facet normal 0 0 1
    outer loop
      vertex 1.55 2.68468 -0.0499992
      vertex 0.799999 1.38564 -0.0499992
      vertex 1.02846 1.22567 -0.0499992
    endloop
  endfacet
  facet normal 0 0 1
    outer loop
      vertex 1.55 2.68468 -0.0499992
      vertex 0.547232 1.50351 -0.0499992
      vertex 0.799999 1.38564 -0.0499992
    endloop
  endfacet
  facet normal 0 0 1
    outer loop
      vertex 1.55 2.68468 -0.0499992
      vertex 0.277837 1.57569 -0.0499992
      vertex 0.547232 1.50351 -0.0499992
    endloop
  endfacet
  facet normal 0 0 1
    outer loop
      vertex 1.55 2.68468 -0.0499992
      vertex 0 1.6 -0.0499992
      vertex 0.277837 1.57569 -0.0499992
    endloop
  endfacet
  facet normal -0 0 1
    outer loop
      vertex -1.55 2.68468 -0.0499992
      vertex 0 1.6 -0.0499992
      vertex 1.55 2.68468 -0.0499992
    endloop
  endfacet
  facet normal 0 0 1
    outer loop
      vertex 0 1.6 -0.0499992
      vertex -1.55 2.68468 -0.0499992
      vertex -0.277837 1.57569 -0.0499992
    endloop
  endfacet
  facet normal 0 0 1
    outer loop
      vertex -0.277837 1.57569 -0.0499992
      vertex -1.55 2.68468 -0.0499992
      vertex -0.547232 1.50351 -0.0499992
    endloop
  endfacet
  facet normal 0 0 1
    outer loop
      vertex -0.547232 1.50351 -0.0499992
      vertex -1.55 2.68468 -0.0499992
      vertex -0.799999 1.38564 -0.0499992
    endloop
  endfacet
  facet normal 0 0 1
    outer loop
      vertex -1.55 2.68468 -0.0499992
      vertex -1.02846 1.22567 -0.0499992
      vertex -0.799999 1.38564 -0.0499992
    endloop
  endfacet
  facet normal 0 0 1
    outer loop
      vertex -1.55 2.68468 -0.0499992
      vertex -1.22567 1.02846 -0.0499992
      vertex -1.02846 1.22567 -0.0499992
    endloop
  endfacet
  facet normal 0 0 1
    outer loop
      vertex -1.55 2.68468 -0.0499992
      vertex -1.38564 0.799999 -0.0499992
      vertex -1.22567 1.02846 -0.0499992
    endloop
  endfacet
  facet normal 0 0 1
    outer loop
      vertex -3.1 0 -0.0499992
      vertex -1.38564 0.799999 -0.0499992
      vertex -1.55 2.68468 -0.0499992
    endloop
  endfacet
  facet normal 0 0 1
    outer loop
      vertex -1.38564 0.799999 -0.0499992
      vertex -3.1 0 -0.0499992
      vertex -1.50351 0.547232 -0.0499992
    endloop
  endfacet
  facet normal 0 0 1
    outer loop
      vertex -1.50351 0.547232 -0.0499992
      vertex -3.1 0 -0.0499992
      vertex -1.57569 0.277837 -0.0499992
    endloop
  endfacet
  facet normal 0 0 1
    outer loop
      vertex -1.57569 0.277837 -0.0499992
      vertex -3.1 0 -0.0499992
      vertex -1.6 0 -0.0499992
    endloop
  endfacet
  facet normal 0 0 1
    outer loop
      vertex 1.57569 -0.277837 -0.0499992
      vertex 3.1 0 -0.0499992
      vertex 1.6 0 -0.0499992
    endloop
  endfacet
  facet normal 0 0 1
    outer loop
      vertex 1.50351 -0.547232 -0.0499992
      vertex 3.1 0 -0.0499992
      vertex 1.57569 -0.277837 -0.0499992
    endloop
  endfacet
  facet normal 0 0 1
    outer loop
      vertex 1.38564 -0.799999 -0.0499992
      vertex 3.1 0 -0.0499992
      vertex 1.50351 -0.547232 -0.0499992
    endloop
  endfacet
  facet normal 0 0 1
    outer loop
      vertex 3.1 0 -0.0499992
      vertex 1.38564 -0.799999 -0.0499992
      vertex 1.55 -2.68468 -0.0499992
    endloop
  endfacet
  facet normal -0 0 1
    outer loop
      vertex 1.22567 -1.02846 -0.0499992
      vertex 1.55 -2.68468 -0.0499992
      vertex 1.38564 -0.799999 -0.0499992
    endloop
  endfacet
  facet normal -0 0 1
    outer loop
      vertex 1.02846 -1.22567 -0.0499992
      vertex 1.55 -2.68468 -0.0499992
      vertex 1.22567 -1.02846 -0.0499992
    endloop
  endfacet
  facet normal -0 0 1
    outer loop
      vertex 0.799999 -1.38564 -0.0499992
      vertex 1.55 -2.68468 -0.0499992
      vertex 1.02846 -1.22567 -0.0499992
    endloop
  endfacet
  facet normal -0 0 1
    outer loop
      vertex 0.547232 -1.50351 -0.0499992
      vertex 1.55 -2.68468 -0.0499992
      vertex 0.799999 -1.38564 -0.0499992
    endloop
  endfacet
  facet normal -0 0 1
    outer loop
      vertex 0.277837 -1.57569 -0.0499992
      vertex 1.55 -2.68468 -0.0499992
      vertex 0.547232 -1.50351 -0.0499992
    endloop
  endfacet
  facet normal -0 0 1
    outer loop
      vertex 0 -1.6 -0.0499992
      vertex 1.55 -2.68468 -0.0499992
      vertex 0.277837 -1.57569 -0.0499992
    endloop
  endfacet
  facet normal 0 0 1
    outer loop
      vertex -1.55 -2.68468 -0.0499992
      vertex 0 -1.6 -0.0499992
      vertex -0.277837 -1.57569 -0.0499992
    endloop
  endfacet
  facet normal 0 0 1
    outer loop
      vertex -1.55 -2.68468 -0.0499992
      vertex -0.277837 -1.57569 -0.0499992
      vertex -0.547232 -1.50351 -0.0499992
    endloop
  endfacet
  facet normal 0 0 1
    outer loop
      vertex -1.55 -2.68468 -0.0499992
      vertex -0.547232 -1.50351 -0.0499992
      vertex -0.799999 -1.38564 -0.0499992
    endloop
  endfacet
  facet normal 0 0 1
    outer loop
      vertex 0 -1.6 -0.0499992
      vertex -1.55 -2.68468 -0.0499992
      vertex 1.55 -2.68468 -0.0499992
    endloop
  endfacet
  facet normal 0 0 1
    outer loop
      vertex -1.02846 -1.22567 -0.0499992
      vertex -1.55 -2.68468 -0.0499992
      vertex -0.799999 -1.38564 -0.0499992
    endloop
  endfacet
  facet normal 0 0 1
    outer loop
      vertex -1.22567 -1.02846 -0.0499992
      vertex -1.55 -2.68468 -0.0499992
      vertex -1.02846 -1.22567 -0.0499992
    endloop
  endfacet
  facet normal 0 0 1
    outer loop
      vertex -1.38564 -0.799999 -0.0499992
      vertex -1.55 -2.68468 -0.0499992
      vertex -1.22567 -1.02846 -0.0499992
    endloop
  endfacet
  facet normal 0 0 1
    outer loop
      vertex -3.1 0 -0.0499992
      vertex -1.38564 -0.799999 -0.0499992
      vertex -1.50351 -0.547232 -0.0499992
    endloop
  endfacet
  facet normal 0 0 1
    outer loop
      vertex -3.1 0 -0.0499992
      vertex -1.50351 -0.547232 -0.0499992
      vertex -1.57569 -0.277837 -0.0499992
    endloop
  endfacet
  facet normal -0 0 1
    outer loop
      vertex -3.1 0 -0.0499992
      vertex -1.57569 -0.277837 -0.0499992
      vertex -1.6 0 -0.0499992
    endloop
  endfacet
  facet normal 0 0 1
    outer loop
      vertex -1.38564 -0.799999 -0.0499992
      vertex -3.1 0 -0.0499992
      vertex -1.55 -2.68468 -0.0499992
    endloop
  endfacet
  facet normal 0.258805 -0.96593 0
    outer loop
      vertex -0.547232 1.50351 -2.5
      vertex -0.277837 1.57569 -0.0499992
      vertex -0.547232 1.50351 -0.0499992
    endloop
  endfacet
  facet normal 0.258805 -0.96593 0
    outer loop
      vertex -0.277837 1.57569 -0.0499992
      vertex -0.547232 1.50351 -2.5
      vertex -0.277837 1.57569 -2.5
    endloop
  endfacet
  facet normal -0.96593 -0.258805 0
    outer loop
      vertex 1.57569 0.277837 -2.5
      vertex 1.50351 0.547232 -0.0499992
      vertex 1.50351 0.547232 -2.5
    endloop
  endfacet
  facet normal -0.96593 -0.258805 0
    outer loop
      vertex 1.50351 0.547232 -0.0499992
      vertex 1.57569 0.277837 -2.5
      vertex 1.57569 0.277837 -0.0499992
    endloop
  endfacet
  facet normal -0.996194 -0.0871643 0
    outer loop
      vertex 1.6 0 -2.5
      vertex 1.57569 0.277837 -0.0499992
      vertex 1.57569 0.277837 -2.5
    endloop
  endfacet
  facet normal -0.996194 -0.0871643 0
    outer loop
      vertex 1.57569 0.277837 -0.0499992
      vertex 1.6 0 -2.5
      vertex 1.6 0 -0.0499992
    endloop
  endfacet
  facet normal -0.906304 -0.422627 0
    outer loop
      vertex 1.50351 0.547232 -2.5
      vertex 1.38564 0.799999 -0.0499992
      vertex 1.38564 0.799999 -2.5
    endloop
  endfacet
  facet normal -0.906304 -0.422627 0
    outer loop
      vertex 1.38564 0.799999 -0.0499992
      vertex 1.50351 0.547232 -2.5
      vertex 1.50351 0.547232 -0.0499992
    endloop
  endfacet
  facet normal 0.906304 0.422627 0
    outer loop
      vertex -1.38564 -0.799999 -0.0499992
      vertex -1.50351 -0.547232 -2.5
      vertex -1.50351 -0.547232 -0.0499992
    endloop
  endfacet
  facet normal 0.906304 0.422627 0
    outer loop
      vertex -1.50351 -0.547232 -2.5
      vertex -1.38564 -0.799999 -0.0499992
      vertex -1.38564 -0.799999 -2.5
    endloop
  endfacet
  facet normal -0.906304 0.422627 0
    outer loop
      vertex 1.38564 -0.799999 -2.5
      vertex 1.50351 -0.547232 -0.0499992
      vertex 1.50351 -0.547232 -2.5
    endloop
  endfacet
  facet normal -0.906304 0.422627 0
    outer loop
      vertex 1.50351 -0.547232 -0.0499992
      vertex 1.38564 -0.799999 -2.5
      vertex 1.38564 -0.799999 -0.0499992
    endloop
  endfacet
  facet normal -0.819152 0.573576 0
    outer loop
      vertex 1.22567 -1.02846 -2.5
      vertex 1.38564 -0.799999 -0.0499992
      vertex 1.38564 -0.799999 -2.5
    endloop
  endfacet
  facet normal -0.819152 0.573576 0
    outer loop
      vertex 1.38564 -0.799999 -0.0499992
      vertex 1.22567 -1.02846 -2.5
      vertex 1.22567 -1.02846 -0.0499992
    endloop
  endfacet
  facet normal -0.996194 0.0871643 0
    outer loop
      vertex 1.57569 -0.277837 -2.5
      vertex 1.6 0 -0.0499992
      vertex 1.6 0 -2.5
    endloop
  endfacet
  facet normal -0.996194 0.0871643 0
    outer loop
      vertex 1.6 0 -0.0499992
      vertex 1.57569 -0.277837 -2.5
      vertex 1.57569 -0.277837 -0.0499992
    endloop
  endfacet
  facet normal -0.819152 -0.573576 0
    outer loop
      vertex 1.38564 0.799999 -2.5
      vertex 1.22567 1.02846 -0.0499992
      vertex 1.22567 1.02846 -2.5
    endloop
  endfacet
  facet normal -0.819152 -0.573576 0
    outer loop
      vertex 1.22567 1.02846 -0.0499992
      vertex 1.38564 0.799999 -2.5
      vertex 1.38564 0.799999 -0.0499992
    endloop
  endfacet
  facet normal 0.707107 -0.707107 0
    outer loop
      vertex -1.22567 1.02846 -0.0499992
      vertex -1.02846 1.22567 -2.5
      vertex -1.02846 1.22567 -0.0499992
    endloop
  endfacet
  facet normal 0.707107 -0.707107 0
    outer loop
      vertex -1.02846 1.22567 -2.5
      vertex -1.22567 1.02846 -0.0499992
      vertex -1.22567 1.02846 -2.5
    endloop
  endfacet
  facet normal 0.0871643 -0.996194 0
    outer loop
      vertex -0.277837 1.57569 -2.5
      vertex 0 1.6 -0.0499992
      vertex -0.277837 1.57569 -0.0499992
    endloop
  endfacet
  facet normal 0.0871643 -0.996194 0
    outer loop
      vertex 0 1.6 -0.0499992
      vertex -0.277837 1.57569 -2.5
      vertex 0 1.6 -2.5
    endloop
  endfacet
  facet normal 0.573576 -0.819152 0
    outer loop
      vertex -1.02846 1.22567 -2.5
      vertex -0.799999 1.38564 -0.0499992
      vertex -1.02846 1.22567 -0.0499992
    endloop
  endfacet
  facet normal 0.573576 -0.819152 0
    outer loop
      vertex -0.799999 1.38564 -0.0499992
      vertex -1.02846 1.22567 -2.5
      vertex -0.799999 1.38564 -2.5
    endloop
  endfacet
  facet normal 0.422627 -0.906304 0
    outer loop
      vertex -0.799999 1.38564 -2.5
      vertex -0.547232 1.50351 -0.0499992
      vertex -0.799999 1.38564 -0.0499992
    endloop
  endfacet
  facet normal 0.422627 -0.906304 0
    outer loop
      vertex -0.547232 1.50351 -0.0499992
      vertex -0.799999 1.38564 -2.5
      vertex -0.547232 1.50351 -2.5
    endloop
  endfacet
  facet normal -0.422627 0.906304 0
    outer loop
      vertex 0.799999 -1.38564 -2.5
      vertex 0.547232 -1.50351 -0.0499992
      vertex 0.799999 -1.38564 -0.0499992
    endloop
  endfacet
  facet normal -0.422627 0.906304 0
    outer loop
      vertex 0.547232 -1.50351 -0.0499992
      vertex 0.799999 -1.38564 -2.5
      vertex 0.547232 -1.50351 -2.5
    endloop
  endfacet
  facet normal 0.996194 0.0871643 0
    outer loop
      vertex -1.57569 -0.277837 -0.0499992
      vertex -1.6 0 -2.5
      vertex -1.6 0 -0.0499992
    endloop
  endfacet
  facet normal 0.996194 0.0871643 0
    outer loop
      vertex -1.6 0 -2.5
      vertex -1.57569 -0.277837 -0.0499992
      vertex -1.57569 -0.277837 -2.5
    endloop
  endfacet
  facet normal -0.573576 -0.819152 0
    outer loop
      vertex 0.799999 1.38564 -2.5
      vertex 1.02846 1.22567 -0.0499992
      vertex 0.799999 1.38564 -0.0499992
    endloop
  endfacet
  facet normal -0.573576 -0.819152 -0
    outer loop
      vertex 1.02846 1.22567 -0.0499992
      vertex 0.799999 1.38564 -2.5
      vertex 1.02846 1.22567 -2.5
    endloop
  endfacet
  facet normal -0.258805 -0.96593 0
    outer loop
      vertex 0.277837 1.57569 -2.5
      vertex 0.547232 1.50351 -0.0499992
      vertex 0.277837 1.57569 -0.0499992
    endloop
  endfacet
  facet normal -0.258805 -0.96593 -0
    outer loop
      vertex 0.547232 1.50351 -0.0499992
      vertex 0.277837 1.57569 -2.5
      vertex 0.547232 1.50351 -2.5
    endloop
  endfacet
  facet normal -0.573576 0.819152 0
    outer loop
      vertex 1.02846 -1.22567 -2.5
      vertex 0.799999 -1.38564 -0.0499992
      vertex 1.02846 -1.22567 -0.0499992
    endloop
  endfacet
  facet normal -0.573576 0.819152 0
    outer loop
      vertex 0.799999 -1.38564 -0.0499992
      vertex 1.02846 -1.22567 -2.5
      vertex 0.799999 -1.38564 -2.5
    endloop
  endfacet
  facet normal 0.96593 -0.258805 0
    outer loop
      vertex -1.57569 0.277837 -0.0499992
      vertex -1.50351 0.547232 -2.5
      vertex -1.50351 0.547232 -0.0499992
    endloop
  endfacet
  facet normal 0.96593 -0.258805 0
    outer loop
      vertex -1.50351 0.547232 -2.5
      vertex -1.57569 0.277837 -0.0499992
      vertex -1.57569 0.277837 -2.5
    endloop
  endfacet
  facet normal -0.422627 -0.906304 0
    outer loop
      vertex 0.547232 1.50351 -2.5
      vertex 0.799999 1.38564 -0.0499992
      vertex 0.547232 1.50351 -0.0499992
    endloop
  endfacet
  facet normal -0.422627 -0.906304 -0
    outer loop
      vertex 0.799999 1.38564 -0.0499992
      vertex 0.547232 1.50351 -2.5
      vertex 0.799999 1.38564 -2.5
    endloop
  endfacet
  facet normal 0.819152 -0.573576 0
    outer loop
      vertex -1.38564 0.799999 -0.0499992
      vertex -1.22567 1.02846 -2.5
      vertex -1.22567 1.02846 -0.0499992
    endloop
  endfacet
  facet normal 0.819152 -0.573576 0
    outer loop
      vertex -1.22567 1.02846 -2.5
      vertex -1.38564 0.799999 -0.0499992
      vertex -1.38564 0.799999 -2.5
    endloop
  endfacet
  facet normal 0.819152 0.573576 0
    outer loop
      vertex -1.22567 -1.02846 -0.0499992
      vertex -1.38564 -0.799999 -2.5
      vertex -1.38564 -0.799999 -0.0499992
    endloop
  endfacet
  facet normal 0.819152 0.573576 0
    outer loop
      vertex -1.38564 -0.799999 -2.5
      vertex -1.22567 -1.02846 -0.0499992
      vertex -1.22567 -1.02846 -2.5
    endloop
  endfacet
  facet normal -0.258805 0.96593 0
    outer loop
      vertex 0.547232 -1.50351 -2.5
      vertex 0.277837 -1.57569 -0.0499992
      vertex 0.547232 -1.50351 -0.0499992
    endloop
  endfacet
  facet normal -0.258805 0.96593 0
    outer loop
      vertex 0.277837 -1.57569 -0.0499992
      vertex 0.547232 -1.50351 -2.5
      vertex 0.277837 -1.57569 -2.5
    endloop
  endfacet
  facet normal -0.707107 0.707107 0
    outer loop
      vertex 1.02846 -1.22567 -2.5
      vertex 1.22567 -1.02846 -0.0499992
      vertex 1.22567 -1.02846 -2.5
    endloop
  endfacet
  facet normal -0.707107 0.707107 0
    outer loop
      vertex 1.22567 -1.02846 -0.0499992
      vertex 1.02846 -1.22567 -2.5
      vertex 1.02846 -1.22567 -0.0499992
    endloop
  endfacet
  facet normal -0.707107 -0.707107 0
    outer loop
      vertex 1.22567 1.02846 -2.5
      vertex 1.02846 1.22567 -0.0499992
      vertex 1.02846 1.22567 -2.5
    endloop
  endfacet
  facet normal -0.707107 -0.707107 0
    outer loop
      vertex 1.02846 1.22567 -0.0499992
      vertex 1.22567 1.02846 -2.5
      vertex 1.22567 1.02846 -0.0499992
    endloop
  endfacet
  facet normal -0.96593 0.258805 0
    outer loop
      vertex 1.50351 -0.547232 -2.5
      vertex 1.57569 -0.277837 -0.0499992
      vertex 1.57569 -0.277837 -2.5
    endloop
  endfacet
  facet normal -0.96593 0.258805 0
    outer loop
      vertex 1.57569 -0.277837 -0.0499992
      vertex 1.50351 -0.547232 -2.5
      vertex 1.50351 -0.547232 -0.0499992
    endloop
  endfacet
  facet normal 0.707107 0.707107 0
    outer loop
      vertex -1.02846 -1.22567 -0.0499992
      vertex -1.22567 -1.02846 -2.5
      vertex -1.22567 -1.02846 -0.0499992
    endloop
  endfacet
  facet normal 0.707107 0.707107 0
    outer loop
      vertex -1.22567 -1.02846 -2.5
      vertex -1.02846 -1.22567 -0.0499992
      vertex -1.02846 -1.22567 -2.5
    endloop
  endfacet
  facet normal 0.906304 -0.422627 0
    outer loop
      vertex -1.50351 0.547232 -0.0499992
      vertex -1.38564 0.799999 -2.5
      vertex -1.38564 0.799999 -0.0499992
    endloop
  endfacet
  facet normal 0.906304 -0.422627 0
    outer loop
      vertex -1.38564 0.799999 -2.5
      vertex -1.50351 0.547232 -0.0499992
      vertex -1.50351 0.547232 -2.5
    endloop
  endfacet
  facet normal 0.573576 0.819152 -0
    outer loop
      vertex -0.799999 -1.38564 -2.5
      vertex -1.02846 -1.22567 -0.0499992
      vertex -0.799999 -1.38564 -0.0499992
    endloop
  endfacet
  facet normal 0.573576 0.819152 0
    outer loop
      vertex -1.02846 -1.22567 -0.0499992
      vertex -0.799999 -1.38564 -2.5
      vertex -1.02846 -1.22567 -2.5
    endloop
  endfacet
  facet normal -0.0871643 0.996194 0
    outer loop
      vertex 0.277837 -1.57569 -2.5
      vertex 0 -1.6 -0.0499992
      vertex 0.277837 -1.57569 -0.0499992
    endloop
  endfacet
  facet normal -0.0871643 0.996194 0
    outer loop
      vertex 0 -1.6 -0.0499992
      vertex 0.277837 -1.57569 -2.5
      vertex 0 -1.6 -2.5
    endloop
  endfacet
  facet normal -0.0871643 -0.996194 0
    outer loop
      vertex 0 1.6 -2.5
      vertex 0.277837 1.57569 -0.0499992
      vertex 0 1.6 -0.0499992
    endloop
  endfacet
  facet normal -0.0871643 -0.996194 -0
    outer loop
      vertex 0.277837 1.57569 -0.0499992
      vertex 0 1.6 -2.5
      vertex 0.277837 1.57569 -2.5
    endloop
  endfacet
  facet normal 0.0871643 0.996194 -0
    outer loop
      vertex 0 -1.6 -2.5
      vertex -0.277837 -1.57569 -0.0499992
      vertex 0 -1.6 -0.0499992
    endloop
  endfacet
  facet normal 0.0871643 0.996194 0
    outer loop
      vertex -0.277837 -1.57569 -0.0499992
      vertex 0 -1.6 -2.5
      vertex -0.277837 -1.57569 -2.5
    endloop
  endfacet
  facet normal 0.258805 0.96593 -0
    outer loop
      vertex -0.277837 -1.57569 -2.5
      vertex -0.547232 -1.50351 -0.0499992
      vertex -0.277837 -1.57569 -0.0499992
    endloop
  endfacet
  facet normal 0.258805 0.96593 0
    outer loop
      vertex -0.547232 -1.50351 -0.0499992
      vertex -0.277837 -1.57569 -2.5
      vertex -0.547232 -1.50351 -2.5
    endloop
  endfacet
  facet normal 0.996194 -0.0871643 0
    outer loop
      vertex -1.6 0 -0.0499992
      vertex -1.57569 0.277837 -2.5
      vertex -1.57569 0.277837 -0.0499992
    endloop
  endfacet
  facet normal 0.996194 -0.0871643 0
    outer loop
      vertex -1.57569 0.277837 -2.5
      vertex -1.6 0 -0.0499992
      vertex -1.6 0 -2.5
    endloop
  endfacet
  facet normal 0.96593 0.258805 0
    outer loop
      vertex -1.50351 -0.547232 -0.0499992
      vertex -1.57569 -0.277837 -2.5
      vertex -1.57569 -0.277837 -0.0499992
    endloop
  endfacet
  facet normal 0.96593 0.258805 0
    outer loop
      vertex -1.57569 -0.277837 -2.5
      vertex -1.50351 -0.547232 -0.0499992
      vertex -1.50351 -0.547232 -2.5
    endloop
  endfacet
  facet normal 0.422627 0.906304 -0
    outer loop
      vertex -0.547232 -1.50351 -2.5
      vertex -0.799999 -1.38564 -0.0499992
      vertex -0.547232 -1.50351 -0.0499992
    endloop
  endfacet
  facet normal 0.422627 0.906304 0
    outer loop
      vertex -0.799999 -1.38564 -0.0499992
      vertex -0.547232 -1.50351 -2.5
      vertex -0.799999 -1.38564 -2.5
    endloop
  endfacet
  facet normal 1 -0 0
    outer loop
      vertex 15 -15 2.5
      vertex 15 15 -2.5
      vertex 15 15 2.5
    endloop
  endfacet
  facet normal 1 0 0
    outer loop
      vertex 15 15 -2.5
      vertex 15 -15 2.5
      vertex 15 -15 -2.5
    endloop
  endfacet
  facet normal 0 0 1
    outer loop
      vertex 15 15 2.5
      vertex 3.1 0 2.5
      vertex 15 -15 2.5
    endloop
  endfacet
  facet normal 0 0 1
    outer loop
      vertex 15 15 2.5
      vertex 1.55 2.68468 2.5
      vertex 3.1 0 2.5
    endloop
  endfacet
  facet normal 0 0 1
    outer loop
      vertex 15 15 2.5
      vertex -1.55 2.68468 2.5
      vertex 1.55 2.68468 2.5
    endloop
  endfacet
  facet normal 0 0 1
    outer loop
      vertex -1.55 2.68468 2.5
      vertex -15 15 2.5
      vertex -3.1 0 2.5
    endloop
  endfacet
  facet normal -0 0 1
    outer loop
      vertex -15 15 2.5
      vertex -1.55 2.68468 2.5
      vertex 15 15 2.5
    endloop
  endfacet
  facet normal -0 0 1
    outer loop
      vertex 1.55 -2.68468 2.5
      vertex 15 -15 2.5
      vertex 3.1 0 2.5
    endloop
  endfacet
  facet normal -0 0 1
    outer loop
      vertex -1.55 -2.68468 2.5
      vertex 15 -15 2.5
      vertex 1.55 -2.68468 2.5
    endloop
  endfacet
  facet normal 0 0 1
    outer loop
      vertex -15 -15 2.5
      vertex -3.1 0 2.5
      vertex -15 15 2.5
    endloop
  endfacet
  facet normal 0 0 1
    outer loop
      vertex -1.55 -2.68468 2.5
      vertex -15 -15 2.5
      vertex 15 -15 2.5
    endloop
  endfacet
  facet normal 0 0 1
    outer loop
      vertex -3.1 0 2.5
      vertex -15 -15 2.5
      vertex -1.55 -2.68468 2.5
    endloop
  endfacet
  facet normal 0 0 -1
    outer loop
      vertex 15 -15 -2.5
      vertex 1.6 0 -2.5
      vertex 15 15 -2.5
    endloop
  endfacet
  facet normal 0 0 -1
    outer loop
      vertex 15 -15 -2.5
      vertex 1.57569 -0.277837 -2.5
      vertex 1.6 0 -2.5
    endloop
  endfacet
  facet normal 0 0 -1
    outer loop
      vertex 15 -15 -2.5
      vertex 1.50351 -0.547232 -2.5
      vertex 1.57569 -0.277837 -2.5
    endloop
  endfacet
  facet normal 0 0 -1
    outer loop
      vertex 15 -15 -2.5
      vertex 1.38564 -0.799999 -2.5
      vertex 1.50351 -0.547232 -2.5
    endloop
  endfacet
  facet normal 0 0 -1
    outer loop
      vertex 15 -15 -2.5
      vertex 1.22567 -1.02846 -2.5
      vertex 1.38564 -0.799999 -2.5
    endloop
  endfacet
  facet normal 0 0 -1
    outer loop
      vertex 15 -15 -2.5
      vertex 1.02846 -1.22567 -2.5
      vertex 1.22567 -1.02846 -2.5
    endloop
  endfacet
  facet normal 0 0 -1
    outer loop
      vertex 15 -15 -2.5
      vertex 0.799999 -1.38564 -2.5
      vertex 1.02846 -1.22567 -2.5
    endloop
  endfacet
  facet normal 0 0 -1
    outer loop
      vertex 15 -15 -2.5
      vertex 0.547232 -1.50351 -2.5
      vertex 0.799999 -1.38564 -2.5
    endloop
  endfacet
  facet normal 0 0 -1
    outer loop
      vertex 15 -15 -2.5
      vertex 0.277837 -1.57569 -2.5
      vertex 0.547232 -1.50351 -2.5
    endloop
  endfacet
  facet normal 0 0 -1
    outer loop
      vertex 15 -15 -2.5
      vertex 0 -1.6 -2.5
      vertex 0.277837 -1.57569 -2.5
    endloop
  endfacet
  facet normal 0 0 -1
    outer loop
      vertex -15 -15 -2.5
      vertex 0 -1.6 -2.5
      vertex 15 -15 -2.5
    endloop
  endfacet
  facet normal -0 0 -1
    outer loop
      vertex 0 -1.6 -2.5
      vertex -15 -15 -2.5
      vertex -0.277837 -1.57569 -2.5
    endloop
  endfacet
  facet normal -0 0 -1
    outer loop
      vertex -0.277837 -1.57569 -2.5
      vertex -15 -15 -2.5
      vertex -0.547232 -1.50351 -2.5
    endloop
  endfacet
  facet normal -0 0 -1
    outer loop
      vertex -0.547232 -1.50351 -2.5
      vertex -15 -15 -2.5
      vertex -0.799999 -1.38564 -2.5
    endloop
  endfacet
  facet normal -0 0 -1
    outer loop
      vertex -1.57569 -0.277837 -2.5
      vertex -15 -15 -2.5
      vertex -1.6 0 -2.5
    endloop
  endfacet
  facet normal -0 0 -1
    outer loop
      vertex -1.50351 -0.547232 -2.5
      vertex -15 -15 -2.5
      vertex -1.57569 -0.277837 -2.5
    endloop
  endfacet
  facet normal -0 0 -1
    outer loop
      vertex -1.38564 -0.799999 -2.5
      vertex -15 -15 -2.5
      vertex -1.50351 -0.547232 -2.5
    endloop
  endfacet
  facet normal -0 0 -1
    outer loop
      vertex -1.22567 -1.02846 -2.5
      vertex -15 -15 -2.5
      vertex -1.38564 -0.799999 -2.5
    endloop
  endfacet
  facet normal -0 0 -1
    outer loop
      vertex -1.02846 -1.22567 -2.5
      vertex -15 -15 -2.5
      vertex -1.22567 -1.02846 -2.5
    endloop
  endfacet
  facet normal -0 0 -1
    outer loop
      vertex -0.799999 -1.38564 -2.5
      vertex -15 -15 -2.5
      vertex -1.02846 -1.22567 -2.5
    endloop
  endfacet
  facet normal 0 0 -1
    outer loop
      vertex 1.57569 0.277837 -2.5
      vertex 15 15 -2.5
      vertex 1.6 0 -2.5
    endloop
  endfacet
  facet normal 0 0 -1
    outer loop
      vertex 1.50351 0.547232 -2.5
      vertex 15 15 -2.5
      vertex 1.57569 0.277837 -2.5
    endloop
  endfacet
  facet normal 0 0 -1
    outer loop
      vertex 1.38564 0.799999 -2.5
      vertex 15 15 -2.5
      vertex 1.50351 0.547232 -2.5
    endloop
  endfacet
  facet normal 0 0 -1
    outer loop
      vertex 1.22567 1.02846 -2.5
      vertex 15 15 -2.5
      vertex 1.38564 0.799999 -2.5
    endloop
  endfacet
  facet normal 0 0 -1
    outer loop
      vertex 1.02846 1.22567 -2.5
      vertex 15 15 -2.5
      vertex 1.22567 1.02846 -2.5
    endloop
  endfacet
  facet normal 0 0 -1
    outer loop
      vertex 0.799999 1.38564 -2.5
      vertex 15 15 -2.5
      vertex 1.02846 1.22567 -2.5
    endloop
  endfacet
  facet normal 0 0 -1
    outer loop
      vertex 0.547232 1.50351 -2.5
      vertex 15 15 -2.5
      vertex 0.799999 1.38564 -2.5
    endloop
  endfacet
  facet normal 0 0 -1
    outer loop
      vertex 0.277837 1.57569 -2.5
      vertex 15 15 -2.5
      vertex 0.547232 1.50351 -2.5
    endloop
  endfacet
  facet normal 0 0 -1
    outer loop
      vertex 0 1.6 -2.5
      vertex 15 15 -2.5
      vertex 0.277837 1.57569 -2.5
    endloop
  endfacet
  facet normal 0 0 -1
    outer loop
      vertex -15 15 -2.5
      vertex 0 1.6 -2.5
      vertex -0.277837 1.57569 -2.5
    endloop
  endfacet
  facet normal 0 0 -1
    outer loop
      vertex -15 15 -2.5
      vertex -0.277837 1.57569 -2.5
      vertex -0.547232 1.50351 -2.5
    endloop
  endfacet
  facet normal 0 0 -1
    outer loop
      vertex -15 15 -2.5
      vertex -0.547232 1.50351 -2.5
      vertex -0.799999 1.38564 -2.5
    endloop
  endfacet
  facet normal 0 0 -1
    outer loop
      vertex -15 15 -2.5
      vertex -0.799999 1.38564 -2.5
      vertex -1.02846 1.22567 -2.5
    endloop
  endfacet
  facet normal 0 0 -1
    outer loop
      vertex -15 15 -2.5
      vertex -1.6 0 -2.5
      vertex -15 -15 -2.5
    endloop
  endfacet
  facet normal 0 0 -1
    outer loop
      vertex -1.6 0 -2.5
      vertex -15 15 -2.5
      vertex -1.57569 0.277837 -2.5
    endloop
  endfacet
  facet normal 0 0 -1
    outer loop
      vertex -1.57569 0.277837 -2.5
      vertex -15 15 -2.5
      vertex -1.50351 0.547232 -2.5
    endloop
  endfacet
  facet normal 0 0 -1
    outer loop
      vertex -1.50351 0.547232 -2.5
      vertex -15 15 -2.5
      vertex -1.38564 0.799999 -2.5
    endloop
  endfacet
  facet normal 0 0 -1
    outer loop
      vertex 0 1.6 -2.5
      vertex -15 15 -2.5
      vertex 15 15 -2.5
    endloop
  endfacet
  facet normal 0 0 -1
    outer loop
      vertex -1.22567 1.02846 -2.5
      vertex -15 15 -2.5
      vertex -1.02846 1.22567 -2.5
    endloop
  endfacet
  facet normal 0 0 -1
    outer loop
      vertex -1.38564 0.799999 -2.5
      vertex -15 15 -2.5
      vertex -1.22567 1.02846 -2.5
    endloop
  endfacet
  facet normal -1 0 0
    outer loop
      vertex -15 -15 -2.5
      vertex -15 15 2.5
      vertex -15 15 -2.5
    endloop
  endfacet
  facet normal -1 -0 0
    outer loop
      vertex -15 15 2.5
      vertex -15 -15 -2.5
      vertex -15 -15 2.5
    endloop
  endfacet
  facet normal 0 1 -0
    outer loop
      vertex 15 15 -2.5
      vertex -15 15 2.5
      vertex 15 15 2.5
    endloop
  endfacet
  facet normal 0 1 0
    outer loop
      vertex -15 15 2.5
      vertex 15 15 -2.5
      vertex -15 15 -2.5
    endloop
  endfacet
  facet normal 0 -1 0
    outer loop
      vertex -15 -15 -2.5
      vertex 15 -15 2.5
      vertex -15 -15 2.5
    endloop
  endfacet
  facet normal 0 -1 -0
    outer loop
      vertex 15 -15 2.5
      vertex -15 -15 -2.5
      vertex 15 -15 -2.5
    endloop
  endfacet
  facet normal 0 1 -0
    outer loop
      vertex 3.5 6.5 2.5
      vertex -3.5 6.5 2.71
      vertex 3.5 6.5 2.71
    endloop
  endfacet
  facet normal 0 1 0
    outer loop
      vertex -3.5 6.5 2.71
      vertex 3.5 6.5 2.5
      vertex -3.5 6.5 2.5
    endloop
  endfacet
  facet normal 0.573588 0.819144 -0
    outer loop
      vertex 5.42836 5.79813 2.5
      vertex 5 6.09808 2.71
      vertex 5.42836 5.79813 2.71
    endloop
  endfacet
  facet normal 0.573588 0.819144 0
    outer loop
      vertex 5 6.09808 2.71
      vertex 5.42836 5.79813 2.5
      vertex 5 6.09808 2.5
    endloop
  endfacet
  facet normal -0.422615 -0.906309 0
    outer loop
      vertex -5 -6.09808 2.5
      vertex -4.52606 -6.31908 2.71
      vertex -5 -6.09808 2.71
    endloop
  endfacet
  facet normal -0.422615 -0.906309 -0
    outer loop
      vertex -4.52606 -6.31908 2.71
      vertex -5 -6.09808 2.5
      vertex -4.52606 -6.31908 2.5
    endloop
  endfacet
  facet normal -0.819144 -0.573588 0
    outer loop
      vertex -5.79813 -5.42836 2.5
      vertex -6.09808 -5 2.71
      vertex -6.09808 -5 2.5
    endloop
  endfacet
  facet normal -0.819144 -0.573588 0
    outer loop
      vertex -6.09808 -5 2.71
      vertex -5.79813 -5.42836 2.5
      vertex -5.79813 -5.42836 2.71
    endloop
  endfacet
  facet normal 0.258807 0.965929 -0
    outer loop
      vertex 4.52606 6.31908 2.5
      vertex 4.02094 6.45442 2.71
      vertex 4.52606 6.31908 2.71
    endloop
  endfacet
  facet normal 0.258807 0.965929 0
    outer loop
      vertex 4.02094 6.45442 2.71
      vertex 4.52606 6.31908 2.5
      vertex 4.02094 6.45442 2.5
    endloop
  endfacet
  facet normal -0.573588 -0.819144 0
    outer loop
      vertex -5.42836 -5.79813 2.5
      vertex -5 -6.09808 2.71
      vertex -5.42836 -5.79813 2.71
    endloop
  endfacet
  facet normal -0.573588 -0.819144 -0
    outer loop
      vertex -5 -6.09808 2.71
      vertex -5.42836 -5.79813 2.5
      vertex -5 -6.09808 2.5
    endloop
  endfacet
  facet normal 0.906309 0.422615 0
    outer loop
      vertex 6.31908 4.52606 2.71
      vertex 6.09808 5 2.5
      vertex 6.09808 5 2.71
    endloop
  endfacet
  facet normal 0.906309 0.422615 0
    outer loop
      vertex 6.09808 5 2.5
      vertex 6.31908 4.52606 2.71
      vertex 6.31908 4.52606 2.5
    endloop
  endfacet
  facet normal 0.819144 -0.573588 0
    outer loop
      vertex 5.79813 -5.42836 2.71
      vertex 6.09808 -5 2.5
      vertex 6.09808 -5 2.71
    endloop
  endfacet
  facet normal 0.819144 -0.573588 0
    outer loop
      vertex 6.09808 -5 2.5
      vertex 5.79813 -5.42836 2.71
      vertex 5.79813 -5.42836 2.5
    endloop
  endfacet
  facet normal 0.965929 0.258807 0
    outer loop
      vertex 6.45442 4.02094 2.71
      vertex 6.31908 4.52606 2.5
      vertex 6.31908 4.52606 2.71
    endloop
  endfacet
  facet normal 0.965929 0.258807 0
    outer loop
      vertex 6.31908 4.52606 2.5
      vertex 6.45442 4.02094 2.71
      vertex 6.45442 4.02094 2.5
    endloop
  endfacet
  facet normal 0.0871627 0.996194 -0
    outer loop
      vertex 4.02094 6.45442 2.5
      vertex 3.5 6.5 2.71
      vertex 4.02094 6.45442 2.71
    endloop
  endfacet
  facet normal 0.0871627 0.996194 0
    outer loop
      vertex 3.5 6.5 2.71
      vertex 4.02094 6.45442 2.5
      vertex 3.5 6.5 2.5
    endloop
  endfacet
  facet normal 0.422615 0.906309 -0
    outer loop
      vertex 5 6.09808 2.5
      vertex 4.52606 6.31908 2.71
      vertex 5 6.09808 2.71
    endloop
  endfacet
  facet normal 0.422615 0.906309 0
    outer loop
      vertex 4.52606 6.31908 2.71
      vertex 5 6.09808 2.5
      vertex 4.52606 6.31908 2.5
    endloop
  endfacet
  facet normal 1 -0 0
    outer loop
      vertex 6.5 -3.5 2.71
      vertex 6.5 3.5 2.5
      vertex 6.5 3.5 2.71
    endloop
  endfacet
  facet normal 1 0 0
    outer loop
      vertex 6.5 3.5 2.5
      vertex 6.5 -3.5 2.71
      vertex 6.5 -3.5 2.5
    endloop
  endfacet
  facet normal -0.965929 0.258807 0
    outer loop
      vertex -6.45442 4.02094 2.5
      vertex -6.31908 4.52606 2.71
      vertex -6.31908 4.52606 2.5
    endloop
  endfacet
  facet normal -0.965929 0.258807 0
    outer loop
      vertex -6.31908 4.52606 2.71
      vertex -6.45442 4.02094 2.5
      vertex -6.45442 4.02094 2.71
    endloop
  endfacet
  facet normal 0 0 -1
    outer loop
      vertex 5.56908 -3.77606 2.5
      vertex 6.5 -3.5 2.5
      vertex 6.45442 -4.02094 2.5
    endloop
  endfacet
  facet normal 0 0 -1
    outer loop
      vertex 6.5 -3.5 2.5
      vertex 5.75 -2.75 2.5
      vertex 6.5 3.5 2.5
    endloop
  endfacet
  facet normal 0 0 -1
    outer loop
      vertex 5.56908 -3.77606 2.5
      vertex 6.45442 -4.02094 2.5
      vertex 6.31908 -4.52606 2.5
    endloop
  endfacet
  facet normal 0 0 -1
    outer loop
      vertex 5.75 2.75 2.5
      vertex 6.5 3.5 2.5
      vertex 5.75 -2.75 2.5
    endloop
  endfacet
  facet normal 0 0 -1
    outer loop
      vertex 5.34808 -4.25 2.5
      vertex 6.31908 -4.52606 2.5
      vertex 6.09808 -5 2.5
    endloop
  endfacet
  facet normal 0 0 -1
    outer loop
      vertex 5.70442 3.27094 2.5
      vertex 6.5 3.5 2.5
      vertex 5.75 2.75 2.5
    endloop
  endfacet
  facet normal 0 0 -1
    outer loop
      vertex 5.04813 -4.67836 2.5
      vertex 6.09808 -5 2.5
      vertex 5.79813 -5.42836 2.5
    endloop
  endfacet
  facet normal 0 0 -1
    outer loop
      vertex 5.56908 3.77606 2.5
      vertex 6.5 3.5 2.5
      vertex 5.70442 3.27094 2.5
    endloop
  endfacet
  facet normal 0 0 -1
    outer loop
      vertex 6.5 3.5 2.5
      vertex 5.56908 3.77606 2.5
      vertex 6.45442 4.02094 2.5
    endloop
  endfacet
  facet normal 0 0 -1
    outer loop
      vertex 6.5 -3.5 2.5
      vertex 5.70442 -3.27094 2.5
      vertex 5.75 -2.75 2.5
    endloop
  endfacet
  facet normal -0 0 -1
    outer loop
      vertex 6.5 -3.5 2.5
      vertex 5.56908 -3.77606 2.5
      vertex 5.70442 -3.27094 2.5
    endloop
  endfacet
  facet normal 0 0 -1
    outer loop
      vertex 5.04813 -4.67836 2.5
      vertex 5.79813 -5.42836 2.5
      vertex 5.42836 -5.79813 2.5
    endloop
  endfacet
  facet normal 0 0 -1
    outer loop
      vertex 6.31908 -4.52606 2.5
      vertex 5.34808 -4.25 2.5
      vertex 5.56908 -3.77606 2.5
    endloop
  endfacet
  facet normal 0 0 -1
    outer loop
      vertex 6.09808 -5 2.5
      vertex 5.04813 -4.67836 2.5
      vertex 5.34808 -4.25 2.5
    endloop
  endfacet
  facet normal 0 0 -1
    outer loop
      vertex 4.67836 -5.04813 2.5
      vertex 5.42836 -5.79813 2.5
      vertex 5 -6.09808 2.5
    endloop
  endfacet
  facet normal 0 0 -1
    outer loop
      vertex 5.42836 -5.79813 2.5
      vertex 4.67836 -5.04813 2.5
      vertex 5.04813 -4.67836 2.5
    endloop
  endfacet
  facet normal 0 0 -1
    outer loop
      vertex 4.25 -5.34808 2.5
      vertex 5 -6.09808 2.5
      vertex 4.52606 -6.31908 2.5
    endloop
  endfacet
  facet normal 0 0 -1
    outer loop
      vertex 5 -6.09808 2.5
      vertex 4.25 -5.34808 2.5
      vertex 4.67836 -5.04813 2.5
    endloop
  endfacet
  facet normal 0 0 -1
    outer loop
      vertex 3.77606 -5.56908 2.5
      vertex 4.52606 -6.31908 2.5
      vertex 4.02094 -6.45442 2.5
    endloop
  endfacet
  facet normal 0 0 -1
    outer loop
      vertex 4.52606 -6.31908 2.5
      vertex 3.77606 -5.56908 2.5
      vertex 4.25 -5.34808 2.5
    endloop
  endfacet
  facet normal 0 0 -1
    outer loop
      vertex 3.5 -6.5 2.5
      vertex 3.77606 -5.56908 2.5
      vertex 4.02094 -6.45442 2.5
    endloop
  endfacet
  facet normal 0 0 -1
    outer loop
      vertex 3.5 -6.5 2.5
      vertex 3.27094 -5.70442 2.5
      vertex 3.77606 -5.56908 2.5
    endloop
  endfacet
  facet normal 0 0 -1
    outer loop
      vertex 3.5 -6.5 2.5
      vertex 2.75 -5.75 2.5
      vertex 3.27094 -5.70442 2.5
    endloop
  endfacet
  facet normal 0 0 -1
    outer loop
      vertex 3.5 -6.5 2.5
      vertex -2.75 -5.75 2.5
      vertex 2.75 -5.75 2.5
    endloop
  endfacet
  facet normal 0 0 -1
    outer loop
      vertex -3.5 -6.5 2.5
      vertex -2.75 -5.75 2.5
      vertex 3.5 -6.5 2.5
    endloop
  endfacet
  facet normal -0 0 -1
    outer loop
      vertex -2.75 -5.75 2.5
      vertex -3.5 -6.5 2.5
      vertex -3.27094 -5.70442 2.5
    endloop
  endfacet
  facet normal 0 0 -1
    outer loop
      vertex -3.5 -6.5 2.5
      vertex -3.77606 -5.56908 2.5
      vertex -3.27094 -5.70442 2.5
    endloop
  endfacet
  facet normal 0 0 -1
    outer loop
      vertex -4.02094 -6.45442 2.5
      vertex -3.77606 -5.56908 2.5
      vertex -3.5 -6.5 2.5
    endloop
  endfacet
  facet normal 0 0 -1
    outer loop
      vertex -4.52606 -6.31908 2.5
      vertex -3.77606 -5.56908 2.5
      vertex -4.02094 -6.45442 2.5
    endloop
  endfacet
  facet normal -0 0 -1
    outer loop
      vertex -3.77606 -5.56908 2.5
      vertex -4.52606 -6.31908 2.5
      vertex -4.25 -5.34808 2.5
    endloop
  endfacet
  facet normal 0 0 -1
    outer loop
      vertex -5 -6.09808 2.5
      vertex -4.25 -5.34808 2.5
      vertex -4.52606 -6.31908 2.5
    endloop
  endfacet
  facet normal -0 0 -1
    outer loop
      vertex -4.25 -5.34808 2.5
      vertex -5 -6.09808 2.5
      vertex -4.67836 -5.04813 2.5
    endloop
  endfacet
  facet normal 0 0 -1
    outer loop
      vertex -5.42836 -5.79813 2.5
      vertex -4.67836 -5.04813 2.5
      vertex -5 -6.09808 2.5
    endloop
  endfacet
  facet normal -0 0 -1
    outer loop
      vertex -4.67836 -5.04813 2.5
      vertex -5.42836 -5.79813 2.5
      vertex -5.04813 -4.67836 2.5
    endloop
  endfacet
  facet normal 0 0 -1
    outer loop
      vertex -5.79813 -5.42836 2.5
      vertex -5.04813 -4.67836 2.5
      vertex -5.42836 -5.79813 2.5
    endloop
  endfacet
  facet normal 0 0 -1
    outer loop
      vertex -6.09808 -5 2.5
      vertex -5.04813 -4.67836 2.5
      vertex -5.79813 -5.42836 2.5
    endloop
  endfacet
  facet normal -0 0 -1
    outer loop
      vertex -5.04813 -4.67836 2.5
      vertex -6.09808 -5 2.5
      vertex -5.34808 -4.25 2.5
    endloop
  endfacet
  facet normal 0 0 -1
    outer loop
      vertex -6.45442 -4.02094 2.5
      vertex -5.56908 -3.77606 2.5
      vertex -6.31908 -4.52606 2.5
    endloop
  endfacet
  facet normal -0 0 -1
    outer loop
      vertex -5.34808 -4.25 2.5
      vertex -6.31908 -4.52606 2.5
      vertex -5.56908 -3.77606 2.5
    endloop
  endfacet
  facet normal 0 0 -1
    outer loop
      vertex -6.31908 -4.52606 2.5
      vertex -5.34808 -4.25 2.5
      vertex -6.09808 -5 2.5
    endloop
  endfacet
  facet normal -0 0 -1
    outer loop
      vertex 6.45442 4.02094 2.5
      vertex 5.56908 3.77606 2.5
      vertex 6.31908 4.52606 2.5
    endloop
  endfacet
  facet normal 0 0 -1
    outer loop
      vertex 5.34808 4.25 2.5
      vertex 6.31908 4.52606 2.5
      vertex 5.56908 3.77606 2.5
    endloop
  endfacet
  facet normal -0 0 -1
    outer loop
      vertex 6.31908 4.52606 2.5
      vertex 5.34808 4.25 2.5
      vertex 6.09808 5 2.5
    endloop
  endfacet
  facet normal 0 0 -1
    outer loop
      vertex 5.04813 4.67836 2.5
      vertex 6.09808 5 2.5
      vertex 5.34808 4.25 2.5
    endloop
  endfacet
  facet normal -0 0 -1
    outer loop
      vertex 6.09808 5 2.5
      vertex 5.04813 4.67836 2.5
      vertex 5.79813 5.42836 2.5
    endloop
  endfacet
  facet normal -0 0 -1
    outer loop
      vertex 5.79813 5.42836 2.5
      vertex 5.04813 4.67836 2.5
      vertex 5.42836 5.79813 2.5
    endloop
  endfacet
  facet normal 0 0 -1
    outer loop
      vertex 4.67836 5.04813 2.5
      vertex 5.42836 5.79813 2.5
      vertex 5.04813 4.67836 2.5
    endloop
  endfacet
  facet normal -0 0 -1
    outer loop
      vertex 5.42836 5.79813 2.5
      vertex 4.67836 5.04813 2.5
      vertex 5 6.09808 2.5
    endloop
  endfacet
  facet normal 0 0 -1
    outer loop
      vertex 4.25 5.34808 2.5
      vertex 5 6.09808 2.5
      vertex 4.67836 5.04813 2.5
    endloop
  endfacet
  facet normal -0 0 -1
    outer loop
      vertex 5 6.09808 2.5
      vertex 4.25 5.34808 2.5
      vertex 4.52606 6.31908 2.5
    endloop
  endfacet
  facet normal 0 0 -1
    outer loop
      vertex 3.77606 5.56908 2.5
      vertex 4.52606 6.31908 2.5
      vertex 4.25 5.34808 2.5
    endloop
  endfacet
  facet normal -0 0 -1
    outer loop
      vertex 4.52606 6.31908 2.5
      vertex 3.77606 5.56908 2.5
      vertex 4.02094 6.45442 2.5
    endloop
  endfacet
  facet normal 0 0 -1
    outer loop
      vertex 3.77606 5.56908 2.5
      vertex 3.5 6.5 2.5
      vertex 4.02094 6.45442 2.5
    endloop
  endfacet
  facet normal 0 0 -1
    outer loop
      vertex 3.27094 5.70442 2.5
      vertex 3.5 6.5 2.5
      vertex 3.77606 5.56908 2.5
    endloop
  endfacet
  facet normal 0 0 -1
    outer loop
      vertex 2.75 5.75 2.5
      vertex 3.5 6.5 2.5
      vertex 3.27094 5.70442 2.5
    endloop
  endfacet
  facet normal 0 0 -1
    outer loop
      vertex -2.75 5.75 2.5
      vertex 3.5 6.5 2.5
      vertex 2.75 5.75 2.5
    endloop
  endfacet
  facet normal 0 0 -1
    outer loop
      vertex -3.5 6.5 2.5
      vertex -2.75 5.75 2.5
      vertex -3.27094 5.70442 2.5
    endloop
  endfacet
  facet normal 0 0 -1
    outer loop
      vertex -2.75 5.75 2.5
      vertex -3.5 6.5 2.5
      vertex 3.5 6.5 2.5
    endloop
  endfacet
  facet normal 0 0 -1
    outer loop
      vertex -3.77606 5.56908 2.5
      vertex -3.5 6.5 2.5
      vertex -3.27094 5.70442 2.5
    endloop
  endfacet
  facet normal 0 0 -1
    outer loop
      vertex -3.77606 5.56908 2.5
      vertex -4.02094 6.45442 2.5
      vertex -3.5 6.5 2.5
    endloop
  endfacet
  facet normal 0 0 -1
    outer loop
      vertex -4.52606 6.31908 2.5
      vertex -3.77606 5.56908 2.5
      vertex -4.25 5.34808 2.5
    endloop
  endfacet
  facet normal 0 0 -1
    outer loop
      vertex -3.77606 5.56908 2.5
      vertex -4.52606 6.31908 2.5
      vertex -4.02094 6.45442 2.5
    endloop
  endfacet
  facet normal 0 0 -1
    outer loop
      vertex -5 6.09808 2.5
      vertex -4.25 5.34808 2.5
      vertex -4.67836 5.04813 2.5
    endloop
  endfacet
  facet normal 0 0 -1
    outer loop
      vertex -4.25 5.34808 2.5
      vertex -5 6.09808 2.5
      vertex -4.52606 6.31908 2.5
    endloop
  endfacet
  facet normal 0 0 -1
    outer loop
      vertex -5.42836 5.79813 2.5
      vertex -4.67836 5.04813 2.5
      vertex -5.04813 4.67836 2.5
    endloop
  endfacet
  facet normal 0 0 -1
    outer loop
      vertex -6.09808 5 2.5
      vertex -5.04813 4.67836 2.5
      vertex -5.34808 4.25 2.5
    endloop
  endfacet
  facet normal 0 0 -1
    outer loop
      vertex -4.67836 5.04813 2.5
      vertex -5.42836 5.79813 2.5
      vertex -5 6.09808 2.5
    endloop
  endfacet
  facet normal 0 0 -1
    outer loop
      vertex -6.31908 4.52606 2.5
      vertex -5.34808 4.25 2.5
      vertex -5.56908 3.77606 2.5
    endloop
  endfacet
  facet normal 0 0 -1
    outer loop
      vertex -6.5 3.5 2.5
      vertex -5.56908 3.77606 2.5
      vertex -5.70442 3.27094 2.5
    endloop
  endfacet
  facet normal 0 0 -1
    outer loop
      vertex -5.04813 4.67836 2.5
      vertex -5.79813 5.42836 2.5
      vertex -5.42836 5.79813 2.5
    endloop
  endfacet
  facet normal 0 0 -1
    outer loop
      vertex -6.5 3.5 2.5
      vertex -5.70442 3.27094 2.5
      vertex -5.75 2.75 2.5
    endloop
  endfacet
  facet normal -0 0 -1
    outer loop
      vertex -5.75 -2.75 2.5
      vertex -6.5 -3.5 2.5
      vertex -5.75 2.75 2.5
    endloop
  endfacet
  facet normal 0 0 -1
    outer loop
      vertex -6.5 -3.5 2.5
      vertex -5.56908 -3.77606 2.5
      vertex -6.45442 -4.02094 2.5
    endloop
  endfacet
  facet normal 0 0 -1
    outer loop
      vertex -6.5 3.5 2.5
      vertex -5.75 2.75 2.5
      vertex -6.5 -3.5 2.5
    endloop
  endfacet
  facet normal 0 0 -1
    outer loop
      vertex -5.56908 -3.77606 2.5
      vertex -6.5 -3.5 2.5
      vertex -5.70442 -3.27094 2.5
    endloop
  endfacet
  facet normal -0 0 -1
    outer loop
      vertex -5.56908 3.77606 2.5
      vertex -6.5 3.5 2.5
      vertex -6.45442 4.02094 2.5
    endloop
  endfacet
  facet normal -0 0 -1
    outer loop
      vertex -5.70442 -3.27094 2.5
      vertex -6.5 -3.5 2.5
      vertex -5.75 -2.75 2.5
    endloop
  endfacet
  facet normal 0 0 -1
    outer loop
      vertex -5.04813 4.67836 2.5
      vertex -6.09808 5 2.5
      vertex -5.79813 5.42836 2.5
    endloop
  endfacet
  facet normal 0 0 -1
    outer loop
      vertex -5.34808 4.25 2.5
      vertex -6.31908 4.52606 2.5
      vertex -6.09808 5 2.5
    endloop
  endfacet
  facet normal 0 0 -1
    outer loop
      vertex -5.56908 3.77606 2.5
      vertex -6.45442 4.02094 2.5
      vertex -6.31908 4.52606 2.5
    endloop
  endfacet
  facet normal -0.906309 0.422615 0
    outer loop
      vertex -6.31908 4.52606 2.5
      vertex -6.09808 5 2.71
      vertex -6.09808 5 2.5
    endloop
  endfacet
  facet normal -0.906309 0.422615 0
    outer loop
      vertex -6.09808 5 2.71
      vertex -6.31908 4.52606 2.5
      vertex -6.31908 4.52606 2.71
    endloop
  endfacet
  facet normal 0.819144 0.573588 0
    outer loop
      vertex 6.09808 5 2.71
      vertex 5.79813 5.42836 2.5
      vertex 5.79813 5.42836 2.71
    endloop
  endfacet
  facet normal 0.819144 0.573588 0
    outer loop
      vertex 5.79813 5.42836 2.5
      vertex 6.09808 5 2.71
      vertex 6.09808 5 2.5
    endloop
  endfacet
  facet normal -0.0871627 0.996194 0
    outer loop
      vertex -3.5 6.5 2.5
      vertex -4.02094 6.45442 2.71
      vertex -3.5 6.5 2.71
    endloop
  endfacet
  facet normal -0.0871627 0.996194 0
    outer loop
      vertex -4.02094 6.45442 2.71
      vertex -3.5 6.5 2.5
      vertex -4.02094 6.45442 2.5
    endloop
  endfacet
  facet normal 0.996194 0.0871627 0
    outer loop
      vertex 6.5 3.5 2.71
      vertex 6.45442 4.02094 2.5
      vertex 6.45442 4.02094 2.71
    endloop
  endfacet
  facet normal 0.996194 0.0871627 0
    outer loop
      vertex 6.45442 4.02094 2.5
      vertex 6.5 3.5 2.71
      vertex 6.5 3.5 2.5
    endloop
  endfacet
  facet normal -0.422615 0.906309 0
    outer loop
      vertex -4.52606 6.31908 2.5
      vertex -5 6.09808 2.71
      vertex -4.52606 6.31908 2.71
    endloop
  endfacet
  facet normal -0.422615 0.906309 0
    outer loop
      vertex -5 6.09808 2.71
      vertex -4.52606 6.31908 2.5
      vertex -5 6.09808 2.5
    endloop
  endfacet
  facet normal -0.906309 -0.422615 0
    outer loop
      vertex -6.09808 -5 2.5
      vertex -6.31908 -4.52606 2.71
      vertex -6.31908 -4.52606 2.5
    endloop
  endfacet
  facet normal -0.906309 -0.422615 0
    outer loop
      vertex -6.31908 -4.52606 2.71
      vertex -6.09808 -5 2.5
      vertex -6.09808 -5 2.71
    endloop
  endfacet
  facet normal -0.819144 0.573588 0
    outer loop
      vertex -6.09808 5 2.5
      vertex -5.79813 5.42836 2.71
      vertex -5.79813 5.42836 2.5
    endloop
  endfacet
  facet normal -0.819144 0.573588 0
    outer loop
      vertex -5.79813 5.42836 2.71
      vertex -6.09808 5 2.5
      vertex -6.09808 5 2.71
    endloop
  endfacet
  facet normal -0.0871627 -0.996194 0
    outer loop
      vertex -4.02094 -6.45442 2.5
      vertex -3.5 -6.5 2.71
      vertex -4.02094 -6.45442 2.71
    endloop
  endfacet
  facet normal -0.0871627 -0.996194 -0
    outer loop
      vertex -3.5 -6.5 2.71
      vertex -4.02094 -6.45442 2.5
      vertex -3.5 -6.5 2.5
    endloop
  endfacet
  facet normal -0.996194 0.0871627 0
    outer loop
      vertex -6.5 3.5 2.5
      vertex -6.45442 4.02094 2.71
      vertex -6.45442 4.02094 2.5
    endloop
  endfacet
  facet normal -0.996194 0.0871627 0
    outer loop
      vertex -6.45442 4.02094 2.71
      vertex -6.5 3.5 2.5
      vertex -6.5 3.5 2.71
    endloop
  endfacet
  facet normal -1 0 0
    outer loop
      vertex -6.5 -3.5 2.5
      vertex -6.5 3.5 2.71
      vertex -6.5 3.5 2.5
    endloop
  endfacet
  facet normal -1 -0 0
    outer loop
      vertex -6.5 3.5 2.71
      vertex -6.5 -3.5 2.5
      vertex -6.5 -3.5 2.71
    endloop
  endfacet
  facet normal 0 -1 0
    outer loop
      vertex -3.5 -6.5 2.5
      vertex 3.5 -6.5 2.71
      vertex -3.5 -6.5 2.71
    endloop
  endfacet
  facet normal 0 -1 -0
    outer loop
      vertex 3.5 -6.5 2.71
      vertex -3.5 -6.5 2.5
      vertex 3.5 -6.5 2.5
    endloop
  endfacet
  facet normal 0.965929 -0.258807 0
    outer loop
      vertex 6.31908 -4.52606 2.71
      vertex 6.45442 -4.02094 2.5
      vertex 6.45442 -4.02094 2.71
    endloop
  endfacet
  facet normal 0.965929 -0.258807 0
    outer loop
      vertex 6.45442 -4.02094 2.5
      vertex 6.31908 -4.52606 2.71
      vertex 6.31908 -4.52606 2.5
    endloop
  endfacet
  facet normal 0.906309 -0.422615 0
    outer loop
      vertex 6.09808 -5 2.71
      vertex 6.31908 -4.52606 2.5
      vertex 6.31908 -4.52606 2.71
    endloop
  endfacet
  facet normal 0.906309 -0.422615 0
    outer loop
      vertex 6.31908 -4.52606 2.5
      vertex 6.09808 -5 2.71
      vertex 6.09808 -5 2.5
    endloop
  endfacet
  facet normal 0.996194 -0.0871627 0
    outer loop
      vertex 6.45442 -4.02094 2.71
      vertex 6.5 -3.5 2.5
      vertex 6.5 -3.5 2.71
    endloop
  endfacet
  facet normal 0.996194 -0.0871627 0
    outer loop
      vertex 6.5 -3.5 2.5
      vertex 6.45442 -4.02094 2.71
      vertex 6.45442 -4.02094 2.5
    endloop
  endfacet
  facet normal 0.0871627 -0.996194 0
    outer loop
      vertex 3.5 -6.5 2.5
      vertex 4.02094 -6.45442 2.71
      vertex 3.5 -6.5 2.71
    endloop
  endfacet
  facet normal 0.0871627 -0.996194 0
    outer loop
      vertex 4.02094 -6.45442 2.71
      vertex 3.5 -6.5 2.5
      vertex 4.02094 -6.45442 2.5
    endloop
  endfacet
  facet normal -0.965929 -0.258807 0
    outer loop
      vertex -6.31908 -4.52606 2.5
      vertex -6.45442 -4.02094 2.71
      vertex -6.45442 -4.02094 2.5
    endloop
  endfacet
  facet normal -0.965929 -0.258807 0
    outer loop
      vertex -6.45442 -4.02094 2.71
      vertex -6.31908 -4.52606 2.5
      vertex -6.31908 -4.52606 2.71
    endloop
  endfacet
  facet normal 0.422615 -0.906309 0
    outer loop
      vertex 4.52606 -6.31908 2.5
      vertex 5 -6.09808 2.71
      vertex 4.52606 -6.31908 2.71
    endloop
  endfacet
  facet normal 0.422615 -0.906309 0
    outer loop
      vertex 5 -6.09808 2.71
      vertex 4.52606 -6.31908 2.5
      vertex 5 -6.09808 2.5
    endloop
  endfacet
  facet normal -0.996194 -0.0871627 0
    outer loop
      vertex -6.45442 -4.02094 2.5
      vertex -6.5 -3.5 2.71
      vertex -6.5 -3.5 2.5
    endloop
  endfacet
  facet normal -0.996194 -0.0871627 0
    outer loop
      vertex -6.5 -3.5 2.71
      vertex -6.45442 -4.02094 2.5
      vertex -6.45442 -4.02094 2.71
    endloop
  endfacet
  facet normal 0.707107 -0.707107 0
    outer loop
      vertex 5.42836 -5.79813 2.71
      vertex 5.79813 -5.42836 2.5
      vertex 5.79813 -5.42836 2.71
    endloop
  endfacet
  facet normal 0.707107 -0.707107 0
    outer loop
      vertex 5.79813 -5.42836 2.5
      vertex 5.42836 -5.79813 2.71
      vertex 5.42836 -5.79813 2.5
    endloop
  endfacet
  facet normal -0.707107 -0.707107 0
    outer loop
      vertex -5.42836 -5.79813 2.5
      vertex -5.79813 -5.42836 2.71
      vertex -5.79813 -5.42836 2.5
    endloop
  endfacet
  facet normal -0.707107 -0.707107 0
    outer loop
      vertex -5.79813 -5.42836 2.71
      vertex -5.42836 -5.79813 2.5
      vertex -5.42836 -5.79813 2.71
    endloop
  endfacet
  facet normal 0.707107 0.707107 0
    outer loop
      vertex 5.79813 5.42836 2.71
      vertex 5.42836 5.79813 2.5
      vertex 5.42836 5.79813 2.71
    endloop
  endfacet
  facet normal 0.707107 0.707107 0
    outer loop
      vertex 5.42836 5.79813 2.5
      vertex 5.79813 5.42836 2.71
      vertex 5.79813 5.42836 2.5
    endloop
  endfacet
  facet normal -0.258807 0.965929 0
    outer loop
      vertex -4.02094 6.45442 2.5
      vertex -4.52606 6.31908 2.71
      vertex -4.02094 6.45442 2.71
    endloop
  endfacet
  facet normal -0.258807 0.965929 0
    outer loop
      vertex -4.52606 6.31908 2.71
      vertex -4.02094 6.45442 2.5
      vertex -4.52606 6.31908 2.5
    endloop
  endfacet
  facet normal 0.573588 -0.819144 0
    outer loop
      vertex 5 -6.09808 2.5
      vertex 5.42836 -5.79813 2.71
      vertex 5 -6.09808 2.71
    endloop
  endfacet
  facet normal 0.573588 -0.819144 0
    outer loop
      vertex 5.42836 -5.79813 2.71
      vertex 5 -6.09808 2.5
      vertex 5.42836 -5.79813 2.5
    endloop
  endfacet
  facet normal -0.707107 0.707107 0
    outer loop
      vertex -5.79813 5.42836 2.5
      vertex -5.42836 5.79813 2.71
      vertex -5.42836 5.79813 2.5
    endloop
  endfacet
  facet normal -0.707107 0.707107 0
    outer loop
      vertex -5.42836 5.79813 2.71
      vertex -5.79813 5.42836 2.5
      vertex -5.79813 5.42836 2.71
    endloop
  endfacet
  facet normal -0.258807 -0.965929 0
    outer loop
      vertex -4.52606 -6.31908 2.5
      vertex -4.02094 -6.45442 2.71
      vertex -4.52606 -6.31908 2.71
    endloop
  endfacet
  facet normal -0.258807 -0.965929 -0
    outer loop
      vertex -4.02094 -6.45442 2.71
      vertex -4.52606 -6.31908 2.5
      vertex -4.02094 -6.45442 2.5
    endloop
  endfacet
  facet normal 0.258807 -0.965929 0
    outer loop
      vertex 4.02094 -6.45442 2.5
      vertex 4.52606 -6.31908 2.71
      vertex 4.02094 -6.45442 2.71
    endloop
  endfacet
  facet normal 0.258807 -0.965929 0
    outer loop
      vertex 4.52606 -6.31908 2.71
      vertex 4.02094 -6.45442 2.5
      vertex 4.52606 -6.31908 2.5
    endloop
  endfacet
  facet normal -0 0 1
    outer loop
      vertex 5.56908 3.77606 2.71
      vertex 6.5 3.5 2.71
      vertex 6.45442 4.02094 2.71
    endloop
  endfacet
  facet normal 0 0 1
    outer loop
      vertex 6.5 3.5 2.71
      vertex 5.75 2.75 2.71
      vertex 6.5 -3.5 2.71
    endloop
  endfacet
  facet normal 0 0 1
    outer loop
      vertex 5.56908 3.77606 2.71
      vertex 6.45442 4.02094 2.71
      vertex 6.31908 4.52606 2.71
    endloop
  endfacet
  facet normal -0 0 1
    outer loop
      vertex 5.75 -2.75 2.71
      vertex 6.5 -3.5 2.71
      vertex 5.75 2.75 2.71
    endloop
  endfacet
  facet normal 0 0 1
    outer loop
      vertex 5.34808 4.25 2.71
      vertex 6.31908 4.52606 2.71
      vertex 6.09808 5 2.71
    endloop
  endfacet
  facet normal -0 0 1
    outer loop
      vertex 5.70442 -3.27094 2.71
      vertex 6.5 -3.5 2.71
      vertex 5.75 -2.75 2.71
    endloop
  endfacet
  facet normal 0 0 1
    outer loop
      vertex 5.04813 4.67836 2.71
      vertex 6.09808 5 2.71
      vertex 5.79813 5.42836 2.71
    endloop
  endfacet
  facet normal 0 0 1
    outer loop
      vertex 5.56908 -3.77606 2.71
      vertex 6.5 -3.5 2.71
      vertex 5.70442 -3.27094 2.71
    endloop
  endfacet
  facet normal 0 0 1
    outer loop
      vertex 6.5 -3.5 2.71
      vertex 5.56908 -3.77606 2.71
      vertex 6.45442 -4.02094 2.71
    endloop
  endfacet
  facet normal 0 0 1
    outer loop
      vertex 6.5 3.5 2.71
      vertex 5.70442 3.27094 2.71
      vertex 5.75 2.75 2.71
    endloop
  endfacet
  facet normal 0 0 1
    outer loop
      vertex 6.5 3.5 2.71
      vertex 5.56908 3.77606 2.71
      vertex 5.70442 3.27094 2.71
    endloop
  endfacet
  facet normal 0 0 1
    outer loop
      vertex 5.04813 4.67836 2.71
      vertex 5.79813 5.42836 2.71
      vertex 5.42836 5.79813 2.71
    endloop
  endfacet
  facet normal 0 0 1
    outer loop
      vertex 6.31908 4.52606 2.71
      vertex 5.34808 4.25 2.71
      vertex 5.56908 3.77606 2.71
    endloop
  endfacet
  facet normal 0 0 1
    outer loop
      vertex 6.09808 5 2.71
      vertex 5.04813 4.67836 2.71
      vertex 5.34808 4.25 2.71
    endloop
  endfacet
  facet normal 0 0 1
    outer loop
      vertex 4.67836 5.04813 2.71
      vertex 5.42836 5.79813 2.71
      vertex 5 6.09808 2.71
    endloop
  endfacet
  facet normal 0 0 1
    outer loop
      vertex 5.42836 5.79813 2.71
      vertex 4.67836 5.04813 2.71
      vertex 5.04813 4.67836 2.71
    endloop
  endfacet
  facet normal 0 0 1
    outer loop
      vertex 4.25 5.34808 2.71
      vertex 5 6.09808 2.71
      vertex 4.52606 6.31908 2.71
    endloop
  endfacet
  facet normal 0 0 1
    outer loop
      vertex 5 6.09808 2.71
      vertex 4.25 5.34808 2.71
      vertex 4.67836 5.04813 2.71
    endloop
  endfacet
  facet normal 0 0 1
    outer loop
      vertex 3.77606 5.56908 2.71
      vertex 4.52606 6.31908 2.71
      vertex 4.02094 6.45442 2.71
    endloop
  endfacet
  facet normal 0 0 1
    outer loop
      vertex 4.52606 6.31908 2.71
      vertex 3.77606 5.56908 2.71
      vertex 4.25 5.34808 2.71
    endloop
  endfacet
  facet normal 0 0 1
    outer loop
      vertex 3.5 6.5 2.71
      vertex 3.77606 5.56908 2.71
      vertex 4.02094 6.45442 2.71
    endloop
  endfacet
  facet normal 0 0 1
    outer loop
      vertex 3.5 6.5 2.71
      vertex 3.27094 5.70442 2.71
      vertex 3.77606 5.56908 2.71
    endloop
  endfacet
  facet normal 0 0 1
    outer loop
      vertex 3.5 6.5 2.71
      vertex 2.75 5.75 2.71
      vertex 3.27094 5.70442 2.71
    endloop
  endfacet
  facet normal 0 0 1
    outer loop
      vertex 3.5 6.5 2.71
      vertex -2.75 5.75 2.71
      vertex 2.75 5.75 2.71
    endloop
  endfacet
  facet normal -0 0 1
    outer loop
      vertex -3.5 6.5 2.71
      vertex -2.75 5.75 2.71
      vertex 3.5 6.5 2.71
    endloop
  endfacet
  facet normal 0 0 1
    outer loop
      vertex -2.75 5.75 2.71
      vertex -3.5 6.5 2.71
      vertex -3.27094 5.70442 2.71
    endloop
  endfacet
  facet normal 0 0 1
    outer loop
      vertex -3.5 6.5 2.71
      vertex -3.77606 5.56908 2.71
      vertex -3.27094 5.70442 2.71
    endloop
  endfacet
  facet normal -0 0 1
    outer loop
      vertex -4.02094 6.45442 2.71
      vertex -3.77606 5.56908 2.71
      vertex -3.5 6.5 2.71
    endloop
  endfacet
  facet normal -0 0 1
    outer loop
      vertex -4.52606 6.31908 2.71
      vertex -3.77606 5.56908 2.71
      vertex -4.02094 6.45442 2.71
    endloop
  endfacet
  facet normal 0 0 1
    outer loop
      vertex -3.77606 5.56908 2.71
      vertex -4.52606 6.31908 2.71
      vertex -4.25 5.34808 2.71
    endloop
  endfacet
  facet normal -0 0 1
    outer loop
      vertex -5 6.09808 2.71
      vertex -4.25 5.34808 2.71
      vertex -4.52606 6.31908 2.71
    endloop
  endfacet
  facet normal 0 0 1
    outer loop
      vertex -4.25 5.34808 2.71
      vertex -5 6.09808 2.71
      vertex -4.67836 5.04813 2.71
    endloop
  endfacet
  facet normal -0 0 1
    outer loop
      vertex -5.42836 5.79813 2.71
      vertex -4.67836 5.04813 2.71
      vertex -5 6.09808 2.71
    endloop
  endfacet
  facet normal 0 0 1
    outer loop
      vertex -4.67836 5.04813 2.71
      vertex -5.42836 5.79813 2.71
      vertex -5.04813 4.67836 2.71
    endloop
  endfacet
  facet normal -0 0 1
    outer loop
      vertex -5.79813 5.42836 2.71
      vertex -5.04813 4.67836 2.71
      vertex -5.42836 5.79813 2.71
    endloop
  endfacet
  facet normal -0 0 1
    outer loop
      vertex -6.09808 5 2.71
      vertex -5.04813 4.67836 2.71
      vertex -5.79813 5.42836 2.71
    endloop
  endfacet
  facet normal 0 0 1
    outer loop
      vertex -5.04813 4.67836 2.71
      vertex -6.09808 5 2.71
      vertex -5.34808 4.25 2.71
    endloop
  endfacet
  facet normal -0 0 1
    outer loop
      vertex -6.45442 4.02094 2.71
      vertex -5.56908 3.77606 2.71
      vertex -6.31908 4.52606 2.71
    endloop
  endfacet
  facet normal 0 0 1
    outer loop
      vertex -5.34808 4.25 2.71
      vertex -6.31908 4.52606 2.71
      vertex -5.56908 3.77606 2.71
    endloop
  endfacet
  facet normal -0 0 1
    outer loop
      vertex -6.31908 4.52606 2.71
      vertex -5.34808 4.25 2.71
      vertex -6.09808 5 2.71
    endloop
  endfacet
  facet normal 0 0 1
    outer loop
      vertex 6.45442 -4.02094 2.71
      vertex 5.56908 -3.77606 2.71
      vertex 6.31908 -4.52606 2.71
    endloop
  endfacet
  facet normal -0 0 1
    outer loop
      vertex 5.34808 -4.25 2.71
      vertex 6.31908 -4.52606 2.71
      vertex 5.56908 -3.77606 2.71
    endloop
  endfacet
  facet normal 0 0 1
    outer loop
      vertex 6.31908 -4.52606 2.71
      vertex 5.34808 -4.25 2.71
      vertex 6.09808 -5 2.71
    endloop
  endfacet
  facet normal -0 0 1
    outer loop
      vertex 5.04813 -4.67836 2.71
      vertex 6.09808 -5 2.71
      vertex 5.34808 -4.25 2.71
    endloop
  endfacet
  facet normal 0 0 1
    outer loop
      vertex 6.09808 -5 2.71
      vertex 5.04813 -4.67836 2.71
      vertex 5.79813 -5.42836 2.71
    endloop
  endfacet
  facet normal 0 0 1
    outer loop
      vertex 5.79813 -5.42836 2.71
      vertex 5.04813 -4.67836 2.71
      vertex 5.42836 -5.79813 2.71
    endloop
  endfacet
  facet normal -0 0 1
    outer loop
      vertex 4.67836 -5.04813 2.71
      vertex 5.42836 -5.79813 2.71
      vertex 5.04813 -4.67836 2.71
    endloop
  endfacet
  facet normal 0 0 1
    outer loop
      vertex 5.42836 -5.79813 2.71
      vertex 4.67836 -5.04813 2.71
      vertex 5 -6.09808 2.71
    endloop
  endfacet
  facet normal -0 0 1
    outer loop
      vertex 4.25 -5.34808 2.71
      vertex 5 -6.09808 2.71
      vertex 4.67836 -5.04813 2.71
    endloop
  endfacet
  facet normal 0 0 1
    outer loop
      vertex 5 -6.09808 2.71
      vertex 4.25 -5.34808 2.71
      vertex 4.52606 -6.31908 2.71
    endloop
  endfacet
  facet normal -0 0 1
    outer loop
      vertex 3.77606 -5.56908 2.71
      vertex 4.52606 -6.31908 2.71
      vertex 4.25 -5.34808 2.71
    endloop
  endfacet
  facet normal 0 0 1
    outer loop
      vertex 4.52606 -6.31908 2.71
      vertex 3.77606 -5.56908 2.71
      vertex 4.02094 -6.45442 2.71
    endloop
  endfacet
  facet normal 0 0 1
    outer loop
      vertex 3.77606 -5.56908 2.71
      vertex 3.5 -6.5 2.71
      vertex 4.02094 -6.45442 2.71
    endloop
  endfacet
  facet normal -0 0 1
    outer loop
      vertex 3.27094 -5.70442 2.71
      vertex 3.5 -6.5 2.71
      vertex 3.77606 -5.56908 2.71
    endloop
  endfacet
  facet normal -0 0 1
    outer loop
      vertex 2.75 -5.75 2.71
      vertex 3.5 -6.5 2.71
      vertex 3.27094 -5.70442 2.71
    endloop
  endfacet
  facet normal -0 0 1
    outer loop
      vertex -2.75 -5.75 2.71
      vertex 3.5 -6.5 2.71
      vertex 2.75 -5.75 2.71
    endloop
  endfacet
  facet normal 0 0 1
    outer loop
      vertex -3.5 -6.5 2.71
      vertex -2.75 -5.75 2.71
      vertex -3.27094 -5.70442 2.71
    endloop
  endfacet
  facet normal 0 0 1
    outer loop
      vertex -2.75 -5.75 2.71
      vertex -3.5 -6.5 2.71
      vertex 3.5 -6.5 2.71
    endloop
  endfacet
  facet normal 0 0 1
    outer loop
      vertex -3.77606 -5.56908 2.71
      vertex -3.5 -6.5 2.71
      vertex -3.27094 -5.70442 2.71
    endloop
  endfacet
  facet normal 0 0 1
    outer loop
      vertex -3.77606 -5.56908 2.71
      vertex -4.02094 -6.45442 2.71
      vertex -3.5 -6.5 2.71
    endloop
  endfacet
  facet normal 0 0 1
    outer loop
      vertex -4.52606 -6.31908 2.71
      vertex -3.77606 -5.56908 2.71
      vertex -4.25 -5.34808 2.71
    endloop
  endfacet
  facet normal 0 0 1
    outer loop
      vertex -3.77606 -5.56908 2.71
      vertex -4.52606 -6.31908 2.71
      vertex -4.02094 -6.45442 2.71
    endloop
  endfacet
  facet normal 0 0 1
    outer loop
      vertex -5 -6.09808 2.71
      vertex -4.25 -5.34808 2.71
      vertex -4.67836 -5.04813 2.71
    endloop
  endfacet
  facet normal 0 0 1
    outer loop
      vertex -4.25 -5.34808 2.71
      vertex -5 -6.09808 2.71
      vertex -4.52606 -6.31908 2.71
    endloop
  endfacet
  facet normal 0 0 1
    outer loop
      vertex -5.42836 -5.79813 2.71
      vertex -4.67836 -5.04813 2.71
      vertex -5.04813 -4.67836 2.71
    endloop
  endfacet
  facet normal 0 0 1
    outer loop
      vertex -6.09808 -5 2.71
      vertex -5.04813 -4.67836 2.71
      vertex -5.34808 -4.25 2.71
    endloop
  endfacet
  facet normal 0 0 1
    outer loop
      vertex -4.67836 -5.04813 2.71
      vertex -5.42836 -5.79813 2.71
      vertex -5 -6.09808 2.71
    endloop
  endfacet
  facet normal 0 0 1
    outer loop
      vertex -6.31908 -4.52606 2.71
      vertex -5.34808 -4.25 2.71
      vertex -5.56908 -3.77606 2.71
    endloop
  endfacet
  facet normal -0 0 1
    outer loop
      vertex -6.5 -3.5 2.71
      vertex -5.56908 -3.77606 2.71
      vertex -5.70442 -3.27094 2.71
    endloop
  endfacet
  facet normal 0 0 1
    outer loop
      vertex -5.04813 -4.67836 2.71
      vertex -5.79813 -5.42836 2.71
      vertex -5.42836 -5.79813 2.71
    endloop
  endfacet
  facet normal 0 0 1
    outer loop
      vertex -6.5 -3.5 2.71
      vertex -5.70442 -3.27094 2.71
      vertex -5.75 -2.75 2.71
    endloop
  endfacet
  facet normal 0 0 1
    outer loop
      vertex -5.75 2.75 2.71
      vertex -6.5 3.5 2.71
      vertex -5.75 -2.75 2.71
    endloop
  endfacet
  facet normal 0 0 1
    outer loop
      vertex -6.5 3.5 2.71
      vertex -5.56908 3.77606 2.71
      vertex -6.45442 4.02094 2.71
    endloop
  endfacet
  facet normal 0 0 1
    outer loop
      vertex -6.5 -3.5 2.71
      vertex -5.75 -2.75 2.71
      vertex -6.5 3.5 2.71
    endloop
  endfacet
  facet normal 0 0 1
    outer loop
      vertex -5.56908 3.77606 2.71
      vertex -6.5 3.5 2.71
      vertex -5.70442 3.27094 2.71
    endloop
  endfacet
  facet normal 0 0 1
    outer loop
      vertex -5.56908 -3.77606 2.71
      vertex -6.5 -3.5 2.71
      vertex -6.45442 -4.02094 2.71
    endloop
  endfacet
  facet normal 0 0 1
    outer loop
      vertex -5.70442 3.27094 2.71
      vertex -6.5 3.5 2.71
      vertex -5.75 2.75 2.71
    endloop
  endfacet
  facet normal 0 0 1
    outer loop
      vertex -5.04813 -4.67836 2.71
      vertex -6.09808 -5 2.71
      vertex -5.79813 -5.42836 2.71
    endloop
  endfacet
  facet normal 0 0 1
    outer loop
      vertex -5.34808 -4.25 2.71
      vertex -6.31908 -4.52606 2.71
      vertex -6.09808 -5 2.71
    endloop
  endfacet
  facet normal 0 0 1
    outer loop
      vertex -5.56908 -3.77606 2.71
      vertex -6.45442 -4.02094 2.71
      vertex -6.31908 -4.52606 2.71
    endloop
  endfacet
  facet normal -0.573588 0.819144 0
    outer loop
      vertex -5 6.09808 2.5
      vertex -5.42836 5.79813 2.71
      vertex -5 6.09808 2.71
    endloop
  endfacet
  facet normal -0.573588 0.819144 0
    outer loop
      vertex -5.42836 5.79813 2.71
      vertex -5 6.09808 2.5
      vertex -5.42836 5.79813 2.5
    endloop
  endfacet
  facet normal -0.573588 -0.819144 0
    outer loop
      vertex 4.25 5.34808 2.5
      vertex 4.67836 5.04813 2.71
      vertex 4.25 5.34808 2.71
    endloop
  endfacet
  facet normal -0.573588 -0.819144 -0
    outer loop
      vertex 4.67836 5.04813 2.71
      vertex 4.25 5.34808 2.5
      vertex 4.67836 5.04813 2.5
    endloop
  endfacet
  facet normal 0 1 -0
    outer loop
      vertex 2.75 -5.75 2.5
      vertex -2.75 -5.75 2.71
      vertex 2.75 -5.75 2.71
    endloop
  endfacet
  facet normal 0 1 0
    outer loop
      vertex -2.75 -5.75 2.71
      vertex 2.75 -5.75 2.5
      vertex -2.75 -5.75 2.5
    endloop
  endfacet
  facet normal -0.906309 -0.422615 0
    outer loop
      vertex 5.56908 3.77606 2.5
      vertex 5.34808 4.25 2.71
      vertex 5.34808 4.25 2.5
    endloop
  endfacet
  facet normal -0.906309 -0.422615 0
    outer loop
      vertex 5.34808 4.25 2.71
      vertex 5.56908 3.77606 2.5
      vertex 5.56908 3.77606 2.71
    endloop
  endfacet
  facet normal 0.422615 0.906309 -0
    outer loop
      vertex -3.77606 -5.56908 2.5
      vertex -4.25 -5.34808 2.71
      vertex -3.77606 -5.56908 2.71
    endloop
  endfacet
  facet normal 0.422615 0.906309 0
    outer loop
      vertex -4.25 -5.34808 2.71
      vertex -3.77606 -5.56908 2.5
      vertex -4.25 -5.34808 2.5
    endloop
  endfacet
  facet normal 0.965929 -0.258807 0
    outer loop
      vertex -5.70442 3.27094 2.71
      vertex -5.56908 3.77606 2.5
      vertex -5.56908 3.77606 2.71
    endloop
  endfacet
  facet normal 0.965929 -0.258807 0
    outer loop
      vertex -5.56908 3.77606 2.5
      vertex -5.70442 3.27094 2.71
      vertex -5.70442 3.27094 2.5
    endloop
  endfacet
  facet normal -0.422615 -0.906309 0
    outer loop
      vertex 3.77606 5.56908 2.5
      vertex 4.25 5.34808 2.71
      vertex 3.77606 5.56908 2.71
    endloop
  endfacet
  facet normal -0.422615 -0.906309 -0
    outer loop
      vertex 4.25 5.34808 2.71
      vertex 3.77606 5.56908 2.5
      vertex 4.25 5.34808 2.5
    endloop
  endfacet
  facet normal -0.258807 0.965929 0
    outer loop
      vertex 3.77606 -5.56908 2.5
      vertex 3.27094 -5.70442 2.71
      vertex 3.77606 -5.56908 2.71
    endloop
  endfacet
  facet normal -0.258807 0.965929 0
    outer loop
      vertex 3.27094 -5.70442 2.71
      vertex 3.77606 -5.56908 2.5
      vertex 3.27094 -5.70442 2.5
    endloop
  endfacet
  facet normal 0.258807 -0.965929 0
    outer loop
      vertex -3.77606 5.56908 2.5
      vertex -3.27094 5.70442 2.71
      vertex -3.77606 5.56908 2.71
    endloop
  endfacet
  facet normal 0.258807 -0.965929 0
    outer loop
      vertex -3.27094 5.70442 2.71
      vertex -3.77606 5.56908 2.5
      vertex -3.27094 5.70442 2.5
    endloop
  endfacet
  facet normal -0.819144 0.573588 0
    outer loop
      vertex 5.04813 -4.67836 2.5
      vertex 5.34808 -4.25 2.71
      vertex 5.34808 -4.25 2.5
    endloop
  endfacet
  facet normal -0.819144 0.573588 0
    outer loop
      vertex 5.34808 -4.25 2.71
      vertex 5.04813 -4.67836 2.5
      vertex 5.04813 -4.67836 2.71
    endloop
  endfacet
  facet normal -0.707107 0.707107 0
    outer loop
      vertex 4.67836 -5.04813 2.5
      vertex 5.04813 -4.67836 2.71
      vertex 5.04813 -4.67836 2.5
    endloop
  endfacet
  facet normal -0.707107 0.707107 0
    outer loop
      vertex 5.04813 -4.67836 2.71
      vertex 4.67836 -5.04813 2.5
      vertex 4.67836 -5.04813 2.71
    endloop
  endfacet
  facet normal 1 -0 0
    outer loop
      vertex -5.75 -2.75 2.71
      vertex -5.75 2.75 2.5
      vertex -5.75 2.75 2.71
    endloop
  endfacet
  facet normal 1 0 0
    outer loop
      vertex -5.75 2.75 2.5
      vertex -5.75 -2.75 2.71
      vertex -5.75 -2.75 2.5
    endloop
  endfacet
  facet normal 0.996194 0.0871627 0
    outer loop
      vertex -5.70442 -3.27094 2.71
      vertex -5.75 -2.75 2.5
      vertex -5.75 -2.75 2.71
    endloop
  endfacet
  facet normal 0.996194 0.0871627 0
    outer loop
      vertex -5.75 -2.75 2.5
      vertex -5.70442 -3.27094 2.71
      vertex -5.70442 -3.27094 2.5
    endloop
  endfacet
  facet normal -1 0 0
    outer loop
      vertex 5.75 -2.75 2.5
      vertex 5.75 2.75 2.71
      vertex 5.75 2.75 2.5
    endloop
  endfacet
  facet normal -1 -0 0
    outer loop
      vertex 5.75 2.75 2.71
      vertex 5.75 -2.75 2.5
      vertex 5.75 -2.75 2.71
    endloop
  endfacet
  facet normal -0.422615 0.906309 0
    outer loop
      vertex 4.25 -5.34808 2.5
      vertex 3.77606 -5.56908 2.71
      vertex 4.25 -5.34808 2.71
    endloop
  endfacet
  facet normal -0.422615 0.906309 0
    outer loop
      vertex 3.77606 -5.56908 2.71
      vertex 4.25 -5.34808 2.5
      vertex 3.77606 -5.56908 2.5
    endloop
  endfacet
  facet normal -0.965929 0.258807 0
    outer loop
      vertex 5.56908 -3.77606 2.5
      vertex 5.70442 -3.27094 2.71
      vertex 5.70442 -3.27094 2.5
    endloop
  endfacet
  facet normal -0.965929 0.258807 0
    outer loop
      vertex 5.70442 -3.27094 2.71
      vertex 5.56908 -3.77606 2.5
      vertex 5.56908 -3.77606 2.71
    endloop
  endfacet
  facet normal 0.0871627 -0.996194 0
    outer loop
      vertex -3.27094 5.70442 2.5
      vertex -2.75 5.75 2.71
      vertex -3.27094 5.70442 2.71
    endloop
  endfacet
  facet normal 0.0871627 -0.996194 0
    outer loop
      vertex -2.75 5.75 2.71
      vertex -3.27094 5.70442 2.5
      vertex -2.75 5.75 2.5
    endloop
  endfacet
  facet normal 0.573588 0.819144 -0
    outer loop
      vertex -4.25 -5.34808 2.5
      vertex -4.67836 -5.04813 2.71
      vertex -4.25 -5.34808 2.71
    endloop
  endfacet
  facet normal 0.573588 0.819144 0
    outer loop
      vertex -4.67836 -5.04813 2.71
      vertex -4.25 -5.34808 2.5
      vertex -4.67836 -5.04813 2.5
    endloop
  endfacet
  facet normal -0.906309 0.422615 0
    outer loop
      vertex 5.34808 -4.25 2.5
      vertex 5.56908 -3.77606 2.71
      vertex 5.56908 -3.77606 2.5
    endloop
  endfacet
  facet normal -0.906309 0.422615 0
    outer loop
      vertex 5.56908 -3.77606 2.71
      vertex 5.34808 -4.25 2.5
      vertex 5.34808 -4.25 2.71
    endloop
  endfacet
  facet normal 0.906309 0.422615 0
    outer loop
      vertex -5.34808 -4.25 2.71
      vertex -5.56908 -3.77606 2.5
      vertex -5.56908 -3.77606 2.71
    endloop
  endfacet
  facet normal 0.906309 0.422615 0
    outer loop
      vertex -5.56908 -3.77606 2.5
      vertex -5.34808 -4.25 2.71
      vertex -5.34808 -4.25 2.5
    endloop
  endfacet
  facet normal -0.707107 -0.707107 0
    outer loop
      vertex 5.04813 4.67836 2.5
      vertex 4.67836 5.04813 2.71
      vertex 4.67836 5.04813 2.5
    endloop
  endfacet
  facet normal -0.707107 -0.707107 0
    outer loop
      vertex 4.67836 5.04813 2.71
      vertex 5.04813 4.67836 2.5
      vertex 5.04813 4.67836 2.71
    endloop
  endfacet
  facet normal 0.819144 0.573588 0
    outer loop
      vertex -5.04813 -4.67836 2.71
      vertex -5.34808 -4.25 2.5
      vertex -5.34808 -4.25 2.71
    endloop
  endfacet
  facet normal 0.819144 0.573588 0
    outer loop
      vertex -5.34808 -4.25 2.5
      vertex -5.04813 -4.67836 2.71
      vertex -5.04813 -4.67836 2.5
    endloop
  endfacet
  facet normal 0.707107 -0.707107 0
    outer loop
      vertex -5.04813 4.67836 2.71
      vertex -4.67836 5.04813 2.5
      vertex -4.67836 5.04813 2.71
    endloop
  endfacet
  facet normal 0.707107 -0.707107 0
    outer loop
      vertex -4.67836 5.04813 2.5
      vertex -5.04813 4.67836 2.71
      vertex -5.04813 4.67836 2.5
    endloop
  endfacet
  facet normal 0.906309 -0.422615 0
    outer loop
      vertex -5.56908 3.77606 2.71
      vertex -5.34808 4.25 2.5
      vertex -5.34808 4.25 2.71
    endloop
  endfacet
  facet normal 0.906309 -0.422615 0
    outer loop
      vertex -5.34808 4.25 2.5
      vertex -5.56908 3.77606 2.71
      vertex -5.56908 3.77606 2.5
    endloop
  endfacet
  facet normal 0.573588 -0.819144 0
    outer loop
      vertex -4.67836 5.04813 2.5
      vertex -4.25 5.34808 2.71
      vertex -4.67836 5.04813 2.71
    endloop
  endfacet
  facet normal 0.573588 -0.819144 0
    outer loop
      vertex -4.25 5.34808 2.71
      vertex -4.67836 5.04813 2.5
      vertex -4.25 5.34808 2.5
    endloop
  endfacet
  facet normal 0.996194 -0.0871627 0
    outer loop
      vertex -5.75 2.75 2.71
      vertex -5.70442 3.27094 2.5
      vertex -5.70442 3.27094 2.71
    endloop
  endfacet
  facet normal 0.996194 -0.0871627 0
    outer loop
      vertex -5.70442 3.27094 2.5
      vertex -5.75 2.75 2.71
      vertex -5.75 2.75 2.5
    endloop
  endfacet
  facet normal -0.996194 0.0871627 0
    outer loop
      vertex 5.70442 -3.27094 2.5
      vertex 5.75 -2.75 2.71
      vertex 5.75 -2.75 2.5
    endloop
  endfacet
  facet normal -0.996194 0.0871627 0
    outer loop
      vertex 5.75 -2.75 2.71
      vertex 5.70442 -3.27094 2.5
      vertex 5.70442 -3.27094 2.71
    endloop
  endfacet
  facet normal -0.819144 -0.573588 0
    outer loop
      vertex 5.34808 4.25 2.5
      vertex 5.04813 4.67836 2.71
      vertex 5.04813 4.67836 2.5
    endloop
  endfacet
  facet normal -0.819144 -0.573588 0
    outer loop
      vertex 5.04813 4.67836 2.71
      vertex 5.34808 4.25 2.5
      vertex 5.34808 4.25 2.71
    endloop
  endfacet
  facet normal -0.996194 -0.0871627 0
    outer loop
      vertex 5.75 2.75 2.5
      vertex 5.70442 3.27094 2.71
      vertex 5.70442 3.27094 2.5
    endloop
  endfacet
  facet normal -0.996194 -0.0871627 0
    outer loop
      vertex 5.70442 3.27094 2.71
      vertex 5.75 2.75 2.5
      vertex 5.75 2.75 2.71
    endloop
  endfacet
  facet normal -0.965929 -0.258807 0
    outer loop
      vertex 5.70442 3.27094 2.5
      vertex 5.56908 3.77606 2.71
      vertex 5.56908 3.77606 2.5
    endloop
  endfacet
  facet normal -0.965929 -0.258807 0
    outer loop
      vertex 5.56908 3.77606 2.71
      vertex 5.70442 3.27094 2.5
      vertex 5.70442 3.27094 2.71
    endloop
  endfacet
  facet normal 0.707107 0.707107 0
    outer loop
      vertex -4.67836 -5.04813 2.71
      vertex -5.04813 -4.67836 2.5
      vertex -5.04813 -4.67836 2.71
    endloop
  endfacet
  facet normal 0.707107 0.707107 0
    outer loop
      vertex -5.04813 -4.67836 2.5
      vertex -4.67836 -5.04813 2.71
      vertex -4.67836 -5.04813 2.5
    endloop
  endfacet
  facet normal -0.0871627 0.996194 0
    outer loop
      vertex 3.27094 -5.70442 2.5
      vertex 2.75 -5.75 2.71
      vertex 3.27094 -5.70442 2.71
    endloop
  endfacet
  facet normal -0.0871627 0.996194 0
    outer loop
      vertex 2.75 -5.75 2.71
      vertex 3.27094 -5.70442 2.5
      vertex 2.75 -5.75 2.5
    endloop
  endfacet
  facet normal 0 -1 0
    outer loop
      vertex -2.75 5.75 2.5
      vertex 2.75 5.75 2.71
      vertex -2.75 5.75 2.71
    endloop
  endfacet
  facet normal 0 -1 -0
    outer loop
      vertex 2.75 5.75 2.71
      vertex -2.75 5.75 2.5
      vertex 2.75 5.75 2.5
    endloop
  endfacet
  facet normal -0.0871627 -0.996194 0
    outer loop
      vertex 2.75 5.75 2.5
      vertex 3.27094 5.70442 2.71
      vertex 2.75 5.75 2.71
    endloop
  endfacet
  facet normal -0.0871627 -0.996194 -0
    outer loop
      vertex 3.27094 5.70442 2.71
      vertex 2.75 5.75 2.5
      vertex 3.27094 5.70442 2.5
    endloop
  endfacet
  facet normal 0.965929 0.258807 0
    outer loop
      vertex -5.56908 -3.77606 2.71
      vertex -5.70442 -3.27094 2.5
      vertex -5.70442 -3.27094 2.71
    endloop
  endfacet
  facet normal 0.965929 0.258807 0
    outer loop
      vertex -5.70442 -3.27094 2.5
      vertex -5.56908 -3.77606 2.71
      vertex -5.56908 -3.77606 2.5
    endloop
  endfacet
  facet normal -0.573588 0.819144 0
    outer loop
      vertex 4.67836 -5.04813 2.5
      vertex 4.25 -5.34808 2.71
      vertex 4.67836 -5.04813 2.71
    endloop
  endfacet
  facet normal -0.573588 0.819144 0
    outer loop
      vertex 4.25 -5.34808 2.71
      vertex 4.67836 -5.04813 2.5
      vertex 4.25 -5.34808 2.5
    endloop
  endfacet
  facet normal 0.819144 -0.573588 0
    outer loop
      vertex -5.34808 4.25 2.71
      vertex -5.04813 4.67836 2.5
      vertex -5.04813 4.67836 2.71
    endloop
  endfacet
  facet normal 0.819144 -0.573588 0
    outer loop
      vertex -5.04813 4.67836 2.5
      vertex -5.34808 4.25 2.71
      vertex -5.34808 4.25 2.5
    endloop
  endfacet
  facet normal 0.422615 -0.906309 0
    outer loop
      vertex -4.25 5.34808 2.5
      vertex -3.77606 5.56908 2.71
      vertex -4.25 5.34808 2.71
    endloop
  endfacet
  facet normal 0.422615 -0.906309 0
    outer loop
      vertex -3.77606 5.56908 2.71
      vertex -4.25 5.34808 2.5
      vertex -3.77606 5.56908 2.5
    endloop
  endfacet
  facet normal -0.258807 -0.965929 0
    outer loop
      vertex 3.27094 5.70442 2.5
      vertex 3.77606 5.56908 2.71
      vertex 3.27094 5.70442 2.71
    endloop
  endfacet
  facet normal -0.258807 -0.965929 -0
    outer loop
      vertex 3.77606 5.56908 2.71
      vertex 3.27094 5.70442 2.5
      vertex 3.77606 5.56908 2.5
    endloop
  endfacet
  facet normal 0.258807 0.965929 -0
    outer loop
      vertex -3.27094 -5.70442 2.5
      vertex -3.77606 -5.56908 2.71
      vertex -3.27094 -5.70442 2.71
    endloop
  endfacet
  facet normal 0.258807 0.965929 0
    outer loop
      vertex -3.77606 -5.56908 2.71
      vertex -3.27094 -5.70442 2.5
      vertex -3.77606 -5.56908 2.5
    endloop
  endfacet
  facet normal 0.0871627 0.996194 -0
    outer loop
      vertex -2.75 -5.75 2.5
      vertex -3.27094 -5.70442 2.71
      vertex -2.75 -5.75 2.71
    endloop
  endfacet
  facet normal 0.0871627 0.996194 0
    outer loop
      vertex -3.27094 -5.70442 2.71
      vertex -2.75 -5.75 2.5
      vertex -3.27094 -5.70442 2.5
    endloop
  endfacet
endsolid OpenSCAD_Model
