solid OpenSCAD_Model
  facet normal -0.422615 -0.906309 0
    outer loop
      vertex -5 -6.09808 2.5
      vertex -4.52606 -6.31908 2.71
      vertex -5 -6.09808 2.71
    endloop
  endfacet
  facet normal -0.422615 -0.906309 -0
    outer loop
      vertex -4.52606 -6.31908 2.71
      vertex -5 -6.09808 2.5
      vertex -4.52606 -6.31908 2.5
    endloop
  endfacet
  facet normal 0.0871627 -0.996194 0
    outer loop
      vertex 3.5 -6.5 2.5
      vertex 4.02094 -6.45442 2.71
      vertex 3.5 -6.5 2.71
    endloop
  endfacet
  facet normal 0.0871627 -0.996194 0
    outer loop
      vertex 4.02094 -6.45442 2.71
      vertex 3.5 -6.5 2.5
      vertex 4.02094 -6.45442 2.5
    endloop
  endfacet
  facet normal 0.906309 -0.422615 0
    outer loop
      vertex 6.09808 -5 2.71
      vertex 6.31908 -4.52606 2.5
      vertex 6.31908 -4.52606 2.71
    endloop
  endfacet
  facet normal 0.906309 -0.422615 0
    outer loop
      vertex 6.31908 -4.52606 2.5
      vertex 6.09808 -5 2.71
      vertex 6.09808 -5 2.5
    endloop
  endfacet
  facet normal 0.422615 0.906309 -0
    outer loop
      vertex 5 6.09808 2.5
      vertex 4.52606 6.31908 2.71
      vertex 5 6.09808 2.71
    endloop
  endfacet
  facet normal 0.422615 0.906309 0
    outer loop
      vertex 4.52606 6.31908 2.71
      vertex 5 6.09808 2.5
      vertex 4.52606 6.31908 2.5
    endloop
  endfacet
  facet normal -0.258807 0.965929 0
    outer loop
      vertex -4.02094 6.45442 2.5
      vertex -4.52606 6.31908 2.71
      vertex -4.02094 6.45442 2.71
    endloop
  endfacet
  facet normal -0.258807 0.965929 0
    outer loop
      vertex -4.52606 6.31908 2.71
      vertex -4.02094 6.45442 2.5
      vertex -4.52606 6.31908 2.5
    endloop
  endfacet
  facet normal 1 -0 0
    outer loop
      vertex 6.5 -3.5 2.71
      vertex 6.5 3.5 2.5
      vertex 6.5 3.5 2.71
    endloop
  endfacet
  facet normal 1 0 0
    outer loop
      vertex 6.5 3.5 2.5
      vertex 6.5 -3.5 2.71
      vertex 6.5 -3.5 2.5
    endloop
  endfacet
  facet normal 0 -1 0
    outer loop
      vertex -3.5 -6.5 2.5
      vertex 3.5 -6.5 2.71
      vertex -3.5 -6.5 2.71
    endloop
  endfacet
  facet normal 0 -1 -0
    outer loop
      vertex 3.5 -6.5 2.71
      vertex -3.5 -6.5 2.5
      vertex 3.5 -6.5 2.5
    endloop
  endfacet
  facet normal 0.707107 0.707107 0
    outer loop
      vertex 5.79813 5.42836 2.71
      vertex 5.42836 5.79813 2.5
      vertex 5.42836 5.79813 2.71
    endloop
  endfacet
  facet normal 0.707107 0.707107 0
    outer loop
      vertex 5.42836 5.79813 2.5
      vertex 5.79813 5.42836 2.71
      vertex 5.79813 5.42836 2.5
    endloop
  endfacet
  facet normal 0.965929 -0.258807 0
    outer loop
      vertex 6.31908 -4.52606 2.71
      vertex 6.45442 -4.02094 2.5
      vertex 6.45442 -4.02094 2.71
    endloop
  endfacet
  facet normal 0.965929 -0.258807 0
    outer loop
      vertex 6.45442 -4.02094 2.5
      vertex 6.31908 -4.52606 2.71
      vertex 6.31908 -4.52606 2.5
    endloop
  endfacet
  facet normal -0.906309 -0.422615 0
    outer loop
      vertex -6.09808 -5 2.5
      vertex -6.31908 -4.52606 2.71
      vertex -6.31908 -4.52606 2.5
    endloop
  endfacet
  facet normal -0.906309 -0.422615 0
    outer loop
      vertex -6.31908 -4.52606 2.71
      vertex -6.09808 -5 2.5
      vertex -6.09808 -5 2.71
    endloop
  endfacet
  facet normal 0.0871627 0.996194 -0
    outer loop
      vertex 4.02094 6.45442 2.5
      vertex 3.5 6.5 2.71
      vertex 4.02094 6.45442 2.71
    endloop
  endfacet
  facet normal 0.0871627 0.996194 0
    outer loop
      vertex 3.5 6.5 2.71
      vertex 4.02094 6.45442 2.5
      vertex 3.5 6.5 2.5
    endloop
  endfacet
  facet normal -0.707107 -0.707107 0
    outer loop
      vertex -5.42836 -5.79813 2.5
      vertex -5.79813 -5.42836 2.71
      vertex -5.79813 -5.42836 2.5
    endloop
  endfacet
  facet normal -0.707107 -0.707107 0
    outer loop
      vertex -5.79813 -5.42836 2.71
      vertex -5.42836 -5.79813 2.5
      vertex -5.42836 -5.79813 2.71
    endloop
  endfacet
  facet normal 0.573588 0.819144 -0
    outer loop
      vertex 5.42836 5.79813 2.5
      vertex 5 6.09808 2.71
      vertex 5.42836 5.79813 2.71
    endloop
  endfacet
  facet normal 0.573588 0.819144 0
    outer loop
      vertex 5 6.09808 2.71
      vertex 5.42836 5.79813 2.5
      vertex 5 6.09808 2.5
    endloop
  endfacet
  facet normal -0.906309 0.422615 0
    outer loop
      vertex -6.31908 4.52606 2.5
      vertex -6.09808 5 2.71
      vertex -6.09808 5 2.5
    endloop
  endfacet
  facet normal -0.906309 0.422615 0
    outer loop
      vertex -6.09808 5 2.71
      vertex -6.31908 4.52606 2.5
      vertex -6.31908 4.52606 2.71
    endloop
  endfacet
  facet normal 0.819144 -0.573588 0
    outer loop
      vertex 5.79813 -5.42836 2.71
      vertex 6.09808 -5 2.5
      vertex 6.09808 -5 2.71
    endloop
  endfacet
  facet normal 0.819144 -0.573588 0
    outer loop
      vertex 6.09808 -5 2.5
      vertex 5.79813 -5.42836 2.71
      vertex 5.79813 -5.42836 2.5
    endloop
  endfacet
  facet normal 0 1 -0
    outer loop
      vertex 3.5 6.5 2.5
      vertex -3.5 6.5 2.71
      vertex 3.5 6.5 2.71
    endloop
  endfacet
  facet normal 0 1 0
    outer loop
      vertex -3.5 6.5 2.71
      vertex 3.5 6.5 2.5
      vertex -3.5 6.5 2.5
    endloop
  endfacet
  facet normal -1 0 0
    outer loop
      vertex -6.5 -3.5 2.5
      vertex -6.5 3.5 2.71
      vertex -6.5 3.5 2.5
    endloop
  endfacet
  facet normal -1 -0 0
    outer loop
      vertex -6.5 3.5 2.71
      vertex -6.5 -3.5 2.5
      vertex -6.5 -3.5 2.71
    endloop
  endfacet
  facet normal 0.573588 -0.819144 0
    outer loop
      vertex 5 -6.09808 2.5
      vertex 5.42836 -5.79813 2.71
      vertex 5 -6.09808 2.71
    endloop
  endfacet
  facet normal 0.573588 -0.819144 0
    outer loop
      vertex 5.42836 -5.79813 2.71
      vertex 5 -6.09808 2.5
      vertex 5.42836 -5.79813 2.5
    endloop
  endfacet
  facet normal -0.258807 -0.965929 0
    outer loop
      vertex -4.52606 -6.31908 2.5
      vertex -4.02094 -6.45442 2.71
      vertex -4.52606 -6.31908 2.71
    endloop
  endfacet
  facet normal -0.258807 -0.965929 -0
    outer loop
      vertex -4.02094 -6.45442 2.71
      vertex -4.52606 -6.31908 2.5
      vertex -4.02094 -6.45442 2.5
    endloop
  endfacet
  facet normal -0.819144 0.573588 0
    outer loop
      vertex -6.09808 5 2.5
      vertex -5.79813 5.42836 2.71
      vertex -5.79813 5.42836 2.5
    endloop
  endfacet
  facet normal -0.819144 0.573588 0
    outer loop
      vertex -5.79813 5.42836 2.71
      vertex -6.09808 5 2.5
      vertex -6.09808 5 2.71
    endloop
  endfacet
  facet normal 0.996194 -0.0871627 0
    outer loop
      vertex 6.45442 -4.02094 2.71
      vertex 6.5 -3.5 2.5
      vertex 6.5 -3.5 2.71
    endloop
  endfacet
  facet normal 0.996194 -0.0871627 0
    outer loop
      vertex 6.5 -3.5 2.5
      vertex 6.45442 -4.02094 2.71
      vertex 6.45442 -4.02094 2.5
    endloop
  endfacet
  facet normal 0.707107 -0.707107 0
    outer loop
      vertex 5.42836 -5.79813 2.71
      vertex 5.79813 -5.42836 2.5
      vertex 5.79813 -5.42836 2.71
    endloop
  endfacet
  facet normal 0.707107 -0.707107 0
    outer loop
      vertex 5.79813 -5.42836 2.5
      vertex 5.42836 -5.79813 2.71
      vertex 5.42836 -5.79813 2.5
    endloop
  endfacet
  facet normal -0.422615 0.906309 0
    outer loop
      vertex -4.52606 6.31908 2.5
      vertex -5 6.09808 2.71
      vertex -4.52606 6.31908 2.71
    endloop
  endfacet
  facet normal -0.422615 0.906309 0
    outer loop
      vertex -5 6.09808 2.71
      vertex -4.52606 6.31908 2.5
      vertex -5 6.09808 2.5
    endloop
  endfacet
  facet normal -0.965929 -0.258807 0
    outer loop
      vertex -6.31908 -4.52606 2.5
      vertex -6.45442 -4.02094 2.71
      vertex -6.45442 -4.02094 2.5
    endloop
  endfacet
  facet normal -0.965929 -0.258807 0
    outer loop
      vertex -6.45442 -4.02094 2.71
      vertex -6.31908 -4.52606 2.5
      vertex -6.31908 -4.52606 2.71
    endloop
  endfacet
  facet normal 0.258807 0.965929 -0
    outer loop
      vertex 4.52606 6.31908 2.5
      vertex 4.02094 6.45442 2.71
      vertex 4.52606 6.31908 2.71
    endloop
  endfacet
  facet normal 0.258807 0.965929 0
    outer loop
      vertex 4.02094 6.45442 2.71
      vertex 4.52606 6.31908 2.5
      vertex 4.02094 6.45442 2.5
    endloop
  endfacet
  facet normal 0.906309 0.422615 0
    outer loop
      vertex 6.31908 4.52606 2.71
      vertex 6.09808 5 2.5
      vertex 6.09808 5 2.71
    endloop
  endfacet
  facet normal 0.906309 0.422615 0
    outer loop
      vertex 6.09808 5 2.5
      vertex 6.31908 4.52606 2.71
      vertex 6.31908 4.52606 2.5
    endloop
  endfacet
  facet normal -0.573588 0.819144 0
    outer loop
      vertex -5 6.09808 2.5
      vertex -5.42836 5.79813 2.71
      vertex -5 6.09808 2.71
    endloop
  endfacet
  facet normal -0.573588 0.819144 0
    outer loop
      vertex -5.42836 5.79813 2.71
      vertex -5 6.09808 2.5
      vertex -5.42836 5.79813 2.5
    endloop
  endfacet
  facet normal -0.707107 0.707107 0
    outer loop
      vertex -5.79813 5.42836 2.5
      vertex -5.42836 5.79813 2.71
      vertex -5.42836 5.79813 2.5
    endloop
  endfacet
  facet normal -0.707107 0.707107 0
    outer loop
      vertex -5.42836 5.79813 2.71
      vertex -5.79813 5.42836 2.5
      vertex -5.79813 5.42836 2.71
    endloop
  endfacet
  facet normal -0.819144 -0.573588 0
    outer loop
      vertex -5.79813 -5.42836 2.5
      vertex -6.09808 -5 2.71
      vertex -6.09808 -5 2.5
    endloop
  endfacet
  facet normal -0.819144 -0.573588 0
    outer loop
      vertex -6.09808 -5 2.71
      vertex -5.79813 -5.42836 2.5
      vertex -5.79813 -5.42836 2.71
    endloop
  endfacet
  facet normal -0.0871627 0.996194 0
    outer loop
      vertex -3.5 6.5 2.5
      vertex -4.02094 6.45442 2.71
      vertex -3.5 6.5 2.71
    endloop
  endfacet
  facet normal -0.0871627 0.996194 0
    outer loop
      vertex -4.02094 6.45442 2.71
      vertex -3.5 6.5 2.5
      vertex -4.02094 6.45442 2.5
    endloop
  endfacet
  facet normal -0.573588 -0.819144 0
    outer loop
      vertex -5.42836 -5.79813 2.5
      vertex -5 -6.09808 2.71
      vertex -5.42836 -5.79813 2.71
    endloop
  endfacet
  facet normal -0.573588 -0.819144 -0
    outer loop
      vertex -5 -6.09808 2.71
      vertex -5.42836 -5.79813 2.5
      vertex -5 -6.09808 2.5
    endloop
  endfacet
  facet normal -0.0871627 -0.996194 0
    outer loop
      vertex -4.02094 -6.45442 2.5
      vertex -3.5 -6.5 2.71
      vertex -4.02094 -6.45442 2.71
    endloop
  endfacet
  facet normal -0.0871627 -0.996194 -0
    outer loop
      vertex -3.5 -6.5 2.71
      vertex -4.02094 -6.45442 2.5
      vertex -3.5 -6.5 2.5
    endloop
  endfacet
  facet normal 0.819144 0.573588 0
    outer loop
      vertex 6.09808 5 2.71
      vertex 5.79813 5.42836 2.5
      vertex 5.79813 5.42836 2.71
    endloop
  endfacet
  facet normal 0.819144 0.573588 0
    outer loop
      vertex 5.79813 5.42836 2.5
      vertex 6.09808 5 2.71
      vertex 6.09808 5 2.5
    endloop
  endfacet
  facet normal -0.996194 0.0871627 0
    outer loop
      vertex -6.5 3.5 2.5
      vertex -6.45442 4.02094 2.71
      vertex -6.45442 4.02094 2.5
    endloop
  endfacet
  facet normal -0.996194 0.0871627 0
    outer loop
      vertex -6.45442 4.02094 2.71
      vertex -6.5 3.5 2.5
      vertex -6.5 3.5 2.71
    endloop
  endfacet
  facet normal -0.965929 0.258807 0
    outer loop
      vertex -6.45442 4.02094 2.5
      vertex -6.31908 4.52606 2.71
      vertex -6.31908 4.52606 2.5
    endloop
  endfacet
  facet normal -0.965929 0.258807 0
    outer loop
      vertex -6.31908 4.52606 2.71
      vertex -6.45442 4.02094 2.5
      vertex -6.45442 4.02094 2.71
    endloop
  endfacet
  facet normal 0.965929 0.258807 0
    outer loop
      vertex 6.45442 4.02094 2.71
      vertex 6.31908 4.52606 2.5
      vertex 6.31908 4.52606 2.71
    endloop
  endfacet
  facet normal 0.965929 0.258807 0
    outer loop
      vertex 6.31908 4.52606 2.5
      vertex 6.45442 4.02094 2.71
      vertex 6.45442 4.02094 2.5
    endloop
  endfacet
  facet normal -0.996194 -0.0871627 0
    outer loop
      vertex -6.45442 -4.02094 2.5
      vertex -6.5 -3.5 2.71
      vertex -6.5 -3.5 2.5
    endloop
  endfacet
  facet normal -0.996194 -0.0871627 0
    outer loop
      vertex -6.5 -3.5 2.71
      vertex -6.45442 -4.02094 2.5
      vertex -6.45442 -4.02094 2.71
    endloop
  endfacet
  facet normal -0 0 1
    outer loop
      vertex 5.56908 3.77606 2.71
      vertex 6.5 3.5 2.71
      vertex 6.45442 4.02094 2.71
    endloop
  endfacet
  facet normal 0 0 1
    outer loop
      vertex 6.5 3.5 2.71
      vertex 5.75 2.75 2.71
      vertex 6.5 -3.5 2.71
    endloop
  endfacet
  facet normal 0 0 1
    outer loop
      vertex 5.56908 3.77606 2.71
      vertex 6.45442 4.02094 2.71
      vertex 6.31908 4.52606 2.71
    endloop
  endfacet
  facet normal -0 0 1
    outer loop
      vertex 5.75 -2.75 2.71
      vertex 6.5 -3.5 2.71
      vertex 5.75 2.75 2.71
    endloop
  endfacet
  facet normal 0 0 1
    outer loop
      vertex 5.34808 4.25 2.71
      vertex 6.31908 4.52606 2.71
      vertex 6.09808 5 2.71
    endloop
  endfacet
  facet normal -0 0 1
    outer loop
      vertex 5.70442 -3.27094 2.71
      vertex 6.5 -3.5 2.71
      vertex 5.75 -2.75 2.71
    endloop
  endfacet
  facet normal 0 0 1
    outer loop
      vertex 5.04813 4.67836 2.71
      vertex 6.09808 5 2.71
      vertex 5.79813 5.42836 2.71
    endloop
  endfacet
  facet normal 0 0 1
    outer loop
      vertex 5.56908 -3.77606 2.71
      vertex 6.5 -3.5 2.71
      vertex 5.70442 -3.27094 2.71
    endloop
  endfacet
  facet normal 0 0 1
    outer loop
      vertex 6.5 -3.5 2.71
      vertex 5.56908 -3.77606 2.71
      vertex 6.45442 -4.02094 2.71
    endloop
  endfacet
  facet normal 0 0 1
    outer loop
      vertex 6.5 3.5 2.71
      vertex 5.70442 3.27094 2.71
      vertex 5.75 2.75 2.71
    endloop
  endfacet
  facet normal 0 0 1
    outer loop
      vertex 6.5 3.5 2.71
      vertex 5.56908 3.77606 2.71
      vertex 5.70442 3.27094 2.71
    endloop
  endfacet
  facet normal 0 0 1
    outer loop
      vertex 5.04813 4.67836 2.71
      vertex 5.79813 5.42836 2.71
      vertex 5.42836 5.79813 2.71
    endloop
  endfacet
  facet normal 0 0 1
    outer loop
      vertex 6.31908 4.52606 2.71
      vertex 5.34808 4.25 2.71
      vertex 5.56908 3.77606 2.71
    endloop
  endfacet
  facet normal 0 0 1
    outer loop
      vertex 6.09808 5 2.71
      vertex 5.04813 4.67836 2.71
      vertex 5.34808 4.25 2.71
    endloop
  endfacet
  facet normal 0 0 1
    outer loop
      vertex 4.67836 5.04813 2.71
      vertex 5.42836 5.79813 2.71
      vertex 5 6.09808 2.71
    endloop
  endfacet
  facet normal 0 0 1
    outer loop
      vertex 5.42836 5.79813 2.71
      vertex 4.67836 5.04813 2.71
      vertex 5.04813 4.67836 2.71
    endloop
  endfacet
  facet normal 0 0 1
    outer loop
      vertex 4.25 5.34808 2.71
      vertex 5 6.09808 2.71
      vertex 4.52606 6.31908 2.71
    endloop
  endfacet
  facet normal 0 0 1
    outer loop
      vertex 5 6.09808 2.71
      vertex 4.25 5.34808 2.71
      vertex 4.67836 5.04813 2.71
    endloop
  endfacet
  facet normal 0 0 1
    outer loop
      vertex 3.77606 5.56908 2.71
      vertex 4.52606 6.31908 2.71
      vertex 4.02094 6.45442 2.71
    endloop
  endfacet
  facet normal 0 0 1
    outer loop
      vertex 4.52606 6.31908 2.71
      vertex 3.77606 5.56908 2.71
      vertex 4.25 5.34808 2.71
    endloop
  endfacet
  facet normal 0 0 1
    outer loop
      vertex 3.5 6.5 2.71
      vertex 3.77606 5.56908 2.71
      vertex 4.02094 6.45442 2.71
    endloop
  endfacet
  facet normal 0 0 1
    outer loop
      vertex 3.5 6.5 2.71
      vertex 3.27094 5.70442 2.71
      vertex 3.77606 5.56908 2.71
    endloop
  endfacet
  facet normal 0 0 1
    outer loop
      vertex 3.5 6.5 2.71
      vertex 2.75 5.75 2.71
      vertex 3.27094 5.70442 2.71
    endloop
  endfacet
  facet normal 0 0 1
    outer loop
      vertex 3.5 6.5 2.71
      vertex -2.75 5.75 2.71
      vertex 2.75 5.75 2.71
    endloop
  endfacet
  facet normal -0 0 1
    outer loop
      vertex -3.5 6.5 2.71
      vertex -2.75 5.75 2.71
      vertex 3.5 6.5 2.71
    endloop
  endfacet
  facet normal 0 0 1
    outer loop
      vertex -2.75 5.75 2.71
      vertex -3.5 6.5 2.71
      vertex -3.27094 5.70442 2.71
    endloop
  endfacet
  facet normal 0 0 1
    outer loop
      vertex -3.5 6.5 2.71
      vertex -3.77606 5.56908 2.71
      vertex -3.27094 5.70442 2.71
    endloop
  endfacet
  facet normal -0 0 1
    outer loop
      vertex -4.02094 6.45442 2.71
      vertex -3.77606 5.56908 2.71
      vertex -3.5 6.5 2.71
    endloop
  endfacet
  facet normal -0 0 1
    outer loop
      vertex -4.52606 6.31908 2.71
      vertex -3.77606 5.56908 2.71
      vertex -4.02094 6.45442 2.71
    endloop
  endfacet
  facet normal 0 0 1
    outer loop
      vertex -3.77606 5.56908 2.71
      vertex -4.52606 6.31908 2.71
      vertex -4.25 5.34808 2.71
    endloop
  endfacet
  facet normal -0 0 1
    outer loop
      vertex -5 6.09808 2.71
      vertex -4.25 5.34808 2.71
      vertex -4.52606 6.31908 2.71
    endloop
  endfacet
  facet normal 0 0 1
    outer loop
      vertex -4.25 5.34808 2.71
      vertex -5 6.09808 2.71
      vertex -4.67836 5.04813 2.71
    endloop
  endfacet
  facet normal -0 0 1
    outer loop
      vertex -5.42836 5.79813 2.71
      vertex -4.67836 5.04813 2.71
      vertex -5 6.09808 2.71
    endloop
  endfacet
  facet normal 0 0 1
    outer loop
      vertex -4.67836 5.04813 2.71
      vertex -5.42836 5.79813 2.71
      vertex -5.04813 4.67836 2.71
    endloop
  endfacet
  facet normal -0 0 1
    outer loop
      vertex -5.79813 5.42836 2.71
      vertex -5.04813 4.67836 2.71
      vertex -5.42836 5.79813 2.71
    endloop
  endfacet
  facet normal -0 0 1
    outer loop
      vertex -6.09808 5 2.71
      vertex -5.04813 4.67836 2.71
      vertex -5.79813 5.42836 2.71
    endloop
  endfacet
  facet normal 0 0 1
    outer loop
      vertex -5.04813 4.67836 2.71
      vertex -6.09808 5 2.71
      vertex -5.34808 4.25 2.71
    endloop
  endfacet
  facet normal -0 0 1
    outer loop
      vertex -6.45442 4.02094 2.71
      vertex -5.56908 3.77606 2.71
      vertex -6.31908 4.52606 2.71
    endloop
  endfacet
  facet normal 0 0 1
    outer loop
      vertex -5.34808 4.25 2.71
      vertex -6.31908 4.52606 2.71
      vertex -5.56908 3.77606 2.71
    endloop
  endfacet
  facet normal -0 0 1
    outer loop
      vertex -6.31908 4.52606 2.71
      vertex -5.34808 4.25 2.71
      vertex -6.09808 5 2.71
    endloop
  endfacet
  facet normal 0 0 1
    outer loop
      vertex 6.45442 -4.02094 2.71
      vertex 5.56908 -3.77606 2.71
      vertex 6.31908 -4.52606 2.71
    endloop
  endfacet
  facet normal -0 0 1
    outer loop
      vertex 5.34808 -4.25 2.71
      vertex 6.31908 -4.52606 2.71
      vertex 5.56908 -3.77606 2.71
    endloop
  endfacet
  facet normal 0 0 1
    outer loop
      vertex 6.31908 -4.52606 2.71
      vertex 5.34808 -4.25 2.71
      vertex 6.09808 -5 2.71
    endloop
  endfacet
  facet normal -0 0 1
    outer loop
      vertex 5.04813 -4.67836 2.71
      vertex 6.09808 -5 2.71
      vertex 5.34808 -4.25 2.71
    endloop
  endfacet
  facet normal 0 0 1
    outer loop
      vertex 6.09808 -5 2.71
      vertex 5.04813 -4.67836 2.71
      vertex 5.79813 -5.42836 2.71
    endloop
  endfacet
  facet normal 0 0 1
    outer loop
      vertex 5.79813 -5.42836 2.71
      vertex 5.04813 -4.67836 2.71
      vertex 5.42836 -5.79813 2.71
    endloop
  endfacet
  facet normal -0 0 1
    outer loop
      vertex 4.67836 -5.04813 2.71
      vertex 5.42836 -5.79813 2.71
      vertex 5.04813 -4.67836 2.71
    endloop
  endfacet
  facet normal 0 0 1
    outer loop
      vertex 5.42836 -5.79813 2.71
      vertex 4.67836 -5.04813 2.71
      vertex 5 -6.09808 2.71
    endloop
  endfacet
  facet normal -0 0 1
    outer loop
      vertex 4.25 -5.34808 2.71
      vertex 5 -6.09808 2.71
      vertex 4.67836 -5.04813 2.71
    endloop
  endfacet
  facet normal 0 0 1
    outer loop
      vertex 5 -6.09808 2.71
      vertex 4.25 -5.34808 2.71
      vertex 4.52606 -6.31908 2.71
    endloop
  endfacet
  facet normal -0 0 1
    outer loop
      vertex 3.77606 -5.56908 2.71
      vertex 4.52606 -6.31908 2.71
      vertex 4.25 -5.34808 2.71
    endloop
  endfacet
  facet normal 0 0 1
    outer loop
      vertex 4.52606 -6.31908 2.71
      vertex 3.77606 -5.56908 2.71
      vertex 4.02094 -6.45442 2.71
    endloop
  endfacet
  facet normal 0 0 1
    outer loop
      vertex 3.77606 -5.56908 2.71
      vertex 3.5 -6.5 2.71
      vertex 4.02094 -6.45442 2.71
    endloop
  endfacet
  facet normal -0 0 1
    outer loop
      vertex 3.27094 -5.70442 2.71
      vertex 3.5 -6.5 2.71
      vertex 3.77606 -5.56908 2.71
    endloop
  endfacet
  facet normal -0 0 1
    outer loop
      vertex 2.75 -5.75 2.71
      vertex 3.5 -6.5 2.71
      vertex 3.27094 -5.70442 2.71
    endloop
  endfacet
  facet normal -0 0 1
    outer loop
      vertex -2.75 -5.75 2.71
      vertex 3.5 -6.5 2.71
      vertex 2.75 -5.75 2.71
    endloop
  endfacet
  facet normal 0 0 1
    outer loop
      vertex -3.5 -6.5 2.71
      vertex -2.75 -5.75 2.71
      vertex -3.27094 -5.70442 2.71
    endloop
  endfacet
  facet normal 0 0 1
    outer loop
      vertex -2.75 -5.75 2.71
      vertex -3.5 -6.5 2.71
      vertex 3.5 -6.5 2.71
    endloop
  endfacet
  facet normal 0 0 1
    outer loop
      vertex -3.77606 -5.56908 2.71
      vertex -3.5 -6.5 2.71
      vertex -3.27094 -5.70442 2.71
    endloop
  endfacet
  facet normal 0 0 1
    outer loop
      vertex -3.77606 -5.56908 2.71
      vertex -4.02094 -6.45442 2.71
      vertex -3.5 -6.5 2.71
    endloop
  endfacet
  facet normal 0 0 1
    outer loop
      vertex -4.52606 -6.31908 2.71
      vertex -3.77606 -5.56908 2.71
      vertex -4.25 -5.34808 2.71
    endloop
  endfacet
  facet normal 0 0 1
    outer loop
      vertex -3.77606 -5.56908 2.71
      vertex -4.52606 -6.31908 2.71
      vertex -4.02094 -6.45442 2.71
    endloop
  endfacet
  facet normal 0 0 1
    outer loop
      vertex -5 -6.09808 2.71
      vertex -4.25 -5.34808 2.71
      vertex -4.67836 -5.04813 2.71
    endloop
  endfacet
  facet normal 0 0 1
    outer loop
      vertex -4.25 -5.34808 2.71
      vertex -5 -6.09808 2.71
      vertex -4.52606 -6.31908 2.71
    endloop
  endfacet
  facet normal 0 0 1
    outer loop
      vertex -5.42836 -5.79813 2.71
      vertex -4.67836 -5.04813 2.71
      vertex -5.04813 -4.67836 2.71
    endloop
  endfacet
  facet normal 0 0 1
    outer loop
      vertex -6.09808 -5 2.71
      vertex -5.04813 -4.67836 2.71
      vertex -5.34808 -4.25 2.71
    endloop
  endfacet
  facet normal 0 0 1
    outer loop
      vertex -4.67836 -5.04813 2.71
      vertex -5.42836 -5.79813 2.71
      vertex -5 -6.09808 2.71
    endloop
  endfacet
  facet normal 0 0 1
    outer loop
      vertex -6.31908 -4.52606 2.71
      vertex -5.34808 -4.25 2.71
      vertex -5.56908 -3.77606 2.71
    endloop
  endfacet
  facet normal -0 0 1
    outer loop
      vertex -6.5 -3.5 2.71
      vertex -5.56908 -3.77606 2.71
      vertex -5.70442 -3.27094 2.71
    endloop
  endfacet
  facet normal 0 0 1
    outer loop
      vertex -5.04813 -4.67836 2.71
      vertex -5.79813 -5.42836 2.71
      vertex -5.42836 -5.79813 2.71
    endloop
  endfacet
  facet normal 0 0 1
    outer loop
      vertex -6.5 -3.5 2.71
      vertex -5.70442 -3.27094 2.71
      vertex -5.75 -2.75 2.71
    endloop
  endfacet
  facet normal 0 0 1
    outer loop
      vertex -5.75 2.75 2.71
      vertex -6.5 3.5 2.71
      vertex -5.75 -2.75 2.71
    endloop
  endfacet
  facet normal 0 0 1
    outer loop
      vertex -6.5 3.5 2.71
      vertex -5.56908 3.77606 2.71
      vertex -6.45442 4.02094 2.71
    endloop
  endfacet
  facet normal 0 0 1
    outer loop
      vertex -6.5 -3.5 2.71
      vertex -5.75 -2.75 2.71
      vertex -6.5 3.5 2.71
    endloop
  endfacet
  facet normal 0 0 1
    outer loop
      vertex -5.56908 3.77606 2.71
      vertex -6.5 3.5 2.71
      vertex -5.70442 3.27094 2.71
    endloop
  endfacet
  facet normal 0 0 1
    outer loop
      vertex -5.56908 -3.77606 2.71
      vertex -6.5 -3.5 2.71
      vertex -6.45442 -4.02094 2.71
    endloop
  endfacet
  facet normal 0 0 1
    outer loop
      vertex -5.70442 3.27094 2.71
      vertex -6.5 3.5 2.71
      vertex -5.75 2.75 2.71
    endloop
  endfacet
  facet normal 0 0 1
    outer loop
      vertex -5.04813 -4.67836 2.71
      vertex -6.09808 -5 2.71
      vertex -5.79813 -5.42836 2.71
    endloop
  endfacet
  facet normal 0 0 1
    outer loop
      vertex -5.34808 -4.25 2.71
      vertex -6.31908 -4.52606 2.71
      vertex -6.09808 -5 2.71
    endloop
  endfacet
  facet normal 0 0 1
    outer loop
      vertex -5.56908 -3.77606 2.71
      vertex -6.45442 -4.02094 2.71
      vertex -6.31908 -4.52606 2.71
    endloop
  endfacet
  facet normal 0.258807 -0.965929 0
    outer loop
      vertex 4.02094 -6.45442 2.5
      vertex 4.52606 -6.31908 2.71
      vertex 4.02094 -6.45442 2.71
    endloop
  endfacet
  facet normal 0.258807 -0.965929 0
    outer loop
      vertex 4.52606 -6.31908 2.71
      vertex 4.02094 -6.45442 2.5
      vertex 4.52606 -6.31908 2.5
    endloop
  endfacet
  facet normal 0.422615 -0.906309 0
    outer loop
      vertex 4.52606 -6.31908 2.5
      vertex 5 -6.09808 2.71
      vertex 4.52606 -6.31908 2.71
    endloop
  endfacet
  facet normal 0.422615 -0.906309 0
    outer loop
      vertex 5 -6.09808 2.71
      vertex 4.52606 -6.31908 2.5
      vertex 5 -6.09808 2.5
    endloop
  endfacet
  facet normal 0.996194 0.0871627 0
    outer loop
      vertex 6.5 3.5 2.71
      vertex 6.45442 4.02094 2.5
      vertex 6.45442 4.02094 2.71
    endloop
  endfacet
  facet normal 0.996194 0.0871627 0
    outer loop
      vertex 6.45442 4.02094 2.5
      vertex 6.5 3.5 2.71
      vertex 6.5 3.5 2.5
    endloop
  endfacet
  facet normal 0 0 -1
    outer loop
      vertex 5.56908 -3.77606 2.5
      vertex 6.5 -3.5 2.5
      vertex 6.45442 -4.02094 2.5
    endloop
  endfacet
  facet normal 0 0 -1
    outer loop
      vertex 6.5 -3.5 2.5
      vertex 5.75 -2.75 2.5
      vertex 6.5 3.5 2.5
    endloop
  endfacet
  facet normal 0 0 -1
    outer loop
      vertex 5.56908 -3.77606 2.5
      vertex 6.45442 -4.02094 2.5
      vertex 6.31908 -4.52606 2.5
    endloop
  endfacet
  facet normal 0 0 -1
    outer loop
      vertex 5.75 2.75 2.5
      vertex 6.5 3.5 2.5
      vertex 5.75 -2.75 2.5
    endloop
  endfacet
  facet normal 0 0 -1
    outer loop
      vertex 5.34808 -4.25 2.5
      vertex 6.31908 -4.52606 2.5
      vertex 6.09808 -5 2.5
    endloop
  endfacet
  facet normal 0 0 -1
    outer loop
      vertex 5.70442 3.27094 2.5
      vertex 6.5 3.5 2.5
      vertex 5.75 2.75 2.5
    endloop
  endfacet
  facet normal 0 0 -1
    outer loop
      vertex 5.04813 -4.67836 2.5
      vertex 6.09808 -5 2.5
      vertex 5.79813 -5.42836 2.5
    endloop
  endfacet
  facet normal 0 0 -1
    outer loop
      vertex 5.56908 3.77606 2.5
      vertex 6.5 3.5 2.5
      vertex 5.70442 3.27094 2.5
    endloop
  endfacet
  facet normal 0 0 -1
    outer loop
      vertex 6.5 3.5 2.5
      vertex 5.56908 3.77606 2.5
      vertex 6.45442 4.02094 2.5
    endloop
  endfacet
  facet normal 0 0 -1
    outer loop
      vertex 6.5 -3.5 2.5
      vertex 5.70442 -3.27094 2.5
      vertex 5.75 -2.75 2.5
    endloop
  endfacet
  facet normal -0 0 -1
    outer loop
      vertex 6.5 -3.5 2.5
      vertex 5.56908 -3.77606 2.5
      vertex 5.70442 -3.27094 2.5
    endloop
  endfacet
  facet normal 0 0 -1
    outer loop
      vertex 5.04813 -4.67836 2.5
      vertex 5.79813 -5.42836 2.5
      vertex 5.42836 -5.79813 2.5
    endloop
  endfacet
  facet normal 0 0 -1
    outer loop
      vertex 6.31908 -4.52606 2.5
      vertex 5.34808 -4.25 2.5
      vertex 5.56908 -3.77606 2.5
    endloop
  endfacet
  facet normal 0 0 -1
    outer loop
      vertex 6.09808 -5 2.5
      vertex 5.04813 -4.67836 2.5
      vertex 5.34808 -4.25 2.5
    endloop
  endfacet
  facet normal 0 0 -1
    outer loop
      vertex 4.67836 -5.04813 2.5
      vertex 5.42836 -5.79813 2.5
      vertex 5 -6.09808 2.5
    endloop
  endfacet
  facet normal 0 0 -1
    outer loop
      vertex 5.42836 -5.79813 2.5
      vertex 4.67836 -5.04813 2.5
      vertex 5.04813 -4.67836 2.5
    endloop
  endfacet
  facet normal 0 0 -1
    outer loop
      vertex 4.25 -5.34808 2.5
      vertex 5 -6.09808 2.5
      vertex 4.52606 -6.31908 2.5
    endloop
  endfacet
  facet normal 0 0 -1
    outer loop
      vertex 5 -6.09808 2.5
      vertex 4.25 -5.34808 2.5
      vertex 4.67836 -5.04813 2.5
    endloop
  endfacet
  facet normal 0 0 -1
    outer loop
      vertex 3.77606 -5.56908 2.5
      vertex 4.52606 -6.31908 2.5
      vertex 4.02094 -6.45442 2.5
    endloop
  endfacet
  facet normal 0 0 -1
    outer loop
      vertex 4.52606 -6.31908 2.5
      vertex 3.77606 -5.56908 2.5
      vertex 4.25 -5.34808 2.5
    endloop
  endfacet
  facet normal 0 0 -1
    outer loop
      vertex 3.5 -6.5 2.5
      vertex 3.77606 -5.56908 2.5
      vertex 4.02094 -6.45442 2.5
    endloop
  endfacet
  facet normal 0 0 -1
    outer loop
      vertex 3.5 -6.5 2.5
      vertex 3.27094 -5.70442 2.5
      vertex 3.77606 -5.56908 2.5
    endloop
  endfacet
  facet normal 0 0 -1
    outer loop
      vertex 3.5 -6.5 2.5
      vertex 2.75 -5.75 2.5
      vertex 3.27094 -5.70442 2.5
    endloop
  endfacet
  facet normal 0 0 -1
    outer loop
      vertex 3.5 -6.5 2.5
      vertex -2.75 -5.75 2.5
      vertex 2.75 -5.75 2.5
    endloop
  endfacet
  facet normal 0 0 -1
    outer loop
      vertex -3.5 -6.5 2.5
      vertex -2.75 -5.75 2.5
      vertex 3.5 -6.5 2.5
    endloop
  endfacet
  facet normal -0 0 -1
    outer loop
      vertex -2.75 -5.75 2.5
      vertex -3.5 -6.5 2.5
      vertex -3.27094 -5.70442 2.5
    endloop
  endfacet
  facet normal 0 0 -1
    outer loop
      vertex -3.5 -6.5 2.5
      vertex -3.77606 -5.56908 2.5
      vertex -3.27094 -5.70442 2.5
    endloop
  endfacet
  facet normal 0 0 -1
    outer loop
      vertex -4.02094 -6.45442 2.5
      vertex -3.77606 -5.56908 2.5
      vertex -3.5 -6.5 2.5
    endloop
  endfacet
  facet normal 0 0 -1
    outer loop
      vertex -4.52606 -6.31908 2.5
      vertex -3.77606 -5.56908 2.5
      vertex -4.02094 -6.45442 2.5
    endloop
  endfacet
  facet normal -0 0 -1
    outer loop
      vertex -3.77606 -5.56908 2.5
      vertex -4.52606 -6.31908 2.5
      vertex -4.25 -5.34808 2.5
    endloop
  endfacet
  facet normal 0 0 -1
    outer loop
      vertex -5 -6.09808 2.5
      vertex -4.25 -5.34808 2.5
      vertex -4.52606 -6.31908 2.5
    endloop
  endfacet
  facet normal -0 0 -1
    outer loop
      vertex -4.25 -5.34808 2.5
      vertex -5 -6.09808 2.5
      vertex -4.67836 -5.04813 2.5
    endloop
  endfacet
  facet normal 0 0 -1
    outer loop
      vertex -5.42836 -5.79813 2.5
      vertex -4.67836 -5.04813 2.5
      vertex -5 -6.09808 2.5
    endloop
  endfacet
  facet normal -0 0 -1
    outer loop
      vertex -4.67836 -5.04813 2.5
      vertex -5.42836 -5.79813 2.5
      vertex -5.04813 -4.67836 2.5
    endloop
  endfacet
  facet normal 0 0 -1
    outer loop
      vertex -5.79813 -5.42836 2.5
      vertex -5.04813 -4.67836 2.5
      vertex -5.42836 -5.79813 2.5
    endloop
  endfacet
  facet normal 0 0 -1
    outer loop
      vertex -6.09808 -5 2.5
      vertex -5.04813 -4.67836 2.5
      vertex -5.79813 -5.42836 2.5
    endloop
  endfacet
  facet normal -0 0 -1
    outer loop
      vertex -5.04813 -4.67836 2.5
      vertex -6.09808 -5 2.5
      vertex -5.34808 -4.25 2.5
    endloop
  endfacet
  facet normal 0 0 -1
    outer loop
      vertex -6.45442 -4.02094 2.5
      vertex -5.56908 -3.77606 2.5
      vertex -6.31908 -4.52606 2.5
    endloop
  endfacet
  facet normal -0 0 -1
    outer loop
      vertex -5.34808 -4.25 2.5
      vertex -6.31908 -4.52606 2.5
      vertex -5.56908 -3.77606 2.5
    endloop
  endfacet
  facet normal 0 0 -1
    outer loop
      vertex -6.31908 -4.52606 2.5
      vertex -5.34808 -4.25 2.5
      vertex -6.09808 -5 2.5
    endloop
  endfacet
  facet normal -0 0 -1
    outer loop
      vertex 6.45442 4.02094 2.5
      vertex 5.56908 3.77606 2.5
      vertex 6.31908 4.52606 2.5
    endloop
  endfacet
  facet normal 0 0 -1
    outer loop
      vertex 5.34808 4.25 2.5
      vertex 6.31908 4.52606 2.5
      vertex 5.56908 3.77606 2.5
    endloop
  endfacet
  facet normal -0 0 -1
    outer loop
      vertex 6.31908 4.52606 2.5
      vertex 5.34808 4.25 2.5
      vertex 6.09808 5 2.5
    endloop
  endfacet
  facet normal 0 0 -1
    outer loop
      vertex 5.04813 4.67836 2.5
      vertex 6.09808 5 2.5
      vertex 5.34808 4.25 2.5
    endloop
  endfacet
  facet normal -0 0 -1
    outer loop
      vertex 6.09808 5 2.5
      vertex 5.04813 4.67836 2.5
      vertex 5.79813 5.42836 2.5
    endloop
  endfacet
  facet normal -0 0 -1
    outer loop
      vertex 5.79813 5.42836 2.5
      vertex 5.04813 4.67836 2.5
      vertex 5.42836 5.79813 2.5
    endloop
  endfacet
  facet normal 0 0 -1
    outer loop
      vertex 4.67836 5.04813 2.5
      vertex 5.42836 5.79813 2.5
      vertex 5.04813 4.67836 2.5
    endloop
  endfacet
  facet normal -0 0 -1
    outer loop
      vertex 5.42836 5.79813 2.5
      vertex 4.67836 5.04813 2.5
      vertex 5 6.09808 2.5
    endloop
  endfacet
  facet normal 0 0 -1
    outer loop
      vertex 4.25 5.34808 2.5
      vertex 5 6.09808 2.5
      vertex 4.67836 5.04813 2.5
    endloop
  endfacet
  facet normal -0 0 -1
    outer loop
      vertex 5 6.09808 2.5
      vertex 4.25 5.34808 2.5
      vertex 4.52606 6.31908 2.5
    endloop
  endfacet
  facet normal 0 0 -1
    outer loop
      vertex 3.77606 5.56908 2.5
      vertex 4.52606 6.31908 2.5
      vertex 4.25 5.34808 2.5
    endloop
  endfacet
  facet normal -0 0 -1
    outer loop
      vertex 4.52606 6.31908 2.5
      vertex 3.77606 5.56908 2.5
      vertex 4.02094 6.45442 2.5
    endloop
  endfacet
  facet normal 0 0 -1
    outer loop
      vertex 3.77606 5.56908 2.5
      vertex 3.5 6.5 2.5
      vertex 4.02094 6.45442 2.5
    endloop
  endfacet
  facet normal 0 0 -1
    outer loop
      vertex 3.27094 5.70442 2.5
      vertex 3.5 6.5 2.5
      vertex 3.77606 5.56908 2.5
    endloop
  endfacet
  facet normal 0 0 -1
    outer loop
      vertex 2.75 5.75 2.5
      vertex 3.5 6.5 2.5
      vertex 3.27094 5.70442 2.5
    endloop
  endfacet
  facet normal 0 0 -1
    outer loop
      vertex -2.75 5.75 2.5
      vertex 3.5 6.5 2.5
      vertex 2.75 5.75 2.5
    endloop
  endfacet
  facet normal 0 0 -1
    outer loop
      vertex -3.5 6.5 2.5
      vertex -2.75 5.75 2.5
      vertex -3.27094 5.70442 2.5
    endloop
  endfacet
  facet normal 0 0 -1
    outer loop
      vertex -2.75 5.75 2.5
      vertex -3.5 6.5 2.5
      vertex 3.5 6.5 2.5
    endloop
  endfacet
  facet normal 0 0 -1
    outer loop
      vertex -3.77606 5.56908 2.5
      vertex -3.5 6.5 2.5
      vertex -3.27094 5.70442 2.5
    endloop
  endfacet
  facet normal 0 0 -1
    outer loop
      vertex -3.77606 5.56908 2.5
      vertex -4.02094 6.45442 2.5
      vertex -3.5 6.5 2.5
    endloop
  endfacet
  facet normal 0 0 -1
    outer loop
      vertex -4.52606 6.31908 2.5
      vertex -3.77606 5.56908 2.5
      vertex -4.25 5.34808 2.5
    endloop
  endfacet
  facet normal 0 0 -1
    outer loop
      vertex -3.77606 5.56908 2.5
      vertex -4.52606 6.31908 2.5
      vertex -4.02094 6.45442 2.5
    endloop
  endfacet
  facet normal 0 0 -1
    outer loop
      vertex -5 6.09808 2.5
      vertex -4.25 5.34808 2.5
      vertex -4.67836 5.04813 2.5
    endloop
  endfacet
  facet normal 0 0 -1
    outer loop
      vertex -4.25 5.34808 2.5
      vertex -5 6.09808 2.5
      vertex -4.52606 6.31908 2.5
    endloop
  endfacet
  facet normal 0 0 -1
    outer loop
      vertex -5.42836 5.79813 2.5
      vertex -4.67836 5.04813 2.5
      vertex -5.04813 4.67836 2.5
    endloop
  endfacet
  facet normal 0 0 -1
    outer loop
      vertex -6.09808 5 2.5
      vertex -5.04813 4.67836 2.5
      vertex -5.34808 4.25 2.5
    endloop
  endfacet
  facet normal 0 0 -1
    outer loop
      vertex -4.67836 5.04813 2.5
      vertex -5.42836 5.79813 2.5
      vertex -5 6.09808 2.5
    endloop
  endfacet
  facet normal 0 0 -1
    outer loop
      vertex -6.31908 4.52606 2.5
      vertex -5.34808 4.25 2.5
      vertex -5.56908 3.77606 2.5
    endloop
  endfacet
  facet normal 0 0 -1
    outer loop
      vertex -6.5 3.5 2.5
      vertex -5.56908 3.77606 2.5
      vertex -5.70442 3.27094 2.5
    endloop
  endfacet
  facet normal 0 0 -1
    outer loop
      vertex -5.04813 4.67836 2.5
      vertex -5.79813 5.42836 2.5
      vertex -5.42836 5.79813 2.5
    endloop
  endfacet
  facet normal 0 0 -1
    outer loop
      vertex -6.5 3.5 2.5
      vertex -5.70442 3.27094 2.5
      vertex -5.75 2.75 2.5
    endloop
  endfacet
  facet normal -0 0 -1
    outer loop
      vertex -5.75 -2.75 2.5
      vertex -6.5 -3.5 2.5
      vertex -5.75 2.75 2.5
    endloop
  endfacet
  facet normal 0 0 -1
    outer loop
      vertex -6.5 -3.5 2.5
      vertex -5.56908 -3.77606 2.5
      vertex -6.45442 -4.02094 2.5
    endloop
  endfacet
  facet normal 0 0 -1
    outer loop
      vertex -6.5 3.5 2.5
      vertex -5.75 2.75 2.5
      vertex -6.5 -3.5 2.5
    endloop
  endfacet
  facet normal 0 0 -1
    outer loop
      vertex -5.56908 -3.77606 2.5
      vertex -6.5 -3.5 2.5
      vertex -5.70442 -3.27094 2.5
    endloop
  endfacet
  facet normal -0 0 -1
    outer loop
      vertex -5.56908 3.77606 2.5
      vertex -6.5 3.5 2.5
      vertex -6.45442 4.02094 2.5
    endloop
  endfacet
  facet normal -0 0 -1
    outer loop
      vertex -5.70442 -3.27094 2.5
      vertex -6.5 -3.5 2.5
      vertex -5.75 -2.75 2.5
    endloop
  endfacet
  facet normal 0 0 -1
    outer loop
      vertex -5.04813 4.67836 2.5
      vertex -6.09808 5 2.5
      vertex -5.79813 5.42836 2.5
    endloop
  endfacet
  facet normal 0 0 -1
    outer loop
      vertex -5.34808 4.25 2.5
      vertex -6.31908 4.52606 2.5
      vertex -6.09808 5 2.5
    endloop
  endfacet
  facet normal 0 0 -1
    outer loop
      vertex -5.56908 3.77606 2.5
      vertex -6.45442 4.02094 2.5
      vertex -6.31908 4.52606 2.5
    endloop
  endfacet
  facet normal -0.422615 0.906309 0
    outer loop
      vertex 4.25 -5.34808 2.5
      vertex 3.77606 -5.56908 2.71
      vertex 4.25 -5.34808 2.71
    endloop
  endfacet
  facet normal -0.422615 0.906309 0
    outer loop
      vertex 3.77606 -5.56908 2.71
      vertex 4.25 -5.34808 2.5
      vertex 3.77606 -5.56908 2.5
    endloop
  endfacet
  facet normal 0.0871627 -0.996194 0
    outer loop
      vertex -3.27094 5.70442 2.5
      vertex -2.75 5.75 2.71
      vertex -3.27094 5.70442 2.71
    endloop
  endfacet
  facet normal 0.0871627 -0.996194 0
    outer loop
      vertex -2.75 5.75 2.71
      vertex -3.27094 5.70442 2.5
      vertex -2.75 5.75 2.5
    endloop
  endfacet
  facet normal 0.573588 0.819144 -0
    outer loop
      vertex -4.25 -5.34808 2.5
      vertex -4.67836 -5.04813 2.71
      vertex -4.25 -5.34808 2.71
    endloop
  endfacet
  facet normal 0.573588 0.819144 0
    outer loop
      vertex -4.67836 -5.04813 2.71
      vertex -4.25 -5.34808 2.5
      vertex -4.67836 -5.04813 2.5
    endloop
  endfacet
  facet normal -0.819144 0.573588 0
    outer loop
      vertex 5.04813 -4.67836 2.5
      vertex 5.34808 -4.25 2.71
      vertex 5.34808 -4.25 2.5
    endloop
  endfacet
  facet normal -0.819144 0.573588 0
    outer loop
      vertex 5.34808 -4.25 2.71
      vertex 5.04813 -4.67836 2.5
      vertex 5.04813 -4.67836 2.71
    endloop
  endfacet
  facet normal 0.0871627 0.996194 -0
    outer loop
      vertex -2.75 -5.75 2.5
      vertex -3.27094 -5.70442 2.71
      vertex -2.75 -5.75 2.71
    endloop
  endfacet
  facet normal 0.0871627 0.996194 0
    outer loop
      vertex -3.27094 -5.70442 2.71
      vertex -2.75 -5.75 2.5
      vertex -3.27094 -5.70442 2.5
    endloop
  endfacet
  facet normal -1 0 0
    outer loop
      vertex 5.75 -2.75 2.5
      vertex 5.75 2.75 2.71
      vertex 5.75 2.75 2.5
    endloop
  endfacet
  facet normal -1 -0 0
    outer loop
      vertex 5.75 2.75 2.71
      vertex 5.75 -2.75 2.5
      vertex 5.75 -2.75 2.71
    endloop
  endfacet
  facet normal -0.573588 0.819144 0
    outer loop
      vertex 4.67836 -5.04813 2.5
      vertex 4.25 -5.34808 2.71
      vertex 4.67836 -5.04813 2.71
    endloop
  endfacet
  facet normal -0.573588 0.819144 0
    outer loop
      vertex 4.25 -5.34808 2.71
      vertex 4.67836 -5.04813 2.5
      vertex 4.25 -5.34808 2.5
    endloop
  endfacet
  facet normal 0.422615 0.906309 -0
    outer loop
      vertex -3.77606 -5.56908 2.5
      vertex -4.25 -5.34808 2.71
      vertex -3.77606 -5.56908 2.71
    endloop
  endfacet
  facet normal 0.422615 0.906309 0
    outer loop
      vertex -4.25 -5.34808 2.71
      vertex -3.77606 -5.56908 2.5
      vertex -4.25 -5.34808 2.5
    endloop
  endfacet
  facet normal -0.258807 -0.965929 0
    outer loop
      vertex 3.27094 5.70442 2.5
      vertex 3.77606 5.56908 2.71
      vertex 3.27094 5.70442 2.71
    endloop
  endfacet
  facet normal -0.258807 -0.965929 -0
    outer loop
      vertex 3.77606 5.56908 2.71
      vertex 3.27094 5.70442 2.5
      vertex 3.77606 5.56908 2.5
    endloop
  endfacet
  facet normal -0.965929 -0.258807 0
    outer loop
      vertex 5.70442 3.27094 2.5
      vertex 5.56908 3.77606 2.71
      vertex 5.56908 3.77606 2.5
    endloop
  endfacet
  facet normal -0.965929 -0.258807 0
    outer loop
      vertex 5.56908 3.77606 2.71
      vertex 5.70442 3.27094 2.5
      vertex 5.70442 3.27094 2.71
    endloop
  endfacet
  facet normal -0.707107 0.707107 0
    outer loop
      vertex 4.67836 -5.04813 2.5
      vertex 5.04813 -4.67836 2.71
      vertex 5.04813 -4.67836 2.5
    endloop
  endfacet
  facet normal -0.707107 0.707107 0
    outer loop
      vertex 5.04813 -4.67836 2.71
      vertex 4.67836 -5.04813 2.5
      vertex 4.67836 -5.04813 2.71
    endloop
  endfacet
  facet normal 0.573588 -0.819144 0
    outer loop
      vertex -4.67836 5.04813 2.5
      vertex -4.25 5.34808 2.71
      vertex -4.67836 5.04813 2.71
    endloop
  endfacet
  facet normal 0.573588 -0.819144 0
    outer loop
      vertex -4.25 5.34808 2.71
      vertex -4.67836 5.04813 2.5
      vertex -4.25 5.34808 2.5
    endloop
  endfacet
  facet normal 0.258807 -0.965929 0
    outer loop
      vertex -3.77606 5.56908 2.5
      vertex -3.27094 5.70442 2.71
      vertex -3.77606 5.56908 2.71
    endloop
  endfacet
  facet normal 0.258807 -0.965929 0
    outer loop
      vertex -3.27094 5.70442 2.71
      vertex -3.77606 5.56908 2.5
      vertex -3.27094 5.70442 2.5
    endloop
  endfacet
  facet normal -0.573588 -0.819144 0
    outer loop
      vertex 4.25 5.34808 2.5
      vertex 4.67836 5.04813 2.71
      vertex 4.25 5.34808 2.71
    endloop
  endfacet
  facet normal -0.573588 -0.819144 -0
    outer loop
      vertex 4.67836 5.04813 2.71
      vertex 4.25 5.34808 2.5
      vertex 4.67836 5.04813 2.5
    endloop
  endfacet
  facet normal 0 -1 0
    outer loop
      vertex -2.75 5.75 2.5
      vertex 2.75 5.75 2.71
      vertex -2.75 5.75 2.71
    endloop
  endfacet
  facet normal 0 -1 -0
    outer loop
      vertex 2.75 5.75 2.71
      vertex -2.75 5.75 2.5
      vertex 2.75 5.75 2.5
    endloop
  endfacet
  facet normal 1 -0 0
    outer loop
      vertex -5.75 -2.75 2.71
      vertex -5.75 2.75 2.5
      vertex -5.75 2.75 2.71
    endloop
  endfacet
  facet normal 1 0 0
    outer loop
      vertex -5.75 2.75 2.5
      vertex -5.75 -2.75 2.71
      vertex -5.75 -2.75 2.5
    endloop
  endfacet
  facet normal 0.965929 -0.258807 0
    outer loop
      vertex -5.70442 3.27094 2.71
      vertex -5.56908 3.77606 2.5
      vertex -5.56908 3.77606 2.71
    endloop
  endfacet
  facet normal 0.965929 -0.258807 0
    outer loop
      vertex -5.56908 3.77606 2.5
      vertex -5.70442 3.27094 2.71
      vertex -5.70442 3.27094 2.5
    endloop
  endfacet
  facet normal -0.996194 0.0871627 0
    outer loop
      vertex 5.70442 -3.27094 2.5
      vertex 5.75 -2.75 2.71
      vertex 5.75 -2.75 2.5
    endloop
  endfacet
  facet normal -0.996194 0.0871627 0
    outer loop
      vertex 5.75 -2.75 2.71
      vertex 5.70442 -3.27094 2.5
      vertex 5.70442 -3.27094 2.71
    endloop
  endfacet
  facet normal -0.422615 -0.906309 0
    outer loop
      vertex 3.77606 5.56908 2.5
      vertex 4.25 5.34808 2.71
      vertex 3.77606 5.56908 2.71
    endloop
  endfacet
  facet normal -0.422615 -0.906309 -0
    outer loop
      vertex 4.25 5.34808 2.71
      vertex 3.77606 5.56908 2.5
      vertex 4.25 5.34808 2.5
    endloop
  endfacet
  facet normal 0.422615 -0.906309 0
    outer loop
      vertex -4.25 5.34808 2.5
      vertex -3.77606 5.56908 2.71
      vertex -4.25 5.34808 2.71
    endloop
  endfacet
  facet normal 0.422615 -0.906309 0
    outer loop
      vertex -3.77606 5.56908 2.71
      vertex -4.25 5.34808 2.5
      vertex -3.77606 5.56908 2.5
    endloop
  endfacet
  facet normal -0.707107 -0.707107 0
    outer loop
      vertex 5.04813 4.67836 2.5
      vertex 4.67836 5.04813 2.71
      vertex 4.67836 5.04813 2.5
    endloop
  endfacet
  facet normal -0.707107 -0.707107 0
    outer loop
      vertex 4.67836 5.04813 2.71
      vertex 5.04813 4.67836 2.5
      vertex 5.04813 4.67836 2.71
    endloop
  endfacet
  facet normal -0.0871627 0.996194 0
    outer loop
      vertex 3.27094 -5.70442 2.5
      vertex 2.75 -5.75 2.71
      vertex 3.27094 -5.70442 2.71
    endloop
  endfacet
  facet normal -0.0871627 0.996194 0
    outer loop
      vertex 2.75 -5.75 2.71
      vertex 3.27094 -5.70442 2.5
      vertex 2.75 -5.75 2.5
    endloop
  endfacet
  facet normal 0.906309 -0.422615 0
    outer loop
      vertex -5.56908 3.77606 2.71
      vertex -5.34808 4.25 2.5
      vertex -5.34808 4.25 2.71
    endloop
  endfacet
  facet normal 0.906309 -0.422615 0
    outer loop
      vertex -5.34808 4.25 2.5
      vertex -5.56908 3.77606 2.71
      vertex -5.56908 3.77606 2.5
    endloop
  endfacet
  facet normal 0 1 -0
    outer loop
      vertex 2.75 -5.75 2.5
      vertex -2.75 -5.75 2.71
      vertex 2.75 -5.75 2.71
    endloop
  endfacet
  facet normal 0 1 0
    outer loop
      vertex -2.75 -5.75 2.71
      vertex 2.75 -5.75 2.5
      vertex -2.75 -5.75 2.5
    endloop
  endfacet
  facet normal -0.965929 0.258807 0
    outer loop
      vertex 5.56908 -3.77606 2.5
      vertex 5.70442 -3.27094 2.71
      vertex 5.70442 -3.27094 2.5
    endloop
  endfacet
  facet normal -0.965929 0.258807 0
    outer loop
      vertex 5.70442 -3.27094 2.71
      vertex 5.56908 -3.77606 2.5
      vertex 5.56908 -3.77606 2.71
    endloop
  endfacet
  facet normal 0.819144 -0.573588 0
    outer loop
      vertex -5.34808 4.25 2.71
      vertex -5.04813 4.67836 2.5
      vertex -5.04813 4.67836 2.71
    endloop
  endfacet
  facet normal 0.819144 -0.573588 0
    outer loop
      vertex -5.04813 4.67836 2.5
      vertex -5.34808 4.25 2.71
      vertex -5.34808 4.25 2.5
    endloop
  endfacet
  facet normal 0.906309 0.422615 0
    outer loop
      vertex -5.34808 -4.25 2.71
      vertex -5.56908 -3.77606 2.5
      vertex -5.56908 -3.77606 2.71
    endloop
  endfacet
  facet normal 0.906309 0.422615 0
    outer loop
      vertex -5.56908 -3.77606 2.5
      vertex -5.34808 -4.25 2.71
      vertex -5.34808 -4.25 2.5
    endloop
  endfacet
  facet normal -0.906309 0.422615 0
    outer loop
      vertex 5.34808 -4.25 2.5
      vertex 5.56908 -3.77606 2.71
      vertex 5.56908 -3.77606 2.5
    endloop
  endfacet
  facet normal -0.906309 0.422615 0
    outer loop
      vertex 5.56908 -3.77606 2.71
      vertex 5.34808 -4.25 2.5
      vertex 5.34808 -4.25 2.71
    endloop
  endfacet
  facet normal -0.0871627 -0.996194 0
    outer loop
      vertex 2.75 5.75 2.5
      vertex 3.27094 5.70442 2.71
      vertex 2.75 5.75 2.71
    endloop
  endfacet
  facet normal -0.0871627 -0.996194 -0
    outer loop
      vertex 3.27094 5.70442 2.71
      vertex 2.75 5.75 2.5
      vertex 3.27094 5.70442 2.5
    endloop
  endfacet
  facet normal -0.819144 -0.573588 0
    outer loop
      vertex 5.34808 4.25 2.5
      vertex 5.04813 4.67836 2.71
      vertex 5.04813 4.67836 2.5
    endloop
  endfacet
  facet normal -0.819144 -0.573588 0
    outer loop
      vertex 5.04813 4.67836 2.71
      vertex 5.34808 4.25 2.5
      vertex 5.34808 4.25 2.71
    endloop
  endfacet
  facet normal -0.996194 -0.0871627 0
    outer loop
      vertex 5.75 2.75 2.5
      vertex 5.70442 3.27094 2.71
      vertex 5.70442 3.27094 2.5
    endloop
  endfacet
  facet normal -0.996194 -0.0871627 0
    outer loop
      vertex 5.70442 3.27094 2.71
      vertex 5.75 2.75 2.5
      vertex 5.75 2.75 2.71
    endloop
  endfacet
  facet normal 0.707107 0.707107 0
    outer loop
      vertex -4.67836 -5.04813 2.71
      vertex -5.04813 -4.67836 2.5
      vertex -5.04813 -4.67836 2.71
    endloop
  endfacet
  facet normal 0.707107 0.707107 0
    outer loop
      vertex -5.04813 -4.67836 2.5
      vertex -4.67836 -5.04813 2.71
      vertex -4.67836 -5.04813 2.5
    endloop
  endfacet
  facet normal 0.707107 -0.707107 0
    outer loop
      vertex -5.04813 4.67836 2.71
      vertex -4.67836 5.04813 2.5
      vertex -4.67836 5.04813 2.71
    endloop
  endfacet
  facet normal 0.707107 -0.707107 0
    outer loop
      vertex -4.67836 5.04813 2.5
      vertex -5.04813 4.67836 2.71
      vertex -5.04813 4.67836 2.5
    endloop
  endfacet
  facet normal -0.258807 0.965929 0
    outer loop
      vertex 3.77606 -5.56908 2.5
      vertex 3.27094 -5.70442 2.71
      vertex 3.77606 -5.56908 2.71
    endloop
  endfacet
  facet normal -0.258807 0.965929 0
    outer loop
      vertex 3.27094 -5.70442 2.71
      vertex 3.77606 -5.56908 2.5
      vertex 3.27094 -5.70442 2.5
    endloop
  endfacet
  facet normal 0.258807 0.965929 -0
    outer loop
      vertex -3.27094 -5.70442 2.5
      vertex -3.77606 -5.56908 2.71
      vertex -3.27094 -5.70442 2.71
    endloop
  endfacet
  facet normal 0.258807 0.965929 0
    outer loop
      vertex -3.77606 -5.56908 2.71
      vertex -3.27094 -5.70442 2.5
      vertex -3.77606 -5.56908 2.5
    endloop
  endfacet
  facet normal 0.996194 -0.0871627 0
    outer loop
      vertex -5.75 2.75 2.71
      vertex -5.70442 3.27094 2.5
      vertex -5.70442 3.27094 2.71
    endloop
  endfacet
  facet normal 0.996194 -0.0871627 0
    outer loop
      vertex -5.70442 3.27094 2.5
      vertex -5.75 2.75 2.71
      vertex -5.75 2.75 2.5
    endloop
  endfacet
  facet normal 0.819144 0.573588 0
    outer loop
      vertex -5.04813 -4.67836 2.71
      vertex -5.34808 -4.25 2.5
      vertex -5.34808 -4.25 2.71
    endloop
  endfacet
  facet normal 0.819144 0.573588 0
    outer loop
      vertex -5.34808 -4.25 2.5
      vertex -5.04813 -4.67836 2.71
      vertex -5.04813 -4.67836 2.5
    endloop
  endfacet
  facet normal 0.996194 0.0871627 0
    outer loop
      vertex -5.70442 -3.27094 2.71
      vertex -5.75 -2.75 2.5
      vertex -5.75 -2.75 2.71
    endloop
  endfacet
  facet normal 0.996194 0.0871627 0
    outer loop
      vertex -5.75 -2.75 2.5
      vertex -5.70442 -3.27094 2.71
      vertex -5.70442 -3.27094 2.5
    endloop
  endfacet
  facet normal -0.906309 -0.422615 0
    outer loop
      vertex 5.56908 3.77606 2.5
      vertex 5.34808 4.25 2.71
      vertex 5.34808 4.25 2.5
    endloop
  endfacet
  facet normal -0.906309 -0.422615 0
    outer loop
      vertex 5.34808 4.25 2.71
      vertex 5.56908 3.77606 2.5
      vertex 5.56908 3.77606 2.71
    endloop
  endfacet
  facet normal 0.965929 0.258807 0
    outer loop
      vertex -5.56908 -3.77606 2.71
      vertex -5.70442 -3.27094 2.5
      vertex -5.70442 -3.27094 2.71
    endloop
  endfacet
  facet normal 0.965929 0.258807 0
    outer loop
      vertex -5.70442 -3.27094 2.5
      vertex -5.56908 -3.77606 2.71
      vertex -5.56908 -3.77606 2.5
    endloop
  endfacet
endsolid OpenSCAD_Model
