solid OpenSCAD_Model
  facet normal 0 1 0
    outer loop
      vertex 26.5 -27.5 55
      vertex 20.6 -27.5 49.75
      vertex 20.6 -27.5 55
    endloop
  endfacet
  facet normal 0 1 0
    outer loop
      vertex 26.5 -27.5 5
      vertex 7.4 -27.5 49.75
      vertex 20.6 -27.5 49.75
    endloop
  endfacet
  facet normal 0 1 0
    outer loop
      vertex 7.4 -27.5 49.75
      vertex 26.5 -27.5 5
      vertex -7.4 -27.5 49.75
    endloop
  endfacet
  facet normal 0 1 0
    outer loop
      vertex -26.5 -27.5 5
      vertex -7.4 -27.5 49.75
      vertex 26.5 -27.5 5
    endloop
  endfacet
  facet normal 0 1 -0
    outer loop
      vertex 26.5 -27.5 5
      vertex 20.6 -27.5 49.75
      vertex 26.5 -27.5 55
    endloop
  endfacet
  facet normal 0 1 -0
    outer loop
      vertex 7.4 -27.5 49.75
      vertex -7.4 -27.5 55
      vertex 7.4 -27.5 55
    endloop
  endfacet
  facet normal 0 1 0
    outer loop
      vertex -7.4 -27.5 55
      vertex 7.4 -27.5 49.75
      vertex -7.4 -27.5 49.75
    endloop
  endfacet
  facet normal 0 1 -0
    outer loop
      vertex -20.6 -27.5 49.75
      vertex -26.5 -27.5 55
      vertex -20.6 -27.5 55
    endloop
  endfacet
  facet normal 0 1 0
    outer loop
      vertex -7.4 -27.5 49.75
      vertex -26.5 -27.5 5
      vertex -20.6 -27.5 49.75
    endloop
  endfacet
  facet normal 0 1 0
    outer loop
      vertex -20.6 -27.5 49.75
      vertex -26.5 -27.5 5
      vertex -26.5 -27.5 55
    endloop
  endfacet
  facet normal -0 0 1
    outer loop
      vertex -26.5 -27.5 55
      vertex -20.6 -32.5 55
      vertex -20.6 -27.5 55
    endloop
  endfacet
  facet normal 0 0 1
    outer loop
      vertex -20.6 -32.5 55
      vertex -26.5 -27.5 55
      vertex -26.5 -32.5 55
    endloop
  endfacet
  facet normal -0 0 1
    outer loop
      vertex 20.6 -27.5 55
      vertex 26.5 -32.5 55
      vertex 26.5 -27.5 55
    endloop
  endfacet
  facet normal 0 0 1
    outer loop
      vertex 26.5 -32.5 55
      vertex 20.6 -27.5 55
      vertex 20.6 -32.5 55
    endloop
  endfacet
  facet normal -0 0 1
    outer loop
      vertex -7.4 -27.5 55
      vertex 7.4 -32.5 55
      vertex 7.4 -27.5 55
    endloop
  endfacet
  facet normal 0 0 1
    outer loop
      vertex 7.4 -32.5 55
      vertex -7.4 -27.5 55
      vertex -7.4 -32.5 55
    endloop
  endfacet
  facet normal 0 0 -1
    outer loop
      vertex -36.5 -55 0
      vertex 36.5 55 0
      vertex 36.5 -55 0
    endloop
  endfacet
  facet normal -0 0 -1
    outer loop
      vertex 36.5 55 0
      vertex -36.5 -55 0
      vertex -36.5 55 0
    endloop
  endfacet
  facet normal 0 -1 0
    outer loop
      vertex -26.5 -32.5 55
      vertex -20.6 -32.5 49.75
      vertex -20.6 -32.5 55
    endloop
  endfacet
  facet normal 0 -1 0
    outer loop
      vertex -26.5 -32.5 5
      vertex -7.4 -32.5 49.75
      vertex -20.6 -32.5 49.75
    endloop
  endfacet
  facet normal 0 -1 -0
    outer loop
      vertex -7.4 -32.5 49.75
      vertex -26.5 -32.5 5
      vertex 7.4 -32.5 49.75
    endloop
  endfacet
  facet normal 0 -1 0
    outer loop
      vertex 26.5 -32.5 5
      vertex 7.4 -32.5 49.75
      vertex -26.5 -32.5 5
    endloop
  endfacet
  facet normal 0 -1 0
    outer loop
      vertex -26.5 -32.5 5
      vertex -20.6 -32.5 49.75
      vertex -26.5 -32.5 55
    endloop
  endfacet
  facet normal 0 -1 0
    outer loop
      vertex -7.4 -32.5 49.75
      vertex 7.4 -32.5 55
      vertex -7.4 -32.5 55
    endloop
  endfacet
  facet normal 0 -1 -0
    outer loop
      vertex 7.4 -32.5 55
      vertex -7.4 -32.5 49.75
      vertex 7.4 -32.5 49.75
    endloop
  endfacet
  facet normal 0 -1 0
    outer loop
      vertex 20.6 -32.5 49.75
      vertex 26.5 -32.5 55
      vertex 20.6 -32.5 55
    endloop
  endfacet
  facet normal 0 -1 0
    outer loop
      vertex 7.4 -32.5 49.75
      vertex 26.5 -32.5 5
      vertex 20.6 -32.5 49.75
    endloop
  endfacet
  facet normal 0 -1 0
    outer loop
      vertex 20.6 -32.5 49.75
      vertex 26.5 -32.5 5
      vertex 26.5 -32.5 55
    endloop
  endfacet
  facet normal -1 0 0
    outer loop
      vertex -26.5 -32.5 5
      vertex -26.5 -27.5 55
      vertex -26.5 -27.5 5
    endloop
  endfacet
  facet normal -1 -0 0
    outer loop
      vertex -26.5 -27.5 55
      vertex -26.5 -32.5 5
      vertex -26.5 -32.5 55
    endloop
  endfacet
  facet normal 1 -0 0
    outer loop
      vertex 26.5 -32.5 55
      vertex 26.5 -27.5 5
      vertex 26.5 -27.5 55
    endloop
  endfacet
  facet normal 1 0 0
    outer loop
      vertex 26.5 -27.5 5
      vertex 26.5 -32.5 55
      vertex 26.5 -32.5 5
    endloop
  endfacet
  facet normal -0 0 1
    outer loop
      vertex 7.4 -27.5 49.75
      vertex 20.6 -32.5 49.75
      vertex 20.6 -27.5 49.75
    endloop
  endfacet
  facet normal 0 0 1
    outer loop
      vertex 20.6 -32.5 49.75
      vertex 7.4 -27.5 49.75
      vertex 7.4 -32.5 49.75
    endloop
  endfacet
  facet normal 1 -0 0
    outer loop
      vertex 7.4 -32.5 55
      vertex 7.4 -27.5 49.75
      vertex 7.4 -27.5 55
    endloop
  endfacet
  facet normal 1 0 0
    outer loop
      vertex 7.4 -27.5 49.75
      vertex 7.4 -32.5 55
      vertex 7.4 -32.5 49.75
    endloop
  endfacet
  facet normal -1 0 0
    outer loop
      vertex 20.6 -32.5 49.75
      vertex 20.6 -27.5 55
      vertex 20.6 -27.5 49.75
    endloop
  endfacet
  facet normal -1 -0 0
    outer loop
      vertex 20.6 -27.5 55
      vertex 20.6 -32.5 49.75
      vertex 20.6 -32.5 55
    endloop
  endfacet
  facet normal -0 0 1
    outer loop
      vertex -20.6 -27.5 49.75
      vertex -7.4 -32.5 49.75
      vertex -7.4 -27.5 49.75
    endloop
  endfacet
  facet normal 0 0 1
    outer loop
      vertex -7.4 -32.5 49.75
      vertex -20.6 -27.5 49.75
      vertex -20.6 -32.5 49.75
    endloop
  endfacet
  facet normal 1 -0 0
    outer loop
      vertex -20.6 -32.5 55
      vertex -20.6 -27.5 49.75
      vertex -20.6 -27.5 55
    endloop
  endfacet
  facet normal 1 0 0
    outer loop
      vertex -20.6 -27.5 49.75
      vertex -20.6 -32.5 55
      vertex -20.6 -32.5 49.75
    endloop
  endfacet
  facet normal -1 0 0
    outer loop
      vertex -7.4 -32.5 49.75
      vertex -7.4 -27.5 55
      vertex -7.4 -27.5 49.75
    endloop
  endfacet
  facet normal -1 -0 0
    outer loop
      vertex -7.4 -27.5 55
      vertex -7.4 -32.5 49.75
      vertex -7.4 -32.5 55
    endloop
  endfacet
  facet normal 0 1 0
    outer loop
      vertex 26.5 32.5 55
      vertex 20.6 32.5 49.75
      vertex 20.6 32.5 55
    endloop
  endfacet
  facet normal 0 1 0
    outer loop
      vertex 26.5 32.5 5
      vertex 7.4 32.5 49.75
      vertex 20.6 32.5 49.75
    endloop
  endfacet
  facet normal 0 1 0
    outer loop
      vertex 7.4 32.5 49.75
      vertex 26.5 32.5 5
      vertex -7.4 32.5 49.75
    endloop
  endfacet
  facet normal 0 1 0
    outer loop
      vertex -26.5 32.5 5
      vertex -7.4 32.5 49.75
      vertex 26.5 32.5 5
    endloop
  endfacet
  facet normal 0 1 -0
    outer loop
      vertex 26.5 32.5 5
      vertex 20.6 32.5 49.75
      vertex 26.5 32.5 55
    endloop
  endfacet
  facet normal 0 1 -0
    outer loop
      vertex 7.4 32.5 49.75
      vertex -7.4 32.5 55
      vertex 7.4 32.5 55
    endloop
  endfacet
  facet normal 0 1 0
    outer loop
      vertex -7.4 32.5 55
      vertex 7.4 32.5 49.75
      vertex -7.4 32.5 49.75
    endloop
  endfacet
  facet normal 0 1 -0
    outer loop
      vertex -20.6 32.5 49.75
      vertex -26.5 32.5 55
      vertex -20.6 32.5 55
    endloop
  endfacet
  facet normal 0 1 0
    outer loop
      vertex -7.4 32.5 49.75
      vertex -26.5 32.5 5
      vertex -20.6 32.5 49.75
    endloop
  endfacet
  facet normal 0 1 0
    outer loop
      vertex -20.6 32.5 49.75
      vertex -26.5 32.5 5
      vertex -26.5 32.5 55
    endloop
  endfacet
  facet normal -0 0 1
    outer loop
      vertex -26.5 32.5 55
      vertex -20.6 27.5 55
      vertex -20.6 32.5 55
    endloop
  endfacet
  facet normal 0 0 1
    outer loop
      vertex -20.6 27.5 55
      vertex -26.5 32.5 55
      vertex -26.5 27.5 55
    endloop
  endfacet
  facet normal -0 0 1
    outer loop
      vertex 20.6 32.5 55
      vertex 26.5 27.5 55
      vertex 26.5 32.5 55
    endloop
  endfacet
  facet normal 0 0 1
    outer loop
      vertex 26.5 27.5 55
      vertex 20.6 32.5 55
      vertex 20.6 27.5 55
    endloop
  endfacet
  facet normal -0 0 1
    outer loop
      vertex -7.4 32.5 55
      vertex 7.4 27.5 55
      vertex 7.4 32.5 55
    endloop
  endfacet
  facet normal 0 0 1
    outer loop
      vertex 7.4 27.5 55
      vertex -7.4 32.5 55
      vertex -7.4 27.5 55
    endloop
  endfacet
  facet normal 0 -1 0
    outer loop
      vertex -26.5 27.5 55
      vertex -20.6 27.5 49.75
      vertex -20.6 27.5 55
    endloop
  endfacet
  facet normal 0 -1 0
    outer loop
      vertex -26.5 27.5 5
      vertex -7.4 27.5 49.75
      vertex -20.6 27.5 49.75
    endloop
  endfacet
  facet normal 0 -1 -0
    outer loop
      vertex -7.4 27.5 49.75
      vertex -26.5 27.5 5
      vertex 7.4 27.5 49.75
    endloop
  endfacet
  facet normal 0 -1 0
    outer loop
      vertex 26.5 27.5 5
      vertex 7.4 27.5 49.75
      vertex -26.5 27.5 5
    endloop
  endfacet
  facet normal 0 -1 0
    outer loop
      vertex -26.5 27.5 5
      vertex -20.6 27.5 49.75
      vertex -26.5 27.5 55
    endloop
  endfacet
  facet normal 0 -1 0
    outer loop
      vertex -7.4 27.5 49.75
      vertex 7.4 27.5 55
      vertex -7.4 27.5 55
    endloop
  endfacet
  facet normal 0 -1 -0
    outer loop
      vertex 7.4 27.5 55
      vertex -7.4 27.5 49.75
      vertex 7.4 27.5 49.75
    endloop
  endfacet
  facet normal 0 -1 0
    outer loop
      vertex 20.6 27.5 49.75
      vertex 26.5 27.5 55
      vertex 20.6 27.5 55
    endloop
  endfacet
  facet normal 0 -1 0
    outer loop
      vertex 7.4 27.5 49.75
      vertex 26.5 27.5 5
      vertex 20.6 27.5 49.75
    endloop
  endfacet
  facet normal 0 -1 0
    outer loop
      vertex 20.6 27.5 49.75
      vertex 26.5 27.5 5
      vertex 26.5 27.5 55
    endloop
  endfacet
  facet normal -1 0 0
    outer loop
      vertex -26.5 27.5 5
      vertex -26.5 32.5 55
      vertex -26.5 32.5 5
    endloop
  endfacet
  facet normal -1 -0 0
    outer loop
      vertex -26.5 32.5 55
      vertex -26.5 27.5 5
      vertex -26.5 27.5 55
    endloop
  endfacet
  facet normal 1 -0 0
    outer loop
      vertex 26.5 27.5 55
      vertex 26.5 32.5 5
      vertex 26.5 32.5 55
    endloop
  endfacet
  facet normal 1 0 0
    outer loop
      vertex 26.5 32.5 5
      vertex 26.5 27.5 55
      vertex 26.5 27.5 5
    endloop
  endfacet
  facet normal -0 0 1
    outer loop
      vertex 7.4 32.5 49.75
      vertex 20.6 27.5 49.75
      vertex 20.6 32.5 49.75
    endloop
  endfacet
  facet normal 0 0 1
    outer loop
      vertex 20.6 27.5 49.75
      vertex 7.4 32.5 49.75
      vertex 7.4 27.5 49.75
    endloop
  endfacet
  facet normal 1 -0 0
    outer loop
      vertex 7.4 27.5 55
      vertex 7.4 32.5 49.75
      vertex 7.4 32.5 55
    endloop
  endfacet
  facet normal 1 0 0
    outer loop
      vertex 7.4 32.5 49.75
      vertex 7.4 27.5 55
      vertex 7.4 27.5 49.75
    endloop
  endfacet
  facet normal -1 0 0
    outer loop
      vertex 20.6 27.5 49.75
      vertex 20.6 32.5 55
      vertex 20.6 32.5 49.75
    endloop
  endfacet
  facet normal -1 -0 0
    outer loop
      vertex 20.6 32.5 55
      vertex 20.6 27.5 49.75
      vertex 20.6 27.5 55
    endloop
  endfacet
  facet normal -0 0 1
    outer loop
      vertex -20.6 32.5 49.75
      vertex -7.4 27.5 49.75
      vertex -7.4 32.5 49.75
    endloop
  endfacet
  facet normal 0 0 1
    outer loop
      vertex -7.4 27.5 49.75
      vertex -20.6 32.5 49.75
      vertex -20.6 27.5 49.75
    endloop
  endfacet
  facet normal 1 -0 0
    outer loop
      vertex -20.6 27.5 55
      vertex -20.6 32.5 49.75
      vertex -20.6 32.5 55
    endloop
  endfacet
  facet normal 1 0 0
    outer loop
      vertex -20.6 32.5 49.75
      vertex -20.6 27.5 55
      vertex -20.6 27.5 49.75
    endloop
  endfacet
  facet normal -1 0 0
    outer loop
      vertex -7.4 27.5 49.75
      vertex -7.4 32.5 55
      vertex -7.4 32.5 49.75
    endloop
  endfacet
  facet normal -1 -0 0
    outer loop
      vertex -7.4 32.5 55
      vertex -7.4 27.5 49.75
      vertex -7.4 27.5 55
    endloop
  endfacet
  facet normal 1 -0 0
    outer loop
      vertex 36.5 -55 5
      vertex 36.5 55 0
      vertex 36.5 55 5
    endloop
  endfacet
  facet normal 1 0 0
    outer loop
      vertex 36.5 55 0
      vertex 36.5 -55 5
      vertex 36.5 -55 0
    endloop
  endfacet
  facet normal -0 0 1
    outer loop
      vertex -26.5 27.5 5
      vertex 26.5 -27.5 5
      vertex 26.5 27.5 5
    endloop
  endfacet
  facet normal 0 0 1
    outer loop
      vertex 26.5 -27.5 5
      vertex -26.5 27.5 5
      vertex -26.5 -27.5 5
    endloop
  endfacet
  facet normal 0 0 1
    outer loop
      vertex 26.5 27.5 5
      vertex 36.5 55 5
      vertex 26.5 32.5 5
    endloop
  endfacet
  facet normal 0 0 1
    outer loop
      vertex 36.5 55 5
      vertex -26.5 32.5 5
      vertex 26.5 32.5 5
    endloop
  endfacet
  facet normal 0 0 1
    outer loop
      vertex -36.5 55 5
      vertex -26.5 27.5 5
      vertex -26.5 32.5 5
    endloop
  endfacet
  facet normal 0 0 1
    outer loop
      vertex -26.5 27.5 5
      vertex -36.5 55 5
      vertex -26.5 -27.5 5
    endloop
  endfacet
  facet normal 0 0 1
    outer loop
      vertex -36.5 -55 5
      vertex -26.5 -27.5 5
      vertex -36.5 55 5
    endloop
  endfacet
  facet normal -0 0 1
    outer loop
      vertex -36.5 55 5
      vertex -26.5 32.5 5
      vertex 36.5 55 5
    endloop
  endfacet
  facet normal 0 0 1
    outer loop
      vertex 36.5 55 5
      vertex 26.5 27.5 5
      vertex 36.5 -55 5
    endloop
  endfacet
  facet normal -0 0 1
    outer loop
      vertex 26.5 -27.5 5
      vertex 36.5 -55 5
      vertex 26.5 27.5 5
    endloop
  endfacet
  facet normal -0 0 1
    outer loop
      vertex 26.5 -32.5 5
      vertex 36.5 -55 5
      vertex 26.5 -27.5 5
    endloop
  endfacet
  facet normal -0 0 1
    outer loop
      vertex -26.5 -32.5 5
      vertex 36.5 -55 5
      vertex 26.5 -32.5 5
    endloop
  endfacet
  facet normal 0 0 1
    outer loop
      vertex -26.5 -32.5 5
      vertex -36.5 -55 5
      vertex 36.5 -55 5
    endloop
  endfacet
  facet normal 0 0 1
    outer loop
      vertex -26.5 -27.5 5
      vertex -36.5 -55 5
      vertex -26.5 -32.5 5
    endloop
  endfacet
  facet normal -1 0 0
    outer loop
      vertex -36.5 -55 0
      vertex -36.5 55 5
      vertex -36.5 55 0
    endloop
  endfacet
  facet normal -1 -0 0
    outer loop
      vertex -36.5 55 5
      vertex -36.5 -55 0
      vertex -36.5 -55 5
    endloop
  endfacet
  facet normal 0 1 -0
    outer loop
      vertex 36.5 55 0
      vertex -36.5 55 5
      vertex 36.5 55 5
    endloop
  endfacet
  facet normal 0 1 0
    outer loop
      vertex -36.5 55 5
      vertex 36.5 55 0
      vertex -36.5 55 0
    endloop
  endfacet
  facet normal 0 -1 0
    outer loop
      vertex -36.5 -55 0
      vertex 36.5 -55 5
      vertex -36.5 -55 5
    endloop
  endfacet
  facet normal 0 -1 -0
    outer loop
      vertex 36.5 -55 5
      vertex -36.5 -55 0
      vertex 36.5 -55 0
    endloop
  endfacet
endsolid OpenSCAD_Model
