solid OpenSCAD_Model
  facet normal 0 -1 0
    outer loop
      vertex 361.5 -24 2.135
      vertex 366 -24 2
      vertex 366 -24 2.135
    endloop
  endfacet
  facet normal 0 -1 -0
    outer loop
      vertex 366 -24 2
      vertex 361.5 -24 1.875
      vertex 374 -24 2
    endloop
  endfacet
  facet normal 0 -1 0
    outer loop
      vertex 361.5 -24 1.875
      vertex 366 -24 2
      vertex 361.5 -24 2.135
    endloop
  endfacet
  facet normal 0 -1 0
    outer loop
      vertex 374 -24 2
      vertex 378.5 -24 2.135
      vertex 374 -24 2.135
    endloop
  endfacet
  facet normal 0 -1 0
    outer loop
      vertex 374 -24 2
      vertex 378.5 -24 1.875
      vertex 378.5 -24 2.135
    endloop
  endfacet
  facet normal 0 -1 0
    outer loop
      vertex 378.5 -24 1.875
      vertex 374 -24 2
      vertex 361.5 -24 1.875
    endloop
  endfacet
  facet normal 0.819124 0.573616 0
    outer loop
      vertex 381.098 22.5 2.135
      vertex 380.798 22.9284 1.875
      vertex 380.798 22.9284 2.135
    endloop
  endfacet
  facet normal 0.819124 0.573616 0
    outer loop
      vertex 380.798 22.9284 1.875
      vertex 381.098 22.5 2.135
      vertex 381.098 22.5 1.875
    endloop
  endfacet
  facet normal 0.906295 0.422645 0
    outer loop
      vertex 381.319 22.0261 2.135
      vertex 381.098 22.5 1.875
      vertex 381.098 22.5 2.135
    endloop
  endfacet
  facet normal 0.906295 0.422645 0
    outer loop
      vertex 381.098 22.5 1.875
      vertex 381.319 22.0261 2.135
      vertex 381.319 22.0261 1.875
    endloop
  endfacet
  facet normal -0.70682 -0.707394 0
    outer loop
      vertex 359.572 -23.2981 1.875
      vertex 359.202 -22.9284 2.135
      vertex 359.202 -22.9284 1.875
    endloop
  endfacet
  facet normal -0.70682 -0.707394 0
    outer loop
      vertex 359.202 -22.9284 2.135
      vertex 359.572 -23.2981 1.875
      vertex 359.572 -23.2981 2.135
    endloop
  endfacet
  facet normal -0.258793 -0.965933 0
    outer loop
      vertex 360.474 -23.8191 1.875
      vertex 360.979 -23.9544 2.135
      vertex 360.474 -23.8191 2.135
    endloop
  endfacet
  facet normal -0.258793 -0.965933 -0
    outer loop
      vertex 360.979 -23.9544 2.135
      vertex 360.474 -23.8191 1.875
      vertex 360.979 -23.9544 1.875
    endloop
  endfacet
  facet normal -0.966102 -0.258163 0
    outer loop
      vertex 358.681 -22.0261 1.875
      vertex 358.546 -21.5209 2.135
      vertex 358.546 -21.5209 1.875
    endloop
  endfacet
  facet normal -0.966102 -0.258163 0
    outer loop
      vertex 358.546 -21.5209 2.135
      vertex 358.681 -22.0261 1.875
      vertex 358.681 -22.0261 2.135
    endloop
  endfacet
  facet normal -1 0 0
    outer loop
      vertex 358.5 -21 1.875
      vertex 358.5 21 2.135
      vertex 358.5 21 1.875
    endloop
  endfacet
  facet normal -1 -0 0
    outer loop
      vertex 358.5 21 2.135
      vertex 358.5 -21 1.875
      vertex 358.5 -21 2.135
    endloop
  endfacet
  facet normal 0.258793 -0.965933 0
    outer loop
      vertex 379.021 -23.9544 1.875
      vertex 379.526 -23.8191 2.135
      vertex 379.021 -23.9544 2.135
    endloop
  endfacet
  facet normal 0.258793 -0.965933 0
    outer loop
      vertex 379.526 -23.8191 2.135
      vertex 379.021 -23.9544 1.875
      vertex 379.526 -23.8191 1.875
    endloop
  endfacet
  facet normal 0.966102 0.258163 0
    outer loop
      vertex 381.454 21.5209 2.135
      vertex 381.319 22.0261 1.875
      vertex 381.319 22.0261 2.135
    endloop
  endfacet
  facet normal 0.966102 0.258163 0
    outer loop
      vertex 381.319 22.0261 1.875
      vertex 381.454 21.5209 2.135
      vertex 381.454 21.5209 1.875
    endloop
  endfacet
  facet normal 0.0871907 0.996192 -0
    outer loop
      vertex 379.021 23.9544 1.875
      vertex 378.5 24 2.135
      vertex 379.021 23.9544 2.135
    endloop
  endfacet
  facet normal 0.0871907 0.996192 0
    outer loop
      vertex 378.5 24 2.135
      vertex 379.021 23.9544 1.875
      vertex 378.5 24 1.875
    endloop
  endfacet
  facet normal 0 1 0
    outer loop
      vertex 378.5 24 2.135
      vertex 373 24 2
      vertex 373 24 2.135
    endloop
  endfacet
  facet normal 0 1 0
    outer loop
      vertex 373 24 2
      vertex 378.5 24 1.875
      vertex 367 24 2
    endloop
  endfacet
  facet normal 0 1 -0
    outer loop
      vertex 378.5 24 1.875
      vertex 373 24 2
      vertex 378.5 24 2.135
    endloop
  endfacet
  facet normal 0 1 -0
    outer loop
      vertex 367 24 2
      vertex 361.5 24 2.135
      vertex 367 24 2.135
    endloop
  endfacet
  facet normal 0 1 0
    outer loop
      vertex 367 24 2
      vertex 361.5 24 1.875
      vertex 361.5 24 2.135
    endloop
  endfacet
  facet normal 0 1 0
    outer loop
      vertex 361.5 24 1.875
      vertex 367 24 2
      vertex 378.5 24 1.875
    endloop
  endfacet
  facet normal 0.996123 -0.0879664 0
    outer loop
      vertex 381.454 -21.5209 2.135
      vertex 381.5 -21 1.875
      vertex 381.5 -21 2.135
    endloop
  endfacet
  facet normal 0.996123 -0.0879664 0
    outer loop
      vertex 381.5 -21 1.875
      vertex 381.454 -21.5209 2.135
      vertex 381.454 -21.5209 1.875
    endloop
  endfacet
  facet normal 0.70682 0.707394 0
    outer loop
      vertex 380.798 22.9284 2.135
      vertex 380.428 23.2981 1.875
      vertex 380.428 23.2981 2.135
    endloop
  endfacet
  facet normal 0.70682 0.707394 0
    outer loop
      vertex 380.428 23.2981 1.875
      vertex 380.798 22.9284 2.135
      vertex 380.798 22.9284 1.875
    endloop
  endfacet
  facet normal -0.0871907 0.996192 0
    outer loop
      vertex 361.5 24 1.875
      vertex 360.979 23.9544 2.135
      vertex 361.5 24 2.135
    endloop
  endfacet
  facet normal -0.0871907 0.996192 0
    outer loop
      vertex 360.979 23.9544 2.135
      vertex 361.5 24 1.875
      vertex 360.979 23.9544 1.875
    endloop
  endfacet
  facet normal 0.573976 -0.818872 0
    outer loop
      vertex 380 -23.5981 1.875
      vertex 380.428 -23.2981 2.135
      vertex 380 -23.5981 2.135
    endloop
  endfacet
  facet normal 0.573976 -0.818872 0
    outer loop
      vertex 380.428 -23.2981 2.135
      vertex 380 -23.5981 1.875
      vertex 380.428 -23.2981 1.875
    endloop
  endfacet
  facet normal 0.996123 0.0879664 0
    outer loop
      vertex 381.5 21 2.135
      vertex 381.454 21.5209 1.875
      vertex 381.454 21.5209 2.135
    endloop
  endfacet
  facet normal 0.996123 0.0879664 0
    outer loop
      vertex 381.454 21.5209 1.875
      vertex 381.5 21 2.135
      vertex 381.5 21 1.875
    endloop
  endfacet
  facet normal 0.819124 -0.573616 0
    outer loop
      vertex 380.798 -22.9284 2.135
      vertex 381.098 -22.5 1.875
      vertex 381.098 -22.5 2.135
    endloop
  endfacet
  facet normal 0.819124 -0.573616 0
    outer loop
      vertex 381.098 -22.5 1.875
      vertex 380.798 -22.9284 2.135
      vertex 380.798 -22.9284 1.875
    endloop
  endfacet
  facet normal -0.573976 -0.818872 0
    outer loop
      vertex 359.572 -23.2981 1.875
      vertex 360 -23.5981 2.135
      vertex 359.572 -23.2981 2.135
    endloop
  endfacet
  facet normal -0.573976 -0.818872 -0
    outer loop
      vertex 360 -23.5981 2.135
      vertex 359.572 -23.2981 1.875
      vertex 360 -23.5981 1.875
    endloop
  endfacet
  facet normal 0.258793 0.965933 -0
    outer loop
      vertex 379.526 23.8191 1.875
      vertex 379.021 23.9544 2.135
      vertex 379.526 23.8191 2.135
    endloop
  endfacet
  facet normal 0.258793 0.965933 0
    outer loop
      vertex 379.021 23.9544 2.135
      vertex 379.526 23.8191 1.875
      vertex 379.021 23.9544 1.875
    endloop
  endfacet
  facet normal -0.906295 -0.422645 0
    outer loop
      vertex 358.902 -22.5 1.875
      vertex 358.681 -22.0261 2.135
      vertex 358.681 -22.0261 1.875
    endloop
  endfacet
  facet normal -0.906295 -0.422645 0
    outer loop
      vertex 358.681 -22.0261 2.135
      vertex 358.902 -22.5 1.875
      vertex 358.902 -22.5 2.135
    endloop
  endfacet
  facet normal -0.819124 -0.573616 0
    outer loop
      vertex 359.202 -22.9284 1.875
      vertex 358.902 -22.5 2.135
      vertex 358.902 -22.5 1.875
    endloop
  endfacet
  facet normal -0.819124 -0.573616 0
    outer loop
      vertex 358.902 -22.5 2.135
      vertex 359.202 -22.9284 1.875
      vertex 359.202 -22.9284 2.135
    endloop
  endfacet
  facet normal -0.0871907 -0.996192 0
    outer loop
      vertex 360.979 -23.9544 1.875
      vertex 361.5 -24 2.135
      vertex 360.979 -23.9544 2.135
    endloop
  endfacet
  facet normal -0.0871907 -0.996192 -0
    outer loop
      vertex 361.5 -24 2.135
      vertex 360.979 -23.9544 1.875
      vertex 361.5 -24 1.875
    endloop
  endfacet
  facet normal 0.0871907 -0.996192 0
    outer loop
      vertex 378.5 -24 1.875
      vertex 379.021 -23.9544 2.135
      vertex 378.5 -24 2.135
    endloop
  endfacet
  facet normal 0.0871907 -0.996192 0
    outer loop
      vertex 379.021 -23.9544 2.135
      vertex 378.5 -24 1.875
      vertex 379.021 -23.9544 1.875
    endloop
  endfacet
  facet normal 0.70682 -0.707394 0
    outer loop
      vertex 380.428 -23.2981 2.135
      vertex 380.798 -22.9284 1.875
      vertex 380.798 -22.9284 2.135
    endloop
  endfacet
  facet normal 0.70682 -0.707394 0
    outer loop
      vertex 380.798 -22.9284 1.875
      vertex 380.428 -23.2981 2.135
      vertex 380.428 -23.2981 1.875
    endloop
  endfacet
  facet normal -0.906295 0.422645 0
    outer loop
      vertex 358.681 22.0261 1.875
      vertex 358.902 22.5 2.135
      vertex 358.902 22.5 1.875
    endloop
  endfacet
  facet normal -0.906295 0.422645 0
    outer loop
      vertex 358.902 22.5 2.135
      vertex 358.681 22.0261 1.875
      vertex 358.681 22.0261 2.135
    endloop
  endfacet
  facet normal -0.966102 0.258163 0
    outer loop
      vertex 358.546 21.5209 1.875
      vertex 358.681 22.0261 2.135
      vertex 358.681 22.0261 1.875
    endloop
  endfacet
  facet normal -0.966102 0.258163 0
    outer loop
      vertex 358.681 22.0261 2.135
      vertex 358.546 21.5209 1.875
      vertex 358.546 21.5209 2.135
    endloop
  endfacet
  facet normal -0.996123 0.0879664 0
    outer loop
      vertex 358.5 21 1.875
      vertex 358.546 21.5209 2.135
      vertex 358.546 21.5209 1.875
    endloop
  endfacet
  facet normal -0.996123 0.0879664 0
    outer loop
      vertex 358.546 21.5209 2.135
      vertex 358.5 21 1.875
      vertex 358.5 21 2.135
    endloop
  endfacet
  facet normal -0.819124 0.573616 0
    outer loop
      vertex 358.902 22.5 1.875
      vertex 359.202 22.9284 2.135
      vertex 359.202 22.9284 1.875
    endloop
  endfacet
  facet normal -0.819124 0.573616 0
    outer loop
      vertex 359.202 22.9284 2.135
      vertex 358.902 22.5 1.875
      vertex 358.902 22.5 2.135
    endloop
  endfacet
  facet normal 0.966102 -0.258163 0
    outer loop
      vertex 381.319 -22.0261 2.135
      vertex 381.454 -21.5209 1.875
      vertex 381.454 -21.5209 2.135
    endloop
  endfacet
  facet normal 0.966102 -0.258163 0
    outer loop
      vertex 381.454 -21.5209 1.875
      vertex 381.319 -22.0261 2.135
      vertex 381.319 -22.0261 1.875
    endloop
  endfacet
  facet normal 0.906295 -0.422645 0
    outer loop
      vertex 381.098 -22.5 2.135
      vertex 381.319 -22.0261 1.875
      vertex 381.319 -22.0261 2.135
    endloop
  endfacet
  facet normal 0.906295 -0.422645 0
    outer loop
      vertex 381.319 -22.0261 1.875
      vertex 381.098 -22.5 2.135
      vertex 381.098 -22.5 1.875
    endloop
  endfacet
  facet normal 1 -0 0
    outer loop
      vertex 381.5 -21 2.135
      vertex 381.5 21 1.875
      vertex 381.5 21 2.135
    endloop
  endfacet
  facet normal 1 0 0
    outer loop
      vertex 381.5 21 1.875
      vertex 381.5 -21 2.135
      vertex 381.5 -21 1.875
    endloop
  endfacet
  facet normal 0.422571 -0.90633 0
    outer loop
      vertex 379.526 -23.8191 1.875
      vertex 380 -23.5981 2.135
      vertex 379.526 -23.8191 2.135
    endloop
  endfacet
  facet normal 0.422571 -0.90633 0
    outer loop
      vertex 380 -23.5981 2.135
      vertex 379.526 -23.8191 1.875
      vertex 380 -23.5981 1.875
    endloop
  endfacet
  facet normal -0.422571 0.90633 0
    outer loop
      vertex 360.474 23.8191 1.875
      vertex 360 23.5981 2.135
      vertex 360.474 23.8191 2.135
    endloop
  endfacet
  facet normal -0.422571 0.90633 0
    outer loop
      vertex 360 23.5981 2.135
      vertex 360.474 23.8191 1.875
      vertex 360 23.5981 1.875
    endloop
  endfacet
  facet normal -0.573976 0.818872 0
    outer loop
      vertex 360 23.5981 1.875
      vertex 359.572 23.2981 2.135
      vertex 360 23.5981 2.135
    endloop
  endfacet
  facet normal -0.573976 0.818872 0
    outer loop
      vertex 359.572 23.2981 2.135
      vertex 360 23.5981 1.875
      vertex 359.572 23.2981 1.875
    endloop
  endfacet
  facet normal -0.70682 0.707394 0
    outer loop
      vertex 359.202 22.9284 1.875
      vertex 359.572 23.2981 2.135
      vertex 359.572 23.2981 1.875
    endloop
  endfacet
  facet normal -0.70682 0.707394 0
    outer loop
      vertex 359.572 23.2981 2.135
      vertex 359.202 22.9284 1.875
      vertex 359.202 22.9284 2.135
    endloop
  endfacet
  facet normal -0.422571 -0.90633 0
    outer loop
      vertex 360 -23.5981 1.875
      vertex 360.474 -23.8191 2.135
      vertex 360 -23.5981 2.135
    endloop
  endfacet
  facet normal -0.422571 -0.90633 -0
    outer loop
      vertex 360.474 -23.8191 2.135
      vertex 360 -23.5981 1.875
      vertex 360.474 -23.8191 1.875
    endloop
  endfacet
  facet normal -0.996123 -0.0879664 0
    outer loop
      vertex 358.546 -21.5209 1.875
      vertex 358.5 -21 2.135
      vertex 358.5 -21 1.875
    endloop
  endfacet
  facet normal -0.996123 -0.0879664 0
    outer loop
      vertex 358.5 -21 2.135
      vertex 358.546 -21.5209 1.875
      vertex 358.546 -21.5209 2.135
    endloop
  endfacet
  facet normal 0.422571 0.90633 -0
    outer loop
      vertex 380 23.5981 1.875
      vertex 379.526 23.8191 2.135
      vertex 380 23.5981 2.135
    endloop
  endfacet
  facet normal 0.422571 0.90633 0
    outer loop
      vertex 379.526 23.8191 2.135
      vertex 380 23.5981 1.875
      vertex 379.526 23.8191 1.875
    endloop
  endfacet
  facet normal 0.573976 0.818872 -0
    outer loop
      vertex 380.428 23.2981 1.875
      vertex 380 23.5981 2.135
      vertex 380.428 23.2981 2.135
    endloop
  endfacet
  facet normal 0.573976 0.818872 0
    outer loop
      vertex 380 23.5981 2.135
      vertex 380.428 23.2981 1.875
      vertex 380 23.5981 1.875
    endloop
  endfacet
  facet normal 0 0 -1
    outer loop
      vertex 380.569 -21.2761 1.875
      vertex 381.5 -21 1.875
      vertex 381.454 -21.5209 1.875
    endloop
  endfacet
  facet normal 0 0 -1
    outer loop
      vertex 381.5 -21 1.875
      vertex 380.75 -20.25 1.875
      vertex 381.5 21 1.875
    endloop
  endfacet
  facet normal 0 0 -1
    outer loop
      vertex 380.569 -21.2761 1.875
      vertex 381.454 -21.5209 1.875
      vertex 381.319 -22.0261 1.875
    endloop
  endfacet
  facet normal 0 0 -1
    outer loop
      vertex 380.75 20.25 1.875
      vertex 381.5 21 1.875
      vertex 380.75 -20.25 1.875
    endloop
  endfacet
  facet normal 0 0 -1
    outer loop
      vertex 380.348 -21.75 1.875
      vertex 381.319 -22.0261 1.875
      vertex 381.098 -22.5 1.875
    endloop
  endfacet
  facet normal 0 0 -1
    outer loop
      vertex 380.704 20.7709 1.875
      vertex 381.5 21 1.875
      vertex 380.75 20.25 1.875
    endloop
  endfacet
  facet normal 0 0 -1
    outer loop
      vertex 380.048 -22.1784 1.875
      vertex 381.098 -22.5 1.875
      vertex 380.798 -22.9284 1.875
    endloop
  endfacet
  facet normal 0 0 -1
    outer loop
      vertex 380.569 21.2761 1.875
      vertex 381.5 21 1.875
      vertex 380.704 20.7709 1.875
    endloop
  endfacet
  facet normal 0 0 -1
    outer loop
      vertex 381.5 21 1.875
      vertex 380.569 21.2761 1.875
      vertex 381.454 21.5209 1.875
    endloop
  endfacet
  facet normal 0 0 -1
    outer loop
      vertex 381.5 -21 1.875
      vertex 380.704 -20.7709 1.875
      vertex 380.75 -20.25 1.875
    endloop
  endfacet
  facet normal -0 0 -1
    outer loop
      vertex 381.5 -21 1.875
      vertex 380.569 -21.2761 1.875
      vertex 380.704 -20.7709 1.875
    endloop
  endfacet
  facet normal 0 0 -1
    outer loop
      vertex 380.048 -22.1784 1.875
      vertex 380.798 -22.9284 1.875
      vertex 380.428 -23.2981 1.875
    endloop
  endfacet
  facet normal 0 0 -1
    outer loop
      vertex 381.319 -22.0261 1.875
      vertex 380.348 -21.75 1.875
      vertex 380.569 -21.2761 1.875
    endloop
  endfacet
  facet normal 0 0 -1
    outer loop
      vertex 381.098 -22.5 1.875
      vertex 380.048 -22.1784 1.875
      vertex 380.348 -21.75 1.875
    endloop
  endfacet
  facet normal 0 0 -1
    outer loop
      vertex 379.678 -22.5481 1.875
      vertex 380.428 -23.2981 1.875
      vertex 380 -23.5981 1.875
    endloop
  endfacet
  facet normal 0 0 -1
    outer loop
      vertex 380.428 -23.2981 1.875
      vertex 379.678 -22.5481 1.875
      vertex 380.048 -22.1784 1.875
    endloop
  endfacet
  facet normal 0 0 -1
    outer loop
      vertex 379.25 -22.8481 1.875
      vertex 380 -23.5981 1.875
      vertex 379.526 -23.8191 1.875
    endloop
  endfacet
  facet normal 0 0 -1
    outer loop
      vertex 380 -23.5981 1.875
      vertex 379.25 -22.8481 1.875
      vertex 379.678 -22.5481 1.875
    endloop
  endfacet
  facet normal 0 0 -1
    outer loop
      vertex 378.776 -23.0691 1.875
      vertex 379.526 -23.8191 1.875
      vertex 379.021 -23.9544 1.875
    endloop
  endfacet
  facet normal 0 0 -1
    outer loop
      vertex 379.526 -23.8191 1.875
      vertex 378.776 -23.0691 1.875
      vertex 379.25 -22.8481 1.875
    endloop
  endfacet
  facet normal 0 0 -1
    outer loop
      vertex 378.5 -24 1.875
      vertex 378.776 -23.0691 1.875
      vertex 379.021 -23.9544 1.875
    endloop
  endfacet
  facet normal 0 0 -1
    outer loop
      vertex 378.5 -24 1.875
      vertex 378.271 -23.2044 1.875
      vertex 378.776 -23.0691 1.875
    endloop
  endfacet
  facet normal 0 0 -1
    outer loop
      vertex 378.5 -24 1.875
      vertex 377.75 -23.25 1.875
      vertex 378.271 -23.2044 1.875
    endloop
  endfacet
  facet normal 0 0 -1
    outer loop
      vertex 378.5 -24 1.875
      vertex 362.25 -23.25 1.875
      vertex 377.75 -23.25 1.875
    endloop
  endfacet
  facet normal 0 0 -1
    outer loop
      vertex 361.5 -24 1.875
      vertex 362.25 -23.25 1.875
      vertex 378.5 -24 1.875
    endloop
  endfacet
  facet normal 0 0 -1
    outer loop
      vertex 361.5 -24 1.875
      vertex 361.729 -23.2044 1.875
      vertex 362.25 -23.25 1.875
    endloop
  endfacet
  facet normal 0 0 -1
    outer loop
      vertex 361.5 -24 1.875
      vertex 361.224 -23.0691 1.875
      vertex 361.729 -23.2044 1.875
    endloop
  endfacet
  facet normal 0 0 -1
    outer loop
      vertex 360.979 -23.9544 1.875
      vertex 361.224 -23.0691 1.875
      vertex 361.5 -24 1.875
    endloop
  endfacet
  facet normal 0 0 -1
    outer loop
      vertex 360.474 -23.8191 1.875
      vertex 361.224 -23.0691 1.875
      vertex 360.979 -23.9544 1.875
    endloop
  endfacet
  facet normal -0 0 -1
    outer loop
      vertex 361.224 -23.0691 1.875
      vertex 360.474 -23.8191 1.875
      vertex 360.75 -22.8481 1.875
    endloop
  endfacet
  facet normal 0 0 -1
    outer loop
      vertex 360 -23.5981 1.875
      vertex 360.75 -22.8481 1.875
      vertex 360.474 -23.8191 1.875
    endloop
  endfacet
  facet normal -0 0 -1
    outer loop
      vertex 360.75 -22.8481 1.875
      vertex 360 -23.5981 1.875
      vertex 360.322 -22.5481 1.875
    endloop
  endfacet
  facet normal 0 0 -1
    outer loop
      vertex 359.572 -23.2981 1.875
      vertex 360.322 -22.5481 1.875
      vertex 360 -23.5981 1.875
    endloop
  endfacet
  facet normal -0 0 -1
    outer loop
      vertex 360.322 -22.5481 1.875
      vertex 359.572 -23.2981 1.875
      vertex 359.952 -22.1784 1.875
    endloop
  endfacet
  facet normal 0 0 -1
    outer loop
      vertex 359.202 -22.9284 1.875
      vertex 359.952 -22.1784 1.875
      vertex 359.572 -23.2981 1.875
    endloop
  endfacet
  facet normal 0 0 -1
    outer loop
      vertex 358.902 -22.5 1.875
      vertex 359.952 -22.1784 1.875
      vertex 359.202 -22.9284 1.875
    endloop
  endfacet
  facet normal -0 0 -1
    outer loop
      vertex 359.952 -22.1784 1.875
      vertex 358.902 -22.5 1.875
      vertex 359.652 -21.75 1.875
    endloop
  endfacet
  facet normal 0 0 -1
    outer loop
      vertex 358.546 -21.5209 1.875
      vertex 359.431 -21.2761 1.875
      vertex 358.681 -22.0261 1.875
    endloop
  endfacet
  facet normal -0 0 -1
    outer loop
      vertex 359.652 -21.75 1.875
      vertex 358.681 -22.0261 1.875
      vertex 359.431 -21.2761 1.875
    endloop
  endfacet
  facet normal 0 0 -1
    outer loop
      vertex 358.681 -22.0261 1.875
      vertex 359.652 -21.75 1.875
      vertex 358.902 -22.5 1.875
    endloop
  endfacet
  facet normal -0 0 -1
    outer loop
      vertex 381.454 21.5209 1.875
      vertex 380.569 21.2761 1.875
      vertex 381.319 22.0261 1.875
    endloop
  endfacet
  facet normal 0 0 -1
    outer loop
      vertex 380.348 21.75 1.875
      vertex 381.319 22.0261 1.875
      vertex 380.569 21.2761 1.875
    endloop
  endfacet
  facet normal -0 0 -1
    outer loop
      vertex 381.319 22.0261 1.875
      vertex 380.348 21.75 1.875
      vertex 381.098 22.5 1.875
    endloop
  endfacet
  facet normal 0 0 -1
    outer loop
      vertex 380.048 22.1784 1.875
      vertex 381.098 22.5 1.875
      vertex 380.348 21.75 1.875
    endloop
  endfacet
  facet normal -0 0 -1
    outer loop
      vertex 381.098 22.5 1.875
      vertex 380.048 22.1784 1.875
      vertex 380.798 22.9284 1.875
    endloop
  endfacet
  facet normal -0 0 -1
    outer loop
      vertex 380.798 22.9284 1.875
      vertex 380.048 22.1784 1.875
      vertex 380.428 23.2981 1.875
    endloop
  endfacet
  facet normal 0 0 -1
    outer loop
      vertex 379.678 22.5481 1.875
      vertex 380.428 23.2981 1.875
      vertex 380.048 22.1784 1.875
    endloop
  endfacet
  facet normal -0 0 -1
    outer loop
      vertex 380.428 23.2981 1.875
      vertex 379.678 22.5481 1.875
      vertex 380 23.5981 1.875
    endloop
  endfacet
  facet normal 0 0 -1
    outer loop
      vertex 379.25 22.8481 1.875
      vertex 380 23.5981 1.875
      vertex 379.678 22.5481 1.875
    endloop
  endfacet
  facet normal -0 0 -1
    outer loop
      vertex 380 23.5981 1.875
      vertex 379.25 22.8481 1.875
      vertex 379.526 23.8191 1.875
    endloop
  endfacet
  facet normal 0 0 -1
    outer loop
      vertex 378.776 23.0691 1.875
      vertex 379.526 23.8191 1.875
      vertex 379.25 22.8481 1.875
    endloop
  endfacet
  facet normal -0 0 -1
    outer loop
      vertex 379.526 23.8191 1.875
      vertex 378.776 23.0691 1.875
      vertex 379.021 23.9544 1.875
    endloop
  endfacet
  facet normal 0 0 -1
    outer loop
      vertex 378.776 23.0691 1.875
      vertex 378.5 24 1.875
      vertex 379.021 23.9544 1.875
    endloop
  endfacet
  facet normal 0 0 -1
    outer loop
      vertex 378.271 23.2044 1.875
      vertex 378.5 24 1.875
      vertex 378.776 23.0691 1.875
    endloop
  endfacet
  facet normal 0 0 -1
    outer loop
      vertex 377.75 23.25 1.875
      vertex 378.5 24 1.875
      vertex 378.271 23.2044 1.875
    endloop
  endfacet
  facet normal 0 0 -1
    outer loop
      vertex 362.25 23.25 1.875
      vertex 378.5 24 1.875
      vertex 377.75 23.25 1.875
    endloop
  endfacet
  facet normal 0 0 -1
    outer loop
      vertex 362.25 23.25 1.875
      vertex 361.5 24 1.875
      vertex 378.5 24 1.875
    endloop
  endfacet
  facet normal 0 0 -1
    outer loop
      vertex 361.729 23.2044 1.875
      vertex 361.5 24 1.875
      vertex 362.25 23.25 1.875
    endloop
  endfacet
  facet normal 0 0 -1
    outer loop
      vertex 361.224 23.0691 1.875
      vertex 361.5 24 1.875
      vertex 361.729 23.2044 1.875
    endloop
  endfacet
  facet normal 0 0 -1
    outer loop
      vertex 361.224 23.0691 1.875
      vertex 360.979 23.9544 1.875
      vertex 361.5 24 1.875
    endloop
  endfacet
  facet normal 0 0 -1
    outer loop
      vertex 360.474 23.8191 1.875
      vertex 361.224 23.0691 1.875
      vertex 360.75 22.8481 1.875
    endloop
  endfacet
  facet normal 0 0 -1
    outer loop
      vertex 361.224 23.0691 1.875
      vertex 360.474 23.8191 1.875
      vertex 360.979 23.9544 1.875
    endloop
  endfacet
  facet normal 0 0 -1
    outer loop
      vertex 360 23.5981 1.875
      vertex 360.75 22.8481 1.875
      vertex 360.322 22.5481 1.875
    endloop
  endfacet
  facet normal 0 0 -1
    outer loop
      vertex 360.75 22.8481 1.875
      vertex 360 23.5981 1.875
      vertex 360.474 23.8191 1.875
    endloop
  endfacet
  facet normal 0 0 -1
    outer loop
      vertex 359.572 23.2981 1.875
      vertex 360.322 22.5481 1.875
      vertex 359.952 22.1784 1.875
    endloop
  endfacet
  facet normal 0 0 -1
    outer loop
      vertex 358.902 22.5 1.875
      vertex 359.952 22.1784 1.875
      vertex 359.652 21.75 1.875
    endloop
  endfacet
  facet normal 0 0 -1
    outer loop
      vertex 360.322 22.5481 1.875
      vertex 359.572 23.2981 1.875
      vertex 360 23.5981 1.875
    endloop
  endfacet
  facet normal 0 0 -1
    outer loop
      vertex 358.681 22.0261 1.875
      vertex 359.652 21.75 1.875
      vertex 359.431 21.2761 1.875
    endloop
  endfacet
  facet normal 0 0 -1
    outer loop
      vertex 358.5 21 1.875
      vertex 359.431 21.2761 1.875
      vertex 359.296 20.7709 1.875
    endloop
  endfacet
  facet normal 0 0 -1
    outer loop
      vertex 359.952 22.1784 1.875
      vertex 359.202 22.9284 1.875
      vertex 359.572 23.2981 1.875
    endloop
  endfacet
  facet normal 0 0 -1
    outer loop
      vertex 358.5 21 1.875
      vertex 359.296 20.7709 1.875
      vertex 359.25 20.25 1.875
    endloop
  endfacet
  facet normal -0 0 -1
    outer loop
      vertex 359.25 -20.25 1.875
      vertex 358.5 -21 1.875
      vertex 359.25 20.25 1.875
    endloop
  endfacet
  facet normal 0 0 -1
    outer loop
      vertex 358.5 -21 1.875
      vertex 359.431 -21.2761 1.875
      vertex 358.546 -21.5209 1.875
    endloop
  endfacet
  facet normal 0 0 -1
    outer loop
      vertex 358.5 21 1.875
      vertex 359.25 20.25 1.875
      vertex 358.5 -21 1.875
    endloop
  endfacet
  facet normal 0 0 -1
    outer loop
      vertex 359.431 -21.2761 1.875
      vertex 358.5 -21 1.875
      vertex 359.296 -20.7709 1.875
    endloop
  endfacet
  facet normal -0 0 -1
    outer loop
      vertex 359.431 21.2761 1.875
      vertex 358.5 21 1.875
      vertex 358.546 21.5209 1.875
    endloop
  endfacet
  facet normal -0 0 -1
    outer loop
      vertex 359.296 -20.7709 1.875
      vertex 358.5 -21 1.875
      vertex 359.25 -20.25 1.875
    endloop
  endfacet
  facet normal 0 0 -1
    outer loop
      vertex 359.952 22.1784 1.875
      vertex 358.902 22.5 1.875
      vertex 359.202 22.9284 1.875
    endloop
  endfacet
  facet normal 0 0 -1
    outer loop
      vertex 359.652 21.75 1.875
      vertex 358.681 22.0261 1.875
      vertex 358.902 22.5 1.875
    endloop
  endfacet
  facet normal 0 0 -1
    outer loop
      vertex 359.431 21.2761 1.875
      vertex 358.546 21.5209 1.875
      vertex 358.681 22.0261 1.875
    endloop
  endfacet
  facet normal -0.258793 0.965933 0
    outer loop
      vertex 360.979 23.9544 1.875
      vertex 360.474 23.8191 2.135
      vertex 360.979 23.9544 2.135
    endloop
  endfacet
  facet normal -0.258793 0.965933 0
    outer loop
      vertex 360.474 23.8191 2.135
      vertex 360.979 23.9544 1.875
      vertex 360.474 23.8191 1.875
    endloop
  endfacet
  facet normal 0 0 1
    outer loop
      vertex 367 24 2.135
      vertex 362.25 23.25 2.135
      vertex 367 23.25 2.135
    endloop
  endfacet
  facet normal -0 0 1
    outer loop
      vertex 361.5 24 2.135
      vertex 362.25 23.25 2.135
      vertex 367 24 2.135
    endloop
  endfacet
  facet normal 0 0 1
    outer loop
      vertex 362.25 23.25 2.135
      vertex 361.5 24 2.135
      vertex 361.729 23.2044 2.135
    endloop
  endfacet
  facet normal 0 0 1
    outer loop
      vertex 361.5 24 2.135
      vertex 361.224 23.0691 2.135
      vertex 361.729 23.2044 2.135
    endloop
  endfacet
  facet normal -0 0 1
    outer loop
      vertex 360.979 23.9544 2.135
      vertex 361.224 23.0691 2.135
      vertex 361.5 24 2.135
    endloop
  endfacet
  facet normal -0 0 1
    outer loop
      vertex 360.474 23.8191 2.135
      vertex 361.224 23.0691 2.135
      vertex 360.979 23.9544 2.135
    endloop
  endfacet
  facet normal 0 0 1
    outer loop
      vertex 361.224 23.0691 2.135
      vertex 360.474 23.8191 2.135
      vertex 360.75 22.8481 2.135
    endloop
  endfacet
  facet normal -0 0 1
    outer loop
      vertex 360 23.5981 2.135
      vertex 360.75 22.8481 2.135
      vertex 360.474 23.8191 2.135
    endloop
  endfacet
  facet normal 0 0 1
    outer loop
      vertex 360.75 22.8481 2.135
      vertex 360 23.5981 2.135
      vertex 360.322 22.5481 2.135
    endloop
  endfacet
  facet normal -0 0 1
    outer loop
      vertex 359.572 23.2981 2.135
      vertex 360.322 22.5481 2.135
      vertex 360 23.5981 2.135
    endloop
  endfacet
  facet normal 0 0 1
    outer loop
      vertex 360.322 22.5481 2.135
      vertex 359.572 23.2981 2.135
      vertex 359.952 22.1784 2.135
    endloop
  endfacet
  facet normal -0 0 1
    outer loop
      vertex 359.202 22.9284 2.135
      vertex 359.952 22.1784 2.135
      vertex 359.572 23.2981 2.135
    endloop
  endfacet
  facet normal -0 0 1
    outer loop
      vertex 358.902 22.5 2.135
      vertex 359.952 22.1784 2.135
      vertex 359.202 22.9284 2.135
    endloop
  endfacet
  facet normal 0 0 1
    outer loop
      vertex 359.952 22.1784 2.135
      vertex 358.902 22.5 2.135
      vertex 359.652 21.75 2.135
    endloop
  endfacet
  facet normal -0 0 1
    outer loop
      vertex 358.546 21.5209 2.135
      vertex 359.431 21.2761 2.135
      vertex 358.681 22.0261 2.135
    endloop
  endfacet
  facet normal 0 0 1
    outer loop
      vertex 359.652 21.75 2.135
      vertex 358.681 22.0261 2.135
      vertex 359.431 21.2761 2.135
    endloop
  endfacet
  facet normal -0 0 1
    outer loop
      vertex 358.681 22.0261 2.135
      vertex 359.652 21.75 2.135
      vertex 358.902 22.5 2.135
    endloop
  endfacet
  facet normal -0 0 1
    outer loop
      vertex 362.25 -23.25 2.135
      vertex 366 -24 2.135
      vertex 366 -23.25 2.135
    endloop
  endfacet
  facet normal 0 0 1
    outer loop
      vertex 361.5 -24 2.135
      vertex 362.25 -23.25 2.135
      vertex 361.729 -23.2044 2.135
    endloop
  endfacet
  facet normal 0 0 1
    outer loop
      vertex 362.25 -23.25 2.135
      vertex 361.5 -24 2.135
      vertex 366 -24 2.135
    endloop
  endfacet
  facet normal 0 0 1
    outer loop
      vertex 361.224 -23.0691 2.135
      vertex 361.5 -24 2.135
      vertex 361.729 -23.2044 2.135
    endloop
  endfacet
  facet normal 0 0 1
    outer loop
      vertex 361.224 -23.0691 2.135
      vertex 360.979 -23.9544 2.135
      vertex 361.5 -24 2.135
    endloop
  endfacet
  facet normal 0 0 1
    outer loop
      vertex 360.474 -23.8191 2.135
      vertex 361.224 -23.0691 2.135
      vertex 360.75 -22.8481 2.135
    endloop
  endfacet
  facet normal 0 0 1
    outer loop
      vertex 361.224 -23.0691 2.135
      vertex 360.474 -23.8191 2.135
      vertex 360.979 -23.9544 2.135
    endloop
  endfacet
  facet normal 0 0 1
    outer loop
      vertex 360 -23.5981 2.135
      vertex 360.75 -22.8481 2.135
      vertex 360.322 -22.5481 2.135
    endloop
  endfacet
  facet normal 0 0 1
    outer loop
      vertex 360.75 -22.8481 2.135
      vertex 360 -23.5981 2.135
      vertex 360.474 -23.8191 2.135
    endloop
  endfacet
  facet normal 0 0 1
    outer loop
      vertex 359.572 -23.2981 2.135
      vertex 360.322 -22.5481 2.135
      vertex 359.952 -22.1784 2.135
    endloop
  endfacet
  facet normal 0 0 1
    outer loop
      vertex 358.902 -22.5 2.135
      vertex 359.952 -22.1784 2.135
      vertex 359.652 -21.75 2.135
    endloop
  endfacet
  facet normal 0 0 1
    outer loop
      vertex 360.322 -22.5481 2.135
      vertex 359.572 -23.2981 2.135
      vertex 360 -23.5981 2.135
    endloop
  endfacet
  facet normal 0 0 1
    outer loop
      vertex 358.681 -22.0261 2.135
      vertex 359.652 -21.75 2.135
      vertex 359.431 -21.2761 2.135
    endloop
  endfacet
  facet normal -0 0 1
    outer loop
      vertex 358.5 -21 2.135
      vertex 359.431 -21.2761 2.135
      vertex 359.296 -20.7709 2.135
    endloop
  endfacet
  facet normal 0 0 1
    outer loop
      vertex 359.952 -22.1784 2.135
      vertex 359.202 -22.9284 2.135
      vertex 359.572 -23.2981 2.135
    endloop
  endfacet
  facet normal 0 0 1
    outer loop
      vertex 358.5 -21 2.135
      vertex 359.296 -20.7709 2.135
      vertex 359.25 -20.25 2.135
    endloop
  endfacet
  facet normal 0 0 1
    outer loop
      vertex 359.25 20.25 2.135
      vertex 358.5 21 2.135
      vertex 359.25 -20.25 2.135
    endloop
  endfacet
  facet normal 0 0 1
    outer loop
      vertex 358.5 21 2.135
      vertex 359.431 21.2761 2.135
      vertex 358.546 21.5209 2.135
    endloop
  endfacet
  facet normal 0 0 1
    outer loop
      vertex 358.5 -21 2.135
      vertex 359.25 -20.25 2.135
      vertex 358.5 21 2.135
    endloop
  endfacet
  facet normal 0 0 1
    outer loop
      vertex 359.431 21.2761 2.135
      vertex 358.5 21 2.135
      vertex 359.296 20.7709 2.135
    endloop
  endfacet
  facet normal 0 0 1
    outer loop
      vertex 359.431 -21.2761 2.135
      vertex 358.5 -21 2.135
      vertex 358.546 -21.5209 2.135
    endloop
  endfacet
  facet normal 0 0 1
    outer loop
      vertex 359.296 20.7709 2.135
      vertex 358.5 21 2.135
      vertex 359.25 20.25 2.135
    endloop
  endfacet
  facet normal 0 0 1
    outer loop
      vertex 359.952 -22.1784 2.135
      vertex 358.902 -22.5 2.135
      vertex 359.202 -22.9284 2.135
    endloop
  endfacet
  facet normal 0 0 1
    outer loop
      vertex 359.652 -21.75 2.135
      vertex 358.681 -22.0261 2.135
      vertex 358.902 -22.5 2.135
    endloop
  endfacet
  facet normal 0 0 1
    outer loop
      vertex 359.431 -21.2761 2.135
      vertex 358.546 -21.5209 2.135
      vertex 358.681 -22.0261 2.135
    endloop
  endfacet
  facet normal -0 0 1
    outer loop
      vertex 380.569 21.2761 2.135
      vertex 381.5 21 2.135
      vertex 381.454 21.5209 2.135
    endloop
  endfacet
  facet normal 0 0 1
    outer loop
      vertex 381.5 21 2.135
      vertex 380.75 20.25 2.135
      vertex 381.5 -21 2.135
    endloop
  endfacet
  facet normal 0 0 1
    outer loop
      vertex 380.569 21.2761 2.135
      vertex 381.454 21.5209 2.135
      vertex 381.319 22.0261 2.135
    endloop
  endfacet
  facet normal -0 0 1
    outer loop
      vertex 380.75 -20.25 2.135
      vertex 381.5 -21 2.135
      vertex 380.75 20.25 2.135
    endloop
  endfacet
  facet normal 0 0 1
    outer loop
      vertex 380.348 21.75 2.135
      vertex 381.319 22.0261 2.135
      vertex 381.098 22.5 2.135
    endloop
  endfacet
  facet normal -0 0 1
    outer loop
      vertex 380.704 -20.7709 2.135
      vertex 381.5 -21 2.135
      vertex 380.75 -20.25 2.135
    endloop
  endfacet
  facet normal 0 0 1
    outer loop
      vertex 380.048 22.1784 2.135
      vertex 381.098 22.5 2.135
      vertex 380.798 22.9284 2.135
    endloop
  endfacet
  facet normal 0 0 1
    outer loop
      vertex 380.569 -21.2761 2.135
      vertex 381.5 -21 2.135
      vertex 380.704 -20.7709 2.135
    endloop
  endfacet
  facet normal 0 0 1
    outer loop
      vertex 381.5 -21 2.135
      vertex 380.569 -21.2761 2.135
      vertex 381.454 -21.5209 2.135
    endloop
  endfacet
  facet normal 0 0 1
    outer loop
      vertex 381.5 21 2.135
      vertex 380.704 20.7709 2.135
      vertex 380.75 20.25 2.135
    endloop
  endfacet
  facet normal 0 0 1
    outer loop
      vertex 381.5 21 2.135
      vertex 380.569 21.2761 2.135
      vertex 380.704 20.7709 2.135
    endloop
  endfacet
  facet normal 0 0 1
    outer loop
      vertex 380.048 22.1784 2.135
      vertex 380.798 22.9284 2.135
      vertex 380.428 23.2981 2.135
    endloop
  endfacet
  facet normal 0 0 1
    outer loop
      vertex 381.319 22.0261 2.135
      vertex 380.348 21.75 2.135
      vertex 380.569 21.2761 2.135
    endloop
  endfacet
  facet normal 0 0 1
    outer loop
      vertex 381.098 22.5 2.135
      vertex 380.048 22.1784 2.135
      vertex 380.348 21.75 2.135
    endloop
  endfacet
  facet normal 0 0 1
    outer loop
      vertex 379.678 22.5481 2.135
      vertex 380.428 23.2981 2.135
      vertex 380 23.5981 2.135
    endloop
  endfacet
  facet normal 0 0 1
    outer loop
      vertex 380.428 23.2981 2.135
      vertex 379.678 22.5481 2.135
      vertex 380.048 22.1784 2.135
    endloop
  endfacet
  facet normal 0 0 1
    outer loop
      vertex 379.25 22.8481 2.135
      vertex 380 23.5981 2.135
      vertex 379.526 23.8191 2.135
    endloop
  endfacet
  facet normal 0 0 1
    outer loop
      vertex 380 23.5981 2.135
      vertex 379.25 22.8481 2.135
      vertex 379.678 22.5481 2.135
    endloop
  endfacet
  facet normal 0 0 1
    outer loop
      vertex 378.776 23.0691 2.135
      vertex 379.526 23.8191 2.135
      vertex 379.021 23.9544 2.135
    endloop
  endfacet
  facet normal 0 0 1
    outer loop
      vertex 379.526 23.8191 2.135
      vertex 378.776 23.0691 2.135
      vertex 379.25 22.8481 2.135
    endloop
  endfacet
  facet normal 0 0 1
    outer loop
      vertex 378.5 24 2.135
      vertex 378.776 23.0691 2.135
      vertex 379.021 23.9544 2.135
    endloop
  endfacet
  facet normal 0 0 1
    outer loop
      vertex 378.5 24 2.135
      vertex 378.271 23.2044 2.135
      vertex 378.776 23.0691 2.135
    endloop
  endfacet
  facet normal 0 0 1
    outer loop
      vertex 378.5 24 2.135
      vertex 377.75 23.25 2.135
      vertex 378.271 23.2044 2.135
    endloop
  endfacet
  facet normal -0 0 1
    outer loop
      vertex 373 24 2.135
      vertex 377.75 23.25 2.135
      vertex 378.5 24 2.135
    endloop
  endfacet
  facet normal 0 0 1
    outer loop
      vertex 377.75 23.25 2.135
      vertex 373 24 2.135
      vertex 373 23.25 2.135
    endloop
  endfacet
  facet normal 0 0 1
    outer loop
      vertex 381.454 -21.5209 2.135
      vertex 380.569 -21.2761 2.135
      vertex 381.319 -22.0261 2.135
    endloop
  endfacet
  facet normal -0 0 1
    outer loop
      vertex 380.348 -21.75 2.135
      vertex 381.319 -22.0261 2.135
      vertex 380.569 -21.2761 2.135
    endloop
  endfacet
  facet normal 0 0 1
    outer loop
      vertex 381.319 -22.0261 2.135
      vertex 380.348 -21.75 2.135
      vertex 381.098 -22.5 2.135
    endloop
  endfacet
  facet normal -0 0 1
    outer loop
      vertex 380.048 -22.1784 2.135
      vertex 381.098 -22.5 2.135
      vertex 380.348 -21.75 2.135
    endloop
  endfacet
  facet normal 0 0 1
    outer loop
      vertex 381.098 -22.5 2.135
      vertex 380.048 -22.1784 2.135
      vertex 380.798 -22.9284 2.135
    endloop
  endfacet
  facet normal 0 0 1
    outer loop
      vertex 380.798 -22.9284 2.135
      vertex 380.048 -22.1784 2.135
      vertex 380.428 -23.2981 2.135
    endloop
  endfacet
  facet normal -0 0 1
    outer loop
      vertex 379.678 -22.5481 2.135
      vertex 380.428 -23.2981 2.135
      vertex 380.048 -22.1784 2.135
    endloop
  endfacet
  facet normal 0 0 1
    outer loop
      vertex 380.428 -23.2981 2.135
      vertex 379.678 -22.5481 2.135
      vertex 380 -23.5981 2.135
    endloop
  endfacet
  facet normal -0 0 1
    outer loop
      vertex 379.25 -22.8481 2.135
      vertex 380 -23.5981 2.135
      vertex 379.678 -22.5481 2.135
    endloop
  endfacet
  facet normal 0 0 1
    outer loop
      vertex 380 -23.5981 2.135
      vertex 379.25 -22.8481 2.135
      vertex 379.526 -23.8191 2.135
    endloop
  endfacet
  facet normal -0 0 1
    outer loop
      vertex 378.776 -23.0691 2.135
      vertex 379.526 -23.8191 2.135
      vertex 379.25 -22.8481 2.135
    endloop
  endfacet
  facet normal 0 0 1
    outer loop
      vertex 379.526 -23.8191 2.135
      vertex 378.776 -23.0691 2.135
      vertex 379.021 -23.9544 2.135
    endloop
  endfacet
  facet normal 0 0 1
    outer loop
      vertex 378.776 -23.0691 2.135
      vertex 378.5 -24 2.135
      vertex 379.021 -23.9544 2.135
    endloop
  endfacet
  facet normal -0 0 1
    outer loop
      vertex 378.271 -23.2044 2.135
      vertex 378.5 -24 2.135
      vertex 378.776 -23.0691 2.135
    endloop
  endfacet
  facet normal -0 0 1
    outer loop
      vertex 377.75 -23.25 2.135
      vertex 378.5 -24 2.135
      vertex 378.271 -23.2044 2.135
    endloop
  endfacet
  facet normal 0 0 1
    outer loop
      vertex 374 -24 2.135
      vertex 377.75 -23.25 2.135
      vertex 374 -23.25 2.135
    endloop
  endfacet
  facet normal 0 0 1
    outer loop
      vertex 377.75 -23.25 2.135
      vertex 374 -24 2.135
      vertex 378.5 -24 2.135
    endloop
  endfacet
  facet normal -0 0 1
    outer loop
      vertex 369 23.4 2.135
      vertex 371 23.25 2.135
      vertex 371 23.4 2.135
    endloop
  endfacet
  facet normal 0 0 1
    outer loop
      vertex 371 23.25 2.135
      vertex 369 23.4 2.135
      vertex 369 23.25 2.135
    endloop
  endfacet
  facet normal -0 0 1
    outer loop
      vertex 368 -23.25 2.135
      vertex 372 -23.4 2.135
      vertex 372 -23.25 2.135
    endloop
  endfacet
  facet normal 0 0 1
    outer loop
      vertex 372 -23.4 2.135
      vertex 368 -23.25 2.135
      vertex 368 -23.4 2.135
    endloop
  endfacet
  facet normal 0.966102 0.258163 0
    outer loop
      vertex 359.431 -21.2761 2.135
      vertex 359.296 -20.7709 1.875
      vertex 359.296 -20.7709 2.135
    endloop
  endfacet
  facet normal 0.966102 0.258163 0
    outer loop
      vertex 359.296 -20.7709 1.875
      vertex 359.431 -21.2761 2.135
      vertex 359.431 -21.2761 1.875
    endloop
  endfacet
  facet normal 0.819124 0.573616 0
    outer loop
      vertex 359.952 -22.1784 2.135
      vertex 359.652 -21.75 1.875
      vertex 359.652 -21.75 2.135
    endloop
  endfacet
  facet normal 0.819124 0.573616 0
    outer loop
      vertex 359.652 -21.75 1.875
      vertex 359.952 -22.1784 2.135
      vertex 359.952 -22.1784 1.875
    endloop
  endfacet
  facet normal -0.70682 -0.707394 0
    outer loop
      vertex 380.048 22.1784 1.875
      vertex 379.678 22.5481 2.135
      vertex 379.678 22.5481 1.875
    endloop
  endfacet
  facet normal -0.70682 -0.707394 0
    outer loop
      vertex 379.678 22.5481 2.135
      vertex 380.048 22.1784 1.875
      vertex 380.048 22.1784 2.135
    endloop
  endfacet
  facet normal 0.573976 -0.818872 0
    outer loop
      vertex 360.322 22.5481 1.875
      vertex 360.75 22.8481 2.135
      vertex 360.322 22.5481 2.135
    endloop
  endfacet
  facet normal 0.573976 -0.818872 0
    outer loop
      vertex 360.75 22.8481 2.135
      vertex 360.322 22.5481 1.875
      vertex 360.75 22.8481 1.875
    endloop
  endfacet
  facet normal 0.0871907 -0.996192 0
    outer loop
      vertex 361.729 23.2044 1.875
      vertex 362.25 23.25 2.135
      vertex 361.729 23.2044 2.135
    endloop
  endfacet
  facet normal 0.0871907 -0.996192 0
    outer loop
      vertex 362.25 23.25 2.135
      vertex 361.729 23.2044 1.875
      vertex 362.25 23.25 1.875
    endloop
  endfacet
  facet normal -0.258793 0.965933 0
    outer loop
      vertex 378.776 -23.0691 1.875
      vertex 378.271 -23.2044 2.135
      vertex 378.776 -23.0691 2.135
    endloop
  endfacet
  facet normal -0.258793 0.965933 0
    outer loop
      vertex 378.271 -23.2044 2.135
      vertex 378.776 -23.0691 1.875
      vertex 378.271 -23.2044 1.875
    endloop
  endfacet
  facet normal 0.573976 0.818872 -0
    outer loop
      vertex 360.75 -22.8481 1.875
      vertex 360.322 -22.5481 2.135
      vertex 360.75 -22.8481 2.135
    endloop
  endfacet
  facet normal 0.573976 0.818872 0
    outer loop
      vertex 360.322 -22.5481 2.135
      vertex 360.75 -22.8481 1.875
      vertex 360.322 -22.5481 1.875
    endloop
  endfacet
  facet normal -0.258793 -0.965933 0
    outer loop
      vertex 378.271 23.2044 1.875
      vertex 378.776 23.0691 2.135
      vertex 378.271 23.2044 2.135
    endloop
  endfacet
  facet normal -0.258793 -0.965933 -0
    outer loop
      vertex 378.776 23.0691 2.135
      vertex 378.271 23.2044 1.875
      vertex 378.776 23.0691 1.875
    endloop
  endfacet
  facet normal 0 1 0
    outer loop
      vertex 377.75 -23.25 2.135
      vertex 374 -23.25 2
      vertex 374 -23.25 2.135
    endloop
  endfacet
  facet normal 0 1 0
    outer loop
      vertex 377.75 -23.25 1.875
      vertex 372 -23.25 2
      vertex 374 -23.25 2
    endloop
  endfacet
  facet normal 0 1 0
    outer loop
      vertex 372 -23.25 2
      vertex 377.75 -23.25 1.875
      vertex 368 -23.25 2
    endloop
  endfacet
  facet normal 0 1 0
    outer loop
      vertex 362.25 -23.25 1.875
      vertex 368 -23.25 2
      vertex 377.75 -23.25 1.875
    endloop
  endfacet
  facet normal 0 1 -0
    outer loop
      vertex 377.75 -23.25 1.875
      vertex 374 -23.25 2
      vertex 377.75 -23.25 2.135
    endloop
  endfacet
  facet normal 0 1 -0
    outer loop
      vertex 372 -23.25 2
      vertex 368 -23.25 2.135
      vertex 372 -23.25 2.135
    endloop
  endfacet
  facet normal 0 1 0
    outer loop
      vertex 368 -23.25 2.135
      vertex 372 -23.25 2
      vertex 368 -23.25 2
    endloop
  endfacet
  facet normal 0 1 -0
    outer loop
      vertex 366 -23.25 2
      vertex 362.25 -23.25 2.135
      vertex 366 -23.25 2.135
    endloop
  endfacet
  facet normal 0 1 0
    outer loop
      vertex 366 -23.25 2
      vertex 362.25 -23.25 1.875
      vertex 362.25 -23.25 2.135
    endloop
  endfacet
  facet normal 0 1 0
    outer loop
      vertex 368 -23.25 2
      vertex 362.25 -23.25 1.875
      vertex 366 -23.25 2
    endloop
  endfacet
  facet normal -0.906295 -0.422645 0
    outer loop
      vertex 380.569 21.2761 1.875
      vertex 380.348 21.75 2.135
      vertex 380.348 21.75 1.875
    endloop
  endfacet
  facet normal -0.906295 -0.422645 0
    outer loop
      vertex 380.348 21.75 2.135
      vertex 380.569 21.2761 1.875
      vertex 380.569 21.2761 2.135
    endloop
  endfacet
  facet normal 0.906295 0.422645 0
    outer loop
      vertex 359.652 -21.75 2.135
      vertex 359.431 -21.2761 1.875
      vertex 359.431 -21.2761 2.135
    endloop
  endfacet
  facet normal 0.906295 0.422645 0
    outer loop
      vertex 359.431 -21.2761 1.875
      vertex 359.652 -21.75 2.135
      vertex 359.652 -21.75 1.875
    endloop
  endfacet
  facet normal 0.70682 0.707394 0
    outer loop
      vertex 360.322 -22.5481 2.135
      vertex 359.952 -22.1784 1.875
      vertex 359.952 -22.1784 2.135
    endloop
  endfacet
  facet normal 0.70682 0.707394 0
    outer loop
      vertex 359.952 -22.1784 1.875
      vertex 360.322 -22.5481 2.135
      vertex 360.322 -22.5481 1.875
    endloop
  endfacet
  facet normal -1 0 0
    outer loop
      vertex 380.75 -20.25 1.875
      vertex 380.75 20.25 2.135
      vertex 380.75 20.25 1.875
    endloop
  endfacet
  facet normal -1 -0 0
    outer loop
      vertex 380.75 20.25 2.135
      vertex 380.75 -20.25 1.875
      vertex 380.75 -20.25 2.135
    endloop
  endfacet
  facet normal -0.422571 -0.90633 0
    outer loop
      vertex 378.776 23.0691 1.875
      vertex 379.25 22.8481 2.135
      vertex 378.776 23.0691 2.135
    endloop
  endfacet
  facet normal -0.422571 -0.90633 -0
    outer loop
      vertex 379.25 22.8481 2.135
      vertex 378.776 23.0691 1.875
      vertex 379.25 22.8481 1.875
    endloop
  endfacet
  facet normal 0.906295 -0.422645 0
    outer loop
      vertex 359.431 21.2761 2.135
      vertex 359.652 21.75 1.875
      vertex 359.652 21.75 2.135
    endloop
  endfacet
  facet normal 0.906295 -0.422645 0
    outer loop
      vertex 359.652 21.75 1.875
      vertex 359.431 21.2761 2.135
      vertex 359.431 21.2761 1.875
    endloop
  endfacet
  facet normal -0.70682 0.707394 0
    outer loop
      vertex 379.678 -22.5481 1.875
      vertex 380.048 -22.1784 2.135
      vertex 380.048 -22.1784 1.875
    endloop
  endfacet
  facet normal -0.70682 0.707394 0
    outer loop
      vertex 380.048 -22.1784 2.135
      vertex 379.678 -22.5481 1.875
      vertex 379.678 -22.5481 2.135
    endloop
  endfacet
  facet normal 0.996123 -0.0879664 0
    outer loop
      vertex 359.25 20.25 2.135
      vertex 359.296 20.7709 1.875
      vertex 359.296 20.7709 2.135
    endloop
  endfacet
  facet normal 0.996123 -0.0879664 0
    outer loop
      vertex 359.296 20.7709 1.875
      vertex 359.25 20.25 2.135
      vertex 359.25 20.25 1.875
    endloop
  endfacet
  facet normal 0.422571 0.90633 -0
    outer loop
      vertex 361.224 -23.0691 1.875
      vertex 360.75 -22.8481 2.135
      vertex 361.224 -23.0691 2.135
    endloop
  endfacet
  facet normal 0.422571 0.90633 0
    outer loop
      vertex 360.75 -22.8481 2.135
      vertex 361.224 -23.0691 1.875
      vertex 360.75 -22.8481 1.875
    endloop
  endfacet
  facet normal 1 -0 0
    outer loop
      vertex 359.25 -20.25 2.135
      vertex 359.25 20.25 1.875
      vertex 359.25 20.25 2.135
    endloop
  endfacet
  facet normal 1 0 0
    outer loop
      vertex 359.25 20.25 1.875
      vertex 359.25 -20.25 2.135
      vertex 359.25 -20.25 1.875
    endloop
  endfacet
  facet normal 0.966102 -0.258163 0
    outer loop
      vertex 359.296 20.7709 2.135
      vertex 359.431 21.2761 1.875
      vertex 359.431 21.2761 2.135
    endloop
  endfacet
  facet normal 0.966102 -0.258163 0
    outer loop
      vertex 359.431 21.2761 1.875
      vertex 359.296 20.7709 2.135
      vertex 359.296 20.7709 1.875
    endloop
  endfacet
  facet normal -0.996123 -0.0879664 0
    outer loop
      vertex 380.75 20.25 1.875
      vertex 380.704 20.7709 2.135
      vertex 380.704 20.7709 1.875
    endloop
  endfacet
  facet normal -0.996123 -0.0879664 0
    outer loop
      vertex 380.704 20.7709 2.135
      vertex 380.75 20.25 1.875
      vertex 380.75 20.25 2.135
    endloop
  endfacet
  facet normal -0.0871907 0.996192 0
    outer loop
      vertex 378.271 -23.2044 1.875
      vertex 377.75 -23.25 2.135
      vertex 378.271 -23.2044 2.135
    endloop
  endfacet
  facet normal -0.0871907 0.996192 0
    outer loop
      vertex 377.75 -23.25 2.135
      vertex 378.271 -23.2044 1.875
      vertex 377.75 -23.25 1.875
    endloop
  endfacet
  facet normal -0.906295 0.422645 0
    outer loop
      vertex 380.348 -21.75 1.875
      vertex 380.569 -21.2761 2.135
      vertex 380.569 -21.2761 1.875
    endloop
  endfacet
  facet normal -0.906295 0.422645 0
    outer loop
      vertex 380.569 -21.2761 2.135
      vertex 380.348 -21.75 1.875
      vertex 380.348 -21.75 2.135
    endloop
  endfacet
  facet normal 0.70682 -0.707394 0
    outer loop
      vertex 359.952 22.1784 2.135
      vertex 360.322 22.5481 1.875
      vertex 360.322 22.5481 2.135
    endloop
  endfacet
  facet normal 0.70682 -0.707394 0
    outer loop
      vertex 360.322 22.5481 1.875
      vertex 359.952 22.1784 2.135
      vertex 359.952 22.1784 1.875
    endloop
  endfacet
  facet normal -0.819124 -0.573616 0
    outer loop
      vertex 380.348 21.75 1.875
      vertex 380.048 22.1784 2.135
      vertex 380.048 22.1784 1.875
    endloop
  endfacet
  facet normal -0.819124 -0.573616 0
    outer loop
      vertex 380.048 22.1784 2.135
      vertex 380.348 21.75 1.875
      vertex 380.348 21.75 2.135
    endloop
  endfacet
  facet normal -0.0871907 -0.996192 0
    outer loop
      vertex 377.75 23.25 1.875
      vertex 378.271 23.2044 2.135
      vertex 377.75 23.25 2.135
    endloop
  endfacet
  facet normal -0.0871907 -0.996192 -0
    outer loop
      vertex 378.271 23.2044 2.135
      vertex 377.75 23.25 1.875
      vertex 378.271 23.2044 1.875
    endloop
  endfacet
  facet normal 0 -1 0
    outer loop
      vertex 362.25 23.25 2.135
      vertex 367 23.25 2
      vertex 367 23.25 2.135
    endloop
  endfacet
  facet normal 0 -1 0
    outer loop
      vertex 362.25 23.25 1.875
      vertex 369 23.25 2
      vertex 367 23.25 2
    endloop
  endfacet
  facet normal 0 -1 -0
    outer loop
      vertex 369 23.25 2
      vertex 362.25 23.25 1.875
      vertex 371 23.25 2
    endloop
  endfacet
  facet normal 0 -1 0
    outer loop
      vertex 377.75 23.25 1.875
      vertex 371 23.25 2
      vertex 362.25 23.25 1.875
    endloop
  endfacet
  facet normal 0 -1 0
    outer loop
      vertex 362.25 23.25 1.875
      vertex 367 23.25 2
      vertex 362.25 23.25 2.135
    endloop
  endfacet
  facet normal 0 -1 0
    outer loop
      vertex 369 23.25 2
      vertex 371 23.25 2.135
      vertex 369 23.25 2.135
    endloop
  endfacet
  facet normal 0 -1 -0
    outer loop
      vertex 371 23.25 2.135
      vertex 369 23.25 2
      vertex 371 23.25 2
    endloop
  endfacet
  facet normal 0 -1 0
    outer loop
      vertex 373 23.25 2
      vertex 377.75 23.25 2.135
      vertex 373 23.25 2.135
    endloop
  endfacet
  facet normal 0 -1 0
    outer loop
      vertex 373 23.25 2
      vertex 377.75 23.25 1.875
      vertex 377.75 23.25 2.135
    endloop
  endfacet
  facet normal 0 -1 0
    outer loop
      vertex 371 23.25 2
      vertex 377.75 23.25 1.875
      vertex 373 23.25 2
    endloop
  endfacet
  facet normal -0.422571 0.90633 0
    outer loop
      vertex 379.25 -22.8481 1.875
      vertex 378.776 -23.0691 2.135
      vertex 379.25 -22.8481 2.135
    endloop
  endfacet
  facet normal -0.422571 0.90633 0
    outer loop
      vertex 378.776 -23.0691 2.135
      vertex 379.25 -22.8481 1.875
      vertex 378.776 -23.0691 1.875
    endloop
  endfacet
  facet normal 0.0871907 0.996192 -0
    outer loop
      vertex 362.25 -23.25 1.875
      vertex 361.729 -23.2044 2.135
      vertex 362.25 -23.25 2.135
    endloop
  endfacet
  facet normal 0.0871907 0.996192 0
    outer loop
      vertex 361.729 -23.2044 2.135
      vertex 362.25 -23.25 1.875
      vertex 361.729 -23.2044 1.875
    endloop
  endfacet
  facet normal 0.258793 -0.965933 0
    outer loop
      vertex 361.224 23.0691 1.875
      vertex 361.729 23.2044 2.135
      vertex 361.224 23.0691 2.135
    endloop
  endfacet
  facet normal 0.258793 -0.965933 0
    outer loop
      vertex 361.729 23.2044 2.135
      vertex 361.224 23.0691 1.875
      vertex 361.729 23.2044 1.875
    endloop
  endfacet
  facet normal -0.966102 -0.258163 0
    outer loop
      vertex 380.704 20.7709 1.875
      vertex 380.569 21.2761 2.135
      vertex 380.569 21.2761 1.875
    endloop
  endfacet
  facet normal -0.966102 -0.258163 0
    outer loop
      vertex 380.569 21.2761 2.135
      vertex 380.704 20.7709 1.875
      vertex 380.704 20.7709 2.135
    endloop
  endfacet
  facet normal -0.966102 0.258163 0
    outer loop
      vertex 380.569 -21.2761 1.875
      vertex 380.704 -20.7709 2.135
      vertex 380.704 -20.7709 1.875
    endloop
  endfacet
  facet normal -0.966102 0.258163 0
    outer loop
      vertex 380.704 -20.7709 2.135
      vertex 380.569 -21.2761 1.875
      vertex 380.569 -21.2761 2.135
    endloop
  endfacet
  facet normal 0.996123 0.0879664 0
    outer loop
      vertex 359.296 -20.7709 2.135
      vertex 359.25 -20.25 1.875
      vertex 359.25 -20.25 2.135
    endloop
  endfacet
  facet normal 0.996123 0.0879664 0
    outer loop
      vertex 359.25 -20.25 1.875
      vertex 359.296 -20.7709 2.135
      vertex 359.296 -20.7709 1.875
    endloop
  endfacet
  facet normal -0.573976 -0.818872 0
    outer loop
      vertex 379.25 22.8481 1.875
      vertex 379.678 22.5481 2.135
      vertex 379.25 22.8481 2.135
    endloop
  endfacet
  facet normal -0.573976 -0.818872 -0
    outer loop
      vertex 379.678 22.5481 2.135
      vertex 379.25 22.8481 1.875
      vertex 379.678 22.5481 1.875
    endloop
  endfacet
  facet normal 0.819124 -0.573616 0
    outer loop
      vertex 359.652 21.75 2.135
      vertex 359.952 22.1784 1.875
      vertex 359.952 22.1784 2.135
    endloop
  endfacet
  facet normal 0.819124 -0.573616 0
    outer loop
      vertex 359.952 22.1784 1.875
      vertex 359.652 21.75 2.135
      vertex 359.652 21.75 1.875
    endloop
  endfacet
  facet normal -0.573976 0.818872 0
    outer loop
      vertex 379.678 -22.5481 1.875
      vertex 379.25 -22.8481 2.135
      vertex 379.678 -22.5481 2.135
    endloop
  endfacet
  facet normal -0.573976 0.818872 0
    outer loop
      vertex 379.25 -22.8481 2.135
      vertex 379.678 -22.5481 1.875
      vertex 379.25 -22.8481 1.875
    endloop
  endfacet
  facet normal 0.258793 0.965933 -0
    outer loop
      vertex 361.729 -23.2044 1.875
      vertex 361.224 -23.0691 2.135
      vertex 361.729 -23.2044 2.135
    endloop
  endfacet
  facet normal 0.258793 0.965933 0
    outer loop
      vertex 361.224 -23.0691 2.135
      vertex 361.729 -23.2044 1.875
      vertex 361.224 -23.0691 1.875
    endloop
  endfacet
  facet normal -0.996123 0.0879664 0
    outer loop
      vertex 380.704 -20.7709 1.875
      vertex 380.75 -20.25 2.135
      vertex 380.75 -20.25 1.875
    endloop
  endfacet
  facet normal -0.996123 0.0879664 0
    outer loop
      vertex 380.75 -20.25 2.135
      vertex 380.704 -20.7709 1.875
      vertex 380.704 -20.7709 2.135
    endloop
  endfacet
  facet normal 0.422571 -0.90633 0
    outer loop
      vertex 360.75 22.8481 1.875
      vertex 361.224 23.0691 2.135
      vertex 360.75 22.8481 2.135
    endloop
  endfacet
  facet normal 0.422571 -0.90633 0
    outer loop
      vertex 361.224 23.0691 2.135
      vertex 360.75 22.8481 1.875
      vertex 361.224 23.0691 1.875
    endloop
  endfacet
  facet normal -0.819124 0.573616 0
    outer loop
      vertex 380.048 -22.1784 1.875
      vertex 380.348 -21.75 2.135
      vertex 380.348 -21.75 1.875
    endloop
  endfacet
  facet normal -0.819124 0.573616 0
    outer loop
      vertex 380.348 -21.75 2.135
      vertex 380.048 -22.1784 1.875
      vertex 380.048 -22.1784 2.135
    endloop
  endfacet
  facet normal 0 1 -0
    outer loop
      vertex 368 -21 2
      vertex 366 -21 22
      vertex 368 -21 22
    endloop
  endfacet
  facet normal 0 1 0
    outer loop
      vertex 366 -21 22
      vertex 368 -21 2
      vertex 366 -21 2
    endloop
  endfacet
  facet normal 0 1 -0
    outer loop
      vertex 374 -21 2
      vertex 372 -21 22
      vertex 374 -21 22
    endloop
  endfacet
  facet normal 0 1 0
    outer loop
      vertex 372 -21 22
      vertex 374 -21 2
      vertex 372 -21 2
    endloop
  endfacet
  facet normal 0 0 1
    outer loop
      vertex 368 -21 22
      vertex 366 -21 22
      vertex 368 -23.4 22
    endloop
  endfacet
  facet normal 0 0 1
    outer loop
      vertex 372 -23.4 22
      vertex 374 -21 22
      vertex 372 -21 22
    endloop
  endfacet
  facet normal 0 0 1
    outer loop
      vertex 374 -21 22
      vertex 372 -23.4 22
      vertex 374 -25.5 22
    endloop
  endfacet
  facet normal -0 0 1
    outer loop
      vertex 368 -23.4 22
      vertex 374 -25.5 22
      vertex 372 -23.4 22
    endloop
  endfacet
  facet normal 0 0 1
    outer loop
      vertex 368 -23.4 22
      vertex 366 -25.5 22
      vertex 374 -25.5 22
    endloop
  endfacet
  facet normal 0 0 1
    outer loop
      vertex 366 -25.5 22
      vertex 368 -23.4 22
      vertex 366 -21 22
    endloop
  endfacet
  facet normal 0 0 -1
    outer loop
      vertex 366 -23.25 2
      vertex 368 -21 2
      vertex 368 -23.25 2
    endloop
  endfacet
  facet normal -0 0 -1
    outer loop
      vertex 368 -21 2
      vertex 366 -23.25 2
      vertex 366 -21 2
    endloop
  endfacet
  facet normal 0 0 -1
    outer loop
      vertex 372 -23.25 2
      vertex 374 -21 2
      vertex 374 -23.25 2
    endloop
  endfacet
  facet normal -0 0 -1
    outer loop
      vertex 374 -21 2
      vertex 372 -23.25 2
      vertex 372 -21 2
    endloop
  endfacet
  facet normal 0 0 -1
    outer loop
      vertex 366 -25.5 2
      vertex 374 -24 2
      vertex 374 -25.5 2
    endloop
  endfacet
  facet normal -0 0 -1
    outer loop
      vertex 374 -24 2
      vertex 366 -25.5 2
      vertex 366 -24 2
    endloop
  endfacet
  facet normal 0 -1 0
    outer loop
      vertex 366 -25.5 2
      vertex 374 -25.5 22
      vertex 366 -25.5 22
    endloop
  endfacet
  facet normal 0 -1 -0
    outer loop
      vertex 374 -25.5 22
      vertex 366 -25.5 2
      vertex 374 -25.5 2
    endloop
  endfacet
  facet normal -1 0 0
    outer loop
      vertex 366 -24 2
      vertex 366 -25.5 2
      vertex 366 -24 2.135
    endloop
  endfacet
  facet normal -1 0 0
    outer loop
      vertex 366 -23.25 2.135
      vertex 366 -21 2
      vertex 366 -23.25 2
    endloop
  endfacet
  facet normal -1 0 0
    outer loop
      vertex 366 -21 2
      vertex 366 -23.25 2.135
      vertex 366 -21 22
    endloop
  endfacet
  facet normal -1 0 0
    outer loop
      vertex 366 -25.5 22
      vertex 366 -23.25 2.135
      vertex 366 -24 2.135
    endloop
  endfacet
  facet normal -1 0 0
    outer loop
      vertex 366 -25.5 22
      vertex 366 -24 2.135
      vertex 366 -25.5 2
    endloop
  endfacet
  facet normal -1 0 0
    outer loop
      vertex 366 -23.25 2.135
      vertex 366 -25.5 22
      vertex 366 -21 22
    endloop
  endfacet
  facet normal 1 0 0
    outer loop
      vertex 374 -21 22
      vertex 374 -23.25 2.135
      vertex 374 -21 2
    endloop
  endfacet
  facet normal 1 -0 0
    outer loop
      vertex 374 -25.5 22
      vertex 374 -23.25 2.135
      vertex 374 -21 22
    endloop
  endfacet
  facet normal 1 0 0
    outer loop
      vertex 374 -23.25 2.135
      vertex 374 -25.5 22
      vertex 374 -24 2.135
    endloop
  endfacet
  facet normal 1 0 0
    outer loop
      vertex 374 -25.5 2
      vertex 374 -24 2.135
      vertex 374 -25.5 22
    endloop
  endfacet
  facet normal 1 0 0
    outer loop
      vertex 374 -24 2.135
      vertex 374 -25.5 2
      vertex 374 -24 2
    endloop
  endfacet
  facet normal 1 0 0
    outer loop
      vertex 374 -21 2
      vertex 374 -23.25 2.135
      vertex 374 -23.25 2
    endloop
  endfacet
  facet normal 0 1 -0
    outer loop
      vertex 372 -23.4 2.135
      vertex 368 -23.4 22
      vertex 372 -23.4 22
    endloop
  endfacet
  facet normal 0 1 0
    outer loop
      vertex 368 -23.4 22
      vertex 372 -23.4 2.135
      vertex 368 -23.4 2.135
    endloop
  endfacet
  facet normal 1 0 0
    outer loop
      vertex 368 -21 22
      vertex 368 -23.25 2.135
      vertex 368 -21 2
    endloop
  endfacet
  facet normal 1 -0 0
    outer loop
      vertex 368 -23.4 22
      vertex 368 -23.25 2.135
      vertex 368 -21 22
    endloop
  endfacet
  facet normal 1 0 0
    outer loop
      vertex 368 -23.25 2.135
      vertex 368 -23.4 22
      vertex 368 -23.4 2.135
    endloop
  endfacet
  facet normal 1 0 0
    outer loop
      vertex 368 -21 2
      vertex 368 -23.25 2.135
      vertex 368 -23.25 2
    endloop
  endfacet
  facet normal -1 0 0
    outer loop
      vertex 372 -23.25 2.135
      vertex 372 -21 2
      vertex 372 -23.25 2
    endloop
  endfacet
  facet normal -1 0 0
    outer loop
      vertex 372 -21 2
      vertex 372 -23.25 2.135
      vertex 372 -21 22
    endloop
  endfacet
  facet normal -1 0 0
    outer loop
      vertex 372 -23.4 22
      vertex 372 -23.25 2.135
      vertex 372 -23.4 2.135
    endloop
  endfacet
  facet normal -1 0 0
    outer loop
      vertex 372 -23.25 2.135
      vertex 372 -23.4 22
      vertex 372 -21 22
    endloop
  endfacet
  facet normal 0 -1 0
    outer loop
      vertex 371 21 2
      vertex 373 21 22
      vertex 371 21 22
    endloop
  endfacet
  facet normal 0 -1 -0
    outer loop
      vertex 373 21 22
      vertex 371 21 2
      vertex 373 21 2
    endloop
  endfacet
  facet normal 0 -1 0
    outer loop
      vertex 367 21 2
      vertex 369 21 22
      vertex 367 21 22
    endloop
  endfacet
  facet normal 0 -1 -0
    outer loop
      vertex 369 21 22
      vertex 367 21 2
      vertex 369 21 2
    endloop
  endfacet
  facet normal 0 0 1
    outer loop
      vertex 373 25.5 22
      vertex 371 23.4 22
      vertex 373 21 22
    endloop
  endfacet
  facet normal 0 0 1
    outer loop
      vertex 373 25.5 22
      vertex 369 23.4 22
      vertex 371 23.4 22
    endloop
  endfacet
  facet normal -0 0 1
    outer loop
      vertex 367 25.5 22
      vertex 369 23.4 22
      vertex 373 25.5 22
    endloop
  endfacet
  facet normal 0 0 1
    outer loop
      vertex 367 21 22
      vertex 369 23.4 22
      vertex 367 25.5 22
    endloop
  endfacet
  facet normal 0 0 1
    outer loop
      vertex 369 23.4 22
      vertex 367 21 22
      vertex 369 21 22
    endloop
  endfacet
  facet normal 0 0 1
    outer loop
      vertex 373 21 22
      vertex 371 23.4 22
      vertex 371 21 22
    endloop
  endfacet
  facet normal 0 0 -1
    outer loop
      vertex 371 21 2
      vertex 373 23.25 2
      vertex 373 21 2
    endloop
  endfacet
  facet normal -0 0 -1
    outer loop
      vertex 373 23.25 2
      vertex 371 21 2
      vertex 371 23.25 2
    endloop
  endfacet
  facet normal 0 0 -1
    outer loop
      vertex 367 21 2
      vertex 369 23.25 2
      vertex 369 21 2
    endloop
  endfacet
  facet normal -0 0 -1
    outer loop
      vertex 369 23.25 2
      vertex 367 21 2
      vertex 367 23.25 2
    endloop
  endfacet
  facet normal 0 0 -1
    outer loop
      vertex 367 24 2
      vertex 373 25.5 2
      vertex 373 24 2
    endloop
  endfacet
  facet normal -0 0 -1
    outer loop
      vertex 373 25.5 2
      vertex 367 24 2
      vertex 367 25.5 2
    endloop
  endfacet
  facet normal 0 1 -0
    outer loop
      vertex 373 25.5 2
      vertex 367 25.5 22
      vertex 373 25.5 22
    endloop
  endfacet
  facet normal 0 1 0
    outer loop
      vertex 367 25.5 22
      vertex 373 25.5 2
      vertex 367 25.5 2
    endloop
  endfacet
  facet normal 1 0 0
    outer loop
      vertex 373 25.5 22
      vertex 373 24 2.135
      vertex 373 25.5 2
    endloop
  endfacet
  facet normal 1 0 0
    outer loop
      vertex 373 25.5 22
      vertex 373 23.25 2.135
      vertex 373 24 2.135
    endloop
  endfacet
  facet normal 1 -0 0
    outer loop
      vertex 373 21 22
      vertex 373 23.25 2.135
      vertex 373 25.5 22
    endloop
  endfacet
  facet normal 1 0 0
    outer loop
      vertex 373 21 2
      vertex 373 23.25 2.135
      vertex 373 21 22
    endloop
  endfacet
  facet normal 1 0 0
    outer loop
      vertex 373 23.25 2.135
      vertex 373 21 2
      vertex 373 23.25 2
    endloop
  endfacet
  facet normal 1 0 0
    outer loop
      vertex 373 25.5 2
      vertex 373 24 2.135
      vertex 373 24 2
    endloop
  endfacet
  facet normal -1 0 0
    outer loop
      vertex 367 23.25 2
      vertex 367 21 2
      vertex 367 23.25 2.135
    endloop
  endfacet
  facet normal -1 0 0
    outer loop
      vertex 367 24 2.135
      vertex 367 25.5 2
      vertex 367 24 2
    endloop
  endfacet
  facet normal -1 0 0
    outer loop
      vertex 367 25.5 2
      vertex 367 24 2.135
      vertex 367 25.5 22
    endloop
  endfacet
  facet normal -1 0 0
    outer loop
      vertex 367 23.25 2.135
      vertex 367 25.5 22
      vertex 367 24 2.135
    endloop
  endfacet
  facet normal -1 0 0
    outer loop
      vertex 367 21 22
      vertex 367 23.25 2.135
      vertex 367 21 2
    endloop
  endfacet
  facet normal -1 0 0
    outer loop
      vertex 367 23.25 2.135
      vertex 367 21 22
      vertex 367 25.5 22
    endloop
  endfacet
  facet normal 0 -1 0
    outer loop
      vertex 369 23.4 2.135
      vertex 371 23.4 22
      vertex 369 23.4 22
    endloop
  endfacet
  facet normal 0 -1 -0
    outer loop
      vertex 371 23.4 22
      vertex 369 23.4 2.135
      vertex 371 23.4 2.135
    endloop
  endfacet
  facet normal -1 0 0
    outer loop
      vertex 371 23.25 2
      vertex 371 21 2
      vertex 371 23.25 2.135
    endloop
  endfacet
  facet normal -1 0 0
    outer loop
      vertex 371 23.25 2.135
      vertex 371 23.4 22
      vertex 371 23.4 2.135
    endloop
  endfacet
  facet normal -1 0 0
    outer loop
      vertex 371 21 22
      vertex 371 23.25 2.135
      vertex 371 21 2
    endloop
  endfacet
  facet normal -1 0 0
    outer loop
      vertex 371 23.25 2.135
      vertex 371 21 22
      vertex 371 23.4 22
    endloop
  endfacet
  facet normal 1 0 0
    outer loop
      vertex 369 23.4 22
      vertex 369 23.25 2.135
      vertex 369 23.4 2.135
    endloop
  endfacet
  facet normal 1 -0 0
    outer loop
      vertex 369 21 22
      vertex 369 23.25 2.135
      vertex 369 23.4 22
    endloop
  endfacet
  facet normal 1 0 0
    outer loop
      vertex 369 21 2
      vertex 369 23.25 2.135
      vertex 369 21 22
    endloop
  endfacet
  facet normal 1 0 0
    outer loop
      vertex 369 23.25 2.135
      vertex 369 21 2
      vertex 369 23.25 2
    endloop
  endfacet
  facet normal 1 -0 0
    outer loop
      vertex 275.4 -10 2.125
      vertex 275.4 10 1.875
      vertex 275.4 10 2.125
    endloop
  endfacet
  facet normal 1 0 0
    outer loop
      vertex 275.4 10 1.875
      vertex 275.4 -10 2.125
      vertex 275.4 -10 1.875
    endloop
  endfacet
  facet normal -0 0 1
    outer loop
      vertex 275 10 2.125
      vertex 275.4 -10 2.125
      vertex 275.4 10 2.125
    endloop
  endfacet
  facet normal 0 0 1
    outer loop
      vertex 275.4 -10 2.125
      vertex 275 10 2.125
      vertex 275 -10 2.125
    endloop
  endfacet
  facet normal 0 0 -1
    outer loop
      vertex 275 -10 1.875
      vertex 275.4 10 1.875
      vertex 275.4 -10 1.875
    endloop
  endfacet
  facet normal -0 0 -1
    outer loop
      vertex 275.4 10 1.875
      vertex 275 -10 1.875
      vertex 275 10 1.875
    endloop
  endfacet
  facet normal 0 1 -0
    outer loop
      vertex 275.4 10 1.875
      vertex 275 10 2.125
      vertex 275.4 10 2.125
    endloop
  endfacet
  facet normal 0 1 0
    outer loop
      vertex 275 10 2.125
      vertex 275.4 10 1.875
      vertex 275 10 1.875
    endloop
  endfacet
  facet normal 0 -1 0
    outer loop
      vertex 275 -10 1.875
      vertex 275.4 -10 2.125
      vertex 275 -10 2.125
    endloop
  endfacet
  facet normal 0 -1 -0
    outer loop
      vertex 275.4 -10 2.125
      vertex 275 -10 1.875
      vertex 275.4 -10 1.875
    endloop
  endfacet
  facet normal -1 0 0
    outer loop
      vertex 275 -10 1.875
      vertex 275 10 2.125
      vertex 275 10 1.875
    endloop
  endfacet
  facet normal -1 -0 0
    outer loop
      vertex 275 10 2.125
      vertex 275 -10 1.875
      vertex 275 -10 2.125
    endloop
  endfacet
endsolid OpenSCAD_Model
