solid OpenSCAD_Model
  facet normal 0.157269 0.987402 0.0174264
    outer loop
      vertex 26.7833 87.3365 480
      vertex 25 87.5435 484.365
      vertex 25 87.4824 487.827
    endloop
  endfacet
  facet normal 0.157291 0.987398 0.0174353
    outer loop
      vertex 25 87.5435 484.365
      vertex 26.7833 87.3365 480
      vertex 25.9057 87.4763 480
    endloop
  endfacet
  facet normal 0.264765 0.963055 0.0492324
    outer loop
      vertex 30 85.4103 518.925
      vertex 28.5696 85.5893 523.116
      vertex 30 85.3989 519.148
    endloop
  endfacet
  facet normal 0.254726 0.965938 0.045603
    outer loop
      vertex 30 85.6577 513.933
      vertex 26.9332 86.0329 523.116
      vertex 30 85.634 514.435
    endloop
  endfacet
  facet normal 0.183021 0.982824 0.0236515
    outer loop
      vertex 30 86.6961 483.376
      vertex 25 87.2688 498.269
      vertex 25 87.1337 503.883
    endloop
  endfacet
  facet normal 0.183206 0.98279 0.0236382
    outer loop
      vertex 29.6776 86.8374 480
      vertex 30 86.6961 483.376
      vertex 30 86.7773 480
    endloop
  endfacet
  facet normal 0.183034 0.982822 0.023656
    outer loop
      vertex 30 86.6961 483.376
      vertex 29.6776 86.8374 480
      vertex 25 87.2688 498.269
    endloop
  endfacet
  facet normal 0.151357 0.988347 0.0161894
    outer loop
      vertex 25 87.615 480
      vertex 25 87.5435 484.365
      vertex 25.9057 87.4763 480
    endloop
  endfacet
  facet normal 0.195773 0.980277 0.0270124
    outer loop
      vertex 30 86.5495 488.99
      vertex 25 87.0973 505.348
      vertex 25 87.0628 506.6
    endloop
  endfacet
  facet normal 0.195788 0.980274 0.0270172
    outer loop
      vertex 25 87.0973 505.348
      vertex 30 86.5495 488.99
      vertex 30 86.6208 486.403
    endloop
  endfacet
  facet normal 0.245779 0.968393 0.0425147
    outer loop
      vertex 30 85.6577 513.933
      vertex 25.2886 86.4503 523.116
      vertex 26.9332 86.0329 523.116
    endloop
  endfacet
  facet normal 0.245776 0.968394 0.0425133
    outer loop
      vertex 25.2886 86.4503 523.116
      vertex 30 85.6577 513.933
      vertex 30 85.8524 509.498
    endloop
  endfacet
  facet normal 0.225143 0.973672 0.0356898
    outer loop
      vertex 30 86.1011 503.169
      vertex 25 86.6931 518.56
      vertex 25 86.6828 518.841
    endloop
  endfacet
  facet normal 0.224946 0.97372 0.0356239
    outer loop
      vertex 25 86.6931 518.56
      vertex 30 86.1011 503.169
      vertex 30 86.1491 501.857
    endloop
  endfacet
  facet normal 0.198805 0.979642 0.0278937
    outer loop
      vertex 30 86.4185 493.592
      vertex 25 87.0628 506.6
      vertex 25 86.9093 511.991
    endloop
  endfacet
  facet normal 0.198787 0.979646 0.0278865
    outer loop
      vertex 25 87.0628 506.6
      vertex 30 86.4185 493.592
      vertex 30 86.5495 488.99
    endloop
  endfacet
  facet normal 0.276873 0.959398 0.0538118
    outer loop
      vertex 30 85.3879 519.347
      vertex 28.5696 85.5893 523.116
      vertex 30 85.1765 523.116
    endloop
  endfacet
  facet normal 0.186077 0.982232 0.0244049
    outer loop
      vertex 30 86.6208 486.403
      vertex 25 87.1337 503.883
      vertex 25 87.0973 505.348
    endloop
  endfacet
  facet normal 0.186175 0.982213 0.0244336
    outer loop
      vertex 25 87.1337 503.883
      vertex 30 86.6208 486.403
      vertex 30 86.6961 483.376
    endloop
  endfacet
  facet normal 0.205461 0.978213 0.0297325
    outer loop
      vertex 30 86.3571 495.607
      vertex 25 86.9093 511.991
      vertex 25 86.8862 512.751
    endloop
  endfacet
  facet normal 0.205697 0.978162 0.029806
    outer loop
      vertex 25 86.9093 511.991
      vertex 30 86.3571 495.607
      vertex 30 86.4185 493.592
    endloop
  endfacet
  facet normal 0.1669 0.985778 0.019654
    outer loop
      vertex 27.6576 87.1885 480
      vertex 25 87.4824 487.827
      vertex 25 87.4249 490.711
    endloop
  endfacet
  facet normal 0.166872 0.985783 0.0196444
    outer loop
      vertex 25 87.4824 487.827
      vertex 27.6576 87.1885 480
      vertex 26.7833 87.3365 480
    endloop
  endfacet
  facet normal 0.215211 0.976022 0.0326348
    outer loop
      vertex 30 86.1491 501.857
      vertex 25 86.7039 518.237
      vertex 25 86.6931 518.56
    endloop
  endfacet
  facet normal 0.215301 0.976001 0.032663
    outer loop
      vertex 25 86.7039 518.237
      vertex 30 86.1491 501.857
      vertex 30 86.1995 500.351
    endloop
  endfacet
  facet normal 0.214516 0.976182 0.0324386
    outer loop
      vertex 30 86.1995 500.351
      vertex 25 86.8862 512.751
      vertex 25 86.7039 518.237
    endloop
  endfacet
  facet normal 0.214495 0.976186 0.0324298
    outer loop
      vertex 25 86.8862 512.751
      vertex 30 86.1995 500.351
      vertex 30 86.3571 495.607
    endloop
  endfacet
  facet normal 0.167162 0.985732 0.019711
    outer loop
      vertex 28.8069 86.9935 480
      vertex 25 87.4249 490.711
      vertex 25 87.3163 496.142
    endloop
  endfacet
  facet normal 0.167245 0.985718 0.0197411
    outer loop
      vertex 25 87.4249 490.711
      vertex 28.8069 86.9935 480
      vertex 27.6576 87.1885 480
    endloop
  endfacet
  facet normal 0.176583 0.98404 0.0219755
    outer loop
      vertex 29.6776 86.8374 480
      vertex 25 87.3163 496.142
      vertex 25 87.2688 498.269
    endloop
  endfacet
  facet normal 0.176425 0.98407 0.0219288
    outer loop
      vertex 25 87.3163 496.142
      vertex 29.6776 86.8374 480
      vertex 28.8069 86.9935 480
    endloop
  endfacet
  facet normal 0.274986 0.959983 0.0530644
    outer loop
      vertex 30 85.3989 519.148
      vertex 28.5696 85.5893 523.116
      vertex 30 85.3879 519.347
    endloop
  endfacet
  facet normal 0.230457 0.972366 0.0373252
    outer loop
      vertex 25.2886 86.4503 523.116
      vertex 25 86.6828 518.841
      vertex 25 86.5187 523.116
    endloop
  endfacet
  facet normal 0.230193 0.972428 0.0373464
    outer loop
      vertex 30 85.9245 507.767
      vertex 25 86.6828 518.841
      vertex 25.2886 86.4503 523.116
    endloop
  endfacet
  facet normal 0.230199 0.972427 0.037349
    outer loop
      vertex 25 86.6828 518.841
      vertex 30 85.9245 507.767
      vertex 30 86.1011 503.169
    endloop
  endfacet
  facet normal 0.234955 0.971229 0.0388492
    outer loop
      vertex 30 85.9245 507.767
      vertex 25.2886 86.4503 523.116
      vertex 30 85.8877 508.687
    endloop
  endfacet
  facet normal 0.261338 0.964052 0.0480202
    outer loop
      vertex 30 85.4103 518.925
      vertex 26.9332 86.0329 523.116
      vertex 28.5696 85.5893 523.116
    endloop
  endfacet
  facet normal 0.261351 0.964048 0.0480306
    outer loop
      vertex 26.9332 86.0329 523.116
      vertex 30 85.4103 518.925
      vertex 30 85.634 514.435
    endloop
  endfacet
  facet normal 0.244795 0.968658 0.0421623
    outer loop
      vertex 30 85.8877 508.687
      vertex 25.2886 86.4503 523.116
      vertex 30 85.8524 509.498
    endloop
  endfacet
  facet normal 0.303082 0.952473 0.0306018
    outer loop
      vertex 30 84.9501 530.947
      vertex 29.0569 85.1195 535.015
      vertex 30 84.8194 535.015
    endloop
  endfacet
  facet normal 0.261574 0.964924 0.0223588
    outer loop
      vertex 26.9332 86.0329 523.116
      vertex 25.9161 86.0329 535.015
      vertex 28.5696 85.5893 523.116
    endloop
  endfacet
  facet normal 0.255046 0.966684 0.021767
    outer loop
      vertex 25.9161 86.0329 535.015
      vertex 25 86.3433 531.964
      vertex 25 86.2746 535.015
    endloop
  endfacet
  facet normal 0.254964 0.966705 0.0217938
    outer loop
      vertex 25 86.3433 531.964
      vertex 25.9161 86.0329 535.015
      vertex 26.9332 86.0329 523.116
    endloop
  endfacet
  facet normal 0.239025 0.970824 0.0191832
    outer loop
      vertex 25 86.4947 524.465
      vertex 25 86.4503 526.712
      vertex 25.2886 86.4503 523.116
    endloop
  endfacet
  facet normal 0.24596 0.969079 0.0197432
    outer loop
      vertex 26.9332 86.0329 523.116
      vertex 25 86.4503 526.712
      vertex 25 86.3433 531.964
    endloop
  endfacet
  facet normal 0.245953 0.969081 0.0197392
    outer loop
      vertex 25 86.4503 526.712
      vertex 26.9332 86.0329 523.116
      vertex 25.2886 86.4503 523.116
    endloop
  endfacet
  facet normal 0.230583 0.972899 0.0173088
    outer loop
      vertex 25 86.5187 523.116
      vertex 25 86.4947 524.465
      vertex 25.2886 86.4503 523.116
    endloop
  endfacet
  facet normal 0.277187 0.960487 0.0251477
    outer loop
      vertex 28.5696 85.5893 523.116
      vertex 30 85.1538 523.983
      vertex 30 85.1765 523.116
    endloop
  endfacet
  facet normal 0.277195 0.960485 0.0251337
    outer loop
      vertex 30 85.1538 523.983
      vertex 28.5696 85.5893 523.116
      vertex 27.4907 85.5893 535.015
    endloop
  endfacet
  facet normal 0.271085 0.962242 0.0245797
    outer loop
      vertex 28.5696 85.5893 523.116
      vertex 25.9161 86.0329 535.015
      vertex 27.4907 85.5893 535.015
    endloop
  endfacet
  facet normal 0.29266 0.955805 0.0280467
    outer loop
      vertex 30 85.1195 525.174
      vertex 29.0569 85.1195 535.015
      vertex 30 84.9501 530.947
    endloop
  endfacet
  facet normal 0.287205 0.957474 0.027524
    outer loop
      vertex 30 85.1195 525.174
      vertex 27.4907 85.5893 535.015
      vertex 29.0569 85.1195 535.015
    endloop
  endfacet
  facet normal 0.287387 0.957418 0.027573
    outer loop
      vertex 27.4907 85.5893 535.015
      vertex 30 85.1195 525.174
      vertex 30 85.1538 523.983
    endloop
  endfacet
  facet normal 0.287308 0.957816 0.00651206
    outer loop
      vertex 27.4907 85.5893 535.015
      vertex 27.221 85.5893 546.914
      vertex 29.0569 85.1195 535.015
    endloop
  endfacet
  facet normal 0.27364 0.961812 0.00620227
    outer loop
      vertex 27.4907 85.5893 535.015
      vertex 25.6618 86.0329 546.914
      vertex 27.221 85.5893 546.914
    endloop
  endfacet
  facet normal 0.289904 0.95703 0.00694367
    outer loop
      vertex 29.0569 85.1195 535.015
      vertex 27.221 85.5893 546.914
      vertex 28.7719 85.1195 546.914
    endloop
  endfacet
  facet normal 0.303217 0.952894 0.0072542
    outer loop
      vertex 29.0569 85.1195 535.015
      vertex 30 84.7892 538.982
      vertex 30 84.8194 535.015
    endloop
  endfacet
  facet normal 0.303188 0.952903 0.00726183
    outer loop
      vertex 30 84.7892 538.982
      vertex 29.0569 85.1195 535.015
      vertex 28.7719 85.1195 546.914
    endloop
  endfacet
  facet normal 0.305967 0.952011 0.00772939
    outer loop
      vertex 30 84.7892 538.982
      vertex 28.7719 85.1195 546.914
      vertex 30 84.7248 546.914
    endloop
  endfacet
  facet normal 0.271162 0.962516 0.00579516
    outer loop
      vertex 25.9161 86.0329 535.015
      vertex 25.6618 86.0329 546.914
      vertex 27.4907 85.5893 535.015
    endloop
  endfacet
  facet normal 0.257413 0.966286 0.00550623
    outer loop
      vertex 25.6618 86.0329 546.914
      vertex 25 86.2429 541
      vertex 25 86.2092 546.914
    endloop
  endfacet
  facet normal 0.257448 0.966277 0.00550206
    outer loop
      vertex 25 86.2429 541
      vertex 25.6618 86.0329 546.914
      vertex 25.9161 86.0329 535.015
    endloop
  endfacet
  facet normal 0.255103 0.9669 0.00512126
    outer loop
      vertex 25 86.2746 535.015
      vertex 25 86.2429 541
      vertex 25.9161 86.0329 535.015
    endloop
  endfacet
  facet normal 0.276167 0.961106 0.00250386
    outer loop
      vertex 27.221 85.5893 546.914
      vertex 25.4075 86.0329 576.661
      vertex 26.9513 85.5893 576.661
    endloop
  endfacet
  facet normal 0.29257 0.95624 0.00280404
    outer loop
      vertex 28.7719 85.1195 546.914
      vertex 26.9513 85.5893 576.661
      vertex 28.4868 85.1195 576.661
    endloop
  endfacet
  facet normal 0.257417 0.966298 0.00206519
    outer loop
      vertex 25 86.2092 546.914
      vertex 25 86.1859 557.816
      vertex 25.6618 86.0329 546.914
    endloop
  endfacet
  facet normal 0.308749 0.951138 0.00311963
    outer loop
      vertex 30 84.7091 552.026
      vertex 28.4868 85.1195 576.661
      vertex 30 84.6283 576.661
    endloop
  endfacet
  facet normal 0.305975 0.952035 0.00292389
    outer loop
      vertex 28.7719 85.1195 546.914
      vertex 30 84.7091 552.026
      vertex 30 84.7248 546.914
    endloop
  endfacet
  facet normal 0.305944 0.952045 0.00293222
    outer loop
      vertex 30 84.7091 552.026
      vertex 28.7719 85.1195 546.914
      vertex 28.4868 85.1195 576.661
    endloop
  endfacet
  facet normal 0.28991 0.95705 0.00262846
    outer loop
      vertex 27.221 85.5893 546.914
      vertex 26.9513 85.5893 576.661
      vertex 28.7719 85.1195 546.914
    endloop
  endfacet
  facet normal 0.259947 0.96562 0.0022187
    outer loop
      vertex 25.4075 86.0329 576.661
      vertex 25 86.1859 557.816
      vertex 25 86.1426 576.661
    endloop
  endfacet
  facet normal 0.259838 0.96565 0.0022213
    outer loop
      vertex 25 86.1859 557.816
      vertex 25.4075 86.0329 576.661
      vertex 25.6618 86.0329 546.914
    endloop
  endfacet
  facet normal 0.273645 0.961828 0.00233932
    outer loop
      vertex 25.6618 86.0329 546.914
      vertex 25.4075 86.0329 576.661
      vertex 27.221 85.5893 546.914
    endloop
  endfacet
  facet normal 0.277873 0.88243 0.379611
    outer loop
      vertex 30 82.1123 582.558
      vertex 28.4868 82.566 582.611
      vertex 30 82.0895 582.611
    endloop
  endfacet
  facet normal 0.27794 0.882741 0.378837
    outer loop
      vertex 28.4868 82.566 582.611
      vertex 30 82.1123 582.558
      vertex 28.4868 85.1195 576.661
    endloop
  endfacet
  facet normal 0.286091 0.881337 0.376029
    outer loop
      vertex 30 84.6283 576.661
      vertex 28.4868 85.1195 576.661
      vertex 30 82.1123 582.558
    endloop
  endfacet
  facet normal 0.247735 0.888808 0.385548
    outer loop
      vertex 25.4075 86.0329 576.661
      vertex 25.4075 83.4519 582.611
      vertex 26.9513 83.0216 582.611
    endloop
  endfacet
  facet normal 0.270666 0.884648 0.379655
    outer loop
      vertex 28.4868 85.1195 576.661
      vertex 26.9513 85.5893 576.661
      vertex 28.4868 82.566 582.611
    endloop
  endfacet
  facet normal 0.255096 0.887777 0.383117
    outer loop
      vertex 26.9513 85.5893 576.661
      vertex 25.4075 86.0329 576.661
      vertex 26.9513 83.0216 582.611
    endloop
  endfacet
  facet normal 0.262847 0.885869 0.382293
    outer loop
      vertex 26.9513 85.5893 576.661
      vertex 26.9513 83.0216 582.611
      vertex 28.4868 82.566 582.611
    endloop
  endfacet
  facet normal 0.232784 0.891535 0.388557
    outer loop
      vertex 25 84.2395 581.048
      vertex 25 83.5583 582.611
      vertex 25.4075 83.4519 582.611
    endloop
  endfacet
  facet normal 0.239557 0.890693 0.386366
    outer loop
      vertex 25.4075 86.0329 576.661
      vertex 25 84.2395 581.048
      vertex 25.4075 83.4519 582.611
    endloop
  endfacet
  facet normal 0.239762 0.890639 0.386363
    outer loop
      vertex 25 84.2395 581.048
      vertex 25.4075 86.0329 576.661
      vertex 25 86.1426 576.661
    endloop
  endfacet
  facet normal 0.20009 0.68486 0.700664
    outer loop
      vertex 30 76.1921 588.534
      vertex 28.4868 76.6076 588.56
      vertex 30 76.1655 588.56
    endloop
  endfacet
  facet normal 0.201811 0.691574 0.69354
    outer loop
      vertex 28.4868 76.6076 588.56
      vertex 30 76.1921 588.534
      vertex 26.9513 83.0216 582.611
    endloop
  endfacet
  facet normal 0.190334 0.691408 0.696942
    outer loop
      vertex 28.4868 76.6076 588.56
      vertex 25.4075 83.4519 582.611
      vertex 26.9513 77.0303 588.56
    endloop
  endfacet
  facet normal 0.205299 0.691915 0.692175
    outer loop
      vertex 26.9513 83.0216 582.611
      vertex 30 76.2188 588.507
      vertex 28.4868 82.566 582.611
    endloop
  endfacet
  facet normal 0.221156 0.693439 0.685734
    outer loop
      vertex 30 76.2188 588.507
      vertex 26.9513 83.0216 582.611
      vertex 30 76.1921 588.534
    endloop
  endfacet
  facet normal 0.167321 0.690814 0.703406
    outer loop
      vertex 25 78.3215 587.781
      vertex 25 77.5283 588.56
      vertex 25.4075 77.4296 588.56
    endloop
  endfacet
  facet normal 0.180549 0.691481 0.699468
    outer loop
      vertex 25 81.3339 584.81
      vertex 25.4075 83.4519 582.611
      vertex 25 83.5583 582.611
    endloop
  endfacet
  facet normal 0.180744 0.691437 0.699462
    outer loop
      vertex 25.4075 83.4519 582.611
      vertex 25 81.3339 584.81
      vertex 26.9513 77.0303 588.56
    endloop
  endfacet
  facet normal 0.178474 0.691156 0.700321
    outer loop
      vertex 25 79.1179 586.997
      vertex 26.9513 77.0303 588.56
      vertex 25 81.3339 584.81
    endloop
  endfacet
  facet normal 0.178802 0.691297 0.700099
    outer loop
      vertex 26.9513 77.0303 588.56
      vertex 25 79.1179 586.997
      vertex 25.4075 77.4296 588.56
    endloop
  endfacet
  facet normal 0.192792 0.691686 0.69599
    outer loop
      vertex 26.9513 83.0216 582.611
      vertex 25.4075 83.4519 582.611
      vertex 28.4868 76.6076 588.56
    endloop
  endfacet
  facet normal 0.213776 0.691725 0.689795
    outer loop
      vertex 30 79.1496 585.568
      vertex 28.4868 82.566 582.611
      vertex 30 76.2188 588.507
    endloop
  endfacet
  facet normal 0.217942 0.692108 0.688105
    outer loop
      vertex 30 82.0895 582.611
      vertex 28.4868 82.566 582.611
      vertex 30 79.1496 585.568
    endloop
  endfacet
  facet normal 0.170614 0.691251 0.702184
    outer loop
      vertex 25 79.1179 586.997
      vertex 25 78.3215 587.781
      vertex 25.4075 77.4296 588.56
    endloop
  endfacet
  facet normal 0 0 1
    outer loop
      vertex 28.4868 68.0956 594.51
      vertex 30 -67.7027 594.51
      vertex 30 67.7027 594.51
    endloop
  endfacet
  facet normal 0 0 1
    outer loop
      vertex 28.4868 68.0956 594.51
      vertex 28.4868 -68.0956 594.51
      vertex 30 -67.7027 594.51
    endloop
  endfacet
  facet normal 0 0 1
    outer loop
      vertex 26.9513 68.4714 594.51
      vertex 28.4868 -68.0956 594.51
      vertex 28.4868 68.0956 594.51
    endloop
  endfacet
  facet normal 0 0 1
    outer loop
      vertex 26.9513 68.4714 594.51
      vertex 26.9513 -68.4714 594.51
      vertex 28.4868 -68.0956 594.51
    endloop
  endfacet
  facet normal 0 0 1
    outer loop
      vertex 25.4075 68.8263 594.51
      vertex 26.9513 -68.4714 594.51
      vertex 26.9513 68.4714 594.51
    endloop
  endfacet
  facet normal 0 0 1
    outer loop
      vertex 25.4075 68.8263 594.51
      vertex 25.4075 -68.8263 594.51
      vertex 26.9513 -68.4714 594.51
    endloop
  endfacet
  facet normal 0 0 1
    outer loop
      vertex 25 68.914 594.51
      vertex 25.4075 -68.8263 594.51
      vertex 25.4075 68.8263 594.51
    endloop
  endfacet
  facet normal 0 0 1
    outer loop
      vertex 25.4075 -68.8263 594.51
      vertex 25 68.914 594.51
      vertex 25 -68.914 594.51
    endloop
  endfacet
  facet normal 0.146295 0.565614 0.81159
    outer loop
      vertex 26.9513 77.0303 588.56
      vertex 25.4075 77.4296 588.56
      vertex 28.4868 68.0956 594.51
    endloop
  endfacet
  facet normal 0.148718 0.572766 0.806115
    outer loop
      vertex 30 67.7407 594.483
      vertex 28.4868 68.0956 594.51
      vertex 30 67.7027 594.51
    endloop
  endfacet
  facet normal 0.147142 0.565644 0.811416
    outer loop
      vertex 28.4868 68.0956 594.51
      vertex 30 67.7407 594.483
      vertex 26.9513 77.0303 588.56
    endloop
  endfacet
  facet normal 0.164015 0.568058 0.80648
    outer loop
      vertex 30 73.3625 590.538
      vertex 28.4868 76.6076 588.56
      vertex 30 71.9726 591.517
    endloop
  endfacet
  facet normal 0.166111 0.568558 0.805697
    outer loop
      vertex 30 76.1655 588.56
      vertex 28.4868 76.6076 588.56
      vertex 30 73.3625 590.538
    endloop
  endfacet
  facet normal 0.138127 0.564379 0.813878
    outer loop
      vertex 28.4868 68.0956 594.51
      vertex 25.4075 77.4296 588.56
      vertex 26.9513 68.4714 594.51
    endloop
  endfacet
  facet normal 0.120997 0.562214 0.818093
    outer loop
      vertex 25 70.049 593.73
      vertex 25 68.914 594.51
      vertex 25.4075 68.8263 594.51
    endloop
  endfacet
  facet normal 0.136679 0.564304 0.814174
    outer loop
      vertex 25 74.3556 590.759
      vertex 25.4075 77.4296 588.56
      vertex 25 77.5283 588.56
    endloop
  endfacet
  facet normal 0.136611 0.564316 0.814177
    outer loop
      vertex 25.4075 77.4296 588.56
      vertex 25 74.3556 590.759
      vertex 26.9513 68.4714 594.51
    endloop
  endfacet
  facet normal 0.125941 0.563028 0.816786
    outer loop
      vertex 25 71.1849 592.947
      vertex 25 70.049 593.73
      vertex 25.4075 68.8263 594.51
    endloop
  endfacet
  facet normal 0.129448 0.563185 0.816129
    outer loop
      vertex 25 71.1849 592.947
      vertex 26.9513 68.4714 594.51
      vertex 25 74.3556 590.759
    endloop
  endfacet
  facet normal 0.129471 0.563195 0.816118
    outer loop
      vertex 26.9513 68.4714 594.51
      vertex 25 71.1849 592.947
      vertex 25.4075 68.8263 594.51
    endloop
  endfacet
  facet normal 0.155183 0.566808 0.809103
    outer loop
      vertex 30 70.5414 592.521
      vertex 26.9513 77.0303 588.56
      vertex 30 67.7407 594.483
    endloop
  endfacet
  facet normal 0.156076 0.566961 0.808823
    outer loop
      vertex 26.9513 77.0303 588.56
      vertex 30 71.9726 591.517
      vertex 28.4868 76.6076 588.56
    endloop
  endfacet
  facet normal 0.156743 0.567193 0.808532
    outer loop
      vertex 30 71.9726 591.517
      vertex 26.9513 77.0303 588.56
      vertex 30 70.5414 592.521
    endloop
  endfacet
  facet normal 0.157291 -0.987398 0.0174353
    outer loop
      vertex 26.7833 -87.3365 480
      vertex 25 -87.5435 484.365
      vertex 25.9057 -87.4763 480
    endloop
  endfacet
  facet normal 0.157269 -0.987402 0.0174264
    outer loop
      vertex 25 -87.5435 484.365
      vertex 26.7833 -87.3365 480
      vertex 25 -87.4824 487.827
    endloop
  endfacet
  facet normal 0.264765 -0.963055 0.0492324
    outer loop
      vertex 30 -85.4103 518.925
      vertex 30 -85.3989 519.148
      vertex 28.5696 -85.5893 523.116
    endloop
  endfacet
  facet normal 0.254726 -0.965938 0.045603
    outer loop
      vertex 30 -85.6577 513.933
      vertex 30 -85.634 514.435
      vertex 26.9332 -86.0329 523.116
    endloop
  endfacet
  facet normal 0.183021 -0.982824 0.0236515
    outer loop
      vertex 25 -87.2688 498.269
      vertex 30 -86.6961 483.376
      vertex 25 -87.1337 503.883
    endloop
  endfacet
  facet normal 0.183034 -0.982822 0.023656
    outer loop
      vertex 29.6776 -86.8374 480
      vertex 30 -86.6961 483.376
      vertex 25 -87.2688 498.269
    endloop
  endfacet
  facet normal 0.183206 -0.98279 0.0236382
    outer loop
      vertex 30 -86.6961 483.376
      vertex 29.6776 -86.8374 480
      vertex 30 -86.7773 480
    endloop
  endfacet
  facet normal 0.151357 -0.988347 0.0161894
    outer loop
      vertex 25.9057 -87.4763 480
      vertex 25 -87.5435 484.365
      vertex 25 -87.615 480
    endloop
  endfacet
  facet normal 0.195773 -0.980277 0.0270124
    outer loop
      vertex 25 -87.0973 505.348
      vertex 30 -86.5495 488.99
      vertex 25 -87.0628 506.6
    endloop
  endfacet
  facet normal 0.195788 -0.980274 0.0270172
    outer loop
      vertex 30 -86.5495 488.99
      vertex 25 -87.0973 505.348
      vertex 30 -86.6208 486.403
    endloop
  endfacet
  facet normal 0.245779 -0.968393 0.0425147
    outer loop
      vertex 25.2886 -86.4503 523.116
      vertex 30 -85.6577 513.933
      vertex 26.9332 -86.0329 523.116
    endloop
  endfacet
  facet normal 0.245776 -0.968394 0.0425133
    outer loop
      vertex 30 -85.6577 513.933
      vertex 25.2886 -86.4503 523.116
      vertex 30 -85.8524 509.498
    endloop
  endfacet
  facet normal 0.225143 -0.973672 0.0356898
    outer loop
      vertex 25 -86.6931 518.56
      vertex 30 -86.1011 503.169
      vertex 25 -86.6828 518.841
    endloop
  endfacet
  facet normal 0.224946 -0.97372 0.0356239
    outer loop
      vertex 30 -86.1011 503.169
      vertex 25 -86.6931 518.56
      vertex 30 -86.1491 501.857
    endloop
  endfacet
  facet normal 0.198805 -0.979642 0.0278937
    outer loop
      vertex 25 -87.0628 506.6
      vertex 30 -86.4185 493.592
      vertex 25 -86.9093 511.991
    endloop
  endfacet
  facet normal 0.198787 -0.979646 0.0278865
    outer loop
      vertex 30 -86.4185 493.592
      vertex 25 -87.0628 506.6
      vertex 30 -86.5495 488.99
    endloop
  endfacet
  facet normal 0.276873 -0.959398 0.0538118
    outer loop
      vertex 30 -85.3879 519.347
      vertex 30 -85.1765 523.116
      vertex 28.5696 -85.5893 523.116
    endloop
  endfacet
  facet normal 0.186077 -0.982232 0.0244049
    outer loop
      vertex 25 -87.1337 503.883
      vertex 30 -86.6208 486.403
      vertex 25 -87.0973 505.348
    endloop
  endfacet
  facet normal 0.186175 -0.982213 0.0244336
    outer loop
      vertex 30 -86.6208 486.403
      vertex 25 -87.1337 503.883
      vertex 30 -86.6961 483.376
    endloop
  endfacet
  facet normal 0.205461 -0.978213 0.0297325
    outer loop
      vertex 25 -86.9093 511.991
      vertex 30 -86.3571 495.607
      vertex 25 -86.8862 512.751
    endloop
  endfacet
  facet normal 0.205697 -0.978162 0.029806
    outer loop
      vertex 30 -86.3571 495.607
      vertex 25 -86.9093 511.991
      vertex 30 -86.4185 493.592
    endloop
  endfacet
  facet normal 0.166872 -0.985783 0.0196444
    outer loop
      vertex 27.6576 -87.1885 480
      vertex 25 -87.4824 487.827
      vertex 26.7833 -87.3365 480
    endloop
  endfacet
  facet normal 0.1669 -0.985778 0.019654
    outer loop
      vertex 25 -87.4824 487.827
      vertex 27.6576 -87.1885 480
      vertex 25 -87.4249 490.711
    endloop
  endfacet
  facet normal 0.215211 -0.976022 0.0326348
    outer loop
      vertex 25 -86.7039 518.237
      vertex 30 -86.1491 501.857
      vertex 25 -86.6931 518.56
    endloop
  endfacet
  facet normal 0.215301 -0.976001 0.032663
    outer loop
      vertex 30 -86.1491 501.857
      vertex 25 -86.7039 518.237
      vertex 30 -86.1995 500.351
    endloop
  endfacet
  facet normal 0.214516 -0.976182 0.0324386
    outer loop
      vertex 25 -86.8862 512.751
      vertex 30 -86.1995 500.351
      vertex 25 -86.7039 518.237
    endloop
  endfacet
  facet normal 0.214495 -0.976186 0.0324298
    outer loop
      vertex 30 -86.1995 500.351
      vertex 25 -86.8862 512.751
      vertex 30 -86.3571 495.607
    endloop
  endfacet
  facet normal 0.167245 -0.985718 0.0197411
    outer loop
      vertex 28.8069 -86.9935 480
      vertex 25 -87.4249 490.711
      vertex 27.6576 -87.1885 480
    endloop
  endfacet
  facet normal 0.167162 -0.985732 0.019711
    outer loop
      vertex 25 -87.4249 490.711
      vertex 28.8069 -86.9935 480
      vertex 25 -87.3163 496.142
    endloop
  endfacet
  facet normal 0.176425 -0.98407 0.0219288
    outer loop
      vertex 29.6776 -86.8374 480
      vertex 25 -87.3163 496.142
      vertex 28.8069 -86.9935 480
    endloop
  endfacet
  facet normal 0.176583 -0.98404 0.0219755
    outer loop
      vertex 25 -87.3163 496.142
      vertex 29.6776 -86.8374 480
      vertex 25 -87.2688 498.269
    endloop
  endfacet
  facet normal 0.274986 -0.959983 0.0530644
    outer loop
      vertex 30 -85.3989 519.148
      vertex 30 -85.3879 519.347
      vertex 28.5696 -85.5893 523.116
    endloop
  endfacet
  facet normal 0.230457 -0.972366 0.0373252
    outer loop
      vertex 25 -86.6828 518.841
      vertex 25.2886 -86.4503 523.116
      vertex 25 -86.5187 523.116
    endloop
  endfacet
  facet normal 0.230193 -0.972428 0.0373464
    outer loop
      vertex 25 -86.6828 518.841
      vertex 30 -85.9245 507.767
      vertex 25.2886 -86.4503 523.116
    endloop
  endfacet
  facet normal 0.230199 -0.972427 0.037349
    outer loop
      vertex 30 -85.9245 507.767
      vertex 25 -86.6828 518.841
      vertex 30 -86.1011 503.169
    endloop
  endfacet
  facet normal 0.234955 -0.971229 0.0388492
    outer loop
      vertex 30 -85.9245 507.767
      vertex 30 -85.8877 508.687
      vertex 25.2886 -86.4503 523.116
    endloop
  endfacet
  facet normal 0.261338 -0.964052 0.0480202
    outer loop
      vertex 26.9332 -86.0329 523.116
      vertex 30 -85.4103 518.925
      vertex 28.5696 -85.5893 523.116
    endloop
  endfacet
  facet normal 0.261351 -0.964048 0.0480306
    outer loop
      vertex 30 -85.4103 518.925
      vertex 26.9332 -86.0329 523.116
      vertex 30 -85.634 514.435
    endloop
  endfacet
  facet normal 0.244795 -0.968658 0.0421623
    outer loop
      vertex 30 -85.8877 508.687
      vertex 30 -85.8524 509.498
      vertex 25.2886 -86.4503 523.116
    endloop
  endfacet
  facet normal 0.303082 -0.952473 0.0306018
    outer loop
      vertex 30 -84.9501 530.947
      vertex 30 -84.8194 535.015
      vertex 29.0569 -85.1195 535.015
    endloop
  endfacet
  facet normal 0.261574 -0.964924 0.0223588
    outer loop
      vertex 26.9332 -86.0329 523.116
      vertex 28.5696 -85.5893 523.116
      vertex 25.9161 -86.0329 535.015
    endloop
  endfacet
  facet normal 0.255046 -0.966684 0.021767
    outer loop
      vertex 25 -86.3433 531.964
      vertex 25.9161 -86.0329 535.015
      vertex 25 -86.2746 535.015
    endloop
  endfacet
  facet normal 0.254964 -0.966705 0.0217938
    outer loop
      vertex 25.9161 -86.0329 535.015
      vertex 25 -86.3433 531.964
      vertex 26.9332 -86.0329 523.116
    endloop
  endfacet
  facet normal 0.239025 -0.970824 0.0191832
    outer loop
      vertex 25.2886 -86.4503 523.116
      vertex 25 -86.4503 526.712
      vertex 25 -86.4947 524.465
    endloop
  endfacet
  facet normal 0.245953 -0.969081 0.0197392
    outer loop
      vertex 26.9332 -86.0329 523.116
      vertex 25 -86.4503 526.712
      vertex 25.2886 -86.4503 523.116
    endloop
  endfacet
  facet normal 0.24596 -0.969079 0.0197432
    outer loop
      vertex 25 -86.4503 526.712
      vertex 26.9332 -86.0329 523.116
      vertex 25 -86.3433 531.964
    endloop
  endfacet
  facet normal 0.230583 -0.972899 0.0173088
    outer loop
      vertex 25.2886 -86.4503 523.116
      vertex 25 -86.4947 524.465
      vertex 25 -86.5187 523.116
    endloop
  endfacet
  facet normal 0.277195 -0.960485 0.0251337
    outer loop
      vertex 28.5696 -85.5893 523.116
      vertex 30 -85.1538 523.983
      vertex 27.4907 -85.5893 535.015
    endloop
  endfacet
  facet normal 0.277187 -0.960487 0.0251477
    outer loop
      vertex 30 -85.1538 523.983
      vertex 28.5696 -85.5893 523.116
      vertex 30 -85.1765 523.116
    endloop
  endfacet
  facet normal 0.271085 -0.962242 0.0245797
    outer loop
      vertex 28.5696 -85.5893 523.116
      vertex 27.4907 -85.5893 535.015
      vertex 25.9161 -86.0329 535.015
    endloop
  endfacet
  facet normal 0.29266 -0.955805 0.0280467
    outer loop
      vertex 30 -85.1195 525.174
      vertex 30 -84.9501 530.947
      vertex 29.0569 -85.1195 535.015
    endloop
  endfacet
  facet normal 0.287205 -0.957474 0.027524
    outer loop
      vertex 27.4907 -85.5893 535.015
      vertex 30 -85.1195 525.174
      vertex 29.0569 -85.1195 535.015
    endloop
  endfacet
  facet normal 0.287387 -0.957418 0.027573
    outer loop
      vertex 30 -85.1195 525.174
      vertex 27.4907 -85.5893 535.015
      vertex 30 -85.1538 523.983
    endloop
  endfacet
  facet normal 0.287308 -0.957816 0.00651206
    outer loop
      vertex 27.4907 -85.5893 535.015
      vertex 29.0569 -85.1195 535.015
      vertex 27.221 -85.5893 546.914
    endloop
  endfacet
  facet normal 0.27364 -0.961812 0.00620227
    outer loop
      vertex 27.4907 -85.5893 535.015
      vertex 27.221 -85.5893 546.914
      vertex 25.6618 -86.0329 546.914
    endloop
  endfacet
  facet normal 0.289904 -0.95703 0.00694367
    outer loop
      vertex 29.0569 -85.1195 535.015
      vertex 28.7719 -85.1195 546.914
      vertex 27.221 -85.5893 546.914
    endloop
  endfacet
  facet normal 0.303188 -0.952903 0.00726183
    outer loop
      vertex 29.0569 -85.1195 535.015
      vertex 30 -84.7892 538.982
      vertex 28.7719 -85.1195 546.914
    endloop
  endfacet
  facet normal 0.303217 -0.952894 0.0072542
    outer loop
      vertex 30 -84.7892 538.982
      vertex 29.0569 -85.1195 535.015
      vertex 30 -84.8194 535.015
    endloop
  endfacet
  facet normal 0.305967 -0.952011 0.00772939
    outer loop
      vertex 30 -84.7892 538.982
      vertex 30 -84.7248 546.914
      vertex 28.7719 -85.1195 546.914
    endloop
  endfacet
  facet normal 0.271162 -0.962516 0.00579516
    outer loop
      vertex 25.9161 -86.0329 535.015
      vertex 27.4907 -85.5893 535.015
      vertex 25.6618 -86.0329 546.914
    endloop
  endfacet
  facet normal 0.257413 -0.966286 0.00550623
    outer loop
      vertex 25 -86.2429 541
      vertex 25.6618 -86.0329 546.914
      vertex 25 -86.2092 546.914
    endloop
  endfacet
  facet normal 0.257448 -0.966277 0.00550206
    outer loop
      vertex 25.6618 -86.0329 546.914
      vertex 25 -86.2429 541
      vertex 25.9161 -86.0329 535.015
    endloop
  endfacet
  facet normal 0.255103 -0.9669 0.00512126
    outer loop
      vertex 25.9161 -86.0329 535.015
      vertex 25 -86.2429 541
      vertex 25 -86.2746 535.015
    endloop
  endfacet
  facet normal 0.276167 -0.961106 0.00250386
    outer loop
      vertex 27.221 -85.5893 546.914
      vertex 26.9513 -85.5893 576.661
      vertex 25.4075 -86.0329 576.661
    endloop
  endfacet
  facet normal 0.29257 -0.95624 0.00280404
    outer loop
      vertex 28.7719 -85.1195 546.914
      vertex 28.4868 -85.1195 576.661
      vertex 26.9513 -85.5893 576.661
    endloop
  endfacet
  facet normal 0.257417 -0.966298 0.00206519
    outer loop
      vertex 25.6618 -86.0329 546.914
      vertex 25 -86.1859 557.816
      vertex 25 -86.2092 546.914
    endloop
  endfacet
  facet normal 0.308749 -0.951138 0.00311963
    outer loop
      vertex 30 -84.7091 552.026
      vertex 30 -84.6283 576.661
      vertex 28.4868 -85.1195 576.661
    endloop
  endfacet
  facet normal 0.305944 -0.952045 0.00293222
    outer loop
      vertex 28.7719 -85.1195 546.914
      vertex 30 -84.7091 552.026
      vertex 28.4868 -85.1195 576.661
    endloop
  endfacet
  facet normal 0.305975 -0.952035 0.00292389
    outer loop
      vertex 30 -84.7091 552.026
      vertex 28.7719 -85.1195 546.914
      vertex 30 -84.7248 546.914
    endloop
  endfacet
  facet normal 0.28991 -0.95705 0.00262846
    outer loop
      vertex 27.221 -85.5893 546.914
      vertex 28.7719 -85.1195 546.914
      vertex 26.9513 -85.5893 576.661
    endloop
  endfacet
  facet normal 0.259947 -0.96562 0.0022187
    outer loop
      vertex 25 -86.1859 557.816
      vertex 25.4075 -86.0329 576.661
      vertex 25 -86.1426 576.661
    endloop
  endfacet
  facet normal 0.259838 -0.96565 0.0022213
    outer loop
      vertex 25.4075 -86.0329 576.661
      vertex 25 -86.1859 557.816
      vertex 25.6618 -86.0329 546.914
    endloop
  endfacet
  facet normal 0.273645 -0.961828 0.00233932
    outer loop
      vertex 25.6618 -86.0329 546.914
      vertex 27.221 -85.5893 546.914
      vertex 25.4075 -86.0329 576.661
    endloop
  endfacet
  facet normal 0.277873 -0.88243 0.379611
    outer loop
      vertex 28.4868 -82.566 582.611
      vertex 30 -82.1123 582.558
      vertex 30 -82.0895 582.611
    endloop
  endfacet
  facet normal 0.27794 -0.882741 0.378837
    outer loop
      vertex 30 -82.1123 582.558
      vertex 28.4868 -82.566 582.611
      vertex 28.4868 -85.1195 576.661
    endloop
  endfacet
  facet normal 0.286091 -0.881337 0.376029
    outer loop
      vertex 30 -84.6283 576.661
      vertex 30 -82.1123 582.558
      vertex 28.4868 -85.1195 576.661
    endloop
  endfacet
  facet normal 0.247735 -0.888808 0.385548
    outer loop
      vertex 26.9513 -83.0216 582.611
      vertex 25.4075 -83.4519 582.611
      vertex 25.4075 -86.0329 576.661
    endloop
  endfacet
  facet normal 0.270666 -0.884648 0.379655
    outer loop
      vertex 28.4868 -85.1195 576.661
      vertex 28.4868 -82.566 582.611
      vertex 26.9513 -85.5893 576.661
    endloop
  endfacet
  facet normal 0.255096 -0.887777 0.383117
    outer loop
      vertex 26.9513 -85.5893 576.661
      vertex 26.9513 -83.0216 582.611
      vertex 25.4075 -86.0329 576.661
    endloop
  endfacet
  facet normal 0.262847 -0.885869 0.382293
    outer loop
      vertex 28.4868 -82.566 582.611
      vertex 26.9513 -83.0216 582.611
      vertex 26.9513 -85.5893 576.661
    endloop
  endfacet
  facet normal 0.232784 -0.891535 0.388557
    outer loop
      vertex 25.4075 -83.4519 582.611
      vertex 25 -83.5583 582.611
      vertex 25 -84.2395 581.048
    endloop
  endfacet
  facet normal 0.239762 -0.890639 0.386363
    outer loop
      vertex 25.4075 -86.0329 576.661
      vertex 25 -84.2395 581.048
      vertex 25 -86.1426 576.661
    endloop
  endfacet
  facet normal 0.239557 -0.890693 0.386366
    outer loop
      vertex 25 -84.2395 581.048
      vertex 25.4075 -86.0329 576.661
      vertex 25.4075 -83.4519 582.611
    endloop
  endfacet
  facet normal 0.20009 -0.68486 0.700664
    outer loop
      vertex 28.4868 -76.6076 588.56
      vertex 30 -76.1921 588.534
      vertex 30 -76.1655 588.56
    endloop
  endfacet
  facet normal 0.201811 -0.691574 0.69354
    outer loop
      vertex 30 -76.1921 588.534
      vertex 28.4868 -76.6076 588.56
      vertex 26.9513 -83.0216 582.611
    endloop
  endfacet
  facet normal 0.190334 -0.691408 0.696942
    outer loop
      vertex 28.4868 -76.6076 588.56
      vertex 26.9513 -77.0303 588.56
      vertex 25.4075 -83.4519 582.611
    endloop
  endfacet
  facet normal 0.221156 -0.693439 0.685734
    outer loop
      vertex 26.9513 -83.0216 582.611
      vertex 30 -76.2188 588.507
      vertex 30 -76.1921 588.534
    endloop
  endfacet
  facet normal 0.205299 -0.691915 0.692175
    outer loop
      vertex 30 -76.2188 588.507
      vertex 26.9513 -83.0216 582.611
      vertex 28.4868 -82.566 582.611
    endloop
  endfacet
  facet normal 0.167321 -0.690814 0.703406
    outer loop
      vertex 25.4075 -77.4296 588.56
      vertex 25 -77.5283 588.56
      vertex 25 -78.3215 587.781
    endloop
  endfacet
  facet normal 0.180744 -0.691437 0.699462
    outer loop
      vertex 25 -81.3339 584.81
      vertex 25.4075 -83.4519 582.611
      vertex 26.9513 -77.0303 588.56
    endloop
  endfacet
  facet normal 0.180549 -0.691481 0.699468
    outer loop
      vertex 25.4075 -83.4519 582.611
      vertex 25 -81.3339 584.81
      vertex 25 -83.5583 582.611
    endloop
  endfacet
  facet normal 0.178802 -0.691297 0.700099
    outer loop
      vertex 25 -79.1179 586.997
      vertex 26.9513 -77.0303 588.56
      vertex 25.4075 -77.4296 588.56
    endloop
  endfacet
  facet normal 0.178474 -0.691156 0.700321
    outer loop
      vertex 26.9513 -77.0303 588.56
      vertex 25 -79.1179 586.997
      vertex 25 -81.3339 584.81
    endloop
  endfacet
  facet normal 0.192792 -0.691686 0.69599
    outer loop
      vertex 26.9513 -83.0216 582.611
      vertex 28.4868 -76.6076 588.56
      vertex 25.4075 -83.4519 582.611
    endloop
  endfacet
  facet normal 0.213776 -0.691725 0.689795
    outer loop
      vertex 30 -79.1496 585.568
      vertex 30 -76.2188 588.507
      vertex 28.4868 -82.566 582.611
    endloop
  endfacet
  facet normal 0.217942 -0.692108 0.688105
    outer loop
      vertex 30 -82.0895 582.611
      vertex 30 -79.1496 585.568
      vertex 28.4868 -82.566 582.611
    endloop
  endfacet
  facet normal 0.170614 -0.691251 0.702184
    outer loop
      vertex 25.4075 -77.4296 588.56
      vertex 25 -78.3215 587.781
      vertex 25 -79.1179 586.997
    endloop
  endfacet
  facet normal 0.146295 -0.565614 0.81159
    outer loop
      vertex 26.9513 -77.0303 588.56
      vertex 28.4868 -68.0956 594.51
      vertex 25.4075 -77.4296 588.56
    endloop
  endfacet
  facet normal 0.148718 -0.572766 0.806115
    outer loop
      vertex 28.4868 -68.0956 594.51
      vertex 30 -67.7407 594.483
      vertex 30 -67.7027 594.51
    endloop
  endfacet
  facet normal 0.147142 -0.565644 0.811416
    outer loop
      vertex 30 -67.7407 594.483
      vertex 28.4868 -68.0956 594.51
      vertex 26.9513 -77.0303 588.56
    endloop
  endfacet
  facet normal 0.164015 -0.568058 0.80648
    outer loop
      vertex 30 -73.3625 590.538
      vertex 30 -71.9726 591.517
      vertex 28.4868 -76.6076 588.56
    endloop
  endfacet
  facet normal 0.166111 -0.568558 0.805697
    outer loop
      vertex 30 -76.1655 588.56
      vertex 30 -73.3625 590.538
      vertex 28.4868 -76.6076 588.56
    endloop
  endfacet
  facet normal 0.138127 -0.564379 0.813878
    outer loop
      vertex 28.4868 -68.0956 594.51
      vertex 26.9513 -68.4714 594.51
      vertex 25.4075 -77.4296 588.56
    endloop
  endfacet
  facet normal 0.120997 -0.562214 0.818093
    outer loop
      vertex 25.4075 -68.8263 594.51
      vertex 25 -68.914 594.51
      vertex 25 -70.049 593.73
    endloop
  endfacet
  facet normal 0.136611 -0.564316 0.814177
    outer loop
      vertex 25 -74.3556 590.759
      vertex 25.4075 -77.4296 588.56
      vertex 26.9513 -68.4714 594.51
    endloop
  endfacet
  facet normal 0.136679 -0.564304 0.814174
    outer loop
      vertex 25.4075 -77.4296 588.56
      vertex 25 -74.3556 590.759
      vertex 25 -77.5283 588.56
    endloop
  endfacet
  facet normal 0.125941 -0.563028 0.816786
    outer loop
      vertex 25.4075 -68.8263 594.51
      vertex 25 -70.049 593.73
      vertex 25 -71.1849 592.947
    endloop
  endfacet
  facet normal 0.129471 -0.563195 0.816118
    outer loop
      vertex 25 -71.1849 592.947
      vertex 26.9513 -68.4714 594.51
      vertex 25.4075 -68.8263 594.51
    endloop
  endfacet
  facet normal 0.129448 -0.563185 0.816129
    outer loop
      vertex 26.9513 -68.4714 594.51
      vertex 25 -71.1849 592.947
      vertex 25 -74.3556 590.759
    endloop
  endfacet
  facet normal 0.155183 -0.566808 0.809103
    outer loop
      vertex 30 -70.5414 592.521
      vertex 30 -67.7407 594.483
      vertex 26.9513 -77.0303 588.56
    endloop
  endfacet
  facet normal 0.156743 -0.567193 0.808532
    outer loop
      vertex 26.9513 -77.0303 588.56
      vertex 30 -71.9726 591.517
      vertex 30 -70.5414 592.521
    endloop
  endfacet
  facet normal 0.156076 -0.566961 0.808823
    outer loop
      vertex 30 -71.9726 591.517
      vertex 26.9513 -77.0303 588.56
      vertex 28.4868 -76.6076 588.56
    endloop
  endfacet
  facet normal 1 0 0
    outer loop
      vertex 30 -86.6961 483.376
      vertex 30 86.6961 483.376
      vertex 30 86.6208 486.403
    endloop
  endfacet
  facet normal 1 0 0
    outer loop
      vertex 30 -86.6208 486.403
      vertex 30 86.6208 486.403
      vertex 30 86.5495 488.99
    endloop
  endfacet
  facet normal 1 0 0
    outer loop
      vertex 30 -86.5495 488.99
      vertex 30 86.5495 488.99
      vertex 30 86.4185 493.592
    endloop
  endfacet
  facet normal 1 0 0
    outer loop
      vertex 30 -86.4185 493.592
      vertex 30 86.4185 493.592
      vertex 30 86.3571 495.607
    endloop
  endfacet
  facet normal 1 0 0
    outer loop
      vertex 30 -86.3571 495.607
      vertex 30 86.3571 495.607
      vertex 30 86.1995 500.351
    endloop
  endfacet
  facet normal 1 0 0
    outer loop
      vertex 30 -86.1995 500.351
      vertex 30 86.1995 500.351
      vertex 30 86.1491 501.857
    endloop
  endfacet
  facet normal 1 0 0
    outer loop
      vertex 30 -86.1491 501.857
      vertex 30 86.1491 501.857
      vertex 30 86.1011 503.169
    endloop
  endfacet
  facet normal 1 0 0
    outer loop
      vertex 30 -86.1011 503.169
      vertex 30 86.1011 503.169
      vertex 30 85.9245 507.767
    endloop
  endfacet
  facet normal 1 0 0
    outer loop
      vertex 30 -85.9245 507.767
      vertex 30 85.9245 507.767
      vertex 30 85.8877 508.687
    endloop
  endfacet
  facet normal 1 0 0
    outer loop
      vertex 30 -85.9245 507.767
      vertex 30 85.8877 508.687
      vertex 30 85.8524 509.498
    endloop
  endfacet
  facet normal 1 0 0
    outer loop
      vertex 30 -85.8524 509.498
      vertex 30 85.8524 509.498
      vertex 30 85.6577 513.933
    endloop
  endfacet
  facet normal 1 0 0
    outer loop
      vertex 30 -85.6577 513.933
      vertex 30 85.6577 513.933
      vertex 30 85.634 514.435
    endloop
  endfacet
  facet normal 1 0 0
    outer loop
      vertex 30 -85.634 514.435
      vertex 30 85.634 514.435
      vertex 30 85.4103 518.925
    endloop
  endfacet
  facet normal 1 0 0
    outer loop
      vertex 30 -85.4103 518.925
      vertex 30 85.4103 518.925
      vertex 30 85.3989 519.148
    endloop
  endfacet
  facet normal 1 0 0
    outer loop
      vertex 30 -85.4103 518.925
      vertex 30 85.3989 519.148
      vertex 30 85.3879 519.347
    endloop
  endfacet
  facet normal 1 0 0
    outer loop
      vertex 30 -85.3879 519.347
      vertex 30 85.3879 519.347
      vertex 30 85.1765 523.116
    endloop
  endfacet
  facet normal 1 0 0
    outer loop
      vertex 30 85.1195 525.174
      vertex 30 85.1765 523.116
      vertex 30 85.1538 523.983
    endloop
  endfacet
  facet normal 1 0 0
    outer loop
      vertex 30 -85.1195 525.174
      vertex 30 85.1195 525.174
      vertex 30 84.9501 530.947
    endloop
  endfacet
  facet normal 1 0 0
    outer loop
      vertex 30 -84.9501 530.947
      vertex 30 84.9501 530.947
      vertex 30 84.8194 535.015
    endloop
  endfacet
  facet normal 1 0 0
    outer loop
      vertex 30 -84.7892 538.982
      vertex 30 84.7892 538.982
      vertex 30 84.7248 546.914
    endloop
  endfacet
  facet normal 1 0 0
    outer loop
      vertex 30 73.3625 590.538
      vertex 30 84.7091 552.026
      vertex 30 84.6283 576.661
    endloop
  endfacet
  facet normal 1 0 0
    outer loop
      vertex 30 79.1496 585.568
      vertex 30 84.6283 576.661
      vertex 30 82.1123 582.558
    endloop
  endfacet
  facet normal 1 0 0
    outer loop
      vertex 30 73.3625 590.538
      vertex 30 84.6283 576.661
      vertex 30 79.1496 585.568
    endloop
  endfacet
  facet normal 1 0 0
    outer loop
      vertex 30 71.9726 591.517
      vertex 30 84.7091 552.026
      vertex 30 73.3625 590.538
    endloop
  endfacet
  facet normal 1 0 0
    outer loop
      vertex 30 70.5414 592.521
      vertex 30 84.7091 552.026
      vertex 30 71.9726 591.517
    endloop
  endfacet
  facet normal 1 0 0
    outer loop
      vertex 30 79.1496 585.568
      vertex 30 82.1123 582.558
      vertex 30 82.0895 582.611
    endloop
  endfacet
  facet normal 1 0 0
    outer loop
      vertex 30 67.7027 594.51
      vertex 30 84.7091 552.026
      vertex 30 67.7407 594.483
    endloop
  endfacet
  facet normal 1 0 0
    outer loop
      vertex 30 73.3625 590.538
      vertex 30 79.1496 585.568
      vertex 30 76.2188 588.507
    endloop
  endfacet
  facet normal 1 0 0
    outer loop
      vertex 30 73.3625 590.538
      vertex 30 76.2188 588.507
      vertex 30 76.1921 588.534
    endloop
  endfacet
  facet normal 1 0 0
    outer loop
      vertex 30 73.3625 590.538
      vertex 30 76.1921 588.534
      vertex 30 76.1655 588.56
    endloop
  endfacet
  facet normal 1 0 0
    outer loop
      vertex 30 67.7407 594.483
      vertex 30 84.7091 552.026
      vertex 30 70.5414 592.521
    endloop
  endfacet
  facet normal 1 0 0
    outer loop
      vertex 30 84.7091 552.026
      vertex 30 67.7027 594.51
      vertex 30 84.7248 546.914
    endloop
  endfacet
  facet normal 1 0 0
    outer loop
      vertex 30 -84.7248 546.914
      vertex 30 84.7248 546.914
      vertex 30 67.7027 594.51
    endloop
  endfacet
  facet normal 1 0 0
    outer loop
      vertex 30 84.7892 538.982
      vertex 30 -84.7892 538.982
      vertex 30 84.8194 535.015
    endloop
  endfacet
  facet normal 1 0 0
    outer loop
      vertex 30 -84.8194 535.015
      vertex 30 84.8194 535.015
      vertex 30 -84.7892 538.982
    endloop
  endfacet
  facet normal 1 0 0
    outer loop
      vertex 30 -84.7248 546.914
      vertex 30 67.7027 594.51
      vertex 30 -67.7027 594.51
    endloop
  endfacet
  facet normal 1 0 0
    outer loop
      vertex 30 -84.7091 552.026
      vertex 30 -67.7027 594.51
      vertex 30 -67.7407 594.483
    endloop
  endfacet
  facet normal 1 0 0
    outer loop
      vertex 30 -84.7091 552.026
      vertex 30 -67.7407 594.483
      vertex 30 -70.5414 592.521
    endloop
  endfacet
  facet normal 1 0 0
    outer loop
      vertex 30 -84.7091 552.026
      vertex 30 -70.5414 592.521
      vertex 30 -71.9726 591.517
    endloop
  endfacet
  facet normal 1 0 0
    outer loop
      vertex 30 -84.7091 552.026
      vertex 30 -71.9726 591.517
      vertex 30 -73.3625 590.538
    endloop
  endfacet
  facet normal 1 0 0
    outer loop
      vertex 30 -76.1921 588.534
      vertex 30 -73.3625 590.538
      vertex 30 -76.1655 588.56
    endloop
  endfacet
  facet normal 1 0 0
    outer loop
      vertex 30 -76.2188 588.507
      vertex 30 -73.3625 590.538
      vertex 30 -76.1921 588.534
    endloop
  endfacet
  facet normal 1 0 0
    outer loop
      vertex 30 -79.1496 585.568
      vertex 30 -73.3625 590.538
      vertex 30 -76.2188 588.507
    endloop
  endfacet
  facet normal 1 0 0
    outer loop
      vertex 30 -84.6283 576.661
      vertex 30 -73.3625 590.538
      vertex 30 -79.1496 585.568
    endloop
  endfacet
  facet normal 1 0 0
    outer loop
      vertex 30 -82.1123 582.558
      vertex 30 -79.1496 585.568
      vertex 30 -82.0895 582.611
    endloop
  endfacet
  facet normal 1 0 0
    outer loop
      vertex 30 -84.6283 576.661
      vertex 30 -79.1496 585.568
      vertex 30 -82.1123 582.558
    endloop
  endfacet
  facet normal 1 0 0
    outer loop
      vertex 30 -73.3625 590.538
      vertex 30 -84.6283 576.661
      vertex 30 -84.7091 552.026
    endloop
  endfacet
  facet normal 1 0 0
    outer loop
      vertex 30 -67.7027 594.51
      vertex 30 -84.7091 552.026
      vertex 30 -84.7248 546.914
    endloop
  endfacet
  facet normal 1 0 0
    outer loop
      vertex 30 84.7248 546.914
      vertex 30 -84.7248 546.914
      vertex 30 -84.7892 538.982
    endloop
  endfacet
  facet normal 1 0 0
    outer loop
      vertex 30 -84.9501 530.947
      vertex 30 84.8194 535.015
      vertex 30 -84.8194 535.015
    endloop
  endfacet
  facet normal 1 0 0
    outer loop
      vertex 30 -85.1195 525.174
      vertex 30 84.9501 530.947
      vertex 30 -84.9501 530.947
    endloop
  endfacet
  facet normal 1 0 0
    outer loop
      vertex 30 85.1195 525.174
      vertex 30 -85.1195 525.174
      vertex 30 85.1765 523.116
    endloop
  endfacet
  facet normal 1 -0 0
    outer loop
      vertex 30 -85.1538 523.983
      vertex 30 85.1765 523.116
      vertex 30 -85.1195 525.174
    endloop
  endfacet
  facet normal 1 0 0
    outer loop
      vertex 30 -85.1765 523.116
      vertex 30 85.1765 523.116
      vertex 30 -85.1538 523.983
    endloop
  endfacet
  facet normal 1 0 0
    outer loop
      vertex 30 -85.3879 519.347
      vertex 30 85.1765 523.116
      vertex 30 -85.1765 523.116
    endloop
  endfacet
  facet normal 1 0 0
    outer loop
      vertex 30 85.3879 519.347
      vertex 30 -85.3879 519.347
      vertex 30 -85.3989 519.148
    endloop
  endfacet
  facet normal 1 0 0
    outer loop
      vertex 30 85.3879 519.347
      vertex 30 -85.3989 519.148
      vertex 30 -85.4103 518.925
    endloop
  endfacet
  facet normal 1 0 0
    outer loop
      vertex 30 85.4103 518.925
      vertex 30 -85.4103 518.925
      vertex 30 -85.634 514.435
    endloop
  endfacet
  facet normal 1 0 0
    outer loop
      vertex 30 85.634 514.435
      vertex 30 -85.634 514.435
      vertex 30 -85.6577 513.933
    endloop
  endfacet
  facet normal 1 0 0
    outer loop
      vertex 30 85.6577 513.933
      vertex 30 -85.6577 513.933
      vertex 30 -85.8524 509.498
    endloop
  endfacet
  facet normal 1 0 0
    outer loop
      vertex 30 85.8524 509.498
      vertex 30 -85.8524 509.498
      vertex 30 -85.8877 508.687
    endloop
  endfacet
  facet normal 1 0 0
    outer loop
      vertex 30 85.8524 509.498
      vertex 30 -85.8877 508.687
      vertex 30 -85.9245 507.767
    endloop
  endfacet
  facet normal 1 0 0
    outer loop
      vertex 30 85.9245 507.767
      vertex 30 -85.9245 507.767
      vertex 30 -86.1011 503.169
    endloop
  endfacet
  facet normal 1 0 0
    outer loop
      vertex 30 86.1011 503.169
      vertex 30 -86.1011 503.169
      vertex 30 -86.1491 501.857
    endloop
  endfacet
  facet normal 1 0 0
    outer loop
      vertex 30 86.1491 501.857
      vertex 30 -86.1491 501.857
      vertex 30 -86.1995 500.351
    endloop
  endfacet
  facet normal 1 0 0
    outer loop
      vertex 30 86.1995 500.351
      vertex 30 -86.1995 500.351
      vertex 30 -86.3571 495.607
    endloop
  endfacet
  facet normal 1 0 0
    outer loop
      vertex 30 86.3571 495.607
      vertex 30 -86.3571 495.607
      vertex 30 -86.4185 493.592
    endloop
  endfacet
  facet normal 1 0 0
    outer loop
      vertex 30 86.4185 493.592
      vertex 30 -86.4185 493.592
      vertex 30 -86.5495 488.99
    endloop
  endfacet
  facet normal 1 0 0
    outer loop
      vertex 30 -86.6208 486.403
      vertex 30 86.5495 488.99
      vertex 30 -86.5495 488.99
    endloop
  endfacet
  facet normal 1 0 0
    outer loop
      vertex 30 -86.6961 483.376
      vertex 30 86.6208 486.403
      vertex 30 -86.6208 486.403
    endloop
  endfacet
  facet normal 1 0 0
    outer loop
      vertex 30 86.6961 483.376
      vertex 30 -86.6961 483.376
      vertex 30 86.7773 480
    endloop
  endfacet
  facet normal 1 0 0
    outer loop
      vertex 30 86.7773 480
      vertex 30 -86.6961 483.376
      vertex 30 -86.7773 480
    endloop
  endfacet
  facet normal -1 0 0
    outer loop
      vertex 25 -87.5435 484.365
      vertex 25 87.5435 484.365
      vertex 25 87.615 480
    endloop
  endfacet
  facet normal -1 0 0
    outer loop
      vertex 25 87.5435 484.365
      vertex 25 -87.5435 484.365
      vertex 25 87.4824 487.827
    endloop
  endfacet
  facet normal -1 0 0
    outer loop
      vertex 25 87.4824 487.827
      vertex 25 -87.4824 487.827
      vertex 25 87.4249 490.711
    endloop
  endfacet
  facet normal -1 0 -0
    outer loop
      vertex 25 -87.4249 490.711
      vertex 25 87.4249 490.711
      vertex 25 -87.4824 487.827
    endloop
  endfacet
  facet normal -1 0 -0
    outer loop
      vertex 25 -87.3163 496.142
      vertex 25 87.3163 496.142
      vertex 25 -87.4249 490.711
    endloop
  endfacet
  facet normal -1 0 0
    outer loop
      vertex 25 87.3163 496.142
      vertex 25 -87.3163 496.142
      vertex 25 87.2688 498.269
    endloop
  endfacet
  facet normal -1 0 0
    outer loop
      vertex 25 87.2688 498.269
      vertex 25 -87.2688 498.269
      vertex 25 87.1337 503.883
    endloop
  endfacet
  facet normal -1 0 -0
    outer loop
      vertex 25 -87.1337 503.883
      vertex 25 87.1337 503.883
      vertex 25 -87.2688 498.269
    endloop
  endfacet
  facet normal -1 0 0
    outer loop
      vertex 25 87.1337 503.883
      vertex 25 -87.1337 503.883
      vertex 25 87.0973 505.348
    endloop
  endfacet
  facet normal -1 0 0
    outer loop
      vertex 25 87.0973 505.348
      vertex 25 -87.0973 505.348
      vertex 25 87.0628 506.6
    endloop
  endfacet
  facet normal -1 0 -0
    outer loop
      vertex 25 -87.0628 506.6
      vertex 25 87.0628 506.6
      vertex 25 -87.0973 505.348
    endloop
  endfacet
  facet normal -1 0 0
    outer loop
      vertex 25 87.0628 506.6
      vertex 25 -87.0628 506.6
      vertex 25 86.9093 511.991
    endloop
  endfacet
  facet normal -1 0 -0
    outer loop
      vertex 25 -86.9093 511.991
      vertex 25 86.9093 511.991
      vertex 25 -87.0628 506.6
    endloop
  endfacet
  facet normal -1 0 0
    outer loop
      vertex 25 -86.4947 524.465
      vertex 25 86.4947 524.465
      vertex 25 86.5187 523.116
    endloop
  endfacet
  facet normal -1 0 0
    outer loop
      vertex 25 86.4947 524.465
      vertex 25 -86.4503 526.712
      vertex 25 86.4503 526.712
    endloop
  endfacet
  facet normal -1 0 0
    outer loop
      vertex 25 86.4503 526.712
      vertex 25 -86.4503 526.712
      vertex 25 86.3433 531.964
    endloop
  endfacet
  facet normal -1 0 0
    outer loop
      vertex 25 -86.2429 541
      vertex 25 86.2429 541
      vertex 25 86.2746 535.015
    endloop
  endfacet
  facet normal -1 0 0
    outer loop
      vertex 25 68.914 594.51
      vertex 25 86.1859 557.816
      vertex 25 86.2092 546.914
    endloop
  endfacet
  facet normal -1 -0 -0
    outer loop
      vertex 25 79.1179 586.997
      vertex 25 86.1859 557.816
      vertex 25 74.3556 590.759
    endloop
  endfacet
  facet normal -1 0 -0
    outer loop
      vertex 25 68.914 594.51
      vertex 25 86.2429 541
      vertex 25 -86.2429 541
    endloop
  endfacet
  facet normal -1 0 0
    outer loop
      vertex 25 86.3433 531.964
      vertex 25 -86.3433 531.964
      vertex 25 86.2746 535.015
    endloop
  endfacet
  facet normal -1 0 -0
    outer loop
      vertex 25 -86.8862 512.751
      vertex 25 86.8862 512.751
      vertex 25 -86.9093 511.991
    endloop
  endfacet
  facet normal -1 0 0
    outer loop
      vertex 25 86.1859 557.816
      vertex 25 70.049 593.73
      vertex 25 71.1849 592.947
    endloop
  endfacet
  facet normal -1 0 0
    outer loop
      vertex 25 84.2395 581.048
      vertex 25 81.3339 584.81
      vertex 25 83.5583 582.611
    endloop
  endfacet
  facet normal -1 0 0
    outer loop
      vertex 25 86.1859 557.816
      vertex 25 79.1179 586.997
      vertex 25 86.1426 576.661
    endloop
  endfacet
  facet normal -1 0 0
    outer loop
      vertex 25 86.1426 576.661
      vertex 25 81.3339 584.81
      vertex 25 84.2395 581.048
    endloop
  endfacet
  facet normal -1 0 0
    outer loop
      vertex 25 79.1179 586.997
      vertex 25 74.3556 590.759
      vertex 25 78.3215 587.781
    endloop
  endfacet
  facet normal -1 0 0
    outer loop
      vertex 25 78.3215 587.781
      vertex 25 74.3556 590.759
      vertex 25 77.5283 588.56
    endloop
  endfacet
  facet normal -1 -0 -0
    outer loop
      vertex 25 81.3339 584.81
      vertex 25 86.1426 576.661
      vertex 25 79.1179 586.997
    endloop
  endfacet
  facet normal -1 0 0
    outer loop
      vertex 25 86.1859 557.816
      vertex 25 71.1849 592.947
      vertex 25 74.3556 590.759
    endloop
  endfacet
  facet normal -1 0 0
    outer loop
      vertex 25 86.1859 557.816
      vertex 25 68.914 594.51
      vertex 25 70.049 593.73
    endloop
  endfacet
  facet normal -1 -0 0
    outer loop
      vertex 25 86.3433 531.964
      vertex 25 -86.4503 526.712
      vertex 25 -86.3433 531.964
    endloop
  endfacet
  facet normal -1 -0 0
    outer loop
      vertex 25 68.914 594.51
      vertex 25 -86.2429 541
      vertex 25 -68.914 594.51
    endloop
  endfacet
  facet normal -1 0 -0
    outer loop
      vertex 25 -86.2092 546.914
      vertex 25 -68.914 594.51
      vertex 25 -86.2429 541
    endloop
  endfacet
  facet normal -1 0 -0
    outer loop
      vertex 25 -86.1859 557.816
      vertex 25 -68.914 594.51
      vertex 25 -86.2092 546.914
    endloop
  endfacet
  facet normal -1 0 0
    outer loop
      vertex 25 -70.049 593.73
      vertex 25 -86.1859 557.816
      vertex 25 -71.1849 592.947
    endloop
  endfacet
  facet normal -1 0 0
    outer loop
      vertex 25 -71.1849 592.947
      vertex 25 -86.1859 557.816
      vertex 25 -74.3556 590.759
    endloop
  endfacet
  facet normal -1 0 -0
    outer loop
      vertex 25 -79.1179 586.997
      vertex 25 -74.3556 590.759
      vertex 25 -86.1859 557.816
    endloop
  endfacet
  facet normal -1 0 0
    outer loop
      vertex 25 -74.3556 590.759
      vertex 25 -78.3215 587.781
      vertex 25 -77.5283 588.56
    endloop
  endfacet
  facet normal -1 0 -0
    outer loop
      vertex 25 -86.1426 576.661
      vertex 25 -79.1179 586.997
      vertex 25 -86.1859 557.816
    endloop
  endfacet
  facet normal -1 0 0
    outer loop
      vertex 25 -79.1179 586.997
      vertex 25 -86.1426 576.661
      vertex 25 -81.3339 584.81
    endloop
  endfacet
  facet normal -1 0 0
    outer loop
      vertex 25 -81.3339 584.81
      vertex 25 -84.2395 581.048
      vertex 25 -83.5583 582.611
    endloop
  endfacet
  facet normal -1 0 0
    outer loop
      vertex 25 -81.3339 584.81
      vertex 25 -86.1426 576.661
      vertex 25 -84.2395 581.048
    endloop
  endfacet
  facet normal -1 0 0
    outer loop
      vertex 25 -74.3556 590.759
      vertex 25 -79.1179 586.997
      vertex 25 -78.3215 587.781
    endloop
  endfacet
  facet normal -1 0 0
    outer loop
      vertex 25 -68.914 594.51
      vertex 25 -86.1859 557.816
      vertex 25 -70.049 593.73
    endloop
  endfacet
  facet normal -1 0 0
    outer loop
      vertex 25 86.2429 541
      vertex 25 68.914 594.51
      vertex 25 86.2092 546.914
    endloop
  endfacet
  facet normal -1 0 0
    outer loop
      vertex 25 86.2746 535.015
      vertex 25 -86.2746 535.015
      vertex 25 -86.2429 541
    endloop
  endfacet
  facet normal -1 -0 0
    outer loop
      vertex 25 86.2746 535.015
      vertex 25 -86.3433 531.964
      vertex 25 -86.2746 535.015
    endloop
  endfacet
  facet normal -1 0 0
    outer loop
      vertex 25 86.4947 524.465
      vertex 25 -86.4947 524.465
      vertex 25 -86.4503 526.712
    endloop
  endfacet
  facet normal -1 0 0
    outer loop
      vertex 25 86.5187 523.116
      vertex 25 -86.5187 523.116
      vertex 25 -86.4947 524.465
    endloop
  endfacet
  facet normal -1 -0 0
    outer loop
      vertex 25 86.5187 523.116
      vertex 25 -86.6828 518.841
      vertex 25 -86.5187 523.116
    endloop
  endfacet
  facet normal -1 0 0
    outer loop
      vertex 25 86.6828 518.841
      vertex 25 -86.6828 518.841
      vertex 25 86.5187 523.116
    endloop
  endfacet
  facet normal -1 0 -0
    outer loop
      vertex 25 -86.6828 518.841
      vertex 25 86.6828 518.841
      vertex 25 -86.6931 518.56
    endloop
  endfacet
  facet normal -1 0 -0
    outer loop
      vertex 25 -86.6931 518.56
      vertex 25 86.6828 518.841
      vertex 25 -86.7039 518.237
    endloop
  endfacet
  facet normal -1 -0 0
    outer loop
      vertex 25 86.6931 518.56
      vertex 25 -86.7039 518.237
      vertex 25 86.6828 518.841
    endloop
  endfacet
  facet normal -1 0 0
    outer loop
      vertex 25 86.7039 518.237
      vertex 25 -86.7039 518.237
      vertex 25 86.6931 518.56
    endloop
  endfacet
  facet normal -1 0 -0
    outer loop
      vertex 25 -86.7039 518.237
      vertex 25 86.7039 518.237
      vertex 25 -86.8862 512.751
    endloop
  endfacet
  facet normal -1 0 0
    outer loop
      vertex 25 86.8862 512.751
      vertex 25 -86.8862 512.751
      vertex 25 86.7039 518.237
    endloop
  endfacet
  facet normal -1 0 0
    outer loop
      vertex 25 86.9093 511.991
      vertex 25 -86.9093 511.991
      vertex 25 86.8862 512.751
    endloop
  endfacet
  facet normal -1 0 -0
    outer loop
      vertex 25 -87.0973 505.348
      vertex 25 87.0973 505.348
      vertex 25 -87.1337 503.883
    endloop
  endfacet
  facet normal -1 0 -0
    outer loop
      vertex 25 -87.2688 498.269
      vertex 25 87.2688 498.269
      vertex 25 -87.3163 496.142
    endloop
  endfacet
  facet normal -1 0 0
    outer loop
      vertex 25 87.4249 490.711
      vertex 25 -87.4249 490.711
      vertex 25 87.3163 496.142
    endloop
  endfacet
  facet normal -1 -0 0
    outer loop
      vertex 25 87.4824 487.827
      vertex 25 -87.5435 484.365
      vertex 25 -87.4824 487.827
    endloop
  endfacet
  facet normal -1 0 -0
    outer loop
      vertex 25 -87.5435 484.365
      vertex 25 87.615 480
      vertex 25 -87.615 480
    endloop
  endfacet
  facet normal 0 0 -1
    outer loop
      vertex 29.6776 -86.8374 480
      vertex 30 86.7773 480
      vertex 30 -86.7773 480
    endloop
  endfacet
  facet normal 0 0 -1
    outer loop
      vertex 29.6776 -86.8374 480
      vertex 29.6776 86.8374 480
      vertex 30 86.7773 480
    endloop
  endfacet
  facet normal 0 0 -1
    outer loop
      vertex 28.8069 -86.9935 480
      vertex 29.6776 86.8374 480
      vertex 29.6776 -86.8374 480
    endloop
  endfacet
  facet normal 0 0 -1
    outer loop
      vertex 28.8069 -86.9935 480
      vertex 28.8069 86.9935 480
      vertex 29.6776 86.8374 480
    endloop
  endfacet
  facet normal 0 0 -1
    outer loop
      vertex 27.6576 -87.1885 480
      vertex 28.8069 86.9935 480
      vertex 28.8069 -86.9935 480
    endloop
  endfacet
  facet normal 0 0 -1
    outer loop
      vertex 27.6576 -87.1885 480
      vertex 27.6576 87.1885 480
      vertex 28.8069 86.9935 480
    endloop
  endfacet
  facet normal 0 0 -1
    outer loop
      vertex 26.7833 -87.3365 480
      vertex 27.6576 87.1885 480
      vertex 27.6576 -87.1885 480
    endloop
  endfacet
  facet normal 0 0 -1
    outer loop
      vertex 26.7833 -87.3365 480
      vertex 26.7833 87.3365 480
      vertex 27.6576 87.1885 480
    endloop
  endfacet
  facet normal 0 0 -1
    outer loop
      vertex 25.9057 -87.4763 480
      vertex 26.7833 87.3365 480
      vertex 26.7833 -87.3365 480
    endloop
  endfacet
  facet normal 0 0 -1
    outer loop
      vertex 25.9057 -87.4763 480
      vertex 25.9057 87.4763 480
      vertex 26.7833 87.3365 480
    endloop
  endfacet
  facet normal 0 0 -1
    outer loop
      vertex 25 -87.615 480
      vertex 25.9057 87.4763 480
      vertex 25.9057 -87.4763 480
    endloop
  endfacet
  facet normal -0 0 -1
    outer loop
      vertex 25.9057 87.4763 480
      vertex 25 -87.615 480
      vertex 25 87.615 480
    endloop
  endfacet
endsolid OpenSCAD_Model
