solid OpenSCAD_Model
  facet normal 0.0786546 0.996901 0.00156779
    outer loop
      vertex 25 88.5041 360
      vertex 25 88.5012 361.844
      vertex 25.4905 88.4654 360
    endloop
  endfacet
  facet normal 0.0980268 0.99518 0.00267597
    outer loop
      vertex 30 88.0558 364.896
      vertex 29.0457 88.1403 368.429
      vertex 30 88.0463 368.429
    endloop
  endfacet
  facet normal 0.0793693 0.996844 0.00175602
    outer loop
      vertex 26.1492 88.3981 368.429
      vertex 25 88.5012 361.844
      vertex 25 88.4896 368.429
    endloop
  endfacet
  facet normal 0.0793307 0.996847 0.0017628
    outer loop
      vertex 26.3365 88.3981 360
      vertex 25 88.5012 361.844
      vertex 26.1492 88.3981 368.429
    endloop
  endfacet
  facet normal 0.0793002 0.996849 0.00174053
    outer loop
      vertex 25 88.5012 361.844
      vertex 26.3365 88.3981 360
      vertex 25.4905 88.4654 360
    endloop
  endfacet
  facet normal 0.087766 0.996139 0.00195024
    outer loop
      vertex 26.3365 88.3981 360
      vertex 26.1492 88.3981 368.429
      vertex 28.409 88.2155 360
    endloop
  endfacet
  facet normal 0.0886748 0.996058 0.0021882
    outer loop
      vertex 28.409 88.2155 360
      vertex 29.0457 88.1403 368.429
      vertex 29.2537 88.1403 360
    endloop
  endfacet
  facet normal 0.0886533 0.99606 0.00218984
    outer loop
      vertex 29.0457 88.1403 368.429
      vertex 28.409 88.2155 360
      vertex 26.1492 88.3981 368.429
    endloop
  endfacet
  facet normal 0.0969547 0.995286 0.00239877
    outer loop
      vertex 29.2537 88.1403 360
      vertex 30 88.0558 364.896
      vertex 30 88.0676 360
    endloop
  endfacet
  facet normal 0.0969896 0.995283 0.00239339
    outer loop
      vertex 30 88.0558 364.896
      vertex 29.2537 88.1403 360
      vertex 29.0457 88.1403 368.429
    endloop
  endfacet
  facet normal 0.0793692 0.996843 0.00209689
    outer loop
      vertex 25 88.4896 368.429
      vertex 25 88.4768 374.514
      vertex 26.1492 88.3981 368.429
    endloop
  endfacet
  facet normal 0.080945 0.996716 0.00239795
    outer loop
      vertex 25.6206 88.3981 386.277
      vertex 25 88.4768 374.514
      vertex 25 88.4485 386.277
    endloop
  endfacet
  facet normal 0.0809525 0.996715 0.00239755
    outer loop
      vertex 25 88.4768 374.514
      vertex 25.6206 88.3981 386.277
      vertex 26.1492 88.3981 368.429
    endloop
  endfacet
  facet normal 0.0904657 0.995895 0.00297582
    outer loop
      vertex 29.0457 88.1403 368.429
      vertex 25.6206 88.3981 386.277
      vertex 28.4586 88.1403 386.277
    endloop
  endfacet
  facet normal 0.0999888 0.994982 0.00361057
    outer loop
      vertex 30 88.0141 378.368
      vertex 28.4586 88.1403 386.277
      vertex 30 87.9854 386.277
    endloop
  endfacet
  facet normal 0.0980266 0.995179 0.00322414
    outer loop
      vertex 29.0457 88.1403 368.429
      vertex 30 88.0141 378.368
      vertex 30 88.0463 368.429
    endloop
  endfacet
  facet normal 0.0980236 0.995179 0.00322443
    outer loop
      vertex 30 88.0141 378.368
      vertex 29.0457 88.1403 368.429
      vertex 28.4586 88.1403 386.277
    endloop
  endfacet
  facet normal 0.0886532 0.996059 0.00262562
    outer loop
      vertex 26.1492 88.3981 368.429
      vertex 25.6206 88.3981 386.277
      vertex 29.0457 88.1403 368.429
    endloop
  endfacet
  facet normal 0.157291 0.987399 0.0174285
    outer loop
      vertex 30 87.0733 465.881
      vertex 25.9057 87.4763 480
      vertex 26.7833 87.3365 480
    endloop
  endfacet
  facet normal 0.157285 0.9874 0.0174268
    outer loop
      vertex 25.9057 87.4763 480
      vertex 30 87.0733 465.881
      vertex 30 87.1724 460.266
    endloop
  endfacet
  facet normal 0.151357 0.988347 0.016165
    outer loop
      vertex 25.9057 87.4763 480
      vertex 25 87.6334 478.875
      vertex 25 87.615 480
    endloop
  endfacet
  facet normal 0.15134 0.988349 0.0161788
    outer loop
      vertex 30 87.1724 460.266
      vertex 25 87.6334 478.875
      vertex 25.9057 87.4763 480
    endloop
  endfacet
  facet normal 0.151352 0.988347 0.0161821
    outer loop
      vertex 25 87.6334 478.875
      vertex 30 87.1724 460.266
      vertex 30 87.2402 456.125
    endloop
  endfacet
  facet normal 0.0999828 0.994964 0.00701864
    outer loop
      vertex 30 87.9263 394.657
      vertex 25 88.305 412.199
      vertex 25 88.1999 427.098
    endloop
  endfacet
  facet normal 0.099987 0.994964 0.00701699
    outer loop
      vertex 28.4586 88.1403 386.277
      vertex 30 87.9263 394.657
      vertex 30 87.9854 386.277
    endloop
  endfacet
  facet normal 0.099981 0.994965 0.00701811
    outer loop
      vertex 30 87.9263 394.657
      vertex 28.4586 88.1403 386.277
      vertex 25 88.305 412.199
    endloop
  endfacet
  facet normal 0.0809444 0.996708 0.00458072
    outer loop
      vertex 25 88.4485 386.277
      vertex 25 88.4257 391.238
      vertex 25.6206 88.3981 386.277
    endloop
  endfacet
  facet normal 0.11969 0.99276 0.0100998
    outer loop
      vertex 30 87.6289 426.94
      vertex 25 87.9817 451.515
      vertex 25 87.9336 456.243
    endloop
  endfacet
  facet normal 0.119783 0.992748 0.010119
    outer loop
      vertex 25 87.9817 451.515
      vertex 30 87.6289 426.94
      vertex 30 87.6569 424.193
    endloop
  endfacet
  facet normal 0.183206 0.98279 0.0236525
    outer loop
      vertex 30 86.8076 478.741
      vertex 29.6776 86.8374 480
      vertex 30 86.7773 480
    endloop
  endfacet
  facet normal 0.14765 0.98892 0.0153585
    outer loop
      vertex 30 87.2402 456.125
      vertex 25 87.7038 474.342
      vertex 25 87.6334 478.875
    endloop
  endfacet
  facet normal 0.147641 0.988922 0.015356
    outer loop
      vertex 25 87.7038 474.342
      vertex 30 87.2402 456.125
      vertex 30 87.3468 449.26
    endloop
  endfacet
  facet normal 0.13546 0.990698 0.0129586
    outer loop
      vertex 30 87.4617 440.798
      vertex 25 87.8493 463.432
      vertex 25 87.7797 468.753
    endloop
  endfacet
  facet normal 0.135439 0.990701 0.012954
    outer loop
      vertex 25 87.8493 463.432
      vertex 30 87.4617 440.798
      vertex 30 87.5077 437.28
    endloop
  endfacet
  facet normal 0.176425 0.984071 0.0218858
    outer loop
      vertex 30 86.8076 478.741
      vertex 28.8069 86.9935 480
      vertex 29.6776 86.8374 480
    endloop
  endfacet
  facet normal 0.176501 0.984055 0.02196
    outer loop
      vertex 28.8069 86.9935 480
      vertex 30 86.8076 478.741
      vertex 30 86.8924 474.941
    endloop
  endfacet
  facet normal 0.128568 0.991633 0.0116281
    outer loop
      vertex 30 87.5077 437.28
      vertex 25 87.9336 456.243
      vertex 25 87.8493 463.432
    endloop
  endfacet
  facet normal 0.12855 0.991635 0.0116234
    outer loop
      vertex 25 87.9336 456.243
      vertex 30 87.5077 437.28
      vertex 30 87.6289 426.94
    endloop
  endfacet
  facet normal 0.167245 0.985718 0.0197439
    outer loop
      vertex 30 86.8924 474.941
      vertex 27.6576 87.1885 480
      vertex 28.8069 86.9935 480
    endloop
  endfacet
  facet normal 0.167212 0.985724 0.019728
    outer loop
      vertex 27.6576 87.1885 480
      vertex 30 86.8924 474.941
      vertex 30 86.9801 470.559
    endloop
  endfacet
  facet normal 0.0879715 0.996108 0.00546312
    outer loop
      vertex 25 88.4257 391.238
      vertex 25 88.4227 391.785
      vertex 25.6206 88.3981 386.277
    endloop
  endfacet
  facet normal 0.103783 0.994571 0.00760767
    outer loop
      vertex 30 87.9207 395.389
      vertex 25 88.1999 427.098
      vertex 25 88.1726 430.667
    endloop
  endfacet
  facet normal 0.10379 0.99457 0.00760873
    outer loop
      vertex 25 88.1999 427.098
      vertex 30 87.9207 395.389
      vertex 30 87.9263 394.657
    endloop
  endfacet
  facet normal 0.109484 0.993953 0.00841746
    outer loop
      vertex 30 87.783 411.638
      vertex 25 88.1726 430.667
      vertex 25 88.073 442.428
    endloop
  endfacet
  facet normal 0.109505 0.993951 0.0084231
    outer loop
      vertex 25 88.1726 430.667
      vertex 30 87.783 411.638
      vertex 30 87.9207 395.389
    endloop
  endfacet
  facet normal 0.119005 0.992844 0.00997542
    outer loop
      vertex 30 87.6569 424.193
      vertex 25 88.073 442.428
      vertex 25 87.9817 451.515
    endloop
  endfacet
  facet normal 0.118992 0.992845 0.00997194
    outer loop
      vertex 25 88.073 442.428
      vertex 30 87.6569 424.193
      vertex 30 87.783 411.638
    endloop
  endfacet
  facet normal 0.138173 0.990317 0.0134487
    outer loop
      vertex 30 87.3468 449.26
      vertex 25 87.7797 468.753
      vertex 25 87.7038 474.342
    endloop
  endfacet
  facet normal 0.138166 0.990318 0.0134469
    outer loop
      vertex 25 87.7797 468.753
      vertex 30 87.3468 449.26
      vertex 30 87.4617 440.798
    endloop
  endfacet
  facet normal 0.0904597 0.995884 0.00574192
    outer loop
      vertex 28.4586 88.1403 386.277
      vertex 25 88.4227 391.785
      vertex 25 88.305 412.199
    endloop
  endfacet
  facet normal 0.0904646 0.995883 0.00574503
    outer loop
      vertex 25 88.4227 391.785
      vertex 28.4586 88.1403 386.277
      vertex 25.6206 88.3981 386.277
    endloop
  endfacet
  facet normal 0.166872 0.985783 0.0196423
    outer loop
      vertex 30 86.9801 470.559
      vertex 26.7833 87.3365 480
      vertex 27.6576 87.1885 480
    endloop
  endfacet
  facet normal 0.166865 0.985784 0.0196398
    outer loop
      vertex 26.7833 87.3365 480
      vertex 30 86.9801 470.559
      vertex 30 87.0733 465.881
    endloop
  endfacet
  facet normal 0.0786546 -0.996901 0.00156779
    outer loop
      vertex 25.4905 -88.4654 360
      vertex 25 -88.5012 361.844
      vertex 25 -88.5041 360
    endloop
  endfacet
  facet normal 0.0980268 -0.99518 0.00267597
    outer loop
      vertex 30 -88.0558 364.896
      vertex 30 -88.0463 368.429
      vertex 29.0457 -88.1403 368.429
    endloop
  endfacet
  facet normal 0.0793693 -0.996844 0.00175602
    outer loop
      vertex 25 -88.5012 361.844
      vertex 26.1492 -88.3981 368.429
      vertex 25 -88.4896 368.429
    endloop
  endfacet
  facet normal 0.0793002 -0.996849 0.00174053
    outer loop
      vertex 26.3365 -88.3981 360
      vertex 25 -88.5012 361.844
      vertex 25.4905 -88.4654 360
    endloop
  endfacet
  facet normal 0.0793307 -0.996847 0.0017628
    outer loop
      vertex 25 -88.5012 361.844
      vertex 26.3365 -88.3981 360
      vertex 26.1492 -88.3981 368.429
    endloop
  endfacet
  facet normal 0.087766 -0.996139 0.00195024
    outer loop
      vertex 26.3365 -88.3981 360
      vertex 28.409 -88.2155 360
      vertex 26.1492 -88.3981 368.429
    endloop
  endfacet
  facet normal 0.0886533 -0.99606 0.00218984
    outer loop
      vertex 28.409 -88.2155 360
      vertex 29.0457 -88.1403 368.429
      vertex 26.1492 -88.3981 368.429
    endloop
  endfacet
  facet normal 0.0886748 -0.996058 0.0021882
    outer loop
      vertex 29.0457 -88.1403 368.429
      vertex 28.409 -88.2155 360
      vertex 29.2537 -88.1403 360
    endloop
  endfacet
  facet normal 0.0969896 -0.995283 0.00239339
    outer loop
      vertex 29.2537 -88.1403 360
      vertex 30 -88.0558 364.896
      vertex 29.0457 -88.1403 368.429
    endloop
  endfacet
  facet normal 0.0969547 -0.995286 0.00239877
    outer loop
      vertex 30 -88.0558 364.896
      vertex 29.2537 -88.1403 360
      vertex 30 -88.0676 360
    endloop
  endfacet
  facet normal 0.0793692 -0.996843 0.00209689
    outer loop
      vertex 26.1492 -88.3981 368.429
      vertex 25 -88.4768 374.514
      vertex 25 -88.4896 368.429
    endloop
  endfacet
  facet normal 0.080945 -0.996716 0.00239795
    outer loop
      vertex 25 -88.4768 374.514
      vertex 25.6206 -88.3981 386.277
      vertex 25 -88.4485 386.277
    endloop
  endfacet
  facet normal 0.0809525 -0.996715 0.00239755
    outer loop
      vertex 25.6206 -88.3981 386.277
      vertex 25 -88.4768 374.514
      vertex 26.1492 -88.3981 368.429
    endloop
  endfacet
  facet normal 0.0904657 -0.995895 0.00297582
    outer loop
      vertex 29.0457 -88.1403 368.429
      vertex 28.4586 -88.1403 386.277
      vertex 25.6206 -88.3981 386.277
    endloop
  endfacet
  facet normal 0.0999888 -0.994982 0.00361057
    outer loop
      vertex 30 -88.0141 378.368
      vertex 30 -87.9854 386.277
      vertex 28.4586 -88.1403 386.277
    endloop
  endfacet
  facet normal 0.0980236 -0.995179 0.00322443
    outer loop
      vertex 29.0457 -88.1403 368.429
      vertex 30 -88.0141 378.368
      vertex 28.4586 -88.1403 386.277
    endloop
  endfacet
  facet normal 0.0980266 -0.995179 0.00322414
    outer loop
      vertex 30 -88.0141 378.368
      vertex 29.0457 -88.1403 368.429
      vertex 30 -88.0463 368.429
    endloop
  endfacet
  facet normal 0.0886532 -0.996059 0.00262562
    outer loop
      vertex 26.1492 -88.3981 368.429
      vertex 29.0457 -88.1403 368.429
      vertex 25.6206 -88.3981 386.277
    endloop
  endfacet
  facet normal 0.157291 -0.987399 0.0174285
    outer loop
      vertex 25.9057 -87.4763 480
      vertex 30 -87.0733 465.881
      vertex 26.7833 -87.3365 480
    endloop
  endfacet
  facet normal 0.157285 -0.9874 0.0174268
    outer loop
      vertex 30 -87.0733 465.881
      vertex 25.9057 -87.4763 480
      vertex 30 -87.1724 460.266
    endloop
  endfacet
  facet normal 0.151357 -0.988347 0.016165
    outer loop
      vertex 25 -87.6334 478.875
      vertex 25.9057 -87.4763 480
      vertex 25 -87.615 480
    endloop
  endfacet
  facet normal 0.15134 -0.988349 0.0161788
    outer loop
      vertex 25 -87.6334 478.875
      vertex 30 -87.1724 460.266
      vertex 25.9057 -87.4763 480
    endloop
  endfacet
  facet normal 0.151352 -0.988347 0.0161821
    outer loop
      vertex 30 -87.1724 460.266
      vertex 25 -87.6334 478.875
      vertex 30 -87.2402 456.125
    endloop
  endfacet
  facet normal 0.0999828 -0.994964 0.00701864
    outer loop
      vertex 25 -88.305 412.199
      vertex 30 -87.9263 394.657
      vertex 25 -88.1999 427.098
    endloop
  endfacet
  facet normal 0.099981 -0.994965 0.00701811
    outer loop
      vertex 28.4586 -88.1403 386.277
      vertex 30 -87.9263 394.657
      vertex 25 -88.305 412.199
    endloop
  endfacet
  facet normal 0.099987 -0.994964 0.00701699
    outer loop
      vertex 30 -87.9263 394.657
      vertex 28.4586 -88.1403 386.277
      vertex 30 -87.9854 386.277
    endloop
  endfacet
  facet normal 0.0809444 -0.996708 0.00458072
    outer loop
      vertex 25.6206 -88.3981 386.277
      vertex 25 -88.4257 391.238
      vertex 25 -88.4485 386.277
    endloop
  endfacet
  facet normal 0.11969 -0.99276 0.0100998
    outer loop
      vertex 25 -87.9817 451.515
      vertex 30 -87.6289 426.94
      vertex 25 -87.9336 456.243
    endloop
  endfacet
  facet normal 0.119783 -0.992748 0.010119
    outer loop
      vertex 30 -87.6289 426.94
      vertex 25 -87.9817 451.515
      vertex 30 -87.6569 424.193
    endloop
  endfacet
  facet normal 0.183206 -0.98279 0.0236525
    outer loop
      vertex 30 -86.8076 478.741
      vertex 30 -86.7773 480
      vertex 29.6776 -86.8374 480
    endloop
  endfacet
  facet normal 0.14765 -0.98892 0.0153585
    outer loop
      vertex 25 -87.7038 474.342
      vertex 30 -87.2402 456.125
      vertex 25 -87.6334 478.875
    endloop
  endfacet
  facet normal 0.147641 -0.988922 0.015356
    outer loop
      vertex 30 -87.2402 456.125
      vertex 25 -87.7038 474.342
      vertex 30 -87.3468 449.26
    endloop
  endfacet
  facet normal 0.13546 -0.990698 0.0129586
    outer loop
      vertex 25 -87.8493 463.432
      vertex 30 -87.4617 440.798
      vertex 25 -87.7797 468.753
    endloop
  endfacet
  facet normal 0.135439 -0.990701 0.012954
    outer loop
      vertex 30 -87.4617 440.798
      vertex 25 -87.8493 463.432
      vertex 30 -87.5077 437.28
    endloop
  endfacet
  facet normal 0.176425 -0.984071 0.0218858
    outer loop
      vertex 28.8069 -86.9935 480
      vertex 30 -86.8076 478.741
      vertex 29.6776 -86.8374 480
    endloop
  endfacet
  facet normal 0.176501 -0.984055 0.02196
    outer loop
      vertex 30 -86.8076 478.741
      vertex 28.8069 -86.9935 480
      vertex 30 -86.8924 474.941
    endloop
  endfacet
  facet normal 0.128568 -0.991633 0.0116281
    outer loop
      vertex 25 -87.9336 456.243
      vertex 30 -87.5077 437.28
      vertex 25 -87.8493 463.432
    endloop
  endfacet
  facet normal 0.12855 -0.991635 0.0116234
    outer loop
      vertex 30 -87.5077 437.28
      vertex 25 -87.9336 456.243
      vertex 30 -87.6289 426.94
    endloop
  endfacet
  facet normal 0.167245 -0.985718 0.0197439
    outer loop
      vertex 27.6576 -87.1885 480
      vertex 30 -86.8924 474.941
      vertex 28.8069 -86.9935 480
    endloop
  endfacet
  facet normal 0.167212 -0.985724 0.019728
    outer loop
      vertex 30 -86.8924 474.941
      vertex 27.6576 -87.1885 480
      vertex 30 -86.9801 470.559
    endloop
  endfacet
  facet normal 0.0879715 -0.996108 0.00546312
    outer loop
      vertex 25.6206 -88.3981 386.277
      vertex 25 -88.4227 391.785
      vertex 25 -88.4257 391.238
    endloop
  endfacet
  facet normal 0.103783 -0.994571 0.00760767
    outer loop
      vertex 25 -88.1999 427.098
      vertex 30 -87.9207 395.389
      vertex 25 -88.1726 430.667
    endloop
  endfacet
  facet normal 0.10379 -0.99457 0.00760873
    outer loop
      vertex 30 -87.9207 395.389
      vertex 25 -88.1999 427.098
      vertex 30 -87.9263 394.657
    endloop
  endfacet
  facet normal 0.109484 -0.993953 0.00841746
    outer loop
      vertex 25 -88.1726 430.667
      vertex 30 -87.783 411.638
      vertex 25 -88.073 442.428
    endloop
  endfacet
  facet normal 0.109505 -0.993951 0.0084231
    outer loop
      vertex 30 -87.783 411.638
      vertex 25 -88.1726 430.667
      vertex 30 -87.9207 395.389
    endloop
  endfacet
  facet normal 0.119005 -0.992844 0.00997542
    outer loop
      vertex 25 -88.073 442.428
      vertex 30 -87.6569 424.193
      vertex 25 -87.9817 451.515
    endloop
  endfacet
  facet normal 0.118992 -0.992845 0.00997194
    outer loop
      vertex 30 -87.6569 424.193
      vertex 25 -88.073 442.428
      vertex 30 -87.783 411.638
    endloop
  endfacet
  facet normal 0.138173 -0.990317 0.0134487
    outer loop
      vertex 25 -87.7797 468.753
      vertex 30 -87.3468 449.26
      vertex 25 -87.7038 474.342
    endloop
  endfacet
  facet normal 0.138166 -0.990318 0.0134469
    outer loop
      vertex 30 -87.3468 449.26
      vertex 25 -87.7797 468.753
      vertex 30 -87.4617 440.798
    endloop
  endfacet
  facet normal 0.0904646 -0.995883 0.00574503
    outer loop
      vertex 28.4586 -88.1403 386.277
      vertex 25 -88.4227 391.785
      vertex 25.6206 -88.3981 386.277
    endloop
  endfacet
  facet normal 0.0904597 -0.995884 0.00574192
    outer loop
      vertex 25 -88.4227 391.785
      vertex 28.4586 -88.1403 386.277
      vertex 25 -88.305 412.199
    endloop
  endfacet
  facet normal 0.166872 -0.985783 0.0196423
    outer loop
      vertex 26.7833 -87.3365 480
      vertex 30 -86.9801 470.559
      vertex 27.6576 -87.1885 480
    endloop
  endfacet
  facet normal 0.166865 -0.985784 0.0196398
    outer loop
      vertex 30 -86.9801 470.559
      vertex 26.7833 -87.3365 480
      vertex 30 -87.0733 465.881
    endloop
  endfacet
  facet normal 1 0 0
    outer loop
      vertex 30 -88.0558 364.896
      vertex 30 88.0558 364.896
      vertex 30 88.0463 368.429
    endloop
  endfacet
  facet normal 1 0 0
    outer loop
      vertex 30 -88.0463 368.429
      vertex 30 88.0463 368.429
      vertex 30 88.0141 378.368
    endloop
  endfacet
  facet normal 1 0 0
    outer loop
      vertex 30 -88.0141 378.368
      vertex 30 88.0141 378.368
      vertex 30 87.9854 386.277
    endloop
  endfacet
  facet normal 1 0 0
    outer loop
      vertex 30 -87.9854 386.277
      vertex 30 87.9854 386.277
      vertex 30 87.9263 394.657
    endloop
  endfacet
  facet normal 1 0 0
    outer loop
      vertex 30 -87.9263 394.657
      vertex 30 87.9263 394.657
      vertex 30 87.9207 395.389
    endloop
  endfacet
  facet normal 1 0 0
    outer loop
      vertex 30 -87.9207 395.389
      vertex 30 87.9207 395.389
      vertex 30 87.783 411.638
    endloop
  endfacet
  facet normal 1 0 0
    outer loop
      vertex 30 -87.783 411.638
      vertex 30 87.783 411.638
      vertex 30 87.6569 424.193
    endloop
  endfacet
  facet normal 1 0 0
    outer loop
      vertex 30 -87.6569 424.193
      vertex 30 87.6569 424.193
      vertex 30 87.6289 426.94
    endloop
  endfacet
  facet normal 1 0 0
    outer loop
      vertex 30 -87.6289 426.94
      vertex 30 87.6289 426.94
      vertex 30 87.5077 437.28
    endloop
  endfacet
  facet normal 1 0 0
    outer loop
      vertex 30 -87.5077 437.28
      vertex 30 87.5077 437.28
      vertex 30 87.4617 440.798
    endloop
  endfacet
  facet normal 1 0 0
    outer loop
      vertex 30 -87.4617 440.798
      vertex 30 87.4617 440.798
      vertex 30 87.3468 449.26
    endloop
  endfacet
  facet normal 1 0 0
    outer loop
      vertex 30 -87.3468 449.26
      vertex 30 87.3468 449.26
      vertex 30 87.2402 456.125
    endloop
  endfacet
  facet normal 1 0 0
    outer loop
      vertex 30 -87.2402 456.125
      vertex 30 87.2402 456.125
      vertex 30 87.1724 460.266
    endloop
  endfacet
  facet normal 1 0 0
    outer loop
      vertex 30 -87.1724 460.266
      vertex 30 87.1724 460.266
      vertex 30 87.0733 465.881
    endloop
  endfacet
  facet normal 1 0 0
    outer loop
      vertex 30 -87.0733 465.881
      vertex 30 87.0733 465.881
      vertex 30 86.9801 470.559
    endloop
  endfacet
  facet normal 1 0 0
    outer loop
      vertex 30 -86.9801 470.559
      vertex 30 86.9801 470.559
      vertex 30 86.8924 474.941
    endloop
  endfacet
  facet normal 1 0 0
    outer loop
      vertex 30 -86.8924 474.941
      vertex 30 86.8924 474.941
      vertex 30 86.8076 478.741
    endloop
  endfacet
  facet normal 1 0 0
    outer loop
      vertex 30 -86.8076 478.741
      vertex 30 86.8076 478.741
      vertex 30 86.7773 480
    endloop
  endfacet
  facet normal 1 0 0
    outer loop
      vertex 30 -86.8076 478.741
      vertex 30 86.7773 480
      vertex 30 -86.7773 480
    endloop
  endfacet
  facet normal 1 0 0
    outer loop
      vertex 30 86.8076 478.741
      vertex 30 -86.8076 478.741
      vertex 30 -86.8924 474.941
    endloop
  endfacet
  facet normal 1 0 0
    outer loop
      vertex 30 86.8924 474.941
      vertex 30 -86.8924 474.941
      vertex 30 -86.9801 470.559
    endloop
  endfacet
  facet normal 1 0 0
    outer loop
      vertex 30 86.9801 470.559
      vertex 30 -86.9801 470.559
      vertex 30 -87.0733 465.881
    endloop
  endfacet
  facet normal 1 0 0
    outer loop
      vertex 30 87.0733 465.881
      vertex 30 -87.0733 465.881
      vertex 30 -87.1724 460.266
    endloop
  endfacet
  facet normal 1 0 0
    outer loop
      vertex 30 87.1724 460.266
      vertex 30 -87.1724 460.266
      vertex 30 -87.2402 456.125
    endloop
  endfacet
  facet normal 1 0 0
    outer loop
      vertex 30 87.2402 456.125
      vertex 30 -87.2402 456.125
      vertex 30 -87.3468 449.26
    endloop
  endfacet
  facet normal 1 0 0
    outer loop
      vertex 30 87.3468 449.26
      vertex 30 -87.3468 449.26
      vertex 30 -87.4617 440.798
    endloop
  endfacet
  facet normal 1 0 0
    outer loop
      vertex 30 87.4617 440.798
      vertex 30 -87.4617 440.798
      vertex 30 -87.5077 437.28
    endloop
  endfacet
  facet normal 1 0 0
    outer loop
      vertex 30 87.5077 437.28
      vertex 30 -87.5077 437.28
      vertex 30 -87.6289 426.94
    endloop
  endfacet
  facet normal 1 0 0
    outer loop
      vertex 30 87.6289 426.94
      vertex 30 -87.6289 426.94
      vertex 30 -87.6569 424.193
    endloop
  endfacet
  facet normal 1 0 0
    outer loop
      vertex 30 87.6569 424.193
      vertex 30 -87.6569 424.193
      vertex 30 -87.783 411.638
    endloop
  endfacet
  facet normal 1 0 0
    outer loop
      vertex 30 87.783 411.638
      vertex 30 -87.783 411.638
      vertex 30 -87.9207 395.389
    endloop
  endfacet
  facet normal 1 0 0
    outer loop
      vertex 30 87.9207 395.389
      vertex 30 -87.9207 395.389
      vertex 30 -87.9263 394.657
    endloop
  endfacet
  facet normal 1 0 0
    outer loop
      vertex 30 87.9263 394.657
      vertex 30 -87.9263 394.657
      vertex 30 -87.9854 386.277
    endloop
  endfacet
  facet normal 1 0 0
    outer loop
      vertex 30 87.9854 386.277
      vertex 30 -87.9854 386.277
      vertex 30 -88.0141 378.368
    endloop
  endfacet
  facet normal 1 0 0
    outer loop
      vertex 30 -88.0463 368.429
      vertex 30 88.0141 378.368
      vertex 30 -88.0141 378.368
    endloop
  endfacet
  facet normal 1 0 0
    outer loop
      vertex 30 -88.0558 364.896
      vertex 30 88.0463 368.429
      vertex 30 -88.0463 368.429
    endloop
  endfacet
  facet normal 1 0 0
    outer loop
      vertex 30 88.0558 364.896
      vertex 30 -88.0558 364.896
      vertex 30 88.0676 360
    endloop
  endfacet
  facet normal 1 0 0
    outer loop
      vertex 30 88.0676 360
      vertex 30 -88.0558 364.896
      vertex 30 -88.0676 360
    endloop
  endfacet
  facet normal -1 0 0
    outer loop
      vertex 25 -88.5012 361.844
      vertex 25 88.5012 361.844
      vertex 25 88.5041 360
    endloop
  endfacet
  facet normal -1 0 0
    outer loop
      vertex 25 88.5012 361.844
      vertex 25 -88.5012 361.844
      vertex 25 88.4896 368.429
    endloop
  endfacet
  facet normal -1 0 0
    outer loop
      vertex 25 88.4896 368.429
      vertex 25 -88.4896 368.429
      vertex 25 88.4768 374.514
    endloop
  endfacet
  facet normal -1 0 0
    outer loop
      vertex 25 88.4768 374.514
      vertex 25 -88.4768 374.514
      vertex 25 88.4485 386.277
    endloop
  endfacet
  facet normal -1 0 -0
    outer loop
      vertex 25 -88.4485 386.277
      vertex 25 88.4485 386.277
      vertex 25 -88.4768 374.514
    endloop
  endfacet
  facet normal -1 0 0
    outer loop
      vertex 25 88.4485 386.277
      vertex 25 -88.4485 386.277
      vertex 25 88.4257 391.238
    endloop
  endfacet
  facet normal -1 0 0
    outer loop
      vertex 25 88.4257 391.238
      vertex 25 -88.4257 391.238
      vertex 25 88.4227 391.785
    endloop
  endfacet
  facet normal -1 0 -0
    outer loop
      vertex 25 -88.305 412.199
      vertex 25 88.305 412.199
      vertex 25 -88.4227 391.785
    endloop
  endfacet
  facet normal -1 0 0
    outer loop
      vertex 25 88.305 412.199
      vertex 25 -88.305 412.199
      vertex 25 88.1999 427.098
    endloop
  endfacet
  facet normal -1 0 0
    outer loop
      vertex 25 88.1999 427.098
      vertex 25 -88.1999 427.098
      vertex 25 88.1726 430.667
    endloop
  endfacet
  facet normal -1 0 -0
    outer loop
      vertex 25 -88.1726 430.667
      vertex 25 88.1726 430.667
      vertex 25 -88.1999 427.098
    endloop
  endfacet
  facet normal -1 0 0
    outer loop
      vertex 25 88.1726 430.667
      vertex 25 -88.1726 430.667
      vertex 25 88.073 442.428
    endloop
  endfacet
  facet normal -1 0 -0
    outer loop
      vertex 25 -88.073 442.428
      vertex 25 88.073 442.428
      vertex 25 -88.1726 430.667
    endloop
  endfacet
  facet normal -1 0 0
    outer loop
      vertex 25 88.073 442.428
      vertex 25 -88.073 442.428
      vertex 25 87.9817 451.515
    endloop
  endfacet
  facet normal -1 0 -0
    outer loop
      vertex 25 -87.9817 451.515
      vertex 25 87.9817 451.515
      vertex 25 -88.073 442.428
    endloop
  endfacet
  facet normal -1 0 -0
    outer loop
      vertex 25 -87.9336 456.243
      vertex 25 87.9336 456.243
      vertex 25 -87.9817 451.515
    endloop
  endfacet
  facet normal -1 0 0
    outer loop
      vertex 25 87.9336 456.243
      vertex 25 -87.9336 456.243
      vertex 25 87.8493 463.432
    endloop
  endfacet
  facet normal -1 -0 0
    outer loop
      vertex 25 87.615 480
      vertex 25 -87.6334 478.875
      vertex 25 -87.615 480
    endloop
  endfacet
  facet normal -1 0 0
    outer loop
      vertex 25 87.6334 478.875
      vertex 25 -87.6334 478.875
      vertex 25 87.615 480
    endloop
  endfacet
  facet normal -1 0 -0
    outer loop
      vertex 25 -87.6334 478.875
      vertex 25 87.6334 478.875
      vertex 25 -87.7038 474.342
    endloop
  endfacet
  facet normal -1 0 0
    outer loop
      vertex 25 87.7038 474.342
      vertex 25 -87.7038 474.342
      vertex 25 87.6334 478.875
    endloop
  endfacet
  facet normal -1 0 -0
    outer loop
      vertex 25 -87.7038 474.342
      vertex 25 87.7038 474.342
      vertex 25 -87.7797 468.753
    endloop
  endfacet
  facet normal -1 0 0
    outer loop
      vertex 25 87.7797 468.753
      vertex 25 -87.7797 468.753
      vertex 25 87.7038 474.342
    endloop
  endfacet
  facet normal -1 0 -0
    outer loop
      vertex 25 -87.7797 468.753
      vertex 25 87.7797 468.753
      vertex 25 -87.8493 463.432
    endloop
  endfacet
  facet normal -1 0 0
    outer loop
      vertex 25 87.8493 463.432
      vertex 25 -87.8493 463.432
      vertex 25 87.7797 468.753
    endloop
  endfacet
  facet normal -1 0 -0
    outer loop
      vertex 25 -87.8493 463.432
      vertex 25 87.8493 463.432
      vertex 25 -87.9336 456.243
    endloop
  endfacet
  facet normal -1 0 0
    outer loop
      vertex 25 87.9817 451.515
      vertex 25 -87.9817 451.515
      vertex 25 87.9336 456.243
    endloop
  endfacet
  facet normal -1 0 -0
    outer loop
      vertex 25 -88.1999 427.098
      vertex 25 88.1999 427.098
      vertex 25 -88.305 412.199
    endloop
  endfacet
  facet normal -1 0 0
    outer loop
      vertex 25 88.4227 391.785
      vertex 25 -88.4227 391.785
      vertex 25 88.305 412.199
    endloop
  endfacet
  facet normal -1 0 -0
    outer loop
      vertex 25 -88.4227 391.785
      vertex 25 88.4227 391.785
      vertex 25 -88.4257 391.238
    endloop
  endfacet
  facet normal -1 0 -0
    outer loop
      vertex 25 -88.4257 391.238
      vertex 25 88.4257 391.238
      vertex 25 -88.4485 386.277
    endloop
  endfacet
  facet normal -1 -0 0
    outer loop
      vertex 25 88.4768 374.514
      vertex 25 -88.4896 368.429
      vertex 25 -88.4768 374.514
    endloop
  endfacet
  facet normal -1 -0 0
    outer loop
      vertex 25 88.4896 368.429
      vertex 25 -88.5012 361.844
      vertex 25 -88.4896 368.429
    endloop
  endfacet
  facet normal -1 0 -0
    outer loop
      vertex 25 -88.5012 361.844
      vertex 25 88.5041 360
      vertex 25 -88.5041 360
    endloop
  endfacet
  facet normal 0 0 1
    outer loop
      vertex 29.6776 86.8374 480
      vertex 30 -86.7773 480
      vertex 30 86.7773 480
    endloop
  endfacet
  facet normal 0 0 1
    outer loop
      vertex 29.6776 86.8374 480
      vertex 29.6776 -86.8374 480
      vertex 30 -86.7773 480
    endloop
  endfacet
  facet normal 0 0 1
    outer loop
      vertex 28.8069 86.9935 480
      vertex 29.6776 -86.8374 480
      vertex 29.6776 86.8374 480
    endloop
  endfacet
  facet normal 0 0 1
    outer loop
      vertex 28.8069 86.9935 480
      vertex 28.8069 -86.9935 480
      vertex 29.6776 -86.8374 480
    endloop
  endfacet
  facet normal 0 0 1
    outer loop
      vertex 27.6576 87.1885 480
      vertex 28.8069 -86.9935 480
      vertex 28.8069 86.9935 480
    endloop
  endfacet
  facet normal 0 0 1
    outer loop
      vertex 27.6576 87.1885 480
      vertex 27.6576 -87.1885 480
      vertex 28.8069 -86.9935 480
    endloop
  endfacet
  facet normal 0 0 1
    outer loop
      vertex 26.7833 87.3365 480
      vertex 27.6576 -87.1885 480
      vertex 27.6576 87.1885 480
    endloop
  endfacet
  facet normal 0 0 1
    outer loop
      vertex 26.7833 87.3365 480
      vertex 26.7833 -87.3365 480
      vertex 27.6576 -87.1885 480
    endloop
  endfacet
  facet normal 0 0 1
    outer loop
      vertex 25.9057 87.4763 480
      vertex 26.7833 -87.3365 480
      vertex 26.7833 87.3365 480
    endloop
  endfacet
  facet normal 0 0 1
    outer loop
      vertex 25.9057 87.4763 480
      vertex 25.9057 -87.4763 480
      vertex 26.7833 -87.3365 480
    endloop
  endfacet
  facet normal 0 0 1
    outer loop
      vertex 25 87.615 480
      vertex 25.9057 -87.4763 480
      vertex 25.9057 87.4763 480
    endloop
  endfacet
  facet normal 0 0 1
    outer loop
      vertex 25.9057 -87.4763 480
      vertex 25 87.615 480
      vertex 25 -87.615 480
    endloop
  endfacet
  facet normal 0 0 -1
    outer loop
      vertex 29.2537 -88.1403 360
      vertex 30 88.0676 360
      vertex 30 -88.0676 360
    endloop
  endfacet
  facet normal 0 0 -1
    outer loop
      vertex 29.2537 -88.1403 360
      vertex 29.2537 88.1403 360
      vertex 30 88.0676 360
    endloop
  endfacet
  facet normal 0 0 -1
    outer loop
      vertex 28.409 -88.2155 360
      vertex 29.2537 88.1403 360
      vertex 29.2537 -88.1403 360
    endloop
  endfacet
  facet normal 0 0 -1
    outer loop
      vertex 28.409 -88.2155 360
      vertex 28.409 88.2155 360
      vertex 29.2537 88.1403 360
    endloop
  endfacet
  facet normal 0 0 -1
    outer loop
      vertex 26.3365 -88.3981 360
      vertex 28.409 88.2155 360
      vertex 28.409 -88.2155 360
    endloop
  endfacet
  facet normal 0 0 -1
    outer loop
      vertex 26.3365 -88.3981 360
      vertex 26.3365 88.3981 360
      vertex 28.409 88.2155 360
    endloop
  endfacet
  facet normal 0 0 -1
    outer loop
      vertex 25.4905 -88.4654 360
      vertex 26.3365 88.3981 360
      vertex 26.3365 -88.3981 360
    endloop
  endfacet
  facet normal 0 0 -1
    outer loop
      vertex 25.4905 -88.4654 360
      vertex 25.4905 88.4654 360
      vertex 26.3365 88.3981 360
    endloop
  endfacet
  facet normal 0 0 -1
    outer loop
      vertex 25 -88.5041 360
      vertex 25.4905 88.4654 360
      vertex 25.4905 -88.4654 360
    endloop
  endfacet
  facet normal -0 0 -1
    outer loop
      vertex 25.4905 88.4654 360
      vertex 25 -88.5041 360
      vertex 25 88.5041 360
    endloop
  endfacet
endsolid OpenSCAD_Model
