solid OpenSCAD_Model
  facet normal 0.0970126 0.995283 -0
    outer loop
      vertex 30 88.0759 240
      vertex 29.3393 88.1403 356.53
      vertex 30 88.0759 356.53
    endloop
  endfacet
  facet normal 0.0970126 0.995283 0
    outer loop
      vertex 29.3393 88.1403 356.53
      vertex 30 88.0759 240
      vertex 29.3393 88.1403 240
    endloop
  endfacet
  facet normal 0.0877756 0.99614 -0
    outer loop
      vertex 29.3393 88.1403 240
      vertex 26.4136 88.3981 356.53
      vertex 29.3393 88.1403 356.53
    endloop
  endfacet
  facet normal 0.0877756 0.99614 0
    outer loop
      vertex 26.4136 88.3981 356.53
      vertex 29.3393 88.1403 240
      vertex 26.4136 88.3981 240
    endloop
  endfacet
  facet normal 0.0785623 0.996909 -0
    outer loop
      vertex 26.4136 88.3981 240
      vertex 25 88.5095 356.53
      vertex 26.4136 88.3981 356.53
    endloop
  endfacet
  facet normal 0.0785623 0.996909 0
    outer loop
      vertex 25 88.5095 356.53
      vertex 26.4136 88.3981 240
      vertex 25 88.5095 240
    endloop
  endfacet
  facet normal 0.0886748 0.996058 0.00218748
    outer loop
      vertex 29.3393 88.1403 356.53
      vertex 28.409 88.2155 360
      vertex 29.2537 88.1403 360
    endloop
  endfacet
  facet normal 0.0970123 0.99528 0.00238064
    outer loop
      vertex 29.3393 88.1403 356.53
      vertex 30 88.0676 360
      vertex 30 88.0759 356.53
    endloop
  endfacet
  facet normal 0.0969547 0.995286 0.00239174
    outer loop
      vertex 30 88.0676 360
      vertex 29.3393 88.1403 356.53
      vertex 29.2537 88.1403 360
    endloop
  endfacet
  facet normal 0.0793002 0.996849 0.00176197
    outer loop
      vertex 26.4136 88.3981 356.53
      vertex 25.4905 88.4654 360
      vertex 26.3365 88.3981 360
    endloop
  endfacet
  facet normal 0.0877754 0.996138 0.00194462
    outer loop
      vertex 26.4136 88.3981 356.53
      vertex 28.409 88.2155 360
      vertex 29.3393 88.1403 356.53
    endloop
  endfacet
  facet normal 0.087766 0.996139 0.00195007
    outer loop
      vertex 28.409 88.2155 360
      vertex 26.4136 88.3981 356.53
      vertex 26.3365 88.3981 360
    endloop
  endfacet
  facet normal 0.0785622 0.996908 0.00156452
    outer loop
      vertex 25 88.5095 356.53
      vertex 25.4905 88.4654 360
      vertex 26.4136 88.3981 356.53
    endloop
  endfacet
  facet normal 0.0786546 0.996901 0.00155137
    outer loop
      vertex 25.4905 88.4654 360
      vertex 25 88.5095 356.53
      vertex 25 88.5041 360
    endloop
  endfacet
  facet normal 0.0970126 -0.995283 0
    outer loop
      vertex 29.3393 -88.1403 240
      vertex 30 -88.0759 356.53
      vertex 29.3393 -88.1403 356.53
    endloop
  endfacet
  facet normal 0.0970126 -0.995283 0
    outer loop
      vertex 30 -88.0759 356.53
      vertex 29.3393 -88.1403 240
      vertex 30 -88.0759 240
    endloop
  endfacet
  facet normal 0.0877756 -0.99614 0
    outer loop
      vertex 26.4136 -88.3981 240
      vertex 29.3393 -88.1403 356.53
      vertex 26.4136 -88.3981 356.53
    endloop
  endfacet
  facet normal 0.0877756 -0.99614 0
    outer loop
      vertex 29.3393 -88.1403 356.53
      vertex 26.4136 -88.3981 240
      vertex 29.3393 -88.1403 240
    endloop
  endfacet
  facet normal 0.0785623 -0.996909 0
    outer loop
      vertex 25 -88.5095 240
      vertex 26.4136 -88.3981 356.53
      vertex 25 -88.5095 356.53
    endloop
  endfacet
  facet normal 0.0785623 -0.996909 0
    outer loop
      vertex 26.4136 -88.3981 356.53
      vertex 25 -88.5095 240
      vertex 26.4136 -88.3981 240
    endloop
  endfacet
  facet normal 0.0886748 -0.996058 0.00218748
    outer loop
      vertex 29.3393 -88.1403 356.53
      vertex 29.2537 -88.1403 360
      vertex 28.409 -88.2155 360
    endloop
  endfacet
  facet normal 0.0969547 -0.995286 0.00239174
    outer loop
      vertex 29.3393 -88.1403 356.53
      vertex 30 -88.0676 360
      vertex 29.2537 -88.1403 360
    endloop
  endfacet
  facet normal 0.0970123 -0.99528 0.00238064
    outer loop
      vertex 30 -88.0676 360
      vertex 29.3393 -88.1403 356.53
      vertex 30 -88.0759 356.53
    endloop
  endfacet
  facet normal 0.0793002 -0.996849 0.00176197
    outer loop
      vertex 26.4136 -88.3981 356.53
      vertex 26.3365 -88.3981 360
      vertex 25.4905 -88.4654 360
    endloop
  endfacet
  facet normal 0.087766 -0.996139 0.00195007
    outer loop
      vertex 26.4136 -88.3981 356.53
      vertex 28.409 -88.2155 360
      vertex 26.3365 -88.3981 360
    endloop
  endfacet
  facet normal 0.0877754 -0.996138 0.00194462
    outer loop
      vertex 28.409 -88.2155 360
      vertex 26.4136 -88.3981 356.53
      vertex 29.3393 -88.1403 356.53
    endloop
  endfacet
  facet normal 0.0786546 -0.996901 0.00155137
    outer loop
      vertex 25 -88.5095 356.53
      vertex 25.4905 -88.4654 360
      vertex 25 -88.5041 360
    endloop
  endfacet
  facet normal 0.0785622 -0.996908 0.00156452
    outer loop
      vertex 25.4905 -88.4654 360
      vertex 25 -88.5095 356.53
      vertex 26.4136 -88.3981 356.53
    endloop
  endfacet
  facet normal 1 0 0
    outer loop
      vertex 30 88.0759 356.53
      vertex 30 49.8481 316.736
      vertex 30 50 315
    endloop
  endfacet
  facet normal 1 0 0
    outer loop
      vertex 30 88.0759 356.53
      vertex 30 49.3969 318.42
      vertex 30 49.8481 316.736
    endloop
  endfacet
  facet normal 1 0 0
    outer loop
      vertex 30 88.0759 356.53
      vertex 30 48.6603 320
      vertex 30 49.3969 318.42
    endloop
  endfacet
  facet normal 1 0 0
    outer loop
      vertex 30 88.0759 356.53
      vertex 30 47.6604 321.428
      vertex 30 48.6603 320
    endloop
  endfacet
  facet normal 1 0 0
    outer loop
      vertex 30 88.0759 356.53
      vertex 30 46.4279 322.66
      vertex 30 47.6604 321.428
    endloop
  endfacet
  facet normal 1 0 0
    outer loop
      vertex 30 88.0759 356.53
      vertex 30 45 323.66
      vertex 30 46.4279 322.66
    endloop
  endfacet
  facet normal 1 0 0
    outer loop
      vertex 30 88.0759 356.53
      vertex 30 43.4202 324.397
      vertex 30 45 323.66
    endloop
  endfacet
  facet normal 1 0 0
    outer loop
      vertex 30 88.0676 360
      vertex 30 41.7365 324.848
      vertex 30 43.4202 324.397
    endloop
  endfacet
  facet normal 1 0 0
    outer loop
      vertex 30 88.0676 360
      vertex 30 40 325
      vertex 30 41.7365 324.848
    endloop
  endfacet
  facet normal 1 0 0
    outer loop
      vertex 30 88.0676 360
      vertex 30 -40 325
      vertex 30 40 325
    endloop
  endfacet
  facet normal 1 -0 0
    outer loop
      vertex 30 -88.0676 360
      vertex 30 -40 325
      vertex 30 88.0676 360
    endloop
  endfacet
  facet normal 1 0 0
    outer loop
      vertex 30 -40 325
      vertex 30 -88.0676 360
      vertex 30 -41.7365 324.848
    endloop
  endfacet
  facet normal 1 0 0
    outer loop
      vertex 30 -41.7365 324.848
      vertex 30 -88.0676 360
      vertex 30 -43.4202 324.397
    endloop
  endfacet
  facet normal 1 -0 0
    outer loop
      vertex 30 -88.0759 356.53
      vertex 30 -43.4202 324.397
      vertex 30 -88.0676 360
    endloop
  endfacet
  facet normal 1 0 0
    outer loop
      vertex 30 -43.4202 324.397
      vertex 30 -88.0759 356.53
      vertex 30 -45 323.66
    endloop
  endfacet
  facet normal 1 0 0
    outer loop
      vertex 30 -45 323.66
      vertex 30 -88.0759 356.53
      vertex 30 -46.4279 322.66
    endloop
  endfacet
  facet normal 1 0 0
    outer loop
      vertex 30 -46.4279 322.66
      vertex 30 -88.0759 356.53
      vertex 30 -47.6604 321.428
    endloop
  endfacet
  facet normal 1 0 0
    outer loop
      vertex 30 -47.6604 321.428
      vertex 30 -88.0759 356.53
      vertex 30 -48.6603 320
    endloop
  endfacet
  facet normal 1 0 0
    outer loop
      vertex 30 -48.6603 320
      vertex 30 -88.0759 356.53
      vertex 30 -49.3969 318.42
    endloop
  endfacet
  facet normal 1 0 0
    outer loop
      vertex 30 -49.3969 318.42
      vertex 30 -88.0759 356.53
      vertex 30 -49.8481 316.736
    endloop
  endfacet
  facet normal 1 0 0
    outer loop
      vertex 30 -49.8481 316.736
      vertex 30 -88.0759 356.53
      vertex 30 -50 315
    endloop
  endfacet
  facet normal 1 0 0
    outer loop
      vertex 30 -88.0759 240
      vertex 30 -50 315
      vertex 30 -88.0759 356.53
    endloop
  endfacet
  facet normal 1 0 0
    outer loop
      vertex 30 -50 315
      vertex 30 -88.0759 240
      vertex 30 -50 240
    endloop
  endfacet
  facet normal 1 0 0
    outer loop
      vertex 30 43.4202 324.397
      vertex 30 88.0759 356.53
      vertex 30 88.0676 360
    endloop
  endfacet
  facet normal 1 0 0
    outer loop
      vertex 30 88.0759 356.53
      vertex 30 50 315
      vertex 30 88.0759 240
    endloop
  endfacet
  facet normal 1 0 0
    outer loop
      vertex 30 88.0759 240
      vertex 30 50 315
      vertex 30 50 240
    endloop
  endfacet
  facet normal -1 0 0
    outer loop
      vertex 25 -88.5095 240
      vertex 25 -50 315
      vertex 25 -50 240
    endloop
  endfacet
  facet normal -1 -0 0
    outer loop
      vertex 25 -50 315
      vertex 25 -88.5095 240
      vertex 25 -88.5095 356.53
    endloop
  endfacet
  facet normal -1 0 0
    outer loop
      vertex 25 -50 315
      vertex 25 -88.5095 356.53
      vertex 25 -88.5041 360
    endloop
  endfacet
  facet normal -1 0 0
    outer loop
      vertex 25 50 315
      vertex 25 88.5095 356.53
      vertex 25 88.5095 240
    endloop
  endfacet
  facet normal -1 0 0
    outer loop
      vertex 25 50 315
      vertex 25 88.5095 240
      vertex 25 50 240
    endloop
  endfacet
  facet normal -1 0 0
    outer loop
      vertex 25 49.8481 316.736
      vertex 25 88.5095 356.53
      vertex 25 50 315
    endloop
  endfacet
  facet normal -1 0 0
    outer loop
      vertex 25 49.3969 318.42
      vertex 25 88.5095 356.53
      vertex 25 49.8481 316.736
    endloop
  endfacet
  facet normal -1 0 0
    outer loop
      vertex 25 48.6603 320
      vertex 25 88.5095 356.53
      vertex 25 49.3969 318.42
    endloop
  endfacet
  facet normal -1 0 0
    outer loop
      vertex 25 47.6604 321.428
      vertex 25 88.5095 356.53
      vertex 25 48.6603 320
    endloop
  endfacet
  facet normal -1 0 0
    outer loop
      vertex 25 46.4279 322.66
      vertex 25 88.5095 356.53
      vertex 25 47.6604 321.428
    endloop
  endfacet
  facet normal -1 0 0
    outer loop
      vertex 25 45 323.66
      vertex 25 88.5095 356.53
      vertex 25 46.4279 322.66
    endloop
  endfacet
  facet normal -1 0 0
    outer loop
      vertex 25 43.4202 324.397
      vertex 25 88.5095 356.53
      vertex 25 45 323.66
    endloop
  endfacet
  facet normal -1 -0 0
    outer loop
      vertex 25 88.5095 356.53
      vertex 25 43.4202 324.397
      vertex 25 88.5041 360
    endloop
  endfacet
  facet normal -1 0 0
    outer loop
      vertex 25 41.7365 324.848
      vertex 25 88.5041 360
      vertex 25 43.4202 324.397
    endloop
  endfacet
  facet normal -1 0 0
    outer loop
      vertex 25 40 325
      vertex 25 88.5041 360
      vertex 25 41.7365 324.848
    endloop
  endfacet
  facet normal -1 0 0
    outer loop
      vertex 25 -40 325
      vertex 25 88.5041 360
      vertex 25 40 325
    endloop
  endfacet
  facet normal -1 0 0
    outer loop
      vertex 25 -88.5041 360
      vertex 25 -40 325
      vertex 25 -41.7365 324.848
    endloop
  endfacet
  facet normal -1 0 0
    outer loop
      vertex 25 -88.5041 360
      vertex 25 -41.7365 324.848
      vertex 25 -43.4202 324.397
    endloop
  endfacet
  facet normal -1 0 0
    outer loop
      vertex 25 -40 325
      vertex 25 -88.5041 360
      vertex 25 88.5041 360
    endloop
  endfacet
  facet normal -1 0 0
    outer loop
      vertex 25 -45 323.66
      vertex 25 -88.5041 360
      vertex 25 -43.4202 324.397
    endloop
  endfacet
  facet normal -1 0 0
    outer loop
      vertex 25 -46.4279 322.66
      vertex 25 -88.5041 360
      vertex 25 -45 323.66
    endloop
  endfacet
  facet normal -1 0 0
    outer loop
      vertex 25 -47.6604 321.428
      vertex 25 -88.5041 360
      vertex 25 -46.4279 322.66
    endloop
  endfacet
  facet normal -1 0 0
    outer loop
      vertex 25 -48.6603 320
      vertex 25 -88.5041 360
      vertex 25 -47.6604 321.428
    endloop
  endfacet
  facet normal -1 0 0
    outer loop
      vertex 25 -49.3969 318.42
      vertex 25 -88.5041 360
      vertex 25 -48.6603 320
    endloop
  endfacet
  facet normal -1 0 0
    outer loop
      vertex 25 -49.8481 316.736
      vertex 25 -88.5041 360
      vertex 25 -49.3969 318.42
    endloop
  endfacet
  facet normal -1 0 0
    outer loop
      vertex 25 -88.5041 360
      vertex 25 -49.8481 316.736
      vertex 25 -50 315
    endloop
  endfacet
  facet normal 0 -0.258741 -0.965947
    outer loop
      vertex 25 41.7365 324.848
      vertex 30 43.4202 324.397
      vertex 30 41.7365 324.848
    endloop
  endfacet
  facet normal -0 -0.258741 -0.965947
    outer loop
      vertex 30 43.4202 324.397
      vertex 25 41.7365 324.848
      vertex 25 43.4202 324.397
    endloop
  endfacet
  facet normal 0 0.258741 -0.965947
    outer loop
      vertex 25 -43.4202 324.397
      vertex 30 -41.7365 324.848
      vertex 30 -43.4202 324.397
    endloop
  endfacet
  facet normal 0 0.258741 -0.965947
    outer loop
      vertex 30 -41.7365 324.848
      vertex 25 -43.4202 324.397
      vertex 25 -41.7365 324.848
    endloop
  endfacet
  facet normal 0 -0.906344 -0.42254
    outer loop
      vertex 25 49.3969 318.42
      vertex 30 48.6603 320
      vertex 25 48.6603 320
    endloop
  endfacet
  facet normal 0 -0.906344 -0.42254
    outer loop
      vertex 30 48.6603 320
      vertex 25 49.3969 318.42
      vertex 30 49.3969 318.42
    endloop
  endfacet
  facet normal 0 -0.996194 -0.087167
    outer loop
      vertex 25 50 315
      vertex 30 49.8481 316.736
      vertex 25 49.8481 316.736
    endloop
  endfacet
  facet normal 0 -0.996194 -0.087167
    outer loop
      vertex 30 49.8481 316.736
      vertex 25 50 315
      vertex 30 50 315
    endloop
  endfacet
  facet normal 0 0 -1
    outer loop
      vertex 25 -40 325
      vertex 30 40 325
      vertex 30 -40 325
    endloop
  endfacet
  facet normal -0 0 -1
    outer loop
      vertex 30 40 325
      vertex 25 -40 325
      vertex 25 40 325
    endloop
  endfacet
  facet normal 0 1 -0
    outer loop
      vertex 30 -50 240
      vertex 25 -50 315
      vertex 30 -50 315
    endloop
  endfacet
  facet normal 0 1 0
    outer loop
      vertex 25 -50 315
      vertex 30 -50 240
      vertex 25 -50 240
    endloop
  endfacet
  facet normal 0 0.087199 -0.996191
    outer loop
      vertex 25 -41.7365 324.848
      vertex 30 -40 325
      vertex 30 -41.7365 324.848
    endloop
  endfacet
  facet normal 0 0.087199 -0.996191
    outer loop
      vertex 30 -40 325
      vertex 25 -41.7365 324.848
      vertex 25 -40 325
    endloop
  endfacet
  facet normal 0 -0.422772 -0.906236
    outer loop
      vertex 25 43.4202 324.397
      vertex 30 45 323.66
      vertex 30 43.4202 324.397
    endloop
  endfacet
  facet normal -0 -0.422772 -0.906236
    outer loop
      vertex 30 45 323.66
      vertex 25 43.4202 324.397
      vertex 25 45 323.66
    endloop
  endfacet
  facet normal 0 -1 0
    outer loop
      vertex 25 50 240
      vertex 30 50 315
      vertex 25 50 315
    endloop
  endfacet
  facet normal 0 -1 -0
    outer loop
      vertex 30 50 315
      vertex 25 50 240
      vertex 30 50 240
    endloop
  endfacet
  facet normal 0 -0.573643 -0.819105
    outer loop
      vertex 25 45 323.66
      vertex 30 46.4279 322.66
      vertex 30 45 323.66
    endloop
  endfacet
  facet normal -0 -0.573643 -0.819105
    outer loop
      vertex 30 46.4279 322.66
      vertex 25 45 323.66
      vertex 25 46.4279 322.66
    endloop
  endfacet
  facet normal 0 0.96593 -0.258805
    outer loop
      vertex 30 -49.8481 316.736
      vertex 25 -49.3969 318.42
      vertex 30 -49.3969 318.42
    endloop
  endfacet
  facet normal 0 0.96593 -0.258805
    outer loop
      vertex 25 -49.3969 318.42
      vertex 30 -49.8481 316.736
      vertex 25 -49.8481 316.736
    endloop
  endfacet
  facet normal 0 0.996194 -0.087167
    outer loop
      vertex 30 -50 315
      vertex 25 -49.8481 316.736
      vertex 30 -49.8481 316.736
    endloop
  endfacet
  facet normal 0 0.996194 -0.087167
    outer loop
      vertex 25 -49.8481 316.736
      vertex 30 -50 315
      vertex 25 -50 315
    endloop
  endfacet
  facet normal 0 -0.706963 -0.70725
    outer loop
      vertex 25 46.4279 322.66
      vertex 30 47.6604 321.428
      vertex 30 46.4279 322.66
    endloop
  endfacet
  facet normal -0 -0.706963 -0.70725
    outer loop
      vertex 30 47.6604 321.428
      vertex 25 46.4279 322.66
      vertex 25 47.6604 321.428
    endloop
  endfacet
  facet normal 0 0.573643 -0.819105
    outer loop
      vertex 25 -46.4279 322.66
      vertex 30 -45 323.66
      vertex 30 -46.4279 322.66
    endloop
  endfacet
  facet normal 0 0.573643 -0.819105
    outer loop
      vertex 30 -45 323.66
      vertex 25 -46.4279 322.66
      vertex 25 -45 323.66
    endloop
  endfacet
  facet normal 0 0.422772 -0.906236
    outer loop
      vertex 25 -45 323.66
      vertex 30 -43.4202 324.397
      vertex 30 -45 323.66
    endloop
  endfacet
  facet normal 0 0.422772 -0.906236
    outer loop
      vertex 30 -43.4202 324.397
      vertex 25 -45 323.66
      vertex 25 -43.4202 324.397
    endloop
  endfacet
  facet normal 0 -0.819151 -0.573578
    outer loop
      vertex 25 48.6603 320
      vertex 30 47.6604 321.428
      vertex 25 47.6604 321.428
    endloop
  endfacet
  facet normal 0 -0.819151 -0.573578
    outer loop
      vertex 30 47.6604 321.428
      vertex 25 48.6603 320
      vertex 30 48.6603 320
    endloop
  endfacet
  facet normal 0 -0.087199 -0.996191
    outer loop
      vertex 25 40 325
      vertex 30 41.7365 324.848
      vertex 30 40 325
    endloop
  endfacet
  facet normal -0 -0.087199 -0.996191
    outer loop
      vertex 30 41.7365 324.848
      vertex 25 40 325
      vertex 25 41.7365 324.848
    endloop
  endfacet
  facet normal 0 0.706963 -0.70725
    outer loop
      vertex 25 -47.6604 321.428
      vertex 30 -46.4279 322.66
      vertex 30 -47.6604 321.428
    endloop
  endfacet
  facet normal 0 0.706963 -0.70725
    outer loop
      vertex 30 -46.4279 322.66
      vertex 25 -47.6604 321.428
      vertex 25 -46.4279 322.66
    endloop
  endfacet
  facet normal 0 0.906344 -0.42254
    outer loop
      vertex 30 -49.3969 318.42
      vertex 25 -48.6603 320
      vertex 30 -48.6603 320
    endloop
  endfacet
  facet normal 0 0.906344 -0.42254
    outer loop
      vertex 25 -48.6603 320
      vertex 30 -49.3969 318.42
      vertex 25 -49.3969 318.42
    endloop
  endfacet
  facet normal 0 0.819151 -0.573578
    outer loop
      vertex 30 -48.6603 320
      vertex 25 -47.6604 321.428
      vertex 30 -47.6604 321.428
    endloop
  endfacet
  facet normal 0 0.819151 -0.573578
    outer loop
      vertex 25 -47.6604 321.428
      vertex 30 -48.6603 320
      vertex 25 -48.6603 320
    endloop
  endfacet
  facet normal 0 -0.96593 -0.258805
    outer loop
      vertex 25 49.8481 316.736
      vertex 30 49.3969 318.42
      vertex 25 49.3969 318.42
    endloop
  endfacet
  facet normal 0 -0.96593 -0.258805
    outer loop
      vertex 30 49.3969 318.42
      vertex 25 49.8481 316.736
      vertex 30 49.8481 316.736
    endloop
  endfacet
  facet normal 0 0 1
    outer loop
      vertex 29.2537 88.1403 360
      vertex 30 -88.0676 360
      vertex 30 88.0676 360
    endloop
  endfacet
  facet normal 0 0 1
    outer loop
      vertex 29.2537 88.1403 360
      vertex 29.2537 -88.1403 360
      vertex 30 -88.0676 360
    endloop
  endfacet
  facet normal 0 0 1
    outer loop
      vertex 28.409 88.2155 360
      vertex 29.2537 -88.1403 360
      vertex 29.2537 88.1403 360
    endloop
  endfacet
  facet normal 0 0 1
    outer loop
      vertex 28.409 88.2155 360
      vertex 28.409 -88.2155 360
      vertex 29.2537 -88.1403 360
    endloop
  endfacet
  facet normal 0 0 1
    outer loop
      vertex 26.3365 88.3981 360
      vertex 28.409 -88.2155 360
      vertex 28.409 88.2155 360
    endloop
  endfacet
  facet normal 0 0 1
    outer loop
      vertex 26.3365 88.3981 360
      vertex 26.3365 -88.3981 360
      vertex 28.409 -88.2155 360
    endloop
  endfacet
  facet normal 0 0 1
    outer loop
      vertex 25.4905 88.4654 360
      vertex 26.3365 -88.3981 360
      vertex 26.3365 88.3981 360
    endloop
  endfacet
  facet normal 0 0 1
    outer loop
      vertex 25.4905 88.4654 360
      vertex 25.4905 -88.4654 360
      vertex 26.3365 -88.3981 360
    endloop
  endfacet
  facet normal 0 0 1
    outer loop
      vertex 25 88.5041 360
      vertex 25.4905 -88.4654 360
      vertex 25.4905 88.4654 360
    endloop
  endfacet
  facet normal 0 0 1
    outer loop
      vertex 25.4905 -88.4654 360
      vertex 25 88.5041 360
      vertex 25 -88.5041 360
    endloop
  endfacet
  facet normal 0 0 -1
    outer loop
      vertex 30 50 240
      vertex 29.3393 88.1403 240
      vertex 30 88.0759 240
    endloop
  endfacet
  facet normal 0 0 -1
    outer loop
      vertex 25 50 240
      vertex 29.3393 88.1403 240
      vertex 30 50 240
    endloop
  endfacet
  facet normal -0 0 -1
    outer loop
      vertex 29.3393 88.1403 240
      vertex 25 50 240
      vertex 26.4136 88.3981 240
    endloop
  endfacet
  facet normal -0 0 -1
    outer loop
      vertex 26.4136 88.3981 240
      vertex 25 50 240
      vertex 25 88.5095 240
    endloop
  endfacet
  facet normal 0 0 -1
    outer loop
      vertex 29.3393 -88.1403 240
      vertex 30 -50 240
      vertex 30 -88.0759 240
    endloop
  endfacet
  facet normal 0 0 -1
    outer loop
      vertex 25 -50 240
      vertex 29.3393 -88.1403 240
      vertex 26.4136 -88.3981 240
    endloop
  endfacet
  facet normal 0 0 -1
    outer loop
      vertex 25 -50 240
      vertex 26.4136 -88.3981 240
      vertex 25 -88.5095 240
    endloop
  endfacet
  facet normal 0 0 -1
    outer loop
      vertex 29.3393 -88.1403 240
      vertex 25 -50 240
      vertex 30 -50 240
    endloop
  endfacet
endsolid OpenSCAD_Model
