solid OpenSCAD_Model
  facet normal 0.0872073 -0.99619 0
    outer loop
      vertex 65.5 -27.5 2.5
      vertex 66.0209 -27.4544 2.71
      vertex 65.5 -27.5 2.71
    endloop
  endfacet
  facet normal 0.0872073 -0.99619 0
    outer loop
      vertex 66.0209 -27.4544 2.71
      vertex 65.5 -27.5 2.5
      vertex 66.0209 -27.4544 2.5
    endloop
  endfacet
  facet normal 0 1 -0
    outer loop
      vertex 65.5 27.5 2.5
      vertex -65.5 27.5 2.71
      vertex 65.5 27.5 2.71
    endloop
  endfacet
  facet normal 0 1 0
    outer loop
      vertex -65.5 27.5 2.71
      vertex 65.5 27.5 2.5
      vertex -65.5 27.5 2.5
    endloop
  endfacet
  facet normal -0.0872073 -0.99619 0
    outer loop
      vertex -66.0209 -27.4544 2.5
      vertex -65.5 -27.5 2.71
      vertex -66.0209 -27.4544 2.71
    endloop
  endfacet
  facet normal -0.0872073 -0.99619 -0
    outer loop
      vertex -65.5 -27.5 2.71
      vertex -66.0209 -27.4544 2.5
      vertex -65.5 -27.5 2.5
    endloop
  endfacet
  facet normal 0.707107 -0.707107 0
    outer loop
      vertex 67.4284 -26.7981 2.5
      vertex 67.7981 -26.4284 2.71
      vertex 67.4284 -26.7981 2.71
    endloop
  endfacet
  facet normal 0.707107 -0.707107 0
    outer loop
      vertex 67.7981 -26.4284 2.71
      vertex 67.4284 -26.7981 2.5
      vertex 67.7981 -26.4284 2.5
    endloop
  endfacet
  facet normal 0.422645 0.906295 -0
    outer loop
      vertex 67 27.0981 2.5
      vertex 66.5261 27.3191 2.71
      vertex 67 27.0981 2.71
    endloop
  endfacet
  facet normal 0.422645 0.906295 0
    outer loop
      vertex 66.5261 27.3191 2.71
      vertex 67 27.0981 2.5
      vertex 66.5261 27.3191 2.5
    endloop
  endfacet
  facet normal -0.906295 0.422645 0
    outer loop
      vertex -68.3191 25.5261 2.5
      vertex -68.0981 26 2.71
      vertex -68.0981 26 2.5
    endloop
  endfacet
  facet normal -0.906295 0.422645 0
    outer loop
      vertex -68.0981 26 2.71
      vertex -68.3191 25.5261 2.5
      vertex -68.3191 25.5261 2.71
    endloop
  endfacet
  facet normal 0.819124 0.573616 0
    outer loop
      vertex 68.0981 26 2.71
      vertex 67.7981 26.4284 2.5
      vertex 67.7981 26.4284 2.71
    endloop
  endfacet
  facet normal 0.819124 0.573616 0
    outer loop
      vertex 67.7981 26.4284 2.5
      vertex 68.0981 26 2.71
      vertex 68.0981 26 2.5
    endloop
  endfacet
  facet normal 0.258698 0.965958 -0
    outer loop
      vertex 66.5261 27.3191 2.5
      vertex 66.0209 27.4544 2.71
      vertex 66.5261 27.3191 2.71
    endloop
  endfacet
  facet normal 0.258698 0.965958 0
    outer loop
      vertex 66.0209 27.4544 2.71
      vertex 66.5261 27.3191 2.5
      vertex 66.0209 27.4544 2.5
    endloop
  endfacet
  facet normal -1 0 0
    outer loop
      vertex -68.5 -24.5 2.5
      vertex -68.5 24.5 2.71
      vertex -68.5 24.5 2.5
    endloop
  endfacet
  facet normal -1 -0 0
    outer loop
      vertex -68.5 24.5 2.71
      vertex -68.5 -24.5 2.5
      vertex -68.5 -24.5 2.71
    endloop
  endfacet
  facet normal 0.965958 -0.258698 0
    outer loop
      vertex 68.3191 -25.5261 2.71
      vertex 68.4544 -25.0209 2.5
      vertex 68.4544 -25.0209 2.71
    endloop
  endfacet
  facet normal 0.965958 -0.258698 0
    outer loop
      vertex 68.4544 -25.0209 2.5
      vertex 68.3191 -25.5261 2.71
      vertex 68.3191 -25.5261 2.5
    endloop
  endfacet
  facet normal 1 -0 0
    outer loop
      vertex 68.5 -24.5 2.71
      vertex 68.5 24.5 2.5
      vertex 68.5 24.5 2.71
    endloop
  endfacet
  facet normal 1 0 0
    outer loop
      vertex 68.5 24.5 2.5
      vertex 68.5 -24.5 2.71
      vertex 68.5 -24.5 2.5
    endloop
  endfacet
  facet normal 0.819124 -0.573616 0
    outer loop
      vertex 67.7981 -26.4284 2.71
      vertex 68.0981 -26 2.5
      vertex 68.0981 -26 2.71
    endloop
  endfacet
  facet normal 0.819124 -0.573616 0
    outer loop
      vertex 68.0981 -26 2.5
      vertex 67.7981 -26.4284 2.71
      vertex 67.7981 -26.4284 2.5
    endloop
  endfacet
  facet normal 0.965958 0.258698 0
    outer loop
      vertex 68.4544 25.0209 2.71
      vertex 68.3191 25.5261 2.5
      vertex 68.3191 25.5261 2.71
    endloop
  endfacet
  facet normal 0.965958 0.258698 0
    outer loop
      vertex 68.3191 25.5261 2.5
      vertex 68.4544 25.0209 2.71
      vertex 68.4544 25.0209 2.5
    endloop
  endfacet
  facet normal 0 -1 0
    outer loop
      vertex -65.5 -27.5 2.5
      vertex 65.5 -27.5 2.71
      vertex -65.5 -27.5 2.71
    endloop
  endfacet
  facet normal 0 -1 -0
    outer loop
      vertex 65.5 -27.5 2.71
      vertex -65.5 -27.5 2.5
      vertex 65.5 -27.5 2.5
    endloop
  endfacet
  facet normal -0.0872073 0.99619 0
    outer loop
      vertex -65.5 27.5 2.5
      vertex -66.0209 27.4544 2.71
      vertex -65.5 27.5 2.71
    endloop
  endfacet
  facet normal -0.0872073 0.99619 0
    outer loop
      vertex -66.0209 27.4544 2.71
      vertex -65.5 27.5 2.5
      vertex -66.0209 27.4544 2.5
    endloop
  endfacet
  facet normal -0.99619 0.0872073 0
    outer loop
      vertex -68.5 24.5 2.5
      vertex -68.4544 25.0209 2.71
      vertex -68.4544 25.0209 2.5
    endloop
  endfacet
  facet normal -0.99619 0.0872073 0
    outer loop
      vertex -68.4544 25.0209 2.71
      vertex -68.5 24.5 2.5
      vertex -68.5 24.5 2.71
    endloop
  endfacet
  facet normal -0.258698 -0.965958 0
    outer loop
      vertex -66.5261 -27.3191 2.5
      vertex -66.0209 -27.4544 2.71
      vertex -66.5261 -27.3191 2.71
    endloop
  endfacet
  facet normal -0.258698 -0.965958 -0
    outer loop
      vertex -66.0209 -27.4544 2.71
      vertex -66.5261 -27.3191 2.5
      vertex -66.0209 -27.4544 2.5
    endloop
  endfacet
  facet normal -0.422645 -0.906295 0
    outer loop
      vertex -67 -27.0981 2.5
      vertex -66.5261 -27.3191 2.71
      vertex -67 -27.0981 2.71
    endloop
  endfacet
  facet normal -0.422645 -0.906295 -0
    outer loop
      vertex -66.5261 -27.3191 2.71
      vertex -67 -27.0981 2.5
      vertex -66.5261 -27.3191 2.5
    endloop
  endfacet
  facet normal 0.99619 -0.0872073 0
    outer loop
      vertex 68.4544 -25.0209 2.71
      vertex 68.5 -24.5 2.5
      vertex 68.5 -24.5 2.71
    endloop
  endfacet
  facet normal 0.99619 -0.0872073 0
    outer loop
      vertex 68.5 -24.5 2.5
      vertex 68.4544 -25.0209 2.71
      vertex 68.4544 -25.0209 2.5
    endloop
  endfacet
  facet normal -0.258698 0.965958 0
    outer loop
      vertex -66.0209 27.4544 2.5
      vertex -66.5261 27.3191 2.71
      vertex -66.0209 27.4544 2.71
    endloop
  endfacet
  facet normal -0.258698 0.965958 0
    outer loop
      vertex -66.5261 27.3191 2.71
      vertex -66.0209 27.4544 2.5
      vertex -66.5261 27.3191 2.5
    endloop
  endfacet
  facet normal -0.965958 -0.258698 0
    outer loop
      vertex -68.3191 -25.5261 2.5
      vertex -68.4544 -25.0209 2.71
      vertex -68.4544 -25.0209 2.5
    endloop
  endfacet
  facet normal -0.965958 -0.258698 0
    outer loop
      vertex -68.4544 -25.0209 2.71
      vertex -68.3191 -25.5261 2.5
      vertex -68.3191 -25.5261 2.71
    endloop
  endfacet
  facet normal 0.99619 0.0872073 0
    outer loop
      vertex 68.5 24.5 2.71
      vertex 68.4544 25.0209 2.5
      vertex 68.4544 25.0209 2.71
    endloop
  endfacet
  facet normal 0.99619 0.0872073 0
    outer loop
      vertex 68.4544 25.0209 2.5
      vertex 68.5 24.5 2.71
      vertex 68.5 24.5 2.5
    endloop
  endfacet
  facet normal 0.0872073 0.99619 -0
    outer loop
      vertex 66.0209 27.4544 2.5
      vertex 65.5 27.5 2.71
      vertex 66.0209 27.4544 2.71
    endloop
  endfacet
  facet normal 0.0872073 0.99619 0
    outer loop
      vertex 65.5 27.5 2.71
      vertex 66.0209 27.4544 2.5
      vertex 65.5 27.5 2.5
    endloop
  endfacet
  facet normal -0 0 1
    outer loop
      vertex 67.5691 24.7761 2.71
      vertex 68.5 24.5 2.71
      vertex 68.4544 25.0209 2.71
    endloop
  endfacet
  facet normal 0 0 1
    outer loop
      vertex 68.5 24.5 2.71
      vertex 67.75 23.75 2.71
      vertex 68.5 -24.5 2.71
    endloop
  endfacet
  facet normal 0 0 1
    outer loop
      vertex 67.5691 24.7761 2.71
      vertex 68.4544 25.0209 2.71
      vertex 68.3191 25.5261 2.71
    endloop
  endfacet
  facet normal -0 0 1
    outer loop
      vertex 67.75 -23.75 2.71
      vertex 68.5 -24.5 2.71
      vertex 67.75 23.75 2.71
    endloop
  endfacet
  facet normal 0 0 1
    outer loop
      vertex 67.3481 25.25 2.71
      vertex 68.3191 25.5261 2.71
      vertex 68.0981 26 2.71
    endloop
  endfacet
  facet normal -0 0 1
    outer loop
      vertex 67.7044 -24.2709 2.71
      vertex 68.5 -24.5 2.71
      vertex 67.75 -23.75 2.71
    endloop
  endfacet
  facet normal 0 0 1
    outer loop
      vertex 67.0481 25.6784 2.71
      vertex 68.0981 26 2.71
      vertex 67.7981 26.4284 2.71
    endloop
  endfacet
  facet normal 0 0 1
    outer loop
      vertex 67.5691 -24.7761 2.71
      vertex 68.5 -24.5 2.71
      vertex 67.7044 -24.2709 2.71
    endloop
  endfacet
  facet normal 0 0 1
    outer loop
      vertex 68.5 -24.5 2.71
      vertex 67.5691 -24.7761 2.71
      vertex 68.4544 -25.0209 2.71
    endloop
  endfacet
  facet normal 0 0 1
    outer loop
      vertex 68.5 24.5 2.71
      vertex 67.7044 24.2709 2.71
      vertex 67.75 23.75 2.71
    endloop
  endfacet
  facet normal 0 0 1
    outer loop
      vertex 68.5 24.5 2.71
      vertex 67.5691 24.7761 2.71
      vertex 67.7044 24.2709 2.71
    endloop
  endfacet
  facet normal 0 0 1
    outer loop
      vertex 67.0481 25.6784 2.71
      vertex 67.7981 26.4284 2.71
      vertex 67.4284 26.7981 2.71
    endloop
  endfacet
  facet normal 0 0 1
    outer loop
      vertex 68.3191 25.5261 2.71
      vertex 67.3481 25.25 2.71
      vertex 67.5691 24.7761 2.71
    endloop
  endfacet
  facet normal 0 0 1
    outer loop
      vertex 68.0981 26 2.71
      vertex 67.0481 25.6784 2.71
      vertex 67.3481 25.25 2.71
    endloop
  endfacet
  facet normal 0 0 1
    outer loop
      vertex 66.6784 26.0481 2.71
      vertex 67.4284 26.7981 2.71
      vertex 67 27.0981 2.71
    endloop
  endfacet
  facet normal 0 0 1
    outer loop
      vertex 67.4284 26.7981 2.71
      vertex 66.6784 26.0481 2.71
      vertex 67.0481 25.6784 2.71
    endloop
  endfacet
  facet normal 0 0 1
    outer loop
      vertex 66.25 26.3481 2.71
      vertex 67 27.0981 2.71
      vertex 66.5261 27.3191 2.71
    endloop
  endfacet
  facet normal 0 0 1
    outer loop
      vertex 67 27.0981 2.71
      vertex 66.25 26.3481 2.71
      vertex 66.6784 26.0481 2.71
    endloop
  endfacet
  facet normal 0 0 1
    outer loop
      vertex 65.7761 26.5691 2.71
      vertex 66.5261 27.3191 2.71
      vertex 66.0209 27.4544 2.71
    endloop
  endfacet
  facet normal 0 0 1
    outer loop
      vertex 66.5261 27.3191 2.71
      vertex 65.7761 26.5691 2.71
      vertex 66.25 26.3481 2.71
    endloop
  endfacet
  facet normal 0 0 1
    outer loop
      vertex 65.5 27.5 2.71
      vertex 65.7761 26.5691 2.71
      vertex 66.0209 27.4544 2.71
    endloop
  endfacet
  facet normal 0 0 1
    outer loop
      vertex 65.5 27.5 2.71
      vertex 65.2709 26.7044 2.71
      vertex 65.7761 26.5691 2.71
    endloop
  endfacet
  facet normal 0 0 1
    outer loop
      vertex 65.5 27.5 2.71
      vertex 64.75 26.75 2.71
      vertex 65.2709 26.7044 2.71
    endloop
  endfacet
  facet normal 0 0 1
    outer loop
      vertex 65.5 27.5 2.71
      vertex -64.75 26.75 2.71
      vertex 64.75 26.75 2.71
    endloop
  endfacet
  facet normal -0 0 1
    outer loop
      vertex -65.5 27.5 2.71
      vertex -64.75 26.75 2.71
      vertex 65.5 27.5 2.71
    endloop
  endfacet
  facet normal 0 0 1
    outer loop
      vertex -65.5 27.5 2.71
      vertex -65.2709 26.7044 2.71
      vertex -64.75 26.75 2.71
    endloop
  endfacet
  facet normal 0 0 1
    outer loop
      vertex -65.5 27.5 2.71
      vertex -65.7761 26.5691 2.71
      vertex -65.2709 26.7044 2.71
    endloop
  endfacet
  facet normal -0 0 1
    outer loop
      vertex -66.0209 27.4544 2.71
      vertex -65.7761 26.5691 2.71
      vertex -65.5 27.5 2.71
    endloop
  endfacet
  facet normal -0 0 1
    outer loop
      vertex -66.5261 27.3191 2.71
      vertex -65.7761 26.5691 2.71
      vertex -66.0209 27.4544 2.71
    endloop
  endfacet
  facet normal 0 0 1
    outer loop
      vertex -65.7761 26.5691 2.71
      vertex -66.5261 27.3191 2.71
      vertex -66.25 26.3481 2.71
    endloop
  endfacet
  facet normal -0 0 1
    outer loop
      vertex -67 27.0981 2.71
      vertex -66.25 26.3481 2.71
      vertex -66.5261 27.3191 2.71
    endloop
  endfacet
  facet normal 0 0 1
    outer loop
      vertex -66.25 26.3481 2.71
      vertex -67 27.0981 2.71
      vertex -66.6784 26.0481 2.71
    endloop
  endfacet
  facet normal -0 0 1
    outer loop
      vertex -67.4284 26.7981 2.71
      vertex -66.6784 26.0481 2.71
      vertex -67 27.0981 2.71
    endloop
  endfacet
  facet normal 0 0 1
    outer loop
      vertex -66.6784 26.0481 2.71
      vertex -67.4284 26.7981 2.71
      vertex -67.0481 25.6784 2.71
    endloop
  endfacet
  facet normal -0 0 1
    outer loop
      vertex -67.7981 26.4284 2.71
      vertex -67.0481 25.6784 2.71
      vertex -67.4284 26.7981 2.71
    endloop
  endfacet
  facet normal -0 0 1
    outer loop
      vertex -68.0981 26 2.71
      vertex -67.0481 25.6784 2.71
      vertex -67.7981 26.4284 2.71
    endloop
  endfacet
  facet normal 0 0 1
    outer loop
      vertex -67.0481 25.6784 2.71
      vertex -68.0981 26 2.71
      vertex -67.3481 25.25 2.71
    endloop
  endfacet
  facet normal -0 0 1
    outer loop
      vertex -68.4544 25.0209 2.71
      vertex -67.5691 24.7761 2.71
      vertex -68.3191 25.5261 2.71
    endloop
  endfacet
  facet normal 0 0 1
    outer loop
      vertex -67.3481 25.25 2.71
      vertex -68.3191 25.5261 2.71
      vertex -67.5691 24.7761 2.71
    endloop
  endfacet
  facet normal -0 0 1
    outer loop
      vertex -68.3191 25.5261 2.71
      vertex -67.3481 25.25 2.71
      vertex -68.0981 26 2.71
    endloop
  endfacet
  facet normal 0 0 1
    outer loop
      vertex 68.4544 -25.0209 2.71
      vertex 67.5691 -24.7761 2.71
      vertex 68.3191 -25.5261 2.71
    endloop
  endfacet
  facet normal -0 0 1
    outer loop
      vertex 67.3481 -25.25 2.71
      vertex 68.3191 -25.5261 2.71
      vertex 67.5691 -24.7761 2.71
    endloop
  endfacet
  facet normal 0 0 1
    outer loop
      vertex 68.3191 -25.5261 2.71
      vertex 67.3481 -25.25 2.71
      vertex 68.0981 -26 2.71
    endloop
  endfacet
  facet normal -0 0 1
    outer loop
      vertex 67.0481 -25.6784 2.71
      vertex 68.0981 -26 2.71
      vertex 67.3481 -25.25 2.71
    endloop
  endfacet
  facet normal 0 0 1
    outer loop
      vertex 68.0981 -26 2.71
      vertex 67.0481 -25.6784 2.71
      vertex 67.7981 -26.4284 2.71
    endloop
  endfacet
  facet normal 0 0 1
    outer loop
      vertex 67.7981 -26.4284 2.71
      vertex 67.0481 -25.6784 2.71
      vertex 67.4284 -26.7981 2.71
    endloop
  endfacet
  facet normal -0 0 1
    outer loop
      vertex 66.6784 -26.0481 2.71
      vertex 67.4284 -26.7981 2.71
      vertex 67.0481 -25.6784 2.71
    endloop
  endfacet
  facet normal 0 0 1
    outer loop
      vertex 67.4284 -26.7981 2.71
      vertex 66.6784 -26.0481 2.71
      vertex 67 -27.0981 2.71
    endloop
  endfacet
  facet normal -0 0 1
    outer loop
      vertex 66.25 -26.3481 2.71
      vertex 67 -27.0981 2.71
      vertex 66.6784 -26.0481 2.71
    endloop
  endfacet
  facet normal 0 0 1
    outer loop
      vertex 67 -27.0981 2.71
      vertex 66.25 -26.3481 2.71
      vertex 66.5261 -27.3191 2.71
    endloop
  endfacet
  facet normal -0 0 1
    outer loop
      vertex 65.7761 -26.5691 2.71
      vertex 66.5261 -27.3191 2.71
      vertex 66.25 -26.3481 2.71
    endloop
  endfacet
  facet normal 0 0 1
    outer loop
      vertex 66.5261 -27.3191 2.71
      vertex 65.7761 -26.5691 2.71
      vertex 66.0209 -27.4544 2.71
    endloop
  endfacet
  facet normal 0 0 1
    outer loop
      vertex 65.7761 -26.5691 2.71
      vertex 65.5 -27.5 2.71
      vertex 66.0209 -27.4544 2.71
    endloop
  endfacet
  facet normal -0 0 1
    outer loop
      vertex 65.2709 -26.7044 2.71
      vertex 65.5 -27.5 2.71
      vertex 65.7761 -26.5691 2.71
    endloop
  endfacet
  facet normal -0 0 1
    outer loop
      vertex 64.75 -26.75 2.71
      vertex 65.5 -27.5 2.71
      vertex 65.2709 -26.7044 2.71
    endloop
  endfacet
  facet normal -0 0 1
    outer loop
      vertex -64.75 -26.75 2.71
      vertex 65.5 -27.5 2.71
      vertex 64.75 -26.75 2.71
    endloop
  endfacet
  facet normal 0 0 1
    outer loop
      vertex -64.75 -26.75 2.71
      vertex -65.5 -27.5 2.71
      vertex 65.5 -27.5 2.71
    endloop
  endfacet
  facet normal 0 0 1
    outer loop
      vertex -65.2709 -26.7044 2.71
      vertex -65.5 -27.5 2.71
      vertex -64.75 -26.75 2.71
    endloop
  endfacet
  facet normal 0 0 1
    outer loop
      vertex -65.7761 -26.5691 2.71
      vertex -65.5 -27.5 2.71
      vertex -65.2709 -26.7044 2.71
    endloop
  endfacet
  facet normal 0 0 1
    outer loop
      vertex -65.7761 -26.5691 2.71
      vertex -66.0209 -27.4544 2.71
      vertex -65.5 -27.5 2.71
    endloop
  endfacet
  facet normal 0 0 1
    outer loop
      vertex -66.5261 -27.3191 2.71
      vertex -65.7761 -26.5691 2.71
      vertex -66.25 -26.3481 2.71
    endloop
  endfacet
  facet normal 0 0 1
    outer loop
      vertex -65.7761 -26.5691 2.71
      vertex -66.5261 -27.3191 2.71
      vertex -66.0209 -27.4544 2.71
    endloop
  endfacet
  facet normal 0 0 1
    outer loop
      vertex -67 -27.0981 2.71
      vertex -66.25 -26.3481 2.71
      vertex -66.6784 -26.0481 2.71
    endloop
  endfacet
  facet normal 0 0 1
    outer loop
      vertex -66.25 -26.3481 2.71
      vertex -67 -27.0981 2.71
      vertex -66.5261 -27.3191 2.71
    endloop
  endfacet
  facet normal 0 0 1
    outer loop
      vertex -67.4284 -26.7981 2.71
      vertex -66.6784 -26.0481 2.71
      vertex -67.0481 -25.6784 2.71
    endloop
  endfacet
  facet normal 0 0 1
    outer loop
      vertex -68.0981 -26 2.71
      vertex -67.0481 -25.6784 2.71
      vertex -67.3481 -25.25 2.71
    endloop
  endfacet
  facet normal 0 0 1
    outer loop
      vertex -66.6784 -26.0481 2.71
      vertex -67.4284 -26.7981 2.71
      vertex -67 -27.0981 2.71
    endloop
  endfacet
  facet normal 0 0 1
    outer loop
      vertex -68.3191 -25.5261 2.71
      vertex -67.3481 -25.25 2.71
      vertex -67.5691 -24.7761 2.71
    endloop
  endfacet
  facet normal -0 0 1
    outer loop
      vertex -68.5 -24.5 2.71
      vertex -67.5691 -24.7761 2.71
      vertex -67.7044 -24.2709 2.71
    endloop
  endfacet
  facet normal 0 0 1
    outer loop
      vertex -67.0481 -25.6784 2.71
      vertex -67.7981 -26.4284 2.71
      vertex -67.4284 -26.7981 2.71
    endloop
  endfacet
  facet normal 0 0 1
    outer loop
      vertex -68.5 -24.5 2.71
      vertex -67.7044 -24.2709 2.71
      vertex -67.75 -23.75 2.71
    endloop
  endfacet
  facet normal 0 0 1
    outer loop
      vertex -67.75 23.75 2.71
      vertex -68.5 24.5 2.71
      vertex -67.75 -23.75 2.71
    endloop
  endfacet
  facet normal 0 0 1
    outer loop
      vertex -68.5 24.5 2.71
      vertex -67.5691 24.7761 2.71
      vertex -68.4544 25.0209 2.71
    endloop
  endfacet
  facet normal 0 0 1
    outer loop
      vertex -68.5 -24.5 2.71
      vertex -67.75 -23.75 2.71
      vertex -68.5 24.5 2.71
    endloop
  endfacet
  facet normal 0 0 1
    outer loop
      vertex -67.5691 24.7761 2.71
      vertex -68.5 24.5 2.71
      vertex -67.7044 24.2709 2.71
    endloop
  endfacet
  facet normal 0 0 1
    outer loop
      vertex -67.5691 -24.7761 2.71
      vertex -68.5 -24.5 2.71
      vertex -68.4544 -25.0209 2.71
    endloop
  endfacet
  facet normal 0 0 1
    outer loop
      vertex -67.7044 24.2709 2.71
      vertex -68.5 24.5 2.71
      vertex -67.75 23.75 2.71
    endloop
  endfacet
  facet normal 0 0 1
    outer loop
      vertex -67.0481 -25.6784 2.71
      vertex -68.0981 -26 2.71
      vertex -67.7981 -26.4284 2.71
    endloop
  endfacet
  facet normal 0 0 1
    outer loop
      vertex -67.3481 -25.25 2.71
      vertex -68.3191 -25.5261 2.71
      vertex -68.0981 -26 2.71
    endloop
  endfacet
  facet normal 0 0 1
    outer loop
      vertex -67.5691 -24.7761 2.71
      vertex -68.4544 -25.0209 2.71
      vertex -68.3191 -25.5261 2.71
    endloop
  endfacet
  facet normal 0.906295 -0.422645 0
    outer loop
      vertex 68.0981 -26 2.71
      vertex 68.3191 -25.5261 2.5
      vertex 68.3191 -25.5261 2.71
    endloop
  endfacet
  facet normal 0.906295 -0.422645 0
    outer loop
      vertex 68.3191 -25.5261 2.5
      vertex 68.0981 -26 2.71
      vertex 68.0981 -26 2.5
    endloop
  endfacet
  facet normal -0.707107 0.707107 0
    outer loop
      vertex -67.4284 26.7981 2.5
      vertex -67.7981 26.4284 2.71
      vertex -67.4284 26.7981 2.71
    endloop
  endfacet
  facet normal -0.707107 0.707107 0
    outer loop
      vertex -67.7981 26.4284 2.71
      vertex -67.4284 26.7981 2.5
      vertex -67.7981 26.4284 2.5
    endloop
  endfacet
  facet normal 0.906295 0.422645 0
    outer loop
      vertex 68.3191 25.5261 2.71
      vertex 68.0981 26 2.5
      vertex 68.0981 26 2.71
    endloop
  endfacet
  facet normal 0.906295 0.422645 0
    outer loop
      vertex 68.0981 26 2.5
      vertex 68.3191 25.5261 2.71
      vertex 68.3191 25.5261 2.5
    endloop
  endfacet
  facet normal 0.707107 0.707107 -0
    outer loop
      vertex 67.7981 26.4284 2.5
      vertex 67.4284 26.7981 2.71
      vertex 67.7981 26.4284 2.71
    endloop
  endfacet
  facet normal 0.707107 0.707107 0
    outer loop
      vertex 67.4284 26.7981 2.71
      vertex 67.7981 26.4284 2.5
      vertex 67.4284 26.7981 2.5
    endloop
  endfacet
  facet normal -0.906295 -0.422645 0
    outer loop
      vertex -68.0981 -26 2.5
      vertex -68.3191 -25.5261 2.71
      vertex -68.3191 -25.5261 2.5
    endloop
  endfacet
  facet normal -0.906295 -0.422645 0
    outer loop
      vertex -68.3191 -25.5261 2.71
      vertex -68.0981 -26 2.5
      vertex -68.0981 -26 2.71
    endloop
  endfacet
  facet normal -0.965958 0.258698 0
    outer loop
      vertex -68.4544 25.0209 2.5
      vertex -68.3191 25.5261 2.71
      vertex -68.3191 25.5261 2.5
    endloop
  endfacet
  facet normal -0.965958 0.258698 0
    outer loop
      vertex -68.3191 25.5261 2.71
      vertex -68.4544 25.0209 2.5
      vertex -68.4544 25.0209 2.71
    endloop
  endfacet
  facet normal -0.99619 -0.0872073 0
    outer loop
      vertex -68.4544 -25.0209 2.5
      vertex -68.5 -24.5 2.71
      vertex -68.5 -24.5 2.5
    endloop
  endfacet
  facet normal -0.99619 -0.0872073 0
    outer loop
      vertex -68.5 -24.5 2.71
      vertex -68.4544 -25.0209 2.5
      vertex -68.4544 -25.0209 2.71
    endloop
  endfacet
  facet normal 0.573616 0.819124 -0
    outer loop
      vertex 67.4284 26.7981 2.5
      vertex 67 27.0981 2.71
      vertex 67.4284 26.7981 2.71
    endloop
  endfacet
  facet normal 0.573616 0.819124 0
    outer loop
      vertex 67 27.0981 2.71
      vertex 67.4284 26.7981 2.5
      vertex 67 27.0981 2.5
    endloop
  endfacet
  facet normal 0.573616 -0.819124 0
    outer loop
      vertex 67 -27.0981 2.5
      vertex 67.4284 -26.7981 2.71
      vertex 67 -27.0981 2.71
    endloop
  endfacet
  facet normal 0.573616 -0.819124 0
    outer loop
      vertex 67.4284 -26.7981 2.71
      vertex 67 -27.0981 2.5
      vertex 67.4284 -26.7981 2.5
    endloop
  endfacet
  facet normal -0.573616 -0.819124 0
    outer loop
      vertex -67.4284 -26.7981 2.5
      vertex -67 -27.0981 2.71
      vertex -67.4284 -26.7981 2.71
    endloop
  endfacet
  facet normal -0.573616 -0.819124 -0
    outer loop
      vertex -67 -27.0981 2.71
      vertex -67.4284 -26.7981 2.5
      vertex -67 -27.0981 2.5
    endloop
  endfacet
  facet normal -0.422645 0.906295 0
    outer loop
      vertex -66.5261 27.3191 2.5
      vertex -67 27.0981 2.71
      vertex -66.5261 27.3191 2.71
    endloop
  endfacet
  facet normal -0.422645 0.906295 0
    outer loop
      vertex -67 27.0981 2.71
      vertex -66.5261 27.3191 2.5
      vertex -67 27.0981 2.5
    endloop
  endfacet
  facet normal 0.422645 -0.906295 0
    outer loop
      vertex 66.5261 -27.3191 2.5
      vertex 67 -27.0981 2.71
      vertex 66.5261 -27.3191 2.71
    endloop
  endfacet
  facet normal 0.422645 -0.906295 0
    outer loop
      vertex 67 -27.0981 2.71
      vertex 66.5261 -27.3191 2.5
      vertex 67 -27.0981 2.5
    endloop
  endfacet
  facet normal -0.819124 -0.573616 0
    outer loop
      vertex -67.7981 -26.4284 2.5
      vertex -68.0981 -26 2.71
      vertex -68.0981 -26 2.5
    endloop
  endfacet
  facet normal -0.819124 -0.573616 0
    outer loop
      vertex -68.0981 -26 2.71
      vertex -67.7981 -26.4284 2.5
      vertex -67.7981 -26.4284 2.71
    endloop
  endfacet
  facet normal 0 0 -1
    outer loop
      vertex 67.5691 -24.7761 2.5
      vertex 68.5 -24.5 2.5
      vertex 68.4544 -25.0209 2.5
    endloop
  endfacet
  facet normal 0 0 -1
    outer loop
      vertex 68.5 -24.5 2.5
      vertex 67.75 -23.75 2.5
      vertex 68.5 24.5 2.5
    endloop
  endfacet
  facet normal 0 0 -1
    outer loop
      vertex 67.5691 -24.7761 2.5
      vertex 68.4544 -25.0209 2.5
      vertex 68.3191 -25.5261 2.5
    endloop
  endfacet
  facet normal 0 0 -1
    outer loop
      vertex 67.75 23.75 2.5
      vertex 68.5 24.5 2.5
      vertex 67.75 -23.75 2.5
    endloop
  endfacet
  facet normal 0 0 -1
    outer loop
      vertex 67.3481 -25.25 2.5
      vertex 68.3191 -25.5261 2.5
      vertex 68.0981 -26 2.5
    endloop
  endfacet
  facet normal 0 0 -1
    outer loop
      vertex 67.7044 24.2709 2.5
      vertex 68.5 24.5 2.5
      vertex 67.75 23.75 2.5
    endloop
  endfacet
  facet normal 0 0 -1
    outer loop
      vertex 67.0481 -25.6784 2.5
      vertex 68.0981 -26 2.5
      vertex 67.7981 -26.4284 2.5
    endloop
  endfacet
  facet normal 0 0 -1
    outer loop
      vertex 67.5691 24.7761 2.5
      vertex 68.5 24.5 2.5
      vertex 67.7044 24.2709 2.5
    endloop
  endfacet
  facet normal 0 0 -1
    outer loop
      vertex 68.5 24.5 2.5
      vertex 67.5691 24.7761 2.5
      vertex 68.4544 25.0209 2.5
    endloop
  endfacet
  facet normal 0 0 -1
    outer loop
      vertex 68.5 -24.5 2.5
      vertex 67.7044 -24.2709 2.5
      vertex 67.75 -23.75 2.5
    endloop
  endfacet
  facet normal -0 0 -1
    outer loop
      vertex 68.5 -24.5 2.5
      vertex 67.5691 -24.7761 2.5
      vertex 67.7044 -24.2709 2.5
    endloop
  endfacet
  facet normal 0 0 -1
    outer loop
      vertex 67.0481 -25.6784 2.5
      vertex 67.7981 -26.4284 2.5
      vertex 67.4284 -26.7981 2.5
    endloop
  endfacet
  facet normal 0 0 -1
    outer loop
      vertex 68.3191 -25.5261 2.5
      vertex 67.3481 -25.25 2.5
      vertex 67.5691 -24.7761 2.5
    endloop
  endfacet
  facet normal 0 0 -1
    outer loop
      vertex 68.0981 -26 2.5
      vertex 67.0481 -25.6784 2.5
      vertex 67.3481 -25.25 2.5
    endloop
  endfacet
  facet normal 0 0 -1
    outer loop
      vertex 66.6784 -26.0481 2.5
      vertex 67.4284 -26.7981 2.5
      vertex 67 -27.0981 2.5
    endloop
  endfacet
  facet normal 0 0 -1
    outer loop
      vertex 67.4284 -26.7981 2.5
      vertex 66.6784 -26.0481 2.5
      vertex 67.0481 -25.6784 2.5
    endloop
  endfacet
  facet normal 0 0 -1
    outer loop
      vertex 66.25 -26.3481 2.5
      vertex 67 -27.0981 2.5
      vertex 66.5261 -27.3191 2.5
    endloop
  endfacet
  facet normal 0 0 -1
    outer loop
      vertex 67 -27.0981 2.5
      vertex 66.25 -26.3481 2.5
      vertex 66.6784 -26.0481 2.5
    endloop
  endfacet
  facet normal 0 0 -1
    outer loop
      vertex 65.7761 -26.5691 2.5
      vertex 66.5261 -27.3191 2.5
      vertex 66.0209 -27.4544 2.5
    endloop
  endfacet
  facet normal 0 0 -1
    outer loop
      vertex 66.5261 -27.3191 2.5
      vertex 65.7761 -26.5691 2.5
      vertex 66.25 -26.3481 2.5
    endloop
  endfacet
  facet normal 0 0 -1
    outer loop
      vertex 65.5 -27.5 2.5
      vertex 65.7761 -26.5691 2.5
      vertex 66.0209 -27.4544 2.5
    endloop
  endfacet
  facet normal 0 0 -1
    outer loop
      vertex 65.5 -27.5 2.5
      vertex 65.2709 -26.7044 2.5
      vertex 65.7761 -26.5691 2.5
    endloop
  endfacet
  facet normal 0 0 -1
    outer loop
      vertex 65.5 -27.5 2.5
      vertex 64.75 -26.75 2.5
      vertex 65.2709 -26.7044 2.5
    endloop
  endfacet
  facet normal 0 0 -1
    outer loop
      vertex 65.5 -27.5 2.5
      vertex -64.75 -26.75 2.5
      vertex 64.75 -26.75 2.5
    endloop
  endfacet
  facet normal 0 0 -1
    outer loop
      vertex -65.5 -27.5 2.5
      vertex -64.75 -26.75 2.5
      vertex 65.5 -27.5 2.5
    endloop
  endfacet
  facet normal 0 0 -1
    outer loop
      vertex -65.5 -27.5 2.5
      vertex -65.2709 -26.7044 2.5
      vertex -64.75 -26.75 2.5
    endloop
  endfacet
  facet normal 0 0 -1
    outer loop
      vertex -65.5 -27.5 2.5
      vertex -65.7761 -26.5691 2.5
      vertex -65.2709 -26.7044 2.5
    endloop
  endfacet
  facet normal 0 0 -1
    outer loop
      vertex -66.0209 -27.4544 2.5
      vertex -65.7761 -26.5691 2.5
      vertex -65.5 -27.5 2.5
    endloop
  endfacet
  facet normal 0 0 -1
    outer loop
      vertex -66.5261 -27.3191 2.5
      vertex -65.7761 -26.5691 2.5
      vertex -66.0209 -27.4544 2.5
    endloop
  endfacet
  facet normal -0 0 -1
    outer loop
      vertex -65.7761 -26.5691 2.5
      vertex -66.5261 -27.3191 2.5
      vertex -66.25 -26.3481 2.5
    endloop
  endfacet
  facet normal 0 0 -1
    outer loop
      vertex -67 -27.0981 2.5
      vertex -66.25 -26.3481 2.5
      vertex -66.5261 -27.3191 2.5
    endloop
  endfacet
  facet normal -0 0 -1
    outer loop
      vertex -66.25 -26.3481 2.5
      vertex -67 -27.0981 2.5
      vertex -66.6784 -26.0481 2.5
    endloop
  endfacet
  facet normal 0 0 -1
    outer loop
      vertex -67.4284 -26.7981 2.5
      vertex -66.6784 -26.0481 2.5
      vertex -67 -27.0981 2.5
    endloop
  endfacet
  facet normal -0 0 -1
    outer loop
      vertex -66.6784 -26.0481 2.5
      vertex -67.4284 -26.7981 2.5
      vertex -67.0481 -25.6784 2.5
    endloop
  endfacet
  facet normal 0 0 -1
    outer loop
      vertex -67.7981 -26.4284 2.5
      vertex -67.0481 -25.6784 2.5
      vertex -67.4284 -26.7981 2.5
    endloop
  endfacet
  facet normal 0 0 -1
    outer loop
      vertex -68.0981 -26 2.5
      vertex -67.0481 -25.6784 2.5
      vertex -67.7981 -26.4284 2.5
    endloop
  endfacet
  facet normal -0 0 -1
    outer loop
      vertex -67.0481 -25.6784 2.5
      vertex -68.0981 -26 2.5
      vertex -67.3481 -25.25 2.5
    endloop
  endfacet
  facet normal 0 0 -1
    outer loop
      vertex -68.4544 -25.0209 2.5
      vertex -67.5691 -24.7761 2.5
      vertex -68.3191 -25.5261 2.5
    endloop
  endfacet
  facet normal -0 0 -1
    outer loop
      vertex -67.3481 -25.25 2.5
      vertex -68.3191 -25.5261 2.5
      vertex -67.5691 -24.7761 2.5
    endloop
  endfacet
  facet normal 0 0 -1
    outer loop
      vertex -68.3191 -25.5261 2.5
      vertex -67.3481 -25.25 2.5
      vertex -68.0981 -26 2.5
    endloop
  endfacet
  facet normal -0 0 -1
    outer loop
      vertex 68.4544 25.0209 2.5
      vertex 67.5691 24.7761 2.5
      vertex 68.3191 25.5261 2.5
    endloop
  endfacet
  facet normal 0 0 -1
    outer loop
      vertex 67.3481 25.25 2.5
      vertex 68.3191 25.5261 2.5
      vertex 67.5691 24.7761 2.5
    endloop
  endfacet
  facet normal -0 0 -1
    outer loop
      vertex 68.3191 25.5261 2.5
      vertex 67.3481 25.25 2.5
      vertex 68.0981 26 2.5
    endloop
  endfacet
  facet normal 0 0 -1
    outer loop
      vertex 67.0481 25.6784 2.5
      vertex 68.0981 26 2.5
      vertex 67.3481 25.25 2.5
    endloop
  endfacet
  facet normal -0 0 -1
    outer loop
      vertex 68.0981 26 2.5
      vertex 67.0481 25.6784 2.5
      vertex 67.7981 26.4284 2.5
    endloop
  endfacet
  facet normal -0 0 -1
    outer loop
      vertex 67.7981 26.4284 2.5
      vertex 67.0481 25.6784 2.5
      vertex 67.4284 26.7981 2.5
    endloop
  endfacet
  facet normal 0 0 -1
    outer loop
      vertex 66.6784 26.0481 2.5
      vertex 67.4284 26.7981 2.5
      vertex 67.0481 25.6784 2.5
    endloop
  endfacet
  facet normal -0 0 -1
    outer loop
      vertex 67.4284 26.7981 2.5
      vertex 66.6784 26.0481 2.5
      vertex 67 27.0981 2.5
    endloop
  endfacet
  facet normal 0 0 -1
    outer loop
      vertex 66.25 26.3481 2.5
      vertex 67 27.0981 2.5
      vertex 66.6784 26.0481 2.5
    endloop
  endfacet
  facet normal -0 0 -1
    outer loop
      vertex 67 27.0981 2.5
      vertex 66.25 26.3481 2.5
      vertex 66.5261 27.3191 2.5
    endloop
  endfacet
  facet normal 0 0 -1
    outer loop
      vertex 65.7761 26.5691 2.5
      vertex 66.5261 27.3191 2.5
      vertex 66.25 26.3481 2.5
    endloop
  endfacet
  facet normal -0 0 -1
    outer loop
      vertex 66.5261 27.3191 2.5
      vertex 65.7761 26.5691 2.5
      vertex 66.0209 27.4544 2.5
    endloop
  endfacet
  facet normal 0 0 -1
    outer loop
      vertex 65.7761 26.5691 2.5
      vertex 65.5 27.5 2.5
      vertex 66.0209 27.4544 2.5
    endloop
  endfacet
  facet normal 0 0 -1
    outer loop
      vertex 65.2709 26.7044 2.5
      vertex 65.5 27.5 2.5
      vertex 65.7761 26.5691 2.5
    endloop
  endfacet
  facet normal 0 0 -1
    outer loop
      vertex 64.75 26.75 2.5
      vertex 65.5 27.5 2.5
      vertex 65.2709 26.7044 2.5
    endloop
  endfacet
  facet normal 0 0 -1
    outer loop
      vertex -64.75 26.75 2.5
      vertex 65.5 27.5 2.5
      vertex 64.75 26.75 2.5
    endloop
  endfacet
  facet normal 0 0 -1
    outer loop
      vertex -64.75 26.75 2.5
      vertex -65.5 27.5 2.5
      vertex 65.5 27.5 2.5
    endloop
  endfacet
  facet normal 0 0 -1
    outer loop
      vertex -65.2709 26.7044 2.5
      vertex -65.5 27.5 2.5
      vertex -64.75 26.75 2.5
    endloop
  endfacet
  facet normal 0 0 -1
    outer loop
      vertex -65.7761 26.5691 2.5
      vertex -65.5 27.5 2.5
      vertex -65.2709 26.7044 2.5
    endloop
  endfacet
  facet normal 0 0 -1
    outer loop
      vertex -65.7761 26.5691 2.5
      vertex -66.0209 27.4544 2.5
      vertex -65.5 27.5 2.5
    endloop
  endfacet
  facet normal 0 0 -1
    outer loop
      vertex -66.5261 27.3191 2.5
      vertex -65.7761 26.5691 2.5
      vertex -66.25 26.3481 2.5
    endloop
  endfacet
  facet normal 0 0 -1
    outer loop
      vertex -65.7761 26.5691 2.5
      vertex -66.5261 27.3191 2.5
      vertex -66.0209 27.4544 2.5
    endloop
  endfacet
  facet normal 0 0 -1
    outer loop
      vertex -67 27.0981 2.5
      vertex -66.25 26.3481 2.5
      vertex -66.6784 26.0481 2.5
    endloop
  endfacet
  facet normal 0 0 -1
    outer loop
      vertex -66.25 26.3481 2.5
      vertex -67 27.0981 2.5
      vertex -66.5261 27.3191 2.5
    endloop
  endfacet
  facet normal 0 0 -1
    outer loop
      vertex -67.4284 26.7981 2.5
      vertex -66.6784 26.0481 2.5
      vertex -67.0481 25.6784 2.5
    endloop
  endfacet
  facet normal 0 0 -1
    outer loop
      vertex -68.0981 26 2.5
      vertex -67.0481 25.6784 2.5
      vertex -67.3481 25.25 2.5
    endloop
  endfacet
  facet normal 0 0 -1
    outer loop
      vertex -66.6784 26.0481 2.5
      vertex -67.4284 26.7981 2.5
      vertex -67 27.0981 2.5
    endloop
  endfacet
  facet normal 0 0 -1
    outer loop
      vertex -68.3191 25.5261 2.5
      vertex -67.3481 25.25 2.5
      vertex -67.5691 24.7761 2.5
    endloop
  endfacet
  facet normal 0 0 -1
    outer loop
      vertex -68.5 24.5 2.5
      vertex -67.5691 24.7761 2.5
      vertex -67.7044 24.2709 2.5
    endloop
  endfacet
  facet normal 0 0 -1
    outer loop
      vertex -67.0481 25.6784 2.5
      vertex -67.7981 26.4284 2.5
      vertex -67.4284 26.7981 2.5
    endloop
  endfacet
  facet normal 0 0 -1
    outer loop
      vertex -68.5 24.5 2.5
      vertex -67.7044 24.2709 2.5
      vertex -67.75 23.75 2.5
    endloop
  endfacet
  facet normal -0 0 -1
    outer loop
      vertex -67.75 -23.75 2.5
      vertex -68.5 -24.5 2.5
      vertex -67.75 23.75 2.5
    endloop
  endfacet
  facet normal 0 0 -1
    outer loop
      vertex -68.5 -24.5 2.5
      vertex -67.5691 -24.7761 2.5
      vertex -68.4544 -25.0209 2.5
    endloop
  endfacet
  facet normal 0 0 -1
    outer loop
      vertex -68.5 24.5 2.5
      vertex -67.75 23.75 2.5
      vertex -68.5 -24.5 2.5
    endloop
  endfacet
  facet normal 0 0 -1
    outer loop
      vertex -67.5691 -24.7761 2.5
      vertex -68.5 -24.5 2.5
      vertex -67.7044 -24.2709 2.5
    endloop
  endfacet
  facet normal -0 0 -1
    outer loop
      vertex -67.5691 24.7761 2.5
      vertex -68.5 24.5 2.5
      vertex -68.4544 25.0209 2.5
    endloop
  endfacet
  facet normal -0 0 -1
    outer loop
      vertex -67.7044 -24.2709 2.5
      vertex -68.5 -24.5 2.5
      vertex -67.75 -23.75 2.5
    endloop
  endfacet
  facet normal 0 0 -1
    outer loop
      vertex -67.0481 25.6784 2.5
      vertex -68.0981 26 2.5
      vertex -67.7981 26.4284 2.5
    endloop
  endfacet
  facet normal 0 0 -1
    outer loop
      vertex -67.3481 25.25 2.5
      vertex -68.3191 25.5261 2.5
      vertex -68.0981 26 2.5
    endloop
  endfacet
  facet normal 0 0 -1
    outer loop
      vertex -67.5691 24.7761 2.5
      vertex -68.4544 25.0209 2.5
      vertex -68.3191 25.5261 2.5
    endloop
  endfacet
  facet normal -0.573616 0.819124 0
    outer loop
      vertex -67 27.0981 2.5
      vertex -67.4284 26.7981 2.71
      vertex -67 27.0981 2.71
    endloop
  endfacet
  facet normal -0.573616 0.819124 0
    outer loop
      vertex -67.4284 26.7981 2.71
      vertex -67 27.0981 2.5
      vertex -67.4284 26.7981 2.5
    endloop
  endfacet
  facet normal -0.707107 -0.707107 0
    outer loop
      vertex -67.7981 -26.4284 2.5
      vertex -67.4284 -26.7981 2.71
      vertex -67.7981 -26.4284 2.71
    endloop
  endfacet
  facet normal -0.707107 -0.707107 -0
    outer loop
      vertex -67.4284 -26.7981 2.71
      vertex -67.7981 -26.4284 2.5
      vertex -67.4284 -26.7981 2.5
    endloop
  endfacet
  facet normal -0.819124 0.573616 0
    outer loop
      vertex -68.0981 26 2.5
      vertex -67.7981 26.4284 2.71
      vertex -67.7981 26.4284 2.5
    endloop
  endfacet
  facet normal -0.819124 0.573616 0
    outer loop
      vertex -67.7981 26.4284 2.71
      vertex -68.0981 26 2.5
      vertex -68.0981 26 2.71
    endloop
  endfacet
  facet normal 0.258698 -0.965958 0
    outer loop
      vertex 66.0209 -27.4544 2.5
      vertex 66.5261 -27.3191 2.71
      vertex 66.0209 -27.4544 2.71
    endloop
  endfacet
  facet normal 0.258698 -0.965958 0
    outer loop
      vertex 66.5261 -27.3191 2.71
      vertex 66.0209 -27.4544 2.5
      vertex 66.5261 -27.3191 2.5
    endloop
  endfacet
  facet normal 0.258698 -0.965958 0
    outer loop
      vertex -65.7761 26.5691 2.5
      vertex -65.2709 26.7044 2.71
      vertex -65.7761 26.5691 2.71
    endloop
  endfacet
  facet normal 0.258698 -0.965958 0
    outer loop
      vertex -65.2709 26.7044 2.71
      vertex -65.7761 26.5691 2.5
      vertex -65.2709 26.7044 2.5
    endloop
  endfacet
  facet normal -0.258698 0.965958 0
    outer loop
      vertex 65.7761 -26.5691 2.5
      vertex 65.2709 -26.7044 2.71
      vertex 65.7761 -26.5691 2.71
    endloop
  endfacet
  facet normal -0.258698 0.965958 0
    outer loop
      vertex 65.2709 -26.7044 2.71
      vertex 65.7761 -26.5691 2.5
      vertex 65.2709 -26.7044 2.5
    endloop
  endfacet
  facet normal -0.573616 -0.819124 0
    outer loop
      vertex 66.25 26.3481 2.5
      vertex 66.6784 26.0481 2.71
      vertex 66.25 26.3481 2.71
    endloop
  endfacet
  facet normal -0.573616 -0.819124 -0
    outer loop
      vertex 66.6784 26.0481 2.71
      vertex 66.25 26.3481 2.5
      vertex 66.6784 26.0481 2.5
    endloop
  endfacet
  facet normal -0.258698 -0.965958 0
    outer loop
      vertex 65.2709 26.7044 2.5
      vertex 65.7761 26.5691 2.71
      vertex 65.2709 26.7044 2.71
    endloop
  endfacet
  facet normal -0.258698 -0.965958 -0
    outer loop
      vertex 65.7761 26.5691 2.71
      vertex 65.2709 26.7044 2.5
      vertex 65.7761 26.5691 2.5
    endloop
  endfacet
  facet normal -0.965958 0.258698 0
    outer loop
      vertex 67.5691 -24.7761 2.5
      vertex 67.7044 -24.2709 2.71
      vertex 67.7044 -24.2709 2.5
    endloop
  endfacet
  facet normal -0.965958 0.258698 0
    outer loop
      vertex 67.7044 -24.2709 2.71
      vertex 67.5691 -24.7761 2.5
      vertex 67.5691 -24.7761 2.71
    endloop
  endfacet
  facet normal 0.422645 -0.906295 0
    outer loop
      vertex -66.25 26.3481 2.5
      vertex -65.7761 26.5691 2.71
      vertex -66.25 26.3481 2.71
    endloop
  endfacet
  facet normal 0.422645 -0.906295 0
    outer loop
      vertex -65.7761 26.5691 2.71
      vertex -66.25 26.3481 2.5
      vertex -65.7761 26.5691 2.5
    endloop
  endfacet
  facet normal -1 0 0
    outer loop
      vertex 67.75 -23.75 2.5
      vertex 67.75 23.75 2.71
      vertex 67.75 23.75 2.5
    endloop
  endfacet
  facet normal -1 -0 0
    outer loop
      vertex 67.75 23.75 2.71
      vertex 67.75 -23.75 2.5
      vertex 67.75 -23.75 2.71
    endloop
  endfacet
  facet normal 0.573616 0.819124 -0
    outer loop
      vertex -66.25 -26.3481 2.5
      vertex -66.6784 -26.0481 2.71
      vertex -66.25 -26.3481 2.71
    endloop
  endfacet
  facet normal 0.573616 0.819124 0
    outer loop
      vertex -66.6784 -26.0481 2.71
      vertex -66.25 -26.3481 2.5
      vertex -66.6784 -26.0481 2.5
    endloop
  endfacet
  facet normal 0 -1 0
    outer loop
      vertex -64.75 26.75 2.5
      vertex 64.75 26.75 2.71
      vertex -64.75 26.75 2.71
    endloop
  endfacet
  facet normal 0 -1 -0
    outer loop
      vertex 64.75 26.75 2.71
      vertex -64.75 26.75 2.5
      vertex 64.75 26.75 2.5
    endloop
  endfacet
  facet normal -0.0872073 -0.99619 0
    outer loop
      vertex 64.75 26.75 2.5
      vertex 65.2709 26.7044 2.71
      vertex 64.75 26.75 2.71
    endloop
  endfacet
  facet normal -0.0872073 -0.99619 -0
    outer loop
      vertex 65.2709 26.7044 2.71
      vertex 64.75 26.75 2.5
      vertex 65.2709 26.7044 2.5
    endloop
  endfacet
  facet normal 0.819124 -0.573616 0
    outer loop
      vertex -67.3481 25.25 2.71
      vertex -67.0481 25.6784 2.5
      vertex -67.0481 25.6784 2.71
    endloop
  endfacet
  facet normal 0.819124 -0.573616 0
    outer loop
      vertex -67.0481 25.6784 2.5
      vertex -67.3481 25.25 2.71
      vertex -67.3481 25.25 2.5
    endloop
  endfacet
  facet normal 0.99619 -0.0872073 0
    outer loop
      vertex -67.75 23.75 2.71
      vertex -67.7044 24.2709 2.5
      vertex -67.7044 24.2709 2.71
    endloop
  endfacet
  facet normal 0.99619 -0.0872073 0
    outer loop
      vertex -67.7044 24.2709 2.5
      vertex -67.75 23.75 2.71
      vertex -67.75 23.75 2.5
    endloop
  endfacet
  facet normal -0.573616 0.819124 0
    outer loop
      vertex 66.6784 -26.0481 2.5
      vertex 66.25 -26.3481 2.71
      vertex 66.6784 -26.0481 2.71
    endloop
  endfacet
  facet normal -0.573616 0.819124 0
    outer loop
      vertex 66.25 -26.3481 2.71
      vertex 66.6784 -26.0481 2.5
      vertex 66.25 -26.3481 2.5
    endloop
  endfacet
  facet normal 0.0872073 -0.99619 0
    outer loop
      vertex -65.2709 26.7044 2.5
      vertex -64.75 26.75 2.71
      vertex -65.2709 26.7044 2.71
    endloop
  endfacet
  facet normal 0.0872073 -0.99619 0
    outer loop
      vertex -64.75 26.75 2.71
      vertex -65.2709 26.7044 2.5
      vertex -64.75 26.75 2.5
    endloop
  endfacet
  facet normal -0.0872073 0.99619 0
    outer loop
      vertex 65.2709 -26.7044 2.5
      vertex 64.75 -26.75 2.71
      vertex 65.2709 -26.7044 2.71
    endloop
  endfacet
  facet normal -0.0872073 0.99619 0
    outer loop
      vertex 64.75 -26.75 2.71
      vertex 65.2709 -26.7044 2.5
      vertex 64.75 -26.75 2.5
    endloop
  endfacet
  facet normal 0.0872073 0.99619 -0
    outer loop
      vertex -64.75 -26.75 2.5
      vertex -65.2709 -26.7044 2.71
      vertex -64.75 -26.75 2.71
    endloop
  endfacet
  facet normal 0.0872073 0.99619 0
    outer loop
      vertex -65.2709 -26.7044 2.71
      vertex -64.75 -26.75 2.5
      vertex -65.2709 -26.7044 2.5
    endloop
  endfacet
  facet normal 0 1 -0
    outer loop
      vertex 64.75 -26.75 2.5
      vertex -64.75 -26.75 2.71
      vertex 64.75 -26.75 2.71
    endloop
  endfacet
  facet normal 0 1 0
    outer loop
      vertex -64.75 -26.75 2.71
      vertex 64.75 -26.75 2.5
      vertex -64.75 -26.75 2.5
    endloop
  endfacet
  facet normal -0.906295 -0.422645 0
    outer loop
      vertex 67.5691 24.7761 2.5
      vertex 67.3481 25.25 2.71
      vertex 67.3481 25.25 2.5
    endloop
  endfacet
  facet normal -0.906295 -0.422645 0
    outer loop
      vertex 67.3481 25.25 2.71
      vertex 67.5691 24.7761 2.5
      vertex 67.5691 24.7761 2.71
    endloop
  endfacet
  facet normal -0.819124 -0.573616 0
    outer loop
      vertex 67.3481 25.25 2.5
      vertex 67.0481 25.6784 2.71
      vertex 67.0481 25.6784 2.5
    endloop
  endfacet
  facet normal -0.819124 -0.573616 0
    outer loop
      vertex 67.0481 25.6784 2.71
      vertex 67.3481 25.25 2.5
      vertex 67.3481 25.25 2.71
    endloop
  endfacet
  facet normal -0.707107 -0.707107 0
    outer loop
      vertex 66.6784 26.0481 2.5
      vertex 67.0481 25.6784 2.71
      vertex 66.6784 26.0481 2.71
    endloop
  endfacet
  facet normal -0.707107 -0.707107 -0
    outer loop
      vertex 67.0481 25.6784 2.71
      vertex 66.6784 26.0481 2.5
      vertex 67.0481 25.6784 2.5
    endloop
  endfacet
  facet normal 1 -0 0
    outer loop
      vertex -67.75 -23.75 2.71
      vertex -67.75 23.75 2.5
      vertex -67.75 23.75 2.71
    endloop
  endfacet
  facet normal 1 0 0
    outer loop
      vertex -67.75 23.75 2.5
      vertex -67.75 -23.75 2.71
      vertex -67.75 -23.75 2.5
    endloop
  endfacet
  facet normal -0.99619 -0.0872073 0
    outer loop
      vertex 67.75 23.75 2.5
      vertex 67.7044 24.2709 2.71
      vertex 67.7044 24.2709 2.5
    endloop
  endfacet
  facet normal -0.99619 -0.0872073 0
    outer loop
      vertex 67.7044 24.2709 2.71
      vertex 67.75 23.75 2.5
      vertex 67.75 23.75 2.71
    endloop
  endfacet
  facet normal 0.258698 0.965958 -0
    outer loop
      vertex -65.2709 -26.7044 2.5
      vertex -65.7761 -26.5691 2.71
      vertex -65.2709 -26.7044 2.71
    endloop
  endfacet
  facet normal 0.258698 0.965958 0
    outer loop
      vertex -65.7761 -26.5691 2.71
      vertex -65.2709 -26.7044 2.5
      vertex -65.7761 -26.5691 2.5
    endloop
  endfacet
  facet normal -0.422645 -0.906295 0
    outer loop
      vertex 65.7761 26.5691 2.5
      vertex 66.25 26.3481 2.71
      vertex 65.7761 26.5691 2.71
    endloop
  endfacet
  facet normal -0.422645 -0.906295 -0
    outer loop
      vertex 66.25 26.3481 2.71
      vertex 65.7761 26.5691 2.5
      vertex 66.25 26.3481 2.5
    endloop
  endfacet
  facet normal -0.965958 -0.258698 0
    outer loop
      vertex 67.7044 24.2709 2.5
      vertex 67.5691 24.7761 2.71
      vertex 67.5691 24.7761 2.5
    endloop
  endfacet
  facet normal -0.965958 -0.258698 0
    outer loop
      vertex 67.5691 24.7761 2.71
      vertex 67.7044 24.2709 2.5
      vertex 67.7044 24.2709 2.71
    endloop
  endfacet
  facet normal -0.99619 0.0872073 0
    outer loop
      vertex 67.7044 -24.2709 2.5
      vertex 67.75 -23.75 2.71
      vertex 67.75 -23.75 2.5
    endloop
  endfacet
  facet normal -0.99619 0.0872073 0
    outer loop
      vertex 67.75 -23.75 2.71
      vertex 67.7044 -24.2709 2.5
      vertex 67.7044 -24.2709 2.71
    endloop
  endfacet
  facet normal -0.707107 0.707107 0
    outer loop
      vertex 67.0481 -25.6784 2.5
      vertex 66.6784 -26.0481 2.71
      vertex 67.0481 -25.6784 2.71
    endloop
  endfacet
  facet normal -0.707107 0.707107 0
    outer loop
      vertex 66.6784 -26.0481 2.71
      vertex 67.0481 -25.6784 2.5
      vertex 66.6784 -26.0481 2.5
    endloop
  endfacet
  facet normal -0.906295 0.422645 0
    outer loop
      vertex 67.3481 -25.25 2.5
      vertex 67.5691 -24.7761 2.71
      vertex 67.5691 -24.7761 2.5
    endloop
  endfacet
  facet normal -0.906295 0.422645 0
    outer loop
      vertex 67.5691 -24.7761 2.71
      vertex 67.3481 -25.25 2.5
      vertex 67.3481 -25.25 2.71
    endloop
  endfacet
  facet normal 0.906295 0.422645 0
    outer loop
      vertex -67.3481 -25.25 2.71
      vertex -67.5691 -24.7761 2.5
      vertex -67.5691 -24.7761 2.71
    endloop
  endfacet
  facet normal 0.906295 0.422645 0
    outer loop
      vertex -67.5691 -24.7761 2.5
      vertex -67.3481 -25.25 2.71
      vertex -67.3481 -25.25 2.5
    endloop
  endfacet
  facet normal 0.422645 0.906295 -0
    outer loop
      vertex -65.7761 -26.5691 2.5
      vertex -66.25 -26.3481 2.71
      vertex -65.7761 -26.5691 2.71
    endloop
  endfacet
  facet normal 0.422645 0.906295 0
    outer loop
      vertex -66.25 -26.3481 2.71
      vertex -65.7761 -26.5691 2.5
      vertex -66.25 -26.3481 2.5
    endloop
  endfacet
  facet normal 0.965958 -0.258698 0
    outer loop
      vertex -67.7044 24.2709 2.71
      vertex -67.5691 24.7761 2.5
      vertex -67.5691 24.7761 2.71
    endloop
  endfacet
  facet normal 0.965958 -0.258698 0
    outer loop
      vertex -67.5691 24.7761 2.5
      vertex -67.7044 24.2709 2.71
      vertex -67.7044 24.2709 2.5
    endloop
  endfacet
  facet normal 0.707107 0.707107 -0
    outer loop
      vertex -66.6784 -26.0481 2.5
      vertex -67.0481 -25.6784 2.71
      vertex -66.6784 -26.0481 2.71
    endloop
  endfacet
  facet normal 0.707107 0.707107 0
    outer loop
      vertex -67.0481 -25.6784 2.71
      vertex -66.6784 -26.0481 2.5
      vertex -67.0481 -25.6784 2.5
    endloop
  endfacet
  facet normal 0.819124 0.573616 0
    outer loop
      vertex -67.0481 -25.6784 2.71
      vertex -67.3481 -25.25 2.5
      vertex -67.3481 -25.25 2.71
    endloop
  endfacet
  facet normal 0.819124 0.573616 0
    outer loop
      vertex -67.3481 -25.25 2.5
      vertex -67.0481 -25.6784 2.71
      vertex -67.0481 -25.6784 2.5
    endloop
  endfacet
  facet normal 0.906295 -0.422645 0
    outer loop
      vertex -67.5691 24.7761 2.71
      vertex -67.3481 25.25 2.5
      vertex -67.3481 25.25 2.71
    endloop
  endfacet
  facet normal 0.906295 -0.422645 0
    outer loop
      vertex -67.3481 25.25 2.5
      vertex -67.5691 24.7761 2.71
      vertex -67.5691 24.7761 2.5
    endloop
  endfacet
  facet normal -0.819124 0.573616 0
    outer loop
      vertex 67.0481 -25.6784 2.5
      vertex 67.3481 -25.25 2.71
      vertex 67.3481 -25.25 2.5
    endloop
  endfacet
  facet normal -0.819124 0.573616 0
    outer loop
      vertex 67.3481 -25.25 2.71
      vertex 67.0481 -25.6784 2.5
      vertex 67.0481 -25.6784 2.71
    endloop
  endfacet
  facet normal -0.422645 0.906295 0
    outer loop
      vertex 66.25 -26.3481 2.5
      vertex 65.7761 -26.5691 2.71
      vertex 66.25 -26.3481 2.71
    endloop
  endfacet
  facet normal -0.422645 0.906295 0
    outer loop
      vertex 65.7761 -26.5691 2.71
      vertex 66.25 -26.3481 2.5
      vertex 65.7761 -26.5691 2.5
    endloop
  endfacet
  facet normal 0.573616 -0.819124 0
    outer loop
      vertex -66.6784 26.0481 2.5
      vertex -66.25 26.3481 2.71
      vertex -66.6784 26.0481 2.71
    endloop
  endfacet
  facet normal 0.573616 -0.819124 0
    outer loop
      vertex -66.25 26.3481 2.71
      vertex -66.6784 26.0481 2.5
      vertex -66.25 26.3481 2.5
    endloop
  endfacet
  facet normal 0.99619 0.0872073 0
    outer loop
      vertex -67.7044 -24.2709 2.71
      vertex -67.75 -23.75 2.5
      vertex -67.75 -23.75 2.71
    endloop
  endfacet
  facet normal 0.99619 0.0872073 0
    outer loop
      vertex -67.75 -23.75 2.5
      vertex -67.7044 -24.2709 2.71
      vertex -67.7044 -24.2709 2.5
    endloop
  endfacet
  facet normal 0.965958 0.258698 0
    outer loop
      vertex -67.5691 -24.7761 2.71
      vertex -67.7044 -24.2709 2.5
      vertex -67.7044 -24.2709 2.71
    endloop
  endfacet
  facet normal 0.965958 0.258698 0
    outer loop
      vertex -67.7044 -24.2709 2.5
      vertex -67.5691 -24.7761 2.71
      vertex -67.5691 -24.7761 2.5
    endloop
  endfacet
  facet normal 0.707107 -0.707107 0
    outer loop
      vertex -67.0481 25.6784 2.5
      vertex -66.6784 26.0481 2.71
      vertex -67.0481 25.6784 2.71
    endloop
  endfacet
  facet normal 0.707107 -0.707107 0
    outer loop
      vertex -66.6784 26.0481 2.71
      vertex -67.0481 25.6784 2.5
      vertex -66.6784 26.0481 2.5
    endloop
  endfacet
  facet normal 0 0 -1
    outer loop
      vertex -3.1748 -3.7325 2.5
      vertex -1.5744 -0.830093 2.5
      vertex -1.5744 -3.7325 2.5
    endloop
  endfacet
  facet normal -0 0 -1
    outer loop
      vertex -1.5744 -0.830093 2.5
      vertex -3.1748 -3.7325 2.5
      vertex -1.5744 0.412216 2.5
    endloop
  endfacet
  facet normal 0 0 -1
    outer loop
      vertex -3.1748 3.91133 2.5
      vertex -1.5744 0.412216 2.5
      vertex -3.1748 -3.7325 2.5
    endloop
  endfacet
  facet normal 0 0 -1
    outer loop
      vertex 2.07663 -3.7325 2.5
      vertex 1.81079 -0.520889 2.5
      vertex 3.87775 -3.7325 2.5
    endloop
  endfacet
  facet normal 0 0 -1
    outer loop
      vertex 2.84715 0.0293884 2.5
      vertex 1.66449 0.847275 2.5
      vertex 1.76172 0.998093 2.5
    endloop
  endfacet
  facet normal 0 0 -1
    outer loop
      vertex 0.302628 -0.830093 2.5
      vertex 1.81079 -0.520889 2.5
      vertex 2.07663 -3.7325 2.5
    endloop
  endfacet
  facet normal 0 0 -1
    outer loop
      vertex 2.10829 -0.431152 2.5
      vertex 1.53951 0.715973 2.5
      vertex 1.66449 0.847275 2.5
    endloop
  endfacet
  facet normal 0 0 -1
    outer loop
      vertex 2.10829 -0.431152 2.5
      vertex 1.3876 0.606613 2.5
      vertex 1.53951 0.715973 2.5
    endloop
  endfacet
  facet normal 0 -0 -1
    outer loop
      vertex 0.775696 0.424362 2.5
      vertex 1.81079 -0.520889 2.5
      vertex 0.302628 -0.830093 2.5
    endloop
  endfacet
  facet normal 0 0 -1
    outer loop
      vertex 1.81079 -0.520889 2.5
      vertex 1.20967 0.521561 2.5
      vertex 1.3876 0.606613 2.5
    endloop
  endfacet
  facet normal 0 0 -1
    outer loop
      vertex 1.81079 -0.520889 2.5
      vertex 1.00571 0.460815 2.5
      vertex 1.20967 0.521561 2.5
    endloop
  endfacet
  facet normal 0 0 -1
    outer loop
      vertex 1.81079 -0.520889 2.5
      vertex 0.775696 0.424362 2.5
      vertex 1.00571 0.460815 2.5
    endloop
  endfacet
  facet normal 0 0 -1
    outer loop
      vertex 0.775696 0.424362 2.5
      vertex 0.302628 -0.830093 2.5
      vertex 0.519669 0.412216 2.5
    endloop
  endfacet
  facet normal 0 0 -1
    outer loop
      vertex -1.5744 0.412216 2.5
      vertex 0.302628 -0.830093 2.5
      vertex -1.5744 -0.830093 2.5
    endloop
  endfacet
  facet normal 0 0 -1
    outer loop
      vertex 0.302628 -0.830093 2.5
      vertex -1.5744 0.412216 2.5
      vertex 0.519669 0.412216 2.5
    endloop
  endfacet
  facet normal 0 0 -1
    outer loop
      vertex 1.8867 1.56773 2.5
      vertex 3.49799 1.63286 2.5
      vertex 3.47975 1.32047 2.5
    endloop
  endfacet
  facet normal 0 0 -1
    outer loop
      vertex 1.87282 1.35832 2.5
      vertex 3.47975 1.32047 2.5
      vertex 3.42506 1.02565 2.5
    endloop
  endfacet
  facet normal -0 0 -1
    outer loop
      vertex 3.49799 1.63286 2.5
      vertex 1.8867 1.56773 2.5
      vertex 3.46825 2.05286 2.5
    endloop
  endfacet
  facet normal 0 0 -1
    outer loop
      vertex 1.87282 1.35832 2.5
      vertex 3.42506 1.02565 2.5
      vertex 3.33391 0.748413 2.5
    endloop
  endfacet
  facet normal 0 0 -1
    outer loop
      vertex 1.83029 1.96419 2.5
      vertex 3.46825 2.05286 2.5
      vertex 1.8867 1.56773 2.5
    endloop
  endfacet
  facet normal 0 0 -1
    outer loop
      vertex 1.83115 1.16844 2.5
      vertex 3.33391 0.748413 2.5
      vertex 3.2063 0.48877 2.5
    endloop
  endfacet
  facet normal 0 0 -1
    outer loop
      vertex 1.83115 1.16844 2.5
      vertex 3.2063 0.48877 2.5
      vertex 3.04222 0.246689 2.5
    endloop
  endfacet
  facet normal -0 0 -1
    outer loop
      vertex 3.46825 2.05286 2.5
      vertex 1.83029 1.96419 2.5
      vertex 3.37906 2.43184 2.5
    endloop
  endfacet
  facet normal 0 0 -1
    outer loop
      vertex 1.76172 0.998093 2.5
      vertex 3.04222 0.246689 2.5
      vertex 2.84715 0.0293884 2.5
    endloop
  endfacet
  facet normal -0 0 -1
    outer loop
      vertex 3.37906 2.43184 2.5
      vertex 1.83029 1.96419 2.5
      vertex 3.23041 2.76981 2.5
    endloop
  endfacet
  facet normal 0 0 -1
    outer loop
      vertex 1.66449 0.847275 2.5
      vertex 2.84715 0.0293884 2.5
      vertex 2.62646 -0.156006 2.5
    endloop
  endfacet
  facet normal -0 0 -1
    outer loop
      vertex 3.23041 2.76981 2.5
      vertex 1.83029 1.96419 2.5
      vertex 3.02228 3.06676 2.5
    endloop
  endfacet
  facet normal 0 0 -1
    outer loop
      vertex 1.66449 0.847275 2.5
      vertex 2.62646 -0.156006 2.5
      vertex 2.38017 -0.309525 2.5
    endloop
  endfacet
  facet normal 0 0 -1
    outer loop
      vertex 1.66449 0.847275 2.5
      vertex 2.38017 -0.309525 2.5
      vertex 2.10829 -0.431152 2.5
    endloop
  endfacet
  facet normal 0 0 -1
    outer loop
      vertex 1.66103 2.27255 2.5
      vertex 3.02228 3.06676 2.5
      vertex 1.83029 1.96419 2.5
    endloop
  endfacet
  facet normal -0 0 -1
    outer loop
      vertex 3.02228 3.06676 2.5
      vertex 1.66103 2.27255 2.5
      vertex 2.7547 3.32269 2.5
    endloop
  endfacet
  facet normal 0 0 -1
    outer loop
      vertex 3.47975 1.32047 2.5
      vertex 1.87282 1.35832 2.5
      vertex 1.8867 1.56773 2.5
    endloop
  endfacet
  facet normal 0 0 -1
    outer loop
      vertex 3.33391 0.748413 2.5
      vertex 1.83115 1.16844 2.5
      vertex 1.87282 1.35832 2.5
    endloop
  endfacet
  facet normal 0 0 -1
    outer loop
      vertex 1.3876 0.606613 2.5
      vertex 2.10829 -0.431152 2.5
      vertex 1.81079 -0.520889 2.5
    endloop
  endfacet
  facet normal 0 0 -1
    outer loop
      vertex 3.04222 0.246689 2.5
      vertex 1.76172 0.998093 2.5
      vertex 1.83115 1.16844 2.5
    endloop
  endfacet
  facet normal -0 0 -1
    outer loop
      vertex 2.7547 3.32269 2.5
      vertex 1.66103 2.27255 2.5
      vertex 2.43246 3.53461 2.5
    endloop
  endfacet
  facet normal 0 0 -1
    outer loop
      vertex 1.37894 2.49281 2.5
      vertex 2.43246 3.53461 2.5
      vertex 1.66103 2.27255 2.5
    endloop
  endfacet
  facet normal -0 0 -1
    outer loop
      vertex 2.43246 3.53461 2.5
      vertex 1.37894 2.49281 2.5
      vertex 2.06032 3.69942 2.5
    endloop
  endfacet
  facet normal -0 0 -1
    outer loop
      vertex 2.06032 3.69942 2.5
      vertex 1.37894 2.49281 2.5
      vertex 1.63826 3.81715 2.5
    endloop
  endfacet
  facet normal 0 0 -1
    outer loop
      vertex 0.983994 2.62495 2.5
      vertex 1.63826 3.81715 2.5
      vertex 1.37894 2.49281 2.5
    endloop
  endfacet
  facet normal -0 0 -1
    outer loop
      vertex 1.63826 3.81715 2.5
      vertex 0.983994 2.62495 2.5
      vertex 1.16628 3.88779 2.5
    endloop
  endfacet
  facet normal 0 0 -1
    outer loop
      vertex 0.983994 2.62495 2.5
      vertex 0.644379 3.91133 2.5
      vertex 1.16628 3.88779 2.5
    endloop
  endfacet
  facet normal 0 0 -1
    outer loop
      vertex 0.476227 2.66901 2.5
      vertex 0.644379 3.91133 2.5
      vertex 0.983994 2.62495 2.5
    endloop
  endfacet
  facet normal 0 0 -1
    outer loop
      vertex -1.5744 2.66901 2.5
      vertex 0.644379 3.91133 2.5
      vertex 0.476227 2.66901 2.5
    endloop
  endfacet
  facet normal 0 0 -1
    outer loop
      vertex -1.5744 2.66901 2.5
      vertex -3.1748 3.91133 2.5
      vertex 0.644379 3.91133 2.5
    endloop
  endfacet
  facet normal 0 0 -1
    outer loop
      vertex -1.5744 0.412216 2.5
      vertex -3.1748 3.91133 2.5
      vertex -1.5744 2.66901 2.5
    endloop
  endfacet
  facet normal 0 0 1
    outer loop
      vertex 3.46825 2.05286 2.7
      vertex 1.83029 1.96419 2.7
      vertex 1.8867 1.56773 2.7
    endloop
  endfacet
  facet normal 0 0 1
    outer loop
      vertex 2.43246 3.53461 2.7
      vertex 1.66103 2.27255 2.7
      vertex 1.83029 1.96419 2.7
    endloop
  endfacet
  facet normal 0 0 1
    outer loop
      vertex 1.37894 2.49281 2.7
      vertex 2.06032 3.69942 2.7
      vertex 1.63826 3.81715 2.7
    endloop
  endfacet
  facet normal 0 0 1
    outer loop
      vertex 2.43246 3.53461 2.7
      vertex 1.37894 2.49281 2.7
      vertex 1.66103 2.27255 2.7
    endloop
  endfacet
  facet normal 0 0 1
    outer loop
      vertex 0.983994 2.62495 2.7
      vertex 1.63826 3.81715 2.7
      vertex 1.16628 3.88779 2.7
    endloop
  endfacet
  facet normal 0 0 1
    outer loop
      vertex 1.63826 3.81715 2.7
      vertex 0.983994 2.62495 2.7
      vertex 1.37894 2.49281 2.7
    endloop
  endfacet
  facet normal 0 0 1
    outer loop
      vertex 0.644379 3.91133 2.7
      vertex 0.983994 2.62495 2.7
      vertex 1.16628 3.88779 2.7
    endloop
  endfacet
  facet normal 0 0 1
    outer loop
      vertex 0.644379 3.91133 2.7
      vertex 0.476227 2.66901 2.7
      vertex 0.983994 2.62495 2.7
    endloop
  endfacet
  facet normal 0 0 1
    outer loop
      vertex 0.644379 3.91133 2.7
      vertex -1.5744 2.66901 2.7
      vertex 0.476227 2.66901 2.7
    endloop
  endfacet
  facet normal 0 0 1
    outer loop
      vertex -3.1748 3.91133 2.7
      vertex -1.5744 0.412216 2.7
      vertex -1.5744 2.66901 2.7
    endloop
  endfacet
  facet normal 0 0 1
    outer loop
      vertex -3.1748 -3.7325 2.7
      vertex -1.5744 0.412216 2.7
      vertex -3.1748 3.91133 2.7
    endloop
  endfacet
  facet normal -0 0 1
    outer loop
      vertex -3.1748 3.91133 2.7
      vertex -1.5744 2.66901 2.7
      vertex 0.644379 3.91133 2.7
    endloop
  endfacet
  facet normal 0 0 1
    outer loop
      vertex -1.5744 0.412216 2.7
      vertex -3.1748 -3.7325 2.7
      vertex -1.5744 -0.830093 2.7
    endloop
  endfacet
  facet normal 0 0 1
    outer loop
      vertex -1.5744 -0.830093 2.7
      vertex -3.1748 -3.7325 2.7
      vertex -1.5744 -3.7325 2.7
    endloop
  endfacet
  facet normal 0 0 1
    outer loop
      vertex 1.8867 1.56773 2.7
      vertex 3.49799 1.63286 2.7
      vertex 3.46825 2.05286 2.7
    endloop
  endfacet
  facet normal 0 0 1
    outer loop
      vertex 3.49799 1.63286 2.7
      vertex 1.8867 1.56773 2.7
      vertex 3.47975 1.32047 2.7
    endloop
  endfacet
  facet normal 0 0 1
    outer loop
      vertex 1.83029 1.96419 2.7
      vertex 3.46825 2.05286 2.7
      vertex 3.37906 2.43184 2.7
    endloop
  endfacet
  facet normal -0 0 1
    outer loop
      vertex 1.87282 1.35832 2.7
      vertex 3.47975 1.32047 2.7
      vertex 1.8867 1.56773 2.7
    endloop
  endfacet
  facet normal 0 0 1
    outer loop
      vertex 1.83029 1.96419 2.7
      vertex 3.37906 2.43184 2.7
      vertex 3.23041 2.76981 2.7
    endloop
  endfacet
  facet normal 0 0 1
    outer loop
      vertex 3.47975 1.32047 2.7
      vertex 1.87282 1.35832 2.7
      vertex 3.42506 1.02565 2.7
    endloop
  endfacet
  facet normal 0 0 1
    outer loop
      vertex 3.42506 1.02565 2.7
      vertex 1.87282 1.35832 2.7
      vertex 3.33391 0.748413 2.7
    endloop
  endfacet
  facet normal 0 0 1
    outer loop
      vertex 1.83029 1.96419 2.7
      vertex 3.23041 2.76981 2.7
      vertex 3.02228 3.06676 2.7
    endloop
  endfacet
  facet normal -0 0 1
    outer loop
      vertex 1.83115 1.16844 2.7
      vertex 3.33391 0.748413 2.7
      vertex 1.87282 1.35832 2.7
    endloop
  endfacet
  facet normal 0 0 1
    outer loop
      vertex 1.83029 1.96419 2.7
      vertex 3.02228 3.06676 2.7
      vertex 2.7547 3.32269 2.7
    endloop
  endfacet
  facet normal 0 0 1
    outer loop
      vertex 3.33391 0.748413 2.7
      vertex 1.83115 1.16844 2.7
      vertex 3.2063 0.48877 2.7
    endloop
  endfacet
  facet normal 0 0 1
    outer loop
      vertex 1.83029 1.96419 2.7
      vertex 2.7547 3.32269 2.7
      vertex 2.43246 3.53461 2.7
    endloop
  endfacet
  facet normal 0 0 1
    outer loop
      vertex 3.2063 0.48877 2.7
      vertex 1.83115 1.16844 2.7
      vertex 3.04222 0.246689 2.7
    endloop
  endfacet
  facet normal -0 0 1
    outer loop
      vertex 1.76172 0.998093 2.7
      vertex 3.04222 0.246689 2.7
      vertex 1.83115 1.16844 2.7
    endloop
  endfacet
  facet normal 0 0 1
    outer loop
      vertex 1.37894 2.49281 2.7
      vertex 2.43246 3.53461 2.7
      vertex 2.06032 3.69942 2.7
    endloop
  endfacet
  facet normal 0 0 1
    outer loop
      vertex 3.04222 0.246689 2.7
      vertex 1.76172 0.998093 2.7
      vertex 2.84715 0.0293884 2.7
    endloop
  endfacet
  facet normal -0 0 1
    outer loop
      vertex 1.66449 0.847275 2.7
      vertex 2.84715 0.0293884 2.7
      vertex 1.76172 0.998093 2.7
    endloop
  endfacet
  facet normal 0 0 1
    outer loop
      vertex 2.84715 0.0293884 2.7
      vertex 1.66449 0.847275 2.7
      vertex 2.62646 -0.156006 2.7
    endloop
  endfacet
  facet normal 0 0 1
    outer loop
      vertex 2.62646 -0.156006 2.7
      vertex 1.66449 0.847275 2.7
      vertex 2.38017 -0.309525 2.7
    endloop
  endfacet
  facet normal -0 0 1
    outer loop
      vertex 1.53951 0.715973 2.7
      vertex 2.38017 -0.309525 2.7
      vertex 1.66449 0.847275 2.7
    endloop
  endfacet
  facet normal 0 0 1
    outer loop
      vertex 1.81079 -0.520889 2.7
      vertex 2.07663 -3.7325 2.7
      vertex 3.87775 -3.7325 2.7
    endloop
  endfacet
  facet normal 0 0 1
    outer loop
      vertex 2.38017 -0.309525 2.7
      vertex 1.53951 0.715973 2.7
      vertex 2.10829 -0.431152 2.7
    endloop
  endfacet
  facet normal -0 0 1
    outer loop
      vertex 1.3876 0.606613 2.7
      vertex 2.10829 -0.431152 2.7
      vertex 1.53951 0.715973 2.7
    endloop
  endfacet
  facet normal 0 0 1
    outer loop
      vertex 2.10829 -0.431152 2.7
      vertex 1.3876 0.606613 2.7
      vertex 1.81079 -0.520889 2.7
    endloop
  endfacet
  facet normal -0 0 1
    outer loop
      vertex 1.20967 0.521561 2.7
      vertex 1.81079 -0.520889 2.7
      vertex 1.3876 0.606613 2.7
    endloop
  endfacet
  facet normal -0 0 1
    outer loop
      vertex 1.00571 0.460815 2.7
      vertex 1.81079 -0.520889 2.7
      vertex 1.20967 0.521561 2.7
    endloop
  endfacet
  facet normal -0 0 1
    outer loop
      vertex 0.775696 0.424362 2.7
      vertex 1.81079 -0.520889 2.7
      vertex 1.00571 0.460815 2.7
    endloop
  endfacet
  facet normal 0 0 1
    outer loop
      vertex 1.81079 -0.520889 2.7
      vertex 0.775696 0.424362 2.7
      vertex 0.302628 -0.830093 2.7
    endloop
  endfacet
  facet normal 0 0 1
    outer loop
      vertex 0.302628 -0.830093 2.7
      vertex 0.775696 0.424362 2.7
      vertex 0.519669 0.412216 2.7
    endloop
  endfacet
  facet normal 0 0 1
    outer loop
      vertex 1.81079 -0.520889 2.7
      vertex 0.302628 -0.830093 2.7
      vertex 2.07663 -3.7325 2.7
    endloop
  endfacet
  facet normal -0 0 1
    outer loop
      vertex -1.5744 0.412216 2.7
      vertex 0.302628 -0.830093 2.7
      vertex 0.519669 0.412216 2.7
    endloop
  endfacet
  facet normal 0 0 1
    outer loop
      vertex 0.302628 -0.830093 2.7
      vertex -1.5744 0.412216 2.7
      vertex -1.5744 -0.830093 2.7
    endloop
  endfacet
  facet normal 0 -1 0
    outer loop
      vertex -1.5744 -0.830093 2.5
      vertex 0.302628 -0.830093 2.7
      vertex -1.5744 -0.830093 2.7
    endloop
  endfacet
  facet normal 0 -1 -0
    outer loop
      vertex 0.302628 -0.830093 2.7
      vertex -1.5744 -0.830093 2.5
      vertex 0.302628 -0.830093 2.5
    endloop
  endfacet
  facet normal -0.853241 -0.521516 0
    outer loop
      vertex 2.07663 -3.7325 2.5
      vertex 0.302628 -0.830093 2.7
      vertex 0.302628 -0.830093 2.5
    endloop
  endfacet
  facet normal -0.853241 -0.521516 0
    outer loop
      vertex 0.302628 -0.830093 2.7
      vertex 2.07663 -3.7325 2.5
      vertex 2.07663 -3.7325 2.7
    endloop
  endfacet
  facet normal 0 -1 0
    outer loop
      vertex 2.07663 -3.7325 2.5
      vertex 3.87775 -3.7325 2.7
      vertex 2.07663 -3.7325 2.7
    endloop
  endfacet
  facet normal 0 -1 -0
    outer loop
      vertex 3.87775 -3.7325 2.7
      vertex 2.07663 -3.7325 2.5
      vertex 3.87775 -3.7325 2.5
    endloop
  endfacet
  facet normal 0.840898 0.541193 0
    outer loop
      vertex 3.87775 -3.7325 2.7
      vertex 1.81079 -0.520889 2.5
      vertex 1.81079 -0.520889 2.7
    endloop
  endfacet
  facet normal 0.840898 0.541193 0
    outer loop
      vertex 1.81079 -0.520889 2.5
      vertex 3.87775 -3.7325 2.7
      vertex 3.87775 -3.7325 2.5
    endloop
  endfacet
  facet normal 0.288785 -0.957394 0
    outer loop
      vertex 1.81079 -0.520889 2.5
      vertex 2.10829 -0.431152 2.7
      vertex 1.81079 -0.520889 2.7
    endloop
  endfacet
  facet normal 0.288785 -0.957394 0
    outer loop
      vertex 2.10829 -0.431152 2.7
      vertex 1.81079 -0.520889 2.5
      vertex 2.10829 -0.431152 2.5
    endloop
  endfacet
  facet normal 0.408356 -0.912823 0
    outer loop
      vertex 2.10829 -0.431152 2.5
      vertex 2.38017 -0.309525 2.7
      vertex 2.10829 -0.431152 2.7
    endloop
  endfacet
  facet normal 0.408356 -0.912823 0
    outer loop
      vertex 2.38017 -0.309525 2.7
      vertex 2.10829 -0.431152 2.5
      vertex 2.38017 -0.309525 2.5
    endloop
  endfacet
  facet normal 0.528977 -0.848636 0
    outer loop
      vertex 2.38017 -0.309525 2.5
      vertex 2.62646 -0.156006 2.7
      vertex 2.38017 -0.309525 2.7
    endloop
  endfacet
  facet normal 0.528977 -0.848636 0
    outer loop
      vertex 2.62646 -0.156006 2.7
      vertex 2.38017 -0.309525 2.5
      vertex 2.62646 -0.156006 2.5
    endloop
  endfacet
  facet normal 0.643222 -0.76568 0
    outer loop
      vertex 2.62646 -0.156006 2.5
      vertex 2.84715 0.0293884 2.7
      vertex 2.62646 -0.156006 2.7
    endloop
  endfacet
  facet normal 0.643222 -0.76568 0
    outer loop
      vertex 2.84715 0.0293884 2.7
      vertex 2.62646 -0.156006 2.5
      vertex 2.84715 0.0293884 2.5
    endloop
  endfacet
  facet normal 0.744146 -0.668017 0
    outer loop
      vertex 2.84715 0.0293884 2.7
      vertex 3.04222 0.246689 2.5
      vertex 3.04222 0.246689 2.7
    endloop
  endfacet
  facet normal 0.744146 -0.668017 0
    outer loop
      vertex 3.04222 0.246689 2.5
      vertex 2.84715 0.0293884 2.7
      vertex 2.84715 0.0293884 2.5
    endloop
  endfacet
  facet normal 0.827776 -0.561058 0
    outer loop
      vertex 3.04222 0.246689 2.7
      vertex 3.2063 0.48877 2.5
      vertex 3.2063 0.48877 2.7
    endloop
  endfacet
  facet normal 0.827776 -0.561058 0
    outer loop
      vertex 3.2063 0.48877 2.5
      vertex 3.04222 0.246689 2.7
      vertex 3.04222 0.246689 2.5
    endloop
  endfacet
  facet normal 0.897464 -0.441088 0
    outer loop
      vertex 3.2063 0.48877 2.7
      vertex 3.33391 0.748413 2.5
      vertex 3.33391 0.748413 2.7
    endloop
  endfacet
  facet normal 0.897464 -0.441088 0
    outer loop
      vertex 3.33391 0.748413 2.5
      vertex 3.2063 0.48877 2.7
      vertex 3.2063 0.48877 2.5
    endloop
  endfacet
  facet normal 0.949973 -0.312332 0
    outer loop
      vertex 3.33391 0.748413 2.7
      vertex 3.42506 1.02565 2.5
      vertex 3.42506 1.02565 2.7
    endloop
  endfacet
  facet normal 0.949973 -0.312332 0
    outer loop
      vertex 3.42506 1.02565 2.5
      vertex 3.33391 0.748413 2.7
      vertex 3.33391 0.748413 2.5
    endloop
  endfacet
  facet normal 0.983226 -0.182391 0
    outer loop
      vertex 3.42506 1.02565 2.7
      vertex 3.47975 1.32047 2.5
      vertex 3.47975 1.32047 2.7
    endloop
  endfacet
  facet normal 0.983226 -0.182391 0
    outer loop
      vertex 3.47975 1.32047 2.5
      vertex 3.42506 1.02565 2.7
      vertex 3.42506 1.02565 2.5
    endloop
  endfacet
  facet normal 0.9983 -0.0582893 0
    outer loop
      vertex 3.47975 1.32047 2.7
      vertex 3.49799 1.63286 2.5
      vertex 3.49799 1.63286 2.7
    endloop
  endfacet
  facet normal 0.9983 -0.0582893 0
    outer loop
      vertex 3.49799 1.63286 2.5
      vertex 3.47975 1.32047 2.7
      vertex 3.47975 1.32047 2.5
    endloop
  endfacet
  facet normal 0.997502 0.0706327 0
    outer loop
      vertex 3.49799 1.63286 2.7
      vertex 3.46825 2.05286 2.5
      vertex 3.46825 2.05286 2.7
    endloop
  endfacet
  facet normal 0.997502 0.0706327 0
    outer loop
      vertex 3.46825 2.05286 2.5
      vertex 3.49799 1.63286 2.7
      vertex 3.49799 1.63286 2.5
    endloop
  endfacet
  facet normal 0.973407 0.229084 0
    outer loop
      vertex 3.46825 2.05286 2.7
      vertex 3.37906 2.43184 2.5
      vertex 3.37906 2.43184 2.7
    endloop
  endfacet
  facet normal 0.973407 0.229084 0
    outer loop
      vertex 3.37906 2.43184 2.5
      vertex 3.46825 2.05286 2.7
      vertex 3.46825 2.05286 2.5
    endloop
  endfacet
  facet normal 0.915372 0.40261 0
    outer loop
      vertex 3.37906 2.43184 2.7
      vertex 3.23041 2.76981 2.5
      vertex 3.23041 2.76981 2.7
    endloop
  endfacet
  facet normal 0.915372 0.40261 0
    outer loop
      vertex 3.23041 2.76981 2.5
      vertex 3.37906 2.43184 2.7
      vertex 3.37906 2.43184 2.5
    endloop
  endfacet
  facet normal 0.818888 0.573953 0
    outer loop
      vertex 3.23041 2.76981 2.7
      vertex 3.02228 3.06676 2.5
      vertex 3.02228 3.06676 2.7
    endloop
  endfacet
  facet normal 0.818888 0.573953 0
    outer loop
      vertex 3.02228 3.06676 2.5
      vertex 3.23041 2.76981 2.7
      vertex 3.23041 2.76981 2.5
    endloop
  endfacet
  facet normal 0.6912 0.722664 -0
    outer loop
      vertex 3.02228 3.06676 2.5
      vertex 2.7547 3.32269 2.7
      vertex 3.02228 3.06676 2.7
    endloop
  endfacet
  facet normal 0.6912 0.722664 0
    outer loop
      vertex 2.7547 3.32269 2.7
      vertex 3.02228 3.06676 2.5
      vertex 2.7547 3.32269 2.5
    endloop
  endfacet
  facet normal 0.549472 0.835512 -0
    outer loop
      vertex 2.7547 3.32269 2.5
      vertex 2.43246 3.53461 2.7
      vertex 2.7547 3.32269 2.7
    endloop
  endfacet
  facet normal 0.549472 0.835512 0
    outer loop
      vertex 2.43246 3.53461 2.7
      vertex 2.7547 3.32269 2.5
      vertex 2.43246 3.53461 2.5
    endloop
  endfacet
  facet normal 0.404937 0.914345 -0
    outer loop
      vertex 2.43246 3.53461 2.5
      vertex 2.06032 3.69942 2.7
      vertex 2.43246 3.53461 2.7
    endloop
  endfacet
  facet normal 0.404937 0.914345 0
    outer loop
      vertex 2.06032 3.69942 2.7
      vertex 2.43246 3.53461 2.5
      vertex 2.06032 3.69942 2.5
    endloop
  endfacet
  facet normal 0.268684 0.963228 -0
    outer loop
      vertex 2.06032 3.69942 2.5
      vertex 1.63826 3.81715 2.7
      vertex 2.06032 3.69942 2.7
    endloop
  endfacet
  facet normal 0.268684 0.963228 0
    outer loop
      vertex 1.63826 3.81715 2.7
      vertex 2.06032 3.69942 2.5
      vertex 1.63826 3.81715 2.5
    endloop
  endfacet
  facet normal 0.148019 0.988985 -0
    outer loop
      vertex 1.63826 3.81715 2.5
      vertex 1.16628 3.88779 2.7
      vertex 1.63826 3.81715 2.7
    endloop
  endfacet
  facet normal 0.148019 0.988985 0
    outer loop
      vertex 1.16628 3.88779 2.7
      vertex 1.63826 3.81715 2.5
      vertex 1.16628 3.88779 2.5
    endloop
  endfacet
  facet normal 0.0450585 0.998984 -0
    outer loop
      vertex 1.16628 3.88779 2.5
      vertex 0.644379 3.91133 2.7
      vertex 1.16628 3.88779 2.7
    endloop
  endfacet
  facet normal 0.0450585 0.998984 0
    outer loop
      vertex 0.644379 3.91133 2.7
      vertex 1.16628 3.88779 2.5
      vertex 0.644379 3.91133 2.5
    endloop
  endfacet
  facet normal 0 1 -0
    outer loop
      vertex 0.644379 3.91133 2.5
      vertex -3.1748 3.91133 2.7
      vertex 0.644379 3.91133 2.7
    endloop
  endfacet
  facet normal 0 1 0
    outer loop
      vertex -3.1748 3.91133 2.7
      vertex 0.644379 3.91133 2.5
      vertex -3.1748 3.91133 2.5
    endloop
  endfacet
  facet normal -1 0 0
    outer loop
      vertex -3.1748 -3.7325 2.5
      vertex -3.1748 3.91133 2.7
      vertex -3.1748 3.91133 2.5
    endloop
  endfacet
  facet normal -1 -0 0
    outer loop
      vertex -3.1748 3.91133 2.7
      vertex -3.1748 -3.7325 2.5
      vertex -3.1748 -3.7325 2.7
    endloop
  endfacet
  facet normal 0 -1 0
    outer loop
      vertex -3.1748 -3.7325 2.5
      vertex -1.5744 -3.7325 2.7
      vertex -3.1748 -3.7325 2.7
    endloop
  endfacet
  facet normal 0 -1 -0
    outer loop
      vertex -1.5744 -3.7325 2.7
      vertex -3.1748 -3.7325 2.5
      vertex -1.5744 -3.7325 2.5
    endloop
  endfacet
  facet normal 1 -0 0
    outer loop
      vertex -1.5744 -3.7325 2.7
      vertex -1.5744 -0.830093 2.5
      vertex -1.5744 -0.830093 2.7
    endloop
  endfacet
  facet normal 1 0 0
    outer loop
      vertex -1.5744 -0.830093 2.5
      vertex -1.5744 -3.7325 2.7
      vertex -1.5744 -3.7325 2.5
    endloop
  endfacet
  facet normal 1 -0 0
    outer loop
      vertex -1.5744 0.412216 2.7
      vertex -1.5744 2.66901 2.5
      vertex -1.5744 2.66901 2.7
    endloop
  endfacet
  facet normal 1 0 0
    outer loop
      vertex -1.5744 2.66901 2.5
      vertex -1.5744 0.412216 2.7
      vertex -1.5744 0.412216 2.5
    endloop
  endfacet
  facet normal 0 -1 0
    outer loop
      vertex -1.5744 2.66901 2.5
      vertex 0.476227 2.66901 2.7
      vertex -1.5744 2.66901 2.7
    endloop
  endfacet
  facet normal 0 -1 -0
    outer loop
      vertex 0.476227 2.66901 2.7
      vertex -1.5744 2.66901 2.5
      vertex 0.476227 2.66901 2.5
    endloop
  endfacet
  facet normal -0.0864472 -0.996256 0
    outer loop
      vertex 0.476227 2.66901 2.5
      vertex 0.983994 2.62495 2.7
      vertex 0.476227 2.66901 2.7
    endloop
  endfacet
  facet normal -0.0864472 -0.996256 -0
    outer loop
      vertex 0.983994 2.62495 2.7
      vertex 0.476227 2.66901 2.5
      vertex 0.983994 2.62495 2.5
    endloop
  endfacet
  facet normal -0.317289 -0.948329 0
    outer loop
      vertex 0.983994 2.62495 2.5
      vertex 1.37894 2.49281 2.7
      vertex 0.983994 2.62495 2.7
    endloop
  endfacet
  facet normal -0.317289 -0.948329 -0
    outer loop
      vertex 1.37894 2.49281 2.7
      vertex 0.983994 2.62495 2.5
      vertex 1.37894 2.49281 2.5
    endloop
  endfacet
  facet normal -0.615431 -0.788191 0
    outer loop
      vertex 1.37894 2.49281 2.5
      vertex 1.66103 2.27255 2.7
      vertex 1.37894 2.49281 2.7
    endloop
  endfacet
  facet normal -0.615431 -0.788191 -0
    outer loop
      vertex 1.66103 2.27255 2.7
      vertex 1.37894 2.49281 2.5
      vertex 1.66103 2.27255 2.5
    endloop
  endfacet
  facet normal -0.876621 -0.481181 0
    outer loop
      vertex 1.83029 1.96419 2.5
      vertex 1.66103 2.27255 2.7
      vertex 1.66103 2.27255 2.5
    endloop
  endfacet
  facet normal -0.876621 -0.481181 0
    outer loop
      vertex 1.66103 2.27255 2.7
      vertex 1.83029 1.96419 2.5
      vertex 1.83029 1.96419 2.7
    endloop
  endfacet
  facet normal -0.990029 -0.140865 0
    outer loop
      vertex 1.8867 1.56773 2.5
      vertex 1.83029 1.96419 2.7
      vertex 1.83029 1.96419 2.5
    endloop
  endfacet
  facet normal -0.990029 -0.140865 0
    outer loop
      vertex 1.83029 1.96419 2.7
      vertex 1.8867 1.56773 2.5
      vertex 1.8867 1.56773 2.7
    endloop
  endfacet
  facet normal -0.997811 0.0661363 0
    outer loop
      vertex 1.87282 1.35832 2.5
      vertex 1.8867 1.56773 2.7
      vertex 1.8867 1.56773 2.5
    endloop
  endfacet
  facet normal -0.997811 0.0661363 0
    outer loop
      vertex 1.8867 1.56773 2.7
      vertex 1.87282 1.35832 2.5
      vertex 1.87282 1.35832 2.7
    endloop
  endfacet
  facet normal -0.976756 0.214353 0
    outer loop
      vertex 1.83115 1.16844 2.5
      vertex 1.87282 1.35832 2.7
      vertex 1.87282 1.35832 2.5
    endloop
  endfacet
  facet normal -0.976756 0.214353 0
    outer loop
      vertex 1.87282 1.35832 2.7
      vertex 1.83115 1.16844 2.5
      vertex 1.83115 1.16844 2.7
    endloop
  endfacet
  facet normal -0.926037 0.377434 0
    outer loop
      vertex 1.76172 0.998093 2.5
      vertex 1.83115 1.16844 2.7
      vertex 1.83115 1.16844 2.5
    endloop
  endfacet
  facet normal -0.926037 0.377434 0
    outer loop
      vertex 1.83115 1.16844 2.7
      vertex 1.76172 0.998093 2.5
      vertex 1.76172 0.998093 2.7
    endloop
  endfacet
  facet normal -0.840479 0.541844 0
    outer loop
      vertex 1.66449 0.847275 2.5
      vertex 1.76172 0.998093 2.7
      vertex 1.76172 0.998093 2.5
    endloop
  endfacet
  facet normal -0.840479 0.541844 0
    outer loop
      vertex 1.76172 0.998093 2.7
      vertex 1.66449 0.847275 2.5
      vertex 1.66449 0.847275 2.7
    endloop
  endfacet
  facet normal -0.724329 0.689454 0
    outer loop
      vertex 1.53951 0.715973 2.5
      vertex 1.66449 0.847275 2.7
      vertex 1.66449 0.847275 2.5
    endloop
  endfacet
  facet normal -0.724329 0.689454 0
    outer loop
      vertex 1.66449 0.847275 2.7
      vertex 1.53951 0.715973 2.5
      vertex 1.53951 0.715973 2.7
    endloop
  endfacet
  facet normal -0.584251 0.811573 0
    outer loop
      vertex 1.53951 0.715973 2.5
      vertex 1.3876 0.606613 2.7
      vertex 1.53951 0.715973 2.7
    endloop
  endfacet
  facet normal -0.584251 0.811573 0
    outer loop
      vertex 1.3876 0.606613 2.7
      vertex 1.53951 0.715973 2.5
      vertex 1.3876 0.606613 2.5
    endloop
  endfacet
  facet normal -0.43127 0.902223 0
    outer loop
      vertex 1.3876 0.606613 2.5
      vertex 1.20967 0.521561 2.7
      vertex 1.3876 0.606613 2.7
    endloop
  endfacet
  facet normal -0.43127 0.902223 0
    outer loop
      vertex 1.20967 0.521561 2.7
      vertex 1.3876 0.606613 2.5
      vertex 1.20967 0.521561 2.5
    endloop
  endfacet
  facet normal -0.285442 0.958396 0
    outer loop
      vertex 1.20967 0.521561 2.5
      vertex 1.00571 0.460815 2.7
      vertex 1.20967 0.521561 2.7
    endloop
  endfacet
  facet normal -0.285442 0.958396 0
    outer loop
      vertex 1.00571 0.460815 2.7
      vertex 1.20967 0.521561 2.5
      vertex 1.00571 0.460815 2.5
    endloop
  endfacet
  facet normal -0.156528 0.987674 0
    outer loop
      vertex 1.00571 0.460815 2.5
      vertex 0.775696 0.424362 2.7
      vertex 1.00571 0.460815 2.7
    endloop
  endfacet
  facet normal -0.156528 0.987674 0
    outer loop
      vertex 0.775696 0.424362 2.7
      vertex 1.00571 0.460815 2.5
      vertex 0.775696 0.424362 2.5
    endloop
  endfacet
  facet normal -0.047387 0.998877 0
    outer loop
      vertex 0.775696 0.424362 2.5
      vertex 0.519669 0.412216 2.7
      vertex 0.775696 0.424362 2.7
    endloop
  endfacet
  facet normal -0.047387 0.998877 0
    outer loop
      vertex 0.519669 0.412216 2.7
      vertex 0.775696 0.424362 2.5
      vertex 0.519669 0.412216 2.5
    endloop
  endfacet
  facet normal 0 1 -0
    outer loop
      vertex 0.519669 0.412216 2.5
      vertex -1.5744 0.412216 2.7
      vertex 0.519669 0.412216 2.7
    endloop
  endfacet
  facet normal 0 1 0
    outer loop
      vertex -1.5744 0.412216 2.7
      vertex 0.519669 0.412216 2.5
      vertex -1.5744 0.412216 2.5
    endloop
  endfacet
endsolid OpenSCAD_Model
