solid OpenSCAD_Model
  facet normal -0.819099 -0.573652 0
    outer loop
      vertex -59.2981 -6.92836 -5
      vertex -59.5981 -6.5 5.01
      vertex -59.5981 -6.5 -5
    endloop
  endfacet
  facet normal -0.819099 -0.573652 0
    outer loop
      vertex -59.5981 -6.5 5.01
      vertex -59.2981 -6.92836 -5
      vertex -59.2981 -6.92836 5.01
    endloop
  endfacet
  facet normal -0.707174 -0.70704 0
    outer loop
      vertex -59.2981 -6.92836 -5
      vertex -58.9284 -7.29813 5.01
      vertex -59.2981 -6.92836 5.01
    endloop
  endfacet
  facet normal -0.707174 -0.70704 -0
    outer loop
      vertex -58.9284 -7.29813 5.01
      vertex -59.2981 -6.92836 -5
      vertex -58.9284 -7.29813 -5
    endloop
  endfacet
  facet normal 0.0871693 -0.996194 0
    outer loop
      vertex 57 -8 -5
      vertex 57.5209 -7.95442 5.01
      vertex 57 -8 5.01
    endloop
  endfacet
  facet normal 0.0871693 -0.996194 0
    outer loop
      vertex 57.5209 -7.95442 5.01
      vertex 57 -8 -5
      vertex 57.5209 -7.95442 -5
    endloop
  endfacet
  facet normal 0 -1 0
    outer loop
      vertex -57 -8 -5
      vertex 57 -8 5.01
      vertex -57 -8 5.01
    endloop
  endfacet
  facet normal 0 -1 -0
    outer loop
      vertex 57 -8 5.01
      vertex -57 -8 -5
      vertex 57 -8 -5
    endloop
  endfacet
  facet normal 0.819099 -0.573652 0
    outer loop
      vertex 59.2981 -6.92836 5.01
      vertex 59.5981 -6.5 -5
      vertex 59.5981 -6.5 5.01
    endloop
  endfacet
  facet normal 0.819099 -0.573652 0
    outer loop
      vertex 59.5981 -6.5 -5
      vertex 59.2981 -6.92836 5.01
      vertex 59.2981 -6.92836 -5
    endloop
  endfacet
  facet normal 0 1 -0
    outer loop
      vertex 57 8 -5
      vertex -57 8 5.01
      vertex 57 8 5.01
    endloop
  endfacet
  facet normal 0 1 0
    outer loop
      vertex -57 8 5.01
      vertex 57 8 -5
      vertex -57 8 -5
    endloop
  endfacet
  facet normal -0.422645 0.906295 0
    outer loop
      vertex -58.0261 7.81908 -5
      vertex -58.5 7.59808 5.01
      vertex -58.0261 7.81908 5.01
    endloop
  endfacet
  facet normal -0.422645 0.906295 0
    outer loop
      vertex -58.5 7.59808 5.01
      vertex -58.0261 7.81908 -5
      vertex -58.5 7.59808 -5
    endloop
  endfacet
  facet normal 0.996191 -0.0872006 0
    outer loop
      vertex 59.9544 -5.52094 5.01
      vertex 60 -5 -5
      vertex 60 -5 5.01
    endloop
  endfacet
  facet normal 0.996191 -0.0872006 0
    outer loop
      vertex 60 -5 -5
      vertex 59.9544 -5.52094 5.01
      vertex 59.9544 -5.52094 -5
    endloop
  endfacet
  facet normal 0.906309 -0.422615 0
    outer loop
      vertex 59.5981 -6.5 5.01
      vertex 59.8191 -6.02606 -5
      vertex 59.8191 -6.02606 5.01
    endloop
  endfacet
  facet normal 0.906309 -0.422615 0
    outer loop
      vertex 59.8191 -6.02606 -5
      vertex 59.5981 -6.5 5.01
      vertex 59.5981 -6.5 -5
    endloop
  endfacet
  facet normal -0.996191 -0.0872006 0
    outer loop
      vertex -59.9544 -5.52094 -5
      vertex -60 -5 2.75795
      vertex -60 -5 -5
    endloop
  endfacet
  facet normal -0.996206 -0.0870319 -1.14161e-05
    outer loop
      vertex -60 -5 2.75795
      vertex -59.9544 -5.52094 -5
      vertex -59.9853 -5.16831 3.11889
    endloop
  endfacet
  facet normal -0.996196 -0.0871455 -6.44502e-06
    outer loop
      vertex -59.9853 -5.16831 3.11889
      vertex -59.9544 -5.52094 -5
      vertex -59.9636 -5.41644 4.04493
    endloop
  endfacet
  facet normal -0.996147 -0.0876991 -0
    outer loop
      vertex -59.9544 -5.52094 5.01
      vertex -59.9636 -5.41644 4.04493
      vertex -59.9544 -5.52094 -5
    endloop
  endfacet
  facet normal -0.996198 -0.0867848 0.00755028
    outer loop
      vertex -59.9563 -5.5 5
      vertex -59.9544 -5.52094 5.01
      vertex -59.9563 -5.49913 5.01
    endloop
  endfacet
  facet normal -0.995896 -0.0905095 -0.000306716
    outer loop
      vertex -59.9636 -5.41644 4.04493
      vertex -59.9544 -5.52094 5.01
      vertex -59.9563 -5.5 5
    endloop
  endfacet
  facet normal 0.965948 -0.258736 0
    outer loop
      vertex 59.8191 -6.02606 5.01
      vertex 59.9544 -5.52094 -5
      vertex 59.9544 -5.52094 5.01
    endloop
  endfacet
  facet normal 0.965948 -0.258736 0
    outer loop
      vertex 59.9544 -5.52094 -5
      vertex 59.8191 -6.02606 5.01
      vertex 59.8191 -6.02606 -5
    endloop
  endfacet
  facet normal -0.707174 0.70704 0
    outer loop
      vertex -58.9284 7.29813 -5
      vertex -59.2981 6.92836 5.01
      vertex -58.9284 7.29813 5.01
    endloop
  endfacet
  facet normal -0.707174 0.70704 0
    outer loop
      vertex -59.2981 6.92836 5.01
      vertex -58.9284 7.29813 -5
      vertex -59.2981 6.92836 -5
    endloop
  endfacet
  facet normal 0.258769 -0.965939 0
    outer loop
      vertex 57.5209 -7.95442 -5
      vertex 58.0261 -7.81908 5.01
      vertex 57.5209 -7.95442 5.01
    endloop
  endfacet
  facet normal 0.258769 -0.965939 0
    outer loop
      vertex 58.0261 -7.81908 5.01
      vertex 57.5209 -7.95442 -5
      vertex 58.0261 -7.81908 -5
    endloop
  endfacet
  facet normal -0.996147 0.0876991 0
    outer loop
      vertex -59.9636 5.41644 4.04493
      vertex -59.9544 5.52094 5.01
      vertex -59.9544 5.52094 -5
    endloop
  endfacet
  facet normal -0.995896 0.0905095 -0.000306716
    outer loop
      vertex -59.9544 5.52094 5.01
      vertex -59.9636 5.41644 4.04493
      vertex -59.9563 5.5 5
    endloop
  endfacet
  facet normal -0.996196 0.0871455 -6.44502e-06
    outer loop
      vertex -59.9544 5.52094 -5
      vertex -59.9853 5.16831 3.11889
      vertex -59.9636 5.41644 4.04493
    endloop
  endfacet
  facet normal -0.996191 0.0872006 0
    outer loop
      vertex -60 5 2.75795
      vertex -59.9544 5.52094 -5
      vertex -60 5 -5
    endloop
  endfacet
  facet normal -0.996206 0.0870319 -1.14161e-05
    outer loop
      vertex -59.9544 5.52094 -5
      vertex -60 5 2.75795
      vertex -59.9853 5.16831 3.11889
    endloop
  endfacet
  facet normal -0.996198 0.0867848 0.00755028
    outer loop
      vertex -59.9544 5.52094 5.01
      vertex -59.9563 5.5 5
      vertex -59.9563 5.49913 5.01
    endloop
  endfacet
  facet normal -0.906309 0.422615 0
    outer loop
      vertex -59.8191 6.02606 -5
      vertex -59.5981 6.5 5.01
      vertex -59.5981 6.5 -5
    endloop
  endfacet
  facet normal -0.906309 0.422615 0
    outer loop
      vertex -59.5981 6.5 5.01
      vertex -59.8191 6.02606 -5
      vertex -59.8191 6.02606 5.01
    endloop
  endfacet
  facet normal 0.258769 0.965939 -0
    outer loop
      vertex 58.0261 7.81908 -5
      vertex 57.5209 7.95442 5.01
      vertex 58.0261 7.81908 5.01
    endloop
  endfacet
  facet normal 0.258769 0.965939 0
    outer loop
      vertex 57.5209 7.95442 5.01
      vertex 58.0261 7.81908 -5
      vertex 57.5209 7.95442 -5
    endloop
  endfacet
  facet normal -1 0 0
    outer loop
      vertex -60 5 -5
      vertex -60 4.76314 2.25
      vertex -60 5 2.75795
    endloop
  endfacet
  facet normal -1 0 0
    outer loop
      vertex -60 5 -5
      vertex -60 4.21324 1.46467
      vertex -60 4.76314 2.25
    endloop
  endfacet
  facet normal -1 0 0
    outer loop
      vertex -60 5 -5
      vertex -60 3.53533 0.786756
      vertex -60 4.21324 1.46467
    endloop
  endfacet
  facet normal -1 0 0
    outer loop
      vertex -60 5 -5
      vertex -60 2.75 0.23686
      vertex -60 3.53533 0.786756
    endloop
  endfacet
  facet normal -1 0 0
    outer loop
      vertex -60 5 -5
      vertex -60 1.88111 -0.168309
      vertex -60 2.75 0.23686
    endloop
  endfacet
  facet normal -1 0 0
    outer loop
      vertex -60 5 -5
      vertex -60 0.955065 -0.416442
      vertex -60 1.88111 -0.168309
    endloop
  endfacet
  facet normal -1 0 0
    outer loop
      vertex -60 5 -5
      vertex -60 0 -0.5
      vertex -60 0.955065 -0.416442
    endloop
  endfacet
  facet normal -1 0 0
    outer loop
      vertex -60 -5 -5
      vertex -60 0 -0.5
      vertex -60 5 -5
    endloop
  endfacet
  facet normal -1 -0 0
    outer loop
      vertex -60 0 -0.5
      vertex -60 -5 -5
      vertex -60 -0.955065 -0.416442
    endloop
  endfacet
  facet normal -1 -0 0
    outer loop
      vertex -60 -0.955065 -0.416442
      vertex -60 -5 -5
      vertex -60 -1.88111 -0.168309
    endloop
  endfacet
  facet normal -1 -0 0
    outer loop
      vertex -60 -1.88111 -0.168309
      vertex -60 -5 -5
      vertex -60 -2.75 0.23686
    endloop
  endfacet
  facet normal -1 0 0
    outer loop
      vertex -60 -5 -5
      vertex -60 -3.53533 0.786756
      vertex -60 -2.75 0.23686
    endloop
  endfacet
  facet normal -1 0 0
    outer loop
      vertex -60 -5 -5
      vertex -60 -4.21324 1.46467
      vertex -60 -3.53533 0.786756
    endloop
  endfacet
  facet normal -1 0 0
    outer loop
      vertex -60 -5 -5
      vertex -60 -4.76314 2.25
      vertex -60 -4.21324 1.46467
    endloop
  endfacet
  facet normal -1 -0 0
    outer loop
      vertex -60 -4.76314 2.25
      vertex -60 -5 -5
      vertex -60 -5 2.75795
    endloop
  endfacet
  facet normal -0.0871693 0.996194 0
    outer loop
      vertex -57 8 -5
      vertex -57.5209 7.95442 5.01
      vertex -57 8 5.01
    endloop
  endfacet
  facet normal -0.0871693 0.996194 0
    outer loop
      vertex -57.5209 7.95442 5.01
      vertex -57 8 -5
      vertex -57.5209 7.95442 -5
    endloop
  endfacet
  facet normal 0.0871693 0.996194 -0
    outer loop
      vertex 57.5209 7.95442 -5
      vertex 57 8 5.01
      vertex 57.5209 7.95442 5.01
    endloop
  endfacet
  facet normal 0.0871693 0.996194 0
    outer loop
      vertex 57 8 5.01
      vertex 57.5209 7.95442 -5
      vertex 57 8 -5
    endloop
  endfacet
  facet normal 0.906309 0.422615 0
    outer loop
      vertex 59.8191 6.02606 5.01
      vertex 59.5981 6.5 -5
      vertex 59.5981 6.5 5.01
    endloop
  endfacet
  facet normal 0.906309 0.422615 0
    outer loop
      vertex 59.5981 6.5 -5
      vertex 59.8191 6.02606 5.01
      vertex 59.8191 6.02606 -5
    endloop
  endfacet
  facet normal -0.573552 -0.819169 0
    outer loop
      vertex -58.9284 -7.29813 -5
      vertex -58.5 -7.59808 5.01
      vertex -58.9284 -7.29813 5.01
    endloop
  endfacet
  facet normal -0.573552 -0.819169 -0
    outer loop
      vertex -58.5 -7.59808 5.01
      vertex -58.9284 -7.29813 -5
      vertex -58.5 -7.59808 -5
    endloop
  endfacet
  facet normal 0.707174 -0.70704 0
    outer loop
      vertex 58.9284 -7.29813 -5
      vertex 59.2981 -6.92836 5.01
      vertex 58.9284 -7.29813 5.01
    endloop
  endfacet
  facet normal 0.707174 -0.70704 0
    outer loop
      vertex 59.2981 -6.92836 5.01
      vertex 58.9284 -7.29813 -5
      vertex 59.2981 -6.92836 -5
    endloop
  endfacet
  facet normal -0.0871693 -0.996194 0
    outer loop
      vertex -57.5209 -7.95442 -5
      vertex -57 -8 5.01
      vertex -57.5209 -7.95442 5.01
    endloop
  endfacet
  facet normal -0.0871693 -0.996194 -0
    outer loop
      vertex -57 -8 5.01
      vertex -57.5209 -7.95442 -5
      vertex -57 -8 -5
    endloop
  endfacet
  facet normal -0.258769 -0.965939 0
    outer loop
      vertex -58.0261 -7.81908 -5
      vertex -57.5209 -7.95442 5.01
      vertex -58.0261 -7.81908 5.01
    endloop
  endfacet
  facet normal -0.258769 -0.965939 -0
    outer loop
      vertex -57.5209 -7.95442 5.01
      vertex -58.0261 -7.81908 -5
      vertex -57.5209 -7.95442 -5
    endloop
  endfacet
  facet normal 1 -0 0
    outer loop
      vertex 60 -5 5.01
      vertex 60 5 -5
      vertex 60 5 5.01
    endloop
  endfacet
  facet normal 1 0 0
    outer loop
      vertex 60 5 -5
      vertex 60 -5 5.01
      vertex 60 -5 -5
    endloop
  endfacet
  facet normal -0.906309 -0.422615 0
    outer loop
      vertex -59.5981 -6.5 -5
      vertex -59.8191 -6.02606 5.01
      vertex -59.8191 -6.02606 -5
    endloop
  endfacet
  facet normal -0.906309 -0.422615 0
    outer loop
      vertex -59.8191 -6.02606 5.01
      vertex -59.5981 -6.5 -5
      vertex -59.5981 -6.5 5.01
    endloop
  endfacet
  facet normal 0 0 1
    outer loop
      vertex -59.8191 -6.02606 5.01
      vertex -57.5 -5.5 5.01
      vertex -57.5 -5.49913 5.01
    endloop
  endfacet
  facet normal 0 0 1
    outer loop
      vertex -57.5 -5.5 5.01
      vertex -58.0261 -7.81908 5.01
      vertex -57.5209 -7.95442 5.01
    endloop
  endfacet
  facet normal 0 0 1
    outer loop
      vertex -57.5 -5.5 5.01
      vertex -58.5 -7.59808 5.01
      vertex -58.0261 -7.81908 5.01
    endloop
  endfacet
  facet normal 0 0 1
    outer loop
      vertex -57.5 -5.5 5.01
      vertex -58.9284 -7.29813 5.01
      vertex -58.5 -7.59808 5.01
    endloop
  endfacet
  facet normal 0 0 1
    outer loop
      vertex -57.5 -5.5 5.01
      vertex -59.2981 -6.92836 5.01
      vertex -58.9284 -7.29813 5.01
    endloop
  endfacet
  facet normal 0 0 1
    outer loop
      vertex -57.5 -5.5 5.01
      vertex -59.5981 -6.5 5.01
      vertex -59.2981 -6.92836 5.01
    endloop
  endfacet
  facet normal 0 0 1
    outer loop
      vertex -57.5 -5.5 5.01
      vertex -59.8191 -6.02606 5.01
      vertex -59.5981 -6.5 5.01
    endloop
  endfacet
  facet normal 0 0 1
    outer loop
      vertex -57.5 -5.49913 5.01
      vertex -59.9544 -5.52094 5.01
      vertex -59.8191 -6.02606 5.01
    endloop
  endfacet
  facet normal 0 -0 1
    outer loop
      vertex -59.9544 -5.52094 5.01
      vertex -57.5 -5.49913 5.01
      vertex -59.9563 -5.49913 5.01
    endloop
  endfacet
  facet normal -0 0 1
    outer loop
      vertex 57.5 5.5 5.01
      vertex 60 5 5.01
      vertex 59.9544 5.52094 5.01
    endloop
  endfacet
  facet normal 0 0 1
    outer loop
      vertex 60 5 5.01
      vertex 57.5 5.5 5.01
      vertex 60 -5 5.01
    endloop
  endfacet
  facet normal 0 0 1
    outer loop
      vertex 57.5 5.5 5.01
      vertex 59.9544 5.52094 5.01
      vertex 59.8191 6.02606 5.01
    endloop
  endfacet
  facet normal 0 0 1
    outer loop
      vertex 57.5 -5.5 5.01
      vertex 60 -5 5.01
      vertex 57.5 5.5 5.01
    endloop
  endfacet
  facet normal 0 0 1
    outer loop
      vertex 57.5 5.5 5.01
      vertex 59.8191 6.02606 5.01
      vertex 59.5981 6.5 5.01
    endloop
  endfacet
  facet normal 0 0 1
    outer loop
      vertex 60 -5 5.01
      vertex 57.5 -5.5 5.01
      vertex 59.9544 -5.52094 5.01
    endloop
  endfacet
  facet normal 0 0 1
    outer loop
      vertex 57.5 5.5 5.01
      vertex 59.5981 6.5 5.01
      vertex 59.2981 6.92836 5.01
    endloop
  endfacet
  facet normal 0 0 1
    outer loop
      vertex 59.9544 -5.52094 5.01
      vertex 57.5 -5.5 5.01
      vertex 59.8191 -6.02606 5.01
    endloop
  endfacet
  facet normal 0 0 1
    outer loop
      vertex 57.5 5.5 5.01
      vertex 59.2981 6.92836 5.01
      vertex 58.9284 7.29813 5.01
    endloop
  endfacet
  facet normal 0 0 1
    outer loop
      vertex 59.8191 -6.02606 5.01
      vertex 57.5 -5.5 5.01
      vertex 59.5981 -6.5 5.01
    endloop
  endfacet
  facet normal 0 0 1
    outer loop
      vertex 57.5 5.5 5.01
      vertex 58.9284 7.29813 5.01
      vertex 58.5 7.59808 5.01
    endloop
  endfacet
  facet normal 0 0 1
    outer loop
      vertex 59.5981 -6.5 5.01
      vertex 57.5 -5.5 5.01
      vertex 59.2981 -6.92836 5.01
    endloop
  endfacet
  facet normal 0 0 1
    outer loop
      vertex 57.5 5.5 5.01
      vertex 58.5 7.59808 5.01
      vertex 58.0261 7.81908 5.01
    endloop
  endfacet
  facet normal 0 0 1
    outer loop
      vertex 59.2981 -6.92836 5.01
      vertex 57.5 -5.5 5.01
      vertex 58.9284 -7.29813 5.01
    endloop
  endfacet
  facet normal 0 0 1
    outer loop
      vertex 57.5 5.5 5.01
      vertex 58.0261 7.81908 5.01
      vertex 57.5209 7.95442 5.01
    endloop
  endfacet
  facet normal 0 0 1
    outer loop
      vertex 58.9284 -7.29813 5.01
      vertex 57.5 -5.5 5.01
      vertex 58.5 -7.59808 5.01
    endloop
  endfacet
  facet normal 0 0 1
    outer loop
      vertex 58.5 -7.59808 5.01
      vertex 57.5 -5.5 5.01
      vertex 58.0261 -7.81908 5.01
    endloop
  endfacet
  facet normal 0 0 1
    outer loop
      vertex 57 8 5.01
      vertex 57.5 5.5 5.01
      vertex 57.5209 7.95442 5.01
    endloop
  endfacet
  facet normal -0 0 1
    outer loop
      vertex -57 8 5.01
      vertex 57.5 5.5 5.01
      vertex 57 8 5.01
    endloop
  endfacet
  facet normal 0 0 1
    outer loop
      vertex -57 8 5.01
      vertex -57.5 5.5 5.01
      vertex 57.5 5.5 5.01
    endloop
  endfacet
  facet normal -0 0 1
    outer loop
      vertex -57.5209 7.95442 5.01
      vertex -57.5 5.5 5.01
      vertex -57 8 5.01
    endloop
  endfacet
  facet normal -0 0 1
    outer loop
      vertex -58.0261 7.81908 5.01
      vertex -57.5 5.5 5.01
      vertex -57.5209 7.95442 5.01
    endloop
  endfacet
  facet normal -0 0 1
    outer loop
      vertex -58.5 7.59808 5.01
      vertex -57.5 5.5 5.01
      vertex -58.0261 7.81908 5.01
    endloop
  endfacet
  facet normal -0 0 1
    outer loop
      vertex -58.9284 7.29813 5.01
      vertex -57.5 5.5 5.01
      vertex -58.5 7.59808 5.01
    endloop
  endfacet
  facet normal -0 0 1
    outer loop
      vertex -59.2981 6.92836 5.01
      vertex -57.5 5.5 5.01
      vertex -58.9284 7.29813 5.01
    endloop
  endfacet
  facet normal -0 0 1
    outer loop
      vertex -59.5981 6.5 5.01
      vertex -57.5 5.5 5.01
      vertex -59.2981 6.92836 5.01
    endloop
  endfacet
  facet normal -0 0 1
    outer loop
      vertex -59.8191 6.02606 5.01
      vertex -57.5 5.5 5.01
      vertex -59.5981 6.5 5.01
    endloop
  endfacet
  facet normal 0 0 1
    outer loop
      vertex -57.5 5.5 5.01
      vertex -59.8191 6.02606 5.01
      vertex -57.5 5.49913 5.01
    endloop
  endfacet
  facet normal -0 0 1
    outer loop
      vertex -59.9544 5.52094 5.01
      vertex -57.5 5.49913 5.01
      vertex -59.8191 6.02606 5.01
    endloop
  endfacet
  facet normal 0 0 1
    outer loop
      vertex -57.5 5.49913 5.01
      vertex -59.9544 5.52094 5.01
      vertex -59.9563 5.49913 5.01
    endloop
  endfacet
  facet normal 0 0 1
    outer loop
      vertex 58.0261 -7.81908 5.01
      vertex 57.5 -5.5 5.01
      vertex 57.5209 -7.95442 5.01
    endloop
  endfacet
  facet normal 0 0 1
    outer loop
      vertex 57.5 -5.5 5.01
      vertex 57 -8 5.01
      vertex 57.5209 -7.95442 5.01
    endloop
  endfacet
  facet normal 0 0 1
    outer loop
      vertex 57.5 -5.5 5.01
      vertex -57 -8 5.01
      vertex 57 -8 5.01
    endloop
  endfacet
  facet normal -0 0 1
    outer loop
      vertex -57.5 -5.5 5.01
      vertex -57 -8 5.01
      vertex 57.5 -5.5 5.01
    endloop
  endfacet
  facet normal 0 0 1
    outer loop
      vertex -57 -8 5.01
      vertex -57.5 -5.5 5.01
      vertex -57.5209 -7.95442 5.01
    endloop
  endfacet
  facet normal -0.819099 0.573652 0
    outer loop
      vertex -59.5981 6.5 -5
      vertex -59.2981 6.92836 5.01
      vertex -59.2981 6.92836 -5
    endloop
  endfacet
  facet normal -0.819099 0.573652 0
    outer loop
      vertex -59.2981 6.92836 5.01
      vertex -59.5981 6.5 -5
      vertex -59.5981 6.5 5.01
    endloop
  endfacet
  facet normal 0.422645 -0.906295 0
    outer loop
      vertex 58.0261 -7.81908 -5
      vertex 58.5 -7.59808 5.01
      vertex 58.0261 -7.81908 5.01
    endloop
  endfacet
  facet normal 0.422645 -0.906295 0
    outer loop
      vertex 58.5 -7.59808 5.01
      vertex 58.0261 -7.81908 -5
      vertex 58.5 -7.59808 -5
    endloop
  endfacet
  facet normal 0.965948 0.258736 0
    outer loop
      vertex 59.9544 5.52094 5.01
      vertex 59.8191 6.02606 -5
      vertex 59.8191 6.02606 5.01
    endloop
  endfacet
  facet normal 0.965948 0.258736 0
    outer loop
      vertex 59.8191 6.02606 -5
      vertex 59.9544 5.52094 5.01
      vertex 59.9544 5.52094 -5
    endloop
  endfacet
  facet normal -0.573552 0.819169 0
    outer loop
      vertex -58.5 7.59808 -5
      vertex -58.9284 7.29813 5.01
      vertex -58.5 7.59808 5.01
    endloop
  endfacet
  facet normal -0.573552 0.819169 0
    outer loop
      vertex -58.9284 7.29813 5.01
      vertex -58.5 7.59808 -5
      vertex -58.9284 7.29813 -5
    endloop
  endfacet
  facet normal -0.965948 0.258736 0
    outer loop
      vertex -59.9544 5.52094 -5
      vertex -59.8191 6.02606 5.01
      vertex -59.8191 6.02606 -5
    endloop
  endfacet
  facet normal -0.965948 0.258736 0
    outer loop
      vertex -59.8191 6.02606 5.01
      vertex -59.9544 5.52094 -5
      vertex -59.9544 5.52094 5.01
    endloop
  endfacet
  facet normal 0.573552 -0.819169 0
    outer loop
      vertex 58.5 -7.59808 -5
      vertex 58.9284 -7.29813 5.01
      vertex 58.5 -7.59808 5.01
    endloop
  endfacet
  facet normal 0.573552 -0.819169 0
    outer loop
      vertex 58.9284 -7.29813 5.01
      vertex 58.5 -7.59808 -5
      vertex 58.9284 -7.29813 -5
    endloop
  endfacet
  facet normal 0.819099 0.573652 0
    outer loop
      vertex 59.5981 6.5 5.01
      vertex 59.2981 6.92836 -5
      vertex 59.2981 6.92836 5.01
    endloop
  endfacet
  facet normal 0.819099 0.573652 0
    outer loop
      vertex 59.2981 6.92836 -5
      vertex 59.5981 6.5 5.01
      vertex 59.5981 6.5 -5
    endloop
  endfacet
  facet normal -0.422645 -0.906295 0
    outer loop
      vertex -58.5 -7.59808 -5
      vertex -58.0261 -7.81908 5.01
      vertex -58.5 -7.59808 5.01
    endloop
  endfacet
  facet normal -0.422645 -0.906295 -0
    outer loop
      vertex -58.0261 -7.81908 5.01
      vertex -58.5 -7.59808 -5
      vertex -58.0261 -7.81908 -5
    endloop
  endfacet
  facet normal -0.965948 -0.258736 0
    outer loop
      vertex -59.8191 -6.02606 -5
      vertex -59.9544 -5.52094 5.01
      vertex -59.9544 -5.52094 -5
    endloop
  endfacet
  facet normal -0.965948 -0.258736 0
    outer loop
      vertex -59.9544 -5.52094 5.01
      vertex -59.8191 -6.02606 -5
      vertex -59.8191 -6.02606 5.01
    endloop
  endfacet
  facet normal -0.258769 0.965939 0
    outer loop
      vertex -57.5209 7.95442 -5
      vertex -58.0261 7.81908 5.01
      vertex -57.5209 7.95442 5.01
    endloop
  endfacet
  facet normal -0.258769 0.965939 0
    outer loop
      vertex -58.0261 7.81908 5.01
      vertex -57.5209 7.95442 -5
      vertex -58.0261 7.81908 -5
    endloop
  endfacet
  facet normal 0.996191 0.0872006 0
    outer loop
      vertex 60 5 5.01
      vertex 59.9544 5.52094 -5
      vertex 59.9544 5.52094 5.01
    endloop
  endfacet
  facet normal 0.996191 0.0872006 0
    outer loop
      vertex 59.9544 5.52094 -5
      vertex 60 5 5.01
      vertex 60 5 -5
    endloop
  endfacet
  facet normal 0.573552 0.819169 -0
    outer loop
      vertex 58.9284 7.29813 -5
      vertex 58.5 7.59808 5.01
      vertex 58.9284 7.29813 5.01
    endloop
  endfacet
  facet normal 0.573552 0.819169 0
    outer loop
      vertex 58.5 7.59808 5.01
      vertex 58.9284 7.29813 -5
      vertex 58.5 7.59808 -5
    endloop
  endfacet
  facet normal 0.707174 0.70704 -0
    outer loop
      vertex 59.2981 6.92836 -5
      vertex 58.9284 7.29813 5.01
      vertex 59.2981 6.92836 5.01
    endloop
  endfacet
  facet normal 0.707174 0.70704 0
    outer loop
      vertex 58.9284 7.29813 5.01
      vertex 59.2981 6.92836 -5
      vertex 58.9284 7.29813 -5
    endloop
  endfacet
  facet normal 0.422645 0.906295 -0
    outer loop
      vertex 58.5 7.59808 -5
      vertex 58.0261 7.81908 5.01
      vertex 58.5 7.59808 5.01
    endloop
  endfacet
  facet normal 0.422645 0.906295 0
    outer loop
      vertex 58.0261 7.81908 5.01
      vertex 58.5 7.59808 -5
      vertex 58.0261 7.81908 -5
    endloop
  endfacet
  facet normal 0 0 -1
    outer loop
      vertex 57.5 -5.5 -5
      vertex 60 -5 -5
      vertex 59.9544 -5.52094 -5
    endloop
  endfacet
  facet normal -0 0 -1
    outer loop
      vertex 60 -5 -5
      vertex 57.5 -5.5 -5
      vertex 60 5 -5
    endloop
  endfacet
  facet normal 0 0 -1
    outer loop
      vertex 57.5 -5.5 -5
      vertex 59.9544 -5.52094 -5
      vertex 59.8191 -6.02606 -5
    endloop
  endfacet
  facet normal 0 0 -1
    outer loop
      vertex 57.5 5.5 -5
      vertex 60 5 -5
      vertex 57.5 -5.5 -5
    endloop
  endfacet
  facet normal 0 0 -1
    outer loop
      vertex 57.5 -5.5 -5
      vertex 59.8191 -6.02606 -5
      vertex 59.5981 -6.5 -5
    endloop
  endfacet
  facet normal 0 0 -1
    outer loop
      vertex 60 5 -5
      vertex 57.5 5.5 -5
      vertex 59.9544 5.52094 -5
    endloop
  endfacet
  facet normal 0 0 -1
    outer loop
      vertex 57.5 -5.5 -5
      vertex 59.5981 -6.5 -5
      vertex 59.2981 -6.92836 -5
    endloop
  endfacet
  facet normal -0 0 -1
    outer loop
      vertex 59.9544 5.52094 -5
      vertex 57.5 5.5 -5
      vertex 59.8191 6.02606 -5
    endloop
  endfacet
  facet normal 0 0 -1
    outer loop
      vertex 57.5 -5.5 -5
      vertex 59.2981 -6.92836 -5
      vertex 58.9284 -7.29813 -5
    endloop
  endfacet
  facet normal -0 0 -1
    outer loop
      vertex 59.8191 6.02606 -5
      vertex 57.5 5.5 -5
      vertex 59.5981 6.5 -5
    endloop
  endfacet
  facet normal 0 0 -1
    outer loop
      vertex 57.5 -5.5 -5
      vertex 58.9284 -7.29813 -5
      vertex 58.5 -7.59808 -5
    endloop
  endfacet
  facet normal -0 0 -1
    outer loop
      vertex 59.5981 6.5 -5
      vertex 57.5 5.5 -5
      vertex 59.2981 6.92836 -5
    endloop
  endfacet
  facet normal 0 0 -1
    outer loop
      vertex 57.5 -5.5 -5
      vertex 58.5 -7.59808 -5
      vertex 58.0261 -7.81908 -5
    endloop
  endfacet
  facet normal -0 0 -1
    outer loop
      vertex 59.2981 6.92836 -5
      vertex 57.5 5.5 -5
      vertex 58.9284 7.29813 -5
    endloop
  endfacet
  facet normal 0 0 -1
    outer loop
      vertex 57.5 -5.5 -5
      vertex 58.0261 -7.81908 -5
      vertex 57.5209 -7.95442 -5
    endloop
  endfacet
  facet normal -0 0 -1
    outer loop
      vertex 58.9284 7.29813 -5
      vertex 57.5 5.5 -5
      vertex 58.5 7.59808 -5
    endloop
  endfacet
  facet normal -0 0 -1
    outer loop
      vertex 58.5 7.59808 -5
      vertex 57.5 5.5 -5
      vertex 58.0261 7.81908 -5
    endloop
  endfacet
  facet normal 0 0 -1
    outer loop
      vertex 57 -8 -5
      vertex 57.5 -5.5 -5
      vertex 57.5209 -7.95442 -5
    endloop
  endfacet
  facet normal 0 0 -1
    outer loop
      vertex -57 -8 -5
      vertex 57.5 -5.5 -5
      vertex 57 -8 -5
    endloop
  endfacet
  facet normal 0 0 -1
    outer loop
      vertex -57 -8 -5
      vertex -57.5 -5.5 -5
      vertex 57.5 -5.5 -5
    endloop
  endfacet
  facet normal 0 0 -1
    outer loop
      vertex -58.0261 -7.81908 -5
      vertex -57.5 -5.5 -5
      vertex -57.5209 -7.95442 -5
    endloop
  endfacet
  facet normal 0 0 -1
    outer loop
      vertex -57.5209 -7.95442 -5
      vertex -57.5 -5.5 -5
      vertex -57 -8 -5
    endloop
  endfacet
  facet normal -0 0 -1
    outer loop
      vertex 58.0261 7.81908 -5
      vertex 57.5 5.5 -5
      vertex 57.5209 7.95442 -5
    endloop
  endfacet
  facet normal 0 0 -1
    outer loop
      vertex 57.5 5.5 -5
      vertex 57 8 -5
      vertex 57.5209 7.95442 -5
    endloop
  endfacet
  facet normal 0 0 -1
    outer loop
      vertex 57.5 5.5 -5
      vertex -57 8 -5
      vertex 57 8 -5
    endloop
  endfacet
  facet normal 0 0 -1
    outer loop
      vertex -57.5 5.5 -5
      vertex -57 8 -5
      vertex 57.5 5.5 -5
    endloop
  endfacet
  facet normal 0 0 -1
    outer loop
      vertex -57.5 5.5 -5
      vertex -57.5209 7.95442 -5
      vertex -57 8 -5
    endloop
  endfacet
  facet normal 0 0 -1
    outer loop
      vertex -57.5 -5.5 -5
      vertex -60 -5 -5
      vertex -57.5 5.5 -5
    endloop
  endfacet
  facet normal 0 0 -1
    outer loop
      vertex -58.5 -7.59808 -5
      vertex -57.5 -5.5 -5
      vertex -58.0261 -7.81908 -5
    endloop
  endfacet
  facet normal 0 0 -1
    outer loop
      vertex -60 5 -5
      vertex -57.5 5.5 -5
      vertex -60 -5 -5
    endloop
  endfacet
  facet normal 0 0 -1
    outer loop
      vertex -58.9284 -7.29813 -5
      vertex -57.5 -5.5 -5
      vertex -58.5 -7.59808 -5
    endloop
  endfacet
  facet normal 0 -0 -1
    outer loop
      vertex -59.9544 5.52094 -5
      vertex -57.5 5.5 -5
      vertex -60 5 -5
    endloop
  endfacet
  facet normal 0 0 -1
    outer loop
      vertex -59.2981 -6.92836 -5
      vertex -57.5 -5.5 -5
      vertex -58.9284 -7.29813 -5
    endloop
  endfacet
  facet normal 0 0 -1
    outer loop
      vertex -57.5 5.5 -5
      vertex -58.0261 7.81908 -5
      vertex -57.5209 7.95442 -5
    endloop
  endfacet
  facet normal 0 0 -1
    outer loop
      vertex -59.5981 -6.5 -5
      vertex -57.5 -5.5 -5
      vertex -59.2981 -6.92836 -5
    endloop
  endfacet
  facet normal 0 0 -1
    outer loop
      vertex -57.5 5.5 -5
      vertex -58.5 7.59808 -5
      vertex -58.0261 7.81908 -5
    endloop
  endfacet
  facet normal 0 0 -1
    outer loop
      vertex -59.8191 -6.02606 -5
      vertex -57.5 -5.5 -5
      vertex -59.5981 -6.5 -5
    endloop
  endfacet
  facet normal 0 0 -1
    outer loop
      vertex -57.5 5.5 -5
      vertex -58.9284 7.29813 -5
      vertex -58.5 7.59808 -5
    endloop
  endfacet
  facet normal 0 0 -1
    outer loop
      vertex -59.9544 -5.52094 -5
      vertex -57.5 -5.5 -5
      vertex -59.8191 -6.02606 -5
    endloop
  endfacet
  facet normal 0 0 -1
    outer loop
      vertex -57.5 5.5 -5
      vertex -59.2981 6.92836 -5
      vertex -58.9284 7.29813 -5
    endloop
  endfacet
  facet normal -0 0 -1
    outer loop
      vertex -57.5 -5.5 -5
      vertex -59.9544 -5.52094 -5
      vertex -60 -5 -5
    endloop
  endfacet
  facet normal 0 0 -1
    outer loop
      vertex -57.5 5.5 -5
      vertex -59.5981 6.5 -5
      vertex -59.2981 6.92836 -5
    endloop
  endfacet
  facet normal 0 0 -1
    outer loop
      vertex -57.5 5.5 -5
      vertex -59.8191 6.02606 -5
      vertex -59.5981 6.5 -5
    endloop
  endfacet
  facet normal 0 0 -1
    outer loop
      vertex -57.5 5.5 -5
      vertex -59.9544 5.52094 -5
      vertex -59.8191 6.02606 -5
    endloop
  endfacet
  facet normal -1 0 0
    outer loop
      vertex 57.5 -5.5 -5
      vertex 57.5 5.5 5.01
      vertex 57.5 5.5 -5
    endloop
  endfacet
  facet normal -1 -0 0
    outer loop
      vertex 57.5 5.5 5.01
      vertex 57.5 -5.5 -5
      vertex 57.5 -5.5 5.01
    endloop
  endfacet
  facet normal 1 0 -0
    outer loop
      vertex -57.5 5.5 5
      vertex -57.5 5.5 5.01
      vertex -57.5 5.49913 5.01
    endloop
  endfacet
  facet normal 1 0 0
    outer loop
      vertex -57.5 -5.49913 5.01
      vertex -57.5 -5.5 5.01
      vertex -57.5 -5.5 5
    endloop
  endfacet
  facet normal 1 -0 0
    outer loop
      vertex -57.5 5.41644 4.04493
      vertex -57.5 5.5 -5
      vertex -57.5 5.5 5
    endloop
  endfacet
  facet normal 1 -0 0
    outer loop
      vertex -57.5 5.16831 3.11889
      vertex -57.5 5.5 -5
      vertex -57.5 5.41644 4.04493
    endloop
  endfacet
  facet normal 1 -0 0
    outer loop
      vertex -57.5 4.76314 2.25
      vertex -57.5 5.5 -5
      vertex -57.5 5.16831 3.11889
    endloop
  endfacet
  facet normal 1 -0 0
    outer loop
      vertex -57.5 4.21324 1.46467
      vertex -57.5 5.5 -5
      vertex -57.5 4.76314 2.25
    endloop
  endfacet
  facet normal 1 -0 0
    outer loop
      vertex -57.5 3.53533 0.786756
      vertex -57.5 5.5 -5
      vertex -57.5 4.21324 1.46467
    endloop
  endfacet
  facet normal 1 -0 0
    outer loop
      vertex -57.5 2.75 0.23686
      vertex -57.5 5.5 -5
      vertex -57.5 3.53533 0.786756
    endloop
  endfacet
  facet normal 1 -0 0
    outer loop
      vertex -57.5 1.88111 -0.168309
      vertex -57.5 5.5 -5
      vertex -57.5 2.75 0.23686
    endloop
  endfacet
  facet normal 1 -0 0
    outer loop
      vertex -57.5 0.955065 -0.416442
      vertex -57.5 5.5 -5
      vertex -57.5 1.88111 -0.168309
    endloop
  endfacet
  facet normal 1 -0 0
    outer loop
      vertex -57.5 0 -0.5
      vertex -57.5 5.5 -5
      vertex -57.5 0.955065 -0.416442
    endloop
  endfacet
  facet normal 1 0 0
    outer loop
      vertex -57.5 -5.5 -5
      vertex -57.5 0 -0.5
      vertex -57.5 -0.955065 -0.416442
    endloop
  endfacet
  facet normal 1 0 0
    outer loop
      vertex -57.5 -5.5 -5
      vertex -57.5 -0.955065 -0.416442
      vertex -57.5 -1.88111 -0.168309
    endloop
  endfacet
  facet normal 1 0 0
    outer loop
      vertex -57.5 -5.5 -5
      vertex -57.5 -1.88111 -0.168309
      vertex -57.5 -2.75 0.23686
    endloop
  endfacet
  facet normal 1 0 0
    outer loop
      vertex -57.5 0 -0.5
      vertex -57.5 -5.5 -5
      vertex -57.5 5.5 -5
    endloop
  endfacet
  facet normal 1 0 0
    outer loop
      vertex -57.5 -3.53533 0.786756
      vertex -57.5 -5.5 -5
      vertex -57.5 -2.75 0.23686
    endloop
  endfacet
  facet normal 1 0 0
    outer loop
      vertex -57.5 -4.21324 1.46467
      vertex -57.5 -5.5 -5
      vertex -57.5 -3.53533 0.786756
    endloop
  endfacet
  facet normal 1 0 0
    outer loop
      vertex -57.5 -4.76314 2.25
      vertex -57.5 -5.5 -5
      vertex -57.5 -4.21324 1.46467
    endloop
  endfacet
  facet normal 1 0 0
    outer loop
      vertex -57.5 -5.16831 3.11889
      vertex -57.5 -5.5 -5
      vertex -57.5 -4.76314 2.25
    endloop
  endfacet
  facet normal 1 0 0
    outer loop
      vertex -57.5 -5.41644 4.04493
      vertex -57.5 -5.5 -5
      vertex -57.5 -5.16831 3.11889
    endloop
  endfacet
  facet normal 1 0 0
    outer loop
      vertex -57.5 -5.5 -5
      vertex -57.5 -5.41644 4.04493
      vertex -57.5 -5.5 5
    endloop
  endfacet
  facet normal 0 -1 0
    outer loop
      vertex -57.5 5.5 5
      vertex 57.5 5.5 5.01
      vertex -57.5 5.5 5.01
    endloop
  endfacet
  facet normal 0 -1 0
    outer loop
      vertex -57.5 5.5 -5
      vertex 57.5 5.5 5.01
      vertex -57.5 5.5 5
    endloop
  endfacet
  facet normal 0 -1 -0
    outer loop
      vertex 57.5 5.5 5.01
      vertex -57.5 5.5 -5
      vertex 57.5 5.5 -5
    endloop
  endfacet
  facet normal 0 1 0
    outer loop
      vertex 57.5 -5.5 5.01
      vertex -57.5 -5.5 5
      vertex -57.5 -5.5 5.01
    endloop
  endfacet
  facet normal 0 1 -0
    outer loop
      vertex 57.5 -5.5 -5
      vertex -57.5 -5.5 5
      vertex 57.5 -5.5 5.01
    endloop
  endfacet
  facet normal 0 1 0
    outer loop
      vertex -57.5 -5.5 5
      vertex 57.5 -5.5 -5
      vertex -57.5 -5.5 -5
    endloop
  endfacet
  facet normal 0 -0.819149 0.573581
    outer loop
      vertex -60 4.21324 1.46467
      vertex -57.5 4.76314 2.25
      vertex -60 4.76314 2.25
    endloop
  endfacet
  facet normal 0 -0.819149 0.573581
    outer loop
      vertex -57.5 4.76314 2.25
      vertex -60 4.21324 1.46467
      vertex -57.5 4.21324 1.46467
    endloop
  endfacet
  facet normal 0 0.819149 0.573581
    outer loop
      vertex -57.5 -4.21324 1.46467
      vertex -60 -4.76314 2.25
      vertex -57.5 -4.76314 2.25
    endloop
  endfacet
  facet normal 0 0.819149 0.573581
    outer loop
      vertex -60 -4.76314 2.25
      vertex -57.5 -4.21324 1.46467
      vertex -60 -4.21324 1.46467
    endloop
  endfacet
  facet normal 0 -0.996194 0.087158
    outer loop
      vertex -59.9636 5.41644 4.04493
      vertex -57.5 5.5 5
      vertex -59.9563 5.5 5
    endloop
  endfacet
  facet normal 0 -0.996194 0.087158
    outer loop
      vertex -57.5 5.5 5
      vertex -59.9636 5.41644 4.04493
      vertex -57.5 5.41644 4.04493
    endloop
  endfacet
  facet normal 0 -0.707109 0.707105
    outer loop
      vertex -60 3.53533 0.786756
      vertex -57.5 4.21324 1.46467
      vertex -60 4.21324 1.46467
    endloop
  endfacet
  facet normal 0 -0.707109 0.707105
    outer loop
      vertex -57.5 4.21324 1.46467
      vertex -60 3.53533 0.786756
      vertex -57.5 3.53533 0.786756
    endloop
  endfacet
  facet normal 0 -0.996237 -0.0866726
    outer loop
      vertex -59.9563 5.5 5
      vertex -57.5 5.49913 5.01
      vertex -59.9563 5.49913 5.01
    endloop
  endfacet
  facet normal 0 -0.996237 -0.0866726
    outer loop
      vertex -57.5 5.49913 5.01
      vertex -59.9563 5.5 5
      vertex -57.5 5.5 5
    endloop
  endfacet
  facet normal 0 -0.965926 0.258817
    outer loop
      vertex -57.5 5.16831 3.11889
      vertex -59.9636 5.41644 4.04493
      vertex -59.9853 5.16831 3.11889
    endloop
  endfacet
  facet normal 0 -0.965926 0.258817
    outer loop
      vertex -59.9636 5.41644 4.04493
      vertex -57.5 5.16831 3.11889
      vertex -57.5 5.41644 4.04493
    endloop
  endfacet
  facet normal 0 -0.0871564 0.996195
    outer loop
      vertex -60 0.955065 -0.416442
      vertex -57.5 0 -0.5
      vertex -57.5 0.955065 -0.416442
    endloop
  endfacet
  facet normal 0 -0.0871564 0.996195
    outer loop
      vertex -57.5 0 -0.5
      vertex -60 0.955065 -0.416442
      vertex -60 0 -0.5
    endloop
  endfacet
  facet normal 0 0.906307 0.42262
    outer loop
      vertex -57.5 -5.16831 3.11889
      vertex -60 -5 2.75795
      vertex -59.9853 -5.16831 3.11889
    endloop
  endfacet
  facet normal 3.40498e-07 0.906308 0.422618
    outer loop
      vertex -57.5 -4.76314 2.25
      vertex -60 -5 2.75795
      vertex -57.5 -5.16831 3.11889
    endloop
  endfacet
  facet normal 0 0.906308 0.422617
    outer loop
      vertex -60 -5 2.75795
      vertex -57.5 -4.76314 2.25
      vertex -60 -4.76314 2.25
    endloop
  endfacet
  facet normal -0 0.258819 0.965926
    outer loop
      vertex -60 -0.955065 -0.416442
      vertex -57.5 -1.88111 -0.168309
      vertex -57.5 -0.955065 -0.416442
    endloop
  endfacet
  facet normal 0 0.258819 0.965926
    outer loop
      vertex -57.5 -1.88111 -0.168309
      vertex -60 -0.955065 -0.416442
      vertex -60 -1.88111 -0.168309
    endloop
  endfacet
  facet normal 0 0.965926 0.258817
    outer loop
      vertex -57.5 -5.16831 3.11889
      vertex -59.9636 -5.41644 4.04493
      vertex -57.5 -5.41644 4.04493
    endloop
  endfacet
  facet normal 0 0.965926 0.258817
    outer loop
      vertex -59.9636 -5.41644 4.04493
      vertex -57.5 -5.16831 3.11889
      vertex -59.9853 -5.16831 3.11889
    endloop
  endfacet
  facet normal 0 -0.422617 0.906308
    outer loop
      vertex -60 2.75 0.23686
      vertex -57.5 1.88111 -0.168309
      vertex -57.5 2.75 0.23686
    endloop
  endfacet
  facet normal 0 -0.422617 0.906308
    outer loop
      vertex -57.5 1.88111 -0.168309
      vertex -60 2.75 0.23686
      vertex -60 1.88111 -0.168309
    endloop
  endfacet
  facet normal 0 -0.258819 0.965926
    outer loop
      vertex -60 1.88111 -0.168309
      vertex -57.5 0.955065 -0.416442
      vertex -57.5 1.88111 -0.168309
    endloop
  endfacet
  facet normal 0 -0.258819 0.965926
    outer loop
      vertex -57.5 0.955065 -0.416442
      vertex -60 1.88111 -0.168309
      vertex -60 0.955065 -0.416442
    endloop
  endfacet
  facet normal 0 -0.906307 0.42262
    outer loop
      vertex -60 5 2.75795
      vertex -57.5 5.16831 3.11889
      vertex -59.9853 5.16831 3.11889
    endloop
  endfacet
  facet normal 0 -0.906308 0.422617
    outer loop
      vertex -57.5 4.76314 2.25
      vertex -60 5 2.75795
      vertex -60 4.76314 2.25
    endloop
  endfacet
  facet normal 3.40498e-07 -0.906308 0.422618
    outer loop
      vertex -60 5 2.75795
      vertex -57.5 4.76314 2.25
      vertex -57.5 5.16831 3.11889
    endloop
  endfacet
  facet normal -0 0.422617 0.906308
    outer loop
      vertex -60 -1.88111 -0.168309
      vertex -57.5 -2.75 0.23686
      vertex -57.5 -1.88111 -0.168309
    endloop
  endfacet
  facet normal 0 0.422617 0.906308
    outer loop
      vertex -57.5 -2.75 0.23686
      vertex -60 -1.88111 -0.168309
      vertex -60 -2.75 0.23686
    endloop
  endfacet
  facet normal 0 0.996194 0.087158
    outer loop
      vertex -57.5 -5.41644 4.04493
      vertex -59.9563 -5.5 5
      vertex -57.5 -5.5 5
    endloop
  endfacet
  facet normal 0 0.996194 0.087158
    outer loop
      vertex -59.9563 -5.5 5
      vertex -57.5 -5.41644 4.04493
      vertex -59.9636 -5.41644 4.04493
    endloop
  endfacet
  facet normal -0 0.573578 0.819151
    outer loop
      vertex -60 -2.75 0.23686
      vertex -57.5 -3.53533 0.786756
      vertex -57.5 -2.75 0.23686
    endloop
  endfacet
  facet normal 0 0.573578 0.819151
    outer loop
      vertex -57.5 -3.53533 0.786756
      vertex -60 -2.75 0.23686
      vertex -60 -3.53533 0.786756
    endloop
  endfacet
  facet normal -0 0.0871564 0.996195
    outer loop
      vertex -60 0 -0.5
      vertex -57.5 -0.955065 -0.416442
      vertex -57.5 0 -0.5
    endloop
  endfacet
  facet normal 0 0.0871564 0.996195
    outer loop
      vertex -57.5 -0.955065 -0.416442
      vertex -60 0 -0.5
      vertex -60 -0.955065 -0.416442
    endloop
  endfacet
  facet normal 0 -0.573578 0.819151
    outer loop
      vertex -60 3.53533 0.786756
      vertex -57.5 2.75 0.23686
      vertex -57.5 3.53533 0.786756
    endloop
  endfacet
  facet normal 0 -0.573578 0.819151
    outer loop
      vertex -57.5 2.75 0.23686
      vertex -60 3.53533 0.786756
      vertex -60 2.75 0.23686
    endloop
  endfacet
  facet normal 0 0.996237 -0.0866726
    outer loop
      vertex -57.5 -5.5 5
      vertex -59.9563 -5.49913 5.01
      vertex -57.5 -5.49913 5.01
    endloop
  endfacet
  facet normal 0 0.996237 -0.0866726
    outer loop
      vertex -59.9563 -5.49913 5.01
      vertex -57.5 -5.5 5
      vertex -59.9563 -5.5 5
    endloop
  endfacet
  facet normal 0 0.707109 0.707105
    outer loop
      vertex -57.5 -3.53533 0.786756
      vertex -60 -4.21324 1.46467
      vertex -57.5 -4.21324 1.46467
    endloop
  endfacet
  facet normal 0 0.707109 0.707105
    outer loop
      vertex -60 -4.21324 1.46467
      vertex -57.5 -3.53533 0.786756
      vertex -60 -3.53533 0.786756
    endloop
  endfacet
endsolid OpenSCAD_Model
