solid OpenSCAD_Model
  facet normal -0.707107 0.707107 0
    outer loop
      vertex 0.284601 8.74329 -5
      vertex 2.25671 10.7154 5.01
      vertex 2.25671 10.7154 -5
    endloop
  endfacet
  facet normal -0.707107 0.707107 0
    outer loop
      vertex 2.25671 10.7154 5.01
      vertex 0.284601 8.74329 -5
      vertex 0.284601 8.74329 5.01
    endloop
  endfacet
  facet normal 0.906306 -0.422622 0
    outer loop
      vertex -25.0351 26.4723 5.01
      vertex -23.8564 29 -5
      vertex -23.8564 29 5.01
    endloop
  endfacet
  facet normal 0.906306 -0.422622 0
    outer loop
      vertex -23.8564 29 -5
      vertex -25.0351 26.4723 5.01
      vertex -25.0351 26.4723 -5
    endloop
  endfacet
  facet normal 0.573578 -0.819151 0
    outer loop
      vertex -20.2846 33.2567 -5
      vertex -18 34.8564 5.01
      vertex -20.2846 33.2567 5.01
    endloop
  endfacet
  facet normal 0.573578 -0.819151 0
    outer loop
      vertex -18 34.8564 5.01
      vertex -20.2846 33.2567 -5
      vertex -18 34.8564 -5
    endloop
  endfacet
  facet normal -0.0871572 0.996195 0
    outer loop
      vertex -7.22163 5.24308 -5
      vertex -10 5 5.01
      vertex -7.22163 5.24308 5.01
    endloop
  endfacet
  facet normal -0.0871572 0.996195 0
    outer loop
      vertex -10 5 5.01
      vertex -7.22163 5.24308 -5
      vertex -10 5 -5
    endloop
  endfacet
  facet normal -0.819152 0.573576 0
    outer loop
      vertex 2.25671 10.7154 -5
      vertex 3.5063 12.5 5.01
      vertex 3.5063 12.5 -5
    endloop
  endfacet
  facet normal -0.819152 0.573576 0
    outer loop
      vertex 3.5063 12.5 5.01
      vertex 2.25671 10.7154 -5
      vertex 2.25671 10.7154 5.01
    endloop
  endfacet
  facet normal 0.819151 -0.573578 0
    outer loop
      vertex -23.8564 29 5.01
      vertex -22.2567 31.2846 -5
      vertex -22.2567 31.2846 5.01
    endloop
  endfacet
  facet normal 0.819151 -0.573578 0
    outer loop
      vertex -22.2567 31.2846 -5
      vertex -23.8564 29 5.01
      vertex -23.8564 29 -5
    endloop
  endfacet
  facet normal 0.422614 0.90631 -0
    outer loop
      vertex -15.4723 5.96492 -5
      vertex -18 7.14359 5.01
      vertex -15.4723 5.96492 5.01
    endloop
  endfacet
  facet normal 0.422614 0.90631 0
    outer loop
      vertex -18 7.14359 5.01
      vertex -15.4723 5.96492 -5
      vertex -18 7.14359 -5
    endloop
  endfacet
  facet normal 0.0871563 0.996195 -0
    outer loop
      vertex -10 5 -5
      vertex -12.7784 5.24308 5.01
      vertex -10 5 5.01
    endloop
  endfacet
  facet normal 0.0871563 0.996195 0
    outer loop
      vertex -12.7784 5.24308 5.01
      vertex -10 5 -5
      vertex -12.7784 5.24308 -5
    endloop
  endfacet
  facet normal 0.0871634 -0.996194 0
    outer loop
      vertex -12.7784 36.7569 -5
      vertex -10 37 5.01
      vertex -12.7784 36.7569 5.01
    endloop
  endfacet
  facet normal 0.0871634 -0.996194 0
    outer loop
      vertex -10 37 5.01
      vertex -12.7784 36.7569 -5
      vertex -10 37 -5
    endloop
  endfacet
  facet normal 0.707109 0.707105 0
    outer loop
      vertex -20.2846 8.74329 5.01
      vertex -22.2567 10.7154 -5
      vertex -22.2567 10.7154 5.01
    endloop
  endfacet
  facet normal 0.707109 0.707105 0
    outer loop
      vertex -22.2567 10.7154 -5
      vertex -20.2846 8.74329 5.01
      vertex -20.2846 8.74329 -5
    endloop
  endfacet
  facet normal -0.258805 -0.96593 0
    outer loop
      vertex -7.22163 36.7569 -5
      vertex -4.52768 36.0351 5.01
      vertex -7.22163 36.7569 5.01
    endloop
  endfacet
  facet normal -0.258805 -0.96593 -0
    outer loop
      vertex -4.52768 36.0351 5.01
      vertex -7.22163 36.7569 -5
      vertex -4.52768 36.0351 -5
    endloop
  endfacet
  facet normal 0.965928 -0.25881 0
    outer loop
      vertex -25.7569 23.7784 5.01
      vertex -25.0351 26.4723 -5
      vertex -25.0351 26.4723 5.01
    endloop
  endfacet
  facet normal 0.965928 -0.25881 0
    outer loop
      vertex -25.0351 26.4723 -5
      vertex -25.7569 23.7784 5.01
      vertex -25.7569 23.7784 -5
    endloop
  endfacet
  facet normal 0.707107 -0.707107 0
    outer loop
      vertex -22.2567 31.2846 5.01
      vertex -20.2846 33.2567 -5
      vertex -20.2846 33.2567 5.01
    endloop
  endfacet
  facet normal 0.707107 -0.707107 0
    outer loop
      vertex -20.2846 33.2567 -5
      vertex -22.2567 31.2846 5.01
      vertex -22.2567 31.2846 -5
    endloop
  endfacet
  facet normal -0.422625 -0.906305 0
    outer loop
      vertex -4.52768 36.0351 -5
      vertex -2 34.8564 5.01
      vertex -4.52768 36.0351 5.01
    endloop
  endfacet
  facet normal -0.422625 -0.906305 -0
    outer loop
      vertex -2 34.8564 5.01
      vertex -4.52768 36.0351 -5
      vertex -2 34.8564 -5
    endloop
  endfacet
  facet normal 0.965928 0.25881 0
    outer loop
      vertex -25.0351 15.5277 5.01
      vertex -25.7569 18.2216 -5
      vertex -25.7569 18.2216 5.01
    endloop
  endfacet
  facet normal 0.965928 0.25881 0
    outer loop
      vertex -25.7569 18.2216 -5
      vertex -25.0351 15.5277 5.01
      vertex -25.0351 15.5277 -5
    endloop
  endfacet
  facet normal 0.25881 -0.965928 0
    outer loop
      vertex -15.4723 36.0351 -5
      vertex -12.7784 36.7569 5.01
      vertex -15.4723 36.0351 5.01
    endloop
  endfacet
  facet normal 0.25881 -0.965928 0
    outer loop
      vertex -12.7784 36.7569 5.01
      vertex -15.4723 36.0351 -5
      vertex -12.7784 36.7569 -5
    endloop
  endfacet
  facet normal -0.707105 -0.707108 0
    outer loop
      vertex 0.284601 33.2567 -5
      vertex 2.25671 31.2846 5.01
      vertex 0.284601 33.2567 5.01
    endloop
  endfacet
  facet normal -0.707105 -0.707108 -0
    outer loop
      vertex 2.25671 31.2846 5.01
      vertex 0.284601 33.2567 -5
      vertex 2.25671 31.2846 -5
    endloop
  endfacet
  facet normal -0.422616 0.906309 0
    outer loop
      vertex -2 7.14359 -5
      vertex -4.52768 5.96492 5.01
      vertex -2 7.14359 5.01
    endloop
  endfacet
  facet normal -0.422616 0.906309 0
    outer loop
      vertex -4.52768 5.96492 5.01
      vertex -2 7.14359 -5
      vertex -4.52768 5.96492 -5
    endloop
  endfacet
  facet normal -0.819152 -0.573576 0
    outer loop
      vertex 3.5063 29.5 -5
      vertex 2.25671 31.2846 5.01
      vertex 2.25671 31.2846 -5
    endloop
  endfacet
  facet normal -0.819152 -0.573576 0
    outer loop
      vertex 2.25671 31.2846 5.01
      vertex 3.5063 29.5 -5
      vertex 3.5063 29.5 5.01
    endloop
  endfacet
  facet normal -0.573578 -0.819151 0
    outer loop
      vertex -2 34.8564 -5
      vertex 0.284601 33.2567 5.01
      vertex -2 34.8564 5.01
    endloop
  endfacet
  facet normal -0.573578 -0.819151 -0
    outer loop
      vertex 0.284601 33.2567 5.01
      vertex -2 34.8564 -5
      vertex 0.284601 33.2567 -5
    endloop
  endfacet
  facet normal 0.996194 -0.0871634 0
    outer loop
      vertex -26 21 5.01
      vertex -25.7569 23.7784 -5
      vertex -25.7569 23.7784 5.01
    endloop
  endfacet
  facet normal 0.996194 -0.0871634 0
    outer loop
      vertex -25.7569 23.7784 -5
      vertex -26 21 5.01
      vertex -26 21 -5
    endloop
  endfacet
  facet normal 0.258823 0.965925 -0
    outer loop
      vertex -12.7784 5.24308 -5
      vertex -15.4723 5.96492 5.01
      vertex -12.7784 5.24308 5.01
    endloop
  endfacet
  facet normal 0.258823 0.965925 0
    outer loop
      vertex -15.4723 5.96492 5.01
      vertex -12.7784 5.24308 -5
      vertex -15.4723 5.96492 -5
    endloop
  endfacet
  facet normal 0.422622 -0.906306 0
    outer loop
      vertex -18 34.8564 -5
      vertex -15.4723 36.0351 5.01
      vertex -18 34.8564 5.01
    endloop
  endfacet
  facet normal 0.422622 -0.906306 0
    outer loop
      vertex -15.4723 36.0351 5.01
      vertex -18 34.8564 -5
      vertex -15.4723 36.0351 -5
    endloop
  endfacet
  facet normal -0.258818 0.965926 0
    outer loop
      vertex -4.52768 5.96492 -5
      vertex -7.22163 5.24308 5.01
      vertex -4.52768 5.96492 5.01
    endloop
  endfacet
  facet normal -0.258818 0.965926 0
    outer loop
      vertex -7.22163 5.24308 5.01
      vertex -4.52768 5.96492 -5
      vertex -7.22163 5.24308 -5
    endloop
  endfacet
  facet normal 0.906306 0.422622 0
    outer loop
      vertex -23.8564 13 5.01
      vertex -25.0351 15.5277 -5
      vertex -25.0351 15.5277 5.01
    endloop
  endfacet
  facet normal 0.906306 0.422622 0
    outer loop
      vertex -25.0351 15.5277 -5
      vertex -23.8564 13 5.01
      vertex -23.8564 13 -5
    endloop
  endfacet
  facet normal 0.819151 0.573578 0
    outer loop
      vertex -22.2567 10.7154 5.01
      vertex -23.8564 13 -5
      vertex -23.8564 13 5.01
    endloop
  endfacet
  facet normal 0.819151 0.573578 0
    outer loop
      vertex -23.8564 13 -5
      vertex -22.2567 10.7154 5.01
      vertex -22.2567 10.7154 -5
    endloop
  endfacet
  facet normal 0.996194 0.0871634 0
    outer loop
      vertex -25.7569 18.2216 5.01
      vertex -26 21 -5
      vertex -26 21 5.01
    endloop
  endfacet
  facet normal 0.996194 0.0871634 0
    outer loop
      vertex -26 21 -5
      vertex -25.7569 18.2216 5.01
      vertex -25.7569 18.2216 -5
    endloop
  endfacet
  facet normal -0.573578 0.819151 0
    outer loop
      vertex 0.284601 8.74329 -5
      vertex -2 7.14359 5.01
      vertex 0.284601 8.74329 5.01
    endloop
  endfacet
  facet normal -0.573578 0.819151 0
    outer loop
      vertex -2 7.14359 5.01
      vertex 0.284601 8.74329 -5
      vertex -2 7.14359 -5
    endloop
  endfacet
  facet normal -0.0871643 -0.996194 0
    outer loop
      vertex -10 37 -5
      vertex -7.22163 36.7569 5.01
      vertex -10 37 5.01
    endloop
  endfacet
  facet normal -0.0871643 -0.996194 -0
    outer loop
      vertex -7.22163 36.7569 5.01
      vertex -10 37 -5
      vertex -7.22163 36.7569 -5
    endloop
  endfacet
  facet normal 0.573578 0.819151 -0
    outer loop
      vertex -18 7.14359 -5
      vertex -20.2846 8.74329 5.01
      vertex -18 7.14359 5.01
    endloop
  endfacet
  facet normal 0.573578 0.819151 0
    outer loop
      vertex -20.2846 8.74329 5.01
      vertex -18 7.14359 -5
      vertex -20.2846 8.74329 -5
    endloop
  endfacet
  facet normal -1 0 0
    outer loop
      vertex 9 12.5 -5
      vertex 9 29.5 5.01
      vertex 9 29.5 -5
    endloop
  endfacet
  facet normal -1 -0 0
    outer loop
      vertex 9 29.5 5.01
      vertex 9 12.5 -5
      vertex 9 12.5 5.01
    endloop
  endfacet
  facet normal 0 -1 0
    outer loop
      vertex 3.5063 29.5 -5
      vertex 9 29.5 5.01
      vertex 3.5063 29.5 5.01
    endloop
  endfacet
  facet normal 0 -1 -0
    outer loop
      vertex 9 29.5 5.01
      vertex 3.5063 29.5 -5
      vertex 9 29.5 -5
    endloop
  endfacet
  facet normal 0 1 -0
    outer loop
      vertex 9 12.5 -5
      vertex 3.5063 12.5 5.01
      vertex 9 12.5 5.01
    endloop
  endfacet
  facet normal 0 1 0
    outer loop
      vertex 3.5063 12.5 5.01
      vertex 9 12.5 -5
      vertex 3.5063 12.5 -5
    endloop
  endfacet
  facet normal -0.707107 0.707107 0
    outer loop
      vertex 15.2846 -33.2567 -5
      vertex 17.2567 -31.2846 5.01
      vertex 17.2567 -31.2846 -5
    endloop
  endfacet
  facet normal -0.707107 0.707107 0
    outer loop
      vertex 17.2567 -31.2846 5.01
      vertex 15.2846 -33.2567 -5
      vertex 15.2846 -33.2567 5.01
    endloop
  endfacet
  facet normal 0.906307 -0.422619 0
    outer loop
      vertex -10.0351 -15.5277 5.01
      vertex -8.85641 -13 -5
      vertex -8.85641 -13 5.01
    endloop
  endfacet
  facet normal 0.906307 -0.422619 0
    outer loop
      vertex -8.85641 -13 -5
      vertex -10.0351 -15.5277 5.01
      vertex -10.0351 -15.5277 -5
    endloop
  endfacet
  facet normal 0.573578 -0.819151 0
    outer loop
      vertex -5.2846 -8.74329 -5
      vertex -3 -7.14359 5.01
      vertex -5.2846 -8.74329 5.01
    endloop
  endfacet
  facet normal 0.573578 -0.819151 0
    outer loop
      vertex -3 -7.14359 5.01
      vertex -5.2846 -8.74329 -5
      vertex -3 -7.14359 -5
    endloop
  endfacet
  facet normal -0.0871643 0.996194 0
    outer loop
      vertex 7.77837 -36.7569 -5
      vertex 5 -37 5.01
      vertex 7.77837 -36.7569 5.01
    endloop
  endfacet
  facet normal -0.0871643 0.996194 0
    outer loop
      vertex 5 -37 5.01
      vertex 7.77837 -36.7569 -5
      vertex 5 -37 -5
    endloop
  endfacet
  facet normal -0.81915 0.573579 0
    outer loop
      vertex 17.2567 -31.2846 -5
      vertex 18.5063 -29.5 5.01
      vertex 18.5063 -29.5 -5
    endloop
  endfacet
  facet normal -0.81915 0.573579 0
    outer loop
      vertex 18.5063 -29.5 5.01
      vertex 17.2567 -31.2846 -5
      vertex 17.2567 -31.2846 5.01
    endloop
  endfacet
  facet normal 0.819151 -0.573578 0
    outer loop
      vertex -8.85641 -13 5.01
      vertex -7.25671 -10.7154 -5
      vertex -7.25671 -10.7154 5.01
    endloop
  endfacet
  facet normal 0.819151 -0.573578 0
    outer loop
      vertex -7.25671 -10.7154 -5
      vertex -8.85641 -13 5.01
      vertex -8.85641 -13 -5
    endloop
  endfacet
  facet normal 0.422625 0.906304 -0
    outer loop
      vertex -0.472322 -36.0351 -5
      vertex -3 -34.8564 5.01
      vertex -0.472322 -36.0351 5.01
    endloop
  endfacet
  facet normal 0.422625 0.906304 0
    outer loop
      vertex -3 -34.8564 5.01
      vertex -0.472322 -36.0351 -5
      vertex -3 -34.8564 -5
    endloop
  endfacet
  facet normal 0.0871643 0.996194 -0
    outer loop
      vertex 5 -37 -5
      vertex 2.22163 -36.7569 5.01
      vertex 5 -37 5.01
    endloop
  endfacet
  facet normal 0.0871643 0.996194 0
    outer loop
      vertex 2.22163 -36.7569 5.01
      vertex 5 -37 -5
      vertex 2.22163 -36.7569 -5
    endloop
  endfacet
  facet normal 0.0871572 -0.996195 0
    outer loop
      vertex 2.22163 -5.24308 -5
      vertex 5 -5 5.01
      vertex 2.22163 -5.24308 5.01
    endloop
  endfacet
  facet normal 0.0871572 -0.996195 0
    outer loop
      vertex 5 -5 5.01
      vertex 2.22163 -5.24308 -5
      vertex 5 -5 -5
    endloop
  endfacet
  facet normal 0.707105 0.707109 -0
    outer loop
      vertex -5.2846 -33.2567 -5
      vertex -7.25671 -31.2846 5.01
      vertex -5.2846 -33.2567 5.01
    endloop
  endfacet
  facet normal 0.707105 0.707109 0
    outer loop
      vertex -7.25671 -31.2846 5.01
      vertex -5.2846 -33.2567 -5
      vertex -7.25671 -31.2846 -5
    endloop
  endfacet
  facet normal -0.25882 -0.965926 0
    outer loop
      vertex 7.77837 -5.24308 -5
      vertex 10.4723 -5.96492 5.01
      vertex 7.77837 -5.24308 5.01
    endloop
  endfacet
  facet normal -0.25882 -0.965926 -0
    outer loop
      vertex 10.4723 -5.96492 5.01
      vertex 7.77837 -5.24308 -5
      vertex 10.4723 -5.96492 -5
    endloop
  endfacet
  facet normal 0.965928 -0.25881 0
    outer loop
      vertex -10.7569 -18.2216 5.01
      vertex -10.0351 -15.5277 -5
      vertex -10.0351 -15.5277 5.01
    endloop
  endfacet
  facet normal 0.965928 -0.25881 0
    outer loop
      vertex -10.0351 -15.5277 -5
      vertex -10.7569 -18.2216 5.01
      vertex -10.7569 -18.2216 -5
    endloop
  endfacet
  facet normal 0.707107 -0.707107 0
    outer loop
      vertex -7.25671 -10.7154 5.01
      vertex -5.2846 -8.74329 -5
      vertex -5.2846 -8.74329 5.01
    endloop
  endfacet
  facet normal 0.707107 -0.707107 0
    outer loop
      vertex -5.2846 -8.74329 -5
      vertex -7.25671 -10.7154 5.01
      vertex -7.25671 -10.7154 -5
    endloop
  endfacet
  facet normal -0.422614 -0.90631 0
    outer loop
      vertex 10.4723 -5.96492 -5
      vertex 13 -7.14359 5.01
      vertex 10.4723 -5.96492 5.01
    endloop
  endfacet
  facet normal -0.422614 -0.90631 -0
    outer loop
      vertex 13 -7.14359 5.01
      vertex 10.4723 -5.96492 -5
      vertex 13 -7.14359 -5
    endloop
  endfacet
  facet normal 0.965928 0.25881 0
    outer loop
      vertex -10.0351 -26.4723 5.01
      vertex -10.7569 -23.7784 -5
      vertex -10.7569 -23.7784 5.01
    endloop
  endfacet
  facet normal 0.965928 0.25881 0
    outer loop
      vertex -10.7569 -23.7784 -5
      vertex -10.0351 -26.4723 5.01
      vertex -10.0351 -26.4723 -5
    endloop
  endfacet
  facet normal 0.258818 -0.965926 0
    outer loop
      vertex -0.472322 -5.96492 -5
      vertex 2.22163 -5.24308 5.01
      vertex -0.472322 -5.96492 5.01
    endloop
  endfacet
  facet normal 0.258818 -0.965926 0
    outer loop
      vertex 2.22163 -5.24308 5.01
      vertex -0.472322 -5.96492 -5
      vertex 2.22163 -5.24308 -5
    endloop
  endfacet
  facet normal -0.707109 -0.707105 0
    outer loop
      vertex 17.2567 -10.7154 -5
      vertex 15.2846 -8.74329 5.01
      vertex 15.2846 -8.74329 -5
    endloop
  endfacet
  facet normal -0.707109 -0.707105 0
    outer loop
      vertex 15.2846 -8.74329 5.01
      vertex 17.2567 -10.7154 -5
      vertex 17.2567 -10.7154 5.01
    endloop
  endfacet
  facet normal -0.422622 0.906306 0
    outer loop
      vertex 13 -34.8564 -5
      vertex 10.4723 -36.0351 5.01
      vertex 13 -34.8564 5.01
    endloop
  endfacet
  facet normal -0.422622 0.906306 0
    outer loop
      vertex 10.4723 -36.0351 5.01
      vertex 13 -34.8564 -5
      vertex 10.4723 -36.0351 -5
    endloop
  endfacet
  facet normal -0.81915 -0.573579 0
    outer loop
      vertex 18.5063 -12.5 -5
      vertex 17.2567 -10.7154 5.01
      vertex 17.2567 -10.7154 -5
    endloop
  endfacet
  facet normal -0.81915 -0.573579 0
    outer loop
      vertex 17.2567 -10.7154 5.01
      vertex 18.5063 -12.5 -5
      vertex 18.5063 -12.5 5.01
    endloop
  endfacet
  facet normal -0.573578 -0.819151 0
    outer loop
      vertex 13 -7.14359 -5
      vertex 15.2846 -8.74329 5.01
      vertex 13 -7.14359 5.01
    endloop
  endfacet
  facet normal -0.573578 -0.819151 -0
    outer loop
      vertex 15.2846 -8.74329 5.01
      vertex 13 -7.14359 -5
      vertex 15.2846 -8.74329 -5
    endloop
  endfacet
  facet normal 0.996194 -0.0871634 0
    outer loop
      vertex -11 -21 5.01
      vertex -10.7569 -18.2216 -5
      vertex -10.7569 -18.2216 5.01
    endloop
  endfacet
  facet normal 0.996194 -0.0871634 0
    outer loop
      vertex -10.7569 -18.2216 -5
      vertex -11 -21 5.01
      vertex -11 -21 -5
    endloop
  endfacet
  facet normal 0.258805 0.96593 -0
    outer loop
      vertex 2.22163 -36.7569 -5
      vertex -0.472322 -36.0351 5.01
      vertex 2.22163 -36.7569 5.01
    endloop
  endfacet
  facet normal 0.258805 0.96593 0
    outer loop
      vertex -0.472322 -36.0351 5.01
      vertex 2.22163 -36.7569 -5
      vertex -0.472322 -36.0351 -5
    endloop
  endfacet
  facet normal 0.422617 -0.906309 0
    outer loop
      vertex -3 -7.14359 -5
      vertex -0.472322 -5.96492 5.01
      vertex -3 -7.14359 5.01
    endloop
  endfacet
  facet normal 0.422617 -0.906309 0
    outer loop
      vertex -0.472322 -5.96492 5.01
      vertex -3 -7.14359 -5
      vertex -0.472322 -5.96492 -5
    endloop
  endfacet
  facet normal -0.258807 0.965929 0
    outer loop
      vertex 10.4723 -36.0351 -5
      vertex 7.77837 -36.7569 5.01
      vertex 10.4723 -36.0351 5.01
    endloop
  endfacet
  facet normal -0.258807 0.965929 0
    outer loop
      vertex 7.77837 -36.7569 5.01
      vertex 10.4723 -36.0351 -5
      vertex 7.77837 -36.7569 -5
    endloop
  endfacet
  facet normal 0.906307 0.422619 0
    outer loop
      vertex -8.85641 -29 5.01
      vertex -10.0351 -26.4723 -5
      vertex -10.0351 -26.4723 5.01
    endloop
  endfacet
  facet normal 0.906307 0.422619 0
    outer loop
      vertex -10.0351 -26.4723 -5
      vertex -8.85641 -29 5.01
      vertex -8.85641 -29 -5
    endloop
  endfacet
  facet normal 0.819151 0.573578 0
    outer loop
      vertex -7.25671 -31.2846 5.01
      vertex -8.85641 -29 -5
      vertex -8.85641 -29 5.01
    endloop
  endfacet
  facet normal 0.819151 0.573578 0
    outer loop
      vertex -8.85641 -29 -5
      vertex -7.25671 -31.2846 5.01
      vertex -7.25671 -31.2846 -5
    endloop
  endfacet
  facet normal 0.996194 0.0871634 0
    outer loop
      vertex -10.7569 -23.7784 5.01
      vertex -11 -21 -5
      vertex -11 -21 5.01
    endloop
  endfacet
  facet normal 0.996194 0.0871634 0
    outer loop
      vertex -11 -21 -5
      vertex -10.7569 -23.7784 5.01
      vertex -10.7569 -23.7784 -5
    endloop
  endfacet
  facet normal -0.573578 0.819151 0
    outer loop
      vertex 15.2846 -33.2567 -5
      vertex 13 -34.8564 5.01
      vertex 15.2846 -33.2567 5.01
    endloop
  endfacet
  facet normal -0.573578 0.819151 0
    outer loop
      vertex 13 -34.8564 5.01
      vertex 15.2846 -33.2567 -5
      vertex 13 -34.8564 -5
    endloop
  endfacet
  facet normal -0.0871572 -0.996195 0
    outer loop
      vertex 5 -5 -5
      vertex 7.77837 -5.24308 5.01
      vertex 5 -5 5.01
    endloop
  endfacet
  facet normal -0.0871572 -0.996195 -0
    outer loop
      vertex 7.77837 -5.24308 5.01
      vertex 5 -5 -5
      vertex 7.77837 -5.24308 -5
    endloop
  endfacet
  facet normal 0.573578 0.819151 -0
    outer loop
      vertex -3 -34.8564 -5
      vertex -5.2846 -33.2567 5.01
      vertex -3 -34.8564 5.01
    endloop
  endfacet
  facet normal 0.573578 0.819151 0
    outer loop
      vertex -5.2846 -33.2567 5.01
      vertex -3 -34.8564 -5
      vertex -5.2846 -33.2567 -5
    endloop
  endfacet
  facet normal -1 0 0
    outer loop
      vertex 24 -29.5 -5
      vertex 24 -12.5 5.01
      vertex 24 -12.5 -5
    endloop
  endfacet
  facet normal -1 -0 0
    outer loop
      vertex 24 -12.5 5.01
      vertex 24 -29.5 -5
      vertex 24 -29.5 5.01
    endloop
  endfacet
  facet normal 0 -1 0
    outer loop
      vertex 18.5063 -12.5 -5
      vertex 24 -12.5 5.01
      vertex 18.5063 -12.5 5.01
    endloop
  endfacet
  facet normal 0 -1 -0
    outer loop
      vertex 24 -12.5 5.01
      vertex 18.5063 -12.5 -5
      vertex 24 -12.5 -5
    endloop
  endfacet
  facet normal 0 1 -0
    outer loop
      vertex 24 -29.5 -5
      vertex 18.5063 -29.5 5.01
      vertex 24 -29.5 5.01
    endloop
  endfacet
  facet normal 0 1 0
    outer loop
      vertex 18.5063 -29.5 5.01
      vertex 24 -29.5 -5
      vertex 18.5063 -29.5 -5
    endloop
  endfacet
  facet normal 0 -1 0
    outer loop
      vertex -34.5 -47.5 -5
      vertex 34.5 -47.5 5.01
      vertex -34.5 -47.5 5.01
    endloop
  endfacet
  facet normal 0 -1 -0
    outer loop
      vertex 34.5 -47.5 5.01
      vertex -34.5 -47.5 -5
      vertex 34.5 -47.5 -5
    endloop
  endfacet
  facet normal 0.906295 0.422645 0
    outer loop
      vertex 37.3191 45.5261 5.01
      vertex 37.0981 46 -5
      vertex 37.0981 46 5.01
    endloop
  endfacet
  facet normal 0.906295 0.422645 0
    outer loop
      vertex 37.0981 46 -5
      vertex 37.3191 45.5261 5.01
      vertex 37.3191 45.5261 -5
    endloop
  endfacet
  facet normal 0.258698 -0.965958 0
    outer loop
      vertex 35.0209 -47.4544 -5
      vertex 35.5261 -47.3191 5.01
      vertex 35.0209 -47.4544 5.01
    endloop
  endfacet
  facet normal 0.258698 -0.965958 0
    outer loop
      vertex 35.5261 -47.3191 5.01
      vertex 35.0209 -47.4544 -5
      vertex 35.5261 -47.3191 -5
    endloop
  endfacet
  facet normal 0.819124 0.573616 0
    outer loop
      vertex 37.0981 46 5.01
      vertex 36.7981 46.4284 -5
      vertex 36.7981 46.4284 5.01
    endloop
  endfacet
  facet normal 0.819124 0.573616 0
    outer loop
      vertex 36.7981 46.4284 -5
      vertex 37.0981 46 5.01
      vertex 37.0981 46 -5
    endloop
  endfacet
  facet normal -0.99619 0.0872073 0
    outer loop
      vertex -37.5 44.5 -5
      vertex -37.4544 45.0209 5.01
      vertex -37.4544 45.0209 -5
    endloop
  endfacet
  facet normal -0.99619 0.0872073 0
    outer loop
      vertex -37.4544 45.0209 5.01
      vertex -37.5 44.5 -5
      vertex -37.5 44.5 5.01
    endloop
  endfacet
  facet normal 0 0 1
    outer loop
      vertex 34.5 47.5 5.01
      vertex 37.5 44.5 5.01
      vertex 37.4544 45.0209 5.01
    endloop
  endfacet
  facet normal 0 0 1
    outer loop
      vertex 37.5 44.5 5.01
      vertex 24 -12.5 5.01
      vertex 37.5 -44.5 5.01
    endloop
  endfacet
  facet normal 0 0 1
    outer loop
      vertex 34.5 47.5 5.01
      vertex 37.4544 45.0209 5.01
      vertex 37.3191 45.5261 5.01
    endloop
  endfacet
  facet normal -0 0 1
    outer loop
      vertex 24 -29.5 5.01
      vertex 37.5 -44.5 5.01
      vertex 24 -12.5 5.01
    endloop
  endfacet
  facet normal 0 0 1
    outer loop
      vertex 34.5 47.5 5.01
      vertex 37.3191 45.5261 5.01
      vertex 37.0981 46 5.01
    endloop
  endfacet
  facet normal 0 -0 1
    outer loop
      vertex 34.5 -47.5 5.01
      vertex 37.5 -44.5 5.01
      vertex 24 -29.5 5.01
    endloop
  endfacet
  facet normal 0 0 1
    outer loop
      vertex 34.5 47.5 5.01
      vertex 37.0981 46 5.01
      vertex 36.7981 46.4284 5.01
    endloop
  endfacet
  facet normal 0 0 1
    outer loop
      vertex 37.5 -44.5 5.01
      vertex 34.5 -47.5 5.01
      vertex 37.4544 -45.0209 5.01
    endloop
  endfacet
  facet normal 0 0 1
    outer loop
      vertex 34.5 47.5 5.01
      vertex 36.7981 46.4284 5.01
      vertex 36.4284 46.7981 5.01
    endloop
  endfacet
  facet normal 0 0 1
    outer loop
      vertex 37.4544 -45.0209 5.01
      vertex 34.5 -47.5 5.01
      vertex 37.3191 -45.5261 5.01
    endloop
  endfacet
  facet normal 0 0 1
    outer loop
      vertex 34.5 47.5 5.01
      vertex 36.4284 46.7981 5.01
      vertex 36 47.0981 5.01
    endloop
  endfacet
  facet normal 0 0 1
    outer loop
      vertex 37.3191 -45.5261 5.01
      vertex 34.5 -47.5 5.01
      vertex 37.0981 -46 5.01
    endloop
  endfacet
  facet normal 0 0 1
    outer loop
      vertex 34.5 47.5 5.01
      vertex 36 47.0981 5.01
      vertex 35.5261 47.3191 5.01
    endloop
  endfacet
  facet normal 0 0 1
    outer loop
      vertex 37.0981 -46 5.01
      vertex 34.5 -47.5 5.01
      vertex 36.7981 -46.4284 5.01
    endloop
  endfacet
  facet normal 0 0 1
    outer loop
      vertex 34.5 47.5 5.01
      vertex 35.5261 47.3191 5.01
      vertex 35.0209 47.4544 5.01
    endloop
  endfacet
  facet normal 0 0 1
    outer loop
      vertex 36.7981 -46.4284 5.01
      vertex 34.5 -47.5 5.01
      vertex 36.4284 -46.7981 5.01
    endloop
  endfacet
  facet normal 0 0 1
    outer loop
      vertex 37.5 44.5 5.01
      vertex 34.5 47.5 5.01
      vertex 9 29.5 5.01
    endloop
  endfacet
  facet normal 0 0 1
    outer loop
      vertex 36.4284 -46.7981 5.01
      vertex 34.5 -47.5 5.01
      vertex 36 -47.0981 5.01
    endloop
  endfacet
  facet normal 0 0 1
    outer loop
      vertex 36 -47.0981 5.01
      vertex 34.5 -47.5 5.01
      vertex 35.5261 -47.3191 5.01
    endloop
  endfacet
  facet normal 0 0 1
    outer loop
      vertex 37.5 44.5 5.01
      vertex 9 12.5 5.01
      vertex 24 -12.5 5.01
    endloop
  endfacet
  facet normal 0 0 1
    outer loop
      vertex 24 -12.5 5.01
      vertex 17.2567 -10.7154 5.01
      vertex 18.5063 -12.5 5.01
    endloop
  endfacet
  facet normal -0 -0 1
    outer loop
      vertex 15.2846 -8.74329 5.01
      vertex 24 -12.5 5.01
      vertex 9 12.5 5.01
    endloop
  endfacet
  facet normal 0 0 1
    outer loop
      vertex 24 -12.5 5.01
      vertex 15.2846 -8.74329 5.01
      vertex 17.2567 -10.7154 5.01
    endloop
  endfacet
  facet normal 0 0 1
    outer loop
      vertex 15.2846 -8.74329 5.01
      vertex 9 12.5 5.01
      vertex 13 -7.14359 5.01
    endloop
  endfacet
  facet normal 0 0 1
    outer loop
      vertex 37.5 44.5 5.01
      vertex 9 29.5 5.01
      vertex 9 12.5 5.01
    endloop
  endfacet
  facet normal -0 0 1
    outer loop
      vertex 0.284601 33.2567 5.01
      vertex 9 29.5 5.01
      vertex 34.5 47.5 5.01
    endloop
  endfacet
  facet normal 0 0 1
    outer loop
      vertex 9 29.5 5.01
      vertex 2.25671 31.2846 5.01
      vertex 3.5063 29.5 5.01
    endloop
  endfacet
  facet normal 0 0 1
    outer loop
      vertex 9 29.5 5.01
      vertex 0.284601 33.2567 5.01
      vertex 2.25671 31.2846 5.01
    endloop
  endfacet
  facet normal 0 0 1
    outer loop
      vertex 34.5 47.5 5.01
      vertex -2 34.8564 5.01
      vertex 0.284601 33.2567 5.01
    endloop
  endfacet
  facet normal 0 0 1
    outer loop
      vertex 34.5 47.5 5.01
      vertex -4.52768 36.0351 5.01
      vertex -2 34.8564 5.01
    endloop
  endfacet
  facet normal 0 0 1
    outer loop
      vertex 34.5 47.5 5.01
      vertex -7.22163 36.7569 5.01
      vertex -4.52768 36.0351 5.01
    endloop
  endfacet
  facet normal -0 0 1
    outer loop
      vertex -34.5 47.5 5.01
      vertex -7.22163 36.7569 5.01
      vertex 34.5 47.5 5.01
    endloop
  endfacet
  facet normal 0 0 1
    outer loop
      vertex -7.22163 36.7569 5.01
      vertex -34.5 47.5 5.01
      vertex -10 37 5.01
    endloop
  endfacet
  facet normal 0 0 1
    outer loop
      vertex -25.0351 26.4723 5.01
      vertex -37.5 44.5 5.01
      vertex -25.7569 23.7784 5.01
    endloop
  endfacet
  facet normal 0 0 1
    outer loop
      vertex -23.8564 29 5.01
      vertex -37.5 44.5 5.01
      vertex -25.0351 26.4723 5.01
    endloop
  endfacet
  facet normal 0 0 1
    outer loop
      vertex -22.2567 31.2846 5.01
      vertex -37.5 44.5 5.01
      vertex -23.8564 29 5.01
    endloop
  endfacet
  facet normal -0 0 1
    outer loop
      vertex -37.5 44.5 5.01
      vertex -22.2567 31.2846 5.01
      vertex -34.5 47.5 5.01
    endloop
  endfacet
  facet normal 0 0 1
    outer loop
      vertex -20.2846 33.2567 5.01
      vertex -34.5 47.5 5.01
      vertex -22.2567 31.2846 5.01
    endloop
  endfacet
  facet normal 0 0 1
    outer loop
      vertex -18 34.8564 5.01
      vertex -34.5 47.5 5.01
      vertex -20.2846 33.2567 5.01
    endloop
  endfacet
  facet normal 0 0 1
    outer loop
      vertex -15.4723 36.0351 5.01
      vertex -34.5 47.5 5.01
      vertex -18 34.8564 5.01
    endloop
  endfacet
  facet normal 0 0 1
    outer loop
      vertex -12.7784 36.7569 5.01
      vertex -34.5 47.5 5.01
      vertex -15.4723 36.0351 5.01
    endloop
  endfacet
  facet normal 0 0 1
    outer loop
      vertex -10 37 5.01
      vertex -34.5 47.5 5.01
      vertex -12.7784 36.7569 5.01
    endloop
  endfacet
  facet normal 0 0 1
    outer loop
      vertex 35.5261 -47.3191 5.01
      vertex 34.5 -47.5 5.01
      vertex 35.0209 -47.4544 5.01
    endloop
  endfacet
  facet normal 0 0 1
    outer loop
      vertex 17.2567 -31.2846 5.01
      vertex 24 -29.5 5.01
      vertex 18.5063 -29.5 5.01
    endloop
  endfacet
  facet normal 0 0 1
    outer loop
      vertex 15.2846 -33.2567 5.01
      vertex 24 -29.5 5.01
      vertex 17.2567 -31.2846 5.01
    endloop
  endfacet
  facet normal 0 0 1
    outer loop
      vertex 24 -29.5 5.01
      vertex 15.2846 -33.2567 5.01
      vertex 34.5 -47.5 5.01
    endloop
  endfacet
  facet normal -0 0 1
    outer loop
      vertex 13 -34.8564 5.01
      vertex 34.5 -47.5 5.01
      vertex 15.2846 -33.2567 5.01
    endloop
  endfacet
  facet normal -0 0 1
    outer loop
      vertex 10.4723 -36.0351 5.01
      vertex 34.5 -47.5 5.01
      vertex 13 -34.8564 5.01
    endloop
  endfacet
  facet normal -0 0 1
    outer loop
      vertex 7.77837 -36.7569 5.01
      vertex 34.5 -47.5 5.01
      vertex 10.4723 -36.0351 5.01
    endloop
  endfacet
  facet normal -0 0 1
    outer loop
      vertex 5 -37 5.01
      vertex 34.5 -47.5 5.01
      vertex 7.77837 -36.7569 5.01
    endloop
  endfacet
  facet normal 0 0 1
    outer loop
      vertex -34.5 -47.5 5.01
      vertex 5 -37 5.01
      vertex 2.22163 -36.7569 5.01
    endloop
  endfacet
  facet normal 0 0 1
    outer loop
      vertex -34.5 -47.5 5.01
      vertex 2.22163 -36.7569 5.01
      vertex -0.472322 -36.0351 5.01
    endloop
  endfacet
  facet normal 0 0 1
    outer loop
      vertex -20.2846 8.74329 5.01
      vertex -10.0351 -15.5277 5.01
      vertex -18 7.14359 5.01
    endloop
  endfacet
  facet normal 0 0 1
    outer loop
      vertex -10.0351 -15.5277 5.01
      vertex -20.2846 8.74329 5.01
      vertex -10.7569 -18.2216 5.01
    endloop
  endfacet
  facet normal 0 0 1
    outer loop
      vertex -37.5 -44.5 5.01
      vertex -10.7569 -18.2216 5.01
      vertex -20.2846 8.74329 5.01
    endloop
  endfacet
  facet normal 0 0 1
    outer loop
      vertex -10.7569 -18.2216 5.01
      vertex -37.5 -44.5 5.01
      vertex -11 -21 5.01
    endloop
  endfacet
  facet normal 0 0 1
    outer loop
      vertex -11 -21 5.01
      vertex -37.5 -44.5 5.01
      vertex -10.7569 -23.7784 5.01
    endloop
  endfacet
  facet normal 0 0 1
    outer loop
      vertex -37.5 -44.5 5.01
      vertex -20.2846 8.74329 5.01
      vertex -22.2567 10.7154 5.01
    endloop
  endfacet
  facet normal 0 0 1
    outer loop
      vertex -37.5 -44.5 5.01
      vertex -22.2567 10.7154 5.01
      vertex -23.8564 13 5.01
    endloop
  endfacet
  facet normal 0 0 1
    outer loop
      vertex -37.5 -44.5 5.01
      vertex -23.8564 13 5.01
      vertex -25.0351 15.5277 5.01
    endloop
  endfacet
  facet normal 0 0 1
    outer loop
      vertex -25.7569 23.7784 5.01
      vertex -37.5 44.5 5.01
      vertex -26 21 5.01
    endloop
  endfacet
  facet normal 0 0 1
    outer loop
      vertex -26 21 5.01
      vertex -37.5 44.5 5.01
      vertex -25.7569 18.2216 5.01
    endloop
  endfacet
  facet normal 0 0 1
    outer loop
      vertex 5 -37 5.01
      vertex -34.5 -47.5 5.01
      vertex 34.5 -47.5 5.01
    endloop
  endfacet
  facet normal 0 0 1
    outer loop
      vertex -3 -34.8564 5.01
      vertex -34.5 -47.5 5.01
      vertex -0.472322 -36.0351 5.01
    endloop
  endfacet
  facet normal 0 0 1
    outer loop
      vertex -5.2846 -33.2567 5.01
      vertex -34.5 -47.5 5.01
      vertex -3 -34.8564 5.01
    endloop
  endfacet
  facet normal 0 0 1
    outer loop
      vertex -7.25671 -31.2846 5.01
      vertex -34.5 -47.5 5.01
      vertex -5.2846 -33.2567 5.01
    endloop
  endfacet
  facet normal 0 0 1
    outer loop
      vertex -8.85641 -29 5.01
      vertex -34.5 -47.5 5.01
      vertex -7.25671 -31.2846 5.01
    endloop
  endfacet
  facet normal 0 0 1
    outer loop
      vertex -10.0351 -26.4723 5.01
      vertex -34.5 -47.5 5.01
      vertex -8.85641 -29 5.01
    endloop
  endfacet
  facet normal 0 0 1
    outer loop
      vertex -10.7569 -23.7784 5.01
      vertex -37.5 -44.5 5.01
      vertex -10.0351 -26.4723 5.01
    endloop
  endfacet
  facet normal 0 0 1
    outer loop
      vertex -37.5 -44.5 5.01
      vertex -25.7569 18.2216 5.01
      vertex -37.5 44.5 5.01
    endloop
  endfacet
  facet normal 0 0 1
    outer loop
      vertex -37.5 44.5 5.01
      vertex -34.5 47.5 5.01
      vertex -35.0209 47.4544 5.01
    endloop
  endfacet
  facet normal 0 0 1
    outer loop
      vertex -25.7569 18.2216 5.01
      vertex -37.5 -44.5 5.01
      vertex -25.0351 15.5277 5.01
    endloop
  endfacet
  facet normal 0 0 1
    outer loop
      vertex -37.5 44.5 5.01
      vertex -35.0209 47.4544 5.01
      vertex -35.5261 47.3191 5.01
    endloop
  endfacet
  facet normal 0 0 1
    outer loop
      vertex -10.0351 -26.4723 5.01
      vertex -37.5 -44.5 5.01
      vertex -34.5 -47.5 5.01
    endloop
  endfacet
  facet normal 0 0 1
    outer loop
      vertex -37.5 44.5 5.01
      vertex -35.5261 47.3191 5.01
      vertex -36 47.0981 5.01
    endloop
  endfacet
  facet normal 0 0 1
    outer loop
      vertex -34.5 -47.5 5.01
      vertex -37.5 -44.5 5.01
      vertex -35.0209 -47.4544 5.01
    endloop
  endfacet
  facet normal 0 0 1
    outer loop
      vertex -37.5 44.5 5.01
      vertex -36 47.0981 5.01
      vertex -36.4284 46.7981 5.01
    endloop
  endfacet
  facet normal 0 0 1
    outer loop
      vertex -35.0209 -47.4544 5.01
      vertex -37.5 -44.5 5.01
      vertex -35.5261 -47.3191 5.01
    endloop
  endfacet
  facet normal 0 0 1
    outer loop
      vertex -37.5 44.5 5.01
      vertex -36.4284 46.7981 5.01
      vertex -36.7981 46.4284 5.01
    endloop
  endfacet
  facet normal 0 0 1
    outer loop
      vertex -35.5261 -47.3191 5.01
      vertex -37.5 -44.5 5.01
      vertex -36 -47.0981 5.01
    endloop
  endfacet
  facet normal 0 0 1
    outer loop
      vertex -37.5 44.5 5.01
      vertex -36.7981 46.4284 5.01
      vertex -37.0981 46 5.01
    endloop
  endfacet
  facet normal 0 0 1
    outer loop
      vertex -36 -47.0981 5.01
      vertex -37.5 -44.5 5.01
      vertex -36.4284 -46.7981 5.01
    endloop
  endfacet
  facet normal 0 0 1
    outer loop
      vertex -37.5 44.5 5.01
      vertex -37.0981 46 5.01
      vertex -37.3191 45.5261 5.01
    endloop
  endfacet
  facet normal 0 0 1
    outer loop
      vertex -36.4284 -46.7981 5.01
      vertex -37.5 -44.5 5.01
      vertex -36.7981 -46.4284 5.01
    endloop
  endfacet
  facet normal 0 0 1
    outer loop
      vertex -37.5 44.5 5.01
      vertex -37.3191 45.5261 5.01
      vertex -37.4544 45.0209 5.01
    endloop
  endfacet
  facet normal 0 0 1
    outer loop
      vertex -36.7981 -46.4284 5.01
      vertex -37.5 -44.5 5.01
      vertex -37.0981 -46 5.01
    endloop
  endfacet
  facet normal 0 0 1
    outer loop
      vertex -37.0981 -46 5.01
      vertex -37.5 -44.5 5.01
      vertex -37.3191 -45.5261 5.01
    endloop
  endfacet
  facet normal 0 0 1
    outer loop
      vertex -37.3191 -45.5261 5.01
      vertex -37.5 -44.5 5.01
      vertex -37.4544 -45.0209 5.01
    endloop
  endfacet
  facet normal 0 0 1
    outer loop
      vertex 13 -7.14359 5.01
      vertex 9 12.5 5.01
      vertex 10.4723 -5.96492 5.01
    endloop
  endfacet
  facet normal 0 0 1
    outer loop
      vertex 9 12.5 5.01
      vertex 7.77837 -5.24308 5.01
      vertex 10.4723 -5.96492 5.01
    endloop
  endfacet
  facet normal -0 0 1
    outer loop
      vertex 2.25671 10.7154 5.01
      vertex 7.77837 -5.24308 5.01
      vertex 9 12.5 5.01
    endloop
  endfacet
  facet normal 0 0 1
    outer loop
      vertex 2.25671 10.7154 5.01
      vertex 9 12.5 5.01
      vertex 3.5063 12.5 5.01
    endloop
  endfacet
  facet normal -0 0 1
    outer loop
      vertex 0.284601 8.74329 5.01
      vertex 7.77837 -5.24308 5.01
      vertex 2.25671 10.7154 5.01
    endloop
  endfacet
  facet normal 0 0 1
    outer loop
      vertex 7.77837 -5.24308 5.01
      vertex 0.284601 8.74329 5.01
      vertex 5 -5 5.01
    endloop
  endfacet
  facet normal -0 0 1
    outer loop
      vertex -2 7.14359 5.01
      vertex 5 -5 5.01
      vertex 0.284601 8.74329 5.01
    endloop
  endfacet
  facet normal 0 0 1
    outer loop
      vertex 5 -5 5.01
      vertex -2 7.14359 5.01
      vertex 2.22163 -5.24308 5.01
    endloop
  endfacet
  facet normal -0 0 1
    outer loop
      vertex -4.52768 5.96492 5.01
      vertex 2.22163 -5.24308 5.01
      vertex -2 7.14359 5.01
    endloop
  endfacet
  facet normal 0 0 1
    outer loop
      vertex 2.22163 -5.24308 5.01
      vertex -4.52768 5.96492 5.01
      vertex -0.472322 -5.96492 5.01
    endloop
  endfacet
  facet normal -0 0 1
    outer loop
      vertex -7.22163 5.24308 5.01
      vertex -0.472322 -5.96492 5.01
      vertex -4.52768 5.96492 5.01
    endloop
  endfacet
  facet normal 0 0 1
    outer loop
      vertex -0.472322 -5.96492 5.01
      vertex -7.22163 5.24308 5.01
      vertex -3 -7.14359 5.01
    endloop
  endfacet
  facet normal -0 0 1
    outer loop
      vertex -10 5 5.01
      vertex -3 -7.14359 5.01
      vertex -7.22163 5.24308 5.01
    endloop
  endfacet
  facet normal 0 0 1
    outer loop
      vertex -3 -7.14359 5.01
      vertex -10 5 5.01
      vertex -5.2846 -8.74329 5.01
    endloop
  endfacet
  facet normal 0 0 1
    outer loop
      vertex -12.7784 5.24308 5.01
      vertex -5.2846 -8.74329 5.01
      vertex -10 5 5.01
    endloop
  endfacet
  facet normal 0 0 1
    outer loop
      vertex -5.2846 -8.74329 5.01
      vertex -12.7784 5.24308 5.01
      vertex -7.25671 -10.7154 5.01
    endloop
  endfacet
  facet normal 0 0 1
    outer loop
      vertex -15.4723 5.96492 5.01
      vertex -7.25671 -10.7154 5.01
      vertex -12.7784 5.24308 5.01
    endloop
  endfacet
  facet normal 0 0 1
    outer loop
      vertex -7.25671 -10.7154 5.01
      vertex -15.4723 5.96492 5.01
      vertex -8.85641 -13 5.01
    endloop
  endfacet
  facet normal 0 0 1
    outer loop
      vertex -18 7.14359 5.01
      vertex -8.85641 -13 5.01
      vertex -15.4723 5.96492 5.01
    endloop
  endfacet
  facet normal 0 0 1
    outer loop
      vertex -8.85641 -13 5.01
      vertex -18 7.14359 5.01
      vertex -10.0351 -15.5277 5.01
    endloop
  endfacet
  facet normal -0.906295 0.422645 0
    outer loop
      vertex -37.3191 45.5261 -5
      vertex -37.0981 46 5.01
      vertex -37.0981 46 -5
    endloop
  endfacet
  facet normal -0.906295 0.422645 0
    outer loop
      vertex -37.0981 46 5.01
      vertex -37.3191 45.5261 -5
      vertex -37.3191 45.5261 5.01
    endloop
  endfacet
  facet normal 0.99619 -0.0872073 0
    outer loop
      vertex 37.4544 -45.0209 5.01
      vertex 37.5 -44.5 -5
      vertex 37.5 -44.5 5.01
    endloop
  endfacet
  facet normal 0.99619 -0.0872073 0
    outer loop
      vertex 37.5 -44.5 -5
      vertex 37.4544 -45.0209 5.01
      vertex 37.4544 -45.0209 -5
    endloop
  endfacet
  facet normal 0.906295 -0.422645 0
    outer loop
      vertex 37.0981 -46 5.01
      vertex 37.3191 -45.5261 -5
      vertex 37.3191 -45.5261 5.01
    endloop
  endfacet
  facet normal 0.906295 -0.422645 0
    outer loop
      vertex 37.3191 -45.5261 -5
      vertex 37.0981 -46 5.01
      vertex 37.0981 -46 -5
    endloop
  endfacet
  facet normal -1 0 0
    outer loop
      vertex -37.5 -44.5 -5
      vertex -37.5 44.5 5.01
      vertex -37.5 44.5 -5
    endloop
  endfacet
  facet normal -1 -0 0
    outer loop
      vertex -37.5 44.5 5.01
      vertex -37.5 -44.5 -5
      vertex -37.5 -44.5 5.01
    endloop
  endfacet
  facet normal -0.258698 -0.965958 0
    outer loop
      vertex -35.5261 -47.3191 -5
      vertex -35.0209 -47.4544 5.01
      vertex -35.5261 -47.3191 5.01
    endloop
  endfacet
  facet normal -0.258698 -0.965958 -0
    outer loop
      vertex -35.0209 -47.4544 5.01
      vertex -35.5261 -47.3191 -5
      vertex -35.0209 -47.4544 -5
    endloop
  endfacet
  facet normal 0 1 -0
    outer loop
      vertex 34.5 47.5 -5
      vertex -34.5 47.5 5.01
      vertex 34.5 47.5 5.01
    endloop
  endfacet
  facet normal 0 1 0
    outer loop
      vertex -34.5 47.5 5.01
      vertex 34.5 47.5 -5
      vertex -34.5 47.5 -5
    endloop
  endfacet
  facet normal 0.0872073 -0.99619 0
    outer loop
      vertex 34.5 -47.5 -5
      vertex 35.0209 -47.4544 5.01
      vertex 34.5 -47.5 5.01
    endloop
  endfacet
  facet normal 0.0872073 -0.99619 0
    outer loop
      vertex 35.0209 -47.4544 5.01
      vertex 34.5 -47.5 -5
      vertex 35.0209 -47.4544 -5
    endloop
  endfacet
  facet normal 0.258698 0.965958 -0
    outer loop
      vertex 35.5261 47.3191 -5
      vertex 35.0209 47.4544 5.01
      vertex 35.5261 47.3191 5.01
    endloop
  endfacet
  facet normal 0.258698 0.965958 0
    outer loop
      vertex 35.0209 47.4544 5.01
      vertex 35.5261 47.3191 -5
      vertex 35.0209 47.4544 -5
    endloop
  endfacet
  facet normal 0.573616 0.819124 -0
    outer loop
      vertex 36.4284 46.7981 -5
      vertex 36 47.0981 5.01
      vertex 36.4284 46.7981 5.01
    endloop
  endfacet
  facet normal 0.573616 0.819124 0
    outer loop
      vertex 36 47.0981 5.01
      vertex 36.4284 46.7981 -5
      vertex 36 47.0981 -5
    endloop
  endfacet
  facet normal 0.422645 -0.906295 0
    outer loop
      vertex 35.5261 -47.3191 -5
      vertex 36 -47.0981 5.01
      vertex 35.5261 -47.3191 5.01
    endloop
  endfacet
  facet normal 0.422645 -0.906295 0
    outer loop
      vertex 36 -47.0981 5.01
      vertex 35.5261 -47.3191 -5
      vertex 36 -47.0981 -5
    endloop
  endfacet
  facet normal 0.707107 0.707107 0
    outer loop
      vertex 36.7981 46.4284 5.01
      vertex 36.4284 46.7981 -5
      vertex 36.4284 46.7981 5.01
    endloop
  endfacet
  facet normal 0.707107 0.707107 0
    outer loop
      vertex 36.4284 46.7981 -5
      vertex 36.7981 46.4284 5.01
      vertex 36.7981 46.4284 -5
    endloop
  endfacet
  facet normal 0.819124 -0.573616 0
    outer loop
      vertex 36.7981 -46.4284 5.01
      vertex 37.0981 -46 -5
      vertex 37.0981 -46 5.01
    endloop
  endfacet
  facet normal 0.819124 -0.573616 0
    outer loop
      vertex 37.0981 -46 -5
      vertex 36.7981 -46.4284 5.01
      vertex 36.7981 -46.4284 -5
    endloop
  endfacet
  facet normal 1 -0 0
    outer loop
      vertex 37.5 -44.5 5.01
      vertex 37.5 44.5 -5
      vertex 37.5 44.5 5.01
    endloop
  endfacet
  facet normal 1 0 0
    outer loop
      vertex 37.5 44.5 -5
      vertex 37.5 -44.5 5.01
      vertex 37.5 -44.5 -5
    endloop
  endfacet
  facet normal 0.99619 0.0872073 0
    outer loop
      vertex 37.5 44.5 5.01
      vertex 37.4544 45.0209 -5
      vertex 37.4544 45.0209 5.01
    endloop
  endfacet
  facet normal 0.99619 0.0872073 0
    outer loop
      vertex 37.4544 45.0209 -5
      vertex 37.5 44.5 5.01
      vertex 37.5 44.5 -5
    endloop
  endfacet
  facet normal -0.906295 -0.422645 0
    outer loop
      vertex -37.0981 -46 -5
      vertex -37.3191 -45.5261 5.01
      vertex -37.3191 -45.5261 -5
    endloop
  endfacet
  facet normal -0.906295 -0.422645 0
    outer loop
      vertex -37.3191 -45.5261 5.01
      vertex -37.0981 -46 -5
      vertex -37.0981 -46 5.01
    endloop
  endfacet
  facet normal -0.99619 -0.0872073 0
    outer loop
      vertex -37.4544 -45.0209 -5
      vertex -37.5 -44.5 5.01
      vertex -37.5 -44.5 -5
    endloop
  endfacet
  facet normal -0.99619 -0.0872073 0
    outer loop
      vertex -37.5 -44.5 5.01
      vertex -37.4544 -45.0209 -5
      vertex -37.4544 -45.0209 5.01
    endloop
  endfacet
  facet normal 0.0872073 0.99619 -0
    outer loop
      vertex 35.0209 47.4544 -5
      vertex 34.5 47.5 5.01
      vertex 35.0209 47.4544 5.01
    endloop
  endfacet
  facet normal 0.0872073 0.99619 0
    outer loop
      vertex 34.5 47.5 5.01
      vertex 35.0209 47.4544 -5
      vertex 34.5 47.5 -5
    endloop
  endfacet
  facet normal -0.0872073 -0.99619 0
    outer loop
      vertex -35.0209 -47.4544 -5
      vertex -34.5 -47.5 5.01
      vertex -35.0209 -47.4544 5.01
    endloop
  endfacet
  facet normal -0.0872073 -0.99619 -0
    outer loop
      vertex -34.5 -47.5 5.01
      vertex -35.0209 -47.4544 -5
      vertex -34.5 -47.5 -5
    endloop
  endfacet
  facet normal 0.707107 -0.707107 0
    outer loop
      vertex 36.4284 -46.7981 5.01
      vertex 36.7981 -46.4284 -5
      vertex 36.7981 -46.4284 5.01
    endloop
  endfacet
  facet normal 0.707107 -0.707107 0
    outer loop
      vertex 36.7981 -46.4284 -5
      vertex 36.4284 -46.7981 5.01
      vertex 36.4284 -46.7981 -5
    endloop
  endfacet
  facet normal -0.707107 0.707107 0
    outer loop
      vertex -36.7981 46.4284 -5
      vertex -36.4284 46.7981 5.01
      vertex -36.4284 46.7981 -5
    endloop
  endfacet
  facet normal -0.707107 0.707107 0
    outer loop
      vertex -36.4284 46.7981 5.01
      vertex -36.7981 46.4284 -5
      vertex -36.7981 46.4284 5.01
    endloop
  endfacet
  facet normal 0.965958 -0.258698 0
    outer loop
      vertex 37.3191 -45.5261 5.01
      vertex 37.4544 -45.0209 -5
      vertex 37.4544 -45.0209 5.01
    endloop
  endfacet
  facet normal 0.965958 -0.258698 0
    outer loop
      vertex 37.4544 -45.0209 -5
      vertex 37.3191 -45.5261 5.01
      vertex 37.3191 -45.5261 -5
    endloop
  endfacet
  facet normal -0.819124 -0.573616 0
    outer loop
      vertex -36.7981 -46.4284 -5
      vertex -37.0981 -46 5.01
      vertex -37.0981 -46 -5
    endloop
  endfacet
  facet normal -0.819124 -0.573616 0
    outer loop
      vertex -37.0981 -46 5.01
      vertex -36.7981 -46.4284 -5
      vertex -36.7981 -46.4284 5.01
    endloop
  endfacet
  facet normal 0.573616 -0.819124 0
    outer loop
      vertex 36 -47.0981 -5
      vertex 36.4284 -46.7981 5.01
      vertex 36 -47.0981 5.01
    endloop
  endfacet
  facet normal 0.573616 -0.819124 0
    outer loop
      vertex 36.4284 -46.7981 5.01
      vertex 36 -47.0981 -5
      vertex 36.4284 -46.7981 -5
    endloop
  endfacet
  facet normal -0.707107 -0.707107 0
    outer loop
      vertex -36.4284 -46.7981 -5
      vertex -36.7981 -46.4284 5.01
      vertex -36.7981 -46.4284 -5
    endloop
  endfacet
  facet normal -0.707107 -0.707107 0
    outer loop
      vertex -36.7981 -46.4284 5.01
      vertex -36.4284 -46.7981 -5
      vertex -36.4284 -46.7981 5.01
    endloop
  endfacet
  facet normal -0.573616 -0.819124 0
    outer loop
      vertex -36.4284 -46.7981 -5
      vertex -36 -47.0981 5.01
      vertex -36.4284 -46.7981 5.01
    endloop
  endfacet
  facet normal -0.573616 -0.819124 -0
    outer loop
      vertex -36 -47.0981 5.01
      vertex -36.4284 -46.7981 -5
      vertex -36 -47.0981 -5
    endloop
  endfacet
  facet normal -0.819124 0.573616 0
    outer loop
      vertex -37.0981 46 -5
      vertex -36.7981 46.4284 5.01
      vertex -36.7981 46.4284 -5
    endloop
  endfacet
  facet normal -0.819124 0.573616 0
    outer loop
      vertex -36.7981 46.4284 5.01
      vertex -37.0981 46 -5
      vertex -37.0981 46 5.01
    endloop
  endfacet
  facet normal -0.965958 0.258698 0
    outer loop
      vertex -37.4544 45.0209 -5
      vertex -37.3191 45.5261 5.01
      vertex -37.3191 45.5261 -5
    endloop
  endfacet
  facet normal -0.965958 0.258698 0
    outer loop
      vertex -37.3191 45.5261 5.01
      vertex -37.4544 45.0209 -5
      vertex -37.4544 45.0209 5.01
    endloop
  endfacet
  facet normal 0.965958 0.258698 0
    outer loop
      vertex 37.4544 45.0209 5.01
      vertex 37.3191 45.5261 -5
      vertex 37.3191 45.5261 5.01
    endloop
  endfacet
  facet normal 0.965958 0.258698 0
    outer loop
      vertex 37.3191 45.5261 -5
      vertex 37.4544 45.0209 5.01
      vertex 37.4544 45.0209 -5
    endloop
  endfacet
  facet normal -0.422645 -0.906295 0
    outer loop
      vertex -36 -47.0981 -5
      vertex -35.5261 -47.3191 5.01
      vertex -36 -47.0981 5.01
    endloop
  endfacet
  facet normal -0.422645 -0.906295 -0
    outer loop
      vertex -35.5261 -47.3191 5.01
      vertex -36 -47.0981 -5
      vertex -35.5261 -47.3191 -5
    endloop
  endfacet
  facet normal 0.422645 0.906295 -0
    outer loop
      vertex 36 47.0981 -5
      vertex 35.5261 47.3191 5.01
      vertex 36 47.0981 5.01
    endloop
  endfacet
  facet normal 0.422645 0.906295 0
    outer loop
      vertex 35.5261 47.3191 5.01
      vertex 36 47.0981 -5
      vertex 35.5261 47.3191 -5
    endloop
  endfacet
  facet normal -0.573616 0.819124 0
    outer loop
      vertex -36 47.0981 -5
      vertex -36.4284 46.7981 5.01
      vertex -36 47.0981 5.01
    endloop
  endfacet
  facet normal -0.573616 0.819124 0
    outer loop
      vertex -36.4284 46.7981 5.01
      vertex -36 47.0981 -5
      vertex -36.4284 46.7981 -5
    endloop
  endfacet
  facet normal -0.965958 -0.258698 0
    outer loop
      vertex -37.3191 -45.5261 -5
      vertex -37.4544 -45.0209 5.01
      vertex -37.4544 -45.0209 -5
    endloop
  endfacet
  facet normal -0.965958 -0.258698 0
    outer loop
      vertex -37.4544 -45.0209 5.01
      vertex -37.3191 -45.5261 -5
      vertex -37.3191 -45.5261 5.01
    endloop
  endfacet
  facet normal 0 0 -1
    outer loop
      vertex 7.77837 -5.24308 -5
      vertex 9 12.5 -5
      vertex 10.4723 -5.96492 -5
    endloop
  endfacet
  facet normal 0 0 -1
    outer loop
      vertex 0.284601 8.74329 -5
      vertex 7.77837 -5.24308 -5
      vertex 5 -5 -5
    endloop
  endfacet
  facet normal 0 0 -1
    outer loop
      vertex 7.77837 -5.24308 -5
      vertex 2.25671 10.7154 -5
      vertex 9 12.5 -5
    endloop
  endfacet
  facet normal -0 0 -1
    outer loop
      vertex 9 12.5 -5
      vertex 2.25671 10.7154 -5
      vertex 3.5063 12.5 -5
    endloop
  endfacet
  facet normal 0 0 -1
    outer loop
      vertex -2 7.14359 -5
      vertex 5 -5 -5
      vertex 2.22163 -5.24308 -5
    endloop
  endfacet
  facet normal 0 0 -1
    outer loop
      vertex 7.77837 -5.24308 -5
      vertex 0.284601 8.74329 -5
      vertex 2.25671 10.7154 -5
    endloop
  endfacet
  facet normal 0 0 -1
    outer loop
      vertex -4.52768 5.96492 -5
      vertex 2.22163 -5.24308 -5
      vertex -0.472322 -5.96492 -5
    endloop
  endfacet
  facet normal 0 0 -1
    outer loop
      vertex 5 -5 -5
      vertex -2 7.14359 -5
      vertex 0.284601 8.74329 -5
    endloop
  endfacet
  facet normal 0 0 -1
    outer loop
      vertex -7.22163 5.24308 -5
      vertex -0.472322 -5.96492 -5
      vertex -3 -7.14359 -5
    endloop
  endfacet
  facet normal 0 0 -1
    outer loop
      vertex 2.22163 -5.24308 -5
      vertex -4.52768 5.96492 -5
      vertex -2 7.14359 -5
    endloop
  endfacet
  facet normal 0 0 -1
    outer loop
      vertex -10 5 -5
      vertex -3 -7.14359 -5
      vertex -5.2846 -8.74329 -5
    endloop
  endfacet
  facet normal 0 0 -1
    outer loop
      vertex -0.472322 -5.96492 -5
      vertex -7.22163 5.24308 -5
      vertex -4.52768 5.96492 -5
    endloop
  endfacet
  facet normal 0 0 -1
    outer loop
      vertex -12.7784 5.24308 -5
      vertex -5.2846 -8.74329 -5
      vertex -7.25671 -10.7154 -5
    endloop
  endfacet
  facet normal 0 0 -1
    outer loop
      vertex -15.4723 5.96492 -5
      vertex -7.25671 -10.7154 -5
      vertex -8.85641 -13 -5
    endloop
  endfacet
  facet normal 0 0 -1
    outer loop
      vertex -3 -7.14359 -5
      vertex -10 5 -5
      vertex -7.22163 5.24308 -5
    endloop
  endfacet
  facet normal 0 0 -1
    outer loop
      vertex -18 7.14359 -5
      vertex -8.85641 -13 -5
      vertex -10.0351 -15.5277 -5
    endloop
  endfacet
  facet normal 0 0 -1
    outer loop
      vertex -20.2846 8.74329 -5
      vertex -10.0351 -15.5277 -5
      vertex -10.7569 -18.2216 -5
    endloop
  endfacet
  facet normal 0 0 -1
    outer loop
      vertex -37.5 -44.5 -5
      vertex -10.7569 -18.2216 -5
      vertex -11 -21 -5
    endloop
  endfacet
  facet normal 0 0 -1
    outer loop
      vertex -5.2846 -8.74329 -5
      vertex -12.7784 5.24308 -5
      vertex -10 5 -5
    endloop
  endfacet
  facet normal 0 0 -1
    outer loop
      vertex 34.5 -47.5 -5
      vertex 37.5 -44.5 -5
      vertex 37.4544 -45.0209 -5
    endloop
  endfacet
  facet normal 0 0 -1
    outer loop
      vertex 37.5 -44.5 -5
      vertex 24 -12.5 -5
      vertex 37.5 44.5 -5
    endloop
  endfacet
  facet normal 0 0 -1
    outer loop
      vertex 34.5 -47.5 -5
      vertex 37.4544 -45.0209 -5
      vertex 37.3191 -45.5261 -5
    endloop
  endfacet
  facet normal 0 0 -1
    outer loop
      vertex 9 12.5 -5
      vertex 37.5 44.5 -5
      vertex 24 -12.5 -5
    endloop
  endfacet
  facet normal 0 0 -1
    outer loop
      vertex 34.5 -47.5 -5
      vertex 37.3191 -45.5261 -5
      vertex 37.0981 -46 -5
    endloop
  endfacet
  facet normal 0 0 -1
    outer loop
      vertex 9 29.5 -5
      vertex 37.5 44.5 -5
      vertex 9 12.5 -5
    endloop
  endfacet
  facet normal 0 0 -1
    outer loop
      vertex 34.5 -47.5 -5
      vertex 37.0981 -46 -5
      vertex 36.7981 -46.4284 -5
    endloop
  endfacet
  facet normal 0 -0 -1
    outer loop
      vertex 34.5 47.5 -5
      vertex 37.5 44.5 -5
      vertex 9 29.5 -5
    endloop
  endfacet
  facet normal 0 0 -1
    outer loop
      vertex 34.5 -47.5 -5
      vertex 36.7981 -46.4284 -5
      vertex 36.4284 -46.7981 -5
    endloop
  endfacet
  facet normal 0 0 -1
    outer loop
      vertex 37.5 44.5 -5
      vertex 34.5 47.5 -5
      vertex 37.4544 45.0209 -5
    endloop
  endfacet
  facet normal 0 0 -1
    outer loop
      vertex 34.5 -47.5 -5
      vertex 36.4284 -46.7981 -5
      vertex 36 -47.0981 -5
    endloop
  endfacet
  facet normal 0 0 -1
    outer loop
      vertex 37.4544 45.0209 -5
      vertex 34.5 47.5 -5
      vertex 37.3191 45.5261 -5
    endloop
  endfacet
  facet normal 0 0 -1
    outer loop
      vertex 34.5 -47.5 -5
      vertex 36 -47.0981 -5
      vertex 35.5261 -47.3191 -5
    endloop
  endfacet
  facet normal 0 0 -1
    outer loop
      vertex 37.3191 45.5261 -5
      vertex 34.5 47.5 -5
      vertex 37.0981 46 -5
    endloop
  endfacet
  facet normal 0 0 -1
    outer loop
      vertex 34.5 -47.5 -5
      vertex 35.5261 -47.3191 -5
      vertex 35.0209 -47.4544 -5
    endloop
  endfacet
  facet normal 0 0 -1
    outer loop
      vertex 37.0981 46 -5
      vertex 34.5 47.5 -5
      vertex 36.7981 46.4284 -5
    endloop
  endfacet
  facet normal -0 0 -1
    outer loop
      vertex 37.5 -44.5 -5
      vertex 34.5 -47.5 -5
      vertex 24 -29.5 -5
    endloop
  endfacet
  facet normal 0 0 -1
    outer loop
      vertex 36.7981 46.4284 -5
      vertex 34.5 47.5 -5
      vertex 36.4284 46.7981 -5
    endloop
  endfacet
  facet normal 0 0 -1
    outer loop
      vertex 37.5 -44.5 -5
      vertex 24 -29.5 -5
      vertex 24 -12.5 -5
    endloop
  endfacet
  facet normal 0 0 -1
    outer loop
      vertex 15.2846 -33.2567 -5
      vertex 24 -29.5 -5
      vertex 34.5 -47.5 -5
    endloop
  endfacet
  facet normal -0 0 -1
    outer loop
      vertex 24 -29.5 -5
      vertex 17.2567 -31.2846 -5
      vertex 18.5063 -29.5 -5
    endloop
  endfacet
  facet normal 0 0 -1
    outer loop
      vertex 24 -29.5 -5
      vertex 15.2846 -33.2567 -5
      vertex 17.2567 -31.2846 -5
    endloop
  endfacet
  facet normal 0 0 -1
    outer loop
      vertex 34.5 -47.5 -5
      vertex 13 -34.8564 -5
      vertex 15.2846 -33.2567 -5
    endloop
  endfacet
  facet normal 0 0 -1
    outer loop
      vertex 34.5 -47.5 -5
      vertex 10.4723 -36.0351 -5
      vertex 13 -34.8564 -5
    endloop
  endfacet
  facet normal 0 0 -1
    outer loop
      vertex 34.5 -47.5 -5
      vertex 7.77837 -36.7569 -5
      vertex 10.4723 -36.0351 -5
    endloop
  endfacet
  facet normal 0 0 -1
    outer loop
      vertex 34.5 -47.5 -5
      vertex 5 -37 -5
      vertex 7.77837 -36.7569 -5
    endloop
  endfacet
  facet normal 0 0 -1
    outer loop
      vertex -34.5 -47.5 -5
      vertex 5 -37 -5
      vertex 34.5 -47.5 -5
    endloop
  endfacet
  facet normal -0 0 -1
    outer loop
      vertex 5 -37 -5
      vertex -34.5 -47.5 -5
      vertex 2.22163 -36.7569 -5
    endloop
  endfacet
  facet normal 0 0 -1
    outer loop
      vertex -7.25671 -10.7154 -5
      vertex -15.4723 5.96492 -5
      vertex -12.7784 5.24308 -5
    endloop
  endfacet
  facet normal 0 0 -1
    outer loop
      vertex -37.5 -44.5 -5
      vertex -11 -21 -5
      vertex -10.7569 -23.7784 -5
    endloop
  endfacet
  facet normal 0 0 -1
    outer loop
      vertex -8.85641 -13 -5
      vertex -18 7.14359 -5
      vertex -15.4723 5.96492 -5
    endloop
  endfacet
  facet normal 0 0 -1
    outer loop
      vertex -10.0351 -15.5277 -5
      vertex -20.2846 8.74329 -5
      vertex -18 7.14359 -5
    endloop
  endfacet
  facet normal 0 0 -1
    outer loop
      vertex -37.5 -44.5 -5
      vertex -10.7569 -23.7784 -5
      vertex -10.0351 -26.4723 -5
    endloop
  endfacet
  facet normal -0 0 -1
    outer loop
      vertex -10.7569 -18.2216 -5
      vertex -37.5 -44.5 -5
      vertex -20.2846 8.74329 -5
    endloop
  endfacet
  facet normal -0 0 -1
    outer loop
      vertex -20.2846 8.74329 -5
      vertex -37.5 -44.5 -5
      vertex -22.2567 10.7154 -5
    endloop
  endfacet
  facet normal -0 0 -1
    outer loop
      vertex -22.2567 10.7154 -5
      vertex -37.5 -44.5 -5
      vertex -23.8564 13 -5
    endloop
  endfacet
  facet normal -0 0 -1
    outer loop
      vertex -25.0351 15.5277 -5
      vertex -37.5 -44.5 -5
      vertex -25.7569 18.2216 -5
    endloop
  endfacet
  facet normal -0 0 -1
    outer loop
      vertex -23.8564 13 -5
      vertex -37.5 -44.5 -5
      vertex -25.0351 15.5277 -5
    endloop
  endfacet
  facet normal 0 0 -1
    outer loop
      vertex -37.5 -44.5 -5
      vertex -10.0351 -26.4723 -5
      vertex -34.5 -47.5 -5
    endloop
  endfacet
  facet normal -0 0 -1
    outer loop
      vertex -8.85641 -29 -5
      vertex -34.5 -47.5 -5
      vertex -10.0351 -26.4723 -5
    endloop
  endfacet
  facet normal -0 0 -1
    outer loop
      vertex -7.25671 -31.2846 -5
      vertex -34.5 -47.5 -5
      vertex -8.85641 -29 -5
    endloop
  endfacet
  facet normal -0 0 -1
    outer loop
      vertex -5.2846 -33.2567 -5
      vertex -34.5 -47.5 -5
      vertex -7.25671 -31.2846 -5
    endloop
  endfacet
  facet normal -0 0 -1
    outer loop
      vertex -3 -34.8564 -5
      vertex -34.5 -47.5 -5
      vertex -5.2846 -33.2567 -5
    endloop
  endfacet
  facet normal -0 0 -1
    outer loop
      vertex -0.472322 -36.0351 -5
      vertex -34.5 -47.5 -5
      vertex -3 -34.8564 -5
    endloop
  endfacet
  facet normal -0 0 -1
    outer loop
      vertex 2.22163 -36.7569 -5
      vertex -34.5 -47.5 -5
      vertex -0.472322 -36.0351 -5
    endloop
  endfacet
  facet normal 0 0 -1
    outer loop
      vertex 36.4284 46.7981 -5
      vertex 34.5 47.5 -5
      vertex 36 47.0981 -5
    endloop
  endfacet
  facet normal 0 0 -1
    outer loop
      vertex 17.2567 -10.7154 -5
      vertex 24 -12.5 -5
      vertex 18.5063 -12.5 -5
    endloop
  endfacet
  facet normal 0 0 -1
    outer loop
      vertex 15.2846 -8.74329 -5
      vertex 24 -12.5 -5
      vertex 17.2567 -10.7154 -5
    endloop
  endfacet
  facet normal 0 0 -1
    outer loop
      vertex 24 -12.5 -5
      vertex 15.2846 -8.74329 -5
      vertex 9 12.5 -5
    endloop
  endfacet
  facet normal 0 0 -1
    outer loop
      vertex 9 12.5 -5
      vertex 15.2846 -8.74329 -5
      vertex 13 -7.14359 -5
    endloop
  endfacet
  facet normal 0 0 -1
    outer loop
      vertex 9 12.5 -5
      vertex 13 -7.14359 -5
      vertex 10.4723 -5.96492 -5
    endloop
  endfacet
  facet normal 0 0 -1
    outer loop
      vertex 36 47.0981 -5
      vertex 34.5 47.5 -5
      vertex 35.5261 47.3191 -5
    endloop
  endfacet
  facet normal 0 0 -1
    outer loop
      vertex 35.5261 47.3191 -5
      vertex 34.5 47.5 -5
      vertex 35.0209 47.4544 -5
    endloop
  endfacet
  facet normal 0 0 -1
    outer loop
      vertex 2.25671 31.2846 -5
      vertex 9 29.5 -5
      vertex 3.5063 29.5 -5
    endloop
  endfacet
  facet normal 0 0 -1
    outer loop
      vertex 0.284601 33.2567 -5
      vertex 9 29.5 -5
      vertex 2.25671 31.2846 -5
    endloop
  endfacet
  facet normal 0 0 -1
    outer loop
      vertex 9 29.5 -5
      vertex 0.284601 33.2567 -5
      vertex 34.5 47.5 -5
    endloop
  endfacet
  facet normal 0 0 -1
    outer loop
      vertex -2 34.8564 -5
      vertex 34.5 47.5 -5
      vertex 0.284601 33.2567 -5
    endloop
  endfacet
  facet normal 0 0 -1
    outer loop
      vertex -4.52768 36.0351 -5
      vertex 34.5 47.5 -5
      vertex -2 34.8564 -5
    endloop
  endfacet
  facet normal 0 0 -1
    outer loop
      vertex -7.22163 36.7569 -5
      vertex 34.5 47.5 -5
      vertex -4.52768 36.0351 -5
    endloop
  endfacet
  facet normal 0 0 -1
    outer loop
      vertex -34.5 47.5 -5
      vertex -7.22163 36.7569 -5
      vertex -10 37 -5
    endloop
  endfacet
  facet normal 0 0 -1
    outer loop
      vertex -34.5 47.5 -5
      vertex -10 37 -5
      vertex -12.7784 36.7569 -5
    endloop
  endfacet
  facet normal 0 0 -1
    outer loop
      vertex -37.5 44.5 -5
      vertex -25.7569 18.2216 -5
      vertex -37.5 -44.5 -5
    endloop
  endfacet
  facet normal 0 0 -1
    outer loop
      vertex -7.22163 36.7569 -5
      vertex -34.5 47.5 -5
      vertex 34.5 47.5 -5
    endloop
  endfacet
  facet normal 0 0 -1
    outer loop
      vertex -15.4723 36.0351 -5
      vertex -34.5 47.5 -5
      vertex -12.7784 36.7569 -5
    endloop
  endfacet
  facet normal 0 0 -1
    outer loop
      vertex -18 34.8564 -5
      vertex -34.5 47.5 -5
      vertex -15.4723 36.0351 -5
    endloop
  endfacet
  facet normal 0 0 -1
    outer loop
      vertex -20.2846 33.2567 -5
      vertex -34.5 47.5 -5
      vertex -18 34.8564 -5
    endloop
  endfacet
  facet normal 0 0 -1
    outer loop
      vertex -22.2567 31.2846 -5
      vertex -34.5 47.5 -5
      vertex -20.2846 33.2567 -5
    endloop
  endfacet
  facet normal 0 0 -1
    outer loop
      vertex -37.5 44.5 -5
      vertex -22.2567 31.2846 -5
      vertex -23.8564 29 -5
    endloop
  endfacet
  facet normal 0 0 -1
    outer loop
      vertex -37.5 44.5 -5
      vertex -23.8564 29 -5
      vertex -25.0351 26.4723 -5
    endloop
  endfacet
  facet normal 0 0 -1
    outer loop
      vertex -37.5 44.5 -5
      vertex -25.0351 26.4723 -5
      vertex -25.7569 23.7784 -5
    endloop
  endfacet
  facet normal 0 0 -1
    outer loop
      vertex -25.7569 18.2216 -5
      vertex -37.5 44.5 -5
      vertex -26 21 -5
    endloop
  endfacet
  facet normal 0 0 -1
    outer loop
      vertex -37.5 -44.5 -5
      vertex -34.5 -47.5 -5
      vertex -35.0209 -47.4544 -5
    endloop
  endfacet
  facet normal 0 0 -1
    outer loop
      vertex -26 21 -5
      vertex -37.5 44.5 -5
      vertex -25.7569 23.7784 -5
    endloop
  endfacet
  facet normal 0 0 -1
    outer loop
      vertex -37.5 -44.5 -5
      vertex -35.0209 -47.4544 -5
      vertex -35.5261 -47.3191 -5
    endloop
  endfacet
  facet normal 0 0 -1
    outer loop
      vertex -22.2567 31.2846 -5
      vertex -37.5 44.5 -5
      vertex -34.5 47.5 -5
    endloop
  endfacet
  facet normal 0 0 -1
    outer loop
      vertex -37.5 -44.5 -5
      vertex -35.5261 -47.3191 -5
      vertex -36 -47.0981 -5
    endloop
  endfacet
  facet normal 0 0 -1
    outer loop
      vertex -34.5 47.5 -5
      vertex -37.5 44.5 -5
      vertex -35.0209 47.4544 -5
    endloop
  endfacet
  facet normal 0 0 -1
    outer loop
      vertex -37.5 -44.5 -5
      vertex -36 -47.0981 -5
      vertex -36.4284 -46.7981 -5
    endloop
  endfacet
  facet normal 0 0 -1
    outer loop
      vertex -35.0209 47.4544 -5
      vertex -37.5 44.5 -5
      vertex -35.5261 47.3191 -5
    endloop
  endfacet
  facet normal 0 0 -1
    outer loop
      vertex -37.5 -44.5 -5
      vertex -36.4284 -46.7981 -5
      vertex -36.7981 -46.4284 -5
    endloop
  endfacet
  facet normal 0 0 -1
    outer loop
      vertex -35.5261 47.3191 -5
      vertex -37.5 44.5 -5
      vertex -36 47.0981 -5
    endloop
  endfacet
  facet normal 0 0 -1
    outer loop
      vertex -37.5 -44.5 -5
      vertex -36.7981 -46.4284 -5
      vertex -37.0981 -46 -5
    endloop
  endfacet
  facet normal 0 0 -1
    outer loop
      vertex -36 47.0981 -5
      vertex -37.5 44.5 -5
      vertex -36.4284 46.7981 -5
    endloop
  endfacet
  facet normal 0 0 -1
    outer loop
      vertex -37.5 -44.5 -5
      vertex -37.0981 -46 -5
      vertex -37.3191 -45.5261 -5
    endloop
  endfacet
  facet normal 0 0 -1
    outer loop
      vertex -36.4284 46.7981 -5
      vertex -37.5 44.5 -5
      vertex -36.7981 46.4284 -5
    endloop
  endfacet
  facet normal 0 0 -1
    outer loop
      vertex -37.5 -44.5 -5
      vertex -37.3191 -45.5261 -5
      vertex -37.4544 -45.0209 -5
    endloop
  endfacet
  facet normal 0 0 -1
    outer loop
      vertex -36.7981 46.4284 -5
      vertex -37.5 44.5 -5
      vertex -37.0981 46 -5
    endloop
  endfacet
  facet normal 0 0 -1
    outer loop
      vertex -37.0981 46 -5
      vertex -37.5 44.5 -5
      vertex -37.3191 45.5261 -5
    endloop
  endfacet
  facet normal 0 0 -1
    outer loop
      vertex -37.3191 45.5261 -5
      vertex -37.5 44.5 -5
      vertex -37.4544 45.0209 -5
    endloop
  endfacet
  facet normal -0.422645 0.906295 0
    outer loop
      vertex -35.5261 47.3191 -5
      vertex -36 47.0981 5.01
      vertex -35.5261 47.3191 5.01
    endloop
  endfacet
  facet normal -0.422645 0.906295 0
    outer loop
      vertex -36 47.0981 5.01
      vertex -35.5261 47.3191 -5
      vertex -36 47.0981 -5
    endloop
  endfacet
  facet normal -0.258698 0.965958 0
    outer loop
      vertex -35.0209 47.4544 -5
      vertex -35.5261 47.3191 5.01
      vertex -35.0209 47.4544 5.01
    endloop
  endfacet
  facet normal -0.258698 0.965958 0
    outer loop
      vertex -35.5261 47.3191 5.01
      vertex -35.0209 47.4544 -5
      vertex -35.5261 47.3191 -5
    endloop
  endfacet
  facet normal -0.0872073 0.99619 0
    outer loop
      vertex -34.5 47.5 -5
      vertex -35.0209 47.4544 5.01
      vertex -34.5 47.5 5.01
    endloop
  endfacet
  facet normal -0.0872073 0.99619 0
    outer loop
      vertex -35.0209 47.4544 5.01
      vertex -34.5 47.5 -5
      vertex -35.0209 47.4544 -5
    endloop
  endfacet
endsolid OpenSCAD_Model
