solid OpenSCAD_Model
  facet normal -0 0 1
    outer loop
      vertex 18.45 4 -44.6847
      vertex 21.55 1.95 -44.6847
      vertex 21.55 4 -44.6847
    endloop
  endfacet
  facet normal 0 0 1
    outer loop
      vertex 21.55 1.95 -44.6847
      vertex 18.45 4 -44.6847
      vertex 18.45 1.95 -44.6847
    endloop
  endfacet
  facet normal 0.866027 -0 0.499997
    outer loop
      vertex 16.9 1.95 -42
      vertex 18.45 4 -44.6847
      vertex 16.9 4 -42
    endloop
  endfacet
  facet normal 0.866027 0 0.499997
    outer loop
      vertex 18.45 4 -44.6847
      vertex 16.9 1.95 -42
      vertex 18.45 1.95 -44.6847
    endloop
  endfacet
  facet normal 0 0 -1
    outer loop
      vertex 18.45 1.95 -39.3153
      vertex 21.55 4 -39.3153
      vertex 21.55 1.95 -39.3153
    endloop
  endfacet
  facet normal -0 0 -1
    outer loop
      vertex 21.55 4 -39.3153
      vertex 18.45 1.95 -39.3153
      vertex 18.45 4 -39.3153
    endloop
  endfacet
  facet normal 0.866027 0 -0.499997
    outer loop
      vertex 18.45 1.95 -39.3153
      vertex 16.9 4 -42
      vertex 18.45 4 -39.3153
    endloop
  endfacet
  facet normal 0.866027 0 -0.499997
    outer loop
      vertex 16.9 4 -42
      vertex 18.45 1.95 -39.3153
      vertex 16.9 1.95 -42
    endloop
  endfacet
  facet normal -0.866027 0 -0.499997
    outer loop
      vertex 23.1 1.95 -42
      vertex 21.55 4 -39.3153
      vertex 23.1 4 -42
    endloop
  endfacet
  facet normal -0.866027 -0 -0.499997
    outer loop
      vertex 21.55 4 -39.3153
      vertex 23.1 1.95 -42
      vertex 21.55 1.95 -39.3153
    endloop
  endfacet
  facet normal -0.866027 0 0.499997
    outer loop
      vertex 21.55 1.95 -44.6847
      vertex 23.1 4 -42
      vertex 21.55 4 -44.6847
    endloop
  endfacet
  facet normal -0.866027 0 0.499997
    outer loop
      vertex 23.1 4 -42
      vertex 21.55 1.95 -44.6847
      vertex 23.1 1.95 -42
    endloop
  endfacet
  facet normal 0 1 0
    outer loop
      vertex 21.55 1.95 -39.3153
      vertex 20 1.95 -40.4
      vertex 18.45 1.95 -39.3153
    endloop
  endfacet
  facet normal 0 1 0
    outer loop
      vertex 21.55 1.95 -39.3153
      vertex 20.2778 1.95 -40.4243
      vertex 20 1.95 -40.4
    endloop
  endfacet
  facet normal 0 1 0
    outer loop
      vertex 21.55 1.95 -39.3153
      vertex 20.5472 1.95 -40.4965
      vertex 20.2778 1.95 -40.4243
    endloop
  endfacet
  facet normal 0 1 0
    outer loop
      vertex 21.55 1.95 -39.3153
      vertex 20.8 1.95 -40.6144
      vertex 20.5472 1.95 -40.4965
    endloop
  endfacet
  facet normal 0 1 0
    outer loop
      vertex 21.55 1.95 -39.3153
      vertex 21.0285 1.95 -40.7743
      vertex 20.8 1.95 -40.6144
    endloop
  endfacet
  facet normal 0 1 0
    outer loop
      vertex 21.55 1.95 -39.3153
      vertex 21.2257 1.95 -40.9715
      vertex 21.0285 1.95 -40.7743
    endloop
  endfacet
  facet normal 0 1 0
    outer loop
      vertex 21.55 1.95 -39.3153
      vertex 21.3856 1.95 -41.2
      vertex 21.2257 1.95 -40.9715
    endloop
  endfacet
  facet normal 0 1 0
    outer loop
      vertex 23.1 1.95 -42
      vertex 21.3856 1.95 -41.2
      vertex 21.55 1.95 -39.3153
    endloop
  endfacet
  facet normal 0 1 0
    outer loop
      vertex 21.3856 1.95 -41.2
      vertex 23.1 1.95 -42
      vertex 21.5035 1.95 -41.4528
    endloop
  endfacet
  facet normal 0 1 0
    outer loop
      vertex 21.5035 1.95 -41.4528
      vertex 23.1 1.95 -42
      vertex 21.5757 1.95 -41.7222
    endloop
  endfacet
  facet normal 0 1 0
    outer loop
      vertex 23.1 1.95 -42
      vertex 21.6 1.95 -42
      vertex 21.5757 1.95 -41.7222
    endloop
  endfacet
  facet normal 0 1 0
    outer loop
      vertex 23.1 1.95 -42
      vertex 21.5757 1.95 -42.2778
      vertex 21.6 1.95 -42
    endloop
  endfacet
  facet normal 0 1 0
    outer loop
      vertex 23.1 1.95 -42
      vertex 21.5035 1.95 -42.5472
      vertex 21.5757 1.95 -42.2778
    endloop
  endfacet
  facet normal 0 1 0
    outer loop
      vertex 23.1 1.95 -42
      vertex 21.3856 1.95 -42.8
      vertex 21.5035 1.95 -42.5472
    endloop
  endfacet
  facet normal 0 1 -0
    outer loop
      vertex 21.55 1.95 -44.6847
      vertex 21.3856 1.95 -42.8
      vertex 23.1 1.95 -42
    endloop
  endfacet
  facet normal 0 1 0
    outer loop
      vertex 21.3856 1.95 -42.8
      vertex 21.55 1.95 -44.6847
      vertex 21.2257 1.95 -43.0285
    endloop
  endfacet
  facet normal 0 1 0
    outer loop
      vertex 21.2257 1.95 -43.0285
      vertex 21.55 1.95 -44.6847
      vertex 21.0285 1.95 -43.2257
    endloop
  endfacet
  facet normal 0 1 0
    outer loop
      vertex 20.2778 1.95 -43.5757
      vertex 21.55 1.95 -44.6847
      vertex 20 1.95 -43.6
    endloop
  endfacet
  facet normal 0 1 0
    outer loop
      vertex 20.5472 1.95 -43.5035
      vertex 21.55 1.95 -44.6847
      vertex 20.2778 1.95 -43.5757
    endloop
  endfacet
  facet normal 0 1 0
    outer loop
      vertex 20.8 1.95 -43.3856
      vertex 21.55 1.95 -44.6847
      vertex 20.5472 1.95 -43.5035
    endloop
  endfacet
  facet normal 0 1 0
    outer loop
      vertex 21.0285 1.95 -43.2257
      vertex 21.55 1.95 -44.6847
      vertex 20.8 1.95 -43.3856
    endloop
  endfacet
  facet normal 0 1 -0
    outer loop
      vertex 19.7222 1.95 -40.4243
      vertex 18.45 1.95 -39.3153
      vertex 20 1.95 -40.4
    endloop
  endfacet
  facet normal 0 1 -0
    outer loop
      vertex 19.4528 1.95 -40.4965
      vertex 18.45 1.95 -39.3153
      vertex 19.7222 1.95 -40.4243
    endloop
  endfacet
  facet normal 0 1 -0
    outer loop
      vertex 19.2 1.95 -40.6144
      vertex 18.45 1.95 -39.3153
      vertex 19.4528 1.95 -40.4965
    endloop
  endfacet
  facet normal 0 1 -0
    outer loop
      vertex 18.9715 1.95 -40.7743
      vertex 18.45 1.95 -39.3153
      vertex 19.2 1.95 -40.6144
    endloop
  endfacet
  facet normal 0 1 -0
    outer loop
      vertex 18.7743 1.95 -40.9715
      vertex 18.45 1.95 -39.3153
      vertex 18.9715 1.95 -40.7743
    endloop
  endfacet
  facet normal 0 1 -0
    outer loop
      vertex 18.6144 1.95 -41.2
      vertex 18.45 1.95 -39.3153
      vertex 18.7743 1.95 -40.9715
    endloop
  endfacet
  facet normal 0 1 0
    outer loop
      vertex 16.9 1.95 -42
      vertex 18.6144 1.95 -41.2
      vertex 18.4965 1.95 -41.4528
    endloop
  endfacet
  facet normal 0 1 0
    outer loop
      vertex 16.9 1.95 -42
      vertex 18.4965 1.95 -41.4528
      vertex 18.4243 1.95 -41.7222
    endloop
  endfacet
  facet normal 0 1 0
    outer loop
      vertex 16.9 1.95 -42
      vertex 18.4243 1.95 -41.7222
      vertex 18.4 1.95 -42
    endloop
  endfacet
  facet normal 0 1 0
    outer loop
      vertex 18.6144 1.95 -41.2
      vertex 16.9 1.95 -42
      vertex 18.45 1.95 -39.3153
    endloop
  endfacet
  facet normal 0 1 0
    outer loop
      vertex 18.4243 1.95 -42.2778
      vertex 16.9 1.95 -42
      vertex 18.4 1.95 -42
    endloop
  endfacet
  facet normal 0 1 0
    outer loop
      vertex 18.4965 1.95 -42.5472
      vertex 16.9 1.95 -42
      vertex 18.4243 1.95 -42.2778
    endloop
  endfacet
  facet normal 0 1 0
    outer loop
      vertex 18.6144 1.95 -42.8
      vertex 16.9 1.95 -42
      vertex 18.4965 1.95 -42.5472
    endloop
  endfacet
  facet normal 0 1 0
    outer loop
      vertex 18.45 1.95 -44.6847
      vertex 18.6144 1.95 -42.8
      vertex 18.7743 1.95 -43.0285
    endloop
  endfacet
  facet normal 0 1 0
    outer loop
      vertex 18.45 1.95 -44.6847
      vertex 18.7743 1.95 -43.0285
      vertex 18.9715 1.95 -43.2257
    endloop
  endfacet
  facet normal 0 1 0
    outer loop
      vertex 18.45 1.95 -44.6847
      vertex 18.9715 1.95 -43.2257
      vertex 19.2 1.95 -43.3856
    endloop
  endfacet
  facet normal 0 1 0
    outer loop
      vertex 18.45 1.95 -44.6847
      vertex 20 1.95 -43.6
      vertex 21.55 1.95 -44.6847
    endloop
  endfacet
  facet normal 0 1 0
    outer loop
      vertex 20 1.95 -43.6
      vertex 18.45 1.95 -44.6847
      vertex 19.7222 1.95 -43.5757
    endloop
  endfacet
  facet normal 0 1 0
    outer loop
      vertex 19.7222 1.95 -43.5757
      vertex 18.45 1.95 -44.6847
      vertex 19.4528 1.95 -43.5035
    endloop
  endfacet
  facet normal 0 1 0
    outer loop
      vertex 18.6144 1.95 -42.8
      vertex 18.45 1.95 -44.6847
      vertex 16.9 1.95 -42
    endloop
  endfacet
  facet normal 0 1 0
    outer loop
      vertex 19.4528 1.95 -43.5035
      vertex 18.45 1.95 -44.6847
      vertex 19.2 1.95 -43.3856
    endloop
  endfacet
  facet normal -0.258868 0 -0.965913
    outer loop
      vertex 20.2778 0 -40.4243
      vertex 20.5472 1.95 -40.4965
      vertex 20.5472 0 -40.4965
    endloop
  endfacet
  facet normal -0.258868 0 -0.965913
    outer loop
      vertex 20.5472 1.95 -40.4965
      vertex 20.2778 0 -40.4243
      vertex 20.2778 1.95 -40.4243
    endloop
  endfacet
  facet normal 0.965913 0 -0.258868
    outer loop
      vertex 18.4965 0 -41.4528
      vertex 18.4243 1.95 -41.7222
      vertex 18.4965 1.95 -41.4528
    endloop
  endfacet
  facet normal 0.965913 0 -0.258868
    outer loop
      vertex 18.4243 1.95 -41.7222
      vertex 18.4965 0 -41.4528
      vertex 18.4243 0 -41.7222
    endloop
  endfacet
  facet normal 0.996196 0 -0.0871403
    outer loop
      vertex 18.4243 0 -41.7222
      vertex 18.4 1.95 -42
      vertex 18.4243 1.95 -41.7222
    endloop
  endfacet
  facet normal 0.996196 0 -0.0871403
    outer loop
      vertex 18.4 1.95 -42
      vertex 18.4243 0 -41.7222
      vertex 18.4 0 -42
    endloop
  endfacet
  facet normal 0.906284 0 -0.42267
    outer loop
      vertex 18.6144 0 -41.2
      vertex 18.4965 1.95 -41.4528
      vertex 18.6144 1.95 -41.2
    endloop
  endfacet
  facet normal 0.906284 0 -0.42267
    outer loop
      vertex 18.4965 1.95 -41.4528
      vertex 18.6144 0 -41.2
      vertex 18.4965 0 -41.4528
    endloop
  endfacet
  facet normal -0.906284 0 0.42267
    outer loop
      vertex 21.3856 0 -42.8
      vertex 21.5035 1.95 -42.5472
      vertex 21.3856 1.95 -42.8
    endloop
  endfacet
  facet normal -0.906284 0 0.42267
    outer loop
      vertex 21.5035 1.95 -42.5472
      vertex 21.3856 0 -42.8
      vertex 21.5035 0 -42.5472
    endloop
  endfacet
  facet normal 0.906284 -0 0.42267
    outer loop
      vertex 18.4965 0 -42.5472
      vertex 18.6144 1.95 -42.8
      vertex 18.4965 1.95 -42.5472
    endloop
  endfacet
  facet normal 0.906284 0 0.42267
    outer loop
      vertex 18.6144 1.95 -42.8
      vertex 18.4965 0 -42.5472
      vertex 18.6144 0 -42.8
    endloop
  endfacet
  facet normal 0.819316 -0 0.573342
    outer loop
      vertex 18.6144 0 -42.8
      vertex 18.7743 1.95 -43.0285
      vertex 18.6144 1.95 -42.8
    endloop
  endfacet
  facet normal 0.819316 0 0.573342
    outer loop
      vertex 18.7743 1.95 -43.0285
      vertex 18.6144 0 -42.8
      vertex 18.7743 0 -43.0285
    endloop
  endfacet
  facet normal 0.996196 -0 0.0871403
    outer loop
      vertex 18.4 0 -42
      vertex 18.4243 1.95 -42.2778
      vertex 18.4 1.95 -42
    endloop
  endfacet
  facet normal 0.996196 0 0.0871403
    outer loop
      vertex 18.4243 1.95 -42.2778
      vertex 18.4 0 -42
      vertex 18.4243 0 -42.2778
    endloop
  endfacet
  facet normal 0.819316 0 -0.573342
    outer loop
      vertex 18.7743 0 -40.9715
      vertex 18.6144 1.95 -41.2
      vertex 18.7743 1.95 -40.9715
    endloop
  endfacet
  facet normal 0.819316 0 -0.573342
    outer loop
      vertex 18.6144 1.95 -41.2
      vertex 18.7743 0 -40.9715
      vertex 18.6144 0 -41.2
    endloop
  endfacet
  facet normal -0.707107 0 -0.707107
    outer loop
      vertex 21.2257 0 -40.9715
      vertex 21.0285 1.95 -40.7743
      vertex 21.2257 1.95 -40.9715
    endloop
  endfacet
  facet normal -0.707107 -0 -0.707107
    outer loop
      vertex 21.0285 1.95 -40.7743
      vertex 21.2257 0 -40.9715
      vertex 21.0285 0 -40.7743
    endloop
  endfacet
  facet normal -0.0871403 0 -0.996196
    outer loop
      vertex 20 0 -40.4
      vertex 20.2778 1.95 -40.4243
      vertex 20.2778 0 -40.4243
    endloop
  endfacet
  facet normal -0.0871403 0 -0.996196
    outer loop
      vertex 20.2778 1.95 -40.4243
      vertex 20 0 -40.4
      vertex 20 1.95 -40.4
    endloop
  endfacet
  facet normal -0.573342 0 -0.819316
    outer loop
      vertex 20.8 0 -40.6144
      vertex 21.0285 1.95 -40.7743
      vertex 21.0285 0 -40.7743
    endloop
  endfacet
  facet normal -0.573342 0 -0.819316
    outer loop
      vertex 21.0285 1.95 -40.7743
      vertex 20.8 0 -40.6144
      vertex 20.8 1.95 -40.6144
    endloop
  endfacet
  facet normal -0.42267 0 -0.906284
    outer loop
      vertex 20.5472 0 -40.4965
      vertex 20.8 1.95 -40.6144
      vertex 20.8 0 -40.6144
    endloop
  endfacet
  facet normal -0.42267 0 -0.906284
    outer loop
      vertex 20.8 1.95 -40.6144
      vertex 20.5472 0 -40.4965
      vertex 20.5472 1.95 -40.4965
    endloop
  endfacet
  facet normal 0.42267 0 0.906284
    outer loop
      vertex 19.2 1.95 -43.3856
      vertex 19.4528 0 -43.5035
      vertex 19.4528 1.95 -43.5035
    endloop
  endfacet
  facet normal 0.42267 0 0.906284
    outer loop
      vertex 19.4528 0 -43.5035
      vertex 19.2 1.95 -43.3856
      vertex 19.2 0 -43.3856
    endloop
  endfacet
  facet normal -0.996196 0 0.0871403
    outer loop
      vertex 21.5757 0 -42.2778
      vertex 21.6 1.95 -42
      vertex 21.5757 1.95 -42.2778
    endloop
  endfacet
  facet normal -0.996196 0 0.0871403
    outer loop
      vertex 21.6 1.95 -42
      vertex 21.5757 0 -42.2778
      vertex 21.6 0 -42
    endloop
  endfacet
  facet normal 0.573342 0 -0.819316
    outer loop
      vertex 18.9715 0 -40.7743
      vertex 19.2 1.95 -40.6144
      vertex 19.2 0 -40.6144
    endloop
  endfacet
  facet normal 0.573342 0 -0.819316
    outer loop
      vertex 19.2 1.95 -40.6144
      vertex 18.9715 0 -40.7743
      vertex 18.9715 1.95 -40.7743
    endloop
  endfacet
  facet normal 0.258868 0 -0.965913
    outer loop
      vertex 19.4528 0 -40.4965
      vertex 19.7222 1.95 -40.4243
      vertex 19.7222 0 -40.4243
    endloop
  endfacet
  facet normal 0.258868 0 -0.965913
    outer loop
      vertex 19.7222 1.95 -40.4243
      vertex 19.4528 0 -40.4965
      vertex 19.4528 1.95 -40.4965
    endloop
  endfacet
  facet normal 0.573342 0 0.819316
    outer loop
      vertex 18.9715 1.95 -43.2257
      vertex 19.2 0 -43.3856
      vertex 19.2 1.95 -43.3856
    endloop
  endfacet
  facet normal 0.573342 0 0.819316
    outer loop
      vertex 19.2 0 -43.3856
      vertex 18.9715 1.95 -43.2257
      vertex 18.9715 0 -43.2257
    endloop
  endfacet
  facet normal -0.965913 0 -0.258868
    outer loop
      vertex 21.5757 0 -41.7222
      vertex 21.5035 1.95 -41.4528
      vertex 21.5757 1.95 -41.7222
    endloop
  endfacet
  facet normal -0.965913 -0 -0.258868
    outer loop
      vertex 21.5035 1.95 -41.4528
      vertex 21.5757 0 -41.7222
      vertex 21.5035 0 -41.4528
    endloop
  endfacet
  facet normal 0.42267 0 -0.906284
    outer loop
      vertex 19.2 0 -40.6144
      vertex 19.4528 1.95 -40.4965
      vertex 19.4528 0 -40.4965
    endloop
  endfacet
  facet normal 0.42267 0 -0.906284
    outer loop
      vertex 19.4528 1.95 -40.4965
      vertex 19.2 0 -40.6144
      vertex 19.2 1.95 -40.6144
    endloop
  endfacet
  facet normal -0.819316 0 -0.573342
    outer loop
      vertex 21.3856 0 -41.2
      vertex 21.2257 1.95 -40.9715
      vertex 21.3856 1.95 -41.2
    endloop
  endfacet
  facet normal -0.819316 -0 -0.573342
    outer loop
      vertex 21.2257 1.95 -40.9715
      vertex 21.3856 0 -41.2
      vertex 21.2257 0 -40.9715
    endloop
  endfacet
  facet normal -0.819316 0 0.573342
    outer loop
      vertex 21.2257 0 -43.0285
      vertex 21.3856 1.95 -42.8
      vertex 21.2257 1.95 -43.0285
    endloop
  endfacet
  facet normal -0.819316 0 0.573342
    outer loop
      vertex 21.3856 1.95 -42.8
      vertex 21.2257 0 -43.0285
      vertex 21.3856 0 -42.8
    endloop
  endfacet
  facet normal 0.258868 0 0.965913
    outer loop
      vertex 19.4528 1.95 -43.5035
      vertex 19.7222 0 -43.5757
      vertex 19.7222 1.95 -43.5757
    endloop
  endfacet
  facet normal 0.258868 0 0.965913
    outer loop
      vertex 19.7222 0 -43.5757
      vertex 19.4528 1.95 -43.5035
      vertex 19.4528 0 -43.5035
    endloop
  endfacet
  facet normal 0.707107 -0 0.707107
    outer loop
      vertex 18.7743 0 -43.0285
      vertex 18.9715 1.95 -43.2257
      vertex 18.7743 1.95 -43.0285
    endloop
  endfacet
  facet normal 0.707107 0 0.707107
    outer loop
      vertex 18.9715 1.95 -43.2257
      vertex 18.7743 0 -43.0285
      vertex 18.9715 0 -43.2257
    endloop
  endfacet
  facet normal 0.707107 0 -0.707107
    outer loop
      vertex 18.9715 0 -40.7743
      vertex 18.7743 1.95 -40.9715
      vertex 18.9715 1.95 -40.7743
    endloop
  endfacet
  facet normal 0.707107 0 -0.707107
    outer loop
      vertex 18.7743 1.95 -40.9715
      vertex 18.9715 0 -40.7743
      vertex 18.7743 0 -40.9715
    endloop
  endfacet
  facet normal 0.965913 -0 0.258868
    outer loop
      vertex 18.4243 0 -42.2778
      vertex 18.4965 1.95 -42.5472
      vertex 18.4243 1.95 -42.2778
    endloop
  endfacet
  facet normal 0.965913 0 0.258868
    outer loop
      vertex 18.4965 1.95 -42.5472
      vertex 18.4243 0 -42.2778
      vertex 18.4965 0 -42.5472
    endloop
  endfacet
  facet normal -0.707107 0 0.707107
    outer loop
      vertex 21.0285 0 -43.2257
      vertex 21.2257 1.95 -43.0285
      vertex 21.0285 1.95 -43.2257
    endloop
  endfacet
  facet normal -0.707107 0 0.707107
    outer loop
      vertex 21.2257 1.95 -43.0285
      vertex 21.0285 0 -43.2257
      vertex 21.2257 0 -43.0285
    endloop
  endfacet
  facet normal -0.906284 0 -0.42267
    outer loop
      vertex 21.5035 0 -41.4528
      vertex 21.3856 1.95 -41.2
      vertex 21.5035 1.95 -41.4528
    endloop
  endfacet
  facet normal -0.906284 -0 -0.42267
    outer loop
      vertex 21.3856 1.95 -41.2
      vertex 21.5035 0 -41.4528
      vertex 21.3856 0 -41.2
    endloop
  endfacet
  facet normal -0.573342 0 0.819316
    outer loop
      vertex 20.8 1.95 -43.3856
      vertex 21.0285 0 -43.2257
      vertex 21.0285 1.95 -43.2257
    endloop
  endfacet
  facet normal -0.573342 0 0.819316
    outer loop
      vertex 21.0285 0 -43.2257
      vertex 20.8 1.95 -43.3856
      vertex 20.8 0 -43.3856
    endloop
  endfacet
  facet normal 0.0871403 0 0.996196
    outer loop
      vertex 19.7222 1.95 -43.5757
      vertex 20 0 -43.6
      vertex 20 1.95 -43.6
    endloop
  endfacet
  facet normal 0.0871403 0 0.996196
    outer loop
      vertex 20 0 -43.6
      vertex 19.7222 1.95 -43.5757
      vertex 19.7222 0 -43.5757
    endloop
  endfacet
  facet normal 0.0871403 0 -0.996196
    outer loop
      vertex 19.7222 0 -40.4243
      vertex 20 1.95 -40.4
      vertex 20 0 -40.4
    endloop
  endfacet
  facet normal 0.0871403 0 -0.996196
    outer loop
      vertex 20 1.95 -40.4
      vertex 19.7222 0 -40.4243
      vertex 19.7222 1.95 -40.4243
    endloop
  endfacet
  facet normal -0.0871403 0 0.996196
    outer loop
      vertex 20 1.95 -43.6
      vertex 20.2778 0 -43.5757
      vertex 20.2778 1.95 -43.5757
    endloop
  endfacet
  facet normal -0.0871403 0 0.996196
    outer loop
      vertex 20.2778 0 -43.5757
      vertex 20 1.95 -43.6
      vertex 20 0 -43.6
    endloop
  endfacet
  facet normal -0.258868 0 0.965913
    outer loop
      vertex 20.2778 1.95 -43.5757
      vertex 20.5472 0 -43.5035
      vertex 20.5472 1.95 -43.5035
    endloop
  endfacet
  facet normal -0.258868 0 0.965913
    outer loop
      vertex 20.5472 0 -43.5035
      vertex 20.2778 1.95 -43.5757
      vertex 20.2778 0 -43.5757
    endloop
  endfacet
  facet normal -0.996196 0 -0.0871403
    outer loop
      vertex 21.6 0 -42
      vertex 21.5757 1.95 -41.7222
      vertex 21.6 1.95 -42
    endloop
  endfacet
  facet normal -0.996196 -0 -0.0871403
    outer loop
      vertex 21.5757 1.95 -41.7222
      vertex 21.6 0 -42
      vertex 21.5757 0 -41.7222
    endloop
  endfacet
  facet normal -0.965913 0 0.258868
    outer loop
      vertex 21.5035 0 -42.5472
      vertex 21.5757 1.95 -42.2778
      vertex 21.5035 1.95 -42.5472
    endloop
  endfacet
  facet normal -0.965913 0 0.258868
    outer loop
      vertex 21.5757 1.95 -42.2778
      vertex 21.5035 0 -42.5472
      vertex 21.5757 0 -42.2778
    endloop
  endfacet
  facet normal -0.42267 0 0.906284
    outer loop
      vertex 20.5472 1.95 -43.5035
      vertex 20.8 0 -43.3856
      vertex 20.8 1.95 -43.3856
    endloop
  endfacet
  facet normal -0.42267 0 0.906284
    outer loop
      vertex 20.8 0 -43.3856
      vertex 20.5472 1.95 -43.5035
      vertex 20.5472 0 -43.5035
    endloop
  endfacet
  facet normal -0 0 1
    outer loop
      vertex 18.45 4 -56.6847
      vertex 21.55 1.95 -56.6847
      vertex 21.55 4 -56.6847
    endloop
  endfacet
  facet normal 0 0 1
    outer loop
      vertex 21.55 1.95 -56.6847
      vertex 18.45 4 -56.6847
      vertex 18.45 1.95 -56.6847
    endloop
  endfacet
  facet normal 0.866027 -0 0.499997
    outer loop
      vertex 16.9 1.95 -54
      vertex 18.45 4 -56.6847
      vertex 16.9 4 -54
    endloop
  endfacet
  facet normal 0.866027 0 0.499997
    outer loop
      vertex 18.45 4 -56.6847
      vertex 16.9 1.95 -54
      vertex 18.45 1.95 -56.6847
    endloop
  endfacet
  facet normal 0 0 -1
    outer loop
      vertex 18.45 1.95 -51.3153
      vertex 21.55 4 -51.3153
      vertex 21.55 1.95 -51.3153
    endloop
  endfacet
  facet normal -0 0 -1
    outer loop
      vertex 21.55 4 -51.3153
      vertex 18.45 1.95 -51.3153
      vertex 18.45 4 -51.3153
    endloop
  endfacet
  facet normal 0.866027 0 -0.499997
    outer loop
      vertex 18.45 1.95 -51.3153
      vertex 16.9 4 -54
      vertex 18.45 4 -51.3153
    endloop
  endfacet
  facet normal 0.866027 0 -0.499997
    outer loop
      vertex 16.9 4 -54
      vertex 18.45 1.95 -51.3153
      vertex 16.9 1.95 -54
    endloop
  endfacet
  facet normal -0.866027 0 -0.499997
    outer loop
      vertex 23.1 1.95 -54
      vertex 21.55 4 -51.3153
      vertex 23.1 4 -54
    endloop
  endfacet
  facet normal -0.866027 -0 -0.499997
    outer loop
      vertex 21.55 4 -51.3153
      vertex 23.1 1.95 -54
      vertex 21.55 1.95 -51.3153
    endloop
  endfacet
  facet normal -0.866027 0 0.499997
    outer loop
      vertex 21.55 1.95 -56.6847
      vertex 23.1 4 -54
      vertex 21.55 4 -56.6847
    endloop
  endfacet
  facet normal -0.866027 0 0.499997
    outer loop
      vertex 23.1 4 -54
      vertex 21.55 1.95 -56.6847
      vertex 23.1 1.95 -54
    endloop
  endfacet
  facet normal 0 1 0
    outer loop
      vertex 21.55 1.95 -51.3153
      vertex 20 1.95 -52.4
      vertex 18.45 1.95 -51.3153
    endloop
  endfacet
  facet normal 0 1 0
    outer loop
      vertex 21.55 1.95 -51.3153
      vertex 20.2778 1.95 -52.4243
      vertex 20 1.95 -52.4
    endloop
  endfacet
  facet normal 0 1 0
    outer loop
      vertex 21.55 1.95 -51.3153
      vertex 20.5472 1.95 -52.4965
      vertex 20.2778 1.95 -52.4243
    endloop
  endfacet
  facet normal 0 1 0
    outer loop
      vertex 21.55 1.95 -51.3153
      vertex 20.8 1.95 -52.6144
      vertex 20.5472 1.95 -52.4965
    endloop
  endfacet
  facet normal 0 1 0
    outer loop
      vertex 21.55 1.95 -51.3153
      vertex 21.0285 1.95 -52.7743
      vertex 20.8 1.95 -52.6144
    endloop
  endfacet
  facet normal 0 1 0
    outer loop
      vertex 21.55 1.95 -51.3153
      vertex 21.2257 1.95 -52.9715
      vertex 21.0285 1.95 -52.7743
    endloop
  endfacet
  facet normal 0 1 0
    outer loop
      vertex 21.55 1.95 -51.3153
      vertex 21.3856 1.95 -53.2
      vertex 21.2257 1.95 -52.9715
    endloop
  endfacet
  facet normal 0 1 0
    outer loop
      vertex 23.1 1.95 -54
      vertex 21.3856 1.95 -53.2
      vertex 21.55 1.95 -51.3153
    endloop
  endfacet
  facet normal 0 1 0
    outer loop
      vertex 21.3856 1.95 -53.2
      vertex 23.1 1.95 -54
      vertex 21.5035 1.95 -53.4528
    endloop
  endfacet
  facet normal 0 1 0
    outer loop
      vertex 21.5035 1.95 -53.4528
      vertex 23.1 1.95 -54
      vertex 21.5757 1.95 -53.7222
    endloop
  endfacet
  facet normal 0 1 0
    outer loop
      vertex 23.1 1.95 -54
      vertex 21.6 1.95 -54
      vertex 21.5757 1.95 -53.7222
    endloop
  endfacet
  facet normal 0 1 0
    outer loop
      vertex 23.1 1.95 -54
      vertex 21.5757 1.95 -54.2778
      vertex 21.6 1.95 -54
    endloop
  endfacet
  facet normal 0 1 0
    outer loop
      vertex 23.1 1.95 -54
      vertex 21.5035 1.95 -54.5472
      vertex 21.5757 1.95 -54.2778
    endloop
  endfacet
  facet normal 0 1 0
    outer loop
      vertex 23.1 1.95 -54
      vertex 21.3856 1.95 -54.8
      vertex 21.5035 1.95 -54.5472
    endloop
  endfacet
  facet normal 0 1 -0
    outer loop
      vertex 21.55 1.95 -56.6847
      vertex 21.3856 1.95 -54.8
      vertex 23.1 1.95 -54
    endloop
  endfacet
  facet normal 0 1 0
    outer loop
      vertex 21.3856 1.95 -54.8
      vertex 21.55 1.95 -56.6847
      vertex 21.2257 1.95 -55.0285
    endloop
  endfacet
  facet normal 0 1 0
    outer loop
      vertex 21.2257 1.95 -55.0285
      vertex 21.55 1.95 -56.6847
      vertex 21.0285 1.95 -55.2257
    endloop
  endfacet
  facet normal 0 1 0
    outer loop
      vertex 20.2778 1.95 -55.5757
      vertex 21.55 1.95 -56.6847
      vertex 20 1.95 -55.6
    endloop
  endfacet
  facet normal 0 1 0
    outer loop
      vertex 20.5472 1.95 -55.5035
      vertex 21.55 1.95 -56.6847
      vertex 20.2778 1.95 -55.5757
    endloop
  endfacet
  facet normal 0 1 0
    outer loop
      vertex 20.8 1.95 -55.3856
      vertex 21.55 1.95 -56.6847
      vertex 20.5472 1.95 -55.5035
    endloop
  endfacet
  facet normal 0 1 0
    outer loop
      vertex 21.0285 1.95 -55.2257
      vertex 21.55 1.95 -56.6847
      vertex 20.8 1.95 -55.3856
    endloop
  endfacet
  facet normal 0 1 -0
    outer loop
      vertex 19.7222 1.95 -52.4243
      vertex 18.45 1.95 -51.3153
      vertex 20 1.95 -52.4
    endloop
  endfacet
  facet normal 0 1 -0
    outer loop
      vertex 19.4528 1.95 -52.4965
      vertex 18.45 1.95 -51.3153
      vertex 19.7222 1.95 -52.4243
    endloop
  endfacet
  facet normal 0 1 -0
    outer loop
      vertex 19.2 1.95 -52.6144
      vertex 18.45 1.95 -51.3153
      vertex 19.4528 1.95 -52.4965
    endloop
  endfacet
  facet normal 0 1 -0
    outer loop
      vertex 18.9715 1.95 -52.7743
      vertex 18.45 1.95 -51.3153
      vertex 19.2 1.95 -52.6144
    endloop
  endfacet
  facet normal 0 1 -0
    outer loop
      vertex 18.7743 1.95 -52.9715
      vertex 18.45 1.95 -51.3153
      vertex 18.9715 1.95 -52.7743
    endloop
  endfacet
  facet normal 0 1 -0
    outer loop
      vertex 18.6144 1.95 -53.2
      vertex 18.45 1.95 -51.3153
      vertex 18.7743 1.95 -52.9715
    endloop
  endfacet
  facet normal 0 1 0
    outer loop
      vertex 16.9 1.95 -54
      vertex 18.6144 1.95 -53.2
      vertex 18.4965 1.95 -53.4528
    endloop
  endfacet
  facet normal 0 1 0
    outer loop
      vertex 16.9 1.95 -54
      vertex 18.4965 1.95 -53.4528
      vertex 18.4243 1.95 -53.7222
    endloop
  endfacet
  facet normal 0 1 0
    outer loop
      vertex 16.9 1.95 -54
      vertex 18.4243 1.95 -53.7222
      vertex 18.4 1.95 -54
    endloop
  endfacet
  facet normal 0 1 0
    outer loop
      vertex 18.6144 1.95 -53.2
      vertex 16.9 1.95 -54
      vertex 18.45 1.95 -51.3153
    endloop
  endfacet
  facet normal 0 1 0
    outer loop
      vertex 18.4243 1.95 -54.2778
      vertex 16.9 1.95 -54
      vertex 18.4 1.95 -54
    endloop
  endfacet
  facet normal 0 1 0
    outer loop
      vertex 18.4965 1.95 -54.5472
      vertex 16.9 1.95 -54
      vertex 18.4243 1.95 -54.2778
    endloop
  endfacet
  facet normal 0 1 0
    outer loop
      vertex 18.6144 1.95 -54.8
      vertex 16.9 1.95 -54
      vertex 18.4965 1.95 -54.5472
    endloop
  endfacet
  facet normal 0 1 0
    outer loop
      vertex 18.45 1.95 -56.6847
      vertex 18.6144 1.95 -54.8
      vertex 18.7743 1.95 -55.0285
    endloop
  endfacet
  facet normal 0 1 0
    outer loop
      vertex 18.45 1.95 -56.6847
      vertex 18.7743 1.95 -55.0285
      vertex 18.9715 1.95 -55.2257
    endloop
  endfacet
  facet normal 0 1 0
    outer loop
      vertex 18.45 1.95 -56.6847
      vertex 18.9715 1.95 -55.2257
      vertex 19.2 1.95 -55.3856
    endloop
  endfacet
  facet normal 0 1 0
    outer loop
      vertex 18.45 1.95 -56.6847
      vertex 20 1.95 -55.6
      vertex 21.55 1.95 -56.6847
    endloop
  endfacet
  facet normal 0 1 0
    outer loop
      vertex 20 1.95 -55.6
      vertex 18.45 1.95 -56.6847
      vertex 19.7222 1.95 -55.5757
    endloop
  endfacet
  facet normal 0 1 0
    outer loop
      vertex 19.7222 1.95 -55.5757
      vertex 18.45 1.95 -56.6847
      vertex 19.4528 1.95 -55.5035
    endloop
  endfacet
  facet normal 0 1 0
    outer loop
      vertex 18.6144 1.95 -54.8
      vertex 18.45 1.95 -56.6847
      vertex 16.9 1.95 -54
    endloop
  endfacet
  facet normal 0 1 0
    outer loop
      vertex 19.4528 1.95 -55.5035
      vertex 18.45 1.95 -56.6847
      vertex 19.2 1.95 -55.3856
    endloop
  endfacet
  facet normal -0.258868 0 -0.965913
    outer loop
      vertex 20.2778 0 -52.4243
      vertex 20.5472 1.95 -52.4965
      vertex 20.5472 0 -52.4965
    endloop
  endfacet
  facet normal -0.258868 0 -0.965913
    outer loop
      vertex 20.5472 1.95 -52.4965
      vertex 20.2778 0 -52.4243
      vertex 20.2778 1.95 -52.4243
    endloop
  endfacet
  facet normal 0.965913 0 -0.258868
    outer loop
      vertex 18.4965 0 -53.4528
      vertex 18.4243 1.95 -53.7222
      vertex 18.4965 1.95 -53.4528
    endloop
  endfacet
  facet normal 0.965913 0 -0.258868
    outer loop
      vertex 18.4243 1.95 -53.7222
      vertex 18.4965 0 -53.4528
      vertex 18.4243 0 -53.7222
    endloop
  endfacet
  facet normal 0.996196 0 -0.0871403
    outer loop
      vertex 18.4243 0 -53.7222
      vertex 18.4 1.95 -54
      vertex 18.4243 1.95 -53.7222
    endloop
  endfacet
  facet normal 0.996196 0 -0.0871403
    outer loop
      vertex 18.4 1.95 -54
      vertex 18.4243 0 -53.7222
      vertex 18.4 0 -54
    endloop
  endfacet
  facet normal 0.906284 0 -0.42267
    outer loop
      vertex 18.6144 0 -53.2
      vertex 18.4965 1.95 -53.4528
      vertex 18.6144 1.95 -53.2
    endloop
  endfacet
  facet normal 0.906284 0 -0.42267
    outer loop
      vertex 18.4965 1.95 -53.4528
      vertex 18.6144 0 -53.2
      vertex 18.4965 0 -53.4528
    endloop
  endfacet
  facet normal -0.906284 0 0.42267
    outer loop
      vertex 21.3856 0 -54.8
      vertex 21.5035 1.95 -54.5472
      vertex 21.3856 1.95 -54.8
    endloop
  endfacet
  facet normal -0.906284 0 0.42267
    outer loop
      vertex 21.5035 1.95 -54.5472
      vertex 21.3856 0 -54.8
      vertex 21.5035 0 -54.5472
    endloop
  endfacet
  facet normal 0.906284 -0 0.42267
    outer loop
      vertex 18.4965 0 -54.5472
      vertex 18.6144 1.95 -54.8
      vertex 18.4965 1.95 -54.5472
    endloop
  endfacet
  facet normal 0.906284 0 0.42267
    outer loop
      vertex 18.6144 1.95 -54.8
      vertex 18.4965 0 -54.5472
      vertex 18.6144 0 -54.8
    endloop
  endfacet
  facet normal 0.819316 -0 0.573342
    outer loop
      vertex 18.6144 0 -54.8
      vertex 18.7743 1.95 -55.0285
      vertex 18.6144 1.95 -54.8
    endloop
  endfacet
  facet normal 0.819316 0 0.573342
    outer loop
      vertex 18.7743 1.95 -55.0285
      vertex 18.6144 0 -54.8
      vertex 18.7743 0 -55.0285
    endloop
  endfacet
  facet normal 0.996196 -0 0.0871403
    outer loop
      vertex 18.4 0 -54
      vertex 18.4243 1.95 -54.2778
      vertex 18.4 1.95 -54
    endloop
  endfacet
  facet normal 0.996196 0 0.0871403
    outer loop
      vertex 18.4243 1.95 -54.2778
      vertex 18.4 0 -54
      vertex 18.4243 0 -54.2778
    endloop
  endfacet
  facet normal 0.819316 0 -0.573342
    outer loop
      vertex 18.7743 0 -52.9715
      vertex 18.6144 1.95 -53.2
      vertex 18.7743 1.95 -52.9715
    endloop
  endfacet
  facet normal 0.819316 0 -0.573342
    outer loop
      vertex 18.6144 1.95 -53.2
      vertex 18.7743 0 -52.9715
      vertex 18.6144 0 -53.2
    endloop
  endfacet
  facet normal -0.707107 0 -0.707107
    outer loop
      vertex 21.2257 0 -52.9715
      vertex 21.0285 1.95 -52.7743
      vertex 21.2257 1.95 -52.9715
    endloop
  endfacet
  facet normal -0.707107 -0 -0.707107
    outer loop
      vertex 21.0285 1.95 -52.7743
      vertex 21.2257 0 -52.9715
      vertex 21.0285 0 -52.7743
    endloop
  endfacet
  facet normal -0.0871403 0 -0.996196
    outer loop
      vertex 20 0 -52.4
      vertex 20.2778 1.95 -52.4243
      vertex 20.2778 0 -52.4243
    endloop
  endfacet
  facet normal -0.0871403 0 -0.996196
    outer loop
      vertex 20.2778 1.95 -52.4243
      vertex 20 0 -52.4
      vertex 20 1.95 -52.4
    endloop
  endfacet
  facet normal -0.573342 0 -0.819316
    outer loop
      vertex 20.8 0 -52.6144
      vertex 21.0285 1.95 -52.7743
      vertex 21.0285 0 -52.7743
    endloop
  endfacet
  facet normal -0.573342 0 -0.819316
    outer loop
      vertex 21.0285 1.95 -52.7743
      vertex 20.8 0 -52.6144
      vertex 20.8 1.95 -52.6144
    endloop
  endfacet
  facet normal -0.42267 0 -0.906284
    outer loop
      vertex 20.5472 0 -52.4965
      vertex 20.8 1.95 -52.6144
      vertex 20.8 0 -52.6144
    endloop
  endfacet
  facet normal -0.42267 0 -0.906284
    outer loop
      vertex 20.8 1.95 -52.6144
      vertex 20.5472 0 -52.4965
      vertex 20.5472 1.95 -52.4965
    endloop
  endfacet
  facet normal 0.42267 0 0.906284
    outer loop
      vertex 19.2 1.95 -55.3856
      vertex 19.4528 0 -55.5035
      vertex 19.4528 1.95 -55.5035
    endloop
  endfacet
  facet normal 0.42267 0 0.906284
    outer loop
      vertex 19.4528 0 -55.5035
      vertex 19.2 1.95 -55.3856
      vertex 19.2 0 -55.3856
    endloop
  endfacet
  facet normal -0.996196 0 0.0871403
    outer loop
      vertex 21.5757 0 -54.2778
      vertex 21.6 1.95 -54
      vertex 21.5757 1.95 -54.2778
    endloop
  endfacet
  facet normal -0.996196 0 0.0871403
    outer loop
      vertex 21.6 1.95 -54
      vertex 21.5757 0 -54.2778
      vertex 21.6 0 -54
    endloop
  endfacet
  facet normal 0.573342 0 -0.819316
    outer loop
      vertex 18.9715 0 -52.7743
      vertex 19.2 1.95 -52.6144
      vertex 19.2 0 -52.6144
    endloop
  endfacet
  facet normal 0.573342 0 -0.819316
    outer loop
      vertex 19.2 1.95 -52.6144
      vertex 18.9715 0 -52.7743
      vertex 18.9715 1.95 -52.7743
    endloop
  endfacet
  facet normal 0.258868 0 -0.965913
    outer loop
      vertex 19.4528 0 -52.4965
      vertex 19.7222 1.95 -52.4243
      vertex 19.7222 0 -52.4243
    endloop
  endfacet
  facet normal 0.258868 0 -0.965913
    outer loop
      vertex 19.7222 1.95 -52.4243
      vertex 19.4528 0 -52.4965
      vertex 19.4528 1.95 -52.4965
    endloop
  endfacet
  facet normal 0.573342 0 0.819316
    outer loop
      vertex 18.9715 1.95 -55.2257
      vertex 19.2 0 -55.3856
      vertex 19.2 1.95 -55.3856
    endloop
  endfacet
  facet normal 0.573342 0 0.819316
    outer loop
      vertex 19.2 0 -55.3856
      vertex 18.9715 1.95 -55.2257
      vertex 18.9715 0 -55.2257
    endloop
  endfacet
  facet normal -0.965913 0 -0.258868
    outer loop
      vertex 21.5757 0 -53.7222
      vertex 21.5035 1.95 -53.4528
      vertex 21.5757 1.95 -53.7222
    endloop
  endfacet
  facet normal -0.965913 -0 -0.258868
    outer loop
      vertex 21.5035 1.95 -53.4528
      vertex 21.5757 0 -53.7222
      vertex 21.5035 0 -53.4528
    endloop
  endfacet
  facet normal 0.42267 0 -0.906284
    outer loop
      vertex 19.2 0 -52.6144
      vertex 19.4528 1.95 -52.4965
      vertex 19.4528 0 -52.4965
    endloop
  endfacet
  facet normal 0.42267 0 -0.906284
    outer loop
      vertex 19.4528 1.95 -52.4965
      vertex 19.2 0 -52.6144
      vertex 19.2 1.95 -52.6144
    endloop
  endfacet
  facet normal -0.819316 0 -0.573342
    outer loop
      vertex 21.3856 0 -53.2
      vertex 21.2257 1.95 -52.9715
      vertex 21.3856 1.95 -53.2
    endloop
  endfacet
  facet normal -0.819316 -0 -0.573342
    outer loop
      vertex 21.2257 1.95 -52.9715
      vertex 21.3856 0 -53.2
      vertex 21.2257 0 -52.9715
    endloop
  endfacet
  facet normal -0.819316 0 0.573342
    outer loop
      vertex 21.2257 0 -55.0285
      vertex 21.3856 1.95 -54.8
      vertex 21.2257 1.95 -55.0285
    endloop
  endfacet
  facet normal -0.819316 0 0.573342
    outer loop
      vertex 21.3856 1.95 -54.8
      vertex 21.2257 0 -55.0285
      vertex 21.3856 0 -54.8
    endloop
  endfacet
  facet normal 0.258868 0 0.965913
    outer loop
      vertex 19.4528 1.95 -55.5035
      vertex 19.7222 0 -55.5757
      vertex 19.7222 1.95 -55.5757
    endloop
  endfacet
  facet normal 0.258868 0 0.965913
    outer loop
      vertex 19.7222 0 -55.5757
      vertex 19.4528 1.95 -55.5035
      vertex 19.4528 0 -55.5035
    endloop
  endfacet
  facet normal 0.707107 -0 0.707107
    outer loop
      vertex 18.7743 0 -55.0285
      vertex 18.9715 1.95 -55.2257
      vertex 18.7743 1.95 -55.0285
    endloop
  endfacet
  facet normal 0.707107 0 0.707107
    outer loop
      vertex 18.9715 1.95 -55.2257
      vertex 18.7743 0 -55.0285
      vertex 18.9715 0 -55.2257
    endloop
  endfacet
  facet normal 0.707107 0 -0.707107
    outer loop
      vertex 18.9715 0 -52.7743
      vertex 18.7743 1.95 -52.9715
      vertex 18.9715 1.95 -52.7743
    endloop
  endfacet
  facet normal 0.707107 0 -0.707107
    outer loop
      vertex 18.7743 1.95 -52.9715
      vertex 18.9715 0 -52.7743
      vertex 18.7743 0 -52.9715
    endloop
  endfacet
  facet normal 0.965913 -0 0.258868
    outer loop
      vertex 18.4243 0 -54.2778
      vertex 18.4965 1.95 -54.5472
      vertex 18.4243 1.95 -54.2778
    endloop
  endfacet
  facet normal 0.965913 0 0.258868
    outer loop
      vertex 18.4965 1.95 -54.5472
      vertex 18.4243 0 -54.2778
      vertex 18.4965 0 -54.5472
    endloop
  endfacet
  facet normal -0.707107 0 0.707107
    outer loop
      vertex 21.0285 0 -55.2257
      vertex 21.2257 1.95 -55.0285
      vertex 21.0285 1.95 -55.2257
    endloop
  endfacet
  facet normal -0.707107 0 0.707107
    outer loop
      vertex 21.2257 1.95 -55.0285
      vertex 21.0285 0 -55.2257
      vertex 21.2257 0 -55.0285
    endloop
  endfacet
  facet normal -0.906284 0 -0.42267
    outer loop
      vertex 21.5035 0 -53.4528
      vertex 21.3856 1.95 -53.2
      vertex 21.5035 1.95 -53.4528
    endloop
  endfacet
  facet normal -0.906284 -0 -0.42267
    outer loop
      vertex 21.3856 1.95 -53.2
      vertex 21.5035 0 -53.4528
      vertex 21.3856 0 -53.2
    endloop
  endfacet
  facet normal -0.573342 0 0.819316
    outer loop
      vertex 20.8 1.95 -55.3856
      vertex 21.0285 0 -55.2257
      vertex 21.0285 1.95 -55.2257
    endloop
  endfacet
  facet normal -0.573342 0 0.819316
    outer loop
      vertex 21.0285 0 -55.2257
      vertex 20.8 1.95 -55.3856
      vertex 20.8 0 -55.3856
    endloop
  endfacet
  facet normal 0.0871403 0 0.996196
    outer loop
      vertex 19.7222 1.95 -55.5757
      vertex 20 0 -55.6
      vertex 20 1.95 -55.6
    endloop
  endfacet
  facet normal 0.0871403 0 0.996196
    outer loop
      vertex 20 0 -55.6
      vertex 19.7222 1.95 -55.5757
      vertex 19.7222 0 -55.5757
    endloop
  endfacet
  facet normal 0.0871403 0 -0.996196
    outer loop
      vertex 19.7222 0 -52.4243
      vertex 20 1.95 -52.4
      vertex 20 0 -52.4
    endloop
  endfacet
  facet normal 0.0871403 0 -0.996196
    outer loop
      vertex 20 1.95 -52.4
      vertex 19.7222 0 -52.4243
      vertex 19.7222 1.95 -52.4243
    endloop
  endfacet
  facet normal -0.0871403 0 0.996196
    outer loop
      vertex 20 1.95 -55.6
      vertex 20.2778 0 -55.5757
      vertex 20.2778 1.95 -55.5757
    endloop
  endfacet
  facet normal -0.0871403 0 0.996196
    outer loop
      vertex 20.2778 0 -55.5757
      vertex 20 1.95 -55.6
      vertex 20 0 -55.6
    endloop
  endfacet
  facet normal -0.258868 0 0.965913
    outer loop
      vertex 20.2778 1.95 -55.5757
      vertex 20.5472 0 -55.5035
      vertex 20.5472 1.95 -55.5035
    endloop
  endfacet
  facet normal -0.258868 0 0.965913
    outer loop
      vertex 20.5472 0 -55.5035
      vertex 20.2778 1.95 -55.5757
      vertex 20.2778 0 -55.5757
    endloop
  endfacet
  facet normal -0.996196 0 -0.0871403
    outer loop
      vertex 21.6 0 -54
      vertex 21.5757 1.95 -53.7222
      vertex 21.6 1.95 -54
    endloop
  endfacet
  facet normal -0.996196 -0 -0.0871403
    outer loop
      vertex 21.5757 1.95 -53.7222
      vertex 21.6 0 -54
      vertex 21.5757 0 -53.7222
    endloop
  endfacet
  facet normal -0.965913 0 0.258868
    outer loop
      vertex 21.5035 0 -54.5472
      vertex 21.5757 1.95 -54.2778
      vertex 21.5035 1.95 -54.5472
    endloop
  endfacet
  facet normal -0.965913 0 0.258868
    outer loop
      vertex 21.5757 1.95 -54.2778
      vertex 21.5035 0 -54.5472
      vertex 21.5757 0 -54.2778
    endloop
  endfacet
  facet normal -0.42267 0 0.906284
    outer loop
      vertex 20.5472 1.95 -55.5035
      vertex 20.8 0 -55.3856
      vertex 20.8 1.95 -55.3856
    endloop
  endfacet
  facet normal -0.42267 0 0.906284
    outer loop
      vertex 20.8 0 -55.3856
      vertex 20.5472 1.95 -55.5035
      vertex 20.5472 0 -55.5035
    endloop
  endfacet
  facet normal 1 -0 0
    outer loop
      vertex 25 0 0
      vertex 25 4 -60
      vertex 25 4 0
    endloop
  endfacet
  facet normal 1 0 0
    outer loop
      vertex 25 4 -60
      vertex 25 0 0
      vertex 25 0 -60
    endloop
  endfacet
  facet normal 0 0 -1
    outer loop
      vertex 25 0 0
      vertex 100 4 0
      vertex 100 0 0
    endloop
  endfacet
  facet normal -0 0 -1
    outer loop
      vertex 100 4 0
      vertex 25 0 0
      vertex 25 4 0
    endloop
  endfacet
  facet normal 0 0 -1
    outer loop
      vertex 0 0 0
      vertex 15 4 0
      vertex 15 0 0
    endloop
  endfacet
  facet normal -0 0 -1
    outer loop
      vertex 15 4 0
      vertex 0 0 0
      vertex 0 4 0
    endloop
  endfacet
  facet normal 0 0 -1
    outer loop
      vertex 15 0 -60
      vertex 25 4 -60
      vertex 25 0 -60
    endloop
  endfacet
  facet normal -0 0 -1
    outer loop
      vertex 25 4 -60
      vertex 15 0 -60
      vertex 15 4 -60
    endloop
  endfacet
  facet normal -1 0 0
    outer loop
      vertex 15 0 -60
      vertex 15 4 0
      vertex 15 4 -60
    endloop
  endfacet
  facet normal -1 -0 0
    outer loop
      vertex 15 4 0
      vertex 15 0 -60
      vertex 15 0 0
    endloop
  endfacet
  facet normal 0 1 0
    outer loop
      vertex 25 4 0
      vertex 21.55 4 -39.3153
      vertex 15 4 0
    endloop
  endfacet
  facet normal 0 1 0
    outer loop
      vertex 25 4 0
      vertex 23.1 4 -42
      vertex 21.55 4 -39.3153
    endloop
  endfacet
  facet normal 0 1 0
    outer loop
      vertex 21.55 4 -44.6847
      vertex 21.55 4 -51.3153
      vertex 18.45 4 -44.6847
    endloop
  endfacet
  facet normal 0 1 0
    outer loop
      vertex 23.1 4 -42
      vertex 21.55 4 -51.3153
      vertex 21.55 4 -44.6847
    endloop
  endfacet
  facet normal 0 1 0
    outer loop
      vertex 23.1 4 -42
      vertex 23.1 4 -54
      vertex 21.55 4 -51.3153
    endloop
  endfacet
  facet normal 0 1 -0
    outer loop
      vertex 25 4 -60
      vertex 23.1 4 -42
      vertex 25 4 0
    endloop
  endfacet
  facet normal 0 1 0
    outer loop
      vertex 21.55 4 -56.6847
      vertex 25 4 -60
      vertex 18.45 4 -56.6847
    endloop
  endfacet
  facet normal 0 1 0
    outer loop
      vertex 23.1 4 -54
      vertex 25 4 -60
      vertex 21.55 4 -56.6847
    endloop
  endfacet
  facet normal 0 1 0
    outer loop
      vertex 23.1 4 -42
      vertex 25 4 -60
      vertex 23.1 4 -54
    endloop
  endfacet
  facet normal 0 1 0
    outer loop
      vertex 25 4 0
      vertex 100 4 2
      vertex 100 4 0
    endloop
  endfacet
  facet normal 0 1 0
    outer loop
      vertex 100 4 2
      vertex 25 4 0
      vertex 0 4 2
    endloop
  endfacet
  facet normal 0 1 -0
    outer loop
      vertex 15 4 0
      vertex 0 4 2
      vertex 25 4 0
    endloop
  endfacet
  facet normal 0 1 0
    outer loop
      vertex 0 4 2
      vertex 15 4 0
      vertex 0 4 0
    endloop
  endfacet
  facet normal 0 1 -0
    outer loop
      vertex 18.45 4 -39.3153
      vertex 15 4 0
      vertex 21.55 4 -39.3153
    endloop
  endfacet
  facet normal 0 1 -0
    outer loop
      vertex 16.9 4 -42
      vertex 15 4 0
      vertex 18.45 4 -39.3153
    endloop
  endfacet
  facet normal 0 1 0
    outer loop
      vertex 18.45 4 -51.3153
      vertex 18.45 4 -44.6847
      vertex 21.55 4 -51.3153
    endloop
  endfacet
  facet normal 0 1 0
    outer loop
      vertex 18.45 4 -44.6847
      vertex 18.45 4 -51.3153
      vertex 16.9 4 -42
    endloop
  endfacet
  facet normal 0 1 0
    outer loop
      vertex 16.9 4 -54
      vertex 16.9 4 -42
      vertex 18.45 4 -51.3153
    endloop
  endfacet
  facet normal 0 1 0
    outer loop
      vertex 15 4 -60
      vertex 16.9 4 -42
      vertex 16.9 4 -54
    endloop
  endfacet
  facet normal 0 1 0
    outer loop
      vertex 16.9 4 -42
      vertex 15 4 -60
      vertex 15 4 0
    endloop
  endfacet
  facet normal 0 1 0
    outer loop
      vertex 18.45 4 -56.6847
      vertex 15 4 -60
      vertex 16.9 4 -54
    endloop
  endfacet
  facet normal 0 1 0
    outer loop
      vertex 15 4 -60
      vertex 18.45 4 -56.6847
      vertex 25 4 -60
    endloop
  endfacet
  facet normal 0 -1 0
    outer loop
      vertex 15 0 0
      vertex 20 0 -40.4
      vertex 25 0 0
    endloop
  endfacet
  facet normal 0 -1 0
    outer loop
      vertex 15 0 0
      vertex 19.7222 0 -40.4243
      vertex 20 0 -40.4
    endloop
  endfacet
  facet normal 0 -1 0
    outer loop
      vertex 15 0 0
      vertex 19.4528 0 -40.4965
      vertex 19.7222 0 -40.4243
    endloop
  endfacet
  facet normal 0 -1 0
    outer loop
      vertex 15 0 0
      vertex 19.2 0 -40.6144
      vertex 19.4528 0 -40.4965
    endloop
  endfacet
  facet normal 0 -1 0
    outer loop
      vertex 15 0 0
      vertex 18.9715 0 -40.7743
      vertex 19.2 0 -40.6144
    endloop
  endfacet
  facet normal 0 -1 0
    outer loop
      vertex 15 0 0
      vertex 18.7743 0 -40.9715
      vertex 18.9715 0 -40.7743
    endloop
  endfacet
  facet normal 0 -1 0
    outer loop
      vertex 15 0 0
      vertex 18.6144 0 -41.2
      vertex 18.7743 0 -40.9715
    endloop
  endfacet
  facet normal 0 -1 0
    outer loop
      vertex 15 0 0
      vertex 18.4965 0 -41.4528
      vertex 18.6144 0 -41.2
    endloop
  endfacet
  facet normal 0 -1 0
    outer loop
      vertex 15 0 0
      vertex 18.4243 0 -41.7222
      vertex 18.4965 0 -41.4528
    endloop
  endfacet
  facet normal 0 -1 0
    outer loop
      vertex 15 0 -60
      vertex 18.4243 0 -41.7222
      vertex 15 0 0
    endloop
  endfacet
  facet normal 0 -1 0
    outer loop
      vertex 19.7222 0 -43.5757
      vertex 20 0 -52.4
      vertex 20 0 -43.6
    endloop
  endfacet
  facet normal 0 -1 0
    outer loop
      vertex 19.7222 0 -52.4243
      vertex 19.7222 0 -43.5757
      vertex 19.4528 0 -43.5035
    endloop
  endfacet
  facet normal 0 -1 0
    outer loop
      vertex 19.4528 0 -52.4965
      vertex 19.4528 0 -43.5035
      vertex 19.2 0 -43.3856
    endloop
  endfacet
  facet normal 0 -1 0
    outer loop
      vertex 19.2 0 -52.6144
      vertex 19.2 0 -43.3856
      vertex 18.9715 0 -43.2257
    endloop
  endfacet
  facet normal 0 -1 0
    outer loop
      vertex 18.9715 0 -52.7743
      vertex 18.9715 0 -43.2257
      vertex 18.7743 0 -43.0285
    endloop
  endfacet
  facet normal 0 -1 0
    outer loop
      vertex 18.7743 0 -52.9715
      vertex 18.7743 0 -43.0285
      vertex 18.6144 0 -42.8
    endloop
  endfacet
  facet normal 0 -1 0
    outer loop
      vertex 18.6144 0 -53.2
      vertex 18.6144 0 -42.8
      vertex 18.4965 0 -42.5472
    endloop
  endfacet
  facet normal 0 -1 0
    outer loop
      vertex 15 0 -60
      vertex 18.4965 0 -42.5472
      vertex 18.4243 0 -42.2778
    endloop
  endfacet
  facet normal 0 -1 0
    outer loop
      vertex 19.7222 0 -43.5757
      vertex 19.7222 0 -52.4243
      vertex 20 0 -52.4
    endloop
  endfacet
  facet normal 0 -1 0
    outer loop
      vertex 19.4528 0 -43.5035
      vertex 19.4528 0 -52.4965
      vertex 19.7222 0 -52.4243
    endloop
  endfacet
  facet normal 0 -1 0
    outer loop
      vertex 19.2 0 -43.3856
      vertex 19.2 0 -52.6144
      vertex 19.4528 0 -52.4965
    endloop
  endfacet
  facet normal 0 -1 0
    outer loop
      vertex 15 0 -60
      vertex 18.4243 0 -42.2778
      vertex 18.4 0 -42
    endloop
  endfacet
  facet normal 0 -1 0
    outer loop
      vertex 18.4243 0 -41.7222
      vertex 15 0 -60
      vertex 18.4 0 -42
    endloop
  endfacet
  facet normal 0 -1 0
    outer loop
      vertex 18.9715 0 -43.2257
      vertex 18.9715 0 -52.7743
      vertex 19.2 0 -52.6144
    endloop
  endfacet
  facet normal 0 -1 0
    outer loop
      vertex 18.7743 0 -43.0285
      vertex 18.7743 0 -52.9715
      vertex 18.9715 0 -52.7743
    endloop
  endfacet
  facet normal 0 -1 0
    outer loop
      vertex 18.6144 0 -42.8
      vertex 18.6144 0 -53.2
      vertex 18.7743 0 -52.9715
    endloop
  endfacet
  facet normal 0 -1 0
    outer loop
      vertex 18.4965 0 -42.5472
      vertex 18.4965 0 -53.4528
      vertex 18.6144 0 -53.2
    endloop
  endfacet
  facet normal 0 -1 -0
    outer loop
      vertex 18.4965 0 -42.5472
      vertex 15 0 -60
      vertex 18.4965 0 -53.4528
    endloop
  endfacet
  facet normal 0 -1 0
    outer loop
      vertex 18.4965 0 -53.4528
      vertex 15 0 -60
      vertex 18.4243 0 -53.7222
    endloop
  endfacet
  facet normal 0 -1 -0
    outer loop
      vertex 19.7222 0 -55.5757
      vertex 15 0 -60
      vertex 20 0 -55.6
    endloop
  endfacet
  facet normal 0 -1 -0
    outer loop
      vertex 19.4528 0 -55.5035
      vertex 15 0 -60
      vertex 19.7222 0 -55.5757
    endloop
  endfacet
  facet normal 0 -1 -0
    outer loop
      vertex 19.2 0 -55.3856
      vertex 15 0 -60
      vertex 19.4528 0 -55.5035
    endloop
  endfacet
  facet normal 0 -1 -0
    outer loop
      vertex 18.9715 0 -55.2257
      vertex 15 0 -60
      vertex 19.2 0 -55.3856
    endloop
  endfacet
  facet normal 0 -1 -0
    outer loop
      vertex 18.7743 0 -55.0285
      vertex 15 0 -60
      vertex 18.9715 0 -55.2257
    endloop
  endfacet
  facet normal 0 -1 -0
    outer loop
      vertex 18.6144 0 -54.8
      vertex 15 0 -60
      vertex 18.7743 0 -55.0285
    endloop
  endfacet
  facet normal 0 -1 -0
    outer loop
      vertex 18.4965 0 -54.5472
      vertex 15 0 -60
      vertex 18.6144 0 -54.8
    endloop
  endfacet
  facet normal 0 -1 -0
    outer loop
      vertex 18.4243 0 -54.2778
      vertex 15 0 -60
      vertex 18.4965 0 -54.5472
    endloop
  endfacet
  facet normal 0 -1 -0
    outer loop
      vertex 18.4 0 -54
      vertex 15 0 -60
      vertex 18.4243 0 -54.2778
    endloop
  endfacet
  facet normal 0 -1 0
    outer loop
      vertex 18.4243 0 -53.7222
      vertex 15 0 -60
      vertex 18.4 0 -54
    endloop
  endfacet
  facet normal 0 -1 0
    outer loop
      vertex 15 0 0
      vertex 0 0 2
      vertex 0 0 0
    endloop
  endfacet
  facet normal 0 -1 0
    outer loop
      vertex 25 0 0
      vertex 0 0 2
      vertex 15 0 0
    endloop
  endfacet
  facet normal 0 -1 0
    outer loop
      vertex 0 0 2
      vertex 25 0 0
      vertex 100 0 2
    endloop
  endfacet
  facet normal 0 -1 -0
    outer loop
      vertex 100 0 2
      vertex 25 0 0
      vertex 100 0 0
    endloop
  endfacet
  facet normal 0 -1 0
    outer loop
      vertex 20.2778 0 -40.4243
      vertex 25 0 0
      vertex 20 0 -40.4
    endloop
  endfacet
  facet normal 0 -1 0
    outer loop
      vertex 20.5472 0 -40.4965
      vertex 25 0 0
      vertex 20.2778 0 -40.4243
    endloop
  endfacet
  facet normal 0 -1 0
    outer loop
      vertex 20.8 0 -40.6144
      vertex 25 0 0
      vertex 20.5472 0 -40.4965
    endloop
  endfacet
  facet normal 0 -1 0
    outer loop
      vertex 21.0285 0 -40.7743
      vertex 25 0 0
      vertex 20.8 0 -40.6144
    endloop
  endfacet
  facet normal 0 -1 0
    outer loop
      vertex 21.2257 0 -40.9715
      vertex 25 0 0
      vertex 21.0285 0 -40.7743
    endloop
  endfacet
  facet normal 0 -1 0
    outer loop
      vertex 21.3856 0 -41.2
      vertex 25 0 0
      vertex 21.2257 0 -40.9715
    endloop
  endfacet
  facet normal 0 -1 0
    outer loop
      vertex 21.5035 0 -41.4528
      vertex 25 0 0
      vertex 21.3856 0 -41.2
    endloop
  endfacet
  facet normal 0 -1 0
    outer loop
      vertex 21.5757 0 -41.7222
      vertex 25 0 0
      vertex 21.5035 0 -41.4528
    endloop
  endfacet
  facet normal 0 -1 0
    outer loop
      vertex 25 0 -60
      vertex 21.5757 0 -41.7222
      vertex 21.6 0 -42
    endloop
  endfacet
  facet normal 0 -1 0
    outer loop
      vertex 20 0 -52.4
      vertex 20.2778 0 -43.5757
      vertex 20 0 -43.6
    endloop
  endfacet
  facet normal 0 -1 0
    outer loop
      vertex 20.2778 0 -52.4243
      vertex 20.2778 0 -43.5757
      vertex 20 0 -52.4
    endloop
  endfacet
  facet normal 0 -1 0
    outer loop
      vertex 20.2778 0 -43.5757
      vertex 20.2778 0 -52.4243
      vertex 20.5472 0 -43.5035
    endloop
  endfacet
  facet normal 0 -1 0
    outer loop
      vertex 20.5472 0 -52.4965
      vertex 20.5472 0 -43.5035
      vertex 20.2778 0 -52.4243
    endloop
  endfacet
  facet normal 0 -1 0
    outer loop
      vertex 20.5472 0 -43.5035
      vertex 20.5472 0 -52.4965
      vertex 20.8 0 -43.3856
    endloop
  endfacet
  facet normal 0 -1 0
    outer loop
      vertex 20.8 0 -52.6144
      vertex 20.8 0 -43.3856
      vertex 20.5472 0 -52.4965
    endloop
  endfacet
  facet normal 0 -1 0
    outer loop
      vertex 20.8 0 -43.3856
      vertex 20.8 0 -52.6144
      vertex 21.0285 0 -43.2257
    endloop
  endfacet
  facet normal 0 -1 0
    outer loop
      vertex 21.0285 0 -52.7743
      vertex 21.0285 0 -43.2257
      vertex 20.8 0 -52.6144
    endloop
  endfacet
  facet normal 0 -1 0
    outer loop
      vertex 21.0285 0 -43.2257
      vertex 21.0285 0 -52.7743
      vertex 21.2257 0 -43.0285
    endloop
  endfacet
  facet normal 0 -1 0
    outer loop
      vertex 21.2257 0 -52.9715
      vertex 21.2257 0 -43.0285
      vertex 21.0285 0 -52.7743
    endloop
  endfacet
  facet normal 0 -1 0
    outer loop
      vertex 21.2257 0 -43.0285
      vertex 21.2257 0 -52.9715
      vertex 21.3856 0 -42.8
    endloop
  endfacet
  facet normal 0 -1 0
    outer loop
      vertex 21.3856 0 -53.2
      vertex 21.3856 0 -42.8
      vertex 21.2257 0 -52.9715
    endloop
  endfacet
  facet normal 0 -1 0
    outer loop
      vertex 21.3856 0 -42.8
      vertex 21.3856 0 -53.2
      vertex 21.5035 0 -42.5472
    endloop
  endfacet
  facet normal 0 -1 0
    outer loop
      vertex 21.5035 0 -53.4528
      vertex 21.5035 0 -42.5472
      vertex 21.3856 0 -53.2
    endloop
  endfacet
  facet normal 0 -1 0
    outer loop
      vertex 25 0 -60
      vertex 21.5035 0 -42.5472
      vertex 21.5035 0 -53.4528
    endloop
  endfacet
  facet normal 0 -1 0
    outer loop
      vertex 21.5035 0 -42.5472
      vertex 25 0 -60
      vertex 21.5757 0 -42.2778
    endloop
  endfacet
  facet normal 0 -1 0
    outer loop
      vertex 21.5757 0 -42.2778
      vertex 25 0 -60
      vertex 21.6 0 -42
    endloop
  endfacet
  facet normal 0 -1 0
    outer loop
      vertex 25 0 -60
      vertex 21.5035 0 -53.4528
      vertex 21.5757 0 -53.7222
    endloop
  endfacet
  facet normal 0 -1 0
    outer loop
      vertex 25 0 -60
      vertex 21.5757 0 -53.7222
      vertex 21.6 0 -54
    endloop
  endfacet
  facet normal 0 -1 0
    outer loop
      vertex 25 0 -60
      vertex 20 0 -55.6
      vertex 15 0 -60
    endloop
  endfacet
  facet normal 0 -1 0
    outer loop
      vertex 20 0 -55.6
      vertex 25 0 -60
      vertex 20.2778 0 -55.5757
    endloop
  endfacet
  facet normal 0 -1 0
    outer loop
      vertex 20.2778 0 -55.5757
      vertex 25 0 -60
      vertex 20.5472 0 -55.5035
    endloop
  endfacet
  facet normal 0 -1 0
    outer loop
      vertex 20.5472 0 -55.5035
      vertex 25 0 -60
      vertex 20.8 0 -55.3856
    endloop
  endfacet
  facet normal 0 -1 0
    outer loop
      vertex 21.5757 0 -41.7222
      vertex 25 0 -60
      vertex 25 0 0
    endloop
  endfacet
  facet normal 0 -1 0
    outer loop
      vertex 21.5757 0 -54.2778
      vertex 25 0 -60
      vertex 21.6 0 -54
    endloop
  endfacet
  facet normal 0 -1 0
    outer loop
      vertex 21.5035 0 -54.5472
      vertex 25 0 -60
      vertex 21.5757 0 -54.2778
    endloop
  endfacet
  facet normal 0 -1 0
    outer loop
      vertex 21.3856 0 -54.8
      vertex 25 0 -60
      vertex 21.5035 0 -54.5472
    endloop
  endfacet
  facet normal 0 -1 0
    outer loop
      vertex 21.2257 0 -55.0285
      vertex 25 0 -60
      vertex 21.3856 0 -54.8
    endloop
  endfacet
  facet normal 0 -1 0
    outer loop
      vertex 21.0285 0 -55.2257
      vertex 25 0 -60
      vertex 21.2257 0 -55.0285
    endloop
  endfacet
  facet normal 0 -1 0
    outer loop
      vertex 20.8 0 -55.3856
      vertex 25 0 -60
      vertex 21.0285 0 -55.2257
    endloop
  endfacet
  facet normal 1 -0 0
    outer loop
      vertex 100 0 2
      vertex 100 4 0
      vertex 100 4 2
    endloop
  endfacet
  facet normal 1 0 0
    outer loop
      vertex 100 4 0
      vertex 100 0 2
      vertex 100 0 0
    endloop
  endfacet
  facet normal -0 0 1
    outer loop
      vertex 0 4 2
      vertex 100 0 2
      vertex 100 4 2
    endloop
  endfacet
  facet normal 0 0 1
    outer loop
      vertex 100 0 2
      vertex 0 4 2
      vertex 0 0 2
    endloop
  endfacet
  facet normal -1 0 0
    outer loop
      vertex 0 0 0
      vertex 0 4 2
      vertex 0 4 0
    endloop
  endfacet
  facet normal -1 -0 0
    outer loop
      vertex 0 4 2
      vertex 0 0 0
      vertex 0 0 2
    endloop
  endfacet
endsolid OpenSCAD_Model
