solid OpenSCAD_Model
  facet normal 1 0 0
    outer loop
      vertex 3 10.6863 17.158
      vertex 3 4.18543 15.238
      vertex 3 4.25 14.5
    endloop
  endfacet
  facet normal 1 0 0
    outer loop
      vertex 3 8.3125 20.4823
      vertex 3 3.99369 15.9536
      vertex 3 4.18543 15.238
    endloop
  endfacet
  facet normal 1 0 0
    outer loop
      vertex 3 8.3125 20.4823
      vertex 3 3.68061 16.625
      vertex 3 3.99369 15.9536
    endloop
  endfacet
  facet normal 1 0 0
    outer loop
      vertex 3 8.3125 20.4823
      vertex 3 3.25569 17.2318
      vertex 3 3.68061 16.625
    endloop
  endfacet
  facet normal 1 0 0
    outer loop
      vertex 3 1.45358 18.4937
      vertex 3 5.68608 22.9318
      vertex 3 2.8869 24.4319
    endloop
  endfacet
  facet normal 1 0 0
    outer loop
      vertex 3 8.3125 20.4823
      vertex 3 2.73185 17.7557
      vertex 3 3.25569 17.2318
    endloop
  endfacet
  facet normal 1 0 0
    outer loop
      vertex 3 5.68608 22.9318
      vertex 3 2.125 18.1806
      vertex 3 2.73185 17.7557
    endloop
  endfacet
  facet normal 1 0 0
    outer loop
      vertex 3 5.68608 22.9318
      vertex 3 1.45358 18.4937
      vertex 3 2.125 18.1806
    endloop
  endfacet
  facet normal 1 0 0
    outer loop
      vertex 3 2.8869 24.4319
      vertex 3 0.738005 18.6854
      vertex 3 1.45358 18.4937
    endloop
  endfacet
  facet normal 1 0 0
    outer loop
      vertex 3 0 24.937
      vertex 3 0.738005 18.6854
      vertex 3 2.8869 24.4319
    endloop
  endfacet
  facet normal 1 0 0
    outer loop
      vertex 3 0 24.937
      vertex 3 0 18.75
      vertex 3 0.738005 18.6854
    endloop
  endfacet
  facet normal 1 0 0
    outer loop
      vertex 3 0 24.937
      vertex 3 -0.738005 18.6854
      vertex 3 0 18.75
    endloop
  endfacet
  facet normal 1 -0 0
    outer loop
      vertex 3 -2.8869 24.4319
      vertex 3 -0.738005 18.6854
      vertex 3 0 24.937
    endloop
  endfacet
  facet normal 1 0 0
    outer loop
      vertex 3 -0.738005 18.6854
      vertex 3 -2.8869 24.4319
      vertex 3 -1.45358 18.4937
    endloop
  endfacet
  facet normal 1 -0 0
    outer loop
      vertex 3 -5.68608 22.9318
      vertex 3 -1.45358 18.4937
      vertex 3 -2.8869 24.4319
    endloop
  endfacet
  facet normal 1 0 0
    outer loop
      vertex 3 -1.45358 18.4937
      vertex 3 -5.68608 22.9318
      vertex 3 -2.125 18.1806
    endloop
  endfacet
  facet normal 1 0 0
    outer loop
      vertex 3 -2.125 18.1806
      vertex 3 -5.68608 22.9318
      vertex 3 -2.73185 17.7557
    endloop
  endfacet
  facet normal 1 -0 0
    outer loop
      vertex 3 -8.3125 20.4823
      vertex 3 -2.73185 17.7557
      vertex 3 -5.68608 22.9318
    endloop
  endfacet
  facet normal 1 0 0
    outer loop
      vertex 3 -2.73185 17.7557
      vertex 3 -8.3125 20.4823
      vertex 3 -3.25569 17.2318
    endloop
  endfacet
  facet normal 1 0 0
    outer loop
      vertex 3 -3.25569 17.2318
      vertex 3 -8.3125 20.4823
      vertex 3 -3.68061 16.625
    endloop
  endfacet
  facet normal 1 -0 0
    outer loop
      vertex 3 -10.6863 17.158
      vertex 3 -3.99369 15.9536
      vertex 3 -8.3125 20.4823
    endloop
  endfacet
  facet normal 1 0 0
    outer loop
      vertex 3 -3.68061 16.625
      vertex 3 -8.3125 20.4823
      vertex 3 -3.99369 15.9536
    endloop
  endfacet
  facet normal 1 0 0
    outer loop
      vertex 3 2.125 10.8194
      vertex 3 15.6224 3.05917
      vertex 3 14.3977 8.312
    endloop
  endfacet
  facet normal 1 -0 0
    outer loop
      vertex 3 3.68061 12.375
      vertex 3 14.3977 8.312
      vertex 3 12.7355 13.0597
    endloop
  endfacet
  facet normal 1 -0 0
    outer loop
      vertex 3 4.18543 13.762
      vertex 3 12.7355 13.0597
      vertex 3 10.6863 17.158
    endloop
  endfacet
  facet normal 1 0 0
    outer loop
      vertex 3 4.18543 15.238
      vertex 3 10.6863 17.158
      vertex 3 8.3125 20.4823
    endloop
  endfacet
  facet normal 1 0 0
    outer loop
      vertex 3 2.73185 17.7557
      vertex 3 8.3125 20.4823
      vertex 3 5.68608 22.9318
    endloop
  endfacet
  facet normal 1 0 0
    outer loop
      vertex 3 10.6863 17.158
      vertex 3 4.25 14.5
      vertex 3 4.18543 13.762
    endloop
  endfacet
  facet normal 1 0 0
    outer loop
      vertex 3 12.7355 13.0597
      vertex 3 4.18543 13.762
      vertex 3 3.99369 13.0464
    endloop
  endfacet
  facet normal 1 0 0
    outer loop
      vertex 3 12.7355 13.0597
      vertex 3 3.99369 13.0464
      vertex 3 3.68061 12.375
    endloop
  endfacet
  facet normal 1 0 0
    outer loop
      vertex 3 14.3977 8.312
      vertex 3 3.68061 12.375
      vertex 3 3.25569 11.7682
    endloop
  endfacet
  facet normal 1 0 0
    outer loop
      vertex 3 14.3977 8.312
      vertex 3 3.25569 11.7682
      vertex 3 2.73185 11.2443
    endloop
  endfacet
  facet normal 1 -0 0
    outer loop
      vertex 3 2.125 10.8194
      vertex 3 14.3977 8.312
      vertex 3 2.73185 11.2443
    endloop
  endfacet
  facet normal 1 -0 0
    outer loop
      vertex 3 1.45358 10.5063
      vertex 3 15.6224 3.05917
      vertex 3 2.125 10.8194
    endloop
  endfacet
  facet normal 1 0 0
    outer loop
      vertex 3 15.6224 3.05917
      vertex 3 1.45358 10.5063
      vertex 3 16.0322 0
    endloop
  endfacet
  facet normal 1 -0 0
    outer loop
      vertex 3 0.738005 10.3146
      vertex 3 16.0322 0
      vertex 3 1.45358 10.5063
    endloop
  endfacet
  facet normal 1 -0 0
    outer loop
      vertex 3 0 10.25
      vertex 3 16.0322 0
      vertex 3 0.738005 10.3146
    endloop
  endfacet
  facet normal 1 0 0
    outer loop
      vertex 3 -16.0322 0
      vertex 3 0 10.25
      vertex 3 -0.738005 10.3146
    endloop
  endfacet
  facet normal 1 0 0
    outer loop
      vertex 3 -16.0322 0
      vertex 3 -0.738005 10.3146
      vertex 3 -1.45358 10.5063
    endloop
  endfacet
  facet normal 1 0 0
    outer loop
      vertex 3 -15.6224 3.05917
      vertex 3 -1.45358 10.5063
      vertex 3 -2.125 10.8194
    endloop
  endfacet
  facet normal 1 0 0
    outer loop
      vertex 3 -3.99369 15.9536
      vertex 3 -10.6863 17.158
      vertex 3 -4.18543 15.238
    endloop
  endfacet
  facet normal 1 0 0
    outer loop
      vertex 3 -4.18543 15.238
      vertex 3 -10.6863 17.158
      vertex 3 -4.25 14.5
    endloop
  endfacet
  facet normal 1 0 0
    outer loop
      vertex 3 -4.25 14.5
      vertex 3 -10.6863 17.158
      vertex 3 -4.18543 13.762
    endloop
  endfacet
  facet normal 1 0 0
    outer loop
      vertex 3 -12.7355 13.0597
      vertex 3 -4.18543 13.762
      vertex 3 -10.6863 17.158
    endloop
  endfacet
  facet normal 1 0 0
    outer loop
      vertex 3 -4.18543 13.762
      vertex 3 -12.7355 13.0597
      vertex 3 -3.99369 13.0464
    endloop
  endfacet
  facet normal 1 0 0
    outer loop
      vertex 3 -3.99369 13.0464
      vertex 3 -12.7355 13.0597
      vertex 3 -3.68061 12.375
    endloop
  endfacet
  facet normal 1 0 0
    outer loop
      vertex 3 -14.3977 8.312
      vertex 3 -3.68061 12.375
      vertex 3 -12.7355 13.0597
    endloop
  endfacet
  facet normal 1 0 0
    outer loop
      vertex 3 -3.68061 12.375
      vertex 3 -14.3977 8.312
      vertex 3 -3.25569 11.7682
    endloop
  endfacet
  facet normal 1 0 0
    outer loop
      vertex 3 -3.25569 11.7682
      vertex 3 -14.3977 8.312
      vertex 3 -2.73185 11.2443
    endloop
  endfacet
  facet normal 1 0 0
    outer loop
      vertex 3 -2.73185 11.2443
      vertex 3 -14.3977 8.312
      vertex 3 -2.125 10.8194
    endloop
  endfacet
  facet normal 1 0 0
    outer loop
      vertex 3 -15.6224 3.05917
      vertex 3 -2.125 10.8194
      vertex 3 -14.3977 8.312
    endloop
  endfacet
  facet normal 1 0 0
    outer loop
      vertex 3 -1.45358 10.5063
      vertex 3 -15.6224 3.05917
      vertex 3 -16.0322 0
    endloop
  endfacet
  facet normal 1 0 0
    outer loop
      vertex 3 0 10.25
      vertex 3 -16.0322 0
      vertex 3 16.0322 0
    endloop
  endfacet
  facet normal 0 0.991147 0.132772
    outer loop
      vertex 3 16.0322 0
      vertex 0 15.6224 3.05917
      vertex 3 15.6224 3.05917
    endloop
  endfacet
  facet normal 0 0.991147 0.132772
    outer loop
      vertex 0 15.6224 3.05917
      vertex 3 16.0322 0
      vertex 0 16.0322 0
    endloop
  endfacet
  facet normal 0 0.894423 0.447222
    outer loop
      vertex 3 12.7355 13.0597
      vertex 0 10.6863 17.158
      vertex 3 10.6863 17.158
    endloop
  endfacet
  facet normal 0 0.894423 0.447222
    outer loop
      vertex 0 10.6863 17.158
      vertex 3 12.7355 13.0597
      vertex 0 12.7355 13.0597
    endloop
  endfacet
  facet normal 0 -0.943827 0.33044
    outer loop
      vertex 0 -14.3977 8.312
      vertex 3 -12.7355 13.0597
      vertex 0 -12.7355 13.0597
    endloop
  endfacet
  facet normal 0 -0.943827 0.33044
    outer loop
      vertex 3 -12.7355 13.0597
      vertex 0 -14.3977 8.312
      vertex 3 -14.3977 8.312
    endloop
  endfacet
  facet normal -0 0.472353 0.881409
    outer loop
      vertex 0 5.68608 22.9318
      vertex 3 2.8869 24.4319
      vertex 3 5.68608 22.9318
    endloop
  endfacet
  facet normal 0 0.472353 0.881409
    outer loop
      vertex 3 2.8869 24.4319
      vertex 0 5.68608 22.9318
      vertex 0 2.8869 24.4319
    endloop
  endfacet
  facet normal 0 -0.172345 0.985037
    outer loop
      vertex 0 0 24.937
      vertex 3 -2.8869 24.4319
      vertex 3 0 24.937
    endloop
  endfacet
  facet normal 0 -0.172345 0.985037
    outer loop
      vertex 3 -2.8869 24.4319
      vertex 0 0 24.937
      vertex 0 -2.8869 24.4319
    endloop
  endfacet
  facet normal 0 -0.813815 0.581125
    outer loop
      vertex 0 -10.6863 17.158
      vertex 3 -8.3125 20.4823
      vertex 0 -8.3125 20.4823
    endloop
  endfacet
  facet normal 0 -0.813815 0.581125
    outer loop
      vertex 3 -8.3125 20.4823
      vertex 0 -10.6863 17.158
      vertex 3 -10.6863 17.158
    endloop
  endfacet
  facet normal 0 -0.991147 0.132772
    outer loop
      vertex 0 -16.0322 0
      vertex 3 -15.6224 3.05917
      vertex 0 -15.6224 3.05917
    endloop
  endfacet
  facet normal 0 -0.991147 0.132772
    outer loop
      vertex 3 -15.6224 3.05917
      vertex 0 -16.0322 0
      vertex 3 -16.0322 0
    endloop
  endfacet
  facet normal 0 0.973881 0.227061
    outer loop
      vertex 3 15.6224 3.05917
      vertex 0 14.3977 8.312
      vertex 3 14.3977 8.312
    endloop
  endfacet
  facet normal 0 0.973881 0.227061
    outer loop
      vertex 0 14.3977 8.312
      vertex 3 15.6224 3.05917
      vertex 0 15.6224 3.05917
    endloop
  endfacet
  facet normal -0 0.682047 0.731309
    outer loop
      vertex 0 8.3125 20.4823
      vertex 3 5.68608 22.9318
      vertex 3 8.3125 20.4823
    endloop
  endfacet
  facet normal 0 0.682047 0.731309
    outer loop
      vertex 3 5.68608 22.9318
      vertex 0 8.3125 20.4823
      vertex 0 5.68608 22.9318
    endloop
  endfacet
  facet normal 0 0.943827 0.33044
    outer loop
      vertex 3 14.3977 8.312
      vertex 0 12.7355 13.0597
      vertex 3 12.7355 13.0597
    endloop
  endfacet
  facet normal 0 0.943827 0.33044
    outer loop
      vertex 0 12.7355 13.0597
      vertex 3 14.3977 8.312
      vertex 0 14.3977 8.312
    endloop
  endfacet
  facet normal 0 -0.472353 0.881409
    outer loop
      vertex 0 -2.8869 24.4319
      vertex 3 -5.68608 22.9318
      vertex 3 -2.8869 24.4319
    endloop
  endfacet
  facet normal 0 -0.472353 0.881409
    outer loop
      vertex 3 -5.68608 22.9318
      vertex 0 -2.8869 24.4319
      vertex 0 -5.68608 22.9318
    endloop
  endfacet
  facet normal 0 -0.682047 0.731309
    outer loop
      vertex 0 -5.68608 22.9318
      vertex 3 -8.3125 20.4823
      vertex 3 -5.68608 22.9318
    endloop
  endfacet
  facet normal 0 -0.682047 0.731309
    outer loop
      vertex 3 -8.3125 20.4823
      vertex 0 -5.68608 22.9318
      vertex 0 -8.3125 20.4823
    endloop
  endfacet
  facet normal -0 0.172345 0.985037
    outer loop
      vertex 0 2.8869 24.4319
      vertex 3 0 24.937
      vertex 3 2.8869 24.4319
    endloop
  endfacet
  facet normal 0 0.172345 0.985037
    outer loop
      vertex 3 0 24.937
      vertex 0 2.8869 24.4319
      vertex 0 0 24.937
    endloop
  endfacet
  facet normal -1 0 0
    outer loop
      vertex 0 18 -2
      vertex 0 16.0322 0
      vertex 0 18 0
    endloop
  endfacet
  facet normal -1 0 0
    outer loop
      vertex 0 -15.6224 3.05917
      vertex 0 15.6224 3.05917
      vertex 0 16.0322 0
    endloop
  endfacet
  facet normal -1 0 0
    outer loop
      vertex 0 15.6224 3.05917
      vertex 0 -15.6224 3.05917
      vertex 0 14.3977 8.312
    endloop
  endfacet
  facet normal -1 0 0
    outer loop
      vertex 0 14.3977 8.312
      vertex 0 -14.3977 8.312
      vertex 0 12.7355 13.0597
    endloop
  endfacet
  facet normal -1 0 -0
    outer loop
      vertex 0 -12.7355 13.0597
      vertex 0 12.7355 13.0597
      vertex 0 -14.3977 8.312
    endloop
  endfacet
  facet normal -1 0 -0
    outer loop
      vertex 0 -10.6863 17.158
      vertex 0 10.6863 17.158
      vertex 0 -12.7355 13.0597
    endloop
  endfacet
  facet normal -1 0 0
    outer loop
      vertex 0 10.6863 17.158
      vertex 0 -10.6863 17.158
      vertex 0 8.3125 20.4823
    endloop
  endfacet
  facet normal -1 0 0
    outer loop
      vertex 0 8.3125 20.4823
      vertex 0 -8.3125 20.4823
      vertex 0 5.68608 22.9318
    endloop
  endfacet
  facet normal -1 0 -0
    outer loop
      vertex 0 -5.68608 22.9318
      vertex 0 5.68608 22.9318
      vertex 0 -8.3125 20.4823
    endloop
  endfacet
  facet normal -1 0 -0
    outer loop
      vertex 0 -2.8869 24.4319
      vertex 0 2.8869 24.4319
      vertex 0 -5.68608 22.9318
    endloop
  endfacet
  facet normal -1 0 0
    outer loop
      vertex 0 2.8869 24.4319
      vertex 0 -2.8869 24.4319
      vertex 0 0 24.937
    endloop
  endfacet
  facet normal -1 0 0
    outer loop
      vertex 0 -16.0322 0
      vertex 0 16.0322 0
      vertex 0 18 -2
    endloop
  endfacet
  facet normal -1 0 0
    outer loop
      vertex 0 5.68608 22.9318
      vertex 0 -5.68608 22.9318
      vertex 0 2.8869 24.4319
    endloop
  endfacet
  facet normal -1 0 -0
    outer loop
      vertex 0 -8.3125 20.4823
      vertex 0 8.3125 20.4823
      vertex 0 -10.6863 17.158
    endloop
  endfacet
  facet normal -1 0 0
    outer loop
      vertex 0 12.7355 13.0597
      vertex 0 -12.7355 13.0597
      vertex 0 10.6863 17.158
    endloop
  endfacet
  facet normal -1 -0 0
    outer loop
      vertex 0 14.3977 8.312
      vertex 0 -15.6224 3.05917
      vertex 0 -14.3977 8.312
    endloop
  endfacet
  facet normal -1 0 0
    outer loop
      vertex 0 16.0322 0
      vertex 0 -16.0322 0
      vertex 0 -15.6224 3.05917
    endloop
  endfacet
  facet normal -1 0 0
    outer loop
      vertex 0 -18 -2
      vertex 0 -16.0322 0
      vertex 0 18 -2
    endloop
  endfacet
  facet normal -1 -0 0
    outer loop
      vertex 0 -16.0322 0
      vertex 0 -18 -2
      vertex 0 -18 0
    endloop
  endfacet
  facet normal 0 0.813815 0.581125
    outer loop
      vertex 3 10.6863 17.158
      vertex 0 8.3125 20.4823
      vertex 3 8.3125 20.4823
    endloop
  endfacet
  facet normal 0 0.813815 0.581125
    outer loop
      vertex 0 8.3125 20.4823
      vertex 3 10.6863 17.158
      vertex 0 10.6863 17.158
    endloop
  endfacet
  facet normal 0 -0.894423 0.447222
    outer loop
      vertex 0 -12.7355 13.0597
      vertex 3 -10.6863 17.158
      vertex 0 -10.6863 17.158
    endloop
  endfacet
  facet normal 0 -0.894423 0.447222
    outer loop
      vertex 3 -10.6863 17.158
      vertex 0 -12.7355 13.0597
      vertex 3 -12.7355 13.0597
    endloop
  endfacet
  facet normal 0 -0.973881 0.227061
    outer loop
      vertex 0 -15.6224 3.05917
      vertex 3 -14.3977 8.312
      vertex 0 -14.3977 8.312
    endloop
  endfacet
  facet normal 0 -0.973881 0.227061
    outer loop
      vertex 3 -14.3977 8.312
      vertex 0 -15.6224 3.05917
      vertex 3 -15.6224 3.05917
    endloop
  endfacet
  facet normal 0 0 1
    outer loop
      vertex 52 18 0
      vertex 45.5 7.1 0
      vertex 52 -18 0
    endloop
  endfacet
  facet normal 0 0 1
    outer loop
      vertex 52 18 0
      vertex 40.5 7.1 0
      vertex 45.5 7.1 0
    endloop
  endfacet
  facet normal 0 0 1
    outer loop
      vertex 40.5 7.1 0
      vertex 3 16.0322 0
      vertex 40.5 -7.1 0
    endloop
  endfacet
  facet normal 0 0 1
    outer loop
      vertex 52 18 0
      vertex 3 16.0322 0
      vertex 40.5 7.1 0
    endloop
  endfacet
  facet normal -0 0 1
    outer loop
      vertex 0 18 0
      vertex 3 16.0322 0
      vertex 52 18 0
    endloop
  endfacet
  facet normal 0 0 1
    outer loop
      vertex 3 16.0322 0
      vertex 0 18 0
      vertex 0 16.0322 0
    endloop
  endfacet
  facet normal -0 0 1
    outer loop
      vertex 45.5 -7.1 0
      vertex 52 -18 0
      vertex 45.5 7.1 0
    endloop
  endfacet
  facet normal -0 0 1
    outer loop
      vertex 40.5 -7.1 0
      vertex 52 -18 0
      vertex 45.5 -7.1 0
    endloop
  endfacet
  facet normal 0 0 1
    outer loop
      vertex 3 -16.0322 0
      vertex 40.5 -7.1 0
      vertex 3 16.0322 0
    endloop
  endfacet
  facet normal 0 0 1
    outer loop
      vertex 40.5 -7.1 0
      vertex 3 -16.0322 0
      vertex 52 -18 0
    endloop
  endfacet
  facet normal 0 0 1
    outer loop
      vertex 0 -18 0
      vertex 3 -16.0322 0
      vertex 0 -16.0322 0
    endloop
  endfacet
  facet normal 0 0 1
    outer loop
      vertex 3 -16.0322 0
      vertex 0 -18 0
      vertex 52 -18 0
    endloop
  endfacet
  facet normal 1 0 0
    outer loop
      vertex 45.5 -5.9 18.5
      vertex 45.5 -7.1 18.5
      vertex 45.5 -5.9 9.5
    endloop
  endfacet
  facet normal 1 0 0
    outer loop
      vertex 45.5 5.9 9.5
      vertex 45.5 7.1 18.5
      vertex 45.5 5.9 18.5
    endloop
  endfacet
  facet normal 1 0 0
    outer loop
      vertex 45.5 7.1 18.5
      vertex 45.5 5.9 9.5
      vertex 45.5 7.1 0
    endloop
  endfacet
  facet normal 1 -0 0
    outer loop
      vertex 45.5 -5.9 9.5
      vertex 45.5 7.1 0
      vertex 45.5 5.9 9.5
    endloop
  endfacet
  facet normal 1 0 0
    outer loop
      vertex 45.5 -5.9 9.5
      vertex 45.5 -7.1 0
      vertex 45.5 7.1 0
    endloop
  endfacet
  facet normal 1 0 0
    outer loop
      vertex 45.5 -7.1 0
      vertex 45.5 -5.9 9.5
      vertex 45.5 -7.1 18.5
    endloop
  endfacet
  facet normal -0 0 1
    outer loop
      vertex 40.5 5.9 9.5
      vertex 45.5 -5.9 9.5
      vertex 45.5 5.9 9.5
    endloop
  endfacet
  facet normal 0 0 1
    outer loop
      vertex 45.5 -5.9 9.5
      vertex 40.5 5.9 9.5
      vertex 40.5 -5.9 9.5
    endloop
  endfacet
  facet normal -1 0 0
    outer loop
      vertex 40.5 7.1 0
      vertex 40.5 5.9 9.5
      vertex 40.5 7.1 18.5
    endloop
  endfacet
  facet normal -1 0 0
    outer loop
      vertex 40.5 7.1 0
      vertex 40.5 -5.9 9.5
      vertex 40.5 5.9 9.5
    endloop
  endfacet
  facet normal -1 0 0
    outer loop
      vertex 40.5 -7.1 0
      vertex 40.5 -5.9 9.5
      vertex 40.5 7.1 0
    endloop
  endfacet
  facet normal -1 0 0
    outer loop
      vertex 40.5 -7.1 18.5
      vertex 40.5 -5.9 9.5
      vertex 40.5 -7.1 0
    endloop
  endfacet
  facet normal -1 0 0
    outer loop
      vertex 40.5 -5.9 9.5
      vertex 40.5 -7.1 18.5
      vertex 40.5 -5.9 18.5
    endloop
  endfacet
  facet normal -1 -0 0
    outer loop
      vertex 40.5 7.1 18.5
      vertex 40.5 5.9 9.5
      vertex 40.5 5.9 18.5
    endloop
  endfacet
  facet normal 0 -1 0
    outer loop
      vertex 40.5 5.9 9.5
      vertex 45.5 5.9 18.5
      vertex 40.5 5.9 18.5
    endloop
  endfacet
  facet normal 0 -1 -0
    outer loop
      vertex 45.5 5.9 18.5
      vertex 40.5 5.9 9.5
      vertex 45.5 5.9 9.5
    endloop
  endfacet
  facet normal 0 1 -0
    outer loop
      vertex 45.5 -5.9 9.5
      vertex 40.5 -5.9 18.5
      vertex 45.5 -5.9 18.5
    endloop
  endfacet
  facet normal 0 1 0
    outer loop
      vertex 40.5 -5.9 18.5
      vertex 45.5 -5.9 9.5
      vertex 40.5 -5.9 9.5
    endloop
  endfacet
  facet normal -0 0 1
    outer loop
      vertex 40.5 7.1 18.5
      vertex 45.5 5.9 18.5
      vertex 45.5 7.1 18.5
    endloop
  endfacet
  facet normal 0 0 1
    outer loop
      vertex 45.5 5.9 18.5
      vertex 40.5 7.1 18.5
      vertex 40.5 5.9 18.5
    endloop
  endfacet
  facet normal 0 1 -0
    outer loop
      vertex 45.5 7.1 0
      vertex 40.5 7.1 18.5
      vertex 45.5 7.1 18.5
    endloop
  endfacet
  facet normal 0 1 0
    outer loop
      vertex 40.5 7.1 18.5
      vertex 45.5 7.1 0
      vertex 40.5 7.1 0
    endloop
  endfacet
  facet normal -0 0 1
    outer loop
      vertex 40.5 -5.9 18.5
      vertex 45.5 -7.1 18.5
      vertex 45.5 -5.9 18.5
    endloop
  endfacet
  facet normal 0 0 1
    outer loop
      vertex 45.5 -7.1 18.5
      vertex 40.5 -5.9 18.5
      vertex 40.5 -7.1 18.5
    endloop
  endfacet
  facet normal 0 -1 0
    outer loop
      vertex 40.5 -7.1 0
      vertex 45.5 -7.1 18.5
      vertex 40.5 -7.1 18.5
    endloop
  endfacet
  facet normal 0 -1 -0
    outer loop
      vertex 45.5 -7.1 18.5
      vertex 40.5 -7.1 0
      vertex 45.5 -7.1 0
    endloop
  endfacet
  facet normal 1 -0 0
    outer loop
      vertex 52 -18 0
      vertex 52 18 -2
      vertex 52 18 0
    endloop
  endfacet
  facet normal 1 0 0
    outer loop
      vertex 52 18 -2
      vertex 52 -18 0
      vertex 52 -18 -2
    endloop
  endfacet
  facet normal 0 0 -1
    outer loop
      vertex 0 -18 -2
      vertex 52 18 -2
      vertex 52 -18 -2
    endloop
  endfacet
  facet normal -0 0 -1
    outer loop
      vertex 52 18 -2
      vertex 0 -18 -2
      vertex 0 18 -2
    endloop
  endfacet
  facet normal 0 1 -0
    outer loop
      vertex 52 18 -2
      vertex 0 18 0
      vertex 52 18 0
    endloop
  endfacet
  facet normal 0 1 0
    outer loop
      vertex 0 18 0
      vertex 52 18 -2
      vertex 0 18 -2
    endloop
  endfacet
  facet normal 0 -1 0
    outer loop
      vertex 0 -18 -2
      vertex 52 -18 0
      vertex 0 -18 0
    endloop
  endfacet
  facet normal 0 -1 -0
    outer loop
      vertex 52 -18 0
      vertex 0 -18 -2
      vertex 52 -18 -2
    endloop
  endfacet
  facet normal 0 -0.422631 0.906302
    outer loop
      vertex 0.95 2.125 10.8194
      vertex 3 1.45358 10.5063
      vertex 3 2.125 10.8194
    endloop
  endfacet
  facet normal 0 -0.422631 0.906302
    outer loop
      vertex 3 1.45358 10.5063
      vertex 0.95 2.125 10.8194
      vertex 0.95 1.45358 10.5063
    endloop
  endfacet
  facet normal 0 0.996194 0.0871603
    outer loop
      vertex 3 -4.18543 13.762
      vertex 0.95 -4.25 14.5
      vertex 3 -4.25 14.5
    endloop
  endfacet
  facet normal 0 0.996194 0.0871603
    outer loop
      vertex 0.95 -4.25 14.5
      vertex 3 -4.18543 13.762
      vertex 0.95 -4.18543 13.762
    endloop
  endfacet
  facet normal 0 0.906307 0.422619
    outer loop
      vertex 3 -3.68061 12.375
      vertex 0.95 -3.99369 13.0464
      vertex 3 -3.99369 13.0464
    endloop
  endfacet
  facet normal 0 0.906307 0.422619
    outer loop
      vertex 0.95 -3.99369 13.0464
      vertex 3 -3.68061 12.375
      vertex 0.95 -3.68061 12.375
    endloop
  endfacet
  facet normal 0 -0.906307 0.422619
    outer loop
      vertex 0.95 3.68061 12.375
      vertex 3 3.99369 13.0464
      vertex 0.95 3.99369 13.0464
    endloop
  endfacet
  facet normal 0 -0.906307 0.422619
    outer loop
      vertex 3 3.99369 13.0464
      vertex 0.95 3.68061 12.375
      vertex 3 3.68061 12.375
    endloop
  endfacet
  facet normal 0 -0.573557 -0.819165
    outer loop
      vertex 0.95 2.125 18.1806
      vertex 3 2.73185 17.7557
      vertex 3 2.125 18.1806
    endloop
  endfacet
  facet normal -0 -0.573557 -0.819165
    outer loop
      vertex 3 2.73185 17.7557
      vertex 0.95 2.125 18.1806
      vertex 0.95 2.73185 17.7557
    endloop
  endfacet
  facet normal 0 -0.422631 -0.906302
    outer loop
      vertex 0.95 1.45358 18.4937
      vertex 3 2.125 18.1806
      vertex 3 1.45358 18.4937
    endloop
  endfacet
  facet normal -0 -0.422631 -0.906302
    outer loop
      vertex 3 2.125 18.1806
      vertex 0.95 1.45358 18.4937
      vertex 0.95 2.125 18.1806
    endloop
  endfacet
  facet normal 0 -0.906307 -0.422619
    outer loop
      vertex 0.95 3.99369 15.9536
      vertex 3 3.68061 16.625
      vertex 0.95 3.68061 16.625
    endloop
  endfacet
  facet normal 0 -0.906307 -0.422619
    outer loop
      vertex 3 3.68061 16.625
      vertex 0.95 3.99369 15.9536
      vertex 3 3.99369 15.9536
    endloop
  endfacet
  facet normal 0 -0.0871999 0.996191
    outer loop
      vertex 0.95 0.738005 10.3146
      vertex 3 0 10.25
      vertex 3 0.738005 10.3146
    endloop
  endfacet
  facet normal 0 -0.0871999 0.996191
    outer loop
      vertex 3 0 10.25
      vertex 0.95 0.738005 10.3146
      vertex 0.95 0 10.25
    endloop
  endfacet
  facet normal 0 -0.996194 0.0871603
    outer loop
      vertex 0.95 4.18543 13.762
      vertex 3 4.25 14.5
      vertex 0.95 4.25 14.5
    endloop
  endfacet
  facet normal 0 -0.996194 0.0871603
    outer loop
      vertex 3 4.25 14.5
      vertex 0.95 4.18543 13.762
      vertex 3 4.18543 13.762
    endloop
  endfacet
  facet normal 0 0.0871999 -0.996191
    outer loop
      vertex 0.95 -0.738005 18.6854
      vertex 3 0 18.75
      vertex 3 -0.738005 18.6854
    endloop
  endfacet
  facet normal 0 0.0871999 -0.996191
    outer loop
      vertex 3 0 18.75
      vertex 0.95 -0.738005 18.6854
      vertex 0.95 0 18.75
    endloop
  endfacet
  facet normal -0 0.422631 0.906302
    outer loop
      vertex 0.95 -1.45358 10.5063
      vertex 3 -2.125 10.8194
      vertex 3 -1.45358 10.5063
    endloop
  endfacet
  facet normal 0 0.422631 0.906302
    outer loop
      vertex 3 -2.125 10.8194
      vertex 0.95 -1.45358 10.5063
      vertex 0.95 -2.125 10.8194
    endloop
  endfacet
  facet normal -0 0.573557 0.819165
    outer loop
      vertex 0.95 -2.125 10.8194
      vertex 3 -2.73185 11.2443
      vertex 3 -2.125 10.8194
    endloop
  endfacet
  facet normal 0 0.573557 0.819165
    outer loop
      vertex 3 -2.73185 11.2443
      vertex 0.95 -2.125 10.8194
      vertex 0.95 -2.73185 11.2443
    endloop
  endfacet
  facet normal 0 0.965927 0.258813
    outer loop
      vertex 3 -3.99369 13.0464
      vertex 0.95 -4.18543 13.762
      vertex 3 -4.18543 13.762
    endloop
  endfacet
  facet normal 0 0.965927 0.258813
    outer loop
      vertex 0.95 -4.18543 13.762
      vertex 3 -3.99369 13.0464
      vertex 0.95 -3.99369 13.0464
    endloop
  endfacet
  facet normal 0 0.965927 -0.258813
    outer loop
      vertex 3 -4.18543 15.238
      vertex 0.95 -3.99369 15.9536
      vertex 3 -3.99369 15.9536
    endloop
  endfacet
  facet normal 0 0.965927 -0.258813
    outer loop
      vertex 0.95 -3.99369 15.9536
      vertex 3 -4.18543 15.238
      vertex 0.95 -4.18543 15.238
    endloop
  endfacet
  facet normal -0 0.0871999 0.996191
    outer loop
      vertex 0.95 0 10.25
      vertex 3 -0.738005 10.3146
      vertex 3 0 10.25
    endloop
  endfacet
  facet normal 0 0.0871999 0.996191
    outer loop
      vertex 3 -0.738005 10.3146
      vertex 0.95 0 10.25
      vertex 0.95 -0.738005 10.3146
    endloop
  endfacet
  facet normal 0 -0.258772 0.965939
    outer loop
      vertex 0.95 1.45358 10.5063
      vertex 3 0.738005 10.3146
      vertex 3 1.45358 10.5063
    endloop
  endfacet
  facet normal 0 -0.258772 0.965939
    outer loop
      vertex 3 0.738005 10.3146
      vertex 0.95 1.45358 10.5063
      vertex 0.95 0.738005 10.3146
    endloop
  endfacet
  facet normal 0 0.707147 0.707066
    outer loop
      vertex 3 -2.73185 11.2443
      vertex 0.95 -3.25569 11.7682
      vertex 3 -3.25569 11.7682
    endloop
  endfacet
  facet normal 0 0.707147 0.707066
    outer loop
      vertex 0.95 -3.25569 11.7682
      vertex 3 -2.73185 11.2443
      vertex 0.95 -2.73185 11.2443
    endloop
  endfacet
  facet normal 0 -0.81913 -0.573607
    outer loop
      vertex 0.95 3.68061 16.625
      vertex 3 3.25569 17.2318
      vertex 0.95 3.25569 17.2318
    endloop
  endfacet
  facet normal 0 -0.81913 -0.573607
    outer loop
      vertex 3 3.25569 17.2318
      vertex 0.95 3.68061 16.625
      vertex 3 3.68061 16.625
    endloop
  endfacet
  facet normal 0 -0.573557 0.819165
    outer loop
      vertex 0.95 2.73185 11.2443
      vertex 3 2.125 10.8194
      vertex 3 2.73185 11.2443
    endloop
  endfacet
  facet normal 0 -0.573557 0.819165
    outer loop
      vertex 3 2.125 10.8194
      vertex 0.95 2.73185 11.2443
      vertex 0.95 2.125 10.8194
    endloop
  endfacet
  facet normal 0 -0.0871999 -0.996191
    outer loop
      vertex 0.95 0 18.75
      vertex 3 0.738005 18.6854
      vertex 3 0 18.75
    endloop
  endfacet
  facet normal -0 -0.0871999 -0.996191
    outer loop
      vertex 3 0.738005 18.6854
      vertex 0.95 0 18.75
      vertex 0.95 0.738005 18.6854
    endloop
  endfacet
  facet normal 0 0.81913 0.573607
    outer loop
      vertex 3 -3.25569 11.7682
      vertex 0.95 -3.68061 12.375
      vertex 3 -3.68061 12.375
    endloop
  endfacet
  facet normal 0 0.81913 0.573607
    outer loop
      vertex 0.95 -3.68061 12.375
      vertex 3 -3.25569 11.7682
      vertex 0.95 -3.25569 11.7682
    endloop
  endfacet
  facet normal 0 -0.707147 0.707066
    outer loop
      vertex 0.95 2.73185 11.2443
      vertex 3 3.25569 11.7682
      vertex 0.95 3.25569 11.7682
    endloop
  endfacet
  facet normal 0 -0.707147 0.707066
    outer loop
      vertex 3 3.25569 11.7682
      vertex 0.95 2.73185 11.2443
      vertex 3 2.73185 11.2443
    endloop
  endfacet
  facet normal 0 -0.81913 0.573607
    outer loop
      vertex 0.95 3.25569 11.7682
      vertex 3 3.68061 12.375
      vertex 0.95 3.68061 12.375
    endloop
  endfacet
  facet normal 0 -0.81913 0.573607
    outer loop
      vertex 3 3.68061 12.375
      vertex 0.95 3.25569 11.7682
      vertex 3 3.25569 11.7682
    endloop
  endfacet
  facet normal -0 0.258772 0.965939
    outer loop
      vertex 0.95 -0.738005 10.3146
      vertex 3 -1.45358 10.5063
      vertex 3 -0.738005 10.3146
    endloop
  endfacet
  facet normal 0 0.258772 0.965939
    outer loop
      vertex 3 -1.45358 10.5063
      vertex 0.95 -0.738005 10.3146
      vertex 0.95 -1.45358 10.5063
    endloop
  endfacet
  facet normal 0 0.996194 -0.0871603
    outer loop
      vertex 3 -4.25 14.5
      vertex 0.95 -4.18543 15.238
      vertex 3 -4.18543 15.238
    endloop
  endfacet
  facet normal 0 0.996194 -0.0871603
    outer loop
      vertex 0.95 -4.18543 15.238
      vertex 3 -4.25 14.5
      vertex 0.95 -4.25 14.5
    endloop
  endfacet
  facet normal 0 -0.965927 -0.258813
    outer loop
      vertex 0.95 4.18543 15.238
      vertex 3 3.99369 15.9536
      vertex 0.95 3.99369 15.9536
    endloop
  endfacet
  facet normal 0 -0.965927 -0.258813
    outer loop
      vertex 3 3.99369 15.9536
      vertex 0.95 4.18543 15.238
      vertex 3 4.18543 15.238
    endloop
  endfacet
  facet normal 0 -0.996194 -0.0871603
    outer loop
      vertex 0.95 4.25 14.5
      vertex 3 4.18543 15.238
      vertex 0.95 4.18543 15.238
    endloop
  endfacet
  facet normal 0 -0.996194 -0.0871603
    outer loop
      vertex 3 4.18543 15.238
      vertex 0.95 4.25 14.5
      vertex 3 4.25 14.5
    endloop
  endfacet
  facet normal 0 0.422631 -0.906302
    outer loop
      vertex 0.95 -2.125 18.1806
      vertex 3 -1.45358 18.4937
      vertex 3 -2.125 18.1806
    endloop
  endfacet
  facet normal 0 0.422631 -0.906302
    outer loop
      vertex 3 -1.45358 18.4937
      vertex 0.95 -2.125 18.1806
      vertex 0.95 -1.45358 18.4937
    endloop
  endfacet
  facet normal 0 0.906307 -0.422619
    outer loop
      vertex 3 -3.99369 15.9536
      vertex 0.95 -3.68061 16.625
      vertex 3 -3.68061 16.625
    endloop
  endfacet
  facet normal 0 0.906307 -0.422619
    outer loop
      vertex 0.95 -3.68061 16.625
      vertex 3 -3.99369 15.9536
      vertex 0.95 -3.99369 15.9536
    endloop
  endfacet
  facet normal 0 0.258772 -0.965939
    outer loop
      vertex 0.95 -1.45358 18.4937
      vertex 3 -0.738005 18.6854
      vertex 3 -1.45358 18.4937
    endloop
  endfacet
  facet normal 0 0.258772 -0.965939
    outer loop
      vertex 3 -0.738005 18.6854
      vertex 0.95 -1.45358 18.4937
      vertex 0.95 -0.738005 18.6854
    endloop
  endfacet
  facet normal 0 0.573557 -0.819165
    outer loop
      vertex 0.95 -2.73185 17.7557
      vertex 3 -2.125 18.1806
      vertex 3 -2.73185 17.7557
    endloop
  endfacet
  facet normal 0 0.573557 -0.819165
    outer loop
      vertex 3 -2.125 18.1806
      vertex 0.95 -2.73185 17.7557
      vertex 0.95 -2.125 18.1806
    endloop
  endfacet
  facet normal 0 0.707147 -0.707066
    outer loop
      vertex 3 -3.25569 17.2318
      vertex 0.95 -2.73185 17.7557
      vertex 3 -2.73185 17.7557
    endloop
  endfacet
  facet normal 0 0.707147 -0.707066
    outer loop
      vertex 0.95 -2.73185 17.7557
      vertex 3 -3.25569 17.2318
      vertex 0.95 -3.25569 17.2318
    endloop
  endfacet
  facet normal 0 -0.965927 0.258813
    outer loop
      vertex 0.95 3.99369 13.0464
      vertex 3 4.18543 13.762
      vertex 0.95 4.18543 13.762
    endloop
  endfacet
  facet normal 0 -0.965927 0.258813
    outer loop
      vertex 3 4.18543 13.762
      vertex 0.95 3.99369 13.0464
      vertex 3 3.99369 13.0464
    endloop
  endfacet
  facet normal 1 0 0
    outer loop
      vertex 0.95 4.18543 15.238
      vertex 0.95 4.18543 13.762
      vertex 0.95 4.25 14.5
    endloop
  endfacet
  facet normal 1 0 0
    outer loop
      vertex 0.95 3.99369 15.9536
      vertex 0.95 4.18543 13.762
      vertex 0.95 4.18543 15.238
    endloop
  endfacet
  facet normal 1 0 0
    outer loop
      vertex 0.95 3.99369 15.9536
      vertex 0.95 3.99369 13.0464
      vertex 0.95 4.18543 13.762
    endloop
  endfacet
  facet normal 1 0 0
    outer loop
      vertex 0.95 3.68061 16.625
      vertex 0.95 3.99369 13.0464
      vertex 0.95 3.99369 15.9536
    endloop
  endfacet
  facet normal 1 0 0
    outer loop
      vertex 0.95 3.68061 16.625
      vertex 0.95 3.68061 12.375
      vertex 0.95 3.99369 13.0464
    endloop
  endfacet
  facet normal 1 0 0
    outer loop
      vertex 0.95 3.25569 17.2318
      vertex 0.95 3.68061 12.375
      vertex 0.95 3.68061 16.625
    endloop
  endfacet
  facet normal 1 0 0
    outer loop
      vertex 0.95 3.25569 17.2318
      vertex 0.95 3.25569 11.7682
      vertex 0.95 3.68061 12.375
    endloop
  endfacet
  facet normal 1 0 0
    outer loop
      vertex 0.95 2.73185 17.7557
      vertex 0.95 3.25569 11.7682
      vertex 0.95 3.25569 17.2318
    endloop
  endfacet
  facet normal 1 0 0
    outer loop
      vertex 0.95 2.73185 17.7557
      vertex 0.95 2.73185 11.2443
      vertex 0.95 3.25569 11.7682
    endloop
  endfacet
  facet normal 1 0 0
    outer loop
      vertex 0.95 2.125 18.1806
      vertex 0.95 2.73185 11.2443
      vertex 0.95 2.73185 17.7557
    endloop
  endfacet
  facet normal 1 0 0
    outer loop
      vertex 0.95 2.125 18.1806
      vertex 0.95 2.125 10.8194
      vertex 0.95 2.73185 11.2443
    endloop
  endfacet
  facet normal 1 0 0
    outer loop
      vertex 0.95 1.45358 18.4937
      vertex 0.95 2.125 10.8194
      vertex 0.95 2.125 18.1806
    endloop
  endfacet
  facet normal 1 0 0
    outer loop
      vertex 0.95 1.45358 18.4937
      vertex 0.95 1.45358 10.5063
      vertex 0.95 2.125 10.8194
    endloop
  endfacet
  facet normal 1 0 0
    outer loop
      vertex 0.95 0.738005 18.6854
      vertex 0.95 1.45358 10.5063
      vertex 0.95 1.45358 18.4937
    endloop
  endfacet
  facet normal 1 0 0
    outer loop
      vertex 0.95 0.738005 18.6854
      vertex 0.95 0.738005 10.3146
      vertex 0.95 1.45358 10.5063
    endloop
  endfacet
  facet normal 1 0 0
    outer loop
      vertex 0.95 0 18.75
      vertex 0.95 0.738005 10.3146
      vertex 0.95 0.738005 18.6854
    endloop
  endfacet
  facet normal 1 0 0
    outer loop
      vertex 0.95 0 18.75
      vertex 0.95 0 10.25
      vertex 0.95 0.738005 10.3146
    endloop
  endfacet
  facet normal 1 -0 0
    outer loop
      vertex 0.95 -0.738005 18.6854
      vertex 0.95 0 10.25
      vertex 0.95 0 18.75
    endloop
  endfacet
  facet normal 1 0 0
    outer loop
      vertex 0.95 -0.738005 18.6854
      vertex 0.95 -0.738005 10.3146
      vertex 0.95 0 10.25
    endloop
  endfacet
  facet normal 1 -0 0
    outer loop
      vertex 0.95 -1.45358 18.4937
      vertex 0.95 -0.738005 10.3146
      vertex 0.95 -0.738005 18.6854
    endloop
  endfacet
  facet normal 1 0 0
    outer loop
      vertex 0.95 -1.45358 18.4937
      vertex 0.95 -1.45358 10.5063
      vertex 0.95 -0.738005 10.3146
    endloop
  endfacet
  facet normal 1 -0 0
    outer loop
      vertex 0.95 -2.125 18.1806
      vertex 0.95 -1.45358 10.5063
      vertex 0.95 -1.45358 18.4937
    endloop
  endfacet
  facet normal 1 0 0
    outer loop
      vertex 0.95 -2.125 18.1806
      vertex 0.95 -2.125 10.8194
      vertex 0.95 -1.45358 10.5063
    endloop
  endfacet
  facet normal 1 -0 0
    outer loop
      vertex 0.95 -2.73185 17.7557
      vertex 0.95 -2.125 10.8194
      vertex 0.95 -2.125 18.1806
    endloop
  endfacet
  facet normal 1 0 0
    outer loop
      vertex 0.95 -2.73185 17.7557
      vertex 0.95 -2.73185 11.2443
      vertex 0.95 -2.125 10.8194
    endloop
  endfacet
  facet normal 1 -0 0
    outer loop
      vertex 0.95 -3.25569 17.2318
      vertex 0.95 -2.73185 11.2443
      vertex 0.95 -2.73185 17.7557
    endloop
  endfacet
  facet normal 1 0 0
    outer loop
      vertex 0.95 -3.25569 17.2318
      vertex 0.95 -3.25569 11.7682
      vertex 0.95 -2.73185 11.2443
    endloop
  endfacet
  facet normal 1 -0 0
    outer loop
      vertex 0.95 -3.68061 16.625
      vertex 0.95 -3.25569 11.7682
      vertex 0.95 -3.25569 17.2318
    endloop
  endfacet
  facet normal 1 0 0
    outer loop
      vertex 0.95 -3.68061 16.625
      vertex 0.95 -3.68061 12.375
      vertex 0.95 -3.25569 11.7682
    endloop
  endfacet
  facet normal 1 -0 0
    outer loop
      vertex 0.95 -3.99369 15.9536
      vertex 0.95 -3.68061 12.375
      vertex 0.95 -3.68061 16.625
    endloop
  endfacet
  facet normal 1 0 0
    outer loop
      vertex 0.95 -3.99369 15.9536
      vertex 0.95 -3.99369 13.0464
      vertex 0.95 -3.68061 12.375
    endloop
  endfacet
  facet normal 1 -0 0
    outer loop
      vertex 0.95 -4.18543 15.238
      vertex 0.95 -3.99369 13.0464
      vertex 0.95 -3.99369 15.9536
    endloop
  endfacet
  facet normal 1 0 0
    outer loop
      vertex 0.95 -4.18543 15.238
      vertex 0.95 -4.18543 13.762
      vertex 0.95 -3.99369 13.0464
    endloop
  endfacet
  facet normal 1 0 -0
    outer loop
      vertex 0.95 -4.18543 13.762
      vertex 0.95 -4.18543 15.238
      vertex 0.95 -4.25 14.5
    endloop
  endfacet
  facet normal 0 0.81913 -0.573607
    outer loop
      vertex 3 -3.68061 16.625
      vertex 0.95 -3.25569 17.2318
      vertex 3 -3.25569 17.2318
    endloop
  endfacet
  facet normal 0 0.81913 -0.573607
    outer loop
      vertex 0.95 -3.25569 17.2318
      vertex 3 -3.68061 16.625
      vertex 0.95 -3.68061 16.625
    endloop
  endfacet
  facet normal 0 -0.258772 -0.965939
    outer loop
      vertex 0.95 0.738005 18.6854
      vertex 3 1.45358 18.4937
      vertex 3 0.738005 18.6854
    endloop
  endfacet
  facet normal -0 -0.258772 -0.965939
    outer loop
      vertex 3 1.45358 18.4937
      vertex 0.95 0.738005 18.6854
      vertex 0.95 1.45358 18.4937
    endloop
  endfacet
  facet normal 0 -0.707147 -0.707066
    outer loop
      vertex 0.95 3.25569 17.2318
      vertex 3 2.73185 17.7557
      vertex 0.95 2.73185 17.7557
    endloop
  endfacet
  facet normal 0 -0.707147 -0.707066
    outer loop
      vertex 3 2.73185 17.7557
      vertex 0.95 3.25569 17.2318
      vertex 3 3.25569 17.2318
    endloop
  endfacet
endsolid OpenSCAD_Model
