solid OpenSCAD_Model
  facet normal 1 0 0
    outer loop
      vertex 40.5 15.9 24.5
      vertex 40.5 10.9 19.55
      vertex 40.5 15.9 0
    endloop
  endfacet
  facet normal 1 0 0
    outer loop
      vertex 40.5 15.9 24.5
      vertex 40.5 -10.9 19.55
      vertex 40.5 10.9 19.55
    endloop
  endfacet
  facet normal 1 -0 0
    outer loop
      vertex 40.5 -15.9 24.5
      vertex 40.5 -10.9 19.55
      vertex 40.5 15.9 24.5
    endloop
  endfacet
  facet normal 1 0 0
    outer loop
      vertex 40.5 -15.9 0
      vertex 40.5 -10.9 19.55
      vertex 40.5 -15.9 24.5
    endloop
  endfacet
  facet normal 1 0 0
    outer loop
      vertex 40.5 -10.9 19.55
      vertex 40.5 -15.9 0
      vertex 40.5 -10.9 0
    endloop
  endfacet
  facet normal 1 0 0
    outer loop
      vertex 40.5 15.9 0
      vertex 40.5 10.9 19.55
      vertex 40.5 10.9 0
    endloop
  endfacet
  facet normal -0 0 1
    outer loop
      vertex 20.5 15.9 24.5
      vertex 40.5 -15.9 24.5
      vertex 40.5 15.9 24.5
    endloop
  endfacet
  facet normal 0 0 1
    outer loop
      vertex 40.5 -15.9 24.5
      vertex 20.5 15.9 24.5
      vertex 20.5 -15.9 24.5
    endloop
  endfacet
  facet normal 0 0 -1
    outer loop
      vertex 20.5 10.9 0
      vertex 40.5 15.9 0
      vertex 40.5 10.9 0
    endloop
  endfacet
  facet normal -0 0 -1
    outer loop
      vertex 40.5 15.9 0
      vertex 20.5 10.9 0
      vertex 20.5 15.9 0
    endloop
  endfacet
  facet normal 0 0 -1
    outer loop
      vertex 20.5 -15.9 0
      vertex 40.5 -10.9 0
      vertex 40.5 -15.9 0
    endloop
  endfacet
  facet normal -0 0 -1
    outer loop
      vertex 40.5 -10.9 0
      vertex 20.5 -15.9 0
      vertex 20.5 -10.9 0
    endloop
  endfacet
  facet normal -1 0 0
    outer loop
      vertex 20.5 -10.9 0
      vertex 20.5 -15.9 0
      vertex 20.5 -10.9 19.55
    endloop
  endfacet
  facet normal -1 0 0
    outer loop
      vertex 20.5 10.9 19.55
      vertex 20.5 15.9 0
      vertex 20.5 10.9 0
    endloop
  endfacet
  facet normal -1 0 0
    outer loop
      vertex 20.5 15.9 0
      vertex 20.5 10.9 19.55
      vertex 20.5 15.9 24.5
    endloop
  endfacet
  facet normal -1 0 0
    outer loop
      vertex 20.5 -10.9 19.55
      vertex 20.5 15.9 24.5
      vertex 20.5 10.9 19.55
    endloop
  endfacet
  facet normal -1 0 0
    outer loop
      vertex 20.5 -10.9 19.55
      vertex 20.5 -15.9 24.5
      vertex 20.5 15.9 24.5
    endloop
  endfacet
  facet normal -1 0 0
    outer loop
      vertex 20.5 -15.9 24.5
      vertex 20.5 -10.9 19.55
      vertex 20.5 -15.9 0
    endloop
  endfacet
  facet normal 0 1 -0
    outer loop
      vertex 40.5 15.9 0
      vertex 20.5 15.9 24.5
      vertex 40.5 15.9 24.5
    endloop
  endfacet
  facet normal 0 1 0
    outer loop
      vertex 20.5 15.9 24.5
      vertex 40.5 15.9 0
      vertex 20.5 15.9 0
    endloop
  endfacet
  facet normal 0 -1 0
    outer loop
      vertex 20.5 -15.9 0
      vertex 40.5 -15.9 24.5
      vertex 20.5 -15.9 24.5
    endloop
  endfacet
  facet normal 0 -1 -0
    outer loop
      vertex 40.5 -15.9 24.5
      vertex 20.5 -15.9 0
      vertex 40.5 -15.9 0
    endloop
  endfacet
  facet normal 0 0 -1
    outer loop
      vertex 20.5 -10.9 19.55
      vertex 40.5 10.9 19.55
      vertex 40.5 -10.9 19.55
    endloop
  endfacet
  facet normal -0 0 -1
    outer loop
      vertex 40.5 10.9 19.55
      vertex 20.5 -10.9 19.55
      vertex 20.5 10.9 19.55
    endloop
  endfacet
  facet normal 0 -1 0
    outer loop
      vertex 20.5 10.9 0
      vertex 40.5 10.9 19.55
      vertex 20.5 10.9 19.55
    endloop
  endfacet
  facet normal 0 -1 -0
    outer loop
      vertex 40.5 10.9 19.55
      vertex 20.5 10.9 0
      vertex 40.5 10.9 0
    endloop
  endfacet
  facet normal 0 1 -0
    outer loop
      vertex 40.5 -10.9 0
      vertex 20.5 -10.9 19.55
      vertex 40.5 -10.9 19.55
    endloop
  endfacet
  facet normal 0 1 0
    outer loop
      vertex 20.5 -10.9 19.55
      vertex 40.5 -10.9 0
      vertex 20.5 -10.9 0
    endloop
  endfacet
endsolid OpenSCAD_Model
