solid OpenSCAD_Model
  facet normal 1 0 0
    outer loop
      vertex 3 10.6863 17.158
      vertex 3 4.18543 15.238
      vertex 3 4.25 14.5
    endloop
  endfacet
  facet normal 1 0 0
    outer loop
      vertex 3 8.3125 20.4823
      vertex 3 3.99369 15.9536
      vertex 3 4.18543 15.238
    endloop
  endfacet
  facet normal 1 0 0
    outer loop
      vertex 3 8.3125 20.4823
      vertex 3 3.68061 16.625
      vertex 3 3.99369 15.9536
    endloop
  endfacet
  facet normal 1 0 0
    outer loop
      vertex 3 8.3125 20.4823
      vertex 3 3.25569 17.2318
      vertex 3 3.68061 16.625
    endloop
  endfacet
  facet normal 1 0 0
    outer loop
      vertex 3 1.45358 18.4937
      vertex 3 5.68608 22.9318
      vertex 3 2.8869 24.4319
    endloop
  endfacet
  facet normal 1 0 0
    outer loop
      vertex 3 8.3125 20.4823
      vertex 3 2.73185 17.7557
      vertex 3 3.25569 17.2318
    endloop
  endfacet
  facet normal 1 0 0
    outer loop
      vertex 3 5.68608 22.9318
      vertex 3 2.125 18.1806
      vertex 3 2.73185 17.7557
    endloop
  endfacet
  facet normal 1 0 0
    outer loop
      vertex 3 5.68608 22.9318
      vertex 3 1.45358 18.4937
      vertex 3 2.125 18.1806
    endloop
  endfacet
  facet normal 1 0 0
    outer loop
      vertex 3 2.8869 24.4319
      vertex 3 0.738005 18.6854
      vertex 3 1.45358 18.4937
    endloop
  endfacet
  facet normal 1 0 0
    outer loop
      vertex 3 0 24.937
      vertex 3 0.738005 18.6854
      vertex 3 2.8869 24.4319
    endloop
  endfacet
  facet normal 1 0 0
    outer loop
      vertex 3 0 24.937
      vertex 3 0 18.75
      vertex 3 0.738005 18.6854
    endloop
  endfacet
  facet normal 1 0 0
    outer loop
      vertex 3 0 24.937
      vertex 3 -0.738005 18.6854
      vertex 3 0 18.75
    endloop
  endfacet
  facet normal 1 -0 0
    outer loop
      vertex 3 -2.8869 24.4319
      vertex 3 -0.738005 18.6854
      vertex 3 0 24.937
    endloop
  endfacet
  facet normal 1 0 0
    outer loop
      vertex 3 -0.738005 18.6854
      vertex 3 -2.8869 24.4319
      vertex 3 -1.45358 18.4937
    endloop
  endfacet
  facet normal 1 -0 0
    outer loop
      vertex 3 -5.68608 22.9318
      vertex 3 -1.45358 18.4937
      vertex 3 -2.8869 24.4319
    endloop
  endfacet
  facet normal 1 0 0
    outer loop
      vertex 3 -1.45358 18.4937
      vertex 3 -5.68608 22.9318
      vertex 3 -2.125 18.1806
    endloop
  endfacet
  facet normal 1 0 0
    outer loop
      vertex 3 -2.125 18.1806
      vertex 3 -5.68608 22.9318
      vertex 3 -2.73185 17.7557
    endloop
  endfacet
  facet normal 1 -0 0
    outer loop
      vertex 3 -8.3125 20.4823
      vertex 3 -2.73185 17.7557
      vertex 3 -5.68608 22.9318
    endloop
  endfacet
  facet normal 1 0 0
    outer loop
      vertex 3 -2.73185 17.7557
      vertex 3 -8.3125 20.4823
      vertex 3 -3.25569 17.2318
    endloop
  endfacet
  facet normal 1 0 0
    outer loop
      vertex 3 -3.25569 17.2318
      vertex 3 -8.3125 20.4823
      vertex 3 -3.68061 16.625
    endloop
  endfacet
  facet normal 1 -0 0
    outer loop
      vertex 3 -10.6863 17.158
      vertex 3 -3.99369 15.9536
      vertex 3 -8.3125 20.4823
    endloop
  endfacet
  facet normal 1 0 0
    outer loop
      vertex 3 -3.68061 16.625
      vertex 3 -8.3125 20.4823
      vertex 3 -3.99369 15.9536
    endloop
  endfacet
  facet normal 1 0 0
    outer loop
      vertex 3 2.125 10.8194
      vertex 3 15.6224 3.05917
      vertex 3 14.3977 8.312
    endloop
  endfacet
  facet normal 1 -0 0
    outer loop
      vertex 3 3.68061 12.375
      vertex 3 14.3977 8.312
      vertex 3 12.7355 13.0597
    endloop
  endfacet
  facet normal 1 -0 0
    outer loop
      vertex 3 4.18543 13.762
      vertex 3 12.7355 13.0597
      vertex 3 10.6863 17.158
    endloop
  endfacet
  facet normal 1 0 0
    outer loop
      vertex 3 4.18543 15.238
      vertex 3 10.6863 17.158
      vertex 3 8.3125 20.4823
    endloop
  endfacet
  facet normal 1 0 0
    outer loop
      vertex 3 2.73185 17.7557
      vertex 3 8.3125 20.4823
      vertex 3 5.68608 22.9318
    endloop
  endfacet
  facet normal 1 0 0
    outer loop
      vertex 3 10.6863 17.158
      vertex 3 4.25 14.5
      vertex 3 4.18543 13.762
    endloop
  endfacet
  facet normal 1 0 0
    outer loop
      vertex 3 12.7355 13.0597
      vertex 3 4.18543 13.762
      vertex 3 3.99369 13.0464
    endloop
  endfacet
  facet normal 1 0 0
    outer loop
      vertex 3 12.7355 13.0597
      vertex 3 3.99369 13.0464
      vertex 3 3.68061 12.375
    endloop
  endfacet
  facet normal 1 0 0
    outer loop
      vertex 3 14.3977 8.312
      vertex 3 3.68061 12.375
      vertex 3 3.25569 11.7682
    endloop
  endfacet
  facet normal 1 0 0
    outer loop
      vertex 3 14.3977 8.312
      vertex 3 3.25569 11.7682
      vertex 3 2.73185 11.2443
    endloop
  endfacet
  facet normal 1 -0 0
    outer loop
      vertex 3 2.125 10.8194
      vertex 3 14.3977 8.312
      vertex 3 2.73185 11.2443
    endloop
  endfacet
  facet normal 1 -0 0
    outer loop
      vertex 3 1.45358 10.5063
      vertex 3 15.6224 3.05917
      vertex 3 2.125 10.8194
    endloop
  endfacet
  facet normal 1 0 0
    outer loop
      vertex 3 15.6224 3.05917
      vertex 3 1.45358 10.5063
      vertex 3 16.0322 0
    endloop
  endfacet
  facet normal 1 -0 0
    outer loop
      vertex 3 0.738005 10.3146
      vertex 3 16.0322 0
      vertex 3 1.45358 10.5063
    endloop
  endfacet
  facet normal 1 -0 0
    outer loop
      vertex 3 0 10.25
      vertex 3 16.0322 0
      vertex 3 0.738005 10.3146
    endloop
  endfacet
  facet normal 1 0 0
    outer loop
      vertex 3 -16.0322 0
      vertex 3 0 10.25
      vertex 3 -0.738005 10.3146
    endloop
  endfacet
  facet normal 1 0 0
    outer loop
      vertex 3 -16.0322 0
      vertex 3 -0.738005 10.3146
      vertex 3 -1.45358 10.5063
    endloop
  endfacet
  facet normal 1 0 0
    outer loop
      vertex 3 -15.6224 3.05917
      vertex 3 -1.45358 10.5063
      vertex 3 -2.125 10.8194
    endloop
  endfacet
  facet normal 1 0 0
    outer loop
      vertex 3 -3.99369 15.9536
      vertex 3 -10.6863 17.158
      vertex 3 -4.18543 15.238
    endloop
  endfacet
  facet normal 1 0 0
    outer loop
      vertex 3 -4.18543 15.238
      vertex 3 -10.6863 17.158
      vertex 3 -4.25 14.5
    endloop
  endfacet
  facet normal 1 0 0
    outer loop
      vertex 3 -4.25 14.5
      vertex 3 -10.6863 17.158
      vertex 3 -4.18543 13.762
    endloop
  endfacet
  facet normal 1 0 0
    outer loop
      vertex 3 -12.7355 13.0597
      vertex 3 -4.18543 13.762
      vertex 3 -10.6863 17.158
    endloop
  endfacet
  facet normal 1 0 0
    outer loop
      vertex 3 -4.18543 13.762
      vertex 3 -12.7355 13.0597
      vertex 3 -3.99369 13.0464
    endloop
  endfacet
  facet normal 1 0 0
    outer loop
      vertex 3 -3.99369 13.0464
      vertex 3 -12.7355 13.0597
      vertex 3 -3.68061 12.375
    endloop
  endfacet
  facet normal 1 0 0
    outer loop
      vertex 3 -14.3977 8.312
      vertex 3 -3.68061 12.375
      vertex 3 -12.7355 13.0597
    endloop
  endfacet
  facet normal 1 0 0
    outer loop
      vertex 3 -3.68061 12.375
      vertex 3 -14.3977 8.312
      vertex 3 -3.25569 11.7682
    endloop
  endfacet
  facet normal 1 0 0
    outer loop
      vertex 3 -3.25569 11.7682
      vertex 3 -14.3977 8.312
      vertex 3 -2.73185 11.2443
    endloop
  endfacet
  facet normal 1 0 0
    outer loop
      vertex 3 -2.73185 11.2443
      vertex 3 -14.3977 8.312
      vertex 3 -2.125 10.8194
    endloop
  endfacet
  facet normal 1 0 0
    outer loop
      vertex 3 -15.6224 3.05917
      vertex 3 -2.125 10.8194
      vertex 3 -14.3977 8.312
    endloop
  endfacet
  facet normal 1 0 0
    outer loop
      vertex 3 -1.45358 10.5063
      vertex 3 -15.6224 3.05917
      vertex 3 -16.0322 0
    endloop
  endfacet
  facet normal 1 0 0
    outer loop
      vertex 3 0 10.25
      vertex 3 -16.0322 0
      vertex 3 16.0322 0
    endloop
  endfacet
  facet normal 0 0.991147 0.132772
    outer loop
      vertex 3 16.0322 0
      vertex 0 15.6224 3.05917
      vertex 3 15.6224 3.05917
    endloop
  endfacet
  facet normal 0 0.991147 0.132772
    outer loop
      vertex 0 15.6224 3.05917
      vertex 3 16.0322 0
      vertex 0 16.0322 0
    endloop
  endfacet
  facet normal 0 0.894423 0.447222
    outer loop
      vertex 3 12.7355 13.0597
      vertex 0 10.6863 17.158
      vertex 3 10.6863 17.158
    endloop
  endfacet
  facet normal 0 0.894423 0.447222
    outer loop
      vertex 0 10.6863 17.158
      vertex 3 12.7355 13.0597
      vertex 0 12.7355 13.0597
    endloop
  endfacet
  facet normal 0 -0.943827 0.33044
    outer loop
      vertex 0 -14.3977 8.312
      vertex 3 -12.7355 13.0597
      vertex 0 -12.7355 13.0597
    endloop
  endfacet
  facet normal 0 -0.943827 0.33044
    outer loop
      vertex 3 -12.7355 13.0597
      vertex 0 -14.3977 8.312
      vertex 3 -14.3977 8.312
    endloop
  endfacet
  facet normal -0 0.472353 0.881409
    outer loop
      vertex 0 5.68608 22.9318
      vertex 3 2.8869 24.4319
      vertex 3 5.68608 22.9318
    endloop
  endfacet
  facet normal 0 0.472353 0.881409
    outer loop
      vertex 3 2.8869 24.4319
      vertex 0 5.68608 22.9318
      vertex 0 2.8869 24.4319
    endloop
  endfacet
  facet normal 0 -0.172345 0.985037
    outer loop
      vertex 0 0 24.937
      vertex 3 -2.8869 24.4319
      vertex 3 0 24.937
    endloop
  endfacet
  facet normal 0 -0.172345 0.985037
    outer loop
      vertex 3 -2.8869 24.4319
      vertex 0 0 24.937
      vertex 0 -2.8869 24.4319
    endloop
  endfacet
  facet normal 0 -0.813815 0.581125
    outer loop
      vertex 0 -10.6863 17.158
      vertex 3 -8.3125 20.4823
      vertex 0 -8.3125 20.4823
    endloop
  endfacet
  facet normal 0 -0.813815 0.581125
    outer loop
      vertex 3 -8.3125 20.4823
      vertex 0 -10.6863 17.158
      vertex 3 -10.6863 17.158
    endloop
  endfacet
  facet normal 0 -0.991147 0.132772
    outer loop
      vertex 0 -16.0322 0
      vertex 3 -15.6224 3.05917
      vertex 0 -15.6224 3.05917
    endloop
  endfacet
  facet normal 0 -0.991147 0.132772
    outer loop
      vertex 3 -15.6224 3.05917
      vertex 0 -16.0322 0
      vertex 3 -16.0322 0
    endloop
  endfacet
  facet normal 0 0.973881 0.227061
    outer loop
      vertex 3 15.6224 3.05917
      vertex 0 14.3977 8.312
      vertex 3 14.3977 8.312
    endloop
  endfacet
  facet normal 0 0.973881 0.227061
    outer loop
      vertex 0 14.3977 8.312
      vertex 3 15.6224 3.05917
      vertex 0 15.6224 3.05917
    endloop
  endfacet
  facet normal -0 0.682047 0.731309
    outer loop
      vertex 0 8.3125 20.4823
      vertex 3 5.68608 22.9318
      vertex 3 8.3125 20.4823
    endloop
  endfacet
  facet normal 0 0.682047 0.731309
    outer loop
      vertex 3 5.68608 22.9318
      vertex 0 8.3125 20.4823
      vertex 0 5.68608 22.9318
    endloop
  endfacet
  facet normal 0 0.943827 0.33044
    outer loop
      vertex 3 14.3977 8.312
      vertex 0 12.7355 13.0597
      vertex 3 12.7355 13.0597
    endloop
  endfacet
  facet normal 0 0.943827 0.33044
    outer loop
      vertex 0 12.7355 13.0597
      vertex 3 14.3977 8.312
      vertex 0 14.3977 8.312
    endloop
  endfacet
  facet normal 0 -0.472353 0.881409
    outer loop
      vertex 0 -2.8869 24.4319
      vertex 3 -5.68608 22.9318
      vertex 3 -2.8869 24.4319
    endloop
  endfacet
  facet normal 0 -0.472353 0.881409
    outer loop
      vertex 3 -5.68608 22.9318
      vertex 0 -2.8869 24.4319
      vertex 0 -5.68608 22.9318
    endloop
  endfacet
  facet normal 0 -0.682047 0.731309
    outer loop
      vertex 0 -5.68608 22.9318
      vertex 3 -8.3125 20.4823
      vertex 3 -5.68608 22.9318
    endloop
  endfacet
  facet normal 0 -0.682047 0.731309
    outer loop
      vertex 3 -8.3125 20.4823
      vertex 0 -5.68608 22.9318
      vertex 0 -8.3125 20.4823
    endloop
  endfacet
  facet normal -0 0.172345 0.985037
    outer loop
      vertex 0 2.8869 24.4319
      vertex 3 0 24.937
      vertex 3 2.8869 24.4319
    endloop
  endfacet
  facet normal 0 0.172345 0.985037
    outer loop
      vertex 3 0 24.937
      vertex 0 2.8869 24.4319
      vertex 0 0 24.937
    endloop
  endfacet
  facet normal -1 0 0
    outer loop
      vertex 0 18 -2
      vertex 0 16.0322 0
      vertex 0 18 0
    endloop
  endfacet
  facet normal -1 0 0
    outer loop
      vertex 0 -15.6224 3.05917
      vertex 0 15.6224 3.05917
      vertex 0 16.0322 0
    endloop
  endfacet
  facet normal -1 0 0
    outer loop
      vertex 0 15.6224 3.05917
      vertex 0 -15.6224 3.05917
      vertex 0 14.3977 8.312
    endloop
  endfacet
  facet normal -1 0 0
    outer loop
      vertex 0 14.3977 8.312
      vertex 0 -14.3977 8.312
      vertex 0 12.7355 13.0597
    endloop
  endfacet
  facet normal -1 0 -0
    outer loop
      vertex 0 -12.7355 13.0597
      vertex 0 12.7355 13.0597
      vertex 0 -14.3977 8.312
    endloop
  endfacet
  facet normal -1 0 -0
    outer loop
      vertex 0 -10.6863 17.158
      vertex 0 10.6863 17.158
      vertex 0 -12.7355 13.0597
    endloop
  endfacet
  facet normal -1 0 0
    outer loop
      vertex 0 10.6863 17.158
      vertex 0 -10.6863 17.158
      vertex 0 8.3125 20.4823
    endloop
  endfacet
  facet normal -1 0 0
    outer loop
      vertex 0 8.3125 20.4823
      vertex 0 -8.3125 20.4823
      vertex 0 5.68608 22.9318
    endloop
  endfacet
  facet normal -1 0 -0
    outer loop
      vertex 0 -5.68608 22.9318
      vertex 0 5.68608 22.9318
      vertex 0 -8.3125 20.4823
    endloop
  endfacet
  facet normal -1 0 -0
    outer loop
      vertex 0 -2.8869 24.4319
      vertex 0 2.8869 24.4319
      vertex 0 -5.68608 22.9318
    endloop
  endfacet
  facet normal -1 0 0
    outer loop
      vertex 0 2.8869 24.4319
      vertex 0 -2.8869 24.4319
      vertex 0 0 24.937
    endloop
  endfacet
  facet normal -1 0 0
    outer loop
      vertex 0 -16.0322 0
      vertex 0 16.0322 0
      vertex 0 18 -2
    endloop
  endfacet
  facet normal -1 0 0
    outer loop
      vertex 0 5.68608 22.9318
      vertex 0 -5.68608 22.9318
      vertex 0 2.8869 24.4319
    endloop
  endfacet
  facet normal -1 0 -0
    outer loop
      vertex 0 -8.3125 20.4823
      vertex 0 8.3125 20.4823
      vertex 0 -10.6863 17.158
    endloop
  endfacet
  facet normal -1 0 0
    outer loop
      vertex 0 12.7355 13.0597
      vertex 0 -12.7355 13.0597
      vertex 0 10.6863 17.158
    endloop
  endfacet
  facet normal -1 -0 0
    outer loop
      vertex 0 14.3977 8.312
      vertex 0 -15.6224 3.05917
      vertex 0 -14.3977 8.312
    endloop
  endfacet
  facet normal -1 0 0
    outer loop
      vertex 0 16.0322 0
      vertex 0 -16.0322 0
      vertex 0 -15.6224 3.05917
    endloop
  endfacet
  facet normal -1 0 0
    outer loop
      vertex 0 -18 -2
      vertex 0 -16.0322 0
      vertex 0 18 -2
    endloop
  endfacet
  facet normal -1 -0 0
    outer loop
      vertex 0 -16.0322 0
      vertex 0 -18 -2
      vertex 0 -18 0
    endloop
  endfacet
  facet normal 0 0.813815 0.581125
    outer loop
      vertex 3 10.6863 17.158
      vertex 0 8.3125 20.4823
      vertex 3 8.3125 20.4823
    endloop
  endfacet
  facet normal 0 0.813815 0.581125
    outer loop
      vertex 0 8.3125 20.4823
      vertex 3 10.6863 17.158
      vertex 0 10.6863 17.158
    endloop
  endfacet
  facet normal 0 -0.894423 0.447222
    outer loop
      vertex 0 -12.7355 13.0597
      vertex 3 -10.6863 17.158
      vertex 0 -10.6863 17.158
    endloop
  endfacet
  facet normal 0 -0.894423 0.447222
    outer loop
      vertex 3 -10.6863 17.158
      vertex 0 -12.7355 13.0597
      vertex 3 -12.7355 13.0597
    endloop
  endfacet
  facet normal 0 -0.973881 0.227061
    outer loop
      vertex 0 -15.6224 3.05917
      vertex 3 -14.3977 8.312
      vertex 0 -14.3977 8.312
    endloop
  endfacet
  facet normal 0 -0.973881 0.227061
    outer loop
      vertex 3 -14.3977 8.312
      vertex 0 -15.6224 3.05917
      vertex 3 -15.6224 3.05917
    endloop
  endfacet
  facet normal 0 0 1
    outer loop
      vertex 52 18 0
      vertex 45.5 6 0
      vertex 52 -18 0
    endloop
  endfacet
  facet normal 0 0 1
    outer loop
      vertex 52 18 0
      vertex 43 11 0
      vertex 45.5 6 0
    endloop
  endfacet
  facet normal 0 0 1
    outer loop
      vertex 52 18 0
      vertex 40.5 16.25 0
      vertex 43 11 0
    endloop
  endfacet
  facet normal 0 0 1
    outer loop
      vertex 52 18 0
      vertex 20.5 16.25 0
      vertex 40.5 16.25 0
    endloop
  endfacet
  facet normal -0 0 1
    outer loop
      vertex 3 16.0322 0
      vertex 20.5 11 0
      vertex 20.5 16.25 0
    endloop
  endfacet
  facet normal 0 0 1
    outer loop
      vertex 20.5 11 0
      vertex 3 16.0322 0
      vertex 20.5 -11 0
    endloop
  endfacet
  facet normal 0 0 1
    outer loop
      vertex 3 -16.0322 0
      vertex 20.5 -11 0
      vertex 3 16.0322 0
    endloop
  endfacet
  facet normal -0 0 1
    outer loop
      vertex 0 18 0
      vertex 20.5 16.25 0
      vertex 52 18 0
    endloop
  endfacet
  facet normal 0 0 1
    outer loop
      vertex 20.5 16.25 0
      vertex 0 18 0
      vertex 3 16.0322 0
    endloop
  endfacet
  facet normal 0 0 1
    outer loop
      vertex 3 16.0322 0
      vertex 0 18 0
      vertex 0 16.0322 0
    endloop
  endfacet
  facet normal -0 0 1
    outer loop
      vertex 45.5 -6 0
      vertex 52 -18 0
      vertex 45.5 6 0
    endloop
  endfacet
  facet normal 0 0 1
    outer loop
      vertex 43 -11 0
      vertex 45.5 -6 0
      vertex 43 -6 0
    endloop
  endfacet
  facet normal 0 0 1
    outer loop
      vertex 45.5 -6 0
      vertex 43 -11 0
      vertex 52 -18 0
    endloop
  endfacet
  facet normal 0 0 1
    outer loop
      vertex 40.5 -16.25 0
      vertex 43 -11 0
      vertex 40.5 -11 0
    endloop
  endfacet
  facet normal 0 0 1
    outer loop
      vertex 43 -11 0
      vertex 40.5 -16.25 0
      vertex 52 -18 0
    endloop
  endfacet
  facet normal -0 0 1
    outer loop
      vertex 20.5 -16.25 0
      vertex 52 -18 0
      vertex 40.5 -16.25 0
    endloop
  endfacet
  facet normal 0 0 1
    outer loop
      vertex 20.5 -11 0
      vertex 3 -16.0322 0
      vertex 20.5 -16.25 0
    endloop
  endfacet
  facet normal 0 0 1
    outer loop
      vertex 0 -18 0
      vertex 20.5 -16.25 0
      vertex 3 -16.0322 0
    endloop
  endfacet
  facet normal 0 0 1
    outer loop
      vertex 0 -18 0
      vertex 3 -16.0322 0
      vertex 0 -16.0322 0
    endloop
  endfacet
  facet normal 0 0 1
    outer loop
      vertex 20.5 -16.25 0
      vertex 0 -18 0
      vertex 52 -18 0
    endloop
  endfacet
  facet normal 0 0 1
    outer loop
      vertex 45.5 6 0
      vertex 43 11 0
      vertex 43 6 0
    endloop
  endfacet
  facet normal 0 0 1
    outer loop
      vertex 43 11 0
      vertex 40.5 16.25 0
      vertex 40.5 11 0
    endloop
  endfacet
  facet normal 0 0 1
    outer loop
      vertex 28.4965 -9.45277 0
      vertex 20.5 -11 0
      vertex 28.4243 -9.72216 0
    endloop
  endfacet
  facet normal 0 0 1
    outer loop
      vertex 28.4243 10.2778 0
      vertex 20.5 11 0
      vertex 28.4 10 0
    endloop
  endfacet
  facet normal 0 0 1
    outer loop
      vertex 28.4965 10.5472 0
      vertex 20.5 11 0
      vertex 28.4243 10.2778 0
    endloop
  endfacet
  facet normal 0 0 1
    outer loop
      vertex 28.6144 10.8 0
      vertex 20.5 11 0
      vertex 28.4965 10.5472 0
    endloop
  endfacet
  facet normal -0 0 1
    outer loop
      vertex 20.5 11 0
      vertex 28.6144 10.8 0
      vertex 28.7544 11 0
    endloop
  endfacet
  facet normal -0 0 1
    outer loop
      vertex 31.3856 9.2 0
      vertex 35.5 6 0
      vertex 31.5035 9.45277 0
    endloop
  endfacet
  facet normal 0 0 1
    outer loop
      vertex 35.5 -6 0
      vertex 31.5757 -9.72216 0
      vertex 31.6 -10 0
    endloop
  endfacet
  facet normal -0 0 1
    outer loop
      vertex 31.2257 8.97154 0
      vertex 35.5 6 0
      vertex 31.3856 9.2 0
    endloop
  endfacet
  facet normal 0 0 1
    outer loop
      vertex 35.5 -6 0
      vertex 31.5035 -9.45277 0
      vertex 31.5757 -9.72216 0
    endloop
  endfacet
  facet normal -0 0 1
    outer loop
      vertex 31.0285 8.77433 0
      vertex 35.5 6 0
      vertex 31.2257 8.97154 0
    endloop
  endfacet
  facet normal 0 0 1
    outer loop
      vertex 35.5 -6 0
      vertex 31.3856 -9.2 0
      vertex 31.5035 -9.45277 0
    endloop
  endfacet
  facet normal -0 0 1
    outer loop
      vertex 30.8 8.61436 0
      vertex 35.5 6 0
      vertex 31.0285 8.77433 0
    endloop
  endfacet
  facet normal 0 0 1
    outer loop
      vertex 35.5 -6 0
      vertex 31.2257 -8.97154 0
      vertex 31.3856 -9.2 0
    endloop
  endfacet
  facet normal -0 0 1
    outer loop
      vertex 30.5472 8.49649 0
      vertex 35.5 6 0
      vertex 30.8 8.61436 0
    endloop
  endfacet
  facet normal 0 0 1
    outer loop
      vertex 35.5 -6 0
      vertex 31.0285 -8.77433 0
      vertex 31.2257 -8.97154 0
    endloop
  endfacet
  facet normal -0 0 1
    outer loop
      vertex 30.2778 8.42431 0
      vertex 35.5 6 0
      vertex 30.5472 8.49649 0
    endloop
  endfacet
  facet normal 0 0 1
    outer loop
      vertex 35.5 -6 0
      vertex 30.8 -8.61436 0
      vertex 31.0285 -8.77433 0
    endloop
  endfacet
  facet normal -0 0 1
    outer loop
      vertex 30 8.4 0
      vertex 35.5 6 0
      vertex 30.2778 8.42431 0
    endloop
  endfacet
  facet normal 0 0 1
    outer loop
      vertex 35.5 -6 0
      vertex 30.5472 -8.49649 0
      vertex 30.8 -8.61436 0
    endloop
  endfacet
  facet normal 0 0 1
    outer loop
      vertex 35.5 6 0
      vertex 30 8.4 0
      vertex 35.5 -6 0
    endloop
  endfacet
  facet normal 0 0 1
    outer loop
      vertex 35.5 -6 0
      vertex 30.2778 -8.42431 0
      vertex 30.5472 -8.49649 0
    endloop
  endfacet
  facet normal 0 0 1
    outer loop
      vertex 30 -8.4 0
      vertex 35.5 -6 0
      vertex 30 8.4 0
    endloop
  endfacet
  facet normal 0 0 1
    outer loop
      vertex 35.5 -6 0
      vertex 30 -8.4 0
      vertex 30.2778 -8.42431 0
    endloop
  endfacet
  facet normal 0 0 1
    outer loop
      vertex 29.7222 8.42431 0
      vertex 30 -8.4 0
      vertex 30 8.4 0
    endloop
  endfacet
  facet normal 0 0 1
    outer loop
      vertex 29.7222 8.42431 0
      vertex 29.7222 -8.42431 0
      vertex 30 -8.4 0
    endloop
  endfacet
  facet normal 0 0 1
    outer loop
      vertex 29.4528 8.49649 0
      vertex 29.7222 -8.42431 0
      vertex 29.7222 8.42431 0
    endloop
  endfacet
  facet normal 0 0 1
    outer loop
      vertex 29.4528 8.49649 0
      vertex 29.4528 -8.49649 0
      vertex 29.7222 -8.42431 0
    endloop
  endfacet
  facet normal 0 0 1
    outer loop
      vertex 29.2 8.61436 0
      vertex 29.4528 -8.49649 0
      vertex 29.4528 8.49649 0
    endloop
  endfacet
  facet normal 0 0 1
    outer loop
      vertex 29.2 8.61436 0
      vertex 29.2 -8.61436 0
      vertex 29.4528 -8.49649 0
    endloop
  endfacet
  facet normal 0 0 1
    outer loop
      vertex 28.9715 8.77433 0
      vertex 29.2 -8.61436 0
      vertex 29.2 8.61436 0
    endloop
  endfacet
  facet normal 0 0 1
    outer loop
      vertex 28.9715 8.77433 0
      vertex 28.9715 -8.77433 0
      vertex 29.2 -8.61436 0
    endloop
  endfacet
  facet normal 0 0 1
    outer loop
      vertex 20.5 11 0
      vertex 28.9715 8.77433 0
      vertex 28.7743 8.97154 0
    endloop
  endfacet
  facet normal 0 0 1
    outer loop
      vertex 28.9715 8.77433 0
      vertex 20.5 11 0
      vertex 28.9715 -8.77433 0
    endloop
  endfacet
  facet normal 0 0 1
    outer loop
      vertex 20.5 11 0
      vertex 28.7743 8.97154 0
      vertex 28.6144 9.2 0
    endloop
  endfacet
  facet normal 0 0 1
    outer loop
      vertex 20.5 -11 0
      vertex 28.9715 -8.77433 0
      vertex 20.5 11 0
    endloop
  endfacet
  facet normal 0 0 1
    outer loop
      vertex 20.5 11 0
      vertex 28.6144 9.2 0
      vertex 28.4965 9.45277 0
    endloop
  endfacet
  facet normal 0 0 1
    outer loop
      vertex 28.9715 -8.77433 0
      vertex 20.5 -11 0
      vertex 28.7743 -8.97154 0
    endloop
  endfacet
  facet normal 0 0 1
    outer loop
      vertex 20.5 11 0
      vertex 28.4965 9.45277 0
      vertex 28.4243 9.72216 0
    endloop
  endfacet
  facet normal 0 0 1
    outer loop
      vertex 28.7743 -8.97154 0
      vertex 20.5 -11 0
      vertex 28.6144 -9.2 0
    endloop
  endfacet
  facet normal 0 0 1
    outer loop
      vertex 20.5 11 0
      vertex 28.4243 9.72216 0
      vertex 28.4 10 0
    endloop
  endfacet
  facet normal 0 0 1
    outer loop
      vertex 28.6144 -9.2 0
      vertex 20.5 -11 0
      vertex 28.4965 -9.45277 0
    endloop
  endfacet
  facet normal 0 0 1
    outer loop
      vertex 38 11 0
      vertex 35.5 6 0
      vertex 38 6 0
    endloop
  endfacet
  facet normal 0 0 1
    outer loop
      vertex 38 11 0
      vertex 31.5757 9.72216 0
      vertex 35.5 6 0
    endloop
  endfacet
  facet normal 0 0 1
    outer loop
      vertex 31.5757 9.72216 0
      vertex 38 11 0
      vertex 31.6 10 0
    endloop
  endfacet
  facet normal 0 0 1
    outer loop
      vertex 38 11 0
      vertex 31.5757 10.2778 0
      vertex 31.6 10 0
    endloop
  endfacet
  facet normal 0 0 1
    outer loop
      vertex 38 11 0
      vertex 31.5035 10.5472 0
      vertex 31.5757 10.2778 0
    endloop
  endfacet
  facet normal 0 0 1
    outer loop
      vertex 38 11 0
      vertex 31.3856 10.8 0
      vertex 31.5035 10.5472 0
    endloop
  endfacet
  facet normal 0 -0 1
    outer loop
      vertex 31.3856 10.8 0
      vertex 38 11 0
      vertex 31.2456 11 0
    endloop
  endfacet
  facet normal -0 0 1
    outer loop
      vertex 35.5 -6 0
      vertex 38 -11 0
      vertex 38 -6 0
    endloop
  endfacet
  facet normal -0 0 1
    outer loop
      vertex 31.5035 9.45277 0
      vertex 35.5 6 0
      vertex 31.5757 9.72216 0
    endloop
  endfacet
  facet normal -0 0 1
    outer loop
      vertex 31.6 -10 0
      vertex 38 -11 0
      vertex 35.5 -6 0
    endloop
  endfacet
  facet normal -0 0 1
    outer loop
      vertex 31.5757 -10.2778 0
      vertex 38 -11 0
      vertex 31.6 -10 0
    endloop
  endfacet
  facet normal -0 0 1
    outer loop
      vertex 31.5035 -10.5472 0
      vertex 38 -11 0
      vertex 31.5757 -10.2778 0
    endloop
  endfacet
  facet normal -0 0 1
    outer loop
      vertex 31.3856 -10.8 0
      vertex 38 -11 0
      vertex 31.5035 -10.5472 0
    endloop
  endfacet
  facet normal 0 0 1
    outer loop
      vertex 38 -11 0
      vertex 31.3856 -10.8 0
      vertex 31.2456 -11 0
    endloop
  endfacet
  facet normal 0 0 1
    outer loop
      vertex 28.4243 -9.72216 0
      vertex 20.5 -11 0
      vertex 28.4 -10 0
    endloop
  endfacet
  facet normal 0 0 1
    outer loop
      vertex 28.4 -10 0
      vertex 20.5 -11 0
      vertex 28.4243 -10.2778 0
    endloop
  endfacet
  facet normal 0 0 1
    outer loop
      vertex 28.6144 -10.8 0
      vertex 20.5 -11 0
      vertex 28.7544 -11 0
    endloop
  endfacet
  facet normal 0 0 1
    outer loop
      vertex 28.4965 -10.5472 0
      vertex 20.5 -11 0
      vertex 28.6144 -10.8 0
    endloop
  endfacet
  facet normal 0 0 1
    outer loop
      vertex 28.4243 -10.2778 0
      vertex 20.5 -11 0
      vertex 28.4965 -10.5472 0
    endloop
  endfacet
  facet normal 0 0 -1
    outer loop
      vertex 31.2456 11 0
      vertex 31.0285 11.2257 0
      vertex 31.2257 11.0285 0
    endloop
  endfacet
  facet normal 0 0 -1
    outer loop
      vertex 31.2456 11 0
      vertex 30.8 11.3856 0
      vertex 31.0285 11.2257 0
    endloop
  endfacet
  facet normal 0 0 -1
    outer loop
      vertex 31.2456 11 0
      vertex 30.5472 11.5035 0
      vertex 30.8 11.3856 0
    endloop
  endfacet
  facet normal 0 0 -1
    outer loop
      vertex 31.2456 11 0
      vertex 30.2778 11.5757 0
      vertex 30.5472 11.5035 0
    endloop
  endfacet
  facet normal 0 0 -1
    outer loop
      vertex 31.2456 11 0
      vertex 30 11.6 0
      vertex 30.2778 11.5757 0
    endloop
  endfacet
  facet normal 0 0 -1
    outer loop
      vertex 31.2456 11 0
      vertex 29.7222 11.5757 0
      vertex 30 11.6 0
    endloop
  endfacet
  facet normal 0 0 -1
    outer loop
      vertex 31.2456 11 0
      vertex 29.4528 11.5035 0
      vertex 29.7222 11.5757 0
    endloop
  endfacet
  facet normal 0 0 -1
    outer loop
      vertex 31.2456 11 0
      vertex 29.2 11.3856 0
      vertex 29.4528 11.5035 0
    endloop
  endfacet
  facet normal 0 0 -1
    outer loop
      vertex 31.2456 11 0
      vertex 28.9715 11.2257 0
      vertex 29.2 11.3856 0
    endloop
  endfacet
  facet normal 0 0 -1
    outer loop
      vertex 28.7544 11 0
      vertex 28.9715 11.2257 0
      vertex 31.2456 11 0
    endloop
  endfacet
  facet normal 0 0 -1
    outer loop
      vertex 28.9715 11.2257 0
      vertex 28.7544 11 0
      vertex 28.7743 11.0285 0
    endloop
  endfacet
  facet normal 0 0 -1
    outer loop
      vertex 31.0285 -11.2257 0
      vertex 31.2456 -11 0
      vertex 31.2257 -11.0285 0
    endloop
  endfacet
  facet normal 0 0 -1
    outer loop
      vertex 30.8 -11.3856 0
      vertex 31.2456 -11 0
      vertex 31.0285 -11.2257 0
    endloop
  endfacet
  facet normal 0 0 -1
    outer loop
      vertex 30.5472 -11.5035 0
      vertex 31.2456 -11 0
      vertex 30.8 -11.3856 0
    endloop
  endfacet
  facet normal 0 0 -1
    outer loop
      vertex 30.2778 -11.5757 0
      vertex 31.2456 -11 0
      vertex 30.5472 -11.5035 0
    endloop
  endfacet
  facet normal 0 0 -1
    outer loop
      vertex 30 -11.6 0
      vertex 31.2456 -11 0
      vertex 30.2778 -11.5757 0
    endloop
  endfacet
  facet normal 0 0 -1
    outer loop
      vertex 29.7222 -11.5757 0
      vertex 31.2456 -11 0
      vertex 30 -11.6 0
    endloop
  endfacet
  facet normal 0 0 -1
    outer loop
      vertex 29.4528 -11.5035 0
      vertex 31.2456 -11 0
      vertex 29.7222 -11.5757 0
    endloop
  endfacet
  facet normal 0 0 -1
    outer loop
      vertex 29.2 -11.3856 0
      vertex 31.2456 -11 0
      vertex 29.4528 -11.5035 0
    endloop
  endfacet
  facet normal 0 0 -1
    outer loop
      vertex 28.9715 -11.2257 0
      vertex 31.2456 -11 0
      vertex 29.2 -11.3856 0
    endloop
  endfacet
  facet normal 0 0 -1
    outer loop
      vertex 28.7544 -11 0
      vertex 28.9715 -11.2257 0
      vertex 28.7743 -11.0285 0
    endloop
  endfacet
  facet normal 0 0 -1
    outer loop
      vertex 28.9715 -11.2257 0
      vertex 28.7544 -11 0
      vertex 31.2456 -11 0
    endloop
  endfacet
  facet normal 1 -0 0
    outer loop
      vertex 45.5 -6 9.5
      vertex 45.5 6 0
      vertex 45.5 6 9.5
    endloop
  endfacet
  facet normal 1 0 0
    outer loop
      vertex 45.5 6 0
      vertex 45.5 -6 9.5
      vertex 45.5 -6 0
    endloop
  endfacet
  facet normal -0 0 1
    outer loop
      vertex 43 6 9.5
      vertex 45.5 -6 9.5
      vertex 45.5 6 9.5
    endloop
  endfacet
  facet normal 0 0 1
    outer loop
      vertex 43 6 9.5
      vertex 43 -6 9.5
      vertex 45.5 -6 9.5
    endloop
  endfacet
  facet normal -0 0 1
    outer loop
      vertex 38 6 9.5
      vertex 43 -6 9.5
      vertex 43 6 9.5
    endloop
  endfacet
  facet normal 0 0 1
    outer loop
      vertex 38 6 9.5
      vertex 38 -6 9.5
      vertex 43 -6 9.5
    endloop
  endfacet
  facet normal -0 0 1
    outer loop
      vertex 35.5 6 9.5
      vertex 38 -6 9.5
      vertex 38 6 9.5
    endloop
  endfacet
  facet normal 0 0 1
    outer loop
      vertex 38 -6 9.5
      vertex 35.5 6 9.5
      vertex 35.5 -6 9.5
    endloop
  endfacet
  facet normal -1 0 0
    outer loop
      vertex 35.5 -6 0
      vertex 35.5 6 9.5
      vertex 35.5 6 0
    endloop
  endfacet
  facet normal -1 -0 0
    outer loop
      vertex 35.5 6 9.5
      vertex 35.5 -6 0
      vertex 35.5 -6 9.5
    endloop
  endfacet
  facet normal 0 1 -0
    outer loop
      vertex 38 6 0
      vertex 35.5 6 9.5
      vertex 38 6 9.5
    endloop
  endfacet
  facet normal 0 1 0
    outer loop
      vertex 35.5 6 9.5
      vertex 38 6 0
      vertex 35.5 6 0
    endloop
  endfacet
  facet normal 0 1 -0
    outer loop
      vertex 45.5 6 0
      vertex 43 6 9.5
      vertex 45.5 6 9.5
    endloop
  endfacet
  facet normal 0 1 0
    outer loop
      vertex 43 6 9.5
      vertex 45.5 6 0
      vertex 43 6 0
    endloop
  endfacet
  facet normal 0 -1 0
    outer loop
      vertex 38 6 9.5
      vertex 43 6 18.5
      vertex 38 6 18.5
    endloop
  endfacet
  facet normal 0 -1 -0
    outer loop
      vertex 43 6 18.5
      vertex 38 6 9.5
      vertex 43 6 9.5
    endloop
  endfacet
  facet normal 0 1 -0
    outer loop
      vertex 43 -6 9.5
      vertex 38 -6 18.5
      vertex 43 -6 18.5
    endloop
  endfacet
  facet normal 0 1 0
    outer loop
      vertex 38 -6 18.5
      vertex 43 -6 9.5
      vertex 38 -6 9.5
    endloop
  endfacet
  facet normal 0 -1 0
    outer loop
      vertex 43 -6 0
      vertex 45.5 -6 9.5
      vertex 43 -6 9.5
    endloop
  endfacet
  facet normal 0 -1 -0
    outer loop
      vertex 45.5 -6 9.5
      vertex 43 -6 0
      vertex 45.5 -6 0
    endloop
  endfacet
  facet normal 0 -1 0
    outer loop
      vertex 35.5 -6 0
      vertex 38 -6 9.5
      vertex 35.5 -6 9.5
    endloop
  endfacet
  facet normal 0 -1 -0
    outer loop
      vertex 38 -6 9.5
      vertex 35.5 -6 0
      vertex 38 -6 0
    endloop
  endfacet
  facet normal 1 0 0
    outer loop
      vertex 43 6 9.5
      vertex 43 11 18.5
      vertex 43 6 18.5
    endloop
  endfacet
  facet normal 1 0 0
    outer loop
      vertex 43 11 18.5
      vertex 43 6 9.5
      vertex 43 11 0
    endloop
  endfacet
  facet normal 1 0 0
    outer loop
      vertex 43 11 0
      vertex 43 6 9.5
      vertex 43 6 0
    endloop
  endfacet
  facet normal -0 0 1
    outer loop
      vertex 40.5 11 18.5
      vertex 43 6 18.5
      vertex 43 11 18.5
    endloop
  endfacet
  facet normal 0 0 1
    outer loop
      vertex 38 6 18.5
      vertex 40.5 11 18.5
      vertex 38 11 18.5
    endloop
  endfacet
  facet normal 0 0 1
    outer loop
      vertex 40.5 11 18.5
      vertex 38 6 18.5
      vertex 43 6 18.5
    endloop
  endfacet
  facet normal -1 0 0
    outer loop
      vertex 38 6 9.5
      vertex 38 11 0
      vertex 38 6 0
    endloop
  endfacet
  facet normal -1 0 0
    outer loop
      vertex 38 11 0
      vertex 38 6 9.5
      vertex 38 11 18.5
    endloop
  endfacet
  facet normal -1 -0 0
    outer loop
      vertex 38 11 18.5
      vertex 38 6 9.5
      vertex 38 6 18.5
    endloop
  endfacet
  facet normal 0 -1 0
    outer loop
      vertex 20.5 11 19.55
      vertex 38 11 18.5
      vertex 40.5 11 19.55
    endloop
  endfacet
  facet normal 0 -1 0
    outer loop
      vertex 28.7544 11 0
      vertex 20.5 11 19.55
      vertex 20.5 11 0
    endloop
  endfacet
  facet normal 0 -1 0
    outer loop
      vertex 20.5 11 19.55
      vertex 28.7544 11 0
      vertex 38 11 18.5
    endloop
  endfacet
  facet normal 0 -1 0
    outer loop
      vertex 31.2456 11 0
      vertex 38 11 18.5
      vertex 28.7544 11 0
    endloop
  endfacet
  facet normal 0 -1 -0
    outer loop
      vertex 38 11 18.5
      vertex 31.2456 11 0
      vertex 38 11 0
    endloop
  endfacet
  facet normal 0 -1 -0
    outer loop
      vertex 40.5 11 19.55
      vertex 38 11 18.5
      vertex 40.5 11 18.5
    endloop
  endfacet
  facet normal 0 1 -0
    outer loop
      vertex 43 11 0
      vertex 40.5 11 18.5
      vertex 43 11 18.5
    endloop
  endfacet
  facet normal 0 1 0
    outer loop
      vertex 40.5 11 18.5
      vertex 43 11 0
      vertex 40.5 11 0
    endloop
  endfacet
  facet normal 1 -0 0
    outer loop
      vertex 43 -11 18.5
      vertex 43 -6 9.5
      vertex 43 -6 18.5
    endloop
  endfacet
  facet normal 1 0 0
    outer loop
      vertex 43 -11 0
      vertex 43 -6 9.5
      vertex 43 -11 18.5
    endloop
  endfacet
  facet normal 1 0 0
    outer loop
      vertex 43 -6 9.5
      vertex 43 -11 0
      vertex 43 -6 0
    endloop
  endfacet
  facet normal 0 0 1
    outer loop
      vertex 43 -6 18.5
      vertex 40.5 -11 18.5
      vertex 43 -11 18.5
    endloop
  endfacet
  facet normal -0 0 1
    outer loop
      vertex 38 -6 18.5
      vertex 40.5 -11 18.5
      vertex 43 -6 18.5
    endloop
  endfacet
  facet normal 0 0 1
    outer loop
      vertex 40.5 -11 18.5
      vertex 38 -6 18.5
      vertex 38 -11 18.5
    endloop
  endfacet
  facet normal -1 0 0
    outer loop
      vertex 38 -11 0
      vertex 38 -6 9.5
      vertex 38 -6 0
    endloop
  endfacet
  facet normal -1 0 0
    outer loop
      vertex 38 -11 18.5
      vertex 38 -6 9.5
      vertex 38 -11 0
    endloop
  endfacet
  facet normal -1 0 0
    outer loop
      vertex 38 -6 9.5
      vertex 38 -11 18.5
      vertex 38 -6 18.5
    endloop
  endfacet
  facet normal 0 1 0
    outer loop
      vertex 38 -11 18.5
      vertex 40.5 -11 19.55
      vertex 40.5 -11 18.5
    endloop
  endfacet
  facet normal 0 1 0
    outer loop
      vertex 40.5 -11 19.55
      vertex 38 -11 18.5
      vertex 20.5 -11 19.55
    endloop
  endfacet
  facet normal 0 1 0
    outer loop
      vertex 31.2456 -11 0
      vertex 38 -11 18.5
      vertex 38 -11 0
    endloop
  endfacet
  facet normal 0 1 0
    outer loop
      vertex 28.7544 -11 0
      vertex 38 -11 18.5
      vertex 31.2456 -11 0
    endloop
  endfacet
  facet normal 0 1 0
    outer loop
      vertex 38 -11 18.5
      vertex 28.7544 -11 0
      vertex 20.5 -11 19.55
    endloop
  endfacet
  facet normal 0 1 0
    outer loop
      vertex 20.5 -11 19.55
      vertex 28.7544 -11 0
      vertex 20.5 -11 0
    endloop
  endfacet
  facet normal 0 -1 0
    outer loop
      vertex 40.5 -11 0
      vertex 43 -11 18.5
      vertex 40.5 -11 18.5
    endloop
  endfacet
  facet normal 0 -1 -0
    outer loop
      vertex 43 -11 18.5
      vertex 40.5 -11 0
      vertex 43 -11 0
    endloop
  endfacet
  facet normal 1 -0 0
    outer loop
      vertex 52 -18 0
      vertex 52 18 -2
      vertex 52 18 0
    endloop
  endfacet
  facet normal 1 0 0
    outer loop
      vertex 52 18 -2
      vertex 52 -18 0
      vertex 52 -18 -2
    endloop
  endfacet
  facet normal 0 0 -1
    outer loop
      vertex 31.3856 -9.2 -2
      vertex 52 -18 -2
      vertex 31.5035 -9.45277 -2
    endloop
  endfacet
  facet normal 0 0 -1
    outer loop
      vertex 52 18 -2
      vertex 31.5757 9.72216 -2
      vertex 31.6 10 -2
    endloop
  endfacet
  facet normal 0 0 -1
    outer loop
      vertex 52 -18 -2
      vertex 31.3856 -9.2 -2
      vertex 52 18 -2
    endloop
  endfacet
  facet normal 0 0 -1
    outer loop
      vertex 52 18 -2
      vertex 31.5035 9.45277 -2
      vertex 31.5757 9.72216 -2
    endloop
  endfacet
  facet normal 0 0 -1
    outer loop
      vertex 31.3856 9.2 -2
      vertex 52 18 -2
      vertex 31.3856 -9.2 -2
    endloop
  endfacet
  facet normal 0 0 -1
    outer loop
      vertex 52 18 -2
      vertex 31.3856 9.2 -2
      vertex 31.5035 9.45277 -2
    endloop
  endfacet
  facet normal 0 0 -1
    outer loop
      vertex 31.2257 -8.97154 -2
      vertex 31.3856 9.2 -2
      vertex 31.3856 -9.2 -2
    endloop
  endfacet
  facet normal 0 0 -1
    outer loop
      vertex 31.2257 -8.97154 -2
      vertex 31.2257 8.97154 -2
      vertex 31.3856 9.2 -2
    endloop
  endfacet
  facet normal 0 0 -1
    outer loop
      vertex 31.0285 -8.77433 -2
      vertex 31.2257 8.97154 -2
      vertex 31.2257 -8.97154 -2
    endloop
  endfacet
  facet normal 0 0 -1
    outer loop
      vertex 31.0285 -8.77433 -2
      vertex 31.0285 8.77433 -2
      vertex 31.2257 8.97154 -2
    endloop
  endfacet
  facet normal 0 0 -1
    outer loop
      vertex 30.8 -8.61436 -2
      vertex 31.0285 8.77433 -2
      vertex 31.0285 -8.77433 -2
    endloop
  endfacet
  facet normal 0 0 -1
    outer loop
      vertex 30.8 -8.61436 -2
      vertex 30.8 8.61436 -2
      vertex 31.0285 8.77433 -2
    endloop
  endfacet
  facet normal 0 0 -1
    outer loop
      vertex 30.5472 -8.49649 -2
      vertex 30.8 8.61436 -2
      vertex 30.8 -8.61436 -2
    endloop
  endfacet
  facet normal 0 0 -1
    outer loop
      vertex 30.5472 -8.49649 -2
      vertex 30.5472 8.49649 -2
      vertex 30.8 8.61436 -2
    endloop
  endfacet
  facet normal 0 0 -1
    outer loop
      vertex 30.2778 -8.42431 -2
      vertex 30.5472 8.49649 -2
      vertex 30.5472 -8.49649 -2
    endloop
  endfacet
  facet normal 0 0 -1
    outer loop
      vertex 30.2778 -8.42431 -2
      vertex 30.2778 8.42431 -2
      vertex 30.5472 8.49649 -2
    endloop
  endfacet
  facet normal 0 0 -1
    outer loop
      vertex 30 -8.4 -2
      vertex 30.2778 8.42431 -2
      vertex 30.2778 -8.42431 -2
    endloop
  endfacet
  facet normal 0 0 -1
    outer loop
      vertex 30 -8.4 -2
      vertex 30 8.4 -2
      vertex 30.2778 8.42431 -2
    endloop
  endfacet
  facet normal 0 0 -1
    outer loop
      vertex 29.7222 -8.42431 -2
      vertex 30 8.4 -2
      vertex 30 -8.4 -2
    endloop
  endfacet
  facet normal 0 0 -1
    outer loop
      vertex 29.7222 -8.42431 -2
      vertex 29.7222 8.42431 -2
      vertex 30 8.4 -2
    endloop
  endfacet
  facet normal 0 0 -1
    outer loop
      vertex 29.4528 -8.49649 -2
      vertex 29.7222 8.42431 -2
      vertex 29.7222 -8.42431 -2
    endloop
  endfacet
  facet normal 0 0 -1
    outer loop
      vertex 29.4528 -8.49649 -2
      vertex 29.4528 8.49649 -2
      vertex 29.7222 8.42431 -2
    endloop
  endfacet
  facet normal 0 0 -1
    outer loop
      vertex 29.2 -8.61436 -2
      vertex 29.4528 8.49649 -2
      vertex 29.4528 -8.49649 -2
    endloop
  endfacet
  facet normal 0 0 -1
    outer loop
      vertex 29.2 -8.61436 -2
      vertex 29.2 8.61436 -2
      vertex 29.4528 8.49649 -2
    endloop
  endfacet
  facet normal 0 0 -1
    outer loop
      vertex 28.9715 -8.77433 -2
      vertex 29.2 8.61436 -2
      vertex 29.2 -8.61436 -2
    endloop
  endfacet
  facet normal 0 0 -1
    outer loop
      vertex 28.9715 -8.77433 -2
      vertex 28.9715 8.77433 -2
      vertex 29.2 8.61436 -2
    endloop
  endfacet
  facet normal 0 0 -1
    outer loop
      vertex 28.7743 -8.97154 -2
      vertex 28.9715 8.77433 -2
      vertex 28.9715 -8.77433 -2
    endloop
  endfacet
  facet normal 0 0 -1
    outer loop
      vertex 28.7743 -8.97154 -2
      vertex 28.7743 8.97154 -2
      vertex 28.9715 8.77433 -2
    endloop
  endfacet
  facet normal 0 0 -1
    outer loop
      vertex 28.6144 -9.2 -2
      vertex 28.7743 8.97154 -2
      vertex 28.7743 -8.97154 -2
    endloop
  endfacet
  facet normal 0 0 -1
    outer loop
      vertex 28.6144 -9.2 -2
      vertex 28.6144 9.2 -2
      vertex 28.7743 8.97154 -2
    endloop
  endfacet
  facet normal 0 0 -1
    outer loop
      vertex 0 -18 -2
      vertex 28.6144 -9.2 -2
      vertex 28.4965 -9.45277 -2
    endloop
  endfacet
  facet normal -0 0 -1
    outer loop
      vertex 28.6144 -9.2 -2
      vertex 0 -18 -2
      vertex 28.6144 9.2 -2
    endloop
  endfacet
  facet normal 0 0 -1
    outer loop
      vertex 0 -18 -2
      vertex 28.4965 -9.45277 -2
      vertex 28.4243 -9.72216 -2
    endloop
  endfacet
  facet normal 0 0 -1
    outer loop
      vertex 0 18 -2
      vertex 28.6144 9.2 -2
      vertex 0 -18 -2
    endloop
  endfacet
  facet normal 0 0 -1
    outer loop
      vertex 0 -18 -2
      vertex 28.4243 -9.72216 -2
      vertex 28.4 -10 -2
    endloop
  endfacet
  facet normal 0 0 -1
    outer loop
      vertex 28.6144 9.2 -2
      vertex 0 18 -2
      vertex 28.4965 9.45277 -2
    endloop
  endfacet
  facet normal 0 0 -1
    outer loop
      vertex 31.5757 -9.72216 -2
      vertex 52 -18 -2
      vertex 31.6 -10 -2
    endloop
  endfacet
  facet normal 0 0 -1
    outer loop
      vertex 52 -18 -2
      vertex 31.5757 -10.2778 -2
      vertex 31.6 -10 -2
    endloop
  endfacet
  facet normal 0 0 -1
    outer loop
      vertex 52 -18 -2
      vertex 31.5035 -10.5472 -2
      vertex 31.5757 -10.2778 -2
    endloop
  endfacet
  facet normal 0 0 -1
    outer loop
      vertex 52 -18 -2
      vertex 31.3856 -10.8 -2
      vertex 31.5035 -10.5472 -2
    endloop
  endfacet
  facet normal 0 0 -1
    outer loop
      vertex 52 -18 -2
      vertex 31.2257 -11.0285 -2
      vertex 31.3856 -10.8 -2
    endloop
  endfacet
  facet normal 0 0 -1
    outer loop
      vertex 52 -18 -2
      vertex 31.0285 -11.2257 -2
      vertex 31.2257 -11.0285 -2
    endloop
  endfacet
  facet normal 0 0 -1
    outer loop
      vertex 52 -18 -2
      vertex 30.8 -11.3856 -2
      vertex 31.0285 -11.2257 -2
    endloop
  endfacet
  facet normal 0 0 -1
    outer loop
      vertex 52 -18 -2
      vertex 30.5472 -11.5035 -2
      vertex 30.8 -11.3856 -2
    endloop
  endfacet
  facet normal 0 0 -1
    outer loop
      vertex 52 -18 -2
      vertex 30.2778 -11.5757 -2
      vertex 30.5472 -11.5035 -2
    endloop
  endfacet
  facet normal 0 0 -1
    outer loop
      vertex 52 -18 -2
      vertex 30 -11.6 -2
      vertex 30.2778 -11.5757 -2
    endloop
  endfacet
  facet normal 0 0 -1
    outer loop
      vertex 0 -18 -2
      vertex 30 -11.6 -2
      vertex 52 -18 -2
    endloop
  endfacet
  facet normal -0 0 -1
    outer loop
      vertex 30 -11.6 -2
      vertex 0 -18 -2
      vertex 29.7222 -11.5757 -2
    endloop
  endfacet
  facet normal 0 0 -1
    outer loop
      vertex 28.4965 9.45277 -2
      vertex 0 18 -2
      vertex 28.4243 9.72216 -2
    endloop
  endfacet
  facet normal -0 0 -1
    outer loop
      vertex 28.4243 -10.2778 -2
      vertex 0 -18 -2
      vertex 28.4 -10 -2
    endloop
  endfacet
  facet normal -0 0 -1
    outer loop
      vertex 28.4965 -10.5472 -2
      vertex 0 -18 -2
      vertex 28.4243 -10.2778 -2
    endloop
  endfacet
  facet normal -0 0 -1
    outer loop
      vertex 28.6144 -10.8 -2
      vertex 0 -18 -2
      vertex 28.4965 -10.5472 -2
    endloop
  endfacet
  facet normal -0 0 -1
    outer loop
      vertex 28.7743 -11.0285 -2
      vertex 0 -18 -2
      vertex 28.6144 -10.8 -2
    endloop
  endfacet
  facet normal -0 0 -1
    outer loop
      vertex 28.9715 -11.2257 -2
      vertex 0 -18 -2
      vertex 28.7743 -11.0285 -2
    endloop
  endfacet
  facet normal -0 0 -1
    outer loop
      vertex 29.2 -11.3856 -2
      vertex 0 -18 -2
      vertex 28.9715 -11.2257 -2
    endloop
  endfacet
  facet normal -0 0 -1
    outer loop
      vertex 29.4528 -11.5035 -2
      vertex 0 -18 -2
      vertex 29.2 -11.3856 -2
    endloop
  endfacet
  facet normal -0 0 -1
    outer loop
      vertex 29.7222 -11.5757 -2
      vertex 0 -18 -2
      vertex 29.4528 -11.5035 -2
    endloop
  endfacet
  facet normal 0 0 -1
    outer loop
      vertex 31.5035 -9.45277 -2
      vertex 52 -18 -2
      vertex 31.5757 -9.72216 -2
    endloop
  endfacet
  facet normal 0 0 -1
    outer loop
      vertex 31.5757 10.2778 -2
      vertex 52 18 -2
      vertex 31.6 10 -2
    endloop
  endfacet
  facet normal 0 0 -1
    outer loop
      vertex 31.5035 10.5472 -2
      vertex 52 18 -2
      vertex 31.5757 10.2778 -2
    endloop
  endfacet
  facet normal 0 0 -1
    outer loop
      vertex 31.3856 10.8 -2
      vertex 52 18 -2
      vertex 31.5035 10.5472 -2
    endloop
  endfacet
  facet normal 0 0 -1
    outer loop
      vertex 31.2257 11.0285 -2
      vertex 52 18 -2
      vertex 31.3856 10.8 -2
    endloop
  endfacet
  facet normal 0 0 -1
    outer loop
      vertex 31.0285 11.2257 -2
      vertex 52 18 -2
      vertex 31.2257 11.0285 -2
    endloop
  endfacet
  facet normal 0 0 -1
    outer loop
      vertex 30.8 11.3856 -2
      vertex 52 18 -2
      vertex 31.0285 11.2257 -2
    endloop
  endfacet
  facet normal 0 0 -1
    outer loop
      vertex 30.5472 11.5035 -2
      vertex 52 18 -2
      vertex 30.8 11.3856 -2
    endloop
  endfacet
  facet normal 0 0 -1
    outer loop
      vertex 30.2778 11.5757 -2
      vertex 52 18 -2
      vertex 30.5472 11.5035 -2
    endloop
  endfacet
  facet normal 0 0 -1
    outer loop
      vertex 30 11.6 -2
      vertex 52 18 -2
      vertex 30.2778 11.5757 -2
    endloop
  endfacet
  facet normal 0 0 -1
    outer loop
      vertex 0 18 -2
      vertex 30 11.6 -2
      vertex 29.7222 11.5757 -2
    endloop
  endfacet
  facet normal 0 0 -1
    outer loop
      vertex 0 18 -2
      vertex 29.7222 11.5757 -2
      vertex 29.4528 11.5035 -2
    endloop
  endfacet
  facet normal 0 0 -1
    outer loop
      vertex 28.4243 9.72216 -2
      vertex 0 18 -2
      vertex 28.4 10 -2
    endloop
  endfacet
  facet normal 0 0 -1
    outer loop
      vertex 28.4 10 -2
      vertex 0 18 -2
      vertex 28.4243 10.2778 -2
    endloop
  endfacet
  facet normal 0 0 -1
    outer loop
      vertex 28.4243 10.2778 -2
      vertex 0 18 -2
      vertex 28.4965 10.5472 -2
    endloop
  endfacet
  facet normal 0 0 -1
    outer loop
      vertex 28.4965 10.5472 -2
      vertex 0 18 -2
      vertex 28.6144 10.8 -2
    endloop
  endfacet
  facet normal 0 0 -1
    outer loop
      vertex 30 11.6 -2
      vertex 0 18 -2
      vertex 52 18 -2
    endloop
  endfacet
  facet normal 0 0 -1
    outer loop
      vertex 29.2 11.3856 -2
      vertex 0 18 -2
      vertex 29.4528 11.5035 -2
    endloop
  endfacet
  facet normal 0 0 -1
    outer loop
      vertex 28.9715 11.2257 -2
      vertex 0 18 -2
      vertex 29.2 11.3856 -2
    endloop
  endfacet
  facet normal 0 0 -1
    outer loop
      vertex 28.7743 11.0285 -2
      vertex 0 18 -2
      vertex 28.9715 11.2257 -2
    endloop
  endfacet
  facet normal 0 0 -1
    outer loop
      vertex 28.6144 10.8 -2
      vertex 0 18 -2
      vertex 28.7743 11.0285 -2
    endloop
  endfacet
  facet normal 0 1 -0
    outer loop
      vertex 52 18 -2
      vertex 0 18 0
      vertex 52 18 0
    endloop
  endfacet
  facet normal 0 1 0
    outer loop
      vertex 0 18 0
      vertex 52 18 -2
      vertex 0 18 -2
    endloop
  endfacet
  facet normal 0 -1 0
    outer loop
      vertex 0 -18 -2
      vertex 52 -18 0
      vertex 0 -18 0
    endloop
  endfacet
  facet normal 0 -1 -0
    outer loop
      vertex 52 -18 0
      vertex 0 -18 -2
      vertex 52 -18 -2
    endloop
  endfacet
  facet normal -0.258801 0.965931 0
    outer loop
      vertex 30.5472 8.49649 -2
      vertex 30.2778 8.42431 0
      vertex 30.5472 8.49649 0
    endloop
  endfacet
  facet normal -0.258801 0.965931 0
    outer loop
      vertex 30.2778 8.42431 0
      vertex 30.5472 8.49649 -2
      vertex 30.2778 8.42431 -2
    endloop
  endfacet
  facet normal -0.965913 -0.258868 0
    outer loop
      vertex 31.5757 10.2778 -2
      vertex 31.5035 10.5472 0
      vertex 31.5035 10.5472 -2
    endloop
  endfacet
  facet normal -0.965913 -0.258868 0
    outer loop
      vertex 31.5035 10.5472 0
      vertex 31.5757 10.2778 -2
      vertex 31.5757 10.2778 0
    endloop
  endfacet
  facet normal -0.996196 -0.0871403 0
    outer loop
      vertex 31.6 10 -2
      vertex 31.5757 10.2778 0
      vertex 31.5757 10.2778 -2
    endloop
  endfacet
  facet normal -0.996196 -0.0871403 0
    outer loop
      vertex 31.5757 10.2778 0
      vertex 31.6 10 -2
      vertex 31.6 10 0
    endloop
  endfacet
  facet normal -0.906284 -0.42267 0
    outer loop
      vertex 31.5035 10.5472 -2
      vertex 31.3856 10.8 0
      vertex 31.3856 10.8 -2
    endloop
  endfacet
  facet normal -0.906284 -0.42267 0
    outer loop
      vertex 31.3856 10.8 0
      vertex 31.5035 10.5472 -2
      vertex 31.5035 10.5472 0
    endloop
  endfacet
  facet normal -0.996197 0.0871278 0
    outer loop
      vertex 31.5757 9.72216 -2
      vertex 31.6 10 0
      vertex 31.6 10 -2
    endloop
  endfacet
  facet normal -0.996197 0.0871278 0
    outer loop
      vertex 31.6 10 0
      vertex 31.5757 9.72216 -2
      vertex 31.5757 9.72216 0
    endloop
  endfacet
  facet normal -0.258868 -0.965913 0
    outer loop
      vertex 30.2778 11.5757 -2
      vertex 30.5472 11.5035 0
      vertex 30.2778 11.5757 0
    endloop
  endfacet
  facet normal -0.258868 -0.965913 -0
    outer loop
      vertex 30.5472 11.5035 0
      vertex 30.2778 11.5757 -2
      vertex 30.5472 11.5035 -2
    endloop
  endfacet
  facet normal -0.707107 -0.707107 0
    outer loop
      vertex 31.2257 11.0285 -2
      vertex 31.0285 11.2257 0
      vertex 31.0285 11.2257 -2
    endloop
  endfacet
  facet normal -0.707107 -0.707107 0
    outer loop
      vertex 31.0285 11.2257 0
      vertex 31.2257 11.0285 -2
      vertex 31.2257 11.0285 0
    endloop
  endfacet
  facet normal 0.906265 0.422711 0
    outer loop
      vertex 28.6144 9.2 0
      vertex 28.4965 9.45277 -2
      vertex 28.4965 9.45277 0
    endloop
  endfacet
  facet normal 0.906265 0.422711 0
    outer loop
      vertex 28.4965 9.45277 -2
      vertex 28.6144 9.2 0
      vertex 28.6144 9.2 -2
    endloop
  endfacet
  facet normal -0.906265 0.422711 0
    outer loop
      vertex 31.3856 9.2 -2
      vertex 31.5035 9.45277 0
      vertex 31.5035 9.45277 -2
    endloop
  endfacet
  facet normal -0.906265 0.422711 0
    outer loop
      vertex 31.5035 9.45277 0
      vertex 31.3856 9.2 -2
      vertex 31.3856 9.2 0
    endloop
  endfacet
  facet normal 0.42267 -0.906284 0
    outer loop
      vertex 29.2 11.3856 -2
      vertex 29.4528 11.5035 0
      vertex 29.2 11.3856 0
    endloop
  endfacet
  facet normal 0.42267 -0.906284 0
    outer loop
      vertex 29.4528 11.5035 0
      vertex 29.2 11.3856 -2
      vertex 29.4528 11.5035 -2
    endloop
  endfacet
  facet normal -0.707125 0.707089 0
    outer loop
      vertex 31.0285 8.77433 -2
      vertex 31.2257 8.97154 0
      vertex 31.2257 8.97154 -2
    endloop
  endfacet
  facet normal -0.707125 0.707089 0
    outer loop
      vertex 31.2257 8.97154 0
      vertex 31.0285 8.77433 -2
      vertex 31.0285 8.77433 0
    endloop
  endfacet
  facet normal -0.819269 0.573409 0
    outer loop
      vertex 31.2257 8.97154 -2
      vertex 31.3856 9.2 0
      vertex 31.3856 9.2 -2
    endloop
  endfacet
  facet normal -0.819269 0.573409 0
    outer loop
      vertex 31.3856 9.2 0
      vertex 31.2257 8.97154 -2
      vertex 31.2257 8.97154 0
    endloop
  endfacet
  facet normal 0.819907 -0.572497 0
    outer loop
      vertex 28.7544 11 0
      vertex 28.7743 11.0285 -2
      vertex 28.7743 11.0285 0
    endloop
  endfacet
  facet normal 0.819232 -0.573462 0
    outer loop
      vertex 28.6144 10.8 -2
      vertex 28.7544 11 0
      vertex 28.6144 10.8 0
    endloop
  endfacet
  facet normal 0.819316 -0.573342 -1.79281e-05
    outer loop
      vertex 28.7544 11 0
      vertex 28.6144 10.8 -2
      vertex 28.7743 11.0285 -2
    endloop
  endfacet
  facet normal -0.96591 0.258876 0
    outer loop
      vertex 31.5035 9.45277 -2
      vertex 31.5757 9.72216 0
      vertex 31.5757 9.72216 -2
    endloop
  endfacet
  facet normal -0.96591 0.258876 0
    outer loop
      vertex 31.5757 9.72216 0
      vertex 31.5035 9.45277 -2
      vertex 31.5035 9.45277 0
    endloop
  endfacet
  facet normal -0.422581 0.906325 0
    outer loop
      vertex 30.8 8.61436 -2
      vertex 30.5472 8.49649 0
      vertex 30.8 8.61436 0
    endloop
  endfacet
  facet normal -0.422581 0.906325 0
    outer loop
      vertex 30.5472 8.49649 0
      vertex 30.8 8.61436 -2
      vertex 30.5472 8.49649 -2
    endloop
  endfacet
  facet normal 0.96591 0.258876 0
    outer loop
      vertex 28.4965 9.45277 0
      vertex 28.4243 9.72216 -2
      vertex 28.4243 9.72216 0
    endloop
  endfacet
  facet normal 0.96591 0.258876 0
    outer loop
      vertex 28.4243 9.72216 -2
      vertex 28.4965 9.45277 0
      vertex 28.4965 9.45277 -2
    endloop
  endfacet
  facet normal 0.707107 -0.707107 0
    outer loop
      vertex 28.7743 11.0285 0
      vertex 28.9715 11.2257 -2
      vertex 28.9715 11.2257 0
    endloop
  endfacet
  facet normal 0.707107 -0.707107 0
    outer loop
      vertex 28.9715 11.2257 -2
      vertex 28.7743 11.0285 0
      vertex 28.7743 11.0285 -2
    endloop
  endfacet
  facet normal -0.819907 -0.572497 0
    outer loop
      vertex 31.2257 11.0285 -2
      vertex 31.2456 11 0
      vertex 31.2257 11.0285 0
    endloop
  endfacet
  facet normal -0.819316 -0.573342 -1.79281e-05
    outer loop
      vertex 31.3856 10.8 -2
      vertex 31.2456 11 0
      vertex 31.2257 11.0285 -2
    endloop
  endfacet
  facet normal -0.819232 -0.573462 0
    outer loop
      vertex 31.2456 11 0
      vertex 31.3856 10.8 -2
      vertex 31.3856 10.8 0
    endloop
  endfacet
  facet normal 0.258868 -0.965913 0
    outer loop
      vertex 29.4528 11.5035 -2
      vertex 29.7222 11.5757 0
      vertex 29.4528 11.5035 0
    endloop
  endfacet
  facet normal 0.258868 -0.965913 0
    outer loop
      vertex 29.7222 11.5757 0
      vertex 29.4528 11.5035 -2
      vertex 29.7222 11.5757 -2
    endloop
  endfacet
  facet normal 0.996196 -0.0871403 0
    outer loop
      vertex 28.4 10 0
      vertex 28.4243 10.2778 -2
      vertex 28.4243 10.2778 0
    endloop
  endfacet
  facet normal 0.996196 -0.0871403 0
    outer loop
      vertex 28.4243 10.2778 -2
      vertex 28.4 10 0
      vertex 28.4 10 -2
    endloop
  endfacet
  facet normal 0.573342 -0.819316 0
    outer loop
      vertex 28.9715 11.2257 -2
      vertex 29.2 11.3856 0
      vertex 28.9715 11.2257 0
    endloop
  endfacet
  facet normal 0.573342 -0.819316 0
    outer loop
      vertex 29.2 11.3856 0
      vertex 28.9715 11.2257 -2
      vertex 29.2 11.3856 -2
    endloop
  endfacet
  facet normal 0.906284 -0.42267 0
    outer loop
      vertex 28.4965 10.5472 0
      vertex 28.6144 10.8 -2
      vertex 28.6144 10.8 0
    endloop
  endfacet
  facet normal 0.906284 -0.42267 0
    outer loop
      vertex 28.6144 10.8 -2
      vertex 28.4965 10.5472 0
      vertex 28.4965 10.5472 -2
    endloop
  endfacet
  facet normal 0.965913 -0.258868 0
    outer loop
      vertex 28.4243 10.2778 0
      vertex 28.4965 10.5472 -2
      vertex 28.4965 10.5472 0
    endloop
  endfacet
  facet normal 0.965913 -0.258868 0
    outer loop
      vertex 28.4965 10.5472 -2
      vertex 28.4243 10.2778 0
      vertex 28.4243 10.2778 -2
    endloop
  endfacet
  facet normal -0.57351 0.819198 0
    outer loop
      vertex 31.0285 8.77433 -2
      vertex 30.8 8.61436 0
      vertex 31.0285 8.77433 0
    endloop
  endfacet
  facet normal -0.57351 0.819198 0
    outer loop
      vertex 30.8 8.61436 0
      vertex 31.0285 8.77433 -2
      vertex 30.8 8.61436 -2
    endloop
  endfacet
  facet normal -0.42267 -0.906284 0
    outer loop
      vertex 30.5472 11.5035 -2
      vertex 30.8 11.3856 0
      vertex 30.5472 11.5035 0
    endloop
  endfacet
  facet normal -0.42267 -0.906284 -0
    outer loop
      vertex 30.8 11.3856 0
      vertex 30.5472 11.5035 -2
      vertex 30.8 11.3856 -2
    endloop
  endfacet
  facet normal -0.573342 -0.819316 0
    outer loop
      vertex 30.8 11.3856 -2
      vertex 31.0285 11.2257 0
      vertex 30.8 11.3856 0
    endloop
  endfacet
  facet normal -0.573342 -0.819316 -0
    outer loop
      vertex 31.0285 11.2257 0
      vertex 30.8 11.3856 -2
      vertex 31.0285 11.2257 -2
    endloop
  endfacet
  facet normal -0.0871403 -0.996196 0
    outer loop
      vertex 30 11.6 -2
      vertex 30.2778 11.5757 0
      vertex 30 11.6 0
    endloop
  endfacet
  facet normal -0.0871403 -0.996196 -0
    outer loop
      vertex 30.2778 11.5757 0
      vertex 30 11.6 -2
      vertex 30.2778 11.5757 -2
    endloop
  endfacet
  facet normal 0.258801 0.965931 -0
    outer loop
      vertex 29.7222 8.42431 -2
      vertex 29.4528 8.49649 0
      vertex 29.7222 8.42431 0
    endloop
  endfacet
  facet normal 0.258801 0.965931 0
    outer loop
      vertex 29.4528 8.49649 0
      vertex 29.7222 8.42431 -2
      vertex 29.4528 8.49649 -2
    endloop
  endfacet
  facet normal 0.57351 0.819198 -0
    outer loop
      vertex 29.2 8.61436 -2
      vertex 28.9715 8.77433 0
      vertex 29.2 8.61436 0
    endloop
  endfacet
  facet normal 0.57351 0.819198 0
    outer loop
      vertex 28.9715 8.77433 0
      vertex 29.2 8.61436 -2
      vertex 28.9715 8.77433 -2
    endloop
  endfacet
  facet normal 0.819269 0.573409 0
    outer loop
      vertex 28.7743 8.97154 0
      vertex 28.6144 9.2 -2
      vertex 28.6144 9.2 0
    endloop
  endfacet
  facet normal 0.819269 0.573409 0
    outer loop
      vertex 28.6144 9.2 -2
      vertex 28.7743 8.97154 0
      vertex 28.7743 8.97154 -2
    endloop
  endfacet
  facet normal 0.0871403 -0.996196 0
    outer loop
      vertex 29.7222 11.5757 -2
      vertex 30 11.6 0
      vertex 29.7222 11.5757 0
    endloop
  endfacet
  facet normal 0.0871403 -0.996196 0
    outer loop
      vertex 30 11.6 0
      vertex 29.7222 11.5757 -2
      vertex 30 11.6 -2
    endloop
  endfacet
  facet normal 0.707125 0.707089 0
    outer loop
      vertex 28.9715 8.77433 0
      vertex 28.7743 8.97154 -2
      vertex 28.7743 8.97154 0
    endloop
  endfacet
  facet normal 0.707125 0.707089 0
    outer loop
      vertex 28.7743 8.97154 -2
      vertex 28.9715 8.77433 0
      vertex 28.9715 8.77433 -2
    endloop
  endfacet
  facet normal -0.0871758 0.996193 0
    outer loop
      vertex 30.2778 8.42431 -2
      vertex 30 8.4 0
      vertex 30.2778 8.42431 0
    endloop
  endfacet
  facet normal -0.0871758 0.996193 0
    outer loop
      vertex 30 8.4 0
      vertex 30.2778 8.42431 -2
      vertex 30 8.4 -2
    endloop
  endfacet
  facet normal 0.0871758 0.996193 -0
    outer loop
      vertex 30 8.4 -2
      vertex 29.7222 8.42431 0
      vertex 30 8.4 0
    endloop
  endfacet
  facet normal 0.0871758 0.996193 0
    outer loop
      vertex 29.7222 8.42431 0
      vertex 30 8.4 -2
      vertex 29.7222 8.42431 -2
    endloop
  endfacet
  facet normal 0.996197 0.0871278 0
    outer loop
      vertex 28.4243 9.72216 0
      vertex 28.4 10 -2
      vertex 28.4 10 0
    endloop
  endfacet
  facet normal 0.996197 0.0871278 0
    outer loop
      vertex 28.4 10 -2
      vertex 28.4243 9.72216 0
      vertex 28.4243 9.72216 -2
    endloop
  endfacet
  facet normal 0.422581 0.906325 -0
    outer loop
      vertex 29.4528 8.49649 -2
      vertex 29.2 8.61436 0
      vertex 29.4528 8.49649 0
    endloop
  endfacet
  facet normal 0.422581 0.906325 0
    outer loop
      vertex 29.2 8.61436 0
      vertex 29.4528 8.49649 -2
      vertex 29.2 8.61436 -2
    endloop
  endfacet
  facet normal 0.258801 -0.965931 0
    outer loop
      vertex 29.4528 -8.49649 -2
      vertex 29.7222 -8.42431 0
      vertex 29.4528 -8.49649 0
    endloop
  endfacet
  facet normal 0.258801 -0.965931 0
    outer loop
      vertex 29.7222 -8.42431 0
      vertex 29.4528 -8.49649 -2
      vertex 29.7222 -8.42431 -2
    endloop
  endfacet
  facet normal -0.96591 -0.258876 0
    outer loop
      vertex 31.5757 -9.72216 -2
      vertex 31.5035 -9.45277 0
      vertex 31.5035 -9.45277 -2
    endloop
  endfacet
  facet normal -0.96591 -0.258876 0
    outer loop
      vertex 31.5035 -9.45277 0
      vertex 31.5757 -9.72216 -2
      vertex 31.5757 -9.72216 0
    endloop
  endfacet
  facet normal -0.996197 -0.0871278 0
    outer loop
      vertex 31.6 -10 -2
      vertex 31.5757 -9.72216 0
      vertex 31.5757 -9.72216 -2
    endloop
  endfacet
  facet normal -0.996197 -0.0871278 0
    outer loop
      vertex 31.5757 -9.72216 0
      vertex 31.6 -10 -2
      vertex 31.6 -10 0
    endloop
  endfacet
  facet normal -0.906265 -0.422711 0
    outer loop
      vertex 31.5035 -9.45277 -2
      vertex 31.3856 -9.2 0
      vertex 31.3856 -9.2 -2
    endloop
  endfacet
  facet normal -0.906265 -0.422711 0
    outer loop
      vertex 31.3856 -9.2 0
      vertex 31.5035 -9.45277 -2
      vertex 31.5035 -9.45277 0
    endloop
  endfacet
  facet normal 0.707107 0.707107 0
    outer loop
      vertex 28.9715 -11.2257 0
      vertex 28.7743 -11.0285 -2
      vertex 28.7743 -11.0285 0
    endloop
  endfacet
  facet normal 0.707107 0.707107 0
    outer loop
      vertex 28.7743 -11.0285 -2
      vertex 28.9715 -11.2257 0
      vertex 28.9715 -11.2257 -2
    endloop
  endfacet
  facet normal -0.573342 0.819316 0
    outer loop
      vertex 31.0285 -11.2257 -2
      vertex 30.8 -11.3856 0
      vertex 31.0285 -11.2257 0
    endloop
  endfacet
  facet normal -0.573342 0.819316 0
    outer loop
      vertex 30.8 -11.3856 0
      vertex 31.0285 -11.2257 -2
      vertex 30.8 -11.3856 -2
    endloop
  endfacet
  facet normal -0.996196 0.0871403 0
    outer loop
      vertex 31.5757 -10.2778 -2
      vertex 31.6 -10 0
      vertex 31.6 -10 -2
    endloop
  endfacet
  facet normal -0.996196 0.0871403 0
    outer loop
      vertex 31.6 -10 0
      vertex 31.5757 -10.2778 -2
      vertex 31.5757 -10.2778 0
    endloop
  endfacet
  facet normal -0.819269 -0.573409 0
    outer loop
      vertex 31.3856 -9.2 -2
      vertex 31.2257 -8.97154 0
      vertex 31.2257 -8.97154 -2
    endloop
  endfacet
  facet normal -0.819269 -0.573409 0
    outer loop
      vertex 31.2257 -8.97154 0
      vertex 31.3856 -9.2 -2
      vertex 31.3856 -9.2 0
    endloop
  endfacet
  facet normal -0.819232 0.573462 0
    outer loop
      vertex 31.3856 -10.8 -2
      vertex 31.2456 -11 0
      vertex 31.3856 -10.8 0
    endloop
  endfacet
  facet normal -0.819316 0.573342 -1.79281e-05
    outer loop
      vertex 31.2257 -11.0285 -2
      vertex 31.2456 -11 0
      vertex 31.3856 -10.8 -2
    endloop
  endfacet
  facet normal -0.819907 0.572497 0
    outer loop
      vertex 31.2456 -11 0
      vertex 31.2257 -11.0285 -2
      vertex 31.2257 -11.0285 0
    endloop
  endfacet
  facet normal -0.0871758 -0.996193 0
    outer loop
      vertex 30 -8.4 -2
      vertex 30.2778 -8.42431 0
      vertex 30 -8.4 0
    endloop
  endfacet
  facet normal -0.0871758 -0.996193 -0
    outer loop
      vertex 30.2778 -8.42431 0
      vertex 30 -8.4 -2
      vertex 30.2778 -8.42431 -2
    endloop
  endfacet
  facet normal 0.707125 -0.707089 0
    outer loop
      vertex 28.7743 -8.97154 0
      vertex 28.9715 -8.77433 -2
      vertex 28.9715 -8.77433 0
    endloop
  endfacet
  facet normal 0.707125 -0.707089 0
    outer loop
      vertex 28.9715 -8.77433 -2
      vertex 28.7743 -8.97154 0
      vertex 28.7743 -8.97154 -2
    endloop
  endfacet
  facet normal 0.96591 -0.258876 0
    outer loop
      vertex 28.4243 -9.72216 0
      vertex 28.4965 -9.45277 -2
      vertex 28.4965 -9.45277 0
    endloop
  endfacet
  facet normal 0.96591 -0.258876 0
    outer loop
      vertex 28.4965 -9.45277 -2
      vertex 28.4243 -9.72216 0
      vertex 28.4243 -9.72216 -2
    endloop
  endfacet
  facet normal 0.57351 -0.819198 0
    outer loop
      vertex 28.9715 -8.77433 -2
      vertex 29.2 -8.61436 0
      vertex 28.9715 -8.77433 0
    endloop
  endfacet
  facet normal 0.57351 -0.819198 0
    outer loop
      vertex 29.2 -8.61436 0
      vertex 28.9715 -8.77433 -2
      vertex 29.2 -8.61436 -2
    endloop
  endfacet
  facet normal 0.906284 0.42267 0
    outer loop
      vertex 28.6144 -10.8 0
      vertex 28.4965 -10.5472 -2
      vertex 28.4965 -10.5472 0
    endloop
  endfacet
  facet normal 0.906284 0.42267 0
    outer loop
      vertex 28.4965 -10.5472 -2
      vertex 28.6144 -10.8 0
      vertex 28.6144 -10.8 -2
    endloop
  endfacet
  facet normal -0.57351 -0.819198 0
    outer loop
      vertex 30.8 -8.61436 -2
      vertex 31.0285 -8.77433 0
      vertex 30.8 -8.61436 0
    endloop
  endfacet
  facet normal -0.57351 -0.819198 -0
    outer loop
      vertex 31.0285 -8.77433 0
      vertex 30.8 -8.61436 -2
      vertex 31.0285 -8.77433 -2
    endloop
  endfacet
  facet normal -0.258801 -0.965931 0
    outer loop
      vertex 30.2778 -8.42431 -2
      vertex 30.5472 -8.49649 0
      vertex 30.2778 -8.42431 0
    endloop
  endfacet
  facet normal -0.258801 -0.965931 -0
    outer loop
      vertex 30.5472 -8.49649 0
      vertex 30.2778 -8.42431 -2
      vertex 30.5472 -8.49649 -2
    endloop
  endfacet
  facet normal -0.965913 0.258868 0
    outer loop
      vertex 31.5035 -10.5472 -2
      vertex 31.5757 -10.2778 0
      vertex 31.5757 -10.2778 -2
    endloop
  endfacet
  facet normal -0.965913 0.258868 0
    outer loop
      vertex 31.5757 -10.2778 0
      vertex 31.5035 -10.5472 -2
      vertex 31.5035 -10.5472 0
    endloop
  endfacet
  facet normal -0.422581 -0.906325 0
    outer loop
      vertex 30.5472 -8.49649 -2
      vertex 30.8 -8.61436 0
      vertex 30.5472 -8.49649 0
    endloop
  endfacet
  facet normal -0.422581 -0.906325 -0
    outer loop
      vertex 30.8 -8.61436 0
      vertex 30.5472 -8.49649 -2
      vertex 30.8 -8.61436 -2
    endloop
  endfacet
  facet normal 0.819232 0.573462 0
    outer loop
      vertex 28.7544 -11 0
      vertex 28.6144 -10.8 -2
      vertex 28.6144 -10.8 0
    endloop
  endfacet
  facet normal 0.819907 0.572497 -0
    outer loop
      vertex 28.7743 -11.0285 -2
      vertex 28.7544 -11 0
      vertex 28.7743 -11.0285 0
    endloop
  endfacet
  facet normal 0.819316 0.573342 -1.79281e-05
    outer loop
      vertex 28.7544 -11 0
      vertex 28.7743 -11.0285 -2
      vertex 28.6144 -10.8 -2
    endloop
  endfacet
  facet normal 0.422581 -0.906325 0
    outer loop
      vertex 29.2 -8.61436 -2
      vertex 29.4528 -8.49649 0
      vertex 29.2 -8.61436 0
    endloop
  endfacet
  facet normal 0.422581 -0.906325 0
    outer loop
      vertex 29.4528 -8.49649 0
      vertex 29.2 -8.61436 -2
      vertex 29.4528 -8.49649 -2
    endloop
  endfacet
  facet normal -0.258868 0.965913 0
    outer loop
      vertex 30.5472 -11.5035 -2
      vertex 30.2778 -11.5757 0
      vertex 30.5472 -11.5035 0
    endloop
  endfacet
  facet normal -0.258868 0.965913 0
    outer loop
      vertex 30.2778 -11.5757 0
      vertex 30.5472 -11.5035 -2
      vertex 30.2778 -11.5757 -2
    endloop
  endfacet
  facet normal -0.906284 0.42267 0
    outer loop
      vertex 31.3856 -10.8 -2
      vertex 31.5035 -10.5472 0
      vertex 31.5035 -10.5472 -2
    endloop
  endfacet
  facet normal -0.906284 0.42267 0
    outer loop
      vertex 31.5035 -10.5472 0
      vertex 31.3856 -10.8 -2
      vertex 31.3856 -10.8 0
    endloop
  endfacet
  facet normal -0.707125 -0.707089 0
    outer loop
      vertex 31.2257 -8.97154 -2
      vertex 31.0285 -8.77433 0
      vertex 31.0285 -8.77433 -2
    endloop
  endfacet
  facet normal -0.707125 -0.707089 0
    outer loop
      vertex 31.0285 -8.77433 0
      vertex 31.2257 -8.97154 -2
      vertex 31.2257 -8.97154 0
    endloop
  endfacet
  facet normal 0.965913 0.258868 0
    outer loop
      vertex 28.4965 -10.5472 0
      vertex 28.4243 -10.2778 -2
      vertex 28.4243 -10.2778 0
    endloop
  endfacet
  facet normal 0.965913 0.258868 0
    outer loop
      vertex 28.4243 -10.2778 -2
      vertex 28.4965 -10.5472 0
      vertex 28.4965 -10.5472 -2
    endloop
  endfacet
  facet normal -0.0871403 0.996196 0
    outer loop
      vertex 30.2778 -11.5757 -2
      vertex 30 -11.6 0
      vertex 30.2778 -11.5757 0
    endloop
  endfacet
  facet normal -0.0871403 0.996196 0
    outer loop
      vertex 30 -11.6 0
      vertex 30.2778 -11.5757 -2
      vertex 30 -11.6 -2
    endloop
  endfacet
  facet normal 0.573342 0.819316 -0
    outer loop
      vertex 29.2 -11.3856 -2
      vertex 28.9715 -11.2257 0
      vertex 29.2 -11.3856 0
    endloop
  endfacet
  facet normal 0.573342 0.819316 0
    outer loop
      vertex 28.9715 -11.2257 0
      vertex 29.2 -11.3856 -2
      vertex 28.9715 -11.2257 -2
    endloop
  endfacet
  facet normal -0.707107 0.707107 0
    outer loop
      vertex 31.0285 -11.2257 -2
      vertex 31.2257 -11.0285 0
      vertex 31.2257 -11.0285 -2
    endloop
  endfacet
  facet normal -0.707107 0.707107 0
    outer loop
      vertex 31.2257 -11.0285 0
      vertex 31.0285 -11.2257 -2
      vertex 31.0285 -11.2257 0
    endloop
  endfacet
  facet normal 0.996196 0.0871403 0
    outer loop
      vertex 28.4243 -10.2778 0
      vertex 28.4 -10 -2
      vertex 28.4 -10 0
    endloop
  endfacet
  facet normal 0.996196 0.0871403 0
    outer loop
      vertex 28.4 -10 -2
      vertex 28.4243 -10.2778 0
      vertex 28.4243 -10.2778 -2
    endloop
  endfacet
  facet normal -0.42267 0.906284 0
    outer loop
      vertex 30.8 -11.3856 -2
      vertex 30.5472 -11.5035 0
      vertex 30.8 -11.3856 0
    endloop
  endfacet
  facet normal -0.42267 0.906284 0
    outer loop
      vertex 30.5472 -11.5035 0
      vertex 30.8 -11.3856 -2
      vertex 30.5472 -11.5035 -2
    endloop
  endfacet
  facet normal 0.258868 0.965913 -0
    outer loop
      vertex 29.7222 -11.5757 -2
      vertex 29.4528 -11.5035 0
      vertex 29.7222 -11.5757 0
    endloop
  endfacet
  facet normal 0.258868 0.965913 0
    outer loop
      vertex 29.4528 -11.5035 0
      vertex 29.7222 -11.5757 -2
      vertex 29.4528 -11.5035 -2
    endloop
  endfacet
  facet normal 0.0871758 -0.996193 0
    outer loop
      vertex 29.7222 -8.42431 -2
      vertex 30 -8.4 0
      vertex 29.7222 -8.42431 0
    endloop
  endfacet
  facet normal 0.0871758 -0.996193 0
    outer loop
      vertex 30 -8.4 0
      vertex 29.7222 -8.42431 -2
      vertex 30 -8.4 -2
    endloop
  endfacet
  facet normal 0.996197 -0.0871278 0
    outer loop
      vertex 28.4 -10 0
      vertex 28.4243 -9.72216 -2
      vertex 28.4243 -9.72216 0
    endloop
  endfacet
  facet normal 0.996197 -0.0871278 0
    outer loop
      vertex 28.4243 -9.72216 -2
      vertex 28.4 -10 0
      vertex 28.4 -10 -2
    endloop
  endfacet
  facet normal 0.819269 -0.573409 0
    outer loop
      vertex 28.6144 -9.2 0
      vertex 28.7743 -8.97154 -2
      vertex 28.7743 -8.97154 0
    endloop
  endfacet
  facet normal 0.819269 -0.573409 0
    outer loop
      vertex 28.7743 -8.97154 -2
      vertex 28.6144 -9.2 0
      vertex 28.6144 -9.2 -2
    endloop
  endfacet
  facet normal 0.0871403 0.996196 -0
    outer loop
      vertex 30 -11.6 -2
      vertex 29.7222 -11.5757 0
      vertex 30 -11.6 0
    endloop
  endfacet
  facet normal 0.0871403 0.996196 0
    outer loop
      vertex 29.7222 -11.5757 0
      vertex 30 -11.6 -2
      vertex 29.7222 -11.5757 -2
    endloop
  endfacet
  facet normal 0.906265 -0.422711 0
    outer loop
      vertex 28.4965 -9.45277 0
      vertex 28.6144 -9.2 -2
      vertex 28.6144 -9.2 0
    endloop
  endfacet
  facet normal 0.906265 -0.422711 0
    outer loop
      vertex 28.6144 -9.2 -2
      vertex 28.4965 -9.45277 0
      vertex 28.4965 -9.45277 -2
    endloop
  endfacet
  facet normal 0.42267 0.906284 -0
    outer loop
      vertex 29.4528 -11.5035 -2
      vertex 29.2 -11.3856 0
      vertex 29.4528 -11.5035 0
    endloop
  endfacet
  facet normal 0.42267 0.906284 0
    outer loop
      vertex 29.2 -11.3856 0
      vertex 29.4528 -11.5035 -2
      vertex 29.2 -11.3856 -2
    endloop
  endfacet
  facet normal 0 -0.422631 0.906302
    outer loop
      vertex 0.95 2.125 10.8194
      vertex 3 1.45358 10.5063
      vertex 3 2.125 10.8194
    endloop
  endfacet
  facet normal 0 -0.422631 0.906302
    outer loop
      vertex 3 1.45358 10.5063
      vertex 0.95 2.125 10.8194
      vertex 0.95 1.45358 10.5063
    endloop
  endfacet
  facet normal 0 0.996194 0.0871603
    outer loop
      vertex 3 -4.18543 13.762
      vertex 0.95 -4.25 14.5
      vertex 3 -4.25 14.5
    endloop
  endfacet
  facet normal 0 0.996194 0.0871603
    outer loop
      vertex 0.95 -4.25 14.5
      vertex 3 -4.18543 13.762
      vertex 0.95 -4.18543 13.762
    endloop
  endfacet
  facet normal 0 0.906307 0.422619
    outer loop
      vertex 3 -3.68061 12.375
      vertex 0.95 -3.99369 13.0464
      vertex 3 -3.99369 13.0464
    endloop
  endfacet
  facet normal 0 0.906307 0.422619
    outer loop
      vertex 0.95 -3.99369 13.0464
      vertex 3 -3.68061 12.375
      vertex 0.95 -3.68061 12.375
    endloop
  endfacet
  facet normal 0 -0.906307 0.422619
    outer loop
      vertex 0.95 3.68061 12.375
      vertex 3 3.99369 13.0464
      vertex 0.95 3.99369 13.0464
    endloop
  endfacet
  facet normal 0 -0.906307 0.422619
    outer loop
      vertex 3 3.99369 13.0464
      vertex 0.95 3.68061 12.375
      vertex 3 3.68061 12.375
    endloop
  endfacet
  facet normal 0 -0.573557 -0.819165
    outer loop
      vertex 0.95 2.125 18.1806
      vertex 3 2.73185 17.7557
      vertex 3 2.125 18.1806
    endloop
  endfacet
  facet normal -0 -0.573557 -0.819165
    outer loop
      vertex 3 2.73185 17.7557
      vertex 0.95 2.125 18.1806
      vertex 0.95 2.73185 17.7557
    endloop
  endfacet
  facet normal 0 -0.422631 -0.906302
    outer loop
      vertex 0.95 1.45358 18.4937
      vertex 3 2.125 18.1806
      vertex 3 1.45358 18.4937
    endloop
  endfacet
  facet normal -0 -0.422631 -0.906302
    outer loop
      vertex 3 2.125 18.1806
      vertex 0.95 1.45358 18.4937
      vertex 0.95 2.125 18.1806
    endloop
  endfacet
  facet normal 0 -0.906307 -0.422619
    outer loop
      vertex 0.95 3.99369 15.9536
      vertex 3 3.68061 16.625
      vertex 0.95 3.68061 16.625
    endloop
  endfacet
  facet normal 0 -0.906307 -0.422619
    outer loop
      vertex 3 3.68061 16.625
      vertex 0.95 3.99369 15.9536
      vertex 3 3.99369 15.9536
    endloop
  endfacet
  facet normal 0 -0.0871999 0.996191
    outer loop
      vertex 0.95 0.738005 10.3146
      vertex 3 0 10.25
      vertex 3 0.738005 10.3146
    endloop
  endfacet
  facet normal 0 -0.0871999 0.996191
    outer loop
      vertex 3 0 10.25
      vertex 0.95 0.738005 10.3146
      vertex 0.95 0 10.25
    endloop
  endfacet
  facet normal 0 -0.996194 0.0871603
    outer loop
      vertex 0.95 4.18543 13.762
      vertex 3 4.25 14.5
      vertex 0.95 4.25 14.5
    endloop
  endfacet
  facet normal 0 -0.996194 0.0871603
    outer loop
      vertex 3 4.25 14.5
      vertex 0.95 4.18543 13.762
      vertex 3 4.18543 13.762
    endloop
  endfacet
  facet normal 0 0.0871999 -0.996191
    outer loop
      vertex 0.95 -0.738005 18.6854
      vertex 3 0 18.75
      vertex 3 -0.738005 18.6854
    endloop
  endfacet
  facet normal 0 0.0871999 -0.996191
    outer loop
      vertex 3 0 18.75
      vertex 0.95 -0.738005 18.6854
      vertex 0.95 0 18.75
    endloop
  endfacet
  facet normal -0 0.422631 0.906302
    outer loop
      vertex 0.95 -1.45358 10.5063
      vertex 3 -2.125 10.8194
      vertex 3 -1.45358 10.5063
    endloop
  endfacet
  facet normal 0 0.422631 0.906302
    outer loop
      vertex 3 -2.125 10.8194
      vertex 0.95 -1.45358 10.5063
      vertex 0.95 -2.125 10.8194
    endloop
  endfacet
  facet normal 0 0.965927 0.258813
    outer loop
      vertex 3 -3.99369 13.0464
      vertex 0.95 -4.18543 13.762
      vertex 3 -4.18543 13.762
    endloop
  endfacet
  facet normal 0 0.965927 0.258813
    outer loop
      vertex 0.95 -4.18543 13.762
      vertex 3 -3.99369 13.0464
      vertex 0.95 -3.99369 13.0464
    endloop
  endfacet
  facet normal 0 0.965927 -0.258813
    outer loop
      vertex 3 -4.18543 15.238
      vertex 0.95 -3.99369 15.9536
      vertex 3 -3.99369 15.9536
    endloop
  endfacet
  facet normal 0 0.965927 -0.258813
    outer loop
      vertex 0.95 -3.99369 15.9536
      vertex 3 -4.18543 15.238
      vertex 0.95 -4.18543 15.238
    endloop
  endfacet
  facet normal -0 0.0871999 0.996191
    outer loop
      vertex 0.95 0 10.25
      vertex 3 -0.738005 10.3146
      vertex 3 0 10.25
    endloop
  endfacet
  facet normal 0 0.0871999 0.996191
    outer loop
      vertex 3 -0.738005 10.3146
      vertex 0.95 0 10.25
      vertex 0.95 -0.738005 10.3146
    endloop
  endfacet
  facet normal 0 -0.258772 0.965939
    outer loop
      vertex 0.95 1.45358 10.5063
      vertex 3 0.738005 10.3146
      vertex 3 1.45358 10.5063
    endloop
  endfacet
  facet normal 0 -0.258772 0.965939
    outer loop
      vertex 3 0.738005 10.3146
      vertex 0.95 1.45358 10.5063
      vertex 0.95 0.738005 10.3146
    endloop
  endfacet
  facet normal 0 0.707147 0.707066
    outer loop
      vertex 3 -2.73185 11.2443
      vertex 0.95 -3.25569 11.7682
      vertex 3 -3.25569 11.7682
    endloop
  endfacet
  facet normal 0 0.707147 0.707066
    outer loop
      vertex 0.95 -3.25569 11.7682
      vertex 3 -2.73185 11.2443
      vertex 0.95 -2.73185 11.2443
    endloop
  endfacet
  facet normal 0 -0.81913 -0.573607
    outer loop
      vertex 0.95 3.68061 16.625
      vertex 3 3.25569 17.2318
      vertex 0.95 3.25569 17.2318
    endloop
  endfacet
  facet normal 0 -0.81913 -0.573607
    outer loop
      vertex 3 3.25569 17.2318
      vertex 0.95 3.68061 16.625
      vertex 3 3.68061 16.625
    endloop
  endfacet
  facet normal 0 -0.573557 0.819165
    outer loop
      vertex 0.95 2.73185 11.2443
      vertex 3 2.125 10.8194
      vertex 3 2.73185 11.2443
    endloop
  endfacet
  facet normal 0 -0.573557 0.819165
    outer loop
      vertex 3 2.125 10.8194
      vertex 0.95 2.73185 11.2443
      vertex 0.95 2.125 10.8194
    endloop
  endfacet
  facet normal 0 -0.0871999 -0.996191
    outer loop
      vertex 0.95 0 18.75
      vertex 3 0.738005 18.6854
      vertex 3 0 18.75
    endloop
  endfacet
  facet normal -0 -0.0871999 -0.996191
    outer loop
      vertex 3 0.738005 18.6854
      vertex 0.95 0 18.75
      vertex 0.95 0.738005 18.6854
    endloop
  endfacet
  facet normal 0 0.81913 0.573607
    outer loop
      vertex 3 -3.25569 11.7682
      vertex 0.95 -3.68061 12.375
      vertex 3 -3.68061 12.375
    endloop
  endfacet
  facet normal 0 0.81913 0.573607
    outer loop
      vertex 0.95 -3.68061 12.375
      vertex 3 -3.25569 11.7682
      vertex 0.95 -3.25569 11.7682
    endloop
  endfacet
  facet normal 0 -0.707147 0.707066
    outer loop
      vertex 0.95 2.73185 11.2443
      vertex 3 3.25569 11.7682
      vertex 0.95 3.25569 11.7682
    endloop
  endfacet
  facet normal 0 -0.707147 0.707066
    outer loop
      vertex 3 3.25569 11.7682
      vertex 0.95 2.73185 11.2443
      vertex 3 2.73185 11.2443
    endloop
  endfacet
  facet normal 0 -0.81913 0.573607
    outer loop
      vertex 0.95 3.25569 11.7682
      vertex 3 3.68061 12.375
      vertex 0.95 3.68061 12.375
    endloop
  endfacet
  facet normal 0 -0.81913 0.573607
    outer loop
      vertex 3 3.68061 12.375
      vertex 0.95 3.25569 11.7682
      vertex 3 3.25569 11.7682
    endloop
  endfacet
  facet normal -0 0.573557 0.819165
    outer loop
      vertex 0.95 -2.125 10.8194
      vertex 3 -2.73185 11.2443
      vertex 3 -2.125 10.8194
    endloop
  endfacet
  facet normal 0 0.573557 0.819165
    outer loop
      vertex 3 -2.73185 11.2443
      vertex 0.95 -2.125 10.8194
      vertex 0.95 -2.73185 11.2443
    endloop
  endfacet
  facet normal -0 0.258772 0.965939
    outer loop
      vertex 0.95 -0.738005 10.3146
      vertex 3 -1.45358 10.5063
      vertex 3 -0.738005 10.3146
    endloop
  endfacet
  facet normal 0 0.258772 0.965939
    outer loop
      vertex 3 -1.45358 10.5063
      vertex 0.95 -0.738005 10.3146
      vertex 0.95 -1.45358 10.5063
    endloop
  endfacet
  facet normal 0 0.996194 -0.0871603
    outer loop
      vertex 3 -4.25 14.5
      vertex 0.95 -4.18543 15.238
      vertex 3 -4.18543 15.238
    endloop
  endfacet
  facet normal 0 0.996194 -0.0871603
    outer loop
      vertex 0.95 -4.18543 15.238
      vertex 3 -4.25 14.5
      vertex 0.95 -4.25 14.5
    endloop
  endfacet
  facet normal 0 -0.965927 -0.258813
    outer loop
      vertex 0.95 4.18543 15.238
      vertex 3 3.99369 15.9536
      vertex 0.95 3.99369 15.9536
    endloop
  endfacet
  facet normal 0 -0.965927 -0.258813
    outer loop
      vertex 3 3.99369 15.9536
      vertex 0.95 4.18543 15.238
      vertex 3 4.18543 15.238
    endloop
  endfacet
  facet normal 0 -0.996194 -0.0871603
    outer loop
      vertex 0.95 4.25 14.5
      vertex 3 4.18543 15.238
      vertex 0.95 4.18543 15.238
    endloop
  endfacet
  facet normal 0 -0.996194 -0.0871603
    outer loop
      vertex 3 4.18543 15.238
      vertex 0.95 4.25 14.5
      vertex 3 4.25 14.5
    endloop
  endfacet
  facet normal 0 0.422631 -0.906302
    outer loop
      vertex 0.95 -2.125 18.1806
      vertex 3 -1.45358 18.4937
      vertex 3 -2.125 18.1806
    endloop
  endfacet
  facet normal 0 0.422631 -0.906302
    outer loop
      vertex 3 -1.45358 18.4937
      vertex 0.95 -2.125 18.1806
      vertex 0.95 -1.45358 18.4937
    endloop
  endfacet
  facet normal 0 0.906307 -0.422619
    outer loop
      vertex 3 -3.99369 15.9536
      vertex 0.95 -3.68061 16.625
      vertex 3 -3.68061 16.625
    endloop
  endfacet
  facet normal 0 0.906307 -0.422619
    outer loop
      vertex 0.95 -3.68061 16.625
      vertex 3 -3.99369 15.9536
      vertex 0.95 -3.99369 15.9536
    endloop
  endfacet
  facet normal 0 0.258772 -0.965939
    outer loop
      vertex 0.95 -1.45358 18.4937
      vertex 3 -0.738005 18.6854
      vertex 3 -1.45358 18.4937
    endloop
  endfacet
  facet normal 0 0.258772 -0.965939
    outer loop
      vertex 3 -0.738005 18.6854
      vertex 0.95 -1.45358 18.4937
      vertex 0.95 -0.738005 18.6854
    endloop
  endfacet
  facet normal 0 0.573557 -0.819165
    outer loop
      vertex 0.95 -2.73185 17.7557
      vertex 3 -2.125 18.1806
      vertex 3 -2.73185 17.7557
    endloop
  endfacet
  facet normal 0 0.573557 -0.819165
    outer loop
      vertex 3 -2.125 18.1806
      vertex 0.95 -2.73185 17.7557
      vertex 0.95 -2.125 18.1806
    endloop
  endfacet
  facet normal 0 0.707147 -0.707066
    outer loop
      vertex 3 -3.25569 17.2318
      vertex 0.95 -2.73185 17.7557
      vertex 3 -2.73185 17.7557
    endloop
  endfacet
  facet normal 0 0.707147 -0.707066
    outer loop
      vertex 0.95 -2.73185 17.7557
      vertex 3 -3.25569 17.2318
      vertex 0.95 -3.25569 17.2318
    endloop
  endfacet
  facet normal 0 -0.965927 0.258813
    outer loop
      vertex 0.95 3.99369 13.0464
      vertex 3 4.18543 13.762
      vertex 0.95 4.18543 13.762
    endloop
  endfacet
  facet normal 0 -0.965927 0.258813
    outer loop
      vertex 3 4.18543 13.762
      vertex 0.95 3.99369 13.0464
      vertex 3 3.99369 13.0464
    endloop
  endfacet
  facet normal 1 0 0
    outer loop
      vertex 0.95 4.18543 15.238
      vertex 0.95 4.18543 13.762
      vertex 0.95 4.25 14.5
    endloop
  endfacet
  facet normal 1 0 0
    outer loop
      vertex 0.95 3.99369 15.9536
      vertex 0.95 4.18543 13.762
      vertex 0.95 4.18543 15.238
    endloop
  endfacet
  facet normal 1 0 0
    outer loop
      vertex 0.95 3.99369 15.9536
      vertex 0.95 3.99369 13.0464
      vertex 0.95 4.18543 13.762
    endloop
  endfacet
  facet normal 1 0 0
    outer loop
      vertex 0.95 3.68061 16.625
      vertex 0.95 3.99369 13.0464
      vertex 0.95 3.99369 15.9536
    endloop
  endfacet
  facet normal 1 0 0
    outer loop
      vertex 0.95 3.68061 16.625
      vertex 0.95 3.68061 12.375
      vertex 0.95 3.99369 13.0464
    endloop
  endfacet
  facet normal 1 0 0
    outer loop
      vertex 0.95 3.25569 17.2318
      vertex 0.95 3.68061 12.375
      vertex 0.95 3.68061 16.625
    endloop
  endfacet
  facet normal 1 0 0
    outer loop
      vertex 0.95 3.25569 17.2318
      vertex 0.95 3.25569 11.7682
      vertex 0.95 3.68061 12.375
    endloop
  endfacet
  facet normal 1 0 0
    outer loop
      vertex 0.95 2.73185 17.7557
      vertex 0.95 3.25569 11.7682
      vertex 0.95 3.25569 17.2318
    endloop
  endfacet
  facet normal 1 0 0
    outer loop
      vertex 0.95 2.73185 17.7557
      vertex 0.95 2.73185 11.2443
      vertex 0.95 3.25569 11.7682
    endloop
  endfacet
  facet normal 1 0 0
    outer loop
      vertex 0.95 2.125 18.1806
      vertex 0.95 2.73185 11.2443
      vertex 0.95 2.73185 17.7557
    endloop
  endfacet
  facet normal 1 0 0
    outer loop
      vertex 0.95 2.125 18.1806
      vertex 0.95 2.125 10.8194
      vertex 0.95 2.73185 11.2443
    endloop
  endfacet
  facet normal 1 0 0
    outer loop
      vertex 0.95 1.45358 18.4937
      vertex 0.95 2.125 10.8194
      vertex 0.95 2.125 18.1806
    endloop
  endfacet
  facet normal 1 0 0
    outer loop
      vertex 0.95 1.45358 18.4937
      vertex 0.95 1.45358 10.5063
      vertex 0.95 2.125 10.8194
    endloop
  endfacet
  facet normal 1 0 0
    outer loop
      vertex 0.95 0.738005 18.6854
      vertex 0.95 1.45358 10.5063
      vertex 0.95 1.45358 18.4937
    endloop
  endfacet
  facet normal 1 0 0
    outer loop
      vertex 0.95 0.738005 18.6854
      vertex 0.95 0.738005 10.3146
      vertex 0.95 1.45358 10.5063
    endloop
  endfacet
  facet normal 1 0 0
    outer loop
      vertex 0.95 0 18.75
      vertex 0.95 0.738005 10.3146
      vertex 0.95 0.738005 18.6854
    endloop
  endfacet
  facet normal 1 0 0
    outer loop
      vertex 0.95 0 18.75
      vertex 0.95 0 10.25
      vertex 0.95 0.738005 10.3146
    endloop
  endfacet
  facet normal 1 -0 0
    outer loop
      vertex 0.95 -0.738005 18.6854
      vertex 0.95 0 10.25
      vertex 0.95 0 18.75
    endloop
  endfacet
  facet normal 1 0 0
    outer loop
      vertex 0.95 -0.738005 18.6854
      vertex 0.95 -0.738005 10.3146
      vertex 0.95 0 10.25
    endloop
  endfacet
  facet normal 1 -0 0
    outer loop
      vertex 0.95 -1.45358 18.4937
      vertex 0.95 -0.738005 10.3146
      vertex 0.95 -0.738005 18.6854
    endloop
  endfacet
  facet normal 1 0 0
    outer loop
      vertex 0.95 -1.45358 18.4937
      vertex 0.95 -1.45358 10.5063
      vertex 0.95 -0.738005 10.3146
    endloop
  endfacet
  facet normal 1 -0 0
    outer loop
      vertex 0.95 -2.125 18.1806
      vertex 0.95 -1.45358 10.5063
      vertex 0.95 -1.45358 18.4937
    endloop
  endfacet
  facet normal 1 0 0
    outer loop
      vertex 0.95 -2.125 18.1806
      vertex 0.95 -2.125 10.8194
      vertex 0.95 -1.45358 10.5063
    endloop
  endfacet
  facet normal 1 -0 0
    outer loop
      vertex 0.95 -2.73185 17.7557
      vertex 0.95 -2.125 10.8194
      vertex 0.95 -2.125 18.1806
    endloop
  endfacet
  facet normal 1 0 0
    outer loop
      vertex 0.95 -2.73185 17.7557
      vertex 0.95 -2.73185 11.2443
      vertex 0.95 -2.125 10.8194
    endloop
  endfacet
  facet normal 1 -0 0
    outer loop
      vertex 0.95 -3.25569 17.2318
      vertex 0.95 -2.73185 11.2443
      vertex 0.95 -2.73185 17.7557
    endloop
  endfacet
  facet normal 1 0 0
    outer loop
      vertex 0.95 -3.25569 17.2318
      vertex 0.95 -3.25569 11.7682
      vertex 0.95 -2.73185 11.2443
    endloop
  endfacet
  facet normal 1 -0 0
    outer loop
      vertex 0.95 -3.68061 16.625
      vertex 0.95 -3.25569 11.7682
      vertex 0.95 -3.25569 17.2318
    endloop
  endfacet
  facet normal 1 0 0
    outer loop
      vertex 0.95 -3.68061 16.625
      vertex 0.95 -3.68061 12.375
      vertex 0.95 -3.25569 11.7682
    endloop
  endfacet
  facet normal 1 -0 0
    outer loop
      vertex 0.95 -3.99369 15.9536
      vertex 0.95 -3.68061 12.375
      vertex 0.95 -3.68061 16.625
    endloop
  endfacet
  facet normal 1 0 0
    outer loop
      vertex 0.95 -3.99369 15.9536
      vertex 0.95 -3.99369 13.0464
      vertex 0.95 -3.68061 12.375
    endloop
  endfacet
  facet normal 1 -0 0
    outer loop
      vertex 0.95 -4.18543 15.238
      vertex 0.95 -3.99369 13.0464
      vertex 0.95 -3.99369 15.9536
    endloop
  endfacet
  facet normal 1 0 0
    outer loop
      vertex 0.95 -4.18543 15.238
      vertex 0.95 -4.18543 13.762
      vertex 0.95 -3.99369 13.0464
    endloop
  endfacet
  facet normal 1 0 -0
    outer loop
      vertex 0.95 -4.18543 13.762
      vertex 0.95 -4.18543 15.238
      vertex 0.95 -4.25 14.5
    endloop
  endfacet
  facet normal 0 0.81913 -0.573607
    outer loop
      vertex 3 -3.68061 16.625
      vertex 0.95 -3.25569 17.2318
      vertex 3 -3.25569 17.2318
    endloop
  endfacet
  facet normal 0 0.81913 -0.573607
    outer loop
      vertex 0.95 -3.25569 17.2318
      vertex 3 -3.68061 16.625
      vertex 0.95 -3.68061 16.625
    endloop
  endfacet
  facet normal 0 -0.258772 -0.965939
    outer loop
      vertex 0.95 0.738005 18.6854
      vertex 3 1.45358 18.4937
      vertex 3 0.738005 18.6854
    endloop
  endfacet
  facet normal -0 -0.258772 -0.965939
    outer loop
      vertex 3 1.45358 18.4937
      vertex 0.95 0.738005 18.6854
      vertex 0.95 1.45358 18.4937
    endloop
  endfacet
  facet normal 0 -0.707147 -0.707066
    outer loop
      vertex 0.95 3.25569 17.2318
      vertex 3 2.73185 17.7557
      vertex 0.95 2.73185 17.7557
    endloop
  endfacet
  facet normal 0 -0.707147 -0.707066
    outer loop
      vertex 3 2.73185 17.7557
      vertex 0.95 3.25569 17.2318
      vertex 3 3.25569 17.2318
    endloop
  endfacet
  facet normal 1 0 0
    outer loop
      vertex 40.5 11 18.5
      vertex 40.5 16.25 24.5
      vertex 40.5 11 19.55
    endloop
  endfacet
  facet normal 1 0 0
    outer loop
      vertex 40.5 16.25 24.5
      vertex 40.5 -11 19.55
      vertex 40.5 11 19.55
    endloop
  endfacet
  facet normal 1 0 0
    outer loop
      vertex 40.5 -16.25 24.5
      vertex 40.5 -11 18.5
      vertex 40.5 -11 19.55
    endloop
  endfacet
  facet normal 1 -0 0
    outer loop
      vertex 40.5 -16.25 24.5
      vertex 40.5 -11 19.55
      vertex 40.5 16.25 24.5
    endloop
  endfacet
  facet normal 1 0 0
    outer loop
      vertex 40.5 -11 18.5
      vertex 40.5 -16.25 24.5
      vertex 40.5 -16.25 0
    endloop
  endfacet
  facet normal 1 0 0
    outer loop
      vertex 40.5 -11 18.5
      vertex 40.5 -16.25 0
      vertex 40.5 -11 0
    endloop
  endfacet
  facet normal 1 0 0
    outer loop
      vertex 40.5 16.25 24.5
      vertex 40.5 11 18.5
      vertex 40.5 16.25 0
    endloop
  endfacet
  facet normal 1 0 0
    outer loop
      vertex 40.5 16.25 0
      vertex 40.5 11 18.5
      vertex 40.5 11 0
    endloop
  endfacet
  facet normal -0 0 1
    outer loop
      vertex 20.5 16.25 24.5
      vertex 40.5 -16.25 24.5
      vertex 40.5 16.25 24.5
    endloop
  endfacet
  facet normal 0 0 1
    outer loop
      vertex 40.5 -16.25 24.5
      vertex 20.5 16.25 24.5
      vertex 20.5 -16.25 24.5
    endloop
  endfacet
  facet normal -1 0 0
    outer loop
      vertex 20.5 -11 0
      vertex 20.5 -16.25 0
      vertex 20.5 -11 19.55
    endloop
  endfacet
  facet normal -1 0 0
    outer loop
      vertex 20.5 11 19.55
      vertex 20.5 16.25 0
      vertex 20.5 11 0
    endloop
  endfacet
  facet normal -1 0 0
    outer loop
      vertex 20.5 16.25 0
      vertex 20.5 11 19.55
      vertex 20.5 16.25 24.5
    endloop
  endfacet
  facet normal -1 0 0
    outer loop
      vertex 20.5 -11 19.55
      vertex 20.5 16.25 24.5
      vertex 20.5 11 19.55
    endloop
  endfacet
  facet normal -1 0 0
    outer loop
      vertex 20.5 -11 19.55
      vertex 20.5 -16.25 24.5
      vertex 20.5 16.25 24.5
    endloop
  endfacet
  facet normal -1 0 0
    outer loop
      vertex 20.5 -16.25 24.5
      vertex 20.5 -11 19.55
      vertex 20.5 -16.25 0
    endloop
  endfacet
  facet normal 0 1 -0
    outer loop
      vertex 40.5 16.25 0
      vertex 20.5 16.25 24.5
      vertex 40.5 16.25 24.5
    endloop
  endfacet
  facet normal 0 1 0
    outer loop
      vertex 20.5 16.25 24.5
      vertex 40.5 16.25 0
      vertex 20.5 16.25 0
    endloop
  endfacet
  facet normal 0 -1 0
    outer loop
      vertex 20.5 -16.25 0
      vertex 40.5 -16.25 24.5
      vertex 20.5 -16.25 24.5
    endloop
  endfacet
  facet normal 0 -1 -0
    outer loop
      vertex 40.5 -16.25 24.5
      vertex 20.5 -16.25 0
      vertex 40.5 -16.25 0
    endloop
  endfacet
  facet normal 0 0 -1
    outer loop
      vertex 20.5 -11 19.55
      vertex 40.5 11 19.55
      vertex 40.5 -11 19.55
    endloop
  endfacet
  facet normal -0 0 -1
    outer loop
      vertex 40.5 11 19.55
      vertex 20.5 -11 19.55
      vertex 20.5 11 19.55
    endloop
  endfacet
endsolid OpenSCAD_Model
