solid OpenSCAD_Model
  facet normal 0 1 -0
    outer loop
      vertex 55 88.25 342
      vertex 0 88.25 352
      vertex 55 88.25 352
    endloop
  endfacet
  facet normal 0 1 0
    outer loop
      vertex 0 88.25 352
      vertex 55 88.25 342
      vertex 0 88.25 342
    endloop
  endfacet
  facet normal 0 -1 0
    outer loop
      vertex 0 -88.25 342
      vertex 55 -88.25 352
      vertex 0 -88.25 352
    endloop
  endfacet
  facet normal 0 -1 -0
    outer loop
      vertex 55 -88.25 352
      vertex 0 -88.25 342
      vertex 55 -88.25 342
    endloop
  endfacet
  facet normal 1 -0 0
    outer loop
      vertex 55 84.2787 352
      vertex 55 88.25 342
      vertex 55 88.25 352
    endloop
  endfacet
  facet normal 1 0 0
    outer loop
      vertex 55 88.25 342
      vertex 55 84.2787 352
      vertex 55 84.2787 342
    endloop
  endfacet
  facet normal 1 -0 0
    outer loop
      vertex 55 -88.25 352
      vertex 55 -84.2787 342
      vertex 55 -84.2787 352
    endloop
  endfacet
  facet normal 1 0 0
    outer loop
      vertex 55 -84.2787 342
      vertex 55 -88.25 352
      vertex 55 -88.25 342
    endloop
  endfacet
  facet normal -1 0 0
    outer loop
      vertex 0 -88.25 342
      vertex 0 88.25 352
      vertex 0 88.25 342
    endloop
  endfacet
  facet normal -1 -0 0
    outer loop
      vertex 0 88.25 352
      vertex 0 -88.25 342
      vertex 0 -88.25 352
    endloop
  endfacet
  facet normal 0 -1 0
    outer loop
      vertex 8 84.2787 342
      vertex 55 84.2787 352
      vertex 8 84.2787 352
    endloop
  endfacet
  facet normal 0 -1 -0
    outer loop
      vertex 55 84.2787 352
      vertex 8 84.2787 342
      vertex 55 84.2787 342
    endloop
  endfacet
  facet normal 0 1 -0
    outer loop
      vertex 55 -84.2787 342
      vertex 8 -84.2787 352
      vertex 55 -84.2787 352
    endloop
  endfacet
  facet normal 0 1 0
    outer loop
      vertex 8 -84.2787 352
      vertex 55 -84.2787 342
      vertex 8 -84.2787 342
    endloop
  endfacet
  facet normal 1 -0 0
    outer loop
      vertex 8 -84.2787 352
      vertex 8 84.2787 342
      vertex 8 84.2787 352
    endloop
  endfacet
  facet normal 1 0 0
    outer loop
      vertex 8 84.2787 342
      vertex 8 -84.2787 352
      vertex 8 -84.2787 342
    endloop
  endfacet
  facet normal 0 0 1
    outer loop
      vertex 55 88.25 352
      vertex 8 84.2787 352
      vertex 55 84.2787 352
    endloop
  endfacet
  facet normal 0 0 1
    outer loop
      vertex 8 84.2787 352
      vertex 0 88.25 352
      vertex 8 -84.2787 352
    endloop
  endfacet
  facet normal -0 0 1
    outer loop
      vertex 0 88.25 352
      vertex 8 84.2787 352
      vertex 55 88.25 352
    endloop
  endfacet
  facet normal -0 0 1
    outer loop
      vertex 8 -84.2787 352
      vertex 55 -88.25 352
      vertex 55 -84.2787 352
    endloop
  endfacet
  facet normal 0 0 1
    outer loop
      vertex 8 -84.2787 352
      vertex 0 -88.25 352
      vertex 55 -88.25 352
    endloop
  endfacet
  facet normal 0 0 1
    outer loop
      vertex 0 -88.25 352
      vertex 8 -84.2787 352
      vertex 0 88.25 352
    endloop
  endfacet
  facet normal 0 0 -1
    outer loop
      vertex 55 -88.25 342
      vertex 8 -84.2787 342
      vertex 55 -84.2787 342
    endloop
  endfacet
  facet normal -0 0 -1
    outer loop
      vertex 8 -84.2787 342
      vertex 0 -88.25 342
      vertex 8 84.2787 342
    endloop
  endfacet
  facet normal 0 0 -1
    outer loop
      vertex 0 -88.25 342
      vertex 8 -84.2787 342
      vertex 55 -88.25 342
    endloop
  endfacet
  facet normal 0 0 -1
    outer loop
      vertex 8 84.2787 342
      vertex 55 88.25 342
      vertex 55 84.2787 342
    endloop
  endfacet
  facet normal 0 0 -1
    outer loop
      vertex 8 84.2787 342
      vertex 0 88.25 342
      vertex 55 88.25 342
    endloop
  endfacet
  facet normal 0 0 -1
    outer loop
      vertex 0 88.25 342
      vertex 8 84.2787 342
      vertex 0 -88.25 342
    endloop
  endfacet
endsolid OpenSCAD_Model
