solid OpenSCAD_Model
  facet normal -1 0 0
    outer loop
      vertex 0 -5 380.892
      vertex 0 5 571.336
      vertex 0 5 380.892
    endloop
  endfacet
  facet normal -1 -0 0
    outer loop
      vertex 0 5 571.336
      vertex 0 -5 380.892
      vertex 0 -5 571.336
    endloop
  endfacet
  facet normal 1 -0 0
    outer loop
      vertex 8 -5 571.336
      vertex 8 5 380.892
      vertex 8 5 571.336
    endloop
  endfacet
  facet normal 1 0 0
    outer loop
      vertex 8 5 380.892
      vertex 8 -5 571.336
      vertex 8 -5 380.892
    endloop
  endfacet
  facet normal -0 0 1
    outer loop
      vertex 0 5 571.336
      vertex 8 -5 571.336
      vertex 8 5 571.336
    endloop
  endfacet
  facet normal 0 0 1
    outer loop
      vertex 8 -5 571.336
      vertex 0 5 571.336
      vertex 0 -5 571.336
    endloop
  endfacet
  facet normal 0 0 -1
    outer loop
      vertex 0 -5 380.892
      vertex 8 5 380.892
      vertex 8 -5 380.892
    endloop
  endfacet
  facet normal -0 0 -1
    outer loop
      vertex 8 5 380.892
      vertex 0 -5 380.892
      vertex 0 5 380.892
    endloop
  endfacet
  facet normal 0 1 -0
    outer loop
      vertex 8 5 380.892
      vertex 0 5 571.336
      vertex 8 5 571.336
    endloop
  endfacet
  facet normal 0 1 0
    outer loop
      vertex 0 5 571.336
      vertex 8 5 380.892
      vertex 0 5 380.892
    endloop
  endfacet
  facet normal 0 -1 0
    outer loop
      vertex 0 -5 380.892
      vertex 8 -5 571.336
      vertex 0 -5 571.336
    endloop
  endfacet
  facet normal 0 -1 -0
    outer loop
      vertex 8 -5 571.336
      vertex 0 -5 380.892
      vertex 8 -5 380.892
    endloop
  endfacet
endsolid OpenSCAD_Model
