solid OpenSCAD_Model
  facet normal 0 -1 0
    outer loop
      vertex 0 -88.25 380.892
      vertex 55 -88.25 571.336
      vertex 0 -88.25 571.336
    endloop
  endfacet
  facet normal 0 -1 -0
    outer loop
      vertex 55 -88.25 571.336
      vertex 0 -88.25 380.892
      vertex 55 -88.25 380.892
    endloop
  endfacet
  facet normal 0 1 -0
    outer loop
      vertex 55 88.25 380.892
      vertex 0 88.25 571.336
      vertex 55 88.25 571.336
    endloop
  endfacet
  facet normal 0 1 0
    outer loop
      vertex 0 88.25 571.336
      vertex 55 88.25 380.892
      vertex 0 88.25 380.892
    endloop
  endfacet
  facet normal 1 -0 0
    outer loop
      vertex 55 84.2787 571.336
      vertex 55 88.25 380.892
      vertex 55 88.25 571.336
    endloop
  endfacet
  facet normal 1 0 0
    outer loop
      vertex 55 88.25 380.892
      vertex 55 84.2787 571.336
      vertex 55 84.2787 380.892
    endloop
  endfacet
  facet normal 1 -0 0
    outer loop
      vertex 55 -88.25 571.336
      vertex 55 -84.2787 380.892
      vertex 55 -84.2787 571.336
    endloop
  endfacet
  facet normal 1 0 0
    outer loop
      vertex 55 -84.2787 380.892
      vertex 55 -88.25 571.336
      vertex 55 -88.25 380.892
    endloop
  endfacet
  facet normal -1 0 0
    outer loop
      vertex 0 -88.25 380.892
      vertex 0 88.25 571.336
      vertex 0 88.25 380.892
    endloop
  endfacet
  facet normal -1 -0 0
    outer loop
      vertex 0 88.25 571.336
      vertex 0 -88.25 380.892
      vertex 0 -88.25 571.336
    endloop
  endfacet
  facet normal 0 1 -0
    outer loop
      vertex 55 -84.2787 380.892
      vertex 8 -84.2787 571.336
      vertex 55 -84.2787 571.336
    endloop
  endfacet
  facet normal 0 1 0
    outer loop
      vertex 8 -84.2787 571.336
      vertex 55 -84.2787 380.892
      vertex 8 -84.2787 380.892
    endloop
  endfacet
  facet normal 0 -1 0
    outer loop
      vertex 8 84.2787 380.892
      vertex 55 84.2787 571.336
      vertex 8 84.2787 571.336
    endloop
  endfacet
  facet normal 0 -1 -0
    outer loop
      vertex 55 84.2787 571.336
      vertex 8 84.2787 380.892
      vertex 55 84.2787 380.892
    endloop
  endfacet
  facet normal 1 -0 0
    outer loop
      vertex 8 -84.2787 571.336
      vertex 8 84.2787 380.892
      vertex 8 84.2787 571.336
    endloop
  endfacet
  facet normal 1 0 0
    outer loop
      vertex 8 84.2787 380.892
      vertex 8 -84.2787 571.336
      vertex 8 -84.2787 380.892
    endloop
  endfacet
  facet normal 0 0 1
    outer loop
      vertex 55 88.25 571.336
      vertex 8 84.2787 571.336
      vertex 55 84.2787 571.336
    endloop
  endfacet
  facet normal 0 0 1
    outer loop
      vertex 8 84.2787 571.336
      vertex 0 88.25 571.336
      vertex 8 -84.2787 571.336
    endloop
  endfacet
  facet normal -0 0 1
    outer loop
      vertex 0 88.25 571.336
      vertex 8 84.2787 571.336
      vertex 55 88.25 571.336
    endloop
  endfacet
  facet normal -0 0 1
    outer loop
      vertex 8 -84.2787 571.336
      vertex 55 -88.25 571.336
      vertex 55 -84.2787 571.336
    endloop
  endfacet
  facet normal 0 0 1
    outer loop
      vertex 8 -84.2787 571.336
      vertex 0 -88.25 571.336
      vertex 55 -88.25 571.336
    endloop
  endfacet
  facet normal 0 0 1
    outer loop
      vertex 0 -88.25 571.336
      vertex 8 -84.2787 571.336
      vertex 0 88.25 571.336
    endloop
  endfacet
  facet normal 0 0 -1
    outer loop
      vertex 55 -88.25 380.892
      vertex 8 -84.2787 380.892
      vertex 55 -84.2787 380.892
    endloop
  endfacet
  facet normal -0 0 -1
    outer loop
      vertex 8 -84.2787 380.892
      vertex 0 -88.25 380.892
      vertex 8 84.2787 380.892
    endloop
  endfacet
  facet normal 0 0 -1
    outer loop
      vertex 0 -88.25 380.892
      vertex 8 -84.2787 380.892
      vertex 55 -88.25 380.892
    endloop
  endfacet
  facet normal 0 0 -1
    outer loop
      vertex 8 84.2787 380.892
      vertex 55 88.25 380.892
      vertex 55 84.2787 380.892
    endloop
  endfacet
  facet normal 0 0 -1
    outer loop
      vertex 8 84.2787 380.892
      vertex 0 88.25 380.892
      vertex 55 88.25 380.892
    endloop
  endfacet
  facet normal 0 0 -1
    outer loop
      vertex 0 88.25 380.892
      vertex 8 84.2787 380.892
      vertex 0 -88.25 380.892
    endloop
  endfacet
endsolid OpenSCAD_Model
