solid OpenSCAD_Model
  facet normal 0 -1 0
    outer loop
      vertex 0 -88.25 0.000499725
      vertex 55 -88.25 190.445
      vertex 0 -88.25 190.445
    endloop
  endfacet
  facet normal 0 -1 -0
    outer loop
      vertex 55 -88.25 190.445
      vertex 0 -88.25 0.000499725
      vertex 55 -88.25 0.000499725
    endloop
  endfacet
  facet normal 0 1 -0
    outer loop
      vertex 55 88.25 0.000499725
      vertex 0 88.25 190.445
      vertex 55 88.25 190.445
    endloop
  endfacet
  facet normal 0 1 0
    outer loop
      vertex 0 88.25 190.445
      vertex 55 88.25 0.000499725
      vertex 0 88.25 0.000499725
    endloop
  endfacet
  facet normal 1 0 0
    outer loop
      vertex 55 -84.2787 190.445
      vertex 55 -88.25 190.445
      vertex 55 -84.2787 8.104
    endloop
  endfacet
  facet normal 1 0 0
    outer loop
      vertex 55 84.2787 8.104
      vertex 55 88.25 190.445
      vertex 55 84.2787 190.445
    endloop
  endfacet
  facet normal 1 0 0
    outer loop
      vertex 55 88.25 190.445
      vertex 55 84.2787 8.104
      vertex 55 88.25 0.000499725
    endloop
  endfacet
  facet normal 1 -0 0
    outer loop
      vertex 55 -84.2787 8.104
      vertex 55 88.25 0.000499725
      vertex 55 84.2787 8.104
    endloop
  endfacet
  facet normal 1 0 0
    outer loop
      vertex 55 -84.2787 8.104
      vertex 55 -88.25 0.000499725
      vertex 55 88.25 0.000499725
    endloop
  endfacet
  facet normal 1 0 0
    outer loop
      vertex 55 -88.25 0.000499725
      vertex 55 -84.2787 8.104
      vertex 55 -88.25 190.445
    endloop
  endfacet
  facet normal -1 0 0
    outer loop
      vertex 0 -88.25 0.000499725
      vertex 0 88.25 190.445
      vertex 0 88.25 0.000499725
    endloop
  endfacet
  facet normal -1 -0 0
    outer loop
      vertex 0 88.25 190.445
      vertex 0 -88.25 0.000499725
      vertex 0 -88.25 190.445
    endloop
  endfacet
  facet normal 0 1 -0
    outer loop
      vertex 55 -84.2787 8.104
      vertex 8 -84.2787 190.445
      vertex 55 -84.2787 190.445
    endloop
  endfacet
  facet normal 0 1 0
    outer loop
      vertex 8 -84.2787 190.445
      vertex 55 -84.2787 8.104
      vertex 8 -84.2787 8.104
    endloop
  endfacet
  facet normal 0 -1 0
    outer loop
      vertex 8 84.2787 8.104
      vertex 55 84.2787 190.445
      vertex 8 84.2787 190.445
    endloop
  endfacet
  facet normal 0 -1 -0
    outer loop
      vertex 55 84.2787 190.445
      vertex 8 84.2787 8.104
      vertex 55 84.2787 8.104
    endloop
  endfacet
  facet normal -0 0 1
    outer loop
      vertex 8 84.2787 8.104
      vertex 55 -84.2787 8.104
      vertex 55 84.2787 8.104
    endloop
  endfacet
  facet normal 0 0 1
    outer loop
      vertex 55 -84.2787 8.104
      vertex 8 84.2787 8.104
      vertex 8 -84.2787 8.104
    endloop
  endfacet
  facet normal 1 -0 0
    outer loop
      vertex 8 -84.2787 190.445
      vertex 8 84.2787 8.104
      vertex 8 84.2787 190.445
    endloop
  endfacet
  facet normal 1 0 0
    outer loop
      vertex 8 84.2787 8.104
      vertex 8 -84.2787 190.445
      vertex 8 -84.2787 8.104
    endloop
  endfacet
  facet normal 0 0 1
    outer loop
      vertex 55 88.25 190.445
      vertex 8 84.2787 190.445
      vertex 55 84.2787 190.445
    endloop
  endfacet
  facet normal 0 0 1
    outer loop
      vertex 8 84.2787 190.445
      vertex 0 88.25 190.445
      vertex 8 -84.2787 190.445
    endloop
  endfacet
  facet normal -0 0 1
    outer loop
      vertex 0 88.25 190.445
      vertex 8 84.2787 190.445
      vertex 55 88.25 190.445
    endloop
  endfacet
  facet normal -0 0 1
    outer loop
      vertex 8 -84.2787 190.445
      vertex 55 -88.25 190.445
      vertex 55 -84.2787 190.445
    endloop
  endfacet
  facet normal 0 0 1
    outer loop
      vertex 8 -84.2787 190.445
      vertex 0 -88.25 190.445
      vertex 55 -88.25 190.445
    endloop
  endfacet
  facet normal 0 0 1
    outer loop
      vertex 0 -88.25 190.445
      vertex 8 -84.2787 190.445
      vertex 0 88.25 190.445
    endloop
  endfacet
  facet normal 0 0 -1
    outer loop
      vertex 0 -88.25 0.000499725
      vertex 55 88.25 0.000499725
      vertex 55 -88.25 0.000499725
    endloop
  endfacet
  facet normal -0 0 -1
    outer loop
      vertex 55 88.25 0.000499725
      vertex 0 -88.25 0.000499725
      vertex 0 88.25 0.000499725
    endloop
  endfacet
endsolid OpenSCAD_Model
