solid OpenSCAD_Model
  facet normal 0 -0.906291 0.422653
    outer loop
      vertex -12.25 25.3347 21.8982
      vertex -4.75 25.7436 22.775
      vertex -12.25 25.7436 22.775
    endloop
  endfacet
  facet normal 0 -0.906291 0.422653
    outer loop
      vertex -4.75 25.7436 22.775
      vertex -12.25 25.3347 21.8982
      vertex -4.75 25.3347 21.8982
    endloop
  endfacet
  facet normal 0 0.965925 0.25882
    outer loop
      vertex -4.75 36.0157 20.9637
      vertex -12.25 35.7653 21.8982
      vertex -4.75 35.7653 21.8982
    endloop
  endfacet
  facet normal 0 0.965925 0.25882
    outer loop
      vertex -12.25 35.7653 21.8982
      vertex -4.75 36.0157 20.9637
      vertex -12.25 36.0157 20.9637
    endloop
  endfacet
  facet normal 0 0.25882 -0.965925
    outer loop
      vertex -12.25 31.5137 14.5343
      vertex -4.75 32.4482 14.7847
      vertex -4.75 31.5137 14.5343
    endloop
  endfacet
  facet normal 0 0.25882 -0.965925
    outer loop
      vertex -4.75 32.4482 14.7847
      vertex -12.25 31.5137 14.5343
      vertex -12.25 32.4482 14.7847
    endloop
  endfacet
  facet normal 0 0.0871426 -0.996196
    outer loop
      vertex -12.25 30.55 14.45
      vertex -4.75 31.5137 14.5343
      vertex -4.75 30.55 14.45
    endloop
  endfacet
  facet normal 0 0.0871426 -0.996196
    outer loop
      vertex -4.75 31.5137 14.5343
      vertex -12.25 30.55 14.45
      vertex -12.25 31.5137 14.5343
    endloop
  endfacet
  facet normal 0 0.422653 -0.906291
    outer loop
      vertex -12.25 32.4482 14.7847
      vertex -4.75 33.325 15.1936
      vertex -4.75 32.4482 14.7847
    endloop
  endfacet
  facet normal 0 0.422653 -0.906291
    outer loop
      vertex -4.75 33.325 15.1936
      vertex -12.25 32.4482 14.7847
      vertex -12.25 33.325 15.1936
    endloop
  endfacet
  facet normal 0 -0.819159 0.573566
    outer loop
      vertex -12.25 25.7436 22.775
      vertex -4.75 26.2985 23.5675
      vertex -12.25 26.2985 23.5675
    endloop
  endfacet
  facet normal 0 -0.819159 0.573566
    outer loop
      vertex -4.75 26.2985 23.5675
      vertex -12.25 25.7436 22.775
      vertex -4.75 25.7436 22.775
    endloop
  endfacet
  facet normal 0 -0.0871426 -0.996196
    outer loop
      vertex -12.25 29.5863 14.5343
      vertex -4.75 30.55 14.45
      vertex -4.75 29.5863 14.5343
    endloop
  endfacet
  facet normal -0 -0.0871426 -0.996196
    outer loop
      vertex -4.75 30.55 14.45
      vertex -12.25 29.5863 14.5343
      vertex -12.25 30.55 14.45
    endloop
  endfacet
  facet normal 0 0.573566 -0.819159
    outer loop
      vertex -12.25 33.325 15.1936
      vertex -4.75 34.1175 15.7485
      vertex -4.75 33.325 15.1936
    endloop
  endfacet
  facet normal 0 0.573566 -0.819159
    outer loop
      vertex -4.75 34.1175 15.7485
      vertex -12.25 33.325 15.1936
      vertex -12.25 34.1175 15.7485
    endloop
  endfacet
  facet normal 0 0.707107 0.707107
    outer loop
      vertex -4.75 34.8015 23.5675
      vertex -12.25 34.1175 24.2515
      vertex -4.75 34.1175 24.2515
    endloop
  endfacet
  facet normal 0 0.707107 0.707107
    outer loop
      vertex -12.25 34.1175 24.2515
      vertex -4.75 34.8015 23.5675
      vertex -12.25 34.8015 23.5675
    endloop
  endfacet
  facet normal -0 0.25882 0.965925
    outer loop
      vertex -12.25 32.4482 25.2153
      vertex -4.75 31.5137 25.4657
      vertex -4.75 32.4482 25.2153
    endloop
  endfacet
  facet normal 0 0.25882 0.965925
    outer loop
      vertex -4.75 31.5137 25.4657
      vertex -12.25 32.4482 25.2153
      vertex -12.25 31.5137 25.4657
    endloop
  endfacet
  facet normal 0 -0.573566 -0.819159
    outer loop
      vertex -12.25 26.9825 15.7485
      vertex -4.75 27.775 15.1936
      vertex -4.75 26.9825 15.7485
    endloop
  endfacet
  facet normal -0 -0.573566 -0.819159
    outer loop
      vertex -4.75 27.775 15.1936
      vertex -12.25 26.9825 15.7485
      vertex -12.25 27.775 15.1936
    endloop
  endfacet
  facet normal 1 0 0
    outer loop
      vertex -4.75 32.4 20
      vertex -4.75 36.1 20
      vertex -4.75 36.0157 20.9637
    endloop
  endfacet
  facet normal 1 0 0
    outer loop
      vertex -4.75 32.3719 20.3212
      vertex -4.75 36.0157 20.9637
      vertex -4.75 35.7653 21.8982
    endloop
  endfacet
  facet normal 1 0 0
    outer loop
      vertex -4.75 36.1 20
      vertex -4.75 32.4 20
      vertex -4.75 36.0157 19.0363
    endloop
  endfacet
  facet normal 1 0 0
    outer loop
      vertex -4.75 32.2884 20.6327
      vertex -4.75 35.7653 21.8982
      vertex -4.75 35.3564 22.775
    endloop
  endfacet
  facet normal 1 -0 0
    outer loop
      vertex -4.75 32.3719 19.6788
      vertex -4.75 36.0157 19.0363
      vertex -4.75 32.4 20
    endloop
  endfacet
  facet normal 1 0 0
    outer loop
      vertex -4.75 32.1521 20.925
      vertex -4.75 35.3564 22.775
      vertex -4.75 34.8015 23.5675
    endloop
  endfacet
  facet normal 1 0 0
    outer loop
      vertex -4.75 36.0157 19.0363
      vertex -4.75 32.3719 19.6788
      vertex -4.75 35.7653 18.1018
    endloop
  endfacet
  facet normal 1 0 0
    outer loop
      vertex -4.75 31.9672 21.1892
      vertex -4.75 34.8015 23.5675
      vertex -4.75 34.1175 24.2515
    endloop
  endfacet
  facet normal 1 -0 0
    outer loop
      vertex -4.75 32.2884 19.3673
      vertex -4.75 35.7653 18.1018
      vertex -4.75 32.3719 19.6788
    endloop
  endfacet
  facet normal 1 0 0
    outer loop
      vertex -4.75 31.7392 21.4172
      vertex -4.75 34.1175 24.2515
      vertex -4.75 33.325 24.8064
    endloop
  endfacet
  facet normal 1 0 0
    outer loop
      vertex -4.75 35.7653 18.1018
      vertex -4.75 32.2884 19.3673
      vertex -4.75 35.3564 17.225
    endloop
  endfacet
  facet normal 1 0 0
    outer loop
      vertex -4.75 31.475 21.6021
      vertex -4.75 33.325 24.8064
      vertex -4.75 32.4482 25.2153
    endloop
  endfacet
  facet normal 1 -0 0
    outer loop
      vertex -4.75 32.1521 19.075
      vertex -4.75 35.3564 17.225
      vertex -4.75 32.2884 19.3673
    endloop
  endfacet
  facet normal 1 0 0
    outer loop
      vertex -4.75 35.3564 17.225
      vertex -4.75 32.1521 19.075
      vertex -4.75 34.8015 16.4325
    endloop
  endfacet
  facet normal 1 0 0
    outer loop
      vertex -4.75 36.0157 20.9637
      vertex -4.75 32.3719 20.3212
      vertex -4.75 32.4 20
    endloop
  endfacet
  facet normal 1 0 0
    outer loop
      vertex -4.75 35.7653 21.8982
      vertex -4.75 32.2884 20.6327
      vertex -4.75 32.3719 20.3212
    endloop
  endfacet
  facet normal 1 0 0
    outer loop
      vertex -4.75 35.3564 22.775
      vertex -4.75 32.1521 20.925
      vertex -4.75 32.2884 20.6327
    endloop
  endfacet
  facet normal 1 0 0
    outer loop
      vertex -4.75 34.8015 23.5675
      vertex -4.75 31.9672 21.1892
      vertex -4.75 32.1521 20.925
    endloop
  endfacet
  facet normal 1 0 0
    outer loop
      vertex -4.75 34.1175 24.2515
      vertex -4.75 31.7392 21.4172
      vertex -4.75 31.9672 21.1892
    endloop
  endfacet
  facet normal 1 0 0
    outer loop
      vertex -4.75 31.1827 21.7384
      vertex -4.75 32.4482 25.2153
      vertex -4.75 31.5137 25.4657
    endloop
  endfacet
  facet normal 1 0 0
    outer loop
      vertex -4.75 33.325 24.8064
      vertex -4.75 31.475 21.6021
      vertex -4.75 31.7392 21.4172
    endloop
  endfacet
  facet normal 1 0 0
    outer loop
      vertex -4.75 32.4482 25.2153
      vertex -4.75 31.1827 21.7384
      vertex -4.75 31.475 21.6021
    endloop
  endfacet
  facet normal 1 0 0
    outer loop
      vertex -4.75 31.5137 25.4657
      vertex -4.75 30.8712 21.8219
      vertex -4.75 31.1827 21.7384
    endloop
  endfacet
  facet normal 1 0 0
    outer loop
      vertex -4.75 30.55 25.55
      vertex -4.75 30.8712 21.8219
      vertex -4.75 31.5137 25.4657
    endloop
  endfacet
  facet normal 1 0 0
    outer loop
      vertex -4.75 30.55 25.55
      vertex -4.75 30.55 21.85
      vertex -4.75 30.8712 21.8219
    endloop
  endfacet
  facet normal 1 0 0
    outer loop
      vertex -4.75 30.55 25.55
      vertex -4.75 30.2288 21.8219
      vertex -4.75 30.55 21.85
    endloop
  endfacet
  facet normal 1 -0 0
    outer loop
      vertex -4.75 29.5863 25.4657
      vertex -4.75 30.2288 21.8219
      vertex -4.75 30.55 25.55
    endloop
  endfacet
  facet normal 1 0 0
    outer loop
      vertex -4.75 30.2288 21.8219
      vertex -4.75 29.5863 25.4657
      vertex -4.75 29.9173 21.7384
    endloop
  endfacet
  facet normal 1 -0 0
    outer loop
      vertex -4.75 28.6518 25.2153
      vertex -4.75 29.9173 21.7384
      vertex -4.75 29.5863 25.4657
    endloop
  endfacet
  facet normal 1 0 0
    outer loop
      vertex -4.75 29.9173 21.7384
      vertex -4.75 28.6518 25.2153
      vertex -4.75 29.625 21.6021
    endloop
  endfacet
  facet normal 1 -0 0
    outer loop
      vertex -4.75 27.775 24.8064
      vertex -4.75 29.625 21.6021
      vertex -4.75 28.6518 25.2153
    endloop
  endfacet
  facet normal 1 0 0
    outer loop
      vertex -4.75 29.625 21.6021
      vertex -4.75 27.775 24.8064
      vertex -4.75 29.3608 21.4172
    endloop
  endfacet
  facet normal 1 -0 0
    outer loop
      vertex -4.75 26.9825 24.2515
      vertex -4.75 29.3608 21.4172
      vertex -4.75 27.775 24.8064
    endloop
  endfacet
  facet normal 1 0 0
    outer loop
      vertex -4.75 29.3608 21.4172
      vertex -4.75 26.9825 24.2515
      vertex -4.75 29.1328 21.1892
    endloop
  endfacet
  facet normal 1 0 0
    outer loop
      vertex -4.75 29.1328 21.1892
      vertex -4.75 26.2985 23.5675
      vertex -4.75 28.9479 20.925
    endloop
  endfacet
  facet normal 1 -0 0
    outer loop
      vertex -4.75 26.2985 23.5675
      vertex -4.75 29.1328 21.1892
      vertex -4.75 26.9825 24.2515
    endloop
  endfacet
  facet normal 1 -0 0
    outer loop
      vertex -4.75 31.9672 18.8108
      vertex -4.75 34.8015 16.4325
      vertex -4.75 32.1521 19.075
    endloop
  endfacet
  facet normal 1 0 0
    outer loop
      vertex -4.75 34.8015 16.4325
      vertex -4.75 31.9672 18.8108
      vertex -4.75 34.1175 15.7485
    endloop
  endfacet
  facet normal 1 -0 0
    outer loop
      vertex -4.75 31.7392 18.5828
      vertex -4.75 34.1175 15.7485
      vertex -4.75 31.9672 18.8108
    endloop
  endfacet
  facet normal 1 0 0
    outer loop
      vertex -4.75 34.1175 15.7485
      vertex -4.75 31.7392 18.5828
      vertex -4.75 33.325 15.1936
    endloop
  endfacet
  facet normal 1 -0 0
    outer loop
      vertex -4.75 31.475 18.3979
      vertex -4.75 33.325 15.1936
      vertex -4.75 31.7392 18.5828
    endloop
  endfacet
  facet normal 1 0 0
    outer loop
      vertex -4.75 33.325 15.1936
      vertex -4.75 31.475 18.3979
      vertex -4.75 32.4482 14.7847
    endloop
  endfacet
  facet normal 1 -0 0
    outer loop
      vertex -4.75 31.1827 18.2616
      vertex -4.75 32.4482 14.7847
      vertex -4.75 31.475 18.3979
    endloop
  endfacet
  facet normal 1 0 0
    outer loop
      vertex -4.75 32.4482 14.7847
      vertex -4.75 31.1827 18.2616
      vertex -4.75 31.5137 14.5343
    endloop
  endfacet
  facet normal 1 -0 0
    outer loop
      vertex -4.75 30.8712 18.1781
      vertex -4.75 31.5137 14.5343
      vertex -4.75 31.1827 18.2616
    endloop
  endfacet
  facet normal 1 -0 0
    outer loop
      vertex -4.75 30.55 18.15
      vertex -4.75 31.5137 14.5343
      vertex -4.75 30.8712 18.1781
    endloop
  endfacet
  facet normal 1 0 0
    outer loop
      vertex -4.75 30.55 18.15
      vertex -4.75 30.55 14.45
      vertex -4.75 31.5137 14.5343
    endloop
  endfacet
  facet normal 1 0 0
    outer loop
      vertex -4.75 30.2288 18.1781
      vertex -4.75 30.55 14.45
      vertex -4.75 30.55 18.15
    endloop
  endfacet
  facet normal 1 0 0
    outer loop
      vertex -4.75 29.5863 14.5343
      vertex -4.75 30.2288 18.1781
      vertex -4.75 29.9173 18.2616
    endloop
  endfacet
  facet normal 1 0 0
    outer loop
      vertex -4.75 28.6518 14.7847
      vertex -4.75 29.9173 18.2616
      vertex -4.75 29.625 18.3979
    endloop
  endfacet
  facet normal 1 0 0
    outer loop
      vertex -4.75 30.2288 18.1781
      vertex -4.75 29.5863 14.5343
      vertex -4.75 30.55 14.45
    endloop
  endfacet
  facet normal 1 0 0
    outer loop
      vertex -4.75 27.775 15.1936
      vertex -4.75 29.625 18.3979
      vertex -4.75 29.3608 18.5828
    endloop
  endfacet
  facet normal 1 0 0
    outer loop
      vertex -4.75 26.9825 15.7485
      vertex -4.75 29.3608 18.5828
      vertex -4.75 29.1328 18.8108
    endloop
  endfacet
  facet normal 1 0 0
    outer loop
      vertex -4.75 26.2985 16.4325
      vertex -4.75 29.1328 18.8108
      vertex -4.75 28.9479 19.075
    endloop
  endfacet
  facet normal 1 0 0
    outer loop
      vertex -4.75 25.7436 17.225
      vertex -4.75 28.9479 19.075
      vertex -4.75 28.8116 19.3673
    endloop
  endfacet
  facet normal 1 0 0
    outer loop
      vertex -4.75 25.3347 18.1018
      vertex -4.75 28.8116 19.3673
      vertex -4.75 28.7281 19.6788
    endloop
  endfacet
  facet normal 1 0 0
    outer loop
      vertex -4.75 29.9173 18.2616
      vertex -4.75 28.6518 14.7847
      vertex -4.75 29.5863 14.5343
    endloop
  endfacet
  facet normal 1 0 0
    outer loop
      vertex -4.75 25.0843 19.0363
      vertex -4.75 28.7281 19.6788
      vertex -4.75 28.7 20
    endloop
  endfacet
  facet normal 1 -0 0
    outer loop
      vertex -4.75 25.7436 22.775
      vertex -4.75 28.9479 20.925
      vertex -4.75 26.2985 23.5675
    endloop
  endfacet
  facet normal 1 0 0
    outer loop
      vertex -4.75 28.9479 20.925
      vertex -4.75 25.7436 22.775
      vertex -4.75 28.8116 20.6327
    endloop
  endfacet
  facet normal 1 0 0
    outer loop
      vertex -4.75 29.625 18.3979
      vertex -4.75 27.775 15.1936
      vertex -4.75 28.6518 14.7847
    endloop
  endfacet
  facet normal 1 -0 0
    outer loop
      vertex -4.75 25.3347 21.8982
      vertex -4.75 28.8116 20.6327
      vertex -4.75 25.7436 22.775
    endloop
  endfacet
  facet normal 1 0 0
    outer loop
      vertex -4.75 29.3608 18.5828
      vertex -4.75 26.9825 15.7485
      vertex -4.75 27.775 15.1936
    endloop
  endfacet
  facet normal 1 0 0
    outer loop
      vertex -4.75 28.8116 20.6327
      vertex -4.75 25.3347 21.8982
      vertex -4.75 28.7281 20.3212
    endloop
  endfacet
  facet normal 1 0 0
    outer loop
      vertex -4.75 29.1328 18.8108
      vertex -4.75 26.2985 16.4325
      vertex -4.75 26.9825 15.7485
    endloop
  endfacet
  facet normal 1 -0 0
    outer loop
      vertex -4.75 25.0843 20.9637
      vertex -4.75 28.7281 20.3212
      vertex -4.75 25.3347 21.8982
    endloop
  endfacet
  facet normal 1 0 0
    outer loop
      vertex -4.75 28.9479 19.075
      vertex -4.75 25.7436 17.225
      vertex -4.75 26.2985 16.4325
    endloop
  endfacet
  facet normal 1 0 0
    outer loop
      vertex -4.75 28.7281 20.3212
      vertex -4.75 25.0843 20.9637
      vertex -4.75 28.7 20
    endloop
  endfacet
  facet normal 1 0 0
    outer loop
      vertex -4.75 28.8116 19.3673
      vertex -4.75 25.3347 18.1018
      vertex -4.75 25.7436 17.225
    endloop
  endfacet
  facet normal 1 0 0
    outer loop
      vertex -4.75 25 20
      vertex -4.75 28.7 20
      vertex -4.75 25.0843 20.9637
    endloop
  endfacet
  facet normal 1 0 0
    outer loop
      vertex -4.75 28.7281 19.6788
      vertex -4.75 25.0843 19.0363
      vertex -4.75 25.3347 18.1018
    endloop
  endfacet
  facet normal 1 0 0
    outer loop
      vertex -4.75 28.7 20
      vertex -4.75 25 20
      vertex -4.75 25.0843 19.0363
    endloop
  endfacet
  facet normal 0 -0.25882 -0.965925
    outer loop
      vertex -12.25 28.6518 14.7847
      vertex -4.75 29.5863 14.5343
      vertex -4.75 28.6518 14.7847
    endloop
  endfacet
  facet normal -0 -0.25882 -0.965925
    outer loop
      vertex -4.75 29.5863 14.5343
      vertex -12.25 28.6518 14.7847
      vertex -12.25 29.5863 14.5343
    endloop
  endfacet
  facet normal 0 0.819159 0.573566
    outer loop
      vertex -4.75 35.3564 22.775
      vertex -12.25 34.8015 23.5675
      vertex -4.75 34.8015 23.5675
    endloop
  endfacet
  facet normal 0 0.819159 0.573566
    outer loop
      vertex -12.25 34.8015 23.5675
      vertex -4.75 35.3564 22.775
      vertex -12.25 35.3564 22.775
    endloop
  endfacet
  facet normal 0 -0.707107 0.707107
    outer loop
      vertex -12.25 26.2985 23.5675
      vertex -4.75 26.9825 24.2515
      vertex -12.25 26.9825 24.2515
    endloop
  endfacet
  facet normal 0 -0.707107 0.707107
    outer loop
      vertex -4.75 26.9825 24.2515
      vertex -12.25 26.2985 23.5675
      vertex -4.75 26.2985 23.5675
    endloop
  endfacet
  facet normal 0 -0.422653 -0.906291
    outer loop
      vertex -12.25 27.775 15.1936
      vertex -4.75 28.6518 14.7847
      vertex -4.75 27.775 15.1936
    endloop
  endfacet
  facet normal -0 -0.422653 -0.906291
    outer loop
      vertex -4.75 28.6518 14.7847
      vertex -12.25 27.775 15.1936
      vertex -12.25 28.6518 14.7847
    endloop
  endfacet
  facet normal -0 0.422653 0.906291
    outer loop
      vertex -12.25 33.325 24.8064
      vertex -4.75 32.4482 25.2153
      vertex -4.75 33.325 24.8064
    endloop
  endfacet
  facet normal 0 0.422653 0.906291
    outer loop
      vertex -4.75 32.4482 25.2153
      vertex -12.25 33.325 24.8064
      vertex -12.25 32.4482 25.2153
    endloop
  endfacet
  facet normal 0 -0.422653 0.906291
    outer loop
      vertex -12.25 28.6518 25.2153
      vertex -4.75 27.775 24.8064
      vertex -4.75 28.6518 25.2153
    endloop
  endfacet
  facet normal 0 -0.422653 0.906291
    outer loop
      vertex -4.75 27.775 24.8064
      vertex -12.25 28.6518 25.2153
      vertex -12.25 27.775 24.8064
    endloop
  endfacet
  facet normal 0 0.906291 0.422653
    outer loop
      vertex -4.75 35.7653 21.8982
      vertex -12.25 35.3564 22.775
      vertex -4.75 35.3564 22.775
    endloop
  endfacet
  facet normal 0 0.906291 0.422653
    outer loop
      vertex -12.25 35.3564 22.775
      vertex -4.75 35.7653 21.8982
      vertex -12.25 35.7653 21.8982
    endloop
  endfacet
  facet normal 0 0.707107 -0.707107
    outer loop
      vertex -4.75 34.1175 15.7485
      vertex -12.25 34.8015 16.4325
      vertex -4.75 34.8015 16.4325
    endloop
  endfacet
  facet normal 0 0.707107 -0.707107
    outer loop
      vertex -12.25 34.8015 16.4325
      vertex -4.75 34.1175 15.7485
      vertex -12.25 34.1175 15.7485
    endloop
  endfacet
  facet normal -0 0.573566 0.819159
    outer loop
      vertex -12.25 34.1175 24.2515
      vertex -4.75 33.325 24.8064
      vertex -4.75 34.1175 24.2515
    endloop
  endfacet
  facet normal 0 0.573566 0.819159
    outer loop
      vertex -4.75 33.325 24.8064
      vertex -12.25 34.1175 24.2515
      vertex -12.25 33.325 24.8064
    endloop
  endfacet
  facet normal 0 0.965925 -0.25882
    outer loop
      vertex -4.75 35.7653 18.1018
      vertex -12.25 36.0157 19.0363
      vertex -4.75 36.0157 19.0363
    endloop
  endfacet
  facet normal 0 0.965925 -0.25882
    outer loop
      vertex -12.25 36.0157 19.0363
      vertex -4.75 35.7653 18.1018
      vertex -12.25 35.7653 18.1018
    endloop
  endfacet
  facet normal 0 -0.819159 -0.573566
    outer loop
      vertex -12.25 26.2985 16.4325
      vertex -4.75 25.7436 17.225
      vertex -12.25 25.7436 17.225
    endloop
  endfacet
  facet normal 0 -0.819159 -0.573566
    outer loop
      vertex -4.75 25.7436 17.225
      vertex -12.25 26.2985 16.4325
      vertex -4.75 26.2985 16.4325
    endloop
  endfacet
  facet normal 0 -0.573566 0.819159
    outer loop
      vertex -12.25 27.775 24.8064
      vertex -4.75 26.9825 24.2515
      vertex -4.75 27.775 24.8064
    endloop
  endfacet
  facet normal 0 -0.573566 0.819159
    outer loop
      vertex -4.75 26.9825 24.2515
      vertex -12.25 27.775 24.8064
      vertex -12.25 26.9825 24.2515
    endloop
  endfacet
  facet normal -0 0.0871426 0.996196
    outer loop
      vertex -12.25 31.5137 25.4657
      vertex -4.75 30.55 25.55
      vertex -4.75 31.5137 25.4657
    endloop
  endfacet
  facet normal 0 0.0871426 0.996196
    outer loop
      vertex -4.75 30.55 25.55
      vertex -12.25 31.5137 25.4657
      vertex -12.25 30.55 25.55
    endloop
  endfacet
  facet normal 0 -0.965925 -0.25882
    outer loop
      vertex -12.25 25.3347 18.1018
      vertex -4.75 25.0843 19.0363
      vertex -12.25 25.0843 19.0363
    endloop
  endfacet
  facet normal 0 -0.965925 -0.25882
    outer loop
      vertex -4.75 25.0843 19.0363
      vertex -12.25 25.3347 18.1018
      vertex -4.75 25.3347 18.1018
    endloop
  endfacet
  facet normal 0 0.906291 -0.422653
    outer loop
      vertex -4.75 35.3564 17.225
      vertex -12.25 35.7653 18.1018
      vertex -4.75 35.7653 18.1018
    endloop
  endfacet
  facet normal 0 0.906291 -0.422653
    outer loop
      vertex -12.25 35.7653 18.1018
      vertex -4.75 35.3564 17.225
      vertex -12.25 35.3564 17.225
    endloop
  endfacet
  facet normal 0 -0.25882 0.965925
    outer loop
      vertex -12.25 29.5863 25.4657
      vertex -4.75 28.6518 25.2153
      vertex -4.75 29.5863 25.4657
    endloop
  endfacet
  facet normal 0 -0.25882 0.965925
    outer loop
      vertex -4.75 28.6518 25.2153
      vertex -12.25 29.5863 25.4657
      vertex -12.25 28.6518 25.2153
    endloop
  endfacet
  facet normal 0 -0.707107 -0.707107
    outer loop
      vertex -12.25 26.9825 15.7485
      vertex -4.75 26.2985 16.4325
      vertex -12.25 26.2985 16.4325
    endloop
  endfacet
  facet normal 0 -0.707107 -0.707107
    outer loop
      vertex -4.75 26.2985 16.4325
      vertex -12.25 26.9825 15.7485
      vertex -4.75 26.9825 15.7485
    endloop
  endfacet
  facet normal 0 -0.906291 -0.422653
    outer loop
      vertex -12.25 25.7436 17.225
      vertex -4.75 25.3347 18.1018
      vertex -12.25 25.3347 18.1018
    endloop
  endfacet
  facet normal 0 -0.906291 -0.422653
    outer loop
      vertex -4.75 25.3347 18.1018
      vertex -12.25 25.7436 17.225
      vertex -4.75 25.7436 17.225
    endloop
  endfacet
  facet normal 0 0.819159 -0.573566
    outer loop
      vertex -4.75 34.8015 16.4325
      vertex -12.25 35.3564 17.225
      vertex -4.75 35.3564 17.225
    endloop
  endfacet
  facet normal 0 0.819159 -0.573566
    outer loop
      vertex -12.25 35.3564 17.225
      vertex -4.75 34.8015 16.4325
      vertex -12.25 34.8015 16.4325
    endloop
  endfacet
  facet normal 0 0.996196 -0.0871426
    outer loop
      vertex -4.75 36.0157 19.0363
      vertex -12.25 36.1 20
      vertex -4.75 36.1 20
    endloop
  endfacet
  facet normal 0 0.996196 -0.0871426
    outer loop
      vertex -12.25 36.1 20
      vertex -4.75 36.0157 19.0363
      vertex -12.25 36.0157 19.0363
    endloop
  endfacet
  facet normal 0 0.996196 0.0871426
    outer loop
      vertex -4.75 36.1 20
      vertex -12.25 36.0157 20.9637
      vertex -4.75 36.0157 20.9637
    endloop
  endfacet
  facet normal 0 0.996196 0.0871426
    outer loop
      vertex -12.25 36.0157 20.9637
      vertex -4.75 36.1 20
      vertex -12.25 36.1 20
    endloop
  endfacet
  facet normal -1 0 0
    outer loop
      vertex -12.25 32.4 20
      vertex -12.25 36.1 20
      vertex -12.25 36.0157 19.0363
    endloop
  endfacet
  facet normal -1 0 0
    outer loop
      vertex -12.25 32.3719 19.6788
      vertex -12.25 36.0157 19.0363
      vertex -12.25 35.7653 18.1018
    endloop
  endfacet
  facet normal -1 0 0
    outer loop
      vertex -12.25 36.1 20
      vertex -12.25 32.4 20
      vertex -12.25 36.0157 20.9637
    endloop
  endfacet
  facet normal -1 0 0
    outer loop
      vertex -12.25 32.2884 19.3673
      vertex -12.25 35.7653 18.1018
      vertex -12.25 35.3564 17.225
    endloop
  endfacet
  facet normal -1 0 0
    outer loop
      vertex -12.25 32.3719 20.3212
      vertex -12.25 36.0157 20.9637
      vertex -12.25 32.4 20
    endloop
  endfacet
  facet normal -1 0 0
    outer loop
      vertex -12.25 32.1521 19.075
      vertex -12.25 35.3564 17.225
      vertex -12.25 34.8015 16.4325
    endloop
  endfacet
  facet normal -1 -0 0
    outer loop
      vertex -12.25 36.0157 20.9637
      vertex -12.25 32.3719 20.3212
      vertex -12.25 35.7653 21.8982
    endloop
  endfacet
  facet normal -1 0 0
    outer loop
      vertex -12.25 31.9672 18.8108
      vertex -12.25 34.8015 16.4325
      vertex -12.25 34.1175 15.7485
    endloop
  endfacet
  facet normal -1 0 0
    outer loop
      vertex -12.25 32.2884 20.6327
      vertex -12.25 35.7653 21.8982
      vertex -12.25 32.3719 20.3212
    endloop
  endfacet
  facet normal -1 0 0
    outer loop
      vertex -12.25 31.7392 18.5828
      vertex -12.25 34.1175 15.7485
      vertex -12.25 33.325 15.1936
    endloop
  endfacet
  facet normal -1 -0 0
    outer loop
      vertex -12.25 35.7653 21.8982
      vertex -12.25 32.2884 20.6327
      vertex -12.25 35.3564 22.775
    endloop
  endfacet
  facet normal -1 0 0
    outer loop
      vertex -12.25 31.475 18.3979
      vertex -12.25 33.325 15.1936
      vertex -12.25 32.4482 14.7847
    endloop
  endfacet
  facet normal -1 0 0
    outer loop
      vertex -12.25 32.1521 20.925
      vertex -12.25 35.3564 22.775
      vertex -12.25 32.2884 20.6327
    endloop
  endfacet
  facet normal -1 -0 0
    outer loop
      vertex -12.25 35.3564 22.775
      vertex -12.25 32.1521 20.925
      vertex -12.25 34.8015 23.5675
    endloop
  endfacet
  facet normal -1 0 0
    outer loop
      vertex -12.25 36.0157 19.0363
      vertex -12.25 32.3719 19.6788
      vertex -12.25 32.4 20
    endloop
  endfacet
  facet normal -1 0 0
    outer loop
      vertex -12.25 35.7653 18.1018
      vertex -12.25 32.2884 19.3673
      vertex -12.25 32.3719 19.6788
    endloop
  endfacet
  facet normal -1 0 0
    outer loop
      vertex -12.25 35.3564 17.225
      vertex -12.25 32.1521 19.075
      vertex -12.25 32.2884 19.3673
    endloop
  endfacet
  facet normal -1 0 0
    outer loop
      vertex -12.25 34.8015 16.4325
      vertex -12.25 31.9672 18.8108
      vertex -12.25 32.1521 19.075
    endloop
  endfacet
  facet normal -1 0 0
    outer loop
      vertex -12.25 34.1175 15.7485
      vertex -12.25 31.7392 18.5828
      vertex -12.25 31.9672 18.8108
    endloop
  endfacet
  facet normal -1 0 0
    outer loop
      vertex -12.25 31.1827 18.2616
      vertex -12.25 32.4482 14.7847
      vertex -12.25 31.5137 14.5343
    endloop
  endfacet
  facet normal -1 0 0
    outer loop
      vertex -12.25 33.325 15.1936
      vertex -12.25 31.475 18.3979
      vertex -12.25 31.7392 18.5828
    endloop
  endfacet
  facet normal -1 0 0
    outer loop
      vertex -12.25 32.4482 14.7847
      vertex -12.25 31.1827 18.2616
      vertex -12.25 31.475 18.3979
    endloop
  endfacet
  facet normal -1 0 0
    outer loop
      vertex -12.25 31.5137 14.5343
      vertex -12.25 30.8712 18.1781
      vertex -12.25 31.1827 18.2616
    endloop
  endfacet
  facet normal -1 0 0
    outer loop
      vertex -12.25 30.55 14.45
      vertex -12.25 30.8712 18.1781
      vertex -12.25 31.5137 14.5343
    endloop
  endfacet
  facet normal -1 0 0
    outer loop
      vertex -12.25 30.55 14.45
      vertex -12.25 30.55 18.15
      vertex -12.25 30.8712 18.1781
    endloop
  endfacet
  facet normal -1 0 0
    outer loop
      vertex -12.25 30.55 14.45
      vertex -12.25 30.2288 18.1781
      vertex -12.25 30.55 18.15
    endloop
  endfacet
  facet normal -1 0 0
    outer loop
      vertex -12.25 29.5863 14.5343
      vertex -12.25 30.2288 18.1781
      vertex -12.25 30.55 14.45
    endloop
  endfacet
  facet normal -1 -0 0
    outer loop
      vertex -12.25 30.2288 18.1781
      vertex -12.25 29.5863 14.5343
      vertex -12.25 29.9173 18.2616
    endloop
  endfacet
  facet normal -1 0 0
    outer loop
      vertex -12.25 28.6518 14.7847
      vertex -12.25 29.9173 18.2616
      vertex -12.25 29.5863 14.5343
    endloop
  endfacet
  facet normal -1 -0 0
    outer loop
      vertex -12.25 29.9173 18.2616
      vertex -12.25 28.6518 14.7847
      vertex -12.25 29.625 18.3979
    endloop
  endfacet
  facet normal -1 0 0
    outer loop
      vertex -12.25 27.775 15.1936
      vertex -12.25 29.625 18.3979
      vertex -12.25 28.6518 14.7847
    endloop
  endfacet
  facet normal -1 -0 0
    outer loop
      vertex -12.25 29.625 18.3979
      vertex -12.25 27.775 15.1936
      vertex -12.25 29.3608 18.5828
    endloop
  endfacet
  facet normal -1 0 0
    outer loop
      vertex -12.25 26.9825 15.7485
      vertex -12.25 29.3608 18.5828
      vertex -12.25 27.775 15.1936
    endloop
  endfacet
  facet normal -1 -0 0
    outer loop
      vertex -12.25 29.3608 18.5828
      vertex -12.25 26.9825 15.7485
      vertex -12.25 29.1328 18.8108
    endloop
  endfacet
  facet normal -1 -0 0
    outer loop
      vertex -12.25 29.1328 18.8108
      vertex -12.25 26.2985 16.4325
      vertex -12.25 28.9479 19.075
    endloop
  endfacet
  facet normal -1 0 0
    outer loop
      vertex -12.25 26.2985 16.4325
      vertex -12.25 29.1328 18.8108
      vertex -12.25 26.9825 15.7485
    endloop
  endfacet
  facet normal -1 0 0
    outer loop
      vertex -12.25 31.9672 21.1892
      vertex -12.25 34.8015 23.5675
      vertex -12.25 32.1521 20.925
    endloop
  endfacet
  facet normal -1 -0 0
    outer loop
      vertex -12.25 34.8015 23.5675
      vertex -12.25 31.9672 21.1892
      vertex -12.25 34.1175 24.2515
    endloop
  endfacet
  facet normal -1 0 0
    outer loop
      vertex -12.25 31.7392 21.4172
      vertex -12.25 34.1175 24.2515
      vertex -12.25 31.9672 21.1892
    endloop
  endfacet
  facet normal -1 -0 0
    outer loop
      vertex -12.25 34.1175 24.2515
      vertex -12.25 31.7392 21.4172
      vertex -12.25 33.325 24.8064
    endloop
  endfacet
  facet normal -1 0 0
    outer loop
      vertex -12.25 31.475 21.6021
      vertex -12.25 33.325 24.8064
      vertex -12.25 31.7392 21.4172
    endloop
  endfacet
  facet normal -1 -0 0
    outer loop
      vertex -12.25 33.325 24.8064
      vertex -12.25 31.475 21.6021
      vertex -12.25 32.4482 25.2153
    endloop
  endfacet
  facet normal -1 0 0
    outer loop
      vertex -12.25 31.1827 21.7384
      vertex -12.25 32.4482 25.2153
      vertex -12.25 31.475 21.6021
    endloop
  endfacet
  facet normal -1 -0 0
    outer loop
      vertex -12.25 32.4482 25.2153
      vertex -12.25 31.1827 21.7384
      vertex -12.25 31.5137 25.4657
    endloop
  endfacet
  facet normal -1 0 0
    outer loop
      vertex -12.25 30.8712 21.8219
      vertex -12.25 31.5137 25.4657
      vertex -12.25 31.1827 21.7384
    endloop
  endfacet
  facet normal -1 0 0
    outer loop
      vertex -12.25 30.55 21.85
      vertex -12.25 31.5137 25.4657
      vertex -12.25 30.8712 21.8219
    endloop
  endfacet
  facet normal -1 0 0
    outer loop
      vertex -12.25 30.55 21.85
      vertex -12.25 30.55 25.55
      vertex -12.25 31.5137 25.4657
    endloop
  endfacet
  facet normal -1 0 0
    outer loop
      vertex -12.25 30.2288 21.8219
      vertex -12.25 30.55 25.55
      vertex -12.25 30.55 21.85
    endloop
  endfacet
  facet normal -1 0 0
    outer loop
      vertex -12.25 29.5863 25.4657
      vertex -12.25 30.2288 21.8219
      vertex -12.25 29.9173 21.7384
    endloop
  endfacet
  facet normal -1 0 0
    outer loop
      vertex -12.25 28.6518 25.2153
      vertex -12.25 29.9173 21.7384
      vertex -12.25 29.625 21.6021
    endloop
  endfacet
  facet normal -1 0 0
    outer loop
      vertex -12.25 30.2288 21.8219
      vertex -12.25 29.5863 25.4657
      vertex -12.25 30.55 25.55
    endloop
  endfacet
  facet normal -1 0 0
    outer loop
      vertex -12.25 27.775 24.8064
      vertex -12.25 29.625 21.6021
      vertex -12.25 29.3608 21.4172
    endloop
  endfacet
  facet normal -1 0 0
    outer loop
      vertex -12.25 26.9825 24.2515
      vertex -12.25 29.3608 21.4172
      vertex -12.25 29.1328 21.1892
    endloop
  endfacet
  facet normal -1 0 0
    outer loop
      vertex -12.25 26.2985 23.5675
      vertex -12.25 29.1328 21.1892
      vertex -12.25 28.9479 20.925
    endloop
  endfacet
  facet normal -1 0 0
    outer loop
      vertex -12.25 25.7436 22.775
      vertex -12.25 28.9479 20.925
      vertex -12.25 28.8116 20.6327
    endloop
  endfacet
  facet normal -1 0 0
    outer loop
      vertex -12.25 25.3347 21.8982
      vertex -12.25 28.8116 20.6327
      vertex -12.25 28.7281 20.3212
    endloop
  endfacet
  facet normal -1 0 0
    outer loop
      vertex -12.25 29.9173 21.7384
      vertex -12.25 28.6518 25.2153
      vertex -12.25 29.5863 25.4657
    endloop
  endfacet
  facet normal -1 0 0
    outer loop
      vertex -12.25 25.0843 20.9637
      vertex -12.25 28.7281 20.3212
      vertex -12.25 28.7 20
    endloop
  endfacet
  facet normal -1 0 0
    outer loop
      vertex -12.25 25.7436 17.225
      vertex -12.25 28.9479 19.075
      vertex -12.25 26.2985 16.4325
    endloop
  endfacet
  facet normal -1 -0 0
    outer loop
      vertex -12.25 28.9479 19.075
      vertex -12.25 25.7436 17.225
      vertex -12.25 28.8116 19.3673
    endloop
  endfacet
  facet normal -1 0 0
    outer loop
      vertex -12.25 29.625 21.6021
      vertex -12.25 27.775 24.8064
      vertex -12.25 28.6518 25.2153
    endloop
  endfacet
  facet normal -1 0 0
    outer loop
      vertex -12.25 25.3347 18.1018
      vertex -12.25 28.8116 19.3673
      vertex -12.25 25.7436 17.225
    endloop
  endfacet
  facet normal -1 0 0
    outer loop
      vertex -12.25 29.3608 21.4172
      vertex -12.25 26.9825 24.2515
      vertex -12.25 27.775 24.8064
    endloop
  endfacet
  facet normal -1 -0 0
    outer loop
      vertex -12.25 28.8116 19.3673
      vertex -12.25 25.3347 18.1018
      vertex -12.25 28.7281 19.6788
    endloop
  endfacet
  facet normal -1 0 0
    outer loop
      vertex -12.25 29.1328 21.1892
      vertex -12.25 26.2985 23.5675
      vertex -12.25 26.9825 24.2515
    endloop
  endfacet
  facet normal -1 0 0
    outer loop
      vertex -12.25 25.0843 19.0363
      vertex -12.25 28.7281 19.6788
      vertex -12.25 25.3347 18.1018
    endloop
  endfacet
  facet normal -1 0 0
    outer loop
      vertex -12.25 28.9479 20.925
      vertex -12.25 25.7436 22.775
      vertex -12.25 26.2985 23.5675
    endloop
  endfacet
  facet normal -1 -0 0
    outer loop
      vertex -12.25 28.7281 19.6788
      vertex -12.25 25.0843 19.0363
      vertex -12.25 28.7 20
    endloop
  endfacet
  facet normal -1 0 0
    outer loop
      vertex -12.25 28.8116 20.6327
      vertex -12.25 25.3347 21.8982
      vertex -12.25 25.7436 22.775
    endloop
  endfacet
  facet normal -1 0 0
    outer loop
      vertex -12.25 25 20
      vertex -12.25 28.7 20
      vertex -12.25 25.0843 19.0363
    endloop
  endfacet
  facet normal -1 0 0
    outer loop
      vertex -12.25 28.7281 20.3212
      vertex -12.25 25.0843 20.9637
      vertex -12.25 25.3347 21.8982
    endloop
  endfacet
  facet normal -1 0 0
    outer loop
      vertex -12.25 28.7 20
      vertex -12.25 25 20
      vertex -12.25 25.0843 20.9637
    endloop
  endfacet
  facet normal 0 -0.996196 -0.0871426
    outer loop
      vertex -12.25 25.0843 19.0363
      vertex -4.75 25 20
      vertex -12.25 25 20
    endloop
  endfacet
  facet normal 0 -0.996196 -0.0871426
    outer loop
      vertex -4.75 25 20
      vertex -12.25 25.0843 19.0363
      vertex -4.75 25.0843 19.0363
    endloop
  endfacet
  facet normal 0 -0.996196 0.0871426
    outer loop
      vertex -12.25 25 20
      vertex -4.75 25.0843 20.9637
      vertex -12.25 25.0843 20.9637
    endloop
  endfacet
  facet normal 0 -0.996196 0.0871426
    outer loop
      vertex -4.75 25.0843 20.9637
      vertex -12.25 25 20
      vertex -4.75 25 20
    endloop
  endfacet
  facet normal 0 -0.965925 0.25882
    outer loop
      vertex -12.25 25.0843 20.9637
      vertex -4.75 25.3347 21.8982
      vertex -12.25 25.3347 21.8982
    endloop
  endfacet
  facet normal 0 -0.965925 0.25882
    outer loop
      vertex -4.75 25.3347 21.8982
      vertex -12.25 25.0843 20.9637
      vertex -4.75 25.0843 20.9637
    endloop
  endfacet
  facet normal 0 -0.0871426 0.996196
    outer loop
      vertex -12.25 30.55 25.55
      vertex -4.75 29.5863 25.4657
      vertex -4.75 30.55 25.55
    endloop
  endfacet
  facet normal 0 -0.0871426 0.996196
    outer loop
      vertex -4.75 29.5863 25.4657
      vertex -12.25 30.55 25.55
      vertex -12.25 29.5863 25.4657
    endloop
  endfacet
  facet normal 0 0.996195 0.0871516
    outer loop
      vertex -4.75 28.7281 19.6788
      vertex -12.25 28.7 20
      vertex -4.75 28.7 20
    endloop
  endfacet
  facet normal 0 0.996195 0.0871516
    outer loop
      vertex -12.25 28.7 20
      vertex -4.75 28.7281 19.6788
      vertex -12.25 28.7281 19.6788
    endloop
  endfacet
  facet normal 0 -0.258917 0.9659
    outer loop
      vertex -12.25 31.1827 18.2616
      vertex -4.75 30.8712 18.1781
      vertex -4.75 31.1827 18.2616
    endloop
  endfacet
  facet normal 0 -0.258917 0.9659
    outer loop
      vertex -4.75 30.8712 18.1781
      vertex -12.25 31.1827 18.2616
      vertex -12.25 30.8712 18.1781
    endloop
  endfacet
  facet normal 0 -0.0871516 0.996195
    outer loop
      vertex -12.25 30.8712 18.1781
      vertex -4.75 30.55 18.15
      vertex -4.75 30.8712 18.1781
    endloop
  endfacet
  facet normal 0 -0.0871516 0.996195
    outer loop
      vertex -4.75 30.55 18.15
      vertex -12.25 30.8712 18.1781
      vertex -12.25 30.55 18.15
    endloop
  endfacet
  facet normal 0 -0.422614 0.90631
    outer loop
      vertex -12.25 31.475 18.3979
      vertex -4.75 31.1827 18.2616
      vertex -4.75 31.475 18.3979
    endloop
  endfacet
  facet normal 0 -0.422614 0.90631
    outer loop
      vertex -4.75 31.1827 18.2616
      vertex -12.25 31.475 18.3979
      vertex -12.25 31.1827 18.2616
    endloop
  endfacet
  facet normal 0 -0.707107 0.707107
    outer loop
      vertex -12.25 31.7392 18.5828
      vertex -4.75 31.9672 18.8108
      vertex -12.25 31.9672 18.8108
    endloop
  endfacet
  facet normal 0 -0.707107 0.707107
    outer loop
      vertex -4.75 31.9672 18.8108
      vertex -12.25 31.7392 18.5828
      vertex -4.75 31.7392 18.5828
    endloop
  endfacet
  facet normal -0 0.258917 0.9659
    outer loop
      vertex -12.25 30.2288 18.1781
      vertex -4.75 29.9173 18.2616
      vertex -4.75 30.2288 18.1781
    endloop
  endfacet
  facet normal 0 0.258917 0.9659
    outer loop
      vertex -4.75 29.9173 18.2616
      vertex -12.25 30.2288 18.1781
      vertex -12.25 29.9173 18.2616
    endloop
  endfacet
  facet normal 0 -0.90631 -0.422614
    outer loop
      vertex -12.25 32.2884 20.6327
      vertex -4.75 32.1521 20.925
      vertex -12.25 32.1521 20.925
    endloop
  endfacet
  facet normal 0 -0.90631 -0.422614
    outer loop
      vertex -4.75 32.1521 20.925
      vertex -12.25 32.2884 20.6327
      vertex -4.75 32.2884 20.6327
    endloop
  endfacet
  facet normal 0 0.9659 0.258917
    outer loop
      vertex -4.75 28.8116 19.3673
      vertex -12.25 28.7281 19.6788
      vertex -4.75 28.7281 19.6788
    endloop
  endfacet
  facet normal 0 0.9659 0.258917
    outer loop
      vertex -12.25 28.7281 19.6788
      vertex -4.75 28.8116 19.3673
      vertex -12.25 28.8116 19.3673
    endloop
  endfacet
  facet normal 0 -0.422614 -0.90631
    outer loop
      vertex -12.25 31.1827 21.7384
      vertex -4.75 31.475 21.6021
      vertex -4.75 31.1827 21.7384
    endloop
  endfacet
  facet normal -0 -0.422614 -0.90631
    outer loop
      vertex -4.75 31.475 21.6021
      vertex -12.25 31.1827 21.7384
      vertex -12.25 31.475 21.6021
    endloop
  endfacet
  facet normal 0 0.0871516 -0.996195
    outer loop
      vertex -12.25 30.2288 21.8219
      vertex -4.75 30.55 21.85
      vertex -4.75 30.2288 21.8219
    endloop
  endfacet
  facet normal 0 0.0871516 -0.996195
    outer loop
      vertex -4.75 30.55 21.85
      vertex -12.25 30.2288 21.8219
      vertex -12.25 30.55 21.85
    endloop
  endfacet
  facet normal -0 0.573379 0.81929
    outer loop
      vertex -12.25 29.625 18.3979
      vertex -4.75 29.3608 18.5828
      vertex -4.75 29.625 18.3979
    endloop
  endfacet
  facet normal 0 0.573379 0.81929
    outer loop
      vertex -4.75 29.3608 18.5828
      vertex -12.25 29.625 18.3979
      vertex -12.25 29.3608 18.5828
    endloop
  endfacet
  facet normal 0 -0.258917 -0.9659
    outer loop
      vertex -12.25 30.8712 21.8219
      vertex -4.75 31.1827 21.7384
      vertex -4.75 30.8712 21.8219
    endloop
  endfacet
  facet normal -0 -0.258917 -0.9659
    outer loop
      vertex -4.75 31.1827 21.7384
      vertex -12.25 30.8712 21.8219
      vertex -12.25 31.1827 21.7384
    endloop
  endfacet
  facet normal -0 0.422614 0.90631
    outer loop
      vertex -12.25 29.9173 18.2616
      vertex -4.75 29.625 18.3979
      vertex -4.75 29.9173 18.2616
    endloop
  endfacet
  facet normal 0 0.422614 0.90631
    outer loop
      vertex -4.75 29.625 18.3979
      vertex -12.25 29.9173 18.2616
      vertex -12.25 29.625 18.3979
    endloop
  endfacet
  facet normal 0 -0.90631 0.422614
    outer loop
      vertex -12.25 32.1521 19.075
      vertex -4.75 32.2884 19.3673
      vertex -12.25 32.2884 19.3673
    endloop
  endfacet
  facet normal 0 -0.90631 0.422614
    outer loop
      vertex -4.75 32.2884 19.3673
      vertex -12.25 32.1521 19.075
      vertex -4.75 32.1521 19.075
    endloop
  endfacet
  facet normal 0 0.258917 -0.9659
    outer loop
      vertex -12.25 29.9173 21.7384
      vertex -4.75 30.2288 21.8219
      vertex -4.75 29.9173 21.7384
    endloop
  endfacet
  facet normal 0 0.258917 -0.9659
    outer loop
      vertex -4.75 30.2288 21.8219
      vertex -12.25 29.9173 21.7384
      vertex -12.25 30.2288 21.8219
    endloop
  endfacet
  facet normal 0 -0.573379 0.81929
    outer loop
      vertex -12.25 31.7392 18.5828
      vertex -4.75 31.475 18.3979
      vertex -4.75 31.7392 18.5828
    endloop
  endfacet
  facet normal 0 -0.573379 0.81929
    outer loop
      vertex -4.75 31.475 18.3979
      vertex -12.25 31.7392 18.5828
      vertex -12.25 31.475 18.3979
    endloop
  endfacet
  facet normal -0 0.0871516 0.996195
    outer loop
      vertex -12.25 30.55 18.15
      vertex -4.75 30.2288 18.1781
      vertex -4.75 30.55 18.15
    endloop
  endfacet
  facet normal 0 0.0871516 0.996195
    outer loop
      vertex -4.75 30.2288 18.1781
      vertex -12.25 30.55 18.15
      vertex -12.25 30.2288 18.1781
    endloop
  endfacet
  facet normal 0 0.81929 0.573379
    outer loop
      vertex -4.75 29.1328 18.8108
      vertex -12.25 28.9479 19.075
      vertex -4.75 28.9479 19.075
    endloop
  endfacet
  facet normal 0 0.81929 0.573379
    outer loop
      vertex -12.25 28.9479 19.075
      vertex -4.75 29.1328 18.8108
      vertex -12.25 29.1328 18.8108
    endloop
  endfacet
  facet normal 0 -0.81929 -0.573379
    outer loop
      vertex -12.25 32.1521 20.925
      vertex -4.75 31.9672 21.1892
      vertex -12.25 31.9672 21.1892
    endloop
  endfacet
  facet normal 0 -0.81929 -0.573379
    outer loop
      vertex -4.75 31.9672 21.1892
      vertex -12.25 32.1521 20.925
      vertex -4.75 32.1521 20.925
    endloop
  endfacet
  facet normal 0 -0.81929 0.573379
    outer loop
      vertex -12.25 31.9672 18.8108
      vertex -4.75 32.1521 19.075
      vertex -12.25 32.1521 19.075
    endloop
  endfacet
  facet normal 0 -0.81929 0.573379
    outer loop
      vertex -4.75 32.1521 19.075
      vertex -12.25 31.9672 18.8108
      vertex -4.75 31.9672 18.8108
    endloop
  endfacet
  facet normal 0 -0.9659 -0.258917
    outer loop
      vertex -12.25 32.3719 20.3212
      vertex -4.75 32.2884 20.6327
      vertex -12.25 32.2884 20.6327
    endloop
  endfacet
  facet normal 0 -0.9659 -0.258917
    outer loop
      vertex -4.75 32.2884 20.6327
      vertex -12.25 32.3719 20.3212
      vertex -4.75 32.3719 20.3212
    endloop
  endfacet
  facet normal 0 0.90631 -0.422614
    outer loop
      vertex -4.75 28.8116 20.6327
      vertex -12.25 28.9479 20.925
      vertex -4.75 28.9479 20.925
    endloop
  endfacet
  facet normal 0 0.90631 -0.422614
    outer loop
      vertex -12.25 28.9479 20.925
      vertex -4.75 28.8116 20.6327
      vertex -12.25 28.8116 20.6327
    endloop
  endfacet
  facet normal 0 -0.707107 -0.707107
    outer loop
      vertex -12.25 31.9672 21.1892
      vertex -4.75 31.7392 21.4172
      vertex -12.25 31.7392 21.4172
    endloop
  endfacet
  facet normal 0 -0.707107 -0.707107
    outer loop
      vertex -4.75 31.7392 21.4172
      vertex -12.25 31.9672 21.1892
      vertex -4.75 31.9672 21.1892
    endloop
  endfacet
  facet normal 0 -0.996195 -0.0871516
    outer loop
      vertex -12.25 32.4 20
      vertex -4.75 32.3719 20.3212
      vertex -12.25 32.3719 20.3212
    endloop
  endfacet
  facet normal 0 -0.996195 -0.0871516
    outer loop
      vertex -4.75 32.3719 20.3212
      vertex -12.25 32.4 20
      vertex -4.75 32.4 20
    endloop
  endfacet
  facet normal 0 0.422614 -0.90631
    outer loop
      vertex -12.25 29.625 21.6021
      vertex -4.75 29.9173 21.7384
      vertex -4.75 29.625 21.6021
    endloop
  endfacet
  facet normal 0 0.422614 -0.90631
    outer loop
      vertex -4.75 29.9173 21.7384
      vertex -12.25 29.625 21.6021
      vertex -12.25 29.9173 21.7384
    endloop
  endfacet
  facet normal 0 -0.996195 0.0871516
    outer loop
      vertex -12.25 32.3719 19.6788
      vertex -4.75 32.4 20
      vertex -12.25 32.4 20
    endloop
  endfacet
  facet normal 0 -0.996195 0.0871516
    outer loop
      vertex -4.75 32.4 20
      vertex -12.25 32.3719 19.6788
      vertex -4.75 32.3719 19.6788
    endloop
  endfacet
  facet normal 0 -0.0871516 -0.996195
    outer loop
      vertex -12.25 30.55 21.85
      vertex -4.75 30.8712 21.8219
      vertex -4.75 30.55 21.85
    endloop
  endfacet
  facet normal -0 -0.0871516 -0.996195
    outer loop
      vertex -4.75 30.8712 21.8219
      vertex -12.25 30.55 21.85
      vertex -12.25 30.8712 21.8219
    endloop
  endfacet
  facet normal 0 0.573379 -0.81929
    outer loop
      vertex -12.25 29.3608 21.4172
      vertex -4.75 29.625 21.6021
      vertex -4.75 29.3608 21.4172
    endloop
  endfacet
  facet normal 0 0.573379 -0.81929
    outer loop
      vertex -4.75 29.625 21.6021
      vertex -12.25 29.3608 21.4172
      vertex -12.25 29.625 21.6021
    endloop
  endfacet
  facet normal 0 0.707107 0.707107
    outer loop
      vertex -4.75 29.3608 18.5828
      vertex -12.25 29.1328 18.8108
      vertex -4.75 29.1328 18.8108
    endloop
  endfacet
  facet normal 0 0.707107 0.707107
    outer loop
      vertex -12.25 29.1328 18.8108
      vertex -4.75 29.3608 18.5828
      vertex -12.25 29.3608 18.5828
    endloop
  endfacet
  facet normal 0 0.707107 -0.707107
    outer loop
      vertex -4.75 29.1328 21.1892
      vertex -12.25 29.3608 21.4172
      vertex -4.75 29.3608 21.4172
    endloop
  endfacet
  facet normal 0 0.707107 -0.707107
    outer loop
      vertex -12.25 29.3608 21.4172
      vertex -4.75 29.1328 21.1892
      vertex -12.25 29.1328 21.1892
    endloop
  endfacet
  facet normal 0 0.90631 0.422614
    outer loop
      vertex -4.75 28.9479 19.075
      vertex -12.25 28.8116 19.3673
      vertex -4.75 28.8116 19.3673
    endloop
  endfacet
  facet normal 0 0.90631 0.422614
    outer loop
      vertex -12.25 28.8116 19.3673
      vertex -4.75 28.9479 19.075
      vertex -12.25 28.9479 19.075
    endloop
  endfacet
  facet normal 0 -0.573379 -0.81929
    outer loop
      vertex -12.25 31.475 21.6021
      vertex -4.75 31.7392 21.4172
      vertex -4.75 31.475 21.6021
    endloop
  endfacet
  facet normal -0 -0.573379 -0.81929
    outer loop
      vertex -4.75 31.7392 21.4172
      vertex -12.25 31.475 21.6021
      vertex -12.25 31.7392 21.4172
    endloop
  endfacet
  facet normal 0 -0.9659 0.258917
    outer loop
      vertex -12.25 32.2884 19.3673
      vertex -4.75 32.3719 19.6788
      vertex -12.25 32.3719 19.6788
    endloop
  endfacet
  facet normal 0 -0.9659 0.258917
    outer loop
      vertex -4.75 32.3719 19.6788
      vertex -12.25 32.2884 19.3673
      vertex -4.75 32.2884 19.3673
    endloop
  endfacet
  facet normal 0 0.996195 -0.0871516
    outer loop
      vertex -4.75 28.7 20
      vertex -12.25 28.7281 20.3212
      vertex -4.75 28.7281 20.3212
    endloop
  endfacet
  facet normal 0 0.996195 -0.0871516
    outer loop
      vertex -12.25 28.7281 20.3212
      vertex -4.75 28.7 20
      vertex -12.25 28.7 20
    endloop
  endfacet
  facet normal 0 0.9659 -0.258917
    outer loop
      vertex -4.75 28.7281 20.3212
      vertex -12.25 28.8116 20.6327
      vertex -4.75 28.8116 20.6327
    endloop
  endfacet
  facet normal 0 0.9659 -0.258917
    outer loop
      vertex -12.25 28.8116 20.6327
      vertex -4.75 28.7281 20.3212
      vertex -12.25 28.7281 20.3212
    endloop
  endfacet
  facet normal 0 0.81929 -0.573379
    outer loop
      vertex -4.75 28.9479 20.925
      vertex -12.25 29.1328 21.1892
      vertex -4.75 29.1328 21.1892
    endloop
  endfacet
  facet normal 0 0.81929 -0.573379
    outer loop
      vertex -12.25 29.1328 21.1892
      vertex -4.75 28.9479 20.925
      vertex -12.25 28.9479 20.925
    endloop
  endfacet
  facet normal 0 -0.906291 0.422653
    outer loop
      vertex 4.5 25.3347 21.8982
      vertex 12.5 25.7436 22.775
      vertex 4.5 25.7436 22.775
    endloop
  endfacet
  facet normal 0 -0.906291 0.422653
    outer loop
      vertex 12.5 25.7436 22.775
      vertex 4.5 25.3347 21.8982
      vertex 12.5 25.3347 21.8982
    endloop
  endfacet
  facet normal 0 0.965925 0.25882
    outer loop
      vertex 12.5 36.0157 20.9637
      vertex 4.5 35.7653 21.8982
      vertex 12.5 35.7653 21.8982
    endloop
  endfacet
  facet normal 0 0.965925 0.25882
    outer loop
      vertex 4.5 35.7653 21.8982
      vertex 12.5 36.0157 20.9637
      vertex 4.5 36.0157 20.9637
    endloop
  endfacet
  facet normal 0 0.25882 -0.965925
    outer loop
      vertex 4.5 31.5137 14.5343
      vertex 12.5 32.4482 14.7847
      vertex 12.5 31.5137 14.5343
    endloop
  endfacet
  facet normal 0 0.25882 -0.965925
    outer loop
      vertex 12.5 32.4482 14.7847
      vertex 4.5 31.5137 14.5343
      vertex 4.5 32.4482 14.7847
    endloop
  endfacet
  facet normal 0 0.0871426 -0.996196
    outer loop
      vertex 4.5 30.55 14.45
      vertex 12.5 31.5137 14.5343
      vertex 12.5 30.55 14.45
    endloop
  endfacet
  facet normal 0 0.0871426 -0.996196
    outer loop
      vertex 12.5 31.5137 14.5343
      vertex 4.5 30.55 14.45
      vertex 4.5 31.5137 14.5343
    endloop
  endfacet
  facet normal 0 0.422653 -0.906291
    outer loop
      vertex 4.5 32.4482 14.7847
      vertex 12.5 33.325 15.1936
      vertex 12.5 32.4482 14.7847
    endloop
  endfacet
  facet normal 0 0.422653 -0.906291
    outer loop
      vertex 12.5 33.325 15.1936
      vertex 4.5 32.4482 14.7847
      vertex 4.5 33.325 15.1936
    endloop
  endfacet
  facet normal 0 -0.819159 0.573566
    outer loop
      vertex 4.5 25.7436 22.775
      vertex 12.5 26.2985 23.5675
      vertex 4.5 26.2985 23.5675
    endloop
  endfacet
  facet normal 0 -0.819159 0.573566
    outer loop
      vertex 12.5 26.2985 23.5675
      vertex 4.5 25.7436 22.775
      vertex 12.5 25.7436 22.775
    endloop
  endfacet
  facet normal 0 -0.0871426 -0.996196
    outer loop
      vertex 4.5 29.5863 14.5343
      vertex 12.5 30.55 14.45
      vertex 12.5 29.5863 14.5343
    endloop
  endfacet
  facet normal -0 -0.0871426 -0.996196
    outer loop
      vertex 12.5 30.55 14.45
      vertex 4.5 29.5863 14.5343
      vertex 4.5 30.55 14.45
    endloop
  endfacet
  facet normal 0 0.573566 -0.819159
    outer loop
      vertex 4.5 33.325 15.1936
      vertex 12.5 34.1175 15.7485
      vertex 12.5 33.325 15.1936
    endloop
  endfacet
  facet normal 0 0.573566 -0.819159
    outer loop
      vertex 12.5 34.1175 15.7485
      vertex 4.5 33.325 15.1936
      vertex 4.5 34.1175 15.7485
    endloop
  endfacet
  facet normal 0 0.707107 0.707107
    outer loop
      vertex 12.5 34.8015 23.5675
      vertex 4.5 34.1175 24.2515
      vertex 12.5 34.1175 24.2515
    endloop
  endfacet
  facet normal 0 0.707107 0.707107
    outer loop
      vertex 4.5 34.1175 24.2515
      vertex 12.5 34.8015 23.5675
      vertex 4.5 34.8015 23.5675
    endloop
  endfacet
  facet normal -0 0.25882 0.965925
    outer loop
      vertex 4.5 32.4482 25.2153
      vertex 12.5 31.5137 25.4657
      vertex 12.5 32.4482 25.2153
    endloop
  endfacet
  facet normal 0 0.25882 0.965925
    outer loop
      vertex 12.5 31.5137 25.4657
      vertex 4.5 32.4482 25.2153
      vertex 4.5 31.5137 25.4657
    endloop
  endfacet
  facet normal 0 -0.573566 -0.819159
    outer loop
      vertex 4.5 26.9825 15.7485
      vertex 12.5 27.775 15.1936
      vertex 12.5 26.9825 15.7485
    endloop
  endfacet
  facet normal -0 -0.573566 -0.819159
    outer loop
      vertex 12.5 27.775 15.1936
      vertex 4.5 26.9825 15.7485
      vertex 4.5 27.775 15.1936
    endloop
  endfacet
  facet normal 1 0 0
    outer loop
      vertex 12.5 32.4 20
      vertex 12.5 36.1 20
      vertex 12.5 36.0157 20.9637
    endloop
  endfacet
  facet normal 1 0 0
    outer loop
      vertex 12.5 32.3719 20.3212
      vertex 12.5 36.0157 20.9637
      vertex 12.5 35.7653 21.8982
    endloop
  endfacet
  facet normal 1 0 0
    outer loop
      vertex 12.5 36.1 20
      vertex 12.5 32.4 20
      vertex 12.5 36.0157 19.0363
    endloop
  endfacet
  facet normal 1 0 0
    outer loop
      vertex 12.5 32.2884 20.6327
      vertex 12.5 35.7653 21.8982
      vertex 12.5 35.3564 22.775
    endloop
  endfacet
  facet normal 1 -0 0
    outer loop
      vertex 12.5 32.3719 19.6788
      vertex 12.5 36.0157 19.0363
      vertex 12.5 32.4 20
    endloop
  endfacet
  facet normal 1 0 0
    outer loop
      vertex 12.5 32.1521 20.925
      vertex 12.5 35.3564 22.775
      vertex 12.5 34.8015 23.5675
    endloop
  endfacet
  facet normal 1 0 0
    outer loop
      vertex 12.5 36.0157 19.0363
      vertex 12.5 32.3719 19.6788
      vertex 12.5 35.7653 18.1018
    endloop
  endfacet
  facet normal 1 0 0
    outer loop
      vertex 12.5 31.9672 21.1892
      vertex 12.5 34.8015 23.5675
      vertex 12.5 34.1175 24.2515
    endloop
  endfacet
  facet normal 1 -0 0
    outer loop
      vertex 12.5 32.2884 19.3673
      vertex 12.5 35.7653 18.1018
      vertex 12.5 32.3719 19.6788
    endloop
  endfacet
  facet normal 1 0 0
    outer loop
      vertex 12.5 31.7392 21.4172
      vertex 12.5 34.1175 24.2515
      vertex 12.5 33.325 24.8064
    endloop
  endfacet
  facet normal 1 0 0
    outer loop
      vertex 12.5 35.7653 18.1018
      vertex 12.5 32.2884 19.3673
      vertex 12.5 35.3564 17.225
    endloop
  endfacet
  facet normal 1 0 0
    outer loop
      vertex 12.5 31.475 21.6021
      vertex 12.5 33.325 24.8064
      vertex 12.5 32.4482 25.2153
    endloop
  endfacet
  facet normal 1 -0 0
    outer loop
      vertex 12.5 32.1521 19.075
      vertex 12.5 35.3564 17.225
      vertex 12.5 32.2884 19.3673
    endloop
  endfacet
  facet normal 1 0 0
    outer loop
      vertex 12.5 35.3564 17.225
      vertex 12.5 32.1521 19.075
      vertex 12.5 34.8015 16.4325
    endloop
  endfacet
  facet normal 1 0 0
    outer loop
      vertex 12.5 36.0157 20.9637
      vertex 12.5 32.3719 20.3212
      vertex 12.5 32.4 20
    endloop
  endfacet
  facet normal 1 0 0
    outer loop
      vertex 12.5 35.7653 21.8982
      vertex 12.5 32.2884 20.6327
      vertex 12.5 32.3719 20.3212
    endloop
  endfacet
  facet normal 1 0 0
    outer loop
      vertex 12.5 35.3564 22.775
      vertex 12.5 32.1521 20.925
      vertex 12.5 32.2884 20.6327
    endloop
  endfacet
  facet normal 1 0 0
    outer loop
      vertex 12.5 34.8015 23.5675
      vertex 12.5 31.9672 21.1892
      vertex 12.5 32.1521 20.925
    endloop
  endfacet
  facet normal 1 0 0
    outer loop
      vertex 12.5 34.1175 24.2515
      vertex 12.5 31.7392 21.4172
      vertex 12.5 31.9672 21.1892
    endloop
  endfacet
  facet normal 1 0 0
    outer loop
      vertex 12.5 31.1827 21.7384
      vertex 12.5 32.4482 25.2153
      vertex 12.5 31.5137 25.4657
    endloop
  endfacet
  facet normal 1 0 0
    outer loop
      vertex 12.5 33.325 24.8064
      vertex 12.5 31.475 21.6021
      vertex 12.5 31.7392 21.4172
    endloop
  endfacet
  facet normal 1 0 0
    outer loop
      vertex 12.5 32.4482 25.2153
      vertex 12.5 31.1827 21.7384
      vertex 12.5 31.475 21.6021
    endloop
  endfacet
  facet normal 1 0 0
    outer loop
      vertex 12.5 31.5137 25.4657
      vertex 12.5 30.8712 21.8219
      vertex 12.5 31.1827 21.7384
    endloop
  endfacet
  facet normal 1 0 0
    outer loop
      vertex 12.5 30.55 25.55
      vertex 12.5 30.8712 21.8219
      vertex 12.5 31.5137 25.4657
    endloop
  endfacet
  facet normal 1 0 0
    outer loop
      vertex 12.5 30.55 25.55
      vertex 12.5 30.55 21.85
      vertex 12.5 30.8712 21.8219
    endloop
  endfacet
  facet normal 1 0 0
    outer loop
      vertex 12.5 30.55 25.55
      vertex 12.5 30.2288 21.8219
      vertex 12.5 30.55 21.85
    endloop
  endfacet
  facet normal 1 -0 0
    outer loop
      vertex 12.5 29.5863 25.4657
      vertex 12.5 30.2288 21.8219
      vertex 12.5 30.55 25.55
    endloop
  endfacet
  facet normal 1 0 0
    outer loop
      vertex 12.5 30.2288 21.8219
      vertex 12.5 29.5863 25.4657
      vertex 12.5 29.9173 21.7384
    endloop
  endfacet
  facet normal 1 -0 0
    outer loop
      vertex 12.5 28.6518 25.2153
      vertex 12.5 29.9173 21.7384
      vertex 12.5 29.5863 25.4657
    endloop
  endfacet
  facet normal 1 0 0
    outer loop
      vertex 12.5 29.9173 21.7384
      vertex 12.5 28.6518 25.2153
      vertex 12.5 29.625 21.6021
    endloop
  endfacet
  facet normal 1 -0 0
    outer loop
      vertex 12.5 27.775 24.8064
      vertex 12.5 29.625 21.6021
      vertex 12.5 28.6518 25.2153
    endloop
  endfacet
  facet normal 1 0 0
    outer loop
      vertex 12.5 29.625 21.6021
      vertex 12.5 27.775 24.8064
      vertex 12.5 29.3608 21.4172
    endloop
  endfacet
  facet normal 1 -0 0
    outer loop
      vertex 12.5 26.9825 24.2515
      vertex 12.5 29.3608 21.4172
      vertex 12.5 27.775 24.8064
    endloop
  endfacet
  facet normal 1 0 0
    outer loop
      vertex 12.5 29.3608 21.4172
      vertex 12.5 26.9825 24.2515
      vertex 12.5 29.1328 21.1892
    endloop
  endfacet
  facet normal 1 0 0
    outer loop
      vertex 12.5 29.1328 21.1892
      vertex 12.5 26.2985 23.5675
      vertex 12.5 28.9479 20.925
    endloop
  endfacet
  facet normal 1 -0 0
    outer loop
      vertex 12.5 26.2985 23.5675
      vertex 12.5 29.1328 21.1892
      vertex 12.5 26.9825 24.2515
    endloop
  endfacet
  facet normal 1 -0 0
    outer loop
      vertex 12.5 31.9672 18.8108
      vertex 12.5 34.8015 16.4325
      vertex 12.5 32.1521 19.075
    endloop
  endfacet
  facet normal 1 0 0
    outer loop
      vertex 12.5 34.8015 16.4325
      vertex 12.5 31.9672 18.8108
      vertex 12.5 34.1175 15.7485
    endloop
  endfacet
  facet normal 1 -0 0
    outer loop
      vertex 12.5 31.7392 18.5828
      vertex 12.5 34.1175 15.7485
      vertex 12.5 31.9672 18.8108
    endloop
  endfacet
  facet normal 1 0 0
    outer loop
      vertex 12.5 34.1175 15.7485
      vertex 12.5 31.7392 18.5828
      vertex 12.5 33.325 15.1936
    endloop
  endfacet
  facet normal 1 -0 0
    outer loop
      vertex 12.5 31.475 18.3979
      vertex 12.5 33.325 15.1936
      vertex 12.5 31.7392 18.5828
    endloop
  endfacet
  facet normal 1 0 0
    outer loop
      vertex 12.5 33.325 15.1936
      vertex 12.5 31.475 18.3979
      vertex 12.5 32.4482 14.7847
    endloop
  endfacet
  facet normal 1 -0 0
    outer loop
      vertex 12.5 31.1827 18.2616
      vertex 12.5 32.4482 14.7847
      vertex 12.5 31.475 18.3979
    endloop
  endfacet
  facet normal 1 0 0
    outer loop
      vertex 12.5 32.4482 14.7847
      vertex 12.5 31.1827 18.2616
      vertex 12.5 31.5137 14.5343
    endloop
  endfacet
  facet normal 1 -0 0
    outer loop
      vertex 12.5 30.8712 18.1781
      vertex 12.5 31.5137 14.5343
      vertex 12.5 31.1827 18.2616
    endloop
  endfacet
  facet normal 1 -0 0
    outer loop
      vertex 12.5 30.55 18.15
      vertex 12.5 31.5137 14.5343
      vertex 12.5 30.8712 18.1781
    endloop
  endfacet
  facet normal 1 0 0
    outer loop
      vertex 12.5 30.55 18.15
      vertex 12.5 30.55 14.45
      vertex 12.5 31.5137 14.5343
    endloop
  endfacet
  facet normal 1 0 0
    outer loop
      vertex 12.5 30.2288 18.1781
      vertex 12.5 30.55 14.45
      vertex 12.5 30.55 18.15
    endloop
  endfacet
  facet normal 1 0 0
    outer loop
      vertex 12.5 29.5863 14.5343
      vertex 12.5 30.2288 18.1781
      vertex 12.5 29.9173 18.2616
    endloop
  endfacet
  facet normal 1 0 0
    outer loop
      vertex 12.5 28.6518 14.7847
      vertex 12.5 29.9173 18.2616
      vertex 12.5 29.625 18.3979
    endloop
  endfacet
  facet normal 1 0 0
    outer loop
      vertex 12.5 30.2288 18.1781
      vertex 12.5 29.5863 14.5343
      vertex 12.5 30.55 14.45
    endloop
  endfacet
  facet normal 1 0 0
    outer loop
      vertex 12.5 27.775 15.1936
      vertex 12.5 29.625 18.3979
      vertex 12.5 29.3608 18.5828
    endloop
  endfacet
  facet normal 1 0 0
    outer loop
      vertex 12.5 26.9825 15.7485
      vertex 12.5 29.3608 18.5828
      vertex 12.5 29.1328 18.8108
    endloop
  endfacet
  facet normal 1 0 0
    outer loop
      vertex 12.5 26.2985 16.4325
      vertex 12.5 29.1328 18.8108
      vertex 12.5 28.9479 19.075
    endloop
  endfacet
  facet normal 1 0 0
    outer loop
      vertex 12.5 25.7436 17.225
      vertex 12.5 28.9479 19.075
      vertex 12.5 28.8116 19.3673
    endloop
  endfacet
  facet normal 1 0 0
    outer loop
      vertex 12.5 25.3347 18.1018
      vertex 12.5 28.8116 19.3673
      vertex 12.5 28.7281 19.6788
    endloop
  endfacet
  facet normal 1 0 0
    outer loop
      vertex 12.5 29.9173 18.2616
      vertex 12.5 28.6518 14.7847
      vertex 12.5 29.5863 14.5343
    endloop
  endfacet
  facet normal 1 0 0
    outer loop
      vertex 12.5 25.0843 19.0363
      vertex 12.5 28.7281 19.6788
      vertex 12.5 28.7 20
    endloop
  endfacet
  facet normal 1 -0 0
    outer loop
      vertex 12.5 25.7436 22.775
      vertex 12.5 28.9479 20.925
      vertex 12.5 26.2985 23.5675
    endloop
  endfacet
  facet normal 1 0 0
    outer loop
      vertex 12.5 28.9479 20.925
      vertex 12.5 25.7436 22.775
      vertex 12.5 28.8116 20.6327
    endloop
  endfacet
  facet normal 1 0 0
    outer loop
      vertex 12.5 29.625 18.3979
      vertex 12.5 27.775 15.1936
      vertex 12.5 28.6518 14.7847
    endloop
  endfacet
  facet normal 1 -0 0
    outer loop
      vertex 12.5 25.3347 21.8982
      vertex 12.5 28.8116 20.6327
      vertex 12.5 25.7436 22.775
    endloop
  endfacet
  facet normal 1 0 0
    outer loop
      vertex 12.5 29.3608 18.5828
      vertex 12.5 26.9825 15.7485
      vertex 12.5 27.775 15.1936
    endloop
  endfacet
  facet normal 1 0 0
    outer loop
      vertex 12.5 28.8116 20.6327
      vertex 12.5 25.3347 21.8982
      vertex 12.5 28.7281 20.3212
    endloop
  endfacet
  facet normal 1 0 0
    outer loop
      vertex 12.5 29.1328 18.8108
      vertex 12.5 26.2985 16.4325
      vertex 12.5 26.9825 15.7485
    endloop
  endfacet
  facet normal 1 -0 0
    outer loop
      vertex 12.5 25.0843 20.9637
      vertex 12.5 28.7281 20.3212
      vertex 12.5 25.3347 21.8982
    endloop
  endfacet
  facet normal 1 0 0
    outer loop
      vertex 12.5 28.9479 19.075
      vertex 12.5 25.7436 17.225
      vertex 12.5 26.2985 16.4325
    endloop
  endfacet
  facet normal 1 0 0
    outer loop
      vertex 12.5 28.7281 20.3212
      vertex 12.5 25.0843 20.9637
      vertex 12.5 28.7 20
    endloop
  endfacet
  facet normal 1 0 0
    outer loop
      vertex 12.5 28.8116 19.3673
      vertex 12.5 25.3347 18.1018
      vertex 12.5 25.7436 17.225
    endloop
  endfacet
  facet normal 1 0 0
    outer loop
      vertex 12.5 25 20
      vertex 12.5 28.7 20
      vertex 12.5 25.0843 20.9637
    endloop
  endfacet
  facet normal 1 0 0
    outer loop
      vertex 12.5 28.7281 19.6788
      vertex 12.5 25.0843 19.0363
      vertex 12.5 25.3347 18.1018
    endloop
  endfacet
  facet normal 1 0 0
    outer loop
      vertex 12.5 28.7 20
      vertex 12.5 25 20
      vertex 12.5 25.0843 19.0363
    endloop
  endfacet
  facet normal 0 -0.25882 -0.965925
    outer loop
      vertex 4.5 28.6518 14.7847
      vertex 12.5 29.5863 14.5343
      vertex 12.5 28.6518 14.7847
    endloop
  endfacet
  facet normal -0 -0.25882 -0.965925
    outer loop
      vertex 12.5 29.5863 14.5343
      vertex 4.5 28.6518 14.7847
      vertex 4.5 29.5863 14.5343
    endloop
  endfacet
  facet normal 0 0.819159 0.573566
    outer loop
      vertex 12.5 35.3564 22.775
      vertex 4.5 34.8015 23.5675
      vertex 12.5 34.8015 23.5675
    endloop
  endfacet
  facet normal 0 0.819159 0.573566
    outer loop
      vertex 4.5 34.8015 23.5675
      vertex 12.5 35.3564 22.775
      vertex 4.5 35.3564 22.775
    endloop
  endfacet
  facet normal 0 -0.707107 0.707107
    outer loop
      vertex 4.5 26.2985 23.5675
      vertex 12.5 26.9825 24.2515
      vertex 4.5 26.9825 24.2515
    endloop
  endfacet
  facet normal 0 -0.707107 0.707107
    outer loop
      vertex 12.5 26.9825 24.2515
      vertex 4.5 26.2985 23.5675
      vertex 12.5 26.2985 23.5675
    endloop
  endfacet
  facet normal 0 -0.422653 -0.906291
    outer loop
      vertex 4.5 27.775 15.1936
      vertex 12.5 28.6518 14.7847
      vertex 12.5 27.775 15.1936
    endloop
  endfacet
  facet normal -0 -0.422653 -0.906291
    outer loop
      vertex 12.5 28.6518 14.7847
      vertex 4.5 27.775 15.1936
      vertex 4.5 28.6518 14.7847
    endloop
  endfacet
  facet normal -0 0.422653 0.906291
    outer loop
      vertex 4.5 33.325 24.8064
      vertex 12.5 32.4482 25.2153
      vertex 12.5 33.325 24.8064
    endloop
  endfacet
  facet normal 0 0.422653 0.906291
    outer loop
      vertex 12.5 32.4482 25.2153
      vertex 4.5 33.325 24.8064
      vertex 4.5 32.4482 25.2153
    endloop
  endfacet
  facet normal 0 -0.422653 0.906291
    outer loop
      vertex 4.5 28.6518 25.2153
      vertex 12.5 27.775 24.8064
      vertex 12.5 28.6518 25.2153
    endloop
  endfacet
  facet normal 0 -0.422653 0.906291
    outer loop
      vertex 12.5 27.775 24.8064
      vertex 4.5 28.6518 25.2153
      vertex 4.5 27.775 24.8064
    endloop
  endfacet
  facet normal 0 0.906291 0.422653
    outer loop
      vertex 12.5 35.7653 21.8982
      vertex 4.5 35.3564 22.775
      vertex 12.5 35.3564 22.775
    endloop
  endfacet
  facet normal 0 0.906291 0.422653
    outer loop
      vertex 4.5 35.3564 22.775
      vertex 12.5 35.7653 21.8982
      vertex 4.5 35.7653 21.8982
    endloop
  endfacet
  facet normal 0 0.707107 -0.707107
    outer loop
      vertex 12.5 34.1175 15.7485
      vertex 4.5 34.8015 16.4325
      vertex 12.5 34.8015 16.4325
    endloop
  endfacet
  facet normal 0 0.707107 -0.707107
    outer loop
      vertex 4.5 34.8015 16.4325
      vertex 12.5 34.1175 15.7485
      vertex 4.5 34.1175 15.7485
    endloop
  endfacet
  facet normal -0 0.573566 0.819159
    outer loop
      vertex 4.5 34.1175 24.2515
      vertex 12.5 33.325 24.8064
      vertex 12.5 34.1175 24.2515
    endloop
  endfacet
  facet normal 0 0.573566 0.819159
    outer loop
      vertex 12.5 33.325 24.8064
      vertex 4.5 34.1175 24.2515
      vertex 4.5 33.325 24.8064
    endloop
  endfacet
  facet normal 0 0.965925 -0.25882
    outer loop
      vertex 12.5 35.7653 18.1018
      vertex 4.5 36.0157 19.0363
      vertex 12.5 36.0157 19.0363
    endloop
  endfacet
  facet normal 0 0.965925 -0.25882
    outer loop
      vertex 4.5 36.0157 19.0363
      vertex 12.5 35.7653 18.1018
      vertex 4.5 35.7653 18.1018
    endloop
  endfacet
  facet normal 0 -0.819159 -0.573566
    outer loop
      vertex 4.5 26.2985 16.4325
      vertex 12.5 25.7436 17.225
      vertex 4.5 25.7436 17.225
    endloop
  endfacet
  facet normal 0 -0.819159 -0.573566
    outer loop
      vertex 12.5 25.7436 17.225
      vertex 4.5 26.2985 16.4325
      vertex 12.5 26.2985 16.4325
    endloop
  endfacet
  facet normal 0 -0.573566 0.819159
    outer loop
      vertex 4.5 27.775 24.8064
      vertex 12.5 26.9825 24.2515
      vertex 12.5 27.775 24.8064
    endloop
  endfacet
  facet normal 0 -0.573566 0.819159
    outer loop
      vertex 12.5 26.9825 24.2515
      vertex 4.5 27.775 24.8064
      vertex 4.5 26.9825 24.2515
    endloop
  endfacet
  facet normal -0 0.0871426 0.996196
    outer loop
      vertex 4.5 31.5137 25.4657
      vertex 12.5 30.55 25.55
      vertex 12.5 31.5137 25.4657
    endloop
  endfacet
  facet normal 0 0.0871426 0.996196
    outer loop
      vertex 12.5 30.55 25.55
      vertex 4.5 31.5137 25.4657
      vertex 4.5 30.55 25.55
    endloop
  endfacet
  facet normal 0 -0.965925 -0.25882
    outer loop
      vertex 4.5 25.3347 18.1018
      vertex 12.5 25.0843 19.0363
      vertex 4.5 25.0843 19.0363
    endloop
  endfacet
  facet normal 0 -0.965925 -0.25882
    outer loop
      vertex 12.5 25.0843 19.0363
      vertex 4.5 25.3347 18.1018
      vertex 12.5 25.3347 18.1018
    endloop
  endfacet
  facet normal 0 0.906291 -0.422653
    outer loop
      vertex 12.5 35.3564 17.225
      vertex 4.5 35.7653 18.1018
      vertex 12.5 35.7653 18.1018
    endloop
  endfacet
  facet normal 0 0.906291 -0.422653
    outer loop
      vertex 4.5 35.7653 18.1018
      vertex 12.5 35.3564 17.225
      vertex 4.5 35.3564 17.225
    endloop
  endfacet
  facet normal 0 -0.25882 0.965925
    outer loop
      vertex 4.5 29.5863 25.4657
      vertex 12.5 28.6518 25.2153
      vertex 12.5 29.5863 25.4657
    endloop
  endfacet
  facet normal 0 -0.25882 0.965925
    outer loop
      vertex 12.5 28.6518 25.2153
      vertex 4.5 29.5863 25.4657
      vertex 4.5 28.6518 25.2153
    endloop
  endfacet
  facet normal 0 -0.707107 -0.707107
    outer loop
      vertex 4.5 26.9825 15.7485
      vertex 12.5 26.2985 16.4325
      vertex 4.5 26.2985 16.4325
    endloop
  endfacet
  facet normal 0 -0.707107 -0.707107
    outer loop
      vertex 12.5 26.2985 16.4325
      vertex 4.5 26.9825 15.7485
      vertex 12.5 26.9825 15.7485
    endloop
  endfacet
  facet normal 0 -0.906291 -0.422653
    outer loop
      vertex 4.5 25.7436 17.225
      vertex 12.5 25.3347 18.1018
      vertex 4.5 25.3347 18.1018
    endloop
  endfacet
  facet normal 0 -0.906291 -0.422653
    outer loop
      vertex 12.5 25.3347 18.1018
      vertex 4.5 25.7436 17.225
      vertex 12.5 25.7436 17.225
    endloop
  endfacet
  facet normal 0 0.819159 -0.573566
    outer loop
      vertex 12.5 34.8015 16.4325
      vertex 4.5 35.3564 17.225
      vertex 12.5 35.3564 17.225
    endloop
  endfacet
  facet normal 0 0.819159 -0.573566
    outer loop
      vertex 4.5 35.3564 17.225
      vertex 12.5 34.8015 16.4325
      vertex 4.5 34.8015 16.4325
    endloop
  endfacet
  facet normal 0 0.996196 -0.0871426
    outer loop
      vertex 12.5 36.0157 19.0363
      vertex 4.5 36.1 20
      vertex 12.5 36.1 20
    endloop
  endfacet
  facet normal 0 0.996196 -0.0871426
    outer loop
      vertex 4.5 36.1 20
      vertex 12.5 36.0157 19.0363
      vertex 4.5 36.0157 19.0363
    endloop
  endfacet
  facet normal 0 0.996196 0.0871426
    outer loop
      vertex 12.5 36.1 20
      vertex 4.5 36.0157 20.9637
      vertex 12.5 36.0157 20.9637
    endloop
  endfacet
  facet normal 0 0.996196 0.0871426
    outer loop
      vertex 4.5 36.0157 20.9637
      vertex 12.5 36.1 20
      vertex 4.5 36.1 20
    endloop
  endfacet
  facet normal -1 0 0
    outer loop
      vertex 4.5 32.4 20
      vertex 4.5 36.1 20
      vertex 4.5 36.0157 19.0363
    endloop
  endfacet
  facet normal -1 0 0
    outer loop
      vertex 4.5 32.3719 19.6788
      vertex 4.5 36.0157 19.0363
      vertex 4.5 35.7653 18.1018
    endloop
  endfacet
  facet normal -1 0 0
    outer loop
      vertex 4.5 36.1 20
      vertex 4.5 32.4 20
      vertex 4.5 36.0157 20.9637
    endloop
  endfacet
  facet normal -1 0 0
    outer loop
      vertex 4.5 32.2884 19.3673
      vertex 4.5 35.7653 18.1018
      vertex 4.5 35.3564 17.225
    endloop
  endfacet
  facet normal -1 0 0
    outer loop
      vertex 4.5 32.3719 20.3212
      vertex 4.5 36.0157 20.9637
      vertex 4.5 32.4 20
    endloop
  endfacet
  facet normal -1 0 0
    outer loop
      vertex 4.5 32.1521 19.075
      vertex 4.5 35.3564 17.225
      vertex 4.5 34.8015 16.4325
    endloop
  endfacet
  facet normal -1 -0 0
    outer loop
      vertex 4.5 36.0157 20.9637
      vertex 4.5 32.3719 20.3212
      vertex 4.5 35.7653 21.8982
    endloop
  endfacet
  facet normal -1 0 0
    outer loop
      vertex 4.5 31.9672 18.8108
      vertex 4.5 34.8015 16.4325
      vertex 4.5 34.1175 15.7485
    endloop
  endfacet
  facet normal -1 0 0
    outer loop
      vertex 4.5 32.2884 20.6327
      vertex 4.5 35.7653 21.8982
      vertex 4.5 32.3719 20.3212
    endloop
  endfacet
  facet normal -1 0 0
    outer loop
      vertex 4.5 31.7392 18.5828
      vertex 4.5 34.1175 15.7485
      vertex 4.5 33.325 15.1936
    endloop
  endfacet
  facet normal -1 -0 0
    outer loop
      vertex 4.5 35.7653 21.8982
      vertex 4.5 32.2884 20.6327
      vertex 4.5 35.3564 22.775
    endloop
  endfacet
  facet normal -1 0 0
    outer loop
      vertex 4.5 31.475 18.3979
      vertex 4.5 33.325 15.1936
      vertex 4.5 32.4482 14.7847
    endloop
  endfacet
  facet normal -1 0 0
    outer loop
      vertex 4.5 32.1521 20.925
      vertex 4.5 35.3564 22.775
      vertex 4.5 32.2884 20.6327
    endloop
  endfacet
  facet normal -1 -0 0
    outer loop
      vertex 4.5 35.3564 22.775
      vertex 4.5 32.1521 20.925
      vertex 4.5 34.8015 23.5675
    endloop
  endfacet
  facet normal -1 0 0
    outer loop
      vertex 4.5 36.0157 19.0363
      vertex 4.5 32.3719 19.6788
      vertex 4.5 32.4 20
    endloop
  endfacet
  facet normal -1 0 0
    outer loop
      vertex 4.5 35.7653 18.1018
      vertex 4.5 32.2884 19.3673
      vertex 4.5 32.3719 19.6788
    endloop
  endfacet
  facet normal -1 0 0
    outer loop
      vertex 4.5 35.3564 17.225
      vertex 4.5 32.1521 19.075
      vertex 4.5 32.2884 19.3673
    endloop
  endfacet
  facet normal -1 0 0
    outer loop
      vertex 4.5 34.8015 16.4325
      vertex 4.5 31.9672 18.8108
      vertex 4.5 32.1521 19.075
    endloop
  endfacet
  facet normal -1 0 0
    outer loop
      vertex 4.5 34.1175 15.7485
      vertex 4.5 31.7392 18.5828
      vertex 4.5 31.9672 18.8108
    endloop
  endfacet
  facet normal -1 0 0
    outer loop
      vertex 4.5 31.1827 18.2616
      vertex 4.5 32.4482 14.7847
      vertex 4.5 31.5137 14.5343
    endloop
  endfacet
  facet normal -1 0 0
    outer loop
      vertex 4.5 33.325 15.1936
      vertex 4.5 31.475 18.3979
      vertex 4.5 31.7392 18.5828
    endloop
  endfacet
  facet normal -1 0 0
    outer loop
      vertex 4.5 32.4482 14.7847
      vertex 4.5 31.1827 18.2616
      vertex 4.5 31.475 18.3979
    endloop
  endfacet
  facet normal -1 0 0
    outer loop
      vertex 4.5 31.5137 14.5343
      vertex 4.5 30.8712 18.1781
      vertex 4.5 31.1827 18.2616
    endloop
  endfacet
  facet normal -1 0 0
    outer loop
      vertex 4.5 30.55 14.45
      vertex 4.5 30.8712 18.1781
      vertex 4.5 31.5137 14.5343
    endloop
  endfacet
  facet normal -1 0 0
    outer loop
      vertex 4.5 30.55 14.45
      vertex 4.5 30.55 18.15
      vertex 4.5 30.8712 18.1781
    endloop
  endfacet
  facet normal -1 0 0
    outer loop
      vertex 4.5 30.55 14.45
      vertex 4.5 30.2288 18.1781
      vertex 4.5 30.55 18.15
    endloop
  endfacet
  facet normal -1 0 0
    outer loop
      vertex 4.5 29.5863 14.5343
      vertex 4.5 30.2288 18.1781
      vertex 4.5 30.55 14.45
    endloop
  endfacet
  facet normal -1 -0 0
    outer loop
      vertex 4.5 30.2288 18.1781
      vertex 4.5 29.5863 14.5343
      vertex 4.5 29.9173 18.2616
    endloop
  endfacet
  facet normal -1 0 0
    outer loop
      vertex 4.5 28.6518 14.7847
      vertex 4.5 29.9173 18.2616
      vertex 4.5 29.5863 14.5343
    endloop
  endfacet
  facet normal -1 -0 0
    outer loop
      vertex 4.5 29.9173 18.2616
      vertex 4.5 28.6518 14.7847
      vertex 4.5 29.625 18.3979
    endloop
  endfacet
  facet normal -1 0 0
    outer loop
      vertex 4.5 27.775 15.1936
      vertex 4.5 29.625 18.3979
      vertex 4.5 28.6518 14.7847
    endloop
  endfacet
  facet normal -1 -0 0
    outer loop
      vertex 4.5 29.625 18.3979
      vertex 4.5 27.775 15.1936
      vertex 4.5 29.3608 18.5828
    endloop
  endfacet
  facet normal -1 0 0
    outer loop
      vertex 4.5 26.9825 15.7485
      vertex 4.5 29.3608 18.5828
      vertex 4.5 27.775 15.1936
    endloop
  endfacet
  facet normal -1 -0 0
    outer loop
      vertex 4.5 29.3608 18.5828
      vertex 4.5 26.9825 15.7485
      vertex 4.5 29.1328 18.8108
    endloop
  endfacet
  facet normal -1 -0 0
    outer loop
      vertex 4.5 29.1328 18.8108
      vertex 4.5 26.2985 16.4325
      vertex 4.5 28.9479 19.075
    endloop
  endfacet
  facet normal -1 0 0
    outer loop
      vertex 4.5 26.2985 16.4325
      vertex 4.5 29.1328 18.8108
      vertex 4.5 26.9825 15.7485
    endloop
  endfacet
  facet normal -1 0 0
    outer loop
      vertex 4.5 31.9672 21.1892
      vertex 4.5 34.8015 23.5675
      vertex 4.5 32.1521 20.925
    endloop
  endfacet
  facet normal -1 -0 0
    outer loop
      vertex 4.5 34.8015 23.5675
      vertex 4.5 31.9672 21.1892
      vertex 4.5 34.1175 24.2515
    endloop
  endfacet
  facet normal -1 0 0
    outer loop
      vertex 4.5 31.7392 21.4172
      vertex 4.5 34.1175 24.2515
      vertex 4.5 31.9672 21.1892
    endloop
  endfacet
  facet normal -1 -0 0
    outer loop
      vertex 4.5 34.1175 24.2515
      vertex 4.5 31.7392 21.4172
      vertex 4.5 33.325 24.8064
    endloop
  endfacet
  facet normal -1 0 0
    outer loop
      vertex 4.5 31.475 21.6021
      vertex 4.5 33.325 24.8064
      vertex 4.5 31.7392 21.4172
    endloop
  endfacet
  facet normal -1 -0 0
    outer loop
      vertex 4.5 33.325 24.8064
      vertex 4.5 31.475 21.6021
      vertex 4.5 32.4482 25.2153
    endloop
  endfacet
  facet normal -1 0 0
    outer loop
      vertex 4.5 31.1827 21.7384
      vertex 4.5 32.4482 25.2153
      vertex 4.5 31.475 21.6021
    endloop
  endfacet
  facet normal -1 -0 0
    outer loop
      vertex 4.5 32.4482 25.2153
      vertex 4.5 31.1827 21.7384
      vertex 4.5 31.5137 25.4657
    endloop
  endfacet
  facet normal -1 0 0
    outer loop
      vertex 4.5 30.8712 21.8219
      vertex 4.5 31.5137 25.4657
      vertex 4.5 31.1827 21.7384
    endloop
  endfacet
  facet normal -1 0 0
    outer loop
      vertex 4.5 30.55 21.85
      vertex 4.5 31.5137 25.4657
      vertex 4.5 30.8712 21.8219
    endloop
  endfacet
  facet normal -1 0 0
    outer loop
      vertex 4.5 30.55 21.85
      vertex 4.5 30.55 25.55
      vertex 4.5 31.5137 25.4657
    endloop
  endfacet
  facet normal -1 0 0
    outer loop
      vertex 4.5 30.2288 21.8219
      vertex 4.5 30.55 25.55
      vertex 4.5 30.55 21.85
    endloop
  endfacet
  facet normal -1 0 0
    outer loop
      vertex 4.5 29.5863 25.4657
      vertex 4.5 30.2288 21.8219
      vertex 4.5 29.9173 21.7384
    endloop
  endfacet
  facet normal -1 0 0
    outer loop
      vertex 4.5 28.6518 25.2153
      vertex 4.5 29.9173 21.7384
      vertex 4.5 29.625 21.6021
    endloop
  endfacet
  facet normal -1 0 0
    outer loop
      vertex 4.5 30.2288 21.8219
      vertex 4.5 29.5863 25.4657
      vertex 4.5 30.55 25.55
    endloop
  endfacet
  facet normal -1 0 0
    outer loop
      vertex 4.5 27.775 24.8064
      vertex 4.5 29.625 21.6021
      vertex 4.5 29.3608 21.4172
    endloop
  endfacet
  facet normal -1 0 0
    outer loop
      vertex 4.5 26.9825 24.2515
      vertex 4.5 29.3608 21.4172
      vertex 4.5 29.1328 21.1892
    endloop
  endfacet
  facet normal -1 0 0
    outer loop
      vertex 4.5 26.2985 23.5675
      vertex 4.5 29.1328 21.1892
      vertex 4.5 28.9479 20.925
    endloop
  endfacet
  facet normal -1 0 0
    outer loop
      vertex 4.5 25.7436 22.775
      vertex 4.5 28.9479 20.925
      vertex 4.5 28.8116 20.6327
    endloop
  endfacet
  facet normal -1 0 0
    outer loop
      vertex 4.5 25.3347 21.8982
      vertex 4.5 28.8116 20.6327
      vertex 4.5 28.7281 20.3212
    endloop
  endfacet
  facet normal -1 0 0
    outer loop
      vertex 4.5 29.9173 21.7384
      vertex 4.5 28.6518 25.2153
      vertex 4.5 29.5863 25.4657
    endloop
  endfacet
  facet normal -1 0 0
    outer loop
      vertex 4.5 25.0843 20.9637
      vertex 4.5 28.7281 20.3212
      vertex 4.5 28.7 20
    endloop
  endfacet
  facet normal -1 0 0
    outer loop
      vertex 4.5 25.7436 17.225
      vertex 4.5 28.9479 19.075
      vertex 4.5 26.2985 16.4325
    endloop
  endfacet
  facet normal -1 -0 0
    outer loop
      vertex 4.5 28.9479 19.075
      vertex 4.5 25.7436 17.225
      vertex 4.5 28.8116 19.3673
    endloop
  endfacet
  facet normal -1 0 0
    outer loop
      vertex 4.5 29.625 21.6021
      vertex 4.5 27.775 24.8064
      vertex 4.5 28.6518 25.2153
    endloop
  endfacet
  facet normal -1 0 0
    outer loop
      vertex 4.5 25.3347 18.1018
      vertex 4.5 28.8116 19.3673
      vertex 4.5 25.7436 17.225
    endloop
  endfacet
  facet normal -1 0 0
    outer loop
      vertex 4.5 29.3608 21.4172
      vertex 4.5 26.9825 24.2515
      vertex 4.5 27.775 24.8064
    endloop
  endfacet
  facet normal -1 -0 0
    outer loop
      vertex 4.5 28.8116 19.3673
      vertex 4.5 25.3347 18.1018
      vertex 4.5 28.7281 19.6788
    endloop
  endfacet
  facet normal -1 0 0
    outer loop
      vertex 4.5 29.1328 21.1892
      vertex 4.5 26.2985 23.5675
      vertex 4.5 26.9825 24.2515
    endloop
  endfacet
  facet normal -1 0 0
    outer loop
      vertex 4.5 25.0843 19.0363
      vertex 4.5 28.7281 19.6788
      vertex 4.5 25.3347 18.1018
    endloop
  endfacet
  facet normal -1 0 0
    outer loop
      vertex 4.5 28.9479 20.925
      vertex 4.5 25.7436 22.775
      vertex 4.5 26.2985 23.5675
    endloop
  endfacet
  facet normal -1 -0 0
    outer loop
      vertex 4.5 28.7281 19.6788
      vertex 4.5 25.0843 19.0363
      vertex 4.5 28.7 20
    endloop
  endfacet
  facet normal -1 0 0
    outer loop
      vertex 4.5 28.8116 20.6327
      vertex 4.5 25.3347 21.8982
      vertex 4.5 25.7436 22.775
    endloop
  endfacet
  facet normal -1 0 0
    outer loop
      vertex 4.5 25 20
      vertex 4.5 28.7 20
      vertex 4.5 25.0843 19.0363
    endloop
  endfacet
  facet normal -1 0 0
    outer loop
      vertex 4.5 28.7281 20.3212
      vertex 4.5 25.0843 20.9637
      vertex 4.5 25.3347 21.8982
    endloop
  endfacet
  facet normal -1 0 0
    outer loop
      vertex 4.5 28.7 20
      vertex 4.5 25 20
      vertex 4.5 25.0843 20.9637
    endloop
  endfacet
  facet normal 0 -0.996196 -0.0871426
    outer loop
      vertex 4.5 25.0843 19.0363
      vertex 12.5 25 20
      vertex 4.5 25 20
    endloop
  endfacet
  facet normal 0 -0.996196 -0.0871426
    outer loop
      vertex 12.5 25 20
      vertex 4.5 25.0843 19.0363
      vertex 12.5 25.0843 19.0363
    endloop
  endfacet
  facet normal 0 -0.996196 0.0871426
    outer loop
      vertex 4.5 25 20
      vertex 12.5 25.0843 20.9637
      vertex 4.5 25.0843 20.9637
    endloop
  endfacet
  facet normal 0 -0.996196 0.0871426
    outer loop
      vertex 12.5 25.0843 20.9637
      vertex 4.5 25 20
      vertex 12.5 25 20
    endloop
  endfacet
  facet normal 0 -0.965925 0.25882
    outer loop
      vertex 4.5 25.0843 20.9637
      vertex 12.5 25.3347 21.8982
      vertex 4.5 25.3347 21.8982
    endloop
  endfacet
  facet normal 0 -0.965925 0.25882
    outer loop
      vertex 12.5 25.3347 21.8982
      vertex 4.5 25.0843 20.9637
      vertex 12.5 25.0843 20.9637
    endloop
  endfacet
  facet normal 0 -0.0871426 0.996196
    outer loop
      vertex 4.5 30.55 25.55
      vertex 12.5 29.5863 25.4657
      vertex 12.5 30.55 25.55
    endloop
  endfacet
  facet normal 0 -0.0871426 0.996196
    outer loop
      vertex 12.5 29.5863 25.4657
      vertex 4.5 30.55 25.55
      vertex 4.5 29.5863 25.4657
    endloop
  endfacet
  facet normal 0 0.996195 0.0871516
    outer loop
      vertex 12.5 28.7281 19.6788
      vertex 4.5 28.7 20
      vertex 12.5 28.7 20
    endloop
  endfacet
  facet normal 0 0.996195 0.0871516
    outer loop
      vertex 4.5 28.7 20
      vertex 12.5 28.7281 19.6788
      vertex 4.5 28.7281 19.6788
    endloop
  endfacet
  facet normal 0 -0.258917 0.9659
    outer loop
      vertex 4.5 31.1827 18.2616
      vertex 12.5 30.8712 18.1781
      vertex 12.5 31.1827 18.2616
    endloop
  endfacet
  facet normal 0 -0.258917 0.9659
    outer loop
      vertex 12.5 30.8712 18.1781
      vertex 4.5 31.1827 18.2616
      vertex 4.5 30.8712 18.1781
    endloop
  endfacet
  facet normal 0 -0.0871516 0.996195
    outer loop
      vertex 4.5 30.8712 18.1781
      vertex 12.5 30.55 18.15
      vertex 12.5 30.8712 18.1781
    endloop
  endfacet
  facet normal 0 -0.0871516 0.996195
    outer loop
      vertex 12.5 30.55 18.15
      vertex 4.5 30.8712 18.1781
      vertex 4.5 30.55 18.15
    endloop
  endfacet
  facet normal 0 -0.422614 0.90631
    outer loop
      vertex 4.5 31.475 18.3979
      vertex 12.5 31.1827 18.2616
      vertex 12.5 31.475 18.3979
    endloop
  endfacet
  facet normal 0 -0.422614 0.90631
    outer loop
      vertex 12.5 31.1827 18.2616
      vertex 4.5 31.475 18.3979
      vertex 4.5 31.1827 18.2616
    endloop
  endfacet
  facet normal 0 -0.573379 0.81929
    outer loop
      vertex 4.5 31.7392 18.5828
      vertex 12.5 31.475 18.3979
      vertex 12.5 31.7392 18.5828
    endloop
  endfacet
  facet normal 0 -0.573379 0.81929
    outer loop
      vertex 12.5 31.475 18.3979
      vertex 4.5 31.7392 18.5828
      vertex 4.5 31.475 18.3979
    endloop
  endfacet
  facet normal 0 -0.707107 0.707107
    outer loop
      vertex 4.5 31.7392 18.5828
      vertex 12.5 31.9672 18.8108
      vertex 4.5 31.9672 18.8108
    endloop
  endfacet
  facet normal 0 -0.707107 0.707107
    outer loop
      vertex 12.5 31.9672 18.8108
      vertex 4.5 31.7392 18.5828
      vertex 12.5 31.7392 18.5828
    endloop
  endfacet
  facet normal -0 0.258917 0.9659
    outer loop
      vertex 4.5 30.2288 18.1781
      vertex 12.5 29.9173 18.2616
      vertex 12.5 30.2288 18.1781
    endloop
  endfacet
  facet normal 0 0.258917 0.9659
    outer loop
      vertex 12.5 29.9173 18.2616
      vertex 4.5 30.2288 18.1781
      vertex 4.5 29.9173 18.2616
    endloop
  endfacet
  facet normal 0 -0.90631 -0.422614
    outer loop
      vertex 4.5 32.2884 20.6327
      vertex 12.5 32.1521 20.925
      vertex 4.5 32.1521 20.925
    endloop
  endfacet
  facet normal 0 -0.90631 -0.422614
    outer loop
      vertex 12.5 32.1521 20.925
      vertex 4.5 32.2884 20.6327
      vertex 12.5 32.2884 20.6327
    endloop
  endfacet
  facet normal 0 0.9659 0.258917
    outer loop
      vertex 12.5 28.8116 19.3673
      vertex 4.5 28.7281 19.6788
      vertex 12.5 28.7281 19.6788
    endloop
  endfacet
  facet normal 0 0.9659 0.258917
    outer loop
      vertex 4.5 28.7281 19.6788
      vertex 12.5 28.8116 19.3673
      vertex 4.5 28.8116 19.3673
    endloop
  endfacet
  facet normal 0 -0.422614 -0.90631
    outer loop
      vertex 4.5 31.1827 21.7384
      vertex 12.5 31.475 21.6021
      vertex 12.5 31.1827 21.7384
    endloop
  endfacet
  facet normal -0 -0.422614 -0.90631
    outer loop
      vertex 12.5 31.475 21.6021
      vertex 4.5 31.1827 21.7384
      vertex 4.5 31.475 21.6021
    endloop
  endfacet
  facet normal 0 0.0871516 -0.996195
    outer loop
      vertex 4.5 30.2288 21.8219
      vertex 12.5 30.55 21.85
      vertex 12.5 30.2288 21.8219
    endloop
  endfacet
  facet normal 0 0.0871516 -0.996195
    outer loop
      vertex 12.5 30.55 21.85
      vertex 4.5 30.2288 21.8219
      vertex 4.5 30.55 21.85
    endloop
  endfacet
  facet normal -0 0.573379 0.81929
    outer loop
      vertex 4.5 29.625 18.3979
      vertex 12.5 29.3608 18.5828
      vertex 12.5 29.625 18.3979
    endloop
  endfacet
  facet normal 0 0.573379 0.81929
    outer loop
      vertex 12.5 29.3608 18.5828
      vertex 4.5 29.625 18.3979
      vertex 4.5 29.3608 18.5828
    endloop
  endfacet
  facet normal 0 -0.258917 -0.9659
    outer loop
      vertex 4.5 30.8712 21.8219
      vertex 12.5 31.1827 21.7384
      vertex 12.5 30.8712 21.8219
    endloop
  endfacet
  facet normal -0 -0.258917 -0.9659
    outer loop
      vertex 12.5 31.1827 21.7384
      vertex 4.5 30.8712 21.8219
      vertex 4.5 31.1827 21.7384
    endloop
  endfacet
  facet normal -0 0.422614 0.90631
    outer loop
      vertex 4.5 29.9173 18.2616
      vertex 12.5 29.625 18.3979
      vertex 12.5 29.9173 18.2616
    endloop
  endfacet
  facet normal 0 0.422614 0.90631
    outer loop
      vertex 12.5 29.625 18.3979
      vertex 4.5 29.9173 18.2616
      vertex 4.5 29.625 18.3979
    endloop
  endfacet
  facet normal 0 -0.90631 0.422614
    outer loop
      vertex 4.5 32.1521 19.075
      vertex 12.5 32.2884 19.3673
      vertex 4.5 32.2884 19.3673
    endloop
  endfacet
  facet normal 0 -0.90631 0.422614
    outer loop
      vertex 12.5 32.2884 19.3673
      vertex 4.5 32.1521 19.075
      vertex 12.5 32.1521 19.075
    endloop
  endfacet
  facet normal 0 0.258917 -0.9659
    outer loop
      vertex 4.5 29.9173 21.7384
      vertex 12.5 30.2288 21.8219
      vertex 12.5 29.9173 21.7384
    endloop
  endfacet
  facet normal 0 0.258917 -0.9659
    outer loop
      vertex 12.5 30.2288 21.8219
      vertex 4.5 29.9173 21.7384
      vertex 4.5 30.2288 21.8219
    endloop
  endfacet
  facet normal -0 0.0871516 0.996195
    outer loop
      vertex 4.5 30.55 18.15
      vertex 12.5 30.2288 18.1781
      vertex 12.5 30.55 18.15
    endloop
  endfacet
  facet normal 0 0.0871516 0.996195
    outer loop
      vertex 12.5 30.2288 18.1781
      vertex 4.5 30.55 18.15
      vertex 4.5 30.2288 18.1781
    endloop
  endfacet
  facet normal 0 0.81929 0.573379
    outer loop
      vertex 12.5 29.1328 18.8108
      vertex 4.5 28.9479 19.075
      vertex 12.5 28.9479 19.075
    endloop
  endfacet
  facet normal 0 0.81929 0.573379
    outer loop
      vertex 4.5 28.9479 19.075
      vertex 12.5 29.1328 18.8108
      vertex 4.5 29.1328 18.8108
    endloop
  endfacet
  facet normal 0 -0.81929 -0.573379
    outer loop
      vertex 4.5 32.1521 20.925
      vertex 12.5 31.9672 21.1892
      vertex 4.5 31.9672 21.1892
    endloop
  endfacet
  facet normal 0 -0.81929 -0.573379
    outer loop
      vertex 12.5 31.9672 21.1892
      vertex 4.5 32.1521 20.925
      vertex 12.5 32.1521 20.925
    endloop
  endfacet
  facet normal 0 -0.81929 0.573379
    outer loop
      vertex 4.5 31.9672 18.8108
      vertex 12.5 32.1521 19.075
      vertex 4.5 32.1521 19.075
    endloop
  endfacet
  facet normal 0 -0.81929 0.573379
    outer loop
      vertex 12.5 32.1521 19.075
      vertex 4.5 31.9672 18.8108
      vertex 12.5 31.9672 18.8108
    endloop
  endfacet
  facet normal 0 -0.9659 -0.258917
    outer loop
      vertex 4.5 32.3719 20.3212
      vertex 12.5 32.2884 20.6327
      vertex 4.5 32.2884 20.6327
    endloop
  endfacet
  facet normal 0 -0.9659 -0.258917
    outer loop
      vertex 12.5 32.2884 20.6327
      vertex 4.5 32.3719 20.3212
      vertex 12.5 32.3719 20.3212
    endloop
  endfacet
  facet normal 0 0.90631 -0.422614
    outer loop
      vertex 12.5 28.8116 20.6327
      vertex 4.5 28.9479 20.925
      vertex 12.5 28.9479 20.925
    endloop
  endfacet
  facet normal 0 0.90631 -0.422614
    outer loop
      vertex 4.5 28.9479 20.925
      vertex 12.5 28.8116 20.6327
      vertex 4.5 28.8116 20.6327
    endloop
  endfacet
  facet normal 0 -0.707107 -0.707107
    outer loop
      vertex 4.5 31.9672 21.1892
      vertex 12.5 31.7392 21.4172
      vertex 4.5 31.7392 21.4172
    endloop
  endfacet
  facet normal 0 -0.707107 -0.707107
    outer loop
      vertex 12.5 31.7392 21.4172
      vertex 4.5 31.9672 21.1892
      vertex 12.5 31.9672 21.1892
    endloop
  endfacet
  facet normal 0 -0.996195 -0.0871516
    outer loop
      vertex 4.5 32.4 20
      vertex 12.5 32.3719 20.3212
      vertex 4.5 32.3719 20.3212
    endloop
  endfacet
  facet normal 0 -0.996195 -0.0871516
    outer loop
      vertex 12.5 32.3719 20.3212
      vertex 4.5 32.4 20
      vertex 12.5 32.4 20
    endloop
  endfacet
  facet normal 0 0.422614 -0.90631
    outer loop
      vertex 4.5 29.625 21.6021
      vertex 12.5 29.9173 21.7384
      vertex 12.5 29.625 21.6021
    endloop
  endfacet
  facet normal 0 0.422614 -0.90631
    outer loop
      vertex 12.5 29.9173 21.7384
      vertex 4.5 29.625 21.6021
      vertex 4.5 29.9173 21.7384
    endloop
  endfacet
  facet normal 0 -0.996195 0.0871516
    outer loop
      vertex 4.5 32.3719 19.6788
      vertex 12.5 32.4 20
      vertex 4.5 32.4 20
    endloop
  endfacet
  facet normal 0 -0.996195 0.0871516
    outer loop
      vertex 12.5 32.4 20
      vertex 4.5 32.3719 19.6788
      vertex 12.5 32.3719 19.6788
    endloop
  endfacet
  facet normal 0 -0.0871516 -0.996195
    outer loop
      vertex 4.5 30.55 21.85
      vertex 12.5 30.8712 21.8219
      vertex 12.5 30.55 21.85
    endloop
  endfacet
  facet normal -0 -0.0871516 -0.996195
    outer loop
      vertex 12.5 30.8712 21.8219
      vertex 4.5 30.55 21.85
      vertex 4.5 30.8712 21.8219
    endloop
  endfacet
  facet normal 0 0.573379 -0.81929
    outer loop
      vertex 4.5 29.3608 21.4172
      vertex 12.5 29.625 21.6021
      vertex 12.5 29.3608 21.4172
    endloop
  endfacet
  facet normal 0 0.573379 -0.81929
    outer loop
      vertex 12.5 29.625 21.6021
      vertex 4.5 29.3608 21.4172
      vertex 4.5 29.625 21.6021
    endloop
  endfacet
  facet normal 0 0.707107 0.707107
    outer loop
      vertex 12.5 29.3608 18.5828
      vertex 4.5 29.1328 18.8108
      vertex 12.5 29.1328 18.8108
    endloop
  endfacet
  facet normal 0 0.707107 0.707107
    outer loop
      vertex 4.5 29.1328 18.8108
      vertex 12.5 29.3608 18.5828
      vertex 4.5 29.3608 18.5828
    endloop
  endfacet
  facet normal 0 0.707107 -0.707107
    outer loop
      vertex 12.5 29.1328 21.1892
      vertex 4.5 29.3608 21.4172
      vertex 12.5 29.3608 21.4172
    endloop
  endfacet
  facet normal 0 0.707107 -0.707107
    outer loop
      vertex 4.5 29.3608 21.4172
      vertex 12.5 29.1328 21.1892
      vertex 4.5 29.1328 21.1892
    endloop
  endfacet
  facet normal 0 0.90631 0.422614
    outer loop
      vertex 12.5 28.9479 19.075
      vertex 4.5 28.8116 19.3673
      vertex 12.5 28.8116 19.3673
    endloop
  endfacet
  facet normal 0 0.90631 0.422614
    outer loop
      vertex 4.5 28.8116 19.3673
      vertex 12.5 28.9479 19.075
      vertex 4.5 28.9479 19.075
    endloop
  endfacet
  facet normal 0 -0.573379 -0.81929
    outer loop
      vertex 4.5 31.475 21.6021
      vertex 12.5 31.7392 21.4172
      vertex 12.5 31.475 21.6021
    endloop
  endfacet
  facet normal -0 -0.573379 -0.81929
    outer loop
      vertex 12.5 31.7392 21.4172
      vertex 4.5 31.475 21.6021
      vertex 4.5 31.7392 21.4172
    endloop
  endfacet
  facet normal 0 -0.9659 0.258917
    outer loop
      vertex 4.5 32.2884 19.3673
      vertex 12.5 32.3719 19.6788
      vertex 4.5 32.3719 19.6788
    endloop
  endfacet
  facet normal 0 -0.9659 0.258917
    outer loop
      vertex 12.5 32.3719 19.6788
      vertex 4.5 32.2884 19.3673
      vertex 12.5 32.2884 19.3673
    endloop
  endfacet
  facet normal 0 0.996195 -0.0871516
    outer loop
      vertex 12.5 28.7 20
      vertex 4.5 28.7281 20.3212
      vertex 12.5 28.7281 20.3212
    endloop
  endfacet
  facet normal 0 0.996195 -0.0871516
    outer loop
      vertex 4.5 28.7281 20.3212
      vertex 12.5 28.7 20
      vertex 4.5 28.7 20
    endloop
  endfacet
  facet normal 0 0.9659 -0.258917
    outer loop
      vertex 12.5 28.7281 20.3212
      vertex 4.5 28.8116 20.6327
      vertex 12.5 28.8116 20.6327
    endloop
  endfacet
  facet normal 0 0.9659 -0.258917
    outer loop
      vertex 4.5 28.8116 20.6327
      vertex 12.5 28.7281 20.3212
      vertex 4.5 28.7281 20.3212
    endloop
  endfacet
  facet normal 0 0.81929 -0.573379
    outer loop
      vertex 12.5 28.9479 20.925
      vertex 4.5 29.1328 21.1892
      vertex 12.5 29.1328 21.1892
    endloop
  endfacet
  facet normal 0 0.81929 -0.573379
    outer loop
      vertex 4.5 29.1328 21.1892
      vertex 12.5 28.9479 20.925
      vertex 4.5 28.9479 20.925
    endloop
  endfacet
endsolid OpenSCAD_Model
