solid OpenSCAD_Model
  facet normal 0.0953374 0.995445 -0
    outer loop
      vertex 30 85.0769 240
      vertex 28.8619 85.1859 355.954
      vertex 30 85.0769 355.954
    endloop
  endfacet
  facet normal 0.0953374 0.995445 0
    outer loop
      vertex 28.8619 85.1859 355.954
      vertex 30 85.0769 240
      vertex 28.8619 85.1859 240
    endloop
  endfacet
  facet normal 0.0862278 0.996275 -0
    outer loop
      vertex 28.8619 85.1859 240
      vertex 25.9838 85.435 355.954
      vertex 28.8619 85.1859 355.954
    endloop
  endfacet
  facet normal 0.0862278 0.996275 0
    outer loop
      vertex 25.9838 85.435 355.954
      vertex 28.8619 85.1859 240
      vertex 25.9838 85.435 240
    endloop
  endfacet
  facet normal 0.0772235 0.997014 -0
    outer loop
      vertex 25.9838 85.435 240
      vertex 25 85.5112 355.954
      vertex 25.9838 85.435 355.954
    endloop
  endfacet
  facet normal 0.0772235 0.997014 0
    outer loop
      vertex 25 85.5112 355.954
      vertex 25.9838 85.435 240
      vertex 25 85.5112 240
    endloop
  endfacet
  facet normal 0.0871213 0.996195 0.00213604
    outer loop
      vertex 28.8619 85.1859 355.954
      vertex 27.7839 85.2715 360
      vertex 28.7627 85.1859 360
    endloop
  endfacet
  facet normal 0.0953371 0.995442 0.0023373
    outer loop
      vertex 28.8619 85.1859 355.954
      vertex 30 85.0674 360
      vertex 30 85.0769 355.954
    endloop
  endfacet
  facet normal 0.0953366 0.995442 0.00233747
    outer loop
      vertex 30 85.0674 360
      vertex 28.8619 85.1859 355.954
      vertex 28.7627 85.1859 360
    endloop
  endfacet
  facet normal 0.0862276 0.996274 0.00189629
    outer loop
      vertex 25.9838 85.435 355.954
      vertex 27.7839 85.2715 360
      vertex 28.8619 85.1859 355.954
    endloop
  endfacet
  facet normal 0.0862085 0.996275 0.00190485
    outer loop
      vertex 27.7839 85.2715 360
      vertex 25.9838 85.435 355.954
      vertex 25.8944 85.435 360
    endloop
  endfacet
  facet normal 0.0772234 0.997013 0.00152727
    outer loop
      vertex 25 85.5112 355.954
      vertex 25 85.5055 359.675
      vertex 25.9838 85.435 355.954
    endloop
  endfacet
  facet normal 0.0780261 0.99695 0.00153377
    outer loop
      vertex 25.8944 85.435 360
      vertex 25 85.5055 359.675
      vertex 25 85.505 360
    endloop
  endfacet
  facet normal 0.0779579 0.996955 0.00172255
    outer loop
      vertex 25 85.5055 359.675
      vertex 25.8944 85.435 360
      vertex 25.9838 85.435 355.954
    endloop
  endfacet
  facet normal 0.0953374 -0.995445 0
    outer loop
      vertex 28.8619 -85.1859 240
      vertex 30 -85.0769 355.954
      vertex 28.8619 -85.1859 355.954
    endloop
  endfacet
  facet normal 0.0953374 -0.995445 0
    outer loop
      vertex 30 -85.0769 355.954
      vertex 28.8619 -85.1859 240
      vertex 30 -85.0769 240
    endloop
  endfacet
  facet normal 0.0862278 -0.996275 0
    outer loop
      vertex 25.9838 -85.435 240
      vertex 28.8619 -85.1859 355.954
      vertex 25.9838 -85.435 355.954
    endloop
  endfacet
  facet normal 0.0862278 -0.996275 0
    outer loop
      vertex 28.8619 -85.1859 355.954
      vertex 25.9838 -85.435 240
      vertex 28.8619 -85.1859 240
    endloop
  endfacet
  facet normal 0.0772235 -0.997014 0
    outer loop
      vertex 25 -85.5112 240
      vertex 25.9838 -85.435 355.954
      vertex 25 -85.5112 355.954
    endloop
  endfacet
  facet normal 0.0772235 -0.997014 0
    outer loop
      vertex 25.9838 -85.435 355.954
      vertex 25 -85.5112 240
      vertex 25.9838 -85.435 240
    endloop
  endfacet
  facet normal 0.0871213 -0.996195 0.00213604
    outer loop
      vertex 28.8619 -85.1859 355.954
      vertex 28.7627 -85.1859 360
      vertex 27.7839 -85.2715 360
    endloop
  endfacet
  facet normal 0.0953366 -0.995442 0.00233747
    outer loop
      vertex 28.8619 -85.1859 355.954
      vertex 30 -85.0674 360
      vertex 28.7627 -85.1859 360
    endloop
  endfacet
  facet normal 0.0953371 -0.995442 0.0023373
    outer loop
      vertex 30 -85.0674 360
      vertex 28.8619 -85.1859 355.954
      vertex 30 -85.0769 355.954
    endloop
  endfacet
  facet normal 0.0862085 -0.996275 0.00190485
    outer loop
      vertex 25.9838 -85.435 355.954
      vertex 27.7839 -85.2715 360
      vertex 25.8944 -85.435 360
    endloop
  endfacet
  facet normal 0.0862276 -0.996274 0.00189629
    outer loop
      vertex 27.7839 -85.2715 360
      vertex 25.9838 -85.435 355.954
      vertex 28.8619 -85.1859 355.954
    endloop
  endfacet
  facet normal 0.0772234 -0.997013 0.00152727
    outer loop
      vertex 25.9838 -85.435 355.954
      vertex 25 -85.5055 359.675
      vertex 25 -85.5112 355.954
    endloop
  endfacet
  facet normal 0.0780261 -0.99695 0.00153377
    outer loop
      vertex 25 -85.5055 359.675
      vertex 25.8944 -85.435 360
      vertex 25 -85.505 360
    endloop
  endfacet
  facet normal 0.0779579 -0.996955 0.00172255
    outer loop
      vertex 25.8944 -85.435 360
      vertex 25 -85.5055 359.675
      vertex 25.9838 -85.435 355.954
    endloop
  endfacet
  facet normal 1 0 0
    outer loop
      vertex 30 85.0769 355.954
      vertex 30 49.8481 316.736
      vertex 30 50 315
    endloop
  endfacet
  facet normal 1 0 0
    outer loop
      vertex 30 85.0769 355.954
      vertex 30 49.3969 318.42
      vertex 30 49.8481 316.736
    endloop
  endfacet
  facet normal 1 0 0
    outer loop
      vertex 30 85.0769 355.954
      vertex 30 48.6603 320
      vertex 30 49.3969 318.42
    endloop
  endfacet
  facet normal 1 0 0
    outer loop
      vertex 30 85.0769 355.954
      vertex 30 47.6604 321.428
      vertex 30 48.6603 320
    endloop
  endfacet
  facet normal 1 0 0
    outer loop
      vertex 30 85.0769 355.954
      vertex 30 46.4279 322.66
      vertex 30 47.6604 321.428
    endloop
  endfacet
  facet normal 1 0 0
    outer loop
      vertex 30 85.0769 355.954
      vertex 30 45 323.66
      vertex 30 46.4279 322.66
    endloop
  endfacet
  facet normal 1 0 0
    outer loop
      vertex 30 85.0769 355.954
      vertex 30 43.4202 324.397
      vertex 30 45 323.66
    endloop
  endfacet
  facet normal 1 0 0
    outer loop
      vertex 30 85.0769 355.954
      vertex 30 41.7365 324.848
      vertex 30 43.4202 324.397
    endloop
  endfacet
  facet normal 1 0 0
    outer loop
      vertex 30 85.0674 360
      vertex 30 40 325
      vertex 30 41.7365 324.848
    endloop
  endfacet
  facet normal 1 0 0
    outer loop
      vertex 30 85.0674 360
      vertex 30 -40 325
      vertex 30 40 325
    endloop
  endfacet
  facet normal 1 -0 0
    outer loop
      vertex 30 -85.0674 360
      vertex 30 -40 325
      vertex 30 85.0674 360
    endloop
  endfacet
  facet normal 1 0 0
    outer loop
      vertex 30 -40 325
      vertex 30 -85.0674 360
      vertex 30 -41.7365 324.848
    endloop
  endfacet
  facet normal 1 -0 0
    outer loop
      vertex 30 -85.0769 355.954
      vertex 30 -41.7365 324.848
      vertex 30 -85.0674 360
    endloop
  endfacet
  facet normal 1 0 0
    outer loop
      vertex 30 -41.7365 324.848
      vertex 30 -85.0769 355.954
      vertex 30 -43.4202 324.397
    endloop
  endfacet
  facet normal 1 0 0
    outer loop
      vertex 30 -43.4202 324.397
      vertex 30 -85.0769 355.954
      vertex 30 -45 323.66
    endloop
  endfacet
  facet normal 1 0 0
    outer loop
      vertex 30 -45 323.66
      vertex 30 -85.0769 355.954
      vertex 30 -46.4279 322.66
    endloop
  endfacet
  facet normal 1 0 0
    outer loop
      vertex 30 -46.4279 322.66
      vertex 30 -85.0769 355.954
      vertex 30 -47.6604 321.428
    endloop
  endfacet
  facet normal 1 0 0
    outer loop
      vertex 30 -47.6604 321.428
      vertex 30 -85.0769 355.954
      vertex 30 -48.6603 320
    endloop
  endfacet
  facet normal 1 0 0
    outer loop
      vertex 30 -48.6603 320
      vertex 30 -85.0769 355.954
      vertex 30 -49.3969 318.42
    endloop
  endfacet
  facet normal 1 0 0
    outer loop
      vertex 30 -49.3969 318.42
      vertex 30 -85.0769 355.954
      vertex 30 -49.8481 316.736
    endloop
  endfacet
  facet normal 1 0 0
    outer loop
      vertex 30 -49.8481 316.736
      vertex 30 -85.0769 355.954
      vertex 30 -50 315
    endloop
  endfacet
  facet normal 1 0 0
    outer loop
      vertex 30 -85.0769 240
      vertex 30 -50 315
      vertex 30 -85.0769 355.954
    endloop
  endfacet
  facet normal 1 0 0
    outer loop
      vertex 30 -50 315
      vertex 30 -85.0769 240
      vertex 30 -50 240
    endloop
  endfacet
  facet normal 1 0 0
    outer loop
      vertex 30 41.7365 324.848
      vertex 30 85.0769 355.954
      vertex 30 85.0674 360
    endloop
  endfacet
  facet normal 1 0 0
    outer loop
      vertex 30 85.0769 355.954
      vertex 30 50 315
      vertex 30 85.0769 240
    endloop
  endfacet
  facet normal 1 0 0
    outer loop
      vertex 30 85.0769 240
      vertex 30 50 315
      vertex 30 50 240
    endloop
  endfacet
  facet normal -1 0 0
    outer loop
      vertex 25 -85.5112 240
      vertex 25 -50 315
      vertex 25 -50 240
    endloop
  endfacet
  facet normal -1 0 0
    outer loop
      vertex 25 -50 315
      vertex 25 -85.5055 359.675
      vertex 25 -85.505 360
    endloop
  endfacet
  facet normal -1 -0 0
    outer loop
      vertex 25 -50 315
      vertex 25 -85.5112 240
      vertex 25 -85.5112 355.954
    endloop
  endfacet
  facet normal -1 0 0
    outer loop
      vertex 25 -50 315
      vertex 25 -85.5112 355.954
      vertex 25 -85.5055 359.675
    endloop
  endfacet
  facet normal -1 0 0
    outer loop
      vertex 25 50 315
      vertex 25 85.5112 355.954
      vertex 25 85.5112 240
    endloop
  endfacet
  facet normal -1 0 0
    outer loop
      vertex 25 49.8481 316.736
      vertex 25 85.5112 355.954
      vertex 25 50 315
    endloop
  endfacet
  facet normal -1 0 0
    outer loop
      vertex 25 50 315
      vertex 25 85.5112 240
      vertex 25 50 240
    endloop
  endfacet
  facet normal -1 0 0
    outer loop
      vertex 25 49.3969 318.42
      vertex 25 85.5112 355.954
      vertex 25 49.8481 316.736
    endloop
  endfacet
  facet normal -1 0 0
    outer loop
      vertex 25 48.6603 320
      vertex 25 85.5112 355.954
      vertex 25 49.3969 318.42
    endloop
  endfacet
  facet normal -1 0 0
    outer loop
      vertex 25 47.6604 321.428
      vertex 25 85.5112 355.954
      vertex 25 48.6603 320
    endloop
  endfacet
  facet normal -1 0 0
    outer loop
      vertex 25 46.4279 322.66
      vertex 25 85.5112 355.954
      vertex 25 47.6604 321.428
    endloop
  endfacet
  facet normal -1 0 0
    outer loop
      vertex 25 45 323.66
      vertex 25 85.5112 355.954
      vertex 25 46.4279 322.66
    endloop
  endfacet
  facet normal -1 0 0
    outer loop
      vertex 25 43.4202 324.397
      vertex 25 85.5112 355.954
      vertex 25 45 323.66
    endloop
  endfacet
  facet normal -1 -0 0
    outer loop
      vertex 25 85.5112 355.954
      vertex 25 43.4202 324.397
      vertex 25 85.5055 359.675
    endloop
  endfacet
  facet normal -1 0 0
    outer loop
      vertex 25 41.7365 324.848
      vertex 25 85.5055 359.675
      vertex 25 43.4202 324.397
    endloop
  endfacet
  facet normal -1 -0 0
    outer loop
      vertex 25 85.5055 359.675
      vertex 25 41.7365 324.848
      vertex 25 85.505 360
    endloop
  endfacet
  facet normal -1 0 0
    outer loop
      vertex 25 40 325
      vertex 25 85.505 360
      vertex 25 41.7365 324.848
    endloop
  endfacet
  facet normal -1 0 0
    outer loop
      vertex 25 -40 325
      vertex 25 85.505 360
      vertex 25 40 325
    endloop
  endfacet
  facet normal -1 0 0
    outer loop
      vertex 25 -85.505 360
      vertex 25 -40 325
      vertex 25 -41.7365 324.848
    endloop
  endfacet
  facet normal -1 0 0
    outer loop
      vertex 25 -85.505 360
      vertex 25 -41.7365 324.848
      vertex 25 -43.4202 324.397
    endloop
  endfacet
  facet normal -1 0 0
    outer loop
      vertex 25 -40 325
      vertex 25 -85.505 360
      vertex 25 85.505 360
    endloop
  endfacet
  facet normal -1 0 0
    outer loop
      vertex 25 -45 323.66
      vertex 25 -85.505 360
      vertex 25 -43.4202 324.397
    endloop
  endfacet
  facet normal -1 0 0
    outer loop
      vertex 25 -46.4279 322.66
      vertex 25 -85.505 360
      vertex 25 -45 323.66
    endloop
  endfacet
  facet normal -1 0 0
    outer loop
      vertex 25 -47.6604 321.428
      vertex 25 -85.505 360
      vertex 25 -46.4279 322.66
    endloop
  endfacet
  facet normal -1 0 0
    outer loop
      vertex 25 -48.6603 320
      vertex 25 -85.505 360
      vertex 25 -47.6604 321.428
    endloop
  endfacet
  facet normal -1 0 0
    outer loop
      vertex 25 -49.3969 318.42
      vertex 25 -85.505 360
      vertex 25 -48.6603 320
    endloop
  endfacet
  facet normal -1 0 0
    outer loop
      vertex 25 -49.8481 316.736
      vertex 25 -85.505 360
      vertex 25 -49.3969 318.42
    endloop
  endfacet
  facet normal -1 0 0
    outer loop
      vertex 25 -85.505 360
      vertex 25 -49.8481 316.736
      vertex 25 -50 315
    endloop
  endfacet
  facet normal 0 0.422772 -0.906236
    outer loop
      vertex 25 -45 323.66
      vertex 30 -43.4202 324.397
      vertex 30 -45 323.66
    endloop
  endfacet
  facet normal 0 0.422772 -0.906236
    outer loop
      vertex 30 -43.4202 324.397
      vertex 25 -45 323.66
      vertex 25 -43.4202 324.397
    endloop
  endfacet
  facet normal 0 0.573643 -0.819105
    outer loop
      vertex 25 -46.4279 322.66
      vertex 30 -45 323.66
      vertex 30 -46.4279 322.66
    endloop
  endfacet
  facet normal 0 0.573643 -0.819105
    outer loop
      vertex 30 -45 323.66
      vertex 25 -46.4279 322.66
      vertex 25 -45 323.66
    endloop
  endfacet
  facet normal 0 -1 0
    outer loop
      vertex 25 50 240
      vertex 30 50 315
      vertex 25 50 315
    endloop
  endfacet
  facet normal 0 -1 -0
    outer loop
      vertex 30 50 315
      vertex 25 50 240
      vertex 30 50 240
    endloop
  endfacet
  facet normal 0 -0.258741 -0.965947
    outer loop
      vertex 25 41.7365 324.848
      vertex 30 43.4202 324.397
      vertex 30 41.7365 324.848
    endloop
  endfacet
  facet normal -0 -0.258741 -0.965947
    outer loop
      vertex 30 43.4202 324.397
      vertex 25 41.7365 324.848
      vertex 25 43.4202 324.397
    endloop
  endfacet
  facet normal 0 -0.96593 -0.258805
    outer loop
      vertex 25 49.8481 316.736
      vertex 30 49.3969 318.42
      vertex 25 49.3969 318.42
    endloop
  endfacet
  facet normal 0 -0.96593 -0.258805
    outer loop
      vertex 30 49.3969 318.42
      vertex 25 49.8481 316.736
      vertex 30 49.8481 316.736
    endloop
  endfacet
  facet normal 0 0.906344 -0.42254
    outer loop
      vertex 30 -49.3969 318.42
      vertex 25 -48.6603 320
      vertex 30 -48.6603 320
    endloop
  endfacet
  facet normal 0 0.906344 -0.42254
    outer loop
      vertex 25 -48.6603 320
      vertex 30 -49.3969 318.42
      vertex 25 -49.3969 318.42
    endloop
  endfacet
  facet normal 0 0.819151 -0.573578
    outer loop
      vertex 30 -48.6603 320
      vertex 25 -47.6604 321.428
      vertex 30 -47.6604 321.428
    endloop
  endfacet
  facet normal 0 0.819151 -0.573578
    outer loop
      vertex 25 -47.6604 321.428
      vertex 30 -48.6603 320
      vertex 25 -48.6603 320
    endloop
  endfacet
  facet normal 0 -0.706963 -0.70725
    outer loop
      vertex 25 46.4279 322.66
      vertex 30 47.6604 321.428
      vertex 30 46.4279 322.66
    endloop
  endfacet
  facet normal -0 -0.706963 -0.70725
    outer loop
      vertex 30 47.6604 321.428
      vertex 25 46.4279 322.66
      vertex 25 47.6604 321.428
    endloop
  endfacet
  facet normal 0 0.087199 -0.996191
    outer loop
      vertex 25 -41.7365 324.848
      vertex 30 -40 325
      vertex 30 -41.7365 324.848
    endloop
  endfacet
  facet normal 0 0.087199 -0.996191
    outer loop
      vertex 30 -40 325
      vertex 25 -41.7365 324.848
      vertex 25 -40 325
    endloop
  endfacet
  facet normal 0 -0.087199 -0.996191
    outer loop
      vertex 25 40 325
      vertex 30 41.7365 324.848
      vertex 30 40 325
    endloop
  endfacet
  facet normal -0 -0.087199 -0.996191
    outer loop
      vertex 30 41.7365 324.848
      vertex 25 40 325
      vertex 25 41.7365 324.848
    endloop
  endfacet
  facet normal 0 0 -1
    outer loop
      vertex 25 -40 325
      vertex 30 40 325
      vertex 30 -40 325
    endloop
  endfacet
  facet normal -0 0 -1
    outer loop
      vertex 30 40 325
      vertex 25 -40 325
      vertex 25 40 325
    endloop
  endfacet
  facet normal 0 -0.996194 -0.087167
    outer loop
      vertex 25 50 315
      vertex 30 49.8481 316.736
      vertex 25 49.8481 316.736
    endloop
  endfacet
  facet normal 0 -0.996194 -0.087167
    outer loop
      vertex 30 49.8481 316.736
      vertex 25 50 315
      vertex 30 50 315
    endloop
  endfacet
  facet normal 0 1 -0
    outer loop
      vertex 30 -50 240
      vertex 25 -50 315
      vertex 30 -50 315
    endloop
  endfacet
  facet normal 0 1 0
    outer loop
      vertex 25 -50 315
      vertex 30 -50 240
      vertex 25 -50 240
    endloop
  endfacet
  facet normal 0 0.996194 -0.087167
    outer loop
      vertex 30 -50 315
      vertex 25 -49.8481 316.736
      vertex 30 -49.8481 316.736
    endloop
  endfacet
  facet normal 0 0.996194 -0.087167
    outer loop
      vertex 25 -49.8481 316.736
      vertex 30 -50 315
      vertex 25 -50 315
    endloop
  endfacet
  facet normal 0 0.706963 -0.70725
    outer loop
      vertex 25 -47.6604 321.428
      vertex 30 -46.4279 322.66
      vertex 30 -47.6604 321.428
    endloop
  endfacet
  facet normal 0 0.706963 -0.70725
    outer loop
      vertex 30 -46.4279 322.66
      vertex 25 -47.6604 321.428
      vertex 25 -46.4279 322.66
    endloop
  endfacet
  facet normal 0 0.258741 -0.965947
    outer loop
      vertex 25 -43.4202 324.397
      vertex 30 -41.7365 324.848
      vertex 30 -43.4202 324.397
    endloop
  endfacet
  facet normal 0 0.258741 -0.965947
    outer loop
      vertex 30 -41.7365 324.848
      vertex 25 -43.4202 324.397
      vertex 25 -41.7365 324.848
    endloop
  endfacet
  facet normal 0 -0.819151 -0.573578
    outer loop
      vertex 25 48.6603 320
      vertex 30 47.6604 321.428
      vertex 25 47.6604 321.428
    endloop
  endfacet
  facet normal 0 -0.819151 -0.573578
    outer loop
      vertex 30 47.6604 321.428
      vertex 25 48.6603 320
      vertex 30 48.6603 320
    endloop
  endfacet
  facet normal 0 -0.906344 -0.42254
    outer loop
      vertex 25 49.3969 318.42
      vertex 30 48.6603 320
      vertex 25 48.6603 320
    endloop
  endfacet
  facet normal 0 -0.906344 -0.42254
    outer loop
      vertex 30 48.6603 320
      vertex 25 49.3969 318.42
      vertex 30 49.3969 318.42
    endloop
  endfacet
  facet normal 0 -0.422772 -0.906236
    outer loop
      vertex 25 43.4202 324.397
      vertex 30 45 323.66
      vertex 30 43.4202 324.397
    endloop
  endfacet
  facet normal -0 -0.422772 -0.906236
    outer loop
      vertex 30 45 323.66
      vertex 25 43.4202 324.397
      vertex 25 45 323.66
    endloop
  endfacet
  facet normal 0 -0.573643 -0.819105
    outer loop
      vertex 25 45 323.66
      vertex 30 46.4279 322.66
      vertex 30 45 323.66
    endloop
  endfacet
  facet normal -0 -0.573643 -0.819105
    outer loop
      vertex 30 46.4279 322.66
      vertex 25 45 323.66
      vertex 25 46.4279 322.66
    endloop
  endfacet
  facet normal 0 0.96593 -0.258805
    outer loop
      vertex 30 -49.8481 316.736
      vertex 25 -49.3969 318.42
      vertex 30 -49.3969 318.42
    endloop
  endfacet
  facet normal 0 0.96593 -0.258805
    outer loop
      vertex 25 -49.3969 318.42
      vertex 30 -49.8481 316.736
      vertex 25 -49.8481 316.736
    endloop
  endfacet
  facet normal 0 0 1
    outer loop
      vertex 28.7627 85.1859 360
      vertex 30 -85.0674 360
      vertex 30 85.0674 360
    endloop
  endfacet
  facet normal 0 0 1
    outer loop
      vertex 28.7627 85.1859 360
      vertex 28.7627 -85.1859 360
      vertex 30 -85.0674 360
    endloop
  endfacet
  facet normal 0 0 1
    outer loop
      vertex 27.7839 85.2715 360
      vertex 28.7627 -85.1859 360
      vertex 28.7627 85.1859 360
    endloop
  endfacet
  facet normal 0 0 1
    outer loop
      vertex 27.7839 85.2715 360
      vertex 27.7839 -85.2715 360
      vertex 28.7627 -85.1859 360
    endloop
  endfacet
  facet normal 0 0 1
    outer loop
      vertex 25.8944 85.435 360
      vertex 27.7839 -85.2715 360
      vertex 27.7839 85.2715 360
    endloop
  endfacet
  facet normal 0 0 1
    outer loop
      vertex 25.8944 85.435 360
      vertex 25.8944 -85.435 360
      vertex 27.7839 -85.2715 360
    endloop
  endfacet
  facet normal 0 0 1
    outer loop
      vertex 25 85.505 360
      vertex 25.8944 -85.435 360
      vertex 25.8944 85.435 360
    endloop
  endfacet
  facet normal 0 0 1
    outer loop
      vertex 25.8944 -85.435 360
      vertex 25 85.505 360
      vertex 25 -85.505 360
    endloop
  endfacet
  facet normal 0 0 -1
    outer loop
      vertex 30 50 240
      vertex 28.8619 85.1859 240
      vertex 30 85.0769 240
    endloop
  endfacet
  facet normal 0 0 -1
    outer loop
      vertex 25 50 240
      vertex 28.8619 85.1859 240
      vertex 30 50 240
    endloop
  endfacet
  facet normal -0 0 -1
    outer loop
      vertex 28.8619 85.1859 240
      vertex 25 50 240
      vertex 25.9838 85.435 240
    endloop
  endfacet
  facet normal -0 0 -1
    outer loop
      vertex 25.9838 85.435 240
      vertex 25 50 240
      vertex 25 85.5112 240
    endloop
  endfacet
  facet normal 0 0 -1
    outer loop
      vertex 28.8619 -85.1859 240
      vertex 30 -50 240
      vertex 30 -85.0769 240
    endloop
  endfacet
  facet normal 0 0 -1
    outer loop
      vertex 25 -50 240
      vertex 28.8619 -85.1859 240
      vertex 25.9838 -85.435 240
    endloop
  endfacet
  facet normal 0 0 -1
    outer loop
      vertex 25 -50 240
      vertex 25.9838 -85.435 240
      vertex 25 -85.5112 240
    endloop
  endfacet
  facet normal 0 0 -1
    outer loop
      vertex 28.8619 -85.1859 240
      vertex 25 -50 240
      vertex 30 -50 240
    endloop
  endfacet
endsolid OpenSCAD_Model
