solid ascii
  facet normal 9.989330e-001 -4.618304e-002 0.000000e+000
    outer loop
      vertex   2.500000e+000 0.000000e+000 0.000000e+000
      vertex   2.500000e+000 0.000000e+000 3.000000e+000
      vertex   2.489336e+000 -2.306709e-001 0.000000e+000
    endloop
  endfacet
  facet normal 7.666353e-002 -3.544337e-003 0.000000e+000
    outer loop
      vertex   2.489336e+000 -2.306709e-001 0.000000e+000
      vertex   2.500000e+000 0.000000e+000 3.000000e+000
      vertex   2.489336e+000 -2.306709e-001 3.000000e+000
    endloop
  endfacet
  facet normal 7.600947e-002 -1.060290e-002 0.000000e+000
    outer loop
      vertex   2.489336e+000 -2.306709e-001 0.000000e+000
      vertex   2.489336e+000 -2.306709e-001 3.000000e+000
      vertex   2.457433e+000 -4.593738e-001 3.000000e+000
    endloop
  endfacet
  facet normal 9.874894e-001 -1.377493e-001 0.000000e+000
    outer loop
      vertex   2.489336e+000 -2.306709e-001 0.000000e+000
      vertex   2.457433e+000 -4.593738e-001 3.000000e+000
      vertex   2.457433e+000 -4.593738e-001 0.000000e+000
    endloop
  endfacet
  facet normal 7.470691e-002 -1.757089e-002 0.000000e+000
    outer loop
      vertex   2.457433e+000 -4.593738e-001 0.000000e+000
      vertex   2.457433e+000 -4.593738e-001 3.000000e+000
      vertex   2.404564e+000 -6.841575e-001 3.000000e+000
    endloop
  endfacet
  facet normal 9.705672e-001 -2.282752e-001 0.000000e+000
    outer loop
      vertex   2.457433e+000 -4.593738e-001 0.000000e+000
      vertex   2.404564e+000 -6.841575e-001 3.000000e+000
      vertex   2.404564e+000 -6.841575e-001 0.000000e+000
    endloop
  endfacet
  facet normal 7.276699e-002 -2.438905e-002 0.000000e+000
    outer loop
      vertex   2.404564e+000 -6.841575e-001 0.000000e+000
      vertex   2.404564e+000 -6.841575e-001 3.000000e+000
      vertex   2.331181e+000 -9.031042e-001 3.000000e+000
    endloop
  endfacet
  facet normal 9.453642e-001 -3.168543e-001 3.469447e-018
    outer loop
      vertex   2.404564e+000 -6.841575e-001 0.000000e+000
      vertex   2.331181e+000 -9.031042e-001 3.000000e+000
      vertex   2.331181e+000 -9.031042e-001 0.000000e+000
    endloop
  endfacet
  facet normal 7.020624e-002 -3.099912e-002 0.000000e+000
    outer loop
      vertex   2.331181e+000 -9.031042e-001 0.000000e+000
      vertex   2.331181e+000 -9.031042e-001 3.000000e+000
      vertex   2.237908e+000 -1.114346e+000 3.000000e+000
    endloop
  endfacet
  facet normal 9.120957e-001 -4.027301e-001 0.000000e+000
    outer loop
      vertex   2.331181e+000 -9.031042e-001 0.000000e+000
      vertex   2.237908e+000 -1.114346e+000 3.000000e+000
      vertex   2.237908e+000 -1.114346e+000 0.000000e+000
    endloop
  endfacet
  facet normal 6.704652e-002 -3.734462e-002 0.000000e+000
    outer loop
      vertex   2.237908e+000 -1.114346e+000 0.000000e+000
      vertex   2.237908e+000 -1.114346e+000 3.000000e+000
      vertex   2.125543e+000 -1.316080e+000 3.000000e+000
    endloop
  endfacet
  facet normal 8.710461e-001 -4.851688e-001 0.000000e+000
    outer loop
      vertex   2.237908e+000 -1.114346e+000 0.000000e+000
      vertex   2.125543e+000 -1.316080e+000 3.000000e+000
      vertex   2.125543e+000 -1.316080e+000 0.000000e+000
    endloop
  endfacet
  facet normal 6.331475e-002 -4.337165e-002 0.000000e+000
    outer loop
      vertex   2.125543e+000 -1.316080e+000 0.000000e+000
      vertex   2.125543e+000 -1.316080e+000 3.000000e+000
      vertex   1.995043e+000 -1.506587e+000 3.000000e+000
    endloop
  endfacet
  facet normal 8.225641e-001 -5.634701e-001 6.938894e-018
    outer loop
      vertex   2.125543e+000 -1.316080e+000 0.000000e+000
      vertex   1.995043e+000 -1.506587e+000 3.000000e+000
      vertex   1.995043e+000 -1.506587e+000 0.000000e+000
    endloop
  endfacet
  facet normal 5.904288e-002 -4.902857e-002 0.000000e+000
    outer loop
      vertex   1.995043e+000 -1.506587e+000 0.000000e+000
      vertex   1.995043e+000 -1.506587e+000 3.000000e+000
      vertex   1.847522e+000 -1.684239e+000 3.000000e+000
    endloop
  endfacet
  facet normal 7.670651e-001 -6.369625e-001 0.000000e+000
    outer loop
      vertex   1.995043e+000 -1.506587e+000 0.000000e+000
      vertex   1.847522e+000 -1.684239e+000 3.000000e+000
      vertex   1.847522e+000 -1.684239e+000 0.000000e+000
    endloop
  endfacet
  facet normal 5.426718e-002 -5.426718e-002 0.000000e+000
    outer loop
      vertex   1.847522e+000 -1.684239e+000 0.000000e+000
      vertex   1.847522e+000 -1.684239e+000 3.000000e+000
      vertex   1.684239e+000 -1.847522e+000 3.000000e+000
    endloop
  endfacet
  facet normal 7.050213e-001 -7.050213e-001 0.000000e+000
    outer loop
      vertex   1.847522e+000 -1.684239e+000 0.000000e+000
      vertex   1.684239e+000 -1.847522e+000 3.000000e+000
      vertex   1.684239e+000 -1.847522e+000 0.000000e+000
    endloop
  endfacet
  facet normal 4.902857e-002 -5.904288e-002 0.000000e+000
    outer loop
      vertex   1.684239e+000 -1.847522e+000 0.000000e+000
      vertex   1.684239e+000 -1.847522e+000 3.000000e+000
      vertex   1.506587e+000 -1.995043e+000 3.000000e+000
    endloop
  endfacet
  facet normal 6.369625e-001 -7.670651e-001 0.000000e+000
    outer loop
      vertex   1.684239e+000 -1.847522e+000 0.000000e+000
      vertex   1.506587e+000 -1.995043e+000 3.000000e+000
      vertex   1.506587e+000 -1.995043e+000 0.000000e+000
    endloop
  endfacet
  facet normal 4.337165e-002 -6.331475e-002 0.000000e+000
    outer loop
      vertex   1.506587e+000 -1.995043e+000 0.000000e+000
      vertex   1.506587e+000 -1.995043e+000 3.000000e+000
      vertex   1.316080e+000 -2.125543e+000 3.000000e+000
    endloop
  endfacet
  facet normal 5.634701e-001 -8.225641e-001 -6.938894e-018
    outer loop
      vertex   1.506587e+000 -1.995043e+000 0.000000e+000
      vertex   1.316080e+000 -2.125543e+000 3.000000e+000
      vertex   1.316080e+000 -2.125543e+000 0.000000e+000
    endloop
  endfacet
  facet normal 3.734462e-002 -6.704652e-002 0.000000e+000
    outer loop
      vertex   1.316080e+000 -2.125543e+000 0.000000e+000
      vertex   1.316080e+000 -2.125543e+000 3.000000e+000
      vertex   1.114346e+000 -2.237908e+000 3.000000e+000
    endloop
  endfacet
  facet normal 4.851688e-001 -8.710461e-001 0.000000e+000
    outer loop
      vertex   1.316080e+000 -2.125543e+000 0.000000e+000
      vertex   1.114346e+000 -2.237908e+000 3.000000e+000
      vertex   1.114346e+000 -2.237908e+000 0.000000e+000
    endloop
  endfacet
  facet normal 3.099912e-002 -7.020624e-002 0.000000e+000
    outer loop
      vertex   1.114346e+000 -2.237908e+000 0.000000e+000
      vertex   1.114346e+000 -2.237908e+000 3.000000e+000
      vertex   9.031042e-001 -2.331181e+000 3.000000e+000
    endloop
  endfacet
  facet normal 4.027301e-001 -9.120957e-001 0.000000e+000
    outer loop
      vertex   1.114346e+000 -2.237908e+000 0.000000e+000
      vertex   9.031042e-001 -2.331181e+000 3.000000e+000
      vertex   9.031042e-001 -2.331181e+000 0.000000e+000
    endloop
  endfacet
  facet normal 2.438905e-002 -7.276699e-002 0.000000e+000
    outer loop
      vertex   9.031042e-001 -2.331181e+000 0.000000e+000
      vertex   9.031042e-001 -2.331181e+000 3.000000e+000
      vertex   6.841575e-001 -2.404564e+000 3.000000e+000
    endloop
  endfacet
  facet normal 3.168543e-001 -9.453642e-001 -3.469447e-018
    outer loop
      vertex   9.031042e-001 -2.331181e+000 0.000000e+000
      vertex   6.841575e-001 -2.404564e+000 3.000000e+000
      vertex   6.841575e-001 -2.404564e+000 0.000000e+000
    endloop
  endfacet
  facet normal 1.757089e-002 -7.470691e-002 0.000000e+000
    outer loop
      vertex   6.841575e-001 -2.404564e+000 0.000000e+000
      vertex   6.841575e-001 -2.404564e+000 3.000000e+000
      vertex   4.593738e-001 -2.457433e+000 3.000000e+000
    endloop
  endfacet
  facet normal 2.282752e-001 -9.705672e-001 0.000000e+000
    outer loop
      vertex   6.841575e-001 -2.404564e+000 0.000000e+000
      vertex   4.593738e-001 -2.457433e+000 3.000000e+000
      vertex   4.593738e-001 -2.457433e+000 0.000000e+000
    endloop
  endfacet
  facet normal 1.060290e-002 -7.600947e-002 0.000000e+000
    outer loop
      vertex   4.593738e-001 -2.457433e+000 0.000000e+000
      vertex   4.593738e-001 -2.457433e+000 3.000000e+000
      vertex   2.306709e-001 -2.489336e+000 3.000000e+000
    endloop
  endfacet
  facet normal 1.377493e-001 -9.874894e-001 0.000000e+000
    outer loop
      vertex   4.593738e-001 -2.457433e+000 0.000000e+000
      vertex   2.306709e-001 -2.489336e+000 3.000000e+000
      vertex   2.306709e-001 -2.489336e+000 0.000000e+000
    endloop
  endfacet
  facet normal 3.544337e-003 -7.666353e-002 0.000000e+000
    outer loop
      vertex   2.306709e-001 -2.489336e+000 0.000000e+000
      vertex   2.306709e-001 -2.489336e+000 3.000000e+000
      vertex   1.530808e-016 -2.500000e+000 3.000000e+000
    endloop
  endfacet
  facet normal 4.604683e-002 -9.959869e-001 0.000000e+000
    outer loop
      vertex   2.306709e-001 -2.489336e+000 0.000000e+000
      vertex   1.530808e-016 -2.500000e+000 3.000000e+000
      vertex   1.530808e-016 -2.500000e+000 0.000000e+000
    endloop
  endfacet
  facet normal -3.544337e-003 -7.666353e-002 0.000000e+000
    outer loop
      vertex   1.530808e-016 -2.500000e+000 0.000000e+000
      vertex   1.530808e-016 -2.500000e+000 3.000000e+000
      vertex   -2.306709e-001 -2.489336e+000 3.000000e+000
    endloop
  endfacet
  facet normal -4.604683e-002 -9.959869e-001 0.000000e+000
    outer loop
      vertex   1.530808e-016 -2.500000e+000 0.000000e+000
      vertex   -2.306709e-001 -2.489336e+000 3.000000e+000
      vertex   -2.306709e-001 -2.489336e+000 0.000000e+000
    endloop
  endfacet
  facet normal -1.060290e-002 -7.600947e-002 0.000000e+000
    outer loop
      vertex   -2.306709e-001 -2.489336e+000 0.000000e+000
      vertex   -2.306709e-001 -2.489336e+000 3.000000e+000
      vertex   -4.593738e-001 -2.457433e+000 3.000000e+000
    endloop
  endfacet
  facet normal -1.377493e-001 -9.874894e-001 0.000000e+000
    outer loop
      vertex   -2.306709e-001 -2.489336e+000 0.000000e+000
      vertex   -4.593738e-001 -2.457433e+000 3.000000e+000
      vertex   -4.593738e-001 -2.457433e+000 0.000000e+000
    endloop
  endfacet
  facet normal -1.757089e-002 -7.470691e-002 0.000000e+000
    outer loop
      vertex   -4.593738e-001 -2.457433e+000 0.000000e+000
      vertex   -4.593738e-001 -2.457433e+000 3.000000e+000
      vertex   -6.841575e-001 -2.404564e+000 3.000000e+000
    endloop
  endfacet
  facet normal -2.282752e-001 -9.705672e-001 0.000000e+000
    outer loop
      vertex   -4.593738e-001 -2.457433e+000 0.000000e+000
      vertex   -6.841575e-001 -2.404564e+000 3.000000e+000
      vertex   -6.841575e-001 -2.404564e+000 0.000000e+000
    endloop
  endfacet
  facet normal -2.438905e-002 -7.276699e-002 0.000000e+000
    outer loop
      vertex   -6.841575e-001 -2.404564e+000 0.000000e+000
      vertex   -6.841575e-001 -2.404564e+000 3.000000e+000
      vertex   -9.031042e-001 -2.331181e+000 3.000000e+000
    endloop
  endfacet
  facet normal -3.168543e-001 -9.453642e-001 3.469447e-018
    outer loop
      vertex   -6.841575e-001 -2.404564e+000 0.000000e+000
      vertex   -9.031042e-001 -2.331181e+000 3.000000e+000
      vertex   -9.031042e-001 -2.331181e+000 0.000000e+000
    endloop
  endfacet
  facet normal -3.099912e-002 -7.020624e-002 0.000000e+000
    outer loop
      vertex   -9.031042e-001 -2.331181e+000 0.000000e+000
      vertex   -9.031042e-001 -2.331181e+000 3.000000e+000
      vertex   -1.114346e+000 -2.237908e+000 3.000000e+000
    endloop
  endfacet
  facet normal -4.027301e-001 -9.120957e-001 0.000000e+000
    outer loop
      vertex   -9.031042e-001 -2.331181e+000 0.000000e+000
      vertex   -1.114346e+000 -2.237908e+000 3.000000e+000
      vertex   -1.114346e+000 -2.237908e+000 0.000000e+000
    endloop
  endfacet
  facet normal -3.734462e-002 -6.704652e-002 0.000000e+000
    outer loop
      vertex   -1.114346e+000 -2.237908e+000 0.000000e+000
      vertex   -1.114346e+000 -2.237908e+000 3.000000e+000
      vertex   -1.316080e+000 -2.125543e+000 3.000000e+000
    endloop
  endfacet
  facet normal -4.851688e-001 -8.710461e-001 0.000000e+000
    outer loop
      vertex   -1.114346e+000 -2.237908e+000 0.000000e+000
      vertex   -1.316080e+000 -2.125543e+000 3.000000e+000
      vertex   -1.316080e+000 -2.125543e+000 0.000000e+000
    endloop
  endfacet
  facet normal -4.337165e-002 -6.331475e-002 0.000000e+000
    outer loop
      vertex   -1.316080e+000 -2.125543e+000 0.000000e+000
      vertex   -1.316080e+000 -2.125543e+000 3.000000e+000
      vertex   -1.506587e+000 -1.995043e+000 3.000000e+000
    endloop
  endfacet
  facet normal -5.634701e-001 -8.225641e-001 6.938894e-018
    outer loop
      vertex   -1.316080e+000 -2.125543e+000 0.000000e+000
      vertex   -1.506587e+000 -1.995043e+000 3.000000e+000
      vertex   -1.506587e+000 -1.995043e+000 0.000000e+000
    endloop
  endfacet
  facet normal -4.902857e-002 -5.904288e-002 0.000000e+000
    outer loop
      vertex   -1.506587e+000 -1.995043e+000 0.000000e+000
      vertex   -1.506587e+000 -1.995043e+000 3.000000e+000
      vertex   -1.684239e+000 -1.847522e+000 3.000000e+000
    endloop
  endfacet
  facet normal -6.369625e-001 -7.670651e-001 0.000000e+000
    outer loop
      vertex   -1.506587e+000 -1.995043e+000 0.000000e+000
      vertex   -1.684239e+000 -1.847522e+000 3.000000e+000
      vertex   -1.684239e+000 -1.847522e+000 0.000000e+000
    endloop
  endfacet
  facet normal -5.426718e-002 -5.426718e-002 0.000000e+000
    outer loop
      vertex   -1.684239e+000 -1.847522e+000 0.000000e+000
      vertex   -1.684239e+000 -1.847522e+000 3.000000e+000
      vertex   -1.847522e+000 -1.684239e+000 3.000000e+000
    endloop
  endfacet
  facet normal -7.050213e-001 -7.050213e-001 0.000000e+000
    outer loop
      vertex   -1.684239e+000 -1.847522e+000 0.000000e+000
      vertex   -1.847522e+000 -1.684239e+000 3.000000e+000
      vertex   -1.847522e+000 -1.684239e+000 0.000000e+000
    endloop
  endfacet
  facet normal -5.904288e-002 -4.902857e-002 0.000000e+000
    outer loop
      vertex   -1.847522e+000 -1.684239e+000 0.000000e+000
      vertex   -1.847522e+000 -1.684239e+000 3.000000e+000
      vertex   -1.995043e+000 -1.506587e+000 3.000000e+000
    endloop
  endfacet
  facet normal -7.670651e-001 -6.369625e-001 0.000000e+000
    outer loop
      vertex   -1.847522e+000 -1.684239e+000 0.000000e+000
      vertex   -1.995043e+000 -1.506587e+000 3.000000e+000
      vertex   -1.995043e+000 -1.506587e+000 0.000000e+000
    endloop
  endfacet
  facet normal -6.331475e-002 -4.337165e-002 0.000000e+000
    outer loop
      vertex   -1.995043e+000 -1.506587e+000 0.000000e+000
      vertex   -1.995043e+000 -1.506587e+000 3.000000e+000
      vertex   -2.125543e+000 -1.316080e+000 3.000000e+000
    endloop
  endfacet
  facet normal -8.225641e-001 -5.634701e-001 -6.938894e-018
    outer loop
      vertex   -1.995043e+000 -1.506587e+000 0.000000e+000
      vertex   -2.125543e+000 -1.316080e+000 3.000000e+000
      vertex   -2.125543e+000 -1.316080e+000 0.000000e+000
    endloop
  endfacet
  facet normal -6.704652e-002 -3.734462e-002 0.000000e+000
    outer loop
      vertex   -2.125543e+000 -1.316080e+000 0.000000e+000
      vertex   -2.125543e+000 -1.316080e+000 3.000000e+000
      vertex   -2.237908e+000 -1.114346e+000 3.000000e+000
    endloop
  endfacet
  facet normal -8.710461e-001 -4.851688e-001 0.000000e+000
    outer loop
      vertex   -2.125543e+000 -1.316080e+000 0.000000e+000
      vertex   -2.237908e+000 -1.114346e+000 3.000000e+000
      vertex   -2.237908e+000 -1.114346e+000 0.000000e+000
    endloop
  endfacet
  facet normal -7.020624e-002 -3.099912e-002 0.000000e+000
    outer loop
      vertex   -2.237908e+000 -1.114346e+000 0.000000e+000
      vertex   -2.237908e+000 -1.114346e+000 3.000000e+000
      vertex   -2.331181e+000 -9.031042e-001 3.000000e+000
    endloop
  endfacet
  facet normal -9.120957e-001 -4.027301e-001 0.000000e+000
    outer loop
      vertex   -2.237908e+000 -1.114346e+000 0.000000e+000
      vertex   -2.331181e+000 -9.031042e-001 3.000000e+000
      vertex   -2.331181e+000 -9.031042e-001 0.000000e+000
    endloop
  endfacet
  facet normal -7.276699e-002 -2.438905e-002 0.000000e+000
    outer loop
      vertex   -2.331181e+000 -9.031042e-001 0.000000e+000
      vertex   -2.331181e+000 -9.031042e-001 3.000000e+000
      vertex   -2.404564e+000 -6.841575e-001 3.000000e+000
    endloop
  endfacet
  facet normal -9.453642e-001 -3.168543e-001 -3.469447e-018
    outer loop
      vertex   -2.331181e+000 -9.031042e-001 0.000000e+000
      vertex   -2.404564e+000 -6.841575e-001 3.000000e+000
      vertex   -2.404564e+000 -6.841575e-001 0.000000e+000
    endloop
  endfacet
  facet normal -7.470691e-002 -1.757089e-002 0.000000e+000
    outer loop
      vertex   -2.404564e+000 -6.841575e-001 0.000000e+000
      vertex   -2.404564e+000 -6.841575e-001 3.000000e+000
      vertex   -2.457433e+000 -4.593738e-001 3.000000e+000
    endloop
  endfacet
  facet normal -9.705672e-001 -2.282752e-001 0.000000e+000
    outer loop
      vertex   -2.404564e+000 -6.841575e-001 0.000000e+000
      vertex   -2.457433e+000 -4.593738e-001 3.000000e+000
      vertex   -2.457433e+000 -4.593738e-001 0.000000e+000
    endloop
  endfacet
  facet normal -7.600947e-002 -1.060290e-002 0.000000e+000
    outer loop
      vertex   -2.457433e+000 -4.593738e-001 0.000000e+000
      vertex   -2.457433e+000 -4.593738e-001 3.000000e+000
      vertex   -2.489336e+000 -2.306709e-001 3.000000e+000
    endloop
  endfacet
  facet normal -9.874894e-001 -1.377493e-001 0.000000e+000
    outer loop
      vertex   -2.457433e+000 -4.593738e-001 0.000000e+000
      vertex   -2.489336e+000 -2.306709e-001 3.000000e+000
      vertex   -2.489336e+000 -2.306709e-001 0.000000e+000
    endloop
  endfacet
  facet normal -9.989330e-001 -4.618304e-002 0.000000e+000
    outer loop
      vertex   -2.489336e+000 -2.306709e-001 0.000000e+000
      vertex   -2.489336e+000 -2.306709e-001 3.000000e+000
      vertex   -2.500000e+000 0.000000e+000 0.000000e+000
    endloop
  endfacet
  facet normal -7.666353e-002 -3.544337e-003 0.000000e+000
    outer loop
      vertex   -2.500000e+000 0.000000e+000 0.000000e+000
      vertex   -2.489336e+000 -2.306709e-001 3.000000e+000
      vertex   -2.500000e+000 0.000000e+000 3.000000e+000
    endloop
  endfacet
  facet normal 1.000000e+000 0.000000e+000 0.000000e+000
    outer loop
      vertex   2.500000e+000 0.000000e+000 0.000000e+000
      vertex   2.500000e+000 2.500000e+000 0.000000e+000
      vertex   2.500000e+000 0.000000e+000 3.000000e+000
    endloop
  endfacet
  facet normal 7.682213e-001 -0.000000e+000 0.000000e+000
    outer loop
      vertex   2.500000e+000 0.000000e+000 3.000000e+000
      vertex   2.500000e+000 2.500000e+000 0.000000e+000
      vertex   2.500000e+000 2.500000e+000 3.000000e+000
    endloop
  endfacet
  facet normal 0.000000e+000 0.000000e+000 9.719543e-001
    outer loop
      vertex   -1.489063e+000 1.808050e-001 3.000000e+000
      vertex   -2.500000e+000 0.000000e+000 3.000000e+000
      vertex   -1.500000e+000 1.836970e-016 3.000000e+000
    endloop
  endfacet
  facet normal 0.000000e+000 0.000000e+000 2.270671e-001
    outer loop
      vertex   -1.500000e+000 1.836970e-016 3.000000e+000
      vertex   -2.500000e+000 0.000000e+000 3.000000e+000
      vertex   -2.489336e+000 -2.306709e-001 3.000000e+000
    endloop
  endfacet
  facet normal 0.000000e+000 0.000000e+000 9.858124e-001
    outer loop
      vertex   -1.500000e+000 1.836970e-016 3.000000e+000
      vertex   -2.489336e+000 -2.306709e-001 3.000000e+000
      vertex   -1.489063e+000 -1.808050e-001 3.000000e+000
    endloop
  endfacet
  facet normal 0.000000e+000 0.000000e+000 2.282636e-001
    outer loop
      vertex   -1.489063e+000 -1.808050e-001 3.000000e+000
      vertex   -2.489336e+000 -2.306709e-001 3.000000e+000
      vertex   -2.457433e+000 -4.593738e-001 3.000000e+000
    endloop
  endfacet
  facet normal 0.000000e+000 0.000000e+000 9.951174e-001
    outer loop
      vertex   -1.489063e+000 -1.808050e-001 3.000000e+000
      vertex   -2.457433e+000 -4.593738e-001 3.000000e+000
      vertex   -1.456413e+000 -3.589735e-001 3.000000e+000
    endloop
  endfacet
  facet normal 0.000000e+000 0.000000e+000 2.283975e-001
    outer loop
      vertex   -1.456413e+000 -3.589735e-001 3.000000e+000
      vertex   -2.457433e+000 -4.593738e-001 3.000000e+000
      vertex   -2.404564e+000 -6.841575e-001 3.000000e+000
    endloop
  endfacet
  facet normal 0.000000e+000 0.000000e+000 9.995990e-001
    outer loop
      vertex   -1.456413e+000 -3.589735e-001 3.000000e+000
      vertex   -2.404564e+000 -6.841575e-001 3.000000e+000
      vertex   -1.402524e+000 -5.319073e-001 3.000000e+000
    endloop
  endfacet
  facet normal 0.000000e+000 0.000000e+000 2.274642e-001
    outer loop
      vertex   -1.402524e+000 -5.319073e-001 3.000000e+000
      vertex   -2.404564e+000 -6.841575e-001 3.000000e+000
      vertex   -2.331181e+000 -9.031042e-001 3.000000e+000
    endloop
  endfacet
  facet normal 0.000000e+000 0.000000e+000 2.266062e-001
    outer loop
      vertex   -1.402524e+000 -5.319073e-001 3.000000e+000
      vertex   -2.331181e+000 -9.031042e-001 3.000000e+000
      vertex   -2.237908e+000 -1.114346e+000 3.000000e+000
    endloop
  endfacet
  facet normal 0.000000e+000 -0.000000e+000 9.365211e-001
    outer loop
      vertex   -1.489063e+000 1.808050e-001 3.000000e+000
      vertex   -1.456413e+000 3.589735e-001 3.000000e+000
      vertex   -2.500000e+000 0.000000e+000 3.000000e+000
    endloop
  endfacet
  facet normal 0.000000e+000 0.000000e+000 1.197141e-001
    outer loop
      vertex   -2.500000e+000 0.000000e+000 3.000000e+000
      vertex   -1.456413e+000 3.589735e-001 3.000000e+000
      vertex   -1.402524e+000 5.319073e-001 3.000000e+000
    endloop
  endfacet
  facet normal 0.000000e+000 0.000000e+000 8.523553e-002
    outer loop
      vertex   -2.500000e+000 0.000000e+000 3.000000e+000
      vertex   -1.402524e+000 5.319073e-001 3.000000e+000
      vertex   -1.328184e+000 6.970848e-001 3.000000e+000
    endloop
  endfacet
  facet normal 0.000000e+000 0.000000e+000 8.594298e-001
    outer loop
      vertex   -2.500000e+000 0.000000e+000 3.000000e+000
      vertex   -1.328184e+000 6.970848e-001 3.000000e+000
      vertex   -2.500000e+000 2.500000e+000 3.000000e+000
    endloop
  endfacet
  facet normal 0.000000e+000 0.000000e+000 7.847178e-002
    outer loop
      vertex   -2.500000e+000 2.500000e+000 3.000000e+000
      vertex   -1.328184e+000 6.970848e-001 3.000000e+000
      vertex   -1.234476e+000 8.520971e-001 3.000000e+000
    endloop
  endfacet
  facet normal 0.000000e+000 0.000000e+000 8.599041e-002
    outer loop
      vertex   -2.500000e+000 2.500000e+000 3.000000e+000
      vertex   -1.234476e+000 8.520971e-001 3.000000e+000
      vertex   -1.122766e+000 9.946840e-001 3.000000e+000
    endloop
  endfacet
  facet normal 0.000000e+000 -0.000000e+000 9.990143e-001
    outer loop
      vertex   -1.122766e+000 9.946840e-001 3.000000e+000
      vertex   -9.946840e-001 1.122766e+000 3.000000e+000
      vertex   -2.500000e+000 2.500000e+000 3.000000e+000
    endloop
  endfacet
  facet normal 0.000000e+000 0.000000e+000 8.599041e-002
    outer loop
      vertex   -2.500000e+000 2.500000e+000 3.000000e+000
      vertex   -9.946840e-001 1.122766e+000 3.000000e+000
      vertex   -8.520971e-001 1.234476e+000 3.000000e+000
    endloop
  endfacet
  facet normal 0.000000e+000 0.000000e+000 7.847178e-002
    outer loop
      vertex   -2.500000e+000 2.500000e+000 3.000000e+000
      vertex   -8.520971e-001 1.234476e+000 3.000000e+000
      vertex   -6.970848e-001 1.328184e+000 3.000000e+000
    endloop
  endfacet
  facet normal 0.000000e+000 -0.000000e+000 8.410662e-001
    outer loop
      vertex   -6.970848e-001 1.328184e+000 3.000000e+000
      vertex   -5.319073e-001 1.402524e+000 3.000000e+000
      vertex   -2.500000e+000 2.500000e+000 3.000000e+000
    endloop
  endfacet
  facet normal 0.000000e+000 0.000000e+000 5.512135e-002
    outer loop
      vertex   -2.500000e+000 2.500000e+000 3.000000e+000
      vertex   -5.319073e-001 1.402524e+000 3.000000e+000
      vertex   -3.589735e-001 1.456413e+000 3.000000e+000
    endloop
  endfacet
  facet normal 0.000000e+000 0.000000e+000 4.245682e-002
    outer loop
      vertex   -2.500000e+000 2.500000e+000 3.000000e+000
      vertex   -3.589735e-001 1.456413e+000 3.000000e+000
      vertex   -1.808050e-001 1.489063e+000 3.000000e+000
    endloop
  endfacet
  facet normal 0.000000e+000 -0.000000e+000 4.542072e-001
    outer loop
      vertex   -1.808050e-001 1.489063e+000 3.000000e+000
      vertex   9.184851e-017 1.500000e+000 3.000000e+000
      vertex   -2.500000e+000 2.500000e+000 3.000000e+000
    endloop
  endfacet
  facet normal -0.000000e+000 0.000000e+000 3.713907e-001
    outer loop
      vertex   -2.500000e+000 2.500000e+000 3.000000e+000
      vertex   9.184851e-017 1.500000e+000 3.000000e+000
      vertex   2.500000e+000 2.500000e+000 3.000000e+000
    endloop
  endfacet
  facet normal 0.000000e+000 0.000000e+000 3.055543e-002
    outer loop
      vertex   2.500000e+000 2.500000e+000 3.000000e+000
      vertex   9.184851e-017 1.500000e+000 3.000000e+000
      vertex   1.808050e-001 1.489063e+000 3.000000e+000
    endloop
  endfacet
  facet normal 0.000000e+000 0.000000e+000 4.245682e-002
    outer loop
      vertex   2.500000e+000 2.500000e+000 3.000000e+000
      vertex   1.808050e-001 1.489063e+000 3.000000e+000
      vertex   3.589735e-001 1.456413e+000 3.000000e+000
    endloop
  endfacet
  facet normal -0.000000e+000 0.000000e+000 6.857344e-001
    outer loop
      vertex   3.589735e-001 1.456413e+000 3.000000e+000
      vertex   5.319073e-001 1.402524e+000 3.000000e+000
      vertex   2.500000e+000 2.500000e+000 3.000000e+000
    endloop
  endfacet
  facet normal 0.000000e+000 0.000000e+000 6.760740e-002
    outer loop
      vertex   2.500000e+000 2.500000e+000 3.000000e+000
      vertex   5.319073e-001 1.402524e+000 3.000000e+000
      vertex   6.970848e-001 1.328184e+000 3.000000e+000
    endloop
  endfacet
  facet normal 0.000000e+000 0.000000e+000 7.847178e-002
    outer loop
      vertex   2.500000e+000 2.500000e+000 3.000000e+000
      vertex   6.970848e-001 1.328184e+000 3.000000e+000
      vertex   8.520971e-001 1.234476e+000 3.000000e+000
    endloop
  endfacet
  facet normal -0.000000e+000 0.000000e+000 9.685822e-001
    outer loop
      vertex   8.520971e-001 1.234476e+000 3.000000e+000
      vertex   9.946840e-001 1.122766e+000 3.000000e+000
      vertex   2.500000e+000 2.500000e+000 3.000000e+000
    endloop
  endfacet
  facet normal 0.000000e+000 0.000000e+000 8.869215e-002
    outer loop
      vertex   2.500000e+000 2.500000e+000 3.000000e+000
      vertex   9.946840e-001 1.122766e+000 3.000000e+000
      vertex   1.122766e+000 9.946840e-001 3.000000e+000
    endloop
  endfacet
  facet normal 0.000000e+000 0.000000e+000 8.599041e-002
    outer loop
      vertex   2.500000e+000 2.500000e+000 3.000000e+000
      vertex   1.122766e+000 9.946840e-001 3.000000e+000
      vertex   1.234476e+000 8.520971e-001 3.000000e+000
    endloop
  endfacet
  facet normal -0.000000e+000 0.000000e+000 9.315432e-001
    outer loop
      vertex   1.234476e+000 8.520971e-001 3.000000e+000
      vertex   1.328184e+000 6.970848e-001 3.000000e+000
      vertex   2.500000e+000 2.500000e+000 3.000000e+000
    endloop
  endfacet
  facet normal 0.000000e+000 0.000000e+000 5.449626e-001
    outer loop
      vertex   2.500000e+000 2.500000e+000 3.000000e+000
      vertex   1.328184e+000 6.970848e-001 3.000000e+000
      vertex   2.500000e+000 0.000000e+000 3.000000e+000
    endloop
  endfacet
  facet normal 0.000000e+000 0.000000e+000 8.523553e-002
    outer loop
      vertex   2.500000e+000 0.000000e+000 3.000000e+000
      vertex   1.328184e+000 6.970848e-001 3.000000e+000
      vertex   1.402524e+000 5.319073e-001 3.000000e+000
    endloop
  endfacet
  facet normal 0.000000e+000 0.000000e+000 1.197141e-001
    outer loop
      vertex   2.500000e+000 0.000000e+000 3.000000e+000
      vertex   1.402524e+000 5.319073e-001 3.000000e+000
      vertex   1.456413e+000 3.589735e-001 3.000000e+000
    endloop
  endfacet
  facet normal 0.000000e+000 0.000000e+000 8.714979e-001
    outer loop
      vertex   1.456413e+000 3.589735e-001 3.000000e+000
      vertex   1.489063e+000 1.808050e-001 3.000000e+000
      vertex   2.500000e+000 0.000000e+000 3.000000e+000
    endloop
  endfacet
  facet normal 0.000000e+000 0.000000e+000 1.760554e-001
    outer loop
      vertex   2.500000e+000 0.000000e+000 3.000000e+000
      vertex   1.489063e+000 1.808050e-001 3.000000e+000
      vertex   1.500000e+000 0.000000e+000 3.000000e+000
    endloop
  endfacet
  facet normal 0.000000e+000 0.000000e+000 9.989330e-001
    outer loop
      vertex   2.500000e+000 0.000000e+000 3.000000e+000
      vertex   1.500000e+000 0.000000e+000 3.000000e+000
      vertex   2.489336e+000 -2.306709e-001 3.000000e+000
    endloop
  endfacet
  facet normal 0.000000e+000 0.000000e+000 1.782956e-001
    outer loop
      vertex   2.489336e+000 -2.306709e-001 3.000000e+000
      vertex   1.500000e+000 0.000000e+000 3.000000e+000
      vertex   1.489063e+000 -1.808050e-001 3.000000e+000
    endloop
  endfacet
  facet normal 0.000000e+000 0.000000e+000 9.960608e-001
    outer loop
      vertex   2.489336e+000 -2.306709e-001 3.000000e+000
      vertex   1.489063e+000 -1.808050e-001 3.000000e+000
      vertex   2.457433e+000 -4.593738e-001 3.000000e+000
    endloop
  endfacet
  facet normal 0.000000e+000 0.000000e+000 1.791685e-001
    outer loop
      vertex   2.457433e+000 -4.593738e-001 3.000000e+000
      vertex   1.489063e+000 -1.808050e-001 3.000000e+000
      vertex   1.456413e+000 -3.589735e-001 3.000000e+000
    endloop
  endfacet
  facet normal 0.000000e+000 0.000000e+000 9.914271e-001
    outer loop
      vertex   2.457433e+000 -4.593738e-001 3.000000e+000
      vertex   1.456413e+000 -3.589735e-001 3.000000e+000
      vertex   2.404564e+000 -6.841575e-001 3.000000e+000
    endloop
  endfacet
  facet normal 0.000000e+000 0.000000e+000 1.786440e-001
    outer loop
      vertex   2.404564e+000 -6.841575e-001 3.000000e+000
      vertex   1.456413e+000 -3.589735e-001 3.000000e+000
      vertex   1.402524e+000 -5.319073e-001 3.000000e+000
    endloop
  endfacet
  facet normal 0.000000e+000 0.000000e+000 9.851394e-001
    outer loop
      vertex   2.404564e+000 -6.841575e-001 3.000000e+000
      vertex   1.402524e+000 -5.319073e-001 3.000000e+000
      vertex   2.331181e+000 -9.031042e-001 3.000000e+000
    endloop
  endfacet
  facet normal 0.000000e+000 0.000000e+000 9.993685e-001
    outer loop
      vertex   2.331181e+000 -9.031042e-001 3.000000e+000
      vertex   1.402524e+000 -5.319073e-001 3.000000e+000
      vertex   2.237908e+000 -1.114346e+000 3.000000e+000
    endloop
  endfacet
  facet normal 0.000000e+000 0.000000e+000 1.778616e-001
    outer loop
      vertex   2.237908e+000 -1.114346e+000 3.000000e+000
      vertex   1.402524e+000 -5.319073e-001 3.000000e+000
      vertex   1.328184e+000 -6.970848e-001 3.000000e+000
    endloop
  endfacet
  facet normal 0.000000e+000 0.000000e+000 9.969471e-001
    outer loop
      vertex   2.237908e+000 -1.114346e+000 3.000000e+000
      vertex   1.328184e+000 -6.970848e-001 3.000000e+000
      vertex   2.125543e+000 -1.316080e+000 3.000000e+000
    endloop
  endfacet
  facet normal 0.000000e+000 0.000000e+000 1.790808e-001
    outer loop
      vertex   2.125543e+000 -1.316080e+000 3.000000e+000
      vertex   1.328184e+000 -6.970848e-001 3.000000e+000
      vertex   1.234476e+000 -8.520971e-001 3.000000e+000
    endloop
  endfacet
  facet normal 0.000000e+000 0.000000e+000 9.927457e-001
    outer loop
      vertex   2.125543e+000 -1.316080e+000 3.000000e+000
      vertex   1.234476e+000 -8.520971e-001 3.000000e+000
      vertex   1.995043e+000 -1.506587e+000 3.000000e+000
    endloop
  endfacet
  facet normal 0.000000e+000 0.000000e+000 1.789060e-001
    outer loop
      vertex   1.995043e+000 -1.506587e+000 3.000000e+000
      vertex   1.234476e+000 -8.520971e-001 3.000000e+000
      vertex   1.122766e+000 -9.946840e-001 3.000000e+000
    endloop
  endfacet
  facet normal 0.000000e+000 0.000000e+000 9.868585e-001
    outer loop
      vertex   1.995043e+000 -1.506587e+000 3.000000e+000
      vertex   1.122766e+000 -9.946840e-001 3.000000e+000
      vertex   1.847522e+000 -1.684239e+000 3.000000e+000
    endloop
  endfacet
  facet normal 0.000000e+000 0.000000e+000 1.773427e-001
    outer loop
      vertex   1.847522e+000 -1.684239e+000 3.000000e+000
      vertex   1.122766e+000 -9.946840e-001 3.000000e+000
      vertex   9.946840e-001 -1.122766e+000 3.000000e+000
    endloop
  endfacet
  facet normal 0.000000e+000 0.000000e+000 9.794319e-001
    outer loop
      vertex   1.847522e+000 -1.684239e+000 3.000000e+000
      vertex   9.946840e-001 -1.122766e+000 3.000000e+000
      vertex   1.684239e+000 -1.847522e+000 3.000000e+000
    endloop
  endfacet
  facet normal 0.000000e+000 0.000000e+000 9.977217e-001
    outer loop
      vertex   1.684239e+000 -1.847522e+000 3.000000e+000
      vertex   9.946840e-001 -1.122766e+000 3.000000e+000
      vertex   1.506587e+000 -1.995043e+000 3.000000e+000
    endloop
  endfacet
  facet normal 0.000000e+000 0.000000e+000 1.789060e-001
    outer loop
      vertex   1.506587e+000 -1.995043e+000 3.000000e+000
      vertex   9.946840e-001 -1.122766e+000 3.000000e+000
      vertex   8.520971e-001 -1.234476e+000 3.000000e+000
    endloop
  endfacet
  facet normal 0.000000e+000 0.000000e+000 9.939588e-001
    outer loop
      vertex   1.506587e+000 -1.995043e+000 3.000000e+000
      vertex   8.520971e-001 -1.234476e+000 3.000000e+000
      vertex   1.316080e+000 -2.125543e+000 3.000000e+000
    endloop
  endfacet
  facet normal 0.000000e+000 0.000000e+000 1.790808e-001
    outer loop
      vertex   1.316080e+000 -2.125543e+000 3.000000e+000
      vertex   8.520971e-001 -1.234476e+000 3.000000e+000
      vertex   6.970848e-001 -1.328184e+000 3.000000e+000
    endloop
  endfacet
  facet normal 0.000000e+000 0.000000e+000 9.884811e-001
    outer loop
      vertex   1.316080e+000 -2.125543e+000 3.000000e+000
      vertex   6.970848e-001 -1.328184e+000 3.000000e+000
      vertex   1.114346e+000 -2.237908e+000 3.000000e+000
    endloop
  endfacet
  facet normal 0.000000e+000 0.000000e+000 1.778616e-001
    outer loop
      vertex   1.114346e+000 -2.237908e+000 3.000000e+000
      vertex   6.970848e-001 -1.328184e+000 3.000000e+000
      vertex   5.319073e-001 -1.402524e+000 3.000000e+000
    endloop
  endfacet
  facet normal 0.000000e+000 0.000000e+000 9.814233e-001
    outer loop
      vertex   1.114346e+000 -2.237908e+000 3.000000e+000
      vertex   5.319073e-001 -1.402524e+000 3.000000e+000
      vertex   9.031042e-001 -2.331181e+000 3.000000e+000
    endloop
  endfacet
  facet normal 0.000000e+000 0.000000e+000 9.983839e-001
    outer loop
      vertex   9.031042e-001 -2.331181e+000 3.000000e+000
      vertex   5.319073e-001 -1.402524e+000 3.000000e+000
      vertex   6.841575e-001 -2.404564e+000 3.000000e+000
    endloop
  endfacet
  facet normal 0.000000e+000 0.000000e+000 1.786440e-001
    outer loop
      vertex   6.841575e-001 -2.404564e+000 3.000000e+000
      vertex   5.319073e-001 -1.402524e+000 3.000000e+000
      vertex   3.589735e-001 -1.456413e+000 3.000000e+000
    endloop
  endfacet
  facet normal 0.000000e+000 0.000000e+000 9.950643e-001
    outer loop
      vertex   6.841575e-001 -2.404564e+000 3.000000e+000
      vertex   3.589735e-001 -1.456413e+000 3.000000e+000
      vertex   4.593738e-001 -2.457433e+000 3.000000e+000
    endloop
  endfacet
  facet normal 0.000000e+000 0.000000e+000 1.791685e-001
    outer loop
      vertex   4.593738e-001 -2.457433e+000 3.000000e+000
      vertex   3.589735e-001 -1.456413e+000 3.000000e+000
      vertex   1.808050e-001 -1.489063e+000 3.000000e+000
    endloop
  endfacet
  facet normal 0.000000e+000 0.000000e+000 9.900049e-001
    outer loop
      vertex   4.593738e-001 -2.457433e+000 3.000000e+000
      vertex   1.808050e-001 -1.489063e+000 3.000000e+000
      vertex   2.306709e-001 -2.489336e+000 3.000000e+000
    endloop
  endfacet
  facet normal 0.000000e+000 0.000000e+000 1.782956e-001
    outer loop
      vertex   2.306709e-001 -2.489336e+000 3.000000e+000
      vertex   1.808050e-001 -1.489063e+000 3.000000e+000
      vertex   9.184851e-017 -1.500000e+000 3.000000e+000
    endloop
  endfacet
  facet normal 0.000000e+000 0.000000e+000 9.833266e-001
    outer loop
      vertex   2.306709e-001 -2.489336e+000 3.000000e+000
      vertex   9.184851e-017 -1.500000e+000 3.000000e+000
      vertex   1.530808e-016 -2.500000e+000 3.000000e+000
    endloop
  endfacet
  facet normal 0.000000e+000 0.000000e+000 9.989330e-001
    outer loop
      vertex   1.530808e-016 -2.500000e+000 3.000000e+000
      vertex   9.184851e-017 -1.500000e+000 3.000000e+000
      vertex   -2.306709e-001 -2.489336e+000 3.000000e+000
    endloop
  endfacet
  facet normal 0.000000e+000 0.000000e+000 1.782956e-001
    outer loop
      vertex   -2.306709e-001 -2.489336e+000 3.000000e+000
      vertex   9.184851e-017 -1.500000e+000 3.000000e+000
      vertex   -1.808050e-001 -1.489063e+000 3.000000e+000
    endloop
  endfacet
  facet normal 0.000000e+000 -0.000000e+000 9.960608e-001
    outer loop
      vertex   -2.306709e-001 -2.489336e+000 3.000000e+000
      vertex   -1.808050e-001 -1.489063e+000 3.000000e+000
      vertex   -4.593738e-001 -2.457433e+000 3.000000e+000
    endloop
  endfacet
  facet normal 0.000000e+000 0.000000e+000 1.791685e-001
    outer loop
      vertex   -4.593738e-001 -2.457433e+000 3.000000e+000
      vertex   -1.808050e-001 -1.489063e+000 3.000000e+000
      vertex   -3.589735e-001 -1.456413e+000 3.000000e+000
    endloop
  endfacet
  facet normal 0.000000e+000 -0.000000e+000 9.914271e-001
    outer loop
      vertex   -4.593738e-001 -2.457433e+000 3.000000e+000
      vertex   -3.589735e-001 -1.456413e+000 3.000000e+000
      vertex   -6.841575e-001 -2.404564e+000 3.000000e+000
    endloop
  endfacet
  facet normal 0.000000e+000 0.000000e+000 1.786440e-001
    outer loop
      vertex   -6.841575e-001 -2.404564e+000 3.000000e+000
      vertex   -3.589735e-001 -1.456413e+000 3.000000e+000
      vertex   -5.319073e-001 -1.402524e+000 3.000000e+000
    endloop
  endfacet
  facet normal 0.000000e+000 -0.000000e+000 9.851394e-001
    outer loop
      vertex   -6.841575e-001 -2.404564e+000 3.000000e+000
      vertex   -5.319073e-001 -1.402524e+000 3.000000e+000
      vertex   -9.031042e-001 -2.331181e+000 3.000000e+000
    endloop
  endfacet
  facet normal 0.000000e+000 -0.000000e+000 9.993685e-001
    outer loop
      vertex   -9.031042e-001 -2.331181e+000 3.000000e+000
      vertex   -5.319073e-001 -1.402524e+000 3.000000e+000
      vertex   -1.114346e+000 -2.237908e+000 3.000000e+000
    endloop
  endfacet
  facet normal 0.000000e+000 0.000000e+000 1.778616e-001
    outer loop
      vertex   -1.114346e+000 -2.237908e+000 3.000000e+000
      vertex   -5.319073e-001 -1.402524e+000 3.000000e+000
      vertex   -6.970848e-001 -1.328184e+000 3.000000e+000
    endloop
  endfacet
  facet normal 0.000000e+000 -0.000000e+000 9.969471e-001
    outer loop
      vertex   -1.114346e+000 -2.237908e+000 3.000000e+000
      vertex   -6.970848e-001 -1.328184e+000 3.000000e+000
      vertex   -1.316080e+000 -2.125543e+000 3.000000e+000
    endloop
  endfacet
  facet normal 0.000000e+000 0.000000e+000 1.790808e-001
    outer loop
      vertex   -1.316080e+000 -2.125543e+000 3.000000e+000
      vertex   -6.970848e-001 -1.328184e+000 3.000000e+000
      vertex   -8.520971e-001 -1.234476e+000 3.000000e+000
    endloop
  endfacet
  facet normal 0.000000e+000 -0.000000e+000 9.927457e-001
    outer loop
      vertex   -1.316080e+000 -2.125543e+000 3.000000e+000
      vertex   -8.520971e-001 -1.234476e+000 3.000000e+000
      vertex   -1.506587e+000 -1.995043e+000 3.000000e+000
    endloop
  endfacet
  facet normal 0.000000e+000 0.000000e+000 1.789060e-001
    outer loop
      vertex   -1.506587e+000 -1.995043e+000 3.000000e+000
      vertex   -8.520971e-001 -1.234476e+000 3.000000e+000
      vertex   -9.946840e-001 -1.122766e+000 3.000000e+000
    endloop
  endfacet
  facet normal 0.000000e+000 -0.000000e+000 9.868585e-001
    outer loop
      vertex   -1.506587e+000 -1.995043e+000 3.000000e+000
      vertex   -9.946840e-001 -1.122766e+000 3.000000e+000
      vertex   -1.684239e+000 -1.847522e+000 3.000000e+000
    endloop
  endfacet
  facet normal 0.000000e+000 -0.000000e+000 9.996904e-001
    outer loop
      vertex   -1.684239e+000 -1.847522e+000 3.000000e+000
      vertex   -9.946840e-001 -1.122766e+000 3.000000e+000
      vertex   -1.847522e+000 -1.684239e+000 3.000000e+000
    endloop
  endfacet
  facet normal 0.000000e+000 0.000000e+000 1.773427e-001
    outer loop
      vertex   -1.847522e+000 -1.684239e+000 3.000000e+000
      vertex   -9.946840e-001 -1.122766e+000 3.000000e+000
      vertex   -1.122766e+000 -9.946840e-001 3.000000e+000
    endloop
  endfacet
  facet normal 0.000000e+000 -0.000000e+000 9.977217e-001
    outer loop
      vertex   -1.847522e+000 -1.684239e+000 3.000000e+000
      vertex   -1.122766e+000 -9.946840e-001 3.000000e+000
      vertex   -1.995043e+000 -1.506587e+000 3.000000e+000
    endloop
  endfacet
  facet normal 0.000000e+000 0.000000e+000 1.789060e-001
    outer loop
      vertex   -1.995043e+000 -1.506587e+000 3.000000e+000
      vertex   -1.122766e+000 -9.946840e-001 3.000000e+000
      vertex   -1.234476e+000 -8.520971e-001 3.000000e+000
    endloop
  endfacet
  facet normal 0.000000e+000 -0.000000e+000 9.939588e-001
    outer loop
      vertex   -1.995043e+000 -1.506587e+000 3.000000e+000
      vertex   -1.234476e+000 -8.520971e-001 3.000000e+000
      vertex   -2.125543e+000 -1.316080e+000 3.000000e+000
    endloop
  endfacet
  facet normal 0.000000e+000 0.000000e+000 1.790808e-001
    outer loop
      vertex   -2.125543e+000 -1.316080e+000 3.000000e+000
      vertex   -1.234476e+000 -8.520971e-001 3.000000e+000
      vertex   -1.328184e+000 -6.970848e-001 3.000000e+000
    endloop
  endfacet
  facet normal 0.000000e+000 -0.000000e+000 9.884811e-001
    outer loop
      vertex   -2.125543e+000 -1.316080e+000 3.000000e+000
      vertex   -1.328184e+000 -6.970848e-001 3.000000e+000
      vertex   -2.237908e+000 -1.114346e+000 3.000000e+000
    endloop
  endfacet
  facet normal 0.000000e+000 0.000000e+000 1.778616e-001
    outer loop
      vertex   -2.237908e+000 -1.114346e+000 3.000000e+000
      vertex   -1.328184e+000 -6.970848e-001 3.000000e+000
      vertex   -1.402524e+000 -5.319073e-001 3.000000e+000
    endloop
  endfacet
  facet normal 0.000000e+000 0.000000e+000 -8.594298e-001
    outer loop
      vertex   2.500000e+000 0.000000e+000 0.000000e+000
      vertex   1.328184e+000 6.970848e-001 0.000000e+000
      vertex   2.500000e+000 2.500000e+000 0.000000e+000
    endloop
  endfacet
  facet normal 0.000000e+000 0.000000e+000 -7.847178e-002
    outer loop
      vertex   2.500000e+000 2.500000e+000 0.000000e+000
      vertex   1.328184e+000 6.970848e-001 0.000000e+000
      vertex   1.234476e+000 8.520971e-001 0.000000e+000
    endloop
  endfacet
  facet normal 0.000000e+000 0.000000e+000 -8.599041e-002
    outer loop
      vertex   2.500000e+000 2.500000e+000 0.000000e+000
      vertex   1.234476e+000 8.520971e-001 0.000000e+000
      vertex   1.122766e+000 9.946840e-001 0.000000e+000
    endloop
  endfacet
  facet normal 0.000000e+000 0.000000e+000 -9.833266e-001
    outer loop
      vertex   2.489336e+000 -2.306709e-001 0.000000e+000
      vertex   1.500000e+000 0.000000e+000 0.000000e+000
      vertex   2.500000e+000 0.000000e+000 0.000000e+000
    endloop
  endfacet
  facet normal 0.000000e+000 0.000000e+000 -1.760554e-001
    outer loop
      vertex   2.500000e+000 0.000000e+000 0.000000e+000
      vertex   1.500000e+000 0.000000e+000 0.000000e+000
      vertex   1.489063e+000 1.808050e-001 0.000000e+000
    endloop
  endfacet
  facet normal 0.000000e+000 0.000000e+000 -1.537124e-001
    outer loop
      vertex   2.500000e+000 0.000000e+000 0.000000e+000
      vertex   1.489063e+000 1.808050e-001 0.000000e+000
      vertex   1.456413e+000 3.589735e-001 0.000000e+000
    endloop
  endfacet
  facet normal 0.000000e+000 -0.000000e+000 -9.858124e-001
    outer loop
      vertex   1.500000e+000 0.000000e+000 0.000000e+000
      vertex   2.489336e+000 -2.306709e-001 0.000000e+000
      vertex   1.489063e+000 -1.808050e-001 0.000000e+000
    endloop
  endfacet
  facet normal 0.000000e+000 0.000000e+000 -2.282636e-001
    outer loop
      vertex   1.489063e+000 -1.808050e-001 0.000000e+000
      vertex   2.489336e+000 -2.306709e-001 0.000000e+000
      vertex   2.457433e+000 -4.593738e-001 0.000000e+000
    endloop
  endfacet
  facet normal 0.000000e+000 -0.000000e+000 -9.951174e-001
    outer loop
      vertex   1.489063e+000 -1.808050e-001 0.000000e+000
      vertex   2.457433e+000 -4.593738e-001 0.000000e+000
      vertex   1.456413e+000 -3.589735e-001 0.000000e+000
    endloop
  endfacet
  facet normal 0.000000e+000 0.000000e+000 -2.283975e-001
    outer loop
      vertex   1.456413e+000 -3.589735e-001 0.000000e+000
      vertex   2.457433e+000 -4.593738e-001 0.000000e+000
      vertex   2.404564e+000 -6.841575e-001 0.000000e+000
    endloop
  endfacet
  facet normal 0.000000e+000 -0.000000e+000 -9.995990e-001
    outer loop
      vertex   1.456413e+000 -3.589735e-001 0.000000e+000
      vertex   2.404564e+000 -6.841575e-001 0.000000e+000
      vertex   1.402524e+000 -5.319073e-001 0.000000e+000
    endloop
  endfacet
  facet normal 0.000000e+000 0.000000e+000 -2.274642e-001
    outer loop
      vertex   1.402524e+000 -5.319073e-001 0.000000e+000
      vertex   2.404564e+000 -6.841575e-001 0.000000e+000
      vertex   2.331181e+000 -9.031042e-001 0.000000e+000
    endloop
  endfacet
  facet normal 0.000000e+000 0.000000e+000 -2.266062e-001
    outer loop
      vertex   1.402524e+000 -5.319073e-001 0.000000e+000
      vertex   2.331181e+000 -9.031042e-001 0.000000e+000
      vertex   2.237908e+000 -1.114346e+000 0.000000e+000
    endloop
  endfacet
  facet normal 0.000000e+000 -0.000000e+000 -9.827620e-001
    outer loop
      vertex   1.402524e+000 -5.319073e-001 0.000000e+000
      vertex   2.237908e+000 -1.114346e+000 0.000000e+000
      vertex   1.328184e+000 -6.970848e-001 0.000000e+000
    endloop
  endfacet
  facet normal 0.000000e+000 0.000000e+000 -2.280630e-001
    outer loop
      vertex   1.328184e+000 -6.970848e-001 0.000000e+000
      vertex   2.237908e+000 -1.114346e+000 0.000000e+000
      vertex   2.125543e+000 -1.316080e+000 0.000000e+000
    endloop
  endfacet
  facet normal 0.000000e+000 -0.000000e+000 -9.932344e-001
    outer loop
      vertex   1.328184e+000 -6.970848e-001 0.000000e+000
      vertex   2.125543e+000 -1.316080e+000 0.000000e+000
      vertex   1.234476e+000 -8.520971e-001 0.000000e+000
    endloop
  endfacet
  facet normal 0.000000e+000 0.000000e+000 -2.284645e-001
    outer loop
      vertex   1.234476e+000 -8.520971e-001 0.000000e+000
      vertex   2.125543e+000 -1.316080e+000 0.000000e+000
      vertex   1.995043e+000 -1.506587e+000 0.000000e+000
    endloop
  endfacet
  facet normal 0.000000e+000 -0.000000e+000 -9.989419e-001
    outer loop
      vertex   1.234476e+000 -8.520971e-001 0.000000e+000
      vertex   1.995043e+000 -1.506587e+000 0.000000e+000
      vertex   1.122766e+000 -9.946840e-001 0.000000e+000
    endloop
  endfacet
  facet normal 0.000000e+000 0.000000e+000 -2.277965e-001
    outer loop
      vertex   1.122766e+000 -9.946840e-001 0.000000e+000
      vertex   1.995043e+000 -1.506587e+000 0.000000e+000
      vertex   1.847522e+000 -1.684239e+000 0.000000e+000
    endloop
  endfacet
  facet normal 0.000000e+000 -0.000000e+000 -9.996904e-001
    outer loop
      vertex   1.122766e+000 -9.946840e-001 0.000000e+000
      vertex   1.847522e+000 -1.684239e+000 0.000000e+000
      vertex   9.946840e-001 -1.122766e+000 0.000000e+000
    endloop
  endfacet
  facet normal 0.000000e+000 0.000000e+000 -2.260820e-001
    outer loop
      vertex   9.946840e-001 -1.122766e+000 0.000000e+000
      vertex   1.847522e+000 -1.684239e+000 0.000000e+000
      vertex   1.684239e+000 -1.847522e+000 0.000000e+000
    endloop
  endfacet
  facet normal 0.000000e+000 0.000000e+000 -2.277965e-001
    outer loop
      vertex   9.946840e-001 -1.122766e+000 0.000000e+000
      vertex   1.684239e+000 -1.847522e+000 0.000000e+000
      vertex   1.506587e+000 -1.995043e+000 0.000000e+000
    endloop
  endfacet
  facet normal 0.000000e+000 -0.000000e+000 -9.910531e-001
    outer loop
      vertex   9.946840e-001 -1.122766e+000 0.000000e+000
      vertex   1.506587e+000 -1.995043e+000 0.000000e+000
      vertex   8.520971e-001 -1.234476e+000 0.000000e+000
    endloop
  endfacet
  facet normal 0.000000e+000 0.000000e+000 -2.284645e-001
    outer loop
      vertex   8.520971e-001 -1.234476e+000 0.000000e+000
      vertex   1.506587e+000 -1.995043e+000 0.000000e+000
      vertex   1.316080e+000 -2.125543e+000 0.000000e+000
    endloop
  endfacet
  facet normal 0.000000e+000 -0.000000e+000 -9.979742e-001
    outer loop
      vertex   8.520971e-001 -1.234476e+000 0.000000e+000
      vertex   1.316080e+000 -2.125543e+000 0.000000e+000
      vertex   6.970848e-001 -1.328184e+000 0.000000e+000
    endloop
  endfacet
  facet normal 0.000000e+000 0.000000e+000 -2.280630e-001
    outer loop
      vertex   6.970848e-001 -1.328184e+000 0.000000e+000
      vertex   1.316080e+000 -2.125543e+000 0.000000e+000
      vertex   1.114346e+000 -2.237908e+000 0.000000e+000
    endloop
  endfacet
  facet normal 0.000000e+000 -0.000000e+000 -9.999745e-001
    outer loop
      vertex   6.970848e-001 -1.328184e+000 0.000000e+000
      vertex   1.114346e+000 -2.237908e+000 0.000000e+000
      vertex   5.319073e-001 -1.402524e+000 0.000000e+000
    endloop
  endfacet
  facet normal 0.000000e+000 0.000000e+000 -2.266062e-001
    outer loop
      vertex   5.319073e-001 -1.402524e+000 0.000000e+000
      vertex   1.114346e+000 -2.237908e+000 0.000000e+000
      vertex   9.031042e-001 -2.331181e+000 0.000000e+000
    endloop
  endfacet
  facet normal 0.000000e+000 0.000000e+000 -2.274642e-001
    outer loop
      vertex   5.319073e-001 -1.402524e+000 0.000000e+000
      vertex   9.031042e-001 -2.331181e+000 0.000000e+000
      vertex   6.841575e-001 -2.404564e+000 0.000000e+000
    endloop
  endfacet
  facet normal 0.000000e+000 -0.000000e+000 -9.885776e-001
    outer loop
      vertex   5.319073e-001 -1.402524e+000 0.000000e+000
      vertex   6.841575e-001 -2.404564e+000 0.000000e+000
      vertex   3.589735e-001 -1.456413e+000 0.000000e+000
    endloop
  endfacet
  facet normal 0.000000e+000 0.000000e+000 -2.283975e-001
    outer loop
      vertex   3.589735e-001 -1.456413e+000 0.000000e+000
      vertex   6.841575e-001 -2.404564e+000 0.000000e+000
      vertex   4.593738e-001 -2.457433e+000 0.000000e+000
    endloop
  endfacet
  facet normal 0.000000e+000 -0.000000e+000 -9.966984e-001
    outer loop
      vertex   3.589735e-001 -1.456413e+000 0.000000e+000
      vertex   4.593738e-001 -2.457433e+000 0.000000e+000
      vertex   1.808050e-001 -1.489063e+000 0.000000e+000
    endloop
  endfacet
  facet normal 0.000000e+000 0.000000e+000 -2.282636e-001
    outer loop
      vertex   1.808050e-001 -1.489063e+000 0.000000e+000
      vertex   4.593738e-001 -2.457433e+000 0.000000e+000
      vertex   2.306709e-001 -2.489336e+000 0.000000e+000
    endloop
  endfacet
  facet normal 0.000000e+000 -0.000000e+000 -9.999438e-001
    outer loop
      vertex   1.808050e-001 -1.489063e+000 0.000000e+000
      vertex   2.306709e-001 -2.489336e+000 0.000000e+000
      vertex   9.184851e-017 -1.500000e+000 0.000000e+000
    endloop
  endfacet
  facet normal 0.000000e+000 0.000000e+000 -2.270671e-001
    outer loop
      vertex   9.184851e-017 -1.500000e+000 0.000000e+000
      vertex   2.306709e-001 -2.489336e+000 0.000000e+000
      vertex   1.530808e-016 -2.500000e+000 0.000000e+000
    endloop
  endfacet
  facet normal 0.000000e+000 -0.000000e+000 -2.270671e-001
    outer loop
      vertex   9.184851e-017 -1.500000e+000 0.000000e+000
      vertex   1.530808e-016 -2.500000e+000 0.000000e+000
      vertex   -2.306709e-001 -2.489336e+000 0.000000e+000
    endloop
  endfacet
  facet normal -0.000000e+000 0.000000e+000 -9.858124e-001
    outer loop
      vertex   9.184851e-017 -1.500000e+000 0.000000e+000
      vertex   -2.306709e-001 -2.489336e+000 0.000000e+000
      vertex   -1.808050e-001 -1.489063e+000 0.000000e+000
    endloop
  endfacet
  facet normal 0.000000e+000 0.000000e+000 -2.282636e-001
    outer loop
      vertex   -1.808050e-001 -1.489063e+000 0.000000e+000
      vertex   -2.306709e-001 -2.489336e+000 0.000000e+000
      vertex   -4.593738e-001 -2.457433e+000 0.000000e+000
    endloop
  endfacet
  facet normal -0.000000e+000 0.000000e+000 -9.951174e-001
    outer loop
      vertex   -1.808050e-001 -1.489063e+000 0.000000e+000
      vertex   -4.593738e-001 -2.457433e+000 0.000000e+000
      vertex   -3.589735e-001 -1.456413e+000 0.000000e+000
    endloop
  endfacet
  facet normal 0.000000e+000 0.000000e+000 -2.283975e-001
    outer loop
      vertex   -3.589735e-001 -1.456413e+000 0.000000e+000
      vertex   -4.593738e-001 -2.457433e+000 0.000000e+000
      vertex   -6.841575e-001 -2.404564e+000 0.000000e+000
    endloop
  endfacet
  facet normal -0.000000e+000 0.000000e+000 -9.995990e-001
    outer loop
      vertex   -3.589735e-001 -1.456413e+000 0.000000e+000
      vertex   -6.841575e-001 -2.404564e+000 0.000000e+000
      vertex   -5.319073e-001 -1.402524e+000 0.000000e+000
    endloop
  endfacet
  facet normal 0.000000e+000 0.000000e+000 -2.274642e-001
    outer loop
      vertex   -5.319073e-001 -1.402524e+000 0.000000e+000
      vertex   -6.841575e-001 -2.404564e+000 0.000000e+000
      vertex   -9.031042e-001 -2.331181e+000 0.000000e+000
    endloop
  endfacet
  facet normal 0.000000e+000 0.000000e+000 -2.266062e-001
    outer loop
      vertex   -5.319073e-001 -1.402524e+000 0.000000e+000
      vertex   -9.031042e-001 -2.331181e+000 0.000000e+000
      vertex   -1.114346e+000 -2.237908e+000 0.000000e+000
    endloop
  endfacet
  facet normal -0.000000e+000 0.000000e+000 -9.827620e-001
    outer loop
      vertex   -5.319073e-001 -1.402524e+000 0.000000e+000
      vertex   -1.114346e+000 -2.237908e+000 0.000000e+000
      vertex   -6.970848e-001 -1.328184e+000 0.000000e+000
    endloop
  endfacet
  facet normal 0.000000e+000 0.000000e+000 -2.280630e-001
    outer loop
      vertex   -6.970848e-001 -1.328184e+000 0.000000e+000
      vertex   -1.114346e+000 -2.237908e+000 0.000000e+000
      vertex   -1.316080e+000 -2.125543e+000 0.000000e+000
    endloop
  endfacet
  facet normal -0.000000e+000 0.000000e+000 -9.932344e-001
    outer loop
      vertex   -6.970848e-001 -1.328184e+000 0.000000e+000
      vertex   -1.316080e+000 -2.125543e+000 0.000000e+000
      vertex   -8.520971e-001 -1.234476e+000 0.000000e+000
    endloop
  endfacet
  facet normal 0.000000e+000 0.000000e+000 -2.284645e-001
    outer loop
      vertex   -8.520971e-001 -1.234476e+000 0.000000e+000
      vertex   -1.316080e+000 -2.125543e+000 0.000000e+000
      vertex   -1.506587e+000 -1.995043e+000 0.000000e+000
    endloop
  endfacet
  facet normal -0.000000e+000 0.000000e+000 -9.989419e-001
    outer loop
      vertex   -8.520971e-001 -1.234476e+000 0.000000e+000
      vertex   -1.506587e+000 -1.995043e+000 0.000000e+000
      vertex   -9.946840e-001 -1.122766e+000 0.000000e+000
    endloop
  endfacet
  facet normal 0.000000e+000 0.000000e+000 -2.277965e-001
    outer loop
      vertex   -9.946840e-001 -1.122766e+000 0.000000e+000
      vertex   -1.506587e+000 -1.995043e+000 0.000000e+000
      vertex   -1.684239e+000 -1.847522e+000 0.000000e+000
    endloop
  endfacet
  facet normal 0.000000e+000 0.000000e+000 -2.260820e-001
    outer loop
      vertex   -9.946840e-001 -1.122766e+000 0.000000e+000
      vertex   -1.684239e+000 -1.847522e+000 0.000000e+000
      vertex   -1.847522e+000 -1.684239e+000 0.000000e+000
    endloop
  endfacet
  facet normal -0.000000e+000 0.000000e+000 -9.794319e-001
    outer loop
      vertex   -9.946840e-001 -1.122766e+000 0.000000e+000
      vertex   -1.847522e+000 -1.684239e+000 0.000000e+000
      vertex   -1.122766e+000 -9.946840e-001 0.000000e+000
    endloop
  endfacet
  facet normal 0.000000e+000 0.000000e+000 -2.277965e-001
    outer loop
      vertex   -1.122766e+000 -9.946840e-001 0.000000e+000
      vertex   -1.847522e+000 -1.684239e+000 0.000000e+000
      vertex   -1.995043e+000 -1.506587e+000 0.000000e+000
    endloop
  endfacet
  facet normal -0.000000e+000 0.000000e+000 -9.910531e-001
    outer loop
      vertex   -1.122766e+000 -9.946840e-001 0.000000e+000
      vertex   -1.995043e+000 -1.506587e+000 0.000000e+000
      vertex   -1.234476e+000 -8.520971e-001 0.000000e+000
    endloop
  endfacet
  facet normal 0.000000e+000 0.000000e+000 -2.284645e-001
    outer loop
      vertex   -1.234476e+000 -8.520971e-001 0.000000e+000
      vertex   -1.995043e+000 -1.506587e+000 0.000000e+000
      vertex   -2.125543e+000 -1.316080e+000 0.000000e+000
    endloop
  endfacet
  facet normal -0.000000e+000 0.000000e+000 -9.979742e-001
    outer loop
      vertex   -1.234476e+000 -8.520971e-001 0.000000e+000
      vertex   -2.125543e+000 -1.316080e+000 0.000000e+000
      vertex   -1.328184e+000 -6.970848e-001 0.000000e+000
    endloop
  endfacet
  facet normal 0.000000e+000 0.000000e+000 -2.280630e-001
    outer loop
      vertex   -1.328184e+000 -6.970848e-001 0.000000e+000
      vertex   -2.125543e+000 -1.316080e+000 0.000000e+000
      vertex   -2.237908e+000 -1.114346e+000 0.000000e+000
    endloop
  endfacet
  facet normal -0.000000e+000 0.000000e+000 -9.999745e-001
    outer loop
      vertex   -1.328184e+000 -6.970848e-001 0.000000e+000
      vertex   -2.237908e+000 -1.114346e+000 0.000000e+000
      vertex   -1.402524e+000 -5.319073e-001 0.000000e+000
    endloop
  endfacet
  facet normal 0.000000e+000 0.000000e+000 -2.266062e-001
    outer loop
      vertex   -1.402524e+000 -5.319073e-001 0.000000e+000
      vertex   -2.237908e+000 -1.114346e+000 0.000000e+000
      vertex   -2.331181e+000 -9.031042e-001 0.000000e+000
    endloop
  endfacet
  facet normal 0.000000e+000 0.000000e+000 -2.274642e-001
    outer loop
      vertex   -1.402524e+000 -5.319073e-001 0.000000e+000
      vertex   -2.331181e+000 -9.031042e-001 0.000000e+000
      vertex   -2.404564e+000 -6.841575e-001 0.000000e+000
    endloop
  endfacet
  facet normal -0.000000e+000 0.000000e+000 -9.885776e-001
    outer loop
      vertex   -1.402524e+000 -5.319073e-001 0.000000e+000
      vertex   -2.404564e+000 -6.841575e-001 0.000000e+000
      vertex   -1.456413e+000 -3.589735e-001 0.000000e+000
    endloop
  endfacet
  facet normal 0.000000e+000 0.000000e+000 -2.283975e-001
    outer loop
      vertex   -1.456413e+000 -3.589735e-001 0.000000e+000
      vertex   -2.404564e+000 -6.841575e-001 0.000000e+000
      vertex   -2.457433e+000 -4.593738e-001 0.000000e+000
    endloop
  endfacet
  facet normal -0.000000e+000 0.000000e+000 -9.966984e-001
    outer loop
      vertex   -1.456413e+000 -3.589735e-001 0.000000e+000
      vertex   -2.457433e+000 -4.593738e-001 0.000000e+000
      vertex   -1.489063e+000 -1.808050e-001 0.000000e+000
    endloop
  endfacet
  facet normal 0.000000e+000 0.000000e+000 -2.282636e-001
    outer loop
      vertex   -1.489063e+000 -1.808050e-001 0.000000e+000
      vertex   -2.457433e+000 -4.593738e-001 0.000000e+000
      vertex   -2.489336e+000 -2.306709e-001 0.000000e+000
    endloop
  endfacet
  facet normal -0.000000e+000 0.000000e+000 -9.999438e-001
    outer loop
      vertex   -1.489063e+000 -1.808050e-001 0.000000e+000
      vertex   -2.489336e+000 -2.306709e-001 0.000000e+000
      vertex   -1.500000e+000 -1.836970e-016 0.000000e+000
    endloop
  endfacet
  facet normal -0.000000e+000 0.000000e+000 -2.270671e-001
    outer loop
      vertex   -1.500000e+000 -1.836970e-016 0.000000e+000
      vertex   -2.489336e+000 -2.306709e-001 0.000000e+000
      vertex   -2.500000e+000 0.000000e+000 0.000000e+000
    endloop
  endfacet
  facet normal 0.000000e+000 0.000000e+000 -9.981756e-001
    outer loop
      vertex   -1.500000e+000 -1.836970e-016 0.000000e+000
      vertex   -2.500000e+000 0.000000e+000 0.000000e+000
      vertex   -1.489063e+000 1.808050e-001 0.000000e+000
    endloop
  endfacet
  facet normal -0.000000e+000 0.000000e+000 -9.365211e-001
    outer loop
      vertex   -1.489063e+000 1.808050e-001 0.000000e+000
      vertex   -2.500000e+000 0.000000e+000 0.000000e+000
      vertex   -1.456413e+000 3.589735e-001 0.000000e+000
    endloop
  endfacet
  facet normal -0.000000e+000 0.000000e+000 -8.060327e-001
    outer loop
      vertex   -1.456413e+000 3.589735e-001 0.000000e+000
      vertex   -2.500000e+000 0.000000e+000 0.000000e+000
      vertex   -1.402524e+000 5.319073e-001 0.000000e+000
    endloop
  endfacet
  facet normal -0.000000e+000 0.000000e+000 -6.416025e-001
    outer loop
      vertex   -1.402524e+000 5.319073e-001 0.000000e+000
      vertex   -2.500000e+000 0.000000e+000 0.000000e+000
      vertex   -1.328184e+000 6.970848e-001 0.000000e+000
    endloop
  endfacet
  facet normal -0.000000e+000 0.000000e+000 -9.992120e-001
    outer loop
      vertex   -1.328184e+000 6.970848e-001 0.000000e+000
      vertex   -2.500000e+000 0.000000e+000 0.000000e+000
      vertex   -2.500000e+000 2.500000e+000 0.000000e+000
    endloop
  endfacet
  facet normal 0.000000e+000 0.000000e+000 -9.001359e-001
    outer loop
      vertex   -1.328184e+000 6.970848e-001 0.000000e+000
      vertex   -2.500000e+000 2.500000e+000 0.000000e+000
      vertex   -1.234476e+000 8.520971e-001 0.000000e+000
    endloop
  endfacet
  facet normal 0.000000e+000 0.000000e+000 -9.685822e-001
    outer loop
      vertex   -1.234476e+000 8.520971e-001 0.000000e+000
      vertex   -2.500000e+000 2.500000e+000 0.000000e+000
      vertex   -1.122766e+000 9.946840e-001 0.000000e+000
    endloop
  endfacet
  facet normal 0.000000e+000 0.000000e+000 -9.990143e-001
    outer loop
      vertex   -1.122766e+000 9.946840e-001 0.000000e+000
      vertex   -2.500000e+000 2.500000e+000 0.000000e+000
      vertex   -9.946840e-001 1.122766e+000 0.000000e+000
    endloop
  endfacet
  facet normal 0.000000e+000 0.000000e+000 -9.863797e-001
    outer loop
      vertex   -9.946840e-001 1.122766e+000 0.000000e+000
      vertex   -2.500000e+000 2.500000e+000 0.000000e+000
      vertex   -8.520971e-001 1.234476e+000 0.000000e+000
    endloop
  endfacet
  facet normal 0.000000e+000 0.000000e+000 -9.315432e-001
    outer loop
      vertex   -8.520971e-001 1.234476e+000 0.000000e+000
      vertex   -2.500000e+000 2.500000e+000 0.000000e+000
      vertex   -6.970848e-001 1.328184e+000 0.000000e+000
    endloop
  endfacet
  facet normal 0.000000e+000 0.000000e+000 -8.410662e-001
    outer loop
      vertex   -6.970848e-001 1.328184e+000 0.000000e+000
      vertex   -2.500000e+000 2.500000e+000 0.000000e+000
      vertex   -5.319073e-001 1.402524e+000 0.000000e+000
    endloop
  endfacet
  facet normal 0.000000e+000 0.000000e+000 -7.248120e-001
    outer loop
      vertex   -5.319073e-001 1.402524e+000 0.000000e+000
      vertex   -2.500000e+000 2.500000e+000 0.000000e+000
      vertex   -3.589735e-001 1.456413e+000 0.000000e+000
    endloop
  endfacet
  facet normal 0.000000e+000 0.000000e+000 -5.930019e-001
    outer loop
      vertex   -3.589735e-001 1.456413e+000 0.000000e+000
      vertex   -2.500000e+000 2.500000e+000 0.000000e+000
      vertex   -1.808050e-001 1.489063e+000 0.000000e+000
    endloop
  endfacet
  facet normal 0.000000e+000 0.000000e+000 -4.542072e-001
    outer loop
      vertex   -1.808050e-001 1.489063e+000 0.000000e+000
      vertex   -2.500000e+000 2.500000e+000 0.000000e+000
      vertex   9.184851e-017 1.500000e+000 0.000000e+000
    endloop
  endfacet
  facet normal 0.000000e+000 0.000000e+000 -6.896552e-001
    outer loop
      vertex   9.184851e-017 1.500000e+000 0.000000e+000
      vertex   -2.500000e+000 2.500000e+000 0.000000e+000
      vertex   2.500000e+000 2.500000e+000 0.000000e+000
    endloop
  endfacet
  facet normal 0.000000e+000 0.000000e+000 -4.267734e-001
    outer loop
      vertex   9.184851e-017 1.500000e+000 0.000000e+000
      vertex   2.500000e+000 2.500000e+000 0.000000e+000
      vertex   1.808050e-001 1.489063e+000 0.000000e+000
    endloop
  endfacet
  facet normal 0.000000e+000 0.000000e+000 -5.582809e-001
    outer loop
      vertex   1.808050e-001 1.489063e+000 0.000000e+000
      vertex   2.500000e+000 2.500000e+000 0.000000e+000
      vertex   3.589735e-001 1.456413e+000 0.000000e+000
    endloop
  endfacet
  facet normal 0.000000e+000 0.000000e+000 -6.857344e-001
    outer loop
      vertex   3.589735e-001 1.456413e+000 0.000000e+000
      vertex   2.500000e+000 2.500000e+000 0.000000e+000
      vertex   5.319073e-001 1.402524e+000 0.000000e+000
    endloop
  endfacet
  facet normal 0.000000e+000 0.000000e+000 -8.025708e-001
    outer loop
      vertex   5.319073e-001 1.402524e+000 0.000000e+000
      vertex   2.500000e+000 2.500000e+000 0.000000e+000
      vertex   6.970848e-001 1.328184e+000 0.000000e+000
    endloop
  endfacet
  facet normal 0.000000e+000 0.000000e+000 -9.001359e-001
    outer loop
      vertex   6.970848e-001 1.328184e+000 0.000000e+000
      vertex   2.500000e+000 2.500000e+000 0.000000e+000
      vertex   8.520971e-001 1.234476e+000 0.000000e+000
    endloop
  endfacet
  facet normal 0.000000e+000 0.000000e+000 -9.685822e-001
    outer loop
      vertex   8.520971e-001 1.234476e+000 0.000000e+000
      vertex   2.500000e+000 2.500000e+000 0.000000e+000
      vertex   9.946840e-001 1.122766e+000 0.000000e+000
    endloop
  endfacet
  facet normal 0.000000e+000 0.000000e+000 -9.990143e-001
    outer loop
      vertex   9.946840e-001 1.122766e+000 0.000000e+000
      vertex   2.500000e+000 2.500000e+000 0.000000e+000
      vertex   1.122766e+000 9.946840e-001 0.000000e+000
    endloop
  endfacet
  facet normal 0.000000e+000 0.000000e+000 -8.060327e-001
    outer loop
      vertex   1.456413e+000 3.589735e-001 0.000000e+000
      vertex   1.402524e+000 5.319073e-001 0.000000e+000
      vertex   2.500000e+000 0.000000e+000 0.000000e+000
    endloop
  endfacet
  facet normal 0.000000e+000 0.000000e+000 -8.523553e-002
    outer loop
      vertex   2.500000e+000 0.000000e+000 0.000000e+000
      vertex   1.402524e+000 5.319073e-001 0.000000e+000
      vertex   1.328184e+000 6.970848e-001 0.000000e+000
    endloop
  endfacet
  facet normal -1.000000e+000 0.000000e+000 0.000000e+000
    outer loop
      vertex   -2.500000e+000 0.000000e+000 3.000000e+000
      vertex   -2.500000e+000 2.500000e+000 3.000000e+000
      vertex   -2.500000e+000 0.000000e+000 0.000000e+000
    endloop
  endfacet
  facet normal -7.682213e-001 0.000000e+000 0.000000e+000
    outer loop
      vertex   -2.500000e+000 0.000000e+000 0.000000e+000
      vertex   -2.500000e+000 2.500000e+000 3.000000e+000
      vertex   -2.500000e+000 2.500000e+000 0.000000e+000
    endloop
  endfacet
  facet normal 9.981756e-001 6.037876e-002 0.000000e+000
    outer loop
      vertex   -1.489063e+000 -1.808050e-001 3.000000e+000
      vertex   -1.489063e+000 -1.808050e-001 0.000000e+000
      vertex   -1.500000e+000 1.836970e-016 3.000000e+000
    endloop
  endfacet
  facet normal 6.015879e-002 3.638952e-003 -4.456431e-019
    outer loop
      vertex   -1.500000e+000 1.836970e-016 3.000000e+000
      vertex   -1.489063e+000 -1.808050e-001 0.000000e+000
      vertex   -1.500000e+000 -1.836970e-016 0.000000e+000
    endloop
  endfacet
  facet normal 9.981756e-001 -6.037876e-002 7.394265e-018
    outer loop
      vertex   -1.500000e+000 1.836970e-016 3.000000e+000
      vertex   -1.500000e+000 -1.836970e-016 0.000000e+000
      vertex   -1.489063e+000 1.808050e-001 3.000000e+000
    endloop
  endfacet
  facet normal 6.015879e-002 -3.638952e-003 0.000000e+000
    outer loop
      vertex   -1.489063e+000 1.808050e-001 3.000000e+000
      vertex   -1.500000e+000 -1.836970e-016 0.000000e+000
      vertex   -1.489063e+000 1.808050e-001 0.000000e+000
    endloop
  endfacet
  facet normal 9.836199e-001 -1.802551e-001 0.000000e+000
    outer loop
      vertex   -1.489063e+000 1.808050e-001 3.000000e+000
      vertex   -1.489063e+000 1.808050e-001 0.000000e+000
      vertex   -1.456413e+000 3.589735e-001 3.000000e+000
    endloop
  endfacet
  facet normal 5.928153e-002 -1.086375e-002 0.000000e+000
    outer loop
      vertex   -1.456413e+000 3.589735e-001 3.000000e+000
      vertex   -1.489063e+000 1.808050e-001 0.000000e+000
      vertex   -1.456413e+000 3.589735e-001 0.000000e+000
    endloop
  endfacet
  facet normal 9.547209e-001 -2.975029e-001 0.000000e+000
    outer loop
      vertex   -1.456413e+000 3.589735e-001 3.000000e+000
      vertex   -1.456413e+000 3.589735e-001 0.000000e+000
      vertex   -1.402524e+000 5.319073e-001 3.000000e+000
    endloop
  endfacet
  facet normal 5.753982e-002 -1.793012e-002 0.000000e+000
    outer loop
      vertex   -1.402524e+000 5.319073e-001 3.000000e+000
      vertex   -1.456413e+000 3.589735e-001 0.000000e+000
      vertex   -1.402524e+000 5.319073e-001 0.000000e+000
    endloop
  endfacet
  facet normal 9.118999e-001 -4.104128e-001 0.000000e+000
    outer loop
      vertex   -1.402524e+000 5.319073e-001 3.000000e+000
      vertex   -1.402524e+000 5.319073e-001 0.000000e+000
      vertex   -1.328184e+000 6.970848e-001 3.000000e+000
    endloop
  endfacet
  facet normal 5.495907e-002 -2.473507e-002 0.000000e+000
    outer loop
      vertex   -1.328184e+000 6.970848e-001 3.000000e+000
      vertex   -1.402524e+000 5.319073e-001 0.000000e+000
      vertex   -1.328184e+000 6.970848e-001 0.000000e+000
    endloop
  endfacet
  facet normal 8.557814e-001 -5.173376e-001 0.000000e+000
    outer loop
      vertex   -1.328184e+000 6.970848e-001 3.000000e+000
      vertex   -1.328184e+000 6.970848e-001 0.000000e+000
      vertex   -1.234476e+000 8.520971e-001 3.000000e+000
    endloop
  endfacet
  facet normal 5.157684e-002 -3.117927e-002 0.000000e+000
    outer loop
      vertex   -1.234476e+000 8.520971e-001 3.000000e+000
      vertex   -1.328184e+000 6.970848e-001 0.000000e+000
      vertex   -1.234476e+000 8.520971e-001 0.000000e+000
    endloop
  endfacet
  facet normal 7.871834e-001 -6.167189e-001 0.000000e+000
    outer loop
      vertex   -1.234476e+000 8.520971e-001 3.000000e+000
      vertex   -1.234476e+000 8.520971e-001 0.000000e+000
      vertex   -1.122766e+000 9.946840e-001 3.000000e+000
    endloop
  endfacet
  facet normal 4.744256e-002 -3.716888e-002 0.000000e+000
    outer loop
      vertex   -1.122766e+000 9.946840e-001 3.000000e+000
      vertex   -1.234476e+000 8.520971e-001 0.000000e+000
      vertex   -1.122766e+000 9.946840e-001 0.000000e+000
    endloop
  endfacet
  facet normal 7.071068e-001 -7.071068e-001 0.000000e+000
    outer loop
      vertex   -1.122766e+000 9.946840e-001 3.000000e+000
      vertex   -1.122766e+000 9.946840e-001 0.000000e+000
      vertex   -9.946840e-001 1.122766e+000 3.000000e+000
    endloop
  endfacet
  facet normal 4.261644e-002 -4.261644e-002 0.000000e+000
    outer loop
      vertex   -9.946840e-001 1.122766e+000 3.000000e+000
      vertex   -1.122766e+000 9.946840e-001 0.000000e+000
      vertex   -9.946840e-001 1.122766e+000 0.000000e+000
    endloop
  endfacet
  facet normal 6.167189e-001 -7.871834e-001 0.000000e+000
    outer loop
      vertex   -9.946840e-001 1.122766e+000 3.000000e+000
      vertex   -9.946840e-001 1.122766e+000 0.000000e+000
      vertex   -8.520971e-001 1.234476e+000 3.000000e+000
    endloop
  endfacet
  facet normal 3.716888e-002 -4.744256e-002 0.000000e+000
    outer loop
      vertex   -8.520971e-001 1.234476e+000 3.000000e+000
      vertex   -9.946840e-001 1.122766e+000 0.000000e+000
      vertex   -8.520971e-001 1.234476e+000 0.000000e+000
    endloop
  endfacet
  facet normal 5.173376e-001 -8.557814e-001 0.000000e+000
    outer loop
      vertex   -8.520971e-001 1.234476e+000 3.000000e+000
      vertex   -8.520971e-001 1.234476e+000 0.000000e+000
      vertex   -6.970848e-001 1.328184e+000 3.000000e+000
    endloop
  endfacet
  facet normal 3.117927e-002 -5.157684e-002 0.000000e+000
    outer loop
      vertex   -6.970848e-001 1.328184e+000 3.000000e+000
      vertex   -8.520971e-001 1.234476e+000 0.000000e+000
      vertex   -6.970848e-001 1.328184e+000 0.000000e+000
    endloop
  endfacet
  facet normal 4.104128e-001 -9.118999e-001 0.000000e+000
    outer loop
      vertex   -6.970848e-001 1.328184e+000 3.000000e+000
      vertex   -6.970848e-001 1.328184e+000 0.000000e+000
      vertex   -5.319073e-001 1.402524e+000 3.000000e+000
    endloop
  endfacet
  facet normal 2.473507e-002 -5.495907e-002 0.000000e+000
    outer loop
      vertex   -5.319073e-001 1.402524e+000 3.000000e+000
      vertex   -6.970848e-001 1.328184e+000 0.000000e+000
      vertex   -5.319073e-001 1.402524e+000 0.000000e+000
    endloop
  endfacet
  facet normal 2.975029e-001 -9.547209e-001 0.000000e+000
    outer loop
      vertex   -5.319073e-001 1.402524e+000 3.000000e+000
      vertex   -5.319073e-001 1.402524e+000 0.000000e+000
      vertex   -3.589735e-001 1.456413e+000 3.000000e+000
    endloop
  endfacet
  facet normal 1.793012e-002 -5.753982e-002 0.000000e+000
    outer loop
      vertex   -3.589735e-001 1.456413e+000 3.000000e+000
      vertex   -5.319073e-001 1.402524e+000 0.000000e+000
      vertex   -3.589735e-001 1.456413e+000 0.000000e+000
    endloop
  endfacet
  facet normal 1.802551e-001 -9.836199e-001 0.000000e+000
    outer loop
      vertex   -3.589735e-001 1.456413e+000 3.000000e+000
      vertex   -3.589735e-001 1.456413e+000 0.000000e+000
      vertex   -1.808050e-001 1.489063e+000 3.000000e+000
    endloop
  endfacet
  facet normal 1.086375e-002 -5.928153e-002 0.000000e+000
    outer loop
      vertex   -1.808050e-001 1.489063e+000 3.000000e+000
      vertex   -3.589735e-001 1.456413e+000 0.000000e+000
      vertex   -1.808050e-001 1.489063e+000 0.000000e+000
    endloop
  endfacet
  facet normal 6.037876e-002 -9.981756e-001 0.000000e+000
    outer loop
      vertex   -1.808050e-001 1.489063e+000 3.000000e+000
      vertex   -1.808050e-001 1.489063e+000 0.000000e+000
      vertex   9.184851e-017 1.500000e+000 3.000000e+000
    endloop
  endfacet
  facet normal 3.638952e-003 -6.015879e-002 0.000000e+000
    outer loop
      vertex   9.184851e-017 1.500000e+000 3.000000e+000
      vertex   -1.808050e-001 1.489063e+000 0.000000e+000
      vertex   9.184851e-017 1.500000e+000 0.000000e+000
    endloop
  endfacet
  facet normal -6.037876e-002 -9.981756e-001 -0.000000e+000
    outer loop
      vertex   9.184851e-017 1.500000e+000 3.000000e+000
      vertex   9.184851e-017 1.500000e+000 0.000000e+000
      vertex   1.808050e-001 1.489063e+000 3.000000e+000
    endloop
  endfacet
  facet normal -3.638952e-003 -6.015879e-002 -0.000000e+000
    outer loop
      vertex   1.808050e-001 1.489063e+000 3.000000e+000
      vertex   9.184851e-017 1.500000e+000 0.000000e+000
      vertex   1.808050e-001 1.489063e+000 0.000000e+000
    endloop
  endfacet
  facet normal -1.802551e-001 -9.836199e-001 -0.000000e+000
    outer loop
      vertex   1.808050e-001 1.489063e+000 3.000000e+000
      vertex   1.808050e-001 1.489063e+000 0.000000e+000
      vertex   3.589735e-001 1.456413e+000 3.000000e+000
    endloop
  endfacet
  facet normal -1.086375e-002 -5.928153e-002 -0.000000e+000
    outer loop
      vertex   3.589735e-001 1.456413e+000 3.000000e+000
      vertex   1.808050e-001 1.489063e+000 0.000000e+000
      vertex   3.589735e-001 1.456413e+000 0.000000e+000
    endloop
  endfacet
  facet normal -2.975029e-001 -9.547209e-001 -0.000000e+000
    outer loop
      vertex   3.589735e-001 1.456413e+000 3.000000e+000
      vertex   3.589735e-001 1.456413e+000 0.000000e+000
      vertex   5.319073e-001 1.402524e+000 3.000000e+000
    endloop
  endfacet
  facet normal -1.793012e-002 -5.753982e-002 -0.000000e+000
    outer loop
      vertex   5.319073e-001 1.402524e+000 3.000000e+000
      vertex   3.589735e-001 1.456413e+000 0.000000e+000
      vertex   5.319073e-001 1.402524e+000 0.000000e+000
    endloop
  endfacet
  facet normal -4.104128e-001 -9.118999e-001 -0.000000e+000
    outer loop
      vertex   5.319073e-001 1.402524e+000 3.000000e+000
      vertex   5.319073e-001 1.402524e+000 0.000000e+000
      vertex   6.970848e-001 1.328184e+000 3.000000e+000
    endloop
  endfacet
  facet normal -2.473507e-002 -5.495907e-002 -0.000000e+000
    outer loop
      vertex   6.970848e-001 1.328184e+000 3.000000e+000
      vertex   5.319073e-001 1.402524e+000 0.000000e+000
      vertex   6.970848e-001 1.328184e+000 0.000000e+000
    endloop
  endfacet
  facet normal -5.173376e-001 -8.557814e-001 -0.000000e+000
    outer loop
      vertex   6.970848e-001 1.328184e+000 3.000000e+000
      vertex   6.970848e-001 1.328184e+000 0.000000e+000
      vertex   8.520971e-001 1.234476e+000 3.000000e+000
    endloop
  endfacet
  facet normal -3.117927e-002 -5.157684e-002 -0.000000e+000
    outer loop
      vertex   8.520971e-001 1.234476e+000 3.000000e+000
      vertex   6.970848e-001 1.328184e+000 0.000000e+000
      vertex   8.520971e-001 1.234476e+000 0.000000e+000
    endloop
  endfacet
  facet normal -6.167189e-001 -7.871834e-001 -0.000000e+000
    outer loop
      vertex   8.520971e-001 1.234476e+000 3.000000e+000
      vertex   8.520971e-001 1.234476e+000 0.000000e+000
      vertex   9.946840e-001 1.122766e+000 3.000000e+000
    endloop
  endfacet
  facet normal -3.716888e-002 -4.744256e-002 -0.000000e+000
    outer loop
      vertex   9.946840e-001 1.122766e+000 3.000000e+000
      vertex   8.520971e-001 1.234476e+000 0.000000e+000
      vertex   9.946840e-001 1.122766e+000 0.000000e+000
    endloop
  endfacet
  facet normal -7.071068e-001 -7.071068e-001 -0.000000e+000
    outer loop
      vertex   9.946840e-001 1.122766e+000 3.000000e+000
      vertex   9.946840e-001 1.122766e+000 0.000000e+000
      vertex   1.122766e+000 9.946840e-001 3.000000e+000
    endloop
  endfacet
  facet normal -4.261644e-002 -4.261644e-002 -0.000000e+000
    outer loop
      vertex   1.122766e+000 9.946840e-001 3.000000e+000
      vertex   9.946840e-001 1.122766e+000 0.000000e+000
      vertex   1.122766e+000 9.946840e-001 0.000000e+000
    endloop
  endfacet
  facet normal -7.871834e-001 -6.167189e-001 -0.000000e+000
    outer loop
      vertex   1.122766e+000 9.946840e-001 3.000000e+000
      vertex   1.122766e+000 9.946840e-001 0.000000e+000
      vertex   1.234476e+000 8.520971e-001 3.000000e+000
    endloop
  endfacet
  facet normal -4.744256e-002 -3.716888e-002 -0.000000e+000
    outer loop
      vertex   1.234476e+000 8.520971e-001 3.000000e+000
      vertex   1.122766e+000 9.946840e-001 0.000000e+000
      vertex   1.234476e+000 8.520971e-001 0.000000e+000
    endloop
  endfacet
  facet normal -8.557814e-001 -5.173376e-001 -0.000000e+000
    outer loop
      vertex   1.234476e+000 8.520971e-001 3.000000e+000
      vertex   1.234476e+000 8.520971e-001 0.000000e+000
      vertex   1.328184e+000 6.970848e-001 3.000000e+000
    endloop
  endfacet
  facet normal -5.157684e-002 -3.117927e-002 -0.000000e+000
    outer loop
      vertex   1.328184e+000 6.970848e-001 3.000000e+000
      vertex   1.234476e+000 8.520971e-001 0.000000e+000
      vertex   1.328184e+000 6.970848e-001 0.000000e+000
    endloop
  endfacet
  facet normal -9.118999e-001 -4.104128e-001 -0.000000e+000
    outer loop
      vertex   1.328184e+000 6.970848e-001 3.000000e+000
      vertex   1.328184e+000 6.970848e-001 0.000000e+000
      vertex   1.402524e+000 5.319073e-001 3.000000e+000
    endloop
  endfacet
  facet normal -5.495907e-002 -2.473507e-002 -0.000000e+000
    outer loop
      vertex   1.402524e+000 5.319073e-001 3.000000e+000
      vertex   1.328184e+000 6.970848e-001 0.000000e+000
      vertex   1.402524e+000 5.319073e-001 0.000000e+000
    endloop
  endfacet
  facet normal -9.547209e-001 -2.975029e-001 -0.000000e+000
    outer loop
      vertex   1.402524e+000 5.319073e-001 3.000000e+000
      vertex   1.402524e+000 5.319073e-001 0.000000e+000
      vertex   1.456413e+000 3.589735e-001 3.000000e+000
    endloop
  endfacet
  facet normal -5.753982e-002 -1.793012e-002 -0.000000e+000
    outer loop
      vertex   1.456413e+000 3.589735e-001 3.000000e+000
      vertex   1.402524e+000 5.319073e-001 0.000000e+000
      vertex   1.456413e+000 3.589735e-001 0.000000e+000
    endloop
  endfacet
  facet normal -9.836199e-001 -1.802551e-001 -0.000000e+000
    outer loop
      vertex   1.456413e+000 3.589735e-001 3.000000e+000
      vertex   1.456413e+000 3.589735e-001 0.000000e+000
      vertex   1.489063e+000 1.808050e-001 3.000000e+000
    endloop
  endfacet
  facet normal -5.928153e-002 -1.086375e-002 -0.000000e+000
    outer loop
      vertex   1.489063e+000 1.808050e-001 3.000000e+000
      vertex   1.456413e+000 3.589735e-001 0.000000e+000
      vertex   1.489063e+000 1.808050e-001 0.000000e+000
    endloop
  endfacet
  facet normal -9.981756e-001 -6.037876e-002 -0.000000e+000
    outer loop
      vertex   1.489063e+000 1.808050e-001 3.000000e+000
      vertex   1.489063e+000 1.808050e-001 0.000000e+000
      vertex   1.500000e+000 0.000000e+000 3.000000e+000
    endloop
  endfacet
  facet normal -6.015879e-002 -3.638952e-003 -0.000000e+000
    outer loop
      vertex   1.500000e+000 0.000000e+000 3.000000e+000
      vertex   1.489063e+000 1.808050e-001 0.000000e+000
      vertex   1.500000e+000 0.000000e+000 0.000000e+000
    endloop
  endfacet
  facet normal -9.981756e-001 6.037876e-002 0.000000e+000
    outer loop
      vertex   1.500000e+000 0.000000e+000 3.000000e+000
      vertex   1.500000e+000 0.000000e+000 0.000000e+000
      vertex   1.489063e+000 -1.808050e-001 3.000000e+000
    endloop
  endfacet
  facet normal -6.015879e-002 3.638952e-003 0.000000e+000
    outer loop
      vertex   1.489063e+000 -1.808050e-001 3.000000e+000
      vertex   1.500000e+000 0.000000e+000 0.000000e+000
      vertex   1.489063e+000 -1.808050e-001 0.000000e+000
    endloop
  endfacet
  facet normal -9.836199e-001 1.802551e-001 0.000000e+000
    outer loop
      vertex   1.489063e+000 -1.808050e-001 3.000000e+000
      vertex   1.489063e+000 -1.808050e-001 0.000000e+000
      vertex   1.456413e+000 -3.589735e-001 3.000000e+000
    endloop
  endfacet
  facet normal -5.928153e-002 1.086375e-002 0.000000e+000
    outer loop
      vertex   1.456413e+000 -3.589735e-001 3.000000e+000
      vertex   1.489063e+000 -1.808050e-001 0.000000e+000
      vertex   1.456413e+000 -3.589735e-001 0.000000e+000
    endloop
  endfacet
  facet normal -9.547209e-001 2.975029e-001 0.000000e+000
    outer loop
      vertex   1.456413e+000 -3.589735e-001 3.000000e+000
      vertex   1.456413e+000 -3.589735e-001 0.000000e+000
      vertex   1.402524e+000 -5.319073e-001 3.000000e+000
    endloop
  endfacet
  facet normal -5.753982e-002 1.793012e-002 0.000000e+000
    outer loop
      vertex   1.402524e+000 -5.319073e-001 3.000000e+000
      vertex   1.456413e+000 -3.589735e-001 0.000000e+000
      vertex   1.402524e+000 -5.319073e-001 0.000000e+000
    endloop
  endfacet
  facet normal -9.118999e-001 4.104128e-001 0.000000e+000
    outer loop
      vertex   1.402524e+000 -5.319073e-001 3.000000e+000
      vertex   1.402524e+000 -5.319073e-001 0.000000e+000
      vertex   1.328184e+000 -6.970848e-001 3.000000e+000
    endloop
  endfacet
  facet normal -5.495907e-002 2.473507e-002 0.000000e+000
    outer loop
      vertex   1.328184e+000 -6.970848e-001 3.000000e+000
      vertex   1.402524e+000 -5.319073e-001 0.000000e+000
      vertex   1.328184e+000 -6.970848e-001 0.000000e+000
    endloop
  endfacet
  facet normal -8.557814e-001 5.173376e-001 0.000000e+000
    outer loop
      vertex   1.328184e+000 -6.970848e-001 3.000000e+000
      vertex   1.328184e+000 -6.970848e-001 0.000000e+000
      vertex   1.234476e+000 -8.520971e-001 3.000000e+000
    endloop
  endfacet
  facet normal -5.157684e-002 3.117927e-002 0.000000e+000
    outer loop
      vertex   1.234476e+000 -8.520971e-001 3.000000e+000
      vertex   1.328184e+000 -6.970848e-001 0.000000e+000
      vertex   1.234476e+000 -8.520971e-001 0.000000e+000
    endloop
  endfacet
  facet normal -7.871834e-001 6.167189e-001 0.000000e+000
    outer loop
      vertex   1.234476e+000 -8.520971e-001 3.000000e+000
      vertex   1.234476e+000 -8.520971e-001 0.000000e+000
      vertex   1.122766e+000 -9.946840e-001 3.000000e+000
    endloop
  endfacet
  facet normal -4.744256e-002 3.716888e-002 0.000000e+000
    outer loop
      vertex   1.122766e+000 -9.946840e-001 3.000000e+000
      vertex   1.234476e+000 -8.520971e-001 0.000000e+000
      vertex   1.122766e+000 -9.946840e-001 0.000000e+000
    endloop
  endfacet
  facet normal -7.071068e-001 7.071068e-001 0.000000e+000
    outer loop
      vertex   1.122766e+000 -9.946840e-001 3.000000e+000
      vertex   1.122766e+000 -9.946840e-001 0.000000e+000
      vertex   9.946840e-001 -1.122766e+000 3.000000e+000
    endloop
  endfacet
  facet normal -4.261644e-002 4.261644e-002 0.000000e+000
    outer loop
      vertex   9.946840e-001 -1.122766e+000 3.000000e+000
      vertex   1.122766e+000 -9.946840e-001 0.000000e+000
      vertex   9.946840e-001 -1.122766e+000 0.000000e+000
    endloop
  endfacet
  facet normal -6.167189e-001 7.871834e-001 0.000000e+000
    outer loop
      vertex   9.946840e-001 -1.122766e+000 3.000000e+000
      vertex   9.946840e-001 -1.122766e+000 0.000000e+000
      vertex   8.520971e-001 -1.234476e+000 3.000000e+000
    endloop
  endfacet
  facet normal -3.716888e-002 4.744256e-002 0.000000e+000
    outer loop
      vertex   8.520971e-001 -1.234476e+000 3.000000e+000
      vertex   9.946840e-001 -1.122766e+000 0.000000e+000
      vertex   8.520971e-001 -1.234476e+000 0.000000e+000
    endloop
  endfacet
  facet normal -5.173376e-001 8.557814e-001 0.000000e+000
    outer loop
      vertex   8.520971e-001 -1.234476e+000 3.000000e+000
      vertex   8.520971e-001 -1.234476e+000 0.000000e+000
      vertex   6.970848e-001 -1.328184e+000 3.000000e+000
    endloop
  endfacet
  facet normal -3.117927e-002 5.157684e-002 0.000000e+000
    outer loop
      vertex   6.970848e-001 -1.328184e+000 3.000000e+000
      vertex   8.520971e-001 -1.234476e+000 0.000000e+000
      vertex   6.970848e-001 -1.328184e+000 0.000000e+000
    endloop
  endfacet
  facet normal -4.104128e-001 9.118999e-001 0.000000e+000
    outer loop
      vertex   6.970848e-001 -1.328184e+000 3.000000e+000
      vertex   6.970848e-001 -1.328184e+000 0.000000e+000
      vertex   5.319073e-001 -1.402524e+000 3.000000e+000
    endloop
  endfacet
  facet normal -2.473507e-002 5.495907e-002 0.000000e+000
    outer loop
      vertex   5.319073e-001 -1.402524e+000 3.000000e+000
      vertex   6.970848e-001 -1.328184e+000 0.000000e+000
      vertex   5.319073e-001 -1.402524e+000 0.000000e+000
    endloop
  endfacet
  facet normal -2.975029e-001 9.547209e-001 0.000000e+000
    outer loop
      vertex   5.319073e-001 -1.402524e+000 3.000000e+000
      vertex   5.319073e-001 -1.402524e+000 0.000000e+000
      vertex   3.589735e-001 -1.456413e+000 3.000000e+000
    endloop
  endfacet
  facet normal -1.793012e-002 5.753982e-002 0.000000e+000
    outer loop
      vertex   3.589735e-001 -1.456413e+000 3.000000e+000
      vertex   5.319073e-001 -1.402524e+000 0.000000e+000
      vertex   3.589735e-001 -1.456413e+000 0.000000e+000
    endloop
  endfacet
  facet normal -1.802551e-001 9.836199e-001 0.000000e+000
    outer loop
      vertex   3.589735e-001 -1.456413e+000 3.000000e+000
      vertex   3.589735e-001 -1.456413e+000 0.000000e+000
      vertex   1.808050e-001 -1.489063e+000 3.000000e+000
    endloop
  endfacet
  facet normal -1.086375e-002 5.928153e-002 0.000000e+000
    outer loop
      vertex   1.808050e-001 -1.489063e+000 3.000000e+000
      vertex   3.589735e-001 -1.456413e+000 0.000000e+000
      vertex   1.808050e-001 -1.489063e+000 0.000000e+000
    endloop
  endfacet
  facet normal -6.037876e-002 9.981756e-001 0.000000e+000
    outer loop
      vertex   1.808050e-001 -1.489063e+000 3.000000e+000
      vertex   1.808050e-001 -1.489063e+000 0.000000e+000
      vertex   9.184851e-017 -1.500000e+000 3.000000e+000
    endloop
  endfacet
  facet normal -3.638952e-003 6.015879e-002 0.000000e+000
    outer loop
      vertex   9.184851e-017 -1.500000e+000 3.000000e+000
      vertex   1.808050e-001 -1.489063e+000 0.000000e+000
      vertex   9.184851e-017 -1.500000e+000 0.000000e+000
    endloop
  endfacet
  facet normal 6.037876e-002 9.981756e-001 0.000000e+000
    outer loop
      vertex   9.184851e-017 -1.500000e+000 3.000000e+000
      vertex   9.184851e-017 -1.500000e+000 0.000000e+000
      vertex   -1.808050e-001 -1.489063e+000 3.000000e+000
    endloop
  endfacet
  facet normal 3.638952e-003 6.015879e-002 0.000000e+000
    outer loop
      vertex   -1.808050e-001 -1.489063e+000 3.000000e+000
      vertex   9.184851e-017 -1.500000e+000 0.000000e+000
      vertex   -1.808050e-001 -1.489063e+000 0.000000e+000
    endloop
  endfacet
  facet normal 1.802551e-001 9.836199e-001 0.000000e+000
    outer loop
      vertex   -1.808050e-001 -1.489063e+000 3.000000e+000
      vertex   -1.808050e-001 -1.489063e+000 0.000000e+000
      vertex   -3.589735e-001 -1.456413e+000 3.000000e+000
    endloop
  endfacet
  facet normal 1.086375e-002 5.928153e-002 0.000000e+000
    outer loop
      vertex   -3.589735e-001 -1.456413e+000 3.000000e+000
      vertex   -1.808050e-001 -1.489063e+000 0.000000e+000
      vertex   -3.589735e-001 -1.456413e+000 0.000000e+000
    endloop
  endfacet
  facet normal 2.975029e-001 9.547209e-001 0.000000e+000
    outer loop
      vertex   -3.589735e-001 -1.456413e+000 3.000000e+000
      vertex   -3.589735e-001 -1.456413e+000 0.000000e+000
      vertex   -5.319073e-001 -1.402524e+000 3.000000e+000
    endloop
  endfacet
  facet normal 1.793012e-002 5.753982e-002 0.000000e+000
    outer loop
      vertex   -5.319073e-001 -1.402524e+000 3.000000e+000
      vertex   -3.589735e-001 -1.456413e+000 0.000000e+000
      vertex   -5.319073e-001 -1.402524e+000 0.000000e+000
    endloop
  endfacet
  facet normal 4.104128e-001 9.118999e-001 0.000000e+000
    outer loop
      vertex   -5.319073e-001 -1.402524e+000 3.000000e+000
      vertex   -5.319073e-001 -1.402524e+000 0.000000e+000
      vertex   -6.970848e-001 -1.328184e+000 3.000000e+000
    endloop
  endfacet
  facet normal 2.473507e-002 5.495907e-002 0.000000e+000
    outer loop
      vertex   -6.970848e-001 -1.328184e+000 3.000000e+000
      vertex   -5.319073e-001 -1.402524e+000 0.000000e+000
      vertex   -6.970848e-001 -1.328184e+000 0.000000e+000
    endloop
  endfacet
  facet normal 5.173376e-001 8.557814e-001 0.000000e+000
    outer loop
      vertex   -6.970848e-001 -1.328184e+000 3.000000e+000
      vertex   -6.970848e-001 -1.328184e+000 0.000000e+000
      vertex   -8.520971e-001 -1.234476e+000 3.000000e+000
    endloop
  endfacet
  facet normal 3.117927e-002 5.157684e-002 0.000000e+000
    outer loop
      vertex   -8.520971e-001 -1.234476e+000 3.000000e+000
      vertex   -6.970848e-001 -1.328184e+000 0.000000e+000
      vertex   -8.520971e-001 -1.234476e+000 0.000000e+000
    endloop
  endfacet
  facet normal 6.167189e-001 7.871834e-001 0.000000e+000
    outer loop
      vertex   -8.520971e-001 -1.234476e+000 3.000000e+000
      vertex   -8.520971e-001 -1.234476e+000 0.000000e+000
      vertex   -9.946840e-001 -1.122766e+000 3.000000e+000
    endloop
  endfacet
  facet normal 3.716888e-002 4.744256e-002 0.000000e+000
    outer loop
      vertex   -9.946840e-001 -1.122766e+000 3.000000e+000
      vertex   -8.520971e-001 -1.234476e+000 0.000000e+000
      vertex   -9.946840e-001 -1.122766e+000 0.000000e+000
    endloop
  endfacet
  facet normal 7.071068e-001 7.071068e-001 0.000000e+000
    outer loop
      vertex   -9.946840e-001 -1.122766e+000 3.000000e+000
      vertex   -9.946840e-001 -1.122766e+000 0.000000e+000
      vertex   -1.122766e+000 -9.946840e-001 3.000000e+000
    endloop
  endfacet
  facet normal 4.261644e-002 4.261644e-002 0.000000e+000
    outer loop
      vertex   -1.122766e+000 -9.946840e-001 3.000000e+000
      vertex   -9.946840e-001 -1.122766e+000 0.000000e+000
      vertex   -1.122766e+000 -9.946840e-001 0.000000e+000
    endloop
  endfacet
  facet normal 7.871834e-001 6.167189e-001 0.000000e+000
    outer loop
      vertex   -1.122766e+000 -9.946840e-001 3.000000e+000
      vertex   -1.122766e+000 -9.946840e-001 0.000000e+000
      vertex   -1.234476e+000 -8.520971e-001 3.000000e+000
    endloop
  endfacet
  facet normal 4.744256e-002 3.716888e-002 0.000000e+000
    outer loop
      vertex   -1.234476e+000 -8.520971e-001 3.000000e+000
      vertex   -1.122766e+000 -9.946840e-001 0.000000e+000
      vertex   -1.234476e+000 -8.520971e-001 0.000000e+000
    endloop
  endfacet
  facet normal 8.557814e-001 5.173376e-001 0.000000e+000
    outer loop
      vertex   -1.234476e+000 -8.520971e-001 3.000000e+000
      vertex   -1.234476e+000 -8.520971e-001 0.000000e+000
      vertex   -1.328184e+000 -6.970848e-001 3.000000e+000
    endloop
  endfacet
  facet normal 5.157684e-002 3.117927e-002 0.000000e+000
    outer loop
      vertex   -1.328184e+000 -6.970848e-001 3.000000e+000
      vertex   -1.234476e+000 -8.520971e-001 0.000000e+000
      vertex   -1.328184e+000 -6.970848e-001 0.000000e+000
    endloop
  endfacet
  facet normal 9.118999e-001 4.104128e-001 0.000000e+000
    outer loop
      vertex   -1.328184e+000 -6.970848e-001 3.000000e+000
      vertex   -1.328184e+000 -6.970848e-001 0.000000e+000
      vertex   -1.402524e+000 -5.319073e-001 3.000000e+000
    endloop
  endfacet
  facet normal 5.495907e-002 2.473507e-002 0.000000e+000
    outer loop
      vertex   -1.402524e+000 -5.319073e-001 3.000000e+000
      vertex   -1.328184e+000 -6.970848e-001 0.000000e+000
      vertex   -1.402524e+000 -5.319073e-001 0.000000e+000
    endloop
  endfacet
  facet normal 9.547209e-001 2.975029e-001 0.000000e+000
    outer loop
      vertex   -1.402524e+000 -5.319073e-001 3.000000e+000
      vertex   -1.402524e+000 -5.319073e-001 0.000000e+000
      vertex   -1.456413e+000 -3.589735e-001 3.000000e+000
    endloop
  endfacet
  facet normal 5.753982e-002 1.793012e-002 0.000000e+000
    outer loop
      vertex   -1.456413e+000 -3.589735e-001 3.000000e+000
      vertex   -1.402524e+000 -5.319073e-001 0.000000e+000
      vertex   -1.456413e+000 -3.589735e-001 0.000000e+000
    endloop
  endfacet
  facet normal 9.836199e-001 1.802551e-001 0.000000e+000
    outer loop
      vertex   -1.456413e+000 -3.589735e-001 3.000000e+000
      vertex   -1.456413e+000 -3.589735e-001 0.000000e+000
      vertex   -1.489063e+000 -1.808050e-001 3.000000e+000
    endloop
  endfacet
  facet normal 5.928153e-002 1.086375e-002 0.000000e+000
    outer loop
      vertex   -1.489063e+000 -1.808050e-001 3.000000e+000
      vertex   -1.456413e+000 -3.589735e-001 0.000000e+000
      vertex   -1.489063e+000 -1.808050e-001 0.000000e+000
    endloop
  endfacet
  facet normal 0.000000e+000 1.000000e+000 -0.000000e+000
    outer loop
      vertex   2.500000e+000 2.500000e+000 0.000000e+000
      vertex   -2.500000e+000 2.500000e+000 0.000000e+000
      vertex   2.500000e+000 2.500000e+000 3.000000e+000
    endloop
  endfacet
  facet normal 0.000000e+000 5.144957e-001 0.000000e+000
    outer loop
      vertex   2.500000e+000 2.500000e+000 3.000000e+000
      vertex   -2.500000e+000 2.500000e+000 0.000000e+000
      vertex   -2.500000e+000 2.500000e+000 3.000000e+000
    endloop
  endfacet
endsolid
