solid ascii
  facet normal 0.000000e+000 -1.000000e+000 0.000000e+000
    outer loop
      vertex   -1.000000e+001 6.100000e+001 -8.500000e+000
      vertex   -1.000000e+001 6.100000e+001 -1.500000e+000
      vertex   -1.400000e+001 6.100000e+001 -8.500000e+000
    endloop
  endfacet
  facet normal 0.000000e+000 -4.961389e-001 0.000000e+000
    outer loop
      vertex   -1.400000e+001 6.100000e+001 -8.500000e+000
      vertex   -1.000000e+001 6.100000e+001 -1.500000e+000
      vertex   -1.400000e+001 6.100000e+001 -1.500000e+000
    endloop
  endfacet
  facet normal -0.000000e+000 -0.000000e+000 -1.000000e+000
    outer loop
      vertex   -1.000000e+001 6.400000e+001 -8.500000e+000
      vertex   -1.000000e+001 6.100000e+001 -8.500000e+000
      vertex   -1.400000e+001 6.400000e+001 -8.500000e+000
    endloop
  endfacet
  facet normal 0.000000e+000 0.000000e+000 -8.000000e-001
    outer loop
      vertex   -1.400000e+001 6.400000e+001 -8.500000e+000
      vertex   -1.000000e+001 6.100000e+001 -8.500000e+000
      vertex   -1.400000e+001 6.100000e+001 -8.500000e+000
    endloop
  endfacet
  facet normal 0.000000e+000 1.000000e+000 0.000000e+000
    outer loop
      vertex   -1.000000e+001 6.400000e+001 -1.500000e+000
      vertex   -1.000000e+001 6.400000e+001 -8.500000e+000
      vertex   -1.400000e+001 6.400000e+001 -1.500000e+000
    endloop
  endfacet
  facet normal 0.000000e+000 4.961389e-001 0.000000e+000
    outer loop
      vertex   -1.400000e+001 6.400000e+001 -1.500000e+000
      vertex   -1.000000e+001 6.400000e+001 -8.500000e+000
      vertex   -1.400000e+001 6.400000e+001 -8.500000e+000
    endloop
  endfacet
  facet normal 0.000000e+000 -0.000000e+000 1.000000e+000
    outer loop
      vertex   -1.000000e+001 6.100000e+001 -1.500000e+000
      vertex   -1.000000e+001 6.400000e+001 -1.500000e+000
      vertex   -1.400000e+001 6.100000e+001 -1.500000e+000
    endloop
  endfacet
  facet normal 0.000000e+000 0.000000e+000 8.000000e-001
    outer loop
      vertex   -1.400000e+001 6.100000e+001 -1.500000e+000
      vertex   -1.000000e+001 6.400000e+001 -1.500000e+000
      vertex   -1.400000e+001 6.400000e+001 -1.500000e+000
    endloop
  endfacet
  facet normal -1.000000e+000 -0.000000e+000 -0.000000e+000
    outer loop
      vertex   -1.400000e+001 6.400000e+001 -1.500000e+000
      vertex   -1.400000e+001 6.400000e+001 -8.500000e+000
      vertex   -1.400000e+001 6.100000e+001 -1.500000e+000
    endloop
  endfacet
  facet normal -3.939193e-001 0.000000e+000 0.000000e+000
    outer loop
      vertex   -1.400000e+001 6.100000e+001 -1.500000e+000
      vertex   -1.400000e+001 6.400000e+001 -8.500000e+000
      vertex   -1.400000e+001 6.100000e+001 -8.500000e+000
    endloop
  endfacet
  facet normal 0.000000e+000 -1.000000e+000 0.000000e+000
    outer loop
      vertex   -1.000000e+001 -6.400000e+001 -8.500000e+000
      vertex   -1.000000e+001 -6.400000e+001 -1.500000e+000
      vertex   -1.400000e+001 -6.400000e+001 -8.500000e+000
    endloop
  endfacet
  facet normal 0.000000e+000 -4.961389e-001 0.000000e+000
    outer loop
      vertex   -1.400000e+001 -6.400000e+001 -8.500000e+000
      vertex   -1.000000e+001 -6.400000e+001 -1.500000e+000
      vertex   -1.400000e+001 -6.400000e+001 -1.500000e+000
    endloop
  endfacet
  facet normal -0.000000e+000 -0.000000e+000 -1.000000e+000
    outer loop
      vertex   -1.000000e+001 -6.100000e+001 -8.500000e+000
      vertex   -1.000000e+001 -6.400000e+001 -8.500000e+000
      vertex   -1.400000e+001 -6.100000e+001 -8.500000e+000
    endloop
  endfacet
  facet normal 0.000000e+000 0.000000e+000 -8.000000e-001
    outer loop
      vertex   -1.400000e+001 -6.100000e+001 -8.500000e+000
      vertex   -1.000000e+001 -6.400000e+001 -8.500000e+000
      vertex   -1.400000e+001 -6.400000e+001 -8.500000e+000
    endloop
  endfacet
  facet normal 0.000000e+000 1.000000e+000 0.000000e+000
    outer loop
      vertex   -1.000000e+001 -6.100000e+001 -1.500000e+000
      vertex   -1.000000e+001 -6.100000e+001 -8.500000e+000
      vertex   -1.400000e+001 -6.100000e+001 -1.500000e+000
    endloop
  endfacet
  facet normal 0.000000e+000 4.961389e-001 0.000000e+000
    outer loop
      vertex   -1.400000e+001 -6.100000e+001 -1.500000e+000
      vertex   -1.000000e+001 -6.100000e+001 -8.500000e+000
      vertex   -1.400000e+001 -6.100000e+001 -8.500000e+000
    endloop
  endfacet
  facet normal 0.000000e+000 -0.000000e+000 1.000000e+000
    outer loop
      vertex   -1.000000e+001 -6.400000e+001 -1.500000e+000
      vertex   -1.000000e+001 -6.100000e+001 -1.500000e+000
      vertex   -1.400000e+001 -6.400000e+001 -1.500000e+000
    endloop
  endfacet
  facet normal 0.000000e+000 0.000000e+000 8.000000e-001
    outer loop
      vertex   -1.400000e+001 -6.400000e+001 -1.500000e+000
      vertex   -1.000000e+001 -6.100000e+001 -1.500000e+000
      vertex   -1.400000e+001 -6.100000e+001 -1.500000e+000
    endloop
  endfacet
  facet normal -1.000000e+000 -0.000000e+000 -0.000000e+000
    outer loop
      vertex   -1.400000e+001 -6.100000e+001 -1.500000e+000
      vertex   -1.400000e+001 -6.100000e+001 -8.500000e+000
      vertex   -1.400000e+001 -6.400000e+001 -1.500000e+000
    endloop
  endfacet
  facet normal -3.939193e-001 0.000000e+000 0.000000e+000
    outer loop
      vertex   -1.400000e+001 -6.400000e+001 -1.500000e+000
      vertex   -1.400000e+001 -6.100000e+001 -8.500000e+000
      vertex   -1.400000e+001 -6.400000e+001 -8.500000e+000
    endloop
  endfacet
  facet normal 0.000000e+000 -1.000000e+000 0.000000e+000
    outer loop
      vertex   1.160000e+002 -3.075610e+001 -1.500000e+000
      vertex   1.160000e+002 -3.075610e+001 -8.500000e+000
      vertex   1.200000e+002 -3.075610e+001 -1.500000e+000
    endloop
  endfacet
  facet normal 0.000000e+000 -4.961389e-001 -0.000000e+000
    outer loop
      vertex   1.200000e+002 -3.075610e+001 -1.500000e+000
      vertex   1.160000e+002 -3.075610e+001 -8.500000e+000
      vertex   1.200000e+002 -3.075610e+001 -8.500000e+000
    endloop
  endfacet
  facet normal -0.000000e+000 0.000000e+000 1.000000e+000
    outer loop
      vertex   1.160000e+002 -2.775610e+001 -1.500000e+000
      vertex   1.160000e+002 -3.075610e+001 -1.500000e+000
      vertex   1.200000e+002 -2.775610e+001 -1.500000e+000
    endloop
  endfacet
  facet normal 0.000000e+000 0.000000e+000 8.000000e-001
    outer loop
      vertex   1.200000e+002 -2.775610e+001 -1.500000e+000
      vertex   1.160000e+002 -3.075610e+001 -1.500000e+000
      vertex   1.200000e+002 -3.075610e+001 -1.500000e+000
    endloop
  endfacet
  facet normal 0.000000e+000 1.000000e+000 0.000000e+000
    outer loop
      vertex   1.160000e+002 -2.775610e+001 -8.500000e+000
      vertex   1.160000e+002 -2.775610e+001 -1.500000e+000
      vertex   1.200000e+002 -2.775610e+001 -8.500000e+000
    endloop
  endfacet
  facet normal 0.000000e+000 4.961389e-001 -0.000000e+000
    outer loop
      vertex   1.200000e+002 -2.775610e+001 -8.500000e+000
      vertex   1.160000e+002 -2.775610e+001 -1.500000e+000
      vertex   1.200000e+002 -2.775610e+001 -1.500000e+000
    endloop
  endfacet
  facet normal 0.000000e+000 0.000000e+000 -1.000000e+000
    outer loop
      vertex   1.160000e+002 -3.075610e+001 -8.500000e+000
      vertex   1.160000e+002 -2.775610e+001 -8.500000e+000
      vertex   1.200000e+002 -3.075610e+001 -8.500000e+000
    endloop
  endfacet
  facet normal 0.000000e+000 0.000000e+000 -8.000000e-001
    outer loop
      vertex   1.200000e+002 -3.075610e+001 -8.500000e+000
      vertex   1.160000e+002 -2.775610e+001 -8.500000e+000
      vertex   1.200000e+002 -2.775610e+001 -8.500000e+000
    endloop
  endfacet
  facet normal 1.000000e+000 0.000000e+000 -0.000000e+000
    outer loop
      vertex   1.200000e+002 -2.775610e+001 -8.500000e+000
      vertex   1.200000e+002 -2.775610e+001 -1.500000e+000
      vertex   1.200000e+002 -3.075610e+001 -8.500000e+000
    endloop
  endfacet
  facet normal 3.939193e-001 0.000000e+000 0.000000e+000
    outer loop
      vertex   1.200000e+002 -3.075610e+001 -8.500000e+000
      vertex   1.200000e+002 -2.775610e+001 -1.500000e+000
      vertex   1.200000e+002 -3.075610e+001 -1.500000e+000
    endloop
  endfacet
  facet normal 0.000000e+000 -1.000000e+000 0.000000e+000
    outer loop
      vertex   1.160000e+002 2.775610e+001 -1.500000e+000
      vertex   1.160000e+002 2.775610e+001 -8.500000e+000
      vertex   1.200000e+002 2.775610e+001 -1.500000e+000
    endloop
  endfacet
  facet normal 0.000000e+000 -4.961389e-001 -0.000000e+000
    outer loop
      vertex   1.200000e+002 2.775610e+001 -1.500000e+000
      vertex   1.160000e+002 2.775610e+001 -8.500000e+000
      vertex   1.200000e+002 2.775610e+001 -8.500000e+000
    endloop
  endfacet
  facet normal -0.000000e+000 0.000000e+000 1.000000e+000
    outer loop
      vertex   1.160000e+002 3.075610e+001 -1.500000e+000
      vertex   1.160000e+002 2.775610e+001 -1.500000e+000
      vertex   1.200000e+002 3.075610e+001 -1.500000e+000
    endloop
  endfacet
  facet normal 0.000000e+000 0.000000e+000 8.000000e-001
    outer loop
      vertex   1.200000e+002 3.075610e+001 -1.500000e+000
      vertex   1.160000e+002 2.775610e+001 -1.500000e+000
      vertex   1.200000e+002 2.775610e+001 -1.500000e+000
    endloop
  endfacet
  facet normal 0.000000e+000 1.000000e+000 0.000000e+000
    outer loop
      vertex   1.160000e+002 3.075610e+001 -8.500000e+000
      vertex   1.160000e+002 3.075610e+001 -1.500000e+000
      vertex   1.200000e+002 3.075610e+001 -8.500000e+000
    endloop
  endfacet
  facet normal 0.000000e+000 4.961389e-001 -0.000000e+000
    outer loop
      vertex   1.200000e+002 3.075610e+001 -8.500000e+000
      vertex   1.160000e+002 3.075610e+001 -1.500000e+000
      vertex   1.200000e+002 3.075610e+001 -1.500000e+000
    endloop
  endfacet
  facet normal 0.000000e+000 0.000000e+000 -1.000000e+000
    outer loop
      vertex   1.160000e+002 2.775610e+001 -8.500000e+000
      vertex   1.160000e+002 3.075610e+001 -8.500000e+000
      vertex   1.200000e+002 2.775610e+001 -8.500000e+000
    endloop
  endfacet
  facet normal 0.000000e+000 0.000000e+000 -8.000000e-001
    outer loop
      vertex   1.200000e+002 2.775610e+001 -8.500000e+000
      vertex   1.160000e+002 3.075610e+001 -8.500000e+000
      vertex   1.200000e+002 3.075610e+001 -8.500000e+000
    endloop
  endfacet
  facet normal 1.000000e+000 0.000000e+000 -0.000000e+000
    outer loop
      vertex   1.200000e+002 3.075610e+001 -8.500000e+000
      vertex   1.200000e+002 3.075610e+001 -1.500000e+000
      vertex   1.200000e+002 2.775610e+001 -8.500000e+000
    endloop
  endfacet
  facet normal 3.939193e-001 0.000000e+000 0.000000e+000
    outer loop
      vertex   1.200000e+002 2.775610e+001 -8.500000e+000
      vertex   1.200000e+002 3.075610e+001 -1.500000e+000
      vertex   1.200000e+002 2.775610e+001 -1.500000e+000
    endloop
  endfacet
  facet normal 1.000000e+000 0.000000e+000 0.000000e+000
    outer loop
      vertex   1.150000e+002 2.729730e+001 0.000000e+000
      vertex   1.150000e+002 -2.729730e+001 0.000000e+000
      vertex   1.150000e+002 2.729730e+001 -1.000000e+001
    endloop
  endfacet
  facet normal 1.801708e-001 0.000000e+000 0.000000e+000
    outer loop
      vertex   1.150000e+002 2.729730e+001 -1.000000e+001
      vertex   1.150000e+002 -2.729730e+001 0.000000e+000
      vertex   1.150000e+002 -2.729730e+001 -1.000000e+001
    endloop
  endfacet
  facet normal -2.055578e-001 -0.000000e+000 0.000000e+000
    outer loop
      vertex   4.500000e+001 4.810811e+001 -1.000000e+001
      vertex   4.500000e+001 0.000000e+000 -1.600000e+001
      vertex   4.500000e+001 0.000000e+000 -6.000000e+000
    endloop
  endfacet
  facet normal -9.965612e-001 0.000000e+000 -0.000000e+000
    outer loop
      vertex   4.500000e+001 0.000000e+000 -6.000000e+000
      vertex   4.500000e+001 0.000000e+000 -1.600000e+001
      vertex   4.500000e+001 -4.810811e+001 -1.000000e+001
    endloop
  endfacet
  facet normal -2.055578e-001 -0.000000e+000 0.000000e+000
    outer loop
      vertex   4.500000e+001 0.000000e+000 -6.000000e+000
      vertex   4.500000e+001 -4.810811e+001 -1.000000e+001
      vertex   4.500000e+001 -4.810811e+001 2.081668e-016
    endloop
  endfacet
  facet normal -2.055578e-001 0.000000e+000 0.000000e+000
    outer loop
      vertex   4.500000e+001 0.000000e+000 -6.000000e+000
      vertex   4.500000e+001 4.810811e+001 2.081668e-016
      vertex   4.500000e+001 4.810811e+001 -1.000000e+001
    endloop
  endfacet
  facet normal 9.923121e-001 0.000000e+000 0.000000e+000
    outer loop
      vertex   5.000000e+001 -4.662162e+001 -1.853933e-001
      vertex   5.000000e+001 -4.662162e+001 -1.000000e+001
      vertex   5.000000e+001 0.000000e+000 -6.000000e+000
    endloop
  endfacet
  facet normal 3.946127e-003 0.000000e+000 0.000000e+000
    outer loop
      vertex   5.000000e+001 0.000000e+000 -6.000000e+000
      vertex   5.000000e+001 -4.662162e+001 -1.000000e+001
      vertex   5.000000e+001 -4.662162e+001 -1.018539e+001
    endloop
  endfacet
  facet normal 9.959946e-001 0.000000e+000 0.000000e+000
    outer loop
      vertex   5.000000e+001 0.000000e+000 -6.000000e+000
      vertex   5.000000e+001 -4.662162e+001 -1.018539e+001
      vertex   5.000000e+001 0.000000e+000 -1.600000e+001
    endloop
  endfacet
  facet normal 9.923121e-001 0.000000e+000 0.000000e+000
    outer loop
      vertex   5.000000e+001 0.000000e+000 -1.600000e+001
      vertex   5.000000e+001 4.662162e+001 -1.018539e+001
      vertex   5.000000e+001 0.000000e+000 -6.000000e+000
    endloop
  endfacet
  facet normal 3.946127e-003 0.000000e+000 0.000000e+000
    outer loop
      vertex   5.000000e+001 0.000000e+000 -6.000000e+000
      vertex   5.000000e+001 4.662162e+001 -1.018539e+001
      vertex   5.000000e+001 4.662162e+001 -1.000000e+001
    endloop
  endfacet
  facet normal 2.081331e-001 -0.000000e+000 0.000000e+000
    outer loop
      vertex   5.000000e+001 0.000000e+000 -6.000000e+000
      vertex   5.000000e+001 4.662162e+001 -1.000000e+001
      vertex   5.000000e+001 4.662162e+001 -1.853933e-001
    endloop
  endfacet
  facet normal 2.808988e-001 -9.597374e-001 0.000000e+000
    outer loop
      vertex   1.160000e+002 -3.251220e+001 0.000000e+000
      vertex   7.900000e+001 -4.334146e+001 0.000000e+000
      vertex   1.160000e+002 -3.251220e+001 -1.000000e+001
    endloop
  endfacet
  facet normal 7.052789e-002 -2.409703e-001 0.000000e+000
    outer loop
      vertex   1.160000e+002 -3.251220e+001 -1.000000e+001
      vertex   7.900000e+001 -4.334146e+001 0.000000e+000
      vertex   7.900000e+001 -4.334146e+001 -1.000000e+001
    endloop
  endfacet
  facet normal 2.719005e-001 -9.289937e-001 0.000000e+000
    outer loop
      vertex   7.900000e+001 -4.334146e+001 -1.000000e+001
      vertex   7.900000e+001 -4.334146e+001 0.000000e+000
      vertex   4.200000e+001 -5.417073e+001 0.000000e+000
    endloop
  endfacet
  facet normal 7.052787e-002 -2.409703e-001 0.000000e+000
    outer loop
      vertex   7.900000e+001 -4.334146e+001 -1.000000e+001
      vertex   4.200000e+001 -5.417073e+001 0.000000e+000
      vertex   4.200000e+001 -5.417073e+001 -1.000000e+001
    endloop
  endfacet
  facet normal 2.719006e-001 -9.289936e-001 0.000000e+000
    outer loop
      vertex   4.200000e+001 -5.417073e+001 -1.000000e+001
      vertex   4.200000e+001 -5.417073e+001 0.000000e+000
      vertex   5.000000e+000 -6.500000e+001 0.000000e+000
    endloop
  endfacet
  facet normal 7.052789e-002 -2.409703e-001 0.000000e+000
    outer loop
      vertex   4.200000e+001 -5.417073e+001 -1.000000e+001
      vertex   5.000000e+000 -6.500000e+001 0.000000e+000
      vertex   5.000000e+000 -6.500000e+001 -1.000000e+001
    endloop
  endfacet
  facet normal -2.757459e-001 9.275088e-001 8.845414e-008
    outer loop
      vertex   8.000000e+001 -3.770270e+001 -1.000000e+001
      vertex   5.000000e+001 -4.662162e+001 -1.000000e+001
      vertex   7.750000e+001 -3.844595e+001 0.000000e+000
    endloop
  endfacet
  facet normal -9.205363e-002 3.096350e-001 0.000000e+000
    outer loop
      vertex   7.750000e+001 -3.844595e+001 0.000000e+000
      vertex   5.000000e+001 -4.662162e+001 -1.000000e+001
      vertex   5.000000e+001 -4.662162e+001 -1.853933e-001
    endloop
  endfacet
  facet normal -1.841452e-003 6.193974e-003 5.882249e-008
    outer loop
      vertex   7.750000e+001 -3.844595e+001 0.000000e+000
      vertex   5.000000e+001 -4.662162e+001 -1.853933e-001
      vertex   4.500000e+001 -4.810811e+001 2.081668e-016
    endloop
  endfacet
  facet normal -2.757459e-001 9.275088e-001 8.164997e-008
    outer loop
      vertex   7.750000e+001 -3.844595e+001 0.000000e+000
      vertex   1.100000e+002 -2.878378e+001 0.000000e+000
      vertex   8.000000e+001 -3.770270e+001 -1.000000e+001
    endloop
  endfacet
  facet normal -8.673187e-002 2.917345e-001 -5.551115e-017
    outer loop
      vertex   8.000000e+001 -3.770270e+001 -1.000000e+001
      vertex   1.100000e+002 -2.878378e+001 0.000000e+000
      vertex   1.100000e+002 -2.878378e+001 -1.000000e+001
    endloop
  endfacet
  facet normal -0.000000e+000 1.000000e+000 0.000000e+000
    outer loop
      vertex   -1.000000e+001 -6.000000e+001 0.000000e+000
      vertex   5.000000e+000 -6.000000e+001 0.000000e+000
      vertex   -1.000000e+001 -6.000000e+001 -1.000000e+001
    endloop
  endfacet
  facet normal 0.000000e+000 5.547002e-001 0.000000e+000
    outer loop
      vertex   -1.000000e+001 -6.000000e+001 -1.000000e+001
      vertex   5.000000e+000 -6.000000e+001 0.000000e+000
      vertex   5.000000e+000 -6.000000e+001 -1.000000e+001
    endloop
  endfacet
  facet normal -2.849703e-001 9.585364e-001 0.000000e+000
    outer loop
      vertex   4.500000e+001 -4.810811e+001 -1.000000e+001
      vertex   5.000000e+000 -6.000000e+001 -1.000000e+001
      vertex   4.500000e+001 -4.810811e+001 2.081668e-016
    endloop
  endfacet
  facet normal -6.640847e-002 2.233739e-001 -5.551115e-017
    outer loop
      vertex   4.500000e+001 -4.810811e+001 2.081668e-016
      vertex   5.000000e+000 -6.000000e+001 -1.000000e+001
      vertex   5.000000e+000 -6.000000e+001 0.000000e+000
    endloop
  endfacet
  facet normal 2.849706e-001 -9.585363e-001 0.000000e+000
    outer loop
      vertex   5.000000e+001 -4.662162e+001 -1.000000e+001
      vertex   4.500000e+001 -4.810811e+001 -1.000000e+001
      vertex   5.000000e+001 -4.662162e+001 -1.018539e+001
    endloop
  endfacet
  facet normal -1.118362e-007 1.217640e-001 9.763057e-001
    outer loop
      vertex   4.878224e+001 -3.686857e+001 -1.401785e+000
      vertex   4.500000e+001 0.000000e+000 -6.000000e+000
      vertex   4.540821e+001 -3.783606e+001 -1.281121e+000
    endloop
  endfacet
  facet normal 9.297758e-009 6.200161e-003 4.971300e-002
    outer loop
      vertex   4.540821e+001 -3.783606e+001 -1.281121e+000
      vertex   4.500000e+001 0.000000e+000 -6.000000e+000
      vertex   4.500000e+001 -4.810811e+001 2.081668e-016
    endloop
  endfacet
  facet normal -1.682380e-008 3.853454e-002 3.089706e-001
    outer loop
      vertex   4.540821e+001 -3.783606e+001 -1.281121e+000
      vertex   4.500000e+001 -4.810811e+001 2.081668e-016
      vertex   4.651076e+001 -4.168111e+001 -8.015699e-001
    endloop
  endfacet
  facet normal -3.333161e-008 9.219330e-002 7.392075e-001
    outer loop
      vertex   4.651076e+001 -4.168111e+001 -8.015699e-001
      vertex   4.500000e+001 -4.810811e+001 2.081668e-016
      vertex   5.000000e+001 -4.662162e+001 -1.853933e-001
    endloop
  endfacet
  facet normal 2.563857e-008 1.170836e-001 9.387780e-001
    outer loop
      vertex   4.651076e+001 -4.168111e+001 -8.015699e-001
      vertex   5.000000e+001 -4.662162e+001 -1.853933e-001
      vertex   4.988479e+001 -4.071362e+001 -9.222342e-001
    endloop
  endfacet
  facet normal -5.731502e-008 2.741887e-003 2.198449e-002
    outer loop
      vertex   4.988479e+001 -4.071362e+001 -9.222342e-001
      vertex   5.000000e+001 -4.662162e+001 -1.853933e-001
      vertex   5.000000e+001 0.000000e+000 -6.000000e+000
    endloop
  endfacet
  facet normal 1.077839e-007 3.420442e-002 2.742517e-001
    outer loop
      vertex   4.988479e+001 -4.071362e+001 -9.222342e-001
      vertex   5.000000e+001 0.000000e+000 -6.000000e+000
      vertex   4.878224e+001 -3.686857e+001 -1.401785e+000
    endloop
  endfacet
  facet normal 1.387779e-017 1.656043e-002 1.327818e-001
    outer loop
      vertex   4.878224e+001 -3.686857e+001 -1.401785e+000
      vertex   5.000000e+001 0.000000e+000 -6.000000e+000
      vertex   4.500000e+001 0.000000e+000 -6.000000e+000
    endloop
  endfacet
  facet normal 2.944024e-008 -1.185539e-001 -9.505670e-001
    outer loop
      vertex   4.500000e+001 -4.810811e+001 -1.000000e+001
      vertex   4.500000e+001 0.000000e+000 -1.600000e+001
      vertex   5.000000e+001 -4.662162e+001 -1.018539e+001
    endloop
  endfacet
  facet normal 0.000000e+000 -1.309685e-002 -1.050107e-001
    outer loop
      vertex   5.000000e+001 -4.662162e+001 -1.018539e+001
      vertex   4.500000e+001 0.000000e+000 -1.600000e+001
      vertex   5.000000e+001 0.000000e+000 -1.600000e+001
    endloop
  endfacet
  facet normal -1.000000e+000 0.000000e+000 0.000000e+000
    outer loop
      vertex   1.100000e+002 2.878378e+001 -1.000000e+001
      vertex   1.100000e+002 0.000000e+000 -1.000000e+001
      vertex   1.100000e+002 2.878378e+001 0.000000e+000
    endloop
  endfacet
  facet normal -3.281766e-001 -0.000000e+000 0.000000e+000
    outer loop
      vertex   1.100000e+002 2.878378e+001 0.000000e+000
      vertex   1.100000e+002 0.000000e+000 -1.000000e+001
      vertex   1.100000e+002 0.000000e+000 0.000000e+000
    endloop
  endfacet
  facet normal -9.446164e-001 0.000000e+000 -0.000000e+000
    outer loop
      vertex   1.100000e+002 0.000000e+000 0.000000e+000
      vertex   1.100000e+002 0.000000e+000 -1.000000e+001
      vertex   1.100000e+002 -2.878378e+001 -1.000000e+001
    endloop
  endfacet
  facet normal -3.281766e-001 -0.000000e+000 0.000000e+000
    outer loop
      vertex   1.100000e+002 0.000000e+000 0.000000e+000
      vertex   1.100000e+002 -2.878378e+001 -1.000000e+001
      vertex   1.100000e+002 -2.878378e+001 0.000000e+000
    endloop
  endfacet
  facet normal -9.590567e-001 2.750052e-001 -9.028366e-008
    outer loop
      vertex   4.583965e+001 4.241968e+001 1.420711e+001
      vertex   4.621674e+001 4.373476e+001 1.082421e+001
      vertex   4.428556e+001 3.699993e+001 1.236020e+001
    endloop
  endfacet
  facet normal -7.932974e-001 2.274743e-001 -4.933341e-007
    outer loop
      vertex   4.428556e+001 3.699993e+001 1.236020e+001
      vertex   4.621674e+001 4.373476e+001 1.082421e+001
      vertex   4.466265e+001 3.831502e+001 8.977304e+000
    endloop
  endfacet
  facet normal 3.603932e-001 -1.033382e-001 0.000000e+000
    outer loop
      vertex   4.878224e+001 3.686857e+001 1.003156e+001
      vertex   4.878224e+001 3.686857e+001 -1.401785e+000
      vertex   4.885250e+001 3.711360e+001 9.401262e+000
    endloop
  endfacet
  facet normal 3.490412e-001 -1.000856e-001 5.579826e-008
    outer loop
      vertex   4.885250e+001 3.711360e+001 9.401262e+000
      vertex   4.878224e+001 3.686857e+001 -1.401785e+000
      vertex   4.988479e+001 4.071362e+001 -9.222342e-001
    endloop
  endfacet
  facet normal 9.607864e-001 -2.755006e-001 -1.387779e-017
    outer loop
      vertex   4.885250e+001 3.711360e+001 9.401262e+000
      vertex   4.988479e+001 4.071362e+001 -9.222342e-001
      vertex   4.988479e+001 4.071362e+001 1.062806e+001
    endloop
  endfacet
  facet normal 9.612619e-001 -2.756367e-001 0.000000e+000
    outer loop
      vertex   1.137712e+002 1.823328e+001 0.000000e+000
      vertex   1.148738e+002 2.207833e+001 0.000000e+000
      vertex   1.137712e+002 1.823328e+001 1.660761e+001
    endloop
  endfacet
  facet normal 9.575152e-001 -2.745624e-001 0.000000e+000
    outer loop
      vertex   1.137712e+002 1.823328e+001 1.660761e+001
      vertex   1.148738e+002 2.207833e+001 0.000000e+000
      vertex   1.148738e+002 2.207833e+001 1.720410e+001
    endloop
  endfacet
  facet normal 5.783187e-001 -1.658297e-001 -4.697750e-007
    outer loop
      vertex   1.137712e+002 1.823328e+001 1.660761e+001
      vertex   1.148738e+002 2.207833e+001 1.720410e+001
      vertex   1.150185e+002 2.258297e+001 2.120711e+001
    endloop
  endfacet
  facet normal 4.732077e-001 -1.356900e-001 -3.495661e-007
    outer loop
      vertex   1.150185e+002 2.258297e+001 2.120711e+001
      vertex   1.148738e+002 2.207833e+001 1.720410e+001
      vertex   1.153956e+002 2.389805e+001 1.782421e+001
    endloop
  endfacet
  facet normal 4.413370e-001 -1.265518e-001 4.551088e-007
    outer loop
      vertex   1.150185e+002 2.258297e+001 2.120711e+001
      vertex   1.134644e+002 1.716322e+001 1.936020e+001
      vertex   1.137712e+002 1.823328e+001 1.660761e+001
    endloop
  endfacet
  facet normal 1.738383e-001 2.724735e-001 -9.458489e-001
    outer loop
      vertex   4.547847e+001 3.808109e+001 9.059855e+000
      vertex   4.466265e+001 3.831502e+001 8.977304e+000
      vertex   4.651076e+001 4.168111e+001 1.028665e+001
    endloop
  endfacet
  facet normal 1.011450e-001 1.585350e-001 -5.503286e-001
    outer loop
      vertex   4.651076e+001 4.168111e+001 1.028665e+001
      vertex   4.466265e+001 3.831502e+001 8.977304e+000
      vertex   4.621674e+001 4.373476e+001 1.082421e+001
    endloop
  endfacet
  facet normal 1.615840e-001 2.532665e-001 -8.791734e-001
    outer loop
      vertex   4.651076e+001 4.168111e+001 1.028665e+001
      vertex   4.621674e+001 4.373476e+001 1.082421e+001
      vertex   4.988479e+001 4.071362e+001 1.062806e+001
    endloop
  endfacet
  facet normal 8.252787e-002 1.293540e-001 -4.490319e-001
    outer loop
      vertex   4.988479e+001 4.071362e+001 1.062806e+001
      vertex   4.621674e+001 4.373476e+001 1.082421e+001
      vertex   8.080615e+001 3.381641e+001 1.432421e+001
    endloop
  endfacet
  facet normal 3.192982e-002 5.004674e-002 -1.737293e-001
    outer loop
      vertex   4.988479e+001 4.071362e+001 1.062806e+001
      vertex   8.080615e+001 3.381641e+001 1.432421e+001
      vertex   7.965997e+001 2.827970e+001 1.251858e+001
    endloop
  endfacet
  facet normal 1.733670e-001 2.717351e-001 -9.432850e-001
    outer loop
      vertex   7.965997e+001 2.827970e+001 1.251858e+001
      vertex   8.080615e+001 3.381641e+001 1.432421e+001
      vertex   1.114997e+002 2.304582e+001 1.686269e+001
    endloop
  endfacet
  facet normal 2.104175e-002 3.298080e-002 -1.144876e-001
    outer loop
      vertex   7.965997e+001 2.827970e+001 1.251858e+001
      vertex   1.114997e+002 2.304582e+001 1.686269e+001
      vertex   1.104674e+002 1.944580e+001 1.563590e+001
    endloop
  endfacet
  facet normal 1.061354e-002 1.663564e-002 -5.774795e-002
    outer loop
      vertex   8.080615e+001 3.381641e+001 1.432421e+001
      vertex   1.153956e+002 2.389805e+001 1.782421e+001
      vertex   1.114997e+002 2.304582e+001 1.686269e+001
    endloop
  endfacet
  facet normal 8.441553e-002 1.323128e-001 -4.593024e-001
    outer loop
      vertex   1.114997e+002 2.304582e+001 1.686269e+001
      vertex   1.153956e+002 2.389805e+001 1.782421e+001
      vertex   1.148738e+002 2.207833e+001 1.720410e+001
    endloop
  endfacet
  facet normal 2.119524e-002 3.322138e-002 -1.153227e-001
    outer loop
      vertex   7.965997e+001 2.827970e+001 1.251858e+001
      vertex   4.885250e+001 3.711360e+001 9.401262e+000
      vertex   4.988479e+001 4.071362e+001 1.062806e+001
    endloop
  endfacet
  facet normal -2.754752e-001 -9.606940e-001 0.000000e+000
    outer loop
      vertex   4.540821e+001 3.783606e+001 -1.281121e+000
      vertex   4.878224e+001 3.686857e+001 -1.401785e+000
      vertex   4.540821e+001 3.783606e+001 9.690157e+000
    endloop
  endfacet
  facet normal -2.696103e-001 -9.402407e-001 1.387779e-017
    outer loop
      vertex   4.540821e+001 3.783606e+001 9.690157e+000
      vertex   4.878224e+001 3.686857e+001 -1.401785e+000
      vertex   4.878224e+001 3.686857e+001 1.003156e+001
    endloop
  endfacet
  facet normal 2.194427e-001 8.969659e-001 3.731515e-001
    outer loop
      vertex   1.150185e+002 2.258297e+001 2.120711e+001
      vertex   1.153956e+002 2.389805e+001 1.782421e+001
      vertex   8.042905e+001 3.250132e+001 1.770711e+001
    endloop
  endfacet
  facet normal 2.203179e-001 9.005433e-001 3.746408e-001
    outer loop
      vertex   8.042905e+001 3.250132e+001 1.770711e+001
      vertex   1.153956e+002 2.389805e+001 1.782421e+001
      vertex   8.080615e+001 3.381641e+001 1.432421e+001
    endloop
  endfacet
  facet normal 2.194426e-001 8.969657e-001 3.731524e-001
    outer loop
      vertex   8.042905e+001 3.250132e+001 1.770711e+001
      vertex   8.080615e+001 3.381641e+001 1.432421e+001
      vertex   4.583965e+001 4.241968e+001 1.420711e+001
    endloop
  endfacet
  facet normal 2.203179e-001 9.005433e-001 3.746406e-001
    outer loop
      vertex   4.583965e+001 4.241968e+001 1.420711e+001
      vertex   8.080615e+001 3.381641e+001 1.432421e+001
      vertex   4.621674e+001 4.373476e+001 1.082421e+001
    endloop
  endfacet
  facet normal -2.194417e-001 -8.969652e-001 -3.731544e-001
    outer loop
      vertex   1.137712e+002 1.823328e+001 1.660761e+001
      vertex   1.134644e+002 1.716322e+001 1.936020e+001
      vertex   1.103972e+002 1.920077e+001 1.626620e+001
    endloop
  endfacet
  facet normal -1.507220e-001 -6.160725e-001 -2.562973e-001
    outer loop
      vertex   1.103972e+002 1.920077e+001 1.626620e+001
      vertex   1.134644e+002 1.716322e+001 1.936020e+001
      vertex   7.887497e+001 2.708158e+001 1.586020e+001
    endloop
  endfacet
  facet normal -2.465115e-002 -1.007610e-001 -4.191846e-002
    outer loop
      vertex   1.103972e+002 1.920077e+001 1.626620e+001
      vertex   7.887497e+001 2.708158e+001 1.586020e+001
      vertex   7.965997e+001 2.827970e+001 1.251858e+001
    endloop
  endfacet
  facet normal -2.200748e-001 -8.995509e-001 -3.742301e-001
    outer loop
      vertex   7.965997e+001 2.827970e+001 1.251858e+001
      vertex   7.887497e+001 2.708158e+001 1.586020e+001
      vertex   4.878224e+001 3.686857e+001 1.003156e+001
    endloop
  endfacet
  facet normal -4.641192e-003 -1.897078e-002 -7.892220e-003
    outer loop
      vertex   7.965997e+001 2.827970e+001 1.251858e+001
      vertex   4.878224e+001 3.686857e+001 1.003156e+001
      vertex   4.885250e+001 3.711360e+001 9.401262e+000
    endloop
  endfacet
  facet normal -2.024951e-002 -8.276942e-002 -3.443361e-002
    outer loop
      vertex   7.887497e+001 2.708158e+001 1.586020e+001
      vertex   4.428556e+001 3.699993e+001 1.236020e+001
      vertex   4.878224e+001 3.686857e+001 1.003156e+001
    endloop
  endfacet
  facet normal -1.286255e-001 -5.257524e-001 -2.187234e-001
    outer loop
      vertex   4.878224e+001 3.686857e+001 1.003156e+001
      vertex   4.428556e+001 3.699993e+001 1.236020e+001
      vertex   4.540821e+001 3.783606e+001 9.690157e+000
    endloop
  endfacet
  facet normal -1.991484e-001 -8.140191e-001 -3.386474e-001
    outer loop
      vertex   4.540821e+001 3.783606e+001 9.690157e+000
      vertex   4.428556e+001 3.699993e+001 1.236020e+001
      vertex   4.466265e+001 3.831502e+001 8.977304e+000
    endloop
  endfacet
  facet normal -1.645286e-001 -6.725125e-001 -2.797784e-001
    outer loop
      vertex   4.540821e+001 3.783606e+001 9.690157e+000
      vertex   4.466265e+001 3.831502e+001 8.977304e+000
      vertex   4.547847e+001 3.808109e+001 9.059855e+000
    endloop
  endfacet
  facet normal -4.623653e-003 -1.889910e-002 -7.862444e-003
    outer loop
      vertex   7.965997e+001 2.827970e+001 1.251858e+001
      vertex   1.104674e+002 1.944580e+001 1.563590e+001
      vertex   1.103972e+002 1.920077e+001 1.626620e+001
    endloop
  endfacet
  facet normal -1.738382e-001 -2.724737e-001 9.458489e-001
    outer loop
      vertex   1.150185e+002 2.258297e+001 2.120711e+001
      vertex   8.042905e+001 3.250132e+001 1.770711e+001
      vertex   1.134644e+002 1.716322e+001 1.936020e+001
    endloop
  endfacet
  facet normal -2.828793e-002 -4.433848e-002 1.539138e-001
    outer loop
      vertex   1.134644e+002 1.716322e+001 1.936020e+001
      vertex   8.042905e+001 3.250132e+001 1.770711e+001
      vertex   7.887497e+001 2.708158e+001 1.586020e+001
    endloop
  endfacet
  facet normal -1.723759e-001 -2.701818e-001 9.378918e-001
    outer loop
      vertex   7.887497e+001 2.708158e+001 1.586020e+001
      vertex   8.042905e+001 3.250132e+001 1.770711e+001
      vertex   4.583965e+001 4.241968e+001 1.420711e+001
    endloop
  endfacet
  facet normal -2.828792e-002 -4.433844e-002 1.539138e-001
    outer loop
      vertex   7.887497e+001 2.708158e+001 1.586020e+001
      vertex   4.583965e+001 4.241968e+001 1.420711e+001
      vertex   4.428556e+001 3.699993e+001 1.236020e+001
    endloop
  endfacet
  facet normal -2.756366e-001 -9.612619e-001 0.000000e+000
    outer loop
      vertex   1.103972e+002 1.920077e+001 0.000000e+000
      vertex   1.137712e+002 1.823328e+001 0.000000e+000
      vertex   1.103972e+002 1.920077e+001 1.626620e+001
    endloop
  endfacet
  facet normal -2.737981e-001 -9.548501e-001 -1.387779e-017
    outer loop
      vertex   1.103972e+002 1.920077e+001 1.626620e+001
      vertex   1.137712e+002 1.823328e+001 0.000000e+000
      vertex   1.137712e+002 1.823328e+001 1.660761e+001
    endloop
  endfacet
  facet normal -9.134992e-001 2.619413e-001 0.000000e+000
    outer loop
      vertex   1.114997e+002 2.304582e+001 1.686269e+001
      vertex   1.114997e+002 2.304582e+001 0.000000e+000
      vertex   1.104674e+002 1.944580e+001 1.563590e+001
    endloop
  endfacet
  facet normal -2.391157e-001 6.856558e-002 8.237043e-008
    outer loop
      vertex   1.104674e+002 1.944580e+001 1.563590e+001
      vertex   1.114997e+002 2.304582e+001 0.000000e+000
      vertex   1.103972e+002 1.920077e+001 0.000000e+000
    endloop
  endfacet
  facet normal -3.748704e-001 1.075010e-001 0.000000e+000
    outer loop
      vertex   1.104674e+002 1.944580e+001 1.563590e+001
      vertex   1.103972e+002 1.920077e+001 0.000000e+000
      vertex   1.103972e+002 1.920077e+001 1.626620e+001
    endloop
  endfacet
  facet normal 2.756377e-001 9.612616e-001 -0.000000e+000
    outer loop
      vertex   1.114997e+002 2.304582e+001 0.000000e+000
      vertex   1.114997e+002 2.304582e+001 1.686269e+001
      vertex   1.148738e+002 2.207833e+001 0.000000e+000
    endloop
  endfacet
  facet normal 5.617059e-002 1.958899e-001 -0.000000e+000
    outer loop
      vertex   1.148738e+002 2.207833e+001 0.000000e+000
      vertex   1.114997e+002 2.304582e+001 1.686269e+001
      vertex   1.148738e+002 2.207833e+001 1.720410e+001
    endloop
  endfacet
  facet normal -9.134990e-001 2.619424e-001 0.000000e+000
    outer loop
      vertex   4.651076e+001 4.168111e+001 1.028665e+001
      vertex   4.651076e+001 4.168111e+001 -8.015699e-001
      vertex   4.547847e+001 3.808109e+001 9.059855e+000
    endloop
  endfacet
  facet normal -3.633195e-001 1.041803e-001 -7.170630e-008
    outer loop
      vertex   4.547847e+001 3.808109e+001 9.059855e+000
      vertex   4.651076e+001 4.168111e+001 -8.015699e-001
      vertex   4.540821e+001 3.783606e+001 -1.281121e+000
    endloop
  endfacet
  facet normal -3.822438e-001 1.096036e-001 4.336809e-019
    outer loop
      vertex   4.547847e+001 3.808109e+001 9.059855e+000
      vertex   4.540821e+001 3.783606e+001 -1.281121e+000
      vertex   4.540821e+001 3.783606e+001 9.690157e+000
    endloop
  endfacet
  facet normal 2.754745e-001 9.606943e-001 -0.000000e+000
    outer loop
      vertex   4.651076e+001 4.168111e+001 -8.015699e-001
      vertex   4.651076e+001 4.168111e+001 1.028665e+001
      vertex   4.988479e+001 4.071362e+001 -9.222342e-001
    endloop
  endfacet
  facet normal 8.237018e-002 2.872591e-001 -0.000000e+000
    outer loop
      vertex   4.988479e+001 4.071362e+001 -9.222342e-001
      vertex   4.651076e+001 4.168111e+001 1.028665e+001
      vertex   4.988479e+001 4.071362e+001 1.062806e+001
    endloop
  endfacet
  facet normal 2.808988e-001 9.597374e-001 -0.000000e+000
    outer loop
      vertex   1.160000e+002 3.251220e+001 -1.000000e+001
      vertex   7.900000e+001 4.334146e+001 -1.000000e+001
      vertex   1.160000e+002 3.251220e+001 0.000000e+000
    endloop
  endfacet
  facet normal 7.052789e-002 2.409703e-001 0.000000e+000
    outer loop
      vertex   1.160000e+002 3.251220e+001 0.000000e+000
      vertex   7.900000e+001 4.334146e+001 -1.000000e+001
      vertex   7.900000e+001 4.334146e+001 0.000000e+000
    endloop
  endfacet
  facet normal 2.719005e-001 9.289937e-001 0.000000e+000
    outer loop
      vertex   7.900000e+001 4.334146e+001 0.000000e+000
      vertex   7.900000e+001 4.334146e+001 -1.000000e+001
      vertex   4.200000e+001 5.417073e+001 -1.000000e+001
    endloop
  endfacet
  facet normal 7.052787e-002 2.409703e-001 0.000000e+000
    outer loop
      vertex   7.900000e+001 4.334146e+001 0.000000e+000
      vertex   4.200000e+001 5.417073e+001 -1.000000e+001
      vertex   4.200000e+001 5.417073e+001 0.000000e+000
    endloop
  endfacet
  facet normal 2.719006e-001 9.289936e-001 0.000000e+000
    outer loop
      vertex   4.200000e+001 5.417073e+001 0.000000e+000
      vertex   4.200000e+001 5.417073e+001 -1.000000e+001
      vertex   5.000000e+000 6.500000e+001 -1.000000e+001
    endloop
  endfacet
  facet normal 7.052789e-002 2.409703e-001 0.000000e+000
    outer loop
      vertex   4.200000e+001 5.417073e+001 0.000000e+000
      vertex   5.000000e+000 6.500000e+001 -1.000000e+001
      vertex   5.000000e+000 6.500000e+001 0.000000e+000
    endloop
  endfacet
  facet normal -1.012180e-002 -3.404607e-002 3.233263e-007
    outer loop
      vertex   4.500000e+001 4.810811e+001 2.081668e-016
      vertex   5.000000e+001 4.662162e+001 -1.853933e-001
      vertex   7.750000e+001 3.844595e+001 0.000000e+000
    endloop
  endfacet
  facet normal -9.205363e-002 -3.096350e-001 0.000000e+000
    outer loop
      vertex   7.750000e+001 3.844595e+001 0.000000e+000
      vertex   5.000000e+001 4.662162e+001 -1.853933e-001
      vertex   5.000000e+001 4.662162e+001 -1.000000e+001
    endloop
  endfacet
  facet normal -2.840529e-001 -9.554508e-001 9.111888e-008
    outer loop
      vertex   7.750000e+001 3.844595e+001 0.000000e+000
      vertex   5.000000e+001 4.662162e+001 -1.000000e+001
      vertex   8.000000e+001 3.770270e+001 -1.000000e+001
    endloop
  endfacet
  facet normal -2.849703e-001 -9.585364e-001 0.000000e+000
    outer loop
      vertex   1.100000e+002 2.878378e+001 -1.000000e+001
      vertex   1.100000e+002 2.878378e+001 0.000000e+000
      vertex   8.000000e+001 3.770270e+001 -1.000000e+001
    endloop
  endfacet
  facet normal -2.845529e-001 -9.571325e-001 8.425778e-008
    outer loop
      vertex   8.000000e+001 3.770270e+001 -1.000000e+001
      vertex   1.100000e+002 2.878378e+001 0.000000e+000
      vertex   7.750000e+001 3.844595e+001 0.000000e+000
    endloop
  endfacet
  facet normal 0.000000e+000 -1.000000e+000 0.000000e+000
    outer loop
      vertex   -1.000000e+001 6.000000e+001 -1.000000e+001
      vertex   5.000000e+000 6.000000e+001 -1.000000e+001
      vertex   -1.000000e+001 6.000000e+001 0.000000e+000
    endloop
  endfacet
  facet normal 0.000000e+000 -5.547002e-001 0.000000e+000
    outer loop
      vertex   -1.000000e+001 6.000000e+001 0.000000e+000
      vertex   5.000000e+000 6.000000e+001 -1.000000e+001
      vertex   5.000000e+000 6.000000e+001 0.000000e+000
    endloop
  endfacet
  facet normal -2.849703e-001 -9.585364e-001 -0.000000e+000
    outer loop
      vertex   4.500000e+001 4.810811e+001 2.081668e-016
      vertex   5.000000e+000 6.000000e+001 0.000000e+000
      vertex   4.500000e+001 4.810811e+001 -1.000000e+001
    endloop
  endfacet
  facet normal -6.640847e-002 -2.233739e-001 5.551115e-017
    outer loop
      vertex   4.500000e+001 4.810811e+001 -1.000000e+001
      vertex   5.000000e+000 6.000000e+001 0.000000e+000
      vertex   5.000000e+000 6.000000e+001 -1.000000e+001
    endloop
  endfacet
  facet normal 1.012182e-002 3.404608e-002 0.000000e+000
    outer loop
      vertex   4.500000e+001 4.810811e+001 -1.000000e+001
      vertex   5.000000e+001 4.662162e+001 -1.000000e+001
      vertex   5.000000e+001 4.662162e+001 -1.018539e+001
    endloop
  endfacet
  facet normal 2.944024e-008 1.185539e-001 -9.505670e-001
    outer loop
      vertex   4.500000e+001 4.810811e+001 -1.000000e+001
      vertex   5.000000e+001 4.662162e+001 -1.018539e+001
      vertex   4.500000e+001 0.000000e+000 -1.600000e+001
    endloop
  endfacet
  facet normal 0.000000e+000 1.230653e-001 -9.867402e-001
    outer loop
      vertex   4.500000e+001 0.000000e+000 -1.600000e+001
      vertex   5.000000e+001 4.662162e+001 -1.018539e+001
      vertex   5.000000e+001 0.000000e+000 -1.600000e+001
    endloop
  endfacet
  facet normal -4.158330e-008 -1.073862e-001 8.610241e-001
    outer loop
      vertex   4.500000e+001 4.810811e+001 2.081668e-016
      vertex   4.651076e+001 4.168111e+001 -8.015699e-001
      vertex   5.000000e+001 4.662162e+001 -1.853933e-001
    endloop
  endfacet
  facet normal 1.512112e-008 -6.905361e-002 5.536729e-001
    outer loop
      vertex   5.000000e+001 4.662162e+001 -1.853933e-001
      vertex   4.651076e+001 4.168111e+001 -8.015699e-001
      vertex   4.988479e+001 4.071362e+001 -9.222342e-001
    endloop
  endfacet
  facet normal -5.382810e-008 -2.394438e-003 1.919864e-002
    outer loop
      vertex   5.000000e+001 4.662162e+001 -1.853933e-001
      vertex   4.988479e+001 4.071362e+001 -9.222342e-001
      vertex   5.000000e+001 0.000000e+000 -6.000000e+000
    endloop
  endfacet
  facet normal 1.168078e-008 -3.706810e-003 2.972127e-002
    outer loop
      vertex   5.000000e+001 0.000000e+000 -6.000000e+000
      vertex   4.988479e+001 4.071362e+001 -9.222342e-001
      vertex   4.878224e+001 3.686857e+001 -1.401785e+000
    endloop
  endfacet
  facet normal 0.000000e+000 -1.236939e-001 9.917796e-001
    outer loop
      vertex   5.000000e+001 0.000000e+000 -6.000000e+000
      vertex   4.878224e+001 3.686857e+001 -1.401785e+000
      vertex   4.500000e+001 0.000000e+000 -6.000000e+000
    endloop
  endfacet
  facet normal -1.338694e-008 -1.121504e-002 8.992238e-002
    outer loop
      vertex   4.500000e+001 0.000000e+000 -6.000000e+000
      vertex   4.878224e+001 3.686857e+001 -1.401785e+000
      vertex   4.540821e+001 3.783606e+001 -1.281121e+000
    endloop
  endfacet
  facet normal 1.986801e-009 -1.324888e-003 1.062298e-002
    outer loop
      vertex   4.500000e+001 0.000000e+000 -6.000000e+000
      vertex   4.540821e+001 3.783606e+001 -1.281121e+000
      vertex   4.500000e+001 4.810811e+001 2.081668e-016
    endloop
  endfacet
  facet normal -1.019104e-008 -2.334234e-002 1.871593e-001
    outer loop
      vertex   4.500000e+001 4.810811e+001 2.081668e-016
      vertex   4.540821e+001 3.783606e+001 -1.281121e+000
      vertex   4.651076e+001 4.168111e+001 -8.015699e-001
    endloop
  endfacet
  facet normal -9.590567e-001 -2.750052e-001 -9.028366e-008
    outer loop
      vertex   4.583965e+001 -4.241968e+001 1.420711e+001
      vertex   4.428556e+001 -3.699993e+001 1.236020e+001
      vertex   4.621674e+001 -4.373476e+001 1.082421e+001
    endloop
  endfacet
  facet normal -4.879172e-001 -1.399080e-001 -3.034249e-007
    outer loop
      vertex   4.621674e+001 -4.373476e+001 1.082421e+001
      vertex   4.428556e+001 -3.699993e+001 1.236020e+001
      vertex   4.466265e+001 -3.831502e+001 8.977304e+000
    endloop
  endfacet
  facet normal 2.754745e-001 -9.606943e-001 0.000000e+000
    outer loop
      vertex   4.651076e+001 -4.168111e+001 -8.015699e-001
      vertex   4.988479e+001 -4.071362e+001 -9.222342e-001
      vertex   4.651076e+001 -4.168111e+001 1.028665e+001
    endloop
  endfacet
  facet normal 2.697806e-001 -9.408373e-001 -1.387779e-017
    outer loop
      vertex   4.651076e+001 -4.168111e+001 1.028665e+001
      vertex   4.988479e+001 -4.071362e+001 -9.222342e-001
      vertex   4.988479e+001 -4.071362e+001 1.062806e+001
    endloop
  endfacet
  facet normal 3.653575e-002 -5.726626e-002 -1.987906e-001
    outer loop
      vertex   4.466265e+001 -3.831502e+001 8.977304e+000
      vertex   4.651076e+001 -4.168111e+001 1.028665e+001
      vertex   4.621674e+001 -4.373476e+001 1.082421e+001
    endloop
  endfacet
  facet normal 1.198122e-001 -1.877933e-001 -6.518941e-001
    outer loop
      vertex   4.621674e+001 -4.373476e+001 1.082421e+001
      vertex   4.651076e+001 -4.168111e+001 1.028665e+001
      vertex   4.988479e+001 -4.071362e+001 1.062806e+001
    endloop
  endfacet
  facet normal 7.281025e-002 -1.141226e-001 -3.961585e-001
    outer loop
      vertex   4.621674e+001 -4.373476e+001 1.082421e+001
      vertex   4.988479e+001 -4.071362e+001 1.062806e+001
      vertex   8.080615e+001 -3.381641e+001 1.432421e+001
    endloop
  endfacet
  facet normal 1.738798e-001 -2.725388e-001 -9.460751e-001
    outer loop
      vertex   8.080615e+001 -3.381641e+001 1.432421e+001
      vertex   4.988479e+001 -4.071362e+001 1.062806e+001
      vertex   7.965997e+001 -2.827970e+001 1.251858e+001
    endloop
  endfacet
  facet normal 1.729994e-001 -2.711588e-001 -9.412847e-001
    outer loop
      vertex   8.080615e+001 -3.381641e+001 1.432421e+001
      vertex   7.965997e+001 -2.827970e+001 1.251858e+001
      vertex   1.114997e+002 -2.304582e+001 1.686269e+001
    endloop
  endfacet
  facet normal 1.719271e-001 -2.694783e-001 -9.354505e-001
    outer loop
      vertex   1.114997e+002 -2.304582e+001 1.686269e+001
      vertex   7.965997e+001 -2.827970e+001 1.251858e+001
      vertex   1.104674e+002 -1.944580e+001 1.563590e+001
    endloop
  endfacet
  facet normal 1.688580e-001 -2.646673e-001 -9.187511e-001
    outer loop
      vertex   4.466265e+001 -3.831502e+001 8.977304e+000
      vertex   4.547847e+001 -3.808109e+001 9.059855e+000
      vertex   4.651076e+001 -4.168111e+001 1.028665e+001
    endloop
  endfacet
  facet normal 1.731812e-001 -2.714438e-001 -9.422741e-001
    outer loop
      vertex   4.988479e+001 -4.071362e+001 1.062806e+001
      vertex   4.885250e+001 -3.711360e+001 9.401262e+000
      vertex   7.965997e+001 -2.827970e+001 1.251858e+001
    endloop
  endfacet
  facet normal 1.738383e-001 -2.724739e-001 -9.458488e-001
    outer loop
      vertex   1.148738e+002 -2.207833e+001 1.720410e+001
      vertex   1.153956e+002 -2.389805e+001 1.782421e+001
      vertex   1.114997e+002 -2.304582e+001 1.686269e+001
    endloop
  endfacet
  facet normal 9.353761e-002 -1.466107e-001 -5.089353e-001
    outer loop
      vertex   1.114997e+002 -2.304582e+001 1.686269e+001
      vertex   1.153956e+002 -2.389805e+001 1.782421e+001
      vertex   8.080615e+001 -3.381641e+001 1.432421e+001
    endloop
  endfacet
  facet normal -3.603932e-001 -1.033382e-001 -0.000000e+000
    outer loop
      vertex   4.540821e+001 -3.783606e+001 9.690157e+000
      vertex   4.540821e+001 -3.783606e+001 -1.281121e+000
      vertex   4.547847e+001 -3.808109e+001 9.059855e+000
    endloop
  endfacet
  facet normal -3.633195e-001 -1.041803e-001 -7.170630e-008
    outer loop
      vertex   4.547847e+001 -3.808109e+001 9.059855e+000
      vertex   4.540821e+001 -3.783606e+001 -1.281121e+000
      vertex   4.651076e+001 -4.168111e+001 -8.015699e-001
    endloop
  endfacet
  facet normal -9.602273e-001 -2.753415e-001 -1.387779e-017
    outer loop
      vertex   4.547847e+001 -3.808109e+001 9.059855e+000
      vertex   4.651076e+001 -4.168111e+001 -8.015699e-001
      vertex   4.651076e+001 -4.168111e+001 1.028665e+001
    endloop
  endfacet
  facet normal 2.194427e-001 -8.969659e-001 3.731515e-001
    outer loop
      vertex   1.150185e+002 -2.258297e+001 2.120711e+001
      vertex   8.042905e+001 -3.250132e+001 1.770711e+001
      vertex   1.153956e+002 -2.389805e+001 1.782421e+001
    endloop
  endfacet
  facet normal 2.223741e-002 -9.089480e-002 3.781373e-002
    outer loop
      vertex   1.153956e+002 -2.389805e+001 1.782421e+001
      vertex   8.042905e+001 -3.250132e+001 1.770711e+001
      vertex   8.080615e+001 -3.381641e+001 1.432421e+001
    endloop
  endfacet
  facet normal 2.203179e-001 -9.005433e-001 3.746408e-001
    outer loop
      vertex   8.080615e+001 -3.381641e+001 1.432421e+001
      vertex   8.042905e+001 -3.250132e+001 1.770711e+001
      vertex   4.583965e+001 -4.241968e+001 1.420711e+001
    endloop
  endfacet
  facet normal 2.223740e-002 -9.089477e-002 3.781370e-002
    outer loop
      vertex   8.080615e+001 -3.381641e+001 1.432421e+001
      vertex   4.583965e+001 -4.241968e+001 1.420711e+001
      vertex   4.621674e+001 -4.373476e+001 1.082421e+001
    endloop
  endfacet
  facet normal -2.194417e-001 8.969652e-001 -3.731544e-001
    outer loop
      vertex   1.137712e+002 -1.823328e+001 1.660761e+001
      vertex   1.103972e+002 -1.920077e+001 1.626620e+001
      vertex   1.134644e+002 -1.716322e+001 1.936020e+001
    endloop
  endfacet
  facet normal -1.354710e-001 5.537343e-001 -2.303635e-001
    outer loop
      vertex   1.134644e+002 -1.716322e+001 1.936020e+001
      vertex   1.103972e+002 -1.920077e+001 1.626620e+001
      vertex   7.887497e+001 -2.708158e+001 1.586020e+001
    endloop
  endfacet
  facet normal -2.187909e-001 8.943024e-001 -3.720466e-001
    outer loop
      vertex   7.887497e+001 -2.708158e+001 1.586020e+001
      vertex   1.103972e+002 -1.920077e+001 1.626620e+001
      vertex   7.965997e+001 -2.827970e+001 1.251858e+001
    endloop
  endfacet
  facet normal -2.198682e-001 8.987068e-001 -3.738789e-001
    outer loop
      vertex   7.887497e+001 -2.708158e+001 1.586020e+001
      vertex   7.965997e+001 -2.827970e+001 1.251858e+001
      vertex   4.878224e+001 -3.686857e+001 1.003156e+001
    endloop
  endfacet
  facet normal -2.198098e-001 8.984681e-001 -3.737805e-001
    outer loop
      vertex   4.878224e+001 -3.686857e+001 1.003156e+001
      vertex   7.965997e+001 -2.827970e+001 1.251858e+001
      vertex   4.885250e+001 -3.711360e+001 9.401262e+000
    endloop
  endfacet
  facet normal -2.189786e-001 8.950711e-001 -3.723694e-001
    outer loop
      vertex   1.103972e+002 -1.920077e+001 1.626620e+001
      vertex   1.104674e+002 -1.944580e+001 1.563590e+001
      vertex   7.965997e+001 -2.827970e+001 1.251858e+001
    endloop
  endfacet
  facet normal -2.024951e-002 8.276942e-002 -3.443361e-002
    outer loop
      vertex   7.887497e+001 -2.708158e+001 1.586020e+001
      vertex   4.878224e+001 -3.686857e+001 1.003156e+001
      vertex   4.428556e+001 -3.699993e+001 1.236020e+001
    endloop
  endfacet
  facet normal -1.504639e-001 6.150160e-001 -2.558588e-001
    outer loop
      vertex   4.428556e+001 -3.699993e+001 1.236020e+001
      vertex   4.878224e+001 -3.686857e+001 1.003156e+001
      vertex   4.540821e+001 -3.783606e+001 9.690157e+000
    endloop
  endfacet
  facet normal -6.206744e-002 2.537007e-001 -1.055443e-001
    outer loop
      vertex   4.428556e+001 -3.699993e+001 1.236020e+001
      vertex   4.540821e+001 -3.783606e+001 9.690157e+000
      vertex   4.466265e+001 -3.831502e+001 8.977304e+000
    endloop
  endfacet
  facet normal -1.311869e-001 5.362280e-001 -2.230814e-001
    outer loop
      vertex   4.466265e+001 -3.831502e+001 8.977304e+000
      vertex   4.540821e+001 -3.783606e+001 9.690157e+000
      vertex   4.547847e+001 -3.808109e+001 9.059855e+000
    endloop
  endfacet
  facet normal -1.738382e-001 2.724737e-001 9.458489e-001
    outer loop
      vertex   1.150185e+002 -2.258297e+001 2.120711e+001
      vertex   1.134644e+002 -1.716322e+001 1.936020e+001
      vertex   8.042905e+001 -3.250132e+001 1.770711e+001
    endloop
  endfacet
  facet normal -1.723759e-001 2.701818e-001 9.378918e-001
    outer loop
      vertex   8.042905e+001 -3.250132e+001 1.770711e+001
      vertex   1.134644e+002 -1.716322e+001 1.936020e+001
      vertex   7.887497e+001 -2.708158e+001 1.586020e+001
    endloop
  endfacet
  facet normal -1.738383e-001 2.724740e-001 9.458488e-001
    outer loop
      vertex   8.042905e+001 -3.250132e+001 1.770711e+001
      vertex   7.887497e+001 -2.708158e+001 1.586020e+001
      vertex   4.583965e+001 -4.241968e+001 1.420711e+001
    endloop
  endfacet
  facet normal -1.723758e-001 2.701815e-001 9.378920e-001
    outer loop
      vertex   4.583965e+001 -4.241968e+001 1.420711e+001
      vertex   7.887497e+001 -2.708158e+001 1.586020e+001
      vertex   4.428556e+001 -3.699993e+001 1.236020e+001
    endloop
  endfacet
  facet normal -2.754752e-001 9.606940e-001 0.000000e+000
    outer loop
      vertex   4.540821e+001 -3.783606e+001 -1.281121e+000
      vertex   4.540821e+001 -3.783606e+001 9.690157e+000
      vertex   4.878224e+001 -3.686857e+001 -1.401785e+000
    endloop
  endfacet
  facet normal -8.316024e-002 2.900136e-001 0.000000e+000
    outer loop
      vertex   4.878224e+001 -3.686857e+001 -1.401785e+000
      vertex   4.540821e+001 -3.783606e+001 9.690157e+000
      vertex   4.878224e+001 -3.686857e+001 1.003156e+001
    endloop
  endfacet
  facet normal 9.134993e-001 2.619412e-001 0.000000e+000
    outer loop
      vertex   4.988479e+001 -4.071362e+001 1.062806e+001
      vertex   4.988479e+001 -4.071362e+001 -9.222342e-001
      vertex   4.885250e+001 -3.711360e+001 9.401262e+000
    endloop
  endfacet
  facet normal 3.490412e-001 1.000856e-001 5.579826e-008
    outer loop
      vertex   4.885250e+001 -3.711360e+001 9.401262e+000
      vertex   4.988479e+001 -4.071362e+001 -9.222342e-001
      vertex   4.878224e+001 -3.686857e+001 -1.401785e+000
    endloop
  endfacet
  facet normal 3.813142e-001 1.093370e-001 -8.673617e-019
    outer loop
      vertex   4.885250e+001 -3.711360e+001 9.401262e+000
      vertex   4.878224e+001 -3.686857e+001 -1.401785e+000
      vertex   4.878224e+001 -3.686857e+001 1.003156e+001
    endloop
  endfacet
  facet normal -2.756366e-001 9.612619e-001 0.000000e+000
    outer loop
      vertex   1.103972e+002 -1.920077e+001 0.000000e+000
      vertex   1.103972e+002 -1.920077e+001 1.626620e+001
      vertex   1.137712e+002 -1.823328e+001 0.000000e+000
    endloop
  endfacet
  facet normal -5.814019e-002 2.027595e-001 0.000000e+000
    outer loop
      vertex   1.137712e+002 -1.823328e+001 0.000000e+000
      vertex   1.103972e+002 -1.920077e+001 1.626620e+001
      vertex   1.137712e+002 -1.823328e+001 1.660761e+001
    endloop
  endfacet
  facet normal -3.603923e-001 -1.033492e-001 -0.000000e+000
    outer loop
      vertex   1.103972e+002 -1.920077e+001 1.626620e+001
      vertex   1.103972e+002 -1.920077e+001 0.000000e+000
      vertex   1.104674e+002 -1.944580e+001 1.563590e+001
    endloop
  endfacet
  facet normal -2.391157e-001 -6.856558e-002 8.237043e-008
    outer loop
      vertex   1.104674e+002 -1.944580e+001 1.563590e+001
      vertex   1.103972e+002 -1.920077e+001 0.000000e+000
      vertex   1.114997e+002 -2.304582e+001 0.000000e+000
    endloop
  endfacet
  facet normal -9.580737e-001 -2.747228e-001 -6.938894e-018
    outer loop
      vertex   1.104674e+002 -1.944580e+001 1.563590e+001
      vertex   1.114997e+002 -2.304582e+001 0.000000e+000
      vertex   1.114997e+002 -2.304582e+001 1.686269e+001
    endloop
  endfacet
  facet normal 9.612619e-001 2.756367e-001 -0.000000e+000
    outer loop
      vertex   1.137712e+002 -1.823328e+001 0.000000e+000
      vertex   1.137712e+002 -1.823328e+001 1.660761e+001
      vertex   1.148738e+002 -2.207833e+001 0.000000e+000
    endloop
  endfacet
  facet normal 2.250866e-001 6.454238e-002 -0.000000e+000
    outer loop
      vertex   1.148738e+002 -2.207833e+001 0.000000e+000
      vertex   1.137712e+002 -1.823328e+001 1.660761e+001
      vertex   1.148738e+002 -2.207833e+001 1.720410e+001
    endloop
  endfacet
  facet normal 9.242409e-001 2.650210e-001 -7.507716e-007
    outer loop
      vertex   1.148738e+002 -2.207833e+001 1.720410e+001
      vertex   1.137712e+002 -1.823328e+001 1.660761e+001
      vertex   1.150185e+002 -2.258297e+001 2.120711e+001
    endloop
  endfacet
  facet normal 8.668325e-001 2.485600e-001 -6.403429e-007
    outer loop
      vertex   1.148738e+002 -2.207833e+001 1.720410e+001
      vertex   1.150185e+002 -2.258297e+001 2.120711e+001
      vertex   1.153956e+002 -2.389805e+001 1.782421e+001
    endloop
  endfacet
  facet normal 8.818763e-001 2.528749e-001 9.093951e-007
    outer loop
      vertex   1.137712e+002 -1.823328e+001 1.660761e+001
      vertex   1.134644e+002 -1.716322e+001 1.936020e+001
      vertex   1.150185e+002 -2.258297e+001 2.120711e+001
    endloop
  endfacet
  facet normal 2.756377e-001 -9.612616e-001 0.000000e+000
    outer loop
      vertex   1.114997e+002 -2.304582e+001 0.000000e+000
      vertex   1.148738e+002 -2.207833e+001 0.000000e+000
      vertex   1.114997e+002 -2.304582e+001 1.686269e+001
    endloop
  endfacet
  facet normal 2.740240e-001 -9.556341e-001 1.387779e-017
    outer loop
      vertex   1.114997e+002 -2.304582e+001 1.686269e+001
      vertex   1.148738e+002 -2.207833e+001 0.000000e+000
      vertex   1.148738e+002 -2.207833e+001 1.720410e+001
    endloop
  endfacet
  facet normal -2.849696e-001 9.585366e-001 0.000000e+000
    outer loop
      vertex   1.160000e+002 -2.700000e+001 -1.000000e+001
      vertex   1.150000e+002 -2.729730e+001 -1.000000e+001
      vertex   1.160000e+002 -2.700000e+001 0.000000e+000
    endloop
  endfacet
  facet normal -2.834314e-001 9.533625e-001 0.000000e+000
    outer loop
      vertex   1.160000e+002 -2.700000e+001 0.000000e+000
      vertex   1.150000e+002 -2.729730e+001 -1.000000e+001
      vertex   1.150000e+002 -2.729730e+001 0.000000e+000
    endloop
  endfacet
  facet normal -2.849696e-001 -9.585366e-001 -0.000000e+000
    outer loop
      vertex   1.160000e+002 2.700000e+001 0.000000e+000
      vertex   1.150000e+002 2.729730e+001 0.000000e+000
      vertex   1.160000e+002 2.700000e+001 -1.000000e+001
    endloop
  endfacet
  facet normal -2.834314e-001 -9.533625e-001 0.000000e+000
    outer loop
      vertex   1.160000e+002 2.700000e+001 -1.000000e+001
      vertex   1.150000e+002 2.729730e+001 0.000000e+000
      vertex   1.150000e+002 2.729730e+001 -1.000000e+001
    endloop
  endfacet
  facet normal 3.708707e-001 0.000000e+000 0.000000e+000
    outer loop
      vertex   1.160000e+002 3.075610e+001 -8.500000e+000
      vertex   1.160000e+002 2.775610e+001 -8.500000e+000
      vertex   1.160000e+002 2.700000e+001 -1.000000e+001
    endloop
  endfacet
  facet normal 3.692253e-001 0.000000e+000 0.000000e+000
    outer loop
      vertex   1.160000e+002 2.700000e+001 -1.000000e+001
      vertex   1.160000e+002 2.775610e+001 -8.500000e+000
      vertex   1.160000e+002 2.775610e+001 -1.500000e+000
    endloop
  endfacet
  facet normal 8.860283e-002 0.000000e+000 0.000000e+000
    outer loop
      vertex   1.160000e+002 2.700000e+001 -1.000000e+001
      vertex   1.160000e+002 2.775610e+001 -1.500000e+000
      vertex   1.160000e+002 2.700000e+001 0.000000e+000
    endloop
  endfacet
  facet normal 6.623532e-001 0.000000e+000 0.000000e+000
    outer loop
      vertex   1.160000e+002 2.700000e+001 0.000000e+000
      vertex   1.160000e+002 2.775610e+001 -1.500000e+000
      vertex   1.160000e+002 3.075610e+001 -1.500000e+000
    endloop
  endfacet
  facet normal 3.708707e-001 -0.000000e+000 0.000000e+000
    outer loop
      vertex   1.160000e+002 2.700000e+001 0.000000e+000
      vertex   1.160000e+002 3.075610e+001 -1.500000e+000
      vertex   1.160000e+002 3.251220e+001 0.000000e+000
    endloop
  endfacet
  facet normal 6.132393e-001 0.000000e+000 0.000000e+000
    outer loop
      vertex   1.160000e+002 3.251220e+001 0.000000e+000
      vertex   1.160000e+002 3.075610e+001 -1.500000e+000
      vertex   1.160000e+002 3.075610e+001 -8.500000e+000
    endloop
  endfacet
  facet normal 2.023268e-001 0.000000e+000 0.000000e+000
    outer loop
      vertex   1.160000e+002 3.251220e+001 0.000000e+000
      vertex   1.160000e+002 3.075610e+001 -8.500000e+000
      vertex   1.160000e+002 3.251220e+001 -1.000000e+001
    endloop
  endfacet
  facet normal 6.494858e-001 0.000000e+000 0.000000e+000
    outer loop
      vertex   1.160000e+002 3.251220e+001 -1.000000e+001
      vertex   1.160000e+002 3.075610e+001 -8.500000e+000
      vertex   1.160000e+002 2.700000e+001 -1.000000e+001
    endloop
  endfacet
  facet normal 2.023268e-001 0.000000e+000 0.000000e+000
    outer loop
      vertex   1.160000e+002 -3.075610e+001 -1.500000e+000
      vertex   1.160000e+002 -3.251220e+001 -1.000000e+001
      vertex   1.160000e+002 -3.075610e+001 -8.500000e+000
    endloop
  endfacet
  facet normal 8.851678e-001 0.000000e+000 0.000000e+000
    outer loop
      vertex   1.160000e+002 -3.075610e+001 -8.500000e+000
      vertex   1.160000e+002 -3.251220e+001 -1.000000e+001
      vertex   1.160000e+002 -2.700000e+001 -1.000000e+001
    endloop
  endfacet
  facet normal 3.708707e-001 -0.000000e+000 0.000000e+000
    outer loop
      vertex   1.160000e+002 -3.075610e+001 -8.500000e+000
      vertex   1.160000e+002 -2.700000e+001 -1.000000e+001
      vertex   1.160000e+002 -2.775610e+001 -8.500000e+000
    endloop
  endfacet
  facet normal 5.274647e-001 -0.000000e+000 0.000000e+000
    outer loop
      vertex   1.160000e+002 -2.775610e+001 -8.500000e+000
      vertex   1.160000e+002 -2.700000e+001 -1.000000e+001
      vertex   1.160000e+002 -2.700000e+001 0.000000e+000
    endloop
  endfacet
  facet normal 8.860283e-002 0.000000e+000 0.000000e+000
    outer loop
      vertex   1.160000e+002 -2.775610e+001 -8.500000e+000
      vertex   1.160000e+002 -2.700000e+001 0.000000e+000
      vertex   1.160000e+002 -2.775610e+001 -1.500000e+000
    endloop
  endfacet
  facet normal 8.929704e-001 0.000000e+000 -0.000000e+000
    outer loop
      vertex   1.160000e+002 -2.775610e+001 -1.500000e+000
      vertex   1.160000e+002 -2.700000e+001 0.000000e+000
      vertex   1.160000e+002 -3.075610e+001 -1.500000e+000
    endloop
  endfacet
  facet normal 8.851678e-001 0.000000e+000 -0.000000e+000
    outer loop
      vertex   1.160000e+002 -3.075610e+001 -1.500000e+000
      vertex   1.160000e+002 -2.700000e+001 0.000000e+000
      vertex   1.160000e+002 -3.251220e+001 0.000000e+000
    endloop
  endfacet
  facet normal 8.760561e-001 0.000000e+000 0.000000e+000
    outer loop
      vertex   1.160000e+002 -3.075610e+001 -1.500000e+000
      vertex   1.160000e+002 -3.251220e+001 0.000000e+000
      vertex   1.160000e+002 -3.251220e+001 -1.000000e+001
    endloop
  endfacet
  facet normal 0.000000e+000 0.000000e+000 -1.000000e+000
    outer loop
      vertex   -1.000000e+001 6.500000e+001 -1.000000e+001
      vertex   5.000000e+000 6.500000e+001 -1.000000e+001
      vertex   -1.000000e+001 6.000000e+001 -1.000000e+001
    endloop
  endfacet
  facet normal 0.000000e+000 0.000000e+000 -3.162278e-001
    outer loop
      vertex   -1.000000e+001 6.000000e+001 -1.000000e+001
      vertex   5.000000e+000 6.500000e+001 -1.000000e+001
      vertex   5.000000e+000 6.000000e+001 -1.000000e+001
    endloop
  endfacet
  facet normal 0.000000e+000 0.000000e+000 -9.878157e-001
    outer loop
      vertex   5.000000e+000 6.000000e+001 -1.000000e+001
      vertex   5.000000e+000 6.500000e+001 -1.000000e+001
      vertex   4.200000e+001 5.417073e+001 -1.000000e+001
    endloop
  endfacet
  facet normal 0.000000e+000 0.000000e+000 -1.323228e-001
    outer loop
      vertex   5.000000e+000 6.000000e+001 -1.000000e+001
      vertex   4.200000e+001 5.417073e+001 -1.000000e+001
      vertex   4.500000e+001 4.810811e+001 -1.000000e+001
    endloop
  endfacet
  facet normal 0.000000e+000 0.000000e+000 -7.327220e-001
    outer loop
      vertex   4.500000e+001 4.810811e+001 -1.000000e+001
      vertex   4.200000e+001 5.417073e+001 -1.000000e+001
      vertex   5.000000e+001 4.662162e+001 -1.000000e+001
    endloop
  endfacet
  facet normal 0.000000e+000 0.000000e+000 -6.002218e-001
    outer loop
      vertex   5.000000e+001 4.662162e+001 -1.000000e+001
      vertex   4.200000e+001 5.417073e+001 -1.000000e+001
      vertex   7.900000e+001 4.334146e+001 -1.000000e+001
    endloop
  endfacet
  facet normal 0.000000e+000 0.000000e+000 -1.754327e-001
    outer loop
      vertex   5.000000e+001 4.662162e+001 -1.000000e+001
      vertex   7.900000e+001 4.334146e+001 -1.000000e+001
      vertex   8.000000e+001 3.770270e+001 -1.000000e+001
    endloop
  endfacet
  facet normal 0.000000e+000 0.000000e+000 -8.940482e-001
    outer loop
      vertex   8.000000e+001 3.770270e+001 -1.000000e+001
      vertex   7.900000e+001 4.334146e+001 -1.000000e+001
      vertex   1.100000e+002 2.878378e+001 -1.000000e+001
    endloop
  endfacet
  facet normal 0.000000e+000 0.000000e+000 -8.387825e-001
    outer loop
      vertex   1.100000e+002 2.878378e+001 -1.000000e+001
      vertex   7.900000e+001 4.334146e+001 -1.000000e+001
      vertex   1.160000e+002 3.251220e+001 -1.000000e+001
    endloop
  endfacet
  facet normal 0.000000e+000 0.000000e+000 -7.479600e-001
    outer loop
      vertex   1.100000e+002 2.878378e+001 -1.000000e+001
      vertex   1.160000e+002 3.251220e+001 -1.000000e+001
      vertex   1.150000e+002 2.729730e+001 -1.000000e+001
    endloop
  endfacet
  facet normal 0.000000e+000 0.000000e+000 -9.950523e-001
    outer loop
      vertex   1.150000e+002 2.729730e+001 -1.000000e+001
      vertex   1.160000e+002 3.251220e+001 -1.000000e+001
      vertex   1.160000e+002 2.700000e+001 -1.000000e+001
    endloop
  endfacet
  facet normal 0.000000e+000 0.000000e+000 -9.585364e-001
    outer loop
      vertex   1.100000e+002 2.878378e+001 -1.000000e+001
      vertex   1.150000e+002 2.729730e+001 -1.000000e+001
      vertex   1.100000e+002 0.000000e+000 -1.000000e+001
    endloop
  endfacet
  facet normal 0.000000e+000 0.000000e+000 -3.544448e-001
    outer loop
      vertex   1.100000e+002 0.000000e+000 -1.000000e+001
      vertex   1.150000e+002 2.729730e+001 -1.000000e+001
      vertex   1.150000e+002 -2.729730e+001 -1.000000e+001
    endloop
  endfacet
  facet normal 0.000000e+000 0.000000e+000 -1.801708e-001
    outer loop
      vertex   1.100000e+002 0.000000e+000 -1.000000e+001
      vertex   1.150000e+002 -2.729730e+001 -1.000000e+001
      vertex   1.100000e+002 -2.878378e+001 -1.000000e+001
    endloop
  endfacet
  facet normal 0.000000e+000 0.000000e+000 -7.479600e-001
    outer loop
      vertex   1.100000e+002 -2.878378e+001 -1.000000e+001
      vertex   1.150000e+002 -2.729730e+001 -1.000000e+001
      vertex   1.160000e+002 -3.251220e+001 -1.000000e+001
    endloop
  endfacet
  facet normal 0.000000e+000 -0.000000e+000 -8.387825e-001
    outer loop
      vertex   1.100000e+002 -2.878378e+001 -1.000000e+001
      vertex   1.160000e+002 -3.251220e+001 -1.000000e+001
      vertex   7.900000e+001 -4.334146e+001 -1.000000e+001
    endloop
  endfacet
  facet normal 0.000000e+000 0.000000e+000 -9.950523e-001
    outer loop
      vertex   1.150000e+002 -2.729730e+001 -1.000000e+001
      vertex   1.160000e+002 -2.700000e+001 -1.000000e+001
      vertex   1.160000e+002 -3.251220e+001 -1.000000e+001
    endloop
  endfacet
  facet normal 0.000000e+000 0.000000e+000 -4.543818e-001
    outer loop
      vertex   4.200000e+001 -5.417073e+001 -1.000000e+001
      vertex   5.000000e+001 -4.662162e+001 -1.000000e+001
      vertex   7.900000e+001 -4.334146e+001 -1.000000e+001
    endloop
  endfacet
  facet normal -0.000000e+000 0.000000e+000 -9.587715e-001
    outer loop
      vertex   7.900000e+001 -4.334146e+001 -1.000000e+001
      vertex   5.000000e+001 -4.662162e+001 -1.000000e+001
      vertex   8.000000e+001 -3.770270e+001 -1.000000e+001
    endloop
  endfacet
  facet normal 0.000000e+000 0.000000e+000 -8.170305e-001
    outer loop
      vertex   7.900000e+001 -4.334146e+001 -1.000000e+001
      vertex   8.000000e+001 -3.770270e+001 -1.000000e+001
      vertex   1.100000e+002 -2.878378e+001 -1.000000e+001
    endloop
  endfacet
  facet normal 0.000000e+000 0.000000e+000 -9.597374e-001
    outer loop
      vertex   5.000000e+000 -6.500000e+001 -1.000000e+001
      vertex   5.000000e+000 -6.000000e+001 -1.000000e+001
      vertex   4.200000e+001 -5.417073e+001 -1.000000e+001
    endloop
  endfacet
  facet normal -0.000000e+000 0.000000e+000 -8.163285e-001
    outer loop
      vertex   4.200000e+001 -5.417073e+001 -1.000000e+001
      vertex   5.000000e+000 -6.000000e+001 -1.000000e+001
      vertex   4.500000e+001 -4.810811e+001 -1.000000e+001
    endloop
  endfacet
  facet normal 0.000000e+000 0.000000e+000 -3.474782e-001
    outer loop
      vertex   4.200000e+001 -5.417073e+001 -1.000000e+001
      vertex   4.500000e+001 -4.810811e+001 -1.000000e+001
      vertex   5.000000e+001 -4.662162e+001 -1.000000e+001
    endloop
  endfacet
  facet normal 0.000000e+000 0.000000e+000 -1.000000e+000
    outer loop
      vertex   5.000000e+000 -6.500000e+001 -1.000000e+001
      vertex   -1.000000e+001 -6.500000e+001 -1.000000e+001
      vertex   5.000000e+000 -6.000000e+001 -1.000000e+001
    endloop
  endfacet
  facet normal -0.000000e+000 0.000000e+000 -3.162278e-001
    outer loop
      vertex   5.000000e+000 -6.000000e+001 -1.000000e+001
      vertex   -1.000000e+001 -6.500000e+001 -1.000000e+001
      vertex   -1.000000e+001 -6.000000e+001 -1.000000e+001
    endloop
  endfacet
  facet normal 0.000000e+000 -1.000000e+000 0.000000e+000
    outer loop
      vertex   -1.000000e+001 -6.500000e+001 -1.000000e+001
      vertex   5.000000e+000 -6.500000e+001 -1.000000e+001
      vertex   -1.000000e+001 -6.500000e+001 0.000000e+000
    endloop
  endfacet
  facet normal 0.000000e+000 -5.547002e-001 0.000000e+000
    outer loop
      vertex   -1.000000e+001 -6.500000e+001 0.000000e+000
      vertex   5.000000e+000 -6.500000e+001 -1.000000e+001
      vertex   5.000000e+000 -6.500000e+001 0.000000e+000
    endloop
  endfacet
  facet normal 0.000000e+000 0.000000e+000 1.000000e+000
    outer loop
      vertex   -1.000000e+001 6.000000e+001 0.000000e+000
      vertex   5.000000e+000 6.000000e+001 0.000000e+000
      vertex   -1.000000e+001 6.500000e+001 0.000000e+000
    endloop
  endfacet
  facet normal -0.000000e+000 0.000000e+000 3.162278e-001
    outer loop
      vertex   -1.000000e+001 6.500000e+001 0.000000e+000
      vertex   5.000000e+000 6.000000e+001 0.000000e+000
      vertex   5.000000e+000 6.500000e+001 0.000000e+000
    endloop
  endfacet
  facet normal 0.000000e+000 0.000000e+000 9.597374e-001
    outer loop
      vertex   5.000000e+000 6.500000e+001 0.000000e+000
      vertex   5.000000e+000 6.000000e+001 0.000000e+000
      vertex   4.200000e+001 5.417073e+001 0.000000e+000
    endloop
  endfacet
  facet normal 4.789374e-018 3.039949e-017 8.163285e-001
    outer loop
      vertex   4.200000e+001 5.417073e+001 0.000000e+000
      vertex   5.000000e+000 6.000000e+001 0.000000e+000
      vertex   4.500000e+001 4.810811e+001 2.081668e-016
    endloop
  endfacet
  facet normal 8.644505e-018 2.953540e-017 7.356045e-001
    outer loop
      vertex   4.200000e+001 5.417073e+001 0.000000e+000
      vertex   4.500000e+001 4.810811e+001 2.081668e-016
      vertex   7.900000e+001 4.334146e+001 0.000000e+000
    endloop
  endfacet
  facet normal 5.797232e-018 -1.776287e-018 9.875388e-001
    outer loop
      vertex   7.900000e+001 4.334146e+001 0.000000e+000
      vertex   4.500000e+001 4.810811e+001 2.081668e-016
      vertex   7.750000e+001 3.844595e+001 0.000000e+000
    endloop
  endfacet
  facet normal 0.000000e+000 0.000000e+000 9.899752e-001
    outer loop
      vertex   7.900000e+001 4.334146e+001 0.000000e+000
      vertex   7.750000e+001 3.844595e+001 0.000000e+000
      vertex   1.100000e+002 2.878378e+001 0.000000e+000
    endloop
  endfacet
  facet normal 0.000000e+000 0.000000e+000 2.068114e-002
    outer loop
      vertex   1.100000e+002 0.000000e+000 0.000000e+000
      vertex   1.103972e+002 1.920077e+001 0.000000e+000
      vertex   1.100000e+002 2.878378e+001 0.000000e+000
    endloop
  endfacet
  facet normal 0.000000e+000 0.000000e+000 2.125938e-001
    outer loop
      vertex   1.100000e+002 2.878378e+001 0.000000e+000
      vertex   1.103972e+002 1.920077e+001 0.000000e+000
      vertex   1.114997e+002 2.304582e+001 0.000000e+000
    endloop
  endfacet
  facet normal 0.000000e+000 0.000000e+000 8.553209e-001
    outer loop
      vertex   1.100000e+002 2.878378e+001 0.000000e+000
      vertex   1.114997e+002 2.304582e+001 0.000000e+000
      vertex   1.150000e+002 2.729730e+001 0.000000e+000
    endloop
  endfacet
  facet normal 0.000000e+000 0.000000e+000 6.167506e-001
    outer loop
      vertex   1.150000e+002 2.729730e+001 0.000000e+000
      vertex   1.114997e+002 2.304582e+001 0.000000e+000
      vertex   1.148738e+002 2.207833e+001 0.000000e+000
    endloop
  endfacet
  facet normal 0.000000e+000 0.000000e+000 2.418085e-002
    outer loop
      vertex   1.150000e+002 2.729730e+001 0.000000e+000
      vertex   1.148738e+002 2.207833e+001 0.000000e+000
      vertex   1.150000e+002 -2.729730e+001 0.000000e+000
    endloop
  endfacet
  facet normal 0.000000e+000 0.000000e+000 2.162488e-002
    outer loop
      vertex   1.150000e+002 -2.729730e+001 0.000000e+000
      vertex   1.148738e+002 2.207833e+001 0.000000e+000
      vertex   1.148738e+002 -2.207833e+001 0.000000e+000
    endloop
  endfacet
  facet normal 0.000000e+000 0.000000e+000 6.167506e-001
    outer loop
      vertex   1.150000e+002 -2.729730e+001 0.000000e+000
      vertex   1.148738e+002 -2.207833e+001 0.000000e+000
      vertex   1.114997e+002 -2.304582e+001 0.000000e+000
    endloop
  endfacet
  facet normal 0.000000e+000 0.000000e+000 4.141056e-002
    outer loop
      vertex   1.100000e+002 -2.878378e+001 0.000000e+000
      vertex   1.103972e+002 -1.920077e+001 0.000000e+000
      vertex   1.100000e+002 0.000000e+000 0.000000e+000
    endloop
  endfacet
  facet normal 0.000000e+000 0.000000e+000 1.822487e-001
    outer loop
      vertex   1.100000e+002 0.000000e+000 0.000000e+000
      vertex   1.103972e+002 -1.920077e+001 0.000000e+000
      vertex   1.137712e+002 -1.823328e+001 0.000000e+000
    endloop
  endfacet
  facet normal -0.000000e+000 0.000000e+000 3.966928e-001
    outer loop
      vertex   1.100000e+002 0.000000e+000 0.000000e+000
      vertex   1.137712e+002 -1.823328e+001 0.000000e+000
      vertex   1.137712e+002 1.823328e+001 0.000000e+000
    endloop
  endfacet
  facet normal -0.000000e+000 0.000000e+000 2.756367e-001
    outer loop
      vertex   1.137712e+002 1.823328e+001 0.000000e+000
      vertex   1.137712e+002 -1.823328e+001 0.000000e+000
      vertex   1.148738e+002 2.207833e+001 0.000000e+000
    endloop
  endfacet
  facet normal 0.000000e+000 0.000000e+000 2.734037e-002
    outer loop
      vertex   1.148738e+002 2.207833e+001 0.000000e+000
      vertex   1.137712e+002 -1.823328e+001 0.000000e+000
      vertex   1.148738e+002 -2.207833e+001 0.000000e+000
    endloop
  endfacet
  facet normal -0.000000e+000 0.000000e+000 9.999652e-001
    outer loop
      vertex   7.750000e+001 -3.844595e+001 0.000000e+000
      vertex   7.900000e+001 -4.334146e+001 0.000000e+000
      vertex   1.100000e+002 -2.878378e+001 0.000000e+000
    endloop
  endfacet
  facet normal 0.000000e+000 0.000000e+000 8.387825e-001
    outer loop
      vertex   1.100000e+002 -2.878378e+001 0.000000e+000
      vertex   7.900000e+001 -4.334146e+001 0.000000e+000
      vertex   1.160000e+002 -3.251220e+001 0.000000e+000
    endloop
  endfacet
  facet normal -0.000000e+000 0.000000e+000 7.479600e-001
    outer loop
      vertex   1.100000e+002 -2.878378e+001 0.000000e+000
      vertex   1.160000e+002 -3.251220e+001 0.000000e+000
      vertex   1.150000e+002 -2.729730e+001 0.000000e+000
    endloop
  endfacet
  facet normal -0.000000e+000 0.000000e+000 9.950523e-001
    outer loop
      vertex   1.150000e+002 -2.729730e+001 0.000000e+000
      vertex   1.160000e+002 -3.251220e+001 0.000000e+000
      vertex   1.160000e+002 -2.700000e+001 0.000000e+000
    endloop
  endfacet
  facet normal 5.870179e-018 1.798638e-018 9.999652e-001
    outer loop
      vertex   7.750000e+001 -3.844595e+001 0.000000e+000
      vertex   4.500000e+001 -4.810811e+001 2.081668e-016
      vertex   7.900000e+001 -4.334146e+001 0.000000e+000
    endloop
  endfacet
  facet normal 1.703161e-018 -5.819135e-018 1.449306e-001
    outer loop
      vertex   7.900000e+001 -4.334146e+001 0.000000e+000
      vertex   4.500000e+001 -4.810811e+001 2.081668e-016
      vertex   4.200000e+001 -5.417073e+001 0.000000e+000
    endloop
  endfacet
  facet normal 4.789374e-018 -3.039949e-017 8.163285e-001
    outer loop
      vertex   4.200000e+001 -5.417073e+001 0.000000e+000
      vertex   4.500000e+001 -4.810811e+001 2.081668e-016
      vertex   5.000000e+000 -6.000000e+001 0.000000e+000
    endloop
  endfacet
  facet normal 0.000000e+000 0.000000e+000 1.281140e-001
    outer loop
      vertex   4.200000e+001 -5.417073e+001 0.000000e+000
      vertex   5.000000e+000 -6.000000e+001 0.000000e+000
      vertex   5.000000e+000 -6.500000e+001 0.000000e+000
    endloop
  endfacet
  facet normal 0.000000e+000 -0.000000e+000 9.486833e-001
    outer loop
      vertex   5.000000e+000 -6.500000e+001 0.000000e+000
      vertex   5.000000e+000 -6.000000e+001 0.000000e+000
      vertex   -1.000000e+001 -6.000000e+001 0.000000e+000
    endloop
  endfacet
  facet normal 0.000000e+000 0.000000e+000 3.162278e-001
    outer loop
      vertex   5.000000e+000 -6.500000e+001 0.000000e+000
      vertex   -1.000000e+001 -6.000000e+001 0.000000e+000
      vertex   -1.000000e+001 -6.500000e+001 0.000000e+000
    endloop
  endfacet
  facet normal 0.000000e+000 -0.000000e+000 9.585366e-001
    outer loop
      vertex   1.160000e+002 2.700000e+001 0.000000e+000
      vertex   1.160000e+002 3.251220e+001 0.000000e+000
      vertex   1.150000e+002 2.729730e+001 0.000000e+000
    endloop
  endfacet
  facet normal 0.000000e+000 -0.000000e+000 9.950523e-001
    outer loop
      vertex   1.150000e+002 2.729730e+001 0.000000e+000
      vertex   1.160000e+002 3.251220e+001 0.000000e+000
      vertex   1.100000e+002 2.878378e+001 0.000000e+000
    endloop
  endfacet
  facet normal 0.000000e+000 0.000000e+000 7.451357e-001
    outer loop
      vertex   1.160000e+002 3.251220e+001 0.000000e+000
      vertex   7.900000e+001 4.334146e+001 0.000000e+000
      vertex   1.100000e+002 2.878378e+001 0.000000e+000
    endloop
  endfacet
  facet normal 0.000000e+000 0.000000e+000 9.971666e-001
    outer loop
      vertex   1.137712e+002 1.823328e+001 0.000000e+000
      vertex   1.103972e+002 1.920077e+001 0.000000e+000
      vertex   1.100000e+002 0.000000e+000 0.000000e+000
    endloop
  endfacet
  facet normal 0.000000e+000 0.000000e+000 9.211327e-001
    outer loop
      vertex   1.150000e+002 -2.729730e+001 0.000000e+000
      vertex   1.114997e+002 -2.304582e+001 0.000000e+000
      vertex   1.100000e+002 -2.878378e+001 0.000000e+000
    endloop
  endfacet
  facet normal 0.000000e+000 0.000000e+000 2.125938e-001
    outer loop
      vertex   1.100000e+002 -2.878378e+001 0.000000e+000
      vertex   1.114997e+002 -2.304582e+001 0.000000e+000
      vertex   1.103972e+002 -1.920077e+001 0.000000e+000
    endloop
  endfacet
  facet normal -0.000000e+000 1.000000e+000 0.000000e+000
    outer loop
      vertex   -1.000000e+001 6.500000e+001 0.000000e+000
      vertex   5.000000e+000 6.500000e+001 0.000000e+000
      vertex   -1.000000e+001 6.500000e+001 -1.000000e+001
    endloop
  endfacet
  facet normal 0.000000e+000 5.547002e-001 0.000000e+000
    outer loop
      vertex   -1.000000e+001 6.500000e+001 -1.000000e+001
      vertex   5.000000e+000 6.500000e+001 0.000000e+000
      vertex   5.000000e+000 6.500000e+001 -1.000000e+001
    endloop
  endfacet
  facet normal -3.511235e-001 0.000000e+000 0.000000e+000
    outer loop
      vertex   -1.000000e+001 6.400000e+001 -1.500000e+000
      vertex   -1.000000e+001 6.100000e+001 -1.500000e+000
      vertex   -1.000000e+001 6.000000e+001 0.000000e+000
    endloop
  endfacet
  facet normal -4.536830e-001 0.000000e+000 0.000000e+000
    outer loop
      vertex   -1.000000e+001 6.000000e+001 0.000000e+000
      vertex   -1.000000e+001 6.100000e+001 -1.500000e+000
      vertex   -1.000000e+001 6.100000e+001 -8.500000e+000
    endloop
  endfacet
  facet normal -1.168412e-001 0.000000e+000 0.000000e+000
    outer loop
      vertex   -1.000000e+001 6.000000e+001 0.000000e+000
      vertex   -1.000000e+001 6.100000e+001 -8.500000e+000
      vertex   -1.000000e+001 6.000000e+001 -1.000000e+001
    endloop
  endfacet
  facet normal -5.843047e-001 0.000000e+000 0.000000e+000
    outer loop
      vertex   -1.000000e+001 6.000000e+001 -1.000000e+001
      vertex   -1.000000e+001 6.100000e+001 -8.500000e+000
      vertex   -1.000000e+001 6.400000e+001 -8.500000e+000
    endloop
  endfacet
  facet normal -3.511235e-001 0.000000e+000 0.000000e+000
    outer loop
      vertex   -1.000000e+001 6.000000e+001 -1.000000e+001
      vertex   -1.000000e+001 6.400000e+001 -8.500000e+000
      vertex   -1.000000e+001 6.500000e+001 -1.000000e+001
    endloop
  endfacet
  facet normal -4.536830e-001 0.000000e+000 0.000000e+000
    outer loop
      vertex   -1.000000e+001 6.500000e+001 -1.000000e+001
      vertex   -1.000000e+001 6.400000e+001 -8.500000e+000
      vertex   -1.000000e+001 6.400000e+001 -1.500000e+000
    endloop
  endfacet
  facet normal -1.168412e-001 0.000000e+000 0.000000e+000
    outer loop
      vertex   -1.000000e+001 6.500000e+001 -1.000000e+001
      vertex   -1.000000e+001 6.400000e+001 -1.500000e+000
      vertex   -1.000000e+001 6.500000e+001 0.000000e+000
    endloop
  endfacet
  facet normal -8.320503e-001 -0.000000e+000 0.000000e+000
    outer loop
      vertex   -1.000000e+001 6.500000e+001 0.000000e+000
      vertex   -1.000000e+001 6.400000e+001 -1.500000e+000
      vertex   -1.000000e+001 6.000000e+001 0.000000e+000
    endloop
  endfacet
  facet normal -3.511235e-001 0.000000e+000 0.000000e+000
    outer loop
      vertex   -1.000000e+001 -6.100000e+001 -1.500000e+000
      vertex   -1.000000e+001 -6.400000e+001 -1.500000e+000
      vertex   -1.000000e+001 -6.500000e+001 0.000000e+000
    endloop
  endfacet
  facet normal -4.536830e-001 0.000000e+000 0.000000e+000
    outer loop
      vertex   -1.000000e+001 -6.500000e+001 0.000000e+000
      vertex   -1.000000e+001 -6.400000e+001 -1.500000e+000
      vertex   -1.000000e+001 -6.400000e+001 -8.500000e+000
    endloop
  endfacet
  facet normal -1.168412e-001 0.000000e+000 0.000000e+000
    outer loop
      vertex   -1.000000e+001 -6.500000e+001 0.000000e+000
      vertex   -1.000000e+001 -6.400000e+001 -8.500000e+000
      vertex   -1.000000e+001 -6.500000e+001 -1.000000e+001
    endloop
  endfacet
  facet normal -5.843047e-001 0.000000e+000 0.000000e+000
    outer loop
      vertex   -1.000000e+001 -6.500000e+001 -1.000000e+001
      vertex   -1.000000e+001 -6.400000e+001 -8.500000e+000
      vertex   -1.000000e+001 -6.100000e+001 -8.500000e+000
    endloop
  endfacet
  facet normal -3.511235e-001 0.000000e+000 0.000000e+000
    outer loop
      vertex   -1.000000e+001 -6.500000e+001 -1.000000e+001
      vertex   -1.000000e+001 -6.100000e+001 -8.500000e+000
      vertex   -1.000000e+001 -6.000000e+001 -1.000000e+001
    endloop
  endfacet
  facet normal -4.536830e-001 0.000000e+000 0.000000e+000
    outer loop
      vertex   -1.000000e+001 -6.000000e+001 -1.000000e+001
      vertex   -1.000000e+001 -6.100000e+001 -8.500000e+000
      vertex   -1.000000e+001 -6.100000e+001 -1.500000e+000
    endloop
  endfacet
  facet normal -1.168412e-001 0.000000e+000 0.000000e+000
    outer loop
      vertex   -1.000000e+001 -6.000000e+001 -1.000000e+001
      vertex   -1.000000e+001 -6.100000e+001 -1.500000e+000
      vertex   -1.000000e+001 -6.000000e+001 0.000000e+000
    endloop
  endfacet
  facet normal -8.320503e-001 -0.000000e+000 0.000000e+000
    outer loop
      vertex   -1.000000e+001 -6.000000e+001 0.000000e+000
      vertex   -1.000000e+001 -6.100000e+001 -1.500000e+000
      vertex   -1.000000e+001 -6.500000e+001 0.000000e+000
    endloop
  endfacet
endsolid
