solid OpenSCAD_Model
  facet normal -0 0 1
    outer loop
      vertex 1.5 5 -10
      vertex 4.5 -5 -10
      vertex 4.5 5 -10
    endloop
  endfacet
  facet normal 0 0 1
    outer loop
      vertex 4.5 -5 -10
      vertex 1.5 5 -10
      vertex 1.5 -5 -10
    endloop
  endfacet
  facet normal -1 0 0
    outer loop
      vertex 1.5 -5 -20
      vertex 1.5 5 -10
      vertex 1.5 5 -20
    endloop
  endfacet
  facet normal -1 -0 0
    outer loop
      vertex 1.5 5 -10
      vertex 1.5 -5 -20
      vertex 1.5 -5 -10
    endloop
  endfacet
  facet normal 0 1 0
    outer loop
      vertex 4.5 5 -10
      vertex 1.5 5 -20
      vertex 1.5 5 -10
    endloop
  endfacet
  facet normal 0 -1 0
    outer loop
      vertex 1.5 -5 -10
      vertex 1.5 -5 -20
      vertex 4.5 -5 -10
    endloop
  endfacet
  facet normal 0.957826 0 -0.287348
    outer loop
      vertex 4.5 -5 -10
      vertex 1.5 5 -20
      vertex 4.5 5 -10
    endloop
  endfacet
  facet normal 0.957826 0 -0.287348
    outer loop
      vertex 1.5 5 -20
      vertex 4.5 -5 -10
      vertex 1.5 -5 -20
    endloop
  endfacet
  facet normal 1 -0 0
    outer loop
      vertex 3.5 -5 -0.0499992
      vertex 3.5 5 -10
      vertex 3.5 5 -0.0499992
    endloop
  endfacet
  facet normal 1 0 0
    outer loop
      vertex 3.5 5 -10
      vertex 3.5 -5 -0.0499992
      vertex 3.5 -5 -10
    endloop
  endfacet
  facet normal 0 0 -1
    outer loop
      vertex 1.5 -5 -10
      vertex 3.5 5 -10
      vertex 3.5 -5 -10
    endloop
  endfacet
  facet normal -0 0 -1
    outer loop
      vertex 3.5 5 -10
      vertex 1.5 -5 -10
      vertex 1.5 5 -10
    endloop
  endfacet
  facet normal -1 0 0
    outer loop
      vertex 1.5 -5 -10
      vertex 1.5 5 -2
      vertex 1.5 5 -10
    endloop
  endfacet
  facet normal -1 -0 0
    outer loop
      vertex 1.5 5 -2
      vertex 1.5 -5 -10
      vertex 1.5 -5 -2
    endloop
  endfacet
  facet normal 0 1 0
    outer loop
      vertex 3.5 5 -0.0499992
      vertex 1.5 5 -2
      vertex -3.5 5 -0.0499992
    endloop
  endfacet
  facet normal 0 1 -0
    outer loop
      vertex 3.5 5 -10
      vertex 1.5 5 -2
      vertex 3.5 5 -0.0499992
    endloop
  endfacet
  facet normal 0 1 0
    outer loop
      vertex 1.5 5 -2
      vertex 3.5 5 -10
      vertex 1.5 5 -10
    endloop
  endfacet
  facet normal 0 1 -0
    outer loop
      vertex -1.5 5 -2
      vertex -3.5 5 -0.0499992
      vertex 1.5 5 -2
    endloop
  endfacet
  facet normal 0 1 0
    outer loop
      vertex -3.5 5 -20
      vertex -1.5 5 -2
      vertex -1.5 5 -20
    endloop
  endfacet
  facet normal 0 1 0
    outer loop
      vertex -1.5 5 -2
      vertex -3.5 5 -20
      vertex -3.5 5 -0.0499992
    endloop
  endfacet
  facet normal 0 -1 0
    outer loop
      vertex -3.5 -5 -0.0499992
      vertex -1.5 -5 -2
      vertex 3.5 -5 -0.0499992
    endloop
  endfacet
  facet normal 0 -1 0
    outer loop
      vertex -3.5 -5 -20
      vertex -1.5 -5 -2
      vertex -3.5 -5 -0.0499992
    endloop
  endfacet
  facet normal 0 -1 -0
    outer loop
      vertex -1.5 -5 -2
      vertex -3.5 -5 -20
      vertex -1.5 -5 -20
    endloop
  endfacet
  facet normal 0 -1 0
    outer loop
      vertex 1.5 -5 -2
      vertex 3.5 -5 -0.0499992
      vertex -1.5 -5 -2
    endloop
  endfacet
  facet normal 0 -1 0
    outer loop
      vertex 3.5 -5 -10
      vertex 1.5 -5 -2
      vertex 1.5 -5 -10
    endloop
  endfacet
  facet normal 0 -1 0
    outer loop
      vertex 1.5 -5 -2
      vertex 3.5 -5 -10
      vertex 3.5 -5 -0.0499992
    endloop
  endfacet
  facet normal 1 -0 0
    outer loop
      vertex -1.5 -5 -2
      vertex -1.5 5 -20
      vertex -1.5 5 -2
    endloop
  endfacet
  facet normal 1 0 0
    outer loop
      vertex -1.5 5 -20
      vertex -1.5 -5 -2
      vertex -1.5 -5 -20
    endloop
  endfacet
  facet normal 0 0 -1
    outer loop
      vertex -3.5 -5 -20
      vertex -1.5 5 -20
      vertex -1.5 -5 -20
    endloop
  endfacet
  facet normal -0 0 -1
    outer loop
      vertex -1.5 5 -20
      vertex -3.5 -5 -20
      vertex -3.5 5 -20
    endloop
  endfacet
  facet normal -1 0 0
    outer loop
      vertex -3.5 -5 -20
      vertex -3.5 5 -0.0499992
      vertex -3.5 5 -20
    endloop
  endfacet
  facet normal -1 -0 0
    outer loop
      vertex -3.5 5 -0.0499992
      vertex -3.5 -5 -20
      vertex -3.5 -5 -0.0499992
    endloop
  endfacet
  facet normal 0 0 -1
    outer loop
      vertex -1.5 -5 -2
      vertex 1.5 5 -2
      vertex 1.5 -5 -2
    endloop
  endfacet
  facet normal -0 0 -1
    outer loop
      vertex 1.5 5 -2
      vertex -1.5 -5 -2
      vertex -1.5 5 -2
    endloop
  endfacet
  facet normal 1 -0 0
    outer loop
      vertex 4 -5.5 1.05
      vertex 4 5.5 -0.0499992
      vertex 4 5.5 1.05
    endloop
  endfacet
  facet normal 1 0 0
    outer loop
      vertex 4 5.5 -0.0499992
      vertex 4 -5.5 1.05
      vertex 4 -5.5 -0.0499992
    endloop
  endfacet
  facet normal -0 0 1
    outer loop
      vertex -4 5.5 1.05
      vertex 4 -5.5 1.05
      vertex 4 5.5 1.05
    endloop
  endfacet
  facet normal 0 0 1
    outer loop
      vertex 4 -5.5 1.05
      vertex -4 5.5 1.05
      vertex -4 -5.5 1.05
    endloop
  endfacet
  facet normal 0 0 -1
    outer loop
      vertex 4 -5.5 -0.0499992
      vertex 3.5 -5 -0.0499992
      vertex 4 5.5 -0.0499992
    endloop
  endfacet
  facet normal 0 0 -1
    outer loop
      vertex 4 -5.5 -0.0499992
      vertex -3.5 -5 -0.0499992
      vertex 3.5 -5 -0.0499992
    endloop
  endfacet
  facet normal -0 0 -1
    outer loop
      vertex -3.5 -5 -0.0499992
      vertex -4 -5.5 -0.0499992
      vertex -3.5 5 -0.0499992
    endloop
  endfacet
  facet normal 0 0 -1
    outer loop
      vertex -4 -5.5 -0.0499992
      vertex -3.5 -5 -0.0499992
      vertex 4 -5.5 -0.0499992
    endloop
  endfacet
  facet normal 0 0 -1
    outer loop
      vertex 3.5 5 -0.0499992
      vertex 4 5.5 -0.0499992
      vertex 3.5 -5 -0.0499992
    endloop
  endfacet
  facet normal 0 0 -1
    outer loop
      vertex -3.5 5 -0.0499992
      vertex 4 5.5 -0.0499992
      vertex 3.5 5 -0.0499992
    endloop
  endfacet
  facet normal 0 0 -1
    outer loop
      vertex -3.5 5 -0.0499992
      vertex -4 5.5 -0.0499992
      vertex 4 5.5 -0.0499992
    endloop
  endfacet
  facet normal 0 0 -1
    outer loop
      vertex -4 5.5 -0.0499992
      vertex -3.5 5 -0.0499992
      vertex -4 -5.5 -0.0499992
    endloop
  endfacet
  facet normal -1 0 0
    outer loop
      vertex -4 -5.5 -0.0499992
      vertex -4 5.5 1.05
      vertex -4 5.5 -0.0499992
    endloop
  endfacet
  facet normal -1 -0 0
    outer loop
      vertex -4 5.5 1.05
      vertex -4 -5.5 -0.0499992
      vertex -4 -5.5 1.05
    endloop
  endfacet
  facet normal 0 1 -0
    outer loop
      vertex 4 5.5 -0.0499992
      vertex -4 5.5 1.05
      vertex 4 5.5 1.05
    endloop
  endfacet
  facet normal 0 1 0
    outer loop
      vertex -4 5.5 1.05
      vertex 4 5.5 -0.0499992
      vertex -4 5.5 -0.0499992
    endloop
  endfacet
  facet normal 0 -1 0
    outer loop
      vertex -4 -5.5 -0.0499992
      vertex 4 -5.5 1.05
      vertex -4 -5.5 1.05
    endloop
  endfacet
  facet normal 0 -1 -0
    outer loop
      vertex 4 -5.5 1.05
      vertex -4 -5.5 -0.0499992
      vertex 4 -5.5 -0.0499992
    endloop
  endfacet
endsolid OpenSCAD_Model
