solid OpenSCAD_Model
  facet normal -0 0 1
    outer loop
      vertex 4.04993e-07 5 -10
      vertex 3 -5 -10
      vertex 3 5 -10
    endloop
  endfacet
  facet normal 0 0 1
    outer loop
      vertex 3 -5 -10
      vertex 4.04993e-07 5 -10
      vertex 4.04993e-07 -5 -10
    endloop
  endfacet
  facet normal -1 0 0
    outer loop
      vertex 4.04993e-07 -5 -15
      vertex 4.04993e-07 5 -10
      vertex 4.04993e-07 5 -15
    endloop
  endfacet
  facet normal -1 -0 0
    outer loop
      vertex 4.04993e-07 5 -10
      vertex 4.04993e-07 -5 -15
      vertex 4.04993e-07 -5 -10
    endloop
  endfacet
  facet normal 0 1 0
    outer loop
      vertex 3 5 -10
      vertex 4.04993e-07 5 -15
      vertex 4.04993e-07 5 -10
    endloop
  endfacet
  facet normal 0 -1 0
    outer loop
      vertex 4.04993e-07 -5 -10
      vertex 4.04993e-07 -5 -15
      vertex 3 -5 -10
    endloop
  endfacet
  facet normal 0.857493 0 -0.514496
    outer loop
      vertex 3 -5 -10
      vertex 4.04993e-07 5 -15
      vertex 3 5 -10
    endloop
  endfacet
  facet normal 0.857493 0 -0.514496
    outer loop
      vertex 4.04993e-07 5 -15
      vertex 3 -5 -10
      vertex 4.04993e-07 -5 -15
    endloop
  endfacet
  facet normal 1 -0 0
    outer loop
      vertex 2 -5 0
      vertex 2 5 -10
      vertex 2 5 0
    endloop
  endfacet
  facet normal 1 0 0
    outer loop
      vertex 2 5 -10
      vertex 2 -5 0
      vertex 2 -5 -10
    endloop
  endfacet
  facet normal -0 0 1
    outer loop
      vertex -5 5 0
      vertex 2 -5 0
      vertex 2 5 0
    endloop
  endfacet
  facet normal 0 0 1
    outer loop
      vertex 2 -5 0
      vertex -5 5 0
      vertex -5 -5 0
    endloop
  endfacet
  facet normal 0 0 -1
    outer loop
      vertex 0 -5 -10
      vertex 2 5 -10
      vertex 2 -5 -10
    endloop
  endfacet
  facet normal -0 0 -1
    outer loop
      vertex 2 5 -10
      vertex 0 -5 -10
      vertex 0 5 -10
    endloop
  endfacet
  facet normal -1 0 0
    outer loop
      vertex 0 -5 -10
      vertex 0 5 -2
      vertex 0 5 -10
    endloop
  endfacet
  facet normal -1 -0 0
    outer loop
      vertex 0 5 -2
      vertex 0 -5 -10
      vertex 0 -5 -2
    endloop
  endfacet
  facet normal 0 1 0
    outer loop
      vertex 2 5 0
      vertex 0 5 -2
      vertex -5 5 0
    endloop
  endfacet
  facet normal 0 1 -0
    outer loop
      vertex 2 5 -10
      vertex 0 5 -2
      vertex 2 5 0
    endloop
  endfacet
  facet normal 0 1 0
    outer loop
      vertex 0 5 -2
      vertex 2 5 -10
      vertex 0 5 -10
    endloop
  endfacet
  facet normal 0 1 -0
    outer loop
      vertex -3 5 -2
      vertex -5 5 0
      vertex 0 5 -2
    endloop
  endfacet
  facet normal 0 1 0
    outer loop
      vertex -5 5 -15
      vertex -3 5 -2
      vertex -3 5 -15
    endloop
  endfacet
  facet normal 0 1 0
    outer loop
      vertex -3 5 -2
      vertex -5 5 -15
      vertex -5 5 0
    endloop
  endfacet
  facet normal 0 -1 0
    outer loop
      vertex -5 -5 0
      vertex -3 -5 -2
      vertex 2 -5 0
    endloop
  endfacet
  facet normal 0 -1 0
    outer loop
      vertex -5 -5 -15
      vertex -3 -5 -2
      vertex -5 -5 0
    endloop
  endfacet
  facet normal 0 -1 -0
    outer loop
      vertex -3 -5 -2
      vertex -5 -5 -15
      vertex -3 -5 -15
    endloop
  endfacet
  facet normal 0 -1 0
    outer loop
      vertex 0 -5 -2
      vertex 2 -5 0
      vertex -3 -5 -2
    endloop
  endfacet
  facet normal 0 -1 0
    outer loop
      vertex 2 -5 -10
      vertex 0 -5 -2
      vertex 0 -5 -10
    endloop
  endfacet
  facet normal 0 -1 0
    outer loop
      vertex 0 -5 -2
      vertex 2 -5 -10
      vertex 2 -5 0
    endloop
  endfacet
  facet normal 1 -0 0
    outer loop
      vertex -3 -5 -2
      vertex -3 5 -15
      vertex -3 5 -2
    endloop
  endfacet
  facet normal 1 0 0
    outer loop
      vertex -3 5 -15
      vertex -3 -5 -2
      vertex -3 -5 -15
    endloop
  endfacet
  facet normal 0 0 -1
    outer loop
      vertex -5 -5 -15
      vertex -3 5 -15
      vertex -3 -5 -15
    endloop
  endfacet
  facet normal -0 0 -1
    outer loop
      vertex -3 5 -15
      vertex -5 -5 -15
      vertex -5 5 -15
    endloop
  endfacet
  facet normal -1 0 0
    outer loop
      vertex -5 -5 -15
      vertex -5 5 0
      vertex -5 5 -15
    endloop
  endfacet
  facet normal -1 -0 0
    outer loop
      vertex -5 5 0
      vertex -5 -5 -15
      vertex -5 -5 0
    endloop
  endfacet
  facet normal 0 0 -1
    outer loop
      vertex -3 -5 -2
      vertex 0 5 -2
      vertex 0 -5 -2
    endloop
  endfacet
  facet normal -0 0 -1
    outer loop
      vertex 0 5 -2
      vertex -3 -5 -2
      vertex -3 5 -2
    endloop
  endfacet
endsolid OpenSCAD_Model
