solid OpenSCAD_Model
  facet normal -0 0 1
    outer loop
      vertex 18.5 4 -44.5981
      vertex 21.5 1.95 -44.5981
      vertex 21.5 4 -44.5981
    endloop
  endfacet
  facet normal 0 0 1
    outer loop
      vertex 21.5 1.95 -44.5981
      vertex 18.5 4 -44.5981
      vertex 18.5 1.95 -44.5981
    endloop
  endfacet
  facet normal 0.866027 -0 0.499997
    outer loop
      vertex 17 1.95 -42
      vertex 18.5 4 -44.5981
      vertex 17 4 -42
    endloop
  endfacet
  facet normal 0.866027 0 0.499997
    outer loop
      vertex 18.5 4 -44.5981
      vertex 17 1.95 -42
      vertex 18.5 1.95 -44.5981
    endloop
  endfacet
  facet normal 0 0 -1
    outer loop
      vertex 18.5 1.95 -39.4019
      vertex 21.5 4 -39.4019
      vertex 21.5 1.95 -39.4019
    endloop
  endfacet
  facet normal -0 0 -1
    outer loop
      vertex 21.5 4 -39.4019
      vertex 18.5 1.95 -39.4019
      vertex 18.5 4 -39.4019
    endloop
  endfacet
  facet normal 0.866027 0 -0.499997
    outer loop
      vertex 18.5 1.95 -39.4019
      vertex 17 4 -42
      vertex 18.5 4 -39.4019
    endloop
  endfacet
  facet normal 0.866027 0 -0.499997
    outer loop
      vertex 17 4 -42
      vertex 18.5 1.95 -39.4019
      vertex 17 1.95 -42
    endloop
  endfacet
  facet normal -0.866027 0 -0.499997
    outer loop
      vertex 23 1.95 -42
      vertex 21.5 4 -39.4019
      vertex 23 4 -42
    endloop
  endfacet
  facet normal -0.866027 -0 -0.499997
    outer loop
      vertex 21.5 4 -39.4019
      vertex 23 1.95 -42
      vertex 21.5 1.95 -39.4019
    endloop
  endfacet
  facet normal -0.866027 0 0.499997
    outer loop
      vertex 21.5 1.95 -44.5981
      vertex 23 4 -42
      vertex 21.5 4 -44.5981
    endloop
  endfacet
  facet normal -0.866027 0 0.499997
    outer loop
      vertex 23 4 -42
      vertex 21.5 1.95 -44.5981
      vertex 23 1.95 -42
    endloop
  endfacet
  facet normal 0 1 0
    outer loop
      vertex 21.5 1.95 -39.4019
      vertex 20 1.95 -40.5
      vertex 18.5 1.95 -39.4019
    endloop
  endfacet
  facet normal 0 1 0
    outer loop
      vertex 21.5 1.95 -39.4019
      vertex 20.2605 1.95 -40.5228
      vertex 20 1.95 -40.5
    endloop
  endfacet
  facet normal 0 1 0
    outer loop
      vertex 21.5 1.95 -39.4019
      vertex 20.513 1.95 -40.5905
      vertex 20.2605 1.95 -40.5228
    endloop
  endfacet
  facet normal 0 1 0
    outer loop
      vertex 21.5 1.95 -39.4019
      vertex 20.75 1.95 -40.701
      vertex 20.513 1.95 -40.5905
    endloop
  endfacet
  facet normal 0 1 0
    outer loop
      vertex 21.5 1.95 -39.4019
      vertex 20.9642 1.95 -40.8509
      vertex 20.75 1.95 -40.701
    endloop
  endfacet
  facet normal 0 1 0
    outer loop
      vertex 21.5 1.95 -39.4019
      vertex 21.1491 1.95 -41.0358
      vertex 20.9642 1.95 -40.8509
    endloop
  endfacet
  facet normal 0 1 0
    outer loop
      vertex 21.5 1.95 -39.4019
      vertex 21.299 1.95 -41.25
      vertex 21.1491 1.95 -41.0358
    endloop
  endfacet
  facet normal 0 1 0
    outer loop
      vertex 23 1.95 -42
      vertex 21.299 1.95 -41.25
      vertex 21.5 1.95 -39.4019
    endloop
  endfacet
  facet normal 0 1 0
    outer loop
      vertex 21.299 1.95 -41.25
      vertex 23 1.95 -42
      vertex 21.4095 1.95 -41.487
    endloop
  endfacet
  facet normal 0 1 0
    outer loop
      vertex 21.4095 1.95 -41.487
      vertex 23 1.95 -42
      vertex 21.4772 1.95 -41.7395
    endloop
  endfacet
  facet normal 0 1 0
    outer loop
      vertex 23 1.95 -42
      vertex 21.5 1.95 -42
      vertex 21.4772 1.95 -41.7395
    endloop
  endfacet
  facet normal 0 1 0
    outer loop
      vertex 23 1.95 -42
      vertex 21.4772 1.95 -42.2605
      vertex 21.5 1.95 -42
    endloop
  endfacet
  facet normal 0 1 0
    outer loop
      vertex 23 1.95 -42
      vertex 21.4095 1.95 -42.513
      vertex 21.4772 1.95 -42.2605
    endloop
  endfacet
  facet normal 0 1 0
    outer loop
      vertex 23 1.95 -42
      vertex 21.299 1.95 -42.75
      vertex 21.4095 1.95 -42.513
    endloop
  endfacet
  facet normal 0 1 -0
    outer loop
      vertex 21.5 1.95 -44.5981
      vertex 21.299 1.95 -42.75
      vertex 23 1.95 -42
    endloop
  endfacet
  facet normal 0 1 0
    outer loop
      vertex 21.299 1.95 -42.75
      vertex 21.5 1.95 -44.5981
      vertex 21.1491 1.95 -42.9642
    endloop
  endfacet
  facet normal 0 1 0
    outer loop
      vertex 21.1491 1.95 -42.9642
      vertex 21.5 1.95 -44.5981
      vertex 20.9642 1.95 -43.1491
    endloop
  endfacet
  facet normal 0 1 0
    outer loop
      vertex 20.2605 1.95 -43.4772
      vertex 21.5 1.95 -44.5981
      vertex 20 1.95 -43.5
    endloop
  endfacet
  facet normal 0 1 0
    outer loop
      vertex 20.513 1.95 -43.4095
      vertex 21.5 1.95 -44.5981
      vertex 20.2605 1.95 -43.4772
    endloop
  endfacet
  facet normal 0 1 0
    outer loop
      vertex 20.75 1.95 -43.299
      vertex 21.5 1.95 -44.5981
      vertex 20.513 1.95 -43.4095
    endloop
  endfacet
  facet normal 0 1 0
    outer loop
      vertex 20.9642 1.95 -43.1491
      vertex 21.5 1.95 -44.5981
      vertex 20.75 1.95 -43.299
    endloop
  endfacet
  facet normal 0 1 -0
    outer loop
      vertex 19.7395 1.95 -40.5228
      vertex 18.5 1.95 -39.4019
      vertex 20 1.95 -40.5
    endloop
  endfacet
  facet normal 0 1 -0
    outer loop
      vertex 19.487 1.95 -40.5905
      vertex 18.5 1.95 -39.4019
      vertex 19.7395 1.95 -40.5228
    endloop
  endfacet
  facet normal 0 1 -0
    outer loop
      vertex 19.25 1.95 -40.701
      vertex 18.5 1.95 -39.4019
      vertex 19.487 1.95 -40.5905
    endloop
  endfacet
  facet normal 0 1 -0
    outer loop
      vertex 19.0358 1.95 -40.8509
      vertex 18.5 1.95 -39.4019
      vertex 19.25 1.95 -40.701
    endloop
  endfacet
  facet normal 0 1 -0
    outer loop
      vertex 18.8509 1.95 -41.0358
      vertex 18.5 1.95 -39.4019
      vertex 19.0358 1.95 -40.8509
    endloop
  endfacet
  facet normal 0 1 -0
    outer loop
      vertex 18.701 1.95 -41.25
      vertex 18.5 1.95 -39.4019
      vertex 18.8509 1.95 -41.0358
    endloop
  endfacet
  facet normal 0 1 0
    outer loop
      vertex 17 1.95 -42
      vertex 18.701 1.95 -41.25
      vertex 18.5905 1.95 -41.487
    endloop
  endfacet
  facet normal 0 1 0
    outer loop
      vertex 17 1.95 -42
      vertex 18.5905 1.95 -41.487
      vertex 18.5228 1.95 -41.7395
    endloop
  endfacet
  facet normal 0 1 0
    outer loop
      vertex 17 1.95 -42
      vertex 18.5228 1.95 -41.7395
      vertex 18.5 1.95 -42
    endloop
  endfacet
  facet normal 0 1 0
    outer loop
      vertex 18.701 1.95 -41.25
      vertex 17 1.95 -42
      vertex 18.5 1.95 -39.4019
    endloop
  endfacet
  facet normal 0 1 0
    outer loop
      vertex 18.5228 1.95 -42.2605
      vertex 17 1.95 -42
      vertex 18.5 1.95 -42
    endloop
  endfacet
  facet normal 0 1 0
    outer loop
      vertex 18.5905 1.95 -42.513
      vertex 17 1.95 -42
      vertex 18.5228 1.95 -42.2605
    endloop
  endfacet
  facet normal 0 1 0
    outer loop
      vertex 18.701 1.95 -42.75
      vertex 17 1.95 -42
      vertex 18.5905 1.95 -42.513
    endloop
  endfacet
  facet normal 0 1 0
    outer loop
      vertex 18.5 1.95 -44.5981
      vertex 18.701 1.95 -42.75
      vertex 18.8509 1.95 -42.9642
    endloop
  endfacet
  facet normal 0 1 0
    outer loop
      vertex 18.5 1.95 -44.5981
      vertex 18.8509 1.95 -42.9642
      vertex 19.0358 1.95 -43.1491
    endloop
  endfacet
  facet normal 0 1 0
    outer loop
      vertex 18.5 1.95 -44.5981
      vertex 19.0358 1.95 -43.1491
      vertex 19.25 1.95 -43.299
    endloop
  endfacet
  facet normal 0 1 0
    outer loop
      vertex 18.5 1.95 -44.5981
      vertex 20 1.95 -43.5
      vertex 21.5 1.95 -44.5981
    endloop
  endfacet
  facet normal 0 1 0
    outer loop
      vertex 20 1.95 -43.5
      vertex 18.5 1.95 -44.5981
      vertex 19.7395 1.95 -43.4772
    endloop
  endfacet
  facet normal 0 1 0
    outer loop
      vertex 19.7395 1.95 -43.4772
      vertex 18.5 1.95 -44.5981
      vertex 19.487 1.95 -43.4095
    endloop
  endfacet
  facet normal 0 1 0
    outer loop
      vertex 19.487 1.95 -43.4095
      vertex 18.5 1.95 -44.5981
      vertex 19.25 1.95 -43.299
    endloop
  endfacet
  facet normal 0 1 0
    outer loop
      vertex 18.701 1.95 -42.75
      vertex 18.5 1.95 -44.5981
      vertex 17 1.95 -42
    endloop
  endfacet
  facet normal 0.965885 -0 0.258972
    outer loop
      vertex 18.5228 0 -42.2605
      vertex 18.5905 1.95 -42.513
      vertex 18.5228 1.95 -42.2605
    endloop
  endfacet
  facet normal 0.965885 0 0.258972
    outer loop
      vertex 18.5905 1.95 -42.513
      vertex 18.5228 0 -42.2605
      vertex 18.5905 0 -42.513
    endloop
  endfacet
  facet normal 0.965885 0 -0.258972
    outer loop
      vertex 18.5905 0 -41.487
      vertex 18.5228 1.95 -41.7395
      vertex 18.5905 1.95 -41.487
    endloop
  endfacet
  facet normal 0.965885 0 -0.258972
    outer loop
      vertex 18.5228 1.95 -41.7395
      vertex 18.5905 0 -41.487
      vertex 18.5228 0 -41.7395
    endloop
  endfacet
  facet normal 0.996192 0 -0.0871907
    outer loop
      vertex 18.5228 0 -41.7395
      vertex 18.5 1.95 -42
      vertex 18.5228 1.95 -41.7395
    endloop
  endfacet
  facet normal 0.996192 0 -0.0871907
    outer loop
      vertex 18.5 1.95 -42
      vertex 18.5228 0 -41.7395
      vertex 18.5 0 -42
    endloop
  endfacet
  facet normal 0.90633 0 -0.422571
    outer loop
      vertex 18.701 0 -41.25
      vertex 18.5905 1.95 -41.487
      vertex 18.701 1.95 -41.25
    endloop
  endfacet
  facet normal 0.90633 0 -0.422571
    outer loop
      vertex 18.5905 1.95 -41.487
      vertex 18.701 0 -41.25
      vertex 18.5905 0 -41.487
    endloop
  endfacet
  facet normal -0.965885 0 0.258972
    outer loop
      vertex 21.4095 0 -42.513
      vertex 21.4772 1.95 -42.2605
      vertex 21.4095 1.95 -42.513
    endloop
  endfacet
  facet normal -0.965885 0 0.258972
    outer loop
      vertex 21.4772 1.95 -42.2605
      vertex 21.4095 0 -42.513
      vertex 21.4772 0 -42.2605
    endloop
  endfacet
  facet normal -0.819304 0 -0.57336
    outer loop
      vertex 21.299 0 -41.25
      vertex 21.1491 1.95 -41.0358
      vertex 21.299 1.95 -41.25
    endloop
  endfacet
  facet normal -0.819304 -0 -0.57336
    outer loop
      vertex 21.1491 1.95 -41.0358
      vertex 21.299 0 -41.25
      vertex 21.1491 0 -41.0358
    endloop
  endfacet
  facet normal -0.422571 0 -0.90633
    outer loop
      vertex 20.513 0 -40.5905
      vertex 20.75 1.95 -40.701
      vertex 20.75 0 -40.701
    endloop
  endfacet
  facet normal -0.422571 0 -0.90633
    outer loop
      vertex 20.75 1.95 -40.701
      vertex 20.513 0 -40.5905
      vertex 20.513 1.95 -40.5905
    endloop
  endfacet
  facet normal -0.57336 0 0.819304
    outer loop
      vertex 20.75 1.95 -43.299
      vertex 20.9642 0 -43.1491
      vertex 20.9642 1.95 -43.1491
    endloop
  endfacet
  facet normal -0.57336 0 0.819304
    outer loop
      vertex 20.9642 0 -43.1491
      vertex 20.75 1.95 -43.299
      vertex 20.75 0 -43.299
    endloop
  endfacet
  facet normal -0.0871907 0 0.996192
    outer loop
      vertex 20 1.95 -43.5
      vertex 20.2605 0 -43.4772
      vertex 20.2605 1.95 -43.4772
    endloop
  endfacet
  facet normal -0.0871907 0 0.996192
    outer loop
      vertex 20.2605 0 -43.4772
      vertex 20 1.95 -43.5
      vertex 20 0 -43.5
    endloop
  endfacet
  facet normal 0.0871907 0 0.996192
    outer loop
      vertex 19.7395 1.95 -43.4772
      vertex 20 0 -43.5
      vertex 20 1.95 -43.5
    endloop
  endfacet
  facet normal 0.0871907 0 0.996192
    outer loop
      vertex 20 0 -43.5
      vertex 19.7395 1.95 -43.4772
      vertex 19.7395 0 -43.4772
    endloop
  endfacet
  facet normal 0.90633 -0 0.422571
    outer loop
      vertex 18.5905 0 -42.513
      vertex 18.701 1.95 -42.75
      vertex 18.5905 1.95 -42.513
    endloop
  endfacet
  facet normal 0.90633 0 0.422571
    outer loop
      vertex 18.701 1.95 -42.75
      vertex 18.5905 0 -42.513
      vertex 18.701 0 -42.75
    endloop
  endfacet
  facet normal 0.707107 0 -0.707107
    outer loop
      vertex 19.0358 0 -40.8509
      vertex 18.8509 1.95 -41.0358
      vertex 19.0358 1.95 -40.8509
    endloop
  endfacet
  facet normal 0.707107 0 -0.707107
    outer loop
      vertex 18.8509 1.95 -41.0358
      vertex 19.0358 0 -40.8509
      vertex 18.8509 0 -41.0358
    endloop
  endfacet
  facet normal 0.707107 -0 0.707107
    outer loop
      vertex 18.8509 0 -42.9642
      vertex 19.0358 1.95 -43.1491
      vertex 18.8509 1.95 -42.9642
    endloop
  endfacet
  facet normal 0.707107 0 0.707107
    outer loop
      vertex 19.0358 1.95 -43.1491
      vertex 18.8509 0 -42.9642
      vertex 19.0358 0 -43.1491
    endloop
  endfacet
  facet normal -0.996192 0 -0.0871907
    outer loop
      vertex 21.5 0 -42
      vertex 21.4772 1.95 -41.7395
      vertex 21.5 1.95 -42
    endloop
  endfacet
  facet normal -0.996192 -0 -0.0871907
    outer loop
      vertex 21.4772 1.95 -41.7395
      vertex 21.5 0 -42
      vertex 21.4772 0 -41.7395
    endloop
  endfacet
  facet normal 0.258972 0 -0.965885
    outer loop
      vertex 19.487 0 -40.5905
      vertex 19.7395 1.95 -40.5228
      vertex 19.7395 0 -40.5228
    endloop
  endfacet
  facet normal 0.258972 0 -0.965885
    outer loop
      vertex 19.7395 1.95 -40.5228
      vertex 19.487 0 -40.5905
      vertex 19.487 1.95 -40.5905
    endloop
  endfacet
  facet normal -0.996192 0 0.0871907
    outer loop
      vertex 21.4772 0 -42.2605
      vertex 21.5 1.95 -42
      vertex 21.4772 1.95 -42.2605
    endloop
  endfacet
  facet normal -0.996192 0 0.0871907
    outer loop
      vertex 21.5 1.95 -42
      vertex 21.4772 0 -42.2605
      vertex 21.5 0 -42
    endloop
  endfacet
  facet normal 0.819304 -0 0.57336
    outer loop
      vertex 18.701 0 -42.75
      vertex 18.8509 1.95 -42.9642
      vertex 18.701 1.95 -42.75
    endloop
  endfacet
  facet normal 0.819304 0 0.57336
    outer loop
      vertex 18.8509 1.95 -42.9642
      vertex 18.701 0 -42.75
      vertex 18.8509 0 -42.9642
    endloop
  endfacet
  facet normal -0.258972 0 0.965885
    outer loop
      vertex 20.2605 1.95 -43.4772
      vertex 20.513 0 -43.4095
      vertex 20.513 1.95 -43.4095
    endloop
  endfacet
  facet normal -0.258972 0 0.965885
    outer loop
      vertex 20.513 0 -43.4095
      vertex 20.2605 1.95 -43.4772
      vertex 20.2605 0 -43.4772
    endloop
  endfacet
  facet normal 0.422571 0 0.90633
    outer loop
      vertex 19.25 1.95 -43.299
      vertex 19.487 0 -43.4095
      vertex 19.487 1.95 -43.4095
    endloop
  endfacet
  facet normal 0.422571 0 0.90633
    outer loop
      vertex 19.487 0 -43.4095
      vertex 19.25 1.95 -43.299
      vertex 19.25 0 -43.299
    endloop
  endfacet
  facet normal -0.57336 0 -0.819304
    outer loop
      vertex 20.75 0 -40.701
      vertex 20.9642 1.95 -40.8509
      vertex 20.9642 0 -40.8509
    endloop
  endfacet
  facet normal -0.57336 0 -0.819304
    outer loop
      vertex 20.9642 1.95 -40.8509
      vertex 20.75 0 -40.701
      vertex 20.75 1.95 -40.701
    endloop
  endfacet
  facet normal 0.819304 0 -0.57336
    outer loop
      vertex 18.8509 0 -41.0358
      vertex 18.701 1.95 -41.25
      vertex 18.8509 1.95 -41.0358
    endloop
  endfacet
  facet normal 0.819304 0 -0.57336
    outer loop
      vertex 18.701 1.95 -41.25
      vertex 18.8509 0 -41.0358
      vertex 18.701 0 -41.25
    endloop
  endfacet
  facet normal 0.422571 0 -0.90633
    outer loop
      vertex 19.25 0 -40.701
      vertex 19.487 1.95 -40.5905
      vertex 19.487 0 -40.5905
    endloop
  endfacet
  facet normal 0.422571 0 -0.90633
    outer loop
      vertex 19.487 1.95 -40.5905
      vertex 19.25 0 -40.701
      vertex 19.25 1.95 -40.701
    endloop
  endfacet
  facet normal 0.258972 0 0.965885
    outer loop
      vertex 19.487 1.95 -43.4095
      vertex 19.7395 0 -43.4772
      vertex 19.7395 1.95 -43.4772
    endloop
  endfacet
  facet normal 0.258972 0 0.965885
    outer loop
      vertex 19.7395 0 -43.4772
      vertex 19.487 1.95 -43.4095
      vertex 19.487 0 -43.4095
    endloop
  endfacet
  facet normal 0.57336 0 0.819304
    outer loop
      vertex 19.0358 1.95 -43.1491
      vertex 19.25 0 -43.299
      vertex 19.25 1.95 -43.299
    endloop
  endfacet
  facet normal 0.57336 0 0.819304
    outer loop
      vertex 19.25 0 -43.299
      vertex 19.0358 1.95 -43.1491
      vertex 19.0358 0 -43.1491
    endloop
  endfacet
  facet normal 0.57336 0 -0.819304
    outer loop
      vertex 19.0358 0 -40.8509
      vertex 19.25 1.95 -40.701
      vertex 19.25 0 -40.701
    endloop
  endfacet
  facet normal 0.57336 0 -0.819304
    outer loop
      vertex 19.25 1.95 -40.701
      vertex 19.0358 0 -40.8509
      vertex 19.0358 1.95 -40.8509
    endloop
  endfacet
  facet normal 0.0871907 0 -0.996192
    outer loop
      vertex 19.7395 0 -40.5228
      vertex 20 1.95 -40.5
      vertex 20 0 -40.5
    endloop
  endfacet
  facet normal 0.0871907 0 -0.996192
    outer loop
      vertex 20 1.95 -40.5
      vertex 19.7395 0 -40.5228
      vertex 19.7395 1.95 -40.5228
    endloop
  endfacet
  facet normal -0.90633 0 -0.422571
    outer loop
      vertex 21.4095 0 -41.487
      vertex 21.299 1.95 -41.25
      vertex 21.4095 1.95 -41.487
    endloop
  endfacet
  facet normal -0.90633 -0 -0.422571
    outer loop
      vertex 21.299 1.95 -41.25
      vertex 21.4095 0 -41.487
      vertex 21.299 0 -41.25
    endloop
  endfacet
  facet normal 0.996192 -0 0.0871907
    outer loop
      vertex 18.5 0 -42
      vertex 18.5228 1.95 -42.2605
      vertex 18.5 1.95 -42
    endloop
  endfacet
  facet normal 0.996192 0 0.0871907
    outer loop
      vertex 18.5228 1.95 -42.2605
      vertex 18.5 0 -42
      vertex 18.5228 0 -42.2605
    endloop
  endfacet
  facet normal -0.258972 0 -0.965885
    outer loop
      vertex 20.2605 0 -40.5228
      vertex 20.513 1.95 -40.5905
      vertex 20.513 0 -40.5905
    endloop
  endfacet
  facet normal -0.258972 0 -0.965885
    outer loop
      vertex 20.513 1.95 -40.5905
      vertex 20.2605 0 -40.5228
      vertex 20.2605 1.95 -40.5228
    endloop
  endfacet
  facet normal -0.0871907 0 -0.996192
    outer loop
      vertex 20 0 -40.5
      vertex 20.2605 1.95 -40.5228
      vertex 20.2605 0 -40.5228
    endloop
  endfacet
  facet normal -0.0871907 0 -0.996192
    outer loop
      vertex 20.2605 1.95 -40.5228
      vertex 20 0 -40.5
      vertex 20 1.95 -40.5
    endloop
  endfacet
  facet normal -0.90633 0 0.422571
    outer loop
      vertex 21.299 0 -42.75
      vertex 21.4095 1.95 -42.513
      vertex 21.299 1.95 -42.75
    endloop
  endfacet
  facet normal -0.90633 0 0.422571
    outer loop
      vertex 21.4095 1.95 -42.513
      vertex 21.299 0 -42.75
      vertex 21.4095 0 -42.513
    endloop
  endfacet
  facet normal -0.819304 0 0.57336
    outer loop
      vertex 21.1491 0 -42.9642
      vertex 21.299 1.95 -42.75
      vertex 21.1491 1.95 -42.9642
    endloop
  endfacet
  facet normal -0.819304 0 0.57336
    outer loop
      vertex 21.299 1.95 -42.75
      vertex 21.1491 0 -42.9642
      vertex 21.299 0 -42.75
    endloop
  endfacet
  facet normal -0.707107 0 0.707107
    outer loop
      vertex 20.9642 0 -43.1491
      vertex 21.1491 1.95 -42.9642
      vertex 20.9642 1.95 -43.1491
    endloop
  endfacet
  facet normal -0.707107 0 0.707107
    outer loop
      vertex 21.1491 1.95 -42.9642
      vertex 20.9642 0 -43.1491
      vertex 21.1491 0 -42.9642
    endloop
  endfacet
  facet normal -0.422571 0 0.90633
    outer loop
      vertex 20.513 1.95 -43.4095
      vertex 20.75 0 -43.299
      vertex 20.75 1.95 -43.299
    endloop
  endfacet
  facet normal -0.422571 0 0.90633
    outer loop
      vertex 20.75 0 -43.299
      vertex 20.513 1.95 -43.4095
      vertex 20.513 0 -43.4095
    endloop
  endfacet
  facet normal -0.965885 0 -0.258972
    outer loop
      vertex 21.4772 0 -41.7395
      vertex 21.4095 1.95 -41.487
      vertex 21.4772 1.95 -41.7395
    endloop
  endfacet
  facet normal -0.965885 -0 -0.258972
    outer loop
      vertex 21.4095 1.95 -41.487
      vertex 21.4772 0 -41.7395
      vertex 21.4095 0 -41.487
    endloop
  endfacet
  facet normal -0.707107 0 -0.707107
    outer loop
      vertex 21.1491 0 -41.0358
      vertex 20.9642 1.95 -40.8509
      vertex 21.1491 1.95 -41.0358
    endloop
  endfacet
  facet normal -0.707107 -0 -0.707107
    outer loop
      vertex 20.9642 1.95 -40.8509
      vertex 21.1491 0 -41.0358
      vertex 20.9642 0 -40.8509
    endloop
  endfacet
  facet normal -0 0 1
    outer loop
      vertex 18.5 4 -56.5981
      vertex 21.5 1.95 -56.5981
      vertex 21.5 4 -56.5981
    endloop
  endfacet
  facet normal 0 0 1
    outer loop
      vertex 21.5 1.95 -56.5981
      vertex 18.5 4 -56.5981
      vertex 18.5 1.95 -56.5981
    endloop
  endfacet
  facet normal 0.866027 -0 0.499997
    outer loop
      vertex 17 1.95 -54
      vertex 18.5 4 -56.5981
      vertex 17 4 -54
    endloop
  endfacet
  facet normal 0.866027 0 0.499997
    outer loop
      vertex 18.5 4 -56.5981
      vertex 17 1.95 -54
      vertex 18.5 1.95 -56.5981
    endloop
  endfacet
  facet normal 0 0 -1
    outer loop
      vertex 18.5 1.95 -51.4019
      vertex 21.5 4 -51.4019
      vertex 21.5 1.95 -51.4019
    endloop
  endfacet
  facet normal -0 0 -1
    outer loop
      vertex 21.5 4 -51.4019
      vertex 18.5 1.95 -51.4019
      vertex 18.5 4 -51.4019
    endloop
  endfacet
  facet normal 0.866027 0 -0.499997
    outer loop
      vertex 18.5 1.95 -51.4019
      vertex 17 4 -54
      vertex 18.5 4 -51.4019
    endloop
  endfacet
  facet normal 0.866027 0 -0.499997
    outer loop
      vertex 17 4 -54
      vertex 18.5 1.95 -51.4019
      vertex 17 1.95 -54
    endloop
  endfacet
  facet normal -0.866027 0 -0.499997
    outer loop
      vertex 23 1.95 -54
      vertex 21.5 4 -51.4019
      vertex 23 4 -54
    endloop
  endfacet
  facet normal -0.866027 -0 -0.499997
    outer loop
      vertex 21.5 4 -51.4019
      vertex 23 1.95 -54
      vertex 21.5 1.95 -51.4019
    endloop
  endfacet
  facet normal -0.866027 0 0.499997
    outer loop
      vertex 21.5 1.95 -56.5981
      vertex 23 4 -54
      vertex 21.5 4 -56.5981
    endloop
  endfacet
  facet normal -0.866027 0 0.499997
    outer loop
      vertex 23 4 -54
      vertex 21.5 1.95 -56.5981
      vertex 23 1.95 -54
    endloop
  endfacet
  facet normal 0 1 0
    outer loop
      vertex 21.5 1.95 -51.4019
      vertex 20 1.95 -52.5
      vertex 18.5 1.95 -51.4019
    endloop
  endfacet
  facet normal 0 1 0
    outer loop
      vertex 21.5 1.95 -51.4019
      vertex 20.2605 1.95 -52.5228
      vertex 20 1.95 -52.5
    endloop
  endfacet
  facet normal 0 1 0
    outer loop
      vertex 21.5 1.95 -51.4019
      vertex 20.513 1.95 -52.5905
      vertex 20.2605 1.95 -52.5228
    endloop
  endfacet
  facet normal 0 1 0
    outer loop
      vertex 21.5 1.95 -51.4019
      vertex 20.75 1.95 -52.701
      vertex 20.513 1.95 -52.5905
    endloop
  endfacet
  facet normal 0 1 0
    outer loop
      vertex 21.5 1.95 -51.4019
      vertex 20.9642 1.95 -52.8509
      vertex 20.75 1.95 -52.701
    endloop
  endfacet
  facet normal 0 1 0
    outer loop
      vertex 21.5 1.95 -51.4019
      vertex 21.1491 1.95 -53.0358
      vertex 20.9642 1.95 -52.8509
    endloop
  endfacet
  facet normal 0 1 0
    outer loop
      vertex 21.5 1.95 -51.4019
      vertex 21.299 1.95 -53.25
      vertex 21.1491 1.95 -53.0358
    endloop
  endfacet
  facet normal 0 1 0
    outer loop
      vertex 23 1.95 -54
      vertex 21.299 1.95 -53.25
      vertex 21.5 1.95 -51.4019
    endloop
  endfacet
  facet normal 0 1 0
    outer loop
      vertex 21.299 1.95 -53.25
      vertex 23 1.95 -54
      vertex 21.4095 1.95 -53.487
    endloop
  endfacet
  facet normal 0 1 0
    outer loop
      vertex 21.4095 1.95 -53.487
      vertex 23 1.95 -54
      vertex 21.4772 1.95 -53.7395
    endloop
  endfacet
  facet normal 0 1 0
    outer loop
      vertex 23 1.95 -54
      vertex 21.5 1.95 -54
      vertex 21.4772 1.95 -53.7395
    endloop
  endfacet
  facet normal 0 1 0
    outer loop
      vertex 23 1.95 -54
      vertex 21.4772 1.95 -54.2605
      vertex 21.5 1.95 -54
    endloop
  endfacet
  facet normal 0 1 0
    outer loop
      vertex 23 1.95 -54
      vertex 21.4095 1.95 -54.513
      vertex 21.4772 1.95 -54.2605
    endloop
  endfacet
  facet normal 0 1 0
    outer loop
      vertex 23 1.95 -54
      vertex 21.299 1.95 -54.75
      vertex 21.4095 1.95 -54.513
    endloop
  endfacet
  facet normal 0 1 -0
    outer loop
      vertex 21.5 1.95 -56.5981
      vertex 21.299 1.95 -54.75
      vertex 23 1.95 -54
    endloop
  endfacet
  facet normal 0 1 0
    outer loop
      vertex 21.299 1.95 -54.75
      vertex 21.5 1.95 -56.5981
      vertex 21.1491 1.95 -54.9642
    endloop
  endfacet
  facet normal 0 1 0
    outer loop
      vertex 21.1491 1.95 -54.9642
      vertex 21.5 1.95 -56.5981
      vertex 20.9642 1.95 -55.1491
    endloop
  endfacet
  facet normal 0 1 0
    outer loop
      vertex 20.2605 1.95 -55.4772
      vertex 21.5 1.95 -56.5981
      vertex 20 1.95 -55.5
    endloop
  endfacet
  facet normal 0 1 0
    outer loop
      vertex 20.513 1.95 -55.4095
      vertex 21.5 1.95 -56.5981
      vertex 20.2605 1.95 -55.4772
    endloop
  endfacet
  facet normal 0 1 0
    outer loop
      vertex 20.75 1.95 -55.299
      vertex 21.5 1.95 -56.5981
      vertex 20.513 1.95 -55.4095
    endloop
  endfacet
  facet normal 0 1 0
    outer loop
      vertex 20.9642 1.95 -55.1491
      vertex 21.5 1.95 -56.5981
      vertex 20.75 1.95 -55.299
    endloop
  endfacet
  facet normal 0 1 -0
    outer loop
      vertex 19.7395 1.95 -52.5228
      vertex 18.5 1.95 -51.4019
      vertex 20 1.95 -52.5
    endloop
  endfacet
  facet normal 0 1 -0
    outer loop
      vertex 19.487 1.95 -52.5905
      vertex 18.5 1.95 -51.4019
      vertex 19.7395 1.95 -52.5228
    endloop
  endfacet
  facet normal 0 1 -0
    outer loop
      vertex 19.25 1.95 -52.701
      vertex 18.5 1.95 -51.4019
      vertex 19.487 1.95 -52.5905
    endloop
  endfacet
  facet normal 0 1 -0
    outer loop
      vertex 19.0358 1.95 -52.8509
      vertex 18.5 1.95 -51.4019
      vertex 19.25 1.95 -52.701
    endloop
  endfacet
  facet normal 0 1 -0
    outer loop
      vertex 18.8509 1.95 -53.0358
      vertex 18.5 1.95 -51.4019
      vertex 19.0358 1.95 -52.8509
    endloop
  endfacet
  facet normal 0 1 -0
    outer loop
      vertex 18.701 1.95 -53.25
      vertex 18.5 1.95 -51.4019
      vertex 18.8509 1.95 -53.0358
    endloop
  endfacet
  facet normal 0 1 0
    outer loop
      vertex 17 1.95 -54
      vertex 18.701 1.95 -53.25
      vertex 18.5905 1.95 -53.487
    endloop
  endfacet
  facet normal 0 1 0
    outer loop
      vertex 17 1.95 -54
      vertex 18.5905 1.95 -53.487
      vertex 18.5228 1.95 -53.7395
    endloop
  endfacet
  facet normal 0 1 0
    outer loop
      vertex 17 1.95 -54
      vertex 18.5228 1.95 -53.7395
      vertex 18.5 1.95 -54
    endloop
  endfacet
  facet normal 0 1 0
    outer loop
      vertex 18.701 1.95 -53.25
      vertex 17 1.95 -54
      vertex 18.5 1.95 -51.4019
    endloop
  endfacet
  facet normal 0 1 0
    outer loop
      vertex 18.5228 1.95 -54.2605
      vertex 17 1.95 -54
      vertex 18.5 1.95 -54
    endloop
  endfacet
  facet normal 0 1 0
    outer loop
      vertex 18.5905 1.95 -54.513
      vertex 17 1.95 -54
      vertex 18.5228 1.95 -54.2605
    endloop
  endfacet
  facet normal 0 1 0
    outer loop
      vertex 18.701 1.95 -54.75
      vertex 17 1.95 -54
      vertex 18.5905 1.95 -54.513
    endloop
  endfacet
  facet normal 0 1 0
    outer loop
      vertex 18.5 1.95 -56.5981
      vertex 18.701 1.95 -54.75
      vertex 18.8509 1.95 -54.9642
    endloop
  endfacet
  facet normal 0 1 0
    outer loop
      vertex 18.5 1.95 -56.5981
      vertex 18.8509 1.95 -54.9642
      vertex 19.0358 1.95 -55.1491
    endloop
  endfacet
  facet normal 0 1 0
    outer loop
      vertex 18.5 1.95 -56.5981
      vertex 19.0358 1.95 -55.1491
      vertex 19.25 1.95 -55.299
    endloop
  endfacet
  facet normal 0 1 0
    outer loop
      vertex 18.5 1.95 -56.5981
      vertex 20 1.95 -55.5
      vertex 21.5 1.95 -56.5981
    endloop
  endfacet
  facet normal 0 1 0
    outer loop
      vertex 20 1.95 -55.5
      vertex 18.5 1.95 -56.5981
      vertex 19.7395 1.95 -55.4772
    endloop
  endfacet
  facet normal 0 1 0
    outer loop
      vertex 19.7395 1.95 -55.4772
      vertex 18.5 1.95 -56.5981
      vertex 19.487 1.95 -55.4095
    endloop
  endfacet
  facet normal 0 1 0
    outer loop
      vertex 19.487 1.95 -55.4095
      vertex 18.5 1.95 -56.5981
      vertex 19.25 1.95 -55.299
    endloop
  endfacet
  facet normal 0 1 0
    outer loop
      vertex 18.701 1.95 -54.75
      vertex 18.5 1.95 -56.5981
      vertex 17 1.95 -54
    endloop
  endfacet
  facet normal 0.965885 -0 0.258972
    outer loop
      vertex 18.5228 0 -54.2605
      vertex 18.5905 1.95 -54.513
      vertex 18.5228 1.95 -54.2605
    endloop
  endfacet
  facet normal 0.965885 0 0.258972
    outer loop
      vertex 18.5905 1.95 -54.513
      vertex 18.5228 0 -54.2605
      vertex 18.5905 0 -54.513
    endloop
  endfacet
  facet normal 0.965885 0 -0.258972
    outer loop
      vertex 18.5905 0 -53.487
      vertex 18.5228 1.95 -53.7395
      vertex 18.5905 1.95 -53.487
    endloop
  endfacet
  facet normal 0.965885 0 -0.258972
    outer loop
      vertex 18.5228 1.95 -53.7395
      vertex 18.5905 0 -53.487
      vertex 18.5228 0 -53.7395
    endloop
  endfacet
  facet normal 0.996192 0 -0.0871907
    outer loop
      vertex 18.5228 0 -53.7395
      vertex 18.5 1.95 -54
      vertex 18.5228 1.95 -53.7395
    endloop
  endfacet
  facet normal 0.996192 0 -0.0871907
    outer loop
      vertex 18.5 1.95 -54
      vertex 18.5228 0 -53.7395
      vertex 18.5 0 -54
    endloop
  endfacet
  facet normal 0.90633 0 -0.422571
    outer loop
      vertex 18.701 0 -53.25
      vertex 18.5905 1.95 -53.487
      vertex 18.701 1.95 -53.25
    endloop
  endfacet
  facet normal 0.90633 0 -0.422571
    outer loop
      vertex 18.5905 1.95 -53.487
      vertex 18.701 0 -53.25
      vertex 18.5905 0 -53.487
    endloop
  endfacet
  facet normal -0.965885 0 0.258972
    outer loop
      vertex 21.4095 0 -54.513
      vertex 21.4772 1.95 -54.2605
      vertex 21.4095 1.95 -54.513
    endloop
  endfacet
  facet normal -0.965885 0 0.258972
    outer loop
      vertex 21.4772 1.95 -54.2605
      vertex 21.4095 0 -54.513
      vertex 21.4772 0 -54.2605
    endloop
  endfacet
  facet normal -0.819304 0 -0.57336
    outer loop
      vertex 21.299 0 -53.25
      vertex 21.1491 1.95 -53.0358
      vertex 21.299 1.95 -53.25
    endloop
  endfacet
  facet normal -0.819304 -0 -0.57336
    outer loop
      vertex 21.1491 1.95 -53.0358
      vertex 21.299 0 -53.25
      vertex 21.1491 0 -53.0358
    endloop
  endfacet
  facet normal -0.422571 0 -0.90633
    outer loop
      vertex 20.513 0 -52.5905
      vertex 20.75 1.95 -52.701
      vertex 20.75 0 -52.701
    endloop
  endfacet
  facet normal -0.422571 0 -0.90633
    outer loop
      vertex 20.75 1.95 -52.701
      vertex 20.513 0 -52.5905
      vertex 20.513 1.95 -52.5905
    endloop
  endfacet
  facet normal -0.57336 0 0.819304
    outer loop
      vertex 20.75 1.95 -55.299
      vertex 20.9642 0 -55.1491
      vertex 20.9642 1.95 -55.1491
    endloop
  endfacet
  facet normal -0.57336 0 0.819304
    outer loop
      vertex 20.9642 0 -55.1491
      vertex 20.75 1.95 -55.299
      vertex 20.75 0 -55.299
    endloop
  endfacet
  facet normal -0.0871907 0 0.996192
    outer loop
      vertex 20 1.95 -55.5
      vertex 20.2605 0 -55.4772
      vertex 20.2605 1.95 -55.4772
    endloop
  endfacet
  facet normal -0.0871907 0 0.996192
    outer loop
      vertex 20.2605 0 -55.4772
      vertex 20 1.95 -55.5
      vertex 20 0 -55.5
    endloop
  endfacet
  facet normal 0.0871907 0 0.996192
    outer loop
      vertex 19.7395 1.95 -55.4772
      vertex 20 0 -55.5
      vertex 20 1.95 -55.5
    endloop
  endfacet
  facet normal 0.0871907 0 0.996192
    outer loop
      vertex 20 0 -55.5
      vertex 19.7395 1.95 -55.4772
      vertex 19.7395 0 -55.4772
    endloop
  endfacet
  facet normal 0.90633 -0 0.422571
    outer loop
      vertex 18.5905 0 -54.513
      vertex 18.701 1.95 -54.75
      vertex 18.5905 1.95 -54.513
    endloop
  endfacet
  facet normal 0.90633 0 0.422571
    outer loop
      vertex 18.701 1.95 -54.75
      vertex 18.5905 0 -54.513
      vertex 18.701 0 -54.75
    endloop
  endfacet
  facet normal 0.707107 0 -0.707107
    outer loop
      vertex 19.0358 0 -52.8509
      vertex 18.8509 1.95 -53.0358
      vertex 19.0358 1.95 -52.8509
    endloop
  endfacet
  facet normal 0.707107 0 -0.707107
    outer loop
      vertex 18.8509 1.95 -53.0358
      vertex 19.0358 0 -52.8509
      vertex 18.8509 0 -53.0358
    endloop
  endfacet
  facet normal 0.707107 -0 0.707107
    outer loop
      vertex 18.8509 0 -54.9642
      vertex 19.0358 1.95 -55.1491
      vertex 18.8509 1.95 -54.9642
    endloop
  endfacet
  facet normal 0.707107 0 0.707107
    outer loop
      vertex 19.0358 1.95 -55.1491
      vertex 18.8509 0 -54.9642
      vertex 19.0358 0 -55.1491
    endloop
  endfacet
  facet normal -0.996192 0 -0.0871907
    outer loop
      vertex 21.5 0 -54
      vertex 21.4772 1.95 -53.7395
      vertex 21.5 1.95 -54
    endloop
  endfacet
  facet normal -0.996192 -0 -0.0871907
    outer loop
      vertex 21.4772 1.95 -53.7395
      vertex 21.5 0 -54
      vertex 21.4772 0 -53.7395
    endloop
  endfacet
  facet normal 0.258972 0 -0.965885
    outer loop
      vertex 19.487 0 -52.5905
      vertex 19.7395 1.95 -52.5228
      vertex 19.7395 0 -52.5228
    endloop
  endfacet
  facet normal 0.258972 0 -0.965885
    outer loop
      vertex 19.7395 1.95 -52.5228
      vertex 19.487 0 -52.5905
      vertex 19.487 1.95 -52.5905
    endloop
  endfacet
  facet normal -0.996192 0 0.0871907
    outer loop
      vertex 21.4772 0 -54.2605
      vertex 21.5 1.95 -54
      vertex 21.4772 1.95 -54.2605
    endloop
  endfacet
  facet normal -0.996192 0 0.0871907
    outer loop
      vertex 21.5 1.95 -54
      vertex 21.4772 0 -54.2605
      vertex 21.5 0 -54
    endloop
  endfacet
  facet normal 0.819304 -0 0.57336
    outer loop
      vertex 18.701 0 -54.75
      vertex 18.8509 1.95 -54.9642
      vertex 18.701 1.95 -54.75
    endloop
  endfacet
  facet normal 0.819304 0 0.57336
    outer loop
      vertex 18.8509 1.95 -54.9642
      vertex 18.701 0 -54.75
      vertex 18.8509 0 -54.9642
    endloop
  endfacet
  facet normal -0.258972 0 0.965885
    outer loop
      vertex 20.2605 1.95 -55.4772
      vertex 20.513 0 -55.4095
      vertex 20.513 1.95 -55.4095
    endloop
  endfacet
  facet normal -0.258972 0 0.965885
    outer loop
      vertex 20.513 0 -55.4095
      vertex 20.2605 1.95 -55.4772
      vertex 20.2605 0 -55.4772
    endloop
  endfacet
  facet normal 0.422571 0 0.90633
    outer loop
      vertex 19.25 1.95 -55.299
      vertex 19.487 0 -55.4095
      vertex 19.487 1.95 -55.4095
    endloop
  endfacet
  facet normal 0.422571 0 0.90633
    outer loop
      vertex 19.487 0 -55.4095
      vertex 19.25 1.95 -55.299
      vertex 19.25 0 -55.299
    endloop
  endfacet
  facet normal -0.57336 0 -0.819304
    outer loop
      vertex 20.75 0 -52.701
      vertex 20.9642 1.95 -52.8509
      vertex 20.9642 0 -52.8509
    endloop
  endfacet
  facet normal -0.57336 0 -0.819304
    outer loop
      vertex 20.9642 1.95 -52.8509
      vertex 20.75 0 -52.701
      vertex 20.75 1.95 -52.701
    endloop
  endfacet
  facet normal 0.819304 0 -0.57336
    outer loop
      vertex 18.8509 0 -53.0358
      vertex 18.701 1.95 -53.25
      vertex 18.8509 1.95 -53.0358
    endloop
  endfacet
  facet normal 0.819304 0 -0.57336
    outer loop
      vertex 18.701 1.95 -53.25
      vertex 18.8509 0 -53.0358
      vertex 18.701 0 -53.25
    endloop
  endfacet
  facet normal 0.422571 0 -0.90633
    outer loop
      vertex 19.25 0 -52.701
      vertex 19.487 1.95 -52.5905
      vertex 19.487 0 -52.5905
    endloop
  endfacet
  facet normal 0.422571 0 -0.90633
    outer loop
      vertex 19.487 1.95 -52.5905
      vertex 19.25 0 -52.701
      vertex 19.25 1.95 -52.701
    endloop
  endfacet
  facet normal 0.258972 0 0.965885
    outer loop
      vertex 19.487 1.95 -55.4095
      vertex 19.7395 0 -55.4772
      vertex 19.7395 1.95 -55.4772
    endloop
  endfacet
  facet normal 0.258972 0 0.965885
    outer loop
      vertex 19.7395 0 -55.4772
      vertex 19.487 1.95 -55.4095
      vertex 19.487 0 -55.4095
    endloop
  endfacet
  facet normal 0.57336 0 0.819304
    outer loop
      vertex 19.0358 1.95 -55.1491
      vertex 19.25 0 -55.299
      vertex 19.25 1.95 -55.299
    endloop
  endfacet
  facet normal 0.57336 0 0.819304
    outer loop
      vertex 19.25 0 -55.299
      vertex 19.0358 1.95 -55.1491
      vertex 19.0358 0 -55.1491
    endloop
  endfacet
  facet normal 0.57336 0 -0.819304
    outer loop
      vertex 19.0358 0 -52.8509
      vertex 19.25 1.95 -52.701
      vertex 19.25 0 -52.701
    endloop
  endfacet
  facet normal 0.57336 0 -0.819304
    outer loop
      vertex 19.25 1.95 -52.701
      vertex 19.0358 0 -52.8509
      vertex 19.0358 1.95 -52.8509
    endloop
  endfacet
  facet normal 0.0871907 0 -0.996192
    outer loop
      vertex 19.7395 0 -52.5228
      vertex 20 1.95 -52.5
      vertex 20 0 -52.5
    endloop
  endfacet
  facet normal 0.0871907 0 -0.996192
    outer loop
      vertex 20 1.95 -52.5
      vertex 19.7395 0 -52.5228
      vertex 19.7395 1.95 -52.5228
    endloop
  endfacet
  facet normal -0.90633 0 -0.422571
    outer loop
      vertex 21.4095 0 -53.487
      vertex 21.299 1.95 -53.25
      vertex 21.4095 1.95 -53.487
    endloop
  endfacet
  facet normal -0.90633 -0 -0.422571
    outer loop
      vertex 21.299 1.95 -53.25
      vertex 21.4095 0 -53.487
      vertex 21.299 0 -53.25
    endloop
  endfacet
  facet normal 0.996192 -0 0.0871907
    outer loop
      vertex 18.5 0 -54
      vertex 18.5228 1.95 -54.2605
      vertex 18.5 1.95 -54
    endloop
  endfacet
  facet normal 0.996192 0 0.0871907
    outer loop
      vertex 18.5228 1.95 -54.2605
      vertex 18.5 0 -54
      vertex 18.5228 0 -54.2605
    endloop
  endfacet
  facet normal -0.258972 0 -0.965885
    outer loop
      vertex 20.2605 0 -52.5228
      vertex 20.513 1.95 -52.5905
      vertex 20.513 0 -52.5905
    endloop
  endfacet
  facet normal -0.258972 0 -0.965885
    outer loop
      vertex 20.513 1.95 -52.5905
      vertex 20.2605 0 -52.5228
      vertex 20.2605 1.95 -52.5228
    endloop
  endfacet
  facet normal -0.0871907 0 -0.996192
    outer loop
      vertex 20 0 -52.5
      vertex 20.2605 1.95 -52.5228
      vertex 20.2605 0 -52.5228
    endloop
  endfacet
  facet normal -0.0871907 0 -0.996192
    outer loop
      vertex 20.2605 1.95 -52.5228
      vertex 20 0 -52.5
      vertex 20 1.95 -52.5
    endloop
  endfacet
  facet normal -0.90633 0 0.422571
    outer loop
      vertex 21.299 0 -54.75
      vertex 21.4095 1.95 -54.513
      vertex 21.299 1.95 -54.75
    endloop
  endfacet
  facet normal -0.90633 0 0.422571
    outer loop
      vertex 21.4095 1.95 -54.513
      vertex 21.299 0 -54.75
      vertex 21.4095 0 -54.513
    endloop
  endfacet
  facet normal -0.819304 0 0.57336
    outer loop
      vertex 21.1491 0 -54.9642
      vertex 21.299 1.95 -54.75
      vertex 21.1491 1.95 -54.9642
    endloop
  endfacet
  facet normal -0.819304 0 0.57336
    outer loop
      vertex 21.299 1.95 -54.75
      vertex 21.1491 0 -54.9642
      vertex 21.299 0 -54.75
    endloop
  endfacet
  facet normal -0.707107 0 0.707107
    outer loop
      vertex 20.9642 0 -55.1491
      vertex 21.1491 1.95 -54.9642
      vertex 20.9642 1.95 -55.1491
    endloop
  endfacet
  facet normal -0.707107 0 0.707107
    outer loop
      vertex 21.1491 1.95 -54.9642
      vertex 20.9642 0 -55.1491
      vertex 21.1491 0 -54.9642
    endloop
  endfacet
  facet normal -0.422571 0 0.90633
    outer loop
      vertex 20.513 1.95 -55.4095
      vertex 20.75 0 -55.299
      vertex 20.75 1.95 -55.299
    endloop
  endfacet
  facet normal -0.422571 0 0.90633
    outer loop
      vertex 20.75 0 -55.299
      vertex 20.513 1.95 -55.4095
      vertex 20.513 0 -55.4095
    endloop
  endfacet
  facet normal -0.965885 0 -0.258972
    outer loop
      vertex 21.4772 0 -53.7395
      vertex 21.4095 1.95 -53.487
      vertex 21.4772 1.95 -53.7395
    endloop
  endfacet
  facet normal -0.965885 -0 -0.258972
    outer loop
      vertex 21.4095 1.95 -53.487
      vertex 21.4772 0 -53.7395
      vertex 21.4095 0 -53.487
    endloop
  endfacet
  facet normal -0.707107 0 -0.707107
    outer loop
      vertex 21.1491 0 -53.0358
      vertex 20.9642 1.95 -52.8509
      vertex 21.1491 1.95 -53.0358
    endloop
  endfacet
  facet normal -0.707107 -0 -0.707107
    outer loop
      vertex 20.9642 1.95 -52.8509
      vertex 21.1491 0 -53.0358
      vertex 20.9642 0 -52.8509
    endloop
  endfacet
  facet normal 1 -0 0
    outer loop
      vertex 25 0 -2
      vertex 25 4 -60
      vertex 25 4 -2
    endloop
  endfacet
  facet normal 1 0 0
    outer loop
      vertex 25 4 -60
      vertex 25 0 -2
      vertex 25 0 -60
    endloop
  endfacet
  facet normal 0 0 -1
    outer loop
      vertex 15 0 -60
      vertex 25 4 -60
      vertex 25 0 -60
    endloop
  endfacet
  facet normal -0 0 -1
    outer loop
      vertex 25 4 -60
      vertex 15 0 -60
      vertex 15 4 -60
    endloop
  endfacet
  facet normal -1 0 0
    outer loop
      vertex 15 0 -60
      vertex 15 4 -2
      vertex 15 4 -60
    endloop
  endfacet
  facet normal -1 -0 0
    outer loop
      vertex 15 4 -2
      vertex 15 0 -60
      vertex 15 0 -2
    endloop
  endfacet
  facet normal 0 1 0
    outer loop
      vertex 25 4 -2
      vertex 21.5 4 -39.4019
      vertex 15 4 -2
    endloop
  endfacet
  facet normal 0 1 0
    outer loop
      vertex 25 4 -2
      vertex 23 4 -42
      vertex 21.5 4 -39.4019
    endloop
  endfacet
  facet normal 0 1 0
    outer loop
      vertex 21.5 4 -44.5981
      vertex 21.5 4 -51.4019
      vertex 18.5 4 -44.5981
    endloop
  endfacet
  facet normal 0 1 0
    outer loop
      vertex 23 4 -42
      vertex 21.5 4 -51.4019
      vertex 21.5 4 -44.5981
    endloop
  endfacet
  facet normal 0 1 0
    outer loop
      vertex 23 4 -42
      vertex 23 4 -54
      vertex 21.5 4 -51.4019
    endloop
  endfacet
  facet normal 0 1 -0
    outer loop
      vertex 25 4 -60
      vertex 23 4 -42
      vertex 25 4 -2
    endloop
  endfacet
  facet normal 0 1 0
    outer loop
      vertex 21.5 4 -56.5981
      vertex 25 4 -60
      vertex 18.5 4 -56.5981
    endloop
  endfacet
  facet normal 0 1 0
    outer loop
      vertex 23 4 -54
      vertex 25 4 -60
      vertex 21.5 4 -56.5981
    endloop
  endfacet
  facet normal 0 1 0
    outer loop
      vertex 23 4 -42
      vertex 25 4 -60
      vertex 23 4 -54
    endloop
  endfacet
  facet normal 0 1 -0
    outer loop
      vertex 18.5 4 -39.4019
      vertex 15 4 -2
      vertex 21.5 4 -39.4019
    endloop
  endfacet
  facet normal 0 1 -0
    outer loop
      vertex 17 4 -42
      vertex 15 4 -2
      vertex 18.5 4 -39.4019
    endloop
  endfacet
  facet normal 0 1 0
    outer loop
      vertex 18.5 4 -51.4019
      vertex 18.5 4 -44.5981
      vertex 21.5 4 -51.4019
    endloop
  endfacet
  facet normal 0 1 0
    outer loop
      vertex 18.5 4 -44.5981
      vertex 18.5 4 -51.4019
      vertex 17 4 -42
    endloop
  endfacet
  facet normal 0 1 0
    outer loop
      vertex 17 4 -54
      vertex 17 4 -42
      vertex 18.5 4 -51.4019
    endloop
  endfacet
  facet normal 0 1 0
    outer loop
      vertex 15 4 -60
      vertex 17 4 -42
      vertex 17 4 -54
    endloop
  endfacet
  facet normal 0 1 0
    outer loop
      vertex 17 4 -42
      vertex 15 4 -60
      vertex 15 4 -2
    endloop
  endfacet
  facet normal 0 1 0
    outer loop
      vertex 18.5 4 -56.5981
      vertex 15 4 -60
      vertex 17 4 -54
    endloop
  endfacet
  facet normal 0 1 0
    outer loop
      vertex 15 4 -60
      vertex 18.5 4 -56.5981
      vertex 25 4 -60
    endloop
  endfacet
  facet normal 0 -1 0
    outer loop
      vertex 15 0 -2
      vertex 20 0 -40.5
      vertex 25 0 -2
    endloop
  endfacet
  facet normal 0 -1 0
    outer loop
      vertex 15 0 -2
      vertex 19.7395 0 -40.5228
      vertex 20 0 -40.5
    endloop
  endfacet
  facet normal 0 -1 0
    outer loop
      vertex 15 0 -2
      vertex 19.487 0 -40.5905
      vertex 19.7395 0 -40.5228
    endloop
  endfacet
  facet normal 0 -1 0
    outer loop
      vertex 15 0 -2
      vertex 19.25 0 -40.701
      vertex 19.487 0 -40.5905
    endloop
  endfacet
  facet normal 0 -1 0
    outer loop
      vertex 15 0 -2
      vertex 19.0358 0 -40.8509
      vertex 19.25 0 -40.701
    endloop
  endfacet
  facet normal 0 -1 0
    outer loop
      vertex 15 0 -2
      vertex 18.8509 0 -41.0358
      vertex 19.0358 0 -40.8509
    endloop
  endfacet
  facet normal 0 -1 0
    outer loop
      vertex 15 0 -2
      vertex 18.701 0 -41.25
      vertex 18.8509 0 -41.0358
    endloop
  endfacet
  facet normal 0 -1 0
    outer loop
      vertex 15 0 -2
      vertex 18.5905 0 -41.487
      vertex 18.701 0 -41.25
    endloop
  endfacet
  facet normal 0 -1 0
    outer loop
      vertex 15 0 -2
      vertex 18.5228 0 -41.7395
      vertex 18.5905 0 -41.487
    endloop
  endfacet
  facet normal 0 -1 0
    outer loop
      vertex 15 0 -60
      vertex 18.5228 0 -41.7395
      vertex 15 0 -2
    endloop
  endfacet
  facet normal 0 -1 0
    outer loop
      vertex 18.5228 0 -41.7395
      vertex 15 0 -60
      vertex 18.5 0 -42
    endloop
  endfacet
  facet normal 0 -1 0
    outer loop
      vertex 19.7395 0 -43.4772
      vertex 20 0 -52.5
      vertex 20 0 -43.5
    endloop
  endfacet
  facet normal 0 -1 0
    outer loop
      vertex 19.7395 0 -52.5228
      vertex 19.7395 0 -43.4772
      vertex 19.487 0 -43.4095
    endloop
  endfacet
  facet normal 0 -1 0
    outer loop
      vertex 19.487 0 -52.5905
      vertex 19.487 0 -43.4095
      vertex 19.25 0 -43.299
    endloop
  endfacet
  facet normal 0 -1 0
    outer loop
      vertex 19.25 0 -52.701
      vertex 19.25 0 -43.299
      vertex 19.0358 0 -43.1491
    endloop
  endfacet
  facet normal 0 -1 0
    outer loop
      vertex 19.0358 0 -52.8509
      vertex 19.0358 0 -43.1491
      vertex 18.8509 0 -42.9642
    endloop
  endfacet
  facet normal 0 -1 0
    outer loop
      vertex 18.8509 0 -53.0358
      vertex 18.8509 0 -42.9642
      vertex 18.701 0 -42.75
    endloop
  endfacet
  facet normal 0 -1 0
    outer loop
      vertex 18.701 0 -53.25
      vertex 18.701 0 -42.75
      vertex 18.5905 0 -42.513
    endloop
  endfacet
  facet normal 0 -1 0
    outer loop
      vertex 15 0 -60
      vertex 18.5905 0 -42.513
      vertex 18.5228 0 -42.2605
    endloop
  endfacet
  facet normal 0 -1 0
    outer loop
      vertex 19.7395 0 -43.4772
      vertex 19.7395 0 -52.5228
      vertex 20 0 -52.5
    endloop
  endfacet
  facet normal 0 -1 0
    outer loop
      vertex 19.487 0 -43.4095
      vertex 19.487 0 -52.5905
      vertex 19.7395 0 -52.5228
    endloop
  endfacet
  facet normal 0 -1 0
    outer loop
      vertex 19.25 0 -43.299
      vertex 19.25 0 -52.701
      vertex 19.487 0 -52.5905
    endloop
  endfacet
  facet normal 0 -1 -0
    outer loop
      vertex 18.5 0 -42
      vertex 15 0 -60
      vertex 18.5228 0 -42.2605
    endloop
  endfacet
  facet normal 0 -1 0
    outer loop
      vertex 19.0358 0 -43.1491
      vertex 19.0358 0 -52.8509
      vertex 19.25 0 -52.701
    endloop
  endfacet
  facet normal 0 -1 0
    outer loop
      vertex 18.8509 0 -42.9642
      vertex 18.8509 0 -53.0358
      vertex 19.0358 0 -52.8509
    endloop
  endfacet
  facet normal 0 -1 0
    outer loop
      vertex 18.701 0 -42.75
      vertex 18.701 0 -53.25
      vertex 18.8509 0 -53.0358
    endloop
  endfacet
  facet normal 0 -1 0
    outer loop
      vertex 18.5905 0 -42.513
      vertex 18.5905 0 -53.487
      vertex 18.701 0 -53.25
    endloop
  endfacet
  facet normal 0 -1 -0
    outer loop
      vertex 18.5905 0 -42.513
      vertex 15 0 -60
      vertex 18.5905 0 -53.487
    endloop
  endfacet
  facet normal 0 -1 0
    outer loop
      vertex 18.5905 0 -53.487
      vertex 15 0 -60
      vertex 18.5228 0 -53.7395
    endloop
  endfacet
  facet normal 0 -1 -0
    outer loop
      vertex 19.7395 0 -55.4772
      vertex 15 0 -60
      vertex 20 0 -55.5
    endloop
  endfacet
  facet normal 0 -1 -0
    outer loop
      vertex 19.487 0 -55.4095
      vertex 15 0 -60
      vertex 19.7395 0 -55.4772
    endloop
  endfacet
  facet normal 0 -1 -0
    outer loop
      vertex 19.25 0 -55.299
      vertex 15 0 -60
      vertex 19.487 0 -55.4095
    endloop
  endfacet
  facet normal 0 -1 -0
    outer loop
      vertex 19.0358 0 -55.1491
      vertex 15 0 -60
      vertex 19.25 0 -55.299
    endloop
  endfacet
  facet normal 0 -1 -0
    outer loop
      vertex 18.8509 0 -54.9642
      vertex 15 0 -60
      vertex 19.0358 0 -55.1491
    endloop
  endfacet
  facet normal 0 -1 -0
    outer loop
      vertex 18.701 0 -54.75
      vertex 15 0 -60
      vertex 18.8509 0 -54.9642
    endloop
  endfacet
  facet normal 0 -1 -0
    outer loop
      vertex 18.5905 0 -54.513
      vertex 15 0 -60
      vertex 18.701 0 -54.75
    endloop
  endfacet
  facet normal 0 -1 -0
    outer loop
      vertex 18.5228 0 -54.2605
      vertex 15 0 -60
      vertex 18.5905 0 -54.513
    endloop
  endfacet
  facet normal 0 -1 -0
    outer loop
      vertex 18.5 0 -54
      vertex 15 0 -60
      vertex 18.5228 0 -54.2605
    endloop
  endfacet
  facet normal 0 -1 0
    outer loop
      vertex 18.5228 0 -53.7395
      vertex 15 0 -60
      vertex 18.5 0 -54
    endloop
  endfacet
  facet normal 0 -1 0
    outer loop
      vertex 15 0 -2
      vertex 0 0 2
      vertex 0 0 -2
    endloop
  endfacet
  facet normal 0 -1 0
    outer loop
      vertex 25 0 -2
      vertex 0 0 2
      vertex 15 0 -2
    endloop
  endfacet
  facet normal 0 -1 0
    outer loop
      vertex 0 0 2
      vertex 25 0 -2
      vertex 90 0 2
    endloop
  endfacet
  facet normal 0 -1 -0
    outer loop
      vertex 90 0 2
      vertex 25 0 -2
      vertex 90 0 -2
    endloop
  endfacet
  facet normal 0 -1 0
    outer loop
      vertex 20.2605 0 -40.5228
      vertex 25 0 -2
      vertex 20 0 -40.5
    endloop
  endfacet
  facet normal 0 -1 0
    outer loop
      vertex 20.513 0 -40.5905
      vertex 25 0 -2
      vertex 20.2605 0 -40.5228
    endloop
  endfacet
  facet normal 0 -1 0
    outer loop
      vertex 20.75 0 -40.701
      vertex 25 0 -2
      vertex 20.513 0 -40.5905
    endloop
  endfacet
  facet normal 0 -1 0
    outer loop
      vertex 20.9642 0 -40.8509
      vertex 25 0 -2
      vertex 20.75 0 -40.701
    endloop
  endfacet
  facet normal 0 -1 0
    outer loop
      vertex 21.1491 0 -41.0358
      vertex 25 0 -2
      vertex 20.9642 0 -40.8509
    endloop
  endfacet
  facet normal 0 -1 0
    outer loop
      vertex 21.299 0 -41.25
      vertex 25 0 -2
      vertex 21.1491 0 -41.0358
    endloop
  endfacet
  facet normal 0 -1 0
    outer loop
      vertex 21.4095 0 -41.487
      vertex 25 0 -2
      vertex 21.299 0 -41.25
    endloop
  endfacet
  facet normal 0 -1 0
    outer loop
      vertex 21.4772 0 -41.7395
      vertex 25 0 -2
      vertex 21.4095 0 -41.487
    endloop
  endfacet
  facet normal 0 -1 0
    outer loop
      vertex 25 0 -60
      vertex 21.4772 0 -41.7395
      vertex 21.5 0 -42
    endloop
  endfacet
  facet normal 0 -1 0
    outer loop
      vertex 25 0 -60
      vertex 21.5 0 -42
      vertex 21.4772 0 -42.2605
    endloop
  endfacet
  facet normal 0 -1 0
    outer loop
      vertex 20 0 -52.5
      vertex 20.2605 0 -43.4772
      vertex 20 0 -43.5
    endloop
  endfacet
  facet normal 0 -1 0
    outer loop
      vertex 20.2605 0 -52.5228
      vertex 20.2605 0 -43.4772
      vertex 20 0 -52.5
    endloop
  endfacet
  facet normal 0 -1 0
    outer loop
      vertex 20.2605 0 -43.4772
      vertex 20.2605 0 -52.5228
      vertex 20.513 0 -43.4095
    endloop
  endfacet
  facet normal 0 -1 0
    outer loop
      vertex 20.513 0 -52.5905
      vertex 20.513 0 -43.4095
      vertex 20.2605 0 -52.5228
    endloop
  endfacet
  facet normal 0 -1 0
    outer loop
      vertex 20.513 0 -43.4095
      vertex 20.513 0 -52.5905
      vertex 20.75 0 -43.299
    endloop
  endfacet
  facet normal 0 -1 0
    outer loop
      vertex 20.75 0 -52.701
      vertex 20.75 0 -43.299
      vertex 20.513 0 -52.5905
    endloop
  endfacet
  facet normal 0 -1 0
    outer loop
      vertex 20.75 0 -43.299
      vertex 20.75 0 -52.701
      vertex 20.9642 0 -43.1491
    endloop
  endfacet
  facet normal 0 -1 0
    outer loop
      vertex 20.9642 0 -52.8509
      vertex 20.9642 0 -43.1491
      vertex 20.75 0 -52.701
    endloop
  endfacet
  facet normal 0 -1 0
    outer loop
      vertex 20.9642 0 -43.1491
      vertex 20.9642 0 -52.8509
      vertex 21.1491 0 -42.9642
    endloop
  endfacet
  facet normal 0 -1 0
    outer loop
      vertex 21.1491 0 -53.0358
      vertex 21.1491 0 -42.9642
      vertex 20.9642 0 -52.8509
    endloop
  endfacet
  facet normal 0 -1 0
    outer loop
      vertex 21.1491 0 -42.9642
      vertex 21.1491 0 -53.0358
      vertex 21.299 0 -42.75
    endloop
  endfacet
  facet normal 0 -1 0
    outer loop
      vertex 21.299 0 -53.25
      vertex 21.299 0 -42.75
      vertex 21.1491 0 -53.0358
    endloop
  endfacet
  facet normal 0 -1 0
    outer loop
      vertex 21.299 0 -42.75
      vertex 21.299 0 -53.25
      vertex 21.4095 0 -42.513
    endloop
  endfacet
  facet normal 0 -1 0
    outer loop
      vertex 21.4095 0 -53.487
      vertex 21.4095 0 -42.513
      vertex 21.299 0 -53.25
    endloop
  endfacet
  facet normal 0 -1 0
    outer loop
      vertex 25 0 -60
      vertex 21.4095 0 -42.513
      vertex 21.4095 0 -53.487
    endloop
  endfacet
  facet normal 0 -1 0
    outer loop
      vertex 21.4095 0 -42.513
      vertex 25 0 -60
      vertex 21.4772 0 -42.2605
    endloop
  endfacet
  facet normal 0 -1 0
    outer loop
      vertex 25 0 -60
      vertex 21.4095 0 -53.487
      vertex 21.4772 0 -53.7395
    endloop
  endfacet
  facet normal 0 -1 0
    outer loop
      vertex 25 0 -60
      vertex 21.4772 0 -53.7395
      vertex 21.5 0 -54
    endloop
  endfacet
  facet normal 0 -1 0
    outer loop
      vertex 25 0 -60
      vertex 20 0 -55.5
      vertex 15 0 -60
    endloop
  endfacet
  facet normal 0 -1 0
    outer loop
      vertex 20 0 -55.5
      vertex 25 0 -60
      vertex 20.2605 0 -55.4772
    endloop
  endfacet
  facet normal 0 -1 0
    outer loop
      vertex 20.2605 0 -55.4772
      vertex 25 0 -60
      vertex 20.513 0 -55.4095
    endloop
  endfacet
  facet normal 0 -1 0
    outer loop
      vertex 20.513 0 -55.4095
      vertex 25 0 -60
      vertex 20.75 0 -55.299
    endloop
  endfacet
  facet normal 0 -1 0
    outer loop
      vertex 21.4772 0 -41.7395
      vertex 25 0 -60
      vertex 25 0 -2
    endloop
  endfacet
  facet normal 0 -1 0
    outer loop
      vertex 21.4772 0 -54.2605
      vertex 25 0 -60
      vertex 21.5 0 -54
    endloop
  endfacet
  facet normal 0 -1 0
    outer loop
      vertex 21.4095 0 -54.513
      vertex 25 0 -60
      vertex 21.4772 0 -54.2605
    endloop
  endfacet
  facet normal 0 -1 0
    outer loop
      vertex 21.299 0 -54.75
      vertex 25 0 -60
      vertex 21.4095 0 -54.513
    endloop
  endfacet
  facet normal 0 -1 0
    outer loop
      vertex 21.1491 0 -54.9642
      vertex 25 0 -60
      vertex 21.299 0 -54.75
    endloop
  endfacet
  facet normal 0 -1 0
    outer loop
      vertex 20.9642 0 -55.1491
      vertex 25 0 -60
      vertex 21.1491 0 -54.9642
    endloop
  endfacet
  facet normal 0 -1 0
    outer loop
      vertex 20.75 0 -55.299
      vertex 25 0 -60
      vertex 20.9642 0 -55.1491
    endloop
  endfacet
  facet normal 1 -0 0
    outer loop
      vertex 90 0 2
      vertex 90 8 -2
      vertex 90 8 2
    endloop
  endfacet
  facet normal 1 0 0
    outer loop
      vertex 90 8 -2
      vertex 90 0 2
      vertex 90 0 -2
    endloop
  endfacet
  facet normal -0 0 1
    outer loop
      vertex 0 8 2
      vertex 90 0 2
      vertex 90 8 2
    endloop
  endfacet
  facet normal 0 0 1
    outer loop
      vertex 90 0 2
      vertex 0 8 2
      vertex 0 0 2
    endloop
  endfacet
  facet normal 0 0 -1
    outer loop
      vertex 15 0 -2
      vertex 0 0 -2
      vertex 15 4 -2
    endloop
  endfacet
  facet normal 0 0 -1
    outer loop
      vertex 25 4 -2
      vertex 90 0 -2
      vertex 25 0 -2
    endloop
  endfacet
  facet normal 0 0 -1
    outer loop
      vertex 90 0 -2
      vertex 25 4 -2
      vertex 90 8 -2
    endloop
  endfacet
  facet normal 0 0 -1
    outer loop
      vertex 0 8 -2
      vertex 25 4 -2
      vertex 15 4 -2
    endloop
  endfacet
  facet normal 0 0 -1
    outer loop
      vertex 25 4 -2
      vertex 0 8 -2
      vertex 90 8 -2
    endloop
  endfacet
  facet normal 0 0 -1
    outer loop
      vertex 0 8 -2
      vertex 15 4 -2
      vertex 0 0 -2
    endloop
  endfacet
  facet normal -1 0 0
    outer loop
      vertex 0 0 -2
      vertex 0 8 2
      vertex 0 8 -2
    endloop
  endfacet
  facet normal -1 -0 0
    outer loop
      vertex 0 8 2
      vertex 0 0 -2
      vertex 0 0 2
    endloop
  endfacet
  facet normal 0 1 -0
    outer loop
      vertex 90 8 -2
      vertex 0 8 2
      vertex 90 8 2
    endloop
  endfacet
  facet normal 0 1 0
    outer loop
      vertex 0 8 2
      vertex 90 8 -2
      vertex 0 8 -2
    endloop
  endfacet
endsolid OpenSCAD_Model
