solid OpenSCAD_Model
  facet normal 0 0 -1
    outer loop
      vertex -70 60.5 15
      vertex -60 74 15
      vertex -60 60.5 15
    endloop
  endfacet
  facet normal -0 0 -1
    outer loop
      vertex -60 74 15
      vertex -70 60.5 15
      vertex -70 74 15
    endloop
  endfacet
  facet normal 0 1 -0
    outer loop
      vertex -60 74 15
      vertex -70 74 35
      vertex -60 74 35
    endloop
  endfacet
  facet normal 0 1 0
    outer loop
      vertex -70 74 35
      vertex -60 74 15
      vertex -70 74 15
    endloop
  endfacet
  facet normal -1 0 0
    outer loop
      vertex -70 74 15
      vertex -70 60.5 15
      vertex -70 74 35
    endloop
  endfacet
  facet normal 1 0 0
    outer loop
      vertex -60 74 35
      vertex -60 60.5 15
      vertex -60 74 15
    endloop
  endfacet
  facet normal 0 -0.828849 0.559473
    outer loop
      vertex -70 60.5 15
      vertex -60 74 35
      vertex -70 74 35
    endloop
  endfacet
  facet normal 0 -0.828849 0.559473
    outer loop
      vertex -60 74 35
      vertex -70 60.5 15
      vertex -60 60.5 15
    endloop
  endfacet
  facet normal -0 0 1
    outer loop
      vertex -70 62.5 5
      vertex -60 58.5 5
      vertex -60 62.5 5
    endloop
  endfacet
  facet normal 0 0 1
    outer loop
      vertex -60 58.5 5
      vertex -70 62.5 5
      vertex -70 58.5 5
    endloop
  endfacet
  facet normal 0 1 -0
    outer loop
      vertex -60 62.5 -5
      vertex -70 62.5 5
      vertex -60 62.5 5
    endloop
  endfacet
  facet normal 0 1 0
    outer loop
      vertex -70 62.5 5
      vertex -60 62.5 -5
      vertex -70 62.5 -5
    endloop
  endfacet
  facet normal 1 0 0
    outer loop
      vertex -60 62.5 5
      vertex -60 58.5 5
      vertex -60 62.5 -5
    endloop
  endfacet
  facet normal -1 0 0
    outer loop
      vertex -70 62.5 -5
      vertex -70 58.5 5
      vertex -70 62.5 5
    endloop
  endfacet
  facet normal 0 -0.928477 -0.371391
    outer loop
      vertex -70 62.5 -5
      vertex -60 58.5 5
      vertex -70 58.5 5
    endloop
  endfacet
  facet normal 0 -0.928477 -0.371391
    outer loop
      vertex -60 58.5 5
      vertex -70 62.5 -5
      vertex -60 62.5 -5
    endloop
  endfacet
  facet normal 0 -1 0
    outer loop
      vertex -70 60.5 5
      vertex -60 60.5 15
      vertex -70 60.5 15
    endloop
  endfacet
  facet normal 0 -1 -0
    outer loop
      vertex -60 60.5 15
      vertex -70 60.5 5
      vertex -60 60.5 5
    endloop
  endfacet
  facet normal -0 0 1
    outer loop
      vertex -70 67.5 15
      vertex -60 60.5 15
      vertex -60 67.5 15
    endloop
  endfacet
  facet normal 0 0 1
    outer loop
      vertex -60 60.5 15
      vertex -70 67.5 15
      vertex -70 60.5 15
    endloop
  endfacet
  facet normal 0 0 -1
    outer loop
      vertex -70 60.5 5
      vertex -60 62.5 5
      vertex -60 60.5 5
    endloop
  endfacet
  facet normal -0 0 -1
    outer loop
      vertex -60 62.5 5
      vertex -70 60.5 5
      vertex -70 62.5 5
    endloop
  endfacet
  facet normal 0 1 -0
    outer loop
      vertex -60 62.5 5
      vertex -70 62.5 13
      vertex -60 62.5 13
    endloop
  endfacet
  facet normal 0 1 0
    outer loop
      vertex -70 62.5 13
      vertex -60 62.5 5
      vertex -70 62.5 5
    endloop
  endfacet
  facet normal 1 0 0
    outer loop
      vertex -60 67.5 15
      vertex -60 65.5 13
      vertex -60 67.5 -5
    endloop
  endfacet
  facet normal 1 0 0
    outer loop
      vertex -60 67.5 15
      vertex -60 62.5 13
      vertex -60 65.5 13
    endloop
  endfacet
  facet normal 1 -0 0
    outer loop
      vertex -60 60.5 15
      vertex -60 62.5 13
      vertex -60 67.5 15
    endloop
  endfacet
  facet normal 1 0 0
    outer loop
      vertex -60 60.5 5
      vertex -60 62.5 13
      vertex -60 60.5 15
    endloop
  endfacet
  facet normal 1 0 0
    outer loop
      vertex -60 62.5 13
      vertex -60 60.5 5
      vertex -60 62.5 5
    endloop
  endfacet
  facet normal 1 0 0
    outer loop
      vertex -60 67.5 -5
      vertex -60 65.5 13
      vertex -60 65.5 -5
    endloop
  endfacet
  facet normal -1 0 0
    outer loop
      vertex -70 62.5 5
      vertex -70 60.5 5
      vertex -70 62.5 13
    endloop
  endfacet
  facet normal -1 0 0
    outer loop
      vertex -70 65.5 13
      vertex -70 67.5 -5
      vertex -70 65.5 -5
    endloop
  endfacet
  facet normal -1 0 0
    outer loop
      vertex -70 67.5 -5
      vertex -70 65.5 13
      vertex -70 67.5 15
    endloop
  endfacet
  facet normal -1 0 0
    outer loop
      vertex -70 62.5 13
      vertex -70 67.5 15
      vertex -70 65.5 13
    endloop
  endfacet
  facet normal -1 0 0
    outer loop
      vertex -70 62.5 13
      vertex -70 60.5 15
      vertex -70 67.5 15
    endloop
  endfacet
  facet normal -1 0 0
    outer loop
      vertex -70 60.5 15
      vertex -70 62.5 13
      vertex -70 60.5 5
    endloop
  endfacet
  facet normal 0 -1 0
    outer loop
      vertex -70 65.5 -5
      vertex -60 65.5 13
      vertex -70 65.5 13
    endloop
  endfacet
  facet normal 0 -1 -0
    outer loop
      vertex -60 65.5 13
      vertex -70 65.5 -5
      vertex -60 65.5 -5
    endloop
  endfacet
  facet normal 0 0 -1
    outer loop
      vertex -70 65.5 -5
      vertex -60 67.5 -5
      vertex -60 65.5 -5
    endloop
  endfacet
  facet normal -0 0 -1
    outer loop
      vertex -60 67.5 -5
      vertex -70 65.5 -5
      vertex -70 67.5 -5
    endloop
  endfacet
  facet normal 0 1 -0
    outer loop
      vertex -60 67.5 -5
      vertex -70 67.5 15
      vertex -60 67.5 15
    endloop
  endfacet
  facet normal 0 1 0
    outer loop
      vertex -70 67.5 15
      vertex -60 67.5 -5
      vertex -70 67.5 -5
    endloop
  endfacet
  facet normal 0 0 -1
    outer loop
      vertex -70 62.5 13
      vertex -60 65.5 13
      vertex -60 62.5 13
    endloop
  endfacet
  facet normal -0 0 -1
    outer loop
      vertex -60 65.5 13
      vertex -70 62.5 13
      vertex -70 65.5 13
    endloop
  endfacet
  facet normal 0 0 -1
    outer loop
      vertex -70 -74 15
      vertex -60 -60.5 15
      vertex -60 -74 15
    endloop
  endfacet
  facet normal -0 0 -1
    outer loop
      vertex -60 -60.5 15
      vertex -70 -74 15
      vertex -70 -60.5 15
    endloop
  endfacet
  facet normal 0 -1 0
    outer loop
      vertex -70 -74 15
      vertex -60 -74 35
      vertex -70 -74 35
    endloop
  endfacet
  facet normal 0 -1 -0
    outer loop
      vertex -60 -74 35
      vertex -70 -74 15
      vertex -60 -74 15
    endloop
  endfacet
  facet normal 1 0 0
    outer loop
      vertex -60 -74 35
      vertex -60 -74 15
      vertex -60 -60.5 15
    endloop
  endfacet
  facet normal -1 0 0
    outer loop
      vertex -70 -60.5 15
      vertex -70 -74 15
      vertex -70 -74 35
    endloop
  endfacet
  facet normal 0 0.828849 0.559473
    outer loop
      vertex -60 -60.5 15
      vertex -70 -74 35
      vertex -60 -74 35
    endloop
  endfacet
  facet normal 0 0.828849 0.559473
    outer loop
      vertex -70 -74 35
      vertex -60 -60.5 15
      vertex -70 -60.5 15
    endloop
  endfacet
  facet normal -0 0 1
    outer loop
      vertex -70 -58.5 5
      vertex -60 -62.5 5
      vertex -60 -58.5 5
    endloop
  endfacet
  facet normal 0 0 1
    outer loop
      vertex -60 -62.5 5
      vertex -70 -58.5 5
      vertex -70 -62.5 5
    endloop
  endfacet
  facet normal 0 -1 0
    outer loop
      vertex -70 -62.5 -5
      vertex -60 -62.5 5
      vertex -70 -62.5 5
    endloop
  endfacet
  facet normal 0 -1 -0
    outer loop
      vertex -60 -62.5 5
      vertex -70 -62.5 -5
      vertex -60 -62.5 -5
    endloop
  endfacet
  facet normal -1 -0 0
    outer loop
      vertex -70 -58.5 5
      vertex -70 -62.5 -5
      vertex -70 -62.5 5
    endloop
  endfacet
  facet normal 1 -0 0
    outer loop
      vertex -60 -62.5 5
      vertex -60 -62.5 -5
      vertex -60 -58.5 5
    endloop
  endfacet
  facet normal 0 0.928477 -0.371391
    outer loop
      vertex -60 -62.5 -5
      vertex -70 -58.5 5
      vertex -60 -58.5 5
    endloop
  endfacet
  facet normal 0 0.928477 -0.371391
    outer loop
      vertex -70 -58.5 5
      vertex -60 -62.5 -5
      vertex -70 -62.5 -5
    endloop
  endfacet
  facet normal 0 1 -0
    outer loop
      vertex -60 -60.5 5
      vertex -70 -60.5 15
      vertex -60 -60.5 15
    endloop
  endfacet
  facet normal 0 1 0
    outer loop
      vertex -70 -60.5 15
      vertex -60 -60.5 5
      vertex -70 -60.5 5
    endloop
  endfacet
  facet normal -0 0 1
    outer loop
      vertex -70 -60.5 15
      vertex -60 -67.5 15
      vertex -60 -60.5 15
    endloop
  endfacet
  facet normal 0 0 1
    outer loop
      vertex -60 -67.5 15
      vertex -70 -60.5 15
      vertex -70 -67.5 15
    endloop
  endfacet
  facet normal 0 0 -1
    outer loop
      vertex -70 -62.5 5
      vertex -60 -60.5 5
      vertex -60 -62.5 5
    endloop
  endfacet
  facet normal -0 0 -1
    outer loop
      vertex -60 -60.5 5
      vertex -70 -62.5 5
      vertex -70 -60.5 5
    endloop
  endfacet
  facet normal 0 -1 0
    outer loop
      vertex -70 -62.5 5
      vertex -60 -62.5 13
      vertex -70 -62.5 13
    endloop
  endfacet
  facet normal 0 -1 -0
    outer loop
      vertex -60 -62.5 13
      vertex -70 -62.5 5
      vertex -60 -62.5 5
    endloop
  endfacet
  facet normal -1 0 0
    outer loop
      vertex -70 -65.5 -5
      vertex -70 -67.5 -5
      vertex -70 -65.5 13
    endloop
  endfacet
  facet normal -1 0 0
    outer loop
      vertex -70 -62.5 13
      vertex -70 -60.5 5
      vertex -70 -62.5 5
    endloop
  endfacet
  facet normal -1 0 0
    outer loop
      vertex -70 -60.5 5
      vertex -70 -62.5 13
      vertex -70 -60.5 15
    endloop
  endfacet
  facet normal -1 0 0
    outer loop
      vertex -70 -65.5 13
      vertex -70 -60.5 15
      vertex -70 -62.5 13
    endloop
  endfacet
  facet normal -1 0 0
    outer loop
      vertex -70 -65.5 13
      vertex -70 -67.5 15
      vertex -70 -60.5 15
    endloop
  endfacet
  facet normal -1 0 0
    outer loop
      vertex -70 -67.5 15
      vertex -70 -65.5 13
      vertex -70 -67.5 -5
    endloop
  endfacet
  facet normal 1 0 0
    outer loop
      vertex -60 -60.5 15
      vertex -60 -62.5 13
      vertex -60 -60.5 5
    endloop
  endfacet
  facet normal 1 0 0
    outer loop
      vertex -60 -60.5 15
      vertex -60 -65.5 13
      vertex -60 -62.5 13
    endloop
  endfacet
  facet normal 1 -0 0
    outer loop
      vertex -60 -67.5 15
      vertex -60 -65.5 13
      vertex -60 -60.5 15
    endloop
  endfacet
  facet normal 1 0 0
    outer loop
      vertex -60 -67.5 -5
      vertex -60 -65.5 13
      vertex -60 -67.5 15
    endloop
  endfacet
  facet normal 1 0 0
    outer loop
      vertex -60 -65.5 13
      vertex -60 -67.5 -5
      vertex -60 -65.5 -5
    endloop
  endfacet
  facet normal 1 0 0
    outer loop
      vertex -60 -60.5 5
      vertex -60 -62.5 13
      vertex -60 -62.5 5
    endloop
  endfacet
  facet normal 0 1 -0
    outer loop
      vertex -60 -65.5 -5
      vertex -70 -65.5 13
      vertex -60 -65.5 13
    endloop
  endfacet
  facet normal 0 1 0
    outer loop
      vertex -70 -65.5 13
      vertex -60 -65.5 -5
      vertex -70 -65.5 -5
    endloop
  endfacet
  facet normal 0 0 -1
    outer loop
      vertex -70 -67.5 -5
      vertex -60 -65.5 -5
      vertex -60 -67.5 -5
    endloop
  endfacet
  facet normal -0 0 -1
    outer loop
      vertex -60 -65.5 -5
      vertex -70 -67.5 -5
      vertex -70 -65.5 -5
    endloop
  endfacet
  facet normal 0 -1 0
    outer loop
      vertex -70 -67.5 -5
      vertex -60 -67.5 15
      vertex -70 -67.5 15
    endloop
  endfacet
  facet normal 0 -1 -0
    outer loop
      vertex -60 -67.5 15
      vertex -70 -67.5 -5
      vertex -60 -67.5 -5
    endloop
  endfacet
  facet normal 0 0 -1
    outer loop
      vertex -70 -65.5 13
      vertex -60 -62.5 13
      vertex -60 -65.5 13
    endloop
  endfacet
  facet normal -0 0 -1
    outer loop
      vertex -60 -62.5 13
      vertex -70 -65.5 13
      vertex -70 -62.5 13
    endloop
  endfacet
endsolid OpenSCAD_Model
