solid OpenSCAD_Model
  facet normal 0.965958 0.258698 0
    outer loop
      vertex 45.4544 27.0209 2.71
      vertex 45.3191 27.5261 2.5
      vertex 45.3191 27.5261 2.71
    endloop
  endfacet
  facet normal 0.965958 0.258698 0
    outer loop
      vertex 45.3191 27.5261 2.5
      vertex 45.4544 27.0209 2.71
      vertex 45.4544 27.0209 2.5
    endloop
  endfacet
  facet normal 0.258698 -0.965958 0
    outer loop
      vertex 43.0209 -29.4544 2.5
      vertex 43.5261 -29.3191 2.71
      vertex 43.0209 -29.4544 2.71
    endloop
  endfacet
  facet normal 0.258698 -0.965958 0
    outer loop
      vertex 43.5261 -29.3191 2.71
      vertex 43.0209 -29.4544 2.5
      vertex 43.5261 -29.3191 2.5
    endloop
  endfacet
  facet normal 0 -1 0
    outer loop
      vertex -42.5 -29.5 2.5
      vertex 42.5 -29.5 2.71
      vertex -42.5 -29.5 2.71
    endloop
  endfacet
  facet normal 0 -1 -0
    outer loop
      vertex 42.5 -29.5 2.71
      vertex -42.5 -29.5 2.5
      vertex 42.5 -29.5 2.5
    endloop
  endfacet
  facet normal -0.819124 0.573616 0
    outer loop
      vertex -45.0981 28 2.5
      vertex -44.7981 28.4284 2.71
      vertex -44.7981 28.4284 2.5
    endloop
  endfacet
  facet normal -0.819124 0.573616 0
    outer loop
      vertex -44.7981 28.4284 2.71
      vertex -45.0981 28 2.5
      vertex -45.0981 28 2.71
    endloop
  endfacet
  facet normal 0.819124 0.573616 0
    outer loop
      vertex 45.0981 28 2.71
      vertex 44.7981 28.4284 2.5
      vertex 44.7981 28.4284 2.71
    endloop
  endfacet
  facet normal 0.819124 0.573616 0
    outer loop
      vertex 44.7981 28.4284 2.5
      vertex 45.0981 28 2.71
      vertex 45.0981 28 2.5
    endloop
  endfacet
  facet normal 0 1 -0
    outer loop
      vertex 42.5 29.5 2.5
      vertex -42.5 29.5 2.71
      vertex 42.5 29.5 2.71
    endloop
  endfacet
  facet normal 0 1 0
    outer loop
      vertex -42.5 29.5 2.71
      vertex 42.5 29.5 2.5
      vertex -42.5 29.5 2.5
    endloop
  endfacet
  facet normal 1 -0 0
    outer loop
      vertex 45.5 -26.5 2.71
      vertex 45.5 26.5 2.5
      vertex 45.5 26.5 2.71
    endloop
  endfacet
  facet normal 1 0 0
    outer loop
      vertex 45.5 26.5 2.5
      vertex 45.5 -26.5 2.71
      vertex 45.5 -26.5 2.5
    endloop
  endfacet
  facet normal -1 0 0
    outer loop
      vertex -45.5 -26.5 2.5
      vertex -45.5 26.5 2.71
      vertex -45.5 26.5 2.5
    endloop
  endfacet
  facet normal -1 -0 0
    outer loop
      vertex -45.5 26.5 2.71
      vertex -45.5 -26.5 2.5
      vertex -45.5 -26.5 2.71
    endloop
  endfacet
  facet normal -0.0872073 0.99619 0
    outer loop
      vertex -42.5 29.5 2.5
      vertex -43.0209 29.4544 2.71
      vertex -42.5 29.5 2.71
    endloop
  endfacet
  facet normal -0.0872073 0.99619 0
    outer loop
      vertex -43.0209 29.4544 2.71
      vertex -42.5 29.5 2.5
      vertex -43.0209 29.4544 2.5
    endloop
  endfacet
  facet normal -0.965958 0.258698 0
    outer loop
      vertex -45.4544 27.0209 2.5
      vertex -45.3191 27.5261 2.71
      vertex -45.3191 27.5261 2.5
    endloop
  endfacet
  facet normal -0.965958 0.258698 0
    outer loop
      vertex -45.3191 27.5261 2.71
      vertex -45.4544 27.0209 2.5
      vertex -45.4544 27.0209 2.71
    endloop
  endfacet
  facet normal -0.422645 -0.906295 0
    outer loop
      vertex -44 -29.0981 2.5
      vertex -43.5261 -29.3191 2.71
      vertex -44 -29.0981 2.71
    endloop
  endfacet
  facet normal -0.422645 -0.906295 -0
    outer loop
      vertex -43.5261 -29.3191 2.71
      vertex -44 -29.0981 2.5
      vertex -43.5261 -29.3191 2.5
    endloop
  endfacet
  facet normal 0.573616 0.819124 -0
    outer loop
      vertex 44.4284 28.7981 2.5
      vertex 44 29.0981 2.71
      vertex 44.4284 28.7981 2.71
    endloop
  endfacet
  facet normal 0.573616 0.819124 0
    outer loop
      vertex 44 29.0981 2.71
      vertex 44.4284 28.7981 2.5
      vertex 44 29.0981 2.5
    endloop
  endfacet
  facet normal -0.573616 0.819124 0
    outer loop
      vertex -44 29.0981 2.5
      vertex -44.4284 28.7981 2.71
      vertex -44 29.0981 2.71
    endloop
  endfacet
  facet normal -0.573616 0.819124 0
    outer loop
      vertex -44.4284 28.7981 2.71
      vertex -44 29.0981 2.5
      vertex -44.4284 28.7981 2.5
    endloop
  endfacet
  facet normal -0.906295 0.422645 0
    outer loop
      vertex -45.3191 27.5261 2.5
      vertex -45.0981 28 2.71
      vertex -45.0981 28 2.5
    endloop
  endfacet
  facet normal -0.906295 0.422645 0
    outer loop
      vertex -45.0981 28 2.71
      vertex -45.3191 27.5261 2.5
      vertex -45.3191 27.5261 2.71
    endloop
  endfacet
  facet normal 0.707107 0.707107 -0
    outer loop
      vertex 44.7981 28.4284 2.5
      vertex 44.4284 28.7981 2.71
      vertex 44.7981 28.4284 2.71
    endloop
  endfacet
  facet normal 0.707107 0.707107 0
    outer loop
      vertex 44.4284 28.7981 2.71
      vertex 44.7981 28.4284 2.5
      vertex 44.4284 28.7981 2.5
    endloop
  endfacet
  facet normal -0.965958 -0.258698 0
    outer loop
      vertex -45.3191 -27.5261 2.5
      vertex -45.4544 -27.0209 2.71
      vertex -45.4544 -27.0209 2.5
    endloop
  endfacet
  facet normal -0.965958 -0.258698 0
    outer loop
      vertex -45.4544 -27.0209 2.71
      vertex -45.3191 -27.5261 2.5
      vertex -45.3191 -27.5261 2.71
    endloop
  endfacet
  facet normal -0.707107 0.707107 0
    outer loop
      vertex -44.4284 28.7981 2.5
      vertex -44.7981 28.4284 2.71
      vertex -44.4284 28.7981 2.71
    endloop
  endfacet
  facet normal -0.707107 0.707107 0
    outer loop
      vertex -44.7981 28.4284 2.71
      vertex -44.4284 28.7981 2.5
      vertex -44.7981 28.4284 2.5
    endloop
  endfacet
  facet normal -0.258698 -0.965958 0
    outer loop
      vertex -43.5261 -29.3191 2.5
      vertex -43.0209 -29.4544 2.71
      vertex -43.5261 -29.3191 2.71
    endloop
  endfacet
  facet normal -0.258698 -0.965958 -0
    outer loop
      vertex -43.0209 -29.4544 2.71
      vertex -43.5261 -29.3191 2.5
      vertex -43.0209 -29.4544 2.5
    endloop
  endfacet
  facet normal 0.422645 0.906295 -0
    outer loop
      vertex 44 29.0981 2.5
      vertex 43.5261 29.3191 2.71
      vertex 44 29.0981 2.71
    endloop
  endfacet
  facet normal 0.422645 0.906295 0
    outer loop
      vertex 43.5261 29.3191 2.71
      vertex 44 29.0981 2.5
      vertex 43.5261 29.3191 2.5
    endloop
  endfacet
  facet normal -0.258698 0.965958 0
    outer loop
      vertex -43.0209 29.4544 2.5
      vertex -43.5261 29.3191 2.71
      vertex -43.0209 29.4544 2.71
    endloop
  endfacet
  facet normal -0.258698 0.965958 0
    outer loop
      vertex -43.5261 29.3191 2.71
      vertex -43.0209 29.4544 2.5
      vertex -43.5261 29.3191 2.5
    endloop
  endfacet
  facet normal -0.99619 -0.0872073 0
    outer loop
      vertex -45.4544 -27.0209 2.5
      vertex -45.5 -26.5 2.71
      vertex -45.5 -26.5 2.5
    endloop
  endfacet
  facet normal -0.99619 -0.0872073 0
    outer loop
      vertex -45.5 -26.5 2.71
      vertex -45.4544 -27.0209 2.5
      vertex -45.4544 -27.0209 2.71
    endloop
  endfacet
  facet normal 0.707107 -0.707107 0
    outer loop
      vertex 44.4284 -28.7981 2.5
      vertex 44.7981 -28.4284 2.71
      vertex 44.4284 -28.7981 2.71
    endloop
  endfacet
  facet normal 0.707107 -0.707107 0
    outer loop
      vertex 44.7981 -28.4284 2.71
      vertex 44.4284 -28.7981 2.5
      vertex 44.7981 -28.4284 2.5
    endloop
  endfacet
  facet normal 0.258698 0.965958 -0
    outer loop
      vertex 43.5261 29.3191 2.5
      vertex 43.0209 29.4544 2.71
      vertex 43.5261 29.3191 2.71
    endloop
  endfacet
  facet normal 0.258698 0.965958 0
    outer loop
      vertex 43.0209 29.4544 2.71
      vertex 43.5261 29.3191 2.5
      vertex 43.0209 29.4544 2.5
    endloop
  endfacet
  facet normal 0.99619 -0.0872073 0
    outer loop
      vertex 45.4544 -27.0209 2.71
      vertex 45.5 -26.5 2.5
      vertex 45.5 -26.5 2.71
    endloop
  endfacet
  facet normal 0.99619 -0.0872073 0
    outer loop
      vertex 45.5 -26.5 2.5
      vertex 45.4544 -27.0209 2.71
      vertex 45.4544 -27.0209 2.5
    endloop
  endfacet
  facet normal -0.906295 -0.422645 0
    outer loop
      vertex -45.0981 -28 2.5
      vertex -45.3191 -27.5261 2.71
      vertex -45.3191 -27.5261 2.5
    endloop
  endfacet
  facet normal -0.906295 -0.422645 0
    outer loop
      vertex -45.3191 -27.5261 2.71
      vertex -45.0981 -28 2.5
      vertex -45.0981 -28 2.71
    endloop
  endfacet
  facet normal -0.422645 0.906295 0
    outer loop
      vertex -43.5261 29.3191 2.5
      vertex -44 29.0981 2.71
      vertex -43.5261 29.3191 2.71
    endloop
  endfacet
  facet normal -0.422645 0.906295 0
    outer loop
      vertex -44 29.0981 2.71
      vertex -43.5261 29.3191 2.5
      vertex -44 29.0981 2.5
    endloop
  endfacet
  facet normal 0.906295 0.422645 0
    outer loop
      vertex 45.3191 27.5261 2.71
      vertex 45.0981 28 2.5
      vertex 45.0981 28 2.71
    endloop
  endfacet
  facet normal 0.906295 0.422645 0
    outer loop
      vertex 45.0981 28 2.5
      vertex 45.3191 27.5261 2.71
      vertex 45.3191 27.5261 2.5
    endloop
  endfacet
  facet normal 0.573616 -0.819124 0
    outer loop
      vertex 44 -29.0981 2.5
      vertex 44.4284 -28.7981 2.71
      vertex 44 -29.0981 2.71
    endloop
  endfacet
  facet normal 0.573616 -0.819124 0
    outer loop
      vertex 44.4284 -28.7981 2.71
      vertex 44 -29.0981 2.5
      vertex 44.4284 -28.7981 2.5
    endloop
  endfacet
  facet normal 0.422645 -0.906295 0
    outer loop
      vertex 43.5261 -29.3191 2.5
      vertex 44 -29.0981 2.71
      vertex 43.5261 -29.3191 2.71
    endloop
  endfacet
  facet normal 0.422645 -0.906295 0
    outer loop
      vertex 44 -29.0981 2.71
      vertex 43.5261 -29.3191 2.5
      vertex 44 -29.0981 2.5
    endloop
  endfacet
  facet normal -0.0872073 -0.99619 0
    outer loop
      vertex -43.0209 -29.4544 2.5
      vertex -42.5 -29.5 2.71
      vertex -43.0209 -29.4544 2.71
    endloop
  endfacet
  facet normal -0.0872073 -0.99619 -0
    outer loop
      vertex -42.5 -29.5 2.71
      vertex -43.0209 -29.4544 2.5
      vertex -42.5 -29.5 2.5
    endloop
  endfacet
  facet normal -0.819124 -0.573616 0
    outer loop
      vertex -44.7981 -28.4284 2.5
      vertex -45.0981 -28 2.71
      vertex -45.0981 -28 2.5
    endloop
  endfacet
  facet normal -0.819124 -0.573616 0
    outer loop
      vertex -45.0981 -28 2.71
      vertex -44.7981 -28.4284 2.5
      vertex -44.7981 -28.4284 2.71
    endloop
  endfacet
  facet normal 0.0872073 0.99619 -0
    outer loop
      vertex 43.0209 29.4544 2.5
      vertex 42.5 29.5 2.71
      vertex 43.0209 29.4544 2.71
    endloop
  endfacet
  facet normal 0.0872073 0.99619 0
    outer loop
      vertex 42.5 29.5 2.71
      vertex 43.0209 29.4544 2.5
      vertex 42.5 29.5 2.5
    endloop
  endfacet
  facet normal 0.965958 -0.258698 0
    outer loop
      vertex 45.3191 -27.5261 2.71
      vertex 45.4544 -27.0209 2.5
      vertex 45.4544 -27.0209 2.71
    endloop
  endfacet
  facet normal 0.965958 -0.258698 0
    outer loop
      vertex 45.4544 -27.0209 2.5
      vertex 45.3191 -27.5261 2.71
      vertex 45.3191 -27.5261 2.5
    endloop
  endfacet
  facet normal 0.0872073 -0.99619 0
    outer loop
      vertex 42.5 -29.5 2.5
      vertex 43.0209 -29.4544 2.71
      vertex 42.5 -29.5 2.71
    endloop
  endfacet
  facet normal 0.0872073 -0.99619 0
    outer loop
      vertex 43.0209 -29.4544 2.71
      vertex 42.5 -29.5 2.5
      vertex 43.0209 -29.4544 2.5
    endloop
  endfacet
  facet normal 0.906295 -0.422645 0
    outer loop
      vertex 45.0981 -28 2.71
      vertex 45.3191 -27.5261 2.5
      vertex 45.3191 -27.5261 2.71
    endloop
  endfacet
  facet normal 0.906295 -0.422645 0
    outer loop
      vertex 45.3191 -27.5261 2.5
      vertex 45.0981 -28 2.71
      vertex 45.0981 -28 2.5
    endloop
  endfacet
  facet normal 0.819124 -0.573616 0
    outer loop
      vertex 44.7981 -28.4284 2.71
      vertex 45.0981 -28 2.5
      vertex 45.0981 -28 2.71
    endloop
  endfacet
  facet normal 0.819124 -0.573616 0
    outer loop
      vertex 45.0981 -28 2.5
      vertex 44.7981 -28.4284 2.71
      vertex 44.7981 -28.4284 2.5
    endloop
  endfacet
  facet normal 0 0 -1
    outer loop
      vertex 44.5691 -26.7761 2.5
      vertex 45.5 -26.5 2.5
      vertex 45.4544 -27.0209 2.5
    endloop
  endfacet
  facet normal 0 0 -1
    outer loop
      vertex 45.5 -26.5 2.5
      vertex 44.75 -25.75 2.5
      vertex 45.5 26.5 2.5
    endloop
  endfacet
  facet normal 0 0 -1
    outer loop
      vertex 44.5691 -26.7761 2.5
      vertex 45.4544 -27.0209 2.5
      vertex 45.3191 -27.5261 2.5
    endloop
  endfacet
  facet normal 0 0 -1
    outer loop
      vertex 44.75 25.75 2.5
      vertex 45.5 26.5 2.5
      vertex 44.75 -25.75 2.5
    endloop
  endfacet
  facet normal 0 0 -1
    outer loop
      vertex 44.3481 -27.25 2.5
      vertex 45.3191 -27.5261 2.5
      vertex 45.0981 -28 2.5
    endloop
  endfacet
  facet normal 0 0 -1
    outer loop
      vertex 44.7044 26.2709 2.5
      vertex 45.5 26.5 2.5
      vertex 44.75 25.75 2.5
    endloop
  endfacet
  facet normal 0 0 -1
    outer loop
      vertex 44.0481 -27.6784 2.5
      vertex 45.0981 -28 2.5
      vertex 44.7981 -28.4284 2.5
    endloop
  endfacet
  facet normal 0 0 -1
    outer loop
      vertex 44.5691 26.7761 2.5
      vertex 45.5 26.5 2.5
      vertex 44.7044 26.2709 2.5
    endloop
  endfacet
  facet normal 0 0 -1
    outer loop
      vertex 45.5 26.5 2.5
      vertex 44.5691 26.7761 2.5
      vertex 45.4544 27.0209 2.5
    endloop
  endfacet
  facet normal 0 0 -1
    outer loop
      vertex 45.5 -26.5 2.5
      vertex 44.7044 -26.2709 2.5
      vertex 44.75 -25.75 2.5
    endloop
  endfacet
  facet normal -0 0 -1
    outer loop
      vertex 45.5 -26.5 2.5
      vertex 44.5691 -26.7761 2.5
      vertex 44.7044 -26.2709 2.5
    endloop
  endfacet
  facet normal 0 0 -1
    outer loop
      vertex 44.0481 -27.6784 2.5
      vertex 44.7981 -28.4284 2.5
      vertex 44.4284 -28.7981 2.5
    endloop
  endfacet
  facet normal 0 0 -1
    outer loop
      vertex 45.3191 -27.5261 2.5
      vertex 44.3481 -27.25 2.5
      vertex 44.5691 -26.7761 2.5
    endloop
  endfacet
  facet normal 0 0 -1
    outer loop
      vertex 45.0981 -28 2.5
      vertex 44.0481 -27.6784 2.5
      vertex 44.3481 -27.25 2.5
    endloop
  endfacet
  facet normal 0 0 -1
    outer loop
      vertex 43.6784 -28.0481 2.5
      vertex 44.4284 -28.7981 2.5
      vertex 44 -29.0981 2.5
    endloop
  endfacet
  facet normal 0 0 -1
    outer loop
      vertex 44.4284 -28.7981 2.5
      vertex 43.6784 -28.0481 2.5
      vertex 44.0481 -27.6784 2.5
    endloop
  endfacet
  facet normal 0 0 -1
    outer loop
      vertex 43.25 -28.3481 2.5
      vertex 44 -29.0981 2.5
      vertex 43.5261 -29.3191 2.5
    endloop
  endfacet
  facet normal 0 0 -1
    outer loop
      vertex 44 -29.0981 2.5
      vertex 43.25 -28.3481 2.5
      vertex 43.6784 -28.0481 2.5
    endloop
  endfacet
  facet normal 0 0 -1
    outer loop
      vertex 42.7761 -28.5691 2.5
      vertex 43.5261 -29.3191 2.5
      vertex 43.0209 -29.4544 2.5
    endloop
  endfacet
  facet normal 0 0 -1
    outer loop
      vertex 43.5261 -29.3191 2.5
      vertex 42.7761 -28.5691 2.5
      vertex 43.25 -28.3481 2.5
    endloop
  endfacet
  facet normal 0 0 -1
    outer loop
      vertex 42.5 -29.5 2.5
      vertex 42.7761 -28.5691 2.5
      vertex 43.0209 -29.4544 2.5
    endloop
  endfacet
  facet normal 0 0 -1
    outer loop
      vertex 42.5 -29.5 2.5
      vertex 42.2709 -28.7044 2.5
      vertex 42.7761 -28.5691 2.5
    endloop
  endfacet
  facet normal 0 0 -1
    outer loop
      vertex 42.5 -29.5 2.5
      vertex 41.75 -28.75 2.5
      vertex 42.2709 -28.7044 2.5
    endloop
  endfacet
  facet normal 0 0 -1
    outer loop
      vertex 42.5 -29.5 2.5
      vertex -41.75 -28.75 2.5
      vertex 41.75 -28.75 2.5
    endloop
  endfacet
  facet normal 0 0 -1
    outer loop
      vertex -42.5 -29.5 2.5
      vertex -41.75 -28.75 2.5
      vertex 42.5 -29.5 2.5
    endloop
  endfacet
  facet normal 0 0 -1
    outer loop
      vertex -42.5 -29.5 2.5
      vertex -42.2709 -28.7044 2.5
      vertex -41.75 -28.75 2.5
    endloop
  endfacet
  facet normal 0 0 -1
    outer loop
      vertex -42.5 -29.5 2.5
      vertex -42.7761 -28.5691 2.5
      vertex -42.2709 -28.7044 2.5
    endloop
  endfacet
  facet normal 0 0 -1
    outer loop
      vertex -43.0209 -29.4544 2.5
      vertex -42.7761 -28.5691 2.5
      vertex -42.5 -29.5 2.5
    endloop
  endfacet
  facet normal 0 0 -1
    outer loop
      vertex -43.5261 -29.3191 2.5
      vertex -42.7761 -28.5691 2.5
      vertex -43.0209 -29.4544 2.5
    endloop
  endfacet
  facet normal -0 0 -1
    outer loop
      vertex -42.7761 -28.5691 2.5
      vertex -43.5261 -29.3191 2.5
      vertex -43.25 -28.3481 2.5
    endloop
  endfacet
  facet normal 0 0 -1
    outer loop
      vertex -44 -29.0981 2.5
      vertex -43.25 -28.3481 2.5
      vertex -43.5261 -29.3191 2.5
    endloop
  endfacet
  facet normal -0 0 -1
    outer loop
      vertex -43.25 -28.3481 2.5
      vertex -44 -29.0981 2.5
      vertex -43.6784 -28.0481 2.5
    endloop
  endfacet
  facet normal 0 0 -1
    outer loop
      vertex -44.4284 -28.7981 2.5
      vertex -43.6784 -28.0481 2.5
      vertex -44 -29.0981 2.5
    endloop
  endfacet
  facet normal -0 0 -1
    outer loop
      vertex -43.6784 -28.0481 2.5
      vertex -44.4284 -28.7981 2.5
      vertex -44.0481 -27.6784 2.5
    endloop
  endfacet
  facet normal 0 0 -1
    outer loop
      vertex -44.7981 -28.4284 2.5
      vertex -44.0481 -27.6784 2.5
      vertex -44.4284 -28.7981 2.5
    endloop
  endfacet
  facet normal 0 0 -1
    outer loop
      vertex -45.0981 -28 2.5
      vertex -44.0481 -27.6784 2.5
      vertex -44.7981 -28.4284 2.5
    endloop
  endfacet
  facet normal -0 0 -1
    outer loop
      vertex -44.0481 -27.6784 2.5
      vertex -45.0981 -28 2.5
      vertex -44.3481 -27.25 2.5
    endloop
  endfacet
  facet normal 0 0 -1
    outer loop
      vertex -45.4544 -27.0209 2.5
      vertex -44.5691 -26.7761 2.5
      vertex -45.3191 -27.5261 2.5
    endloop
  endfacet
  facet normal -0 0 -1
    outer loop
      vertex -44.3481 -27.25 2.5
      vertex -45.3191 -27.5261 2.5
      vertex -44.5691 -26.7761 2.5
    endloop
  endfacet
  facet normal 0 0 -1
    outer loop
      vertex -45.3191 -27.5261 2.5
      vertex -44.3481 -27.25 2.5
      vertex -45.0981 -28 2.5
    endloop
  endfacet
  facet normal -0 0 -1
    outer loop
      vertex 45.4544 27.0209 2.5
      vertex 44.5691 26.7761 2.5
      vertex 45.3191 27.5261 2.5
    endloop
  endfacet
  facet normal 0 0 -1
    outer loop
      vertex 44.3481 27.25 2.5
      vertex 45.3191 27.5261 2.5
      vertex 44.5691 26.7761 2.5
    endloop
  endfacet
  facet normal -0 0 -1
    outer loop
      vertex 45.3191 27.5261 2.5
      vertex 44.3481 27.25 2.5
      vertex 45.0981 28 2.5
    endloop
  endfacet
  facet normal 0 0 -1
    outer loop
      vertex 44.0481 27.6784 2.5
      vertex 45.0981 28 2.5
      vertex 44.3481 27.25 2.5
    endloop
  endfacet
  facet normal -0 0 -1
    outer loop
      vertex 45.0981 28 2.5
      vertex 44.0481 27.6784 2.5
      vertex 44.7981 28.4284 2.5
    endloop
  endfacet
  facet normal -0 0 -1
    outer loop
      vertex 44.7981 28.4284 2.5
      vertex 44.0481 27.6784 2.5
      vertex 44.4284 28.7981 2.5
    endloop
  endfacet
  facet normal 0 0 -1
    outer loop
      vertex 43.6784 28.0481 2.5
      vertex 44.4284 28.7981 2.5
      vertex 44.0481 27.6784 2.5
    endloop
  endfacet
  facet normal -0 0 -1
    outer loop
      vertex 44.4284 28.7981 2.5
      vertex 43.6784 28.0481 2.5
      vertex 44 29.0981 2.5
    endloop
  endfacet
  facet normal 0 0 -1
    outer loop
      vertex 43.25 28.3481 2.5
      vertex 44 29.0981 2.5
      vertex 43.6784 28.0481 2.5
    endloop
  endfacet
  facet normal -0 0 -1
    outer loop
      vertex 44 29.0981 2.5
      vertex 43.25 28.3481 2.5
      vertex 43.5261 29.3191 2.5
    endloop
  endfacet
  facet normal 0 0 -1
    outer loop
      vertex 42.7761 28.5691 2.5
      vertex 43.5261 29.3191 2.5
      vertex 43.25 28.3481 2.5
    endloop
  endfacet
  facet normal -0 0 -1
    outer loop
      vertex 43.5261 29.3191 2.5
      vertex 42.7761 28.5691 2.5
      vertex 43.0209 29.4544 2.5
    endloop
  endfacet
  facet normal 0 0 -1
    outer loop
      vertex 42.7761 28.5691 2.5
      vertex 42.5 29.5 2.5
      vertex 43.0209 29.4544 2.5
    endloop
  endfacet
  facet normal 0 0 -1
    outer loop
      vertex 42.2709 28.7044 2.5
      vertex 42.5 29.5 2.5
      vertex 42.7761 28.5691 2.5
    endloop
  endfacet
  facet normal 0 0 -1
    outer loop
      vertex 41.75 28.75 2.5
      vertex 42.5 29.5 2.5
      vertex 42.2709 28.7044 2.5
    endloop
  endfacet
  facet normal 0 0 -1
    outer loop
      vertex -41.75 28.75 2.5
      vertex 42.5 29.5 2.5
      vertex 41.75 28.75 2.5
    endloop
  endfacet
  facet normal 0 0 -1
    outer loop
      vertex -41.75 28.75 2.5
      vertex -42.5 29.5 2.5
      vertex 42.5 29.5 2.5
    endloop
  endfacet
  facet normal 0 0 -1
    outer loop
      vertex -42.2709 28.7044 2.5
      vertex -42.5 29.5 2.5
      vertex -41.75 28.75 2.5
    endloop
  endfacet
  facet normal 0 0 -1
    outer loop
      vertex -42.7761 28.5691 2.5
      vertex -42.5 29.5 2.5
      vertex -42.2709 28.7044 2.5
    endloop
  endfacet
  facet normal 0 0 -1
    outer loop
      vertex -42.7761 28.5691 2.5
      vertex -43.0209 29.4544 2.5
      vertex -42.5 29.5 2.5
    endloop
  endfacet
  facet normal 0 0 -1
    outer loop
      vertex -43.5261 29.3191 2.5
      vertex -42.7761 28.5691 2.5
      vertex -43.25 28.3481 2.5
    endloop
  endfacet
  facet normal 0 0 -1
    outer loop
      vertex -42.7761 28.5691 2.5
      vertex -43.5261 29.3191 2.5
      vertex -43.0209 29.4544 2.5
    endloop
  endfacet
  facet normal 0 0 -1
    outer loop
      vertex -44 29.0981 2.5
      vertex -43.25 28.3481 2.5
      vertex -43.6784 28.0481 2.5
    endloop
  endfacet
  facet normal 0 0 -1
    outer loop
      vertex -43.25 28.3481 2.5
      vertex -44 29.0981 2.5
      vertex -43.5261 29.3191 2.5
    endloop
  endfacet
  facet normal 0 0 -1
    outer loop
      vertex -44.4284 28.7981 2.5
      vertex -43.6784 28.0481 2.5
      vertex -44.0481 27.6784 2.5
    endloop
  endfacet
  facet normal 0 0 -1
    outer loop
      vertex -45.0981 28 2.5
      vertex -44.0481 27.6784 2.5
      vertex -44.3481 27.25 2.5
    endloop
  endfacet
  facet normal 0 0 -1
    outer loop
      vertex -43.6784 28.0481 2.5
      vertex -44.4284 28.7981 2.5
      vertex -44 29.0981 2.5
    endloop
  endfacet
  facet normal 0 0 -1
    outer loop
      vertex -45.3191 27.5261 2.5
      vertex -44.3481 27.25 2.5
      vertex -44.5691 26.7761 2.5
    endloop
  endfacet
  facet normal 0 0 -1
    outer loop
      vertex -45.5 26.5 2.5
      vertex -44.5691 26.7761 2.5
      vertex -44.7044 26.2709 2.5
    endloop
  endfacet
  facet normal 0 0 -1
    outer loop
      vertex -44.0481 27.6784 2.5
      vertex -44.7981 28.4284 2.5
      vertex -44.4284 28.7981 2.5
    endloop
  endfacet
  facet normal 0 0 -1
    outer loop
      vertex -45.5 26.5 2.5
      vertex -44.7044 26.2709 2.5
      vertex -44.75 25.75 2.5
    endloop
  endfacet
  facet normal -0 0 -1
    outer loop
      vertex -44.75 -25.75 2.5
      vertex -45.5 -26.5 2.5
      vertex -44.75 25.75 2.5
    endloop
  endfacet
  facet normal 0 0 -1
    outer loop
      vertex -45.5 -26.5 2.5
      vertex -44.5691 -26.7761 2.5
      vertex -45.4544 -27.0209 2.5
    endloop
  endfacet
  facet normal 0 0 -1
    outer loop
      vertex -45.5 26.5 2.5
      vertex -44.75 25.75 2.5
      vertex -45.5 -26.5 2.5
    endloop
  endfacet
  facet normal 0 0 -1
    outer loop
      vertex -44.5691 -26.7761 2.5
      vertex -45.5 -26.5 2.5
      vertex -44.7044 -26.2709 2.5
    endloop
  endfacet
  facet normal -0 0 -1
    outer loop
      vertex -44.5691 26.7761 2.5
      vertex -45.5 26.5 2.5
      vertex -45.4544 27.0209 2.5
    endloop
  endfacet
  facet normal -0 0 -1
    outer loop
      vertex -44.7044 -26.2709 2.5
      vertex -45.5 -26.5 2.5
      vertex -44.75 -25.75 2.5
    endloop
  endfacet
  facet normal 0 0 -1
    outer loop
      vertex -44.0481 27.6784 2.5
      vertex -45.0981 28 2.5
      vertex -44.7981 28.4284 2.5
    endloop
  endfacet
  facet normal 0 0 -1
    outer loop
      vertex -44.3481 27.25 2.5
      vertex -45.3191 27.5261 2.5
      vertex -45.0981 28 2.5
    endloop
  endfacet
  facet normal 0 0 -1
    outer loop
      vertex -44.5691 26.7761 2.5
      vertex -45.4544 27.0209 2.5
      vertex -45.3191 27.5261 2.5
    endloop
  endfacet
  facet normal 0.99619 0.0872073 0
    outer loop
      vertex 45.5 26.5 2.71
      vertex 45.4544 27.0209 2.5
      vertex 45.4544 27.0209 2.71
    endloop
  endfacet
  facet normal 0.99619 0.0872073 0
    outer loop
      vertex 45.4544 27.0209 2.5
      vertex 45.5 26.5 2.71
      vertex 45.5 26.5 2.5
    endloop
  endfacet
  facet normal -0.573616 -0.819124 0
    outer loop
      vertex -44.4284 -28.7981 2.5
      vertex -44 -29.0981 2.71
      vertex -44.4284 -28.7981 2.71
    endloop
  endfacet
  facet normal -0.573616 -0.819124 -0
    outer loop
      vertex -44 -29.0981 2.71
      vertex -44.4284 -28.7981 2.5
      vertex -44 -29.0981 2.5
    endloop
  endfacet
  facet normal -0.707107 -0.707107 0
    outer loop
      vertex -44.7981 -28.4284 2.5
      vertex -44.4284 -28.7981 2.71
      vertex -44.7981 -28.4284 2.71
    endloop
  endfacet
  facet normal -0.707107 -0.707107 -0
    outer loop
      vertex -44.4284 -28.7981 2.71
      vertex -44.7981 -28.4284 2.5
      vertex -44.4284 -28.7981 2.5
    endloop
  endfacet
  facet normal -0.99619 0.0872073 0
    outer loop
      vertex -45.5 26.5 2.5
      vertex -45.4544 27.0209 2.71
      vertex -45.4544 27.0209 2.5
    endloop
  endfacet
  facet normal -0.99619 0.0872073 0
    outer loop
      vertex -45.4544 27.0209 2.71
      vertex -45.5 26.5 2.5
      vertex -45.5 26.5 2.71
    endloop
  endfacet
  facet normal -0 0 1
    outer loop
      vertex 44.5691 26.7761 2.71
      vertex 45.5 26.5 2.71
      vertex 45.4544 27.0209 2.71
    endloop
  endfacet
  facet normal 0 0 1
    outer loop
      vertex 45.5 26.5 2.71
      vertex 44.75 25.75 2.71
      vertex 45.5 -26.5 2.71
    endloop
  endfacet
  facet normal 0 0 1
    outer loop
      vertex 44.5691 26.7761 2.71
      vertex 45.4544 27.0209 2.71
      vertex 45.3191 27.5261 2.71
    endloop
  endfacet
  facet normal -0 0 1
    outer loop
      vertex 44.75 -25.75 2.71
      vertex 45.5 -26.5 2.71
      vertex 44.75 25.75 2.71
    endloop
  endfacet
  facet normal 0 0 1
    outer loop
      vertex 44.3481 27.25 2.71
      vertex 45.3191 27.5261 2.71
      vertex 45.0981 28 2.71
    endloop
  endfacet
  facet normal -0 0 1
    outer loop
      vertex 44.7044 -26.2709 2.71
      vertex 45.5 -26.5 2.71
      vertex 44.75 -25.75 2.71
    endloop
  endfacet
  facet normal 0 0 1
    outer loop
      vertex 44.0481 27.6784 2.71
      vertex 45.0981 28 2.71
      vertex 44.7981 28.4284 2.71
    endloop
  endfacet
  facet normal 0 0 1
    outer loop
      vertex 44.5691 -26.7761 2.71
      vertex 45.5 -26.5 2.71
      vertex 44.7044 -26.2709 2.71
    endloop
  endfacet
  facet normal 0 0 1
    outer loop
      vertex 45.5 -26.5 2.71
      vertex 44.5691 -26.7761 2.71
      vertex 45.4544 -27.0209 2.71
    endloop
  endfacet
  facet normal 0 0 1
    outer loop
      vertex 45.5 26.5 2.71
      vertex 44.7044 26.2709 2.71
      vertex 44.75 25.75 2.71
    endloop
  endfacet
  facet normal 0 0 1
    outer loop
      vertex 45.5 26.5 2.71
      vertex 44.5691 26.7761 2.71
      vertex 44.7044 26.2709 2.71
    endloop
  endfacet
  facet normal 0 0 1
    outer loop
      vertex 44.0481 27.6784 2.71
      vertex 44.7981 28.4284 2.71
      vertex 44.4284 28.7981 2.71
    endloop
  endfacet
  facet normal 0 0 1
    outer loop
      vertex 45.3191 27.5261 2.71
      vertex 44.3481 27.25 2.71
      vertex 44.5691 26.7761 2.71
    endloop
  endfacet
  facet normal 0 0 1
    outer loop
      vertex 45.0981 28 2.71
      vertex 44.0481 27.6784 2.71
      vertex 44.3481 27.25 2.71
    endloop
  endfacet
  facet normal 0 0 1
    outer loop
      vertex 43.6784 28.0481 2.71
      vertex 44.4284 28.7981 2.71
      vertex 44 29.0981 2.71
    endloop
  endfacet
  facet normal 0 0 1
    outer loop
      vertex 44.4284 28.7981 2.71
      vertex 43.6784 28.0481 2.71
      vertex 44.0481 27.6784 2.71
    endloop
  endfacet
  facet normal 0 0 1
    outer loop
      vertex 43.25 28.3481 2.71
      vertex 44 29.0981 2.71
      vertex 43.5261 29.3191 2.71
    endloop
  endfacet
  facet normal 0 0 1
    outer loop
      vertex 44 29.0981 2.71
      vertex 43.25 28.3481 2.71
      vertex 43.6784 28.0481 2.71
    endloop
  endfacet
  facet normal 0 0 1
    outer loop
      vertex 42.7761 28.5691 2.71
      vertex 43.5261 29.3191 2.71
      vertex 43.0209 29.4544 2.71
    endloop
  endfacet
  facet normal 0 0 1
    outer loop
      vertex 43.5261 29.3191 2.71
      vertex 42.7761 28.5691 2.71
      vertex 43.25 28.3481 2.71
    endloop
  endfacet
  facet normal 0 0 1
    outer loop
      vertex 42.5 29.5 2.71
      vertex 42.7761 28.5691 2.71
      vertex 43.0209 29.4544 2.71
    endloop
  endfacet
  facet normal 0 0 1
    outer loop
      vertex 42.5 29.5 2.71
      vertex 42.2709 28.7044 2.71
      vertex 42.7761 28.5691 2.71
    endloop
  endfacet
  facet normal 0 0 1
    outer loop
      vertex 42.5 29.5 2.71
      vertex 41.75 28.75 2.71
      vertex 42.2709 28.7044 2.71
    endloop
  endfacet
  facet normal 0 0 1
    outer loop
      vertex 42.5 29.5 2.71
      vertex -41.75 28.75 2.71
      vertex 41.75 28.75 2.71
    endloop
  endfacet
  facet normal -0 0 1
    outer loop
      vertex -42.5 29.5 2.71
      vertex -41.75 28.75 2.71
      vertex 42.5 29.5 2.71
    endloop
  endfacet
  facet normal 0 0 1
    outer loop
      vertex -42.5 29.5 2.71
      vertex -42.2709 28.7044 2.71
      vertex -41.75 28.75 2.71
    endloop
  endfacet
  facet normal 0 0 1
    outer loop
      vertex -42.5 29.5 2.71
      vertex -42.7761 28.5691 2.71
      vertex -42.2709 28.7044 2.71
    endloop
  endfacet
  facet normal -0 0 1
    outer loop
      vertex -43.0209 29.4544 2.71
      vertex -42.7761 28.5691 2.71
      vertex -42.5 29.5 2.71
    endloop
  endfacet
  facet normal -0 0 1
    outer loop
      vertex -43.5261 29.3191 2.71
      vertex -42.7761 28.5691 2.71
      vertex -43.0209 29.4544 2.71
    endloop
  endfacet
  facet normal 0 0 1
    outer loop
      vertex -42.7761 28.5691 2.71
      vertex -43.5261 29.3191 2.71
      vertex -43.25 28.3481 2.71
    endloop
  endfacet
  facet normal -0 0 1
    outer loop
      vertex -44 29.0981 2.71
      vertex -43.25 28.3481 2.71
      vertex -43.5261 29.3191 2.71
    endloop
  endfacet
  facet normal 0 0 1
    outer loop
      vertex -43.25 28.3481 2.71
      vertex -44 29.0981 2.71
      vertex -43.6784 28.0481 2.71
    endloop
  endfacet
  facet normal -0 0 1
    outer loop
      vertex -44.4284 28.7981 2.71
      vertex -43.6784 28.0481 2.71
      vertex -44 29.0981 2.71
    endloop
  endfacet
  facet normal 0 0 1
    outer loop
      vertex -43.6784 28.0481 2.71
      vertex -44.4284 28.7981 2.71
      vertex -44.0481 27.6784 2.71
    endloop
  endfacet
  facet normal -0 0 1
    outer loop
      vertex -44.7981 28.4284 2.71
      vertex -44.0481 27.6784 2.71
      vertex -44.4284 28.7981 2.71
    endloop
  endfacet
  facet normal -0 0 1
    outer loop
      vertex -45.0981 28 2.71
      vertex -44.0481 27.6784 2.71
      vertex -44.7981 28.4284 2.71
    endloop
  endfacet
  facet normal 0 0 1
    outer loop
      vertex -44.0481 27.6784 2.71
      vertex -45.0981 28 2.71
      vertex -44.3481 27.25 2.71
    endloop
  endfacet
  facet normal -0 0 1
    outer loop
      vertex -45.4544 27.0209 2.71
      vertex -44.5691 26.7761 2.71
      vertex -45.3191 27.5261 2.71
    endloop
  endfacet
  facet normal 0 0 1
    outer loop
      vertex -44.3481 27.25 2.71
      vertex -45.3191 27.5261 2.71
      vertex -44.5691 26.7761 2.71
    endloop
  endfacet
  facet normal -0 0 1
    outer loop
      vertex -45.3191 27.5261 2.71
      vertex -44.3481 27.25 2.71
      vertex -45.0981 28 2.71
    endloop
  endfacet
  facet normal 0 0 1
    outer loop
      vertex 45.4544 -27.0209 2.71
      vertex 44.5691 -26.7761 2.71
      vertex 45.3191 -27.5261 2.71
    endloop
  endfacet
  facet normal -0 0 1
    outer loop
      vertex 44.3481 -27.25 2.71
      vertex 45.3191 -27.5261 2.71
      vertex 44.5691 -26.7761 2.71
    endloop
  endfacet
  facet normal 0 0 1
    outer loop
      vertex 45.3191 -27.5261 2.71
      vertex 44.3481 -27.25 2.71
      vertex 45.0981 -28 2.71
    endloop
  endfacet
  facet normal -0 0 1
    outer loop
      vertex 44.0481 -27.6784 2.71
      vertex 45.0981 -28 2.71
      vertex 44.3481 -27.25 2.71
    endloop
  endfacet
  facet normal 0 0 1
    outer loop
      vertex 45.0981 -28 2.71
      vertex 44.0481 -27.6784 2.71
      vertex 44.7981 -28.4284 2.71
    endloop
  endfacet
  facet normal 0 0 1
    outer loop
      vertex 44.7981 -28.4284 2.71
      vertex 44.0481 -27.6784 2.71
      vertex 44.4284 -28.7981 2.71
    endloop
  endfacet
  facet normal -0 0 1
    outer loop
      vertex 43.6784 -28.0481 2.71
      vertex 44.4284 -28.7981 2.71
      vertex 44.0481 -27.6784 2.71
    endloop
  endfacet
  facet normal 0 0 1
    outer loop
      vertex 44.4284 -28.7981 2.71
      vertex 43.6784 -28.0481 2.71
      vertex 44 -29.0981 2.71
    endloop
  endfacet
  facet normal -0 0 1
    outer loop
      vertex 43.25 -28.3481 2.71
      vertex 44 -29.0981 2.71
      vertex 43.6784 -28.0481 2.71
    endloop
  endfacet
  facet normal 0 0 1
    outer loop
      vertex 44 -29.0981 2.71
      vertex 43.25 -28.3481 2.71
      vertex 43.5261 -29.3191 2.71
    endloop
  endfacet
  facet normal -0 0 1
    outer loop
      vertex 42.7761 -28.5691 2.71
      vertex 43.5261 -29.3191 2.71
      vertex 43.25 -28.3481 2.71
    endloop
  endfacet
  facet normal 0 0 1
    outer loop
      vertex 43.5261 -29.3191 2.71
      vertex 42.7761 -28.5691 2.71
      vertex 43.0209 -29.4544 2.71
    endloop
  endfacet
  facet normal 0 0 1
    outer loop
      vertex 42.7761 -28.5691 2.71
      vertex 42.5 -29.5 2.71
      vertex 43.0209 -29.4544 2.71
    endloop
  endfacet
  facet normal -0 0 1
    outer loop
      vertex 42.2709 -28.7044 2.71
      vertex 42.5 -29.5 2.71
      vertex 42.7761 -28.5691 2.71
    endloop
  endfacet
  facet normal -0 0 1
    outer loop
      vertex 41.75 -28.75 2.71
      vertex 42.5 -29.5 2.71
      vertex 42.2709 -28.7044 2.71
    endloop
  endfacet
  facet normal -0 0 1
    outer loop
      vertex -41.75 -28.75 2.71
      vertex 42.5 -29.5 2.71
      vertex 41.75 -28.75 2.71
    endloop
  endfacet
  facet normal 0 0 1
    outer loop
      vertex -41.75 -28.75 2.71
      vertex -42.5 -29.5 2.71
      vertex 42.5 -29.5 2.71
    endloop
  endfacet
  facet normal 0 0 1
    outer loop
      vertex -42.2709 -28.7044 2.71
      vertex -42.5 -29.5 2.71
      vertex -41.75 -28.75 2.71
    endloop
  endfacet
  facet normal 0 0 1
    outer loop
      vertex -42.7761 -28.5691 2.71
      vertex -42.5 -29.5 2.71
      vertex -42.2709 -28.7044 2.71
    endloop
  endfacet
  facet normal 0 0 1
    outer loop
      vertex -42.7761 -28.5691 2.71
      vertex -43.0209 -29.4544 2.71
      vertex -42.5 -29.5 2.71
    endloop
  endfacet
  facet normal 0 0 1
    outer loop
      vertex -43.5261 -29.3191 2.71
      vertex -42.7761 -28.5691 2.71
      vertex -43.25 -28.3481 2.71
    endloop
  endfacet
  facet normal 0 0 1
    outer loop
      vertex -42.7761 -28.5691 2.71
      vertex -43.5261 -29.3191 2.71
      vertex -43.0209 -29.4544 2.71
    endloop
  endfacet
  facet normal 0 0 1
    outer loop
      vertex -44 -29.0981 2.71
      vertex -43.25 -28.3481 2.71
      vertex -43.6784 -28.0481 2.71
    endloop
  endfacet
  facet normal 0 0 1
    outer loop
      vertex -43.25 -28.3481 2.71
      vertex -44 -29.0981 2.71
      vertex -43.5261 -29.3191 2.71
    endloop
  endfacet
  facet normal 0 0 1
    outer loop
      vertex -44.4284 -28.7981 2.71
      vertex -43.6784 -28.0481 2.71
      vertex -44.0481 -27.6784 2.71
    endloop
  endfacet
  facet normal 0 0 1
    outer loop
      vertex -45.0981 -28 2.71
      vertex -44.0481 -27.6784 2.71
      vertex -44.3481 -27.25 2.71
    endloop
  endfacet
  facet normal 0 0 1
    outer loop
      vertex -43.6784 -28.0481 2.71
      vertex -44.4284 -28.7981 2.71
      vertex -44 -29.0981 2.71
    endloop
  endfacet
  facet normal 0 0 1
    outer loop
      vertex -45.3191 -27.5261 2.71
      vertex -44.3481 -27.25 2.71
      vertex -44.5691 -26.7761 2.71
    endloop
  endfacet
  facet normal -0 0 1
    outer loop
      vertex -45.5 -26.5 2.71
      vertex -44.5691 -26.7761 2.71
      vertex -44.7044 -26.2709 2.71
    endloop
  endfacet
  facet normal 0 0 1
    outer loop
      vertex -44.0481 -27.6784 2.71
      vertex -44.7981 -28.4284 2.71
      vertex -44.4284 -28.7981 2.71
    endloop
  endfacet
  facet normal 0 0 1
    outer loop
      vertex -45.5 -26.5 2.71
      vertex -44.7044 -26.2709 2.71
      vertex -44.75 -25.75 2.71
    endloop
  endfacet
  facet normal 0 0 1
    outer loop
      vertex -44.75 25.75 2.71
      vertex -45.5 26.5 2.71
      vertex -44.75 -25.75 2.71
    endloop
  endfacet
  facet normal 0 0 1
    outer loop
      vertex -45.5 26.5 2.71
      vertex -44.5691 26.7761 2.71
      vertex -45.4544 27.0209 2.71
    endloop
  endfacet
  facet normal 0 0 1
    outer loop
      vertex -45.5 -26.5 2.71
      vertex -44.75 -25.75 2.71
      vertex -45.5 26.5 2.71
    endloop
  endfacet
  facet normal 0 0 1
    outer loop
      vertex -44.5691 26.7761 2.71
      vertex -45.5 26.5 2.71
      vertex -44.7044 26.2709 2.71
    endloop
  endfacet
  facet normal 0 0 1
    outer loop
      vertex -44.5691 -26.7761 2.71
      vertex -45.5 -26.5 2.71
      vertex -45.4544 -27.0209 2.71
    endloop
  endfacet
  facet normal 0 0 1
    outer loop
      vertex -44.7044 26.2709 2.71
      vertex -45.5 26.5 2.71
      vertex -44.75 25.75 2.71
    endloop
  endfacet
  facet normal 0 0 1
    outer loop
      vertex -44.0481 -27.6784 2.71
      vertex -45.0981 -28 2.71
      vertex -44.7981 -28.4284 2.71
    endloop
  endfacet
  facet normal 0 0 1
    outer loop
      vertex -44.3481 -27.25 2.71
      vertex -45.3191 -27.5261 2.71
      vertex -45.0981 -28 2.71
    endloop
  endfacet
  facet normal 0 0 1
    outer loop
      vertex -44.5691 -26.7761 2.71
      vertex -45.4544 -27.0209 2.71
      vertex -45.3191 -27.5261 2.71
    endloop
  endfacet
  facet normal -0.99619 -0.0872073 0
    outer loop
      vertex 44.75 25.75 2.5
      vertex 44.7044 26.2709 2.71
      vertex 44.7044 26.2709 2.5
    endloop
  endfacet
  facet normal -0.99619 -0.0872073 0
    outer loop
      vertex 44.7044 26.2709 2.71
      vertex 44.75 25.75 2.5
      vertex 44.75 25.75 2.71
    endloop
  endfacet
  facet normal 0 -1 0
    outer loop
      vertex -41.75 28.75 2.5
      vertex 41.75 28.75 2.71
      vertex -41.75 28.75 2.71
    endloop
  endfacet
  facet normal 0 -1 -0
    outer loop
      vertex 41.75 28.75 2.71
      vertex -41.75 28.75 2.5
      vertex 41.75 28.75 2.5
    endloop
  endfacet
  facet normal 0.422645 0.906295 -0
    outer loop
      vertex -42.7761 -28.5691 2.5
      vertex -43.25 -28.3481 2.71
      vertex -42.7761 -28.5691 2.71
    endloop
  endfacet
  facet normal 0.422645 0.906295 0
    outer loop
      vertex -43.25 -28.3481 2.71
      vertex -42.7761 -28.5691 2.5
      vertex -43.25 -28.3481 2.5
    endloop
  endfacet
  facet normal -0.819124 -0.573616 0
    outer loop
      vertex 44.3481 27.25 2.5
      vertex 44.0481 27.6784 2.71
      vertex 44.0481 27.6784 2.5
    endloop
  endfacet
  facet normal -0.819124 -0.573616 0
    outer loop
      vertex 44.0481 27.6784 2.71
      vertex 44.3481 27.25 2.5
      vertex 44.3481 27.25 2.71
    endloop
  endfacet
  facet normal -0.906295 0.422645 0
    outer loop
      vertex 44.3481 -27.25 2.5
      vertex 44.5691 -26.7761 2.71
      vertex 44.5691 -26.7761 2.5
    endloop
  endfacet
  facet normal -0.906295 0.422645 0
    outer loop
      vertex 44.5691 -26.7761 2.71
      vertex 44.3481 -27.25 2.5
      vertex 44.3481 -27.25 2.71
    endloop
  endfacet
  facet normal -0.99619 0.0872073 0
    outer loop
      vertex 44.7044 -26.2709 2.5
      vertex 44.75 -25.75 2.71
      vertex 44.75 -25.75 2.5
    endloop
  endfacet
  facet normal -0.99619 0.0872073 0
    outer loop
      vertex 44.75 -25.75 2.71
      vertex 44.7044 -26.2709 2.5
      vertex 44.7044 -26.2709 2.71
    endloop
  endfacet
  facet normal -0.965958 0.258698 0
    outer loop
      vertex 44.5691 -26.7761 2.5
      vertex 44.7044 -26.2709 2.71
      vertex 44.7044 -26.2709 2.5
    endloop
  endfacet
  facet normal -0.965958 0.258698 0
    outer loop
      vertex 44.7044 -26.2709 2.71
      vertex 44.5691 -26.7761 2.5
      vertex 44.5691 -26.7761 2.71
    endloop
  endfacet
  facet normal 0.819124 0.573616 0
    outer loop
      vertex -44.0481 -27.6784 2.71
      vertex -44.3481 -27.25 2.5
      vertex -44.3481 -27.25 2.71
    endloop
  endfacet
  facet normal 0.819124 0.573616 0
    outer loop
      vertex -44.3481 -27.25 2.5
      vertex -44.0481 -27.6784 2.71
      vertex -44.0481 -27.6784 2.5
    endloop
  endfacet
  facet normal -0.422645 -0.906295 0
    outer loop
      vertex 42.7761 28.5691 2.5
      vertex 43.25 28.3481 2.71
      vertex 42.7761 28.5691 2.71
    endloop
  endfacet
  facet normal -0.422645 -0.906295 -0
    outer loop
      vertex 43.25 28.3481 2.71
      vertex 42.7761 28.5691 2.5
      vertex 43.25 28.3481 2.5
    endloop
  endfacet
  facet normal 0.0872073 0.99619 -0
    outer loop
      vertex -41.75 -28.75 2.5
      vertex -42.2709 -28.7044 2.71
      vertex -41.75 -28.75 2.71
    endloop
  endfacet
  facet normal 0.0872073 0.99619 0
    outer loop
      vertex -42.2709 -28.7044 2.71
      vertex -41.75 -28.75 2.5
      vertex -42.2709 -28.7044 2.5
    endloop
  endfacet
  facet normal -1 0 0
    outer loop
      vertex 44.75 -25.75 2.5
      vertex 44.75 25.75 2.71
      vertex 44.75 25.75 2.5
    endloop
  endfacet
  facet normal -1 -0 0
    outer loop
      vertex 44.75 25.75 2.71
      vertex 44.75 -25.75 2.5
      vertex 44.75 -25.75 2.71
    endloop
  endfacet
  facet normal -0.573616 -0.819124 0
    outer loop
      vertex 43.25 28.3481 2.5
      vertex 43.6784 28.0481 2.71
      vertex 43.25 28.3481 2.71
    endloop
  endfacet
  facet normal -0.573616 -0.819124 -0
    outer loop
      vertex 43.6784 28.0481 2.71
      vertex 43.25 28.3481 2.5
      vertex 43.6784 28.0481 2.5
    endloop
  endfacet
  facet normal 0.707107 0.707107 -0
    outer loop
      vertex -43.6784 -28.0481 2.5
      vertex -44.0481 -27.6784 2.71
      vertex -43.6784 -28.0481 2.71
    endloop
  endfacet
  facet normal 0.707107 0.707107 0
    outer loop
      vertex -44.0481 -27.6784 2.71
      vertex -43.6784 -28.0481 2.5
      vertex -44.0481 -27.6784 2.5
    endloop
  endfacet
  facet normal -0.258698 -0.965958 0
    outer loop
      vertex 42.2709 28.7044 2.5
      vertex 42.7761 28.5691 2.71
      vertex 42.2709 28.7044 2.71
    endloop
  endfacet
  facet normal -0.258698 -0.965958 -0
    outer loop
      vertex 42.7761 28.5691 2.71
      vertex 42.2709 28.7044 2.5
      vertex 42.7761 28.5691 2.5
    endloop
  endfacet
  facet normal -0.0872073 -0.99619 0
    outer loop
      vertex 41.75 28.75 2.5
      vertex 42.2709 28.7044 2.71
      vertex 41.75 28.75 2.71
    endloop
  endfacet
  facet normal -0.0872073 -0.99619 -0
    outer loop
      vertex 42.2709 28.7044 2.71
      vertex 41.75 28.75 2.5
      vertex 42.2709 28.7044 2.5
    endloop
  endfacet
  facet normal -0.422645 0.906295 0
    outer loop
      vertex 43.25 -28.3481 2.5
      vertex 42.7761 -28.5691 2.71
      vertex 43.25 -28.3481 2.71
    endloop
  endfacet
  facet normal -0.422645 0.906295 0
    outer loop
      vertex 42.7761 -28.5691 2.71
      vertex 43.25 -28.3481 2.5
      vertex 42.7761 -28.5691 2.5
    endloop
  endfacet
  facet normal 0.258698 -0.965958 0
    outer loop
      vertex -42.7761 28.5691 2.5
      vertex -42.2709 28.7044 2.71
      vertex -42.7761 28.5691 2.71
    endloop
  endfacet
  facet normal 0.258698 -0.965958 0
    outer loop
      vertex -42.2709 28.7044 2.71
      vertex -42.7761 28.5691 2.5
      vertex -42.2709 28.7044 2.5
    endloop
  endfacet
  facet normal -0.819124 0.573616 0
    outer loop
      vertex 44.0481 -27.6784 2.5
      vertex 44.3481 -27.25 2.71
      vertex 44.3481 -27.25 2.5
    endloop
  endfacet
  facet normal -0.819124 0.573616 0
    outer loop
      vertex 44.3481 -27.25 2.71
      vertex 44.0481 -27.6784 2.5
      vertex 44.0481 -27.6784 2.71
    endloop
  endfacet
  facet normal 0.422645 -0.906295 0
    outer loop
      vertex -43.25 28.3481 2.5
      vertex -42.7761 28.5691 2.71
      vertex -43.25 28.3481 2.71
    endloop
  endfacet
  facet normal 0.422645 -0.906295 0
    outer loop
      vertex -42.7761 28.5691 2.71
      vertex -43.25 28.3481 2.5
      vertex -42.7761 28.5691 2.5
    endloop
  endfacet
  facet normal -0.0872073 0.99619 0
    outer loop
      vertex 42.2709 -28.7044 2.5
      vertex 41.75 -28.75 2.71
      vertex 42.2709 -28.7044 2.71
    endloop
  endfacet
  facet normal -0.0872073 0.99619 0
    outer loop
      vertex 41.75 -28.75 2.71
      vertex 42.2709 -28.7044 2.5
      vertex 41.75 -28.75 2.5
    endloop
  endfacet
  facet normal 0.0872073 -0.99619 0
    outer loop
      vertex -42.2709 28.7044 2.5
      vertex -41.75 28.75 2.71
      vertex -42.2709 28.7044 2.71
    endloop
  endfacet
  facet normal 0.0872073 -0.99619 0
    outer loop
      vertex -41.75 28.75 2.71
      vertex -42.2709 28.7044 2.5
      vertex -41.75 28.75 2.5
    endloop
  endfacet
  facet normal 0.819124 -0.573616 0
    outer loop
      vertex -44.3481 27.25 2.71
      vertex -44.0481 27.6784 2.5
      vertex -44.0481 27.6784 2.71
    endloop
  endfacet
  facet normal 0.819124 -0.573616 0
    outer loop
      vertex -44.0481 27.6784 2.5
      vertex -44.3481 27.25 2.71
      vertex -44.3481 27.25 2.5
    endloop
  endfacet
  facet normal -0.707107 0.707107 0
    outer loop
      vertex 44.0481 -27.6784 2.5
      vertex 43.6784 -28.0481 2.71
      vertex 44.0481 -27.6784 2.71
    endloop
  endfacet
  facet normal -0.707107 0.707107 0
    outer loop
      vertex 43.6784 -28.0481 2.71
      vertex 44.0481 -27.6784 2.5
      vertex 43.6784 -28.0481 2.5
    endloop
  endfacet
  facet normal 1 -0 0
    outer loop
      vertex -44.75 -25.75 2.71
      vertex -44.75 25.75 2.5
      vertex -44.75 25.75 2.71
    endloop
  endfacet
  facet normal 1 0 0
    outer loop
      vertex -44.75 25.75 2.5
      vertex -44.75 -25.75 2.71
      vertex -44.75 -25.75 2.5
    endloop
  endfacet
  facet normal 0.906295 -0.422645 0
    outer loop
      vertex -44.5691 26.7761 2.71
      vertex -44.3481 27.25 2.5
      vertex -44.3481 27.25 2.71
    endloop
  endfacet
  facet normal 0.906295 -0.422645 0
    outer loop
      vertex -44.3481 27.25 2.5
      vertex -44.5691 26.7761 2.71
      vertex -44.5691 26.7761 2.5
    endloop
  endfacet
  facet normal 0.573616 -0.819124 0
    outer loop
      vertex -43.6784 28.0481 2.5
      vertex -43.25 28.3481 2.71
      vertex -43.6784 28.0481 2.71
    endloop
  endfacet
  facet normal 0.573616 -0.819124 0
    outer loop
      vertex -43.25 28.3481 2.71
      vertex -43.6784 28.0481 2.5
      vertex -43.25 28.3481 2.5
    endloop
  endfacet
  facet normal 0 1 -0
    outer loop
      vertex 41.75 -28.75 2.5
      vertex -41.75 -28.75 2.71
      vertex 41.75 -28.75 2.71
    endloop
  endfacet
  facet normal 0 1 0
    outer loop
      vertex -41.75 -28.75 2.71
      vertex 41.75 -28.75 2.5
      vertex -41.75 -28.75 2.5
    endloop
  endfacet
  facet normal -0.573616 0.819124 0
    outer loop
      vertex 43.6784 -28.0481 2.5
      vertex 43.25 -28.3481 2.71
      vertex 43.6784 -28.0481 2.71
    endloop
  endfacet
  facet normal -0.573616 0.819124 0
    outer loop
      vertex 43.25 -28.3481 2.71
      vertex 43.6784 -28.0481 2.5
      vertex 43.25 -28.3481 2.5
    endloop
  endfacet
  facet normal 0.99619 -0.0872073 0
    outer loop
      vertex -44.75 25.75 2.71
      vertex -44.7044 26.2709 2.5
      vertex -44.7044 26.2709 2.71
    endloop
  endfacet
  facet normal 0.99619 -0.0872073 0
    outer loop
      vertex -44.7044 26.2709 2.5
      vertex -44.75 25.75 2.71
      vertex -44.75 25.75 2.5
    endloop
  endfacet
  facet normal -0.258698 0.965958 0
    outer loop
      vertex 42.7761 -28.5691 2.5
      vertex 42.2709 -28.7044 2.71
      vertex 42.7761 -28.5691 2.71
    endloop
  endfacet
  facet normal -0.258698 0.965958 0
    outer loop
      vertex 42.2709 -28.7044 2.71
      vertex 42.7761 -28.5691 2.5
      vertex 42.2709 -28.7044 2.5
    endloop
  endfacet
  facet normal -0.965958 -0.258698 0
    outer loop
      vertex 44.7044 26.2709 2.5
      vertex 44.5691 26.7761 2.71
      vertex 44.5691 26.7761 2.5
    endloop
  endfacet
  facet normal -0.965958 -0.258698 0
    outer loop
      vertex 44.5691 26.7761 2.71
      vertex 44.7044 26.2709 2.5
      vertex 44.7044 26.2709 2.71
    endloop
  endfacet
  facet normal -0.906295 -0.422645 0
    outer loop
      vertex 44.5691 26.7761 2.5
      vertex 44.3481 27.25 2.71
      vertex 44.3481 27.25 2.5
    endloop
  endfacet
  facet normal -0.906295 -0.422645 0
    outer loop
      vertex 44.3481 27.25 2.71
      vertex 44.5691 26.7761 2.5
      vertex 44.5691 26.7761 2.71
    endloop
  endfacet
  facet normal 0.906295 0.422645 0
    outer loop
      vertex -44.3481 -27.25 2.71
      vertex -44.5691 -26.7761 2.5
      vertex -44.5691 -26.7761 2.71
    endloop
  endfacet
  facet normal 0.906295 0.422645 0
    outer loop
      vertex -44.5691 -26.7761 2.5
      vertex -44.3481 -27.25 2.71
      vertex -44.3481 -27.25 2.5
    endloop
  endfacet
  facet normal 0.258698 0.965958 -0
    outer loop
      vertex -42.2709 -28.7044 2.5
      vertex -42.7761 -28.5691 2.71
      vertex -42.2709 -28.7044 2.71
    endloop
  endfacet
  facet normal 0.258698 0.965958 0
    outer loop
      vertex -42.7761 -28.5691 2.71
      vertex -42.2709 -28.7044 2.5
      vertex -42.7761 -28.5691 2.5
    endloop
  endfacet
  facet normal 0.965958 0.258698 0
    outer loop
      vertex -44.5691 -26.7761 2.71
      vertex -44.7044 -26.2709 2.5
      vertex -44.7044 -26.2709 2.71
    endloop
  endfacet
  facet normal 0.965958 0.258698 0
    outer loop
      vertex -44.7044 -26.2709 2.5
      vertex -44.5691 -26.7761 2.71
      vertex -44.5691 -26.7761 2.5
    endloop
  endfacet
  facet normal 0.99619 0.0872073 0
    outer loop
      vertex -44.7044 -26.2709 2.71
      vertex -44.75 -25.75 2.5
      vertex -44.75 -25.75 2.71
    endloop
  endfacet
  facet normal 0.99619 0.0872073 0
    outer loop
      vertex -44.75 -25.75 2.5
      vertex -44.7044 -26.2709 2.71
      vertex -44.7044 -26.2709 2.5
    endloop
  endfacet
  facet normal 0.707107 -0.707107 0
    outer loop
      vertex -44.0481 27.6784 2.5
      vertex -43.6784 28.0481 2.71
      vertex -44.0481 27.6784 2.71
    endloop
  endfacet
  facet normal 0.707107 -0.707107 0
    outer loop
      vertex -43.6784 28.0481 2.71
      vertex -44.0481 27.6784 2.5
      vertex -43.6784 28.0481 2.5
    endloop
  endfacet
  facet normal 0.573616 0.819124 -0
    outer loop
      vertex -43.25 -28.3481 2.5
      vertex -43.6784 -28.0481 2.71
      vertex -43.25 -28.3481 2.71
    endloop
  endfacet
  facet normal 0.573616 0.819124 0
    outer loop
      vertex -43.6784 -28.0481 2.71
      vertex -43.25 -28.3481 2.5
      vertex -43.6784 -28.0481 2.5
    endloop
  endfacet
  facet normal -0.707107 -0.707107 0
    outer loop
      vertex 43.6784 28.0481 2.5
      vertex 44.0481 27.6784 2.71
      vertex 43.6784 28.0481 2.71
    endloop
  endfacet
  facet normal -0.707107 -0.707107 -0
    outer loop
      vertex 44.0481 27.6784 2.71
      vertex 43.6784 28.0481 2.5
      vertex 44.0481 27.6784 2.5
    endloop
  endfacet
  facet normal 0.965958 -0.258698 0
    outer loop
      vertex -44.7044 26.2709 2.71
      vertex -44.5691 26.7761 2.5
      vertex -44.5691 26.7761 2.71
    endloop
  endfacet
  facet normal 0.965958 -0.258698 0
    outer loop
      vertex -44.5691 26.7761 2.5
      vertex -44.7044 26.2709 2.71
      vertex -44.7044 26.2709 2.5
    endloop
  endfacet
  facet normal 0 0 -1
    outer loop
      vertex 2.88708 2.99525 2.5
      vertex 4.41156 4.11821 2.5
      vertex 4.41156 2.99525 2.5
    endloop
  endfacet
  facet normal -0 0 -1
    outer loop
      vertex 4.41156 4.11821 2.5
      vertex 2.88708 2.99525 2.5
      vertex 2.88708 4.11821 2.5
    endloop
  endfacet
  facet normal 0 0 -1
    outer loop
      vertex -4.38281 -3.9325 2.5
      vertex -2.78241 -1.2417 2.5
      vertex -2.78241 -3.9325 2.5
    endloop
  endfacet
  facet normal -0 0 -1
    outer loop
      vertex -2.78241 -1.2417 2.5
      vertex -4.38281 -3.9325 2.5
      vertex -2.78241 -0.0102539 2.5
    endloop
  endfacet
  facet normal 0 0 -1
    outer loop
      vertex -4.38281 3.71133 2.5
      vertex -2.78241 -0.0102539 2.5
      vertex -4.38281 -3.9325 2.5
    endloop
  endfacet
  facet normal 0 0 -1
    outer loop
      vertex 1.89133 1.00291 2.5
      vertex 0.279251 1.02885 2.5
      vertex 0.293579 1.26462 2.5
    endloop
  endfacet
  facet normal 0 0 -1
    outer loop
      vertex 0.605499 -0.924332 2.5
      vertex 0.236282 0.816315 2.5
      vertex 0.279251 1.02885 2.5
    endloop
  endfacet
  facet normal 0 0 -1
    outer loop
      vertex 0.605499 -0.924332 2.5
      vertex 0.164673 0.626984 2.5
      vertex 0.236282 0.816315 2.5
    endloop
  endfacet
  facet normal 0 0 -1
    outer loop
      vertex -0.219864 0.199799 2.5
      vertex 0.345428 -1.03859 2.5
      vertex 0.0664825 -1.12744 2.5
    endloop
  endfacet
  facet normal 0 0 -1
    outer loop
      vertex 0.605499 -0.924332 2.5
      vertex 0.0644073 0.460876 2.5
      vertex 0.164673 0.626984 2.5
    endloop
  endfacet
  facet normal 0 0 -1
    outer loop
      vertex 0.605499 -0.924332 2.5
      vertex -0.0644836 0.317978 2.5
      vertex 0.0644073 0.460876 2.5
    endloop
  endfacet
  facet normal 0 0 -1
    outer loop
      vertex 0.605499 -0.924332 2.5
      vertex -0.219864 0.199799 2.5
      vertex -0.0644836 0.317978 2.5
    endloop
  endfacet
  facet normal 0 0 -1
    outer loop
      vertex -0.399551 0.107895 2.5
      vertex 0.0664825 -1.12744 2.5
      vertex -0.231354 -1.19092 2.5
    endloop
  endfacet
  facet normal 0 0 -1
    outer loop
      vertex 0.0664825 -1.12744 2.5
      vertex -0.399551 0.107895 2.5
      vertex -0.219864 0.199799 2.5
    endloop
  endfacet
  facet normal 0 0 -1
    outer loop
      vertex -0.603531 0.0422516 2.5
      vertex -0.231354 -1.19092 2.5
      vertex -0.54808 -1.229 2.5
    endloop
  endfacet
  facet normal 0 0 -1
    outer loop
      vertex -0.231354 -1.19092 2.5
      vertex -0.603531 0.0422516 2.5
      vertex -0.399551 0.107895 2.5
    endloop
  endfacet
  facet normal 0 0 -1
    outer loop
      vertex -0.54808 -1.229 2.5
      vertex -0.831818 0.00286865 2.5
      vertex -0.603531 0.0422516 2.5
    endloop
  endfacet
  facet normal 0 0 -1
    outer loop
      vertex -0.883682 -1.2417 2.5
      vertex -0.831818 0.00286865 2.5
      vertex -0.54808 -1.229 2.5
    endloop
  endfacet
  facet normal 0 0 -1
    outer loop
      vertex -0.883682 -1.2417 2.5
      vertex -1.08441 -0.0102539 2.5
      vertex -0.831818 0.00286865 2.5
    endloop
  endfacet
  facet normal 0 0 -1
    outer loop
      vertex -2.78241 -1.2417 2.5
      vertex -1.08441 -0.0102539 2.5
      vertex -0.883682 -1.2417 2.5
    endloop
  endfacet
  facet normal -0 0 -1
    outer loop
      vertex -1.08441 -0.0102539 2.5
      vertex -2.78241 -1.2417 2.5
      vertex -2.78241 -0.0102539 2.5
    endloop
  endfacet
  facet normal 0 0 -1
    outer loop
      vertex 0.293579 1.26462 2.5
      vertex 1.90477 1.29173 2.5
      vertex 1.89133 1.00291 2.5
    endloop
  endfacet
  facet normal 0 0 -1
    outer loop
      vertex 0.279251 1.02885 2.5
      vertex 1.89133 1.00291 2.5
      vertex 1.85095 0.726685 2.5
    endloop
  endfacet
  facet normal -0 0 -1
    outer loop
      vertex 1.90477 1.29173 2.5
      vertex 0.293579 1.26462 2.5
      vertex 1.87515 1.73303 2.5
    endloop
  endfacet
  facet normal 0 0 -1
    outer loop
      vertex 0.279251 1.02885 2.5
      vertex 1.85095 0.726685 2.5
      vertex 1.78368 0.463043 2.5
    endloop
  endfacet
  facet normal 0 0 -1
    outer loop
      vertex 0.279251 1.02885 2.5
      vertex 1.78368 0.463043 2.5
      vertex 1.68948 0.211975 2.5
    endloop
  endfacet
  facet normal 0 0 -1
    outer loop
      vertex 0.236725 1.6982 2.5
      vertex 1.87515 1.73303 2.5
      vertex 0.293579 1.26462 2.5
    endloop
  endfacet
  facet normal 0 0 -1
    outer loop
      vertex 0.279251 1.02885 2.5
      vertex 1.68948 0.211975 2.5
      vertex 1.56837 -0.0264893 2.5
    endloop
  endfacet
  facet normal -0 0 -1
    outer loop
      vertex 1.87515 1.73303 2.5
      vertex 0.236725 1.6982 2.5
      vertex 1.78629 2.13243 2.5
    endloop
  endfacet
  facet normal 0 0 -1
    outer loop
      vertex 0.279251 1.02885 2.5
      vertex 1.56837 -0.0264893 2.5
      vertex 1.42224 -0.248154 2.5
    endloop
  endfacet
  facet normal 0 0 -1
    outer loop
      vertex 0.279251 1.02885 2.5
      vertex 1.42224 -0.248154 2.5
      vertex 1.25288 -0.448776 2.5
    endloop
  endfacet
  facet normal -0 0 -1
    outer loop
      vertex 1.78629 2.13243 2.5
      vertex 0.236725 1.6982 2.5
      vertex 1.63817 2.48996 2.5
    endloop
  endfacet
  facet normal 0 0 -1
    outer loop
      vertex 0.279251 1.02885 2.5
      vertex 1.25288 -0.448776 2.5
      vertex 1.0603 -0.628342 2.5
    endloop
  endfacet
  facet normal 0 0 -1
    outer loop
      vertex 0.279251 1.02885 2.5
      vertex 1.0603 -0.628342 2.5
      vertex 0.844513 -0.786865 2.5
    endloop
  endfacet
  facet normal -0 0 -1
    outer loop
      vertex 1.63817 2.48996 2.5
      vertex 0.236725 1.6982 2.5
      vertex 1.43082 2.80559 2.5
    endloop
  endfacet
  facet normal 0 0 -1
    outer loop
      vertex 0.279251 1.02885 2.5
      vertex 0.844513 -0.786865 2.5
      vertex 0.605499 -0.924332 2.5
    endloop
  endfacet
  facet normal 0 0 -1
    outer loop
      vertex 0.0661621 2.03543 2.5
      vertex 1.43082 2.80559 2.5
      vertex 0.236725 1.6982 2.5
    endloop
  endfacet
  facet normal 0 0 -1
    outer loop
      vertex -0.219864 0.199799 2.5
      vertex 0.605499 -0.924332 2.5
      vertex 0.345428 -1.03859 2.5
    endloop
  endfacet
  facet normal -0 0 -1
    outer loop
      vertex 1.43082 2.80559 2.5
      vertex 0.0661621 2.03543 2.5
      vertex 1.16422 3.07933 2.5
    endloop
  endfacet
  facet normal -0 0 -1
    outer loop
      vertex 1.16422 3.07933 2.5
      vertex 0.0661621 2.03543 2.5
      vertex 0.842743 3.30685 2.5
    endloop
  endfacet
  facet normal 0 0 -1
    outer loop
      vertex -0.218094 2.27631 2.5
      vertex 0.842743 3.30685 2.5
      vertex 0.0661621 2.03543 2.5
    endloop
  endfacet
  facet normal -0 0 -1
    outer loop
      vertex 0.842743 3.30685 2.5
      vertex -0.218094 2.27631 2.5
      vertex 0.470718 3.48381 2.5
    endloop
  endfacet
  facet normal -0 0 -1
    outer loop
      vertex 0.470718 3.48381 2.5
      vertex -0.218094 2.27631 2.5
      vertex 0.0481262 3.61021 2.5
    endloop
  endfacet
  facet normal 0 0 -1
    outer loop
      vertex -0.616074 2.42084 2.5
      vertex 0.0481262 3.61021 2.5
      vertex -0.218094 2.27631 2.5
    endloop
  endfacet
  facet normal -0 0 -1
    outer loop
      vertex 0.0481262 3.61021 2.5
      vertex -0.616074 2.42084 2.5
      vertex -0.425018 3.68605 2.5
    endloop
  endfacet
  facet normal 0 0 -1
    outer loop
      vertex -0.616074 2.42084 2.5
      vertex -0.94873 3.71133 2.5
      vertex -0.425018 3.68605 2.5
    endloop
  endfacet
  facet normal 0 0 -1
    outer loop
      vertex -1.12776 2.46901 2.5
      vertex -0.94873 3.71133 2.5
      vertex -0.616074 2.42084 2.5
    endloop
  endfacet
  facet normal 0 0 -1
    outer loop
      vertex -2.78241 2.46901 2.5
      vertex -0.94873 3.71133 2.5
      vertex -1.12776 2.46901 2.5
    endloop
  endfacet
  facet normal 0 0 -1
    outer loop
      vertex -2.78241 2.46901 2.5
      vertex -4.38281 3.71133 2.5
      vertex -0.94873 3.71133 2.5
    endloop
  endfacet
  facet normal 0 0 -1
    outer loop
      vertex -2.78241 -0.0102539 2.5
      vertex -4.38281 3.71133 2.5
      vertex -2.78241 2.46901 2.5
    endloop
  endfacet
  facet normal 0 0 -1
    outer loop
      vertex 2.88708 -3.9325 2.5
      vertex 4.41156 1.93733 2.5
      vertex 4.41156 -3.9325 2.5
    endloop
  endfacet
  facet normal -0 0 -1
    outer loop
      vertex 4.41156 1.93733 2.5
      vertex 2.88708 -3.9325 2.5
      vertex 2.88708 1.93733 2.5
    endloop
  endfacet
  facet normal -0 0 1
    outer loop
      vertex 2.88708 4.11821 2.7
      vertex 4.41156 2.99525 2.7
      vertex 4.41156 4.11821 2.7
    endloop
  endfacet
  facet normal 0 0 1
    outer loop
      vertex 4.41156 2.99525 2.7
      vertex 2.88708 4.11821 2.7
      vertex 2.88708 2.99525 2.7
    endloop
  endfacet
  facet normal 0 0 1
    outer loop
      vertex 0.293579 1.26462 2.7
      vertex 1.90477 1.29173 2.7
      vertex 1.87515 1.73303 2.7
    endloop
  endfacet
  facet normal 0 0 1
    outer loop
      vertex 1.90477 1.29173 2.7
      vertex 0.293579 1.26462 2.7
      vertex 1.89133 1.00291 2.7
    endloop
  endfacet
  facet normal 0 0 1
    outer loop
      vertex 0.236725 1.6982 2.7
      vertex 1.87515 1.73303 2.7
      vertex 1.78629 2.13243 2.7
    endloop
  endfacet
  facet normal -0 0 1
    outer loop
      vertex 0.279251 1.02885 2.7
      vertex 1.89133 1.00291 2.7
      vertex 0.293579 1.26462 2.7
    endloop
  endfacet
  facet normal 0 0 1
    outer loop
      vertex 1.89133 1.00291 2.7
      vertex 0.279251 1.02885 2.7
      vertex 1.85095 0.726685 2.7
    endloop
  endfacet
  facet normal 0 0 1
    outer loop
      vertex 0.236725 1.6982 2.7
      vertex 1.78629 2.13243 2.7
      vertex 1.63817 2.48996 2.7
    endloop
  endfacet
  facet normal 0 0 1
    outer loop
      vertex 1.85095 0.726685 2.7
      vertex 0.279251 1.02885 2.7
      vertex 1.78368 0.463043 2.7
    endloop
  endfacet
  facet normal 0 0 1
    outer loop
      vertex 0.236725 1.6982 2.7
      vertex 1.63817 2.48996 2.7
      vertex 1.43082 2.80559 2.7
    endloop
  endfacet
  facet normal -0 0 1
    outer loop
      vertex 0.236282 0.816315 2.7
      vertex 1.78368 0.463043 2.7
      vertex 0.279251 1.02885 2.7
    endloop
  endfacet
  facet normal 0 0 1
    outer loop
      vertex 1.78368 0.463043 2.7
      vertex 0.236282 0.816315 2.7
      vertex 1.68948 0.211975 2.7
    endloop
  endfacet
  facet normal 0 0 1
    outer loop
      vertex 0.0661621 2.03543 2.7
      vertex 1.43082 2.80559 2.7
      vertex 1.16422 3.07933 2.7
    endloop
  endfacet
  facet normal 0 0 1
    outer loop
      vertex 1.68948 0.211975 2.7
      vertex 0.236282 0.816315 2.7
      vertex 1.56837 -0.0264893 2.7
    endloop
  endfacet
  facet normal -0 0 1
    outer loop
      vertex 0.164673 0.626984 2.7
      vertex 1.56837 -0.0264893 2.7
      vertex 0.236282 0.816315 2.7
    endloop
  endfacet
  facet normal 0 0 1
    outer loop
      vertex 0.0661621 2.03543 2.7
      vertex 1.16422 3.07933 2.7
      vertex 0.842743 3.30685 2.7
    endloop
  endfacet
  facet normal 0 0 1
    outer loop
      vertex 1.56837 -0.0264893 2.7
      vertex 0.164673 0.626984 2.7
      vertex 1.42224 -0.248154 2.7
    endloop
  endfacet
  facet normal 0 0 1
    outer loop
      vertex -0.218094 2.27631 2.7
      vertex 0.842743 3.30685 2.7
      vertex 0.470718 3.48381 2.7
    endloop
  endfacet
  facet normal -0 0 1
    outer loop
      vertex 0.0644073 0.460876 2.7
      vertex 1.42224 -0.248154 2.7
      vertex 0.164673 0.626984 2.7
    endloop
  endfacet
  facet normal 0 0 1
    outer loop
      vertex 1.42224 -0.248154 2.7
      vertex 0.0644073 0.460876 2.7
      vertex 1.25288 -0.448776 2.7
    endloop
  endfacet
  facet normal 0 0 1
    outer loop
      vertex 1.87515 1.73303 2.7
      vertex 0.236725 1.6982 2.7
      vertex 0.293579 1.26462 2.7
    endloop
  endfacet
  facet normal 0 0 1
    outer loop
      vertex 1.43082 2.80559 2.7
      vertex 0.0661621 2.03543 2.7
      vertex 0.236725 1.6982 2.7
    endloop
  endfacet
  facet normal 0 0 1
    outer loop
      vertex -0.218094 2.27631 2.7
      vertex 0.470718 3.48381 2.7
      vertex 0.0481262 3.61021 2.7
    endloop
  endfacet
  facet normal 0 0 1
    outer loop
      vertex 0.842743 3.30685 2.7
      vertex -0.218094 2.27631 2.7
      vertex 0.0661621 2.03543 2.7
    endloop
  endfacet
  facet normal 0 0 1
    outer loop
      vertex -0.616074 2.42084 2.7
      vertex 0.0481262 3.61021 2.7
      vertex -0.425018 3.68605 2.7
    endloop
  endfacet
  facet normal 0 0 1
    outer loop
      vertex 0.0481262 3.61021 2.7
      vertex -0.616074 2.42084 2.7
      vertex -0.218094 2.27631 2.7
    endloop
  endfacet
  facet normal 0 0 1
    outer loop
      vertex -0.94873 3.71133 2.7
      vertex -0.616074 2.42084 2.7
      vertex -0.425018 3.68605 2.7
    endloop
  endfacet
  facet normal 0 0 1
    outer loop
      vertex -0.94873 3.71133 2.7
      vertex -1.12776 2.46901 2.7
      vertex -0.616074 2.42084 2.7
    endloop
  endfacet
  facet normal 0 0 1
    outer loop
      vertex -0.94873 3.71133 2.7
      vertex -2.78241 2.46901 2.7
      vertex -1.12776 2.46901 2.7
    endloop
  endfacet
  facet normal 0 0 1
    outer loop
      vertex -4.38281 3.71133 2.7
      vertex -2.78241 -0.0102539 2.7
      vertex -2.78241 2.46901 2.7
    endloop
  endfacet
  facet normal 0 0 1
    outer loop
      vertex -4.38281 -3.9325 2.7
      vertex -2.78241 -0.0102539 2.7
      vertex -4.38281 3.71133 2.7
    endloop
  endfacet
  facet normal -0 0 1
    outer loop
      vertex -4.38281 3.71133 2.7
      vertex -2.78241 2.46901 2.7
      vertex -0.94873 3.71133 2.7
    endloop
  endfacet
  facet normal 0 0 1
    outer loop
      vertex -2.78241 -0.0102539 2.7
      vertex -4.38281 -3.9325 2.7
      vertex -2.78241 -1.2417 2.7
    endloop
  endfacet
  facet normal 0 0 1
    outer loop
      vertex -2.78241 -1.2417 2.7
      vertex -4.38281 -3.9325 2.7
      vertex -2.78241 -3.9325 2.7
    endloop
  endfacet
  facet normal 0 0 1
    outer loop
      vertex 1.25288 -0.448776 2.7
      vertex 0.0644073 0.460876 2.7
      vertex 1.0603 -0.628342 2.7
    endloop
  endfacet
  facet normal -0 0 1
    outer loop
      vertex -0.0644836 0.317978 2.7
      vertex 1.0603 -0.628342 2.7
      vertex 0.0644073 0.460876 2.7
    endloop
  endfacet
  facet normal 0 0 1
    outer loop
      vertex 1.0603 -0.628342 2.7
      vertex -0.0644836 0.317978 2.7
      vertex 0.844513 -0.786865 2.7
    endloop
  endfacet
  facet normal 0 0 1
    outer loop
      vertex 0.844513 -0.786865 2.7
      vertex -0.0644836 0.317978 2.7
      vertex 0.605499 -0.924332 2.7
    endloop
  endfacet
  facet normal -0 0 1
    outer loop
      vertex -0.219864 0.199799 2.7
      vertex 0.605499 -0.924332 2.7
      vertex -0.0644836 0.317978 2.7
    endloop
  endfacet
  facet normal 0 0 1
    outer loop
      vertex 0.605499 -0.924332 2.7
      vertex -0.219864 0.199799 2.7
      vertex 0.345428 -1.03859 2.7
    endloop
  endfacet
  facet normal 0 0 1
    outer loop
      vertex 0.345428 -1.03859 2.7
      vertex -0.219864 0.199799 2.7
      vertex 0.0664825 -1.12744 2.7
    endloop
  endfacet
  facet normal -0 0 1
    outer loop
      vertex -0.399551 0.107895 2.7
      vertex 0.0664825 -1.12744 2.7
      vertex -0.219864 0.199799 2.7
    endloop
  endfacet
  facet normal 0 0 1
    outer loop
      vertex 0.0664825 -1.12744 2.7
      vertex -0.399551 0.107895 2.7
      vertex -0.231354 -1.19092 2.7
    endloop
  endfacet
  facet normal -0 0 1
    outer loop
      vertex -0.603531 0.0422516 2.7
      vertex -0.231354 -1.19092 2.7
      vertex -0.399551 0.107895 2.7
    endloop
  endfacet
  facet normal 0 0 1
    outer loop
      vertex -0.231354 -1.19092 2.7
      vertex -0.603531 0.0422516 2.7
      vertex -0.54808 -1.229 2.7
    endloop
  endfacet
  facet normal -0 0 1
    outer loop
      vertex -0.831818 0.00286865 2.7
      vertex -0.54808 -1.229 2.7
      vertex -0.603531 0.0422516 2.7
    endloop
  endfacet
  facet normal 0 0 1
    outer loop
      vertex -0.831818 0.00286865 2.7
      vertex -0.883682 -1.2417 2.7
      vertex -0.54808 -1.229 2.7
    endloop
  endfacet
  facet normal -0 0 1
    outer loop
      vertex -1.08441 -0.0102539 2.7
      vertex -0.883682 -1.2417 2.7
      vertex -0.831818 0.00286865 2.7
    endloop
  endfacet
  facet normal 0 0 1
    outer loop
      vertex -2.78241 -1.2417 2.7
      vertex -1.08441 -0.0102539 2.7
      vertex -2.78241 -0.0102539 2.7
    endloop
  endfacet
  facet normal 0 0 1
    outer loop
      vertex -1.08441 -0.0102539 2.7
      vertex -2.78241 -1.2417 2.7
      vertex -0.883682 -1.2417 2.7
    endloop
  endfacet
  facet normal -0 0 1
    outer loop
      vertex 2.88708 1.93733 2.7
      vertex 4.41156 -3.9325 2.7
      vertex 4.41156 1.93733 2.7
    endloop
  endfacet
  facet normal 0 0 1
    outer loop
      vertex 4.41156 -3.9325 2.7
      vertex 2.88708 1.93733 2.7
      vertex 2.88708 -3.9325 2.7
    endloop
  endfacet
  facet normal 0 1 -0
    outer loop
      vertex 4.41156 4.11821 2.5
      vertex 2.88708 4.11821 2.7
      vertex 4.41156 4.11821 2.7
    endloop
  endfacet
  facet normal 0 1 0
    outer loop
      vertex 2.88708 4.11821 2.7
      vertex 4.41156 4.11821 2.5
      vertex 2.88708 4.11821 2.5
    endloop
  endfacet
  facet normal -1 0 0
    outer loop
      vertex 2.88708 2.99525 2.5
      vertex 2.88708 4.11821 2.7
      vertex 2.88708 4.11821 2.5
    endloop
  endfacet
  facet normal -1 -0 0
    outer loop
      vertex 2.88708 4.11821 2.7
      vertex 2.88708 2.99525 2.5
      vertex 2.88708 2.99525 2.7
    endloop
  endfacet
  facet normal 0 -1 0
    outer loop
      vertex 2.88708 2.99525 2.5
      vertex 4.41156 2.99525 2.7
      vertex 2.88708 2.99525 2.7
    endloop
  endfacet
  facet normal 0 -1 -0
    outer loop
      vertex 4.41156 2.99525 2.7
      vertex 2.88708 2.99525 2.5
      vertex 4.41156 2.99525 2.5
    endloop
  endfacet
  facet normal 1 -0 0
    outer loop
      vertex 4.41156 2.99525 2.7
      vertex 4.41156 4.11821 2.5
      vertex 4.41156 4.11821 2.7
    endloop
  endfacet
  facet normal 1 0 0
    outer loop
      vertex 4.41156 4.11821 2.5
      vertex 4.41156 2.99525 2.7
      vertex 4.41156 2.99525 2.5
    endloop
  endfacet
  facet normal 0 -1 0
    outer loop
      vertex -2.78241 -1.2417 2.5
      vertex -0.883682 -1.2417 2.7
      vertex -2.78241 -1.2417 2.7
    endloop
  endfacet
  facet normal 0 -1 -0
    outer loop
      vertex -0.883682 -1.2417 2.7
      vertex -2.78241 -1.2417 2.5
      vertex -0.883682 -1.2417 2.5
    endloop
  endfacet
  facet normal 0.0378154 -0.999285 0
    outer loop
      vertex -0.883682 -1.2417 2.5
      vertex -0.54808 -1.229 2.7
      vertex -0.883682 -1.2417 2.7
    endloop
  endfacet
  facet normal 0.0378154 -0.999285 0
    outer loop
      vertex -0.54808 -1.229 2.7
      vertex -0.883682 -1.2417 2.5
      vertex -0.54808 -1.229 2.5
    endloop
  endfacet
  facet normal 0.11937 -0.99285 0
    outer loop
      vertex -0.54808 -1.229 2.5
      vertex -0.231354 -1.19092 2.7
      vertex -0.54808 -1.229 2.7
    endloop
  endfacet
  facet normal 0.11937 -0.99285 0
    outer loop
      vertex -0.231354 -1.19092 2.7
      vertex -0.54808 -1.229 2.5
      vertex -0.231354 -1.19092 2.5
    endloop
  endfacet
  facet normal 0.208455 -0.978032 0
    outer loop
      vertex -0.231354 -1.19092 2.5
      vertex 0.0664825 -1.12744 2.7
      vertex -0.231354 -1.19092 2.7
    endloop
  endfacet
  facet normal 0.208455 -0.978032 0
    outer loop
      vertex 0.0664825 -1.12744 2.7
      vertex -0.231354 -1.19092 2.5
      vertex 0.0664825 -1.12744 2.5
    endloop
  endfacet
  facet normal 0.303497 -0.952832 0
    outer loop
      vertex 0.0664825 -1.12744 2.5
      vertex 0.345428 -1.03859 2.7
      vertex 0.0664825 -1.12744 2.7
    endloop
  endfacet
  facet normal 0.303497 -0.952832 0
    outer loop
      vertex 0.345428 -1.03859 2.7
      vertex 0.0664825 -1.12744 2.5
      vertex 0.345428 -1.03859 2.5
    endloop
  endfacet
  facet normal 0.402228 -0.91554 0
    outer loop
      vertex 0.345428 -1.03859 2.5
      vertex 0.605499 -0.924332 2.7
      vertex 0.345428 -1.03859 2.7
    endloop
  endfacet
  facet normal 0.402228 -0.91554 0
    outer loop
      vertex 0.605499 -0.924332 2.7
      vertex 0.345428 -1.03859 2.5
      vertex 0.605499 -0.924332 2.5
    endloop
  endfacet
  facet normal 0.498564 -0.866853 0
    outer loop
      vertex 0.605499 -0.924332 2.5
      vertex 0.844513 -0.786865 2.7
      vertex 0.605499 -0.924332 2.7
    endloop
  endfacet
  facet normal 0.498564 -0.866853 0
    outer loop
      vertex 0.844513 -0.786865 2.7
      vertex 0.605499 -0.924332 2.5
      vertex 0.844513 -0.786865 2.5
    endloop
  endfacet
  facet normal 0.592042 -0.805907 0
    outer loop
      vertex 0.844513 -0.786865 2.5
      vertex 1.0603 -0.628342 2.7
      vertex 0.844513 -0.786865 2.7
    endloop
  endfacet
  facet normal 0.592042 -0.805907 0
    outer loop
      vertex 1.0603 -0.628342 2.7
      vertex 0.844513 -0.786865 2.5
      vertex 1.0603 -0.628342 2.5
    endloop
  endfacet
  facet normal 0.681962 -0.731387 0
    outer loop
      vertex 1.0603 -0.628342 2.5
      vertex 1.25288 -0.448776 2.7
      vertex 1.0603 -0.628342 2.7
    endloop
  endfacet
  facet normal 0.681962 -0.731387 0
    outer loop
      vertex 1.25288 -0.448776 2.7
      vertex 1.0603 -0.628342 2.5
      vertex 1.25288 -0.448776 2.5
    endloop
  endfacet
  facet normal 0.764132 -0.64506 0
    outer loop
      vertex 1.25288 -0.448776 2.7
      vertex 1.42224 -0.248154 2.5
      vertex 1.42224 -0.248154 2.7
    endloop
  endfacet
  facet normal 0.764132 -0.64506 0
    outer loop
      vertex 1.42224 -0.248154 2.5
      vertex 1.25288 -0.448776 2.7
      vertex 1.25288 -0.448776 2.5
    endloop
  endfacet
  facet normal 0.834901 -0.5504 0
    outer loop
      vertex 1.42224 -0.248154 2.7
      vertex 1.56837 -0.0264893 2.5
      vertex 1.56837 -0.0264893 2.7
    endloop
  endfacet
  facet normal 0.834901 -0.5504 0
    outer loop
      vertex 1.56837 -0.0264893 2.5
      vertex 1.42224 -0.248154 2.7
      vertex 1.42224 -0.248154 2.5
    endloop
  endfacet
  facet normal 0.891601 -0.452822 0
    outer loop
      vertex 1.56837 -0.0264893 2.7
      vertex 1.68948 0.211975 2.5
      vertex 1.68948 0.211975 2.7
    endloop
  endfacet
  facet normal 0.891601 -0.452822 0
    outer loop
      vertex 1.68948 0.211975 2.5
      vertex 1.56837 -0.0264893 2.7
      vertex 1.56837 -0.0264893 2.5
    endloop
  endfacet
  facet normal 0.936268 -0.351285 0
    outer loop
      vertex 1.68948 0.211975 2.7
      vertex 1.78368 0.463043 2.5
      vertex 1.78368 0.463043 2.7
    endloop
  endfacet
  facet normal 0.936268 -0.351285 0
    outer loop
      vertex 1.78368 0.463043 2.5
      vertex 1.68948 0.211975 2.7
      vertex 1.68948 0.211975 2.5
    endloop
  endfacet
  facet normal 0.968955 -0.247235 0
    outer loop
      vertex 1.78368 0.463043 2.7
      vertex 1.85095 0.726685 2.5
      vertex 1.85095 0.726685 2.7
    endloop
  endfacet
  facet normal 0.968955 -0.247235 0
    outer loop
      vertex 1.85095 0.726685 2.5
      vertex 1.78368 0.463043 2.7
      vertex 1.78368 0.463043 2.5
    endloop
  endfacet
  facet normal 0.989483 -0.144648 0
    outer loop
      vertex 1.85095 0.726685 2.7
      vertex 1.89133 1.00291 2.5
      vertex 1.89133 1.00291 2.7
    endloop
  endfacet
  facet normal 0.989483 -0.144648 0
    outer loop
      vertex 1.89133 1.00291 2.5
      vertex 1.85095 0.726685 2.7
      vertex 1.85095 0.726685 2.5
    endloop
  endfacet
  facet normal 0.998919 -0.0464839 0
    outer loop
      vertex 1.89133 1.00291 2.7
      vertex 1.90477 1.29173 2.5
      vertex 1.90477 1.29173 2.7
    endloop
  endfacet
  facet normal 0.998919 -0.0464839 0
    outer loop
      vertex 1.90477 1.29173 2.5
      vertex 1.89133 1.00291 2.7
      vertex 1.89133 1.00291 2.5
    endloop
  endfacet
  facet normal 0.997755 0.0669692 0
    outer loop
      vertex 1.90477 1.29173 2.7
      vertex 1.87515 1.73303 2.5
      vertex 1.87515 1.73303 2.7
    endloop
  endfacet
  facet normal 0.997755 0.0669692 0
    outer loop
      vertex 1.87515 1.73303 2.5
      vertex 1.90477 1.29173 2.7
      vertex 1.90477 1.29173 2.5
    endloop
  endfacet
  facet normal 0.976133 0.217174 0
    outer loop
      vertex 1.87515 1.73303 2.7
      vertex 1.78629 2.13243 2.5
      vertex 1.78629 2.13243 2.7
    endloop
  endfacet
  facet normal 0.976133 0.217174 0
    outer loop
      vertex 1.78629 2.13243 2.5
      vertex 1.87515 1.73303 2.7
      vertex 1.87515 1.73303 2.5
    endloop
  endfacet
  facet normal 0.923856 0.382741 0
    outer loop
      vertex 1.78629 2.13243 2.7
      vertex 1.63817 2.48996 2.5
      vertex 1.63817 2.48996 2.7
    endloop
  endfacet
  facet normal 0.923856 0.382741 0
    outer loop
      vertex 1.63817 2.48996 2.5
      vertex 1.78629 2.13243 2.7
      vertex 1.78629 2.13243 2.5
    endloop
  endfacet
  facet normal 0.835783 0.54906 0
    outer loop
      vertex 1.63817 2.48996 2.7
      vertex 1.43082 2.80559 2.5
      vertex 1.43082 2.80559 2.7
    endloop
  endfacet
  facet normal 0.835783 0.54906 0
    outer loop
      vertex 1.43082 2.80559 2.5
      vertex 1.63817 2.48996 2.7
      vertex 1.63817 2.48996 2.5
    endloop
  endfacet
  facet normal 0.716388 0.697702 0
    outer loop
      vertex 1.43082 2.80559 2.7
      vertex 1.16422 3.07933 2.5
      vertex 1.16422 3.07933 2.7
    endloop
  endfacet
  facet normal 0.716388 0.697702 0
    outer loop
      vertex 1.16422 3.07933 2.5
      vertex 1.43082 2.80559 2.7
      vertex 1.43082 2.80559 2.5
    endloop
  endfacet
  facet normal 0.577691 0.816255 -0
    outer loop
      vertex 1.16422 3.07933 2.5
      vertex 0.842743 3.30685 2.7
      vertex 1.16422 3.07933 2.7
    endloop
  endfacet
  facet normal 0.577691 0.816255 0
    outer loop
      vertex 0.842743 3.30685 2.7
      vertex 1.16422 3.07933 2.5
      vertex 0.842743 3.30685 2.5
    endloop
  endfacet
  facet normal 0.429548 0.903044 -0
    outer loop
      vertex 0.842743 3.30685 2.5
      vertex 0.470718 3.48381 2.7
      vertex 0.842743 3.30685 2.7
    endloop
  endfacet
  facet normal 0.429548 0.903044 0
    outer loop
      vertex 0.470718 3.48381 2.7
      vertex 0.842743 3.30685 2.5
      vertex 0.470718 3.48381 2.5
    endloop
  endfacet
  facet normal 0.286563 0.958062 -0
    outer loop
      vertex 0.470718 3.48381 2.5
      vertex 0.0481262 3.61021 2.7
      vertex 0.470718 3.48381 2.7
    endloop
  endfacet
  facet normal 0.286563 0.958062 0
    outer loop
      vertex 0.0481262 3.61021 2.7
      vertex 0.470718 3.48381 2.5
      vertex 0.0481262 3.61021 2.5
    endloop
  endfacet
  facet normal 0.158269 0.987396 -0
    outer loop
      vertex 0.0481262 3.61021 2.5
      vertex -0.425018 3.68605 2.7
      vertex 0.0481262 3.61021 2.7
    endloop
  endfacet
  facet normal 0.158269 0.987396 0
    outer loop
      vertex -0.425018 3.68605 2.7
      vertex 0.0481262 3.61021 2.5
      vertex -0.425018 3.68605 2.5
    endloop
  endfacet
  facet normal 0.0482147 0.998837 -0
    outer loop
      vertex -0.425018 3.68605 2.5
      vertex -0.94873 3.71133 2.7
      vertex -0.425018 3.68605 2.7
    endloop
  endfacet
  facet normal 0.0482147 0.998837 0
    outer loop
      vertex -0.94873 3.71133 2.7
      vertex -0.425018 3.68605 2.5
      vertex -0.94873 3.71133 2.5
    endloop
  endfacet
  facet normal 0 1 -0
    outer loop
      vertex -0.94873 3.71133 2.5
      vertex -4.38281 3.71133 2.7
      vertex -0.94873 3.71133 2.7
    endloop
  endfacet
  facet normal 0 1 0
    outer loop
      vertex -4.38281 3.71133 2.7
      vertex -0.94873 3.71133 2.5
      vertex -4.38281 3.71133 2.5
    endloop
  endfacet
  facet normal -1 0 0
    outer loop
      vertex -4.38281 -3.9325 2.5
      vertex -4.38281 3.71133 2.7
      vertex -4.38281 3.71133 2.5
    endloop
  endfacet
  facet normal -1 -0 0
    outer loop
      vertex -4.38281 3.71133 2.7
      vertex -4.38281 -3.9325 2.5
      vertex -4.38281 -3.9325 2.7
    endloop
  endfacet
  facet normal 0 -1 0
    outer loop
      vertex -4.38281 -3.9325 2.5
      vertex -2.78241 -3.9325 2.7
      vertex -4.38281 -3.9325 2.7
    endloop
  endfacet
  facet normal 0 -1 -0
    outer loop
      vertex -2.78241 -3.9325 2.7
      vertex -4.38281 -3.9325 2.5
      vertex -2.78241 -3.9325 2.5
    endloop
  endfacet
  facet normal 1 -0 0
    outer loop
      vertex -2.78241 -3.9325 2.7
      vertex -2.78241 -1.2417 2.5
      vertex -2.78241 -1.2417 2.7
    endloop
  endfacet
  facet normal 1 0 0
    outer loop
      vertex -2.78241 -1.2417 2.5
      vertex -2.78241 -3.9325 2.7
      vertex -2.78241 -3.9325 2.5
    endloop
  endfacet
  facet normal 1 -0 0
    outer loop
      vertex -2.78241 -0.0102539 2.7
      vertex -2.78241 2.46901 2.5
      vertex -2.78241 2.46901 2.7
    endloop
  endfacet
  facet normal 1 0 0
    outer loop
      vertex -2.78241 2.46901 2.5
      vertex -2.78241 -0.0102539 2.7
      vertex -2.78241 -0.0102539 2.5
    endloop
  endfacet
  facet normal 0 -1 0
    outer loop
      vertex -2.78241 2.46901 2.5
      vertex -1.12776 2.46901 2.7
      vertex -2.78241 2.46901 2.7
    endloop
  endfacet
  facet normal 0 -1 -0
    outer loop
      vertex -1.12776 2.46901 2.7
      vertex -2.78241 2.46901 2.5
      vertex -1.12776 2.46901 2.5
    endloop
  endfacet
  facet normal -0.0937254 -0.995598 0
    outer loop
      vertex -1.12776 2.46901 2.5
      vertex -0.616074 2.42084 2.7
      vertex -1.12776 2.46901 2.7
    endloop
  endfacet
  facet normal -0.0937254 -0.995598 -0
    outer loop
      vertex -0.616074 2.42084 2.7
      vertex -1.12776 2.46901 2.5
      vertex -0.616074 2.42084 2.5
    endloop
  endfacet
  facet normal -0.341347 -0.939937 0
    outer loop
      vertex -0.616074 2.42084 2.5
      vertex -0.218094 2.27631 2.7
      vertex -0.616074 2.42084 2.7
    endloop
  endfacet
  facet normal -0.341347 -0.939937 -0
    outer loop
      vertex -0.218094 2.27631 2.7
      vertex -0.616074 2.42084 2.5
      vertex -0.218094 2.27631 2.5
    endloop
  endfacet
  facet normal -0.646498 -0.762915 0
    outer loop
      vertex -0.218094 2.27631 2.5
      vertex 0.0661621 2.03543 2.7
      vertex -0.218094 2.27631 2.7
    endloop
  endfacet
  facet normal -0.646498 -0.762915 -0
    outer loop
      vertex 0.0661621 2.03543 2.7
      vertex -0.218094 2.27631 2.5
      vertex 0.0661621 2.03543 2.5
    endloop
  endfacet
  facet normal -0.892356 -0.451332 0
    outer loop
      vertex 0.236725 1.6982 2.5
      vertex 0.0661621 2.03543 2.7
      vertex 0.0661621 2.03543 2.5
    endloop
  endfacet
  facet normal -0.892356 -0.451332 0
    outer loop
      vertex 0.0661621 2.03543 2.7
      vertex 0.236725 1.6982 2.5
      vertex 0.236725 1.6982 2.7
    endloop
  endfacet
  facet normal -0.991512 -0.130014 0
    outer loop
      vertex 0.293579 1.26462 2.5
      vertex 0.236725 1.6982 2.7
      vertex 0.236725 1.6982 2.5
    endloop
  endfacet
  facet normal -0.991512 -0.130014 0
    outer loop
      vertex 0.236725 1.6982 2.7
      vertex 0.293579 1.26462 2.5
      vertex 0.293579 1.26462 2.7
    endloop
  endfacet
  facet normal -0.998159 0.0606592 0
    outer loop
      vertex 0.279251 1.02885 2.5
      vertex 0.293579 1.26462 2.7
      vertex 0.293579 1.26462 2.5
    endloop
  endfacet
  facet normal -0.998159 0.0606592 0
    outer loop
      vertex 0.293579 1.26462 2.7
      vertex 0.279251 1.02885 2.5
      vertex 0.279251 1.02885 2.7
    endloop
  endfacet
  facet normal -0.980169 0.198164 0
    outer loop
      vertex 0.236282 0.816315 2.5
      vertex 0.279251 1.02885 2.7
      vertex 0.279251 1.02885 2.5
    endloop
  endfacet
  facet normal -0.980169 0.198164 0
    outer loop
      vertex 0.279251 1.02885 2.7
      vertex 0.236282 0.816315 2.5
      vertex 0.236282 0.816315 2.7
    endloop
  endfacet
  facet normal -0.935335 0.353764 0
    outer loop
      vertex 0.164673 0.626984 2.5
      vertex 0.236282 0.816315 2.7
      vertex 0.236282 0.816315 2.5
    endloop
  endfacet
  facet normal -0.935335 0.353764 0
    outer loop
      vertex 0.236282 0.816315 2.7
      vertex 0.164673 0.626984 2.5
      vertex 0.164673 0.626984 2.7
    endloop
  endfacet
  facet normal -0.856124 0.516771 0
    outer loop
      vertex 0.0644073 0.460876 2.5
      vertex 0.164673 0.626984 2.7
      vertex 0.164673 0.626984 2.5
    endloop
  endfacet
  facet normal -0.856124 0.516771 0
    outer loop
      vertex 0.164673 0.626984 2.7
      vertex 0.0644073 0.460876 2.5
      vertex 0.0644073 0.460876 2.7
    endloop
  endfacet
  facet normal -0.742563 0.669776 0
    outer loop
      vertex -0.0644836 0.317978 2.5
      vertex 0.0644073 0.460876 2.7
      vertex 0.0644073 0.460876 2.5
    endloop
  endfacet
  facet normal -0.742563 0.669776 0
    outer loop
      vertex 0.0644073 0.460876 2.7
      vertex -0.0644836 0.317978 2.5
      vertex -0.0644836 0.317978 2.7
    endloop
  endfacet
  facet normal -0.605375 0.79594 0
    outer loop
      vertex -0.0644836 0.317978 2.5
      vertex -0.219864 0.199799 2.7
      vertex -0.0644836 0.317978 2.7
    endloop
  endfacet
  facet normal -0.605375 0.79594 0
    outer loop
      vertex -0.219864 0.199799 2.7
      vertex -0.0644836 0.317978 2.5
      vertex -0.219864 0.199799 2.5
    endloop
  endfacet
  facet normal -0.455362 0.890306 0
    outer loop
      vertex -0.219864 0.199799 2.5
      vertex -0.399551 0.107895 2.7
      vertex -0.219864 0.199799 2.7
    endloop
  endfacet
  facet normal -0.455362 0.890306 0
    outer loop
      vertex -0.399551 0.107895 2.7
      vertex -0.219864 0.199799 2.5
      vertex -0.399551 0.107895 2.5
    endloop
  endfacet
  facet normal -0.306341 0.951922 0
    outer loop
      vertex -0.399551 0.107895 2.5
      vertex -0.603531 0.0422516 2.7
      vertex -0.399551 0.107895 2.7
    endloop
  endfacet
  facet normal -0.306341 0.951922 0
    outer loop
      vertex -0.603531 0.0422516 2.7
      vertex -0.399551 0.107895 2.5
      vertex -0.603531 0.0422516 2.5
    endloop
  endfacet
  facet normal -0.170004 0.985443 0
    outer loop
      vertex -0.603531 0.0422516 2.5
      vertex -0.831818 0.00286865 2.7
      vertex -0.603531 0.0422516 2.7
    endloop
  endfacet
  facet normal -0.170004 0.985443 0
    outer loop
      vertex -0.831818 0.00286865 2.7
      vertex -0.603531 0.0422516 2.5
      vertex -0.831818 0.00286865 2.5
    endloop
  endfacet
  facet normal -0.0518816 0.998653 0
    outer loop
      vertex -0.831818 0.00286865 2.5
      vertex -1.08441 -0.0102539 2.7
      vertex -0.831818 0.00286865 2.7
    endloop
  endfacet
  facet normal -0.0518816 0.998653 0
    outer loop
      vertex -1.08441 -0.0102539 2.7
      vertex -0.831818 0.00286865 2.5
      vertex -1.08441 -0.0102539 2.5
    endloop
  endfacet
  facet normal 0 1 -0
    outer loop
      vertex -1.08441 -0.0102539 2.5
      vertex -2.78241 -0.0102539 2.7
      vertex -1.08441 -0.0102539 2.7
    endloop
  endfacet
  facet normal 0 1 0
    outer loop
      vertex -2.78241 -0.0102539 2.7
      vertex -1.08441 -0.0102539 2.5
      vertex -2.78241 -0.0102539 2.5
    endloop
  endfacet
  facet normal 0 1 -0
    outer loop
      vertex 4.41156 1.93733 2.5
      vertex 2.88708 1.93733 2.7
      vertex 4.41156 1.93733 2.7
    endloop
  endfacet
  facet normal 0 1 0
    outer loop
      vertex 2.88708 1.93733 2.7
      vertex 4.41156 1.93733 2.5
      vertex 2.88708 1.93733 2.5
    endloop
  endfacet
  facet normal -1 0 0
    outer loop
      vertex 2.88708 -3.9325 2.5
      vertex 2.88708 1.93733 2.7
      vertex 2.88708 1.93733 2.5
    endloop
  endfacet
  facet normal -1 -0 0
    outer loop
      vertex 2.88708 1.93733 2.7
      vertex 2.88708 -3.9325 2.5
      vertex 2.88708 -3.9325 2.7
    endloop
  endfacet
  facet normal 0 -1 0
    outer loop
      vertex 2.88708 -3.9325 2.5
      vertex 4.41156 -3.9325 2.7
      vertex 2.88708 -3.9325 2.7
    endloop
  endfacet
  facet normal 0 -1 -0
    outer loop
      vertex 4.41156 -3.9325 2.7
      vertex 2.88708 -3.9325 2.5
      vertex 4.41156 -3.9325 2.5
    endloop
  endfacet
  facet normal 1 -0 0
    outer loop
      vertex 4.41156 -3.9325 2.7
      vertex 4.41156 1.93733 2.5
      vertex 4.41156 1.93733 2.7
    endloop
  endfacet
  facet normal 1 0 0
    outer loop
      vertex 4.41156 1.93733 2.5
      vertex 4.41156 -3.9325 2.7
      vertex 4.41156 -3.9325 2.5
    endloop
  endfacet
endsolid OpenSCAD_Model
