solid OpenSCAD_Model
  facet normal 0.965958 -0.258698 0
    outer loop
      vertex 26.3191 -18.0261 2.71
      vertex 26.4544 -17.5209 2.5
      vertex 26.4544 -17.5209 2.71
    endloop
  endfacet
  facet normal 0.965958 -0.258698 0
    outer loop
      vertex 26.4544 -17.5209 2.5
      vertex 26.3191 -18.0261 2.71
      vertex 26.3191 -18.0261 2.5
    endloop
  endfacet
  facet normal 0.422645 -0.906295 0
    outer loop
      vertex 24.5261 -19.8191 2.5
      vertex 25 -19.5981 2.71
      vertex 24.5261 -19.8191 2.71
    endloop
  endfacet
  facet normal 0.422645 -0.906295 0
    outer loop
      vertex 25 -19.5981 2.71
      vertex 24.5261 -19.8191 2.5
      vertex 25 -19.5981 2.5
    endloop
  endfacet
  facet normal 0 0 -1
    outer loop
      vertex 25.5691 -17.2761 2.5
      vertex 26.5 -17 2.5
      vertex 26.4544 -17.5209 2.5
    endloop
  endfacet
  facet normal 0 0 -1
    outer loop
      vertex 26.5 -17 2.5
      vertex 25.75 -16.25 2.5
      vertex 26.5 17 2.5
    endloop
  endfacet
  facet normal 0 0 -1
    outer loop
      vertex 25.5691 -17.2761 2.5
      vertex 26.4544 -17.5209 2.5
      vertex 26.3191 -18.0261 2.5
    endloop
  endfacet
  facet normal 0 0 -1
    outer loop
      vertex 25.75 16.25 2.5
      vertex 26.5 17 2.5
      vertex 25.75 -16.25 2.5
    endloop
  endfacet
  facet normal 0 0 -1
    outer loop
      vertex 25.3481 -17.75 2.5
      vertex 26.3191 -18.0261 2.5
      vertex 26.0981 -18.5 2.5
    endloop
  endfacet
  facet normal 0 0 -1
    outer loop
      vertex 25.7044 16.7709 2.5
      vertex 26.5 17 2.5
      vertex 25.75 16.25 2.5
    endloop
  endfacet
  facet normal 0 0 -1
    outer loop
      vertex 25.0481 -18.1784 2.5
      vertex 26.0981 -18.5 2.5
      vertex 25.7981 -18.9284 2.5
    endloop
  endfacet
  facet normal 0 0 -1
    outer loop
      vertex 25.5691 17.2761 2.5
      vertex 26.5 17 2.5
      vertex 25.7044 16.7709 2.5
    endloop
  endfacet
  facet normal 0 0 -1
    outer loop
      vertex 26.5 17 2.5
      vertex 25.5691 17.2761 2.5
      vertex 26.4544 17.5209 2.5
    endloop
  endfacet
  facet normal 0 0 -1
    outer loop
      vertex 26.5 -17 2.5
      vertex 25.7044 -16.7709 2.5
      vertex 25.75 -16.25 2.5
    endloop
  endfacet
  facet normal -0 0 -1
    outer loop
      vertex 26.5 -17 2.5
      vertex 25.5691 -17.2761 2.5
      vertex 25.7044 -16.7709 2.5
    endloop
  endfacet
  facet normal 0 0 -1
    outer loop
      vertex 25.0481 -18.1784 2.5
      vertex 25.7981 -18.9284 2.5
      vertex 25.4284 -19.2981 2.5
    endloop
  endfacet
  facet normal 0 0 -1
    outer loop
      vertex 26.3191 -18.0261 2.5
      vertex 25.3481 -17.75 2.5
      vertex 25.5691 -17.2761 2.5
    endloop
  endfacet
  facet normal 0 0 -1
    outer loop
      vertex 26.0981 -18.5 2.5
      vertex 25.0481 -18.1784 2.5
      vertex 25.3481 -17.75 2.5
    endloop
  endfacet
  facet normal 0 0 -1
    outer loop
      vertex 24.6784 -18.5481 2.5
      vertex 25.4284 -19.2981 2.5
      vertex 25 -19.5981 2.5
    endloop
  endfacet
  facet normal 0 0 -1
    outer loop
      vertex 25.4284 -19.2981 2.5
      vertex 24.6784 -18.5481 2.5
      vertex 25.0481 -18.1784 2.5
    endloop
  endfacet
  facet normal 0 0 -1
    outer loop
      vertex 24.25 -18.8481 2.5
      vertex 25 -19.5981 2.5
      vertex 24.5261 -19.8191 2.5
    endloop
  endfacet
  facet normal 0 0 -1
    outer loop
      vertex 25 -19.5981 2.5
      vertex 24.25 -18.8481 2.5
      vertex 24.6784 -18.5481 2.5
    endloop
  endfacet
  facet normal 0 0 -1
    outer loop
      vertex 23.7761 -19.0691 2.5
      vertex 24.5261 -19.8191 2.5
      vertex 24.0209 -19.9544 2.5
    endloop
  endfacet
  facet normal 0 0 -1
    outer loop
      vertex 24.5261 -19.8191 2.5
      vertex 23.7761 -19.0691 2.5
      vertex 24.25 -18.8481 2.5
    endloop
  endfacet
  facet normal 0 0 -1
    outer loop
      vertex 23.5 -20 2.5
      vertex 23.7761 -19.0691 2.5
      vertex 24.0209 -19.9544 2.5
    endloop
  endfacet
  facet normal 0 0 -1
    outer loop
      vertex 23.5 -20 2.5
      vertex 23.2709 -19.2044 2.5
      vertex 23.7761 -19.0691 2.5
    endloop
  endfacet
  facet normal 0 0 -1
    outer loop
      vertex 23.5 -20 2.5
      vertex 22.75 -19.25 2.5
      vertex 23.2709 -19.2044 2.5
    endloop
  endfacet
  facet normal 0 0 -1
    outer loop
      vertex 23.5 -20 2.5
      vertex -22.75 -19.25 2.5
      vertex 22.75 -19.25 2.5
    endloop
  endfacet
  facet normal 0 0 -1
    outer loop
      vertex -23.5 -20 2.5
      vertex -22.75 -19.25 2.5
      vertex 23.5 -20 2.5
    endloop
  endfacet
  facet normal 0 0 -1
    outer loop
      vertex -23.5 -20 2.5
      vertex -23.2709 -19.2044 2.5
      vertex -22.75 -19.25 2.5
    endloop
  endfacet
  facet normal 0 0 -1
    outer loop
      vertex -23.5 -20 2.5
      vertex -23.7761 -19.0691 2.5
      vertex -23.2709 -19.2044 2.5
    endloop
  endfacet
  facet normal 0 0 -1
    outer loop
      vertex -24.0209 -19.9544 2.5
      vertex -23.7761 -19.0691 2.5
      vertex -23.5 -20 2.5
    endloop
  endfacet
  facet normal 0 0 -1
    outer loop
      vertex -24.5261 -19.8191 2.5
      vertex -23.7761 -19.0691 2.5
      vertex -24.0209 -19.9544 2.5
    endloop
  endfacet
  facet normal -0 0 -1
    outer loop
      vertex -23.7761 -19.0691 2.5
      vertex -24.5261 -19.8191 2.5
      vertex -24.25 -18.8481 2.5
    endloop
  endfacet
  facet normal 0 0 -1
    outer loop
      vertex -25 -19.5981 2.5
      vertex -24.25 -18.8481 2.5
      vertex -24.5261 -19.8191 2.5
    endloop
  endfacet
  facet normal -0 0 -1
    outer loop
      vertex -24.25 -18.8481 2.5
      vertex -25 -19.5981 2.5
      vertex -24.6784 -18.5481 2.5
    endloop
  endfacet
  facet normal 0 0 -1
    outer loop
      vertex -25.4284 -19.2981 2.5
      vertex -24.6784 -18.5481 2.5
      vertex -25 -19.5981 2.5
    endloop
  endfacet
  facet normal -0 0 -1
    outer loop
      vertex -24.6784 -18.5481 2.5
      vertex -25.4284 -19.2981 2.5
      vertex -25.0481 -18.1784 2.5
    endloop
  endfacet
  facet normal 0 0 -1
    outer loop
      vertex -25.7981 -18.9284 2.5
      vertex -25.0481 -18.1784 2.5
      vertex -25.4284 -19.2981 2.5
    endloop
  endfacet
  facet normal 0 0 -1
    outer loop
      vertex -26.0981 -18.5 2.5
      vertex -25.0481 -18.1784 2.5
      vertex -25.7981 -18.9284 2.5
    endloop
  endfacet
  facet normal -0 0 -1
    outer loop
      vertex -25.0481 -18.1784 2.5
      vertex -26.0981 -18.5 2.5
      vertex -25.3481 -17.75 2.5
    endloop
  endfacet
  facet normal 0 0 -1
    outer loop
      vertex -26.4544 -17.5209 2.5
      vertex -25.5691 -17.2761 2.5
      vertex -26.3191 -18.0261 2.5
    endloop
  endfacet
  facet normal -0 0 -1
    outer loop
      vertex -25.3481 -17.75 2.5
      vertex -26.3191 -18.0261 2.5
      vertex -25.5691 -17.2761 2.5
    endloop
  endfacet
  facet normal 0 0 -1
    outer loop
      vertex -26.3191 -18.0261 2.5
      vertex -25.3481 -17.75 2.5
      vertex -26.0981 -18.5 2.5
    endloop
  endfacet
  facet normal -0 0 -1
    outer loop
      vertex 26.4544 17.5209 2.5
      vertex 25.5691 17.2761 2.5
      vertex 26.3191 18.0261 2.5
    endloop
  endfacet
  facet normal 0 0 -1
    outer loop
      vertex 25.3481 17.75 2.5
      vertex 26.3191 18.0261 2.5
      vertex 25.5691 17.2761 2.5
    endloop
  endfacet
  facet normal -0 0 -1
    outer loop
      vertex 26.3191 18.0261 2.5
      vertex 25.3481 17.75 2.5
      vertex 26.0981 18.5 2.5
    endloop
  endfacet
  facet normal 0 0 -1
    outer loop
      vertex 25.0481 18.1784 2.5
      vertex 26.0981 18.5 2.5
      vertex 25.3481 17.75 2.5
    endloop
  endfacet
  facet normal -0 0 -1
    outer loop
      vertex 26.0981 18.5 2.5
      vertex 25.0481 18.1784 2.5
      vertex 25.7981 18.9284 2.5
    endloop
  endfacet
  facet normal -0 0 -1
    outer loop
      vertex 25.7981 18.9284 2.5
      vertex 25.0481 18.1784 2.5
      vertex 25.4284 19.2981 2.5
    endloop
  endfacet
  facet normal 0 0 -1
    outer loop
      vertex 24.6784 18.5481 2.5
      vertex 25.4284 19.2981 2.5
      vertex 25.0481 18.1784 2.5
    endloop
  endfacet
  facet normal -0 0 -1
    outer loop
      vertex 25.4284 19.2981 2.5
      vertex 24.6784 18.5481 2.5
      vertex 25 19.5981 2.5
    endloop
  endfacet
  facet normal 0 0 -1
    outer loop
      vertex 24.25 18.8481 2.5
      vertex 25 19.5981 2.5
      vertex 24.6784 18.5481 2.5
    endloop
  endfacet
  facet normal -0 0 -1
    outer loop
      vertex 25 19.5981 2.5
      vertex 24.25 18.8481 2.5
      vertex 24.5261 19.8191 2.5
    endloop
  endfacet
  facet normal 0 0 -1
    outer loop
      vertex 23.7761 19.0691 2.5
      vertex 24.5261 19.8191 2.5
      vertex 24.25 18.8481 2.5
    endloop
  endfacet
  facet normal -0 0 -1
    outer loop
      vertex 24.5261 19.8191 2.5
      vertex 23.7761 19.0691 2.5
      vertex 24.0209 19.9544 2.5
    endloop
  endfacet
  facet normal 0 0 -1
    outer loop
      vertex 23.7761 19.0691 2.5
      vertex 23.5 20 2.5
      vertex 24.0209 19.9544 2.5
    endloop
  endfacet
  facet normal 0 0 -1
    outer loop
      vertex 23.2709 19.2044 2.5
      vertex 23.5 20 2.5
      vertex 23.7761 19.0691 2.5
    endloop
  endfacet
  facet normal 0 0 -1
    outer loop
      vertex 22.75 19.25 2.5
      vertex 23.5 20 2.5
      vertex 23.2709 19.2044 2.5
    endloop
  endfacet
  facet normal 0 0 -1
    outer loop
      vertex -22.75 19.25 2.5
      vertex 23.5 20 2.5
      vertex 22.75 19.25 2.5
    endloop
  endfacet
  facet normal 0 0 -1
    outer loop
      vertex -22.75 19.25 2.5
      vertex -23.5 20 2.5
      vertex 23.5 20 2.5
    endloop
  endfacet
  facet normal 0 0 -1
    outer loop
      vertex -23.2709 19.2044 2.5
      vertex -23.5 20 2.5
      vertex -22.75 19.25 2.5
    endloop
  endfacet
  facet normal 0 0 -1
    outer loop
      vertex -23.7761 19.0691 2.5
      vertex -23.5 20 2.5
      vertex -23.2709 19.2044 2.5
    endloop
  endfacet
  facet normal 0 0 -1
    outer loop
      vertex -23.7761 19.0691 2.5
      vertex -24.0209 19.9544 2.5
      vertex -23.5 20 2.5
    endloop
  endfacet
  facet normal 0 0 -1
    outer loop
      vertex -24.5261 19.8191 2.5
      vertex -23.7761 19.0691 2.5
      vertex -24.25 18.8481 2.5
    endloop
  endfacet
  facet normal 0 0 -1
    outer loop
      vertex -23.7761 19.0691 2.5
      vertex -24.5261 19.8191 2.5
      vertex -24.0209 19.9544 2.5
    endloop
  endfacet
  facet normal 0 0 -1
    outer loop
      vertex -25 19.5981 2.5
      vertex -24.25 18.8481 2.5
      vertex -24.6784 18.5481 2.5
    endloop
  endfacet
  facet normal 0 0 -1
    outer loop
      vertex -24.25 18.8481 2.5
      vertex -25 19.5981 2.5
      vertex -24.5261 19.8191 2.5
    endloop
  endfacet
  facet normal 0 0 -1
    outer loop
      vertex -25.4284 19.2981 2.5
      vertex -24.6784 18.5481 2.5
      vertex -25.0481 18.1784 2.5
    endloop
  endfacet
  facet normal 0 0 -1
    outer loop
      vertex -26.0981 18.5 2.5
      vertex -25.0481 18.1784 2.5
      vertex -25.3481 17.75 2.5
    endloop
  endfacet
  facet normal 0 0 -1
    outer loop
      vertex -24.6784 18.5481 2.5
      vertex -25.4284 19.2981 2.5
      vertex -25 19.5981 2.5
    endloop
  endfacet
  facet normal 0 0 -1
    outer loop
      vertex -26.3191 18.0261 2.5
      vertex -25.3481 17.75 2.5
      vertex -25.5691 17.2761 2.5
    endloop
  endfacet
  facet normal 0 0 -1
    outer loop
      vertex -26.5 17 2.5
      vertex -25.5691 17.2761 2.5
      vertex -25.7044 16.7709 2.5
    endloop
  endfacet
  facet normal 0 0 -1
    outer loop
      vertex -25.0481 18.1784 2.5
      vertex -25.7981 18.9284 2.5
      vertex -25.4284 19.2981 2.5
    endloop
  endfacet
  facet normal 0 0 -1
    outer loop
      vertex -26.5 17 2.5
      vertex -25.7044 16.7709 2.5
      vertex -25.75 16.25 2.5
    endloop
  endfacet
  facet normal -0 0 -1
    outer loop
      vertex -25.75 -16.25 2.5
      vertex -26.5 -17 2.5
      vertex -25.75 16.25 2.5
    endloop
  endfacet
  facet normal 0 0 -1
    outer loop
      vertex -26.5 -17 2.5
      vertex -25.5691 -17.2761 2.5
      vertex -26.4544 -17.5209 2.5
    endloop
  endfacet
  facet normal 0 0 -1
    outer loop
      vertex -26.5 17 2.5
      vertex -25.75 16.25 2.5
      vertex -26.5 -17 2.5
    endloop
  endfacet
  facet normal 0 0 -1
    outer loop
      vertex -25.5691 -17.2761 2.5
      vertex -26.5 -17 2.5
      vertex -25.7044 -16.7709 2.5
    endloop
  endfacet
  facet normal -0 0 -1
    outer loop
      vertex -25.5691 17.2761 2.5
      vertex -26.5 17 2.5
      vertex -26.4544 17.5209 2.5
    endloop
  endfacet
  facet normal -0 0 -1
    outer loop
      vertex -25.7044 -16.7709 2.5
      vertex -26.5 -17 2.5
      vertex -25.75 -16.25 2.5
    endloop
  endfacet
  facet normal 0 0 -1
    outer loop
      vertex -25.0481 18.1784 2.5
      vertex -26.0981 18.5 2.5
      vertex -25.7981 18.9284 2.5
    endloop
  endfacet
  facet normal 0 0 -1
    outer loop
      vertex -25.3481 17.75 2.5
      vertex -26.3191 18.0261 2.5
      vertex -26.0981 18.5 2.5
    endloop
  endfacet
  facet normal 0 0 -1
    outer loop
      vertex -25.5691 17.2761 2.5
      vertex -26.4544 17.5209 2.5
      vertex -26.3191 18.0261 2.5
    endloop
  endfacet
  facet normal 0.0872073 -0.99619 0
    outer loop
      vertex 23.5 -20 2.5
      vertex 24.0209 -19.9544 2.71
      vertex 23.5 -20 2.71
    endloop
  endfacet
  facet normal 0.0872073 -0.99619 0
    outer loop
      vertex 24.0209 -19.9544 2.71
      vertex 23.5 -20 2.5
      vertex 24.0209 -19.9544 2.5
    endloop
  endfacet
  facet normal -0.906295 -0.422645 0
    outer loop
      vertex -26.0981 -18.5 2.5
      vertex -26.3191 -18.0261 2.71
      vertex -26.3191 -18.0261 2.5
    endloop
  endfacet
  facet normal -0.906295 -0.422645 0
    outer loop
      vertex -26.3191 -18.0261 2.71
      vertex -26.0981 -18.5 2.5
      vertex -26.0981 -18.5 2.71
    endloop
  endfacet
  facet normal -0.965958 0.258698 0
    outer loop
      vertex -26.4544 17.5209 2.5
      vertex -26.3191 18.0261 2.71
      vertex -26.3191 18.0261 2.5
    endloop
  endfacet
  facet normal -0.965958 0.258698 0
    outer loop
      vertex -26.3191 18.0261 2.71
      vertex -26.4544 17.5209 2.5
      vertex -26.4544 17.5209 2.71
    endloop
  endfacet
  facet normal -0.573616 0.819124 0
    outer loop
      vertex -25 19.5981 2.5
      vertex -25.4284 19.2981 2.71
      vertex -25 19.5981 2.71
    endloop
  endfacet
  facet normal -0.573616 0.819124 0
    outer loop
      vertex -25.4284 19.2981 2.71
      vertex -25 19.5981 2.5
      vertex -25.4284 19.2981 2.5
    endloop
  endfacet
  facet normal 0.819124 0.573616 0
    outer loop
      vertex 26.0981 18.5 2.71
      vertex 25.7981 18.9284 2.5
      vertex 25.7981 18.9284 2.71
    endloop
  endfacet
  facet normal 0.819124 0.573616 0
    outer loop
      vertex 25.7981 18.9284 2.5
      vertex 26.0981 18.5 2.71
      vertex 26.0981 18.5 2.5
    endloop
  endfacet
  facet normal -0.422645 0.906295 0
    outer loop
      vertex -24.5261 19.8191 2.5
      vertex -25 19.5981 2.71
      vertex -24.5261 19.8191 2.71
    endloop
  endfacet
  facet normal -0.422645 0.906295 0
    outer loop
      vertex -25 19.5981 2.71
      vertex -24.5261 19.8191 2.5
      vertex -25 19.5981 2.5
    endloop
  endfacet
  facet normal 0.258698 -0.965958 0
    outer loop
      vertex 24.0209 -19.9544 2.5
      vertex 24.5261 -19.8191 2.71
      vertex 24.0209 -19.9544 2.71
    endloop
  endfacet
  facet normal 0.258698 -0.965958 0
    outer loop
      vertex 24.5261 -19.8191 2.71
      vertex 24.0209 -19.9544 2.5
      vertex 24.5261 -19.8191 2.5
    endloop
  endfacet
  facet normal 0.707107 0.707107 0
    outer loop
      vertex 25.7981 18.9284 2.71
      vertex 25.4284 19.2981 2.5
      vertex 25.4284 19.2981 2.71
    endloop
  endfacet
  facet normal 0.707107 0.707107 0
    outer loop
      vertex 25.4284 19.2981 2.5
      vertex 25.7981 18.9284 2.71
      vertex 25.7981 18.9284 2.5
    endloop
  endfacet
  facet normal -0.906295 0.422645 0
    outer loop
      vertex -26.3191 18.0261 2.5
      vertex -26.0981 18.5 2.71
      vertex -26.0981 18.5 2.5
    endloop
  endfacet
  facet normal -0.906295 0.422645 0
    outer loop
      vertex -26.0981 18.5 2.71
      vertex -26.3191 18.0261 2.5
      vertex -26.3191 18.0261 2.71
    endloop
  endfacet
  facet normal -0.819124 0.573616 0
    outer loop
      vertex -26.0981 18.5 2.5
      vertex -25.7981 18.9284 2.71
      vertex -25.7981 18.9284 2.5
    endloop
  endfacet
  facet normal -0.819124 0.573616 0
    outer loop
      vertex -25.7981 18.9284 2.71
      vertex -26.0981 18.5 2.5
      vertex -26.0981 18.5 2.71
    endloop
  endfacet
  facet normal 1 -0 0
    outer loop
      vertex 26.5 -17 2.71
      vertex 26.5 17 2.5
      vertex 26.5 17 2.71
    endloop
  endfacet
  facet normal 1 0 0
    outer loop
      vertex 26.5 17 2.5
      vertex 26.5 -17 2.71
      vertex 26.5 -17 2.5
    endloop
  endfacet
  facet normal -0.258698 0.965958 0
    outer loop
      vertex -24.0209 19.9544 2.5
      vertex -24.5261 19.8191 2.71
      vertex -24.0209 19.9544 2.71
    endloop
  endfacet
  facet normal -0.258698 0.965958 0
    outer loop
      vertex -24.5261 19.8191 2.71
      vertex -24.0209 19.9544 2.5
      vertex -24.5261 19.8191 2.5
    endloop
  endfacet
  facet normal 0.906295 -0.422645 0
    outer loop
      vertex 26.0981 -18.5 2.71
      vertex 26.3191 -18.0261 2.5
      vertex 26.3191 -18.0261 2.71
    endloop
  endfacet
  facet normal 0.906295 -0.422645 0
    outer loop
      vertex 26.3191 -18.0261 2.5
      vertex 26.0981 -18.5 2.71
      vertex 26.0981 -18.5 2.5
    endloop
  endfacet
  facet normal -0.258698 -0.965958 0
    outer loop
      vertex -24.5261 -19.8191 2.5
      vertex -24.0209 -19.9544 2.71
      vertex -24.5261 -19.8191 2.71
    endloop
  endfacet
  facet normal -0.258698 -0.965958 -0
    outer loop
      vertex -24.0209 -19.9544 2.71
      vertex -24.5261 -19.8191 2.5
      vertex -24.0209 -19.9544 2.5
    endloop
  endfacet
  facet normal -0.707107 0.707107 0
    outer loop
      vertex -25.7981 18.9284 2.5
      vertex -25.4284 19.2981 2.71
      vertex -25.4284 19.2981 2.5
    endloop
  endfacet
  facet normal -0.707107 0.707107 0
    outer loop
      vertex -25.4284 19.2981 2.71
      vertex -25.7981 18.9284 2.5
      vertex -25.7981 18.9284 2.71
    endloop
  endfacet
  facet normal -1 0 0
    outer loop
      vertex -26.5 -17 2.5
      vertex -26.5 17 2.71
      vertex -26.5 17 2.5
    endloop
  endfacet
  facet normal -1 -0 0
    outer loop
      vertex -26.5 17 2.71
      vertex -26.5 -17 2.5
      vertex -26.5 -17 2.71
    endloop
  endfacet
  facet normal 0.99619 -0.0872073 0
    outer loop
      vertex 26.4544 -17.5209 2.71
      vertex 26.5 -17 2.5
      vertex 26.5 -17 2.71
    endloop
  endfacet
  facet normal 0.99619 -0.0872073 0
    outer loop
      vertex 26.5 -17 2.5
      vertex 26.4544 -17.5209 2.71
      vertex 26.4544 -17.5209 2.5
    endloop
  endfacet
  facet normal 0.819124 -0.573616 0
    outer loop
      vertex 25.7981 -18.9284 2.71
      vertex 26.0981 -18.5 2.5
      vertex 26.0981 -18.5 2.71
    endloop
  endfacet
  facet normal 0.819124 -0.573616 0
    outer loop
      vertex 26.0981 -18.5 2.5
      vertex 25.7981 -18.9284 2.71
      vertex 25.7981 -18.9284 2.5
    endloop
  endfacet
  facet normal 0 1 -0
    outer loop
      vertex 23.5 20 2.5
      vertex -23.5 20 2.71
      vertex 23.5 20 2.71
    endloop
  endfacet
  facet normal 0 1 0
    outer loop
      vertex -23.5 20 2.71
      vertex 23.5 20 2.5
      vertex -23.5 20 2.5
    endloop
  endfacet
  facet normal 0.258698 0.965958 -0
    outer loop
      vertex 24.5261 19.8191 2.5
      vertex 24.0209 19.9544 2.71
      vertex 24.5261 19.8191 2.71
    endloop
  endfacet
  facet normal 0.258698 0.965958 0
    outer loop
      vertex 24.0209 19.9544 2.71
      vertex 24.5261 19.8191 2.5
      vertex 24.0209 19.9544 2.5
    endloop
  endfacet
  facet normal 0 -1 0
    outer loop
      vertex -23.5 -20 2.5
      vertex 23.5 -20 2.71
      vertex -23.5 -20 2.71
    endloop
  endfacet
  facet normal 0 -1 -0
    outer loop
      vertex 23.5 -20 2.71
      vertex -23.5 -20 2.5
      vertex 23.5 -20 2.5
    endloop
  endfacet
  facet normal 0.0872073 0.99619 -0
    outer loop
      vertex 24.0209 19.9544 2.5
      vertex 23.5 20 2.71
      vertex 24.0209 19.9544 2.71
    endloop
  endfacet
  facet normal 0.0872073 0.99619 0
    outer loop
      vertex 23.5 20 2.71
      vertex 24.0209 19.9544 2.5
      vertex 23.5 20 2.5
    endloop
  endfacet
  facet normal 0.573616 -0.819124 0
    outer loop
      vertex 25 -19.5981 2.5
      vertex 25.4284 -19.2981 2.71
      vertex 25 -19.5981 2.71
    endloop
  endfacet
  facet normal 0.573616 -0.819124 0
    outer loop
      vertex 25.4284 -19.2981 2.71
      vertex 25 -19.5981 2.5
      vertex 25.4284 -19.2981 2.5
    endloop
  endfacet
  facet normal 0.965958 0.258698 0
    outer loop
      vertex 26.4544 17.5209 2.71
      vertex 26.3191 18.0261 2.5
      vertex 26.3191 18.0261 2.71
    endloop
  endfacet
  facet normal 0.965958 0.258698 0
    outer loop
      vertex 26.3191 18.0261 2.5
      vertex 26.4544 17.5209 2.71
      vertex 26.4544 17.5209 2.5
    endloop
  endfacet
  facet normal 0.906295 0.422645 0
    outer loop
      vertex 26.3191 18.0261 2.71
      vertex 26.0981 18.5 2.5
      vertex 26.0981 18.5 2.71
    endloop
  endfacet
  facet normal 0.906295 0.422645 0
    outer loop
      vertex 26.0981 18.5 2.5
      vertex 26.3191 18.0261 2.71
      vertex 26.3191 18.0261 2.5
    endloop
  endfacet
  facet normal -0.422645 -0.906295 0
    outer loop
      vertex -25 -19.5981 2.5
      vertex -24.5261 -19.8191 2.71
      vertex -25 -19.5981 2.71
    endloop
  endfacet
  facet normal -0.422645 -0.906295 -0
    outer loop
      vertex -24.5261 -19.8191 2.71
      vertex -25 -19.5981 2.5
      vertex -24.5261 -19.8191 2.5
    endloop
  endfacet
  facet normal -0.965958 -0.258698 0
    outer loop
      vertex -26.3191 -18.0261 2.5
      vertex -26.4544 -17.5209 2.71
      vertex -26.4544 -17.5209 2.5
    endloop
  endfacet
  facet normal -0.965958 -0.258698 0
    outer loop
      vertex -26.4544 -17.5209 2.71
      vertex -26.3191 -18.0261 2.5
      vertex -26.3191 -18.0261 2.71
    endloop
  endfacet
  facet normal -0.99619 0.0872073 0
    outer loop
      vertex -26.5 17 2.5
      vertex -26.4544 17.5209 2.71
      vertex -26.4544 17.5209 2.5
    endloop
  endfacet
  facet normal -0.99619 0.0872073 0
    outer loop
      vertex -26.4544 17.5209 2.71
      vertex -26.5 17 2.5
      vertex -26.5 17 2.71
    endloop
  endfacet
  facet normal 0.573616 0.819124 -0
    outer loop
      vertex 25.4284 19.2981 2.5
      vertex 25 19.5981 2.71
      vertex 25.4284 19.2981 2.71
    endloop
  endfacet
  facet normal 0.573616 0.819124 0
    outer loop
      vertex 25 19.5981 2.71
      vertex 25.4284 19.2981 2.5
      vertex 25 19.5981 2.5
    endloop
  endfacet
  facet normal 0.707107 -0.707107 0
    outer loop
      vertex 25.4284 -19.2981 2.71
      vertex 25.7981 -18.9284 2.5
      vertex 25.7981 -18.9284 2.71
    endloop
  endfacet
  facet normal 0.707107 -0.707107 0
    outer loop
      vertex 25.7981 -18.9284 2.5
      vertex 25.4284 -19.2981 2.71
      vertex 25.4284 -19.2981 2.5
    endloop
  endfacet
  facet normal 0.99619 0.0872073 0
    outer loop
      vertex 26.5 17 2.71
      vertex 26.4544 17.5209 2.5
      vertex 26.4544 17.5209 2.71
    endloop
  endfacet
  facet normal 0.99619 0.0872073 0
    outer loop
      vertex 26.4544 17.5209 2.5
      vertex 26.5 17 2.71
      vertex 26.5 17 2.5
    endloop
  endfacet
  facet normal 0.422645 0.906295 -0
    outer loop
      vertex 25 19.5981 2.5
      vertex 24.5261 19.8191 2.71
      vertex 25 19.5981 2.71
    endloop
  endfacet
  facet normal 0.422645 0.906295 0
    outer loop
      vertex 24.5261 19.8191 2.71
      vertex 25 19.5981 2.5
      vertex 24.5261 19.8191 2.5
    endloop
  endfacet
  facet normal -0 0 1
    outer loop
      vertex 25.5691 17.2761 2.71
      vertex 26.5 17 2.71
      vertex 26.4544 17.5209 2.71
    endloop
  endfacet
  facet normal 0 0 1
    outer loop
      vertex 26.5 17 2.71
      vertex 25.75 16.25 2.71
      vertex 26.5 -17 2.71
    endloop
  endfacet
  facet normal 0 0 1
    outer loop
      vertex 25.5691 17.2761 2.71
      vertex 26.4544 17.5209 2.71
      vertex 26.3191 18.0261 2.71
    endloop
  endfacet
  facet normal -0 0 1
    outer loop
      vertex 25.75 -16.25 2.71
      vertex 26.5 -17 2.71
      vertex 25.75 16.25 2.71
    endloop
  endfacet
  facet normal 0 0 1
    outer loop
      vertex 25.3481 17.75 2.71
      vertex 26.3191 18.0261 2.71
      vertex 26.0981 18.5 2.71
    endloop
  endfacet
  facet normal -0 0 1
    outer loop
      vertex 25.7044 -16.7709 2.71
      vertex 26.5 -17 2.71
      vertex 25.75 -16.25 2.71
    endloop
  endfacet
  facet normal 0 0 1
    outer loop
      vertex 25.0481 18.1784 2.71
      vertex 26.0981 18.5 2.71
      vertex 25.7981 18.9284 2.71
    endloop
  endfacet
  facet normal 0 0 1
    outer loop
      vertex 25.5691 -17.2761 2.71
      vertex 26.5 -17 2.71
      vertex 25.7044 -16.7709 2.71
    endloop
  endfacet
  facet normal 0 0 1
    outer loop
      vertex 26.5 -17 2.71
      vertex 25.5691 -17.2761 2.71
      vertex 26.4544 -17.5209 2.71
    endloop
  endfacet
  facet normal 0 0 1
    outer loop
      vertex 26.5 17 2.71
      vertex 25.7044 16.7709 2.71
      vertex 25.75 16.25 2.71
    endloop
  endfacet
  facet normal 0 0 1
    outer loop
      vertex 26.5 17 2.71
      vertex 25.5691 17.2761 2.71
      vertex 25.7044 16.7709 2.71
    endloop
  endfacet
  facet normal 0 0 1
    outer loop
      vertex 25.0481 18.1784 2.71
      vertex 25.7981 18.9284 2.71
      vertex 25.4284 19.2981 2.71
    endloop
  endfacet
  facet normal 0 0 1
    outer loop
      vertex 26.3191 18.0261 2.71
      vertex 25.3481 17.75 2.71
      vertex 25.5691 17.2761 2.71
    endloop
  endfacet
  facet normal 0 0 1
    outer loop
      vertex 26.0981 18.5 2.71
      vertex 25.0481 18.1784 2.71
      vertex 25.3481 17.75 2.71
    endloop
  endfacet
  facet normal 0 0 1
    outer loop
      vertex 24.6784 18.5481 2.71
      vertex 25.4284 19.2981 2.71
      vertex 25 19.5981 2.71
    endloop
  endfacet
  facet normal 0 0 1
    outer loop
      vertex 25.4284 19.2981 2.71
      vertex 24.6784 18.5481 2.71
      vertex 25.0481 18.1784 2.71
    endloop
  endfacet
  facet normal 0 0 1
    outer loop
      vertex 24.25 18.8481 2.71
      vertex 25 19.5981 2.71
      vertex 24.5261 19.8191 2.71
    endloop
  endfacet
  facet normal 0 0 1
    outer loop
      vertex 25 19.5981 2.71
      vertex 24.25 18.8481 2.71
      vertex 24.6784 18.5481 2.71
    endloop
  endfacet
  facet normal 0 0 1
    outer loop
      vertex 23.7761 19.0691 2.71
      vertex 24.5261 19.8191 2.71
      vertex 24.0209 19.9544 2.71
    endloop
  endfacet
  facet normal 0 0 1
    outer loop
      vertex 24.5261 19.8191 2.71
      vertex 23.7761 19.0691 2.71
      vertex 24.25 18.8481 2.71
    endloop
  endfacet
  facet normal 0 0 1
    outer loop
      vertex 23.5 20 2.71
      vertex 23.7761 19.0691 2.71
      vertex 24.0209 19.9544 2.71
    endloop
  endfacet
  facet normal 0 0 1
    outer loop
      vertex 23.5 20 2.71
      vertex 23.2709 19.2044 2.71
      vertex 23.7761 19.0691 2.71
    endloop
  endfacet
  facet normal 0 0 1
    outer loop
      vertex 23.5 20 2.71
      vertex 22.75 19.25 2.71
      vertex 23.2709 19.2044 2.71
    endloop
  endfacet
  facet normal 0 0 1
    outer loop
      vertex 23.5 20 2.71
      vertex -22.75 19.25 2.71
      vertex 22.75 19.25 2.71
    endloop
  endfacet
  facet normal -0 0 1
    outer loop
      vertex -23.5 20 2.71
      vertex -22.75 19.25 2.71
      vertex 23.5 20 2.71
    endloop
  endfacet
  facet normal 0 0 1
    outer loop
      vertex -23.5 20 2.71
      vertex -23.2709 19.2044 2.71
      vertex -22.75 19.25 2.71
    endloop
  endfacet
  facet normal 0 0 1
    outer loop
      vertex -23.5 20 2.71
      vertex -23.7761 19.0691 2.71
      vertex -23.2709 19.2044 2.71
    endloop
  endfacet
  facet normal -0 0 1
    outer loop
      vertex -24.0209 19.9544 2.71
      vertex -23.7761 19.0691 2.71
      vertex -23.5 20 2.71
    endloop
  endfacet
  facet normal -0 0 1
    outer loop
      vertex -24.5261 19.8191 2.71
      vertex -23.7761 19.0691 2.71
      vertex -24.0209 19.9544 2.71
    endloop
  endfacet
  facet normal 0 0 1
    outer loop
      vertex -23.7761 19.0691 2.71
      vertex -24.5261 19.8191 2.71
      vertex -24.25 18.8481 2.71
    endloop
  endfacet
  facet normal -0 0 1
    outer loop
      vertex -25 19.5981 2.71
      vertex -24.25 18.8481 2.71
      vertex -24.5261 19.8191 2.71
    endloop
  endfacet
  facet normal 0 0 1
    outer loop
      vertex -24.25 18.8481 2.71
      vertex -25 19.5981 2.71
      vertex -24.6784 18.5481 2.71
    endloop
  endfacet
  facet normal -0 0 1
    outer loop
      vertex -25.4284 19.2981 2.71
      vertex -24.6784 18.5481 2.71
      vertex -25 19.5981 2.71
    endloop
  endfacet
  facet normal 0 0 1
    outer loop
      vertex -24.6784 18.5481 2.71
      vertex -25.4284 19.2981 2.71
      vertex -25.0481 18.1784 2.71
    endloop
  endfacet
  facet normal -0 0 1
    outer loop
      vertex -25.7981 18.9284 2.71
      vertex -25.0481 18.1784 2.71
      vertex -25.4284 19.2981 2.71
    endloop
  endfacet
  facet normal -0 0 1
    outer loop
      vertex -26.0981 18.5 2.71
      vertex -25.0481 18.1784 2.71
      vertex -25.7981 18.9284 2.71
    endloop
  endfacet
  facet normal 0 0 1
    outer loop
      vertex -25.0481 18.1784 2.71
      vertex -26.0981 18.5 2.71
      vertex -25.3481 17.75 2.71
    endloop
  endfacet
  facet normal -0 0 1
    outer loop
      vertex -26.4544 17.5209 2.71
      vertex -25.5691 17.2761 2.71
      vertex -26.3191 18.0261 2.71
    endloop
  endfacet
  facet normal 0 0 1
    outer loop
      vertex -25.3481 17.75 2.71
      vertex -26.3191 18.0261 2.71
      vertex -25.5691 17.2761 2.71
    endloop
  endfacet
  facet normal -0 0 1
    outer loop
      vertex -26.3191 18.0261 2.71
      vertex -25.3481 17.75 2.71
      vertex -26.0981 18.5 2.71
    endloop
  endfacet
  facet normal 0 0 1
    outer loop
      vertex 26.4544 -17.5209 2.71
      vertex 25.5691 -17.2761 2.71
      vertex 26.3191 -18.0261 2.71
    endloop
  endfacet
  facet normal -0 0 1
    outer loop
      vertex 25.3481 -17.75 2.71
      vertex 26.3191 -18.0261 2.71
      vertex 25.5691 -17.2761 2.71
    endloop
  endfacet
  facet normal 0 0 1
    outer loop
      vertex 26.3191 -18.0261 2.71
      vertex 25.3481 -17.75 2.71
      vertex 26.0981 -18.5 2.71
    endloop
  endfacet
  facet normal -0 0 1
    outer loop
      vertex 25.0481 -18.1784 2.71
      vertex 26.0981 -18.5 2.71
      vertex 25.3481 -17.75 2.71
    endloop
  endfacet
  facet normal 0 0 1
    outer loop
      vertex 26.0981 -18.5 2.71
      vertex 25.0481 -18.1784 2.71
      vertex 25.7981 -18.9284 2.71
    endloop
  endfacet
  facet normal 0 0 1
    outer loop
      vertex 25.7981 -18.9284 2.71
      vertex 25.0481 -18.1784 2.71
      vertex 25.4284 -19.2981 2.71
    endloop
  endfacet
  facet normal -0 0 1
    outer loop
      vertex 24.6784 -18.5481 2.71
      vertex 25.4284 -19.2981 2.71
      vertex 25.0481 -18.1784 2.71
    endloop
  endfacet
  facet normal 0 0 1
    outer loop
      vertex 25.4284 -19.2981 2.71
      vertex 24.6784 -18.5481 2.71
      vertex 25 -19.5981 2.71
    endloop
  endfacet
  facet normal -0 0 1
    outer loop
      vertex 24.25 -18.8481 2.71
      vertex 25 -19.5981 2.71
      vertex 24.6784 -18.5481 2.71
    endloop
  endfacet
  facet normal 0 0 1
    outer loop
      vertex 25 -19.5981 2.71
      vertex 24.25 -18.8481 2.71
      vertex 24.5261 -19.8191 2.71
    endloop
  endfacet
  facet normal -0 0 1
    outer loop
      vertex 23.7761 -19.0691 2.71
      vertex 24.5261 -19.8191 2.71
      vertex 24.25 -18.8481 2.71
    endloop
  endfacet
  facet normal 0 0 1
    outer loop
      vertex 24.5261 -19.8191 2.71
      vertex 23.7761 -19.0691 2.71
      vertex 24.0209 -19.9544 2.71
    endloop
  endfacet
  facet normal 0 0 1
    outer loop
      vertex 23.7761 -19.0691 2.71
      vertex 23.5 -20 2.71
      vertex 24.0209 -19.9544 2.71
    endloop
  endfacet
  facet normal -0 0 1
    outer loop
      vertex 23.2709 -19.2044 2.71
      vertex 23.5 -20 2.71
      vertex 23.7761 -19.0691 2.71
    endloop
  endfacet
  facet normal -0 0 1
    outer loop
      vertex 22.75 -19.25 2.71
      vertex 23.5 -20 2.71
      vertex 23.2709 -19.2044 2.71
    endloop
  endfacet
  facet normal -0 0 1
    outer loop
      vertex -22.75 -19.25 2.71
      vertex 23.5 -20 2.71
      vertex 22.75 -19.25 2.71
    endloop
  endfacet
  facet normal 0 0 1
    outer loop
      vertex -22.75 -19.25 2.71
      vertex -23.5 -20 2.71
      vertex 23.5 -20 2.71
    endloop
  endfacet
  facet normal 0 0 1
    outer loop
      vertex -23.2709 -19.2044 2.71
      vertex -23.5 -20 2.71
      vertex -22.75 -19.25 2.71
    endloop
  endfacet
  facet normal 0 0 1
    outer loop
      vertex -23.7761 -19.0691 2.71
      vertex -23.5 -20 2.71
      vertex -23.2709 -19.2044 2.71
    endloop
  endfacet
  facet normal 0 0 1
    outer loop
      vertex -23.7761 -19.0691 2.71
      vertex -24.0209 -19.9544 2.71
      vertex -23.5 -20 2.71
    endloop
  endfacet
  facet normal 0 0 1
    outer loop
      vertex -24.5261 -19.8191 2.71
      vertex -23.7761 -19.0691 2.71
      vertex -24.25 -18.8481 2.71
    endloop
  endfacet
  facet normal 0 0 1
    outer loop
      vertex -23.7761 -19.0691 2.71
      vertex -24.5261 -19.8191 2.71
      vertex -24.0209 -19.9544 2.71
    endloop
  endfacet
  facet normal 0 0 1
    outer loop
      vertex -25 -19.5981 2.71
      vertex -24.25 -18.8481 2.71
      vertex -24.6784 -18.5481 2.71
    endloop
  endfacet
  facet normal 0 0 1
    outer loop
      vertex -24.25 -18.8481 2.71
      vertex -25 -19.5981 2.71
      vertex -24.5261 -19.8191 2.71
    endloop
  endfacet
  facet normal 0 0 1
    outer loop
      vertex -25.4284 -19.2981 2.71
      vertex -24.6784 -18.5481 2.71
      vertex -25.0481 -18.1784 2.71
    endloop
  endfacet
  facet normal 0 0 1
    outer loop
      vertex -26.0981 -18.5 2.71
      vertex -25.0481 -18.1784 2.71
      vertex -25.3481 -17.75 2.71
    endloop
  endfacet
  facet normal 0 0 1
    outer loop
      vertex -24.6784 -18.5481 2.71
      vertex -25.4284 -19.2981 2.71
      vertex -25 -19.5981 2.71
    endloop
  endfacet
  facet normal 0 0 1
    outer loop
      vertex -26.3191 -18.0261 2.71
      vertex -25.3481 -17.75 2.71
      vertex -25.5691 -17.2761 2.71
    endloop
  endfacet
  facet normal -0 0 1
    outer loop
      vertex -26.5 -17 2.71
      vertex -25.5691 -17.2761 2.71
      vertex -25.7044 -16.7709 2.71
    endloop
  endfacet
  facet normal 0 0 1
    outer loop
      vertex -25.0481 -18.1784 2.71
      vertex -25.7981 -18.9284 2.71
      vertex -25.4284 -19.2981 2.71
    endloop
  endfacet
  facet normal 0 0 1
    outer loop
      vertex -26.5 -17 2.71
      vertex -25.7044 -16.7709 2.71
      vertex -25.75 -16.25 2.71
    endloop
  endfacet
  facet normal 0 0 1
    outer loop
      vertex -25.75 16.25 2.71
      vertex -26.5 17 2.71
      vertex -25.75 -16.25 2.71
    endloop
  endfacet
  facet normal 0 0 1
    outer loop
      vertex -26.5 17 2.71
      vertex -25.5691 17.2761 2.71
      vertex -26.4544 17.5209 2.71
    endloop
  endfacet
  facet normal 0 0 1
    outer loop
      vertex -26.5 -17 2.71
      vertex -25.75 -16.25 2.71
      vertex -26.5 17 2.71
    endloop
  endfacet
  facet normal 0 0 1
    outer loop
      vertex -25.5691 17.2761 2.71
      vertex -26.5 17 2.71
      vertex -25.7044 16.7709 2.71
    endloop
  endfacet
  facet normal 0 0 1
    outer loop
      vertex -25.5691 -17.2761 2.71
      vertex -26.5 -17 2.71
      vertex -26.4544 -17.5209 2.71
    endloop
  endfacet
  facet normal 0 0 1
    outer loop
      vertex -25.7044 16.7709 2.71
      vertex -26.5 17 2.71
      vertex -25.75 16.25 2.71
    endloop
  endfacet
  facet normal 0 0 1
    outer loop
      vertex -25.0481 -18.1784 2.71
      vertex -26.0981 -18.5 2.71
      vertex -25.7981 -18.9284 2.71
    endloop
  endfacet
  facet normal 0 0 1
    outer loop
      vertex -25.3481 -17.75 2.71
      vertex -26.3191 -18.0261 2.71
      vertex -26.0981 -18.5 2.71
    endloop
  endfacet
  facet normal 0 0 1
    outer loop
      vertex -25.5691 -17.2761 2.71
      vertex -26.4544 -17.5209 2.71
      vertex -26.3191 -18.0261 2.71
    endloop
  endfacet
  facet normal -0.99619 -0.0872073 0
    outer loop
      vertex -26.4544 -17.5209 2.5
      vertex -26.5 -17 2.71
      vertex -26.5 -17 2.5
    endloop
  endfacet
  facet normal -0.99619 -0.0872073 0
    outer loop
      vertex -26.5 -17 2.71
      vertex -26.4544 -17.5209 2.5
      vertex -26.4544 -17.5209 2.71
    endloop
  endfacet
  facet normal -0.0872073 -0.99619 0
    outer loop
      vertex -24.0209 -19.9544 2.5
      vertex -23.5 -20 2.71
      vertex -24.0209 -19.9544 2.71
    endloop
  endfacet
  facet normal -0.0872073 -0.99619 -0
    outer loop
      vertex -23.5 -20 2.71
      vertex -24.0209 -19.9544 2.5
      vertex -23.5 -20 2.5
    endloop
  endfacet
  facet normal -0.573616 -0.819124 0
    outer loop
      vertex -25.4284 -19.2981 2.5
      vertex -25 -19.5981 2.71
      vertex -25.4284 -19.2981 2.71
    endloop
  endfacet
  facet normal -0.573616 -0.819124 -0
    outer loop
      vertex -25 -19.5981 2.71
      vertex -25.4284 -19.2981 2.5
      vertex -25 -19.5981 2.5
    endloop
  endfacet
  facet normal -0.707107 -0.707107 0
    outer loop
      vertex -25.4284 -19.2981 2.5
      vertex -25.7981 -18.9284 2.71
      vertex -25.7981 -18.9284 2.5
    endloop
  endfacet
  facet normal -0.707107 -0.707107 0
    outer loop
      vertex -25.7981 -18.9284 2.71
      vertex -25.4284 -19.2981 2.5
      vertex -25.4284 -19.2981 2.71
    endloop
  endfacet
  facet normal -0.819124 -0.573616 0
    outer loop
      vertex -25.7981 -18.9284 2.5
      vertex -26.0981 -18.5 2.71
      vertex -26.0981 -18.5 2.5
    endloop
  endfacet
  facet normal -0.819124 -0.573616 0
    outer loop
      vertex -26.0981 -18.5 2.71
      vertex -25.7981 -18.9284 2.5
      vertex -25.7981 -18.9284 2.71
    endloop
  endfacet
  facet normal -0.0872073 0.99619 0
    outer loop
      vertex -23.5 20 2.5
      vertex -24.0209 19.9544 2.71
      vertex -23.5 20 2.71
    endloop
  endfacet
  facet normal -0.0872073 0.99619 0
    outer loop
      vertex -24.0209 19.9544 2.71
      vertex -23.5 20 2.5
      vertex -24.0209 19.9544 2.5
    endloop
  endfacet
  facet normal -0.965958 0.258698 0
    outer loop
      vertex 25.5691 -17.2761 2.5
      vertex 25.7044 -16.7709 2.71
      vertex 25.7044 -16.7709 2.5
    endloop
  endfacet
  facet normal -0.965958 0.258698 0
    outer loop
      vertex 25.7044 -16.7709 2.71
      vertex 25.5691 -17.2761 2.5
      vertex 25.5691 -17.2761 2.71
    endloop
  endfacet
  facet normal -0.422645 0.906295 0
    outer loop
      vertex 24.25 -18.8481 2.5
      vertex 23.7761 -19.0691 2.71
      vertex 24.25 -18.8481 2.71
    endloop
  endfacet
  facet normal -0.422645 0.906295 0
    outer loop
      vertex 23.7761 -19.0691 2.71
      vertex 24.25 -18.8481 2.5
      vertex 23.7761 -19.0691 2.5
    endloop
  endfacet
  facet normal -0.0872073 0.99619 0
    outer loop
      vertex 23.2709 -19.2044 2.5
      vertex 22.75 -19.25 2.71
      vertex 23.2709 -19.2044 2.71
    endloop
  endfacet
  facet normal -0.0872073 0.99619 0
    outer loop
      vertex 22.75 -19.25 2.71
      vertex 23.2709 -19.2044 2.5
      vertex 22.75 -19.25 2.5
    endloop
  endfacet
  facet normal 0.906295 0.422645 0
    outer loop
      vertex -25.3481 -17.75 2.71
      vertex -25.5691 -17.2761 2.5
      vertex -25.5691 -17.2761 2.71
    endloop
  endfacet
  facet normal 0.906295 0.422645 0
    outer loop
      vertex -25.5691 -17.2761 2.5
      vertex -25.3481 -17.75 2.71
      vertex -25.3481 -17.75 2.5
    endloop
  endfacet
  facet normal 0.965958 -0.258698 0
    outer loop
      vertex -25.7044 16.7709 2.71
      vertex -25.5691 17.2761 2.5
      vertex -25.5691 17.2761 2.71
    endloop
  endfacet
  facet normal 0.965958 -0.258698 0
    outer loop
      vertex -25.5691 17.2761 2.5
      vertex -25.7044 16.7709 2.71
      vertex -25.7044 16.7709 2.5
    endloop
  endfacet
  facet normal 0.573616 -0.819124 0
    outer loop
      vertex -24.6784 18.5481 2.5
      vertex -24.25 18.8481 2.71
      vertex -24.6784 18.5481 2.71
    endloop
  endfacet
  facet normal 0.573616 -0.819124 0
    outer loop
      vertex -24.25 18.8481 2.71
      vertex -24.6784 18.5481 2.5
      vertex -24.25 18.8481 2.5
    endloop
  endfacet
  facet normal -0.819124 -0.573616 0
    outer loop
      vertex 25.3481 17.75 2.5
      vertex 25.0481 18.1784 2.71
      vertex 25.0481 18.1784 2.5
    endloop
  endfacet
  facet normal -0.819124 -0.573616 0
    outer loop
      vertex 25.0481 18.1784 2.71
      vertex 25.3481 17.75 2.5
      vertex 25.3481 17.75 2.71
    endloop
  endfacet
  facet normal 0.422645 -0.906295 0
    outer loop
      vertex -24.25 18.8481 2.5
      vertex -23.7761 19.0691 2.71
      vertex -24.25 18.8481 2.71
    endloop
  endfacet
  facet normal 0.422645 -0.906295 0
    outer loop
      vertex -23.7761 19.0691 2.71
      vertex -24.25 18.8481 2.5
      vertex -23.7761 19.0691 2.5
    endloop
  endfacet
  facet normal -0.258698 0.965958 0
    outer loop
      vertex 23.7761 -19.0691 2.5
      vertex 23.2709 -19.2044 2.71
      vertex 23.7761 -19.0691 2.71
    endloop
  endfacet
  facet normal -0.258698 0.965958 0
    outer loop
      vertex 23.2709 -19.2044 2.71
      vertex 23.7761 -19.0691 2.5
      vertex 23.2709 -19.2044 2.5
    endloop
  endfacet
  facet normal -0.707107 -0.707107 0
    outer loop
      vertex 25.0481 18.1784 2.5
      vertex 24.6784 18.5481 2.71
      vertex 24.6784 18.5481 2.5
    endloop
  endfacet
  facet normal -0.707107 -0.707107 0
    outer loop
      vertex 24.6784 18.5481 2.71
      vertex 25.0481 18.1784 2.5
      vertex 25.0481 18.1784 2.71
    endloop
  endfacet
  facet normal 0.906295 -0.422645 0
    outer loop
      vertex -25.5691 17.2761 2.71
      vertex -25.3481 17.75 2.5
      vertex -25.3481 17.75 2.71
    endloop
  endfacet
  facet normal 0.906295 -0.422645 0
    outer loop
      vertex -25.3481 17.75 2.5
      vertex -25.5691 17.2761 2.71
      vertex -25.5691 17.2761 2.5
    endloop
  endfacet
  facet normal 0.819124 -0.573616 0
    outer loop
      vertex -25.3481 17.75 2.71
      vertex -25.0481 18.1784 2.5
      vertex -25.0481 18.1784 2.71
    endloop
  endfacet
  facet normal 0.819124 -0.573616 0
    outer loop
      vertex -25.0481 18.1784 2.5
      vertex -25.3481 17.75 2.71
      vertex -25.3481 17.75 2.5
    endloop
  endfacet
  facet normal -1 0 0
    outer loop
      vertex 25.75 -16.25 2.5
      vertex 25.75 16.25 2.71
      vertex 25.75 16.25 2.5
    endloop
  endfacet
  facet normal -1 -0 0
    outer loop
      vertex 25.75 16.25 2.71
      vertex 25.75 -16.25 2.5
      vertex 25.75 -16.25 2.71
    endloop
  endfacet
  facet normal 0.258698 -0.965958 0
    outer loop
      vertex -23.7761 19.0691 2.5
      vertex -23.2709 19.2044 2.71
      vertex -23.7761 19.0691 2.71
    endloop
  endfacet
  facet normal 0.258698 -0.965958 0
    outer loop
      vertex -23.2709 19.2044 2.71
      vertex -23.7761 19.0691 2.5
      vertex -23.2709 19.2044 2.5
    endloop
  endfacet
  facet normal -0.906295 0.422645 0
    outer loop
      vertex 25.3481 -17.75 2.5
      vertex 25.5691 -17.2761 2.71
      vertex 25.5691 -17.2761 2.5
    endloop
  endfacet
  facet normal -0.906295 0.422645 0
    outer loop
      vertex 25.5691 -17.2761 2.71
      vertex 25.3481 -17.75 2.5
      vertex 25.3481 -17.75 2.71
    endloop
  endfacet
  facet normal 0.258698 0.965958 -0
    outer loop
      vertex -23.2709 -19.2044 2.5
      vertex -23.7761 -19.0691 2.71
      vertex -23.2709 -19.2044 2.71
    endloop
  endfacet
  facet normal 0.258698 0.965958 0
    outer loop
      vertex -23.7761 -19.0691 2.71
      vertex -23.2709 -19.2044 2.5
      vertex -23.7761 -19.0691 2.5
    endloop
  endfacet
  facet normal 0.707107 -0.707107 0
    outer loop
      vertex -25.0481 18.1784 2.71
      vertex -24.6784 18.5481 2.5
      vertex -24.6784 18.5481 2.71
    endloop
  endfacet
  facet normal 0.707107 -0.707107 0
    outer loop
      vertex -24.6784 18.5481 2.5
      vertex -25.0481 18.1784 2.71
      vertex -25.0481 18.1784 2.5
    endloop
  endfacet
  facet normal 1 -0 0
    outer loop
      vertex -25.75 -16.25 2.71
      vertex -25.75 16.25 2.5
      vertex -25.75 16.25 2.71
    endloop
  endfacet
  facet normal 1 0 0
    outer loop
      vertex -25.75 16.25 2.5
      vertex -25.75 -16.25 2.71
      vertex -25.75 -16.25 2.5
    endloop
  endfacet
  facet normal -0.99619 0.0872073 0
    outer loop
      vertex 25.7044 -16.7709 2.5
      vertex 25.75 -16.25 2.71
      vertex 25.75 -16.25 2.5
    endloop
  endfacet
  facet normal -0.99619 0.0872073 0
    outer loop
      vertex 25.75 -16.25 2.71
      vertex 25.7044 -16.7709 2.5
      vertex 25.7044 -16.7709 2.71
    endloop
  endfacet
  facet normal -0.819124 0.573616 0
    outer loop
      vertex 25.0481 -18.1784 2.5
      vertex 25.3481 -17.75 2.71
      vertex 25.3481 -17.75 2.5
    endloop
  endfacet
  facet normal -0.819124 0.573616 0
    outer loop
      vertex 25.3481 -17.75 2.71
      vertex 25.0481 -18.1784 2.5
      vertex 25.0481 -18.1784 2.71
    endloop
  endfacet
  facet normal 0 -1 0
    outer loop
      vertex -22.75 19.25 2.5
      vertex 22.75 19.25 2.71
      vertex -22.75 19.25 2.71
    endloop
  endfacet
  facet normal 0 -1 -0
    outer loop
      vertex 22.75 19.25 2.71
      vertex -22.75 19.25 2.5
      vertex 22.75 19.25 2.5
    endloop
  endfacet
  facet normal -0.258698 -0.965958 0
    outer loop
      vertex 23.2709 19.2044 2.5
      vertex 23.7761 19.0691 2.71
      vertex 23.2709 19.2044 2.71
    endloop
  endfacet
  facet normal -0.258698 -0.965958 -0
    outer loop
      vertex 23.7761 19.0691 2.71
      vertex 23.2709 19.2044 2.5
      vertex 23.7761 19.0691 2.5
    endloop
  endfacet
  facet normal 0 1 -0
    outer loop
      vertex 22.75 -19.25 2.5
      vertex -22.75 -19.25 2.71
      vertex 22.75 -19.25 2.71
    endloop
  endfacet
  facet normal 0 1 0
    outer loop
      vertex -22.75 -19.25 2.71
      vertex 22.75 -19.25 2.5
      vertex -22.75 -19.25 2.5
    endloop
  endfacet
  facet normal -0.0872073 -0.99619 0
    outer loop
      vertex 22.75 19.25 2.5
      vertex 23.2709 19.2044 2.71
      vertex 22.75 19.25 2.71
    endloop
  endfacet
  facet normal -0.0872073 -0.99619 -0
    outer loop
      vertex 23.2709 19.2044 2.71
      vertex 22.75 19.25 2.5
      vertex 23.2709 19.2044 2.5
    endloop
  endfacet
  facet normal -0.573616 0.819124 0
    outer loop
      vertex 24.6784 -18.5481 2.5
      vertex 24.25 -18.8481 2.71
      vertex 24.6784 -18.5481 2.71
    endloop
  endfacet
  facet normal -0.573616 0.819124 0
    outer loop
      vertex 24.25 -18.8481 2.71
      vertex 24.6784 -18.5481 2.5
      vertex 24.25 -18.8481 2.5
    endloop
  endfacet
  facet normal -0.965958 -0.258698 0
    outer loop
      vertex 25.7044 16.7709 2.5
      vertex 25.5691 17.2761 2.71
      vertex 25.5691 17.2761 2.5
    endloop
  endfacet
  facet normal -0.965958 -0.258698 0
    outer loop
      vertex 25.5691 17.2761 2.71
      vertex 25.7044 16.7709 2.5
      vertex 25.7044 16.7709 2.71
    endloop
  endfacet
  facet normal -0.906295 -0.422645 0
    outer loop
      vertex 25.5691 17.2761 2.5
      vertex 25.3481 17.75 2.71
      vertex 25.3481 17.75 2.5
    endloop
  endfacet
  facet normal -0.906295 -0.422645 0
    outer loop
      vertex 25.3481 17.75 2.71
      vertex 25.5691 17.2761 2.5
      vertex 25.5691 17.2761 2.71
    endloop
  endfacet
  facet normal 0.422645 0.906295 -0
    outer loop
      vertex -23.7761 -19.0691 2.5
      vertex -24.25 -18.8481 2.71
      vertex -23.7761 -19.0691 2.71
    endloop
  endfacet
  facet normal 0.422645 0.906295 0
    outer loop
      vertex -24.25 -18.8481 2.71
      vertex -23.7761 -19.0691 2.5
      vertex -24.25 -18.8481 2.5
    endloop
  endfacet
  facet normal 0.965958 0.258698 0
    outer loop
      vertex -25.5691 -17.2761 2.71
      vertex -25.7044 -16.7709 2.5
      vertex -25.7044 -16.7709 2.71
    endloop
  endfacet
  facet normal 0.965958 0.258698 0
    outer loop
      vertex -25.7044 -16.7709 2.5
      vertex -25.5691 -17.2761 2.71
      vertex -25.5691 -17.2761 2.5
    endloop
  endfacet
  facet normal 0.99619 -0.0872073 0
    outer loop
      vertex -25.75 16.25 2.71
      vertex -25.7044 16.7709 2.5
      vertex -25.7044 16.7709 2.71
    endloop
  endfacet
  facet normal 0.99619 -0.0872073 0
    outer loop
      vertex -25.7044 16.7709 2.5
      vertex -25.75 16.25 2.71
      vertex -25.75 16.25 2.5
    endloop
  endfacet
  facet normal -0.573616 -0.819124 0
    outer loop
      vertex 24.25 18.8481 2.5
      vertex 24.6784 18.5481 2.71
      vertex 24.25 18.8481 2.71
    endloop
  endfacet
  facet normal -0.573616 -0.819124 -0
    outer loop
      vertex 24.6784 18.5481 2.71
      vertex 24.25 18.8481 2.5
      vertex 24.6784 18.5481 2.5
    endloop
  endfacet
  facet normal -0.707107 0.707107 0
    outer loop
      vertex 24.6784 -18.5481 2.5
      vertex 25.0481 -18.1784 2.71
      vertex 25.0481 -18.1784 2.5
    endloop
  endfacet
  facet normal -0.707107 0.707107 0
    outer loop
      vertex 25.0481 -18.1784 2.71
      vertex 24.6784 -18.5481 2.5
      vertex 24.6784 -18.5481 2.71
    endloop
  endfacet
  facet normal -0.99619 -0.0872073 0
    outer loop
      vertex 25.75 16.25 2.5
      vertex 25.7044 16.7709 2.71
      vertex 25.7044 16.7709 2.5
    endloop
  endfacet
  facet normal -0.99619 -0.0872073 0
    outer loop
      vertex 25.7044 16.7709 2.71
      vertex 25.75 16.25 2.5
      vertex 25.75 16.25 2.71
    endloop
  endfacet
  facet normal -0.422645 -0.906295 0
    outer loop
      vertex 23.7761 19.0691 2.5
      vertex 24.25 18.8481 2.71
      vertex 23.7761 19.0691 2.71
    endloop
  endfacet
  facet normal -0.422645 -0.906295 -0
    outer loop
      vertex 24.25 18.8481 2.71
      vertex 23.7761 19.0691 2.5
      vertex 24.25 18.8481 2.5
    endloop
  endfacet
  facet normal 0.99619 0.0872073 0
    outer loop
      vertex -25.7044 -16.7709 2.71
      vertex -25.75 -16.25 2.5
      vertex -25.75 -16.25 2.71
    endloop
  endfacet
  facet normal 0.99619 0.0872073 0
    outer loop
      vertex -25.75 -16.25 2.5
      vertex -25.7044 -16.7709 2.71
      vertex -25.7044 -16.7709 2.5
    endloop
  endfacet
  facet normal 0.0872073 0.99619 -0
    outer loop
      vertex -22.75 -19.25 2.5
      vertex -23.2709 -19.2044 2.71
      vertex -22.75 -19.25 2.71
    endloop
  endfacet
  facet normal 0.0872073 0.99619 0
    outer loop
      vertex -23.2709 -19.2044 2.71
      vertex -22.75 -19.25 2.5
      vertex -23.2709 -19.2044 2.5
    endloop
  endfacet
  facet normal 0.573616 0.819124 -0
    outer loop
      vertex -24.25 -18.8481 2.5
      vertex -24.6784 -18.5481 2.71
      vertex -24.25 -18.8481 2.71
    endloop
  endfacet
  facet normal 0.573616 0.819124 0
    outer loop
      vertex -24.6784 -18.5481 2.71
      vertex -24.25 -18.8481 2.5
      vertex -24.6784 -18.5481 2.5
    endloop
  endfacet
  facet normal 0.707107 0.707107 0
    outer loop
      vertex -24.6784 -18.5481 2.71
      vertex -25.0481 -18.1784 2.5
      vertex -25.0481 -18.1784 2.71
    endloop
  endfacet
  facet normal 0.707107 0.707107 0
    outer loop
      vertex -25.0481 -18.1784 2.5
      vertex -24.6784 -18.5481 2.71
      vertex -24.6784 -18.5481 2.5
    endloop
  endfacet
  facet normal 0.819124 0.573616 0
    outer loop
      vertex -25.0481 -18.1784 2.71
      vertex -25.3481 -17.75 2.5
      vertex -25.3481 -17.75 2.71
    endloop
  endfacet
  facet normal 0.819124 0.573616 0
    outer loop
      vertex -25.3481 -17.75 2.5
      vertex -25.0481 -18.1784 2.71
      vertex -25.0481 -18.1784 2.5
    endloop
  endfacet
  facet normal 0.0872073 -0.99619 0
    outer loop
      vertex -23.2709 19.2044 2.5
      vertex -22.75 19.25 2.71
      vertex -23.2709 19.2044 2.71
    endloop
  endfacet
  facet normal 0.0872073 -0.99619 0
    outer loop
      vertex -22.75 19.25 2.71
      vertex -23.2709 19.2044 2.5
      vertex -22.75 19.25 2.5
    endloop
  endfacet
endsolid OpenSCAD_Model
