solid OpenSCAD_Model
  facet normal 1 -0 0
    outer loop
      vertex 27.5 8.75 20
      vertex 27.5 18.75 0.00499916
      vertex 27.5 18.75 20
    endloop
  endfacet
  facet normal 1 0 0
    outer loop
      vertex 27.5 18.75 0.00499916
      vertex 27.5 8.75 20
      vertex 27.5 8.75 0.00499916
    endloop
  endfacet
  facet normal 0 0 1
    outer loop
      vertex -21.5 18.75 20
      vertex -23.5 15.5 20
      vertex -21.5 15.5 20
    endloop
  endfacet
  facet normal 0 0 1
    outer loop
      vertex -23.5 15.5 20
      vertex -27.5 18.75 20
      vertex -23.5 12 20
    endloop
  endfacet
  facet normal -0 0 1
    outer loop
      vertex -27.5 18.75 20
      vertex -23.5 15.5 20
      vertex -21.5 18.75 20
    endloop
  endfacet
  facet normal -0 0 1
    outer loop
      vertex -23.5 12 20
      vertex -21.5 8.75 20
      vertex -21.5 12 20
    endloop
  endfacet
  facet normal 0 0 1
    outer loop
      vertex -23.5 12 20
      vertex -27.5 8.75 20
      vertex -21.5 8.75 20
    endloop
  endfacet
  facet normal 0 0 1
    outer loop
      vertex -27.5 8.75 20
      vertex -23.5 12 20
      vertex -27.5 18.75 20
    endloop
  endfacet
  facet normal 0 0 1
    outer loop
      vertex 27.5 18.75 20
      vertex 23.5 15.5 20
      vertex 27.5 8.75 20
    endloop
  endfacet
  facet normal -0 0 1
    outer loop
      vertex 21.5 18.75 20
      vertex 23.5 15.5 20
      vertex 27.5 18.75 20
    endloop
  endfacet
  facet normal 0 0 1
    outer loop
      vertex 23.5 15.5 20
      vertex 21.5 18.75 20
      vertex 21.5 15.5 20
    endloop
  endfacet
  facet normal -0 0 1
    outer loop
      vertex 23.5 12 20
      vertex 27.5 8.75 20
      vertex 23.5 15.5 20
    endloop
  endfacet
  facet normal 0 0 1
    outer loop
      vertex 21.5 8.75 20
      vertex 23.5 12 20
      vertex 21.5 12 20
    endloop
  endfacet
  facet normal 0 0 1
    outer loop
      vertex 23.5 12 20
      vertex 21.5 8.75 20
      vertex 27.5 8.75 20
    endloop
  endfacet
  facet normal -1 0 0
    outer loop
      vertex -27.5 8.75 0.00499916
      vertex -27.5 18.75 20
      vertex -27.5 18.75 0.00499916
    endloop
  endfacet
  facet normal -1 -0 0
    outer loop
      vertex -27.5 18.75 20
      vertex -27.5 8.75 0.00499916
      vertex -27.5 8.75 20
    endloop
  endfacet
  facet normal 0 1 0
    outer loop
      vertex -6 18.75 4
      vertex -6 18.75 0.00499916
      vertex -21.5 18.75 4
    endloop
  endfacet
  facet normal 0 1 -0
    outer loop
      vertex -21.5 18.75 4
      vertex -27.5 18.75 20
      vertex -21.5 18.75 20
    endloop
  endfacet
  facet normal 0 1 0
    outer loop
      vertex -21.5 18.75 4
      vertex -27.5 18.75 0.00499916
      vertex -27.5 18.75 20
    endloop
  endfacet
  facet normal 0 1 0
    outer loop
      vertex -27.5 18.75 0.00499916
      vertex -21.5 18.75 4
      vertex -6 18.75 0.00499916
    endloop
  endfacet
  facet normal 0 1 0
    outer loop
      vertex 27.5 18.75 20
      vertex 21.5 18.75 4
      vertex 21.5 18.75 20
    endloop
  endfacet
  facet normal 0 1 -0
    outer loop
      vertex 27.5 18.75 0.00499916
      vertex 21.5 18.75 4
      vertex 27.5 18.75 20
    endloop
  endfacet
  facet normal 0 1 0
    outer loop
      vertex 6 18.75 0.00499916
      vertex 21.5 18.75 4
      vertex 27.5 18.75 0.00499916
    endloop
  endfacet
  facet normal 0 1 0
    outer loop
      vertex 21.5 18.75 4
      vertex 6 18.75 0.00499916
      vertex 6 18.75 4
    endloop
  endfacet
  facet normal 0 -1 0
    outer loop
      vertex -27.5 8.75 20
      vertex -21.5 8.75 4
      vertex -21.5 8.75 20
    endloop
  endfacet
  facet normal 0 -1 0
    outer loop
      vertex -27.5 8.75 0.00499916
      vertex -21.5 8.75 4
      vertex -27.5 8.75 20
    endloop
  endfacet
  facet normal 0 -1 0
    outer loop
      vertex -6 8.75 0.00499916
      vertex -21.5 8.75 4
      vertex -27.5 8.75 0.00499916
    endloop
  endfacet
  facet normal 0 -1 0
    outer loop
      vertex -21.5 8.75 4
      vertex -6 8.75 0.00499916
      vertex -6 8.75 4
    endloop
  endfacet
  facet normal 0 -1 0
    outer loop
      vertex 6 8.75 4
      vertex 6 8.75 0.00499916
      vertex 21.5 8.75 4
    endloop
  endfacet
  facet normal 0 -1 0
    outer loop
      vertex 21.5 8.75 4
      vertex 27.5 8.75 20
      vertex 21.5 8.75 20
    endloop
  endfacet
  facet normal 0 -1 0
    outer loop
      vertex 21.5 8.75 4
      vertex 27.5 8.75 0.00499916
      vertex 27.5 8.75 20
    endloop
  endfacet
  facet normal 0 -1 0
    outer loop
      vertex 27.5 8.75 0.00499916
      vertex 21.5 8.75 4
      vertex 6 8.75 0.00499916
    endloop
  endfacet
  facet normal -1 0 0
    outer loop
      vertex 21.5 15.5 4
      vertex 21.5 18.75 20
      vertex 21.5 18.75 4
    endloop
  endfacet
  facet normal -1 -0 0
    outer loop
      vertex 21.5 18.75 20
      vertex 21.5 15.5 4
      vertex 21.5 15.5 20
    endloop
  endfacet
  facet normal -1 0 0
    outer loop
      vertex 21.5 8.75 4
      vertex 21.5 12 20
      vertex 21.5 12 4
    endloop
  endfacet
  facet normal -1 -0 0
    outer loop
      vertex 21.5 12 20
      vertex 21.5 8.75 4
      vertex 21.5 8.75 20
    endloop
  endfacet
  facet normal -0 0 1
    outer loop
      vertex -21.5 18.75 4
      vertex -6 15.5 4
      vertex -6 18.75 4
    endloop
  endfacet
  facet normal 0 0 1
    outer loop
      vertex -6 15.5 4
      vertex -21.5 18.75 4
      vertex -21.5 15.5 4
    endloop
  endfacet
  facet normal -0 0 1
    outer loop
      vertex 6 18.75 4
      vertex 21.5 15.5 4
      vertex 21.5 18.75 4
    endloop
  endfacet
  facet normal 0 0 1
    outer loop
      vertex 21.5 15.5 4
      vertex 6 18.75 4
      vertex 6 15.5 4
    endloop
  endfacet
  facet normal -0 0 1
    outer loop
      vertex -21.5 12 4
      vertex -6 8.75 4
      vertex -6 12 4
    endloop
  endfacet
  facet normal 0 0 1
    outer loop
      vertex -6 8.75 4
      vertex -21.5 12 4
      vertex -21.5 8.75 4
    endloop
  endfacet
  facet normal -0 0 1
    outer loop
      vertex 6 12 4
      vertex 21.5 8.75 4
      vertex 21.5 12 4
    endloop
  endfacet
  facet normal 0 0 1
    outer loop
      vertex 21.5 8.75 4
      vertex 6 12 4
      vertex 6 8.75 4
    endloop
  endfacet
  facet normal 1 -0 0
    outer loop
      vertex -21.5 15.5 20
      vertex -21.5 18.75 4
      vertex -21.5 18.75 20
    endloop
  endfacet
  facet normal 1 0 0
    outer loop
      vertex -21.5 18.75 4
      vertex -21.5 15.5 20
      vertex -21.5 15.5 4
    endloop
  endfacet
  facet normal 1 -0 0
    outer loop
      vertex -21.5 8.75 20
      vertex -21.5 12 4
      vertex -21.5 12 20
    endloop
  endfacet
  facet normal 1 0 0
    outer loop
      vertex -21.5 12 4
      vertex -21.5 8.75 20
      vertex -21.5 8.75 4
    endloop
  endfacet
  facet normal -1 0 0
    outer loop
      vertex 23.5 12 2
      vertex 23.5 15.5 20
      vertex 23.5 15.5 2
    endloop
  endfacet
  facet normal -1 -0 0
    outer loop
      vertex 23.5 15.5 20
      vertex 23.5 12 2
      vertex 23.5 12 20
    endloop
  endfacet
  facet normal -0 0 1
    outer loop
      vertex 6 15.5 2
      vertex 23.5 12 2
      vertex 23.5 15.5 2
    endloop
  endfacet
  facet normal 0 0 1
    outer loop
      vertex 23.5 12 2
      vertex 6 15.5 2
      vertex 6 12 2
    endloop
  endfacet
  facet normal -0 0 1
    outer loop
      vertex -23.5 15.5 2
      vertex -6 12 2
      vertex -6 15.5 2
    endloop
  endfacet
  facet normal 0 0 1
    outer loop
      vertex -6 12 2
      vertex -23.5 15.5 2
      vertex -23.5 12 2
    endloop
  endfacet
  facet normal 1 -0 0
    outer loop
      vertex -23.5 12 20
      vertex -23.5 15.5 2
      vertex -23.5 15.5 20
    endloop
  endfacet
  facet normal 1 0 0
    outer loop
      vertex -23.5 15.5 2
      vertex -23.5 12 20
      vertex -23.5 12 2
    endloop
  endfacet
  facet normal 0 -1 0
    outer loop
      vertex 6 15.5 4
      vertex 6 15.5 2
      vertex 21.5 15.5 4
    endloop
  endfacet
  facet normal 0 -1 0
    outer loop
      vertex 21.5 15.5 4
      vertex 23.5 15.5 20
      vertex 21.5 15.5 20
    endloop
  endfacet
  facet normal 0 -1 0
    outer loop
      vertex 21.5 15.5 4
      vertex 23.5 15.5 2
      vertex 23.5 15.5 20
    endloop
  endfacet
  facet normal 0 -1 0
    outer loop
      vertex 23.5 15.5 2
      vertex 21.5 15.5 4
      vertex 6 15.5 2
    endloop
  endfacet
  facet normal 0 -1 0
    outer loop
      vertex -23.5 15.5 20
      vertex -21.5 15.5 4
      vertex -21.5 15.5 20
    endloop
  endfacet
  facet normal 0 -1 0
    outer loop
      vertex -23.5 15.5 2
      vertex -21.5 15.5 4
      vertex -23.5 15.5 20
    endloop
  endfacet
  facet normal 0 -1 0
    outer loop
      vertex -6 15.5 2
      vertex -21.5 15.5 4
      vertex -23.5 15.5 2
    endloop
  endfacet
  facet normal 0 -1 0
    outer loop
      vertex -21.5 15.5 4
      vertex -6 15.5 2
      vertex -6 15.5 4
    endloop
  endfacet
  facet normal 0 1 0
    outer loop
      vertex 23.5 12 20
      vertex 21.5 12 4
      vertex 21.5 12 20
    endloop
  endfacet
  facet normal 0 1 -0
    outer loop
      vertex 23.5 12 2
      vertex 21.5 12 4
      vertex 23.5 12 20
    endloop
  endfacet
  facet normal 0 1 0
    outer loop
      vertex 6 12 2
      vertex 21.5 12 4
      vertex 23.5 12 2
    endloop
  endfacet
  facet normal 0 1 0
    outer loop
      vertex 21.5 12 4
      vertex 6 12 2
      vertex 6 12 4
    endloop
  endfacet
  facet normal 0 1 0
    outer loop
      vertex -6 12 4
      vertex -6 12 2
      vertex -21.5 12 4
    endloop
  endfacet
  facet normal 0 1 -0
    outer loop
      vertex -21.5 12 4
      vertex -23.5 12 20
      vertex -21.5 12 20
    endloop
  endfacet
  facet normal 0 1 0
    outer loop
      vertex -21.5 12 4
      vertex -23.5 12 2
      vertex -23.5 12 20
    endloop
  endfacet
  facet normal 0 1 0
    outer loop
      vertex -23.5 12 2
      vertex -21.5 12 4
      vertex -6 12 2
    endloop
  endfacet
  facet normal -1 0 0
    outer loop
      vertex 6 18.75 0.00499916
      vertex 6 15.5 2
      vertex 6 18.75 4
    endloop
  endfacet
  facet normal -1 0 0
    outer loop
      vertex 6 18.75 0.00499916
      vertex 6 12 2
      vertex 6 15.5 2
    endloop
  endfacet
  facet normal -1 0 0
    outer loop
      vertex 6 8.75 0.00499916
      vertex 6 12 2
      vertex 6 18.75 0.00499916
    endloop
  endfacet
  facet normal -1 0 0
    outer loop
      vertex 6 8.75 4
      vertex 6 12 2
      vertex 6 8.75 0.00499916
    endloop
  endfacet
  facet normal -1 0 0
    outer loop
      vertex 6 12 2
      vertex 6 8.75 4
      vertex 6 12 4
    endloop
  endfacet
  facet normal -1 -0 0
    outer loop
      vertex 6 18.75 4
      vertex 6 15.5 2
      vertex 6 15.5 4
    endloop
  endfacet
  facet normal 1 0 0
    outer loop
      vertex -6 12 4
      vertex -6 8.75 4
      vertex -6 12 2
    endloop
  endfacet
  facet normal 1 0 0
    outer loop
      vertex -6 15.5 2
      vertex -6 18.75 4
      vertex -6 15.5 4
    endloop
  endfacet
  facet normal 1 0 0
    outer loop
      vertex -6 18.75 4
      vertex -6 15.5 2
      vertex -6 18.75 0.00499916
    endloop
  endfacet
  facet normal 1 -0 0
    outer loop
      vertex -6 12 2
      vertex -6 18.75 0.00499916
      vertex -6 15.5 2
    endloop
  endfacet
  facet normal 1 0 0
    outer loop
      vertex -6 12 2
      vertex -6 8.75 0.00499916
      vertex -6 18.75 0.00499916
    endloop
  endfacet
  facet normal 1 0 0
    outer loop
      vertex -6 8.75 0.00499916
      vertex -6 12 2
      vertex -6 8.75 4
    endloop
  endfacet
  facet normal -0.707107 0.707107 0
    outer loop
      vertex -38.9284 29.2981 -5
      vertex -39.2981 28.9284 0.00499916
      vertex -38.9284 29.2981 0.00499916
    endloop
  endfacet
  facet normal -0.707107 0.707107 0
    outer loop
      vertex -39.2981 28.9284 0.00499916
      vertex -38.9284 29.2981 -5
      vertex -39.2981 28.9284 -5
    endloop
  endfacet
  facet normal -0.422645 0.906295 0
    outer loop
      vertex -38.0261 29.8191 -5
      vertex -38.5 29.5981 0.00499916
      vertex -38.0261 29.8191 0.00499916
    endloop
  endfacet
  facet normal -0.422645 0.906295 0
    outer loop
      vertex -38.5 29.5981 0.00499916
      vertex -38.0261 29.8191 -5
      vertex -38.5 29.5981 -5
    endloop
  endfacet
  facet normal 1 -0 0
    outer loop
      vertex 40 -27 0.00499916
      vertex 40 27 -5
      vertex 40 27 0.00499916
    endloop
  endfacet
  facet normal 1 0 0
    outer loop
      vertex 40 27 -5
      vertex 40 -27 0.00499916
      vertex 40 -27 -5
    endloop
  endfacet
  facet normal 0.99619 -0.0872073 0
    outer loop
      vertex 39.9544 -27.5209 0.00499916
      vertex 40 -27 -5
      vertex 40 -27 0.00499916
    endloop
  endfacet
  facet normal 0.99619 -0.0872073 0
    outer loop
      vertex 40 -27 -5
      vertex 39.9544 -27.5209 0.00499916
      vertex 39.9544 -27.5209 -5
    endloop
  endfacet
  facet normal -0.965958 -0.258698 0
    outer loop
      vertex -39.8191 -28.0261 -5
      vertex -39.9544 -27.5209 0.00499916
      vertex -39.9544 -27.5209 -5
    endloop
  endfacet
  facet normal -0.965958 -0.258698 0
    outer loop
      vertex -39.9544 -27.5209 0.00499916
      vertex -39.8191 -28.0261 -5
      vertex -39.8191 -28.0261 0.00499916
    endloop
  endfacet
  facet normal 0.965958 0.258698 0
    outer loop
      vertex 39.9544 27.5209 0.00499916
      vertex 39.8191 28.0261 -5
      vertex 39.8191 28.0261 0.00499916
    endloop
  endfacet
  facet normal 0.965958 0.258698 0
    outer loop
      vertex 39.8191 28.0261 -5
      vertex 39.9544 27.5209 0.00499916
      vertex 39.9544 27.5209 -5
    endloop
  endfacet
  facet normal -0.0872073 0.99619 0
    outer loop
      vertex -37 30 -5
      vertex -37.5209 29.9544 0.00499916
      vertex -37 30 0.00499916
    endloop
  endfacet
  facet normal -0.0872073 0.99619 0
    outer loop
      vertex -37.5209 29.9544 0.00499916
      vertex -37 30 -5
      vertex -37.5209 29.9544 -5
    endloop
  endfacet
  facet normal 0.422645 -0.906295 0
    outer loop
      vertex 38.0261 -29.8191 -5
      vertex 38.5 -29.5981 0.00499916
      vertex 38.0261 -29.8191 0.00499916
    endloop
  endfacet
  facet normal 0.422645 -0.906295 0
    outer loop
      vertex 38.5 -29.5981 0.00499916
      vertex 38.0261 -29.8191 -5
      vertex 38.5 -29.5981 -5
    endloop
  endfacet
  facet normal 0 1 -0
    outer loop
      vertex 37 30 -5
      vertex -37 30 0.00499916
      vertex 37 30 0.00499916
    endloop
  endfacet
  facet normal 0 1 0
    outer loop
      vertex -37 30 0.00499916
      vertex 37 30 -5
      vertex -37 30 -5
    endloop
  endfacet
  facet normal -0.965958 0.258698 0
    outer loop
      vertex -39.9544 27.5209 -5
      vertex -39.8191 28.0261 0.00499916
      vertex -39.8191 28.0261 -5
    endloop
  endfacet
  facet normal -0.965958 0.258698 0
    outer loop
      vertex -39.8191 28.0261 0.00499916
      vertex -39.9544 27.5209 -5
      vertex -39.9544 27.5209 0.00499916
    endloop
  endfacet
  facet normal -0.573616 0.819124 0
    outer loop
      vertex -38.5 29.5981 -5
      vertex -38.9284 29.2981 0.00499916
      vertex -38.5 29.5981 0.00499916
    endloop
  endfacet
  facet normal -0.573616 0.819124 0
    outer loop
      vertex -38.9284 29.2981 0.00499916
      vertex -38.5 29.5981 -5
      vertex -38.9284 29.2981 -5
    endloop
  endfacet
  facet normal -0.819124 0.573616 0
    outer loop
      vertex -39.5981 28.5 -5
      vertex -39.2981 28.9284 0.00499916
      vertex -39.2981 28.9284 -5
    endloop
  endfacet
  facet normal -0.819124 0.573616 0
    outer loop
      vertex -39.2981 28.9284 0.00499916
      vertex -39.5981 28.5 -5
      vertex -39.5981 28.5 0.00499916
    endloop
  endfacet
  facet normal 0 -1 0
    outer loop
      vertex -37 -30 -5
      vertex 37 -30 0.00499916
      vertex -37 -30 0.00499916
    endloop
  endfacet
  facet normal 0 -1 -0
    outer loop
      vertex 37 -30 0.00499916
      vertex -37 -30 -5
      vertex 37 -30 -5
    endloop
  endfacet
  facet normal 0.0872073 0.99619 -0
    outer loop
      vertex 37.5209 29.9544 -5
      vertex 37 30 0.00499916
      vertex 37.5209 29.9544 0.00499916
    endloop
  endfacet
  facet normal 0.0872073 0.99619 0
    outer loop
      vertex 37 30 0.00499916
      vertex 37.5209 29.9544 -5
      vertex 37 30 -5
    endloop
  endfacet
  facet normal 0.819124 0.573616 0
    outer loop
      vertex 39.5981 28.5 0.00499916
      vertex 39.2981 28.9284 -5
      vertex 39.2981 28.9284 0.00499916
    endloop
  endfacet
  facet normal 0.819124 0.573616 0
    outer loop
      vertex 39.2981 28.9284 -5
      vertex 39.5981 28.5 0.00499916
      vertex 39.5981 28.5 -5
    endloop
  endfacet
  facet normal -0.258698 -0.965958 0
    outer loop
      vertex -38.0261 -29.8191 -5
      vertex -37.5209 -29.9544 0.00499916
      vertex -38.0261 -29.8191 0.00499916
    endloop
  endfacet
  facet normal -0.258698 -0.965958 -0
    outer loop
      vertex -37.5209 -29.9544 0.00499916
      vertex -38.0261 -29.8191 -5
      vertex -37.5209 -29.9544 -5
    endloop
  endfacet
  facet normal 0.422645 0.906295 -0
    outer loop
      vertex 38.5 29.5981 -5
      vertex 38.0261 29.8191 0.00499916
      vertex 38.5 29.5981 0.00499916
    endloop
  endfacet
  facet normal 0.422645 0.906295 0
    outer loop
      vertex 38.0261 29.8191 0.00499916
      vertex 38.5 29.5981 -5
      vertex 38.0261 29.8191 -5
    endloop
  endfacet
  facet normal 0.906295 -0.422645 0
    outer loop
      vertex 39.5981 -28.5 0.00499916
      vertex 39.8191 -28.0261 -5
      vertex 39.8191 -28.0261 0.00499916
    endloop
  endfacet
  facet normal 0.906295 -0.422645 0
    outer loop
      vertex 39.8191 -28.0261 -5
      vertex 39.5981 -28.5 0.00499916
      vertex 39.5981 -28.5 -5
    endloop
  endfacet
  facet normal -0.0872073 -0.99619 0
    outer loop
      vertex -37.5209 -29.9544 -5
      vertex -37 -30 0.00499916
      vertex -37.5209 -29.9544 0.00499916
    endloop
  endfacet
  facet normal -0.0872073 -0.99619 -0
    outer loop
      vertex -37 -30 0.00499916
      vertex -37.5209 -29.9544 -5
      vertex -37 -30 -5
    endloop
  endfacet
  facet normal -0.573616 -0.819124 0
    outer loop
      vertex -38.9284 -29.2981 -5
      vertex -38.5 -29.5981 0.00499916
      vertex -38.9284 -29.2981 0.00499916
    endloop
  endfacet
  facet normal -0.573616 -0.819124 -0
    outer loop
      vertex -38.5 -29.5981 0.00499916
      vertex -38.9284 -29.2981 -5
      vertex -38.5 -29.5981 -5
    endloop
  endfacet
  facet normal -0.906295 0.422645 0
    outer loop
      vertex -39.8191 28.0261 -5
      vertex -39.5981 28.5 0.00499916
      vertex -39.5981 28.5 -5
    endloop
  endfacet
  facet normal -0.906295 0.422645 0
    outer loop
      vertex -39.5981 28.5 0.00499916
      vertex -39.8191 28.0261 -5
      vertex -39.8191 28.0261 0.00499916
    endloop
  endfacet
  facet normal -1 0 0
    outer loop
      vertex -40 -27 -5
      vertex -40 27 0.00499916
      vertex -40 27 -5
    endloop
  endfacet
  facet normal -1 -0 0
    outer loop
      vertex -40 27 0.00499916
      vertex -40 -27 -5
      vertex -40 -27 0.00499916
    endloop
  endfacet
  facet normal -0.99619 0.0872073 0
    outer loop
      vertex -40 27 -5
      vertex -39.9544 27.5209 0.00499916
      vertex -39.9544 27.5209 -5
    endloop
  endfacet
  facet normal -0.99619 0.0872073 0
    outer loop
      vertex -39.9544 27.5209 0.00499916
      vertex -40 27 -5
      vertex -40 27 0.00499916
    endloop
  endfacet
  facet normal -0.258698 0.965958 0
    outer loop
      vertex -37.5209 29.9544 -5
      vertex -38.0261 29.8191 0.00499916
      vertex -37.5209 29.9544 0.00499916
    endloop
  endfacet
  facet normal -0.258698 0.965958 0
    outer loop
      vertex -38.0261 29.8191 0.00499916
      vertex -37.5209 29.9544 -5
      vertex -38.0261 29.8191 -5
    endloop
  endfacet
  facet normal 0.573616 0.819124 -0
    outer loop
      vertex 38.9284 29.2981 -5
      vertex 38.5 29.5981 0.00499916
      vertex 38.9284 29.2981 0.00499916
    endloop
  endfacet
  facet normal 0.573616 0.819124 0
    outer loop
      vertex 38.5 29.5981 0.00499916
      vertex 38.9284 29.2981 -5
      vertex 38.5 29.5981 -5
    endloop
  endfacet
  facet normal 0.0872073 -0.99619 0
    outer loop
      vertex 37 -30 -5
      vertex 37.5209 -29.9544 0.00499916
      vertex 37 -30 0.00499916
    endloop
  endfacet
  facet normal 0.0872073 -0.99619 0
    outer loop
      vertex 37.5209 -29.9544 0.00499916
      vertex 37 -30 -5
      vertex 37.5209 -29.9544 -5
    endloop
  endfacet
  facet normal -0.819124 -0.573616 0
    outer loop
      vertex -39.2981 -28.9284 -5
      vertex -39.5981 -28.5 0.00499916
      vertex -39.5981 -28.5 -5
    endloop
  endfacet
  facet normal -0.819124 -0.573616 0
    outer loop
      vertex -39.5981 -28.5 0.00499916
      vertex -39.2981 -28.9284 -5
      vertex -39.2981 -28.9284 0.00499916
    endloop
  endfacet
  facet normal -0.906295 -0.422645 0
    outer loop
      vertex -39.5981 -28.5 -5
      vertex -39.8191 -28.0261 0.00499916
      vertex -39.8191 -28.0261 -5
    endloop
  endfacet
  facet normal -0.906295 -0.422645 0
    outer loop
      vertex -39.8191 -28.0261 0.00499916
      vertex -39.5981 -28.5 -5
      vertex -39.5981 -28.5 0.00499916
    endloop
  endfacet
  facet normal 0.258698 -0.965958 0
    outer loop
      vertex 37.5209 -29.9544 -5
      vertex 38.0261 -29.8191 0.00499916
      vertex 37.5209 -29.9544 0.00499916
    endloop
  endfacet
  facet normal 0.258698 -0.965958 0
    outer loop
      vertex 38.0261 -29.8191 0.00499916
      vertex 37.5209 -29.9544 -5
      vertex 38.0261 -29.8191 -5
    endloop
  endfacet
  facet normal 0.99619 0.0872073 0
    outer loop
      vertex 40 27 0.00499916
      vertex 39.9544 27.5209 -5
      vertex 39.9544 27.5209 0.00499916
    endloop
  endfacet
  facet normal 0.99619 0.0872073 0
    outer loop
      vertex 39.9544 27.5209 -5
      vertex 40 27 0.00499916
      vertex 40 27 -5
    endloop
  endfacet
  facet normal 0.573616 -0.819124 0
    outer loop
      vertex 38.5 -29.5981 -5
      vertex 38.9284 -29.2981 0.00499916
      vertex 38.5 -29.5981 0.00499916
    endloop
  endfacet
  facet normal 0.573616 -0.819124 0
    outer loop
      vertex 38.9284 -29.2981 0.00499916
      vertex 38.5 -29.5981 -5
      vertex 38.9284 -29.2981 -5
    endloop
  endfacet
  facet normal -0.422645 -0.906295 0
    outer loop
      vertex -38.5 -29.5981 -5
      vertex -38.0261 -29.8191 0.00499916
      vertex -38.5 -29.5981 0.00499916
    endloop
  endfacet
  facet normal -0.422645 -0.906295 -0
    outer loop
      vertex -38.0261 -29.8191 0.00499916
      vertex -38.5 -29.5981 -5
      vertex -38.0261 -29.8191 -5
    endloop
  endfacet
  facet normal 0.965958 -0.258698 0
    outer loop
      vertex 39.8191 -28.0261 0.00499916
      vertex 39.9544 -27.5209 -5
      vertex 39.9544 -27.5209 0.00499916
    endloop
  endfacet
  facet normal 0.965958 -0.258698 0
    outer loop
      vertex 39.9544 -27.5209 -5
      vertex 39.8191 -28.0261 0.00499916
      vertex 39.8191 -28.0261 -5
    endloop
  endfacet
  facet normal 0.906295 0.422645 0
    outer loop
      vertex 39.8191 28.0261 0.00499916
      vertex 39.5981 28.5 -5
      vertex 39.5981 28.5 0.00499916
    endloop
  endfacet
  facet normal 0.906295 0.422645 0
    outer loop
      vertex 39.5981 28.5 -5
      vertex 39.8191 28.0261 0.00499916
      vertex 39.8191 28.0261 -5
    endloop
  endfacet
  facet normal 0.258698 0.965958 -0
    outer loop
      vertex 38.0261 29.8191 -5
      vertex 37.5209 29.9544 0.00499916
      vertex 38.0261 29.8191 0.00499916
    endloop
  endfacet
  facet normal 0.258698 0.965958 0
    outer loop
      vertex 37.5209 29.9544 0.00499916
      vertex 38.0261 29.8191 -5
      vertex 37.5209 29.9544 -5
    endloop
  endfacet
  facet normal 0 0 -1
    outer loop
      vertex 37 -30 -5
      vertex 40 -27 -5
      vertex 39.9544 -27.5209 -5
    endloop
  endfacet
  facet normal -0 0 -1
    outer loop
      vertex 40 -27 -5
      vertex 37 -30 -5
      vertex 40 27 -5
    endloop
  endfacet
  facet normal 0 0 -1
    outer loop
      vertex 37 -30 -5
      vertex 39.9544 -27.5209 -5
      vertex 39.8191 -28.0261 -5
    endloop
  endfacet
  facet normal 0 0 -1
    outer loop
      vertex 37 30 -5
      vertex 40 27 -5
      vertex 37 -30 -5
    endloop
  endfacet
  facet normal 0 0 -1
    outer loop
      vertex 37 -30 -5
      vertex 39.8191 -28.0261 -5
      vertex 39.5981 -28.5 -5
    endloop
  endfacet
  facet normal 0 0 -1
    outer loop
      vertex 40 27 -5
      vertex 37 30 -5
      vertex 39.9544 27.5209 -5
    endloop
  endfacet
  facet normal 0 0 -1
    outer loop
      vertex 37 -30 -5
      vertex 39.5981 -28.5 -5
      vertex 39.2981 -28.9284 -5
    endloop
  endfacet
  facet normal 0 0 -1
    outer loop
      vertex 39.9544 27.5209 -5
      vertex 37 30 -5
      vertex 39.8191 28.0261 -5
    endloop
  endfacet
  facet normal 0 0 -1
    outer loop
      vertex 37 -30 -5
      vertex 39.2981 -28.9284 -5
      vertex 38.9284 -29.2981 -5
    endloop
  endfacet
  facet normal 0 0 -1
    outer loop
      vertex 39.8191 28.0261 -5
      vertex 37 30 -5
      vertex 39.5981 28.5 -5
    endloop
  endfacet
  facet normal 0 0 -1
    outer loop
      vertex 37 -30 -5
      vertex 38.9284 -29.2981 -5
      vertex 38.5 -29.5981 -5
    endloop
  endfacet
  facet normal 0 0 -1
    outer loop
      vertex 39.5981 28.5 -5
      vertex 37 30 -5
      vertex 39.2981 28.9284 -5
    endloop
  endfacet
  facet normal 0 0 -1
    outer loop
      vertex 37 -30 -5
      vertex 38.5 -29.5981 -5
      vertex 38.0261 -29.8191 -5
    endloop
  endfacet
  facet normal 0 0 -1
    outer loop
      vertex 39.2981 28.9284 -5
      vertex 37 30 -5
      vertex 38.9284 29.2981 -5
    endloop
  endfacet
  facet normal 0 0 -1
    outer loop
      vertex 37 -30 -5
      vertex 38.0261 -29.8191 -5
      vertex 37.5209 -29.9544 -5
    endloop
  endfacet
  facet normal 0 0 -1
    outer loop
      vertex 38.9284 29.2981 -5
      vertex 37 30 -5
      vertex 38.5 29.5981 -5
    endloop
  endfacet
  facet normal 0 0 -1
    outer loop
      vertex 38.5 29.5981 -5
      vertex 37 30 -5
      vertex 38.0261 29.8191 -5
    endloop
  endfacet
  facet normal 0 0 -1
    outer loop
      vertex 38.0261 29.8191 -5
      vertex 37 30 -5
      vertex 37.5209 29.9544 -5
    endloop
  endfacet
  facet normal 0 0 -1
    outer loop
      vertex -37 -30 -5
      vertex 37 30 -5
      vertex 37 -30 -5
    endloop
  endfacet
  facet normal 0 0 -1
    outer loop
      vertex -37 -30 -5
      vertex -37 30 -5
      vertex 37 30 -5
    endloop
  endfacet
  facet normal 0 0 -1
    outer loop
      vertex -40 -27 -5
      vertex -37 -30 -5
      vertex -37.5209 -29.9544 -5
    endloop
  endfacet
  facet normal 0 0 -1
    outer loop
      vertex -37 -30 -5
      vertex -40 -27 -5
      vertex -37 30 -5
    endloop
  endfacet
  facet normal 0 0 -1
    outer loop
      vertex -40 -27 -5
      vertex -37.5209 -29.9544 -5
      vertex -38.0261 -29.8191 -5
    endloop
  endfacet
  facet normal 0 0 -1
    outer loop
      vertex -40 27 -5
      vertex -37 30 -5
      vertex -40 -27 -5
    endloop
  endfacet
  facet normal 0 0 -1
    outer loop
      vertex -40 -27 -5
      vertex -38.0261 -29.8191 -5
      vertex -38.5 -29.5981 -5
    endloop
  endfacet
  facet normal 0 0 -1
    outer loop
      vertex -37 30 -5
      vertex -40 27 -5
      vertex -37.5209 29.9544 -5
    endloop
  endfacet
  facet normal 0 0 -1
    outer loop
      vertex -40 -27 -5
      vertex -38.5 -29.5981 -5
      vertex -38.9284 -29.2981 -5
    endloop
  endfacet
  facet normal 0 0 -1
    outer loop
      vertex -37.5209 29.9544 -5
      vertex -40 27 -5
      vertex -38.0261 29.8191 -5
    endloop
  endfacet
  facet normal 0 0 -1
    outer loop
      vertex -40 -27 -5
      vertex -38.9284 -29.2981 -5
      vertex -39.2981 -28.9284 -5
    endloop
  endfacet
  facet normal 0 0 -1
    outer loop
      vertex -38.0261 29.8191 -5
      vertex -40 27 -5
      vertex -38.5 29.5981 -5
    endloop
  endfacet
  facet normal 0 0 -1
    outer loop
      vertex -40 -27 -5
      vertex -39.2981 -28.9284 -5
      vertex -39.5981 -28.5 -5
    endloop
  endfacet
  facet normal 0 0 -1
    outer loop
      vertex -38.5 29.5981 -5
      vertex -40 27 -5
      vertex -38.9284 29.2981 -5
    endloop
  endfacet
  facet normal 0 0 -1
    outer loop
      vertex -40 -27 -5
      vertex -39.5981 -28.5 -5
      vertex -39.8191 -28.0261 -5
    endloop
  endfacet
  facet normal 0 0 -1
    outer loop
      vertex -38.9284 29.2981 -5
      vertex -40 27 -5
      vertex -39.2981 28.9284 -5
    endloop
  endfacet
  facet normal 0 0 -1
    outer loop
      vertex -40 -27 -5
      vertex -39.8191 -28.0261 -5
      vertex -39.9544 -27.5209 -5
    endloop
  endfacet
  facet normal 0 0 -1
    outer loop
      vertex -39.2981 28.9284 -5
      vertex -40 27 -5
      vertex -39.5981 28.5 -5
    endloop
  endfacet
  facet normal 0 0 -1
    outer loop
      vertex -39.5981 28.5 -5
      vertex -40 27 -5
      vertex -39.8191 28.0261 -5
    endloop
  endfacet
  facet normal 0 0 -1
    outer loop
      vertex -39.8191 28.0261 -5
      vertex -40 27 -5
      vertex -39.9544 27.5209 -5
    endloop
  endfacet
  facet normal 0.707107 0.707107 -0
    outer loop
      vertex 39.2981 28.9284 -5
      vertex 38.9284 29.2981 0.00499916
      vertex 39.2981 28.9284 0.00499916
    endloop
  endfacet
  facet normal 0.707107 0.707107 0
    outer loop
      vertex 38.9284 29.2981 0.00499916
      vertex 39.2981 28.9284 -5
      vertex 38.9284 29.2981 -5
    endloop
  endfacet
  facet normal -0.99619 -0.0872073 0
    outer loop
      vertex -39.9544 -27.5209 -5
      vertex -40 -27 0.00499916
      vertex -40 -27 -5
    endloop
  endfacet
  facet normal -0.99619 -0.0872073 0
    outer loop
      vertex -40 -27 0.00499916
      vertex -39.9544 -27.5209 -5
      vertex -39.9544 -27.5209 0.00499916
    endloop
  endfacet
  facet normal -0.707107 -0.707107 0
    outer loop
      vertex -39.2981 -28.9284 -5
      vertex -38.9284 -29.2981 0.00499916
      vertex -39.2981 -28.9284 0.00499916
    endloop
  endfacet
  facet normal -0.707107 -0.707107 -0
    outer loop
      vertex -38.9284 -29.2981 0.00499916
      vertex -39.2981 -28.9284 -5
      vertex -38.9284 -29.2981 -5
    endloop
  endfacet
  facet normal 0.707107 -0.707107 0
    outer loop
      vertex 38.9284 -29.2981 -5
      vertex 39.2981 -28.9284 0.00499916
      vertex 38.9284 -29.2981 0.00499916
    endloop
  endfacet
  facet normal 0.707107 -0.707107 0
    outer loop
      vertex 39.2981 -28.9284 0.00499916
      vertex 38.9284 -29.2981 -5
      vertex 39.2981 -28.9284 -5
    endloop
  endfacet
  facet normal 0.819124 -0.573616 0
    outer loop
      vertex 39.2981 -28.9284 0.00499916
      vertex 39.5981 -28.5 -5
      vertex 39.5981 -28.5 0.00499916
    endloop
  endfacet
  facet normal 0.819124 -0.573616 0
    outer loop
      vertex 39.5981 -28.5 -5
      vertex 39.2981 -28.9284 0.00499916
      vertex 39.2981 -28.9284 -5
    endloop
  endfacet
  facet normal 0 0 1
    outer loop
      vertex 37 30 0.00499916
      vertex 40 27 0.00499916
      vertex 39.9544 27.5209 0.00499916
    endloop
  endfacet
  facet normal 0 0 1
    outer loop
      vertex 40 27 0.00499916
      vertex 27.5 8.75 0.00499916
      vertex 40 -27 0.00499916
    endloop
  endfacet
  facet normal 0 0 1
    outer loop
      vertex 37 30 0.00499916
      vertex 39.9544 27.5209 0.00499916
      vertex 39.8191 28.0261 0.00499916
    endloop
  endfacet
  facet normal 0 -0 1
    outer loop
      vertex 37 -30 0.00499916
      vertex 40 -27 0.00499916
      vertex 27.5 8.75 0.00499916
    endloop
  endfacet
  facet normal 0 0 1
    outer loop
      vertex 37 30 0.00499916
      vertex 39.8191 28.0261 0.00499916
      vertex 39.5981 28.5 0.00499916
    endloop
  endfacet
  facet normal 0 0 1
    outer loop
      vertex 40 -27 0.00499916
      vertex 37 -30 0.00499916
      vertex 39.9544 -27.5209 0.00499916
    endloop
  endfacet
  facet normal 0 0 1
    outer loop
      vertex 37 30 0.00499916
      vertex 39.5981 28.5 0.00499916
      vertex 39.2981 28.9284 0.00499916
    endloop
  endfacet
  facet normal 0 0 1
    outer loop
      vertex 39.9544 -27.5209 0.00499916
      vertex 37 -30 0.00499916
      vertex 39.8191 -28.0261 0.00499916
    endloop
  endfacet
  facet normal 0 0 1
    outer loop
      vertex 37 30 0.00499916
      vertex 39.2981 28.9284 0.00499916
      vertex 38.9284 29.2981 0.00499916
    endloop
  endfacet
  facet normal 0 0 1
    outer loop
      vertex 39.8191 -28.0261 0.00499916
      vertex 37 -30 0.00499916
      vertex 39.5981 -28.5 0.00499916
    endloop
  endfacet
  facet normal 0 0 1
    outer loop
      vertex 37 30 0.00499916
      vertex 38.9284 29.2981 0.00499916
      vertex 38.5 29.5981 0.00499916
    endloop
  endfacet
  facet normal 0 0 1
    outer loop
      vertex 39.5981 -28.5 0.00499916
      vertex 37 -30 0.00499916
      vertex 39.2981 -28.9284 0.00499916
    endloop
  endfacet
  facet normal 0 0 1
    outer loop
      vertex 37 30 0.00499916
      vertex 38.5 29.5981 0.00499916
      vertex 38.0261 29.8191 0.00499916
    endloop
  endfacet
  facet normal 0 0 1
    outer loop
      vertex 39.2981 -28.9284 0.00499916
      vertex 37 -30 0.00499916
      vertex 38.9284 -29.2981 0.00499916
    endloop
  endfacet
  facet normal 0 0 1
    outer loop
      vertex 37 30 0.00499916
      vertex 38.0261 29.8191 0.00499916
      vertex 37.5209 29.9544 0.00499916
    endloop
  endfacet
  facet normal 0 0 1
    outer loop
      vertex 38.9284 -29.2981 0.00499916
      vertex 37 -30 0.00499916
      vertex 38.5 -29.5981 0.00499916
    endloop
  endfacet
  facet normal 0 0 1
    outer loop
      vertex 40 27 0.00499916
      vertex 37 30 0.00499916
      vertex 27.5 18.75 0.00499916
    endloop
  endfacet
  facet normal 0 0 1
    outer loop
      vertex 38.5 -29.5981 0.00499916
      vertex 37 -30 0.00499916
      vertex 38.0261 -29.8191 0.00499916
    endloop
  endfacet
  facet normal 0 0 1
    outer loop
      vertex 40 27 0.00499916
      vertex 27.5 18.75 0.00499916
      vertex 27.5 8.75 0.00499916
    endloop
  endfacet
  facet normal 0 0 1
    outer loop
      vertex 37 30 0.00499916
      vertex 6 18.75 0.00499916
      vertex 27.5 18.75 0.00499916
    endloop
  endfacet
  facet normal 0 0 1
    outer loop
      vertex 6 18.75 0.00499916
      vertex -6 18.75 0.00499916
      vertex 6 8.75 0.00499916
    endloop
  endfacet
  facet normal 0 0 1
    outer loop
      vertex 37 30 0.00499916
      vertex -6 18.75 0.00499916
      vertex 6 18.75 0.00499916
    endloop
  endfacet
  facet normal -0 0 1
    outer loop
      vertex -37 30 0.00499916
      vertex -6 18.75 0.00499916
      vertex 37 30 0.00499916
    endloop
  endfacet
  facet normal -0 0 1
    outer loop
      vertex -40 27 0.00499916
      vertex -27.5 18.75 0.00499916
      vertex -37 30 0.00499916
    endloop
  endfacet
  facet normal 0 0 1
    outer loop
      vertex -6 18.75 0.00499916
      vertex -37 30 0.00499916
      vertex -27.5 18.75 0.00499916
    endloop
  endfacet
  facet normal 0 0 1
    outer loop
      vertex 38.0261 -29.8191 0.00499916
      vertex 37 -30 0.00499916
      vertex 37.5209 -29.9544 0.00499916
    endloop
  endfacet
  facet normal -0 0 1
    outer loop
      vertex 6 8.75 0.00499916
      vertex 37 -30 0.00499916
      vertex 27.5 8.75 0.00499916
    endloop
  endfacet
  facet normal 0 0 1
    outer loop
      vertex -6 8.75 0.00499916
      vertex 6 8.75 0.00499916
      vertex -6 18.75 0.00499916
    endloop
  endfacet
  facet normal 0 0 1
    outer loop
      vertex 6 8.75 0.00499916
      vertex -6 8.75 0.00499916
      vertex 37 -30 0.00499916
    endloop
  endfacet
  facet normal 0 0 1
    outer loop
      vertex -37 -30 0.00499916
      vertex -6 8.75 0.00499916
      vertex -27.5 8.75 0.00499916
    endloop
  endfacet
  facet normal 0 0 1
    outer loop
      vertex -6 8.75 0.00499916
      vertex -37 -30 0.00499916
      vertex 37 -30 0.00499916
    endloop
  endfacet
  facet normal 0 0 1
    outer loop
      vertex -27.5 18.75 0.00499916
      vertex -40 27 0.00499916
      vertex -27.5 8.75 0.00499916
    endloop
  endfacet
  facet normal 0 0 1
    outer loop
      vertex -40 27 0.00499916
      vertex -37 30 0.00499916
      vertex -37.5209 29.9544 0.00499916
    endloop
  endfacet
  facet normal 0 0 1
    outer loop
      vertex -40 -27 0.00499916
      vertex -27.5 8.75 0.00499916
      vertex -40 27 0.00499916
    endloop
  endfacet
  facet normal 0 0 1
    outer loop
      vertex -40 27 0.00499916
      vertex -37.5209 29.9544 0.00499916
      vertex -38.0261 29.8191 0.00499916
    endloop
  endfacet
  facet normal 0 0 1
    outer loop
      vertex -27.5 8.75 0.00499916
      vertex -40 -27 0.00499916
      vertex -37 -30 0.00499916
    endloop
  endfacet
  facet normal 0 0 1
    outer loop
      vertex -40 27 0.00499916
      vertex -38.0261 29.8191 0.00499916
      vertex -38.5 29.5981 0.00499916
    endloop
  endfacet
  facet normal 0 0 1
    outer loop
      vertex -37 -30 0.00499916
      vertex -40 -27 0.00499916
      vertex -37.5209 -29.9544 0.00499916
    endloop
  endfacet
  facet normal 0 0 1
    outer loop
      vertex -40 27 0.00499916
      vertex -38.5 29.5981 0.00499916
      vertex -38.9284 29.2981 0.00499916
    endloop
  endfacet
  facet normal 0 0 1
    outer loop
      vertex -37.5209 -29.9544 0.00499916
      vertex -40 -27 0.00499916
      vertex -38.0261 -29.8191 0.00499916
    endloop
  endfacet
  facet normal 0 0 1
    outer loop
      vertex -40 27 0.00499916
      vertex -38.9284 29.2981 0.00499916
      vertex -39.2981 28.9284 0.00499916
    endloop
  endfacet
  facet normal 0 0 1
    outer loop
      vertex -38.0261 -29.8191 0.00499916
      vertex -40 -27 0.00499916
      vertex -38.5 -29.5981 0.00499916
    endloop
  endfacet
  facet normal 0 0 1
    outer loop
      vertex -40 27 0.00499916
      vertex -39.2981 28.9284 0.00499916
      vertex -39.5981 28.5 0.00499916
    endloop
  endfacet
  facet normal 0 0 1
    outer loop
      vertex -38.5 -29.5981 0.00499916
      vertex -40 -27 0.00499916
      vertex -38.9284 -29.2981 0.00499916
    endloop
  endfacet
  facet normal 0 0 1
    outer loop
      vertex -40 27 0.00499916
      vertex -39.5981 28.5 0.00499916
      vertex -39.8191 28.0261 0.00499916
    endloop
  endfacet
  facet normal 0 0 1
    outer loop
      vertex -38.9284 -29.2981 0.00499916
      vertex -40 -27 0.00499916
      vertex -39.2981 -28.9284 0.00499916
    endloop
  endfacet
  facet normal 0 0 1
    outer loop
      vertex -40 27 0.00499916
      vertex -39.8191 28.0261 0.00499916
      vertex -39.9544 27.5209 0.00499916
    endloop
  endfacet
  facet normal 0 0 1
    outer loop
      vertex -39.2981 -28.9284 0.00499916
      vertex -40 -27 0.00499916
      vertex -39.5981 -28.5 0.00499916
    endloop
  endfacet
  facet normal 0 0 1
    outer loop
      vertex -39.5981 -28.5 0.00499916
      vertex -40 -27 0.00499916
      vertex -39.8191 -28.0261 0.00499916
    endloop
  endfacet
  facet normal 0 0 1
    outer loop
      vertex -39.8191 -28.0261 0.00499916
      vertex -40 -27 0.00499916
      vertex -39.9544 -27.5209 0.00499916
    endloop
  endfacet
endsolid OpenSCAD_Model
