solid OpenSCAD_Model
  facet normal 0 -1 0
    outer loop
      vertex -8.5 -11.5 2.5
      vertex 8.5 -11.5 2.71
      vertex -8.5 -11.5 2.71
    endloop
  endfacet
  facet normal 0 -1 -0
    outer loop
      vertex 8.5 -11.5 2.71
      vertex -8.5 -11.5 2.5
      vertex 8.5 -11.5 2.5
    endloop
  endfacet
  facet normal 0 1 -0
    outer loop
      vertex 8.5 11.5 2.5
      vertex -8.5 11.5 2.71
      vertex 8.5 11.5 2.71
    endloop
  endfacet
  facet normal 0 1 0
    outer loop
      vertex -8.5 11.5 2.71
      vertex 8.5 11.5 2.5
      vertex -8.5 11.5 2.5
    endloop
  endfacet
  facet normal -0.906309 -0.422615 0
    outer loop
      vertex -11.0981 -10 2.5
      vertex -11.3191 -9.52606 2.71
      vertex -11.3191 -9.52606 2.5
    endloop
  endfacet
  facet normal -0.906309 -0.422615 0
    outer loop
      vertex -11.3191 -9.52606 2.71
      vertex -11.0981 -10 2.5
      vertex -11.0981 -10 2.71
    endloop
  endfacet
  facet normal 0.0872006 -0.996191 0
    outer loop
      vertex 8.5 -11.5 2.5
      vertex 9.02094 -11.4544 2.71
      vertex 8.5 -11.5 2.71
    endloop
  endfacet
  facet normal 0.0872006 -0.996191 0
    outer loop
      vertex 9.02094 -11.4544 2.71
      vertex 8.5 -11.5 2.5
      vertex 9.02094 -11.4544 2.5
    endloop
  endfacet
  facet normal -0.573616 -0.819124 0
    outer loop
      vertex -10.4284 -10.7981 2.5
      vertex -10 -11.0981 2.71
      vertex -10.4284 -10.7981 2.71
    endloop
  endfacet
  facet normal -0.573616 -0.819124 -0
    outer loop
      vertex -10 -11.0981 2.71
      vertex -10.4284 -10.7981 2.5
      vertex -10 -11.0981 2.5
    endloop
  endfacet
  facet normal 0.258736 0.965948 -0
    outer loop
      vertex 9.52606 11.3191 2.5
      vertex 9.02094 11.4544 2.71
      vertex 9.52606 11.3191 2.71
    endloop
  endfacet
  facet normal 0.258736 0.965948 0
    outer loop
      vertex 9.02094 11.4544 2.71
      vertex 9.52606 11.3191 2.5
      vertex 9.02094 11.4544 2.5
    endloop
  endfacet
  facet normal 0.819124 -0.573616 0
    outer loop
      vertex 10.7981 -10.4284 2.71
      vertex 11.0981 -10 2.5
      vertex 11.0981 -10 2.71
    endloop
  endfacet
  facet normal 0.819124 -0.573616 0
    outer loop
      vertex 11.0981 -10 2.5
      vertex 10.7981 -10.4284 2.71
      vertex 10.7981 -10.4284 2.5
    endloop
  endfacet
  facet normal 0.819124 0.573616 0
    outer loop
      vertex 11.0981 10 2.71
      vertex 10.7981 10.4284 2.5
      vertex 10.7981 10.4284 2.71
    endloop
  endfacet
  facet normal 0.819124 0.573616 0
    outer loop
      vertex 10.7981 10.4284 2.5
      vertex 11.0981 10 2.71
      vertex 11.0981 10 2.5
    endloop
  endfacet
  facet normal -0.819124 0.573616 0
    outer loop
      vertex -11.0981 10 2.5
      vertex -10.7981 10.4284 2.71
      vertex -10.7981 10.4284 2.5
    endloop
  endfacet
  facet normal -0.819124 0.573616 0
    outer loop
      vertex -10.7981 10.4284 2.71
      vertex -11.0981 10 2.5
      vertex -11.0981 10 2.71
    endloop
  endfacet
  facet normal 0.573616 0.819124 -0
    outer loop
      vertex 10.4284 10.7981 2.5
      vertex 10 11.0981 2.71
      vertex 10.4284 10.7981 2.71
    endloop
  endfacet
  facet normal 0.573616 0.819124 0
    outer loop
      vertex 10 11.0981 2.71
      vertex 10.4284 10.7981 2.5
      vertex 10 11.0981 2.5
    endloop
  endfacet
  facet normal -0.0872006 0.996191 0
    outer loop
      vertex -8.5 11.5 2.5
      vertex -9.02094 11.4544 2.71
      vertex -8.5 11.5 2.71
    endloop
  endfacet
  facet normal -0.0872006 0.996191 0
    outer loop
      vertex -9.02094 11.4544 2.71
      vertex -8.5 11.5 2.5
      vertex -9.02094 11.4544 2.5
    endloop
  endfacet
  facet normal -0.573616 0.819124 0
    outer loop
      vertex -10 11.0981 2.5
      vertex -10.4284 10.7981 2.71
      vertex -10 11.0981 2.71
    endloop
  endfacet
  facet normal -0.573616 0.819124 0
    outer loop
      vertex -10.4284 10.7981 2.71
      vertex -10 11.0981 2.5
      vertex -10.4284 10.7981 2.5
    endloop
  endfacet
  facet normal 0.906309 0.422615 0
    outer loop
      vertex 11.3191 9.52606 2.71
      vertex 11.0981 10 2.5
      vertex 11.0981 10 2.71
    endloop
  endfacet
  facet normal 0.906309 0.422615 0
    outer loop
      vertex 11.0981 10 2.5
      vertex 11.3191 9.52606 2.71
      vertex 11.3191 9.52606 2.5
    endloop
  endfacet
  facet normal 0.422615 -0.906309 0
    outer loop
      vertex 9.52606 -11.3191 2.5
      vertex 10 -11.0981 2.71
      vertex 9.52606 -11.3191 2.71
    endloop
  endfacet
  facet normal 0.422615 -0.906309 0
    outer loop
      vertex 10 -11.0981 2.71
      vertex 9.52606 -11.3191 2.5
      vertex 10 -11.0981 2.5
    endloop
  endfacet
  facet normal -0.707107 -0.707107 0
    outer loop
      vertex -10.4284 -10.7981 2.5
      vertex -10.7981 -10.4284 2.71
      vertex -10.7981 -10.4284 2.5
    endloop
  endfacet
  facet normal -0.707107 -0.707107 0
    outer loop
      vertex -10.7981 -10.4284 2.71
      vertex -10.4284 -10.7981 2.5
      vertex -10.4284 -10.7981 2.71
    endloop
  endfacet
  facet normal 0.422615 0.906309 -0
    outer loop
      vertex 10 11.0981 2.5
      vertex 9.52606 11.3191 2.71
      vertex 10 11.0981 2.71
    endloop
  endfacet
  facet normal 0.422615 0.906309 0
    outer loop
      vertex 9.52606 11.3191 2.71
      vertex 10 11.0981 2.5
      vertex 9.52606 11.3191 2.5
    endloop
  endfacet
  facet normal -0.422615 -0.906309 0
    outer loop
      vertex -10 -11.0981 2.5
      vertex -9.52606 -11.3191 2.71
      vertex -10 -11.0981 2.71
    endloop
  endfacet
  facet normal -0.422615 -0.906309 -0
    outer loop
      vertex -9.52606 -11.3191 2.71
      vertex -10 -11.0981 2.5
      vertex -9.52606 -11.3191 2.5
    endloop
  endfacet
  facet normal 0.996191 -0.0872006 0
    outer loop
      vertex 11.4544 -9.02094 2.71
      vertex 11.5 -8.5 2.5
      vertex 11.5 -8.5 2.71
    endloop
  endfacet
  facet normal 0.996191 -0.0872006 0
    outer loop
      vertex 11.5 -8.5 2.5
      vertex 11.4544 -9.02094 2.71
      vertex 11.4544 -9.02094 2.5
    endloop
  endfacet
  facet normal 0 0 -1
    outer loop
      vertex 10.5691 -8.77606 2.5
      vertex 11.5 -8.5 2.5
      vertex 11.4544 -9.02094 2.5
    endloop
  endfacet
  facet normal 0 0 -1
    outer loop
      vertex 11.5 -8.5 2.5
      vertex 10.75 -7.75 2.5
      vertex 11.5 8.5 2.5
    endloop
  endfacet
  facet normal 0 0 -1
    outer loop
      vertex 10.5691 -8.77606 2.5
      vertex 11.4544 -9.02094 2.5
      vertex 11.3191 -9.52606 2.5
    endloop
  endfacet
  facet normal 0 0 -1
    outer loop
      vertex 10.75 7.75 2.5
      vertex 11.5 8.5 2.5
      vertex 10.75 -7.75 2.5
    endloop
  endfacet
  facet normal 0 0 -1
    outer loop
      vertex 10.3481 -9.25 2.5
      vertex 11.3191 -9.52606 2.5
      vertex 11.0981 -10 2.5
    endloop
  endfacet
  facet normal 0 0 -1
    outer loop
      vertex 10.7044 8.27094 2.5
      vertex 11.5 8.5 2.5
      vertex 10.75 7.75 2.5
    endloop
  endfacet
  facet normal 0 0 -1
    outer loop
      vertex 10.0481 -9.67836 2.5
      vertex 11.0981 -10 2.5
      vertex 10.7981 -10.4284 2.5
    endloop
  endfacet
  facet normal 0 0 -1
    outer loop
      vertex 10.5691 8.77606 2.5
      vertex 11.5 8.5 2.5
      vertex 10.7044 8.27094 2.5
    endloop
  endfacet
  facet normal 0 0 -1
    outer loop
      vertex 11.5 8.5 2.5
      vertex 10.5691 8.77606 2.5
      vertex 11.4544 9.02094 2.5
    endloop
  endfacet
  facet normal 0 0 -1
    outer loop
      vertex 11.5 -8.5 2.5
      vertex 10.7044 -8.27094 2.5
      vertex 10.75 -7.75 2.5
    endloop
  endfacet
  facet normal -0 0 -1
    outer loop
      vertex 11.5 -8.5 2.5
      vertex 10.5691 -8.77606 2.5
      vertex 10.7044 -8.27094 2.5
    endloop
  endfacet
  facet normal 0 0 -1
    outer loop
      vertex 10.0481 -9.67836 2.5
      vertex 10.7981 -10.4284 2.5
      vertex 10.4284 -10.7981 2.5
    endloop
  endfacet
  facet normal 0 0 -1
    outer loop
      vertex 11.3191 -9.52606 2.5
      vertex 10.3481 -9.25 2.5
      vertex 10.5691 -8.77606 2.5
    endloop
  endfacet
  facet normal 0 0 -1
    outer loop
      vertex 11.0981 -10 2.5
      vertex 10.0481 -9.67836 2.5
      vertex 10.3481 -9.25 2.5
    endloop
  endfacet
  facet normal 0 0 -1
    outer loop
      vertex 9.67836 -10.0481 2.5
      vertex 10.4284 -10.7981 2.5
      vertex 10 -11.0981 2.5
    endloop
  endfacet
  facet normal 0 0 -1
    outer loop
      vertex 10.4284 -10.7981 2.5
      vertex 9.67836 -10.0481 2.5
      vertex 10.0481 -9.67836 2.5
    endloop
  endfacet
  facet normal 0 0 -1
    outer loop
      vertex 9.25 -10.3481 2.5
      vertex 10 -11.0981 2.5
      vertex 9.52606 -11.3191 2.5
    endloop
  endfacet
  facet normal 0 0 -1
    outer loop
      vertex 10 -11.0981 2.5
      vertex 9.25 -10.3481 2.5
      vertex 9.67836 -10.0481 2.5
    endloop
  endfacet
  facet normal 0 0 -1
    outer loop
      vertex 8.77606 -10.5691 2.5
      vertex 9.52606 -11.3191 2.5
      vertex 9.02094 -11.4544 2.5
    endloop
  endfacet
  facet normal 0 0 -1
    outer loop
      vertex 9.52606 -11.3191 2.5
      vertex 8.77606 -10.5691 2.5
      vertex 9.25 -10.3481 2.5
    endloop
  endfacet
  facet normal 0 0 -1
    outer loop
      vertex 8.5 -11.5 2.5
      vertex 8.77606 -10.5691 2.5
      vertex 9.02094 -11.4544 2.5
    endloop
  endfacet
  facet normal 0 0 -1
    outer loop
      vertex 8.5 -11.5 2.5
      vertex 8.27094 -10.7044 2.5
      vertex 8.77606 -10.5691 2.5
    endloop
  endfacet
  facet normal 0 0 -1
    outer loop
      vertex 8.5 -11.5 2.5
      vertex 7.75 -10.75 2.5
      vertex 8.27094 -10.7044 2.5
    endloop
  endfacet
  facet normal 0 0 -1
    outer loop
      vertex 8.5 -11.5 2.5
      vertex -7.75 -10.75 2.5
      vertex 7.75 -10.75 2.5
    endloop
  endfacet
  facet normal 0 0 -1
    outer loop
      vertex -8.5 -11.5 2.5
      vertex -7.75 -10.75 2.5
      vertex 8.5 -11.5 2.5
    endloop
  endfacet
  facet normal 0 0 -1
    outer loop
      vertex -8.5 -11.5 2.5
      vertex -8.27094 -10.7044 2.5
      vertex -7.75 -10.75 2.5
    endloop
  endfacet
  facet normal 0 0 -1
    outer loop
      vertex -8.5 -11.5 2.5
      vertex -8.77606 -10.5691 2.5
      vertex -8.27094 -10.7044 2.5
    endloop
  endfacet
  facet normal 0 0 -1
    outer loop
      vertex -9.02094 -11.4544 2.5
      vertex -8.77606 -10.5691 2.5
      vertex -8.5 -11.5 2.5
    endloop
  endfacet
  facet normal 0 0 -1
    outer loop
      vertex -9.52606 -11.3191 2.5
      vertex -8.77606 -10.5691 2.5
      vertex -9.02094 -11.4544 2.5
    endloop
  endfacet
  facet normal -0 0 -1
    outer loop
      vertex -8.77606 -10.5691 2.5
      vertex -9.52606 -11.3191 2.5
      vertex -9.25 -10.3481 2.5
    endloop
  endfacet
  facet normal 0 0 -1
    outer loop
      vertex -10 -11.0981 2.5
      vertex -9.25 -10.3481 2.5
      vertex -9.52606 -11.3191 2.5
    endloop
  endfacet
  facet normal -0 0 -1
    outer loop
      vertex -9.25 -10.3481 2.5
      vertex -10 -11.0981 2.5
      vertex -9.67836 -10.0481 2.5
    endloop
  endfacet
  facet normal 0 0 -1
    outer loop
      vertex -10.4284 -10.7981 2.5
      vertex -9.67836 -10.0481 2.5
      vertex -10 -11.0981 2.5
    endloop
  endfacet
  facet normal -0 0 -1
    outer loop
      vertex -9.67836 -10.0481 2.5
      vertex -10.4284 -10.7981 2.5
      vertex -10.0481 -9.67836 2.5
    endloop
  endfacet
  facet normal 0 0 -1
    outer loop
      vertex -10.7981 -10.4284 2.5
      vertex -10.0481 -9.67836 2.5
      vertex -10.4284 -10.7981 2.5
    endloop
  endfacet
  facet normal 0 0 -1
    outer loop
      vertex -11.0981 -10 2.5
      vertex -10.0481 -9.67836 2.5
      vertex -10.7981 -10.4284 2.5
    endloop
  endfacet
  facet normal -0 0 -1
    outer loop
      vertex -10.0481 -9.67836 2.5
      vertex -11.0981 -10 2.5
      vertex -10.3481 -9.25 2.5
    endloop
  endfacet
  facet normal 0 0 -1
    outer loop
      vertex -11.4544 -9.02094 2.5
      vertex -10.5691 -8.77606 2.5
      vertex -11.3191 -9.52606 2.5
    endloop
  endfacet
  facet normal -0 0 -1
    outer loop
      vertex -10.3481 -9.25 2.5
      vertex -11.3191 -9.52606 2.5
      vertex -10.5691 -8.77606 2.5
    endloop
  endfacet
  facet normal 0 0 -1
    outer loop
      vertex -11.3191 -9.52606 2.5
      vertex -10.3481 -9.25 2.5
      vertex -11.0981 -10 2.5
    endloop
  endfacet
  facet normal -0 0 -1
    outer loop
      vertex 11.4544 9.02094 2.5
      vertex 10.5691 8.77606 2.5
      vertex 11.3191 9.52606 2.5
    endloop
  endfacet
  facet normal 0 0 -1
    outer loop
      vertex 10.3481 9.25 2.5
      vertex 11.3191 9.52606 2.5
      vertex 10.5691 8.77606 2.5
    endloop
  endfacet
  facet normal -0 0 -1
    outer loop
      vertex 11.3191 9.52606 2.5
      vertex 10.3481 9.25 2.5
      vertex 11.0981 10 2.5
    endloop
  endfacet
  facet normal 0 0 -1
    outer loop
      vertex 10.0481 9.67836 2.5
      vertex 11.0981 10 2.5
      vertex 10.3481 9.25 2.5
    endloop
  endfacet
  facet normal -0 0 -1
    outer loop
      vertex 11.0981 10 2.5
      vertex 10.0481 9.67836 2.5
      vertex 10.7981 10.4284 2.5
    endloop
  endfacet
  facet normal -0 0 -1
    outer loop
      vertex 10.7981 10.4284 2.5
      vertex 10.0481 9.67836 2.5
      vertex 10.4284 10.7981 2.5
    endloop
  endfacet
  facet normal 0 0 -1
    outer loop
      vertex 9.67836 10.0481 2.5
      vertex 10.4284 10.7981 2.5
      vertex 10.0481 9.67836 2.5
    endloop
  endfacet
  facet normal -0 0 -1
    outer loop
      vertex 10.4284 10.7981 2.5
      vertex 9.67836 10.0481 2.5
      vertex 10 11.0981 2.5
    endloop
  endfacet
  facet normal 0 0 -1
    outer loop
      vertex 9.25 10.3481 2.5
      vertex 10 11.0981 2.5
      vertex 9.67836 10.0481 2.5
    endloop
  endfacet
  facet normal -0 0 -1
    outer loop
      vertex 10 11.0981 2.5
      vertex 9.25 10.3481 2.5
      vertex 9.52606 11.3191 2.5
    endloop
  endfacet
  facet normal 0 0 -1
    outer loop
      vertex 8.77606 10.5691 2.5
      vertex 9.52606 11.3191 2.5
      vertex 9.25 10.3481 2.5
    endloop
  endfacet
  facet normal -0 0 -1
    outer loop
      vertex 9.52606 11.3191 2.5
      vertex 8.77606 10.5691 2.5
      vertex 9.02094 11.4544 2.5
    endloop
  endfacet
  facet normal 0 0 -1
    outer loop
      vertex 8.77606 10.5691 2.5
      vertex 8.5 11.5 2.5
      vertex 9.02094 11.4544 2.5
    endloop
  endfacet
  facet normal 0 0 -1
    outer loop
      vertex 8.27094 10.7044 2.5
      vertex 8.5 11.5 2.5
      vertex 8.77606 10.5691 2.5
    endloop
  endfacet
  facet normal 0 0 -1
    outer loop
      vertex 7.75 10.75 2.5
      vertex 8.5 11.5 2.5
      vertex 8.27094 10.7044 2.5
    endloop
  endfacet
  facet normal 0 0 -1
    outer loop
      vertex -7.75 10.75 2.5
      vertex 8.5 11.5 2.5
      vertex 7.75 10.75 2.5
    endloop
  endfacet
  facet normal 0 0 -1
    outer loop
      vertex -7.75 10.75 2.5
      vertex -8.5 11.5 2.5
      vertex 8.5 11.5 2.5
    endloop
  endfacet
  facet normal 0 0 -1
    outer loop
      vertex -8.27094 10.7044 2.5
      vertex -8.5 11.5 2.5
      vertex -7.75 10.75 2.5
    endloop
  endfacet
  facet normal 0 0 -1
    outer loop
      vertex -8.77606 10.5691 2.5
      vertex -8.5 11.5 2.5
      vertex -8.27094 10.7044 2.5
    endloop
  endfacet
  facet normal 0 0 -1
    outer loop
      vertex -8.77606 10.5691 2.5
      vertex -9.02094 11.4544 2.5
      vertex -8.5 11.5 2.5
    endloop
  endfacet
  facet normal 0 0 -1
    outer loop
      vertex -9.52606 11.3191 2.5
      vertex -8.77606 10.5691 2.5
      vertex -9.25 10.3481 2.5
    endloop
  endfacet
  facet normal 0 0 -1
    outer loop
      vertex -8.77606 10.5691 2.5
      vertex -9.52606 11.3191 2.5
      vertex -9.02094 11.4544 2.5
    endloop
  endfacet
  facet normal 0 0 -1
    outer loop
      vertex -10 11.0981 2.5
      vertex -9.25 10.3481 2.5
      vertex -9.67836 10.0481 2.5
    endloop
  endfacet
  facet normal 0 0 -1
    outer loop
      vertex -9.25 10.3481 2.5
      vertex -10 11.0981 2.5
      vertex -9.52606 11.3191 2.5
    endloop
  endfacet
  facet normal 0 0 -1
    outer loop
      vertex -10.4284 10.7981 2.5
      vertex -9.67836 10.0481 2.5
      vertex -10.0481 9.67836 2.5
    endloop
  endfacet
  facet normal 0 0 -1
    outer loop
      vertex -11.0981 10 2.5
      vertex -10.0481 9.67836 2.5
      vertex -10.3481 9.25 2.5
    endloop
  endfacet
  facet normal 0 0 -1
    outer loop
      vertex -9.67836 10.0481 2.5
      vertex -10.4284 10.7981 2.5
      vertex -10 11.0981 2.5
    endloop
  endfacet
  facet normal 0 0 -1
    outer loop
      vertex -11.3191 9.52606 2.5
      vertex -10.3481 9.25 2.5
      vertex -10.5691 8.77606 2.5
    endloop
  endfacet
  facet normal 0 0 -1
    outer loop
      vertex -11.5 8.5 2.5
      vertex -10.5691 8.77606 2.5
      vertex -10.7044 8.27094 2.5
    endloop
  endfacet
  facet normal 0 0 -1
    outer loop
      vertex -10.0481 9.67836 2.5
      vertex -10.7981 10.4284 2.5
      vertex -10.4284 10.7981 2.5
    endloop
  endfacet
  facet normal 0 0 -1
    outer loop
      vertex -11.5 8.5 2.5
      vertex -10.7044 8.27094 2.5
      vertex -10.75 7.75 2.5
    endloop
  endfacet
  facet normal -0 0 -1
    outer loop
      vertex -10.75 -7.75 2.5
      vertex -11.5 -8.5 2.5
      vertex -10.75 7.75 2.5
    endloop
  endfacet
  facet normal 0 0 -1
    outer loop
      vertex -11.5 -8.5 2.5
      vertex -10.5691 -8.77606 2.5
      vertex -11.4544 -9.02094 2.5
    endloop
  endfacet
  facet normal 0 0 -1
    outer loop
      vertex -11.5 8.5 2.5
      vertex -10.75 7.75 2.5
      vertex -11.5 -8.5 2.5
    endloop
  endfacet
  facet normal 0 0 -1
    outer loop
      vertex -10.5691 -8.77606 2.5
      vertex -11.5 -8.5 2.5
      vertex -10.7044 -8.27094 2.5
    endloop
  endfacet
  facet normal -0 0 -1
    outer loop
      vertex -10.5691 8.77606 2.5
      vertex -11.5 8.5 2.5
      vertex -11.4544 9.02094 2.5
    endloop
  endfacet
  facet normal -0 0 -1
    outer loop
      vertex -10.7044 -8.27094 2.5
      vertex -11.5 -8.5 2.5
      vertex -10.75 -7.75 2.5
    endloop
  endfacet
  facet normal 0 0 -1
    outer loop
      vertex -10.0481 9.67836 2.5
      vertex -11.0981 10 2.5
      vertex -10.7981 10.4284 2.5
    endloop
  endfacet
  facet normal 0 0 -1
    outer loop
      vertex -10.3481 9.25 2.5
      vertex -11.3191 9.52606 2.5
      vertex -11.0981 10 2.5
    endloop
  endfacet
  facet normal 0 0 -1
    outer loop
      vertex -10.5691 8.77606 2.5
      vertex -11.4544 9.02094 2.5
      vertex -11.3191 9.52606 2.5
    endloop
  endfacet
  facet normal -1 0 0
    outer loop
      vertex -11.5 -8.5 2.5
      vertex -11.5 8.5 2.71
      vertex -11.5 8.5 2.5
    endloop
  endfacet
  facet normal -1 -0 0
    outer loop
      vertex -11.5 8.5 2.71
      vertex -11.5 -8.5 2.5
      vertex -11.5 -8.5 2.71
    endloop
  endfacet
  facet normal 0.0872006 0.996191 -0
    outer loop
      vertex 9.02094 11.4544 2.5
      vertex 8.5 11.5 2.71
      vertex 9.02094 11.4544 2.71
    endloop
  endfacet
  facet normal 0.0872006 0.996191 0
    outer loop
      vertex 8.5 11.5 2.71
      vertex 9.02094 11.4544 2.5
      vertex 8.5 11.5 2.5
    endloop
  endfacet
  facet normal -0.996191 0.0872006 0
    outer loop
      vertex -11.5 8.5 2.5
      vertex -11.4544 9.02094 2.71
      vertex -11.4544 9.02094 2.5
    endloop
  endfacet
  facet normal -0.996191 0.0872006 0
    outer loop
      vertex -11.4544 9.02094 2.71
      vertex -11.5 8.5 2.5
      vertex -11.5 8.5 2.71
    endloop
  endfacet
  facet normal -0 0 1
    outer loop
      vertex 10.5691 8.77606 2.71
      vertex 11.5 8.5 2.71
      vertex 11.4544 9.02094 2.71
    endloop
  endfacet
  facet normal 0 0 1
    outer loop
      vertex 11.5 8.5 2.71
      vertex 10.75 7.75 2.71
      vertex 11.5 -8.5 2.71
    endloop
  endfacet
  facet normal 0 0 1
    outer loop
      vertex 10.5691 8.77606 2.71
      vertex 11.4544 9.02094 2.71
      vertex 11.3191 9.52606 2.71
    endloop
  endfacet
  facet normal -0 0 1
    outer loop
      vertex 10.75 -7.75 2.71
      vertex 11.5 -8.5 2.71
      vertex 10.75 7.75 2.71
    endloop
  endfacet
  facet normal 0 0 1
    outer loop
      vertex 10.3481 9.25 2.71
      vertex 11.3191 9.52606 2.71
      vertex 11.0981 10 2.71
    endloop
  endfacet
  facet normal -0 0 1
    outer loop
      vertex 10.7044 -8.27094 2.71
      vertex 11.5 -8.5 2.71
      vertex 10.75 -7.75 2.71
    endloop
  endfacet
  facet normal 0 0 1
    outer loop
      vertex 10.0481 9.67836 2.71
      vertex 11.0981 10 2.71
      vertex 10.7981 10.4284 2.71
    endloop
  endfacet
  facet normal 0 0 1
    outer loop
      vertex 10.5691 -8.77606 2.71
      vertex 11.5 -8.5 2.71
      vertex 10.7044 -8.27094 2.71
    endloop
  endfacet
  facet normal 0 0 1
    outer loop
      vertex 11.5 -8.5 2.71
      vertex 10.5691 -8.77606 2.71
      vertex 11.4544 -9.02094 2.71
    endloop
  endfacet
  facet normal 0 0 1
    outer loop
      vertex 11.5 8.5 2.71
      vertex 10.7044 8.27094 2.71
      vertex 10.75 7.75 2.71
    endloop
  endfacet
  facet normal 0 0 1
    outer loop
      vertex 11.5 8.5 2.71
      vertex 10.5691 8.77606 2.71
      vertex 10.7044 8.27094 2.71
    endloop
  endfacet
  facet normal 0 0 1
    outer loop
      vertex 10.0481 9.67836 2.71
      vertex 10.7981 10.4284 2.71
      vertex 10.4284 10.7981 2.71
    endloop
  endfacet
  facet normal 0 0 1
    outer loop
      vertex 11.3191 9.52606 2.71
      vertex 10.3481 9.25 2.71
      vertex 10.5691 8.77606 2.71
    endloop
  endfacet
  facet normal 0 0 1
    outer loop
      vertex 11.0981 10 2.71
      vertex 10.0481 9.67836 2.71
      vertex 10.3481 9.25 2.71
    endloop
  endfacet
  facet normal 0 0 1
    outer loop
      vertex 9.67836 10.0481 2.71
      vertex 10.4284 10.7981 2.71
      vertex 10 11.0981 2.71
    endloop
  endfacet
  facet normal 0 0 1
    outer loop
      vertex 10.4284 10.7981 2.71
      vertex 9.67836 10.0481 2.71
      vertex 10.0481 9.67836 2.71
    endloop
  endfacet
  facet normal 0 0 1
    outer loop
      vertex 9.25 10.3481 2.71
      vertex 10 11.0981 2.71
      vertex 9.52606 11.3191 2.71
    endloop
  endfacet
  facet normal 0 0 1
    outer loop
      vertex 10 11.0981 2.71
      vertex 9.25 10.3481 2.71
      vertex 9.67836 10.0481 2.71
    endloop
  endfacet
  facet normal 0 0 1
    outer loop
      vertex 8.77606 10.5691 2.71
      vertex 9.52606 11.3191 2.71
      vertex 9.02094 11.4544 2.71
    endloop
  endfacet
  facet normal 0 0 1
    outer loop
      vertex 9.52606 11.3191 2.71
      vertex 8.77606 10.5691 2.71
      vertex 9.25 10.3481 2.71
    endloop
  endfacet
  facet normal 0 0 1
    outer loop
      vertex 8.5 11.5 2.71
      vertex 8.77606 10.5691 2.71
      vertex 9.02094 11.4544 2.71
    endloop
  endfacet
  facet normal 0 0 1
    outer loop
      vertex 8.5 11.5 2.71
      vertex 8.27094 10.7044 2.71
      vertex 8.77606 10.5691 2.71
    endloop
  endfacet
  facet normal 0 0 1
    outer loop
      vertex 8.5 11.5 2.71
      vertex 7.75 10.75 2.71
      vertex 8.27094 10.7044 2.71
    endloop
  endfacet
  facet normal 0 0 1
    outer loop
      vertex 8.5 11.5 2.71
      vertex -7.75 10.75 2.71
      vertex 7.75 10.75 2.71
    endloop
  endfacet
  facet normal -0 0 1
    outer loop
      vertex -8.5 11.5 2.71
      vertex -7.75 10.75 2.71
      vertex 8.5 11.5 2.71
    endloop
  endfacet
  facet normal 0 0 1
    outer loop
      vertex -8.5 11.5 2.71
      vertex -8.27094 10.7044 2.71
      vertex -7.75 10.75 2.71
    endloop
  endfacet
  facet normal 0 0 1
    outer loop
      vertex -8.5 11.5 2.71
      vertex -8.77606 10.5691 2.71
      vertex -8.27094 10.7044 2.71
    endloop
  endfacet
  facet normal -0 0 1
    outer loop
      vertex -9.02094 11.4544 2.71
      vertex -8.77606 10.5691 2.71
      vertex -8.5 11.5 2.71
    endloop
  endfacet
  facet normal -0 0 1
    outer loop
      vertex -9.52606 11.3191 2.71
      vertex -8.77606 10.5691 2.71
      vertex -9.02094 11.4544 2.71
    endloop
  endfacet
  facet normal 0 0 1
    outer loop
      vertex -8.77606 10.5691 2.71
      vertex -9.52606 11.3191 2.71
      vertex -9.25 10.3481 2.71
    endloop
  endfacet
  facet normal -0 0 1
    outer loop
      vertex -10 11.0981 2.71
      vertex -9.25 10.3481 2.71
      vertex -9.52606 11.3191 2.71
    endloop
  endfacet
  facet normal 0 0 1
    outer loop
      vertex -9.25 10.3481 2.71
      vertex -10 11.0981 2.71
      vertex -9.67836 10.0481 2.71
    endloop
  endfacet
  facet normal -0 0 1
    outer loop
      vertex -10.4284 10.7981 2.71
      vertex -9.67836 10.0481 2.71
      vertex -10 11.0981 2.71
    endloop
  endfacet
  facet normal 0 0 1
    outer loop
      vertex -9.67836 10.0481 2.71
      vertex -10.4284 10.7981 2.71
      vertex -10.0481 9.67836 2.71
    endloop
  endfacet
  facet normal -0 0 1
    outer loop
      vertex -10.7981 10.4284 2.71
      vertex -10.0481 9.67836 2.71
      vertex -10.4284 10.7981 2.71
    endloop
  endfacet
  facet normal -0 0 1
    outer loop
      vertex -11.0981 10 2.71
      vertex -10.0481 9.67836 2.71
      vertex -10.7981 10.4284 2.71
    endloop
  endfacet
  facet normal 0 0 1
    outer loop
      vertex -10.0481 9.67836 2.71
      vertex -11.0981 10 2.71
      vertex -10.3481 9.25 2.71
    endloop
  endfacet
  facet normal -0 0 1
    outer loop
      vertex -11.4544 9.02094 2.71
      vertex -10.5691 8.77606 2.71
      vertex -11.3191 9.52606 2.71
    endloop
  endfacet
  facet normal 0 0 1
    outer loop
      vertex -10.3481 9.25 2.71
      vertex -11.3191 9.52606 2.71
      vertex -10.5691 8.77606 2.71
    endloop
  endfacet
  facet normal -0 0 1
    outer loop
      vertex -11.3191 9.52606 2.71
      vertex -10.3481 9.25 2.71
      vertex -11.0981 10 2.71
    endloop
  endfacet
  facet normal 0 0 1
    outer loop
      vertex 11.4544 -9.02094 2.71
      vertex 10.5691 -8.77606 2.71
      vertex 11.3191 -9.52606 2.71
    endloop
  endfacet
  facet normal -0 0 1
    outer loop
      vertex 10.3481 -9.25 2.71
      vertex 11.3191 -9.52606 2.71
      vertex 10.5691 -8.77606 2.71
    endloop
  endfacet
  facet normal 0 0 1
    outer loop
      vertex 11.3191 -9.52606 2.71
      vertex 10.3481 -9.25 2.71
      vertex 11.0981 -10 2.71
    endloop
  endfacet
  facet normal -0 0 1
    outer loop
      vertex 10.0481 -9.67836 2.71
      vertex 11.0981 -10 2.71
      vertex 10.3481 -9.25 2.71
    endloop
  endfacet
  facet normal 0 0 1
    outer loop
      vertex 11.0981 -10 2.71
      vertex 10.0481 -9.67836 2.71
      vertex 10.7981 -10.4284 2.71
    endloop
  endfacet
  facet normal 0 0 1
    outer loop
      vertex 10.7981 -10.4284 2.71
      vertex 10.0481 -9.67836 2.71
      vertex 10.4284 -10.7981 2.71
    endloop
  endfacet
  facet normal -0 0 1
    outer loop
      vertex 9.67836 -10.0481 2.71
      vertex 10.4284 -10.7981 2.71
      vertex 10.0481 -9.67836 2.71
    endloop
  endfacet
  facet normal 0 0 1
    outer loop
      vertex 10.4284 -10.7981 2.71
      vertex 9.67836 -10.0481 2.71
      vertex 10 -11.0981 2.71
    endloop
  endfacet
  facet normal -0 0 1
    outer loop
      vertex 9.25 -10.3481 2.71
      vertex 10 -11.0981 2.71
      vertex 9.67836 -10.0481 2.71
    endloop
  endfacet
  facet normal 0 0 1
    outer loop
      vertex 10 -11.0981 2.71
      vertex 9.25 -10.3481 2.71
      vertex 9.52606 -11.3191 2.71
    endloop
  endfacet
  facet normal -0 0 1
    outer loop
      vertex 8.77606 -10.5691 2.71
      vertex 9.52606 -11.3191 2.71
      vertex 9.25 -10.3481 2.71
    endloop
  endfacet
  facet normal 0 0 1
    outer loop
      vertex 9.52606 -11.3191 2.71
      vertex 8.77606 -10.5691 2.71
      vertex 9.02094 -11.4544 2.71
    endloop
  endfacet
  facet normal 0 0 1
    outer loop
      vertex 8.77606 -10.5691 2.71
      vertex 8.5 -11.5 2.71
      vertex 9.02094 -11.4544 2.71
    endloop
  endfacet
  facet normal -0 0 1
    outer loop
      vertex 8.27094 -10.7044 2.71
      vertex 8.5 -11.5 2.71
      vertex 8.77606 -10.5691 2.71
    endloop
  endfacet
  facet normal -0 0 1
    outer loop
      vertex 7.75 -10.75 2.71
      vertex 8.5 -11.5 2.71
      vertex 8.27094 -10.7044 2.71
    endloop
  endfacet
  facet normal -0 0 1
    outer loop
      vertex -7.75 -10.75 2.71
      vertex 8.5 -11.5 2.71
      vertex 7.75 -10.75 2.71
    endloop
  endfacet
  facet normal 0 0 1
    outer loop
      vertex -7.75 -10.75 2.71
      vertex -8.5 -11.5 2.71
      vertex 8.5 -11.5 2.71
    endloop
  endfacet
  facet normal 0 0 1
    outer loop
      vertex -8.27094 -10.7044 2.71
      vertex -8.5 -11.5 2.71
      vertex -7.75 -10.75 2.71
    endloop
  endfacet
  facet normal 0 0 1
    outer loop
      vertex -8.77606 -10.5691 2.71
      vertex -8.5 -11.5 2.71
      vertex -8.27094 -10.7044 2.71
    endloop
  endfacet
  facet normal 0 0 1
    outer loop
      vertex -8.77606 -10.5691 2.71
      vertex -9.02094 -11.4544 2.71
      vertex -8.5 -11.5 2.71
    endloop
  endfacet
  facet normal 0 0 1
    outer loop
      vertex -9.52606 -11.3191 2.71
      vertex -8.77606 -10.5691 2.71
      vertex -9.25 -10.3481 2.71
    endloop
  endfacet
  facet normal 0 0 1
    outer loop
      vertex -8.77606 -10.5691 2.71
      vertex -9.52606 -11.3191 2.71
      vertex -9.02094 -11.4544 2.71
    endloop
  endfacet
  facet normal 0 0 1
    outer loop
      vertex -10 -11.0981 2.71
      vertex -9.25 -10.3481 2.71
      vertex -9.67836 -10.0481 2.71
    endloop
  endfacet
  facet normal 0 0 1
    outer loop
      vertex -9.25 -10.3481 2.71
      vertex -10 -11.0981 2.71
      vertex -9.52606 -11.3191 2.71
    endloop
  endfacet
  facet normal 0 0 1
    outer loop
      vertex -10.4284 -10.7981 2.71
      vertex -9.67836 -10.0481 2.71
      vertex -10.0481 -9.67836 2.71
    endloop
  endfacet
  facet normal 0 0 1
    outer loop
      vertex -11.0981 -10 2.71
      vertex -10.0481 -9.67836 2.71
      vertex -10.3481 -9.25 2.71
    endloop
  endfacet
  facet normal 0 0 1
    outer loop
      vertex -9.67836 -10.0481 2.71
      vertex -10.4284 -10.7981 2.71
      vertex -10 -11.0981 2.71
    endloop
  endfacet
  facet normal 0 0 1
    outer loop
      vertex -11.3191 -9.52606 2.71
      vertex -10.3481 -9.25 2.71
      vertex -10.5691 -8.77606 2.71
    endloop
  endfacet
  facet normal -0 0 1
    outer loop
      vertex -11.5 -8.5 2.71
      vertex -10.5691 -8.77606 2.71
      vertex -10.7044 -8.27094 2.71
    endloop
  endfacet
  facet normal 0 0 1
    outer loop
      vertex -10.0481 -9.67836 2.71
      vertex -10.7981 -10.4284 2.71
      vertex -10.4284 -10.7981 2.71
    endloop
  endfacet
  facet normal 0 0 1
    outer loop
      vertex -11.5 -8.5 2.71
      vertex -10.7044 -8.27094 2.71
      vertex -10.75 -7.75 2.71
    endloop
  endfacet
  facet normal 0 0 1
    outer loop
      vertex -10.75 7.75 2.71
      vertex -11.5 8.5 2.71
      vertex -10.75 -7.75 2.71
    endloop
  endfacet
  facet normal 0 0 1
    outer loop
      vertex -11.5 8.5 2.71
      vertex -10.5691 8.77606 2.71
      vertex -11.4544 9.02094 2.71
    endloop
  endfacet
  facet normal 0 0 1
    outer loop
      vertex -11.5 -8.5 2.71
      vertex -10.75 -7.75 2.71
      vertex -11.5 8.5 2.71
    endloop
  endfacet
  facet normal 0 0 1
    outer loop
      vertex -10.5691 8.77606 2.71
      vertex -11.5 8.5 2.71
      vertex -10.7044 8.27094 2.71
    endloop
  endfacet
  facet normal 0 0 1
    outer loop
      vertex -10.5691 -8.77606 2.71
      vertex -11.5 -8.5 2.71
      vertex -11.4544 -9.02094 2.71
    endloop
  endfacet
  facet normal 0 0 1
    outer loop
      vertex -10.7044 8.27094 2.71
      vertex -11.5 8.5 2.71
      vertex -10.75 7.75 2.71
    endloop
  endfacet
  facet normal 0 0 1
    outer loop
      vertex -10.0481 -9.67836 2.71
      vertex -11.0981 -10 2.71
      vertex -10.7981 -10.4284 2.71
    endloop
  endfacet
  facet normal 0 0 1
    outer loop
      vertex -10.3481 -9.25 2.71
      vertex -11.3191 -9.52606 2.71
      vertex -11.0981 -10 2.71
    endloop
  endfacet
  facet normal 0 0 1
    outer loop
      vertex -10.5691 -8.77606 2.71
      vertex -11.4544 -9.02094 2.71
      vertex -11.3191 -9.52606 2.71
    endloop
  endfacet
  facet normal 1 -0 0
    outer loop
      vertex 11.5 -8.5 2.71
      vertex 11.5 8.5 2.5
      vertex 11.5 8.5 2.71
    endloop
  endfacet
  facet normal 1 0 0
    outer loop
      vertex 11.5 8.5 2.5
      vertex 11.5 -8.5 2.71
      vertex 11.5 -8.5 2.5
    endloop
  endfacet
  facet normal -0.707107 0.707107 0
    outer loop
      vertex -10.7981 10.4284 2.5
      vertex -10.4284 10.7981 2.71
      vertex -10.4284 10.7981 2.5
    endloop
  endfacet
  facet normal -0.707107 0.707107 0
    outer loop
      vertex -10.4284 10.7981 2.71
      vertex -10.7981 10.4284 2.5
      vertex -10.7981 10.4284 2.71
    endloop
  endfacet
  facet normal -0.906309 0.422615 0
    outer loop
      vertex -11.3191 9.52606 2.5
      vertex -11.0981 10 2.71
      vertex -11.0981 10 2.5
    endloop
  endfacet
  facet normal -0.906309 0.422615 0
    outer loop
      vertex -11.0981 10 2.71
      vertex -11.3191 9.52606 2.5
      vertex -11.3191 9.52606 2.71
    endloop
  endfacet
  facet normal 0.906309 -0.422615 0
    outer loop
      vertex 11.0981 -10 2.71
      vertex 11.3191 -9.52606 2.5
      vertex 11.3191 -9.52606 2.71
    endloop
  endfacet
  facet normal 0.906309 -0.422615 0
    outer loop
      vertex 11.3191 -9.52606 2.5
      vertex 11.0981 -10 2.71
      vertex 11.0981 -10 2.5
    endloop
  endfacet
  facet normal 0.573616 -0.819124 0
    outer loop
      vertex 10 -11.0981 2.5
      vertex 10.4284 -10.7981 2.71
      vertex 10 -11.0981 2.71
    endloop
  endfacet
  facet normal 0.573616 -0.819124 0
    outer loop
      vertex 10.4284 -10.7981 2.71
      vertex 10 -11.0981 2.5
      vertex 10.4284 -10.7981 2.5
    endloop
  endfacet
  facet normal -0.965948 0.258736 0
    outer loop
      vertex -11.4544 9.02094 2.5
      vertex -11.3191 9.52606 2.71
      vertex -11.3191 9.52606 2.5
    endloop
  endfacet
  facet normal -0.965948 0.258736 0
    outer loop
      vertex -11.3191 9.52606 2.71
      vertex -11.4544 9.02094 2.5
      vertex -11.4544 9.02094 2.71
    endloop
  endfacet
  facet normal 0.965948 -0.258736 0
    outer loop
      vertex 11.3191 -9.52606 2.71
      vertex 11.4544 -9.02094 2.5
      vertex 11.4544 -9.02094 2.71
    endloop
  endfacet
  facet normal 0.965948 -0.258736 0
    outer loop
      vertex 11.4544 -9.02094 2.5
      vertex 11.3191 -9.52606 2.71
      vertex 11.3191 -9.52606 2.5
    endloop
  endfacet
  facet normal -0.258736 -0.965948 0
    outer loop
      vertex -9.52606 -11.3191 2.5
      vertex -9.02094 -11.4544 2.71
      vertex -9.52606 -11.3191 2.71
    endloop
  endfacet
  facet normal -0.258736 -0.965948 -0
    outer loop
      vertex -9.02094 -11.4544 2.71
      vertex -9.52606 -11.3191 2.5
      vertex -9.02094 -11.4544 2.5
    endloop
  endfacet
  facet normal -0.0872006 -0.996191 0
    outer loop
      vertex -9.02094 -11.4544 2.5
      vertex -8.5 -11.5 2.71
      vertex -9.02094 -11.4544 2.71
    endloop
  endfacet
  facet normal -0.0872006 -0.996191 -0
    outer loop
      vertex -8.5 -11.5 2.71
      vertex -9.02094 -11.4544 2.5
      vertex -8.5 -11.5 2.5
    endloop
  endfacet
  facet normal 0.707107 0.707107 0
    outer loop
      vertex 10.7981 10.4284 2.71
      vertex 10.4284 10.7981 2.5
      vertex 10.4284 10.7981 2.71
    endloop
  endfacet
  facet normal 0.707107 0.707107 0
    outer loop
      vertex 10.4284 10.7981 2.5
      vertex 10.7981 10.4284 2.71
      vertex 10.7981 10.4284 2.5
    endloop
  endfacet
  facet normal -0.965948 -0.258736 0
    outer loop
      vertex -11.3191 -9.52606 2.5
      vertex -11.4544 -9.02094 2.71
      vertex -11.4544 -9.02094 2.5
    endloop
  endfacet
  facet normal -0.965948 -0.258736 0
    outer loop
      vertex -11.4544 -9.02094 2.71
      vertex -11.3191 -9.52606 2.5
      vertex -11.3191 -9.52606 2.71
    endloop
  endfacet
  facet normal 0.965948 0.258736 0
    outer loop
      vertex 11.4544 9.02094 2.71
      vertex 11.3191 9.52606 2.5
      vertex 11.3191 9.52606 2.71
    endloop
  endfacet
  facet normal 0.965948 0.258736 0
    outer loop
      vertex 11.3191 9.52606 2.5
      vertex 11.4544 9.02094 2.71
      vertex 11.4544 9.02094 2.5
    endloop
  endfacet
  facet normal 0.996191 0.0872006 0
    outer loop
      vertex 11.5 8.5 2.71
      vertex 11.4544 9.02094 2.5
      vertex 11.4544 9.02094 2.71
    endloop
  endfacet
  facet normal 0.996191 0.0872006 0
    outer loop
      vertex 11.4544 9.02094 2.5
      vertex 11.5 8.5 2.71
      vertex 11.5 8.5 2.5
    endloop
  endfacet
  facet normal -0.819124 -0.573616 0
    outer loop
      vertex -10.7981 -10.4284 2.5
      vertex -11.0981 -10 2.71
      vertex -11.0981 -10 2.5
    endloop
  endfacet
  facet normal -0.819124 -0.573616 0
    outer loop
      vertex -11.0981 -10 2.71
      vertex -10.7981 -10.4284 2.5
      vertex -10.7981 -10.4284 2.71
    endloop
  endfacet
  facet normal -0.422615 0.906309 0
    outer loop
      vertex -9.52606 11.3191 2.5
      vertex -10 11.0981 2.71
      vertex -9.52606 11.3191 2.71
    endloop
  endfacet
  facet normal -0.422615 0.906309 0
    outer loop
      vertex -10 11.0981 2.71
      vertex -9.52606 11.3191 2.5
      vertex -10 11.0981 2.5
    endloop
  endfacet
  facet normal 0.707107 -0.707107 0
    outer loop
      vertex 10.4284 -10.7981 2.71
      vertex 10.7981 -10.4284 2.5
      vertex 10.7981 -10.4284 2.71
    endloop
  endfacet
  facet normal 0.707107 -0.707107 0
    outer loop
      vertex 10.7981 -10.4284 2.5
      vertex 10.4284 -10.7981 2.71
      vertex 10.4284 -10.7981 2.5
    endloop
  endfacet
  facet normal -0.996191 -0.0872006 0
    outer loop
      vertex -11.4544 -9.02094 2.5
      vertex -11.5 -8.5 2.71
      vertex -11.5 -8.5 2.5
    endloop
  endfacet
  facet normal -0.996191 -0.0872006 0
    outer loop
      vertex -11.5 -8.5 2.71
      vertex -11.4544 -9.02094 2.5
      vertex -11.4544 -9.02094 2.71
    endloop
  endfacet
  facet normal 0.258736 -0.965948 0
    outer loop
      vertex 9.02094 -11.4544 2.5
      vertex 9.52606 -11.3191 2.71
      vertex 9.02094 -11.4544 2.71
    endloop
  endfacet
  facet normal 0.258736 -0.965948 0
    outer loop
      vertex 9.52606 -11.3191 2.71
      vertex 9.02094 -11.4544 2.5
      vertex 9.52606 -11.3191 2.5
    endloop
  endfacet
  facet normal -0.258736 0.965948 0
    outer loop
      vertex -9.02094 11.4544 2.5
      vertex -9.52606 11.3191 2.71
      vertex -9.02094 11.4544 2.71
    endloop
  endfacet
  facet normal -0.258736 0.965948 0
    outer loop
      vertex -9.52606 11.3191 2.71
      vertex -9.02094 11.4544 2.5
      vertex -9.52606 11.3191 2.5
    endloop
  endfacet
  facet normal 0.0872006 -0.996191 0
    outer loop
      vertex -8.27094 10.7044 2.5
      vertex -7.75 10.75 2.71
      vertex -8.27094 10.7044 2.71
    endloop
  endfacet
  facet normal 0.0872006 -0.996191 0
    outer loop
      vertex -7.75 10.75 2.71
      vertex -8.27094 10.7044 2.5
      vertex -7.75 10.75 2.5
    endloop
  endfacet
  facet normal 0.573652 0.819099 -0
    outer loop
      vertex -9.25 -10.3481 2.5
      vertex -9.67836 -10.0481 2.71
      vertex -9.25 -10.3481 2.71
    endloop
  endfacet
  facet normal 0.573652 0.819099 0
    outer loop
      vertex -9.67836 -10.0481 2.71
      vertex -9.25 -10.3481 2.5
      vertex -9.67836 -10.0481 2.5
    endloop
  endfacet
  facet normal 0.906309 -0.422615 0
    outer loop
      vertex -10.5691 8.77606 2.71
      vertex -10.3481 9.25 2.5
      vertex -10.3481 9.25 2.71
    endloop
  endfacet
  facet normal 0.906309 -0.422615 0
    outer loop
      vertex -10.3481 9.25 2.5
      vertex -10.5691 8.77606 2.71
      vertex -10.5691 8.77606 2.5
    endloop
  endfacet
  facet normal -0.707107 0.707107 0
    outer loop
      vertex 9.67836 -10.0481 2.5
      vertex 10.0481 -9.67836 2.71
      vertex 10.0481 -9.67836 2.5
    endloop
  endfacet
  facet normal -0.707107 0.707107 0
    outer loop
      vertex 10.0481 -9.67836 2.71
      vertex 9.67836 -10.0481 2.5
      vertex 9.67836 -10.0481 2.71
    endloop
  endfacet
  facet normal -0.819099 0.573652 0
    outer loop
      vertex 10.0481 -9.67836 2.5
      vertex 10.3481 -9.25 2.71
      vertex 10.3481 -9.25 2.5
    endloop
  endfacet
  facet normal -0.819099 0.573652 0
    outer loop
      vertex 10.3481 -9.25 2.71
      vertex 10.0481 -9.67836 2.5
      vertex 10.0481 -9.67836 2.71
    endloop
  endfacet
  facet normal 0.573652 -0.819099 0
    outer loop
      vertex -9.67836 10.0481 2.5
      vertex -9.25 10.3481 2.71
      vertex -9.67836 10.0481 2.71
    endloop
  endfacet
  facet normal 0.573652 -0.819099 0
    outer loop
      vertex -9.25 10.3481 2.71
      vertex -9.67836 10.0481 2.5
      vertex -9.25 10.3481 2.5
    endloop
  endfacet
  facet normal 0 -1 0
    outer loop
      vertex -7.75 10.75 2.5
      vertex 7.75 10.75 2.71
      vertex -7.75 10.75 2.71
    endloop
  endfacet
  facet normal 0 -1 -0
    outer loop
      vertex 7.75 10.75 2.71
      vertex -7.75 10.75 2.5
      vertex 7.75 10.75 2.5
    endloop
  endfacet
  facet normal 0.258736 0.965948 -0
    outer loop
      vertex -8.27094 -10.7044 2.5
      vertex -8.77606 -10.5691 2.71
      vertex -8.27094 -10.7044 2.71
    endloop
  endfacet
  facet normal 0.258736 0.965948 0
    outer loop
      vertex -8.77606 -10.5691 2.71
      vertex -8.27094 -10.7044 2.5
      vertex -8.77606 -10.5691 2.5
    endloop
  endfacet
  facet normal -0.906309 0.422615 0
    outer loop
      vertex 10.3481 -9.25 2.5
      vertex 10.5691 -8.77606 2.71
      vertex 10.5691 -8.77606 2.5
    endloop
  endfacet
  facet normal -0.906309 0.422615 0
    outer loop
      vertex 10.5691 -8.77606 2.71
      vertex 10.3481 -9.25 2.5
      vertex 10.3481 -9.25 2.71
    endloop
  endfacet
  facet normal 0.258736 -0.965948 0
    outer loop
      vertex -8.77606 10.5691 2.5
      vertex -8.27094 10.7044 2.71
      vertex -8.77606 10.5691 2.71
    endloop
  endfacet
  facet normal 0.258736 -0.965948 0
    outer loop
      vertex -8.27094 10.7044 2.71
      vertex -8.77606 10.5691 2.5
      vertex -8.27094 10.7044 2.5
    endloop
  endfacet
  facet normal -0.573652 -0.819099 0
    outer loop
      vertex 9.25 10.3481 2.5
      vertex 9.67836 10.0481 2.71
      vertex 9.25 10.3481 2.71
    endloop
  endfacet
  facet normal -0.573652 -0.819099 -0
    outer loop
      vertex 9.67836 10.0481 2.71
      vertex 9.25 10.3481 2.5
      vertex 9.67836 10.0481 2.5
    endloop
  endfacet
  facet normal 0 1 -0
    outer loop
      vertex 7.75 -10.75 2.5
      vertex -7.75 -10.75 2.71
      vertex 7.75 -10.75 2.71
    endloop
  endfacet
  facet normal 0 1 0
    outer loop
      vertex -7.75 -10.75 2.71
      vertex 7.75 -10.75 2.5
      vertex -7.75 -10.75 2.5
    endloop
  endfacet
  facet normal -1 0 0
    outer loop
      vertex 10.75 -7.75 2.5
      vertex 10.75 7.75 2.71
      vertex 10.75 7.75 2.5
    endloop
  endfacet
  facet normal -1 -0 0
    outer loop
      vertex 10.75 7.75 2.71
      vertex 10.75 -7.75 2.5
      vertex 10.75 -7.75 2.71
    endloop
  endfacet
  facet normal -0.422615 0.906309 0
    outer loop
      vertex 9.25 -10.3481 2.5
      vertex 8.77606 -10.5691 2.71
      vertex 9.25 -10.3481 2.71
    endloop
  endfacet
  facet normal -0.422615 0.906309 0
    outer loop
      vertex 8.77606 -10.5691 2.71
      vertex 9.25 -10.3481 2.5
      vertex 8.77606 -10.5691 2.5
    endloop
  endfacet
  facet normal 0.422615 -0.906309 0
    outer loop
      vertex -9.25 10.3481 2.5
      vertex -8.77606 10.5691 2.71
      vertex -9.25 10.3481 2.71
    endloop
  endfacet
  facet normal 0.422615 -0.906309 0
    outer loop
      vertex -8.77606 10.5691 2.71
      vertex -9.25 10.3481 2.5
      vertex -8.77606 10.5691 2.5
    endloop
  endfacet
  facet normal -0.965948 0.258736 0
    outer loop
      vertex 10.5691 -8.77606 2.5
      vertex 10.7044 -8.27094 2.71
      vertex 10.7044 -8.27094 2.5
    endloop
  endfacet
  facet normal -0.965948 0.258736 0
    outer loop
      vertex 10.7044 -8.27094 2.71
      vertex 10.5691 -8.77606 2.5
      vertex 10.5691 -8.77606 2.71
    endloop
  endfacet
  facet normal 0.422615 0.906309 -0
    outer loop
      vertex -8.77606 -10.5691 2.5
      vertex -9.25 -10.3481 2.71
      vertex -8.77606 -10.5691 2.71
    endloop
  endfacet
  facet normal 0.422615 0.906309 0
    outer loop
      vertex -9.25 -10.3481 2.71
      vertex -8.77606 -10.5691 2.5
      vertex -9.25 -10.3481 2.5
    endloop
  endfacet
  facet normal 1 -0 0
    outer loop
      vertex -10.75 -7.75 2.71
      vertex -10.75 7.75 2.5
      vertex -10.75 7.75 2.71
    endloop
  endfacet
  facet normal 1 0 0
    outer loop
      vertex -10.75 7.75 2.5
      vertex -10.75 -7.75 2.71
      vertex -10.75 -7.75 2.5
    endloop
  endfacet
  facet normal -0.422615 -0.906309 0
    outer loop
      vertex 8.77606 10.5691 2.5
      vertex 9.25 10.3481 2.71
      vertex 8.77606 10.5691 2.71
    endloop
  endfacet
  facet normal -0.422615 -0.906309 -0
    outer loop
      vertex 9.25 10.3481 2.71
      vertex 8.77606 10.5691 2.5
      vertex 9.25 10.3481 2.5
    endloop
  endfacet
  facet normal 0.819099 -0.573652 0
    outer loop
      vertex -10.3481 9.25 2.71
      vertex -10.0481 9.67836 2.5
      vertex -10.0481 9.67836 2.71
    endloop
  endfacet
  facet normal 0.819099 -0.573652 0
    outer loop
      vertex -10.0481 9.67836 2.5
      vertex -10.3481 9.25 2.71
      vertex -10.3481 9.25 2.5
    endloop
  endfacet
  facet normal 0.996191 -0.0872006 0
    outer loop
      vertex -10.75 7.75 2.71
      vertex -10.7044 8.27094 2.5
      vertex -10.7044 8.27094 2.71
    endloop
  endfacet
  facet normal 0.996191 -0.0872006 0
    outer loop
      vertex -10.7044 8.27094 2.5
      vertex -10.75 7.75 2.71
      vertex -10.75 7.75 2.5
    endloop
  endfacet
  facet normal -0.707107 -0.707107 0
    outer loop
      vertex 10.0481 9.67836 2.5
      vertex 9.67836 10.0481 2.71
      vertex 9.67836 10.0481 2.5
    endloop
  endfacet
  facet normal -0.707107 -0.707107 0
    outer loop
      vertex 9.67836 10.0481 2.71
      vertex 10.0481 9.67836 2.5
      vertex 10.0481 9.67836 2.71
    endloop
  endfacet
  facet normal -0.996191 0.0872006 0
    outer loop
      vertex 10.7044 -8.27094 2.5
      vertex 10.75 -7.75 2.71
      vertex 10.75 -7.75 2.5
    endloop
  endfacet
  facet normal -0.996191 0.0872006 0
    outer loop
      vertex 10.75 -7.75 2.71
      vertex 10.7044 -8.27094 2.5
      vertex 10.7044 -8.27094 2.71
    endloop
  endfacet
  facet normal -0.573652 0.819099 0
    outer loop
      vertex 9.67836 -10.0481 2.5
      vertex 9.25 -10.3481 2.71
      vertex 9.67836 -10.0481 2.71
    endloop
  endfacet
  facet normal -0.573652 0.819099 0
    outer loop
      vertex 9.25 -10.3481 2.71
      vertex 9.67836 -10.0481 2.5
      vertex 9.25 -10.3481 2.5
    endloop
  endfacet
  facet normal -0.906309 -0.422615 0
    outer loop
      vertex 10.5691 8.77606 2.5
      vertex 10.3481 9.25 2.71
      vertex 10.3481 9.25 2.5
    endloop
  endfacet
  facet normal -0.906309 -0.422615 0
    outer loop
      vertex 10.3481 9.25 2.71
      vertex 10.5691 8.77606 2.5
      vertex 10.5691 8.77606 2.71
    endloop
  endfacet
  facet normal 0.0872006 0.996191 -0
    outer loop
      vertex -7.75 -10.75 2.5
      vertex -8.27094 -10.7044 2.71
      vertex -7.75 -10.75 2.71
    endloop
  endfacet
  facet normal 0.0872006 0.996191 0
    outer loop
      vertex -8.27094 -10.7044 2.71
      vertex -7.75 -10.75 2.5
      vertex -8.27094 -10.7044 2.5
    endloop
  endfacet
  facet normal -0.996191 -0.0872006 0
    outer loop
      vertex 10.75 7.75 2.5
      vertex 10.7044 8.27094 2.71
      vertex 10.7044 8.27094 2.5
    endloop
  endfacet
  facet normal -0.996191 -0.0872006 0
    outer loop
      vertex 10.7044 8.27094 2.71
      vertex 10.75 7.75 2.5
      vertex 10.75 7.75 2.71
    endloop
  endfacet
  facet normal 0.707107 0.707107 0
    outer loop
      vertex -9.67836 -10.0481 2.71
      vertex -10.0481 -9.67836 2.5
      vertex -10.0481 -9.67836 2.71
    endloop
  endfacet
  facet normal 0.707107 0.707107 0
    outer loop
      vertex -10.0481 -9.67836 2.5
      vertex -9.67836 -10.0481 2.71
      vertex -9.67836 -10.0481 2.5
    endloop
  endfacet
  facet normal -0.258736 0.965948 0
    outer loop
      vertex 8.77606 -10.5691 2.5
      vertex 8.27094 -10.7044 2.71
      vertex 8.77606 -10.5691 2.71
    endloop
  endfacet
  facet normal -0.258736 0.965948 0
    outer loop
      vertex 8.27094 -10.7044 2.71
      vertex 8.77606 -10.5691 2.5
      vertex 8.27094 -10.7044 2.5
    endloop
  endfacet
  facet normal 0.707107 -0.707107 0
    outer loop
      vertex -10.0481 9.67836 2.71
      vertex -9.67836 10.0481 2.5
      vertex -9.67836 10.0481 2.71
    endloop
  endfacet
  facet normal 0.707107 -0.707107 0
    outer loop
      vertex -9.67836 10.0481 2.5
      vertex -10.0481 9.67836 2.71
      vertex -10.0481 9.67836 2.5
    endloop
  endfacet
  facet normal 0.965948 -0.258736 0
    outer loop
      vertex -10.7044 8.27094 2.71
      vertex -10.5691 8.77606 2.5
      vertex -10.5691 8.77606 2.71
    endloop
  endfacet
  facet normal 0.965948 -0.258736 0
    outer loop
      vertex -10.5691 8.77606 2.5
      vertex -10.7044 8.27094 2.71
      vertex -10.7044 8.27094 2.5
    endloop
  endfacet
  facet normal -0.0872006 0.996191 0
    outer loop
      vertex 8.27094 -10.7044 2.5
      vertex 7.75 -10.75 2.71
      vertex 8.27094 -10.7044 2.71
    endloop
  endfacet
  facet normal -0.0872006 0.996191 0
    outer loop
      vertex 7.75 -10.75 2.71
      vertex 8.27094 -10.7044 2.5
      vertex 7.75 -10.75 2.5
    endloop
  endfacet
  facet normal -0.965948 -0.258736 0
    outer loop
      vertex 10.7044 8.27094 2.5
      vertex 10.5691 8.77606 2.71
      vertex 10.5691 8.77606 2.5
    endloop
  endfacet
  facet normal -0.965948 -0.258736 0
    outer loop
      vertex 10.5691 8.77606 2.71
      vertex 10.7044 8.27094 2.5
      vertex 10.7044 8.27094 2.71
    endloop
  endfacet
  facet normal 0.996191 0.0872006 0
    outer loop
      vertex -10.7044 -8.27094 2.71
      vertex -10.75 -7.75 2.5
      vertex -10.75 -7.75 2.71
    endloop
  endfacet
  facet normal 0.996191 0.0872006 0
    outer loop
      vertex -10.75 -7.75 2.5
      vertex -10.7044 -8.27094 2.71
      vertex -10.7044 -8.27094 2.5
    endloop
  endfacet
  facet normal -0.258736 -0.965948 0
    outer loop
      vertex 8.27094 10.7044 2.5
      vertex 8.77606 10.5691 2.71
      vertex 8.27094 10.7044 2.71
    endloop
  endfacet
  facet normal -0.258736 -0.965948 -0
    outer loop
      vertex 8.77606 10.5691 2.71
      vertex 8.27094 10.7044 2.5
      vertex 8.77606 10.5691 2.5
    endloop
  endfacet
  facet normal 0.819099 0.573652 0
    outer loop
      vertex -10.0481 -9.67836 2.71
      vertex -10.3481 -9.25 2.5
      vertex -10.3481 -9.25 2.71
    endloop
  endfacet
  facet normal 0.819099 0.573652 0
    outer loop
      vertex -10.3481 -9.25 2.5
      vertex -10.0481 -9.67836 2.71
      vertex -10.0481 -9.67836 2.5
    endloop
  endfacet
  facet normal 0.965948 0.258736 0
    outer loop
      vertex -10.5691 -8.77606 2.71
      vertex -10.7044 -8.27094 2.5
      vertex -10.7044 -8.27094 2.71
    endloop
  endfacet
  facet normal 0.965948 0.258736 0
    outer loop
      vertex -10.7044 -8.27094 2.5
      vertex -10.5691 -8.77606 2.71
      vertex -10.5691 -8.77606 2.5
    endloop
  endfacet
  facet normal 0.906309 0.422615 0
    outer loop
      vertex -10.3481 -9.25 2.71
      vertex -10.5691 -8.77606 2.5
      vertex -10.5691 -8.77606 2.71
    endloop
  endfacet
  facet normal 0.906309 0.422615 0
    outer loop
      vertex -10.5691 -8.77606 2.5
      vertex -10.3481 -9.25 2.71
      vertex -10.3481 -9.25 2.5
    endloop
  endfacet
  facet normal -0.0872006 -0.996191 0
    outer loop
      vertex 7.75 10.75 2.5
      vertex 8.27094 10.7044 2.71
      vertex 7.75 10.75 2.71
    endloop
  endfacet
  facet normal -0.0872006 -0.996191 -0
    outer loop
      vertex 8.27094 10.7044 2.71
      vertex 7.75 10.75 2.5
      vertex 8.27094 10.7044 2.5
    endloop
  endfacet
  facet normal -0.819099 -0.573652 0
    outer loop
      vertex 10.3481 9.25 2.5
      vertex 10.0481 9.67836 2.71
      vertex 10.0481 9.67836 2.5
    endloop
  endfacet
  facet normal -0.819099 -0.573652 0
    outer loop
      vertex 10.0481 9.67836 2.71
      vertex 10.3481 9.25 2.5
      vertex 10.3481 9.25 2.71
    endloop
  endfacet
endsolid OpenSCAD_Model
