solid OpenSCAD_Model
  facet normal 0.965958 -0.258698 0
    outer loop
      vertex 27.3191 -18.5261 2.71
      vertex 27.4544 -18.0209 2.5
      vertex 27.4544 -18.0209 2.71
    endloop
  endfacet
  facet normal 0.965958 -0.258698 0
    outer loop
      vertex 27.4544 -18.0209 2.5
      vertex 27.3191 -18.5261 2.71
      vertex 27.3191 -18.5261 2.5
    endloop
  endfacet
  facet normal 0.422645 -0.906295 0
    outer loop
      vertex 25.5261 -20.3191 2.5
      vertex 26 -20.0981 2.71
      vertex 25.5261 -20.3191 2.71
    endloop
  endfacet
  facet normal 0.422645 -0.906295 0
    outer loop
      vertex 26 -20.0981 2.71
      vertex 25.5261 -20.3191 2.5
      vertex 26 -20.0981 2.5
    endloop
  endfacet
  facet normal 0 0 -1
    outer loop
      vertex 26.5691 -17.7761 2.5
      vertex 27.5 -17.5 2.5
      vertex 27.4544 -18.0209 2.5
    endloop
  endfacet
  facet normal 0 0 -1
    outer loop
      vertex 27.5 -17.5 2.5
      vertex 26.75 -16.75 2.5
      vertex 27.5 17.5 2.5
    endloop
  endfacet
  facet normal 0 0 -1
    outer loop
      vertex 26.5691 -17.7761 2.5
      vertex 27.4544 -18.0209 2.5
      vertex 27.3191 -18.5261 2.5
    endloop
  endfacet
  facet normal 0 0 -1
    outer loop
      vertex 26.75 16.75 2.5
      vertex 27.5 17.5 2.5
      vertex 26.75 -16.75 2.5
    endloop
  endfacet
  facet normal 0 0 -1
    outer loop
      vertex 26.3481 -18.25 2.5
      vertex 27.3191 -18.5261 2.5
      vertex 27.0981 -19 2.5
    endloop
  endfacet
  facet normal 0 0 -1
    outer loop
      vertex 26.7044 17.2709 2.5
      vertex 27.5 17.5 2.5
      vertex 26.75 16.75 2.5
    endloop
  endfacet
  facet normal 0 0 -1
    outer loop
      vertex 26.0481 -18.6784 2.5
      vertex 27.0981 -19 2.5
      vertex 26.7981 -19.4284 2.5
    endloop
  endfacet
  facet normal 0 0 -1
    outer loop
      vertex 26.5691 17.7761 2.5
      vertex 27.5 17.5 2.5
      vertex 26.7044 17.2709 2.5
    endloop
  endfacet
  facet normal 0 0 -1
    outer loop
      vertex 27.5 17.5 2.5
      vertex 26.5691 17.7761 2.5
      vertex 27.4544 18.0209 2.5
    endloop
  endfacet
  facet normal 0 0 -1
    outer loop
      vertex 27.5 -17.5 2.5
      vertex 26.7044 -17.2709 2.5
      vertex 26.75 -16.75 2.5
    endloop
  endfacet
  facet normal -0 0 -1
    outer loop
      vertex 27.5 -17.5 2.5
      vertex 26.5691 -17.7761 2.5
      vertex 26.7044 -17.2709 2.5
    endloop
  endfacet
  facet normal 0 0 -1
    outer loop
      vertex 26.0481 -18.6784 2.5
      vertex 26.7981 -19.4284 2.5
      vertex 26.4284 -19.7981 2.5
    endloop
  endfacet
  facet normal 0 0 -1
    outer loop
      vertex 27.3191 -18.5261 2.5
      vertex 26.3481 -18.25 2.5
      vertex 26.5691 -17.7761 2.5
    endloop
  endfacet
  facet normal 0 0 -1
    outer loop
      vertex 27.0981 -19 2.5
      vertex 26.0481 -18.6784 2.5
      vertex 26.3481 -18.25 2.5
    endloop
  endfacet
  facet normal 0 0 -1
    outer loop
      vertex 25.6784 -19.0481 2.5
      vertex 26.4284 -19.7981 2.5
      vertex 26 -20.0981 2.5
    endloop
  endfacet
  facet normal 0 0 -1
    outer loop
      vertex 26.4284 -19.7981 2.5
      vertex 25.6784 -19.0481 2.5
      vertex 26.0481 -18.6784 2.5
    endloop
  endfacet
  facet normal 0 0 -1
    outer loop
      vertex 25.25 -19.3481 2.5
      vertex 26 -20.0981 2.5
      vertex 25.5261 -20.3191 2.5
    endloop
  endfacet
  facet normal 0 0 -1
    outer loop
      vertex 26 -20.0981 2.5
      vertex 25.25 -19.3481 2.5
      vertex 25.6784 -19.0481 2.5
    endloop
  endfacet
  facet normal 0 0 -1
    outer loop
      vertex 24.7761 -19.5691 2.5
      vertex 25.5261 -20.3191 2.5
      vertex 25.0209 -20.4544 2.5
    endloop
  endfacet
  facet normal 0 0 -1
    outer loop
      vertex 25.5261 -20.3191 2.5
      vertex 24.7761 -19.5691 2.5
      vertex 25.25 -19.3481 2.5
    endloop
  endfacet
  facet normal 0 0 -1
    outer loop
      vertex 24.5 -20.5 2.5
      vertex 24.7761 -19.5691 2.5
      vertex 25.0209 -20.4544 2.5
    endloop
  endfacet
  facet normal 0 0 -1
    outer loop
      vertex 24.5 -20.5 2.5
      vertex 24.2709 -19.7044 2.5
      vertex 24.7761 -19.5691 2.5
    endloop
  endfacet
  facet normal 0 0 -1
    outer loop
      vertex 24.5 -20.5 2.5
      vertex 23.75 -19.75 2.5
      vertex 24.2709 -19.7044 2.5
    endloop
  endfacet
  facet normal 0 0 -1
    outer loop
      vertex 24.5 -20.5 2.5
      vertex -23.75 -19.75 2.5
      vertex 23.75 -19.75 2.5
    endloop
  endfacet
  facet normal 0 0 -1
    outer loop
      vertex -24.5 -20.5 2.5
      vertex -23.75 -19.75 2.5
      vertex 24.5 -20.5 2.5
    endloop
  endfacet
  facet normal 0 0 -1
    outer loop
      vertex -24.5 -20.5 2.5
      vertex -24.2709 -19.7044 2.5
      vertex -23.75 -19.75 2.5
    endloop
  endfacet
  facet normal 0 0 -1
    outer loop
      vertex -24.5 -20.5 2.5
      vertex -24.7761 -19.5691 2.5
      vertex -24.2709 -19.7044 2.5
    endloop
  endfacet
  facet normal 0 0 -1
    outer loop
      vertex -25.0209 -20.4544 2.5
      vertex -24.7761 -19.5691 2.5
      vertex -24.5 -20.5 2.5
    endloop
  endfacet
  facet normal 0 0 -1
    outer loop
      vertex -25.5261 -20.3191 2.5
      vertex -24.7761 -19.5691 2.5
      vertex -25.0209 -20.4544 2.5
    endloop
  endfacet
  facet normal -0 0 -1
    outer loop
      vertex -24.7761 -19.5691 2.5
      vertex -25.5261 -20.3191 2.5
      vertex -25.25 -19.3481 2.5
    endloop
  endfacet
  facet normal 0 0 -1
    outer loop
      vertex -26 -20.0981 2.5
      vertex -25.25 -19.3481 2.5
      vertex -25.5261 -20.3191 2.5
    endloop
  endfacet
  facet normal -0 0 -1
    outer loop
      vertex -25.25 -19.3481 2.5
      vertex -26 -20.0981 2.5
      vertex -25.6784 -19.0481 2.5
    endloop
  endfacet
  facet normal 0 0 -1
    outer loop
      vertex -26.4284 -19.7981 2.5
      vertex -25.6784 -19.0481 2.5
      vertex -26 -20.0981 2.5
    endloop
  endfacet
  facet normal -0 0 -1
    outer loop
      vertex -25.6784 -19.0481 2.5
      vertex -26.4284 -19.7981 2.5
      vertex -26.0481 -18.6784 2.5
    endloop
  endfacet
  facet normal 0 0 -1
    outer loop
      vertex -26.7981 -19.4284 2.5
      vertex -26.0481 -18.6784 2.5
      vertex -26.4284 -19.7981 2.5
    endloop
  endfacet
  facet normal 0 0 -1
    outer loop
      vertex -27.0981 -19 2.5
      vertex -26.0481 -18.6784 2.5
      vertex -26.7981 -19.4284 2.5
    endloop
  endfacet
  facet normal -0 0 -1
    outer loop
      vertex -26.0481 -18.6784 2.5
      vertex -27.0981 -19 2.5
      vertex -26.3481 -18.25 2.5
    endloop
  endfacet
  facet normal 0 0 -1
    outer loop
      vertex -27.4544 -18.0209 2.5
      vertex -26.5691 -17.7761 2.5
      vertex -27.3191 -18.5261 2.5
    endloop
  endfacet
  facet normal -0 0 -1
    outer loop
      vertex -26.3481 -18.25 2.5
      vertex -27.3191 -18.5261 2.5
      vertex -26.5691 -17.7761 2.5
    endloop
  endfacet
  facet normal 0 0 -1
    outer loop
      vertex -27.3191 -18.5261 2.5
      vertex -26.3481 -18.25 2.5
      vertex -27.0981 -19 2.5
    endloop
  endfacet
  facet normal -0 0 -1
    outer loop
      vertex 27.4544 18.0209 2.5
      vertex 26.5691 17.7761 2.5
      vertex 27.3191 18.5261 2.5
    endloop
  endfacet
  facet normal 0 0 -1
    outer loop
      vertex 26.3481 18.25 2.5
      vertex 27.3191 18.5261 2.5
      vertex 26.5691 17.7761 2.5
    endloop
  endfacet
  facet normal -0 0 -1
    outer loop
      vertex 27.3191 18.5261 2.5
      vertex 26.3481 18.25 2.5
      vertex 27.0981 19 2.5
    endloop
  endfacet
  facet normal 0 0 -1
    outer loop
      vertex 26.0481 18.6784 2.5
      vertex 27.0981 19 2.5
      vertex 26.3481 18.25 2.5
    endloop
  endfacet
  facet normal -0 0 -1
    outer loop
      vertex 27.0981 19 2.5
      vertex 26.0481 18.6784 2.5
      vertex 26.7981 19.4284 2.5
    endloop
  endfacet
  facet normal -0 0 -1
    outer loop
      vertex 26.7981 19.4284 2.5
      vertex 26.0481 18.6784 2.5
      vertex 26.4284 19.7981 2.5
    endloop
  endfacet
  facet normal 0 0 -1
    outer loop
      vertex 25.6784 19.0481 2.5
      vertex 26.4284 19.7981 2.5
      vertex 26.0481 18.6784 2.5
    endloop
  endfacet
  facet normal -0 0 -1
    outer loop
      vertex 26.4284 19.7981 2.5
      vertex 25.6784 19.0481 2.5
      vertex 26 20.0981 2.5
    endloop
  endfacet
  facet normal 0 0 -1
    outer loop
      vertex 25.25 19.3481 2.5
      vertex 26 20.0981 2.5
      vertex 25.6784 19.0481 2.5
    endloop
  endfacet
  facet normal -0 0 -1
    outer loop
      vertex 26 20.0981 2.5
      vertex 25.25 19.3481 2.5
      vertex 25.5261 20.3191 2.5
    endloop
  endfacet
  facet normal 0 0 -1
    outer loop
      vertex 24.7761 19.5691 2.5
      vertex 25.5261 20.3191 2.5
      vertex 25.25 19.3481 2.5
    endloop
  endfacet
  facet normal -0 0 -1
    outer loop
      vertex 25.5261 20.3191 2.5
      vertex 24.7761 19.5691 2.5
      vertex 25.0209 20.4544 2.5
    endloop
  endfacet
  facet normal 0 0 -1
    outer loop
      vertex 24.7761 19.5691 2.5
      vertex 24.5 20.5 2.5
      vertex 25.0209 20.4544 2.5
    endloop
  endfacet
  facet normal 0 0 -1
    outer loop
      vertex 24.2709 19.7044 2.5
      vertex 24.5 20.5 2.5
      vertex 24.7761 19.5691 2.5
    endloop
  endfacet
  facet normal 0 0 -1
    outer loop
      vertex 23.75 19.75 2.5
      vertex 24.5 20.5 2.5
      vertex 24.2709 19.7044 2.5
    endloop
  endfacet
  facet normal 0 0 -1
    outer loop
      vertex -23.75 19.75 2.5
      vertex 24.5 20.5 2.5
      vertex 23.75 19.75 2.5
    endloop
  endfacet
  facet normal 0 0 -1
    outer loop
      vertex -23.75 19.75 2.5
      vertex -24.5 20.5 2.5
      vertex 24.5 20.5 2.5
    endloop
  endfacet
  facet normal 0 0 -1
    outer loop
      vertex -24.2709 19.7044 2.5
      vertex -24.5 20.5 2.5
      vertex -23.75 19.75 2.5
    endloop
  endfacet
  facet normal 0 0 -1
    outer loop
      vertex -24.7761 19.5691 2.5
      vertex -24.5 20.5 2.5
      vertex -24.2709 19.7044 2.5
    endloop
  endfacet
  facet normal 0 0 -1
    outer loop
      vertex -24.7761 19.5691 2.5
      vertex -25.0209 20.4544 2.5
      vertex -24.5 20.5 2.5
    endloop
  endfacet
  facet normal 0 0 -1
    outer loop
      vertex -25.5261 20.3191 2.5
      vertex -24.7761 19.5691 2.5
      vertex -25.25 19.3481 2.5
    endloop
  endfacet
  facet normal 0 0 -1
    outer loop
      vertex -24.7761 19.5691 2.5
      vertex -25.5261 20.3191 2.5
      vertex -25.0209 20.4544 2.5
    endloop
  endfacet
  facet normal 0 0 -1
    outer loop
      vertex -26 20.0981 2.5
      vertex -25.25 19.3481 2.5
      vertex -25.6784 19.0481 2.5
    endloop
  endfacet
  facet normal 0 0 -1
    outer loop
      vertex -25.25 19.3481 2.5
      vertex -26 20.0981 2.5
      vertex -25.5261 20.3191 2.5
    endloop
  endfacet
  facet normal 0 0 -1
    outer loop
      vertex -26.4284 19.7981 2.5
      vertex -25.6784 19.0481 2.5
      vertex -26.0481 18.6784 2.5
    endloop
  endfacet
  facet normal 0 0 -1
    outer loop
      vertex -27.0981 19 2.5
      vertex -26.0481 18.6784 2.5
      vertex -26.3481 18.25 2.5
    endloop
  endfacet
  facet normal 0 0 -1
    outer loop
      vertex -25.6784 19.0481 2.5
      vertex -26.4284 19.7981 2.5
      vertex -26 20.0981 2.5
    endloop
  endfacet
  facet normal 0 0 -1
    outer loop
      vertex -27.3191 18.5261 2.5
      vertex -26.3481 18.25 2.5
      vertex -26.5691 17.7761 2.5
    endloop
  endfacet
  facet normal 0 0 -1
    outer loop
      vertex -27.5 17.5 2.5
      vertex -26.5691 17.7761 2.5
      vertex -26.7044 17.2709 2.5
    endloop
  endfacet
  facet normal 0 0 -1
    outer loop
      vertex -26.0481 18.6784 2.5
      vertex -26.7981 19.4284 2.5
      vertex -26.4284 19.7981 2.5
    endloop
  endfacet
  facet normal 0 0 -1
    outer loop
      vertex -27.5 17.5 2.5
      vertex -26.7044 17.2709 2.5
      vertex -26.75 16.75 2.5
    endloop
  endfacet
  facet normal -0 0 -1
    outer loop
      vertex -26.75 -16.75 2.5
      vertex -27.5 -17.5 2.5
      vertex -26.75 16.75 2.5
    endloop
  endfacet
  facet normal 0 0 -1
    outer loop
      vertex -27.5 -17.5 2.5
      vertex -26.5691 -17.7761 2.5
      vertex -27.4544 -18.0209 2.5
    endloop
  endfacet
  facet normal 0 0 -1
    outer loop
      vertex -27.5 17.5 2.5
      vertex -26.75 16.75 2.5
      vertex -27.5 -17.5 2.5
    endloop
  endfacet
  facet normal 0 0 -1
    outer loop
      vertex -26.5691 -17.7761 2.5
      vertex -27.5 -17.5 2.5
      vertex -26.7044 -17.2709 2.5
    endloop
  endfacet
  facet normal -0 0 -1
    outer loop
      vertex -26.5691 17.7761 2.5
      vertex -27.5 17.5 2.5
      vertex -27.4544 18.0209 2.5
    endloop
  endfacet
  facet normal -0 0 -1
    outer loop
      vertex -26.7044 -17.2709 2.5
      vertex -27.5 -17.5 2.5
      vertex -26.75 -16.75 2.5
    endloop
  endfacet
  facet normal 0 0 -1
    outer loop
      vertex -26.0481 18.6784 2.5
      vertex -27.0981 19 2.5
      vertex -26.7981 19.4284 2.5
    endloop
  endfacet
  facet normal 0 0 -1
    outer loop
      vertex -26.3481 18.25 2.5
      vertex -27.3191 18.5261 2.5
      vertex -27.0981 19 2.5
    endloop
  endfacet
  facet normal 0 0 -1
    outer loop
      vertex -26.5691 17.7761 2.5
      vertex -27.4544 18.0209 2.5
      vertex -27.3191 18.5261 2.5
    endloop
  endfacet
  facet normal 0.0872073 -0.99619 0
    outer loop
      vertex 24.5 -20.5 2.5
      vertex 25.0209 -20.4544 2.71
      vertex 24.5 -20.5 2.71
    endloop
  endfacet
  facet normal 0.0872073 -0.99619 0
    outer loop
      vertex 25.0209 -20.4544 2.71
      vertex 24.5 -20.5 2.5
      vertex 25.0209 -20.4544 2.5
    endloop
  endfacet
  facet normal -0.906295 -0.422645 0
    outer loop
      vertex -27.0981 -19 2.5
      vertex -27.3191 -18.5261 2.71
      vertex -27.3191 -18.5261 2.5
    endloop
  endfacet
  facet normal -0.906295 -0.422645 0
    outer loop
      vertex -27.3191 -18.5261 2.71
      vertex -27.0981 -19 2.5
      vertex -27.0981 -19 2.71
    endloop
  endfacet
  facet normal -0.965958 0.258698 0
    outer loop
      vertex -27.4544 18.0209 2.5
      vertex -27.3191 18.5261 2.71
      vertex -27.3191 18.5261 2.5
    endloop
  endfacet
  facet normal -0.965958 0.258698 0
    outer loop
      vertex -27.3191 18.5261 2.71
      vertex -27.4544 18.0209 2.5
      vertex -27.4544 18.0209 2.71
    endloop
  endfacet
  facet normal -0.573616 0.819124 0
    outer loop
      vertex -26 20.0981 2.5
      vertex -26.4284 19.7981 2.71
      vertex -26 20.0981 2.71
    endloop
  endfacet
  facet normal -0.573616 0.819124 0
    outer loop
      vertex -26.4284 19.7981 2.71
      vertex -26 20.0981 2.5
      vertex -26.4284 19.7981 2.5
    endloop
  endfacet
  facet normal 0.819124 0.573616 0
    outer loop
      vertex 27.0981 19 2.71
      vertex 26.7981 19.4284 2.5
      vertex 26.7981 19.4284 2.71
    endloop
  endfacet
  facet normal 0.819124 0.573616 0
    outer loop
      vertex 26.7981 19.4284 2.5
      vertex 27.0981 19 2.71
      vertex 27.0981 19 2.5
    endloop
  endfacet
  facet normal -0.422645 0.906295 0
    outer loop
      vertex -25.5261 20.3191 2.5
      vertex -26 20.0981 2.71
      vertex -25.5261 20.3191 2.71
    endloop
  endfacet
  facet normal -0.422645 0.906295 0
    outer loop
      vertex -26 20.0981 2.71
      vertex -25.5261 20.3191 2.5
      vertex -26 20.0981 2.5
    endloop
  endfacet
  facet normal 0.258698 -0.965958 0
    outer loop
      vertex 25.0209 -20.4544 2.5
      vertex 25.5261 -20.3191 2.71
      vertex 25.0209 -20.4544 2.71
    endloop
  endfacet
  facet normal 0.258698 -0.965958 0
    outer loop
      vertex 25.5261 -20.3191 2.71
      vertex 25.0209 -20.4544 2.5
      vertex 25.5261 -20.3191 2.5
    endloop
  endfacet
  facet normal 0.707107 0.707107 0
    outer loop
      vertex 26.7981 19.4284 2.71
      vertex 26.4284 19.7981 2.5
      vertex 26.4284 19.7981 2.71
    endloop
  endfacet
  facet normal 0.707107 0.707107 0
    outer loop
      vertex 26.4284 19.7981 2.5
      vertex 26.7981 19.4284 2.71
      vertex 26.7981 19.4284 2.5
    endloop
  endfacet
  facet normal -0.819124 0.573616 0
    outer loop
      vertex -27.0981 19 2.5
      vertex -26.7981 19.4284 2.71
      vertex -26.7981 19.4284 2.5
    endloop
  endfacet
  facet normal -0.819124 0.573616 0
    outer loop
      vertex -26.7981 19.4284 2.71
      vertex -27.0981 19 2.5
      vertex -27.0981 19 2.71
    endloop
  endfacet
  facet normal 1 -0 0
    outer loop
      vertex 27.5 -17.5 2.71
      vertex 27.5 17.5 2.5
      vertex 27.5 17.5 2.71
    endloop
  endfacet
  facet normal 1 0 0
    outer loop
      vertex 27.5 17.5 2.5
      vertex 27.5 -17.5 2.71
      vertex 27.5 -17.5 2.5
    endloop
  endfacet
  facet normal -0.258698 0.965958 0
    outer loop
      vertex -25.0209 20.4544 2.5
      vertex -25.5261 20.3191 2.71
      vertex -25.0209 20.4544 2.71
    endloop
  endfacet
  facet normal -0.258698 0.965958 0
    outer loop
      vertex -25.5261 20.3191 2.71
      vertex -25.0209 20.4544 2.5
      vertex -25.5261 20.3191 2.5
    endloop
  endfacet
  facet normal 0.906295 -0.422645 0
    outer loop
      vertex 27.0981 -19 2.71
      vertex 27.3191 -18.5261 2.5
      vertex 27.3191 -18.5261 2.71
    endloop
  endfacet
  facet normal 0.906295 -0.422645 0
    outer loop
      vertex 27.3191 -18.5261 2.5
      vertex 27.0981 -19 2.71
      vertex 27.0981 -19 2.5
    endloop
  endfacet
  facet normal -0.258698 -0.965958 0
    outer loop
      vertex -25.5261 -20.3191 2.5
      vertex -25.0209 -20.4544 2.71
      vertex -25.5261 -20.3191 2.71
    endloop
  endfacet
  facet normal -0.258698 -0.965958 -0
    outer loop
      vertex -25.0209 -20.4544 2.71
      vertex -25.5261 -20.3191 2.5
      vertex -25.0209 -20.4544 2.5
    endloop
  endfacet
  facet normal -0.707107 0.707107 0
    outer loop
      vertex -26.7981 19.4284 2.5
      vertex -26.4284 19.7981 2.71
      vertex -26.4284 19.7981 2.5
    endloop
  endfacet
  facet normal -0.707107 0.707107 0
    outer loop
      vertex -26.4284 19.7981 2.71
      vertex -26.7981 19.4284 2.5
      vertex -26.7981 19.4284 2.71
    endloop
  endfacet
  facet normal -1 0 0
    outer loop
      vertex -27.5 -17.5 2.5
      vertex -27.5 17.5 2.71
      vertex -27.5 17.5 2.5
    endloop
  endfacet
  facet normal -1 -0 0
    outer loop
      vertex -27.5 17.5 2.71
      vertex -27.5 -17.5 2.5
      vertex -27.5 -17.5 2.71
    endloop
  endfacet
  facet normal 0.99619 -0.0872073 0
    outer loop
      vertex 27.4544 -18.0209 2.71
      vertex 27.5 -17.5 2.5
      vertex 27.5 -17.5 2.71
    endloop
  endfacet
  facet normal 0.99619 -0.0872073 0
    outer loop
      vertex 27.5 -17.5 2.5
      vertex 27.4544 -18.0209 2.71
      vertex 27.4544 -18.0209 2.5
    endloop
  endfacet
  facet normal 0.819124 -0.573616 0
    outer loop
      vertex 26.7981 -19.4284 2.71
      vertex 27.0981 -19 2.5
      vertex 27.0981 -19 2.71
    endloop
  endfacet
  facet normal 0.819124 -0.573616 0
    outer loop
      vertex 27.0981 -19 2.5
      vertex 26.7981 -19.4284 2.71
      vertex 26.7981 -19.4284 2.5
    endloop
  endfacet
  facet normal -0.99619 0.0872073 0
    outer loop
      vertex -27.5 17.5 2.5
      vertex -27.4544 18.0209 2.71
      vertex -27.4544 18.0209 2.5
    endloop
  endfacet
  facet normal -0.99619 0.0872073 0
    outer loop
      vertex -27.4544 18.0209 2.71
      vertex -27.5 17.5 2.5
      vertex -27.5 17.5 2.71
    endloop
  endfacet
  facet normal 0 1 -0
    outer loop
      vertex 24.5 20.5 2.5
      vertex -24.5 20.5 2.71
      vertex 24.5 20.5 2.71
    endloop
  endfacet
  facet normal 0 1 0
    outer loop
      vertex -24.5 20.5 2.71
      vertex 24.5 20.5 2.5
      vertex -24.5 20.5 2.5
    endloop
  endfacet
  facet normal 0.258698 0.965958 -0
    outer loop
      vertex 25.5261 20.3191 2.5
      vertex 25.0209 20.4544 2.71
      vertex 25.5261 20.3191 2.71
    endloop
  endfacet
  facet normal 0.258698 0.965958 0
    outer loop
      vertex 25.0209 20.4544 2.71
      vertex 25.5261 20.3191 2.5
      vertex 25.0209 20.4544 2.5
    endloop
  endfacet
  facet normal 0 -1 0
    outer loop
      vertex -24.5 -20.5 2.5
      vertex 24.5 -20.5 2.71
      vertex -24.5 -20.5 2.71
    endloop
  endfacet
  facet normal 0 -1 -0
    outer loop
      vertex 24.5 -20.5 2.71
      vertex -24.5 -20.5 2.5
      vertex 24.5 -20.5 2.5
    endloop
  endfacet
  facet normal 0.0872073 0.99619 -0
    outer loop
      vertex 25.0209 20.4544 2.5
      vertex 24.5 20.5 2.71
      vertex 25.0209 20.4544 2.71
    endloop
  endfacet
  facet normal 0.0872073 0.99619 0
    outer loop
      vertex 24.5 20.5 2.71
      vertex 25.0209 20.4544 2.5
      vertex 24.5 20.5 2.5
    endloop
  endfacet
  facet normal 0.573616 -0.819124 0
    outer loop
      vertex 26 -20.0981 2.5
      vertex 26.4284 -19.7981 2.71
      vertex 26 -20.0981 2.71
    endloop
  endfacet
  facet normal 0.573616 -0.819124 0
    outer loop
      vertex 26.4284 -19.7981 2.71
      vertex 26 -20.0981 2.5
      vertex 26.4284 -19.7981 2.5
    endloop
  endfacet
  facet normal 0.965958 0.258698 0
    outer loop
      vertex 27.4544 18.0209 2.71
      vertex 27.3191 18.5261 2.5
      vertex 27.3191 18.5261 2.71
    endloop
  endfacet
  facet normal 0.965958 0.258698 0
    outer loop
      vertex 27.3191 18.5261 2.5
      vertex 27.4544 18.0209 2.71
      vertex 27.4544 18.0209 2.5
    endloop
  endfacet
  facet normal 0.906295 0.422645 0
    outer loop
      vertex 27.3191 18.5261 2.71
      vertex 27.0981 19 2.5
      vertex 27.0981 19 2.71
    endloop
  endfacet
  facet normal 0.906295 0.422645 0
    outer loop
      vertex 27.0981 19 2.5
      vertex 27.3191 18.5261 2.71
      vertex 27.3191 18.5261 2.5
    endloop
  endfacet
  facet normal -0.965958 -0.258698 0
    outer loop
      vertex -27.3191 -18.5261 2.5
      vertex -27.4544 -18.0209 2.71
      vertex -27.4544 -18.0209 2.5
    endloop
  endfacet
  facet normal -0.965958 -0.258698 0
    outer loop
      vertex -27.4544 -18.0209 2.71
      vertex -27.3191 -18.5261 2.5
      vertex -27.3191 -18.5261 2.71
    endloop
  endfacet
  facet normal 0.573616 0.819124 -0
    outer loop
      vertex 26.4284 19.7981 2.5
      vertex 26 20.0981 2.71
      vertex 26.4284 19.7981 2.71
    endloop
  endfacet
  facet normal 0.573616 0.819124 0
    outer loop
      vertex 26 20.0981 2.71
      vertex 26.4284 19.7981 2.5
      vertex 26 20.0981 2.5
    endloop
  endfacet
  facet normal -0.422645 -0.906295 0
    outer loop
      vertex -26 -20.0981 2.5
      vertex -25.5261 -20.3191 2.71
      vertex -26 -20.0981 2.71
    endloop
  endfacet
  facet normal -0.422645 -0.906295 -0
    outer loop
      vertex -25.5261 -20.3191 2.71
      vertex -26 -20.0981 2.5
      vertex -25.5261 -20.3191 2.5
    endloop
  endfacet
  facet normal 0.707107 -0.707107 0
    outer loop
      vertex 26.4284 -19.7981 2.71
      vertex 26.7981 -19.4284 2.5
      vertex 26.7981 -19.4284 2.71
    endloop
  endfacet
  facet normal 0.707107 -0.707107 0
    outer loop
      vertex 26.7981 -19.4284 2.5
      vertex 26.4284 -19.7981 2.71
      vertex 26.4284 -19.7981 2.5
    endloop
  endfacet
  facet normal 0.99619 0.0872073 0
    outer loop
      vertex 27.5 17.5 2.71
      vertex 27.4544 18.0209 2.5
      vertex 27.4544 18.0209 2.71
    endloop
  endfacet
  facet normal 0.99619 0.0872073 0
    outer loop
      vertex 27.4544 18.0209 2.5
      vertex 27.5 17.5 2.71
      vertex 27.5 17.5 2.5
    endloop
  endfacet
  facet normal 0.422645 0.906295 -0
    outer loop
      vertex 26 20.0981 2.5
      vertex 25.5261 20.3191 2.71
      vertex 26 20.0981 2.71
    endloop
  endfacet
  facet normal 0.422645 0.906295 0
    outer loop
      vertex 25.5261 20.3191 2.71
      vertex 26 20.0981 2.5
      vertex 25.5261 20.3191 2.5
    endloop
  endfacet
  facet normal -0 0 1
    outer loop
      vertex 26.5691 17.7761 2.71
      vertex 27.5 17.5 2.71
      vertex 27.4544 18.0209 2.71
    endloop
  endfacet
  facet normal 0 0 1
    outer loop
      vertex 27.5 17.5 2.71
      vertex 26.75 16.75 2.71
      vertex 27.5 -17.5 2.71
    endloop
  endfacet
  facet normal 0 0 1
    outer loop
      vertex 26.5691 17.7761 2.71
      vertex 27.4544 18.0209 2.71
      vertex 27.3191 18.5261 2.71
    endloop
  endfacet
  facet normal -0 0 1
    outer loop
      vertex 26.75 -16.75 2.71
      vertex 27.5 -17.5 2.71
      vertex 26.75 16.75 2.71
    endloop
  endfacet
  facet normal 0 0 1
    outer loop
      vertex 26.3481 18.25 2.71
      vertex 27.3191 18.5261 2.71
      vertex 27.0981 19 2.71
    endloop
  endfacet
  facet normal -0 0 1
    outer loop
      vertex 26.7044 -17.2709 2.71
      vertex 27.5 -17.5 2.71
      vertex 26.75 -16.75 2.71
    endloop
  endfacet
  facet normal 0 0 1
    outer loop
      vertex 26.0481 18.6784 2.71
      vertex 27.0981 19 2.71
      vertex 26.7981 19.4284 2.71
    endloop
  endfacet
  facet normal 0 0 1
    outer loop
      vertex 26.5691 -17.7761 2.71
      vertex 27.5 -17.5 2.71
      vertex 26.7044 -17.2709 2.71
    endloop
  endfacet
  facet normal 0 0 1
    outer loop
      vertex 27.5 -17.5 2.71
      vertex 26.5691 -17.7761 2.71
      vertex 27.4544 -18.0209 2.71
    endloop
  endfacet
  facet normal 0 0 1
    outer loop
      vertex 27.5 17.5 2.71
      vertex 26.7044 17.2709 2.71
      vertex 26.75 16.75 2.71
    endloop
  endfacet
  facet normal 0 0 1
    outer loop
      vertex 27.5 17.5 2.71
      vertex 26.5691 17.7761 2.71
      vertex 26.7044 17.2709 2.71
    endloop
  endfacet
  facet normal 0 0 1
    outer loop
      vertex 26.0481 18.6784 2.71
      vertex 26.7981 19.4284 2.71
      vertex 26.4284 19.7981 2.71
    endloop
  endfacet
  facet normal 0 0 1
    outer loop
      vertex 27.3191 18.5261 2.71
      vertex 26.3481 18.25 2.71
      vertex 26.5691 17.7761 2.71
    endloop
  endfacet
  facet normal 0 0 1
    outer loop
      vertex 27.0981 19 2.71
      vertex 26.0481 18.6784 2.71
      vertex 26.3481 18.25 2.71
    endloop
  endfacet
  facet normal 0 0 1
    outer loop
      vertex 25.6784 19.0481 2.71
      vertex 26.4284 19.7981 2.71
      vertex 26 20.0981 2.71
    endloop
  endfacet
  facet normal 0 0 1
    outer loop
      vertex 26.4284 19.7981 2.71
      vertex 25.6784 19.0481 2.71
      vertex 26.0481 18.6784 2.71
    endloop
  endfacet
  facet normal 0 0 1
    outer loop
      vertex 25.25 19.3481 2.71
      vertex 26 20.0981 2.71
      vertex 25.5261 20.3191 2.71
    endloop
  endfacet
  facet normal 0 0 1
    outer loop
      vertex 26 20.0981 2.71
      vertex 25.25 19.3481 2.71
      vertex 25.6784 19.0481 2.71
    endloop
  endfacet
  facet normal 0 0 1
    outer loop
      vertex 24.7761 19.5691 2.71
      vertex 25.5261 20.3191 2.71
      vertex 25.0209 20.4544 2.71
    endloop
  endfacet
  facet normal 0 0 1
    outer loop
      vertex 25.5261 20.3191 2.71
      vertex 24.7761 19.5691 2.71
      vertex 25.25 19.3481 2.71
    endloop
  endfacet
  facet normal 0 0 1
    outer loop
      vertex 24.5 20.5 2.71
      vertex 24.7761 19.5691 2.71
      vertex 25.0209 20.4544 2.71
    endloop
  endfacet
  facet normal 0 0 1
    outer loop
      vertex 24.5 20.5 2.71
      vertex 24.2709 19.7044 2.71
      vertex 24.7761 19.5691 2.71
    endloop
  endfacet
  facet normal 0 0 1
    outer loop
      vertex 24.5 20.5 2.71
      vertex 23.75 19.75 2.71
      vertex 24.2709 19.7044 2.71
    endloop
  endfacet
  facet normal 0 0 1
    outer loop
      vertex 24.5 20.5 2.71
      vertex -23.75 19.75 2.71
      vertex 23.75 19.75 2.71
    endloop
  endfacet
  facet normal -0 0 1
    outer loop
      vertex -24.5 20.5 2.71
      vertex -23.75 19.75 2.71
      vertex 24.5 20.5 2.71
    endloop
  endfacet
  facet normal 0 0 1
    outer loop
      vertex -24.5 20.5 2.71
      vertex -24.2709 19.7044 2.71
      vertex -23.75 19.75 2.71
    endloop
  endfacet
  facet normal 0 0 1
    outer loop
      vertex -24.5 20.5 2.71
      vertex -24.7761 19.5691 2.71
      vertex -24.2709 19.7044 2.71
    endloop
  endfacet
  facet normal -0 0 1
    outer loop
      vertex -25.0209 20.4544 2.71
      vertex -24.7761 19.5691 2.71
      vertex -24.5 20.5 2.71
    endloop
  endfacet
  facet normal -0 0 1
    outer loop
      vertex -25.5261 20.3191 2.71
      vertex -24.7761 19.5691 2.71
      vertex -25.0209 20.4544 2.71
    endloop
  endfacet
  facet normal 0 0 1
    outer loop
      vertex -24.7761 19.5691 2.71
      vertex -25.5261 20.3191 2.71
      vertex -25.25 19.3481 2.71
    endloop
  endfacet
  facet normal -0 0 1
    outer loop
      vertex -26 20.0981 2.71
      vertex -25.25 19.3481 2.71
      vertex -25.5261 20.3191 2.71
    endloop
  endfacet
  facet normal 0 0 1
    outer loop
      vertex -25.25 19.3481 2.71
      vertex -26 20.0981 2.71
      vertex -25.6784 19.0481 2.71
    endloop
  endfacet
  facet normal -0 0 1
    outer loop
      vertex -26.4284 19.7981 2.71
      vertex -25.6784 19.0481 2.71
      vertex -26 20.0981 2.71
    endloop
  endfacet
  facet normal 0 0 1
    outer loop
      vertex -25.6784 19.0481 2.71
      vertex -26.4284 19.7981 2.71
      vertex -26.0481 18.6784 2.71
    endloop
  endfacet
  facet normal -0 0 1
    outer loop
      vertex -26.7981 19.4284 2.71
      vertex -26.0481 18.6784 2.71
      vertex -26.4284 19.7981 2.71
    endloop
  endfacet
  facet normal -0 0 1
    outer loop
      vertex -27.0981 19 2.71
      vertex -26.0481 18.6784 2.71
      vertex -26.7981 19.4284 2.71
    endloop
  endfacet
  facet normal 0 0 1
    outer loop
      vertex -26.0481 18.6784 2.71
      vertex -27.0981 19 2.71
      vertex -26.3481 18.25 2.71
    endloop
  endfacet
  facet normal -0 0 1
    outer loop
      vertex -27.4544 18.0209 2.71
      vertex -26.5691 17.7761 2.71
      vertex -27.3191 18.5261 2.71
    endloop
  endfacet
  facet normal 0 0 1
    outer loop
      vertex -26.3481 18.25 2.71
      vertex -27.3191 18.5261 2.71
      vertex -26.5691 17.7761 2.71
    endloop
  endfacet
  facet normal -0 0 1
    outer loop
      vertex -27.3191 18.5261 2.71
      vertex -26.3481 18.25 2.71
      vertex -27.0981 19 2.71
    endloop
  endfacet
  facet normal 0 0 1
    outer loop
      vertex 27.4544 -18.0209 2.71
      vertex 26.5691 -17.7761 2.71
      vertex 27.3191 -18.5261 2.71
    endloop
  endfacet
  facet normal -0 0 1
    outer loop
      vertex 26.3481 -18.25 2.71
      vertex 27.3191 -18.5261 2.71
      vertex 26.5691 -17.7761 2.71
    endloop
  endfacet
  facet normal 0 0 1
    outer loop
      vertex 27.3191 -18.5261 2.71
      vertex 26.3481 -18.25 2.71
      vertex 27.0981 -19 2.71
    endloop
  endfacet
  facet normal -0 0 1
    outer loop
      vertex 26.0481 -18.6784 2.71
      vertex 27.0981 -19 2.71
      vertex 26.3481 -18.25 2.71
    endloop
  endfacet
  facet normal 0 0 1
    outer loop
      vertex 27.0981 -19 2.71
      vertex 26.0481 -18.6784 2.71
      vertex 26.7981 -19.4284 2.71
    endloop
  endfacet
  facet normal 0 0 1
    outer loop
      vertex 26.7981 -19.4284 2.71
      vertex 26.0481 -18.6784 2.71
      vertex 26.4284 -19.7981 2.71
    endloop
  endfacet
  facet normal -0 0 1
    outer loop
      vertex 25.6784 -19.0481 2.71
      vertex 26.4284 -19.7981 2.71
      vertex 26.0481 -18.6784 2.71
    endloop
  endfacet
  facet normal 0 0 1
    outer loop
      vertex 26.4284 -19.7981 2.71
      vertex 25.6784 -19.0481 2.71
      vertex 26 -20.0981 2.71
    endloop
  endfacet
  facet normal -0 0 1
    outer loop
      vertex 25.25 -19.3481 2.71
      vertex 26 -20.0981 2.71
      vertex 25.6784 -19.0481 2.71
    endloop
  endfacet
  facet normal 0 0 1
    outer loop
      vertex 26 -20.0981 2.71
      vertex 25.25 -19.3481 2.71
      vertex 25.5261 -20.3191 2.71
    endloop
  endfacet
  facet normal -0 0 1
    outer loop
      vertex 24.7761 -19.5691 2.71
      vertex 25.5261 -20.3191 2.71
      vertex 25.25 -19.3481 2.71
    endloop
  endfacet
  facet normal 0 0 1
    outer loop
      vertex 25.5261 -20.3191 2.71
      vertex 24.7761 -19.5691 2.71
      vertex 25.0209 -20.4544 2.71
    endloop
  endfacet
  facet normal 0 0 1
    outer loop
      vertex 24.7761 -19.5691 2.71
      vertex 24.5 -20.5 2.71
      vertex 25.0209 -20.4544 2.71
    endloop
  endfacet
  facet normal -0 0 1
    outer loop
      vertex 24.2709 -19.7044 2.71
      vertex 24.5 -20.5 2.71
      vertex 24.7761 -19.5691 2.71
    endloop
  endfacet
  facet normal -0 0 1
    outer loop
      vertex 23.75 -19.75 2.71
      vertex 24.5 -20.5 2.71
      vertex 24.2709 -19.7044 2.71
    endloop
  endfacet
  facet normal -0 0 1
    outer loop
      vertex -23.75 -19.75 2.71
      vertex 24.5 -20.5 2.71
      vertex 23.75 -19.75 2.71
    endloop
  endfacet
  facet normal 0 0 1
    outer loop
      vertex -23.75 -19.75 2.71
      vertex -24.5 -20.5 2.71
      vertex 24.5 -20.5 2.71
    endloop
  endfacet
  facet normal 0 0 1
    outer loop
      vertex -24.2709 -19.7044 2.71
      vertex -24.5 -20.5 2.71
      vertex -23.75 -19.75 2.71
    endloop
  endfacet
  facet normal 0 0 1
    outer loop
      vertex -24.7761 -19.5691 2.71
      vertex -24.5 -20.5 2.71
      vertex -24.2709 -19.7044 2.71
    endloop
  endfacet
  facet normal 0 0 1
    outer loop
      vertex -24.7761 -19.5691 2.71
      vertex -25.0209 -20.4544 2.71
      vertex -24.5 -20.5 2.71
    endloop
  endfacet
  facet normal 0 0 1
    outer loop
      vertex -25.5261 -20.3191 2.71
      vertex -24.7761 -19.5691 2.71
      vertex -25.25 -19.3481 2.71
    endloop
  endfacet
  facet normal 0 0 1
    outer loop
      vertex -24.7761 -19.5691 2.71
      vertex -25.5261 -20.3191 2.71
      vertex -25.0209 -20.4544 2.71
    endloop
  endfacet
  facet normal 0 0 1
    outer loop
      vertex -26 -20.0981 2.71
      vertex -25.25 -19.3481 2.71
      vertex -25.6784 -19.0481 2.71
    endloop
  endfacet
  facet normal 0 0 1
    outer loop
      vertex -25.25 -19.3481 2.71
      vertex -26 -20.0981 2.71
      vertex -25.5261 -20.3191 2.71
    endloop
  endfacet
  facet normal 0 0 1
    outer loop
      vertex -26.4284 -19.7981 2.71
      vertex -25.6784 -19.0481 2.71
      vertex -26.0481 -18.6784 2.71
    endloop
  endfacet
  facet normal 0 0 1
    outer loop
      vertex -27.0981 -19 2.71
      vertex -26.0481 -18.6784 2.71
      vertex -26.3481 -18.25 2.71
    endloop
  endfacet
  facet normal 0 0 1
    outer loop
      vertex -25.6784 -19.0481 2.71
      vertex -26.4284 -19.7981 2.71
      vertex -26 -20.0981 2.71
    endloop
  endfacet
  facet normal 0 0 1
    outer loop
      vertex -27.3191 -18.5261 2.71
      vertex -26.3481 -18.25 2.71
      vertex -26.5691 -17.7761 2.71
    endloop
  endfacet
  facet normal -0 0 1
    outer loop
      vertex -27.5 -17.5 2.71
      vertex -26.5691 -17.7761 2.71
      vertex -26.7044 -17.2709 2.71
    endloop
  endfacet
  facet normal 0 0 1
    outer loop
      vertex -26.0481 -18.6784 2.71
      vertex -26.7981 -19.4284 2.71
      vertex -26.4284 -19.7981 2.71
    endloop
  endfacet
  facet normal 0 0 1
    outer loop
      vertex -27.5 -17.5 2.71
      vertex -26.7044 -17.2709 2.71
      vertex -26.75 -16.75 2.71
    endloop
  endfacet
  facet normal 0 0 1
    outer loop
      vertex -26.75 16.75 2.71
      vertex -27.5 17.5 2.71
      vertex -26.75 -16.75 2.71
    endloop
  endfacet
  facet normal 0 0 1
    outer loop
      vertex -27.5 17.5 2.71
      vertex -26.5691 17.7761 2.71
      vertex -27.4544 18.0209 2.71
    endloop
  endfacet
  facet normal 0 0 1
    outer loop
      vertex -27.5 -17.5 2.71
      vertex -26.75 -16.75 2.71
      vertex -27.5 17.5 2.71
    endloop
  endfacet
  facet normal 0 0 1
    outer loop
      vertex -26.5691 17.7761 2.71
      vertex -27.5 17.5 2.71
      vertex -26.7044 17.2709 2.71
    endloop
  endfacet
  facet normal 0 0 1
    outer loop
      vertex -26.5691 -17.7761 2.71
      vertex -27.5 -17.5 2.71
      vertex -27.4544 -18.0209 2.71
    endloop
  endfacet
  facet normal 0 0 1
    outer loop
      vertex -26.7044 17.2709 2.71
      vertex -27.5 17.5 2.71
      vertex -26.75 16.75 2.71
    endloop
  endfacet
  facet normal 0 0 1
    outer loop
      vertex -26.0481 -18.6784 2.71
      vertex -27.0981 -19 2.71
      vertex -26.7981 -19.4284 2.71
    endloop
  endfacet
  facet normal 0 0 1
    outer loop
      vertex -26.3481 -18.25 2.71
      vertex -27.3191 -18.5261 2.71
      vertex -27.0981 -19 2.71
    endloop
  endfacet
  facet normal 0 0 1
    outer loop
      vertex -26.5691 -17.7761 2.71
      vertex -27.4544 -18.0209 2.71
      vertex -27.3191 -18.5261 2.71
    endloop
  endfacet
  facet normal -0.99619 -0.0872073 0
    outer loop
      vertex -27.4544 -18.0209 2.5
      vertex -27.5 -17.5 2.71
      vertex -27.5 -17.5 2.5
    endloop
  endfacet
  facet normal -0.99619 -0.0872073 0
    outer loop
      vertex -27.5 -17.5 2.71
      vertex -27.4544 -18.0209 2.5
      vertex -27.4544 -18.0209 2.71
    endloop
  endfacet
  facet normal -0.906295 0.422645 0
    outer loop
      vertex -27.3191 18.5261 2.5
      vertex -27.0981 19 2.71
      vertex -27.0981 19 2.5
    endloop
  endfacet
  facet normal -0.906295 0.422645 0
    outer loop
      vertex -27.0981 19 2.71
      vertex -27.3191 18.5261 2.5
      vertex -27.3191 18.5261 2.71
    endloop
  endfacet
  facet normal -0.0872073 -0.99619 0
    outer loop
      vertex -25.0209 -20.4544 2.5
      vertex -24.5 -20.5 2.71
      vertex -25.0209 -20.4544 2.71
    endloop
  endfacet
  facet normal -0.0872073 -0.99619 -0
    outer loop
      vertex -24.5 -20.5 2.71
      vertex -25.0209 -20.4544 2.5
      vertex -24.5 -20.5 2.5
    endloop
  endfacet
  facet normal -0.0872073 0.99619 0
    outer loop
      vertex -24.5 20.5 2.5
      vertex -25.0209 20.4544 2.71
      vertex -24.5 20.5 2.71
    endloop
  endfacet
  facet normal -0.0872073 0.99619 0
    outer loop
      vertex -25.0209 20.4544 2.71
      vertex -24.5 20.5 2.5
      vertex -25.0209 20.4544 2.5
    endloop
  endfacet
  facet normal -0.573616 -0.819124 0
    outer loop
      vertex -26.4284 -19.7981 2.5
      vertex -26 -20.0981 2.71
      vertex -26.4284 -19.7981 2.71
    endloop
  endfacet
  facet normal -0.573616 -0.819124 -0
    outer loop
      vertex -26 -20.0981 2.71
      vertex -26.4284 -19.7981 2.5
      vertex -26 -20.0981 2.5
    endloop
  endfacet
  facet normal -0.707107 -0.707107 0
    outer loop
      vertex -26.4284 -19.7981 2.5
      vertex -26.7981 -19.4284 2.71
      vertex -26.7981 -19.4284 2.5
    endloop
  endfacet
  facet normal -0.707107 -0.707107 0
    outer loop
      vertex -26.7981 -19.4284 2.71
      vertex -26.4284 -19.7981 2.5
      vertex -26.4284 -19.7981 2.71
    endloop
  endfacet
  facet normal -0.819124 -0.573616 0
    outer loop
      vertex -26.7981 -19.4284 2.5
      vertex -27.0981 -19 2.71
      vertex -27.0981 -19 2.5
    endloop
  endfacet
  facet normal -0.819124 -0.573616 0
    outer loop
      vertex -27.0981 -19 2.71
      vertex -26.7981 -19.4284 2.5
      vertex -26.7981 -19.4284 2.71
    endloop
  endfacet
  facet normal -0.422645 -0.906295 0
    outer loop
      vertex 24.7761 19.5691 2.5
      vertex 25.25 19.3481 2.71
      vertex 24.7761 19.5691 2.71
    endloop
  endfacet
  facet normal -0.422645 -0.906295 -0
    outer loop
      vertex 25.25 19.3481 2.71
      vertex 24.7761 19.5691 2.5
      vertex 25.25 19.3481 2.5
    endloop
  endfacet
  facet normal 0.422645 -0.906295 0
    outer loop
      vertex -25.25 19.3481 2.5
      vertex -24.7761 19.5691 2.71
      vertex -25.25 19.3481 2.71
    endloop
  endfacet
  facet normal 0.422645 -0.906295 0
    outer loop
      vertex -24.7761 19.5691 2.71
      vertex -25.25 19.3481 2.5
      vertex -24.7761 19.5691 2.5
    endloop
  endfacet
  facet normal -1 0 0
    outer loop
      vertex 26.75 -16.75 2.5
      vertex 26.75 16.75 2.71
      vertex 26.75 16.75 2.5
    endloop
  endfacet
  facet normal -1 -0 0
    outer loop
      vertex 26.75 16.75 2.71
      vertex 26.75 -16.75 2.5
      vertex 26.75 -16.75 2.71
    endloop
  endfacet
  facet normal -0.819124 0.573616 0
    outer loop
      vertex 26.0481 -18.6784 2.5
      vertex 26.3481 -18.25 2.71
      vertex 26.3481 -18.25 2.5
    endloop
  endfacet
  facet normal -0.819124 0.573616 0
    outer loop
      vertex 26.3481 -18.25 2.71
      vertex 26.0481 -18.6784 2.5
      vertex 26.0481 -18.6784 2.71
    endloop
  endfacet
  facet normal -0.906295 0.422645 0
    outer loop
      vertex 26.3481 -18.25 2.5
      vertex 26.5691 -17.7761 2.71
      vertex 26.5691 -17.7761 2.5
    endloop
  endfacet
  facet normal -0.906295 0.422645 0
    outer loop
      vertex 26.5691 -17.7761 2.71
      vertex 26.3481 -18.25 2.5
      vertex 26.3481 -18.25 2.71
    endloop
  endfacet
  facet normal 0.258698 0.965958 -0
    outer loop
      vertex -24.2709 -19.7044 2.5
      vertex -24.7761 -19.5691 2.71
      vertex -24.2709 -19.7044 2.71
    endloop
  endfacet
  facet normal 0.258698 0.965958 0
    outer loop
      vertex -24.7761 -19.5691 2.71
      vertex -24.2709 -19.7044 2.5
      vertex -24.7761 -19.5691 2.5
    endloop
  endfacet
  facet normal 0.422645 0.906295 -0
    outer loop
      vertex -24.7761 -19.5691 2.5
      vertex -25.25 -19.3481 2.71
      vertex -24.7761 -19.5691 2.71
    endloop
  endfacet
  facet normal 0.422645 0.906295 0
    outer loop
      vertex -25.25 -19.3481 2.71
      vertex -24.7761 -19.5691 2.5
      vertex -25.25 -19.3481 2.5
    endloop
  endfacet
  facet normal 1 -0 0
    outer loop
      vertex -26.75 -16.75 2.71
      vertex -26.75 16.75 2.5
      vertex -26.75 16.75 2.71
    endloop
  endfacet
  facet normal 1 0 0
    outer loop
      vertex -26.75 16.75 2.5
      vertex -26.75 -16.75 2.71
      vertex -26.75 -16.75 2.5
    endloop
  endfacet
  facet normal 0.99619 0.0872073 0
    outer loop
      vertex -26.7044 -17.2709 2.71
      vertex -26.75 -16.75 2.5
      vertex -26.75 -16.75 2.71
    endloop
  endfacet
  facet normal 0.99619 0.0872073 0
    outer loop
      vertex -26.75 -16.75 2.5
      vertex -26.7044 -17.2709 2.71
      vertex -26.7044 -17.2709 2.5
    endloop
  endfacet
  facet normal -0.707107 0.707107 0
    outer loop
      vertex 25.6784 -19.0481 2.5
      vertex 26.0481 -18.6784 2.71
      vertex 26.0481 -18.6784 2.5
    endloop
  endfacet
  facet normal -0.707107 0.707107 0
    outer loop
      vertex 26.0481 -18.6784 2.71
      vertex 25.6784 -19.0481 2.5
      vertex 25.6784 -19.0481 2.71
    endloop
  endfacet
  facet normal 0.707107 0.707107 0
    outer loop
      vertex -25.6784 -19.0481 2.71
      vertex -26.0481 -18.6784 2.5
      vertex -26.0481 -18.6784 2.71
    endloop
  endfacet
  facet normal 0.707107 0.707107 0
    outer loop
      vertex -26.0481 -18.6784 2.5
      vertex -25.6784 -19.0481 2.71
      vertex -25.6784 -19.0481 2.5
    endloop
  endfacet
  facet normal 0.573616 -0.819124 0
    outer loop
      vertex -25.6784 19.0481 2.5
      vertex -25.25 19.3481 2.71
      vertex -25.6784 19.0481 2.71
    endloop
  endfacet
  facet normal 0.573616 -0.819124 0
    outer loop
      vertex -25.25 19.3481 2.71
      vertex -25.6784 19.0481 2.5
      vertex -25.25 19.3481 2.5
    endloop
  endfacet
  facet normal 0.258698 -0.965958 0
    outer loop
      vertex -24.7761 19.5691 2.5
      vertex -24.2709 19.7044 2.71
      vertex -24.7761 19.5691 2.71
    endloop
  endfacet
  facet normal 0.258698 -0.965958 0
    outer loop
      vertex -24.2709 19.7044 2.71
      vertex -24.7761 19.5691 2.5
      vertex -24.2709 19.7044 2.5
    endloop
  endfacet
  facet normal -0.422645 0.906295 0
    outer loop
      vertex 25.25 -19.3481 2.5
      vertex 24.7761 -19.5691 2.71
      vertex 25.25 -19.3481 2.71
    endloop
  endfacet
  facet normal -0.422645 0.906295 0
    outer loop
      vertex 24.7761 -19.5691 2.71
      vertex 25.25 -19.3481 2.5
      vertex 24.7761 -19.5691 2.5
    endloop
  endfacet
  facet normal 0 1 -0
    outer loop
      vertex 23.75 -19.75 2.5
      vertex -23.75 -19.75 2.71
      vertex 23.75 -19.75 2.71
    endloop
  endfacet
  facet normal 0 1 0
    outer loop
      vertex -23.75 -19.75 2.71
      vertex 23.75 -19.75 2.5
      vertex -23.75 -19.75 2.5
    endloop
  endfacet
  facet normal 0.707107 -0.707107 0
    outer loop
      vertex -26.0481 18.6784 2.71
      vertex -25.6784 19.0481 2.5
      vertex -25.6784 19.0481 2.71
    endloop
  endfacet
  facet normal 0.707107 -0.707107 0
    outer loop
      vertex -25.6784 19.0481 2.5
      vertex -26.0481 18.6784 2.71
      vertex -26.0481 18.6784 2.5
    endloop
  endfacet
  facet normal 0.906295 0.422645 0
    outer loop
      vertex -26.3481 -18.25 2.71
      vertex -26.5691 -17.7761 2.5
      vertex -26.5691 -17.7761 2.71
    endloop
  endfacet
  facet normal 0.906295 0.422645 0
    outer loop
      vertex -26.5691 -17.7761 2.5
      vertex -26.3481 -18.25 2.71
      vertex -26.3481 -18.25 2.5
    endloop
  endfacet
  facet normal 0.819124 0.573616 0
    outer loop
      vertex -26.0481 -18.6784 2.71
      vertex -26.3481 -18.25 2.5
      vertex -26.3481 -18.25 2.71
    endloop
  endfacet
  facet normal 0.819124 0.573616 0
    outer loop
      vertex -26.3481 -18.25 2.5
      vertex -26.0481 -18.6784 2.71
      vertex -26.0481 -18.6784 2.5
    endloop
  endfacet
  facet normal 0 -1 0
    outer loop
      vertex -23.75 19.75 2.5
      vertex 23.75 19.75 2.71
      vertex -23.75 19.75 2.71
    endloop
  endfacet
  facet normal 0 -1 -0
    outer loop
      vertex 23.75 19.75 2.71
      vertex -23.75 19.75 2.5
      vertex 23.75 19.75 2.5
    endloop
  endfacet
  facet normal 0.573616 0.819124 -0
    outer loop
      vertex -25.25 -19.3481 2.5
      vertex -25.6784 -19.0481 2.71
      vertex -25.25 -19.3481 2.71
    endloop
  endfacet
  facet normal 0.573616 0.819124 0
    outer loop
      vertex -25.6784 -19.0481 2.71
      vertex -25.25 -19.3481 2.5
      vertex -25.6784 -19.0481 2.5
    endloop
  endfacet
  facet normal 0.0872073 -0.99619 0
    outer loop
      vertex -24.2709 19.7044 2.5
      vertex -23.75 19.75 2.71
      vertex -24.2709 19.7044 2.71
    endloop
  endfacet
  facet normal 0.0872073 -0.99619 0
    outer loop
      vertex -23.75 19.75 2.71
      vertex -24.2709 19.7044 2.5
      vertex -23.75 19.75 2.5
    endloop
  endfacet
  facet normal -0.573616 0.819124 0
    outer loop
      vertex 25.6784 -19.0481 2.5
      vertex 25.25 -19.3481 2.71
      vertex 25.6784 -19.0481 2.71
    endloop
  endfacet
  facet normal -0.573616 0.819124 0
    outer loop
      vertex 25.25 -19.3481 2.71
      vertex 25.6784 -19.0481 2.5
      vertex 25.25 -19.3481 2.5
    endloop
  endfacet
  facet normal -0.707107 -0.707107 0
    outer loop
      vertex 26.0481 18.6784 2.5
      vertex 25.6784 19.0481 2.71
      vertex 25.6784 19.0481 2.5
    endloop
  endfacet
  facet normal -0.707107 -0.707107 0
    outer loop
      vertex 25.6784 19.0481 2.71
      vertex 26.0481 18.6784 2.5
      vertex 26.0481 18.6784 2.71
    endloop
  endfacet
  facet normal -0.99619 -0.0872073 0
    outer loop
      vertex 26.75 16.75 2.5
      vertex 26.7044 17.2709 2.71
      vertex 26.7044 17.2709 2.5
    endloop
  endfacet
  facet normal -0.99619 -0.0872073 0
    outer loop
      vertex 26.7044 17.2709 2.71
      vertex 26.75 16.75 2.5
      vertex 26.75 16.75 2.71
    endloop
  endfacet
  facet normal -0.0872073 0.99619 0
    outer loop
      vertex 24.2709 -19.7044 2.5
      vertex 23.75 -19.75 2.71
      vertex 24.2709 -19.7044 2.71
    endloop
  endfacet
  facet normal -0.0872073 0.99619 0
    outer loop
      vertex 23.75 -19.75 2.71
      vertex 24.2709 -19.7044 2.5
      vertex 23.75 -19.75 2.5
    endloop
  endfacet
  facet normal -0.819124 -0.573616 0
    outer loop
      vertex 26.3481 18.25 2.5
      vertex 26.0481 18.6784 2.71
      vertex 26.0481 18.6784 2.5
    endloop
  endfacet
  facet normal -0.819124 -0.573616 0
    outer loop
      vertex 26.0481 18.6784 2.71
      vertex 26.3481 18.25 2.5
      vertex 26.3481 18.25 2.71
    endloop
  endfacet
  facet normal 0.99619 -0.0872073 0
    outer loop
      vertex -26.75 16.75 2.71
      vertex -26.7044 17.2709 2.5
      vertex -26.7044 17.2709 2.71
    endloop
  endfacet
  facet normal 0.99619 -0.0872073 0
    outer loop
      vertex -26.7044 17.2709 2.5
      vertex -26.75 16.75 2.71
      vertex -26.75 16.75 2.5
    endloop
  endfacet
  facet normal -0.573616 -0.819124 0
    outer loop
      vertex 25.25 19.3481 2.5
      vertex 25.6784 19.0481 2.71
      vertex 25.25 19.3481 2.71
    endloop
  endfacet
  facet normal -0.573616 -0.819124 -0
    outer loop
      vertex 25.6784 19.0481 2.71
      vertex 25.25 19.3481 2.5
      vertex 25.6784 19.0481 2.5
    endloop
  endfacet
  facet normal 0.965958 -0.258698 0
    outer loop
      vertex -26.7044 17.2709 2.71
      vertex -26.5691 17.7761 2.5
      vertex -26.5691 17.7761 2.71
    endloop
  endfacet
  facet normal 0.965958 -0.258698 0
    outer loop
      vertex -26.5691 17.7761 2.5
      vertex -26.7044 17.2709 2.71
      vertex -26.7044 17.2709 2.5
    endloop
  endfacet
  facet normal -0.258698 0.965958 0
    outer loop
      vertex 24.7761 -19.5691 2.5
      vertex 24.2709 -19.7044 2.71
      vertex 24.7761 -19.5691 2.71
    endloop
  endfacet
  facet normal -0.258698 0.965958 0
    outer loop
      vertex 24.2709 -19.7044 2.71
      vertex 24.7761 -19.5691 2.5
      vertex 24.2709 -19.7044 2.5
    endloop
  endfacet
  facet normal 0.965958 0.258698 0
    outer loop
      vertex -26.5691 -17.7761 2.71
      vertex -26.7044 -17.2709 2.5
      vertex -26.7044 -17.2709 2.71
    endloop
  endfacet
  facet normal 0.965958 0.258698 0
    outer loop
      vertex -26.7044 -17.2709 2.5
      vertex -26.5691 -17.7761 2.71
      vertex -26.5691 -17.7761 2.5
    endloop
  endfacet
  facet normal 0.0872073 0.99619 -0
    outer loop
      vertex -23.75 -19.75 2.5
      vertex -24.2709 -19.7044 2.71
      vertex -23.75 -19.75 2.71
    endloop
  endfacet
  facet normal 0.0872073 0.99619 0
    outer loop
      vertex -24.2709 -19.7044 2.71
      vertex -23.75 -19.75 2.5
      vertex -24.2709 -19.7044 2.5
    endloop
  endfacet
  facet normal -0.965958 0.258698 0
    outer loop
      vertex 26.5691 -17.7761 2.5
      vertex 26.7044 -17.2709 2.71
      vertex 26.7044 -17.2709 2.5
    endloop
  endfacet
  facet normal -0.965958 0.258698 0
    outer loop
      vertex 26.7044 -17.2709 2.71
      vertex 26.5691 -17.7761 2.5
      vertex 26.5691 -17.7761 2.71
    endloop
  endfacet
  facet normal -0.99619 0.0872073 0
    outer loop
      vertex 26.7044 -17.2709 2.5
      vertex 26.75 -16.75 2.71
      vertex 26.75 -16.75 2.5
    endloop
  endfacet
  facet normal -0.99619 0.0872073 0
    outer loop
      vertex 26.75 -16.75 2.71
      vertex 26.7044 -17.2709 2.5
      vertex 26.7044 -17.2709 2.71
    endloop
  endfacet
  facet normal -0.906295 -0.422645 0
    outer loop
      vertex 26.5691 17.7761 2.5
      vertex 26.3481 18.25 2.71
      vertex 26.3481 18.25 2.5
    endloop
  endfacet
  facet normal -0.906295 -0.422645 0
    outer loop
      vertex 26.3481 18.25 2.71
      vertex 26.5691 17.7761 2.5
      vertex 26.5691 17.7761 2.71
    endloop
  endfacet
  facet normal 0.819124 -0.573616 0
    outer loop
      vertex -26.3481 18.25 2.71
      vertex -26.0481 18.6784 2.5
      vertex -26.0481 18.6784 2.71
    endloop
  endfacet
  facet normal 0.819124 -0.573616 0
    outer loop
      vertex -26.0481 18.6784 2.5
      vertex -26.3481 18.25 2.71
      vertex -26.3481 18.25 2.5
    endloop
  endfacet
  facet normal 0.906295 -0.422645 0
    outer loop
      vertex -26.5691 17.7761 2.71
      vertex -26.3481 18.25 2.5
      vertex -26.3481 18.25 2.71
    endloop
  endfacet
  facet normal 0.906295 -0.422645 0
    outer loop
      vertex -26.3481 18.25 2.5
      vertex -26.5691 17.7761 2.71
      vertex -26.5691 17.7761 2.5
    endloop
  endfacet
  facet normal -0.258698 -0.965958 0
    outer loop
      vertex 24.2709 19.7044 2.5
      vertex 24.7761 19.5691 2.71
      vertex 24.2709 19.7044 2.71
    endloop
  endfacet
  facet normal -0.258698 -0.965958 -0
    outer loop
      vertex 24.7761 19.5691 2.71
      vertex 24.2709 19.7044 2.5
      vertex 24.7761 19.5691 2.5
    endloop
  endfacet
  facet normal -0.965958 -0.258698 0
    outer loop
      vertex 26.7044 17.2709 2.5
      vertex 26.5691 17.7761 2.71
      vertex 26.5691 17.7761 2.5
    endloop
  endfacet
  facet normal -0.965958 -0.258698 0
    outer loop
      vertex 26.5691 17.7761 2.71
      vertex 26.7044 17.2709 2.5
      vertex 26.7044 17.2709 2.71
    endloop
  endfacet
  facet normal -0.0872073 -0.99619 0
    outer loop
      vertex 23.75 19.75 2.5
      vertex 24.2709 19.7044 2.71
      vertex 23.75 19.75 2.71
    endloop
  endfacet
  facet normal -0.0872073 -0.99619 -0
    outer loop
      vertex 24.2709 19.7044 2.71
      vertex 23.75 19.75 2.5
      vertex 24.2709 19.7044 2.5
    endloop
  endfacet
endsolid OpenSCAD_Model
