solid OpenSCAD_Model
  facet normal -0.809021 0 0.58778
    outer loop
      vertex 3.57331 0.0999994 640.561
      vertex 30.0954 97 677.066
      vertex 3.57331 97 640.561
    endloop
  endfacet
  facet normal -0.809021 0 0.58778
    outer loop
      vertex 30.0954 97 677.066
      vertex 3.57331 0.0999994 640.561
      vertex 30.0954 0.0999994 677.066
    endloop
  endfacet
  facet normal -1 0 0
    outer loop
      vertex 3.57331 0.0999994 618
      vertex 3.57331 97 640.561
      vertex 3.57331 97 618
    endloop
  endfacet
  facet normal -1 -0 0
    outer loop
      vertex 3.57331 97 640.561
      vertex 3.57331 0.0999994 618
      vertex 3.57331 0.0999994 640.561
    endloop
  endfacet
  facet normal -0.308995 0 0.951064
    outer loop
      vertex 30.0954 97 677.066
      vertex 51.6255 0.0999994 684.061
      vertex 51.6255 97 684.061
    endloop
  endfacet
  facet normal -0.308995 0 0.951064
    outer loop
      vertex 51.6255 0.0999994 684.061
      vertex 30.0954 97 677.066
      vertex 30.0954 0.0999994 677.066
    endloop
  endfacet
  facet normal 0 1 0
    outer loop
      vertex 51.6255 97 684.061
      vertex 3.57331 97 640.561
      vertex 30.0954 97 677.066
    endloop
  endfacet
  facet normal 0 1 0
    outer loop
      vertex 51.6255 97 684.061
      vertex 3.57331 97 618
      vertex 3.57331 97 640.561
    endloop
  endfacet
  facet normal 0 1 -0
    outer loop
      vertex 51.6255 97 551.939
      vertex 3.57331 97 618
      vertex 51.6255 97 684.061
    endloop
  endfacet
  facet normal 0 1 0
    outer loop
      vertex 51.6255 97 551.939
      vertex 0.0005 97 618
      vertex 3.57331 97 618
    endloop
  endfacet
  facet normal 0 1 0
    outer loop
      vertex 0.0005 97 0
      vertex 51.6255 97 551.939
      vertex 51.6255 97 0
    endloop
  endfacet
  facet normal 0 1 0
    outer loop
      vertex 51.6255 97 551.939
      vertex 0.0005 97 0
      vertex 0.0005 97 618
    endloop
  endfacet
  facet normal 1 0 0
    outer loop
      vertex 51.6255 97 684.061
      vertex 51.6255 90.986 680.62
      vertex 51.6255 97 551.939
    endloop
  endfacet
  facet normal 1 -0 0
    outer loop
      vertex 51.6255 0.0999994 684.061
      vertex 51.6255 90.986 680.62
      vertex 51.6255 97 684.061
    endloop
  endfacet
  facet normal 1 0 0
    outer loop
      vertex 51.6255 90.986 680.62
      vertex 51.6255 0.0999994 684.061
      vertex 51.6255 0.0999994 680.62
    endloop
  endfacet
  facet normal 1 0 0
    outer loop
      vertex 51.6255 97 551.939
      vertex 51.6255 90.986 680.62
      vertex 51.6255 90.986 551.939
    endloop
  endfacet
  facet normal 0 0 -1
    outer loop
      vertex 0.0005 0.0999994 0
      vertex 51.6255 97 0
      vertex 51.6255 0.0999994 0
    endloop
  endfacet
  facet normal -0 0 -1
    outer loop
      vertex 51.6255 97 0
      vertex 0.0005 0.0999994 0
      vertex 0.0005 97 0
    endloop
  endfacet
  facet normal 1 0 0
    outer loop
      vertex 51.6255 90.986 8.017
      vertex 51.6255 97 551.939
      vertex 51.6255 90.986 551.939
    endloop
  endfacet
  facet normal 1 0 0
    outer loop
      vertex 51.6255 97 551.939
      vertex 51.6255 90.986 8.017
      vertex 51.6255 97 0
    endloop
  endfacet
  facet normal 1 0 0
    outer loop
      vertex 51.6255 0.0999994 0
      vertex 51.6255 90.986 8.017
      vertex 51.6255 0.0999994 8.017
    endloop
  endfacet
  facet normal 1 0 0
    outer loop
      vertex 51.6255 90.986 8.017
      vertex 51.6255 0.0999994 0
      vertex 51.6255 97 0
    endloop
  endfacet
  facet normal -1 0 0
    outer loop
      vertex 0.0005 0.0999994 0
      vertex 0.0005 97 618
      vertex 0.0005 97 0
    endloop
  endfacet
  facet normal -1 -0 0
    outer loop
      vertex 0.0005 97 618
      vertex 0.0005 0.0999994 0
      vertex 0.0005 0.0999994 618
    endloop
  endfacet
  facet normal -0 0 1
    outer loop
      vertex 0.0005 97 618
      vertex 3.57331 0.0999994 618
      vertex 3.57331 97 618
    endloop
  endfacet
  facet normal 0 0 1
    outer loop
      vertex 3.57331 0.0999994 618
      vertex 0.0005 97 618
      vertex 0.0005 0.0999994 618
    endloop
  endfacet
  facet normal 0.805337 0 -0.592818
    outer loop
      vertex 38.0954 0.0999994 676.281
      vertex 11.5733 90.986 640.251
      vertex 38.0954 90.986 676.281
    endloop
  endfacet
  facet normal 0.805337 0 -0.592818
    outer loop
      vertex 11.5733 90.986 640.251
      vertex 38.0954 0.0999994 676.281
      vertex 11.5733 0.0999994 640.251
    endloop
  endfacet
  facet normal 1 -0 0
    outer loop
      vertex 11.5733 0.0999994 640.251
      vertex 11.5733 90.986 617.983
      vertex 11.5733 90.986 640.251
    endloop
  endfacet
  facet normal 1 0 0
    outer loop
      vertex 11.5733 90.986 617.983
      vertex 11.5733 0.0999994 640.251
      vertex 11.5733 0.0999994 617.983
    endloop
  endfacet
  facet normal 0.305374 0 -0.952233
    outer loop
      vertex 38.0954 0.0999994 676.281
      vertex 51.6255 90.986 680.62
      vertex 51.6255 0.0999994 680.62
    endloop
  endfacet
  facet normal 0.305374 0 -0.952233
    outer loop
      vertex 51.6255 90.986 680.62
      vertex 38.0954 0.0999994 676.281
      vertex 38.0954 90.986 676.281
    endloop
  endfacet
  facet normal 0 -1 0
    outer loop
      vertex 8.0005 90.986 617.983
      vertex 51.6255 90.986 551.939
      vertex 11.5733 90.986 617.983
    endloop
  endfacet
  facet normal 0 -1 0
    outer loop
      vertex 8.0005 90.986 8.017
      vertex 51.6255 90.986 551.939
      vertex 8.0005 90.986 617.983
    endloop
  endfacet
  facet normal 0 -1 -0
    outer loop
      vertex 51.6255 90.986 551.939
      vertex 8.0005 90.986 8.017
      vertex 51.6255 90.986 8.017
    endloop
  endfacet
  facet normal 0 -1 0
    outer loop
      vertex 11.5733 90.986 640.251
      vertex 51.6255 90.986 680.62
      vertex 38.0954 90.986 676.281
    endloop
  endfacet
  facet normal 0 -1 0
    outer loop
      vertex 11.5733 90.986 617.983
      vertex 51.6255 90.986 680.62
      vertex 11.5733 90.986 640.251
    endloop
  endfacet
  facet normal 0 -1 -0
    outer loop
      vertex 51.6255 90.986 680.62
      vertex 11.5733 90.986 617.983
      vertex 51.6255 90.986 551.939
    endloop
  endfacet
  facet normal -0 0 1
    outer loop
      vertex 8.0005 90.986 8.017
      vertex 51.6255 0.0999994 8.017
      vertex 51.6255 90.986 8.017
    endloop
  endfacet
  facet normal 0 0 1
    outer loop
      vertex 51.6255 0.0999994 8.017
      vertex 8.0005 90.986 8.017
      vertex 8.0005 0.0999994 8.017
    endloop
  endfacet
  facet normal 1 -0 0
    outer loop
      vertex 8.0005 0.0999994 617.983
      vertex 8.0005 90.986 8.017
      vertex 8.0005 90.986 617.983
    endloop
  endfacet
  facet normal 1 0 0
    outer loop
      vertex 8.0005 90.986 8.017
      vertex 8.0005 0.0999994 617.983
      vertex 8.0005 0.0999994 8.017
    endloop
  endfacet
  facet normal 0 0 -1
    outer loop
      vertex 8.0005 0.0999994 617.983
      vertex 11.5733 90.986 617.983
      vertex 11.5733 0.0999994 617.983
    endloop
  endfacet
  facet normal -0 0 -1
    outer loop
      vertex 11.5733 90.986 617.983
      vertex 8.0005 0.0999994 617.983
      vertex 8.0005 90.986 617.983
    endloop
  endfacet
  facet normal 0 0 -1
    outer loop
      vertex 5.36751 0.0999994 182.752
      vertex 4.43262 1.33148 182.752
      vertex 5.13262 0.822899 182.752
    endloop
  endfacet
  facet normal 0 0 -1
    outer loop
      vertex 5.36751 0.0999994 182.752
      vertex 3.56738 1.33148 182.752
      vertex 4.43262 1.33148 182.752
    endloop
  endfacet
  facet normal 0 0 -1
    outer loop
      vertex 2.63249 0.0999994 182.752
      vertex 3.56738 1.33148 182.752
      vertex 5.36751 0.0999994 182.752
    endloop
  endfacet
  facet normal 0 0 -1
    outer loop
      vertex 3.56738 1.33148 182.752
      vertex 2.63249 0.0999994 182.752
      vertex 2.86738 0.822899 182.752
    endloop
  endfacet
  facet normal -0.587786 -0.809016 0
    outer loop
      vertex 4.43262 1.33148 162.752
      vertex 5.13262 0.822899 182.752
      vertex 4.43262 1.33148 182.752
    endloop
  endfacet
  facet normal -0.587786 -0.809016 -0
    outer loop
      vertex 5.13262 0.822899 182.752
      vertex 4.43262 1.33148 162.752
      vertex 5.13262 0.822899 162.752
    endloop
  endfacet
  facet normal -0.951054 -0.309024 0
    outer loop
      vertex 5.36751 0.0999994 162.752
      vertex 5.13262 0.822899 182.752
      vertex 5.13262 0.822899 162.752
    endloop
  endfacet
  facet normal -0.951054 -0.309024 0
    outer loop
      vertex 5.13262 0.822899 182.752
      vertex 5.36751 0.0999994 162.752
      vertex 5.36751 0.0999994 182.752
    endloop
  endfacet
  facet normal 0 -1 0
    outer loop
      vertex 3.56738 1.33148 162.752
      vertex 4.43262 1.33148 182.752
      vertex 3.56738 1.33148 182.752
    endloop
  endfacet
  facet normal 0 -1 -0
    outer loop
      vertex 4.43262 1.33148 182.752
      vertex 3.56738 1.33148 162.752
      vertex 4.43262 1.33148 162.752
    endloop
  endfacet
  facet normal 0.587786 -0.809016 0
    outer loop
      vertex 2.86738 0.822899 162.752
      vertex 3.56738 1.33148 182.752
      vertex 2.86738 0.822899 182.752
    endloop
  endfacet
  facet normal 0.587786 -0.809016 0
    outer loop
      vertex 3.56738 1.33148 182.752
      vertex 2.86738 0.822899 162.752
      vertex 3.56738 1.33148 162.752
    endloop
  endfacet
  facet normal 0.951054 -0.309024 0
    outer loop
      vertex 2.63249 0.0999994 182.752
      vertex 2.86738 0.822899 162.752
      vertex 2.86738 0.822899 182.752
    endloop
  endfacet
  facet normal 0.951054 -0.309024 0
    outer loop
      vertex 2.86738 0.822899 162.752
      vertex 2.63249 0.0999994 182.752
      vertex 2.63249 0.0999994 162.752
    endloop
  endfacet
  facet normal 0 0 1
    outer loop
      vertex 4.43262 1.33148 162.752
      vertex 5.36751 0.0999994 162.752
      vertex 5.13262 0.822899 162.752
    endloop
  endfacet
  facet normal -0 0 1
    outer loop
      vertex 3.56738 1.33148 162.752
      vertex 5.36751 0.0999994 162.752
      vertex 4.43262 1.33148 162.752
    endloop
  endfacet
  facet normal 0 0 1
    outer loop
      vertex 2.63249 0.0999994 162.752
      vertex 3.56738 1.33148 162.752
      vertex 2.86738 0.822899 162.752
    endloop
  endfacet
  facet normal 0 0 1
    outer loop
      vertex 3.56738 1.33148 162.752
      vertex 2.63249 0.0999994 162.752
      vertex 5.36751 0.0999994 162.752
    endloop
  endfacet
  facet normal 0.587801 0.809006 -0
    outer loop
      vertex 3.56738 47.1685 162.752
      vertex 2.86738 47.6771 182.752
      vertex 3.56738 47.1685 182.752
    endloop
  endfacet
  facet normal 0.587801 0.809006 0
    outer loop
      vertex 2.86738 47.6771 182.752
      vertex 3.56738 47.1685 162.752
      vertex 2.86738 47.6771 162.752
    endloop
  endfacet
  facet normal -0.587801 -0.809006 0
    outer loop
      vertex 4.43262 49.8315 162.752
      vertex 5.13262 49.3229 182.752
      vertex 4.43262 49.8315 182.752
    endloop
  endfacet
  facet normal -0.587801 -0.809006 -0
    outer loop
      vertex 5.13262 49.3229 182.752
      vertex 4.43262 49.8315 162.752
      vertex 5.13262 49.3229 162.752
    endloop
  endfacet
  facet normal -0.951055 -0.309021 0
    outer loop
      vertex 5.4 48.5 162.752
      vertex 5.13262 49.3229 182.752
      vertex 5.13262 49.3229 162.752
    endloop
  endfacet
  facet normal -0.951055 -0.309021 0
    outer loop
      vertex 5.13262 49.3229 182.752
      vertex 5.4 48.5 162.752
      vertex 5.4 48.5 182.752
    endloop
  endfacet
  facet normal 0 -1 0
    outer loop
      vertex 3.56738 49.8315 162.752
      vertex 4.43262 49.8315 182.752
      vertex 3.56738 49.8315 182.752
    endloop
  endfacet
  facet normal 0 -1 -0
    outer loop
      vertex 4.43262 49.8315 182.752
      vertex 3.56738 49.8315 162.752
      vertex 4.43262 49.8315 162.752
    endloop
  endfacet
  facet normal 0 0 1
    outer loop
      vertex 5.13262 49.3229 162.752
      vertex 5.13262 47.6771 162.752
      vertex 5.4 48.5 162.752
    endloop
  endfacet
  facet normal 0 0 1
    outer loop
      vertex 4.43262 49.8315 162.752
      vertex 5.13262 47.6771 162.752
      vertex 5.13262 49.3229 162.752
    endloop
  endfacet
  facet normal 0 0 1
    outer loop
      vertex 4.43262 49.8315 162.752
      vertex 4.43262 47.1685 162.752
      vertex 5.13262 47.6771 162.752
    endloop
  endfacet
  facet normal -0 0 1
    outer loop
      vertex 3.56738 49.8315 162.752
      vertex 4.43262 47.1685 162.752
      vertex 4.43262 49.8315 162.752
    endloop
  endfacet
  facet normal 0 0 1
    outer loop
      vertex 3.56738 49.8315 162.752
      vertex 3.56738 47.1685 162.752
      vertex 4.43262 47.1685 162.752
    endloop
  endfacet
  facet normal -0 0 1
    outer loop
      vertex 2.86738 49.3229 162.752
      vertex 3.56738 47.1685 162.752
      vertex 3.56738 49.8315 162.752
    endloop
  endfacet
  facet normal 0 0 1
    outer loop
      vertex 2.86738 49.3229 162.752
      vertex 2.86738 47.6771 162.752
      vertex 3.56738 47.1685 162.752
    endloop
  endfacet
  facet normal 0 -0 1
    outer loop
      vertex 2.86738 47.6771 162.752
      vertex 2.86738 49.3229 162.752
      vertex 2.6 48.5 162.752
    endloop
  endfacet
  facet normal 0 1 -0
    outer loop
      vertex 4.43262 47.1685 162.752
      vertex 3.56738 47.1685 182.752
      vertex 4.43262 47.1685 182.752
    endloop
  endfacet
  facet normal 0 1 0
    outer loop
      vertex 3.56738 47.1685 182.752
      vertex 4.43262 47.1685 162.752
      vertex 3.56738 47.1685 162.752
    endloop
  endfacet
  facet normal -0.587801 0.809006 0
    outer loop
      vertex 5.13262 47.6771 162.752
      vertex 4.43262 47.1685 182.752
      vertex 5.13262 47.6771 182.752
    endloop
  endfacet
  facet normal -0.587801 0.809006 0
    outer loop
      vertex 4.43262 47.1685 182.752
      vertex 5.13262 47.6771 162.752
      vertex 4.43262 47.1685 162.752
    endloop
  endfacet
  facet normal 0.951055 0.309021 0
    outer loop
      vertex 2.86738 47.6771 182.752
      vertex 2.6 48.5 162.752
      vertex 2.6 48.5 182.752
    endloop
  endfacet
  facet normal 0.951055 0.309021 0
    outer loop
      vertex 2.6 48.5 162.752
      vertex 2.86738 47.6771 182.752
      vertex 2.86738 47.6771 162.752
    endloop
  endfacet
  facet normal 0.587801 -0.809006 0
    outer loop
      vertex 2.86738 49.3229 162.752
      vertex 3.56738 49.8315 182.752
      vertex 2.86738 49.3229 182.752
    endloop
  endfacet
  facet normal 0.587801 -0.809006 0
    outer loop
      vertex 3.56738 49.8315 182.752
      vertex 2.86738 49.3229 162.752
      vertex 3.56738 49.8315 162.752
    endloop
  endfacet
  facet normal 0 0 -1
    outer loop
      vertex 5.13262 47.6771 182.752
      vertex 5.13262 49.3229 182.752
      vertex 5.4 48.5 182.752
    endloop
  endfacet
  facet normal 0 0 -1
    outer loop
      vertex 4.43262 47.1685 182.752
      vertex 5.13262 49.3229 182.752
      vertex 5.13262 47.6771 182.752
    endloop
  endfacet
  facet normal 0 0 -1
    outer loop
      vertex 4.43262 47.1685 182.752
      vertex 4.43262 49.8315 182.752
      vertex 5.13262 49.3229 182.752
    endloop
  endfacet
  facet normal 0 0 -1
    outer loop
      vertex 3.56738 47.1685 182.752
      vertex 4.43262 49.8315 182.752
      vertex 4.43262 47.1685 182.752
    endloop
  endfacet
  facet normal 0 0 -1
    outer loop
      vertex 3.56738 47.1685 182.752
      vertex 3.56738 49.8315 182.752
      vertex 4.43262 49.8315 182.752
    endloop
  endfacet
  facet normal 0 0 -1
    outer loop
      vertex 2.86738 47.6771 182.752
      vertex 3.56738 49.8315 182.752
      vertex 3.56738 47.1685 182.752
    endloop
  endfacet
  facet normal 0 0 -1
    outer loop
      vertex 2.86738 47.6771 182.752
      vertex 2.86738 49.3229 182.752
      vertex 3.56738 49.8315 182.752
    endloop
  endfacet
  facet normal 0 -0 -1
    outer loop
      vertex 2.86738 49.3229 182.752
      vertex 2.86738 47.6771 182.752
      vertex 2.6 48.5 182.752
    endloop
  endfacet
  facet normal -0.951055 0.309021 0
    outer loop
      vertex 5.13262 47.6771 162.752
      vertex 5.4 48.5 182.752
      vertex 5.4 48.5 162.752
    endloop
  endfacet
  facet normal -0.951055 0.309021 0
    outer loop
      vertex 5.4 48.5 182.752
      vertex 5.13262 47.6771 162.752
      vertex 5.13262 47.6771 182.752
    endloop
  endfacet
  facet normal 0.951055 -0.309021 0
    outer loop
      vertex 2.6 48.5 182.752
      vertex 2.86738 49.3229 162.752
      vertex 2.86738 49.3229 182.752
    endloop
  endfacet
  facet normal 0.951055 -0.309021 0
    outer loop
      vertex 2.86738 49.3229 162.752
      vertex 2.6 48.5 182.752
      vertex 2.6 48.5 162.752
    endloop
  endfacet
  facet normal -0.587801 -0.809006 0
    outer loop
      vertex 4.43262 88.6315 162.752
      vertex 5.13262 88.1229 182.752
      vertex 4.43262 88.6315 182.752
    endloop
  endfacet
  facet normal -0.587801 -0.809006 -0
    outer loop
      vertex 5.13262 88.1229 182.752
      vertex 4.43262 88.6315 162.752
      vertex 5.13262 88.1229 162.752
    endloop
  endfacet
  facet normal -0.951055 -0.309021 0
    outer loop
      vertex 5.4 87.3 162.752
      vertex 5.13262 88.1229 182.752
      vertex 5.13262 88.1229 162.752
    endloop
  endfacet
  facet normal -0.951055 -0.309021 0
    outer loop
      vertex 5.13262 88.1229 182.752
      vertex 5.4 87.3 162.752
      vertex 5.4 87.3 182.752
    endloop
  endfacet
  facet normal 0 -1 0
    outer loop
      vertex 3.56738 88.6315 162.752
      vertex 4.43262 88.6315 182.752
      vertex 3.56738 88.6315 182.752
    endloop
  endfacet
  facet normal 0 -1 -0
    outer loop
      vertex 4.43262 88.6315 182.752
      vertex 3.56738 88.6315 162.752
      vertex 4.43262 88.6315 162.752
    endloop
  endfacet
  facet normal 0.951055 0.309021 0
    outer loop
      vertex 2.86738 86.4771 182.752
      vertex 2.6 87.3 162.752
      vertex 2.6 87.3 182.752
    endloop
  endfacet
  facet normal 0.951055 0.309021 0
    outer loop
      vertex 2.6 87.3 162.752
      vertex 2.86738 86.4771 182.752
      vertex 2.86738 86.4771 162.752
    endloop
  endfacet
  facet normal -0.951055 0.309021 0
    outer loop
      vertex 5.13262 86.4771 162.752
      vertex 5.4 87.3 182.752
      vertex 5.4 87.3 162.752
    endloop
  endfacet
  facet normal -0.951055 0.309021 0
    outer loop
      vertex 5.4 87.3 182.752
      vertex 5.13262 86.4771 162.752
      vertex 5.13262 86.4771 182.752
    endloop
  endfacet
  facet normal 0.587801 -0.809006 0
    outer loop
      vertex 2.86738 88.1229 162.752
      vertex 3.56738 88.6315 182.752
      vertex 2.86738 88.1229 182.752
    endloop
  endfacet
  facet normal 0.587801 -0.809006 0
    outer loop
      vertex 3.56738 88.6315 182.752
      vertex 2.86738 88.1229 162.752
      vertex 3.56738 88.6315 162.752
    endloop
  endfacet
  facet normal 0.951055 -0.309021 0
    outer loop
      vertex 2.6 87.3 182.752
      vertex 2.86738 88.1229 162.752
      vertex 2.86738 88.1229 182.752
    endloop
  endfacet
  facet normal 0.951055 -0.309021 0
    outer loop
      vertex 2.86738 88.1229 162.752
      vertex 2.6 87.3 182.752
      vertex 2.6 87.3 162.752
    endloop
  endfacet
  facet normal -0.587801 0.809006 0
    outer loop
      vertex 5.13262 86.4771 162.752
      vertex 4.43262 85.9685 182.752
      vertex 5.13262 86.4771 182.752
    endloop
  endfacet
  facet normal -0.587801 0.809006 0
    outer loop
      vertex 4.43262 85.9685 182.752
      vertex 5.13262 86.4771 162.752
      vertex 4.43262 85.9685 162.752
    endloop
  endfacet
  facet normal 0.587801 0.809006 -0
    outer loop
      vertex 3.56738 85.9685 162.752
      vertex 2.86738 86.4771 182.752
      vertex 3.56738 85.9685 182.752
    endloop
  endfacet
  facet normal 0.587801 0.809006 0
    outer loop
      vertex 2.86738 86.4771 182.752
      vertex 3.56738 85.9685 162.752
      vertex 2.86738 86.4771 162.752
    endloop
  endfacet
  facet normal 0 0 1
    outer loop
      vertex 5.13262 88.1229 162.752
      vertex 5.13262 86.4771 162.752
      vertex 5.4 87.3 162.752
    endloop
  endfacet
  facet normal 0 0 1
    outer loop
      vertex 4.43262 88.6315 162.752
      vertex 5.13262 86.4771 162.752
      vertex 5.13262 88.1229 162.752
    endloop
  endfacet
  facet normal 0 0 1
    outer loop
      vertex 4.43262 88.6315 162.752
      vertex 4.43262 85.9685 162.752
      vertex 5.13262 86.4771 162.752
    endloop
  endfacet
  facet normal -0 0 1
    outer loop
      vertex 3.56738 88.6315 162.752
      vertex 4.43262 85.9685 162.752
      vertex 4.43262 88.6315 162.752
    endloop
  endfacet
  facet normal 0 0 1
    outer loop
      vertex 3.56738 88.6315 162.752
      vertex 3.56738 85.9685 162.752
      vertex 4.43262 85.9685 162.752
    endloop
  endfacet
  facet normal -0 0 1
    outer loop
      vertex 2.86738 88.1229 162.752
      vertex 3.56738 85.9685 162.752
      vertex 3.56738 88.6315 162.752
    endloop
  endfacet
  facet normal 0 0 1
    outer loop
      vertex 2.86738 88.1229 162.752
      vertex 2.86738 86.4771 162.752
      vertex 3.56738 85.9685 162.752
    endloop
  endfacet
  facet normal 0 -0 1
    outer loop
      vertex 2.86738 86.4771 162.752
      vertex 2.86738 88.1229 162.752
      vertex 2.6 87.3 162.752
    endloop
  endfacet
  facet normal 0 0 -1
    outer loop
      vertex 5.13262 86.4771 182.752
      vertex 5.13262 88.1229 182.752
      vertex 5.4 87.3 182.752
    endloop
  endfacet
  facet normal 0 0 -1
    outer loop
      vertex 4.43262 85.9685 182.752
      vertex 5.13262 88.1229 182.752
      vertex 5.13262 86.4771 182.752
    endloop
  endfacet
  facet normal 0 0 -1
    outer loop
      vertex 4.43262 85.9685 182.752
      vertex 4.43262 88.6315 182.752
      vertex 5.13262 88.1229 182.752
    endloop
  endfacet
  facet normal 0 0 -1
    outer loop
      vertex 3.56738 85.9685 182.752
      vertex 4.43262 88.6315 182.752
      vertex 4.43262 85.9685 182.752
    endloop
  endfacet
  facet normal 0 0 -1
    outer loop
      vertex 3.56738 85.9685 182.752
      vertex 3.56738 88.6315 182.752
      vertex 4.43262 88.6315 182.752
    endloop
  endfacet
  facet normal 0 0 -1
    outer loop
      vertex 2.86738 86.4771 182.752
      vertex 3.56738 88.6315 182.752
      vertex 3.56738 85.9685 182.752
    endloop
  endfacet
  facet normal 0 0 -1
    outer loop
      vertex 2.86738 86.4771 182.752
      vertex 2.86738 88.1229 182.752
      vertex 3.56738 88.6315 182.752
    endloop
  endfacet
  facet normal 0 -0 -1
    outer loop
      vertex 2.86738 88.1229 182.752
      vertex 2.86738 86.4771 182.752
      vertex 2.6 87.3 182.752
    endloop
  endfacet
  facet normal 0 1 -0
    outer loop
      vertex 4.43262 85.9685 162.752
      vertex 3.56738 85.9685 182.752
      vertex 4.43262 85.9685 182.752
    endloop
  endfacet
  facet normal 0 1 0
    outer loop
      vertex 3.56738 85.9685 182.752
      vertex 4.43262 85.9685 162.752
      vertex 3.56738 85.9685 162.752
    endloop
  endfacet
  facet normal 0.951049 0.309042 0
    outer loop
      vertex 37.5864 93.1771 182.752
      vertex 37.319 94 162.752
      vertex 37.319 94 182.752
    endloop
  endfacet
  facet normal 0.951049 0.309042 0
    outer loop
      vertex 37.319 94 162.752
      vertex 37.5864 93.1771 182.752
      vertex 37.5864 93.1771 162.752
    endloop
  endfacet
  facet normal -0.587801 -0.809006 0
    outer loop
      vertex 39.1516 95.3315 162.752
      vertex 39.8516 94.8229 182.752
      vertex 39.1516 95.3315 182.752
    endloop
  endfacet
  facet normal -0.587801 -0.809006 -0
    outer loop
      vertex 39.8516 94.8229 182.752
      vertex 39.1516 95.3315 162.752
      vertex 39.8516 94.8229 162.752
    endloop
  endfacet
  facet normal -0.951049 -0.309042 0
    outer loop
      vertex 40.119 94 162.752
      vertex 39.8516 94.8229 182.752
      vertex 39.8516 94.8229 162.752
    endloop
  endfacet
  facet normal -0.951049 -0.309042 0
    outer loop
      vertex 39.8516 94.8229 182.752
      vertex 40.119 94 162.752
      vertex 40.119 94 182.752
    endloop
  endfacet
  facet normal 0 -1 0
    outer loop
      vertex 38.2864 95.3315 162.752
      vertex 39.1516 95.3315 182.752
      vertex 38.2864 95.3315 182.752
    endloop
  endfacet
  facet normal 0 -1 -0
    outer loop
      vertex 39.1516 95.3315 182.752
      vertex 38.2864 95.3315 162.752
      vertex 39.1516 95.3315 162.752
    endloop
  endfacet
  facet normal 0.587801 -0.809006 0
    outer loop
      vertex 37.5864 94.8229 162.752
      vertex 38.2864 95.3315 182.752
      vertex 37.5864 94.8229 182.752
    endloop
  endfacet
  facet normal 0.587801 -0.809006 0
    outer loop
      vertex 38.2864 95.3315 182.752
      vertex 37.5864 94.8229 162.752
      vertex 38.2864 95.3315 162.752
    endloop
  endfacet
  facet normal 0 0 -1
    outer loop
      vertex 39.8516 93.1771 182.752
      vertex 39.8516 94.8229 182.752
      vertex 40.119 94 182.752
    endloop
  endfacet
  facet normal 0 0 -1
    outer loop
      vertex 39.1516 92.6685 182.752
      vertex 39.8516 94.8229 182.752
      vertex 39.8516 93.1771 182.752
    endloop
  endfacet
  facet normal 0 0 -1
    outer loop
      vertex 39.1516 92.6685 182.752
      vertex 39.1516 95.3315 182.752
      vertex 39.8516 94.8229 182.752
    endloop
  endfacet
  facet normal 0 0 -1
    outer loop
      vertex 38.2864 92.6685 182.752
      vertex 39.1516 95.3315 182.752
      vertex 39.1516 92.6685 182.752
    endloop
  endfacet
  facet normal 0 0 -1
    outer loop
      vertex 38.2864 92.6685 182.752
      vertex 38.2864 95.3315 182.752
      vertex 39.1516 95.3315 182.752
    endloop
  endfacet
  facet normal 0 0 -1
    outer loop
      vertex 37.5864 93.1771 182.752
      vertex 38.2864 95.3315 182.752
      vertex 38.2864 92.6685 182.752
    endloop
  endfacet
  facet normal 0 0 -1
    outer loop
      vertex 37.5864 93.1771 182.752
      vertex 37.5864 94.8229 182.752
      vertex 38.2864 95.3315 182.752
    endloop
  endfacet
  facet normal 0 -0 -1
    outer loop
      vertex 37.5864 94.8229 182.752
      vertex 37.5864 93.1771 182.752
      vertex 37.319 94 182.752
    endloop
  endfacet
  facet normal -0.951049 0.309042 0
    outer loop
      vertex 39.8516 93.1771 162.752
      vertex 40.119 94 182.752
      vertex 40.119 94 162.752
    endloop
  endfacet
  facet normal -0.951049 0.309042 0
    outer loop
      vertex 40.119 94 182.752
      vertex 39.8516 93.1771 162.752
      vertex 39.8516 93.1771 182.752
    endloop
  endfacet
  facet normal 0.587801 0.809006 -0
    outer loop
      vertex 38.2864 92.6685 162.752
      vertex 37.5864 93.1771 182.752
      vertex 38.2864 92.6685 182.752
    endloop
  endfacet
  facet normal 0.587801 0.809006 0
    outer loop
      vertex 37.5864 93.1771 182.752
      vertex 38.2864 92.6685 162.752
      vertex 37.5864 93.1771 162.752
    endloop
  endfacet
  facet normal 0 1 -0
    outer loop
      vertex 39.1516 92.6685 162.752
      vertex 38.2864 92.6685 182.752
      vertex 39.1516 92.6685 182.752
    endloop
  endfacet
  facet normal 0 1 0
    outer loop
      vertex 38.2864 92.6685 182.752
      vertex 39.1516 92.6685 162.752
      vertex 38.2864 92.6685 162.752
    endloop
  endfacet
  facet normal -0.587801 0.809006 0
    outer loop
      vertex 39.8516 93.1771 162.752
      vertex 39.1516 92.6685 182.752
      vertex 39.8516 93.1771 182.752
    endloop
  endfacet
  facet normal -0.587801 0.809006 0
    outer loop
      vertex 39.1516 92.6685 182.752
      vertex 39.8516 93.1771 162.752
      vertex 39.1516 92.6685 162.752
    endloop
  endfacet
  facet normal 0.951049 -0.309042 0
    outer loop
      vertex 37.319 94 182.752
      vertex 37.5864 94.8229 162.752
      vertex 37.5864 94.8229 182.752
    endloop
  endfacet
  facet normal 0.951049 -0.309042 0
    outer loop
      vertex 37.5864 94.8229 162.752
      vertex 37.319 94 182.752
      vertex 37.319 94 162.752
    endloop
  endfacet
  facet normal 0 0 1
    outer loop
      vertex 39.8516 94.8229 162.752
      vertex 39.8516 93.1771 162.752
      vertex 40.119 94 162.752
    endloop
  endfacet
  facet normal 0 0 1
    outer loop
      vertex 39.1516 95.3315 162.752
      vertex 39.8516 93.1771 162.752
      vertex 39.8516 94.8229 162.752
    endloop
  endfacet
  facet normal 0 0 1
    outer loop
      vertex 39.1516 95.3315 162.752
      vertex 39.1516 92.6685 162.752
      vertex 39.8516 93.1771 162.752
    endloop
  endfacet
  facet normal -0 0 1
    outer loop
      vertex 38.2864 95.3315 162.752
      vertex 39.1516 92.6685 162.752
      vertex 39.1516 95.3315 162.752
    endloop
  endfacet
  facet normal 0 0 1
    outer loop
      vertex 38.2864 95.3315 162.752
      vertex 38.2864 92.6685 162.752
      vertex 39.1516 92.6685 162.752
    endloop
  endfacet
  facet normal -0 0 1
    outer loop
      vertex 37.5864 94.8229 162.752
      vertex 38.2864 92.6685 162.752
      vertex 38.2864 95.3315 162.752
    endloop
  endfacet
  facet normal 0 0 1
    outer loop
      vertex 37.5864 94.8229 162.752
      vertex 37.5864 93.1771 162.752
      vertex 38.2864 92.6685 162.752
    endloop
  endfacet
  facet normal 0 -0 1
    outer loop
      vertex 37.5864 93.1771 162.752
      vertex 37.5864 94.8229 162.752
      vertex 37.319 94 162.752
    endloop
  endfacet
  facet normal 0 0 -1
    outer loop
      vertex 5.36751 0.0999994 355.504
      vertex 4.43262 1.33148 355.504
      vertex 5.13262 0.822899 355.504
    endloop
  endfacet
  facet normal 0 0 -1
    outer loop
      vertex 5.36751 0.0999994 355.504
      vertex 3.56738 1.33148 355.504
      vertex 4.43262 1.33148 355.504
    endloop
  endfacet
  facet normal 0 0 -1
    outer loop
      vertex 2.63249 0.0999994 355.504
      vertex 3.56738 1.33148 355.504
      vertex 5.36751 0.0999994 355.504
    endloop
  endfacet
  facet normal 0 0 -1
    outer loop
      vertex 3.56738 1.33148 355.504
      vertex 2.63249 0.0999994 355.504
      vertex 2.86738 0.822899 355.504
    endloop
  endfacet
  facet normal -0.587786 -0.809016 0
    outer loop
      vertex 4.43262 1.33148 335.504
      vertex 5.13262 0.822899 355.504
      vertex 4.43262 1.33148 355.504
    endloop
  endfacet
  facet normal -0.587786 -0.809016 -0
    outer loop
      vertex 5.13262 0.822899 355.504
      vertex 4.43262 1.33148 335.504
      vertex 5.13262 0.822899 335.504
    endloop
  endfacet
  facet normal -0.951054 -0.309024 0
    outer loop
      vertex 5.36751 0.0999994 335.504
      vertex 5.13262 0.822899 355.504
      vertex 5.13262 0.822899 335.504
    endloop
  endfacet
  facet normal -0.951054 -0.309024 0
    outer loop
      vertex 5.13262 0.822899 355.504
      vertex 5.36751 0.0999994 335.504
      vertex 5.36751 0.0999994 355.504
    endloop
  endfacet
  facet normal 0 -1 0
    outer loop
      vertex 3.56738 1.33148 335.504
      vertex 4.43262 1.33148 355.504
      vertex 3.56738 1.33148 355.504
    endloop
  endfacet
  facet normal 0 -1 -0
    outer loop
      vertex 4.43262 1.33148 355.504
      vertex 3.56738 1.33148 335.504
      vertex 4.43262 1.33148 335.504
    endloop
  endfacet
  facet normal 0.587786 -0.809016 0
    outer loop
      vertex 2.86738 0.822899 335.504
      vertex 3.56738 1.33148 355.504
      vertex 2.86738 0.822899 355.504
    endloop
  endfacet
  facet normal 0.587786 -0.809016 0
    outer loop
      vertex 3.56738 1.33148 355.504
      vertex 2.86738 0.822899 335.504
      vertex 3.56738 1.33148 335.504
    endloop
  endfacet
  facet normal 0.951054 -0.309024 0
    outer loop
      vertex 2.63249 0.0999994 355.504
      vertex 2.86738 0.822899 335.504
      vertex 2.86738 0.822899 355.504
    endloop
  endfacet
  facet normal 0.951054 -0.309024 0
    outer loop
      vertex 2.86738 0.822899 335.504
      vertex 2.63249 0.0999994 355.504
      vertex 2.63249 0.0999994 335.504
    endloop
  endfacet
  facet normal 0 0 1
    outer loop
      vertex 4.43262 1.33148 335.504
      vertex 5.36751 0.0999994 335.504
      vertex 5.13262 0.822899 335.504
    endloop
  endfacet
  facet normal -0 0 1
    outer loop
      vertex 3.56738 1.33148 335.504
      vertex 5.36751 0.0999994 335.504
      vertex 4.43262 1.33148 335.504
    endloop
  endfacet
  facet normal 0 0 1
    outer loop
      vertex 2.63249 0.0999994 335.504
      vertex 3.56738 1.33148 335.504
      vertex 2.86738 0.822899 335.504
    endloop
  endfacet
  facet normal 0 0 1
    outer loop
      vertex 3.56738 1.33148 335.504
      vertex 2.63249 0.0999994 335.504
      vertex 5.36751 0.0999994 335.504
    endloop
  endfacet
  facet normal 0.587801 0.809006 -0
    outer loop
      vertex 3.56738 47.1685 335.504
      vertex 2.86738 47.6771 355.504
      vertex 3.56738 47.1685 355.504
    endloop
  endfacet
  facet normal 0.587801 0.809006 0
    outer loop
      vertex 2.86738 47.6771 355.504
      vertex 3.56738 47.1685 335.504
      vertex 2.86738 47.6771 335.504
    endloop
  endfacet
  facet normal -0.587801 -0.809006 0
    outer loop
      vertex 4.43262 49.8315 335.504
      vertex 5.13262 49.3229 355.504
      vertex 4.43262 49.8315 355.504
    endloop
  endfacet
  facet normal -0.587801 -0.809006 -0
    outer loop
      vertex 5.13262 49.3229 355.504
      vertex 4.43262 49.8315 335.504
      vertex 5.13262 49.3229 335.504
    endloop
  endfacet
  facet normal -0.951055 -0.309021 0
    outer loop
      vertex 5.4 48.5 335.504
      vertex 5.13262 49.3229 355.504
      vertex 5.13262 49.3229 335.504
    endloop
  endfacet
  facet normal -0.951055 -0.309021 0
    outer loop
      vertex 5.13262 49.3229 355.504
      vertex 5.4 48.5 335.504
      vertex 5.4 48.5 355.504
    endloop
  endfacet
  facet normal 0 -1 0
    outer loop
      vertex 3.56738 49.8315 335.504
      vertex 4.43262 49.8315 355.504
      vertex 3.56738 49.8315 355.504
    endloop
  endfacet
  facet normal 0 -1 -0
    outer loop
      vertex 4.43262 49.8315 355.504
      vertex 3.56738 49.8315 335.504
      vertex 4.43262 49.8315 335.504
    endloop
  endfacet
  facet normal 0 0 1
    outer loop
      vertex 5.13262 49.3229 335.504
      vertex 5.13262 47.6771 335.504
      vertex 5.4 48.5 335.504
    endloop
  endfacet
  facet normal 0 0 1
    outer loop
      vertex 4.43262 49.8315 335.504
      vertex 5.13262 47.6771 335.504
      vertex 5.13262 49.3229 335.504
    endloop
  endfacet
  facet normal 0 0 1
    outer loop
      vertex 4.43262 49.8315 335.504
      vertex 4.43262 47.1685 335.504
      vertex 5.13262 47.6771 335.504
    endloop
  endfacet
  facet normal -0 0 1
    outer loop
      vertex 3.56738 49.8315 335.504
      vertex 4.43262 47.1685 335.504
      vertex 4.43262 49.8315 335.504
    endloop
  endfacet
  facet normal 0 0 1
    outer loop
      vertex 3.56738 49.8315 335.504
      vertex 3.56738 47.1685 335.504
      vertex 4.43262 47.1685 335.504
    endloop
  endfacet
  facet normal -0 0 1
    outer loop
      vertex 2.86738 49.3229 335.504
      vertex 3.56738 47.1685 335.504
      vertex 3.56738 49.8315 335.504
    endloop
  endfacet
  facet normal 0 0 1
    outer loop
      vertex 2.86738 49.3229 335.504
      vertex 2.86738 47.6771 335.504
      vertex 3.56738 47.1685 335.504
    endloop
  endfacet
  facet normal 0 -0 1
    outer loop
      vertex 2.86738 47.6771 335.504
      vertex 2.86738 49.3229 335.504
      vertex 2.6 48.5 335.504
    endloop
  endfacet
  facet normal 0 1 -0
    outer loop
      vertex 4.43262 47.1685 335.504
      vertex 3.56738 47.1685 355.504
      vertex 4.43262 47.1685 355.504
    endloop
  endfacet
  facet normal 0 1 0
    outer loop
      vertex 3.56738 47.1685 355.504
      vertex 4.43262 47.1685 335.504
      vertex 3.56738 47.1685 335.504
    endloop
  endfacet
  facet normal -0.587801 0.809006 0
    outer loop
      vertex 5.13262 47.6771 335.504
      vertex 4.43262 47.1685 355.504
      vertex 5.13262 47.6771 355.504
    endloop
  endfacet
  facet normal -0.587801 0.809006 0
    outer loop
      vertex 4.43262 47.1685 355.504
      vertex 5.13262 47.6771 335.504
      vertex 4.43262 47.1685 335.504
    endloop
  endfacet
  facet normal 0.951055 0.309021 0
    outer loop
      vertex 2.86738 47.6771 355.504
      vertex 2.6 48.5 335.504
      vertex 2.6 48.5 355.504
    endloop
  endfacet
  facet normal 0.951055 0.309021 0
    outer loop
      vertex 2.6 48.5 335.504
      vertex 2.86738 47.6771 355.504
      vertex 2.86738 47.6771 335.504
    endloop
  endfacet
  facet normal 0.587801 -0.809006 0
    outer loop
      vertex 2.86738 49.3229 335.504
      vertex 3.56738 49.8315 355.504
      vertex 2.86738 49.3229 355.504
    endloop
  endfacet
  facet normal 0.587801 -0.809006 0
    outer loop
      vertex 3.56738 49.8315 355.504
      vertex 2.86738 49.3229 335.504
      vertex 3.56738 49.8315 335.504
    endloop
  endfacet
  facet normal 0 0 -1
    outer loop
      vertex 5.13262 47.6771 355.504
      vertex 5.13262 49.3229 355.504
      vertex 5.4 48.5 355.504
    endloop
  endfacet
  facet normal 0 0 -1
    outer loop
      vertex 4.43262 47.1685 355.504
      vertex 5.13262 49.3229 355.504
      vertex 5.13262 47.6771 355.504
    endloop
  endfacet
  facet normal 0 0 -1
    outer loop
      vertex 4.43262 47.1685 355.504
      vertex 4.43262 49.8315 355.504
      vertex 5.13262 49.3229 355.504
    endloop
  endfacet
  facet normal 0 0 -1
    outer loop
      vertex 3.56738 47.1685 355.504
      vertex 4.43262 49.8315 355.504
      vertex 4.43262 47.1685 355.504
    endloop
  endfacet
  facet normal 0 0 -1
    outer loop
      vertex 3.56738 47.1685 355.504
      vertex 3.56738 49.8315 355.504
      vertex 4.43262 49.8315 355.504
    endloop
  endfacet
  facet normal 0 0 -1
    outer loop
      vertex 2.86738 47.6771 355.504
      vertex 3.56738 49.8315 355.504
      vertex 3.56738 47.1685 355.504
    endloop
  endfacet
  facet normal 0 0 -1
    outer loop
      vertex 2.86738 47.6771 355.504
      vertex 2.86738 49.3229 355.504
      vertex 3.56738 49.8315 355.504
    endloop
  endfacet
  facet normal 0 -0 -1
    outer loop
      vertex 2.86738 49.3229 355.504
      vertex 2.86738 47.6771 355.504
      vertex 2.6 48.5 355.504
    endloop
  endfacet
  facet normal -0.951055 0.309021 0
    outer loop
      vertex 5.13262 47.6771 335.504
      vertex 5.4 48.5 355.504
      vertex 5.4 48.5 335.504
    endloop
  endfacet
  facet normal -0.951055 0.309021 0
    outer loop
      vertex 5.4 48.5 355.504
      vertex 5.13262 47.6771 335.504
      vertex 5.13262 47.6771 355.504
    endloop
  endfacet
  facet normal 0.951055 -0.309021 0
    outer loop
      vertex 2.6 48.5 355.504
      vertex 2.86738 49.3229 335.504
      vertex 2.86738 49.3229 355.504
    endloop
  endfacet
  facet normal 0.951055 -0.309021 0
    outer loop
      vertex 2.86738 49.3229 335.504
      vertex 2.6 48.5 355.504
      vertex 2.6 48.5 335.504
    endloop
  endfacet
  facet normal 0 0 -1
    outer loop
      vertex 5.13262 86.4771 355.504
      vertex 5.13262 88.1229 355.504
      vertex 5.4 87.3 355.504
    endloop
  endfacet
  facet normal 0 0 -1
    outer loop
      vertex 4.43262 85.9685 355.504
      vertex 5.13262 88.1229 355.504
      vertex 5.13262 86.4771 355.504
    endloop
  endfacet
  facet normal 0 0 -1
    outer loop
      vertex 4.43262 85.9685 355.504
      vertex 4.43262 88.6315 355.504
      vertex 5.13262 88.1229 355.504
    endloop
  endfacet
  facet normal 0 0 -1
    outer loop
      vertex 3.56738 85.9685 355.504
      vertex 4.43262 88.6315 355.504
      vertex 4.43262 85.9685 355.504
    endloop
  endfacet
  facet normal 0 0 -1
    outer loop
      vertex 3.56738 85.9685 355.504
      vertex 3.56738 88.6315 355.504
      vertex 4.43262 88.6315 355.504
    endloop
  endfacet
  facet normal 0 0 -1
    outer loop
      vertex 2.86738 86.4771 355.504
      vertex 3.56738 88.6315 355.504
      vertex 3.56738 85.9685 355.504
    endloop
  endfacet
  facet normal 0 0 -1
    outer loop
      vertex 2.86738 86.4771 355.504
      vertex 2.86738 88.1229 355.504
      vertex 3.56738 88.6315 355.504
    endloop
  endfacet
  facet normal 0 -0 -1
    outer loop
      vertex 2.86738 88.1229 355.504
      vertex 2.86738 86.4771 355.504
      vertex 2.6 87.3 355.504
    endloop
  endfacet
  facet normal 0.951055 0.309021 0
    outer loop
      vertex 2.86738 86.4771 355.504
      vertex 2.6 87.3 335.504
      vertex 2.6 87.3 355.504
    endloop
  endfacet
  facet normal 0.951055 0.309021 0
    outer loop
      vertex 2.6 87.3 335.504
      vertex 2.86738 86.4771 355.504
      vertex 2.86738 86.4771 335.504
    endloop
  endfacet
  facet normal -0.587801 -0.809006 0
    outer loop
      vertex 4.43262 88.6315 335.504
      vertex 5.13262 88.1229 355.504
      vertex 4.43262 88.6315 355.504
    endloop
  endfacet
  facet normal -0.587801 -0.809006 -0
    outer loop
      vertex 5.13262 88.1229 355.504
      vertex 4.43262 88.6315 335.504
      vertex 5.13262 88.1229 335.504
    endloop
  endfacet
  facet normal -0.951055 -0.309021 0
    outer loop
      vertex 5.4 87.3 335.504
      vertex 5.13262 88.1229 355.504
      vertex 5.13262 88.1229 335.504
    endloop
  endfacet
  facet normal -0.951055 -0.309021 0
    outer loop
      vertex 5.13262 88.1229 355.504
      vertex 5.4 87.3 335.504
      vertex 5.4 87.3 355.504
    endloop
  endfacet
  facet normal 0 -1 0
    outer loop
      vertex 3.56738 88.6315 335.504
      vertex 4.43262 88.6315 355.504
      vertex 3.56738 88.6315 355.504
    endloop
  endfacet
  facet normal 0 -1 -0
    outer loop
      vertex 4.43262 88.6315 355.504
      vertex 3.56738 88.6315 335.504
      vertex 4.43262 88.6315 335.504
    endloop
  endfacet
  facet normal 0 1 -0
    outer loop
      vertex 4.43262 85.9685 335.504
      vertex 3.56738 85.9685 355.504
      vertex 4.43262 85.9685 355.504
    endloop
  endfacet
  facet normal 0 1 0
    outer loop
      vertex 3.56738 85.9685 355.504
      vertex 4.43262 85.9685 335.504
      vertex 3.56738 85.9685 335.504
    endloop
  endfacet
  facet normal -0.951055 0.309021 0
    outer loop
      vertex 5.13262 86.4771 335.504
      vertex 5.4 87.3 355.504
      vertex 5.4 87.3 335.504
    endloop
  endfacet
  facet normal -0.951055 0.309021 0
    outer loop
      vertex 5.4 87.3 355.504
      vertex 5.13262 86.4771 335.504
      vertex 5.13262 86.4771 355.504
    endloop
  endfacet
  facet normal 0.587801 -0.809006 0
    outer loop
      vertex 2.86738 88.1229 335.504
      vertex 3.56738 88.6315 355.504
      vertex 2.86738 88.1229 355.504
    endloop
  endfacet
  facet normal 0.587801 -0.809006 0
    outer loop
      vertex 3.56738 88.6315 355.504
      vertex 2.86738 88.1229 335.504
      vertex 3.56738 88.6315 335.504
    endloop
  endfacet
  facet normal 0.951055 -0.309021 0
    outer loop
      vertex 2.6 87.3 355.504
      vertex 2.86738 88.1229 335.504
      vertex 2.86738 88.1229 355.504
    endloop
  endfacet
  facet normal 0.951055 -0.309021 0
    outer loop
      vertex 2.86738 88.1229 335.504
      vertex 2.6 87.3 355.504
      vertex 2.6 87.3 335.504
    endloop
  endfacet
  facet normal -0.587801 0.809006 0
    outer loop
      vertex 5.13262 86.4771 335.504
      vertex 4.43262 85.9685 355.504
      vertex 5.13262 86.4771 355.504
    endloop
  endfacet
  facet normal -0.587801 0.809006 0
    outer loop
      vertex 4.43262 85.9685 355.504
      vertex 5.13262 86.4771 335.504
      vertex 4.43262 85.9685 335.504
    endloop
  endfacet
  facet normal 0 0 1
    outer loop
      vertex 5.13262 88.1229 335.504
      vertex 5.13262 86.4771 335.504
      vertex 5.4 87.3 335.504
    endloop
  endfacet
  facet normal 0 0 1
    outer loop
      vertex 4.43262 88.6315 335.504
      vertex 5.13262 86.4771 335.504
      vertex 5.13262 88.1229 335.504
    endloop
  endfacet
  facet normal 0 0 1
    outer loop
      vertex 4.43262 88.6315 335.504
      vertex 4.43262 85.9685 335.504
      vertex 5.13262 86.4771 335.504
    endloop
  endfacet
  facet normal -0 0 1
    outer loop
      vertex 3.56738 88.6315 335.504
      vertex 4.43262 85.9685 335.504
      vertex 4.43262 88.6315 335.504
    endloop
  endfacet
  facet normal 0 0 1
    outer loop
      vertex 3.56738 88.6315 335.504
      vertex 3.56738 85.9685 335.504
      vertex 4.43262 85.9685 335.504
    endloop
  endfacet
  facet normal -0 0 1
    outer loop
      vertex 2.86738 88.1229 335.504
      vertex 3.56738 85.9685 335.504
      vertex 3.56738 88.6315 335.504
    endloop
  endfacet
  facet normal 0 0 1
    outer loop
      vertex 2.86738 88.1229 335.504
      vertex 2.86738 86.4771 335.504
      vertex 3.56738 85.9685 335.504
    endloop
  endfacet
  facet normal 0 -0 1
    outer loop
      vertex 2.86738 86.4771 335.504
      vertex 2.86738 88.1229 335.504
      vertex 2.6 87.3 335.504
    endloop
  endfacet
  facet normal 0.587801 0.809006 -0
    outer loop
      vertex 3.56738 85.9685 335.504
      vertex 2.86738 86.4771 355.504
      vertex 3.56738 85.9685 355.504
    endloop
  endfacet
  facet normal 0.587801 0.809006 0
    outer loop
      vertex 2.86738 86.4771 355.504
      vertex 3.56738 85.9685 335.504
      vertex 2.86738 86.4771 335.504
    endloop
  endfacet
  facet normal 0 1 -0
    outer loop
      vertex 39.1516 92.6685 335.504
      vertex 38.2864 92.6685 355.504
      vertex 39.1516 92.6685 355.504
    endloop
  endfacet
  facet normal 0 1 0
    outer loop
      vertex 38.2864 92.6685 355.504
      vertex 39.1516 92.6685 335.504
      vertex 38.2864 92.6685 335.504
    endloop
  endfacet
  facet normal 0.951049 0.309042 0
    outer loop
      vertex 37.5864 93.1771 355.504
      vertex 37.319 94 335.504
      vertex 37.319 94 355.504
    endloop
  endfacet
  facet normal 0.951049 0.309042 0
    outer loop
      vertex 37.319 94 335.504
      vertex 37.5864 93.1771 355.504
      vertex 37.5864 93.1771 335.504
    endloop
  endfacet
  facet normal -0.587801 -0.809006 0
    outer loop
      vertex 39.1516 95.3315 335.504
      vertex 39.8516 94.8229 355.504
      vertex 39.1516 95.3315 355.504
    endloop
  endfacet
  facet normal -0.587801 -0.809006 -0
    outer loop
      vertex 39.8516 94.8229 355.504
      vertex 39.1516 95.3315 335.504
      vertex 39.8516 94.8229 335.504
    endloop
  endfacet
  facet normal -0.951049 -0.309042 0
    outer loop
      vertex 40.119 94 335.504
      vertex 39.8516 94.8229 355.504
      vertex 39.8516 94.8229 335.504
    endloop
  endfacet
  facet normal -0.951049 -0.309042 0
    outer loop
      vertex 39.8516 94.8229 355.504
      vertex 40.119 94 335.504
      vertex 40.119 94 355.504
    endloop
  endfacet
  facet normal 0 -1 0
    outer loop
      vertex 38.2864 95.3315 335.504
      vertex 39.1516 95.3315 355.504
      vertex 38.2864 95.3315 355.504
    endloop
  endfacet
  facet normal 0 -1 -0
    outer loop
      vertex 39.1516 95.3315 355.504
      vertex 38.2864 95.3315 335.504
      vertex 39.1516 95.3315 335.504
    endloop
  endfacet
  facet normal 0.587801 -0.809006 0
    outer loop
      vertex 37.5864 94.8229 335.504
      vertex 38.2864 95.3315 355.504
      vertex 37.5864 94.8229 355.504
    endloop
  endfacet
  facet normal 0.587801 -0.809006 0
    outer loop
      vertex 38.2864 95.3315 355.504
      vertex 37.5864 94.8229 335.504
      vertex 38.2864 95.3315 335.504
    endloop
  endfacet
  facet normal -0.951049 0.309042 0
    outer loop
      vertex 39.8516 93.1771 335.504
      vertex 40.119 94 355.504
      vertex 40.119 94 335.504
    endloop
  endfacet
  facet normal -0.951049 0.309042 0
    outer loop
      vertex 40.119 94 355.504
      vertex 39.8516 93.1771 335.504
      vertex 39.8516 93.1771 355.504
    endloop
  endfacet
  facet normal 0.951049 -0.309042 0
    outer loop
      vertex 37.319 94 355.504
      vertex 37.5864 94.8229 335.504
      vertex 37.5864 94.8229 355.504
    endloop
  endfacet
  facet normal 0.951049 -0.309042 0
    outer loop
      vertex 37.5864 94.8229 335.504
      vertex 37.319 94 355.504
      vertex 37.319 94 335.504
    endloop
  endfacet
  facet normal 0 0 -1
    outer loop
      vertex 39.8516 93.1771 355.504
      vertex 39.8516 94.8229 355.504
      vertex 40.119 94 355.504
    endloop
  endfacet
  facet normal 0 0 -1
    outer loop
      vertex 39.1516 92.6685 355.504
      vertex 39.8516 94.8229 355.504
      vertex 39.8516 93.1771 355.504
    endloop
  endfacet
  facet normal 0 0 -1
    outer loop
      vertex 39.1516 92.6685 355.504
      vertex 39.1516 95.3315 355.504
      vertex 39.8516 94.8229 355.504
    endloop
  endfacet
  facet normal 0 0 -1
    outer loop
      vertex 38.2864 92.6685 355.504
      vertex 39.1516 95.3315 355.504
      vertex 39.1516 92.6685 355.504
    endloop
  endfacet
  facet normal 0 0 -1
    outer loop
      vertex 38.2864 92.6685 355.504
      vertex 38.2864 95.3315 355.504
      vertex 39.1516 95.3315 355.504
    endloop
  endfacet
  facet normal 0 0 -1
    outer loop
      vertex 37.5864 93.1771 355.504
      vertex 38.2864 95.3315 355.504
      vertex 38.2864 92.6685 355.504
    endloop
  endfacet
  facet normal 0 0 -1
    outer loop
      vertex 37.5864 93.1771 355.504
      vertex 37.5864 94.8229 355.504
      vertex 38.2864 95.3315 355.504
    endloop
  endfacet
  facet normal 0 -0 -1
    outer loop
      vertex 37.5864 94.8229 355.504
      vertex 37.5864 93.1771 355.504
      vertex 37.319 94 355.504
    endloop
  endfacet
  facet normal 0 0 1
    outer loop
      vertex 39.8516 94.8229 335.504
      vertex 39.8516 93.1771 335.504
      vertex 40.119 94 335.504
    endloop
  endfacet
  facet normal 0 0 1
    outer loop
      vertex 39.1516 95.3315 335.504
      vertex 39.8516 93.1771 335.504
      vertex 39.8516 94.8229 335.504
    endloop
  endfacet
  facet normal 0 0 1
    outer loop
      vertex 39.1516 95.3315 335.504
      vertex 39.1516 92.6685 335.504
      vertex 39.8516 93.1771 335.504
    endloop
  endfacet
  facet normal -0 0 1
    outer loop
      vertex 38.2864 95.3315 335.504
      vertex 39.1516 92.6685 335.504
      vertex 39.1516 95.3315 335.504
    endloop
  endfacet
  facet normal 0 0 1
    outer loop
      vertex 38.2864 95.3315 335.504
      vertex 38.2864 92.6685 335.504
      vertex 39.1516 92.6685 335.504
    endloop
  endfacet
  facet normal -0 0 1
    outer loop
      vertex 37.5864 94.8229 335.504
      vertex 38.2864 92.6685 335.504
      vertex 38.2864 95.3315 335.504
    endloop
  endfacet
  facet normal 0 0 1
    outer loop
      vertex 37.5864 94.8229 335.504
      vertex 37.5864 93.1771 335.504
      vertex 38.2864 92.6685 335.504
    endloop
  endfacet
  facet normal 0 -0 1
    outer loop
      vertex 37.5864 93.1771 335.504
      vertex 37.5864 94.8229 335.504
      vertex 37.319 94 335.504
    endloop
  endfacet
  facet normal -0.587801 0.809006 0
    outer loop
      vertex 39.8516 93.1771 335.504
      vertex 39.1516 92.6685 355.504
      vertex 39.8516 93.1771 355.504
    endloop
  endfacet
  facet normal -0.587801 0.809006 0
    outer loop
      vertex 39.1516 92.6685 355.504
      vertex 39.8516 93.1771 335.504
      vertex 39.1516 92.6685 335.504
    endloop
  endfacet
  facet normal 0.587801 0.809006 -0
    outer loop
      vertex 38.2864 92.6685 335.504
      vertex 37.5864 93.1771 355.504
      vertex 38.2864 92.6685 355.504
    endloop
  endfacet
  facet normal 0.587801 0.809006 0
    outer loop
      vertex 37.5864 93.1771 355.504
      vertex 38.2864 92.6685 335.504
      vertex 37.5864 93.1771 335.504
    endloop
  endfacet
  facet normal -0.587786 -0.809016 0
    outer loop
      vertex 4.43262 1.33148 508.257
      vertex 5.13262 0.822899 528.257
      vertex 4.43262 1.33148 528.257
    endloop
  endfacet
  facet normal -0.587786 -0.809016 -0
    outer loop
      vertex 5.13262 0.822899 528.257
      vertex 4.43262 1.33148 508.257
      vertex 5.13262 0.822899 508.257
    endloop
  endfacet
  facet normal -0.951054 -0.309024 0
    outer loop
      vertex 5.36751 0.0999994 508.257
      vertex 5.13262 0.822899 528.257
      vertex 5.13262 0.822899 508.257
    endloop
  endfacet
  facet normal -0.951054 -0.309024 0
    outer loop
      vertex 5.13262 0.822899 528.257
      vertex 5.36751 0.0999994 508.257
      vertex 5.36751 0.0999994 528.257
    endloop
  endfacet
  facet normal 0 -1 0
    outer loop
      vertex 3.56738 1.33148 508.257
      vertex 4.43262 1.33148 528.257
      vertex 3.56738 1.33148 528.257
    endloop
  endfacet
  facet normal 0 -1 -0
    outer loop
      vertex 4.43262 1.33148 528.257
      vertex 3.56738 1.33148 508.257
      vertex 4.43262 1.33148 508.257
    endloop
  endfacet
  facet normal 0.587786 -0.809016 0
    outer loop
      vertex 2.86738 0.822899 508.257
      vertex 3.56738 1.33148 528.257
      vertex 2.86738 0.822899 528.257
    endloop
  endfacet
  facet normal 0.587786 -0.809016 0
    outer loop
      vertex 3.56738 1.33148 528.257
      vertex 2.86738 0.822899 508.257
      vertex 3.56738 1.33148 508.257
    endloop
  endfacet
  facet normal 0.951054 -0.309024 0
    outer loop
      vertex 2.63249 0.0999994 528.257
      vertex 2.86738 0.822899 508.257
      vertex 2.86738 0.822899 528.257
    endloop
  endfacet
  facet normal 0.951054 -0.309024 0
    outer loop
      vertex 2.86738 0.822899 508.257
      vertex 2.63249 0.0999994 528.257
      vertex 2.63249 0.0999994 508.257
    endloop
  endfacet
  facet normal 0 0 1
    outer loop
      vertex 4.43262 1.33148 508.257
      vertex 5.36751 0.0999994 508.257
      vertex 5.13262 0.822899 508.257
    endloop
  endfacet
  facet normal -0 0 1
    outer loop
      vertex 3.56738 1.33148 508.257
      vertex 5.36751 0.0999994 508.257
      vertex 4.43262 1.33148 508.257
    endloop
  endfacet
  facet normal 0 0 1
    outer loop
      vertex 2.63249 0.0999994 508.257
      vertex 3.56738 1.33148 508.257
      vertex 2.86738 0.822899 508.257
    endloop
  endfacet
  facet normal 0 0 1
    outer loop
      vertex 3.56738 1.33148 508.257
      vertex 2.63249 0.0999994 508.257
      vertex 5.36751 0.0999994 508.257
    endloop
  endfacet
  facet normal 0 0 -1
    outer loop
      vertex 5.36751 0.0999994 528.257
      vertex 4.43262 1.33148 528.257
      vertex 5.13262 0.822899 528.257
    endloop
  endfacet
  facet normal 0 0 -1
    outer loop
      vertex 5.36751 0.0999994 528.257
      vertex 3.56738 1.33148 528.257
      vertex 4.43262 1.33148 528.257
    endloop
  endfacet
  facet normal 0 0 -1
    outer loop
      vertex 2.63249 0.0999994 528.257
      vertex 3.56738 1.33148 528.257
      vertex 5.36751 0.0999994 528.257
    endloop
  endfacet
  facet normal 0 0 -1
    outer loop
      vertex 3.56738 1.33148 528.257
      vertex 2.63249 0.0999994 528.257
      vertex 2.86738 0.822899 528.257
    endloop
  endfacet
  facet normal -0.951055 0.309021 0
    outer loop
      vertex 5.13262 47.6771 508.257
      vertex 5.4 48.5 528.257
      vertex 5.4 48.5 508.257
    endloop
  endfacet
  facet normal -0.951055 0.309021 0
    outer loop
      vertex 5.4 48.5 528.257
      vertex 5.13262 47.6771 508.257
      vertex 5.13262 47.6771 528.257
    endloop
  endfacet
  facet normal -0.587801 -0.809006 0
    outer loop
      vertex 4.43262 49.8315 508.257
      vertex 5.13262 49.3229 528.257
      vertex 4.43262 49.8315 528.257
    endloop
  endfacet
  facet normal -0.587801 -0.809006 -0
    outer loop
      vertex 5.13262 49.3229 528.257
      vertex 4.43262 49.8315 508.257
      vertex 5.13262 49.3229 508.257
    endloop
  endfacet
  facet normal -0.951055 -0.309021 0
    outer loop
      vertex 5.4 48.5 508.257
      vertex 5.13262 49.3229 528.257
      vertex 5.13262 49.3229 508.257
    endloop
  endfacet
  facet normal -0.951055 -0.309021 0
    outer loop
      vertex 5.13262 49.3229 528.257
      vertex 5.4 48.5 508.257
      vertex 5.4 48.5 528.257
    endloop
  endfacet
  facet normal 0 -1 0
    outer loop
      vertex 3.56738 49.8315 508.257
      vertex 4.43262 49.8315 528.257
      vertex 3.56738 49.8315 528.257
    endloop
  endfacet
  facet normal 0 -1 -0
    outer loop
      vertex 4.43262 49.8315 528.257
      vertex 3.56738 49.8315 508.257
      vertex 4.43262 49.8315 508.257
    endloop
  endfacet
  facet normal 0.951055 0.309021 0
    outer loop
      vertex 2.86738 47.6771 528.257
      vertex 2.6 48.5 508.257
      vertex 2.6 48.5 528.257
    endloop
  endfacet
  facet normal 0.951055 0.309021 0
    outer loop
      vertex 2.6 48.5 508.257
      vertex 2.86738 47.6771 528.257
      vertex 2.86738 47.6771 508.257
    endloop
  endfacet
  facet normal 0.587801 0.809006 -0
    outer loop
      vertex 3.56738 47.1685 508.257
      vertex 2.86738 47.6771 528.257
      vertex 3.56738 47.1685 528.257
    endloop
  endfacet
  facet normal 0.587801 0.809006 0
    outer loop
      vertex 2.86738 47.6771 528.257
      vertex 3.56738 47.1685 508.257
      vertex 2.86738 47.6771 508.257
    endloop
  endfacet
  facet normal 0.951055 -0.309021 0
    outer loop
      vertex 2.6 48.5 528.257
      vertex 2.86738 49.3229 508.257
      vertex 2.86738 49.3229 528.257
    endloop
  endfacet
  facet normal 0.951055 -0.309021 0
    outer loop
      vertex 2.86738 49.3229 508.257
      vertex 2.6 48.5 528.257
      vertex 2.6 48.5 508.257
    endloop
  endfacet
  facet normal 0 0 -1
    outer loop
      vertex 5.13262 47.6771 528.257
      vertex 5.13262 49.3229 528.257
      vertex 5.4 48.5 528.257
    endloop
  endfacet
  facet normal 0 0 -1
    outer loop
      vertex 4.43262 47.1685 528.257
      vertex 5.13262 49.3229 528.257
      vertex 5.13262 47.6771 528.257
    endloop
  endfacet
  facet normal 0 0 -1
    outer loop
      vertex 4.43262 47.1685 528.257
      vertex 4.43262 49.8315 528.257
      vertex 5.13262 49.3229 528.257
    endloop
  endfacet
  facet normal 0 0 -1
    outer loop
      vertex 3.56738 47.1685 528.257
      vertex 4.43262 49.8315 528.257
      vertex 4.43262 47.1685 528.257
    endloop
  endfacet
  facet normal 0 0 -1
    outer loop
      vertex 3.56738 47.1685 528.257
      vertex 3.56738 49.8315 528.257
      vertex 4.43262 49.8315 528.257
    endloop
  endfacet
  facet normal 0 0 -1
    outer loop
      vertex 2.86738 47.6771 528.257
      vertex 3.56738 49.8315 528.257
      vertex 3.56738 47.1685 528.257
    endloop
  endfacet
  facet normal 0 0 -1
    outer loop
      vertex 2.86738 47.6771 528.257
      vertex 2.86738 49.3229 528.257
      vertex 3.56738 49.8315 528.257
    endloop
  endfacet
  facet normal 0 -0 -1
    outer loop
      vertex 2.86738 49.3229 528.257
      vertex 2.86738 47.6771 528.257
      vertex 2.6 48.5 528.257
    endloop
  endfacet
  facet normal 0.587801 -0.809006 0
    outer loop
      vertex 2.86738 49.3229 508.257
      vertex 3.56738 49.8315 528.257
      vertex 2.86738 49.3229 528.257
    endloop
  endfacet
  facet normal 0.587801 -0.809006 0
    outer loop
      vertex 3.56738 49.8315 528.257
      vertex 2.86738 49.3229 508.257
      vertex 3.56738 49.8315 508.257
    endloop
  endfacet
  facet normal -0.587801 0.809006 0
    outer loop
      vertex 5.13262 47.6771 508.257
      vertex 4.43262 47.1685 528.257
      vertex 5.13262 47.6771 528.257
    endloop
  endfacet
  facet normal -0.587801 0.809006 0
    outer loop
      vertex 4.43262 47.1685 528.257
      vertex 5.13262 47.6771 508.257
      vertex 4.43262 47.1685 508.257
    endloop
  endfacet
  facet normal 0 0 1
    outer loop
      vertex 5.13262 49.3229 508.257
      vertex 5.13262 47.6771 508.257
      vertex 5.4 48.5 508.257
    endloop
  endfacet
  facet normal 0 0 1
    outer loop
      vertex 4.43262 49.8315 508.257
      vertex 5.13262 47.6771 508.257
      vertex 5.13262 49.3229 508.257
    endloop
  endfacet
  facet normal 0 0 1
    outer loop
      vertex 4.43262 49.8315 508.257
      vertex 4.43262 47.1685 508.257
      vertex 5.13262 47.6771 508.257
    endloop
  endfacet
  facet normal -0 0 1
    outer loop
      vertex 3.56738 49.8315 508.257
      vertex 4.43262 47.1685 508.257
      vertex 4.43262 49.8315 508.257
    endloop
  endfacet
  facet normal 0 0 1
    outer loop
      vertex 3.56738 49.8315 508.257
      vertex 3.56738 47.1685 508.257
      vertex 4.43262 47.1685 508.257
    endloop
  endfacet
  facet normal -0 0 1
    outer loop
      vertex 2.86738 49.3229 508.257
      vertex 3.56738 47.1685 508.257
      vertex 3.56738 49.8315 508.257
    endloop
  endfacet
  facet normal 0 0 1
    outer loop
      vertex 2.86738 49.3229 508.257
      vertex 2.86738 47.6771 508.257
      vertex 3.56738 47.1685 508.257
    endloop
  endfacet
  facet normal 0 -0 1
    outer loop
      vertex 2.86738 47.6771 508.257
      vertex 2.86738 49.3229 508.257
      vertex 2.6 48.5 508.257
    endloop
  endfacet
  facet normal 0 1 -0
    outer loop
      vertex 4.43262 47.1685 508.257
      vertex 3.56738 47.1685 528.257
      vertex 4.43262 47.1685 528.257
    endloop
  endfacet
  facet normal 0 1 0
    outer loop
      vertex 3.56738 47.1685 528.257
      vertex 4.43262 47.1685 508.257
      vertex 3.56738 47.1685 508.257
    endloop
  endfacet
  facet normal -0.587801 -0.809006 0
    outer loop
      vertex 4.43262 88.6315 508.257
      vertex 5.13262 88.1229 528.257
      vertex 4.43262 88.6315 528.257
    endloop
  endfacet
  facet normal -0.587801 -0.809006 -0
    outer loop
      vertex 5.13262 88.1229 528.257
      vertex 4.43262 88.6315 508.257
      vertex 5.13262 88.1229 508.257
    endloop
  endfacet
  facet normal -0.951055 -0.309021 0
    outer loop
      vertex 5.4 87.3 508.257
      vertex 5.13262 88.1229 528.257
      vertex 5.13262 88.1229 508.257
    endloop
  endfacet
  facet normal -0.951055 -0.309021 0
    outer loop
      vertex 5.13262 88.1229 528.257
      vertex 5.4 87.3 508.257
      vertex 5.4 87.3 528.257
    endloop
  endfacet
  facet normal 0 -1 0
    outer loop
      vertex 3.56738 88.6315 508.257
      vertex 4.43262 88.6315 528.257
      vertex 3.56738 88.6315 528.257
    endloop
  endfacet
  facet normal 0 -1 -0
    outer loop
      vertex 4.43262 88.6315 528.257
      vertex 3.56738 88.6315 508.257
      vertex 4.43262 88.6315 508.257
    endloop
  endfacet
  facet normal 0.951055 0.309021 0
    outer loop
      vertex 2.86738 86.4771 528.257
      vertex 2.6 87.3 508.257
      vertex 2.6 87.3 528.257
    endloop
  endfacet
  facet normal 0.951055 0.309021 0
    outer loop
      vertex 2.6 87.3 508.257
      vertex 2.86738 86.4771 528.257
      vertex 2.86738 86.4771 508.257
    endloop
  endfacet
  facet normal -0.951055 0.309021 0
    outer loop
      vertex 5.13262 86.4771 508.257
      vertex 5.4 87.3 528.257
      vertex 5.4 87.3 508.257
    endloop
  endfacet
  facet normal -0.951055 0.309021 0
    outer loop
      vertex 5.4 87.3 528.257
      vertex 5.13262 86.4771 508.257
      vertex 5.13262 86.4771 528.257
    endloop
  endfacet
  facet normal 0.587801 -0.809006 0
    outer loop
      vertex 2.86738 88.1229 508.257
      vertex 3.56738 88.6315 528.257
      vertex 2.86738 88.1229 528.257
    endloop
  endfacet
  facet normal 0.587801 -0.809006 0
    outer loop
      vertex 3.56738 88.6315 528.257
      vertex 2.86738 88.1229 508.257
      vertex 3.56738 88.6315 508.257
    endloop
  endfacet
  facet normal 0 1 -0
    outer loop
      vertex 4.43262 85.9685 508.257
      vertex 3.56738 85.9685 528.257
      vertex 4.43262 85.9685 528.257
    endloop
  endfacet
  facet normal 0 1 0
    outer loop
      vertex 3.56738 85.9685 528.257
      vertex 4.43262 85.9685 508.257
      vertex 3.56738 85.9685 508.257
    endloop
  endfacet
  facet normal 0.951055 -0.309021 0
    outer loop
      vertex 2.6 87.3 528.257
      vertex 2.86738 88.1229 508.257
      vertex 2.86738 88.1229 528.257
    endloop
  endfacet
  facet normal 0.951055 -0.309021 0
    outer loop
      vertex 2.86738 88.1229 508.257
      vertex 2.6 87.3 528.257
      vertex 2.6 87.3 508.257
    endloop
  endfacet
  facet normal -0.587801 0.809006 0
    outer loop
      vertex 5.13262 86.4771 508.257
      vertex 4.43262 85.9685 528.257
      vertex 5.13262 86.4771 528.257
    endloop
  endfacet
  facet normal -0.587801 0.809006 0
    outer loop
      vertex 4.43262 85.9685 528.257
      vertex 5.13262 86.4771 508.257
      vertex 4.43262 85.9685 508.257
    endloop
  endfacet
  facet normal 0.587801 0.809006 -0
    outer loop
      vertex 3.56738 85.9685 508.257
      vertex 2.86738 86.4771 528.257
      vertex 3.56738 85.9685 528.257
    endloop
  endfacet
  facet normal 0.587801 0.809006 0
    outer loop
      vertex 2.86738 86.4771 528.257
      vertex 3.56738 85.9685 508.257
      vertex 2.86738 86.4771 508.257
    endloop
  endfacet
  facet normal 0 0 1
    outer loop
      vertex 5.13262 88.1229 508.257
      vertex 5.13262 86.4771 508.257
      vertex 5.4 87.3 508.257
    endloop
  endfacet
  facet normal 0 0 1
    outer loop
      vertex 4.43262 88.6315 508.257
      vertex 5.13262 86.4771 508.257
      vertex 5.13262 88.1229 508.257
    endloop
  endfacet
  facet normal 0 0 1
    outer loop
      vertex 4.43262 88.6315 508.257
      vertex 4.43262 85.9685 508.257
      vertex 5.13262 86.4771 508.257
    endloop
  endfacet
  facet normal -0 0 1
    outer loop
      vertex 3.56738 88.6315 508.257
      vertex 4.43262 85.9685 508.257
      vertex 4.43262 88.6315 508.257
    endloop
  endfacet
  facet normal 0 0 1
    outer loop
      vertex 3.56738 88.6315 508.257
      vertex 3.56738 85.9685 508.257
      vertex 4.43262 85.9685 508.257
    endloop
  endfacet
  facet normal -0 0 1
    outer loop
      vertex 2.86738 88.1229 508.257
      vertex 3.56738 85.9685 508.257
      vertex 3.56738 88.6315 508.257
    endloop
  endfacet
  facet normal 0 0 1
    outer loop
      vertex 2.86738 88.1229 508.257
      vertex 2.86738 86.4771 508.257
      vertex 3.56738 85.9685 508.257
    endloop
  endfacet
  facet normal 0 -0 1
    outer loop
      vertex 2.86738 86.4771 508.257
      vertex 2.86738 88.1229 508.257
      vertex 2.6 87.3 508.257
    endloop
  endfacet
  facet normal 0 0 -1
    outer loop
      vertex 5.13262 86.4771 528.257
      vertex 5.13262 88.1229 528.257
      vertex 5.4 87.3 528.257
    endloop
  endfacet
  facet normal 0 0 -1
    outer loop
      vertex 4.43262 85.9685 528.257
      vertex 5.13262 88.1229 528.257
      vertex 5.13262 86.4771 528.257
    endloop
  endfacet
  facet normal 0 0 -1
    outer loop
      vertex 4.43262 85.9685 528.257
      vertex 4.43262 88.6315 528.257
      vertex 5.13262 88.1229 528.257
    endloop
  endfacet
  facet normal 0 0 -1
    outer loop
      vertex 3.56738 85.9685 528.257
      vertex 4.43262 88.6315 528.257
      vertex 4.43262 85.9685 528.257
    endloop
  endfacet
  facet normal 0 0 -1
    outer loop
      vertex 3.56738 85.9685 528.257
      vertex 3.56738 88.6315 528.257
      vertex 4.43262 88.6315 528.257
    endloop
  endfacet
  facet normal 0 0 -1
    outer loop
      vertex 2.86738 86.4771 528.257
      vertex 3.56738 88.6315 528.257
      vertex 3.56738 85.9685 528.257
    endloop
  endfacet
  facet normal 0 0 -1
    outer loop
      vertex 2.86738 86.4771 528.257
      vertex 2.86738 88.1229 528.257
      vertex 3.56738 88.6315 528.257
    endloop
  endfacet
  facet normal 0 -0 -1
    outer loop
      vertex 2.86738 88.1229 528.257
      vertex 2.86738 86.4771 528.257
      vertex 2.6 87.3 528.257
    endloop
  endfacet
  facet normal 0.951049 0.309042 0
    outer loop
      vertex 37.5864 93.1771 528.257
      vertex 37.319 94 508.257
      vertex 37.319 94 528.257
    endloop
  endfacet
  facet normal 0.951049 0.309042 0
    outer loop
      vertex 37.319 94 508.257
      vertex 37.5864 93.1771 528.257
      vertex 37.5864 93.1771 508.257
    endloop
  endfacet
  facet normal -0.587801 -0.809006 0
    outer loop
      vertex 39.1516 95.3315 508.257
      vertex 39.8516 94.8229 528.257
      vertex 39.1516 95.3315 528.257
    endloop
  endfacet
  facet normal -0.587801 -0.809006 -0
    outer loop
      vertex 39.8516 94.8229 528.257
      vertex 39.1516 95.3315 508.257
      vertex 39.8516 94.8229 508.257
    endloop
  endfacet
  facet normal -0.951049 -0.309042 0
    outer loop
      vertex 40.119 94 508.257
      vertex 39.8516 94.8229 528.257
      vertex 39.8516 94.8229 508.257
    endloop
  endfacet
  facet normal -0.951049 -0.309042 0
    outer loop
      vertex 39.8516 94.8229 528.257
      vertex 40.119 94 508.257
      vertex 40.119 94 528.257
    endloop
  endfacet
  facet normal 0 -1 0
    outer loop
      vertex 38.2864 95.3315 508.257
      vertex 39.1516 95.3315 528.257
      vertex 38.2864 95.3315 528.257
    endloop
  endfacet
  facet normal 0 -1 -0
    outer loop
      vertex 39.1516 95.3315 528.257
      vertex 38.2864 95.3315 508.257
      vertex 39.1516 95.3315 508.257
    endloop
  endfacet
  facet normal 0.587801 -0.809006 0
    outer loop
      vertex 37.5864 94.8229 508.257
      vertex 38.2864 95.3315 528.257
      vertex 37.5864 94.8229 528.257
    endloop
  endfacet
  facet normal 0.587801 -0.809006 0
    outer loop
      vertex 38.2864 95.3315 528.257
      vertex 37.5864 94.8229 508.257
      vertex 38.2864 95.3315 508.257
    endloop
  endfacet
  facet normal 0 0 -1
    outer loop
      vertex 39.8516 93.1771 528.257
      vertex 39.8516 94.8229 528.257
      vertex 40.119 94 528.257
    endloop
  endfacet
  facet normal 0 0 -1
    outer loop
      vertex 39.1516 92.6685 528.257
      vertex 39.8516 94.8229 528.257
      vertex 39.8516 93.1771 528.257
    endloop
  endfacet
  facet normal 0 0 -1
    outer loop
      vertex 39.1516 92.6685 528.257
      vertex 39.1516 95.3315 528.257
      vertex 39.8516 94.8229 528.257
    endloop
  endfacet
  facet normal 0 0 -1
    outer loop
      vertex 38.2864 92.6685 528.257
      vertex 39.1516 95.3315 528.257
      vertex 39.1516 92.6685 528.257
    endloop
  endfacet
  facet normal 0 0 -1
    outer loop
      vertex 38.2864 92.6685 528.257
      vertex 38.2864 95.3315 528.257
      vertex 39.1516 95.3315 528.257
    endloop
  endfacet
  facet normal 0 0 -1
    outer loop
      vertex 37.5864 93.1771 528.257
      vertex 38.2864 95.3315 528.257
      vertex 38.2864 92.6685 528.257
    endloop
  endfacet
  facet normal 0 0 -1
    outer loop
      vertex 37.5864 93.1771 528.257
      vertex 37.5864 94.8229 528.257
      vertex 38.2864 95.3315 528.257
    endloop
  endfacet
  facet normal 0 -0 -1
    outer loop
      vertex 37.5864 94.8229 528.257
      vertex 37.5864 93.1771 528.257
      vertex 37.319 94 528.257
    endloop
  endfacet
  facet normal -0.951049 0.309042 0
    outer loop
      vertex 39.8516 93.1771 508.257
      vertex 40.119 94 528.257
      vertex 40.119 94 508.257
    endloop
  endfacet
  facet normal -0.951049 0.309042 0
    outer loop
      vertex 40.119 94 528.257
      vertex 39.8516 93.1771 508.257
      vertex 39.8516 93.1771 528.257
    endloop
  endfacet
  facet normal 0.587801 0.809006 -0
    outer loop
      vertex 38.2864 92.6685 508.257
      vertex 37.5864 93.1771 528.257
      vertex 38.2864 92.6685 528.257
    endloop
  endfacet
  facet normal 0.587801 0.809006 0
    outer loop
      vertex 37.5864 93.1771 528.257
      vertex 38.2864 92.6685 508.257
      vertex 37.5864 93.1771 508.257
    endloop
  endfacet
  facet normal 0 1 -0
    outer loop
      vertex 39.1516 92.6685 508.257
      vertex 38.2864 92.6685 528.257
      vertex 39.1516 92.6685 528.257
    endloop
  endfacet
  facet normal 0 1 0
    outer loop
      vertex 38.2864 92.6685 528.257
      vertex 39.1516 92.6685 508.257
      vertex 38.2864 92.6685 508.257
    endloop
  endfacet
  facet normal -0.587801 0.809006 0
    outer loop
      vertex 39.8516 93.1771 508.257
      vertex 39.1516 92.6685 528.257
      vertex 39.8516 93.1771 528.257
    endloop
  endfacet
  facet normal -0.587801 0.809006 0
    outer loop
      vertex 39.1516 92.6685 528.257
      vertex 39.8516 93.1771 508.257
      vertex 39.1516 92.6685 508.257
    endloop
  endfacet
  facet normal 0.951049 -0.309042 0
    outer loop
      vertex 37.319 94 528.257
      vertex 37.5864 94.8229 508.257
      vertex 37.5864 94.8229 528.257
    endloop
  endfacet
  facet normal 0.951049 -0.309042 0
    outer loop
      vertex 37.5864 94.8229 508.257
      vertex 37.319 94 528.257
      vertex 37.319 94 508.257
    endloop
  endfacet
  facet normal 0 0 1
    outer loop
      vertex 39.8516 94.8229 508.257
      vertex 39.8516 93.1771 508.257
      vertex 40.119 94 508.257
    endloop
  endfacet
  facet normal 0 0 1
    outer loop
      vertex 39.1516 95.3315 508.257
      vertex 39.8516 93.1771 508.257
      vertex 39.8516 94.8229 508.257
    endloop
  endfacet
  facet normal 0 0 1
    outer loop
      vertex 39.1516 95.3315 508.257
      vertex 39.1516 92.6685 508.257
      vertex 39.8516 93.1771 508.257
    endloop
  endfacet
  facet normal -0 0 1
    outer loop
      vertex 38.2864 95.3315 508.257
      vertex 39.1516 92.6685 508.257
      vertex 39.1516 95.3315 508.257
    endloop
  endfacet
  facet normal 0 0 1
    outer loop
      vertex 38.2864 95.3315 508.257
      vertex 38.2864 92.6685 508.257
      vertex 39.1516 92.6685 508.257
    endloop
  endfacet
  facet normal -0 0 1
    outer loop
      vertex 37.5864 94.8229 508.257
      vertex 38.2864 92.6685 508.257
      vertex 38.2864 95.3315 508.257
    endloop
  endfacet
  facet normal 0 0 1
    outer loop
      vertex 37.5864 94.8229 508.257
      vertex 37.5864 93.1771 508.257
      vertex 38.2864 92.6685 508.257
    endloop
  endfacet
  facet normal 0 -0 1
    outer loop
      vertex 37.5864 93.1771 508.257
      vertex 37.5864 94.8229 508.257
      vertex 37.319 94 508.257
    endloop
  endfacet
  facet normal 0 -1 0
    outer loop
      vertex 2.63249 0.0999994 528.257
      vertex 3.57331 0.0999994 618
      vertex 0.0005 0.0999994 618
    endloop
  endfacet
  facet normal 0 -1 0
    outer loop
      vertex 5.36751 0.0999994 528.257
      vertex 3.57331 0.0999994 618
      vertex 2.63249 0.0999994 528.257
    endloop
  endfacet
  facet normal 0 -1 0
    outer loop
      vertex 0.0005 0.0999994 618
      vertex 2.63249 0.0999994 508.257
      vertex 2.63249 0.0999994 528.257
    endloop
  endfacet
  facet normal 0 -1 0
    outer loop
      vertex 2.63249 0.0999994 508.257
      vertex 2.63249 0.0999994 355.504
      vertex 5.36751 0.0999994 508.257
    endloop
  endfacet
  facet normal 0 -1 0
    outer loop
      vertex 0.0005 0.0999994 618
      vertex 2.63249 0.0999994 355.504
      vertex 2.63249 0.0999994 508.257
    endloop
  endfacet
  facet normal 0 -1 0
    outer loop
      vertex 0.0005 0.0999994 618
      vertex 2.63249 0.0999994 335.504
      vertex 2.63249 0.0999994 355.504
    endloop
  endfacet
  facet normal 0 -1 0
    outer loop
      vertex 2.63249 0.0999994 335.504
      vertex 2.63249 0.0999994 182.752
      vertex 5.36751 0.0999994 335.504
    endloop
  endfacet
  facet normal 0 -1 0
    outer loop
      vertex 0.0005 0.0999994 618
      vertex 2.63249 0.0999994 182.752
      vertex 2.63249 0.0999994 335.504
    endloop
  endfacet
  facet normal 0 -1 0
    outer loop
      vertex 0.0005 0.0999994 0
      vertex 2.63249 0.0999994 182.752
      vertex 0.0005 0.0999994 618
    endloop
  endfacet
  facet normal 0 -1 0
    outer loop
      vertex 2.63249 0.0999994 162.752
      vertex 8.0005 0.0999994 8.017
      vertex 5.36751 0.0999994 162.752
    endloop
  endfacet
  facet normal 0 -1 -0
    outer loop
      vertex 2.63249 0.0999994 182.752
      vertex 0.0005 0.0999994 0
      vertex 2.63249 0.0999994 162.752
    endloop
  endfacet
  facet normal 0 -1 0
    outer loop
      vertex 0.0005 0.0999994 0
      vertex 8.0005 0.0999994 8.017
      vertex 2.63249 0.0999994 162.752
    endloop
  endfacet
  facet normal 0 -1 0
    outer loop
      vertex 51.6255 0.0999994 0
      vertex 8.0005 0.0999994 8.017
      vertex 0.0005 0.0999994 0
    endloop
  endfacet
  facet normal 0 -1 0
    outer loop
      vertex 8.0005 0.0999994 8.017
      vertex 51.6255 0.0999994 0
      vertex 51.6255 0.0999994 8.017
    endloop
  endfacet
  facet normal 0 -1 0
    outer loop
      vertex 38.0954 0.0999994 676.281
      vertex 51.6255 0.0999994 684.061
      vertex 30.0954 0.0999994 677.066
    endloop
  endfacet
  facet normal 0 -1 -0
    outer loop
      vertex 51.6255 0.0999994 684.061
      vertex 38.0954 0.0999994 676.281
      vertex 51.6255 0.0999994 680.62
    endloop
  endfacet
  facet normal 0 -1 0
    outer loop
      vertex 11.5733 0.0999994 640.251
      vertex 30.0954 0.0999994 677.066
      vertex 3.57331 0.0999994 640.561
    endloop
  endfacet
  facet normal 0 -1 -0
    outer loop
      vertex 30.0954 0.0999994 677.066
      vertex 11.5733 0.0999994 640.251
      vertex 38.0954 0.0999994 676.281
    endloop
  endfacet
  facet normal 0 -1 0
    outer loop
      vertex 8.0005 0.0999994 617.983
      vertex 3.57331 0.0999994 640.561
      vertex 3.57331 0.0999994 618
    endloop
  endfacet
  facet normal 0 -1 0
    outer loop
      vertex 3.57331 0.0999994 640.561
      vertex 8.0005 0.0999994 617.983
      vertex 11.5733 0.0999994 640.251
    endloop
  endfacet
  facet normal 0 -1 -0
    outer loop
      vertex 11.5733 0.0999994 640.251
      vertex 8.0005 0.0999994 617.983
      vertex 11.5733 0.0999994 617.983
    endloop
  endfacet
  facet normal 0 -1 0
    outer loop
      vertex 3.57331 0.0999994 618
      vertex 5.36751 0.0999994 528.257
      vertex 8.0005 0.0999994 617.983
    endloop
  endfacet
  facet normal 0 -1 0
    outer loop
      vertex 5.36751 0.0999994 508.257
      vertex 8.0005 0.0999994 617.983
      vertex 5.36751 0.0999994 528.257
    endloop
  endfacet
  facet normal 0 -1 0
    outer loop
      vertex 5.36751 0.0999994 355.504
      vertex 5.36751 0.0999994 508.257
      vertex 2.63249 0.0999994 355.504
    endloop
  endfacet
  facet normal 0 -1 0
    outer loop
      vertex 5.36751 0.0999994 508.257
      vertex 5.36751 0.0999994 355.504
      vertex 8.0005 0.0999994 617.983
    endloop
  endfacet
  facet normal 0 -1 0
    outer loop
      vertex 5.36751 0.0999994 335.504
      vertex 8.0005 0.0999994 617.983
      vertex 5.36751 0.0999994 355.504
    endloop
  endfacet
  facet normal 0 -1 0
    outer loop
      vertex 5.36751 0.0999994 182.752
      vertex 5.36751 0.0999994 335.504
      vertex 2.63249 0.0999994 182.752
    endloop
  endfacet
  facet normal 0 -1 0
    outer loop
      vertex 5.36751 0.0999994 182.752
      vertex 8.0005 0.0999994 617.983
      vertex 5.36751 0.0999994 335.504
    endloop
  endfacet
  facet normal 0 -1 0
    outer loop
      vertex 8.0005 0.0999994 8.017
      vertex 5.36751 0.0999994 182.752
      vertex 5.36751 0.0999994 162.752
    endloop
  endfacet
  facet normal 0 -1 0
    outer loop
      vertex 5.36751 0.0999994 182.752
      vertex 8.0005 0.0999994 8.017
      vertex 8.0005 0.0999994 617.983
    endloop
  endfacet
endsolid OpenSCAD_Model
