solid OpenSCAD_Model
  facet normal -0.573396 0 0.819278
    outer loop
      vertex 30.0954 95 677.066
      vertex 32.1829 0.0999994 678.527
      vertex 32.1829 95 678.527
    endloop
  endfacet
  facet normal -0.573396 0 0.819278
    outer loop
      vertex 32.1829 0.0999994 678.527
      vertex 30.0954 95 677.066
      vertex 30.0954 0.0999994 677.066
    endloop
  endfacet
  facet normal -0.992544 0 0.121887
    outer loop
      vertex 0.399951 0.0999994 625.632
      vertex 0.710519 95 628.161
      vertex 0.399951 95 625.632
    endloop
  endfacet
  facet normal -0.992544 0 0.121887
    outer loop
      vertex 0.710519 95 628.161
      vertex 0.399951 0.0999994 625.632
      vertex 0.710519 0.0999994 628.161
    endloop
  endfacet
  facet normal -0.358269 0 0.933618
    outer loop
      vertex 45.6593 95 685.693
      vertex 48.0385 0.0999994 686.606
      vertex 48.0385 95 686.606
    endloop
  endfacet
  facet normal -0.358269 0 0.933618
    outer loop
      vertex 48.0385 0.0999994 686.606
      vertex 45.6593 95 685.693
      vertex 45.6593 0.0999994 685.693
    endloop
  endfacet
  facet normal -0.83865 0 0.544671
    outer loop
      vertex 11.0939 0.0999994 656.689
      vertex 12.4818 95 658.826
      vertex 11.0939 95 656.689
    endloop
  endfacet
  facet normal -0.83865 0 0.544671
    outer loop
      vertex 12.4818 95 658.826
      vertex 11.0939 0.0999994 656.689
      vertex 12.4818 0.0999994 658.826
    endloop
  endfacet
  facet normal -0.974369 0 0.224956
    outer loop
      vertex 1.59542 0.0999994 633.179
      vertex 2.16868 95 635.662
      vertex 1.59542 95 633.179
    endloop
  endfacet
  facet normal -0.974369 0 0.224956
    outer loop
      vertex 2.16868 95 635.662
      vertex 1.59542 0.0999994 633.179
      vertex 2.16868 0.0999994 635.662
    endloop
  endfacet
  facet normal -0.656082 0 0.75469
    outer loop
      vertex 24.1564 95 672.256
      vertex 26.0797 0.0999994 673.928
      vertex 26.0797 95 673.928
    endloop
  endfacet
  facet normal -0.656082 0 0.75469
    outer loop
      vertex 26.0797 0.0999994 673.928
      vertex 24.1564 95 672.256
      vertex 24.1564 0.0999994 672.256
    endloop
  endfacet
  facet normal -0.601907 0 0.798566
    outer loop
      vertex 28.0602 95 675.532
      vertex 30.0954 0.0999994 677.066
      vertex 30.0954 95 677.066
    endloop
  endfacet
  facet normal -0.601907 0 0.798566
    outer loop
      vertex 30.0954 0.0999994 677.066
      vertex 28.0602 95 675.532
      vertex 28.0602 0.0999994 675.532
    endloop
  endfacet
  facet normal -0.682013 0 0.73134
    outer loop
      vertex 22.2927 95 670.518
      vertex 24.1564 0.0999994 672.256
      vertex 24.1564 95 672.256
    endloop
  endfacet
  facet normal -0.682013 0 0.73134
    outer loop
      vertex 24.1564 0.0999994 672.256
      vertex 22.2927 95 670.518
      vertex 22.2927 0.0999994 670.518
    endloop
  endfacet
  facet normal -0.956305 0 0.29237
    outer loop
      vertex 2.82825 0.0999994 638.124
      vertex 3.57331 95 640.561
      vertex 2.82825 95 638.124
    endloop
  endfacet
  facet normal -0.956305 0 0.29237
    outer loop
      vertex 3.57331 95 640.561
      vertex 2.82825 0.0999994 638.124
      vertex 3.57331 0.0999994 640.561
    endloop
  endfacet
  facet normal -0.999848 0 0.0174546
    outer loop
      vertex 0.000500855 0.0999994 618.029
      vertex 0.0444757 95 620.548
      vertex 0.000500855 95 618.029
    endloop
  endfacet
  facet normal -0.999848 0 0.0174546
    outer loop
      vertex 0.0444757 95 620.548
      vertex 0.000500855 0.0999994 618.029
      vertex 0.0444757 0.0999994 620.548
    endloop
  endfacet
  facet normal -0.707107 0 0.707107
    outer loop
      vertex 20.4907 95 668.716
      vertex 22.2927 0.0999994 670.518
      vertex 22.2927 95 670.518
    endloop
  endfacet
  facet normal -0.707107 0 0.707107
    outer loop
      vertex 22.2927 0.0999994 670.518
      vertex 20.4907 95 668.716
      vertex 20.4907 0.0999994 668.716
    endloop
  endfacet
  facet normal -0.981619 0 0.190849
    outer loop
      vertex 1.10917 0.0999994 630.678
      vertex 1.59542 95 633.179
      vertex 1.10917 95 630.678
    endloop
  endfacet
  facet normal -0.981619 0 0.190849
    outer loop
      vertex 1.59542 95 633.179
      vertex 1.10917 0.0999994 630.678
      vertex 1.59542 0.0999994 633.179
    endloop
  endfacet
  facet normal -0.965938 0 0.258775
    outer loop
      vertex 2.16868 0.0999994 635.662
      vertex 2.82825 95 638.124
      vertex 2.16868 95 635.662
    endloop
  endfacet
  facet normal -0.965938 0 0.258775
    outer loop
      vertex 2.82825 95 638.124
      vertex 2.16868 0.0999994 635.662
      vertex 2.82825 0.0999994 638.124
    endloop
  endfacet
  facet normal -0.777064 0 0.629422
    outer loop
      vertex 15.4771 0.0999994 662.949
      vertex 17.0809 95 664.929
      vertex 15.4771 95 662.949
    endloop
  endfacet
  facet normal -0.777064 0 0.629422
    outer loop
      vertex 17.0809 95 664.929
      vertex 15.4771 0.0999994 662.949
      vertex 17.0809 0.0999994 664.929
    endloop
  endfacet
  facet normal -0.325688 0 0.945477
    outer loop
      vertex 48.0385 95 686.606
      vertex 50.448 0.0999994 687.436
      vertex 50.448 95 687.436
    endloop
  endfacet
  facet normal -0.325688 0 0.945477
    outer loop
      vertex 50.448 0.0999994 687.436
      vertex 48.0385 95 686.606
      vertex 48.0385 0.0999994 686.606
    endloop
  endfacet
  facet normal -0.515176 0 0.857084
    outer loop
      vertex 34.3201 95 679.915
      vertex 36.5045 0.0999994 681.228
      vertex 36.5045 95 681.228
    endloop
  endfacet
  facet normal -0.515176 0 0.857084
    outer loop
      vertex 36.5045 0.0999994 681.228
      vertex 34.3201 95 679.915
      vertex 34.3201 0.0999994 679.915
    endloop
  endfacet
  facet normal -0.891039 0 0.453927
    outer loop
      vertex 7.38895 0.0999994 650.005
      vertex 8.54588 95 652.276
      vertex 7.38895 95 650.005
    endloop
  endfacet
  facet normal -0.891039 0 0.453927
    outer loop
      vertex 8.54588 95 652.276
      vertex 7.38895 0.0999994 650.005
      vertex 8.54588 0.0999994 652.276
    endloop
  endfacet
  facet normal -0.933576 0 0.358381
    outer loop
      vertex 4.40298 0.0999994 642.971
      vertex 5.31623 95 645.35
      vertex 4.40298 95 642.971
    endloop
  endfacet
  facet normal -0.933576 0 0.358381
    outer loop
      vertex 5.31623 95 645.35
      vertex 4.40298 0.0999994 642.971
      vertex 5.31623 0.0999994 645.35
    endloop
  endfacet
  facet normal -0.422623 0 0.906305
    outer loop
      vertex 41.004 95 683.62
      vertex 43.3136 0.0999994 684.697
      vertex 43.3136 95 684.697
    endloop
  endfacet
  facet normal -0.422623 0 0.906305
    outer loop
      vertex 43.3136 0.0999994 684.697
      vertex 41.004 95 683.62
      vertex 41.004 0.0999994 683.62
    endloop
  endfacet
  facet normal -0.390834 0 0.920461
    outer loop
      vertex 43.3136 95 684.697
      vertex 45.6593 0.0999994 685.693
      vertex 45.6593 95 685.693
    endloop
  endfacet
  facet normal -0.390834 0 0.920461
    outer loop
      vertex 45.6593 0.0999994 685.693
      vertex 43.3136 95 684.697
      vertex 43.3136 0.0999994 684.697
    endloop
  endfacet
  facet normal -0.996196 0 0.0871442
    outer loop
      vertex 0.177847 0.0999994 623.093
      vertex 0.399951 95 625.632
      vertex 0.177847 95 623.093
    endloop
  endfacet
  facet normal -0.996196 0 0.0871442
    outer loop
      vertex 0.399951 95 625.632
      vertex 0.177847 0.0999994 623.093
      vertex 0.399951 0.0999994 625.632
    endloop
  endfacet
  facet normal 0 1 0
    outer loop
      vertex 51.6255 95 687.796
      vertex 48.0385 95 686.606
      vertex 50.448 95 687.436
    endloop
  endfacet
  facet normal 0 1 0
    outer loop
      vertex 51.6255 95 687.796
      vertex 45.6593 95 685.693
      vertex 48.0385 95 686.606
    endloop
  endfacet
  facet normal 0 1 0
    outer loop
      vertex 51.6255 95 687.796
      vertex 43.3136 95 684.697
      vertex 45.6593 95 685.693
    endloop
  endfacet
  facet normal 0 1 0
    outer loop
      vertex 51.6255 95 687.796
      vertex 41.004 95 683.62
      vertex 43.3136 95 684.697
    endloop
  endfacet
  facet normal 0 1 0
    outer loop
      vertex 51.6255 95 687.796
      vertex 38.7334 95 682.463
      vertex 41.004 95 683.62
    endloop
  endfacet
  facet normal 0 1 0
    outer loop
      vertex 51.6255 95 687.796
      vertex 36.5045 95 681.228
      vertex 38.7334 95 682.463
    endloop
  endfacet
  facet normal 0 1 0
    outer loop
      vertex 51.6255 95 687.796
      vertex 34.3201 95 679.915
      vertex 36.5045 95 681.228
    endloop
  endfacet
  facet normal 0 1 0
    outer loop
      vertex 51.6255 95 687.796
      vertex 32.1829 95 678.527
      vertex 34.3201 95 679.915
    endloop
  endfacet
  facet normal 0 1 0
    outer loop
      vertex 51.6255 95 687.796
      vertex 30.0954 95 677.066
      vertex 32.1829 95 678.527
    endloop
  endfacet
  facet normal 0 1 0
    outer loop
      vertex 51.6255 95 687.796
      vertex 28.0602 95 675.532
      vertex 30.0954 95 677.066
    endloop
  endfacet
  facet normal 0 1 0
    outer loop
      vertex 51.6255 95 687.796
      vertex 26.0797 95 673.928
      vertex 28.0602 95 675.532
    endloop
  endfacet
  facet normal 0 1 0
    outer loop
      vertex 51.6255 95 687.796
      vertex 24.1564 95 672.256
      vertex 26.0797 95 673.928
    endloop
  endfacet
  facet normal 0 1 0
    outer loop
      vertex 51.6255 95 687.796
      vertex 22.2927 95 670.518
      vertex 24.1564 95 672.256
    endloop
  endfacet
  facet normal 0 1 0
    outer loop
      vertex 51.6255 95 687.796
      vertex 20.4907 95 668.716
      vertex 22.2927 95 670.518
    endloop
  endfacet
  facet normal 0 1 0
    outer loop
      vertex 51.6255 95 687.796
      vertex 18.7527 95 666.853
      vertex 20.4907 95 668.716
    endloop
  endfacet
  facet normal 0 1 0
    outer loop
      vertex 51.6255 95 687.796
      vertex 17.0809 95 664.929
      vertex 18.7527 95 666.853
    endloop
  endfacet
  facet normal 0 1 0
    outer loop
      vertex 51.6255 95 687.796
      vertex 15.4771 95 662.949
      vertex 17.0809 95 664.929
    endloop
  endfacet
  facet normal 0 1 0
    outer loop
      vertex 51.6255 95 687.796
      vertex 13.9435 95 660.914
      vertex 15.4771 95 662.949
    endloop
  endfacet
  facet normal 0 1 0
    outer loop
      vertex 51.6255 95 687.796
      vertex 12.4818 95 658.826
      vertex 13.9435 95 660.914
    endloop
  endfacet
  facet normal 0 1 0
    outer loop
      vertex 51.6255 95 687.796
      vertex 11.0939 95 656.689
      vertex 12.4818 95 658.826
    endloop
  endfacet
  facet normal 0 1 0
    outer loop
      vertex 51.6255 95 687.796
      vertex 9.78135 95 654.505
      vertex 11.0939 95 656.689
    endloop
  endfacet
  facet normal 0 1 0
    outer loop
      vertex 51.6255 95 687.796
      vertex 8.54588 95 652.276
      vertex 9.78135 95 654.505
    endloop
  endfacet
  facet normal 0 1 0
    outer loop
      vertex 51.6255 95 687.796
      vertex 7.38895 95 650.005
      vertex 8.54588 95 652.276
    endloop
  endfacet
  facet normal 0 1 0
    outer loop
      vertex 51.6255 95 687.796
      vertex 6.31196 95 647.695
      vertex 7.38895 95 650.005
    endloop
  endfacet
  facet normal 0 1 0
    outer loop
      vertex 51.6255 95 687.796
      vertex 5.31623 95 645.35
      vertex 6.31196 95 647.695
    endloop
  endfacet
  facet normal 0 1 0
    outer loop
      vertex 51.6255 95 687.796
      vertex 4.40298 95 642.971
      vertex 5.31623 95 645.35
    endloop
  endfacet
  facet normal 0 1 0
    outer loop
      vertex 51.6255 95 687.796
      vertex 3.57331 95 640.561
      vertex 4.40298 95 642.971
    endloop
  endfacet
  facet normal 0 1 0
    outer loop
      vertex 51.6255 95 687.796
      vertex 2.82825 95 638.124
      vertex 3.57331 95 640.561
    endloop
  endfacet
  facet normal 0 1 0
    outer loop
      vertex 51.6255 95 687.796
      vertex 2.16868 95 635.662
      vertex 2.82825 95 638.124
    endloop
  endfacet
  facet normal 0 1 0
    outer loop
      vertex 51.6255 95 687.796
      vertex 1.59542 95 633.179
      vertex 2.16868 95 635.662
    endloop
  endfacet
  facet normal 0 1 0
    outer loop
      vertex 51.6255 95 687.796
      vertex 1.10917 95 630.678
      vertex 1.59542 95 633.179
    endloop
  endfacet
  facet normal 0 1 0
    outer loop
      vertex 51.6255 95 687.796
      vertex 0.710519 95 628.161
      vertex 1.10917 95 630.678
    endloop
  endfacet
  facet normal 0 1 0
    outer loop
      vertex 51.6255 95 687.796
      vertex 0.399951 95 625.632
      vertex 0.710519 95 628.161
    endloop
  endfacet
  facet normal 0 1 0
    outer loop
      vertex 51.6255 95 687.796
      vertex 0.177847 95 623.093
      vertex 0.399951 95 625.632
    endloop
  endfacet
  facet normal 0 1 0
    outer loop
      vertex 51.6255 95 687.796
      vertex 0.0444757 95 620.548
      vertex 0.177847 95 623.093
    endloop
  endfacet
  facet normal 0 1 0
    outer loop
      vertex 51.6255 95 687.796
      vertex 0.000500855 95 618.029
      vertex 0.0444757 95 620.548
    endloop
  endfacet
  facet normal 0 1 0
    outer loop
      vertex 51.6255 95 687.796
      vertex 0.000500855 95 618
      vertex 0.000500855 95 618.029
    endloop
  endfacet
  facet normal 0 1 -0
    outer loop
      vertex 51.6255 95 548.204
      vertex 0.000500855 95 618
      vertex 51.6255 95 687.796
    endloop
  endfacet
  facet normal 0 1 0
    outer loop
      vertex 51.6255 95 548.204
      vertex 0.0005 95 618
      vertex 0.000500855 95 618
    endloop
  endfacet
  facet normal 0 1 0
    outer loop
      vertex 0.0005 95 0
      vertex 51.6255 95 548.204
      vertex 51.6255 95 0
    endloop
  endfacet
  facet normal 0 1 0
    outer loop
      vertex 51.6255 95 548.204
      vertex 0.0005 95 0
      vertex 0.0005 95 618
    endloop
  endfacet
  facet normal -0.906335 0 0.42256
    outer loop
      vertex 6.31196 0.0999994 647.695
      vertex 7.38895 95 650.005
      vertex 6.31196 95 647.695
    endloop
  endfacet
  facet normal -0.906335 0 0.42256
    outer loop
      vertex 7.38895 95 650.005
      vertex 6.31196 0.0999994 647.695
      vertex 7.38895 0.0999994 650.005
    endloop
  endfacet
  facet normal -0.454013 0 0.890995
    outer loop
      vertex 38.7334 95 682.463
      vertex 41.004 0.0999994 683.62
      vertex 41.004 95 683.62
    endloop
  endfacet
  facet normal -0.454013 0 0.890995
    outer loop
      vertex 41.004 0.0999994 683.62
      vertex 38.7334 95 682.463
      vertex 38.7334 0.0999994 682.463
    endloop
  endfacet
  facet normal -0.945538 0 0.325512
    outer loop
      vertex 3.57331 0.0999994 640.561
      vertex 4.40298 95 642.971
      vertex 3.57331 95 640.561
    endloop
  endfacet
  facet normal -0.945538 0 0.325512
    outer loop
      vertex 4.40298 95 642.971
      vertex 3.57331 0.0999994 640.561
      vertex 4.40298 0.0999994 642.971
    endloop
  endfacet
  facet normal -0.544663 0 0.838655
    outer loop
      vertex 32.1829 95 678.527
      vertex 34.3201 0.0999994 679.915
      vertex 34.3201 95 679.915
    endloop
  endfacet
  facet normal -0.544663 0 0.838655
    outer loop
      vertex 34.3201 0.0999994 679.915
      vertex 32.1829 95 678.527
      vertex 32.1829 0.0999994 678.527
    endloop
  endfacet
  facet normal -0.731212 0 0.68215
    outer loop
      vertex 18.7527 0.0999994 666.853
      vertex 20.4907 95 668.716
      vertex 18.7527 95 666.853
    endloop
  endfacet
  facet normal -0.731212 0 0.68215
    outer loop
      vertex 20.4907 95 668.716
      vertex 18.7527 0.0999994 666.853
      vertex 20.4907 0.0999994 668.716
    endloop
  endfacet
  facet normal -0.819213 0 0.573489
    outer loop
      vertex 12.4818 0.0999994 658.826
      vertex 13.9435 95 660.914
      vertex 12.4818 95 658.826
    endloop
  endfacet
  facet normal -0.819213 0 0.573489
    outer loop
      vertex 13.9435 95 660.914
      vertex 12.4818 0.0999994 658.826
      vertex 13.9435 0.0999994 660.914
    endloop
  endfacet
  facet normal -0.99863 0 0.0523334
    outer loop
      vertex 0.0444757 0.0999994 620.548
      vertex 0.177847 95 623.093
      vertex 0.0444757 95 620.548
    endloop
  endfacet
  facet normal -0.99863 0 0.0523334
    outer loop
      vertex 0.177847 95 623.093
      vertex 0.0444757 0.0999994 620.548
      vertex 0.177847 0.0999994 623.093
    endloop
  endfacet
  facet normal -0.987689 0 0.156433
    outer loop
      vertex 0.710519 0.0999994 628.161
      vertex 1.10917 95 630.678
      vertex 0.710519 95 628.161
    endloop
  endfacet
  facet normal -0.987689 0 0.156433
    outer loop
      vertex 1.10917 95 630.678
      vertex 0.710519 0.0999994 628.161
      vertex 1.10917 0.0999994 630.678
    endloop
  endfacet
  facet normal -0.754847 0 0.655901
    outer loop
      vertex 17.0809 0.0999994 664.929
      vertex 18.7527 95 666.853
      vertex 17.0809 95 664.929
    endloop
  endfacet
  facet normal -0.754847 0 0.655901
    outer loop
      vertex 18.7527 95 666.853
      vertex 17.0809 0.0999994 664.929
      vertex 18.7527 0.0999994 666.853
    endloop
  endfacet
  facet normal -0.292373 0 0.956304
    outer loop
      vertex 50.448 95 687.436
      vertex 51.6255 0.0999994 687.796
      vertex 51.6255 95 687.796
    endloop
  endfacet
  facet normal -0.292373 0 0.956304
    outer loop
      vertex 51.6255 0.0999994 687.796
      vertex 50.448 95 687.436
      vertex 50.448 0.0999994 687.436
    endloop
  endfacet
  facet normal -0.920457 0 0.390843
    outer loop
      vertex 5.31623 0.0999994 645.35
      vertex 6.31196 95 647.695
      vertex 5.31623 95 645.35
    endloop
  endfacet
  facet normal -0.920457 0 0.390843
    outer loop
      vertex 6.31196 95 647.695
      vertex 5.31623 0.0999994 645.35
      vertex 6.31196 0.0999994 647.695
    endloop
  endfacet
  facet normal -0.798613 0 0.601844
    outer loop
      vertex 13.9435 0.0999994 660.914
      vertex 15.4771 95 662.949
      vertex 13.9435 95 660.914
    endloop
  endfacet
  facet normal -0.798613 0 0.601844
    outer loop
      vertex 15.4771 95 662.949
      vertex 13.9435 0.0999994 660.914
      vertex 15.4771 0.0999994 662.949
    endloop
  endfacet
  facet normal -0.629373 0 0.777103
    outer loop
      vertex 26.0797 95 673.928
      vertex 28.0602 0.0999994 675.532
      vertex 28.0602 95 675.532
    endloop
  endfacet
  facet normal -0.629373 0 0.777103
    outer loop
      vertex 28.0602 0.0999994 675.532
      vertex 26.0797 95 673.928
      vertex 26.0797 0.0999994 673.928
    endloop
  endfacet
  facet normal -0.48466 0 0.874703
    outer loop
      vertex 36.5045 95 681.228
      vertex 38.7334 0.0999994 682.463
      vertex 38.7334 95 682.463
    endloop
  endfacet
  facet normal -0.48466 0 0.874703
    outer loop
      vertex 38.7334 0.0999994 682.463
      vertex 36.5045 95 681.228
      vertex 36.5045 0.0999994 681.228
    endloop
  endfacet
  facet normal -0.85712 0 0.515116
    outer loop
      vertex 9.78135 0.0999994 654.505
      vertex 11.0939 95 656.689
      vertex 9.78135 95 654.505
    endloop
  endfacet
  facet normal -0.85712 0 0.515116
    outer loop
      vertex 11.0939 95 656.689
      vertex 9.78135 0.0999994 654.505
      vertex 11.0939 0.0999994 656.689
    endloop
  endfacet
  facet normal -0.874634 0 0.484784
    outer loop
      vertex 8.54588 0.0999994 652.276
      vertex 9.78135 95 654.505
      vertex 8.54588 95 652.276
    endloop
  endfacet
  facet normal -0.874634 0 0.484784
    outer loop
      vertex 9.78135 95 654.505
      vertex 8.54588 0.0999994 652.276
      vertex 9.78135 0.0999994 654.505
    endloop
  endfacet
  facet normal 1 0 0
    outer loop
      vertex 51.6255 95 687.796
      vertex 51.6255 91.01 683.944
      vertex 51.6255 95 548.204
    endloop
  endfacet
  facet normal 1 -0 0
    outer loop
      vertex 51.6255 0.0999994 687.796
      vertex 51.6255 91.01 683.944
      vertex 51.6255 95 687.796
    endloop
  endfacet
  facet normal 1 0 0
    outer loop
      vertex 51.6255 91.01 683.944
      vertex 51.6255 0.0999994 687.796
      vertex 51.6255 0.0999994 683.944
    endloop
  endfacet
  facet normal 1 0 0
    outer loop
      vertex 51.6255 95 548.204
      vertex 51.6255 91.01 683.944
      vertex 51.6255 91.01 548.204
    endloop
  endfacet
  facet normal -1 0 0
    outer loop
      vertex 0.000500855 0.0999994 618
      vertex 0.000500855 95 618.029
      vertex 0.000500855 95 618
    endloop
  endfacet
  facet normal -1 -0 0
    outer loop
      vertex 0.000500855 95 618.029
      vertex 0.000500855 0.0999994 618
      vertex 0.000500855 0.0999994 618.029
    endloop
  endfacet
  facet normal 0 0 -1
    outer loop
      vertex 0.0005 0.0999994 0
      vertex 51.6255 95 0
      vertex 51.6255 0.0999994 0
    endloop
  endfacet
  facet normal -0 0 -1
    outer loop
      vertex 51.6255 95 0
      vertex 0.0005 0.0999994 0
      vertex 0.0005 95 0
    endloop
  endfacet
  facet normal 1 0 0
    outer loop
      vertex 51.6255 91.01 8.017
      vertex 51.6255 95 548.204
      vertex 51.6255 91.01 548.204
    endloop
  endfacet
  facet normal 1 0 0
    outer loop
      vertex 51.6255 95 548.204
      vertex 51.6255 91.01 8.017
      vertex 51.6255 95 0
    endloop
  endfacet
  facet normal 1 0 0
    outer loop
      vertex 51.6255 0.0999994 0
      vertex 51.6255 91.01 8.017
      vertex 51.6255 0.0999994 8.017
    endloop
  endfacet
  facet normal 1 0 0
    outer loop
      vertex 51.6255 91.01 8.017
      vertex 51.6255 0.0999994 0
      vertex 51.6255 95 0
    endloop
  endfacet
  facet normal -1 0 0
    outer loop
      vertex 0.0005 0.0999994 0
      vertex 0.0005 95 618
      vertex 0.0005 95 0
    endloop
  endfacet
  facet normal -1 -0 0
    outer loop
      vertex 0.0005 95 618
      vertex 0.0005 0.0999994 0
      vertex 0.0005 0.0999994 618
    endloop
  endfacet
  facet normal -0 0 1
    outer loop
      vertex 0.0005 95 618
      vertex 0.000500855 0.0999994 618
      vertex 0.000500855 95 618
    endloop
  endfacet
  facet normal 0 0 1
    outer loop
      vertex 0.000500855 0.0999994 618
      vertex 0.0005 95 618
      vertex 0.0005 0.0999994 618
    endloop
  endfacet
  facet normal 0.568359 0 -0.822781
    outer loop
      vertex 38.0954 0.0999994 676.281
      vertex 40.1829 91.01 677.723
      vertex 40.1829 0.0999994 677.723
    endloop
  endfacet
  facet normal 0.568359 0 -0.822781
    outer loop
      vertex 40.1829 91.01 677.723
      vertex 38.0954 0.0999994 676.281
      vertex 38.0954 91.01 676.281
    endloop
  endfacet
  facet normal 0.992354 0 -0.123426
    outer loop
      vertex 8.71052 0.0999994 628.012
      vertex 8.39995 91.01 625.515
      vertex 8.71052 91.01 628.012
    endloop
  endfacet
  facet normal 0.992354 0 -0.123426
    outer loop
      vertex 8.39995 91.01 625.515
      vertex 8.71052 0.0999994 628.012
      vertex 8.39995 0.0999994 625.515
    endloop
  endfacet
  facet normal 0.835344 0 -0.549727
    outer loop
      vertex 20.4818 0.0999994 658.278
      vertex 19.0939 91.01 656.169
      vertex 20.4818 91.01 658.278
    endloop
  endfacet
  facet normal 0.835344 0 -0.549727
    outer loop
      vertex 19.0939 91.01 656.169
      vertex 20.4818 0.0999994 658.278
      vertex 19.0939 0.0999994 656.169
    endloop
  endfacet
  facet normal 0.97372 0 -0.22775
    outer loop
      vertex 10.1687 0.0999994 635.416
      vertex 9.59542 91.01 632.965
      vertex 10.1687 91.01 635.416
    endloop
  endfacet
  facet normal 0.97372 0 -0.22775
    outer loop
      vertex 9.59542 91.01 632.965
      vertex 10.1687 0.0999994 635.416
      vertex 9.59542 0.0999994 632.965
    endloop
  endfacet
  facet normal 0.651123 0 -0.758972
    outer loop
      vertex 32.1564 0.0999994 671.534
      vertex 34.0797 91.01 673.184
      vertex 34.0797 0.0999994 673.184
    endloop
  endfacet
  facet normal 0.651123 0 -0.758972
    outer loop
      vertex 34.0797 91.01 673.184
      vertex 32.1564 0.0999994 671.534
      vertex 32.1564 91.01 671.534
    endloop
  endfacet
  facet normal 0.596867 0 -0.80234
    outer loop
      vertex 36.0602 0.0999994 674.767
      vertex 38.0954 91.01 676.281
      vertex 38.0954 0.0999994 676.281
    endloop
  endfacet
  facet normal 0.596867 0 -0.80234
    outer loop
      vertex 38.0954 91.01 676.281
      vertex 36.0602 0.0999994 674.767
      vertex 36.0602 91.01 674.767
    endloop
  endfacet
  facet normal 0.677141 0 -0.735853
    outer loop
      vertex 30.2927 0.0999994 669.819
      vertex 32.1564 91.01 671.534
      vertex 32.1564 0.0999994 671.534
    endloop
  endfacet
  facet normal 0.677141 0 -0.735853
    outer loop
      vertex 32.1564 91.01 671.534
      vertex 30.2927 0.0999994 669.819
      vertex 30.2927 91.01 669.819
    endloop
  endfacet
  facet normal 0.955243 0 -0.295823
    outer loop
      vertex 11.5733 0.0999994 640.251
      vertex 10.8282 91.01 637.845
      vertex 11.5733 91.01 640.251
    endloop
  endfacet
  facet normal 0.955243 0 -0.295823
    outer loop
      vertex 10.8282 91.01 637.845
      vertex 11.5733 0.0999994 640.251
      vertex 10.8282 0.0999994 637.845
    endloop
  endfacet
  facet normal 0.999844 0 -0.0176812
    outer loop
      vertex 8.04448 0.0999994 620.498
      vertex 8.0005 91.01 618.011
      vertex 8.04448 91.01 620.498
    endloop
  endfacet
  facet normal 0.999844 0 -0.0176812
    outer loop
      vertex 8.0005 91.01 618.011
      vertex 8.04448 0.0999994 620.498
      vertex 8.0005 0.0999994 618.011
    endloop
  endfacet
  facet normal 0.702551 0 -0.711634
    outer loop
      vertex 28.4907 0.0999994 668.04
      vertex 30.2927 91.01 669.819
      vertex 30.2927 0.0999994 669.819
    endloop
  endfacet
  facet normal 0.702551 0 -0.711634
    outer loop
      vertex 30.2927 91.01 669.819
      vertex 28.4907 0.0999994 668.04
      vertex 28.4907 91.01 668.04
    endloop
  endfacet
  facet normal 0.981153 0 -0.19323
    outer loop
      vertex 9.59542 0.0999994 632.965
      vertex 9.10917 91.01 630.496
      vertex 9.59542 91.01 632.965
    endloop
  endfacet
  facet normal 0.981153 0 -0.19323
    outer loop
      vertex 9.10917 91.01 630.496
      vertex 9.59542 0.0999994 632.965
      vertex 9.10917 0.0999994 630.496
    endloop
  endfacet
  facet normal 0.965061 0 -0.262025
    outer loop
      vertex 10.8282 0.0999994 637.845
      vertex 10.1687 91.01 635.416
      vertex 10.8282 91.01 637.845
    endloop
  endfacet
  facet normal 0.965061 0 -0.262025
    outer loop
      vertex 10.1687 91.01 635.416
      vertex 10.8282 0.0999994 637.845
      vertex 10.1687 0.0999994 635.416
    endloop
  endfacet
  facet normal 0.773132 0 -0.634245
    outer loop
      vertex 25.0809 0.0999994 664.302
      vertex 23.4771 91.01 662.347
      vertex 25.0809 91.01 664.302
    endloop
  endfacet
  facet normal 0.773132 0 -0.634245
    outer loop
      vertex 23.4771 91.01 662.347
      vertex 25.0809 0.0999994 664.302
      vertex 23.4771 0.0999994 662.347
    endloop
  endfacet
  facet normal 0.510251 0 -0.860025
    outer loop
      vertex 42.3201 0.0999994 679.093
      vertex 44.5045 91.01 680.389
      vertex 44.5045 0.0999994 680.389
    endloop
  endfacet
  facet normal 0.510251 0 -0.860025
    outer loop
      vertex 44.5045 91.01 680.389
      vertex 42.3201 0.0999994 679.093
      vertex 42.3201 91.01 679.093
    endloop
  endfacet
  facet normal 0.888563 0 -0.458754
    outer loop
      vertex 16.5459 0.0999994 651.813
      vertex 15.3889 91.01 649.572
      vertex 16.5459 91.01 651.813
    endloop
  endfacet
  facet normal 0.888563 0 -0.458754
    outer loop
      vertex 15.3889 91.01 649.572
      vertex 16.5459 0.0999994 651.813
      vertex 15.3889 0.0999994 649.572
    endloop
  endfacet
  facet normal 0.931993 0 -0.362477
    outer loop
      vertex 13.3162 0.0999994 644.977
      vertex 12.403 91.01 642.629
      vertex 13.3162 91.01 644.977
    endloop
  endfacet
  facet normal 0.931993 0 -0.362477
    outer loop
      vertex 12.403 91.01 642.629
      vertex 13.3162 0.0999994 644.977
      vertex 12.403 0.0999994 642.629
    endloop
  endfacet
  facet normal 0.418095 0 -0.908403
    outer loop
      vertex 49.004 0.0999994 682.75
      vertex 51.3136 91.01 683.813
      vertex 51.3136 0.0999994 683.813
    endloop
  endfacet
  facet normal 0.418095 0 -0.908403
    outer loop
      vertex 51.3136 91.01 683.813
      vertex 49.004 0.0999994 682.75
      vertex 49.004 91.01 682.75
    endloop
  endfacet
  facet normal 0.387238 0 -0.92198
    outer loop
      vertex 51.3136 0.0999994 683.813
      vertex 51.6255 91.01 683.944
      vertex 51.6255 0.0999994 683.944
    endloop
  endfacet
  facet normal 0.387238 0 -0.92198
    outer loop
      vertex 51.6255 91.01 683.944
      vertex 51.3136 0.0999994 683.813
      vertex 51.3136 91.01 683.813
    endloop
  endfacet
  facet normal 0.996092 0 -0.0883162
    outer loop
      vertex 8.39995 0.0999994 625.515
      vertex 8.17785 91.01 623.01
      vertex 8.39995 91.01 625.515
    endloop
  endfacet
  facet normal 0.996092 0 -0.0883162
    outer loop
      vertex 8.17785 91.01 623.01
      vertex 8.39995 0.0999994 625.515
      vertex 8.17785 0.0999994 623.01
    endloop
  endfacet
  facet normal 0 -1 0
    outer loop
      vertex 8.0005 91.01 8.017
      vertex 51.6255 91.01 548.204
      vertex 8.0005 91.01 617.983
    endloop
  endfacet
  facet normal 0 -1 -0
    outer loop
      vertex 51.6255 91.01 548.204
      vertex 8.0005 91.01 8.017
      vertex 51.6255 91.01 8.017
    endloop
  endfacet
  facet normal 0 -1 0
    outer loop
      vertex 49.004 91.01 682.75
      vertex 51.6255 91.01 683.944
      vertex 51.3136 91.01 683.813
    endloop
  endfacet
  facet normal 0 -1 0
    outer loop
      vertex 46.7334 91.01 681.608
      vertex 51.6255 91.01 683.944
      vertex 49.004 91.01 682.75
    endloop
  endfacet
  facet normal 0 -1 0
    outer loop
      vertex 44.5045 91.01 680.389
      vertex 51.6255 91.01 683.944
      vertex 46.7334 91.01 681.608
    endloop
  endfacet
  facet normal 0 -1 0
    outer loop
      vertex 42.3201 91.01 679.093
      vertex 51.6255 91.01 683.944
      vertex 44.5045 91.01 680.389
    endloop
  endfacet
  facet normal 0 -1 0
    outer loop
      vertex 40.1829 91.01 677.723
      vertex 51.6255 91.01 683.944
      vertex 42.3201 91.01 679.093
    endloop
  endfacet
  facet normal 0 -1 0
    outer loop
      vertex 38.0954 91.01 676.281
      vertex 51.6255 91.01 683.944
      vertex 40.1829 91.01 677.723
    endloop
  endfacet
  facet normal 0 -1 0
    outer loop
      vertex 36.0602 91.01 674.767
      vertex 51.6255 91.01 683.944
      vertex 38.0954 91.01 676.281
    endloop
  endfacet
  facet normal 0 -1 0
    outer loop
      vertex 34.0797 91.01 673.184
      vertex 51.6255 91.01 683.944
      vertex 36.0602 91.01 674.767
    endloop
  endfacet
  facet normal 0 -1 0
    outer loop
      vertex 32.1564 91.01 671.534
      vertex 51.6255 91.01 683.944
      vertex 34.0797 91.01 673.184
    endloop
  endfacet
  facet normal 0 -1 0
    outer loop
      vertex 30.2927 91.01 669.819
      vertex 51.6255 91.01 683.944
      vertex 32.1564 91.01 671.534
    endloop
  endfacet
  facet normal 0 -1 0
    outer loop
      vertex 28.4907 91.01 668.04
      vertex 51.6255 91.01 683.944
      vertex 30.2927 91.01 669.819
    endloop
  endfacet
  facet normal 0 -1 0
    outer loop
      vertex 26.7527 91.01 666.201
      vertex 51.6255 91.01 683.944
      vertex 28.4907 91.01 668.04
    endloop
  endfacet
  facet normal 0 -1 0
    outer loop
      vertex 25.0809 91.01 664.302
      vertex 51.6255 91.01 683.944
      vertex 26.7527 91.01 666.201
    endloop
  endfacet
  facet normal 0 -1 0
    outer loop
      vertex 23.4771 91.01 662.347
      vertex 51.6255 91.01 683.944
      vertex 25.0809 91.01 664.302
    endloop
  endfacet
  facet normal 0 -1 0
    outer loop
      vertex 21.9435 91.01 660.339
      vertex 51.6255 91.01 683.944
      vertex 23.4771 91.01 662.347
    endloop
  endfacet
  facet normal 0 -1 0
    outer loop
      vertex 20.4818 91.01 658.278
      vertex 51.6255 91.01 683.944
      vertex 21.9435 91.01 660.339
    endloop
  endfacet
  facet normal 0 -1 0
    outer loop
      vertex 19.0939 91.01 656.169
      vertex 51.6255 91.01 683.944
      vertex 20.4818 91.01 658.278
    endloop
  endfacet
  facet normal 0 -1 0
    outer loop
      vertex 17.7814 91.01 654.013
      vertex 51.6255 91.01 683.944
      vertex 19.0939 91.01 656.169
    endloop
  endfacet
  facet normal 0 -1 0
    outer loop
      vertex 16.5459 91.01 651.813
      vertex 51.6255 91.01 683.944
      vertex 17.7814 91.01 654.013
    endloop
  endfacet
  facet normal 0 -1 0
    outer loop
      vertex 15.3889 91.01 649.572
      vertex 51.6255 91.01 683.944
      vertex 16.5459 91.01 651.813
    endloop
  endfacet
  facet normal 0 -1 0
    outer loop
      vertex 14.312 91.01 647.292
      vertex 51.6255 91.01 683.944
      vertex 15.3889 91.01 649.572
    endloop
  endfacet
  facet normal 0 -1 0
    outer loop
      vertex 13.3162 91.01 644.977
      vertex 51.6255 91.01 683.944
      vertex 14.312 91.01 647.292
    endloop
  endfacet
  facet normal 0 -1 0
    outer loop
      vertex 12.403 91.01 642.629
      vertex 51.6255 91.01 683.944
      vertex 13.3162 91.01 644.977
    endloop
  endfacet
  facet normal 0 -1 0
    outer loop
      vertex 11.5733 91.01 640.251
      vertex 51.6255 91.01 683.944
      vertex 12.403 91.01 642.629
    endloop
  endfacet
  facet normal 0 -1 0
    outer loop
      vertex 10.8282 91.01 637.845
      vertex 51.6255 91.01 683.944
      vertex 11.5733 91.01 640.251
    endloop
  endfacet
  facet normal 0 -1 0
    outer loop
      vertex 10.1687 91.01 635.416
      vertex 51.6255 91.01 683.944
      vertex 10.8282 91.01 637.845
    endloop
  endfacet
  facet normal 0 -1 0
    outer loop
      vertex 9.59542 91.01 632.965
      vertex 51.6255 91.01 683.944
      vertex 10.1687 91.01 635.416
    endloop
  endfacet
  facet normal 0 -1 0
    outer loop
      vertex 9.10917 91.01 630.496
      vertex 51.6255 91.01 683.944
      vertex 9.59542 91.01 632.965
    endloop
  endfacet
  facet normal 0 -1 0
    outer loop
      vertex 8.71052 91.01 628.012
      vertex 51.6255 91.01 683.944
      vertex 9.10917 91.01 630.496
    endloop
  endfacet
  facet normal 0 -1 0
    outer loop
      vertex 8.39995 91.01 625.515
      vertex 51.6255 91.01 683.944
      vertex 8.71052 91.01 628.012
    endloop
  endfacet
  facet normal 0 -1 0
    outer loop
      vertex 8.17785 91.01 623.01
      vertex 51.6255 91.01 683.944
      vertex 8.39995 91.01 625.515
    endloop
  endfacet
  facet normal 0 -1 0
    outer loop
      vertex 8.04448 91.01 620.498
      vertex 51.6255 91.01 683.944
      vertex 8.17785 91.01 623.01
    endloop
  endfacet
  facet normal 0 -1 0
    outer loop
      vertex 8.0005 91.01 618.011
      vertex 51.6255 91.01 683.944
      vertex 8.04448 91.01 620.498
    endloop
  endfacet
  facet normal 0 -1 0
    outer loop
      vertex 8.0005 91.01 617.983
      vertex 51.6255 91.01 683.944
      vertex 8.0005 91.01 618.011
    endloop
  endfacet
  facet normal 0 -1 -0
    outer loop
      vertex 51.6255 91.01 683.944
      vertex 8.0005 91.01 617.983
      vertex 51.6255 91.01 548.204
    endloop
  endfacet
  facet normal 0.904213 0 -0.427082
    outer loop
      vertex 15.3889 0.0999994 649.572
      vertex 14.312 91.01 647.292
      vertex 15.3889 91.01 649.572
    endloop
  endfacet
  facet normal 0.904213 0 -0.427082
    outer loop
      vertex 14.312 91.01 647.292
      vertex 15.3889 0.0999994 649.572
      vertex 14.312 0.0999994 647.292
    endloop
  endfacet
  facet normal 0.449321 0 -0.89337
    outer loop
      vertex 46.7334 0.0999994 681.608
      vertex 49.004 91.01 682.75
      vertex 49.004 0.0999994 682.75
    endloop
  endfacet
  facet normal 0.449321 0 -0.89337
    outer loop
      vertex 49.004 91.01 682.75
      vertex 46.7334 0.0999994 681.608
      vertex 46.7334 91.01 681.608
    endloop
  endfacet
  facet normal 0.94418 0 -0.329431
    outer loop
      vertex 12.403 0.0999994 642.629
      vertex 11.5733 91.01 640.251
      vertex 12.403 91.01 642.629
    endloop
  endfacet
  facet normal 0.94418 0 -0.329431
    outer loop
      vertex 11.5733 91.01 640.251
      vertex 12.403 0.0999994 642.629
      vertex 11.5733 0.0999994 640.251
    endloop
  endfacet
  facet normal 0.539666 0 -0.841879
    outer loop
      vertex 40.1829 0.0999994 677.723
      vertex 42.3201 91.01 679.093
      vertex 42.3201 0.0999994 679.093
    endloop
  endfacet
  facet normal 0.539666 0 -0.841879
    outer loop
      vertex 42.3201 91.01 679.093
      vertex 40.1829 0.0999994 677.723
      vertex 40.1829 91.01 677.723
    endloop
  endfacet
  facet normal 0.726783 0 -0.686867
    outer loop
      vertex 28.4907 0.0999994 668.04
      vertex 26.7527 91.01 666.201
      vertex 28.4907 91.01 668.04
    endloop
  endfacet
  facet normal 0.726783 0 -0.686867
    outer loop
      vertex 26.7527 91.01 666.201
      vertex 28.4907 0.0999994 668.04
      vertex 26.7527 0.0999994 666.201
    endloop
  endfacet
  facet normal 0.815684 0 -0.578498
    outer loop
      vertex 21.9435 0.0999994 660.339
      vertex 20.4818 91.01 658.278
      vertex 21.9435 91.01 660.339
    endloop
  endfacet
  facet normal 0.815684 0 -0.578498
    outer loop
      vertex 20.4818 91.01 658.278
      vertex 21.9435 0.0999994 660.339
      vertex 20.4818 0.0999994 658.278
    endloop
  endfacet
  facet normal 0.998594 0 -0.0530185
    outer loop
      vertex 8.17785 0.0999994 623.01
      vertex 8.04448 91.01 620.498
      vertex 8.17785 91.01 623.01
    endloop
  endfacet
  facet normal 0.998594 0 -0.0530185
    outer loop
      vertex 8.04448 91.01 620.498
      vertex 8.17785 0.0999994 623.01
      vertex 8.04448 0.0999994 620.498
    endloop
  endfacet
  facet normal 0.987365 0 -0.158459
    outer loop
      vertex 9.10917 0.0999994 630.496
      vertex 8.71052 91.01 628.012
      vertex 9.10917 91.01 630.496
    endloop
  endfacet
  facet normal 0.987365 0 -0.158459
    outer loop
      vertex 8.71052 91.01 628.012
      vertex 9.10917 0.0999994 630.496
      vertex 8.71052 0.0999994 628.012
    endloop
  endfacet
  facet normal 0.75058 0 -0.660779
    outer loop
      vertex 26.7527 0.0999994 666.201
      vertex 25.0809 91.01 664.302
      vertex 26.7527 91.01 666.201
    endloop
  endfacet
  facet normal 0.75058 0 -0.660779
    outer loop
      vertex 25.0809 91.01 664.302
      vertex 26.7527 0.0999994 666.201
      vertex 25.0809 0.0999994 664.302
    endloop
  endfacet
  facet normal 0.918619 0 -0.395145
    outer loop
      vertex 14.312 0.0999994 647.292
      vertex 13.3162 91.01 644.977
      vertex 14.312 91.01 647.292
    endloop
  endfacet
  facet normal 0.918619 0 -0.395145
    outer loop
      vertex 13.3162 91.01 644.977
      vertex 14.312 0.0999994 647.292
      vertex 13.3162 0.0999994 644.977
    endloop
  endfacet
  facet normal 0.794726 0 -0.606968
    outer loop
      vertex 23.4771 0.0999994 662.347
      vertex 21.9435 91.01 660.339
      vertex 23.4771 91.01 662.347
    endloop
  endfacet
  facet normal 0.794726 0 -0.606968
    outer loop
      vertex 21.9435 91.01 660.339
      vertex 23.4771 0.0999994 662.347
      vertex 21.9435 0.0999994 660.339
    endloop
  endfacet
  facet normal 0.624358 0 -0.781138
    outer loop
      vertex 34.0797 0.0999994 673.184
      vertex 36.0602 91.01 674.767
      vertex 36.0602 0.0999994 674.767
    endloop
  endfacet
  facet normal 0.624358 0 -0.781138
    outer loop
      vertex 36.0602 91.01 674.767
      vertex 34.0797 0.0999994 673.184
      vertex 34.0797 91.01 673.184
    endloop
  endfacet
  facet normal 0.479834 0 -0.877359
    outer loop
      vertex 44.5045 0.0999994 680.389
      vertex 46.7334 91.01 681.608
      vertex 46.7334 0.0999994 681.608
    endloop
  endfacet
  facet normal 0.479834 0 -0.877359
    outer loop
      vertex 46.7334 91.01 681.608
      vertex 44.5045 0.0999994 680.389
      vertex 44.5045 91.01 680.389
    endloop
  endfacet
  facet normal 0.854172 0 -0.519991
    outer loop
      vertex 19.0939 0.0999994 656.169
      vertex 17.7814 91.01 654.013
      vertex 19.0939 91.01 656.169
    endloop
  endfacet
  facet normal 0.854172 0 -0.519991
    outer loop
      vertex 17.7814 91.01 654.013
      vertex 19.0939 0.0999994 656.169
      vertex 17.7814 0.0999994 654.013
    endloop
  endfacet
  facet normal 0.871914 0 -0.489659
    outer loop
      vertex 17.7814 0.0999994 654.013
      vertex 16.5459 91.01 651.813
      vertex 17.7814 91.01 654.013
    endloop
  endfacet
  facet normal 0.871914 0 -0.489659
    outer loop
      vertex 16.5459 91.01 651.813
      vertex 17.7814 0.0999994 654.013
      vertex 16.5459 0.0999994 651.813
    endloop
  endfacet
  facet normal 1 -0 0
    outer loop
      vertex 8.0005 0.0999994 618.011
      vertex 8.0005 91.01 617.983
      vertex 8.0005 91.01 618.011
    endloop
  endfacet
  facet normal 1 0 0
    outer loop
      vertex 8.0005 91.01 617.983
      vertex 8.0005 0.0999994 618.011
      vertex 8.0005 0.0999994 617.983
    endloop
  endfacet
  facet normal -0 0 1
    outer loop
      vertex 8.0005 91.01 8.017
      vertex 51.6255 0.0999994 8.017
      vertex 51.6255 91.01 8.017
    endloop
  endfacet
  facet normal 0 0 1
    outer loop
      vertex 51.6255 0.0999994 8.017
      vertex 8.0005 91.01 8.017
      vertex 8.0005 0.0999994 8.017
    endloop
  endfacet
  facet normal 1 -0 0
    outer loop
      vertex 8.0005 0.0999994 617.983
      vertex 8.0005 91.01 8.017
      vertex 8.0005 91.01 617.983
    endloop
  endfacet
  facet normal 1 0 0
    outer loop
      vertex 8.0005 91.01 8.017
      vertex 8.0005 0.0999994 617.983
      vertex 8.0005 0.0999994 8.017
    endloop
  endfacet
  facet normal 0 -1 0
    outer loop
      vertex 8.0005 0.0999994 8.017
      vertex 0.000500855 0.0999994 618
      vertex 0.0005 0.0999994 618
    endloop
  endfacet
  facet normal 0 -1 0
    outer loop
      vertex 0.000500855 0.0999994 618
      vertex 8.0005 0.0999994 8.017
      vertex 8.0005 0.0999994 617.983
    endloop
  endfacet
  facet normal 0 -1 0
    outer loop
      vertex 0.0005 0.0999994 0
      vertex 8.0005 0.0999994 8.017
      vertex 0.0005 0.0999994 618
    endloop
  endfacet
  facet normal 0 -1 0
    outer loop
      vertex 51.6255 0.0999994 0
      vertex 8.0005 0.0999994 8.017
      vertex 0.0005 0.0999994 0
    endloop
  endfacet
  facet normal 0 -1 0
    outer loop
      vertex 8.0005 0.0999994 8.017
      vertex 51.6255 0.0999994 0
      vertex 51.6255 0.0999994 8.017
    endloop
  endfacet
  facet normal 0 -1 0
    outer loop
      vertex 51.3136 0.0999994 683.813
      vertex 50.448 0.0999994 687.436
      vertex 48.0385 0.0999994 686.606
    endloop
  endfacet
  facet normal 0 -1 0
    outer loop
      vertex 49.004 0.0999994 682.75
      vertex 48.0385 0.0999994 686.606
      vertex 45.6593 0.0999994 685.693
    endloop
  endfacet
  facet normal 0 -1 0
    outer loop
      vertex 46.7334 0.0999994 681.608
      vertex 45.6593 0.0999994 685.693
      vertex 43.3136 0.0999994 684.697
    endloop
  endfacet
  facet normal -0 -1 0
    outer loop
      vertex 51.3136 0.0999994 683.813
      vertex 48.0385 0.0999994 686.606
      vertex 49.004 0.0999994 682.75
    endloop
  endfacet
  facet normal 0 -1 0
    outer loop
      vertex 50.448 0.0999994 687.436
      vertex 51.6255 0.0999994 683.944
      vertex 51.6255 0.0999994 687.796
    endloop
  endfacet
  facet normal 0 -1 0
    outer loop
      vertex 44.5045 0.0999994 680.389
      vertex 43.3136 0.0999994 684.697
      vertex 41.004 0.0999994 683.62
    endloop
  endfacet
  facet normal -0 -1 0
    outer loop
      vertex 51.6255 0.0999994 683.944
      vertex 50.448 0.0999994 687.436
      vertex 51.3136 0.0999994 683.813
    endloop
  endfacet
  facet normal 0 -1 0
    outer loop
      vertex 42.3201 0.0999994 679.093
      vertex 41.004 0.0999994 683.62
      vertex 38.7334 0.0999994 682.463
    endloop
  endfacet
  facet normal 0 -1 0
    outer loop
      vertex 45.6593 0.0999994 685.693
      vertex 46.7334 0.0999994 681.608
      vertex 49.004 0.0999994 682.75
    endloop
  endfacet
  facet normal 0 -1 0
    outer loop
      vertex 40.1829 0.0999994 677.723
      vertex 38.7334 0.0999994 682.463
      vertex 36.5045 0.0999994 681.228
    endloop
  endfacet
  facet normal 0 -1 0
    outer loop
      vertex 43.3136 0.0999994 684.697
      vertex 44.5045 0.0999994 680.389
      vertex 46.7334 0.0999994 681.608
    endloop
  endfacet
  facet normal 0 -1 0
    outer loop
      vertex 38.0954 0.0999994 676.281
      vertex 36.5045 0.0999994 681.228
      vertex 34.3201 0.0999994 679.915
    endloop
  endfacet
  facet normal 0 -1 0
    outer loop
      vertex 41.004 0.0999994 683.62
      vertex 42.3201 0.0999994 679.093
      vertex 44.5045 0.0999994 680.389
    endloop
  endfacet
  facet normal 0 -1 0
    outer loop
      vertex 36.0602 0.0999994 674.767
      vertex 34.3201 0.0999994 679.915
      vertex 32.1829 0.0999994 678.527
    endloop
  endfacet
  facet normal 0 -1 0
    outer loop
      vertex 38.7334 0.0999994 682.463
      vertex 40.1829 0.0999994 677.723
      vertex 42.3201 0.0999994 679.093
    endloop
  endfacet
  facet normal 0 -1 0
    outer loop
      vertex 34.0797 0.0999994 673.184
      vertex 32.1829 0.0999994 678.527
      vertex 30.0954 0.0999994 677.066
    endloop
  endfacet
  facet normal 0 -1 0
    outer loop
      vertex 36.5045 0.0999994 681.228
      vertex 38.0954 0.0999994 676.281
      vertex 40.1829 0.0999994 677.723
    endloop
  endfacet
  facet normal 0 -1 0
    outer loop
      vertex 32.1564 0.0999994 671.534
      vertex 30.0954 0.0999994 677.066
      vertex 28.0602 0.0999994 675.532
    endloop
  endfacet
  facet normal 0 -1 0
    outer loop
      vertex 34.3201 0.0999994 679.915
      vertex 36.0602 0.0999994 674.767
      vertex 38.0954 0.0999994 676.281
    endloop
  endfacet
  facet normal 0 -1 0
    outer loop
      vertex 30.2927 0.0999994 669.819
      vertex 28.0602 0.0999994 675.532
      vertex 26.0797 0.0999994 673.928
    endloop
  endfacet
  facet normal 0 -1 0
    outer loop
      vertex 32.1829 0.0999994 678.527
      vertex 34.0797 0.0999994 673.184
      vertex 36.0602 0.0999994 674.767
    endloop
  endfacet
  facet normal 0 -1 0
    outer loop
      vertex 28.4907 0.0999994 668.04
      vertex 26.0797 0.0999994 673.928
      vertex 24.1564 0.0999994 672.256
    endloop
  endfacet
  facet normal 0 -1 0
    outer loop
      vertex 30.0954 0.0999994 677.066
      vertex 32.1564 0.0999994 671.534
      vertex 34.0797 0.0999994 673.184
    endloop
  endfacet
  facet normal 0 -1 0
    outer loop
      vertex 26.7527 0.0999994 666.201
      vertex 24.1564 0.0999994 672.256
      vertex 22.2927 0.0999994 670.518
    endloop
  endfacet
  facet normal 0 -1 0
    outer loop
      vertex 28.0602 0.0999994 675.532
      vertex 30.2927 0.0999994 669.819
      vertex 32.1564 0.0999994 671.534
    endloop
  endfacet
  facet normal 0 -1 0
    outer loop
      vertex 26.7527 0.0999994 666.201
      vertex 22.2927 0.0999994 670.518
      vertex 20.4907 0.0999994 668.716
    endloop
  endfacet
  facet normal 0 -1 0
    outer loop
      vertex 26.0797 0.0999994 673.928
      vertex 28.4907 0.0999994 668.04
      vertex 30.2927 0.0999994 669.819
    endloop
  endfacet
  facet normal 0 -1 0
    outer loop
      vertex 25.0809 0.0999994 664.302
      vertex 20.4907 0.0999994 668.716
      vertex 18.7527 0.0999994 666.853
    endloop
  endfacet
  facet normal 0 -1 0
    outer loop
      vertex 24.1564 0.0999994 672.256
      vertex 26.7527 0.0999994 666.201
      vertex 28.4907 0.0999994 668.04
    endloop
  endfacet
  facet normal 0 -1 0
    outer loop
      vertex 23.4771 0.0999994 662.347
      vertex 18.7527 0.0999994 666.853
      vertex 17.0809 0.0999994 664.929
    endloop
  endfacet
  facet normal 0 -1 0
    outer loop
      vertex 20.4907 0.0999994 668.716
      vertex 25.0809 0.0999994 664.302
      vertex 26.7527 0.0999994 666.201
    endloop
  endfacet
  facet normal 0 -1 0
    outer loop
      vertex 21.9435 0.0999994 660.339
      vertex 17.0809 0.0999994 664.929
      vertex 15.4771 0.0999994 662.949
    endloop
  endfacet
  facet normal 0 -1 0
    outer loop
      vertex 18.7527 0.0999994 666.853
      vertex 23.4771 0.0999994 662.347
      vertex 25.0809 0.0999994 664.302
    endloop
  endfacet
  facet normal 0 -1 0
    outer loop
      vertex 20.4818 0.0999994 658.278
      vertex 15.4771 0.0999994 662.949
      vertex 13.9435 0.0999994 660.914
    endloop
  endfacet
  facet normal 0 -1 0
    outer loop
      vertex 17.0809 0.0999994 664.929
      vertex 21.9435 0.0999994 660.339
      vertex 23.4771 0.0999994 662.347
    endloop
  endfacet
  facet normal 0 -1 0
    outer loop
      vertex 19.0939 0.0999994 656.169
      vertex 13.9435 0.0999994 660.914
      vertex 12.4818 0.0999994 658.826
    endloop
  endfacet
  facet normal 0 -1 0
    outer loop
      vertex 15.4771 0.0999994 662.949
      vertex 20.4818 0.0999994 658.278
      vertex 21.9435 0.0999994 660.339
    endloop
  endfacet
  facet normal 0 -1 0
    outer loop
      vertex 17.7814 0.0999994 654.013
      vertex 12.4818 0.0999994 658.826
      vertex 11.0939 0.0999994 656.689
    endloop
  endfacet
  facet normal 0 -1 0
    outer loop
      vertex 13.9435 0.0999994 660.914
      vertex 19.0939 0.0999994 656.169
      vertex 20.4818 0.0999994 658.278
    endloop
  endfacet
  facet normal 0 -1 0
    outer loop
      vertex 16.5459 0.0999994 651.813
      vertex 11.0939 0.0999994 656.689
      vertex 9.78135 0.0999994 654.505
    endloop
  endfacet
  facet normal 0 -1 0
    outer loop
      vertex 12.4818 0.0999994 658.826
      vertex 17.7814 0.0999994 654.013
      vertex 19.0939 0.0999994 656.169
    endloop
  endfacet
  facet normal 0 -1 0
    outer loop
      vertex 15.3889 0.0999994 649.572
      vertex 9.78135 0.0999994 654.505
      vertex 8.54588 0.0999994 652.276
    endloop
  endfacet
  facet normal 0 -1 0
    outer loop
      vertex 11.0939 0.0999994 656.689
      vertex 16.5459 0.0999994 651.813
      vertex 17.7814 0.0999994 654.013
    endloop
  endfacet
  facet normal 0 -1 0
    outer loop
      vertex 14.312 0.0999994 647.292
      vertex 8.54588 0.0999994 652.276
      vertex 7.38895 0.0999994 650.005
    endloop
  endfacet
  facet normal 0 -1 0
    outer loop
      vertex 9.78135 0.0999994 654.505
      vertex 15.3889 0.0999994 649.572
      vertex 16.5459 0.0999994 651.813
    endloop
  endfacet
  facet normal 0 -1 0
    outer loop
      vertex 13.3162 0.0999994 644.977
      vertex 7.38895 0.0999994 650.005
      vertex 6.31196 0.0999994 647.695
    endloop
  endfacet
  facet normal 0 -1 0
    outer loop
      vertex 8.54588 0.0999994 652.276
      vertex 14.312 0.0999994 647.292
      vertex 15.3889 0.0999994 649.572
    endloop
  endfacet
  facet normal 0 -1 0
    outer loop
      vertex 12.403 0.0999994 642.629
      vertex 6.31196 0.0999994 647.695
      vertex 5.31623 0.0999994 645.35
    endloop
  endfacet
  facet normal 0 -1 0
    outer loop
      vertex 7.38895 0.0999994 650.005
      vertex 13.3162 0.0999994 644.977
      vertex 14.312 0.0999994 647.292
    endloop
  endfacet
  facet normal 0 -1 0
    outer loop
      vertex 12.403 0.0999994 642.629
      vertex 5.31623 0.0999994 645.35
      vertex 4.40298 0.0999994 642.971
    endloop
  endfacet
  facet normal 0 -1 0
    outer loop
      vertex 6.31196 0.0999994 647.695
      vertex 12.403 0.0999994 642.629
      vertex 13.3162 0.0999994 644.977
    endloop
  endfacet
  facet normal 0 -1 0
    outer loop
      vertex 11.5733 0.0999994 640.251
      vertex 4.40298 0.0999994 642.971
      vertex 3.57331 0.0999994 640.561
    endloop
  endfacet
  facet normal 0 -1 0
    outer loop
      vertex 4.40298 0.0999994 642.971
      vertex 11.5733 0.0999994 640.251
      vertex 12.403 0.0999994 642.629
    endloop
  endfacet
  facet normal 0 -1 0
    outer loop
      vertex 10.8282 0.0999994 637.845
      vertex 3.57331 0.0999994 640.561
      vertex 2.82825 0.0999994 638.124
    endloop
  endfacet
  facet normal 0 -1 0
    outer loop
      vertex 3.57331 0.0999994 640.561
      vertex 10.8282 0.0999994 637.845
      vertex 11.5733 0.0999994 640.251
    endloop
  endfacet
  facet normal 0 -1 0
    outer loop
      vertex 10.1687 0.0999994 635.416
      vertex 2.82825 0.0999994 638.124
      vertex 2.16868 0.0999994 635.662
    endloop
  endfacet
  facet normal 0 -1 0
    outer loop
      vertex 2.82825 0.0999994 638.124
      vertex 10.1687 0.0999994 635.416
      vertex 10.8282 0.0999994 637.845
    endloop
  endfacet
  facet normal 0 -1 0
    outer loop
      vertex 9.59542 0.0999994 632.965
      vertex 2.16868 0.0999994 635.662
      vertex 1.59542 0.0999994 633.179
    endloop
  endfacet
  facet normal 0 -1 0
    outer loop
      vertex 2.16868 0.0999994 635.662
      vertex 9.59542 0.0999994 632.965
      vertex 10.1687 0.0999994 635.416
    endloop
  endfacet
  facet normal 0 -1 0
    outer loop
      vertex 9.10917 0.0999994 630.496
      vertex 1.59542 0.0999994 633.179
      vertex 1.10917 0.0999994 630.678
    endloop
  endfacet
  facet normal 0 -1 0
    outer loop
      vertex 1.59542 0.0999994 633.179
      vertex 9.10917 0.0999994 630.496
      vertex 9.59542 0.0999994 632.965
    endloop
  endfacet
  facet normal 0 -1 0
    outer loop
      vertex 8.71052 0.0999994 628.012
      vertex 1.10917 0.0999994 630.678
      vertex 0.710519 0.0999994 628.161
    endloop
  endfacet
  facet normal 0 -1 0
    outer loop
      vertex 1.10917 0.0999994 630.678
      vertex 8.71052 0.0999994 628.012
      vertex 9.10917 0.0999994 630.496
    endloop
  endfacet
  facet normal 0 -1 0
    outer loop
      vertex 8.39995 0.0999994 625.515
      vertex 0.710519 0.0999994 628.161
      vertex 0.399951 0.0999994 625.632
    endloop
  endfacet
  facet normal 0 -1 0
    outer loop
      vertex 0.710519 0.0999994 628.161
      vertex 8.39995 0.0999994 625.515
      vertex 8.71052 0.0999994 628.012
    endloop
  endfacet
  facet normal 0 -1 0
    outer loop
      vertex 8.17785 0.0999994 623.01
      vertex 0.399951 0.0999994 625.632
      vertex 0.177847 0.0999994 623.093
    endloop
  endfacet
  facet normal 0 -1 0
    outer loop
      vertex 0.399951 0.0999994 625.632
      vertex 8.17785 0.0999994 623.01
      vertex 8.39995 0.0999994 625.515
    endloop
  endfacet
  facet normal 0 -1 0
    outer loop
      vertex 8.04448 0.0999994 620.498
      vertex 0.177847 0.0999994 623.093
      vertex 0.0444757 0.0999994 620.548
    endloop
  endfacet
  facet normal 0 -1 0
    outer loop
      vertex 0.177847 0.0999994 623.093
      vertex 8.04448 0.0999994 620.498
      vertex 8.17785 0.0999994 623.01
    endloop
  endfacet
  facet normal 0 -1 0
    outer loop
      vertex 8.0005 0.0999994 618.011
      vertex 0.0444757 0.0999994 620.548
      vertex 0.000500855 0.0999994 618.029
    endloop
  endfacet
  facet normal 0 -1 0
    outer loop
      vertex 0.0444757 0.0999994 620.548
      vertex 8.0005 0.0999994 618.011
      vertex 8.04448 0.0999994 620.498
    endloop
  endfacet
  facet normal 0 -1 0
    outer loop
      vertex 0.000500855 0.0999994 618
      vertex 8.0005 0.0999994 618.011
      vertex 0.000500855 0.0999994 618.029
    endloop
  endfacet
  facet normal 0 -1 0
    outer loop
      vertex 8.0005 0.0999994 617.983
      vertex 8.0005 0.0999994 618.011
      vertex 0.000500855 0.0999994 618
    endloop
  endfacet
endsolid OpenSCAD_Model
