solid OpenSCAD_Model
  facet normal 0 0 -1
    outer loop
      vertex 212.887 2.99525 1.875
      vertex 214.412 4.11821 1.875
      vertex 214.412 2.99525 1.875
    endloop
  endfacet
  facet normal -0 0 -1
    outer loop
      vertex 214.412 4.11821 1.875
      vertex 212.887 2.99525 1.875
      vertex 212.887 4.11821 1.875
    endloop
  endfacet
  facet normal 0 0 -1
    outer loop
      vertex 205.617 -3.9325 1.875
      vertex 207.218 -1.2417 1.875
      vertex 207.218 -3.9325 1.875
    endloop
  endfacet
  facet normal -0 0 -1
    outer loop
      vertex 207.218 -1.2417 1.875
      vertex 205.617 -3.9325 1.875
      vertex 207.218 -0.0102539 1.875
    endloop
  endfacet
  facet normal 0 0 -1
    outer loop
      vertex 205.617 3.71133 1.875
      vertex 207.218 -0.0102539 1.875
      vertex 205.617 -3.9325 1.875
    endloop
  endfacet
  facet normal 0 0 -1
    outer loop
      vertex 211.891 1.00291 1.875
      vertex 210.279 1.02885 1.875
      vertex 210.294 1.26462 1.875
    endloop
  endfacet
  facet normal 0 0 -1
    outer loop
      vertex 210.605 -0.924332 1.875
      vertex 210.236 0.816315 1.875
      vertex 210.279 1.02885 1.875
    endloop
  endfacet
  facet normal 0 0 -1
    outer loop
      vertex 210.605 -0.924332 1.875
      vertex 210.165 0.626984 1.875
      vertex 210.236 0.816315 1.875
    endloop
  endfacet
  facet normal 0 0 -1
    outer loop
      vertex 209.78 0.199799 1.875
      vertex 210.345 -1.03859 1.875
      vertex 210.066 -1.12744 1.875
    endloop
  endfacet
  facet normal 0 0 -1
    outer loop
      vertex 210.605 -0.924332 1.875
      vertex 210.064 0.460876 1.875
      vertex 210.165 0.626984 1.875
    endloop
  endfacet
  facet normal 0 0 -1
    outer loop
      vertex 210.605 -0.924332 1.875
      vertex 209.936 0.317978 1.875
      vertex 210.064 0.460876 1.875
    endloop
  endfacet
  facet normal 0 0 -1
    outer loop
      vertex 210.605 -0.924332 1.875
      vertex 209.78 0.199799 1.875
      vertex 209.936 0.317978 1.875
    endloop
  endfacet
  facet normal 0 0 -1
    outer loop
      vertex 209.6 0.107895 1.875
      vertex 210.066 -1.12744 1.875
      vertex 209.769 -1.19092 1.875
    endloop
  endfacet
  facet normal 0 0 -1
    outer loop
      vertex 210.066 -1.12744 1.875
      vertex 209.6 0.107895 1.875
      vertex 209.78 0.199799 1.875
    endloop
  endfacet
  facet normal 0 0 -1
    outer loop
      vertex 209.396 0.0422516 1.875
      vertex 209.769 -1.19092 1.875
      vertex 209.452 -1.229 1.875
    endloop
  endfacet
  facet normal 0 0 -1
    outer loop
      vertex 209.769 -1.19092 1.875
      vertex 209.396 0.0422516 1.875
      vertex 209.6 0.107895 1.875
    endloop
  endfacet
  facet normal 0 0 -1
    outer loop
      vertex 209.452 -1.229 1.875
      vertex 209.168 0.00286865 1.875
      vertex 209.396 0.0422516 1.875
    endloop
  endfacet
  facet normal 0 0 -1
    outer loop
      vertex 209.116 -1.2417 1.875
      vertex 209.168 0.00286865 1.875
      vertex 209.452 -1.229 1.875
    endloop
  endfacet
  facet normal 0 0 -1
    outer loop
      vertex 209.116 -1.2417 1.875
      vertex 208.916 -0.0102539 1.875
      vertex 209.168 0.00286865 1.875
    endloop
  endfacet
  facet normal 0 0 -1
    outer loop
      vertex 207.218 -1.2417 1.875
      vertex 208.916 -0.0102539 1.875
      vertex 209.116 -1.2417 1.875
    endloop
  endfacet
  facet normal -0 0 -1
    outer loop
      vertex 208.916 -0.0102539 1.875
      vertex 207.218 -1.2417 1.875
      vertex 207.218 -0.0102539 1.875
    endloop
  endfacet
  facet normal 0 0 -1
    outer loop
      vertex 210.294 1.26462 1.875
      vertex 211.905 1.29173 1.875
      vertex 211.891 1.00291 1.875
    endloop
  endfacet
  facet normal 0 0 -1
    outer loop
      vertex 210.279 1.02885 1.875
      vertex 211.891 1.00291 1.875
      vertex 211.851 0.726685 1.875
    endloop
  endfacet
  facet normal -0 0 -1
    outer loop
      vertex 211.905 1.29173 1.875
      vertex 210.294 1.26462 1.875
      vertex 211.875 1.73303 1.875
    endloop
  endfacet
  facet normal 0 0 -1
    outer loop
      vertex 210.279 1.02885 1.875
      vertex 211.851 0.726685 1.875
      vertex 211.784 0.463043 1.875
    endloop
  endfacet
  facet normal 0 0 -1
    outer loop
      vertex 210.279 1.02885 1.875
      vertex 211.784 0.463043 1.875
      vertex 211.689 0.211975 1.875
    endloop
  endfacet
  facet normal 0 0 -1
    outer loop
      vertex 210.237 1.6982 1.875
      vertex 211.875 1.73303 1.875
      vertex 210.294 1.26462 1.875
    endloop
  endfacet
  facet normal 0 0 -1
    outer loop
      vertex 210.279 1.02885 1.875
      vertex 211.689 0.211975 1.875
      vertex 211.568 -0.0264893 1.875
    endloop
  endfacet
  facet normal -0 0 -1
    outer loop
      vertex 211.875 1.73303 1.875
      vertex 210.237 1.6982 1.875
      vertex 211.786 2.13243 1.875
    endloop
  endfacet
  facet normal 0 0 -1
    outer loop
      vertex 210.279 1.02885 1.875
      vertex 211.568 -0.0264893 1.875
      vertex 211.422 -0.248154 1.875
    endloop
  endfacet
  facet normal 0 0 -1
    outer loop
      vertex 210.279 1.02885 1.875
      vertex 211.422 -0.248154 1.875
      vertex 211.253 -0.448776 1.875
    endloop
  endfacet
  facet normal -0 0 -1
    outer loop
      vertex 211.786 2.13243 1.875
      vertex 210.237 1.6982 1.875
      vertex 211.638 2.48996 1.875
    endloop
  endfacet
  facet normal 0 0 -1
    outer loop
      vertex 210.279 1.02885 1.875
      vertex 211.253 -0.448776 1.875
      vertex 211.06 -0.628342 1.875
    endloop
  endfacet
  facet normal 0 0 -1
    outer loop
      vertex 210.279 1.02885 1.875
      vertex 211.06 -0.628342 1.875
      vertex 210.845 -0.786865 1.875
    endloop
  endfacet
  facet normal -0 0 -1
    outer loop
      vertex 211.638 2.48996 1.875
      vertex 210.237 1.6982 1.875
      vertex 211.431 2.80559 1.875
    endloop
  endfacet
  facet normal 0 0 -1
    outer loop
      vertex 210.279 1.02885 1.875
      vertex 210.845 -0.786865 1.875
      vertex 210.605 -0.924332 1.875
    endloop
  endfacet
  facet normal 0 0 -1
    outer loop
      vertex 210.066 2.03543 1.875
      vertex 211.431 2.80559 1.875
      vertex 210.237 1.6982 1.875
    endloop
  endfacet
  facet normal 0 0 -1
    outer loop
      vertex 209.78 0.199799 1.875
      vertex 210.605 -0.924332 1.875
      vertex 210.345 -1.03859 1.875
    endloop
  endfacet
  facet normal -0 0 -1
    outer loop
      vertex 211.431 2.80559 1.875
      vertex 210.066 2.03543 1.875
      vertex 211.164 3.07933 1.875
    endloop
  endfacet
  facet normal -0 0 -1
    outer loop
      vertex 211.164 3.07933 1.875
      vertex 210.066 2.03543 1.875
      vertex 210.843 3.30685 1.875
    endloop
  endfacet
  facet normal 0 0 -1
    outer loop
      vertex 209.782 2.27631 1.875
      vertex 210.843 3.30685 1.875
      vertex 210.066 2.03543 1.875
    endloop
  endfacet
  facet normal -0 0 -1
    outer loop
      vertex 210.843 3.30685 1.875
      vertex 209.782 2.27631 1.875
      vertex 210.471 3.48381 1.875
    endloop
  endfacet
  facet normal -0 0 -1
    outer loop
      vertex 210.471 3.48381 1.875
      vertex 209.782 2.27631 1.875
      vertex 210.048 3.61021 1.875
    endloop
  endfacet
  facet normal 0 0 -1
    outer loop
      vertex 209.384 2.42084 1.875
      vertex 210.048 3.61021 1.875
      vertex 209.782 2.27631 1.875
    endloop
  endfacet
  facet normal -0 0 -1
    outer loop
      vertex 210.048 3.61021 1.875
      vertex 209.384 2.42084 1.875
      vertex 209.575 3.68605 1.875
    endloop
  endfacet
  facet normal 0 0 -1
    outer loop
      vertex 209.384 2.42084 1.875
      vertex 209.051 3.71133 1.875
      vertex 209.575 3.68605 1.875
    endloop
  endfacet
  facet normal 0 0 -1
    outer loop
      vertex 208.872 2.46901 1.875
      vertex 209.051 3.71133 1.875
      vertex 209.384 2.42084 1.875
    endloop
  endfacet
  facet normal 0 0 -1
    outer loop
      vertex 207.218 2.46901 1.875
      vertex 209.051 3.71133 1.875
      vertex 208.872 2.46901 1.875
    endloop
  endfacet
  facet normal 0 0 -1
    outer loop
      vertex 207.218 2.46901 1.875
      vertex 205.617 3.71133 1.875
      vertex 209.051 3.71133 1.875
    endloop
  endfacet
  facet normal 0 0 -1
    outer loop
      vertex 207.218 -0.0102539 1.875
      vertex 205.617 3.71133 1.875
      vertex 207.218 2.46901 1.875
    endloop
  endfacet
  facet normal 0 0 -1
    outer loop
      vertex 212.887 -3.9325 1.875
      vertex 214.412 1.93733 1.875
      vertex 214.412 -3.9325 1.875
    endloop
  endfacet
  facet normal -0 0 -1
    outer loop
      vertex 214.412 1.93733 1.875
      vertex 212.887 -3.9325 1.875
      vertex 212.887 1.93733 1.875
    endloop
  endfacet
  facet normal -0 0 1
    outer loop
      vertex 212.887 4.11821 2.125
      vertex 214.412 2.99525 2.125
      vertex 214.412 4.11821 2.125
    endloop
  endfacet
  facet normal 0 0 1
    outer loop
      vertex 214.412 2.99525 2.125
      vertex 212.887 4.11821 2.125
      vertex 212.887 2.99525 2.125
    endloop
  endfacet
  facet normal 0 0 1
    outer loop
      vertex 210.294 1.26462 2.125
      vertex 211.905 1.29173 2.125
      vertex 211.875 1.73303 2.125
    endloop
  endfacet
  facet normal 0 0 1
    outer loop
      vertex 211.905 1.29173 2.125
      vertex 210.294 1.26462 2.125
      vertex 211.891 1.00291 2.125
    endloop
  endfacet
  facet normal 0 0 1
    outer loop
      vertex 210.237 1.6982 2.125
      vertex 211.875 1.73303 2.125
      vertex 211.786 2.13243 2.125
    endloop
  endfacet
  facet normal -0 0 1
    outer loop
      vertex 210.279 1.02885 2.125
      vertex 211.891 1.00291 2.125
      vertex 210.294 1.26462 2.125
    endloop
  endfacet
  facet normal 0 0 1
    outer loop
      vertex 211.891 1.00291 2.125
      vertex 210.279 1.02885 2.125
      vertex 211.851 0.726685 2.125
    endloop
  endfacet
  facet normal 0 0 1
    outer loop
      vertex 210.237 1.6982 2.125
      vertex 211.786 2.13243 2.125
      vertex 211.638 2.48996 2.125
    endloop
  endfacet
  facet normal 0 0 1
    outer loop
      vertex 211.851 0.726685 2.125
      vertex 210.279 1.02885 2.125
      vertex 211.784 0.463043 2.125
    endloop
  endfacet
  facet normal 0 0 1
    outer loop
      vertex 210.237 1.6982 2.125
      vertex 211.638 2.48996 2.125
      vertex 211.431 2.80559 2.125
    endloop
  endfacet
  facet normal -0 0 1
    outer loop
      vertex 210.236 0.816315 2.125
      vertex 211.784 0.463043 2.125
      vertex 210.279 1.02885 2.125
    endloop
  endfacet
  facet normal 0 0 1
    outer loop
      vertex 211.784 0.463043 2.125
      vertex 210.236 0.816315 2.125
      vertex 211.689 0.211975 2.125
    endloop
  endfacet
  facet normal 0 0 1
    outer loop
      vertex 210.066 2.03543 2.125
      vertex 211.431 2.80559 2.125
      vertex 211.164 3.07933 2.125
    endloop
  endfacet
  facet normal 0 0 1
    outer loop
      vertex 211.689 0.211975 2.125
      vertex 210.236 0.816315 2.125
      vertex 211.568 -0.0264893 2.125
    endloop
  endfacet
  facet normal -0 0 1
    outer loop
      vertex 210.165 0.626984 2.125
      vertex 211.568 -0.0264893 2.125
      vertex 210.236 0.816315 2.125
    endloop
  endfacet
  facet normal 0 0 1
    outer loop
      vertex 210.066 2.03543 2.125
      vertex 211.164 3.07933 2.125
      vertex 210.843 3.30685 2.125
    endloop
  endfacet
  facet normal 0 0 1
    outer loop
      vertex 211.568 -0.0264893 2.125
      vertex 210.165 0.626984 2.125
      vertex 211.422 -0.248154 2.125
    endloop
  endfacet
  facet normal 0 0 1
    outer loop
      vertex 209.782 2.27631 2.125
      vertex 210.843 3.30685 2.125
      vertex 210.471 3.48381 2.125
    endloop
  endfacet
  facet normal -0 0 1
    outer loop
      vertex 210.064 0.460876 2.125
      vertex 211.422 -0.248154 2.125
      vertex 210.165 0.626984 2.125
    endloop
  endfacet
  facet normal 0 0 1
    outer loop
      vertex 211.422 -0.248154 2.125
      vertex 210.064 0.460876 2.125
      vertex 211.253 -0.448776 2.125
    endloop
  endfacet
  facet normal 0 0 1
    outer loop
      vertex 211.875 1.73303 2.125
      vertex 210.237 1.6982 2.125
      vertex 210.294 1.26462 2.125
    endloop
  endfacet
  facet normal 0 0 1
    outer loop
      vertex 211.431 2.80559 2.125
      vertex 210.066 2.03543 2.125
      vertex 210.237 1.6982 2.125
    endloop
  endfacet
  facet normal 0 0 1
    outer loop
      vertex 209.782 2.27631 2.125
      vertex 210.471 3.48381 2.125
      vertex 210.048 3.61021 2.125
    endloop
  endfacet
  facet normal 0 0 1
    outer loop
      vertex 210.843 3.30685 2.125
      vertex 209.782 2.27631 2.125
      vertex 210.066 2.03543 2.125
    endloop
  endfacet
  facet normal 0 0 1
    outer loop
      vertex 209.384 2.42084 2.125
      vertex 210.048 3.61021 2.125
      vertex 209.575 3.68605 2.125
    endloop
  endfacet
  facet normal 0 0 1
    outer loop
      vertex 210.048 3.61021 2.125
      vertex 209.384 2.42084 2.125
      vertex 209.782 2.27631 2.125
    endloop
  endfacet
  facet normal 0 0 1
    outer loop
      vertex 209.051 3.71133 2.125
      vertex 209.384 2.42084 2.125
      vertex 209.575 3.68605 2.125
    endloop
  endfacet
  facet normal 0 0 1
    outer loop
      vertex 209.051 3.71133 2.125
      vertex 208.872 2.46901 2.125
      vertex 209.384 2.42084 2.125
    endloop
  endfacet
  facet normal 0 0 1
    outer loop
      vertex 209.051 3.71133 2.125
      vertex 207.218 2.46901 2.125
      vertex 208.872 2.46901 2.125
    endloop
  endfacet
  facet normal 0 0 1
    outer loop
      vertex 205.617 3.71133 2.125
      vertex 207.218 -0.0102539 2.125
      vertex 207.218 2.46901 2.125
    endloop
  endfacet
  facet normal 0 0 1
    outer loop
      vertex 205.617 -3.9325 2.125
      vertex 207.218 -0.0102539 2.125
      vertex 205.617 3.71133 2.125
    endloop
  endfacet
  facet normal -0 0 1
    outer loop
      vertex 205.617 3.71133 2.125
      vertex 207.218 2.46901 2.125
      vertex 209.051 3.71133 2.125
    endloop
  endfacet
  facet normal 0 0 1
    outer loop
      vertex 207.218 -0.0102539 2.125
      vertex 205.617 -3.9325 2.125
      vertex 207.218 -1.2417 2.125
    endloop
  endfacet
  facet normal 0 0 1
    outer loop
      vertex 207.218 -1.2417 2.125
      vertex 205.617 -3.9325 2.125
      vertex 207.218 -3.9325 2.125
    endloop
  endfacet
  facet normal 0 0 1
    outer loop
      vertex 211.253 -0.448776 2.125
      vertex 210.064 0.460876 2.125
      vertex 211.06 -0.628342 2.125
    endloop
  endfacet
  facet normal -0 0 1
    outer loop
      vertex 209.936 0.317978 2.125
      vertex 211.06 -0.628342 2.125
      vertex 210.064 0.460876 2.125
    endloop
  endfacet
  facet normal 0 0 1
    outer loop
      vertex 211.06 -0.628342 2.125
      vertex 209.936 0.317978 2.125
      vertex 210.845 -0.786865 2.125
    endloop
  endfacet
  facet normal 0 0 1
    outer loop
      vertex 210.845 -0.786865 2.125
      vertex 209.936 0.317978 2.125
      vertex 210.605 -0.924332 2.125
    endloop
  endfacet
  facet normal -0 0 1
    outer loop
      vertex 209.78 0.199799 2.125
      vertex 210.605 -0.924332 2.125
      vertex 209.936 0.317978 2.125
    endloop
  endfacet
  facet normal 0 0 1
    outer loop
      vertex 210.605 -0.924332 2.125
      vertex 209.78 0.199799 2.125
      vertex 210.345 -1.03859 2.125
    endloop
  endfacet
  facet normal 0 0 1
    outer loop
      vertex 210.345 -1.03859 2.125
      vertex 209.78 0.199799 2.125
      vertex 210.066 -1.12744 2.125
    endloop
  endfacet
  facet normal -0 0 1
    outer loop
      vertex 209.6 0.107895 2.125
      vertex 210.066 -1.12744 2.125
      vertex 209.78 0.199799 2.125
    endloop
  endfacet
  facet normal 0 0 1
    outer loop
      vertex 210.066 -1.12744 2.125
      vertex 209.6 0.107895 2.125
      vertex 209.769 -1.19092 2.125
    endloop
  endfacet
  facet normal -0 0 1
    outer loop
      vertex 209.396 0.0422516 2.125
      vertex 209.769 -1.19092 2.125
      vertex 209.6 0.107895 2.125
    endloop
  endfacet
  facet normal 0 0 1
    outer loop
      vertex 209.769 -1.19092 2.125
      vertex 209.396 0.0422516 2.125
      vertex 209.452 -1.229 2.125
    endloop
  endfacet
  facet normal -0 0 1
    outer loop
      vertex 209.168 0.00286865 2.125
      vertex 209.452 -1.229 2.125
      vertex 209.396 0.0422516 2.125
    endloop
  endfacet
  facet normal 0 0 1
    outer loop
      vertex 209.168 0.00286865 2.125
      vertex 209.116 -1.2417 2.125
      vertex 209.452 -1.229 2.125
    endloop
  endfacet
  facet normal -0 0 1
    outer loop
      vertex 208.916 -0.0102539 2.125
      vertex 209.116 -1.2417 2.125
      vertex 209.168 0.00286865 2.125
    endloop
  endfacet
  facet normal 0 0 1
    outer loop
      vertex 207.218 -1.2417 2.125
      vertex 208.916 -0.0102539 2.125
      vertex 207.218 -0.0102539 2.125
    endloop
  endfacet
  facet normal 0 0 1
    outer loop
      vertex 208.916 -0.0102539 2.125
      vertex 207.218 -1.2417 2.125
      vertex 209.116 -1.2417 2.125
    endloop
  endfacet
  facet normal -0 0 1
    outer loop
      vertex 212.887 1.93733 2.125
      vertex 214.412 -3.9325 2.125
      vertex 214.412 1.93733 2.125
    endloop
  endfacet
  facet normal 0 0 1
    outer loop
      vertex 214.412 -3.9325 2.125
      vertex 212.887 1.93733 2.125
      vertex 212.887 -3.9325 2.125
    endloop
  endfacet
  facet normal 0 1 -0
    outer loop
      vertex 214.412 4.11821 1.875
      vertex 212.887 4.11821 2.125
      vertex 214.412 4.11821 2.125
    endloop
  endfacet
  facet normal 0 1 0
    outer loop
      vertex 212.887 4.11821 2.125
      vertex 214.412 4.11821 1.875
      vertex 212.887 4.11821 1.875
    endloop
  endfacet
  facet normal -1 0 0
    outer loop
      vertex 212.887 2.99525 1.875
      vertex 212.887 4.11821 2.125
      vertex 212.887 4.11821 1.875
    endloop
  endfacet
  facet normal -1 -0 0
    outer loop
      vertex 212.887 4.11821 2.125
      vertex 212.887 2.99525 1.875
      vertex 212.887 2.99525 2.125
    endloop
  endfacet
  facet normal 0 -1 0
    outer loop
      vertex 212.887 2.99525 1.875
      vertex 214.412 2.99525 2.125
      vertex 212.887 2.99525 2.125
    endloop
  endfacet
  facet normal 0 -1 -0
    outer loop
      vertex 214.412 2.99525 2.125
      vertex 212.887 2.99525 1.875
      vertex 214.412 2.99525 1.875
    endloop
  endfacet
  facet normal 1 -0 0
    outer loop
      vertex 214.412 2.99525 2.125
      vertex 214.412 4.11821 1.875
      vertex 214.412 4.11821 2.125
    endloop
  endfacet
  facet normal 1 0 0
    outer loop
      vertex 214.412 4.11821 1.875
      vertex 214.412 2.99525 2.125
      vertex 214.412 2.99525 1.875
    endloop
  endfacet
  facet normal 0 -1 0
    outer loop
      vertex 207.218 -1.2417 1.875
      vertex 209.116 -1.2417 2.125
      vertex 207.218 -1.2417 2.125
    endloop
  endfacet
  facet normal 0 -1 -0
    outer loop
      vertex 209.116 -1.2417 2.125
      vertex 207.218 -1.2417 1.875
      vertex 209.116 -1.2417 1.875
    endloop
  endfacet
  facet normal 0.0377706 -0.999286 0
    outer loop
      vertex 209.116 -1.2417 1.875
      vertex 209.452 -1.229 2.125
      vertex 209.116 -1.2417 2.125
    endloop
  endfacet
  facet normal 0.0377706 -0.999286 0
    outer loop
      vertex 209.452 -1.229 2.125
      vertex 209.116 -1.2417 1.875
      vertex 209.452 -1.229 1.875
    endloop
  endfacet
  facet normal 0.119269 -0.992862 0
    outer loop
      vertex 209.452 -1.229 1.875
      vertex 209.769 -1.19092 2.125
      vertex 209.452 -1.229 2.125
    endloop
  endfacet
  facet normal 0.119269 -0.992862 0
    outer loop
      vertex 209.769 -1.19092 2.125
      vertex 209.452 -1.229 1.875
      vertex 209.769 -1.19092 1.875
    endloop
  endfacet
  facet normal 0.209016 -0.977912 0
    outer loop
      vertex 209.769 -1.19092 1.875
      vertex 210.066 -1.12744 2.125
      vertex 209.769 -1.19092 2.125
    endloop
  endfacet
  facet normal 0.209016 -0.977912 0
    outer loop
      vertex 210.066 -1.12744 2.125
      vertex 209.769 -1.19092 1.875
      vertex 210.066 -1.12744 1.875
    endloop
  endfacet
  facet normal 0.303443 -0.952849 0
    outer loop
      vertex 210.066 -1.12744 1.875
      vertex 210.345 -1.03859 2.125
      vertex 210.066 -1.12744 2.125
    endloop
  endfacet
  facet normal 0.303443 -0.952849 0
    outer loop
      vertex 210.345 -1.03859 2.125
      vertex 210.066 -1.12744 1.875
      vertex 210.345 -1.03859 1.875
    endloop
  endfacet
  facet normal 0.40232 -0.915499 0
    outer loop
      vertex 210.345 -1.03859 1.875
      vertex 210.605 -0.924332 2.125
      vertex 210.345 -1.03859 2.125
    endloop
  endfacet
  facet normal 0.40232 -0.915499 0
    outer loop
      vertex 210.605 -0.924332 2.125
      vertex 210.345 -1.03859 1.875
      vertex 210.605 -0.924332 1.875
    endloop
  endfacet
  facet normal 0.497022 -0.867738 0
    outer loop
      vertex 210.605 -0.924332 1.875
      vertex 210.845 -0.786865 2.125
      vertex 210.605 -0.924332 2.125
    endloop
  endfacet
  facet normal 0.497022 -0.867738 0
    outer loop
      vertex 210.845 -0.786865 2.125
      vertex 210.605 -0.924332 1.875
      vertex 210.845 -0.786865 1.875
    endloop
  endfacet
  facet normal 0.593446 -0.804874 0
    outer loop
      vertex 210.845 -0.786865 1.875
      vertex 211.06 -0.628342 2.125
      vertex 210.845 -0.786865 2.125
    endloop
  endfacet
  facet normal 0.593446 -0.804874 0
    outer loop
      vertex 211.06 -0.628342 2.125
      vertex 210.845 -0.786865 1.875
      vertex 211.06 -0.628342 1.875
    endloop
  endfacet
  facet normal 0.681167 -0.732128 0
    outer loop
      vertex 211.06 -0.628342 1.875
      vertex 211.253 -0.448776 2.125
      vertex 211.06 -0.628342 2.125
    endloop
  endfacet
  facet normal 0.681167 -0.732128 0
    outer loop
      vertex 211.253 -0.448776 2.125
      vertex 211.06 -0.628342 1.875
      vertex 211.253 -0.448776 1.875
    endloop
  endfacet
  facet normal 0.764808 -0.644259 0
    outer loop
      vertex 211.253 -0.448776 2.125
      vertex 211.422 -0.248154 1.875
      vertex 211.422 -0.248154 2.125
    endloop
  endfacet
  facet normal 0.764808 -0.644259 0
    outer loop
      vertex 211.422 -0.248154 1.875
      vertex 211.253 -0.448776 2.125
      vertex 211.253 -0.448776 1.875
    endloop
  endfacet
  facet normal 0.835126 -0.550058 0
    outer loop
      vertex 211.422 -0.248154 2.125
      vertex 211.568 -0.0264893 1.875
      vertex 211.568 -0.0264893 2.125
    endloop
  endfacet
  facet normal 0.835126 -0.550058 0
    outer loop
      vertex 211.568 -0.0264893 1.875
      vertex 211.422 -0.248154 2.125
      vertex 211.422 -0.248154 1.875
    endloop
  endfacet
  facet normal 0.891767 -0.452495 0
    outer loop
      vertex 211.568 -0.0264893 2.125
      vertex 211.689 0.211975 1.875
      vertex 211.689 0.211975 2.125
    endloop
  endfacet
  facet normal 0.891767 -0.452495 0
    outer loop
      vertex 211.689 0.211975 1.875
      vertex 211.568 -0.0264893 2.125
      vertex 211.568 -0.0264893 1.875
    endloop
  endfacet
  facet normal 0.935285 -0.353896 0
    outer loop
      vertex 211.689 0.211975 2.125
      vertex 211.784 0.463043 1.875
      vertex 211.784 0.463043 2.125
    endloop
  endfacet
  facet normal 0.935285 -0.353896 0
    outer loop
      vertex 211.784 0.463043 1.875
      vertex 211.689 0.211975 2.125
      vertex 211.689 0.211975 1.875
    endloop
  endfacet
  facet normal 0.969193 -0.246303 0
    outer loop
      vertex 211.784 0.463043 2.125
      vertex 211.851 0.726685 1.875
      vertex 211.851 0.726685 2.125
    endloop
  endfacet
  facet normal 0.969193 -0.246303 0
    outer loop
      vertex 211.851 0.726685 1.875
      vertex 211.784 0.463043 2.125
      vertex 211.784 0.463043 1.875
    endloop
  endfacet
  facet normal 0.989677 -0.143315 0
    outer loop
      vertex 211.851 0.726685 2.125
      vertex 211.891 1.00291 1.875
      vertex 211.891 1.00291 2.125
    endloop
  endfacet
  facet normal 0.989677 -0.143315 0
    outer loop
      vertex 211.891 1.00291 1.875
      vertex 211.851 0.726685 2.125
      vertex 211.851 0.726685 1.875
    endloop
  endfacet
  facet normal 0.998827 -0.0484163 0
    outer loop
      vertex 211.891 1.00291 2.125
      vertex 211.905 1.29173 1.875
      vertex 211.905 1.29173 2.125
    endloop
  endfacet
  facet normal 0.998827 -0.0484163 0
    outer loop
      vertex 211.905 1.29173 1.875
      vertex 211.891 1.00291 2.125
      vertex 211.891 1.00291 1.875
    endloop
  endfacet
  facet normal 0.997697 0.0678244 0
    outer loop
      vertex 211.905 1.29173 2.125
      vertex 211.875 1.73303 1.875
      vertex 211.875 1.73303 2.125
    endloop
  endfacet
  facet normal 0.997697 0.0678244 0
    outer loop
      vertex 211.875 1.73303 1.875
      vertex 211.905 1.29173 2.125
      vertex 211.905 1.29173 1.875
    endloop
  endfacet
  facet normal 0.97606 0.2175 0
    outer loop
      vertex 211.875 1.73303 2.125
      vertex 211.786 2.13243 1.875
      vertex 211.786 2.13243 2.125
    endloop
  endfacet
  facet normal 0.97606 0.2175 0
    outer loop
      vertex 211.786 2.13243 1.875
      vertex 211.875 1.73303 2.125
      vertex 211.875 1.73303 1.875
    endloop
  endfacet
  facet normal 0.923965 0.382477 0
    outer loop
      vertex 211.786 2.13243 2.125
      vertex 211.638 2.48996 1.875
      vertex 211.638 2.48996 2.125
    endloop
  endfacet
  facet normal 0.923965 0.382477 0
    outer loop
      vertex 211.638 2.48996 1.875
      vertex 211.786 2.13243 2.125
      vertex 211.786 2.13243 1.875
    endloop
  endfacet
  facet normal 0.836209 0.548412 0
    outer loop
      vertex 211.638 2.48996 2.125
      vertex 211.431 2.80559 1.875
      vertex 211.431 2.80559 2.125
    endloop
  endfacet
  facet normal 0.836209 0.548412 0
    outer loop
      vertex 211.431 2.80559 1.875
      vertex 211.638 2.48996 2.125
      vertex 211.638 2.48996 1.875
    endloop
  endfacet
  facet normal 0.715865 0.698239 0
    outer loop
      vertex 211.431 2.80559 2.125
      vertex 211.164 3.07933 1.875
      vertex 211.164 3.07933 2.125
    endloop
  endfacet
  facet normal 0.715865 0.698239 0
    outer loop
      vertex 211.164 3.07933 1.875
      vertex 211.431 2.80559 2.125
      vertex 211.431 2.80559 1.875
    endloop
  endfacet
  facet normal 0.578263 0.815851 -0
    outer loop
      vertex 211.164 3.07933 1.875
      vertex 210.843 3.30685 2.125
      vertex 211.164 3.07933 2.125
    endloop
  endfacet
  facet normal 0.578263 0.815851 0
    outer loop
      vertex 210.843 3.30685 2.125
      vertex 211.164 3.07933 1.875
      vertex 210.843 3.30685 1.875
    endloop
  endfacet
  facet normal 0.429572 0.903033 -0
    outer loop
      vertex 210.843 3.30685 1.875
      vertex 210.471 3.48381 2.125
      vertex 210.843 3.30685 2.125
    endloop
  endfacet
  facet normal 0.429572 0.903033 0
    outer loop
      vertex 210.471 3.48381 2.125
      vertex 210.843 3.30685 1.875
      vertex 210.471 3.48381 1.875
    endloop
  endfacet
  facet normal 0.286309 0.958137 -0
    outer loop
      vertex 210.471 3.48381 1.875
      vertex 210.048 3.61021 2.125
      vertex 210.471 3.48381 2.125
    endloop
  endfacet
  facet normal 0.286309 0.958137 0
    outer loop
      vertex 210.048 3.61021 2.125
      vertex 210.471 3.48381 1.875
      vertex 210.048 3.61021 1.875
    endloop
  endfacet
  facet normal 0.158316 0.987388 -0
    outer loop
      vertex 210.048 3.61021 1.875
      vertex 209.575 3.68605 2.125
      vertex 210.048 3.61021 2.125
    endloop
  endfacet
  facet normal 0.158316 0.987388 0
    outer loop
      vertex 209.575 3.68605 2.125
      vertex 210.048 3.61021 1.875
      vertex 209.575 3.68605 1.875
    endloop
  endfacet
  facet normal 0.0481882 0.998838 -0
    outer loop
      vertex 209.575 3.68605 1.875
      vertex 209.051 3.71133 2.125
      vertex 209.575 3.68605 2.125
    endloop
  endfacet
  facet normal 0.0481882 0.998838 0
    outer loop
      vertex 209.051 3.71133 2.125
      vertex 209.575 3.68605 1.875
      vertex 209.051 3.71133 1.875
    endloop
  endfacet
  facet normal 0 1 -0
    outer loop
      vertex 209.051 3.71133 1.875
      vertex 205.617 3.71133 2.125
      vertex 209.051 3.71133 2.125
    endloop
  endfacet
  facet normal 0 1 0
    outer loop
      vertex 205.617 3.71133 2.125
      vertex 209.051 3.71133 1.875
      vertex 205.617 3.71133 1.875
    endloop
  endfacet
  facet normal -1 0 0
    outer loop
      vertex 205.617 -3.9325 1.875
      vertex 205.617 3.71133 2.125
      vertex 205.617 3.71133 1.875
    endloop
  endfacet
  facet normal -1 -0 0
    outer loop
      vertex 205.617 3.71133 2.125
      vertex 205.617 -3.9325 1.875
      vertex 205.617 -3.9325 2.125
    endloop
  endfacet
  facet normal 0 -1 0
    outer loop
      vertex 205.617 -3.9325 1.875
      vertex 207.218 -3.9325 2.125
      vertex 205.617 -3.9325 2.125
    endloop
  endfacet
  facet normal 0 -1 -0
    outer loop
      vertex 207.218 -3.9325 2.125
      vertex 205.617 -3.9325 1.875
      vertex 207.218 -3.9325 1.875
    endloop
  endfacet
  facet normal 1 -0 0
    outer loop
      vertex 207.218 -3.9325 2.125
      vertex 207.218 -1.2417 1.875
      vertex 207.218 -1.2417 2.125
    endloop
  endfacet
  facet normal 1 0 0
    outer loop
      vertex 207.218 -1.2417 1.875
      vertex 207.218 -3.9325 2.125
      vertex 207.218 -3.9325 1.875
    endloop
  endfacet
  facet normal 1 -0 0
    outer loop
      vertex 207.218 -0.0102539 2.125
      vertex 207.218 2.46901 1.875
      vertex 207.218 2.46901 2.125
    endloop
  endfacet
  facet normal 1 0 0
    outer loop
      vertex 207.218 2.46901 1.875
      vertex 207.218 -0.0102539 2.125
      vertex 207.218 -0.0102539 1.875
    endloop
  endfacet
  facet normal 0 -1 0
    outer loop
      vertex 207.218 2.46901 1.875
      vertex 208.872 2.46901 2.125
      vertex 207.218 2.46901 2.125
    endloop
  endfacet
  facet normal 0 -1 -0
    outer loop
      vertex 208.872 2.46901 2.125
      vertex 207.218 2.46901 1.875
      vertex 208.872 2.46901 1.875
    endloop
  endfacet
  facet normal -0.0936684 -0.995603 0
    outer loop
      vertex 208.872 2.46901 1.875
      vertex 209.384 2.42084 2.125
      vertex 208.872 2.46901 2.125
    endloop
  endfacet
  facet normal -0.0936684 -0.995603 -0
    outer loop
      vertex 209.384 2.42084 2.125
      vertex 208.872 2.46901 1.875
      vertex 209.384 2.42084 1.875
    endloop
  endfacet
  facet normal -0.341332 -0.939943 0
    outer loop
      vertex 209.384 2.42084 1.875
      vertex 209.782 2.27631 2.125
      vertex 209.384 2.42084 2.125
    endloop
  endfacet
  facet normal -0.341332 -0.939943 -0
    outer loop
      vertex 209.782 2.27631 2.125
      vertex 209.384 2.42084 1.875
      vertex 209.782 2.27631 1.875
    endloop
  endfacet
  facet normal -0.646837 -0.762628 0
    outer loop
      vertex 209.782 2.27631 1.875
      vertex 210.066 2.03543 2.125
      vertex 209.782 2.27631 2.125
    endloop
  endfacet
  facet normal -0.646837 -0.762628 -0
    outer loop
      vertex 210.066 2.03543 2.125
      vertex 209.782 2.27631 1.875
      vertex 210.066 2.03543 1.875
    endloop
  endfacet
  facet normal -0.89189 -0.452253 0
    outer loop
      vertex 210.237 1.6982 1.875
      vertex 210.066 2.03543 2.125
      vertex 210.066 2.03543 1.875
    endloop
  endfacet
  facet normal -0.89189 -0.452253 0
    outer loop
      vertex 210.066 2.03543 2.125
      vertex 210.237 1.6982 1.875
      vertex 210.237 1.6982 2.125
    endloop
  endfacet
  facet normal -0.991469 -0.130342 0
    outer loop
      vertex 210.294 1.26462 1.875
      vertex 210.237 1.6982 2.125
      vertex 210.237 1.6982 1.875
    endloop
  endfacet
  facet normal -0.991469 -0.130342 0
    outer loop
      vertex 210.237 1.6982 2.125
      vertex 210.294 1.26462 1.875
      vertex 210.294 1.26462 2.125
    endloop
  endfacet
  facet normal -0.997982 0.063493 0
    outer loop
      vertex 210.279 1.02885 1.875
      vertex 210.294 1.26462 2.125
      vertex 210.294 1.26462 1.875
    endloop
  endfacet
  facet normal -0.997982 0.063493 0
    outer loop
      vertex 210.294 1.26462 2.125
      vertex 210.279 1.02885 1.875
      vertex 210.279 1.02885 2.125
    endloop
  endfacet
  facet normal -0.980141 0.198302 0
    outer loop
      vertex 210.236 0.816315 1.875
      vertex 210.279 1.02885 2.125
      vertex 210.279 1.02885 1.875
    endloop
  endfacet
  facet normal -0.980141 0.198302 0
    outer loop
      vertex 210.279 1.02885 2.125
      vertex 210.236 0.816315 1.875
      vertex 210.236 0.816315 2.125
    endloop
  endfacet
  facet normal -0.936328 0.351127 0
    outer loop
      vertex 210.165 0.626984 1.875
      vertex 210.236 0.816315 2.125
      vertex 210.236 0.816315 1.875
    endloop
  endfacet
  facet normal -0.936328 0.351127 0
    outer loop
      vertex 210.236 0.816315 2.125
      vertex 210.165 0.626984 1.875
      vertex 210.165 0.626984 2.125
    endloop
  endfacet
  facet normal -0.854448 0.519537 0
    outer loop
      vertex 210.064 0.460876 1.875
      vertex 210.165 0.626984 2.125
      vertex 210.165 0.626984 1.875
    endloop
  endfacet
  facet normal -0.854448 0.519537 0
    outer loop
      vertex 210.165 0.626984 2.125
      vertex 210.064 0.460876 1.875
      vertex 210.064 0.460876 2.125
    endloop
  endfacet
  facet normal -0.744868 0.667211 0
    outer loop
      vertex 209.936 0.317978 1.875
      vertex 210.064 0.460876 2.125
      vertex 210.064 0.460876 1.875
    endloop
  endfacet
  facet normal -0.744868 0.667211 0
    outer loop
      vertex 210.064 0.460876 2.125
      vertex 209.936 0.317978 1.875
      vertex 209.936 0.317978 2.125
    endloop
  endfacet
  facet normal -0.603849 0.797099 0
    outer loop
      vertex 209.936 0.317978 1.875
      vertex 209.78 0.199799 2.125
      vertex 209.936 0.317978 2.125
    endloop
  endfacet
  facet normal -0.603849 0.797099 0
    outer loop
      vertex 209.78 0.199799 2.125
      vertex 209.936 0.317978 1.875
      vertex 209.78 0.199799 1.875
    endloop
  endfacet
  facet normal -0.454734 0.890627 0
    outer loop
      vertex 209.78 0.199799 1.875
      vertex 209.6 0.107895 2.125
      vertex 209.78 0.199799 2.125
    endloop
  endfacet
  facet normal -0.454734 0.890627 0
    outer loop
      vertex 209.6 0.107895 2.125
      vertex 209.78 0.199799 1.875
      vertex 209.6 0.107895 1.875
    endloop
  endfacet
  facet normal -0.306314 0.951931 0
    outer loop
      vertex 209.6 0.107895 1.875
      vertex 209.396 0.0422516 2.125
      vertex 209.6 0.107895 2.125
    endloop
  endfacet
  facet normal -0.306314 0.951931 0
    outer loop
      vertex 209.396 0.0422516 2.125
      vertex 209.6 0.107895 1.875
      vertex 209.396 0.0422516 1.875
    endloop
  endfacet
  facet normal -0.170212 0.985408 0
    outer loop
      vertex 209.396 0.0422516 1.875
      vertex 209.168 0.00286865 2.125
      vertex 209.396 0.0422516 2.125
    endloop
  endfacet
  facet normal -0.170212 0.985408 0
    outer loop
      vertex 209.168 0.00286865 2.125
      vertex 209.396 0.0422516 1.875
      vertex 209.168 0.00286865 1.875
    endloop
  endfacet
  facet normal -0.0520032 0.998647 0
    outer loop
      vertex 209.168 0.00286865 1.875
      vertex 208.916 -0.0102539 2.125
      vertex 209.168 0.00286865 2.125
    endloop
  endfacet
  facet normal -0.0520032 0.998647 0
    outer loop
      vertex 208.916 -0.0102539 2.125
      vertex 209.168 0.00286865 1.875
      vertex 208.916 -0.0102539 1.875
    endloop
  endfacet
  facet normal 0 1 -0
    outer loop
      vertex 208.916 -0.0102539 1.875
      vertex 207.218 -0.0102539 2.125
      vertex 208.916 -0.0102539 2.125
    endloop
  endfacet
  facet normal 0 1 0
    outer loop
      vertex 207.218 -0.0102539 2.125
      vertex 208.916 -0.0102539 1.875
      vertex 207.218 -0.0102539 1.875
    endloop
  endfacet
  facet normal 0 1 -0
    outer loop
      vertex 214.412 1.93733 1.875
      vertex 212.887 1.93733 2.125
      vertex 214.412 1.93733 2.125
    endloop
  endfacet
  facet normal 0 1 0
    outer loop
      vertex 212.887 1.93733 2.125
      vertex 214.412 1.93733 1.875
      vertex 212.887 1.93733 1.875
    endloop
  endfacet
  facet normal -1 0 0
    outer loop
      vertex 212.887 -3.9325 1.875
      vertex 212.887 1.93733 2.125
      vertex 212.887 1.93733 1.875
    endloop
  endfacet
  facet normal -1 -0 0
    outer loop
      vertex 212.887 1.93733 2.125
      vertex 212.887 -3.9325 1.875
      vertex 212.887 -3.9325 2.125
    endloop
  endfacet
  facet normal 0 -1 0
    outer loop
      vertex 212.887 -3.9325 1.875
      vertex 214.412 -3.9325 2.125
      vertex 212.887 -3.9325 2.125
    endloop
  endfacet
  facet normal 0 -1 -0
    outer loop
      vertex 214.412 -3.9325 2.125
      vertex 212.887 -3.9325 1.875
      vertex 214.412 -3.9325 1.875
    endloop
  endfacet
  facet normal 1 -0 0
    outer loop
      vertex 214.412 -3.9325 2.125
      vertex 214.412 1.93733 1.875
      vertex 214.412 1.93733 2.125
    endloop
  endfacet
  facet normal 1 0 0
    outer loop
      vertex 214.412 1.93733 1.875
      vertex 214.412 -3.9325 2.125
      vertex 214.412 -3.9325 1.875
    endloop
  endfacet
endsolid OpenSCAD_Model
