solid OpenSCAD_Model
  facet normal 1 -0 0
    outer loop
      vertex 4.5 234 70
      vertex 4.5 238.2 68
      vertex 4.5 238.2 70
    endloop
  endfacet
  facet normal 1 0 0
    outer loop
      vertex 4.5 238.2 68
      vertex 4.5 234 70
      vertex 4.5 234 68
    endloop
  endfacet
  facet normal -0 0 1
    outer loop
      vertex 1.5 238.2 70
      vertex 4.5 234 70
      vertex 4.5 238.2 70
    endloop
  endfacet
  facet normal 0 0 1
    outer loop
      vertex 4.5 234 70
      vertex 1.5 238.2 70
      vertex 1.5 234 70
    endloop
  endfacet
  facet normal 0 0 -1
    outer loop
      vertex 1.5 234 68
      vertex 4.5 238.2 68
      vertex 4.5 234 68
    endloop
  endfacet
  facet normal -0 0 -1
    outer loop
      vertex 4.5 238.2 68
      vertex 1.5 234 68
      vertex 1.5 238.2 68
    endloop
  endfacet
  facet normal -1 0 0
    outer loop
      vertex 1.5 234 68
      vertex 1.5 238.2 70
      vertex 1.5 238.2 68
    endloop
  endfacet
  facet normal -1 -0 0
    outer loop
      vertex 1.5 238.2 70
      vertex 1.5 234 68
      vertex 1.5 234 70
    endloop
  endfacet
  facet normal 0 1 -0
    outer loop
      vertex 4.5 238.2 68
      vertex 1.5 238.2 70
      vertex 4.5 238.2 70
    endloop
  endfacet
  facet normal 0 1 0
    outer loop
      vertex 1.5 238.2 70
      vertex 4.5 238.2 68
      vertex 1.5 238.2 68
    endloop
  endfacet
  facet normal 0 -1 0
    outer loop
      vertex 1.5 234 68
      vertex 4.5 234 70
      vertex 1.5 234 70
    endloop
  endfacet
  facet normal 0 -1 -0
    outer loop
      vertex 4.5 234 70
      vertex 1.5 234 68
      vertex 4.5 234 68
    endloop
  endfacet
  facet normal 1 -0 0
    outer loop
      vertex 78.5 234 70
      vertex 78.5 238.2 68
      vertex 78.5 238.2 70
    endloop
  endfacet
  facet normal 1 0 0
    outer loop
      vertex 78.5 238.2 68
      vertex 78.5 234 70
      vertex 78.5 234 68
    endloop
  endfacet
  facet normal -0 0 1
    outer loop
      vertex 75.5 238.2 70
      vertex 78.5 234 70
      vertex 78.5 238.2 70
    endloop
  endfacet
  facet normal 0 0 1
    outer loop
      vertex 78.5 234 70
      vertex 75.5 238.2 70
      vertex 75.5 234 70
    endloop
  endfacet
  facet normal 0 0 -1
    outer loop
      vertex 75.5 234 68
      vertex 78.5 238.2 68
      vertex 78.5 234 68
    endloop
  endfacet
  facet normal -0 0 -1
    outer loop
      vertex 78.5 238.2 68
      vertex 75.5 234 68
      vertex 75.5 238.2 68
    endloop
  endfacet
  facet normal -1 0 0
    outer loop
      vertex 75.5 234 68
      vertex 75.5 238.2 70
      vertex 75.5 238.2 68
    endloop
  endfacet
  facet normal -1 -0 0
    outer loop
      vertex 75.5 238.2 70
      vertex 75.5 234 68
      vertex 75.5 234 70
    endloop
  endfacet
  facet normal 0 1 -0
    outer loop
      vertex 78.5 238.2 68
      vertex 75.5 238.2 70
      vertex 78.5 238.2 70
    endloop
  endfacet
  facet normal 0 1 0
    outer loop
      vertex 75.5 238.2 70
      vertex 78.5 238.2 68
      vertex 75.5 238.2 68
    endloop
  endfacet
  facet normal 0 -1 0
    outer loop
      vertex 75.5 234 68
      vertex 78.5 234 70
      vertex 75.5 234 70
    endloop
  endfacet
  facet normal 0 -1 -0
    outer loop
      vertex 78.5 234 70
      vertex 75.5 234 68
      vertex 78.5 234 68
    endloop
  endfacet
endsolid OpenSCAD_Model
