solid OpenSCAD_Model
  facet normal -0.258848 -0.965918 0
    outer loop
      vertex -74.2365 -64.8481 0
      vertex -75.9202 -64.3969 19.3969
      vertex -75.9202 -64.3969 0
    endloop
  endfacet
  facet normal -0.258848 -0.965918 0
    outer loop
      vertex -75.9202 -64.3969 19.3969
      vertex -74.2365 -64.8481 0
      vertex -74.2365 -64.8481 19.8481
    endloop
  endfacet
  facet normal 0 1 -0
    outer loop
      vertex 82.5 65 0
      vertex -72.5 65 20
      vertex 82.5 65 20
    endloop
  endfacet
  facet normal 0 1 0
    outer loop
      vertex -72.5 65 20
      vertex 82.5 65 0
      vertex -72.5 65 0
    endloop
  endfacet
  facet normal -1 0 0
    outer loop
      vertex -82.5 -55 0
      vertex -82.5 55 10
      vertex -82.5 55 0
    endloop
  endfacet
  facet normal -1 -0 0
    outer loop
      vertex -82.5 55 10
      vertex -82.5 -55 0
      vertex -82.5 -55 10
    endloop
  endfacet
  facet normal -0.087142 0.996196 0
    outer loop
      vertex -72.5 65 0
      vertex -74.2365 64.8481 19.8481
      vertex -72.5 65 20
    endloop
  endfacet
  facet normal -0.087142 0.996196 0
    outer loop
      vertex -74.2365 64.8481 19.8481
      vertex -72.5 65 0
      vertex -74.2365 64.8481 0
    endloop
  endfacet
  facet normal 0 -1 0
    outer loop
      vertex -72.5 -65 0
      vertex 82.5 -65 20
      vertex -72.5 -65 20
    endloop
  endfacet
  facet normal 0 -1 -0
    outer loop
      vertex 82.5 -65 20
      vertex -72.5 -65 0
      vertex 82.5 -65 0
    endloop
  endfacet
  facet normal -0.707107 -0.707107 0
    outer loop
      vertex -78.9279 -62.6604 0
      vertex -80.1604 -61.4279 16.4279
      vertex -80.1604 -61.4279 0
    endloop
  endfacet
  facet normal -0.707107 -0.707107 0
    outer loop
      vertex -80.1604 -61.4279 16.4279
      vertex -78.9279 -62.6604 0
      vertex -78.9279 -62.6604 17.6604
    endloop
  endfacet
  facet normal -0.965918 0.258848 0
    outer loop
      vertex -82.3481 56.7365 11.7365
      vertex -81.8969 58.4202 0
      vertex -82.3481 56.7365 0
    endloop
  endfacet
  facet normal -0.965918 0.258848 0
    outer loop
      vertex -81.8969 58.4202 0
      vertex -82.3481 56.7365 11.7365
      vertex -81.8969 58.4202 13.4202
    endloop
  endfacet
  facet normal -0.996196 -0.087142 0
    outer loop
      vertex -82.3481 -56.7365 0
      vertex -82.5 -55 10
      vertex -82.5 -55 0
    endloop
  endfacet
  facet normal -0.996196 -0.087142 0
    outer loop
      vertex -82.5 -55 10
      vertex -82.3481 -56.7365 0
      vertex -82.3481 -56.7365 11.7365
    endloop
  endfacet
  facet normal -0.087142 -0.996196 0
    outer loop
      vertex -72.5 -65 0
      vertex -74.2365 -64.8481 19.8481
      vertex -74.2365 -64.8481 0
    endloop
  endfacet
  facet normal -0.087142 -0.996196 0
    outer loop
      vertex -74.2365 -64.8481 19.8481
      vertex -72.5 -65 0
      vertex -72.5 -65 20
    endloop
  endfacet
  facet normal -0.906324 -0.422584 0
    outer loop
      vertex -81.1603 -60 0
      vertex -81.8969 -58.4202 13.4202
      vertex -81.8969 -58.4202 0
    endloop
  endfacet
  facet normal -0.906324 -0.422584 0
    outer loop
      vertex -81.8969 -58.4202 13.4202
      vertex -81.1603 -60 0
      vertex -81.1603 -60 15
    endloop
  endfacet
  facet normal -0.819132 0.573605 0
    outer loop
      vertex -81.1603 60 15
      vertex -80.1604 61.4279 0
      vertex -81.1603 60 0
    endloop
  endfacet
  facet normal -0.819132 0.573605 0
    outer loop
      vertex -80.1604 61.4279 0
      vertex -81.1603 60 15
      vertex -80.1604 61.4279 16.4279
    endloop
  endfacet
  facet normal -0.573605 0.819132 0
    outer loop
      vertex -77.5 63.6603 0
      vertex -78.9279 62.6604 17.6604
      vertex -77.5 63.6603 18.6603
    endloop
  endfacet
  facet normal -0.573605 0.819132 0
    outer loop
      vertex -78.9279 62.6604 17.6604
      vertex -77.5 63.6603 0
      vertex -78.9279 62.6604 0
    endloop
  endfacet
  facet normal -0.422584 0.906324 0
    outer loop
      vertex -75.9202 64.3969 0
      vertex -77.5 63.6603 18.6603
      vertex -75.9202 64.3969 19.3969
    endloop
  endfacet
  facet normal -0.422584 0.906324 0
    outer loop
      vertex -77.5 63.6603 18.6603
      vertex -75.9202 64.3969 0
      vertex -77.5 63.6603 0
    endloop
  endfacet
  facet normal -0.906324 0.422584 0
    outer loop
      vertex -81.8969 58.4202 13.4202
      vertex -81.1603 60 0
      vertex -81.8969 58.4202 0
    endloop
  endfacet
  facet normal -0.906324 0.422584 0
    outer loop
      vertex -81.1603 60 0
      vertex -81.8969 58.4202 13.4202
      vertex -81.1603 60 15
    endloop
  endfacet
  facet normal -0.819132 -0.573605 0
    outer loop
      vertex -80.1604 -61.4279 0
      vertex -81.1603 -60 15
      vertex -81.1603 -60 0
    endloop
  endfacet
  facet normal -0.819132 -0.573605 0
    outer loop
      vertex -81.1603 -60 15
      vertex -80.1604 -61.4279 0
      vertex -80.1604 -61.4279 16.4279
    endloop
  endfacet
  facet normal -0.707107 0.707107 0
    outer loop
      vertex -78.9279 62.6604 0
      vertex -80.1604 61.4279 16.4279
      vertex -78.9279 62.6604 17.6604
    endloop
  endfacet
  facet normal -0.707107 0.707107 0
    outer loop
      vertex -80.1604 61.4279 16.4279
      vertex -78.9279 62.6604 0
      vertex -80.1604 61.4279 0
    endloop
  endfacet
  facet normal -0.965918 -0.258848 0
    outer loop
      vertex -81.8969 -58.4202 0
      vertex -82.3481 -56.7365 11.7365
      vertex -82.3481 -56.7365 0
    endloop
  endfacet
  facet normal -0.965918 -0.258848 0
    outer loop
      vertex -82.3481 -56.7365 11.7365
      vertex -81.8969 -58.4202 0
      vertex -81.8969 -58.4202 13.4202
    endloop
  endfacet
  facet normal -0.573605 -0.819132 0
    outer loop
      vertex -77.5 -63.6603 0
      vertex -78.9279 -62.6604 17.6604
      vertex -78.9279 -62.6604 0
    endloop
  endfacet
  facet normal -0.573605 -0.819132 0
    outer loop
      vertex -78.9279 -62.6604 17.6604
      vertex -77.5 -63.6603 0
      vertex -77.5 -63.6603 18.6603
    endloop
  endfacet
  facet normal -0.422584 -0.906324 0
    outer loop
      vertex -75.9202 -64.3969 0
      vertex -77.5 -63.6603 18.6603
      vertex -77.5 -63.6603 0
    endloop
  endfacet
  facet normal -0.422584 -0.906324 0
    outer loop
      vertex -77.5 -63.6603 18.6603
      vertex -75.9202 -64.3969 0
      vertex -75.9202 -64.3969 19.3969
    endloop
  endfacet
  facet normal -0.996196 0.087142 0
    outer loop
      vertex -82.5 55 10
      vertex -82.3481 56.7365 0
      vertex -82.5 55 0
    endloop
  endfacet
  facet normal -0.996196 0.087142 0
    outer loop
      vertex -82.3481 56.7365 0
      vertex -82.5 55 10
      vertex -82.3481 56.7365 11.7365
    endloop
  endfacet
  facet normal -0.258848 0.965918 0
    outer loop
      vertex -74.2365 64.8481 0
      vertex -75.9202 64.3969 19.3969
      vertex -74.2365 64.8481 19.8481
    endloop
  endfacet
  facet normal -0.258848 0.965918 0
    outer loop
      vertex -75.9202 64.3969 19.3969
      vertex -74.2365 64.8481 0
      vertex -75.9202 64.3969 0
    endloop
  endfacet
  facet normal -0.965918 0 0.258848
    outer loop
      vertex -82.3481 -56.7365 11.7365
      vertex -81.8969 58.4202 13.4202
      vertex -82.3481 56.7365 11.7365
    endloop
  endfacet
  facet normal -0.965918 0 0.258848
    outer loop
      vertex -81.8969 58.4202 13.4202
      vertex -82.3481 -56.7365 11.7365
      vertex -81.8969 -58.4202 13.4202
    endloop
  endfacet
  facet normal -0.573605 0 0.819132
    outer loop
      vertex -78.9279 62.6604 17.6604
      vertex -77.5 -63.6603 18.6603
      vertex -77.5 63.6603 18.6603
    endloop
  endfacet
  facet normal -0.573605 0 0.819132
    outer loop
      vertex -77.5 -63.6603 18.6603
      vertex -78.9279 62.6604 17.6604
      vertex -78.9279 -62.6604 17.6604
    endloop
  endfacet
  facet normal -0.422584 0 0.906324
    outer loop
      vertex -77.5 63.6603 18.6603
      vertex -75.9202 -64.3969 19.3969
      vertex -75.9202 64.3969 19.3969
    endloop
  endfacet
  facet normal -0.422584 0 0.906324
    outer loop
      vertex -75.9202 -64.3969 19.3969
      vertex -77.5 63.6603 18.6603
      vertex -77.5 -63.6603 18.6603
    endloop
  endfacet
  facet normal -0 0 1
    outer loop
      vertex 63.9772 -14.7395 20
      vertex 82.5 -65 20
      vertex 63.9772 14.7395 20
    endloop
  endfacet
  facet normal 0 0 1
    outer loop
      vertex 82.5 -65 20
      vertex 63.9772 -14.7395 20
      vertex 64 -15 20
    endloop
  endfacet
  facet normal -0 0 1
    outer loop
      vertex 63.9095 14.487 20
      vertex 63.9772 -14.7395 20
      vertex 63.9772 14.7395 20
    endloop
  endfacet
  facet normal 0 0 1
    outer loop
      vertex 63.9095 14.487 20
      vertex 63.9095 -14.487 20
      vertex 63.9772 -14.7395 20
    endloop
  endfacet
  facet normal -0 0 1
    outer loop
      vertex 63.799 14.25 20
      vertex 63.9095 -14.487 20
      vertex 63.9095 14.487 20
    endloop
  endfacet
  facet normal 0 0 1
    outer loop
      vertex 63.799 14.25 20
      vertex 63.799 -14.25 20
      vertex 63.9095 -14.487 20
    endloop
  endfacet
  facet normal -0 0 1
    outer loop
      vertex 63.6491 14.0358 20
      vertex 63.799 -14.25 20
      vertex 63.799 14.25 20
    endloop
  endfacet
  facet normal 0 0 1
    outer loop
      vertex 63.6491 14.0358 20
      vertex 63.6491 -14.0358 20
      vertex 63.799 -14.25 20
    endloop
  endfacet
  facet normal -0 0 1
    outer loop
      vertex 63.4642 13.8509 20
      vertex 63.6491 -14.0358 20
      vertex 63.6491 14.0358 20
    endloop
  endfacet
  facet normal 0 0 1
    outer loop
      vertex 63.4642 13.8509 20
      vertex 63.4642 -13.8509 20
      vertex 63.6491 -14.0358 20
    endloop
  endfacet
  facet normal -0 0 1
    outer loop
      vertex 63.25 13.701 20
      vertex 63.4642 -13.8509 20
      vertex 63.4642 13.8509 20
    endloop
  endfacet
  facet normal 0 0 1
    outer loop
      vertex 63.25 13.701 20
      vertex 63.25 -13.701 20
      vertex 63.4642 -13.8509 20
    endloop
  endfacet
  facet normal -0 0 1
    outer loop
      vertex 63.013 13.5905 20
      vertex 63.25 -13.701 20
      vertex 63.25 13.701 20
    endloop
  endfacet
  facet normal 0 0 1
    outer loop
      vertex 63.013 13.5905 20
      vertex 63.013 -13.5905 20
      vertex 63.25 -13.701 20
    endloop
  endfacet
  facet normal -0 0 1
    outer loop
      vertex 62.7605 13.5228 20
      vertex 63.013 -13.5905 20
      vertex 63.013 13.5905 20
    endloop
  endfacet
  facet normal 0 0 1
    outer loop
      vertex 62.7605 13.5228 20
      vertex 62.7605 -13.5228 20
      vertex 63.013 -13.5905 20
    endloop
  endfacet
  facet normal -0 0 1
    outer loop
      vertex 62.5 13.5 20
      vertex 62.7605 -13.5228 20
      vertex 62.7605 13.5228 20
    endloop
  endfacet
  facet normal 0 0 1
    outer loop
      vertex 62.5 13.5 20
      vertex 62.5 -13.5 20
      vertex 62.7605 -13.5228 20
    endloop
  endfacet
  facet normal 0 0 1
    outer loop
      vertex 62.2395 13.5228 20
      vertex 62.5 -13.5 20
      vertex 62.5 13.5 20
    endloop
  endfacet
  facet normal 0 0 1
    outer loop
      vertex 62.2395 13.5228 20
      vertex 62.2395 -13.5228 20
      vertex 62.5 -13.5 20
    endloop
  endfacet
  facet normal 0 0 1
    outer loop
      vertex 61.987 13.5905 20
      vertex 62.2395 -13.5228 20
      vertex 62.2395 13.5228 20
    endloop
  endfacet
  facet normal 0 0 1
    outer loop
      vertex 61.987 13.5905 20
      vertex 61.987 -13.5905 20
      vertex 62.2395 -13.5228 20
    endloop
  endfacet
  facet normal 0 0 1
    outer loop
      vertex 61.75 13.701 20
      vertex 61.987 -13.5905 20
      vertex 61.987 13.5905 20
    endloop
  endfacet
  facet normal 0 0 1
    outer loop
      vertex 61.75 13.701 20
      vertex 61.75 -13.701 20
      vertex 61.987 -13.5905 20
    endloop
  endfacet
  facet normal 0 0 1
    outer loop
      vertex 61.5358 13.8509 20
      vertex 61.75 -13.701 20
      vertex 61.75 13.701 20
    endloop
  endfacet
  facet normal 0 0 1
    outer loop
      vertex 61.5358 13.8509 20
      vertex 61.5358 -13.8509 20
      vertex 61.75 -13.701 20
    endloop
  endfacet
  facet normal 0 0 1
    outer loop
      vertex 61.3509 14.0358 20
      vertex 61.5358 -13.8509 20
      vertex 61.5358 13.8509 20
    endloop
  endfacet
  facet normal 0 0 1
    outer loop
      vertex 61.3509 14.0358 20
      vertex 61.3509 -14.0358 20
      vertex 61.5358 -13.8509 20
    endloop
  endfacet
  facet normal 0 0 1
    outer loop
      vertex 61.201 14.25 20
      vertex 61.3509 -14.0358 20
      vertex 61.3509 14.0358 20
    endloop
  endfacet
  facet normal 0 0 1
    outer loop
      vertex 61.201 14.25 20
      vertex 61.201 -14.25 20
      vertex 61.3509 -14.0358 20
    endloop
  endfacet
  facet normal 0 0 1
    outer loop
      vertex 61.0905 14.487 20
      vertex 61.201 -14.25 20
      vertex 61.201 14.25 20
    endloop
  endfacet
  facet normal 0 0 1
    outer loop
      vertex 61.0905 14.487 20
      vertex 61.0905 -14.487 20
      vertex 61.201 -14.25 20
    endloop
  endfacet
  facet normal 0 0 1
    outer loop
      vertex 61.0228 14.7395 20
      vertex 61.0905 -14.487 20
      vertex 61.0905 14.487 20
    endloop
  endfacet
  facet normal 0 0 1
    outer loop
      vertex 61.0228 14.7395 20
      vertex 61.0228 -14.7395 20
      vertex 61.0905 -14.487 20
    endloop
  endfacet
  facet normal 0 0 1
    outer loop
      vertex -72.5 65 20
      vertex 61.0228 14.7395 20
      vertex 61 15 20
    endloop
  endfacet
  facet normal 0 0 1
    outer loop
      vertex 61.0228 14.7395 20
      vertex -72.5 65 20
      vertex 61.0228 -14.7395 20
    endloop
  endfacet
  facet normal 0 0 1
    outer loop
      vertex 63.9772 14.7395 20
      vertex 82.5 65 20
      vertex 64 15 20
    endloop
  endfacet
  facet normal 0 0 1
    outer loop
      vertex 82.5 65 20
      vertex 63.9772 15.2605 20
      vertex 64 15 20
    endloop
  endfacet
  facet normal 0 0 1
    outer loop
      vertex 82.5 65 20
      vertex 63.9095 15.513 20
      vertex 63.9772 15.2605 20
    endloop
  endfacet
  facet normal 0 0 1
    outer loop
      vertex 82.5 65 20
      vertex 63.799 15.75 20
      vertex 63.9095 15.513 20
    endloop
  endfacet
  facet normal 0 0 1
    outer loop
      vertex 82.5 65 20
      vertex 63.6491 15.9642 20
      vertex 63.799 15.75 20
    endloop
  endfacet
  facet normal 0 0 1
    outer loop
      vertex 82.5 65 20
      vertex 63.4642 16.1491 20
      vertex 63.6491 15.9642 20
    endloop
  endfacet
  facet normal 0 0 1
    outer loop
      vertex 82.5 65 20
      vertex 63.25 16.299 20
      vertex 63.4642 16.1491 20
    endloop
  endfacet
  facet normal 0 0 1
    outer loop
      vertex 82.5 65 20
      vertex 63.013 16.4095 20
      vertex 63.25 16.299 20
    endloop
  endfacet
  facet normal 0 0 1
    outer loop
      vertex 82.5 65 20
      vertex 62.7605 16.4772 20
      vertex 63.013 16.4095 20
    endloop
  endfacet
  facet normal 0 0 1
    outer loop
      vertex 82.5 65 20
      vertex 62.5 16.5 20
      vertex 62.7605 16.4772 20
    endloop
  endfacet
  facet normal 0 0 1
    outer loop
      vertex 82.5 65 20
      vertex 62.2395 16.4772 20
      vertex 62.5 16.5 20
    endloop
  endfacet
  facet normal 0 0 1
    outer loop
      vertex 82.5 65 20
      vertex 61.987 16.4095 20
      vertex 62.2395 16.4772 20
    endloop
  endfacet
  facet normal 0 0 1
    outer loop
      vertex 82.5 65 20
      vertex 61.75 16.299 20
      vertex 61.987 16.4095 20
    endloop
  endfacet
  facet normal 0 0 1
    outer loop
      vertex 82.5 65 20
      vertex 61.5358 16.1491 20
      vertex 61.75 16.299 20
    endloop
  endfacet
  facet normal 0 0 1
    outer loop
      vertex 82.5 65 20
      vertex 61.3509 15.9642 20
      vertex 61.5358 16.1491 20
    endloop
  endfacet
  facet normal -0 0 1
    outer loop
      vertex -72.5 65 20
      vertex 61.3509 15.9642 20
      vertex 82.5 65 20
    endloop
  endfacet
  facet normal 0 0 1
    outer loop
      vertex 61.3509 15.9642 20
      vertex -72.5 65 20
      vertex 61.201 15.75 20
    endloop
  endfacet
  facet normal 0 0 1
    outer loop
      vertex -72.5 -65 20
      vertex 61.0228 -14.7395 20
      vertex -72.5 65 20
    endloop
  endfacet
  facet normal 0 0 1
    outer loop
      vertex 61.0228 15.2605 20
      vertex -72.5 65 20
      vertex 61 15 20
    endloop
  endfacet
  facet normal 0 0 1
    outer loop
      vertex 61.0905 15.513 20
      vertex -72.5 65 20
      vertex 61.0228 15.2605 20
    endloop
  endfacet
  facet normal 0 0 1
    outer loop
      vertex 61.201 15.75 20
      vertex -72.5 65 20
      vertex 61.0905 15.513 20
    endloop
  endfacet
  facet normal 0 0 1
    outer loop
      vertex 82.5 65 20
      vertex 63.9772 14.7395 20
      vertex 82.5 -65 20
    endloop
  endfacet
  facet normal -0 0 1
    outer loop
      vertex 63.9772 -15.2605 20
      vertex 82.5 -65 20
      vertex 64 -15 20
    endloop
  endfacet
  facet normal -0 0 1
    outer loop
      vertex 63.9095 -15.513 20
      vertex 82.5 -65 20
      vertex 63.9772 -15.2605 20
    endloop
  endfacet
  facet normal -0 0 1
    outer loop
      vertex 63.799 -15.75 20
      vertex 82.5 -65 20
      vertex 63.9095 -15.513 20
    endloop
  endfacet
  facet normal -0 0 1
    outer loop
      vertex 63.6491 -15.9642 20
      vertex 82.5 -65 20
      vertex 63.799 -15.75 20
    endloop
  endfacet
  facet normal -0 0 1
    outer loop
      vertex 63.4642 -16.1491 20
      vertex 82.5 -65 20
      vertex 63.6491 -15.9642 20
    endloop
  endfacet
  facet normal -0 0 1
    outer loop
      vertex 63.25 -16.299 20
      vertex 82.5 -65 20
      vertex 63.4642 -16.1491 20
    endloop
  endfacet
  facet normal -0 0 1
    outer loop
      vertex 63.013 -16.4095 20
      vertex 82.5 -65 20
      vertex 63.25 -16.299 20
    endloop
  endfacet
  facet normal -0 0 1
    outer loop
      vertex 62.7605 -16.4772 20
      vertex 82.5 -65 20
      vertex 63.013 -16.4095 20
    endloop
  endfacet
  facet normal -0 0 1
    outer loop
      vertex 62.5 -16.5 20
      vertex 82.5 -65 20
      vertex 62.7605 -16.4772 20
    endloop
  endfacet
  facet normal 0 0 1
    outer loop
      vertex 62.2395 -16.4772 20
      vertex 82.5 -65 20
      vertex 62.5 -16.5 20
    endloop
  endfacet
  facet normal 0 0 1
    outer loop
      vertex 61.987 -16.4095 20
      vertex 82.5 -65 20
      vertex 62.2395 -16.4772 20
    endloop
  endfacet
  facet normal 0 0 1
    outer loop
      vertex 61.75 -16.299 20
      vertex 82.5 -65 20
      vertex 61.987 -16.4095 20
    endloop
  endfacet
  facet normal 0 0 1
    outer loop
      vertex 61.5358 -16.1491 20
      vertex 82.5 -65 20
      vertex 61.75 -16.299 20
    endloop
  endfacet
  facet normal 0 0 1
    outer loop
      vertex 61.3509 -15.9642 20
      vertex 82.5 -65 20
      vertex 61.5358 -16.1491 20
    endloop
  endfacet
  facet normal 0 0 1
    outer loop
      vertex -72.5 -65 20
      vertex 61.3509 -15.9642 20
      vertex 61.201 -15.75 20
    endloop
  endfacet
  facet normal 0 0 1
    outer loop
      vertex -72.5 -65 20
      vertex 61.201 -15.75 20
      vertex 61.0905 -15.513 20
    endloop
  endfacet
  facet normal 0 0 1
    outer loop
      vertex 61.0228 -14.7395 20
      vertex -72.5 -65 20
      vertex 61 -15 20
    endloop
  endfacet
  facet normal 0 0 1
    outer loop
      vertex 61 -15 20
      vertex -72.5 -65 20
      vertex 61.0228 -15.2605 20
    endloop
  endfacet
  facet normal 0 0 1
    outer loop
      vertex 61.0228 -15.2605 20
      vertex -72.5 -65 20
      vertex 61.0905 -15.513 20
    endloop
  endfacet
  facet normal 0 0 1
    outer loop
      vertex 61.3509 -15.9642 20
      vertex -72.5 -65 20
      vertex 82.5 -65 20
    endloop
  endfacet
  facet normal -0.906324 0 0.422584
    outer loop
      vertex -81.8969 -58.4202 13.4202
      vertex -81.1603 60 15
      vertex -81.8969 58.4202 13.4202
    endloop
  endfacet
  facet normal -0.906324 0 0.422584
    outer loop
      vertex -81.1603 60 15
      vertex -81.8969 -58.4202 13.4202
      vertex -81.1603 -60 15
    endloop
  endfacet
  facet normal -0.087142 0 0.996196
    outer loop
      vertex -74.2365 64.8481 19.8481
      vertex -72.5 -65 20
      vertex -72.5 65 20
    endloop
  endfacet
  facet normal -0.087142 0 0.996196
    outer loop
      vertex -72.5 -65 20
      vertex -74.2365 64.8481 19.8481
      vertex -74.2365 -64.8481 19.8481
    endloop
  endfacet
  facet normal -0.707107 0 0.707107
    outer loop
      vertex -80.1604 61.4279 16.4279
      vertex -78.9279 -62.6604 17.6604
      vertex -78.9279 62.6604 17.6604
    endloop
  endfacet
  facet normal -0.707107 0 0.707107
    outer loop
      vertex -78.9279 -62.6604 17.6604
      vertex -80.1604 61.4279 16.4279
      vertex -80.1604 -61.4279 16.4279
    endloop
  endfacet
  facet normal -0.258848 0 0.965918
    outer loop
      vertex -75.9202 64.3969 19.3969
      vertex -74.2365 -64.8481 19.8481
      vertex -74.2365 64.8481 19.8481
    endloop
  endfacet
  facet normal -0.258848 0 0.965918
    outer loop
      vertex -74.2365 -64.8481 19.8481
      vertex -75.9202 64.3969 19.3969
      vertex -75.9202 -64.3969 19.3969
    endloop
  endfacet
  facet normal -0.996196 0 0.087142
    outer loop
      vertex -82.5 -55 10
      vertex -82.3481 56.7365 11.7365
      vertex -82.5 55 10
    endloop
  endfacet
  facet normal -0.996196 0 0.087142
    outer loop
      vertex -82.3481 56.7365 11.7365
      vertex -82.5 -55 10
      vertex -82.3481 -56.7365 11.7365
    endloop
  endfacet
  facet normal -0.819132 0 0.573605
    outer loop
      vertex -81.1603 -60 15
      vertex -80.1604 61.4279 16.4279
      vertex -81.1603 60 15
    endloop
  endfacet
  facet normal -0.819132 0 0.573605
    outer loop
      vertex -80.1604 61.4279 16.4279
      vertex -81.1603 -60 15
      vertex -80.1604 -61.4279 16.4279
    endloop
  endfacet
  facet normal 1 0 0
    outer loop
      vertex 82.5 65 20
      vertex 82.5 61.75 16
      vertex 82.5 65 0
    endloop
  endfacet
  facet normal 1 0 0
    outer loop
      vertex 82.5 65 20
      vertex 82.5 -61.75 16
      vertex 82.5 61.75 16
    endloop
  endfacet
  facet normal 1 -0 0
    outer loop
      vertex 82.5 -65 20
      vertex 82.5 -61.75 16
      vertex 82.5 65 20
    endloop
  endfacet
  facet normal 1 0 0
    outer loop
      vertex 82.5 -65 0
      vertex 82.5 -61.75 16
      vertex 82.5 -65 20
    endloop
  endfacet
  facet normal 1 0 0
    outer loop
      vertex 82.5 -61.75 16
      vertex 82.5 -65 0
      vertex 82.5 -61.75 0
    endloop
  endfacet
  facet normal 1 0 0
    outer loop
      vertex 82.5 65 0
      vertex 82.5 61.75 16
      vertex 82.5 61.75 0
    endloop
  endfacet
  facet normal 0 0 -1
    outer loop
      vertex 82.5 -65 0
      vertex -68.875 -61.75 0
      vertex 82.5 -61.75 0
    endloop
  endfacet
  facet normal 0 0 -1
    outer loop
      vertex -72.5 -65 0
      vertex -68.875 -61.75 0
      vertex 82.5 -65 0
    endloop
  endfacet
  facet normal 0 0 -1
    outer loop
      vertex -72.5 -65 0
      vertex -70.5247 -61.6057 0
      vertex -68.875 -61.75 0
    endloop
  endfacet
  facet normal 0 0 -1
    outer loop
      vertex -72.5 -65 0
      vertex -72.1242 -61.1771 0
      vertex -70.5247 -61.6057 0
    endloop
  endfacet
  facet normal 0 0 -1
    outer loop
      vertex -74.2365 -64.8481 0
      vertex -72.1242 -61.1771 0
      vertex -72.5 -65 0
    endloop
  endfacet
  facet normal -0 0 -1
    outer loop
      vertex -72.1242 -61.1771 0
      vertex -74.2365 -64.8481 0
      vertex -73.625 -60.4772 0
    endloop
  endfacet
  facet normal 0 0 -1
    outer loop
      vertex -75.9202 -64.3969 0
      vertex -73.625 -60.4772 0
      vertex -74.2365 -64.8481 0
    endloop
  endfacet
  facet normal -0 0 -1
    outer loop
      vertex -73.625 -60.4772 0
      vertex -75.9202 -64.3969 0
      vertex -74.9815 -59.5274 0
    endloop
  endfacet
  facet normal 0 0 -1
    outer loop
      vertex -77.5 -63.6603 0
      vertex -74.9815 -59.5274 0
      vertex -75.9202 -64.3969 0
    endloop
  endfacet
  facet normal 0 0 -1
    outer loop
      vertex -78.9279 -62.6604 0
      vertex -74.9815 -59.5274 0
      vertex -77.5 -63.6603 0
    endloop
  endfacet
  facet normal -0 0 -1
    outer loop
      vertex -74.9815 -59.5274 0
      vertex -78.9279 -62.6604 0
      vertex -76.1524 -58.3565 0
    endloop
  endfacet
  facet normal 0 0 -1
    outer loop
      vertex -80.1604 -61.4279 0
      vertex -76.1524 -58.3565 0
      vertex -78.9279 -62.6604 0
    endloop
  endfacet
  facet normal 0 0 -1
    outer loop
      vertex -81.1603 -60 0
      vertex -76.1524 -58.3565 0
      vertex -80.1604 -61.4279 0
    endloop
  endfacet
  facet normal -0 0 -1
    outer loop
      vertex -76.1524 -58.3565 0
      vertex -81.1603 -60 0
      vertex -77.1022 -57 0
    endloop
  endfacet
  facet normal -0 0 -1
    outer loop
      vertex -77.1022 -57 0
      vertex -81.8969 -58.4202 0
      vertex -77.8021 -55.4992 0
    endloop
  endfacet
  facet normal 0 0 -1
    outer loop
      vertex -81.8969 -58.4202 0
      vertex -77.1022 -57 0
      vertex -81.1603 -60 0
    endloop
  endfacet
  facet normal 0 0 -1
    outer loop
      vertex -68.875 61.75 0
      vertex 82.5 65 0
      vertex 82.5 61.75 0
    endloop
  endfacet
  facet normal 0 0 -1
    outer loop
      vertex -68.875 61.75 0
      vertex -72.5 65 0
      vertex 82.5 65 0
    endloop
  endfacet
  facet normal 0 0 -1
    outer loop
      vertex -70.5247 61.6057 0
      vertex -72.5 65 0
      vertex -68.875 61.75 0
    endloop
  endfacet
  facet normal 0 0 -1
    outer loop
      vertex -72.1242 61.1771 0
      vertex -72.5 65 0
      vertex -70.5247 61.6057 0
    endloop
  endfacet
  facet normal 0 0 -1
    outer loop
      vertex -74.2365 64.8481 0
      vertex -72.1242 61.1771 0
      vertex -73.625 60.4772 0
    endloop
  endfacet
  facet normal 0 0 -1
    outer loop
      vertex -72.1242 61.1771 0
      vertex -74.2365 64.8481 0
      vertex -72.5 65 0
    endloop
  endfacet
  facet normal 0 0 -1
    outer loop
      vertex -75.9202 64.3969 0
      vertex -73.625 60.4772 0
      vertex -74.9815 59.5274 0
    endloop
  endfacet
  facet normal 0 0 -1
    outer loop
      vertex -73.625 60.4772 0
      vertex -75.9202 64.3969 0
      vertex -74.2365 64.8481 0
    endloop
  endfacet
  facet normal 0 0 -1
    outer loop
      vertex -78.9279 62.6604 0
      vertex -74.9815 59.5274 0
      vertex -76.1524 58.3565 0
    endloop
  endfacet
  facet normal 0 0 -1
    outer loop
      vertex -81.1603 60 0
      vertex -76.1524 58.3565 0
      vertex -77.1022 57 0
    endloop
  endfacet
  facet normal 0 0 -1
    outer loop
      vertex -74.9815 59.5274 0
      vertex -77.5 63.6603 0
      vertex -75.9202 64.3969 0
    endloop
  endfacet
  facet normal 0 0 -1
    outer loop
      vertex -81.8969 58.4202 0
      vertex -77.1022 57 0
      vertex -77.8021 55.4992 0
    endloop
  endfacet
  facet normal 0 0 -1
    outer loop
      vertex -82.5 55 0
      vertex -77.8021 55.4992 0
      vertex -78.2307 53.8997 0
    endloop
  endfacet
  facet normal 0 0 -1
    outer loop
      vertex -82.5 55 0
      vertex -78.2307 53.8997 0
      vertex -78.375 52.25 0
    endloop
  endfacet
  facet normal 0 0 -1
    outer loop
      vertex -74.9815 59.5274 0
      vertex -78.9279 62.6604 0
      vertex -77.5 63.6603 0
    endloop
  endfacet
  facet normal -0 0 -1
    outer loop
      vertex -78.375 -52.25 0
      vertex -82.5 -55 0
      vertex -78.375 52.25 0
    endloop
  endfacet
  facet normal 0 0 -1
    outer loop
      vertex -82.3481 -56.7365 0
      vertex -77.8021 -55.4992 0
      vertex -81.8969 -58.4202 0
    endloop
  endfacet
  facet normal 0 0 -1
    outer loop
      vertex -82.5 55 0
      vertex -78.375 52.25 0
      vertex -82.5 -55 0
    endloop
  endfacet
  facet normal 0 0 -1
    outer loop
      vertex -82.5 -55 0
      vertex -77.8021 -55.4992 0
      vertex -82.3481 -56.7365 0
    endloop
  endfacet
  facet normal -0 0 -1
    outer loop
      vertex -77.8021 55.4992 0
      vertex -82.5 55 0
      vertex -82.3481 56.7365 0
    endloop
  endfacet
  facet normal 0 0 -1
    outer loop
      vertex -77.8021 -55.4992 0
      vertex -82.5 -55 0
      vertex -78.2307 -53.8997 0
    endloop
  endfacet
  facet normal 0 0 -1
    outer loop
      vertex -76.1524 58.3565 0
      vertex -80.1604 61.4279 0
      vertex -78.9279 62.6604 0
    endloop
  endfacet
  facet normal -0 0 -1
    outer loop
      vertex -78.2307 -53.8997 0
      vertex -82.5 -55 0
      vertex -78.375 -52.25 0
    endloop
  endfacet
  facet normal 0 0 -1
    outer loop
      vertex -76.1524 58.3565 0
      vertex -81.1603 60 0
      vertex -80.1604 61.4279 0
    endloop
  endfacet
  facet normal 0 0 -1
    outer loop
      vertex -77.1022 57 0
      vertex -81.8969 58.4202 0
      vertex -81.1603 60 0
    endloop
  endfacet
  facet normal 0 0 -1
    outer loop
      vertex -77.8021 55.4992 0
      vertex -82.3481 56.7365 0
      vertex -81.8969 58.4202 0
    endloop
  endfacet
  facet normal 0.258828 0.965924 -0
    outer loop
      vertex -70.5247 -61.6057 0
      vertex -72.1242 -61.1771 15.3969
      vertex -70.5247 -61.6057 15.8481
    endloop
  endfacet
  facet normal 0.258828 0.965924 0
    outer loop
      vertex -72.1242 -61.1771 15.3969
      vertex -70.5247 -61.6057 0
      vertex -72.1242 -61.1771 0
    endloop
  endfacet
  facet normal 0 -1 0
    outer loop
      vertex -68.875 61.75 0
      vertex 82.5 61.75 16
      vertex -68.875 61.75 16
    endloop
  endfacet
  facet normal 0 -1 -0
    outer loop
      vertex 82.5 61.75 16
      vertex -68.875 61.75 0
      vertex 82.5 61.75 0
    endloop
  endfacet
  facet normal 1 -0 0
    outer loop
      vertex -78.375 -52.25 6
      vertex -78.375 52.25 0
      vertex -78.375 52.25 6
    endloop
  endfacet
  facet normal 1 0 0
    outer loop
      vertex -78.375 52.25 0
      vertex -78.375 -52.25 6
      vertex -78.375 -52.25 0
    endloop
  endfacet
  facet normal 0.0871377 -0.996196 0
    outer loop
      vertex -68.875 61.75 0
      vertex -70.5247 61.6057 15.8481
      vertex -70.5247 61.6057 0
    endloop
  endfacet
  facet normal 0.0871377 -0.996196 0
    outer loop
      vertex -70.5247 61.6057 15.8481
      vertex -68.875 61.75 0
      vertex -68.875 61.75 16
    endloop
  endfacet
  facet normal 0 1 -0
    outer loop
      vertex 82.5 -61.75 0
      vertex -68.875 -61.75 16
      vertex 82.5 -61.75 16
    endloop
  endfacet
  facet normal 0 1 0
    outer loop
      vertex -68.875 -61.75 16
      vertex 82.5 -61.75 0
      vertex -68.875 -61.75 0
    endloop
  endfacet
  facet normal 0.707107 0.707107 -0
    outer loop
      vertex -74.9815 -59.5274 0
      vertex -76.1524 -58.3565 12.4279
      vertex -74.9815 -59.5274 13.6604
    endloop
  endfacet
  facet normal 0.707107 0.707107 0
    outer loop
      vertex -76.1524 -58.3565 12.4279
      vertex -74.9815 -59.5274 0
      vertex -76.1524 -58.3565 0
    endloop
  endfacet
  facet normal 0.965924 -0.258828 0
    outer loop
      vertex -78.2307 53.8997 7.73648
      vertex -77.8021 55.4992 0
      vertex -77.8021 55.4992 9.4202
    endloop
  endfacet
  facet normal 0.965924 -0.258828 0
    outer loop
      vertex -77.8021 55.4992 0
      vertex -78.2307 53.8997 7.73648
      vertex -78.2307 53.8997 0
    endloop
  endfacet
  facet normal 0.996196 0.0871377 -0
    outer loop
      vertex -78.2307 -53.8997 0
      vertex -78.375 -52.25 6
      vertex -78.2307 -53.8997 7.73648
    endloop
  endfacet
  facet normal 0.996196 0.0871377 0
    outer loop
      vertex -78.375 -52.25 6
      vertex -78.2307 -53.8997 0
      vertex -78.375 -52.25 0
    endloop
  endfacet
  facet normal 0.0871377 0.996196 -0
    outer loop
      vertex -68.875 -61.75 0
      vertex -70.5247 -61.6057 15.8481
      vertex -68.875 -61.75 16
    endloop
  endfacet
  facet normal 0.0871377 0.996196 0
    outer loop
      vertex -70.5247 -61.6057 15.8481
      vertex -68.875 -61.75 0
      vertex -70.5247 -61.6057 0
    endloop
  endfacet
  facet normal 0.906293 0.422651 -0
    outer loop
      vertex -77.1022 -57 0
      vertex -77.8021 -55.4992 9.4202
      vertex -77.1022 -57 11
    endloop
  endfacet
  facet normal 0.906293 0.422651 0
    outer loop
      vertex -77.8021 -55.4992 9.4202
      vertex -77.1022 -57 0
      vertex -77.8021 -55.4992 0
    endloop
  endfacet
  facet normal 0.819161 -0.573564 0
    outer loop
      vertex -77.1022 57 11
      vertex -76.1524 58.3565 0
      vertex -76.1524 58.3565 12.4279
    endloop
  endfacet
  facet normal 0.819161 -0.573564 0
    outer loop
      vertex -76.1524 58.3565 0
      vertex -77.1022 57 11
      vertex -77.1022 57 0
    endloop
  endfacet
  facet normal 0.573564 -0.819161 0
    outer loop
      vertex -73.625 60.4772 0
      vertex -74.9815 59.5274 13.6604
      vertex -74.9815 59.5274 0
    endloop
  endfacet
  facet normal 0.573564 -0.819161 0
    outer loop
      vertex -74.9815 59.5274 13.6604
      vertex -73.625 60.4772 0
      vertex -73.625 60.4772 14.6603
    endloop
  endfacet
  facet normal 0.422651 -0.906293 0
    outer loop
      vertex -72.1242 61.1771 0
      vertex -73.625 60.4772 14.6603
      vertex -73.625 60.4772 0
    endloop
  endfacet
  facet normal 0.422651 -0.906293 0
    outer loop
      vertex -73.625 60.4772 14.6603
      vertex -72.1242 61.1771 0
      vertex -72.1242 61.1771 15.3969
    endloop
  endfacet
  facet normal 0.906293 -0.422651 0
    outer loop
      vertex -77.8021 55.4992 9.4202
      vertex -77.1022 57 0
      vertex -77.1022 57 11
    endloop
  endfacet
  facet normal 0.906293 -0.422651 0
    outer loop
      vertex -77.1022 57 0
      vertex -77.8021 55.4992 9.4202
      vertex -77.8021 55.4992 0
    endloop
  endfacet
  facet normal 0.819161 0.573564 -0
    outer loop
      vertex -76.1524 -58.3565 0
      vertex -77.1022 -57 11
      vertex -76.1524 -58.3565 12.4279
    endloop
  endfacet
  facet normal 0.819161 0.573564 0
    outer loop
      vertex -77.1022 -57 11
      vertex -76.1524 -58.3565 0
      vertex -77.1022 -57 0
    endloop
  endfacet
  facet normal 0.707107 -0.707107 0
    outer loop
      vertex -76.1524 58.3565 12.4279
      vertex -74.9815 59.5274 0
      vertex -74.9815 59.5274 13.6604
    endloop
  endfacet
  facet normal 0.707107 -0.707107 0
    outer loop
      vertex -74.9815 59.5274 0
      vertex -76.1524 58.3565 12.4279
      vertex -76.1524 58.3565 0
    endloop
  endfacet
  facet normal 0.965924 0.258828 -0
    outer loop
      vertex -77.8021 -55.4992 0
      vertex -78.2307 -53.8997 7.73648
      vertex -77.8021 -55.4992 9.4202
    endloop
  endfacet
  facet normal 0.965924 0.258828 0
    outer loop
      vertex -78.2307 -53.8997 7.73648
      vertex -77.8021 -55.4992 0
      vertex -78.2307 -53.8997 0
    endloop
  endfacet
  facet normal 0.573564 0.819161 -0
    outer loop
      vertex -73.625 -60.4772 0
      vertex -74.9815 -59.5274 13.6604
      vertex -73.625 -60.4772 14.6603
    endloop
  endfacet
  facet normal 0.573564 0.819161 0
    outer loop
      vertex -74.9815 -59.5274 13.6604
      vertex -73.625 -60.4772 0
      vertex -74.9815 -59.5274 0
    endloop
  endfacet
  facet normal 0.422651 0.906293 -0
    outer loop
      vertex -72.1242 -61.1771 0
      vertex -73.625 -60.4772 14.6603
      vertex -72.1242 -61.1771 15.3969
    endloop
  endfacet
  facet normal 0.422651 0.906293 0
    outer loop
      vertex -73.625 -60.4772 14.6603
      vertex -72.1242 -61.1771 0
      vertex -73.625 -60.4772 0
    endloop
  endfacet
  facet normal 0.996196 -0.0871377 0
    outer loop
      vertex -78.375 52.25 6
      vertex -78.2307 53.8997 0
      vertex -78.2307 53.8997 7.73648
    endloop
  endfacet
  facet normal 0.996196 -0.0871377 0
    outer loop
      vertex -78.2307 53.8997 0
      vertex -78.375 52.25 6
      vertex -78.375 52.25 0
    endloop
  endfacet
  facet normal 0.258828 -0.965924 0
    outer loop
      vertex -70.5247 61.6057 0
      vertex -72.1242 61.1771 15.3969
      vertex -72.1242 61.1771 0
    endloop
  endfacet
  facet normal 0.258828 -0.965924 0
    outer loop
      vertex -72.1242 61.1771 15.3969
      vertex -70.5247 61.6057 0
      vertex -70.5247 61.6057 15.8481
    endloop
  endfacet
  facet normal 0.969095 0 -0.246688
    outer loop
      vertex -77.8021 55.4992 9.4202
      vertex -78.2307 -53.8997 7.73648
      vertex -78.2307 53.8997 7.73648
    endloop
  endfacet
  facet normal 0.969095 0 -0.246688
    outer loop
      vertex -78.2307 -53.8997 7.73648
      vertex -77.8021 55.4992 9.4202
      vertex -77.8021 -55.4992 9.4202
    endloop
  endfacet
  facet normal 0.593343 0 -0.80495
    outer loop
      vertex -74.9815 -59.5274 13.6604
      vertex -73.625 60.4772 14.6603
      vertex -73.625 -60.4772 14.6603
    endloop
  endfacet
  facet normal 0.593343 0 -0.80495
    outer loop
      vertex -73.625 60.4772 14.6603
      vertex -74.9815 -59.5274 13.6604
      vertex -74.9815 59.5274 13.6604
    endloop
  endfacet
  facet normal 0.440598 0 -0.897705
    outer loop
      vertex -73.625 -60.4772 14.6603
      vertex -72.1242 61.1771 15.3969
      vertex -72.1242 -61.1771 15.3969
    endloop
  endfacet
  facet normal 0.440598 0 -0.897705
    outer loop
      vertex -72.1242 61.1771 15.3969
      vertex -73.625 -60.4772 14.6603
      vertex -73.625 60.4772 14.6603
    endloop
  endfacet
  facet normal 0 0 -1
    outer loop
      vertex 64 -12.4019 16
      vertex 65.5 15 16
      vertex 65.5 -15 16
    endloop
  endfacet
  facet normal 0 0 -1
    outer loop
      vertex 64 -12.4019 16
      vertex 64 12.4019 16
      vertex 65.5 15 16
    endloop
  endfacet
  facet normal 0 0 -1
    outer loop
      vertex 61 -12.4019 16
      vertex 64 12.4019 16
      vertex 64 -12.4019 16
    endloop
  endfacet
  facet normal 0 0 -1
    outer loop
      vertex 61 -12.4019 16
      vertex 61 12.4019 16
      vertex 64 12.4019 16
    endloop
  endfacet
  facet normal 0 0 -1
    outer loop
      vertex 59.5 -15 16
      vertex 61 12.4019 16
      vertex 61 -12.4019 16
    endloop
  endfacet
  facet normal -0 0 -1
    outer loop
      vertex 61 12.4019 16
      vertex 59.5 -15 16
      vertex 59.5 15 16
    endloop
  endfacet
  facet normal 0 0 -1
    outer loop
      vertex 82.5 -61.75 16
      vertex 65.5 -15 16
      vertex 82.5 61.75 16
    endloop
  endfacet
  facet normal 0 0 -1
    outer loop
      vertex 82.5 -61.75 16
      vertex 64 -17.5981 16
      vertex 65.5 -15 16
    endloop
  endfacet
  facet normal 0 0 -1
    outer loop
      vertex 82.5 -61.75 16
      vertex 61 -17.5981 16
      vertex 64 -17.5981 16
    endloop
  endfacet
  facet normal 0 0 -1
    outer loop
      vertex -68.875 -61.75 16
      vertex 61 -17.5981 16
      vertex 82.5 -61.75 16
    endloop
  endfacet
  facet normal -0 0 -1
    outer loop
      vertex 59.5 -15 16
      vertex -68.875 -61.75 16
      vertex 59.5 15 16
    endloop
  endfacet
  facet normal -0 0 -1
    outer loop
      vertex 61 -17.5981 16
      vertex -68.875 -61.75 16
      vertex 59.5 -15 16
    endloop
  endfacet
  facet normal 0 0 -1
    outer loop
      vertex 65.5 15 16
      vertex 82.5 61.75 16
      vertex 65.5 -15 16
    endloop
  endfacet
  facet normal 0 0 -1
    outer loop
      vertex 64 17.5981 16
      vertex 82.5 61.75 16
      vertex 65.5 15 16
    endloop
  endfacet
  facet normal 0 0 -1
    outer loop
      vertex 61 17.5981 16
      vertex 82.5 61.75 16
      vertex 64 17.5981 16
    endloop
  endfacet
  facet normal 0 0 -1
    outer loop
      vertex -68.875 61.75 16
      vertex 61 17.5981 16
      vertex 59.5 15 16
    endloop
  endfacet
  facet normal 0 0 -1
    outer loop
      vertex -68.875 61.75 16
      vertex 59.5 15 16
      vertex -68.875 -61.75 16
    endloop
  endfacet
  facet normal 0 0 -1
    outer loop
      vertex 61 17.5981 16
      vertex -68.875 61.75 16
      vertex 82.5 61.75 16
    endloop
  endfacet
  facet normal 0.914291 0 -0.405059
    outer loop
      vertex -77.1022 57 11
      vertex -77.8021 -55.4992 9.4202
      vertex -77.8021 55.4992 9.4202
    endloop
  endfacet
  facet normal 0.914291 0 -0.405059
    outer loop
      vertex -77.8021 -55.4992 9.4202
      vertex -77.1022 57 11
      vertex -77.1022 -57 11
    endloop
  endfacet
  facet normal 0.0916895 0 -0.995788
    outer loop
      vertex -70.5247 -61.6057 15.8481
      vertex -68.875 61.75 16
      vertex -68.875 -61.75 16
    endloop
  endfacet
  facet normal 0.0916895 0 -0.995788
    outer loop
      vertex -68.875 61.75 16
      vertex -70.5247 -61.6057 15.8481
      vertex -70.5247 61.6057 15.8481
    endloop
  endfacet
  facet normal 0.724992 0 -0.688757
    outer loop
      vertex -74.9815 59.5274 13.6604
      vertex -76.1524 -58.3565 12.4279
      vertex -76.1524 58.3565 12.4279
    endloop
  endfacet
  facet normal 0.724992 0 -0.688757
    outer loop
      vertex -76.1524 -58.3565 12.4279
      vertex -74.9815 59.5274 13.6604
      vertex -74.9815 -59.5274 13.6604
    endloop
  endfacet
  facet normal 0.271493 0 -0.96244
    outer loop
      vertex -72.1242 -61.1771 15.3969
      vertex -70.5247 61.6057 15.8481
      vertex -70.5247 -61.6057 15.8481
    endloop
  endfacet
  facet normal 0.271493 0 -0.96244
    outer loop
      vertex -70.5247 61.6057 15.8481
      vertex -72.1242 -61.1771 15.3969
      vertex -72.1242 61.1771 15.3969
    endloop
  endfacet
  facet normal 0.996565 0 -0.0828137
    outer loop
      vertex -78.2307 53.8997 7.73648
      vertex -78.375 -52.25 6
      vertex -78.375 52.25 6
    endloop
  endfacet
  facet normal 0.996565 0 -0.0828137
    outer loop
      vertex -78.375 -52.25 6
      vertex -78.2307 53.8997 7.73648
      vertex -78.2307 -53.8997 7.73648
    endloop
  endfacet
  facet normal 0.832624 0 -0.553839
    outer loop
      vertex -76.1524 58.3565 12.4279
      vertex -77.1022 -57 11
      vertex -77.1022 57 11
    endloop
  endfacet
  facet normal 0.832624 0 -0.553839
    outer loop
      vertex -77.1022 -57 11
      vertex -76.1524 58.3565 12.4279
      vertex -76.1524 -58.3565 12.4279
    endloop
  endfacet
  facet normal 0 -1 0
    outer loop
      vertex 61 17.5981 16
      vertex 64 17.5981 18.05
      vertex 61 17.5981 18.05
    endloop
  endfacet
  facet normal 0 -1 -0
    outer loop
      vertex 64 17.5981 18.05
      vertex 61 17.5981 16
      vertex 64 17.5981 16
    endloop
  endfacet
  facet normal -0.866027 -0.499997 0
    outer loop
      vertex 65.5 15 16
      vertex 64 17.5981 18.05
      vertex 64 17.5981 16
    endloop
  endfacet
  facet normal -0.866027 -0.499997 0
    outer loop
      vertex 64 17.5981 18.05
      vertex 65.5 15 16
      vertex 65.5 15 18.05
    endloop
  endfacet
  facet normal 0 1 -0
    outer loop
      vertex 64 12.4019 16
      vertex 61 12.4019 18.05
      vertex 64 12.4019 18.05
    endloop
  endfacet
  facet normal 0 1 0
    outer loop
      vertex 61 12.4019 18.05
      vertex 64 12.4019 16
      vertex 61 12.4019 16
    endloop
  endfacet
  facet normal -0.866027 0.499997 0
    outer loop
      vertex 64 12.4019 16
      vertex 65.5 15 18.05
      vertex 65.5 15 16
    endloop
  endfacet
  facet normal -0.866027 0.499997 0
    outer loop
      vertex 65.5 15 18.05
      vertex 64 12.4019 16
      vertex 64 12.4019 18.05
    endloop
  endfacet
  facet normal 0.866027 0.499997 0
    outer loop
      vertex 61 12.4019 18.05
      vertex 59.5 15 16
      vertex 59.5 15 18.05
    endloop
  endfacet
  facet normal 0.866027 0.499997 0
    outer loop
      vertex 59.5 15 16
      vertex 61 12.4019 18.05
      vertex 61 12.4019 16
    endloop
  endfacet
  facet normal 0.866027 -0.499997 0
    outer loop
      vertex 59.5 15 18.05
      vertex 61 17.5981 16
      vertex 61 17.5981 18.05
    endloop
  endfacet
  facet normal 0.866027 -0.499997 0
    outer loop
      vertex 61 17.5981 16
      vertex 59.5 15 18.05
      vertex 59.5 15 16
    endloop
  endfacet
  facet normal -0 0 -1
    outer loop
      vertex 65.5 15 18.05
      vertex 63.9772 14.7395 18.05
      vertex 64 15 18.05
    endloop
  endfacet
  facet normal 0 0 -1
    outer loop
      vertex 65.5 15 18.05
      vertex 63.9095 14.487 18.05
      vertex 63.9772 14.7395 18.05
    endloop
  endfacet
  facet normal 0 0 -1
    outer loop
      vertex 65.5 15 18.05
      vertex 63.799 14.25 18.05
      vertex 63.9095 14.487 18.05
    endloop
  endfacet
  facet normal 0 0 -1
    outer loop
      vertex 64 12.4019 18.05
      vertex 63.6491 14.0358 18.05
      vertex 63.799 14.25 18.05
    endloop
  endfacet
  facet normal 0 0 -1
    outer loop
      vertex 64 12.4019 18.05
      vertex 63.4642 13.8509 18.05
      vertex 63.6491 14.0358 18.05
    endloop
  endfacet
  facet normal 0 0 -1
    outer loop
      vertex 64 12.4019 18.05
      vertex 63.25 13.701 18.05
      vertex 63.4642 13.8509 18.05
    endloop
  endfacet
  facet normal 0 0 -1
    outer loop
      vertex 64 12.4019 18.05
      vertex 63.013 13.5905 18.05
      vertex 63.25 13.701 18.05
    endloop
  endfacet
  facet normal 0 0 -1
    outer loop
      vertex 64 12.4019 18.05
      vertex 62.7605 13.5228 18.05
      vertex 63.013 13.5905 18.05
    endloop
  endfacet
  facet normal 0 0 -1
    outer loop
      vertex 64 12.4019 18.05
      vertex 62.5 13.5 18.05
      vertex 62.7605 13.5228 18.05
    endloop
  endfacet
  facet normal 0 0 -1
    outer loop
      vertex 61 12.4019 18.05
      vertex 62.5 13.5 18.05
      vertex 64 12.4019 18.05
    endloop
  endfacet
  facet normal -0 0 -1
    outer loop
      vertex 62.5 13.5 18.05
      vertex 61 12.4019 18.05
      vertex 62.2395 13.5228 18.05
    endloop
  endfacet
  facet normal -0 0 -1
    outer loop
      vertex 62.2395 13.5228 18.05
      vertex 61 12.4019 18.05
      vertex 61.987 13.5905 18.05
    endloop
  endfacet
  facet normal -0 0 -1
    outer loop
      vertex 61.987 13.5905 18.05
      vertex 61 12.4019 18.05
      vertex 61.75 13.701 18.05
    endloop
  endfacet
  facet normal 0 0 -1
    outer loop
      vertex 61 12.4019 18.05
      vertex 61.5358 13.8509 18.05
      vertex 61.75 13.701 18.05
    endloop
  endfacet
  facet normal 0 0 -1
    outer loop
      vertex 61 12.4019 18.05
      vertex 61.3509 14.0358 18.05
      vertex 61.5358 13.8509 18.05
    endloop
  endfacet
  facet normal 0 0 -1
    outer loop
      vertex 61 12.4019 18.05
      vertex 61.201 14.25 18.05
      vertex 61.3509 14.0358 18.05
    endloop
  endfacet
  facet normal 0 0 -1
    outer loop
      vertex 59.5 15 18.05
      vertex 61.201 14.25 18.05
      vertex 61 12.4019 18.05
    endloop
  endfacet
  facet normal 0 0 -1
    outer loop
      vertex 61.201 14.25 18.05
      vertex 59.5 15 18.05
      vertex 61.0905 14.487 18.05
    endloop
  endfacet
  facet normal 0 0 -1
    outer loop
      vertex 61.0905 14.487 18.05
      vertex 59.5 15 18.05
      vertex 61.0228 14.7395 18.05
    endloop
  endfacet
  facet normal 0 0 -1
    outer loop
      vertex 61.0228 14.7395 18.05
      vertex 59.5 15 18.05
      vertex 61 15 18.05
    endloop
  endfacet
  facet normal 0 0 -1
    outer loop
      vertex 61 15 18.05
      vertex 59.5 15 18.05
      vertex 61 17.5981 18.05
    endloop
  endfacet
  facet normal 0 0 -1
    outer loop
      vertex 63.799 14.25 18.05
      vertex 65.5 15 18.05
      vertex 64 12.4019 18.05
    endloop
  endfacet
  facet normal 0 0 -1
    outer loop
      vertex 63.9772 15.2605 18.05
      vertex 65.5 15 18.05
      vertex 64 15 18.05
    endloop
  endfacet
  facet normal 0 0 -1
    outer loop
      vertex 63.9095 15.513 18.05
      vertex 65.5 15 18.05
      vertex 63.9772 15.2605 18.05
    endloop
  endfacet
  facet normal 0 0 -1
    outer loop
      vertex 63.799 15.75 18.05
      vertex 65.5 15 18.05
      vertex 63.9095 15.513 18.05
    endloop
  endfacet
  facet normal 0 0 -1
    outer loop
      vertex 65.5 15 18.05
      vertex 63.799 15.75 18.05
      vertex 64 17.5981 18.05
    endloop
  endfacet
  facet normal 0 0 -1
    outer loop
      vertex 63.6491 15.9642 18.05
      vertex 64 17.5981 18.05
      vertex 63.799 15.75 18.05
    endloop
  endfacet
  facet normal 0 0 -1
    outer loop
      vertex 63.4642 16.1491 18.05
      vertex 64 17.5981 18.05
      vertex 63.6491 15.9642 18.05
    endloop
  endfacet
  facet normal 0 0 -1
    outer loop
      vertex 63.25 16.299 18.05
      vertex 64 17.5981 18.05
      vertex 63.4642 16.1491 18.05
    endloop
  endfacet
  facet normal 0 0 -1
    outer loop
      vertex 63.013 16.4095 18.05
      vertex 64 17.5981 18.05
      vertex 63.25 16.299 18.05
    endloop
  endfacet
  facet normal 0 0 -1
    outer loop
      vertex 62.7605 16.4772 18.05
      vertex 64 17.5981 18.05
      vertex 63.013 16.4095 18.05
    endloop
  endfacet
  facet normal 0 0 -1
    outer loop
      vertex 62.5 16.5 18.05
      vertex 64 17.5981 18.05
      vertex 62.7605 16.4772 18.05
    endloop
  endfacet
  facet normal 0 0 -1
    outer loop
      vertex 61 17.5981 18.05
      vertex 62.5 16.5 18.05
      vertex 62.2395 16.4772 18.05
    endloop
  endfacet
  facet normal 0 0 -1
    outer loop
      vertex 61 17.5981 18.05
      vertex 62.2395 16.4772 18.05
      vertex 61.987 16.4095 18.05
    endloop
  endfacet
  facet normal 0 0 -1
    outer loop
      vertex 61 17.5981 18.05
      vertex 61.987 16.4095 18.05
      vertex 61.75 16.299 18.05
    endloop
  endfacet
  facet normal 0 0 -1
    outer loop
      vertex 62.5 16.5 18.05
      vertex 61 17.5981 18.05
      vertex 64 17.5981 18.05
    endloop
  endfacet
  facet normal 0 0 -1
    outer loop
      vertex 61.5358 16.1491 18.05
      vertex 61 17.5981 18.05
      vertex 61.75 16.299 18.05
    endloop
  endfacet
  facet normal 0 0 -1
    outer loop
      vertex 61.3509 15.9642 18.05
      vertex 61 17.5981 18.05
      vertex 61.5358 16.1491 18.05
    endloop
  endfacet
  facet normal 0 0 -1
    outer loop
      vertex 61.201 15.75 18.05
      vertex 61 17.5981 18.05
      vertex 61.3509 15.9642 18.05
    endloop
  endfacet
  facet normal 0 0 -1
    outer loop
      vertex 61.0905 15.513 18.05
      vertex 61 17.5981 18.05
      vertex 61.201 15.75 18.05
    endloop
  endfacet
  facet normal 0 0 -1
    outer loop
      vertex 61.0228 15.2605 18.05
      vertex 61 17.5981 18.05
      vertex 61.0905 15.513 18.05
    endloop
  endfacet
  facet normal 0 0 -1
    outer loop
      vertex 61 17.5981 18.05
      vertex 61.0228 15.2605 18.05
      vertex 61 15 18.05
    endloop
  endfacet
  facet normal -0.707107 -0.707107 0
    outer loop
      vertex 63.4642 16.1491 18.05
      vertex 63.6491 15.9642 20
      vertex 63.4642 16.1491 20
    endloop
  endfacet
  facet normal -0.707107 -0.707107 -0
    outer loop
      vertex 63.6491 15.9642 20
      vertex 63.4642 16.1491 18.05
      vertex 63.6491 15.9642 18.05
    endloop
  endfacet
  facet normal -0.965885 0.258972 0
    outer loop
      vertex 63.9095 14.487 18.05
      vertex 63.9772 14.7395 20
      vertex 63.9772 14.7395 18.05
    endloop
  endfacet
  facet normal -0.965885 0.258972 0
    outer loop
      vertex 63.9772 14.7395 20
      vertex 63.9095 14.487 18.05
      vertex 63.9095 14.487 20
    endloop
  endfacet
  facet normal 0.90633 0.422571 0
    outer loop
      vertex 61.201 14.25 20
      vertex 61.0905 14.487 18.05
      vertex 61.0905 14.487 20
    endloop
  endfacet
  facet normal 0.90633 0.422571 0
    outer loop
      vertex 61.0905 14.487 18.05
      vertex 61.201 14.25 20
      vertex 61.201 14.25 18.05
    endloop
  endfacet
  facet normal 0.57336 0.819304 -0
    outer loop
      vertex 61.75 13.701 18.05
      vertex 61.5358 13.8509 20
      vertex 61.75 13.701 20
    endloop
  endfacet
  facet normal 0.57336 0.819304 0
    outer loop
      vertex 61.5358 13.8509 20
      vertex 61.75 13.701 18.05
      vertex 61.5358 13.8509 18.05
    endloop
  endfacet
  facet normal -0.0871907 -0.996192 0
    outer loop
      vertex 62.5 16.5 18.05
      vertex 62.7605 16.4772 20
      vertex 62.5 16.5 20
    endloop
  endfacet
  facet normal -0.0871907 -0.996192 -0
    outer loop
      vertex 62.7605 16.4772 20
      vertex 62.5 16.5 18.05
      vertex 62.7605 16.4772 18.05
    endloop
  endfacet
  facet normal -0.819304 -0.57336 0
    outer loop
      vertex 63.799 15.75 18.05
      vertex 63.6491 15.9642 20
      vertex 63.6491 15.9642 18.05
    endloop
  endfacet
  facet normal -0.819304 -0.57336 0
    outer loop
      vertex 63.6491 15.9642 20
      vertex 63.799 15.75 18.05
      vertex 63.799 15.75 20
    endloop
  endfacet
  facet normal -0.90633 0.422571 0
    outer loop
      vertex 63.799 14.25 18.05
      vertex 63.9095 14.487 20
      vertex 63.9095 14.487 18.05
    endloop
  endfacet
  facet normal -0.90633 0.422571 0
    outer loop
      vertex 63.9095 14.487 20
      vertex 63.799 14.25 18.05
      vertex 63.799 14.25 20
    endloop
  endfacet
  facet normal 0.819304 0.57336 0
    outer loop
      vertex 61.3509 14.0358 20
      vertex 61.201 14.25 18.05
      vertex 61.201 14.25 20
    endloop
  endfacet
  facet normal 0.819304 0.57336 0
    outer loop
      vertex 61.201 14.25 18.05
      vertex 61.3509 14.0358 20
      vertex 61.3509 14.0358 18.05
    endloop
  endfacet
  facet normal 0.422571 -0.90633 0
    outer loop
      vertex 61.75 16.299 18.05
      vertex 61.987 16.4095 20
      vertex 61.75 16.299 20
    endloop
  endfacet
  facet normal 0.422571 -0.90633 0
    outer loop
      vertex 61.987 16.4095 20
      vertex 61.75 16.299 18.05
      vertex 61.987 16.4095 18.05
    endloop
  endfacet
  facet normal 0.0871907 -0.996192 0
    outer loop
      vertex 62.2395 16.4772 18.05
      vertex 62.5 16.5 20
      vertex 62.2395 16.4772 20
    endloop
  endfacet
  facet normal 0.0871907 -0.996192 0
    outer loop
      vertex 62.5 16.5 20
      vertex 62.2395 16.4772 18.05
      vertex 62.5 16.5 18.05
    endloop
  endfacet
  facet normal 0.0871907 0.996192 -0
    outer loop
      vertex 62.5 13.5 18.05
      vertex 62.2395 13.5228 20
      vertex 62.5 13.5 20
    endloop
  endfacet
  facet normal 0.0871907 0.996192 0
    outer loop
      vertex 62.2395 13.5228 20
      vertex 62.5 13.5 18.05
      vertex 62.2395 13.5228 18.05
    endloop
  endfacet
  facet normal 0.707107 -0.707107 0
    outer loop
      vertex 61.3509 15.9642 18.05
      vertex 61.5358 16.1491 20
      vertex 61.3509 15.9642 20
    endloop
  endfacet
  facet normal 0.707107 -0.707107 0
    outer loop
      vertex 61.5358 16.1491 20
      vertex 61.3509 15.9642 18.05
      vertex 61.5358 16.1491 18.05
    endloop
  endfacet
  facet normal -0.996192 0.0871907 0
    outer loop
      vertex 63.9772 14.7395 18.05
      vertex 64 15 20
      vertex 64 15 18.05
    endloop
  endfacet
  facet normal -0.996192 0.0871907 0
    outer loop
      vertex 64 15 20
      vertex 63.9772 14.7395 18.05
      vertex 63.9772 14.7395 20
    endloop
  endfacet
  facet normal -0.258972 0.965885 0
    outer loop
      vertex 63.013 13.5905 18.05
      vertex 62.7605 13.5228 20
      vertex 63.013 13.5905 20
    endloop
  endfacet
  facet normal -0.258972 0.965885 0
    outer loop
      vertex 62.7605 13.5228 20
      vertex 63.013 13.5905 18.05
      vertex 62.7605 13.5228 18.05
    endloop
  endfacet
  facet normal 0.965885 0.258972 0
    outer loop
      vertex 61.0905 14.487 20
      vertex 61.0228 14.7395 18.05
      vertex 61.0228 14.7395 20
    endloop
  endfacet
  facet normal 0.965885 0.258972 0
    outer loop
      vertex 61.0228 14.7395 18.05
      vertex 61.0905 14.487 20
      vertex 61.0905 14.487 18.05
    endloop
  endfacet
  facet normal 0.707107 0.707107 -0
    outer loop
      vertex 61.5358 13.8509 18.05
      vertex 61.3509 14.0358 20
      vertex 61.5358 13.8509 20
    endloop
  endfacet
  facet normal 0.707107 0.707107 0
    outer loop
      vertex 61.3509 14.0358 20
      vertex 61.5358 13.8509 18.05
      vertex 61.3509 14.0358 18.05
    endloop
  endfacet
  facet normal -0.422571 0.90633 0
    outer loop
      vertex 63.25 13.701 18.05
      vertex 63.013 13.5905 20
      vertex 63.25 13.701 20
    endloop
  endfacet
  facet normal -0.422571 0.90633 0
    outer loop
      vertex 63.013 13.5905 20
      vertex 63.25 13.701 18.05
      vertex 63.013 13.5905 18.05
    endloop
  endfacet
  facet normal 0.965885 -0.258972 0
    outer loop
      vertex 61.0228 15.2605 20
      vertex 61.0905 15.513 18.05
      vertex 61.0905 15.513 20
    endloop
  endfacet
  facet normal 0.965885 -0.258972 0
    outer loop
      vertex 61.0905 15.513 18.05
      vertex 61.0228 15.2605 20
      vertex 61.0228 15.2605 18.05
    endloop
  endfacet
  facet normal 0.258972 0.965885 -0
    outer loop
      vertex 62.2395 13.5228 18.05
      vertex 61.987 13.5905 20
      vertex 62.2395 13.5228 20
    endloop
  endfacet
  facet normal 0.258972 0.965885 0
    outer loop
      vertex 61.987 13.5905 20
      vertex 62.2395 13.5228 18.05
      vertex 61.987 13.5905 18.05
    endloop
  endfacet
  facet normal -0.90633 -0.422571 0
    outer loop
      vertex 63.9095 15.513 18.05
      vertex 63.799 15.75 20
      vertex 63.799 15.75 18.05
    endloop
  endfacet
  facet normal -0.90633 -0.422571 0
    outer loop
      vertex 63.799 15.75 20
      vertex 63.9095 15.513 18.05
      vertex 63.9095 15.513 20
    endloop
  endfacet
  facet normal -0.996192 -0.0871907 0
    outer loop
      vertex 64 15 18.05
      vertex 63.9772 15.2605 20
      vertex 63.9772 15.2605 18.05
    endloop
  endfacet
  facet normal -0.996192 -0.0871907 0
    outer loop
      vertex 63.9772 15.2605 20
      vertex 64 15 18.05
      vertex 64 15 20
    endloop
  endfacet
  facet normal -0.707107 0.707107 0
    outer loop
      vertex 63.6491 14.0358 18.05
      vertex 63.4642 13.8509 20
      vertex 63.6491 14.0358 20
    endloop
  endfacet
  facet normal -0.707107 0.707107 0
    outer loop
      vertex 63.4642 13.8509 20
      vertex 63.6491 14.0358 18.05
      vertex 63.4642 13.8509 18.05
    endloop
  endfacet
  facet normal -0.422571 -0.90633 0
    outer loop
      vertex 63.013 16.4095 18.05
      vertex 63.25 16.299 20
      vertex 63.013 16.4095 20
    endloop
  endfacet
  facet normal -0.422571 -0.90633 -0
    outer loop
      vertex 63.25 16.299 20
      vertex 63.013 16.4095 18.05
      vertex 63.25 16.299 18.05
    endloop
  endfacet
  facet normal -0.819304 0.57336 0
    outer loop
      vertex 63.6491 14.0358 18.05
      vertex 63.799 14.25 20
      vertex 63.799 14.25 18.05
    endloop
  endfacet
  facet normal -0.819304 0.57336 0
    outer loop
      vertex 63.799 14.25 20
      vertex 63.6491 14.0358 18.05
      vertex 63.6491 14.0358 20
    endloop
  endfacet
  facet normal -0.57336 0.819304 0
    outer loop
      vertex 63.4642 13.8509 18.05
      vertex 63.25 13.701 20
      vertex 63.4642 13.8509 20
    endloop
  endfacet
  facet normal -0.57336 0.819304 0
    outer loop
      vertex 63.25 13.701 20
      vertex 63.4642 13.8509 18.05
      vertex 63.25 13.701 18.05
    endloop
  endfacet
  facet normal 0.258972 -0.965885 0
    outer loop
      vertex 61.987 16.4095 18.05
      vertex 62.2395 16.4772 20
      vertex 61.987 16.4095 20
    endloop
  endfacet
  facet normal 0.258972 -0.965885 0
    outer loop
      vertex 62.2395 16.4772 20
      vertex 61.987 16.4095 18.05
      vertex 62.2395 16.4772 18.05
    endloop
  endfacet
  facet normal 0.422571 0.90633 -0
    outer loop
      vertex 61.987 13.5905 18.05
      vertex 61.75 13.701 20
      vertex 61.987 13.5905 20
    endloop
  endfacet
  facet normal 0.422571 0.90633 0
    outer loop
      vertex 61.75 13.701 20
      vertex 61.987 13.5905 18.05
      vertex 61.75 13.701 18.05
    endloop
  endfacet
  facet normal -0.258972 -0.965885 0
    outer loop
      vertex 62.7605 16.4772 18.05
      vertex 63.013 16.4095 20
      vertex 62.7605 16.4772 20
    endloop
  endfacet
  facet normal -0.258972 -0.965885 -0
    outer loop
      vertex 63.013 16.4095 20
      vertex 62.7605 16.4772 18.05
      vertex 63.013 16.4095 18.05
    endloop
  endfacet
  facet normal 0.90633 -0.422571 0
    outer loop
      vertex 61.0905 15.513 20
      vertex 61.201 15.75 18.05
      vertex 61.201 15.75 20
    endloop
  endfacet
  facet normal 0.90633 -0.422571 0
    outer loop
      vertex 61.201 15.75 18.05
      vertex 61.0905 15.513 20
      vertex 61.0905 15.513 18.05
    endloop
  endfacet
  facet normal 0.819304 -0.57336 0
    outer loop
      vertex 61.201 15.75 20
      vertex 61.3509 15.9642 18.05
      vertex 61.3509 15.9642 20
    endloop
  endfacet
  facet normal 0.819304 -0.57336 0
    outer loop
      vertex 61.3509 15.9642 18.05
      vertex 61.201 15.75 20
      vertex 61.201 15.75 18.05
    endloop
  endfacet
  facet normal 0.996192 -0.0871907 0
    outer loop
      vertex 61 15 20
      vertex 61.0228 15.2605 18.05
      vertex 61.0228 15.2605 20
    endloop
  endfacet
  facet normal 0.996192 -0.0871907 0
    outer loop
      vertex 61.0228 15.2605 18.05
      vertex 61 15 20
      vertex 61 15 18.05
    endloop
  endfacet
  facet normal 0.996192 0.0871907 0
    outer loop
      vertex 61.0228 14.7395 20
      vertex 61 15 18.05
      vertex 61 15 20
    endloop
  endfacet
  facet normal 0.996192 0.0871907 0
    outer loop
      vertex 61 15 18.05
      vertex 61.0228 14.7395 20
      vertex 61.0228 14.7395 18.05
    endloop
  endfacet
  facet normal -0.57336 -0.819304 0
    outer loop
      vertex 63.25 16.299 18.05
      vertex 63.4642 16.1491 20
      vertex 63.25 16.299 20
    endloop
  endfacet
  facet normal -0.57336 -0.819304 -0
    outer loop
      vertex 63.4642 16.1491 20
      vertex 63.25 16.299 18.05
      vertex 63.4642 16.1491 18.05
    endloop
  endfacet
  facet normal -0.965885 -0.258972 0
    outer loop
      vertex 63.9772 15.2605 18.05
      vertex 63.9095 15.513 20
      vertex 63.9095 15.513 18.05
    endloop
  endfacet
  facet normal -0.965885 -0.258972 0
    outer loop
      vertex 63.9095 15.513 20
      vertex 63.9772 15.2605 18.05
      vertex 63.9772 15.2605 20
    endloop
  endfacet
  facet normal -0.0871907 0.996192 0
    outer loop
      vertex 62.7605 13.5228 18.05
      vertex 62.5 13.5 20
      vertex 62.7605 13.5228 20
    endloop
  endfacet
  facet normal -0.0871907 0.996192 0
    outer loop
      vertex 62.5 13.5 20
      vertex 62.7605 13.5228 18.05
      vertex 62.5 13.5 18.05
    endloop
  endfacet
  facet normal 0.57336 -0.819304 0
    outer loop
      vertex 61.5358 16.1491 18.05
      vertex 61.75 16.299 20
      vertex 61.5358 16.1491 20
    endloop
  endfacet
  facet normal 0.57336 -0.819304 0
    outer loop
      vertex 61.75 16.299 20
      vertex 61.5358 16.1491 18.05
      vertex 61.75 16.299 18.05
    endloop
  endfacet
  facet normal 0 -1 0
    outer loop
      vertex 61 -12.4019 16
      vertex 64 -12.4019 18.05
      vertex 61 -12.4019 18.05
    endloop
  endfacet
  facet normal 0 -1 -0
    outer loop
      vertex 64 -12.4019 18.05
      vertex 61 -12.4019 16
      vertex 64 -12.4019 16
    endloop
  endfacet
  facet normal -0.866027 -0.499997 0
    outer loop
      vertex 65.5 -15 16
      vertex 64 -12.4019 18.05
      vertex 64 -12.4019 16
    endloop
  endfacet
  facet normal -0.866027 -0.499997 0
    outer loop
      vertex 64 -12.4019 18.05
      vertex 65.5 -15 16
      vertex 65.5 -15 18.05
    endloop
  endfacet
  facet normal 0 1 -0
    outer loop
      vertex 64 -17.5981 16
      vertex 61 -17.5981 18.05
      vertex 64 -17.5981 18.05
    endloop
  endfacet
  facet normal 0 1 0
    outer loop
      vertex 61 -17.5981 18.05
      vertex 64 -17.5981 16
      vertex 61 -17.5981 16
    endloop
  endfacet
  facet normal -0.866027 0.499997 0
    outer loop
      vertex 64 -17.5981 16
      vertex 65.5 -15 18.05
      vertex 65.5 -15 16
    endloop
  endfacet
  facet normal -0.866027 0.499997 0
    outer loop
      vertex 65.5 -15 18.05
      vertex 64 -17.5981 16
      vertex 64 -17.5981 18.05
    endloop
  endfacet
  facet normal 0.866027 0.499997 0
    outer loop
      vertex 61 -17.5981 18.05
      vertex 59.5 -15 16
      vertex 59.5 -15 18.05
    endloop
  endfacet
  facet normal 0.866027 0.499997 0
    outer loop
      vertex 59.5 -15 16
      vertex 61 -17.5981 18.05
      vertex 61 -17.5981 16
    endloop
  endfacet
  facet normal 0.866027 -0.499997 0
    outer loop
      vertex 59.5 -15 18.05
      vertex 61 -12.4019 16
      vertex 61 -12.4019 18.05
    endloop
  endfacet
  facet normal 0.866027 -0.499997 0
    outer loop
      vertex 61 -12.4019 16
      vertex 59.5 -15 18.05
      vertex 59.5 -15 16
    endloop
  endfacet
  facet normal -0 0 -1
    outer loop
      vertex 65.5 -15 18.05
      vertex 63.9772 -15.2605 18.05
      vertex 64 -15 18.05
    endloop
  endfacet
  facet normal 0 0 -1
    outer loop
      vertex 65.5 -15 18.05
      vertex 63.9095 -15.513 18.05
      vertex 63.9772 -15.2605 18.05
    endloop
  endfacet
  facet normal 0 0 -1
    outer loop
      vertex 65.5 -15 18.05
      vertex 63.799 -15.75 18.05
      vertex 63.9095 -15.513 18.05
    endloop
  endfacet
  facet normal 0 0 -1
    outer loop
      vertex 64 -17.5981 18.05
      vertex 63.6491 -15.9642 18.05
      vertex 63.799 -15.75 18.05
    endloop
  endfacet
  facet normal 0 0 -1
    outer loop
      vertex 64 -17.5981 18.05
      vertex 63.4642 -16.1491 18.05
      vertex 63.6491 -15.9642 18.05
    endloop
  endfacet
  facet normal 0 0 -1
    outer loop
      vertex 64 -17.5981 18.05
      vertex 63.25 -16.299 18.05
      vertex 63.4642 -16.1491 18.05
    endloop
  endfacet
  facet normal 0 0 -1
    outer loop
      vertex 64 -17.5981 18.05
      vertex 63.013 -16.4095 18.05
      vertex 63.25 -16.299 18.05
    endloop
  endfacet
  facet normal 0 0 -1
    outer loop
      vertex 64 -17.5981 18.05
      vertex 62.7605 -16.4772 18.05
      vertex 63.013 -16.4095 18.05
    endloop
  endfacet
  facet normal 0 0 -1
    outer loop
      vertex 64 -17.5981 18.05
      vertex 62.5 -16.5 18.05
      vertex 62.7605 -16.4772 18.05
    endloop
  endfacet
  facet normal 0 0 -1
    outer loop
      vertex 61 -17.5981 18.05
      vertex 62.5 -16.5 18.05
      vertex 64 -17.5981 18.05
    endloop
  endfacet
  facet normal -0 0 -1
    outer loop
      vertex 62.5 -16.5 18.05
      vertex 61 -17.5981 18.05
      vertex 62.2395 -16.4772 18.05
    endloop
  endfacet
  facet normal -0 0 -1
    outer loop
      vertex 62.2395 -16.4772 18.05
      vertex 61 -17.5981 18.05
      vertex 61.987 -16.4095 18.05
    endloop
  endfacet
  facet normal -0 0 -1
    outer loop
      vertex 61.987 -16.4095 18.05
      vertex 61 -17.5981 18.05
      vertex 61.75 -16.299 18.05
    endloop
  endfacet
  facet normal 0 0 -1
    outer loop
      vertex 61 -17.5981 18.05
      vertex 61.5358 -16.1491 18.05
      vertex 61.75 -16.299 18.05
    endloop
  endfacet
  facet normal 0 0 -1
    outer loop
      vertex 61 -17.5981 18.05
      vertex 61.3509 -15.9642 18.05
      vertex 61.5358 -16.1491 18.05
    endloop
  endfacet
  facet normal 0 0 -1
    outer loop
      vertex 61 -17.5981 18.05
      vertex 61.201 -15.75 18.05
      vertex 61.3509 -15.9642 18.05
    endloop
  endfacet
  facet normal 0 0 -1
    outer loop
      vertex 59.5 -15 18.05
      vertex 61.201 -15.75 18.05
      vertex 61 -17.5981 18.05
    endloop
  endfacet
  facet normal 0 0 -1
    outer loop
      vertex 61.201 -15.75 18.05
      vertex 59.5 -15 18.05
      vertex 61.0905 -15.513 18.05
    endloop
  endfacet
  facet normal 0 0 -1
    outer loop
      vertex 61.0905 -15.513 18.05
      vertex 59.5 -15 18.05
      vertex 61.0228 -15.2605 18.05
    endloop
  endfacet
  facet normal 0 0 -1
    outer loop
      vertex 61.0228 -15.2605 18.05
      vertex 59.5 -15 18.05
      vertex 61 -15 18.05
    endloop
  endfacet
  facet normal 0 0 -1
    outer loop
      vertex 61 -15 18.05
      vertex 59.5 -15 18.05
      vertex 61 -12.4019 18.05
    endloop
  endfacet
  facet normal 0 0 -1
    outer loop
      vertex 63.799 -15.75 18.05
      vertex 65.5 -15 18.05
      vertex 64 -17.5981 18.05
    endloop
  endfacet
  facet normal 0 0 -1
    outer loop
      vertex 63.9772 -14.7395 18.05
      vertex 65.5 -15 18.05
      vertex 64 -15 18.05
    endloop
  endfacet
  facet normal 0 0 -1
    outer loop
      vertex 63.9095 -14.487 18.05
      vertex 65.5 -15 18.05
      vertex 63.9772 -14.7395 18.05
    endloop
  endfacet
  facet normal 0 0 -1
    outer loop
      vertex 63.799 -14.25 18.05
      vertex 65.5 -15 18.05
      vertex 63.9095 -14.487 18.05
    endloop
  endfacet
  facet normal 0 0 -1
    outer loop
      vertex 65.5 -15 18.05
      vertex 63.799 -14.25 18.05
      vertex 64 -12.4019 18.05
    endloop
  endfacet
  facet normal 0 0 -1
    outer loop
      vertex 63.6491 -14.0358 18.05
      vertex 64 -12.4019 18.05
      vertex 63.799 -14.25 18.05
    endloop
  endfacet
  facet normal 0 0 -1
    outer loop
      vertex 63.4642 -13.8509 18.05
      vertex 64 -12.4019 18.05
      vertex 63.6491 -14.0358 18.05
    endloop
  endfacet
  facet normal 0 0 -1
    outer loop
      vertex 63.25 -13.701 18.05
      vertex 64 -12.4019 18.05
      vertex 63.4642 -13.8509 18.05
    endloop
  endfacet
  facet normal 0 0 -1
    outer loop
      vertex 63.013 -13.5905 18.05
      vertex 64 -12.4019 18.05
      vertex 63.25 -13.701 18.05
    endloop
  endfacet
  facet normal 0 0 -1
    outer loop
      vertex 62.7605 -13.5228 18.05
      vertex 64 -12.4019 18.05
      vertex 63.013 -13.5905 18.05
    endloop
  endfacet
  facet normal 0 0 -1
    outer loop
      vertex 62.5 -13.5 18.05
      vertex 64 -12.4019 18.05
      vertex 62.7605 -13.5228 18.05
    endloop
  endfacet
  facet normal 0 0 -1
    outer loop
      vertex 61 -12.4019 18.05
      vertex 62.5 -13.5 18.05
      vertex 62.2395 -13.5228 18.05
    endloop
  endfacet
  facet normal 0 0 -1
    outer loop
      vertex 61 -12.4019 18.05
      vertex 62.2395 -13.5228 18.05
      vertex 61.987 -13.5905 18.05
    endloop
  endfacet
  facet normal 0 0 -1
    outer loop
      vertex 61 -12.4019 18.05
      vertex 61.987 -13.5905 18.05
      vertex 61.75 -13.701 18.05
    endloop
  endfacet
  facet normal 0 0 -1
    outer loop
      vertex 62.5 -13.5 18.05
      vertex 61 -12.4019 18.05
      vertex 64 -12.4019 18.05
    endloop
  endfacet
  facet normal 0 0 -1
    outer loop
      vertex 61.5358 -13.8509 18.05
      vertex 61 -12.4019 18.05
      vertex 61.75 -13.701 18.05
    endloop
  endfacet
  facet normal 0 0 -1
    outer loop
      vertex 61.3509 -14.0358 18.05
      vertex 61 -12.4019 18.05
      vertex 61.5358 -13.8509 18.05
    endloop
  endfacet
  facet normal 0 0 -1
    outer loop
      vertex 61.201 -14.25 18.05
      vertex 61 -12.4019 18.05
      vertex 61.3509 -14.0358 18.05
    endloop
  endfacet
  facet normal 0 0 -1
    outer loop
      vertex 61.0905 -14.487 18.05
      vertex 61 -12.4019 18.05
      vertex 61.201 -14.25 18.05
    endloop
  endfacet
  facet normal 0 0 -1
    outer loop
      vertex 61.0228 -14.7395 18.05
      vertex 61 -12.4019 18.05
      vertex 61.0905 -14.487 18.05
    endloop
  endfacet
  facet normal 0 0 -1
    outer loop
      vertex 61 -12.4019 18.05
      vertex 61.0228 -14.7395 18.05
      vertex 61 -15 18.05
    endloop
  endfacet
  facet normal -0.707107 -0.707107 0
    outer loop
      vertex 63.4642 -13.8509 18.05
      vertex 63.6491 -14.0358 20
      vertex 63.4642 -13.8509 20
    endloop
  endfacet
  facet normal -0.707107 -0.707107 -0
    outer loop
      vertex 63.6491 -14.0358 20
      vertex 63.4642 -13.8509 18.05
      vertex 63.6491 -14.0358 18.05
    endloop
  endfacet
  facet normal -0.965885 0.258972 0
    outer loop
      vertex 63.9095 -15.513 18.05
      vertex 63.9772 -15.2605 20
      vertex 63.9772 -15.2605 18.05
    endloop
  endfacet
  facet normal -0.965885 0.258972 0
    outer loop
      vertex 63.9772 -15.2605 20
      vertex 63.9095 -15.513 18.05
      vertex 63.9095 -15.513 20
    endloop
  endfacet
  facet normal 0.90633 0.422571 0
    outer loop
      vertex 61.201 -15.75 20
      vertex 61.0905 -15.513 18.05
      vertex 61.0905 -15.513 20
    endloop
  endfacet
  facet normal 0.90633 0.422571 0
    outer loop
      vertex 61.0905 -15.513 18.05
      vertex 61.201 -15.75 20
      vertex 61.201 -15.75 18.05
    endloop
  endfacet
  facet normal 0.57336 0.819304 -0
    outer loop
      vertex 61.75 -16.299 18.05
      vertex 61.5358 -16.1491 20
      vertex 61.75 -16.299 20
    endloop
  endfacet
  facet normal 0.57336 0.819304 0
    outer loop
      vertex 61.5358 -16.1491 20
      vertex 61.75 -16.299 18.05
      vertex 61.5358 -16.1491 18.05
    endloop
  endfacet
  facet normal -0.0871907 -0.996192 0
    outer loop
      vertex 62.5 -13.5 18.05
      vertex 62.7605 -13.5228 20
      vertex 62.5 -13.5 20
    endloop
  endfacet
  facet normal -0.0871907 -0.996192 -0
    outer loop
      vertex 62.7605 -13.5228 20
      vertex 62.5 -13.5 18.05
      vertex 62.7605 -13.5228 18.05
    endloop
  endfacet
  facet normal -0.819304 -0.57336 0
    outer loop
      vertex 63.799 -14.25 18.05
      vertex 63.6491 -14.0358 20
      vertex 63.6491 -14.0358 18.05
    endloop
  endfacet
  facet normal -0.819304 -0.57336 0
    outer loop
      vertex 63.6491 -14.0358 20
      vertex 63.799 -14.25 18.05
      vertex 63.799 -14.25 20
    endloop
  endfacet
  facet normal -0.90633 0.422571 0
    outer loop
      vertex 63.799 -15.75 18.05
      vertex 63.9095 -15.513 20
      vertex 63.9095 -15.513 18.05
    endloop
  endfacet
  facet normal -0.90633 0.422571 0
    outer loop
      vertex 63.9095 -15.513 20
      vertex 63.799 -15.75 18.05
      vertex 63.799 -15.75 20
    endloop
  endfacet
  facet normal 0.819304 0.57336 0
    outer loop
      vertex 61.3509 -15.9642 20
      vertex 61.201 -15.75 18.05
      vertex 61.201 -15.75 20
    endloop
  endfacet
  facet normal 0.819304 0.57336 0
    outer loop
      vertex 61.201 -15.75 18.05
      vertex 61.3509 -15.9642 20
      vertex 61.3509 -15.9642 18.05
    endloop
  endfacet
  facet normal 0.422571 -0.90633 0
    outer loop
      vertex 61.75 -13.701 18.05
      vertex 61.987 -13.5905 20
      vertex 61.75 -13.701 20
    endloop
  endfacet
  facet normal 0.422571 -0.90633 0
    outer loop
      vertex 61.987 -13.5905 20
      vertex 61.75 -13.701 18.05
      vertex 61.987 -13.5905 18.05
    endloop
  endfacet
  facet normal 0.0871907 -0.996192 0
    outer loop
      vertex 62.2395 -13.5228 18.05
      vertex 62.5 -13.5 20
      vertex 62.2395 -13.5228 20
    endloop
  endfacet
  facet normal 0.0871907 -0.996192 0
    outer loop
      vertex 62.5 -13.5 20
      vertex 62.2395 -13.5228 18.05
      vertex 62.5 -13.5 18.05
    endloop
  endfacet
  facet normal 0.0871907 0.996192 -0
    outer loop
      vertex 62.5 -16.5 18.05
      vertex 62.2395 -16.4772 20
      vertex 62.5 -16.5 20
    endloop
  endfacet
  facet normal 0.0871907 0.996192 0
    outer loop
      vertex 62.2395 -16.4772 20
      vertex 62.5 -16.5 18.05
      vertex 62.2395 -16.4772 18.05
    endloop
  endfacet
  facet normal 0.707107 -0.707107 0
    outer loop
      vertex 61.3509 -14.0358 18.05
      vertex 61.5358 -13.8509 20
      vertex 61.3509 -14.0358 20
    endloop
  endfacet
  facet normal 0.707107 -0.707107 0
    outer loop
      vertex 61.5358 -13.8509 20
      vertex 61.3509 -14.0358 18.05
      vertex 61.5358 -13.8509 18.05
    endloop
  endfacet
  facet normal -0.996192 0.0871907 0
    outer loop
      vertex 63.9772 -15.2605 18.05
      vertex 64 -15 20
      vertex 64 -15 18.05
    endloop
  endfacet
  facet normal -0.996192 0.0871907 0
    outer loop
      vertex 64 -15 20
      vertex 63.9772 -15.2605 18.05
      vertex 63.9772 -15.2605 20
    endloop
  endfacet
  facet normal -0.258972 0.965885 0
    outer loop
      vertex 63.013 -16.4095 18.05
      vertex 62.7605 -16.4772 20
      vertex 63.013 -16.4095 20
    endloop
  endfacet
  facet normal -0.258972 0.965885 0
    outer loop
      vertex 62.7605 -16.4772 20
      vertex 63.013 -16.4095 18.05
      vertex 62.7605 -16.4772 18.05
    endloop
  endfacet
  facet normal 0.965885 0.258972 0
    outer loop
      vertex 61.0905 -15.513 20
      vertex 61.0228 -15.2605 18.05
      vertex 61.0228 -15.2605 20
    endloop
  endfacet
  facet normal 0.965885 0.258972 0
    outer loop
      vertex 61.0228 -15.2605 18.05
      vertex 61.0905 -15.513 20
      vertex 61.0905 -15.513 18.05
    endloop
  endfacet
  facet normal 0.707107 0.707107 -0
    outer loop
      vertex 61.5358 -16.1491 18.05
      vertex 61.3509 -15.9642 20
      vertex 61.5358 -16.1491 20
    endloop
  endfacet
  facet normal 0.707107 0.707107 0
    outer loop
      vertex 61.3509 -15.9642 20
      vertex 61.5358 -16.1491 18.05
      vertex 61.3509 -15.9642 18.05
    endloop
  endfacet
  facet normal -0.422571 0.90633 0
    outer loop
      vertex 63.25 -16.299 18.05
      vertex 63.013 -16.4095 20
      vertex 63.25 -16.299 20
    endloop
  endfacet
  facet normal -0.422571 0.90633 0
    outer loop
      vertex 63.013 -16.4095 20
      vertex 63.25 -16.299 18.05
      vertex 63.013 -16.4095 18.05
    endloop
  endfacet
  facet normal 0.965885 -0.258972 0
    outer loop
      vertex 61.0228 -14.7395 20
      vertex 61.0905 -14.487 18.05
      vertex 61.0905 -14.487 20
    endloop
  endfacet
  facet normal 0.965885 -0.258972 0
    outer loop
      vertex 61.0905 -14.487 18.05
      vertex 61.0228 -14.7395 20
      vertex 61.0228 -14.7395 18.05
    endloop
  endfacet
  facet normal 0.258972 0.965885 -0
    outer loop
      vertex 62.2395 -16.4772 18.05
      vertex 61.987 -16.4095 20
      vertex 62.2395 -16.4772 20
    endloop
  endfacet
  facet normal 0.258972 0.965885 0
    outer loop
      vertex 61.987 -16.4095 20
      vertex 62.2395 -16.4772 18.05
      vertex 61.987 -16.4095 18.05
    endloop
  endfacet
  facet normal -0.90633 -0.422571 0
    outer loop
      vertex 63.9095 -14.487 18.05
      vertex 63.799 -14.25 20
      vertex 63.799 -14.25 18.05
    endloop
  endfacet
  facet normal -0.90633 -0.422571 0
    outer loop
      vertex 63.799 -14.25 20
      vertex 63.9095 -14.487 18.05
      vertex 63.9095 -14.487 20
    endloop
  endfacet
  facet normal -0.996192 -0.0871907 0
    outer loop
      vertex 64 -15 18.05
      vertex 63.9772 -14.7395 20
      vertex 63.9772 -14.7395 18.05
    endloop
  endfacet
  facet normal -0.996192 -0.0871907 0
    outer loop
      vertex 63.9772 -14.7395 20
      vertex 64 -15 18.05
      vertex 64 -15 20
    endloop
  endfacet
  facet normal -0.707107 0.707107 0
    outer loop
      vertex 63.6491 -15.9642 18.05
      vertex 63.4642 -16.1491 20
      vertex 63.6491 -15.9642 20
    endloop
  endfacet
  facet normal -0.707107 0.707107 0
    outer loop
      vertex 63.4642 -16.1491 20
      vertex 63.6491 -15.9642 18.05
      vertex 63.4642 -16.1491 18.05
    endloop
  endfacet
  facet normal -0.422571 -0.90633 0
    outer loop
      vertex 63.013 -13.5905 18.05
      vertex 63.25 -13.701 20
      vertex 63.013 -13.5905 20
    endloop
  endfacet
  facet normal -0.422571 -0.90633 -0
    outer loop
      vertex 63.25 -13.701 20
      vertex 63.013 -13.5905 18.05
      vertex 63.25 -13.701 18.05
    endloop
  endfacet
  facet normal -0.819304 0.57336 0
    outer loop
      vertex 63.6491 -15.9642 18.05
      vertex 63.799 -15.75 20
      vertex 63.799 -15.75 18.05
    endloop
  endfacet
  facet normal -0.819304 0.57336 0
    outer loop
      vertex 63.799 -15.75 20
      vertex 63.6491 -15.9642 18.05
      vertex 63.6491 -15.9642 20
    endloop
  endfacet
  facet normal -0.57336 0.819304 0
    outer loop
      vertex 63.4642 -16.1491 18.05
      vertex 63.25 -16.299 20
      vertex 63.4642 -16.1491 20
    endloop
  endfacet
  facet normal -0.57336 0.819304 0
    outer loop
      vertex 63.25 -16.299 20
      vertex 63.4642 -16.1491 18.05
      vertex 63.25 -16.299 18.05
    endloop
  endfacet
  facet normal 0.258972 -0.965885 0
    outer loop
      vertex 61.987 -13.5905 18.05
      vertex 62.2395 -13.5228 20
      vertex 61.987 -13.5905 20
    endloop
  endfacet
  facet normal 0.258972 -0.965885 0
    outer loop
      vertex 62.2395 -13.5228 20
      vertex 61.987 -13.5905 18.05
      vertex 62.2395 -13.5228 18.05
    endloop
  endfacet
  facet normal 0.422571 0.90633 -0
    outer loop
      vertex 61.987 -16.4095 18.05
      vertex 61.75 -16.299 20
      vertex 61.987 -16.4095 20
    endloop
  endfacet
  facet normal 0.422571 0.90633 0
    outer loop
      vertex 61.75 -16.299 20
      vertex 61.987 -16.4095 18.05
      vertex 61.75 -16.299 18.05
    endloop
  endfacet
  facet normal -0.258972 -0.965885 0
    outer loop
      vertex 62.7605 -13.5228 18.05
      vertex 63.013 -13.5905 20
      vertex 62.7605 -13.5228 20
    endloop
  endfacet
  facet normal -0.258972 -0.965885 -0
    outer loop
      vertex 63.013 -13.5905 20
      vertex 62.7605 -13.5228 18.05
      vertex 63.013 -13.5905 18.05
    endloop
  endfacet
  facet normal 0.90633 -0.422571 0
    outer loop
      vertex 61.0905 -14.487 20
      vertex 61.201 -14.25 18.05
      vertex 61.201 -14.25 20
    endloop
  endfacet
  facet normal 0.90633 -0.422571 0
    outer loop
      vertex 61.201 -14.25 18.05
      vertex 61.0905 -14.487 20
      vertex 61.0905 -14.487 18.05
    endloop
  endfacet
  facet normal 0.819304 -0.57336 0
    outer loop
      vertex 61.201 -14.25 20
      vertex 61.3509 -14.0358 18.05
      vertex 61.3509 -14.0358 20
    endloop
  endfacet
  facet normal 0.819304 -0.57336 0
    outer loop
      vertex 61.3509 -14.0358 18.05
      vertex 61.201 -14.25 20
      vertex 61.201 -14.25 18.05
    endloop
  endfacet
  facet normal 0.996192 -0.0871907 0
    outer loop
      vertex 61 -15 20
      vertex 61.0228 -14.7395 18.05
      vertex 61.0228 -14.7395 20
    endloop
  endfacet
  facet normal 0.996192 -0.0871907 0
    outer loop
      vertex 61.0228 -14.7395 18.05
      vertex 61 -15 20
      vertex 61 -15 18.05
    endloop
  endfacet
  facet normal 0.996192 0.0871907 0
    outer loop
      vertex 61.0228 -15.2605 20
      vertex 61 -15 18.05
      vertex 61 -15 20
    endloop
  endfacet
  facet normal 0.996192 0.0871907 0
    outer loop
      vertex 61 -15 18.05
      vertex 61.0228 -15.2605 20
      vertex 61.0228 -15.2605 18.05
    endloop
  endfacet
  facet normal -0.57336 -0.819304 0
    outer loop
      vertex 63.25 -13.701 18.05
      vertex 63.4642 -13.8509 20
      vertex 63.25 -13.701 20
    endloop
  endfacet
  facet normal -0.57336 -0.819304 -0
    outer loop
      vertex 63.4642 -13.8509 20
      vertex 63.25 -13.701 18.05
      vertex 63.4642 -13.8509 18.05
    endloop
  endfacet
  facet normal -0.965885 -0.258972 0
    outer loop
      vertex 63.9772 -14.7395 18.05
      vertex 63.9095 -14.487 20
      vertex 63.9095 -14.487 18.05
    endloop
  endfacet
  facet normal -0.965885 -0.258972 0
    outer loop
      vertex 63.9095 -14.487 20
      vertex 63.9772 -14.7395 18.05
      vertex 63.9772 -14.7395 20
    endloop
  endfacet
  facet normal -0.0871907 0.996192 0
    outer loop
      vertex 62.7605 -16.4772 18.05
      vertex 62.5 -16.5 20
      vertex 62.7605 -16.4772 20
    endloop
  endfacet
  facet normal -0.0871907 0.996192 0
    outer loop
      vertex 62.5 -16.5 20
      vertex 62.7605 -16.4772 18.05
      vertex 62.5 -16.5 18.05
    endloop
  endfacet
  facet normal 0.57336 -0.819304 0
    outer loop
      vertex 61.5358 -13.8509 18.05
      vertex 61.75 -13.701 20
      vertex 61.5358 -13.8509 20
    endloop
  endfacet
  facet normal 0.57336 -0.819304 0
    outer loop
      vertex 61.75 -13.701 20
      vertex 61.5358 -13.8509 18.05
      vertex 61.75 -13.701 18.05
    endloop
  endfacet
endsolid OpenSCAD_Model
