solid OpenSCAD_Model
  facet normal 0 0 -1
    outer loop
      vertex -225 -75 0
      vertex -45.01 75 0
      vertex -45.01 -75 0
    endloop
  endfacet
  facet normal -0 0 -1
    outer loop
      vertex -45.01 75 0
      vertex -225 -75 0
      vertex -225 75 0
    endloop
  endfacet
  facet normal 0 -1 0
    outer loop
      vertex -225 -75 0
      vertex -45.01 -75 3
      vertex -225 -75 3
    endloop
  endfacet
  facet normal 0 -1 -0
    outer loop
      vertex -45.01 -75 3
      vertex -225 -75 0
      vertex -45.01 -75 0
    endloop
  endfacet
  facet normal 0 1 -0
    outer loop
      vertex -45.01 75 0
      vertex -225 75 3
      vertex -45.01 75 3
    endloop
  endfacet
  facet normal 0 1 0
    outer loop
      vertex -225 75 3
      vertex -45.01 75 0
      vertex -225 75 0
    endloop
  endfacet
  facet normal 0 0 1
    outer loop
      vertex -45.01 75 3
      vertex -57.5 67.5 3
      vertex -45.01 67.5 3
    endloop
  endfacet
  facet normal 0 0 1
    outer loop
      vertex -57.5 67.5 3
      vertex -225 75 3
      vertex -57.5 -67.5 3
    endloop
  endfacet
  facet normal -0 0 1
    outer loop
      vertex -225 75 3
      vertex -57.5 67.5 3
      vertex -45.01 75 3
    endloop
  endfacet
  facet normal -0 0 1
    outer loop
      vertex -57.5 -67.5 3
      vertex -45.01 -75 3
      vertex -45.01 -67.5 3
    endloop
  endfacet
  facet normal 0 0 1
    outer loop
      vertex -57.5 -67.5 3
      vertex -225 -75 3
      vertex -45.01 -75 3
    endloop
  endfacet
  facet normal 0 0 1
    outer loop
      vertex -225 -75 3
      vertex -57.5 -67.5 3
      vertex -225 75 3
    endloop
  endfacet
  facet normal -1 0 0
    outer loop
      vertex -225 -75 0
      vertex -225 75 3
      vertex -225 75 0
    endloop
  endfacet
  facet normal -1 -0 0
    outer loop
      vertex -225 75 3
      vertex -225 -75 0
      vertex -225 -75 3
    endloop
  endfacet
  facet normal -0 0 1
    outer loop
      vertex -57.5 67.5 7.8
      vertex -45.01 -67.5 7.8
      vertex -45.01 67.5 7.8
    endloop
  endfacet
  facet normal 0 0 1
    outer loop
      vertex -45.01 -67.5 7.8
      vertex -57.5 67.5 7.8
      vertex -57.5 -67.5 7.8
    endloop
  endfacet
  facet normal -1 0 0
    outer loop
      vertex -57.5 -67.5 3
      vertex -57.5 67.5 7.8
      vertex -57.5 67.5 3
    endloop
  endfacet
  facet normal -1 -0 0
    outer loop
      vertex -57.5 67.5 7.8
      vertex -57.5 -67.5 3
      vertex -57.5 -67.5 7.8
    endloop
  endfacet
  facet normal 0 1 -0
    outer loop
      vertex -45.01 67.5 3
      vertex -57.5 67.5 7.8
      vertex -45.01 67.5 7.8
    endloop
  endfacet
  facet normal 0 1 0
    outer loop
      vertex -57.5 67.5 7.8
      vertex -45.01 67.5 3
      vertex -57.5 67.5 3
    endloop
  endfacet
  facet normal 0 -1 0
    outer loop
      vertex -57.5 -67.5 3
      vertex -45.01 -67.5 7.8
      vertex -57.5 -67.5 7.8
    endloop
  endfacet
  facet normal 0 -1 -0
    outer loop
      vertex -45.01 -67.5 7.8
      vertex -57.5 -67.5 3
      vertex -45.01 -67.5 3
    endloop
  endfacet
  facet normal 0 -0.90625 -0.422743
    outer loop
      vertex -52.5 -36.2784 4.34463
      vertex -45.01 -36.3742 4.55
      vertex -52.5 -36.3742 4.55
    endloop
  endfacet
  facet normal 0 -0.90625 -0.422743
    outer loop
      vertex -45.01 -36.3742 4.55
      vertex -52.5 -36.2784 4.34463
      vertex -45.01 -36.2784 4.34463
    endloop
  endfacet
  facet normal 0 -0.965872 -0.259019
    outer loop
      vertex -52.5 -36.2197 4.12574
      vertex -45.01 -36.2784 4.34463
      vertex -52.5 -36.2784 4.34463
    endloop
  endfacet
  facet normal 0 -0.965872 -0.259019
    outer loop
      vertex -45.01 -36.2784 4.34463
      vertex -52.5 -36.2197 4.12574
      vertex -45.01 -36.2197 4.12574
    endloop
  endfacet
  facet normal 0 -0.422583 0.906324
    outer loop
      vertex -52.5 -36.85 2.77417
      vertex -45.01 -37.0554 2.6784
      vertex -45.01 -36.85 2.77417
    endloop
  endfacet
  facet normal 0 -0.422583 0.906324
    outer loop
      vertex -45.01 -37.0554 2.6784
      vertex -52.5 -36.85 2.77417
      vertex -52.5 -37.0554 2.6784
    endloop
  endfacet
  facet normal 0 0.258802 -0.96593
    outer loop
      vertex -52.5 -37.9446 5.1216
      vertex -45.01 -37.7257 5.18025
      vertex -45.01 -37.9446 5.1216
    endloop
  endfacet
  facet normal 0 0.258802 -0.96593
    outer loop
      vertex -45.01 -37.7257 5.18025
      vertex -52.5 -37.9446 5.1216
      vertex -52.5 -37.7257 5.18025
    endloop
  endfacet
  facet normal 0 0.0871724 -0.996193
    outer loop
      vertex -52.5 -37.7257 5.18025
      vertex -45.01 -37.5 5.2
      vertex -45.01 -37.7257 5.18025
    endloop
  endfacet
  facet normal 0 0.0871724 -0.996193
    outer loop
      vertex -45.01 -37.5 5.2
      vertex -52.5 -37.7257 5.18025
      vertex -52.5 -37.5 5.2
    endloop
  endfacet
  facet normal 0 0.819302 -0.573362
    outer loop
      vertex -45.01 -38.6258 4.55
      vertex -52.5 -38.4959 4.73562
      vertex -45.01 -38.4959 4.73562
    endloop
  endfacet
  facet normal 0 0.819302 -0.573362
    outer loop
      vertex -52.5 -38.4959 4.73562
      vertex -45.01 -38.6258 4.55
      vertex -52.5 -38.6258 4.55
    endloop
  endfacet
  facet normal 0 0.819302 0.573362
    outer loop
      vertex -45.01 -38.4959 3.06438
      vertex -52.5 -38.6258 3.25
      vertex -45.01 -38.6258 3.25
    endloop
  endfacet
  facet normal 0 0.819302 0.573362
    outer loop
      vertex -52.5 -38.6258 3.25
      vertex -45.01 -38.4959 3.06438
      vertex -52.5 -38.4959 3.06438
    endloop
  endfacet
  facet normal 0 0.90625 0.422743
    outer loop
      vertex -45.01 -38.6258 3.25
      vertex -52.5 -38.7216 3.45537
      vertex -45.01 -38.7216 3.45537
    endloop
  endfacet
  facet normal 0 0.90625 0.422743
    outer loop
      vertex -52.5 -38.7216 3.45537
      vertex -45.01 -38.6258 3.25
      vertex -52.5 -38.6258 3.25
    endloop
  endfacet
  facet normal -0 0.0871724 0.996193
    outer loop
      vertex -52.5 -37.5 2.6
      vertex -45.01 -37.7257 2.61975
      vertex -45.01 -37.5 2.6
    endloop
  endfacet
  facet normal 0 0.0871724 0.996193
    outer loop
      vertex -45.01 -37.7257 2.61975
      vertex -52.5 -37.5 2.6
      vertex -52.5 -37.7257 2.61975
    endloop
  endfacet
  facet normal 0 -0.0871724 0.996193
    outer loop
      vertex -52.5 -37.2743 2.61975
      vertex -45.01 -37.5 2.6
      vertex -45.01 -37.2743 2.61975
    endloop
  endfacet
  facet normal 0 -0.0871724 0.996193
    outer loop
      vertex -45.01 -37.5 2.6
      vertex -52.5 -37.2743 2.61975
      vertex -52.5 -37.5 2.6
    endloop
  endfacet
  facet normal 0 -0.57361 0.819128
    outer loop
      vertex -52.5 -36.6644 2.90414
      vertex -45.01 -36.85 2.77417
      vertex -45.01 -36.6644 2.90414
    endloop
  endfacet
  facet normal 0 -0.57361 0.819128
    outer loop
      vertex -45.01 -36.85 2.77417
      vertex -52.5 -36.6644 2.90414
      vertex -52.5 -36.85 2.77417
    endloop
  endfacet
  facet normal 0 0.996214 0.0869381
    outer loop
      vertex -45.01 -38.7803 3.67426
      vertex -52.5 -38.8 3.9
      vertex -45.01 -38.8 3.9
    endloop
  endfacet
  facet normal 0 0.996214 0.0869381
    outer loop
      vertex -52.5 -38.8 3.9
      vertex -45.01 -38.7803 3.67426
      vertex -52.5 -38.7803 3.67426
    endloop
  endfacet
  facet normal 0 -0.706974 -0.707239
    outer loop
      vertex -52.5 -36.5041 4.73562
      vertex -45.01 -36.6644 4.89586
      vertex -52.5 -36.6644 4.89586
    endloop
  endfacet
  facet normal 0 -0.706974 -0.707239
    outer loop
      vertex -45.01 -36.6644 4.89586
      vertex -52.5 -36.5041 4.73562
      vertex -45.01 -36.5041 4.73562
    endloop
  endfacet
  facet normal -0 0.57361 0.819128
    outer loop
      vertex -52.5 -38.15 2.77417
      vertex -45.01 -38.3356 2.90414
      vertex -45.01 -38.15 2.77417
    endloop
  endfacet
  facet normal 0 0.57361 0.819128
    outer loop
      vertex -45.01 -38.3356 2.90414
      vertex -52.5 -38.15 2.77417
      vertex -52.5 -38.3356 2.90414
    endloop
  endfacet
  facet normal 0 0.965872 0.259019
    outer loop
      vertex -45.01 -38.7216 3.45537
      vertex -52.5 -38.7803 3.67426
      vertex -45.01 -38.7803 3.67426
    endloop
  endfacet
  facet normal 0 0.965872 0.259019
    outer loop
      vertex -52.5 -38.7803 3.67426
      vertex -45.01 -38.7216 3.45537
      vertex -52.5 -38.7216 3.45537
    endloop
  endfacet
  facet normal 0 -0.819302 -0.573362
    outer loop
      vertex -52.5 -36.3742 4.55
      vertex -45.01 -36.5041 4.73562
      vertex -52.5 -36.5041 4.73562
    endloop
  endfacet
  facet normal 0 -0.819302 -0.573362
    outer loop
      vertex -45.01 -36.5041 4.73562
      vertex -52.5 -36.3742 4.55
      vertex -45.01 -36.3742 4.55
    endloop
  endfacet
  facet normal -0 0.422583 0.906324
    outer loop
      vertex -52.5 -37.9446 2.6784
      vertex -45.01 -38.15 2.77417
      vertex -45.01 -37.9446 2.6784
    endloop
  endfacet
  facet normal 0 0.422583 0.906324
    outer loop
      vertex -45.01 -38.15 2.77417
      vertex -52.5 -37.9446 2.6784
      vertex -52.5 -38.15 2.77417
    endloop
  endfacet
  facet normal -0 0.258802 0.96593
    outer loop
      vertex -52.5 -37.7257 2.61975
      vertex -45.01 -37.9446 2.6784
      vertex -45.01 -37.7257 2.61975
    endloop
  endfacet
  facet normal 0 0.258802 0.96593
    outer loop
      vertex -45.01 -37.9446 2.6784
      vertex -52.5 -37.7257 2.61975
      vertex -52.5 -37.9446 2.6784
    endloop
  endfacet
  facet normal 0 0.57361 -0.819128
    outer loop
      vertex -52.5 -38.3356 4.89586
      vertex -45.01 -38.15 5.02583
      vertex -45.01 -38.3356 4.89586
    endloop
  endfacet
  facet normal 0 0.57361 -0.819128
    outer loop
      vertex -45.01 -38.15 5.02583
      vertex -52.5 -38.3356 4.89586
      vertex -52.5 -38.15 5.02583
    endloop
  endfacet
  facet normal 1 0 0
    outer loop
      vertex -52.5 -36.2197 4.12574
      vertex -52.5 -36.2197 3.67426
      vertex -52.5 -36.2 3.9
    endloop
  endfacet
  facet normal 1 0 0
    outer loop
      vertex -52.5 -36.2784 4.34463
      vertex -52.5 -36.2197 3.67426
      vertex -52.5 -36.2197 4.12574
    endloop
  endfacet
  facet normal 1 0 0
    outer loop
      vertex -52.5 -36.2784 4.34463
      vertex -52.5 -36.2784 3.45537
      vertex -52.5 -36.2197 3.67426
    endloop
  endfacet
  facet normal 1 0 0
    outer loop
      vertex -52.5 -36.3742 4.55
      vertex -52.5 -36.2784 3.45537
      vertex -52.5 -36.2784 4.34463
    endloop
  endfacet
  facet normal 1 0 0
    outer loop
      vertex -52.5 -36.3742 4.55
      vertex -52.5 -36.3742 3.25
      vertex -52.5 -36.2784 3.45537
    endloop
  endfacet
  facet normal 1 0 0
    outer loop
      vertex -52.5 -36.5041 4.73562
      vertex -52.5 -36.3742 3.25
      vertex -52.5 -36.3742 4.55
    endloop
  endfacet
  facet normal 1 0 0
    outer loop
      vertex -52.5 -36.5041 4.73562
      vertex -52.5 -36.5041 3.06438
      vertex -52.5 -36.3742 3.25
    endloop
  endfacet
  facet normal 1 0 0
    outer loop
      vertex -52.5 -36.6644 4.89586
      vertex -52.5 -36.5041 3.06438
      vertex -52.5 -36.5041 4.73562
    endloop
  endfacet
  facet normal 1 0 0
    outer loop
      vertex -52.5 -36.6644 4.89586
      vertex -52.5 -36.6644 2.90414
      vertex -52.5 -36.5041 3.06438
    endloop
  endfacet
  facet normal 1 0 0
    outer loop
      vertex -52.5 -36.85 5.02583
      vertex -52.5 -36.6644 2.90414
      vertex -52.5 -36.6644 4.89586
    endloop
  endfacet
  facet normal 1 0 0
    outer loop
      vertex -52.5 -36.85 5.02583
      vertex -52.5 -36.85 2.77417
      vertex -52.5 -36.6644 2.90414
    endloop
  endfacet
  facet normal 1 0 0
    outer loop
      vertex -52.5 -37.0554 5.1216
      vertex -52.5 -36.85 2.77417
      vertex -52.5 -36.85 5.02583
    endloop
  endfacet
  facet normal 1 0 0
    outer loop
      vertex -52.5 -37.0554 5.1216
      vertex -52.5 -37.0554 2.6784
      vertex -52.5 -36.85 2.77417
    endloop
  endfacet
  facet normal 1 0 0
    outer loop
      vertex -52.5 -37.2743 5.18025
      vertex -52.5 -37.0554 2.6784
      vertex -52.5 -37.0554 5.1216
    endloop
  endfacet
  facet normal 1 0 0
    outer loop
      vertex -52.5 -37.2743 5.18025
      vertex -52.5 -37.2743 2.61975
      vertex -52.5 -37.0554 2.6784
    endloop
  endfacet
  facet normal 1 0 0
    outer loop
      vertex -52.5 -37.5 5.2
      vertex -52.5 -37.2743 2.61975
      vertex -52.5 -37.2743 5.18025
    endloop
  endfacet
  facet normal 1 0 0
    outer loop
      vertex -52.5 -37.5 5.2
      vertex -52.5 -37.5 2.6
      vertex -52.5 -37.2743 2.61975
    endloop
  endfacet
  facet normal 1 -0 0
    outer loop
      vertex -52.5 -37.7257 5.18025
      vertex -52.5 -37.5 2.6
      vertex -52.5 -37.5 5.2
    endloop
  endfacet
  facet normal 1 0 0
    outer loop
      vertex -52.5 -37.7257 5.18025
      vertex -52.5 -37.7257 2.61975
      vertex -52.5 -37.5 2.6
    endloop
  endfacet
  facet normal 1 -0 0
    outer loop
      vertex -52.5 -37.9446 5.1216
      vertex -52.5 -37.7257 2.61975
      vertex -52.5 -37.7257 5.18025
    endloop
  endfacet
  facet normal 1 0 0
    outer loop
      vertex -52.5 -37.9446 5.1216
      vertex -52.5 -37.9446 2.6784
      vertex -52.5 -37.7257 2.61975
    endloop
  endfacet
  facet normal 1 -0 0
    outer loop
      vertex -52.5 -38.15 5.02583
      vertex -52.5 -37.9446 2.6784
      vertex -52.5 -37.9446 5.1216
    endloop
  endfacet
  facet normal 1 0 0
    outer loop
      vertex -52.5 -38.15 5.02583
      vertex -52.5 -38.15 2.77417
      vertex -52.5 -37.9446 2.6784
    endloop
  endfacet
  facet normal 1 -0 0
    outer loop
      vertex -52.5 -38.3356 4.89586
      vertex -52.5 -38.15 2.77417
      vertex -52.5 -38.15 5.02583
    endloop
  endfacet
  facet normal 1 0 0
    outer loop
      vertex -52.5 -38.3356 4.89586
      vertex -52.5 -38.3356 2.90414
      vertex -52.5 -38.15 2.77417
    endloop
  endfacet
  facet normal 1 -0 0
    outer loop
      vertex -52.5 -38.4959 4.73562
      vertex -52.5 -38.3356 2.90414
      vertex -52.5 -38.3356 4.89586
    endloop
  endfacet
  facet normal 1 0 0
    outer loop
      vertex -52.5 -38.4959 4.73562
      vertex -52.5 -38.4959 3.06438
      vertex -52.5 -38.3356 2.90414
    endloop
  endfacet
  facet normal 1 -0 0
    outer loop
      vertex -52.5 -38.6258 4.55
      vertex -52.5 -38.4959 3.06438
      vertex -52.5 -38.4959 4.73562
    endloop
  endfacet
  facet normal 1 0 0
    outer loop
      vertex -52.5 -38.6258 4.55
      vertex -52.5 -38.6258 3.25
      vertex -52.5 -38.4959 3.06438
    endloop
  endfacet
  facet normal 1 -0 0
    outer loop
      vertex -52.5 -38.7216 4.34463
      vertex -52.5 -38.6258 3.25
      vertex -52.5 -38.6258 4.55
    endloop
  endfacet
  facet normal 1 0 0
    outer loop
      vertex -52.5 -38.7216 4.34463
      vertex -52.5 -38.7216 3.45537
      vertex -52.5 -38.6258 3.25
    endloop
  endfacet
  facet normal 1 -0 0
    outer loop
      vertex -52.5 -38.7803 4.12574
      vertex -52.5 -38.7216 3.45537
      vertex -52.5 -38.7216 4.34463
    endloop
  endfacet
  facet normal 1 0 0
    outer loop
      vertex -52.5 -38.7803 4.12574
      vertex -52.5 -38.7803 3.67426
      vertex -52.5 -38.7216 3.45537
    endloop
  endfacet
  facet normal 1 0 -0
    outer loop
      vertex -52.5 -38.7803 3.67426
      vertex -52.5 -38.7803 4.12574
      vertex -52.5 -38.8 3.9
    endloop
  endfacet
  facet normal 0 -0.258802 0.96593
    outer loop
      vertex -52.5 -37.0554 2.6784
      vertex -45.01 -37.2743 2.61975
      vertex -45.01 -37.0554 2.6784
    endloop
  endfacet
  facet normal 0 -0.258802 0.96593
    outer loop
      vertex -45.01 -37.2743 2.61975
      vertex -52.5 -37.0554 2.6784
      vertex -52.5 -37.2743 2.61975
    endloop
  endfacet
  facet normal 0 -0.258802 -0.96593
    outer loop
      vertex -52.5 -37.2743 5.18025
      vertex -45.01 -37.0554 5.1216
      vertex -45.01 -37.2743 5.18025
    endloop
  endfacet
  facet normal -0 -0.258802 -0.96593
    outer loop
      vertex -45.01 -37.0554 5.1216
      vertex -52.5 -37.2743 5.18025
      vertex -52.5 -37.0554 5.1216
    endloop
  endfacet
  facet normal 0 0.706974 -0.707239
    outer loop
      vertex -45.01 -38.4959 4.73562
      vertex -52.5 -38.3356 4.89586
      vertex -45.01 -38.3356 4.89586
    endloop
  endfacet
  facet normal 0 0.706974 -0.707239
    outer loop
      vertex -52.5 -38.3356 4.89586
      vertex -45.01 -38.4959 4.73562
      vertex -52.5 -38.4959 4.73562
    endloop
  endfacet
  facet normal 0 0.996214 -0.0869381
    outer loop
      vertex -45.01 -38.8 3.9
      vertex -52.5 -38.7803 4.12574
      vertex -45.01 -38.7803 4.12574
    endloop
  endfacet
  facet normal 0 0.996214 -0.0869381
    outer loop
      vertex -52.5 -38.7803 4.12574
      vertex -45.01 -38.8 3.9
      vertex -52.5 -38.8 3.9
    endloop
  endfacet
  facet normal 0 0.706974 0.707239
    outer loop
      vertex -45.01 -38.3356 2.90414
      vertex -52.5 -38.4959 3.06438
      vertex -45.01 -38.4959 3.06438
    endloop
  endfacet
  facet normal 0 0.706974 0.707239
    outer loop
      vertex -52.5 -38.4959 3.06438
      vertex -45.01 -38.3356 2.90414
      vertex -52.5 -38.3356 2.90414
    endloop
  endfacet
  facet normal 0 -0.996214 -0.0869381
    outer loop
      vertex -52.5 -36.2 3.9
      vertex -45.01 -36.2197 4.12574
      vertex -52.5 -36.2197 4.12574
    endloop
  endfacet
  facet normal 0 -0.996214 -0.0869381
    outer loop
      vertex -45.01 -36.2197 4.12574
      vertex -52.5 -36.2 3.9
      vertex -45.01 -36.2 3.9
    endloop
  endfacet
  facet normal 0 -0.706974 0.707239
    outer loop
      vertex -52.5 -36.6644 2.90414
      vertex -45.01 -36.5041 3.06438
      vertex -52.5 -36.5041 3.06438
    endloop
  endfacet
  facet normal 0 -0.706974 0.707239
    outer loop
      vertex -45.01 -36.5041 3.06438
      vertex -52.5 -36.6644 2.90414
      vertex -45.01 -36.6644 2.90414
    endloop
  endfacet
  facet normal 0 -0.965872 0.259019
    outer loop
      vertex -52.5 -36.2784 3.45537
      vertex -45.01 -36.2197 3.67426
      vertex -52.5 -36.2197 3.67426
    endloop
  endfacet
  facet normal 0 -0.965872 0.259019
    outer loop
      vertex -45.01 -36.2197 3.67426
      vertex -52.5 -36.2784 3.45537
      vertex -45.01 -36.2784 3.45537
    endloop
  endfacet
  facet normal 0 -0.819302 0.573362
    outer loop
      vertex -52.5 -36.5041 3.06438
      vertex -45.01 -36.3742 3.25
      vertex -52.5 -36.3742 3.25
    endloop
  endfacet
  facet normal 0 -0.819302 0.573362
    outer loop
      vertex -45.01 -36.3742 3.25
      vertex -52.5 -36.5041 3.06438
      vertex -45.01 -36.5041 3.06438
    endloop
  endfacet
  facet normal 0 0.965872 -0.259019
    outer loop
      vertex -45.01 -38.7803 4.12574
      vertex -52.5 -38.7216 4.34463
      vertex -45.01 -38.7216 4.34463
    endloop
  endfacet
  facet normal 0 0.965872 -0.259019
    outer loop
      vertex -52.5 -38.7216 4.34463
      vertex -45.01 -38.7803 4.12574
      vertex -52.5 -38.7803 4.12574
    endloop
  endfacet
  facet normal 0 -0.57361 -0.819128
    outer loop
      vertex -52.5 -36.85 5.02583
      vertex -45.01 -36.6644 4.89586
      vertex -45.01 -36.85 5.02583
    endloop
  endfacet
  facet normal -0 -0.57361 -0.819128
    outer loop
      vertex -45.01 -36.6644 4.89586
      vertex -52.5 -36.85 5.02583
      vertex -52.5 -36.6644 4.89586
    endloop
  endfacet
  facet normal 0 -0.0871724 -0.996193
    outer loop
      vertex -52.5 -37.5 5.2
      vertex -45.01 -37.2743 5.18025
      vertex -45.01 -37.5 5.2
    endloop
  endfacet
  facet normal -0 -0.0871724 -0.996193
    outer loop
      vertex -45.01 -37.2743 5.18025
      vertex -52.5 -37.5 5.2
      vertex -52.5 -37.2743 5.18025
    endloop
  endfacet
  facet normal 0 -0.90625 0.422743
    outer loop
      vertex -52.5 -36.3742 3.25
      vertex -45.01 -36.2784 3.45537
      vertex -52.5 -36.2784 3.45537
    endloop
  endfacet
  facet normal 0 -0.90625 0.422743
    outer loop
      vertex -45.01 -36.2784 3.45537
      vertex -52.5 -36.3742 3.25
      vertex -45.01 -36.3742 3.25
    endloop
  endfacet
  facet normal 0 -0.996214 0.0869381
    outer loop
      vertex -52.5 -36.2197 3.67426
      vertex -45.01 -36.2 3.9
      vertex -52.5 -36.2 3.9
    endloop
  endfacet
  facet normal 0 -0.996214 0.0869381
    outer loop
      vertex -45.01 -36.2 3.9
      vertex -52.5 -36.2197 3.67426
      vertex -45.01 -36.2197 3.67426
    endloop
  endfacet
  facet normal 0 0.422583 -0.906324
    outer loop
      vertex -52.5 -38.15 5.02583
      vertex -45.01 -37.9446 5.1216
      vertex -45.01 -38.15 5.02583
    endloop
  endfacet
  facet normal 0 0.422583 -0.906324
    outer loop
      vertex -45.01 -37.9446 5.1216
      vertex -52.5 -38.15 5.02583
      vertex -52.5 -37.9446 5.1216
    endloop
  endfacet
  facet normal 0 -0.422583 -0.906324
    outer loop
      vertex -52.5 -37.0554 5.1216
      vertex -45.01 -36.85 5.02583
      vertex -45.01 -37.0554 5.1216
    endloop
  endfacet
  facet normal -0 -0.422583 -0.906324
    outer loop
      vertex -45.01 -36.85 5.02583
      vertex -52.5 -37.0554 5.1216
      vertex -52.5 -36.85 5.02583
    endloop
  endfacet
  facet normal 0 0.90625 -0.422743
    outer loop
      vertex -45.01 -38.7216 4.34463
      vertex -52.5 -38.6258 4.55
      vertex -45.01 -38.6258 4.55
    endloop
  endfacet
  facet normal 0 0.90625 -0.422743
    outer loop
      vertex -52.5 -38.6258 4.55
      vertex -45.01 -38.7216 4.34463
      vertex -52.5 -38.7216 4.34463
    endloop
  endfacet
  facet normal 0 -0.965872 -0.259019
    outer loop
      vertex -52.5 38.7803 4.12574
      vertex -45.01 38.7216 4.34463
      vertex -52.5 38.7216 4.34463
    endloop
  endfacet
  facet normal 0 -0.965872 -0.259019
    outer loop
      vertex -45.01 38.7216 4.34463
      vertex -52.5 38.7803 4.12574
      vertex -45.01 38.7803 4.12574
    endloop
  endfacet
  facet normal 0 -0.422583 0.906324
    outer loop
      vertex -52.5 38.15 2.77417
      vertex -45.01 37.9446 2.6784
      vertex -45.01 38.15 2.77417
    endloop
  endfacet
  facet normal 0 -0.422583 0.906324
    outer loop
      vertex -45.01 37.9446 2.6784
      vertex -52.5 38.15 2.77417
      vertex -52.5 37.9446 2.6784
    endloop
  endfacet
  facet normal 0 0.706974 -0.707239
    outer loop
      vertex -45.01 36.5041 4.73562
      vertex -52.5 36.6644 4.89586
      vertex -45.01 36.6644 4.89586
    endloop
  endfacet
  facet normal 0 0.706974 -0.707239
    outer loop
      vertex -52.5 36.6644 4.89586
      vertex -45.01 36.5041 4.73562
      vertex -52.5 36.5041 4.73562
    endloop
  endfacet
  facet normal 1 0 0
    outer loop
      vertex -52.5 38.7803 4.12574
      vertex -52.5 38.7803 3.67426
      vertex -52.5 38.8 3.9
    endloop
  endfacet
  facet normal 1 0 0
    outer loop
      vertex -52.5 38.7216 4.34463
      vertex -52.5 38.7803 3.67426
      vertex -52.5 38.7803 4.12574
    endloop
  endfacet
  facet normal 1 0 0
    outer loop
      vertex -52.5 38.7216 4.34463
      vertex -52.5 38.7216 3.45537
      vertex -52.5 38.7803 3.67426
    endloop
  endfacet
  facet normal 1 0 0
    outer loop
      vertex -52.5 38.6258 4.55
      vertex -52.5 38.7216 3.45537
      vertex -52.5 38.7216 4.34463
    endloop
  endfacet
  facet normal 1 0 0
    outer loop
      vertex -52.5 38.6258 4.55
      vertex -52.5 38.6258 3.25
      vertex -52.5 38.7216 3.45537
    endloop
  endfacet
  facet normal 1 0 0
    outer loop
      vertex -52.5 38.4959 4.73562
      vertex -52.5 38.6258 3.25
      vertex -52.5 38.6258 4.55
    endloop
  endfacet
  facet normal 1 0 0
    outer loop
      vertex -52.5 38.4959 4.73562
      vertex -52.5 38.4959 3.06438
      vertex -52.5 38.6258 3.25
    endloop
  endfacet
  facet normal 1 0 0
    outer loop
      vertex -52.5 38.3356 4.89586
      vertex -52.5 38.4959 3.06438
      vertex -52.5 38.4959 4.73562
    endloop
  endfacet
  facet normal 1 0 0
    outer loop
      vertex -52.5 38.3356 4.89586
      vertex -52.5 38.3356 2.90414
      vertex -52.5 38.4959 3.06438
    endloop
  endfacet
  facet normal 1 0 0
    outer loop
      vertex -52.5 38.15 5.02583
      vertex -52.5 38.3356 2.90414
      vertex -52.5 38.3356 4.89586
    endloop
  endfacet
  facet normal 1 0 0
    outer loop
      vertex -52.5 38.15 5.02583
      vertex -52.5 38.15 2.77417
      vertex -52.5 38.3356 2.90414
    endloop
  endfacet
  facet normal 1 0 0
    outer loop
      vertex -52.5 37.9446 5.1216
      vertex -52.5 38.15 2.77417
      vertex -52.5 38.15 5.02583
    endloop
  endfacet
  facet normal 1 0 0
    outer loop
      vertex -52.5 37.9446 5.1216
      vertex -52.5 37.9446 2.6784
      vertex -52.5 38.15 2.77417
    endloop
  endfacet
  facet normal 1 0 0
    outer loop
      vertex -52.5 37.7257 5.18025
      vertex -52.5 37.9446 2.6784
      vertex -52.5 37.9446 5.1216
    endloop
  endfacet
  facet normal 1 0 0
    outer loop
      vertex -52.5 37.7257 5.18025
      vertex -52.5 37.7257 2.61975
      vertex -52.5 37.9446 2.6784
    endloop
  endfacet
  facet normal 1 0 0
    outer loop
      vertex -52.5 37.5 5.2
      vertex -52.5 37.7257 2.61975
      vertex -52.5 37.7257 5.18025
    endloop
  endfacet
  facet normal 1 0 0
    outer loop
      vertex -52.5 37.5 5.2
      vertex -52.5 37.5 2.6
      vertex -52.5 37.7257 2.61975
    endloop
  endfacet
  facet normal 1 -0 0
    outer loop
      vertex -52.5 37.2743 5.18025
      vertex -52.5 37.5 2.6
      vertex -52.5 37.5 5.2
    endloop
  endfacet
  facet normal 1 0 0
    outer loop
      vertex -52.5 37.2743 5.18025
      vertex -52.5 37.2743 2.61975
      vertex -52.5 37.5 2.6
    endloop
  endfacet
  facet normal 1 -0 0
    outer loop
      vertex -52.5 37.0554 5.1216
      vertex -52.5 37.2743 2.61975
      vertex -52.5 37.2743 5.18025
    endloop
  endfacet
  facet normal 1 0 0
    outer loop
      vertex -52.5 37.0554 5.1216
      vertex -52.5 37.0554 2.6784
      vertex -52.5 37.2743 2.61975
    endloop
  endfacet
  facet normal 1 -0 0
    outer loop
      vertex -52.5 36.85 5.02583
      vertex -52.5 37.0554 2.6784
      vertex -52.5 37.0554 5.1216
    endloop
  endfacet
  facet normal 1 0 0
    outer loop
      vertex -52.5 36.85 5.02583
      vertex -52.5 36.85 2.77417
      vertex -52.5 37.0554 2.6784
    endloop
  endfacet
  facet normal 1 -0 0
    outer loop
      vertex -52.5 36.6644 4.89586
      vertex -52.5 36.85 2.77417
      vertex -52.5 36.85 5.02583
    endloop
  endfacet
  facet normal 1 0 0
    outer loop
      vertex -52.5 36.6644 4.89586
      vertex -52.5 36.6644 2.90414
      vertex -52.5 36.85 2.77417
    endloop
  endfacet
  facet normal 1 -0 0
    outer loop
      vertex -52.5 36.5041 4.73562
      vertex -52.5 36.6644 2.90414
      vertex -52.5 36.6644 4.89586
    endloop
  endfacet
  facet normal 1 0 0
    outer loop
      vertex -52.5 36.5041 4.73562
      vertex -52.5 36.5041 3.06438
      vertex -52.5 36.6644 2.90414
    endloop
  endfacet
  facet normal 1 -0 0
    outer loop
      vertex -52.5 36.3742 4.55
      vertex -52.5 36.5041 3.06438
      vertex -52.5 36.5041 4.73562
    endloop
  endfacet
  facet normal 1 0 0
    outer loop
      vertex -52.5 36.3742 4.55
      vertex -52.5 36.3742 3.25
      vertex -52.5 36.5041 3.06438
    endloop
  endfacet
  facet normal 1 -0 0
    outer loop
      vertex -52.5 36.2784 4.34463
      vertex -52.5 36.3742 3.25
      vertex -52.5 36.3742 4.55
    endloop
  endfacet
  facet normal 1 0 0
    outer loop
      vertex -52.5 36.2784 4.34463
      vertex -52.5 36.2784 3.45537
      vertex -52.5 36.3742 3.25
    endloop
  endfacet
  facet normal 1 -0 0
    outer loop
      vertex -52.5 36.2197 4.12574
      vertex -52.5 36.2784 3.45537
      vertex -52.5 36.2784 4.34463
    endloop
  endfacet
  facet normal 1 0 0
    outer loop
      vertex -52.5 36.2197 4.12574
      vertex -52.5 36.2197 3.67426
      vertex -52.5 36.2784 3.45537
    endloop
  endfacet
  facet normal 1 0 -0
    outer loop
      vertex -52.5 36.2197 3.67426
      vertex -52.5 36.2197 4.12574
      vertex -52.5 36.2 3.9
    endloop
  endfacet
  facet normal 0 0.819302 0.573362
    outer loop
      vertex -45.01 36.5041 3.06438
      vertex -52.5 36.3742 3.25
      vertex -45.01 36.3742 3.25
    endloop
  endfacet
  facet normal 0 0.819302 0.573362
    outer loop
      vertex -52.5 36.3742 3.25
      vertex -45.01 36.5041 3.06438
      vertex -52.5 36.5041 3.06438
    endloop
  endfacet
  facet normal 0 0.90625 -0.422743
    outer loop
      vertex -45.01 36.2784 4.34463
      vertex -52.5 36.3742 4.55
      vertex -45.01 36.3742 4.55
    endloop
  endfacet
  facet normal 0 0.90625 -0.422743
    outer loop
      vertex -52.5 36.3742 4.55
      vertex -45.01 36.2784 4.34463
      vertex -52.5 36.2784 4.34463
    endloop
  endfacet
  facet normal -0 0.422583 0.906324
    outer loop
      vertex -52.5 37.0554 2.6784
      vertex -45.01 36.85 2.77417
      vertex -45.01 37.0554 2.6784
    endloop
  endfacet
  facet normal 0 0.422583 0.906324
    outer loop
      vertex -45.01 36.85 2.77417
      vertex -52.5 37.0554 2.6784
      vertex -52.5 36.85 2.77417
    endloop
  endfacet
  facet normal -0 0.0871724 0.996193
    outer loop
      vertex -52.5 37.5 2.6
      vertex -45.01 37.2743 2.61975
      vertex -45.01 37.5 2.6
    endloop
  endfacet
  facet normal 0 0.0871724 0.996193
    outer loop
      vertex -45.01 37.2743 2.61975
      vertex -52.5 37.5 2.6
      vertex -52.5 37.2743 2.61975
    endloop
  endfacet
  facet normal 0 -0.0871724 0.996193
    outer loop
      vertex -52.5 37.7257 2.61975
      vertex -45.01 37.5 2.6
      vertex -45.01 37.7257 2.61975
    endloop
  endfacet
  facet normal 0 -0.0871724 0.996193
    outer loop
      vertex -45.01 37.5 2.6
      vertex -52.5 37.7257 2.61975
      vertex -52.5 37.5 2.6
    endloop
  endfacet
  facet normal 0 -0.57361 0.819128
    outer loop
      vertex -52.5 38.3356 2.90414
      vertex -45.01 38.15 2.77417
      vertex -45.01 38.3356 2.90414
    endloop
  endfacet
  facet normal 0 -0.57361 0.819128
    outer loop
      vertex -45.01 38.15 2.77417
      vertex -52.5 38.3356 2.90414
      vertex -52.5 38.15 2.77417
    endloop
  endfacet
  facet normal 0 0.819302 -0.573362
    outer loop
      vertex -45.01 36.3742 4.55
      vertex -52.5 36.5041 4.73562
      vertex -45.01 36.5041 4.73562
    endloop
  endfacet
  facet normal 0 0.819302 -0.573362
    outer loop
      vertex -52.5 36.5041 4.73562
      vertex -45.01 36.3742 4.55
      vertex -52.5 36.3742 4.55
    endloop
  endfacet
  facet normal -0 0.258802 0.96593
    outer loop
      vertex -52.5 37.2743 2.61975
      vertex -45.01 37.0554 2.6784
      vertex -45.01 37.2743 2.61975
    endloop
  endfacet
  facet normal 0 0.258802 0.96593
    outer loop
      vertex -45.01 37.0554 2.6784
      vertex -52.5 37.2743 2.61975
      vertex -52.5 37.0554 2.6784
    endloop
  endfacet
  facet normal 0 -0.706974 -0.707239
    outer loop
      vertex -52.5 38.4959 4.73562
      vertex -45.01 38.3356 4.89586
      vertex -52.5 38.3356 4.89586
    endloop
  endfacet
  facet normal 0 -0.706974 -0.707239
    outer loop
      vertex -45.01 38.3356 4.89586
      vertex -52.5 38.4959 4.73562
      vertex -45.01 38.4959 4.73562
    endloop
  endfacet
  facet normal -0 0.57361 0.819128
    outer loop
      vertex -52.5 36.85 2.77417
      vertex -45.01 36.6644 2.90414
      vertex -45.01 36.85 2.77417
    endloop
  endfacet
  facet normal 0 0.57361 0.819128
    outer loop
      vertex -45.01 36.6644 2.90414
      vertex -52.5 36.85 2.77417
      vertex -52.5 36.6644 2.90414
    endloop
  endfacet
  facet normal 0 0.706974 0.707239
    outer loop
      vertex -45.01 36.6644 2.90414
      vertex -52.5 36.5041 3.06438
      vertex -45.01 36.5041 3.06438
    endloop
  endfacet
  facet normal 0 0.706974 0.707239
    outer loop
      vertex -52.5 36.5041 3.06438
      vertex -45.01 36.6644 2.90414
      vertex -52.5 36.6644 2.90414
    endloop
  endfacet
  facet normal 0 -0.996214 -0.0869381
    outer loop
      vertex -52.5 38.8 3.9
      vertex -45.01 38.7803 4.12574
      vertex -52.5 38.7803 4.12574
    endloop
  endfacet
  facet normal 0 -0.996214 -0.0869381
    outer loop
      vertex -45.01 38.7803 4.12574
      vertex -52.5 38.8 3.9
      vertex -45.01 38.8 3.9
    endloop
  endfacet
  facet normal 0 -0.819302 -0.573362
    outer loop
      vertex -52.5 38.6258 4.55
      vertex -45.01 38.4959 4.73562
      vertex -52.5 38.4959 4.73562
    endloop
  endfacet
  facet normal 0 -0.819302 -0.573362
    outer loop
      vertex -45.01 38.4959 4.73562
      vertex -52.5 38.6258 4.55
      vertex -45.01 38.6258 4.55
    endloop
  endfacet
  facet normal 0 -0.90625 -0.422743
    outer loop
      vertex -52.5 38.7216 4.34463
      vertex -45.01 38.6258 4.55
      vertex -52.5 38.6258 4.55
    endloop
  endfacet
  facet normal 0 -0.90625 -0.422743
    outer loop
      vertex -45.01 38.6258 4.55
      vertex -52.5 38.7216 4.34463
      vertex -45.01 38.7216 4.34463
    endloop
  endfacet
  facet normal 0 0.965872 0.259019
    outer loop
      vertex -45.01 36.2784 3.45537
      vertex -52.5 36.2197 3.67426
      vertex -45.01 36.2197 3.67426
    endloop
  endfacet
  facet normal 0 0.965872 0.259019
    outer loop
      vertex -52.5 36.2197 3.67426
      vertex -45.01 36.2784 3.45537
      vertex -52.5 36.2784 3.45537
    endloop
  endfacet
  facet normal 0 0.965872 -0.259019
    outer loop
      vertex -45.01 36.2197 4.12574
      vertex -52.5 36.2784 4.34463
      vertex -45.01 36.2784 4.34463
    endloop
  endfacet
  facet normal 0 0.965872 -0.259019
    outer loop
      vertex -52.5 36.2784 4.34463
      vertex -45.01 36.2197 4.12574
      vertex -52.5 36.2197 4.12574
    endloop
  endfacet
  facet normal 0 0.0871724 -0.996193
    outer loop
      vertex -52.5 37.2743 5.18025
      vertex -45.01 37.5 5.2
      vertex -45.01 37.2743 5.18025
    endloop
  endfacet
  facet normal 0 0.0871724 -0.996193
    outer loop
      vertex -45.01 37.5 5.2
      vertex -52.5 37.2743 5.18025
      vertex -52.5 37.5 5.2
    endloop
  endfacet
  facet normal 0 -0.258802 0.96593
    outer loop
      vertex -52.5 37.9446 2.6784
      vertex -45.01 37.7257 2.61975
      vertex -45.01 37.9446 2.6784
    endloop
  endfacet
  facet normal 0 -0.258802 0.96593
    outer loop
      vertex -45.01 37.7257 2.61975
      vertex -52.5 37.9446 2.6784
      vertex -52.5 37.7257 2.61975
    endloop
  endfacet
  facet normal 0 -0.258802 -0.96593
    outer loop
      vertex -52.5 37.7257 5.18025
      vertex -45.01 37.9446 5.1216
      vertex -45.01 37.7257 5.18025
    endloop
  endfacet
  facet normal -0 -0.258802 -0.96593
    outer loop
      vertex -45.01 37.9446 5.1216
      vertex -52.5 37.7257 5.18025
      vertex -52.5 37.9446 5.1216
    endloop
  endfacet
  facet normal 0 0.57361 -0.819128
    outer loop
      vertex -52.5 36.6644 4.89586
      vertex -45.01 36.85 5.02583
      vertex -45.01 36.6644 4.89586
    endloop
  endfacet
  facet normal 0 0.57361 -0.819128
    outer loop
      vertex -45.01 36.85 5.02583
      vertex -52.5 36.6644 4.89586
      vertex -52.5 36.85 5.02583
    endloop
  endfacet
  facet normal 0 -0.706974 0.707239
    outer loop
      vertex -52.5 38.3356 2.90414
      vertex -45.01 38.4959 3.06438
      vertex -52.5 38.4959 3.06438
    endloop
  endfacet
  facet normal 0 -0.706974 0.707239
    outer loop
      vertex -45.01 38.4959 3.06438
      vertex -52.5 38.3356 2.90414
      vertex -45.01 38.3356 2.90414
    endloop
  endfacet
  facet normal 0 -0.819302 0.573362
    outer loop
      vertex -52.5 38.4959 3.06438
      vertex -45.01 38.6258 3.25
      vertex -52.5 38.6258 3.25
    endloop
  endfacet
  facet normal 0 -0.819302 0.573362
    outer loop
      vertex -45.01 38.6258 3.25
      vertex -52.5 38.4959 3.06438
      vertex -45.01 38.4959 3.06438
    endloop
  endfacet
  facet normal 0 0.90625 0.422743
    outer loop
      vertex -45.01 36.3742 3.25
      vertex -52.5 36.2784 3.45537
      vertex -45.01 36.2784 3.45537
    endloop
  endfacet
  facet normal 0 0.90625 0.422743
    outer loop
      vertex -52.5 36.2784 3.45537
      vertex -45.01 36.3742 3.25
      vertex -52.5 36.3742 3.25
    endloop
  endfacet
  facet normal 0 -0.90625 0.422743
    outer loop
      vertex -52.5 38.6258 3.25
      vertex -45.01 38.7216 3.45537
      vertex -52.5 38.7216 3.45537
    endloop
  endfacet
  facet normal 0 -0.90625 0.422743
    outer loop
      vertex -45.01 38.7216 3.45537
      vertex -52.5 38.6258 3.25
      vertex -45.01 38.6258 3.25
    endloop
  endfacet
  facet normal 0 -0.965872 0.259019
    outer loop
      vertex -52.5 38.7216 3.45537
      vertex -45.01 38.7803 3.67426
      vertex -52.5 38.7803 3.67426
    endloop
  endfacet
  facet normal 0 -0.965872 0.259019
    outer loop
      vertex -45.01 38.7803 3.67426
      vertex -52.5 38.7216 3.45537
      vertex -45.01 38.7216 3.45537
    endloop
  endfacet
  facet normal 0 0.422583 -0.906324
    outer loop
      vertex -52.5 36.85 5.02583
      vertex -45.01 37.0554 5.1216
      vertex -45.01 36.85 5.02583
    endloop
  endfacet
  facet normal 0 0.422583 -0.906324
    outer loop
      vertex -45.01 37.0554 5.1216
      vertex -52.5 36.85 5.02583
      vertex -52.5 37.0554 5.1216
    endloop
  endfacet
  facet normal 0 0.996214 0.0869381
    outer loop
      vertex -45.01 36.2197 3.67426
      vertex -52.5 36.2 3.9
      vertex -45.01 36.2 3.9
    endloop
  endfacet
  facet normal 0 0.996214 0.0869381
    outer loop
      vertex -52.5 36.2 3.9
      vertex -45.01 36.2197 3.67426
      vertex -52.5 36.2197 3.67426
    endloop
  endfacet
  facet normal 0 -0.996214 0.0869381
    outer loop
      vertex -52.5 38.7803 3.67426
      vertex -45.01 38.8 3.9
      vertex -52.5 38.8 3.9
    endloop
  endfacet
  facet normal 0 -0.996214 0.0869381
    outer loop
      vertex -45.01 38.8 3.9
      vertex -52.5 38.7803 3.67426
      vertex -45.01 38.7803 3.67426
    endloop
  endfacet
  facet normal 0 0.258802 -0.96593
    outer loop
      vertex -52.5 37.0554 5.1216
      vertex -45.01 37.2743 5.18025
      vertex -45.01 37.0554 5.1216
    endloop
  endfacet
  facet normal 0 0.258802 -0.96593
    outer loop
      vertex -45.01 37.2743 5.18025
      vertex -52.5 37.0554 5.1216
      vertex -52.5 37.2743 5.18025
    endloop
  endfacet
  facet normal 0 -0.0871724 -0.996193
    outer loop
      vertex -52.5 37.5 5.2
      vertex -45.01 37.7257 5.18025
      vertex -45.01 37.5 5.2
    endloop
  endfacet
  facet normal -0 -0.0871724 -0.996193
    outer loop
      vertex -45.01 37.7257 5.18025
      vertex -52.5 37.5 5.2
      vertex -52.5 37.7257 5.18025
    endloop
  endfacet
  facet normal 0 0.996214 -0.0869381
    outer loop
      vertex -45.01 36.2 3.9
      vertex -52.5 36.2197 4.12574
      vertex -45.01 36.2197 4.12574
    endloop
  endfacet
  facet normal 0 0.996214 -0.0869381
    outer loop
      vertex -52.5 36.2197 4.12574
      vertex -45.01 36.2 3.9
      vertex -52.5 36.2 3.9
    endloop
  endfacet
  facet normal 0 -0.422583 -0.906324
    outer loop
      vertex -52.5 37.9446 5.1216
      vertex -45.01 38.15 5.02583
      vertex -45.01 37.9446 5.1216
    endloop
  endfacet
  facet normal -0 -0.422583 -0.906324
    outer loop
      vertex -45.01 38.15 5.02583
      vertex -52.5 37.9446 5.1216
      vertex -52.5 38.15 5.02583
    endloop
  endfacet
  facet normal 0 -0.57361 -0.819128
    outer loop
      vertex -52.5 38.15 5.02583
      vertex -45.01 38.3356 4.89586
      vertex -45.01 38.15 5.02583
    endloop
  endfacet
  facet normal -0 -0.57361 -0.819128
    outer loop
      vertex -45.01 38.3356 4.89586
      vertex -52.5 38.15 5.02583
      vertex -52.5 38.3356 4.89586
    endloop
  endfacet
  facet normal 1 0 0
    outer loop
      vertex -45.01 67.5 7.8
      vertex -45.01 38.8 3.9
      vertex -45.01 67.5 3
    endloop
  endfacet
  facet normal 1 0 0
    outer loop
      vertex -45.01 67.5 7.8
      vertex -45.01 38.7803 4.12574
      vertex -45.01 38.8 3.9
    endloop
  endfacet
  facet normal 1 0 0
    outer loop
      vertex -45.01 67.5 7.8
      vertex -45.01 38.7216 4.34463
      vertex -45.01 38.7803 4.12574
    endloop
  endfacet
  facet normal 1 0 0
    outer loop
      vertex -45.01 67.5 7.8
      vertex -45.01 38.6258 4.55
      vertex -45.01 38.7216 4.34463
    endloop
  endfacet
  facet normal 1 0 0
    outer loop
      vertex -45.01 67.5 7.8
      vertex -45.01 38.4959 4.73562
      vertex -45.01 38.6258 4.55
    endloop
  endfacet
  facet normal 1 0 0
    outer loop
      vertex -45.01 67.5 7.8
      vertex -45.01 38.3356 4.89586
      vertex -45.01 38.4959 4.73562
    endloop
  endfacet
  facet normal 1 0 0
    outer loop
      vertex -45.01 67.5 7.8
      vertex -45.01 38.15 5.02583
      vertex -45.01 38.3356 4.89586
    endloop
  endfacet
  facet normal 1 0 0
    outer loop
      vertex -45.01 67.5 7.8
      vertex -45.01 37.9446 5.1216
      vertex -45.01 38.15 5.02583
    endloop
  endfacet
  facet normal 1 0 0
    outer loop
      vertex -45.01 67.5 7.8
      vertex -45.01 37.7257 5.18025
      vertex -45.01 37.9446 5.1216
    endloop
  endfacet
  facet normal 1 0 0
    outer loop
      vertex -45.01 67.5 7.8
      vertex -45.01 37.5 5.2
      vertex -45.01 37.7257 5.18025
    endloop
  endfacet
  facet normal 1 0 0
    outer loop
      vertex -45.01 36.2197 4.12574
      vertex -45.01 -36.2 3.9
      vertex -45.01 36.2 3.9
    endloop
  endfacet
  facet normal 1 0 0
    outer loop
      vertex -45.01 -36.2197 4.12574
      vertex -45.01 36.2197 4.12574
      vertex -45.01 36.2784 4.34463
    endloop
  endfacet
  facet normal 1 0 0
    outer loop
      vertex -45.01 -36.2784 4.34463
      vertex -45.01 36.2784 4.34463
      vertex -45.01 36.3742 4.55
    endloop
  endfacet
  facet normal 1 0 0
    outer loop
      vertex -45.01 -36.3742 4.55
      vertex -45.01 36.3742 4.55
      vertex -45.01 36.5041 4.73562
    endloop
  endfacet
  facet normal 1 0 0
    outer loop
      vertex -45.01 -36.5041 4.73562
      vertex -45.01 36.5041 4.73562
      vertex -45.01 36.6644 4.89586
    endloop
  endfacet
  facet normal 1 0 0
    outer loop
      vertex -45.01 -36.6644 4.89586
      vertex -45.01 36.6644 4.89586
      vertex -45.01 36.85 5.02583
    endloop
  endfacet
  facet normal 1 0 0
    outer loop
      vertex -45.01 -36.85 5.02583
      vertex -45.01 36.85 5.02583
      vertex -45.01 37.0554 5.1216
    endloop
  endfacet
  facet normal 1 0 0
    outer loop
      vertex -45.01 -37.0554 5.1216
      vertex -45.01 37.0554 5.1216
      vertex -45.01 37.2743 5.18025
    endloop
  endfacet
  facet normal 1 0 0
    outer loop
      vertex -45.01 -37.2743 5.18025
      vertex -45.01 37.2743 5.18025
      vertex -45.01 37.5 5.2
    endloop
  endfacet
  facet normal 1 0 0
    outer loop
      vertex -45.01 -37.5 5.2
      vertex -45.01 37.5 5.2
      vertex -45.01 67.5 7.8
    endloop
  endfacet
  facet normal 1 0 0
    outer loop
      vertex -45.01 36.2197 4.12574
      vertex -45.01 -36.2197 4.12574
      vertex -45.01 -36.2 3.9
    endloop
  endfacet
  facet normal 1 0 0
    outer loop
      vertex -45.01 36.2784 4.34463
      vertex -45.01 -36.2784 4.34463
      vertex -45.01 -36.2197 4.12574
    endloop
  endfacet
  facet normal 1 0 0
    outer loop
      vertex -45.01 36.3742 4.55
      vertex -45.01 -36.3742 4.55
      vertex -45.01 -36.2784 4.34463
    endloop
  endfacet
  facet normal 1 0 0
    outer loop
      vertex -45.01 36.5041 4.73562
      vertex -45.01 -36.5041 4.73562
      vertex -45.01 -36.3742 4.55
    endloop
  endfacet
  facet normal 1 0 0
    outer loop
      vertex -45.01 36.6644 4.89586
      vertex -45.01 -36.6644 4.89586
      vertex -45.01 -36.5041 4.73562
    endloop
  endfacet
  facet normal 1 0 0
    outer loop
      vertex -45.01 36.85 5.02583
      vertex -45.01 -36.85 5.02583
      vertex -45.01 -36.6644 4.89586
    endloop
  endfacet
  facet normal 1 0 0
    outer loop
      vertex -45.01 37.0554 5.1216
      vertex -45.01 -37.0554 5.1216
      vertex -45.01 -36.85 5.02583
    endloop
  endfacet
  facet normal 1 0 0
    outer loop
      vertex -45.01 37.2743 5.18025
      vertex -45.01 -37.2743 5.18025
      vertex -45.01 -37.0554 5.1216
    endloop
  endfacet
  facet normal 1 0 0
    outer loop
      vertex -45.01 37.5 5.2
      vertex -45.01 -37.5 5.2
      vertex -45.01 -37.2743 5.18025
    endloop
  endfacet
  facet normal 1 0 0
    outer loop
      vertex -45.01 -38.7803 4.12574
      vertex -45.01 -67.5 7.8
      vertex -45.01 -38.8 3.9
    endloop
  endfacet
  facet normal 1 0 0
    outer loop
      vertex -45.01 -38.7216 4.34463
      vertex -45.01 -67.5 7.8
      vertex -45.01 -38.7803 4.12574
    endloop
  endfacet
  facet normal 1 0 0
    outer loop
      vertex -45.01 -38.6258 4.55
      vertex -45.01 -67.5 7.8
      vertex -45.01 -38.7216 4.34463
    endloop
  endfacet
  facet normal 1 0 0
    outer loop
      vertex -45.01 -38.4959 4.73562
      vertex -45.01 -67.5 7.8
      vertex -45.01 -38.6258 4.55
    endloop
  endfacet
  facet normal 1 0 0
    outer loop
      vertex -45.01 -38.3356 4.89586
      vertex -45.01 -67.5 7.8
      vertex -45.01 -38.4959 4.73562
    endloop
  endfacet
  facet normal 1 0 0
    outer loop
      vertex -45.01 -38.15 5.02583
      vertex -45.01 -67.5 7.8
      vertex -45.01 -38.3356 4.89586
    endloop
  endfacet
  facet normal 1 0 0
    outer loop
      vertex -45.01 -37.9446 5.1216
      vertex -45.01 -67.5 7.8
      vertex -45.01 -38.15 5.02583
    endloop
  endfacet
  facet normal 1 0 0
    outer loop
      vertex -45.01 -37.7257 5.18025
      vertex -45.01 -67.5 7.8
      vertex -45.01 -37.9446 5.1216
    endloop
  endfacet
  facet normal 1 0 0
    outer loop
      vertex -45.01 -37.5 5.2
      vertex -45.01 -67.5 7.8
      vertex -45.01 -37.7257 5.18025
    endloop
  endfacet
  facet normal 1 -0 0
    outer loop
      vertex -45.01 -67.5 7.8
      vertex -45.01 -37.5 5.2
      vertex -45.01 67.5 7.8
    endloop
  endfacet
  facet normal 1 -0 0
    outer loop
      vertex -45.01 67.5 3
      vertex -45.01 75 0
      vertex -45.01 75 3
    endloop
  endfacet
  facet normal 1 -0 0
    outer loop
      vertex -45.01 38.7803 3.67426
      vertex -45.01 67.5 3
      vertex -45.01 38.8 3.9
    endloop
  endfacet
  facet normal 1 -0 0
    outer loop
      vertex -45.01 38.7216 3.45537
      vertex -45.01 67.5 3
      vertex -45.01 38.7803 3.67426
    endloop
  endfacet
  facet normal 1 -0 0
    outer loop
      vertex -45.01 38.6258 3.25
      vertex -45.01 67.5 3
      vertex -45.01 38.7216 3.45537
    endloop
  endfacet
  facet normal 1 -0 0
    outer loop
      vertex -45.01 38.4959 3.06438
      vertex -45.01 67.5 3
      vertex -45.01 38.6258 3.25
    endloop
  endfacet
  facet normal 1 0 0
    outer loop
      vertex -45.01 38.3356 2.90414
      vertex -45.01 67.5 3
      vertex -45.01 38.4959 3.06438
    endloop
  endfacet
  facet normal 1 0 0
    outer loop
      vertex -45.01 38.15 2.77417
      vertex -45.01 67.5 3
      vertex -45.01 38.3356 2.90414
    endloop
  endfacet
  facet normal 1 0 0
    outer loop
      vertex -45.01 37.9446 2.6784
      vertex -45.01 67.5 3
      vertex -45.01 38.15 2.77417
    endloop
  endfacet
  facet normal 1 0 0
    outer loop
      vertex -45.01 67.5 3
      vertex -45.01 37.9446 2.6784
      vertex -45.01 75 0
    endloop
  endfacet
  facet normal 1 -0 0
    outer loop
      vertex -45.01 37.7257 2.61975
      vertex -45.01 75 0
      vertex -45.01 37.9446 2.6784
    endloop
  endfacet
  facet normal 1 -0 0
    outer loop
      vertex -45.01 37.5 2.6
      vertex -45.01 75 0
      vertex -45.01 37.7257 2.61975
    endloop
  endfacet
  facet normal 1 -0 0
    outer loop
      vertex -45.01 -36.2 3.9
      vertex -45.01 36.2197 3.67426
      vertex -45.01 36.2 3.9
    endloop
  endfacet
  facet normal 1 0 0
    outer loop
      vertex -45.01 -36.2197 3.67426
      vertex -45.01 36.2197 3.67426
      vertex -45.01 -36.2 3.9
    endloop
  endfacet
  facet normal 1 0 0
    outer loop
      vertex -45.01 36.2197 3.67426
      vertex -45.01 -36.2197 3.67426
      vertex -45.01 36.2784 3.45537
    endloop
  endfacet
  facet normal 1 0 0
    outer loop
      vertex -45.01 -36.2784 3.45537
      vertex -45.01 36.2784 3.45537
      vertex -45.01 -36.2197 3.67426
    endloop
  endfacet
  facet normal 1 0 0
    outer loop
      vertex -45.01 36.2784 3.45537
      vertex -45.01 -36.2784 3.45537
      vertex -45.01 36.3742 3.25
    endloop
  endfacet
  facet normal 1 0 0
    outer loop
      vertex -45.01 -36.3742 3.25
      vertex -45.01 36.3742 3.25
      vertex -45.01 -36.2784 3.45537
    endloop
  endfacet
  facet normal 1 0 0
    outer loop
      vertex -45.01 36.3742 3.25
      vertex -45.01 -36.3742 3.25
      vertex -45.01 36.5041 3.06438
    endloop
  endfacet
  facet normal 1 0 0
    outer loop
      vertex -45.01 -36.5041 3.06438
      vertex -45.01 36.5041 3.06438
      vertex -45.01 -36.3742 3.25
    endloop
  endfacet
  facet normal 1 0 0
    outer loop
      vertex -45.01 36.5041 3.06438
      vertex -45.01 -36.5041 3.06438
      vertex -45.01 36.6644 2.90414
    endloop
  endfacet
  facet normal 1 0 0
    outer loop
      vertex -45.01 -36.6644 2.90414
      vertex -45.01 36.6644 2.90414
      vertex -45.01 -36.5041 3.06438
    endloop
  endfacet
  facet normal 1 0 0
    outer loop
      vertex -45.01 36.6644 2.90414
      vertex -45.01 -36.6644 2.90414
      vertex -45.01 36.85 2.77417
    endloop
  endfacet
  facet normal 1 0 0
    outer loop
      vertex -45.01 -36.85 2.77417
      vertex -45.01 36.85 2.77417
      vertex -45.01 -36.6644 2.90414
    endloop
  endfacet
  facet normal 1 0 0
    outer loop
      vertex -45.01 36.85 2.77417
      vertex -45.01 -36.85 2.77417
      vertex -45.01 37.0554 2.6784
    endloop
  endfacet
  facet normal 1 0 0
    outer loop
      vertex -45.01 -37.0554 2.6784
      vertex -45.01 37.0554 2.6784
      vertex -45.01 -36.85 2.77417
    endloop
  endfacet
  facet normal 1 0 0
    outer loop
      vertex -45.01 37.0554 2.6784
      vertex -45.01 -37.0554 2.6784
      vertex -45.01 37.2743 2.61975
    endloop
  endfacet
  facet normal 1 0 0
    outer loop
      vertex -45.01 -37.2743 2.61975
      vertex -45.01 37.2743 2.61975
      vertex -45.01 -37.0554 2.6784
    endloop
  endfacet
  facet normal 1 0 0
    outer loop
      vertex -45.01 37.2743 2.61975
      vertex -45.01 -37.2743 2.61975
      vertex -45.01 37.5 2.6
    endloop
  endfacet
  facet normal 1 0 0
    outer loop
      vertex -45.01 -37.5 2.6
      vertex -45.01 37.5 2.6
      vertex -45.01 -37.2743 2.61975
    endloop
  endfacet
  facet normal 1 0 0
    outer loop
      vertex -45.01 37.5 2.6
      vertex -45.01 -37.5 2.6
      vertex -45.01 75 0
    endloop
  endfacet
  facet normal 1 0 0
    outer loop
      vertex -45.01 -67.5 3
      vertex -45.01 -38.8 3.9
      vertex -45.01 -67.5 7.8
    endloop
  endfacet
  facet normal 1 0 0
    outer loop
      vertex -45.01 -38.8 3.9
      vertex -45.01 -67.5 3
      vertex -45.01 -38.7803 3.67426
    endloop
  endfacet
  facet normal 1 0 0
    outer loop
      vertex -45.01 -38.7803 3.67426
      vertex -45.01 -67.5 3
      vertex -45.01 -38.7216 3.45537
    endloop
  endfacet
  facet normal 1 0 0
    outer loop
      vertex -45.01 -38.7216 3.45537
      vertex -45.01 -67.5 3
      vertex -45.01 -38.6258 3.25
    endloop
  endfacet
  facet normal 1 0 0
    outer loop
      vertex -45.01 -38.6258 3.25
      vertex -45.01 -67.5 3
      vertex -45.01 -38.4959 3.06438
    endloop
  endfacet
  facet normal 1 0 0
    outer loop
      vertex -45.01 -38.4959 3.06438
      vertex -45.01 -67.5 3
      vertex -45.01 -38.3356 2.90414
    endloop
  endfacet
  facet normal 1 0 0
    outer loop
      vertex -45.01 -38.3356 2.90414
      vertex -45.01 -67.5 3
      vertex -45.01 -38.15 2.77417
    endloop
  endfacet
  facet normal 1 0 0
    outer loop
      vertex -45.01 -38.15 2.77417
      vertex -45.01 -67.5 3
      vertex -45.01 -37.9446 2.6784
    endloop
  endfacet
  facet normal 1 0 0
    outer loop
      vertex -45.01 -75 0
      vertex -45.01 -37.9446 2.6784
      vertex -45.01 -67.5 3
    endloop
  endfacet
  facet normal 1 0 0
    outer loop
      vertex -45.01 -37.9446 2.6784
      vertex -45.01 -75 0
      vertex -45.01 -37.7257 2.61975
    endloop
  endfacet
  facet normal 1 0 0
    outer loop
      vertex -45.01 -37.7257 2.61975
      vertex -45.01 -75 0
      vertex -45.01 -37.5 2.6
    endloop
  endfacet
  facet normal 1 0 0
    outer loop
      vertex -45.01 -75 0
      vertex -45.01 -67.5 3
      vertex -45.01 -75 3
    endloop
  endfacet
  facet normal 1 0 0
    outer loop
      vertex -45.01 -37.5 2.6
      vertex -45.01 -75 0
      vertex -45.01 75 0
    endloop
  endfacet
endsolid OpenSCAD_Model
