solid OpenSCAD_Model
  facet normal 0 1 0
    outer loop
      vertex 40 76 55
      vertex -10 76 22.5
      vertex -50 76 55
    endloop
  endfacet
  facet normal 0 1 0
    outer loop
      vertex 40 76 55
      vertex -1.31759 76 21.7404
      vertex -10 76 22.5
    endloop
  endfacet
  facet normal 0 1 0
    outer loop
      vertex 40 76 55
      vertex 7.10101 76 19.4846
      vertex -1.31759 76 21.7404
    endloop
  endfacet
  facet normal 0 1 0
    outer loop
      vertex 40 76 55
      vertex 15 76 15.8013
      vertex 7.10101 76 19.4846
    endloop
  endfacet
  facet normal 0 1 0
    outer loop
      vertex 40 76 55
      vertex 22.1394 76 10.8022
      vertex 15 76 15.8013
    endloop
  endfacet
  facet normal 0 1 -0
    outer loop
      vertex 40 76 0
      vertex 22.1394 76 10.8022
      vertex 40 76 55
    endloop
  endfacet
  facet normal 0 1 0
    outer loop
      vertex 22.1394 76 10.8022
      vertex 40 76 0
      vertex 28.3022 76 4.63938
    endloop
  endfacet
  facet normal 0 1 0
    outer loop
      vertex 28.3022 76 4.63938
      vertex 40 76 0
      vertex 31.5508 76 0
    endloop
  endfacet
  facet normal 0 1 -0
    outer loop
      vertex -18.6824 76 21.7404
      vertex -50 76 55
      vertex -10 76 22.5
    endloop
  endfacet
  facet normal 0 1 -0
    outer loop
      vertex -27.101 76 19.4846
      vertex -50 76 55
      vertex -18.6824 76 21.7404
    endloop
  endfacet
  facet normal 0 1 -0
    outer loop
      vertex -35 76 15.8013
      vertex -50 76 55
      vertex -27.101 76 19.4846
    endloop
  endfacet
  facet normal 0 1 -0
    outer loop
      vertex -42.1394 76 10.8022
      vertex -50 76 55
      vertex -35 76 15.8013
    endloop
  endfacet
  facet normal 0 1 -0
    outer loop
      vertex -48.3022 76 4.63938
      vertex -50 76 55
      vertex -42.1394 76 10.8022
    endloop
  endfacet
  facet normal 0 1 0
    outer loop
      vertex -50 76 55
      vertex -48.3022 76 4.63938
      vertex -50 76 2.2147
    endloop
  endfacet
  facet normal 0.422584 0.906324 0
    outer loop
      vertex 43.4202 75.3969 0
      vertex 45 74.6603 52.3205
      vertex 45 74.6603 0
    endloop
  endfacet
  facet normal 0.422584 0.906324 0
    outer loop
      vertex 45 74.6603 52.3205
      vertex 43.4202 75.3969 0
      vertex 43.4202 75.3969 53.7939
    endloop
  endfacet
  facet normal 0 -1 0
    outer loop
      vertex -50 -76 55
      vertex -10 -76 22.5
      vertex 40 -76 55
    endloop
  endfacet
  facet normal 0 -1 0
    outer loop
      vertex -50 -76 55
      vertex -18.6824 -76 21.7404
      vertex -10 -76 22.5
    endloop
  endfacet
  facet normal 0 -1 0
    outer loop
      vertex -50 -76 55
      vertex -27.101 -76 19.4846
      vertex -18.6824 -76 21.7404
    endloop
  endfacet
  facet normal 0 -1 0
    outer loop
      vertex -50 -76 55
      vertex -35 -76 15.8013
      vertex -27.101 -76 19.4846
    endloop
  endfacet
  facet normal 0 -1 0
    outer loop
      vertex -50 -76 55
      vertex -42.1394 -76 10.8022
      vertex -35 -76 15.8013
    endloop
  endfacet
  facet normal 0 -1 0
    outer loop
      vertex -50 -76 55
      vertex -48.3022 -76 4.63938
      vertex -42.1394 -76 10.8022
    endloop
  endfacet
  facet normal -0 -1 0
    outer loop
      vertex -48.3022 -76 4.63938
      vertex -50 -76 55
      vertex -50 -76 2.2147
    endloop
  endfacet
  facet normal 0 -1 0
    outer loop
      vertex -1.31759 -76 21.7404
      vertex 40 -76 55
      vertex -10 -76 22.5
    endloop
  endfacet
  facet normal 0 -1 0
    outer loop
      vertex 7.10101 -76 19.4846
      vertex 40 -76 55
      vertex -1.31759 -76 21.7404
    endloop
  endfacet
  facet normal 0 -1 0
    outer loop
      vertex 15 -76 15.8013
      vertex 40 -76 55
      vertex 7.10101 -76 19.4846
    endloop
  endfacet
  facet normal 0 -1 0
    outer loop
      vertex 22.1394 -76 10.8022
      vertex 40 -76 55
      vertex 15 -76 15.8013
    endloop
  endfacet
  facet normal 0 -1 0
    outer loop
      vertex 40 -76 0
      vertex 22.1394 -76 10.8022
      vertex 28.3022 -76 4.63938
    endloop
  endfacet
  facet normal 0 -1 0
    outer loop
      vertex 40 -76 0
      vertex 28.3022 -76 4.63938
      vertex 31.5508 -76 0
    endloop
  endfacet
  facet normal 0 -1 0
    outer loop
      vertex 22.1394 -76 10.8022
      vertex 40 -76 0
      vertex 40 -76 55
    endloop
  endfacet
  facet normal 0.087142 0.996196 0
    outer loop
      vertex 40 76 0
      vertex 41.7365 75.8481 54.6962
      vertex 41.7365 75.8481 0
    endloop
  endfacet
  facet normal 0.087142 0.996196 0
    outer loop
      vertex 41.7365 75.8481 54.6962
      vertex 40 76 0
      vertex 40 76 55
    endloop
  endfacet
  facet normal 0.258848 -0.965918 0
    outer loop
      vertex 41.7365 -75.8481 0
      vertex 43.4202 -75.3969 53.7939
      vertex 41.7365 -75.8481 54.6962
    endloop
  endfacet
  facet normal 0.258848 -0.965918 0
    outer loop
      vertex 43.4202 -75.3969 53.7939
      vertex 41.7365 -75.8481 0
      vertex 43.4202 -75.3969 0
    endloop
  endfacet
  facet normal 1 -0 0
    outer loop
      vertex 50 -66 35
      vertex 50 66 0
      vertex 50 66 35
    endloop
  endfacet
  facet normal 1 0 0
    outer loop
      vertex 50 66 0
      vertex 50 -66 35
      vertex 50 -66 0
    endloop
  endfacet
  facet normal 0.422584 -0.906324 0
    outer loop
      vertex 43.4202 -75.3969 0
      vertex 45 -74.6603 52.3205
      vertex 43.4202 -75.3969 53.7939
    endloop
  endfacet
  facet normal 0.422584 -0.906324 0
    outer loop
      vertex 45 -74.6603 52.3205
      vertex 43.4202 -75.3969 0
      vertex 45 -74.6603 0
    endloop
  endfacet
  facet normal 0.965918 -0.258848 0
    outer loop
      vertex 49.3969 -69.4202 0
      vertex 49.8481 -67.7365 38.473
      vertex 49.3969 -69.4202 41.8404
    endloop
  endfacet
  facet normal 0.965918 -0.258848 0
    outer loop
      vertex 49.8481 -67.7365 38.473
      vertex 49.3969 -69.4202 0
      vertex 49.8481 -67.7365 0
    endloop
  endfacet
  facet normal 0.707107 -0.707107 0
    outer loop
      vertex 46.4279 -73.6604 0
      vertex 47.6604 -72.4279 47.8558
      vertex 46.4279 -73.6604 50.3209
    endloop
  endfacet
  facet normal 0.707107 -0.707107 0
    outer loop
      vertex 47.6604 -72.4279 47.8558
      vertex 46.4279 -73.6604 0
      vertex 47.6604 -72.4279 0
    endloop
  endfacet
  facet normal 0.573605 0.819132 0
    outer loop
      vertex 45 74.6603 0
      vertex 46.4279 73.6604 50.3209
      vertex 46.4279 73.6604 0
    endloop
  endfacet
  facet normal 0.573605 0.819132 0
    outer loop
      vertex 46.4279 73.6604 50.3209
      vertex 45 74.6603 0
      vertex 45 74.6603 52.3205
    endloop
  endfacet
  facet normal 0.906324 -0.422584 0
    outer loop
      vertex 48.6603 -71 0
      vertex 49.3969 -69.4202 41.8404
      vertex 48.6603 -71 45
    endloop
  endfacet
  facet normal 0.906324 -0.422584 0
    outer loop
      vertex 49.3969 -69.4202 41.8404
      vertex 48.6603 -71 0
      vertex 49.3969 -69.4202 0
    endloop
  endfacet
  facet normal 0.573605 -0.819132 0
    outer loop
      vertex 45 -74.6603 0
      vertex 46.4279 -73.6604 50.3209
      vertex 45 -74.6603 52.3205
    endloop
  endfacet
  facet normal 0.573605 -0.819132 0
    outer loop
      vertex 46.4279 -73.6604 50.3209
      vertex 45 -74.6603 0
      vertex 46.4279 -73.6604 0
    endloop
  endfacet
  facet normal 0.996196 -0.087142 0
    outer loop
      vertex 49.8481 -67.7365 0
      vertex 50 -66 35
      vertex 49.8481 -67.7365 38.473
    endloop
  endfacet
  facet normal 0.996196 -0.087142 0
    outer loop
      vertex 50 -66 35
      vertex 49.8481 -67.7365 0
      vertex 50 -66 0
    endloop
  endfacet
  facet normal 0.258848 0.965918 0
    outer loop
      vertex 41.7365 75.8481 0
      vertex 43.4202 75.3969 53.7939
      vertex 43.4202 75.3969 0
    endloop
  endfacet
  facet normal 0.258848 0.965918 0
    outer loop
      vertex 43.4202 75.3969 53.7939
      vertex 41.7365 75.8481 0
      vertex 41.7365 75.8481 54.6962
    endloop
  endfacet
  facet normal 0.707107 0.707107 0
    outer loop
      vertex 47.6604 72.4279 47.8558
      vertex 46.4279 73.6604 0
      vertex 46.4279 73.6604 50.3209
    endloop
  endfacet
  facet normal 0.707107 0.707107 0
    outer loop
      vertex 46.4279 73.6604 0
      vertex 47.6604 72.4279 47.8558
      vertex 47.6604 72.4279 0
    endloop
  endfacet
  facet normal 0.819132 -0.573605 0
    outer loop
      vertex 47.6604 -72.4279 0
      vertex 48.6603 -71 45
      vertex 47.6604 -72.4279 47.8558
    endloop
  endfacet
  facet normal 0.819132 -0.573605 0
    outer loop
      vertex 48.6603 -71 45
      vertex 47.6604 -72.4279 0
      vertex 48.6603 -71 0
    endloop
  endfacet
  facet normal 0.087142 -0.996196 0
    outer loop
      vertex 40 -76 0
      vertex 41.7365 -75.8481 54.6962
      vertex 40 -76 55
    endloop
  endfacet
  facet normal 0.087142 -0.996196 0
    outer loop
      vertex 41.7365 -75.8481 54.6962
      vertex 40 -76 0
      vertex 41.7365 -75.8481 0
    endloop
  endfacet
  facet normal 0.965918 0.258848 0
    outer loop
      vertex 49.8481 67.7365 38.473
      vertex 49.3969 69.4202 0
      vertex 49.3969 69.4202 41.8404
    endloop
  endfacet
  facet normal 0.965918 0.258848 0
    outer loop
      vertex 49.3969 69.4202 0
      vertex 49.8481 67.7365 38.473
      vertex 49.8481 67.7365 0
    endloop
  endfacet
  facet normal 0.996196 0.087142 0
    outer loop
      vertex 50 66 35
      vertex 49.8481 67.7365 0
      vertex 49.8481 67.7365 38.473
    endloop
  endfacet
  facet normal 0.996196 0.087142 0
    outer loop
      vertex 49.8481 67.7365 0
      vertex 50 66 35
      vertex 50 66 0
    endloop
  endfacet
  facet normal 0.819132 0.573605 0
    outer loop
      vertex 48.6603 71 45
      vertex 47.6604 72.4279 0
      vertex 47.6604 72.4279 47.8558
    endloop
  endfacet
  facet normal 0.819132 0.573605 0
    outer loop
      vertex 47.6604 72.4279 0
      vertex 48.6603 71 45
      vertex 48.6603 71 0
    endloop
  endfacet
  facet normal 0.906324 0.422584 0
    outer loop
      vertex 49.3969 69.4202 41.8404
      vertex 48.6603 71 0
      vertex 48.6603 71 45
    endloop
  endfacet
  facet normal 0.906324 0.422584 0
    outer loop
      vertex 48.6603 71 0
      vertex 49.3969 69.4202 41.8404
      vertex 49.3969 69.4202 0
    endloop
  endfacet
  facet normal 0.472351 0 0.881411
    outer loop
      vertex 41.7365 75.8481 54.6962
      vertex 43.4202 -75.3969 53.7939
      vertex 43.4202 75.3969 53.7939
    endloop
  endfacet
  facet normal 0.472351 0 0.881411
    outer loop
      vertex 43.4202 -75.3969 53.7939
      vertex 41.7365 75.8481 54.6962
      vertex 41.7365 -75.8481 54.6962
    endloop
  endfacet
  facet normal 0.94382 0 0.330459
    outer loop
      vertex 47.6604 72.4279 47.8558
      vertex 48.6603 -71 45
      vertex 48.6603 71 45
    endloop
  endfacet
  facet normal 0.94382 0 0.330459
    outer loop
      vertex 48.6603 -71 45
      vertex 47.6604 72.4279 47.8558
      vertex 47.6604 -72.4279 47.8558
    endloop
  endfacet
  facet normal 0.991142 0 0.132804
    outer loop
      vertex 49.3969 69.4202 41.8404
      vertex 49.8481 -67.7365 38.473
      vertex 49.8481 67.7365 38.473
    endloop
  endfacet
  facet normal 0.991142 0 0.132804
    outer loop
      vertex 49.8481 -67.7365 38.473
      vertex 49.3969 69.4202 41.8404
      vertex 49.3969 -69.4202 41.8404
    endloop
  endfacet
  facet normal 0.973885 0 0.227043
    outer loop
      vertex 48.6603 71 45
      vertex 49.3969 -69.4202 41.8404
      vertex 49.3969 69.4202 41.8404
    endloop
  endfacet
  facet normal 0.973885 0 0.227043
    outer loop
      vertex 49.3969 -69.4202 41.8404
      vertex 48.6603 71 45
      vertex 48.6603 -71 45
    endloop
  endfacet
  facet normal -0 0 1
    outer loop
      vertex -50 76 55
      vertex 40 -76 55
      vertex 40 76 55
    endloop
  endfacet
  facet normal 0 0 1
    outer loop
      vertex 40 -76 55
      vertex -50 76 55
      vertex -50 -76 55
    endloop
  endfacet
  facet normal 0.999045 0 0.0436956
    outer loop
      vertex 49.8481 67.7365 38.473
      vertex 50 -66 35
      vertex 50 66 35
    endloop
  endfacet
  facet normal 0.999045 0 0.0436956
    outer loop
      vertex 50 -66 35
      vertex 49.8481 67.7365 38.473
      vertex 49.8481 -67.7365 38.473
    endloop
  endfacet
  facet normal 0.682051 0 0.731305
    outer loop
      vertex 43.4202 75.3969 53.7939
      vertex 45 -74.6603 52.3205
      vertex 45 74.6603 52.3205
    endloop
  endfacet
  facet normal 0.682051 0 0.731305
    outer loop
      vertex 45 -74.6603 52.3205
      vertex 43.4202 75.3969 53.7939
      vertex 43.4202 -75.3969 53.7939
    endloop
  endfacet
  facet normal 0.172332 0 0.985039
    outer loop
      vertex 40 76 55
      vertex 41.7365 -75.8481 54.6962
      vertex 41.7365 75.8481 54.6962
    endloop
  endfacet
  facet normal 0.172332 0 0.985039
    outer loop
      vertex 41.7365 -75.8481 54.6962
      vertex 40 76 55
      vertex 40 -76 55
    endloop
  endfacet
  facet normal 0.894434 0 0.447199
    outer loop
      vertex 46.4279 73.6604 50.3209
      vertex 47.6604 -72.4279 47.8558
      vertex 47.6604 72.4279 47.8558
    endloop
  endfacet
  facet normal 0.894434 0 0.447199
    outer loop
      vertex 47.6604 -72.4279 47.8558
      vertex 46.4279 73.6604 50.3209
      vertex 46.4279 -73.6604 50.3209
    endloop
  endfacet
  facet normal 0.813808 0 0.581134
    outer loop
      vertex 45 74.6603 52.3205
      vertex 46.4279 -73.6604 50.3209
      vertex 46.4279 73.6604 50.3209
    endloop
  endfacet
  facet normal 0.813808 0 0.581134
    outer loop
      vertex 46.4279 -73.6604 50.3209
      vertex 45 74.6603 52.3205
      vertex 45 -74.6603 52.3205
    endloop
  endfacet
  facet normal -1 0 0
    outer loop
      vertex -50 -74.024 2.2147
      vertex -50 -76 2.2147
      vertex -50 -74.024 53
    endloop
  endfacet
  facet normal -1 0 0
    outer loop
      vertex -50 74.024 53
      vertex -50 76 2.2147
      vertex -50 74.024 2.2147
    endloop
  endfacet
  facet normal -1 0 0
    outer loop
      vertex -50 76 2.2147
      vertex -50 74.024 53
      vertex -50 76 55
    endloop
  endfacet
  facet normal -1 0 0
    outer loop
      vertex -50 -74.024 53
      vertex -50 76 55
      vertex -50 74.024 53
    endloop
  endfacet
  facet normal -1 0 0
    outer loop
      vertex -50 -74.024 53
      vertex -50 -76 55
      vertex -50 76 55
    endloop
  endfacet
  facet normal -1 0 0
    outer loop
      vertex -50 -76 55
      vertex -50 -74.024 53
      vertex -50 -76 2.2147
    endloop
  endfacet
  facet normal 0 0 -1
    outer loop
      vertex 47.8481 -65.9753 0
      vertex 50 -66 0
      vertex 49.8481 -67.7365 0
    endloop
  endfacet
  facet normal 0 0 -1
    outer loop
      vertex 50 -66 0
      vertex 48 -64.284 0
      vertex 50 66 0
    endloop
  endfacet
  facet normal 0 0 -1
    outer loop
      vertex 47.3969 -67.6153 0
      vertex 49.8481 -67.7365 0
      vertex 49.3969 -69.4202 0
    endloop
  endfacet
  facet normal 0 0 -1
    outer loop
      vertex 48 64.284 0
      vertex 50 66 0
      vertex 48 -64.284 0
    endloop
  endfacet
  facet normal 0 0 -1
    outer loop
      vertex 46.6603 -69.154 0
      vertex 49.3969 -69.4202 0
      vertex 48.6603 -71 0
    endloop
  endfacet
  facet normal 0 0 -1
    outer loop
      vertex 47.8481 65.9753 0
      vertex 50 66 0
      vertex 48 64.284 0
    endloop
  endfacet
  facet normal -0 0 -1
    outer loop
      vertex 50 66 0
      vertex 47.8481 65.9753 0
      vertex 49.8481 67.7365 0
    endloop
  endfacet
  facet normal 0 0 -1
    outer loop
      vertex 50 -66 0
      vertex 47.8481 -65.9753 0
      vertex 48 -64.284 0
    endloop
  endfacet
  facet normal 0 0 -1
    outer loop
      vertex 45.6604 -70.5448 0
      vertex 48.6603 -71 0
      vertex 47.6604 -72.4279 0
    endloop
  endfacet
  facet normal 0 0 -1
    outer loop
      vertex 49.8481 -67.7365 0
      vertex 47.3969 -67.6153 0
      vertex 47.8481 -65.9753 0
    endloop
  endfacet
  facet normal 0 0 -1
    outer loop
      vertex 49.3969 -69.4202 0
      vertex 46.6603 -69.154 0
      vertex 47.3969 -67.6153 0
    endloop
  endfacet
  facet normal 0 0 -1
    outer loop
      vertex 45.6604 -70.5448 0
      vertex 47.6604 -72.4279 0
      vertex 46.4279 -73.6604 0
    endloop
  endfacet
  facet normal 0 0 -1
    outer loop
      vertex 48.6603 -71 0
      vertex 45.6604 -70.5448 0
      vertex 46.6603 -69.154 0
    endloop
  endfacet
  facet normal 0 0 -1
    outer loop
      vertex 44.4279 -71.7453 0
      vertex 46.4279 -73.6604 0
      vertex 45 -74.6603 0
    endloop
  endfacet
  facet normal 0 0 -1
    outer loop
      vertex 46.4279 -73.6604 0
      vertex 44.4279 -71.7453 0
      vertex 45.6604 -70.5448 0
    endloop
  endfacet
  facet normal 0 0 -1
    outer loop
      vertex 43 -72.7191 0
      vertex 45 -74.6603 0
      vertex 43.4202 -75.3969 0
    endloop
  endfacet
  facet normal 0 0 -1
    outer loop
      vertex 45 -74.6603 0
      vertex 43 -72.7191 0
      vertex 44.4279 -71.7453 0
    endloop
  endfacet
  facet normal 0 0 -1
    outer loop
      vertex 41.4202 -73.4366 0
      vertex 43.4202 -75.3969 0
      vertex 41.7365 -75.8481 0
    endloop
  endfacet
  facet normal 0 0 -1
    outer loop
      vertex 43.4202 -75.3969 0
      vertex 41.4202 -73.4366 0
      vertex 43 -72.7191 0
    endloop
  endfacet
  facet normal 0 0 -1
    outer loop
      vertex 39.7365 -73.876 0
      vertex 41.7365 -75.8481 0
      vertex 40 -76 0
    endloop
  endfacet
  facet normal 0 0 -1
    outer loop
      vertex 41.7365 -75.8481 0
      vertex 39.7365 -73.876 0
      vertex 41.4202 -73.4366 0
    endloop
  endfacet
  facet normal 0 0 -1
    outer loop
      vertex 40 -76 0
      vertex 38 -74.024 0
      vertex 39.7365 -73.876 0
    endloop
  endfacet
  facet normal 0 0 -1
    outer loop
      vertex 31.5508 -76 0
      vertex 38 -74.024 0
      vertex 40 -76 0
    endloop
  endfacet
  facet normal -0 0 -1
    outer loop
      vertex 38 -74.024 0
      vertex 31.5508 -76 0
      vertex 31.5508 -74.024 0
    endloop
  endfacet
  facet normal 0 0 -1
    outer loop
      vertex 47.3969 67.6153 0
      vertex 49.8481 67.7365 0
      vertex 47.8481 65.9753 0
    endloop
  endfacet
  facet normal -0 0 -1
    outer loop
      vertex 49.8481 67.7365 0
      vertex 47.3969 67.6153 0
      vertex 49.3969 69.4202 0
    endloop
  endfacet
  facet normal 0 0 -1
    outer loop
      vertex 46.6603 69.154 0
      vertex 49.3969 69.4202 0
      vertex 47.3969 67.6153 0
    endloop
  endfacet
  facet normal -0 0 -1
    outer loop
      vertex 49.3969 69.4202 0
      vertex 46.6603 69.154 0
      vertex 48.6603 71 0
    endloop
  endfacet
  facet normal 0 0 -1
    outer loop
      vertex 45.6604 70.5448 0
      vertex 48.6603 71 0
      vertex 46.6603 69.154 0
    endloop
  endfacet
  facet normal -0 0 -1
    outer loop
      vertex 48.6603 71 0
      vertex 45.6604 70.5448 0
      vertex 47.6604 72.4279 0
    endloop
  endfacet
  facet normal -0 0 -1
    outer loop
      vertex 47.6604 72.4279 0
      vertex 45.6604 70.5448 0
      vertex 46.4279 73.6604 0
    endloop
  endfacet
  facet normal 0 0 -1
    outer loop
      vertex 44.4279 71.7453 0
      vertex 46.4279 73.6604 0
      vertex 45.6604 70.5448 0
    endloop
  endfacet
  facet normal -0 0 -1
    outer loop
      vertex 46.4279 73.6604 0
      vertex 44.4279 71.7453 0
      vertex 45 74.6603 0
    endloop
  endfacet
  facet normal 0 0 -1
    outer loop
      vertex 43 72.7191 0
      vertex 45 74.6603 0
      vertex 44.4279 71.7453 0
    endloop
  endfacet
  facet normal -0 0 -1
    outer loop
      vertex 45 74.6603 0
      vertex 43 72.7191 0
      vertex 43.4202 75.3969 0
    endloop
  endfacet
  facet normal 0 0 -1
    outer loop
      vertex 41.4202 73.4366 0
      vertex 43.4202 75.3969 0
      vertex 43 72.7191 0
    endloop
  endfacet
  facet normal -0 0 -1
    outer loop
      vertex 43.4202 75.3969 0
      vertex 41.4202 73.4366 0
      vertex 41.7365 75.8481 0
    endloop
  endfacet
  facet normal 0 0 -1
    outer loop
      vertex 39.7365 73.876 0
      vertex 41.7365 75.8481 0
      vertex 41.4202 73.4366 0
    endloop
  endfacet
  facet normal -0 0 -1
    outer loop
      vertex 41.7365 75.8481 0
      vertex 39.7365 73.876 0
      vertex 40 76 0
    endloop
  endfacet
  facet normal 0 0 -1
    outer loop
      vertex 38 74.024 0
      vertex 40 76 0
      vertex 39.7365 73.876 0
    endloop
  endfacet
  facet normal 0 0 -1
    outer loop
      vertex 31.5508 76 0
      vertex 38 74.024 0
      vertex 31.5508 74.024 0
    endloop
  endfacet
  facet normal 0 0 -1
    outer loop
      vertex 38 74.024 0
      vertex 31.5508 76 0
      vertex 40 76 0
    endloop
  endfacet
  facet normal 0 -1 0
    outer loop
      vertex -50 74.024 53
      vertex -10 74.024 22.5
      vertex 38 74.024 53
    endloop
  endfacet
  facet normal 0 -1 0
    outer loop
      vertex -50 74.024 53
      vertex -18.6824 74.024 21.7404
      vertex -10 74.024 22.5
    endloop
  endfacet
  facet normal 0 -1 0
    outer loop
      vertex -50 74.024 53
      vertex -27.101 74.024 19.4846
      vertex -18.6824 74.024 21.7404
    endloop
  endfacet
  facet normal 0 -1 0
    outer loop
      vertex -50 74.024 53
      vertex -35 74.024 15.8013
      vertex -27.101 74.024 19.4846
    endloop
  endfacet
  facet normal 0 -1 0
    outer loop
      vertex -50 74.024 53
      vertex -42.1394 74.024 10.8022
      vertex -35 74.024 15.8013
    endloop
  endfacet
  facet normal 0 -1 0
    outer loop
      vertex -50 74.024 53
      vertex -48.3022 74.024 4.63938
      vertex -42.1394 74.024 10.8022
    endloop
  endfacet
  facet normal -0 -1 0
    outer loop
      vertex -48.3022 74.024 4.63938
      vertex -50 74.024 53
      vertex -50 74.024 2.2147
    endloop
  endfacet
  facet normal 0 -1 0
    outer loop
      vertex -1.31759 74.024 21.7404
      vertex 38 74.024 53
      vertex -10 74.024 22.5
    endloop
  endfacet
  facet normal 0 -1 0
    outer loop
      vertex 7.10101 74.024 19.4846
      vertex 38 74.024 53
      vertex -1.31759 74.024 21.7404
    endloop
  endfacet
  facet normal 0 -1 0
    outer loop
      vertex 15 74.024 15.8013
      vertex 38 74.024 53
      vertex 7.10101 74.024 19.4846
    endloop
  endfacet
  facet normal 0 -1 0
    outer loop
      vertex 22.1394 74.024 10.8022
      vertex 38 74.024 53
      vertex 15 74.024 15.8013
    endloop
  endfacet
  facet normal 0 -1 0
    outer loop
      vertex 28.3022 74.024 4.63938
      vertex 38 74.024 53
      vertex 22.1394 74.024 10.8022
    endloop
  endfacet
  facet normal 0 -1 0
    outer loop
      vertex 38 74.024 0
      vertex 28.3022 74.024 4.63938
      vertex 31.5508 74.024 0
    endloop
  endfacet
  facet normal 0 -1 0
    outer loop
      vertex 28.3022 74.024 4.63938
      vertex 38 74.024 0
      vertex 38 74.024 53
    endloop
  endfacet
  facet normal -0.413521 -0.910495 0
    outer loop
      vertex 41.4202 73.4366 0
      vertex 43 72.7191 50.3205
      vertex 41.4202 73.4366 51.7939
    endloop
  endfacet
  facet normal -0.413521 -0.910495 -0
    outer loop
      vertex 43 72.7191 50.3205
      vertex 41.4202 73.4366 0
      vertex 43 72.7191 0
    endloop
  endfacet
  facet normal 0 1 0
    outer loop
      vertex 38 -74.024 53
      vertex -10 -74.024 22.5
      vertex -50 -74.024 53
    endloop
  endfacet
  facet normal 0 1 0
    outer loop
      vertex 38 -74.024 53
      vertex -1.31759 -74.024 21.7404
      vertex -10 -74.024 22.5
    endloop
  endfacet
  facet normal 0 1 0
    outer loop
      vertex 38 -74.024 53
      vertex 7.10101 -74.024 19.4846
      vertex -1.31759 -74.024 21.7404
    endloop
  endfacet
  facet normal 0 1 0
    outer loop
      vertex 38 -74.024 53
      vertex 15 -74.024 15.8013
      vertex 7.10101 -74.024 19.4846
    endloop
  endfacet
  facet normal 0 1 0
    outer loop
      vertex 38 -74.024 53
      vertex 22.1394 -74.024 10.8022
      vertex 15 -74.024 15.8013
    endloop
  endfacet
  facet normal 0 1 0
    outer loop
      vertex 38 -74.024 53
      vertex 28.3022 -74.024 4.63938
      vertex 22.1394 -74.024 10.8022
    endloop
  endfacet
  facet normal 0 1 -0
    outer loop
      vertex 38 -74.024 0
      vertex 28.3022 -74.024 4.63938
      vertex 38 -74.024 53
    endloop
  endfacet
  facet normal 0 1 0
    outer loop
      vertex 28.3022 -74.024 4.63938
      vertex 38 -74.024 0
      vertex 31.5508 -74.024 0
    endloop
  endfacet
  facet normal 0 1 -0
    outer loop
      vertex -18.6824 -74.024 21.7404
      vertex -50 -74.024 53
      vertex -10 -74.024 22.5
    endloop
  endfacet
  facet normal 0 1 -0
    outer loop
      vertex -27.101 -74.024 19.4846
      vertex -50 -74.024 53
      vertex -18.6824 -74.024 21.7404
    endloop
  endfacet
  facet normal 0 1 -0
    outer loop
      vertex -35 -74.024 15.8013
      vertex -50 -74.024 53
      vertex -27.101 -74.024 19.4846
    endloop
  endfacet
  facet normal 0 1 -0
    outer loop
      vertex -42.1394 -74.024 10.8022
      vertex -50 -74.024 53
      vertex -35 -74.024 15.8013
    endloop
  endfacet
  facet normal 0 1 -0
    outer loop
      vertex -48.3022 -74.024 4.63938
      vertex -50 -74.024 53
      vertex -42.1394 -74.024 10.8022
    endloop
  endfacet
  facet normal 0 1 0
    outer loop
      vertex -50 -74.024 53
      vertex -48.3022 -74.024 4.63938
      vertex -50 -74.024 2.2147
    endloop
  endfacet
  facet normal -0.084921 -0.996388 0
    outer loop
      vertex 38 74.024 0
      vertex 39.7365 73.876 52.6962
      vertex 38 74.024 53
    endloop
  endfacet
  facet normal -0.084921 -0.996388 -0
    outer loop
      vertex 39.7365 73.876 52.6962
      vertex 38 74.024 0
      vertex 39.7365 73.876 0
    endloop
  endfacet
  facet normal -0.252515 0.967593 0
    outer loop
      vertex 39.7365 -73.876 0
      vertex 41.4202 -73.4366 51.7939
      vertex 41.4202 -73.4366 0
    endloop
  endfacet
  facet normal -0.252515 0.967593 0
    outer loop
      vertex 41.4202 -73.4366 51.7939
      vertex 39.7365 -73.876 0
      vertex 39.7365 -73.876 52.6962
    endloop
  endfacet
  facet normal -1 0 0
    outer loop
      vertex 48 -64.284 0
      vertex 48 64.284 33
      vertex 48 64.284 0
    endloop
  endfacet
  facet normal -1 -0 0
    outer loop
      vertex 48 64.284 33
      vertex 48 -64.284 0
      vertex 48 -64.284 33
    endloop
  endfacet
  facet normal -0.413521 0.910495 0
    outer loop
      vertex 41.4202 -73.4366 0
      vertex 43 -72.7191 50.3205
      vertex 43 -72.7191 0
    endloop
  endfacet
  facet normal -0.413521 0.910495 0
    outer loop
      vertex 43 -72.7191 50.3205
      vertex 41.4202 -73.4366 0
      vertex 41.4202 -73.4366 51.7939
    endloop
  endfacet
  facet normal -0.964175 0.265266 0
    outer loop
      vertex 47.3969 -67.6153 0
      vertex 47.8481 -65.9753 36.473
      vertex 47.8481 -65.9753 0
    endloop
  endfacet
  facet normal -0.964175 0.265266 0
    outer loop
      vertex 47.8481 -65.9753 36.473
      vertex 47.3969 -67.6153 0
      vertex 47.3969 -67.6153 39.8404
    endloop
  endfacet
  facet normal -0.697746 0.716345 0
    outer loop
      vertex 44.4279 -71.7453 0
      vertex 45.6604 -70.5448 45.8558
      vertex 45.6604 -70.5448 0
    endloop
  endfacet
  facet normal -0.697746 0.716345 0
    outer loop
      vertex 45.6604 -70.5448 45.8558
      vertex 44.4279 -71.7453 0
      vertex 44.4279 -71.7453 48.3209
    endloop
  endfacet
  facet normal -0.563428 -0.826165 0
    outer loop
      vertex 43 72.7191 0
      vertex 44.4279 71.7453 48.3209
      vertex 43 72.7191 50.3205
    endloop
  endfacet
  facet normal -0.563428 -0.826165 -0
    outer loop
      vertex 44.4279 71.7453 48.3209
      vertex 43 72.7191 0
      vertex 44.4279 71.7453 0
    endloop
  endfacet
  facet normal -0.901974 0.431789 0
    outer loop
      vertex 46.6603 -69.154 0
      vertex 47.3969 -67.6153 39.8404
      vertex 47.3969 -67.6153 0
    endloop
  endfacet
  facet normal -0.901974 0.431789 0
    outer loop
      vertex 47.3969 -67.6153 39.8404
      vertex 46.6603 -69.154 0
      vertex 46.6603 -69.154 43
    endloop
  endfacet
  facet normal -0.563428 0.826165 0
    outer loop
      vertex 43 -72.7191 0
      vertex 44.4279 -71.7453 48.3209
      vertex 44.4279 -71.7453 0
    endloop
  endfacet
  facet normal -0.563428 0.826165 0
    outer loop
      vertex 44.4279 -71.7453 48.3209
      vertex 43 -72.7191 0
      vertex 43 -72.7191 50.3205
    endloop
  endfacet
  facet normal -0.995991 0.0894525 0
    outer loop
      vertex 47.8481 -65.9753 0
      vertex 48 -64.284 33
      vertex 48 -64.284 0
    endloop
  endfacet
  facet normal -0.995991 0.0894525 0
    outer loop
      vertex 48 -64.284 33
      vertex 47.8481 -65.9753 0
      vertex 47.8481 -65.9753 36.473
    endloop
  endfacet
  facet normal -0.252515 -0.967593 0
    outer loop
      vertex 39.7365 73.876 0
      vertex 41.4202 73.4366 51.7939
      vertex 39.7365 73.876 52.6962
    endloop
  endfacet
  facet normal -0.252515 -0.967593 -0
    outer loop
      vertex 41.4202 73.4366 51.7939
      vertex 39.7365 73.876 0
      vertex 41.4202 73.4366 0
    endloop
  endfacet
  facet normal -0.697746 -0.716345 0
    outer loop
      vertex 44.4279 71.7453 0
      vertex 45.6604 70.5448 45.8558
      vertex 44.4279 71.7453 48.3209
    endloop
  endfacet
  facet normal -0.697746 -0.716345 -0
    outer loop
      vertex 45.6604 70.5448 45.8558
      vertex 44.4279 71.7453 0
      vertex 45.6604 70.5448 0
    endloop
  endfacet
  facet normal -0.811943 0.583737 0
    outer loop
      vertex 45.6604 -70.5448 0
      vertex 46.6603 -69.154 43
      vertex 46.6603 -69.154 0
    endloop
  endfacet
  facet normal -0.811943 0.583737 0
    outer loop
      vertex 46.6603 -69.154 43
      vertex 45.6604 -70.5448 0
      vertex 45.6604 -70.5448 45.8558
    endloop
  endfacet
  facet normal -0.084921 0.996388 0
    outer loop
      vertex 38 -74.024 0
      vertex 39.7365 -73.876 52.6962
      vertex 39.7365 -73.876 0
    endloop
  endfacet
  facet normal -0.084921 0.996388 0
    outer loop
      vertex 39.7365 -73.876 52.6962
      vertex 38 -74.024 0
      vertex 38 -74.024 53
    endloop
  endfacet
  facet normal -0.964175 -0.265266 -0
    outer loop
      vertex 47.8481 65.9753 36.473
      vertex 47.3969 67.6153 0
      vertex 47.8481 65.9753 0
    endloop
  endfacet
  facet normal -0.964175 -0.265266 0
    outer loop
      vertex 47.3969 67.6153 0
      vertex 47.8481 65.9753 36.473
      vertex 47.3969 67.6153 39.8404
    endloop
  endfacet
  facet normal -0.995991 -0.0894525 -0
    outer loop
      vertex 48 64.284 33
      vertex 47.8481 65.9753 0
      vertex 48 64.284 0
    endloop
  endfacet
  facet normal -0.995991 -0.0894525 0
    outer loop
      vertex 47.8481 65.9753 0
      vertex 48 64.284 33
      vertex 47.8481 65.9753 36.473
    endloop
  endfacet
  facet normal -0.811943 -0.583737 -0
    outer loop
      vertex 46.6603 69.154 43
      vertex 45.6604 70.5448 0
      vertex 46.6603 69.154 0
    endloop
  endfacet
  facet normal -0.811943 -0.583737 0
    outer loop
      vertex 45.6604 70.5448 0
      vertex 46.6603 69.154 43
      vertex 45.6604 70.5448 45.8558
    endloop
  endfacet
  facet normal -0.901974 -0.431789 -0
    outer loop
      vertex 47.3969 67.6153 39.8404
      vertex 46.6603 69.154 0
      vertex 47.3969 67.6153 0
    endloop
  endfacet
  facet normal -0.901974 -0.431789 0
    outer loop
      vertex 46.6603 69.154 0
      vertex 47.3969 67.6153 39.8404
      vertex 46.6603 69.154 43
    endloop
  endfacet
  facet normal -0.472351 0 -0.881411
    outer loop
      vertex 39.7365 -73.876 52.6962
      vertex 41.4202 73.4366 51.7939
      vertex 41.4202 -73.4366 51.7939
    endloop
  endfacet
  facet normal -0.472351 0 -0.881411
    outer loop
      vertex 41.4202 73.4366 51.7939
      vertex 39.7365 -73.876 52.6962
      vertex 39.7365 73.876 52.6962
    endloop
  endfacet
  facet normal -0.94382 0 -0.330459
    outer loop
      vertex 46.6603 -69.154 43
      vertex 45.6604 70.5448 45.8558
      vertex 46.6603 69.154 43
    endloop
  endfacet
  facet normal -0.94382 -0 -0.330459
    outer loop
      vertex 45.6604 70.5448 45.8558
      vertex 46.6603 -69.154 43
      vertex 45.6604 -70.5448 45.8558
    endloop
  endfacet
  facet normal -0.991142 0 -0.132804
    outer loop
      vertex 47.8481 -65.9753 36.473
      vertex 47.3969 67.6153 39.8404
      vertex 47.8481 65.9753 36.473
    endloop
  endfacet
  facet normal -0.991142 -0 -0.132804
    outer loop
      vertex 47.3969 67.6153 39.8404
      vertex 47.8481 -65.9753 36.473
      vertex 47.3969 -67.6153 39.8404
    endloop
  endfacet
  facet normal -0.973885 0 -0.227043
    outer loop
      vertex 47.3969 -67.6153 39.8404
      vertex 46.6603 69.154 43
      vertex 47.3969 67.6153 39.8404
    endloop
  endfacet
  facet normal -0.973885 -0 -0.227043
    outer loop
      vertex 46.6603 69.154 43
      vertex 47.3969 -67.6153 39.8404
      vertex 46.6603 -69.154 43
    endloop
  endfacet
  facet normal 0 0 -1
    outer loop
      vertex -50 -74.024 53
      vertex 38 74.024 53
      vertex 38 -74.024 53
    endloop
  endfacet
  facet normal -0 0 -1
    outer loop
      vertex 38 74.024 53
      vertex -50 -74.024 53
      vertex -50 74.024 53
    endloop
  endfacet
  facet normal -0.999045 0 -0.0436956
    outer loop
      vertex 48 -64.284 33
      vertex 47.8481 65.9753 36.473
      vertex 48 64.284 33
    endloop
  endfacet
  facet normal -0.999045 -0 -0.0436956
    outer loop
      vertex 47.8481 65.9753 36.473
      vertex 48 -64.284 33
      vertex 47.8481 -65.9753 36.473
    endloop
  endfacet
  facet normal -0.682051 0 -0.731305
    outer loop
      vertex 41.4202 -73.4366 51.7939
      vertex 43 72.7191 50.3205
      vertex 43 -72.7191 50.3205
    endloop
  endfacet
  facet normal -0.682051 0 -0.731305
    outer loop
      vertex 43 72.7191 50.3205
      vertex 41.4202 -73.4366 51.7939
      vertex 41.4202 73.4366 51.7939
    endloop
  endfacet
  facet normal -0.172332 0 -0.985039
    outer loop
      vertex 38 -74.024 53
      vertex 39.7365 73.876 52.6962
      vertex 39.7365 -73.876 52.6962
    endloop
  endfacet
  facet normal -0.172332 0 -0.985039
    outer loop
      vertex 39.7365 73.876 52.6962
      vertex 38 -74.024 53
      vertex 38 74.024 53
    endloop
  endfacet
  facet normal -0.894434 0 -0.447199
    outer loop
      vertex 45.6604 -70.5448 45.8558
      vertex 44.4279 71.7453 48.3209
      vertex 45.6604 70.5448 45.8558
    endloop
  endfacet
  facet normal -0.894434 -0 -0.447199
    outer loop
      vertex 44.4279 71.7453 48.3209
      vertex 45.6604 -70.5448 45.8558
      vertex 44.4279 -71.7453 48.3209
    endloop
  endfacet
  facet normal -0.813808 0 -0.581134
    outer loop
      vertex 44.4279 -71.7453 48.3209
      vertex 43 72.7191 50.3205
      vertex 44.4279 71.7453 48.3209
    endloop
  endfacet
  facet normal -0.813808 -0 -0.581134
    outer loop
      vertex 43 72.7191 50.3205
      vertex 44.4279 -71.7453 48.3209
      vertex 43 -72.7191 50.3205
    endloop
  endfacet
  facet normal 0.573579 0 -0.81915
    outer loop
      vertex -42.1394 -76 10.8022
      vertex -35 -74.024 15.8013
      vertex -35 -76 15.8013
    endloop
  endfacet
  facet normal 0.573579 0 -0.81915
    outer loop
      vertex -35 -74.024 15.8013
      vertex -42.1394 -76 10.8022
      vertex -42.1394 -74.024 10.8022
    endloop
  endfacet
  facet normal 0.573579 0 -0.81915
    outer loop
      vertex -42.1394 74.024 10.8022
      vertex -35 76 15.8013
      vertex -35 74.024 15.8013
    endloop
  endfacet
  facet normal 0.573579 0 -0.81915
    outer loop
      vertex -35 76 15.8013
      vertex -42.1394 74.024 10.8022
      vertex -42.1394 76 10.8022
    endloop
  endfacet
  facet normal -0.573579 0 -0.81915
    outer loop
      vertex 15 -76 15.8013
      vertex 22.1394 -74.024 10.8022
      vertex 22.1394 -76 10.8022
    endloop
  endfacet
  facet normal -0.573579 0 -0.81915
    outer loop
      vertex 22.1394 -74.024 10.8022
      vertex 15 -76 15.8013
      vertex 15 -74.024 15.8013
    endloop
  endfacet
  facet normal -0.573579 0 -0.81915
    outer loop
      vertex 15 74.024 15.8013
      vertex 22.1394 76 10.8022
      vertex 22.1394 74.024 10.8022
    endloop
  endfacet
  facet normal -0.573579 0 -0.81915
    outer loop
      vertex 22.1394 76 10.8022
      vertex 15 74.024 15.8013
      vertex 15 76 15.8013
    endloop
  endfacet
  facet normal -0.258824 0 -0.965925
    outer loop
      vertex -1.31759 74.024 21.7404
      vertex 7.10101 76 19.4846
      vertex 7.10101 74.024 19.4846
    endloop
  endfacet
  facet normal -0.258824 0 -0.965925
    outer loop
      vertex 7.10101 76 19.4846
      vertex -1.31759 74.024 21.7404
      vertex -1.31759 76 21.7404
    endloop
  endfacet
  facet normal -0.258824 0 -0.965925
    outer loop
      vertex -1.31759 -76 21.7404
      vertex 7.10101 -74.024 19.4846
      vertex 7.10101 -76 19.4846
    endloop
  endfacet
  facet normal -0.258824 0 -0.965925
    outer loop
      vertex 7.10101 -74.024 19.4846
      vertex -1.31759 -76 21.7404
      vertex -1.31759 -74.024 21.7404
    endloop
  endfacet
  facet normal 0.0871544 0 -0.996195
    outer loop
      vertex -18.6824 74.024 21.7404
      vertex -10 76 22.5
      vertex -10 74.024 22.5
    endloop
  endfacet
  facet normal 0.0871544 0 -0.996195
    outer loop
      vertex -10 76 22.5
      vertex -18.6824 74.024 21.7404
      vertex -18.6824 76 21.7404
    endloop
  endfacet
  facet normal 0.0871544 0 -0.996195
    outer loop
      vertex -18.6824 -76 21.7404
      vertex -10 -74.024 22.5
      vertex -10 -76 22.5
    endloop
  endfacet
  facet normal 0.0871544 0 -0.996195
    outer loop
      vertex -10 -74.024 22.5
      vertex -18.6824 -76 21.7404
      vertex -18.6824 -74.024 21.7404
    endloop
  endfacet
  facet normal -0.422613 0 -0.90631
    outer loop
      vertex 7.10101 74.024 19.4846
      vertex 15 76 15.8013
      vertex 15 74.024 15.8013
    endloop
  endfacet
  facet normal -0.422613 0 -0.90631
    outer loop
      vertex 15 76 15.8013
      vertex 7.10101 74.024 19.4846
      vertex 7.10101 76 19.4846
    endloop
  endfacet
  facet normal -0.422613 0 -0.90631
    outer loop
      vertex 7.10101 -76 19.4846
      vertex 15 -74.024 15.8013
      vertex 15 -76 15.8013
    endloop
  endfacet
  facet normal -0.422613 0 -0.90631
    outer loop
      vertex 15 -74.024 15.8013
      vertex 7.10101 -76 19.4846
      vertex 7.10101 -74.024 19.4846
    endloop
  endfacet
  facet normal 0.707108 0 -0.707106
    outer loop
      vertex -48.3022 -76 4.63938
      vertex -42.1394 -74.024 10.8022
      vertex -42.1394 -76 10.8022
    endloop
  endfacet
  facet normal 0.707108 0 -0.707106
    outer loop
      vertex -42.1394 -74.024 10.8022
      vertex -48.3022 -76 4.63938
      vertex -48.3022 -74.024 4.63938
    endloop
  endfacet
  facet normal 0.707108 0 -0.707106
    outer loop
      vertex -48.3022 74.024 4.63938
      vertex -42.1394 76 10.8022
      vertex -42.1394 74.024 10.8022
    endloop
  endfacet
  facet normal 0.707108 0 -0.707106
    outer loop
      vertex -42.1394 76 10.8022
      vertex -48.3022 74.024 4.63938
      vertex -48.3022 76 4.63938
    endloop
  endfacet
  facet normal 0.258824 0 -0.965925
    outer loop
      vertex -27.101 74.024 19.4846
      vertex -18.6824 76 21.7404
      vertex -18.6824 74.024 21.7404
    endloop
  endfacet
  facet normal 0.258824 0 -0.965925
    outer loop
      vertex -18.6824 76 21.7404
      vertex -27.101 74.024 19.4846
      vertex -27.101 76 19.4846
    endloop
  endfacet
  facet normal 0.258824 0 -0.965925
    outer loop
      vertex -27.101 -76 19.4846
      vertex -18.6824 -74.024 21.7404
      vertex -18.6824 -76 21.7404
    endloop
  endfacet
  facet normal 0.258824 0 -0.965925
    outer loop
      vertex -18.6824 -74.024 21.7404
      vertex -27.101 -76 19.4846
      vertex -27.101 -74.024 19.4846
    endloop
  endfacet
  facet normal -0.0871543 0 -0.996195
    outer loop
      vertex -10 74.024 22.5
      vertex -1.31759 76 21.7404
      vertex -1.31759 74.024 21.7404
    endloop
  endfacet
  facet normal -0.0871543 0 -0.996195
    outer loop
      vertex -1.31759 76 21.7404
      vertex -10 74.024 22.5
      vertex -10 76 22.5
    endloop
  endfacet
  facet normal -0.0871543 0 -0.996195
    outer loop
      vertex -10 -76 22.5
      vertex -1.31759 -74.024 21.7404
      vertex -1.31759 -76 21.7404
    endloop
  endfacet
  facet normal -0.0871543 0 -0.996195
    outer loop
      vertex -1.31759 -74.024 21.7404
      vertex -10 -76 22.5
      vertex -10 -74.024 22.5
    endloop
  endfacet
  facet normal -0.707108 0 -0.707106
    outer loop
      vertex 28.3022 -76 4.63938
      vertex 22.1394 -74.024 10.8022
      vertex 28.3022 -74.024 4.63938
    endloop
  endfacet
  facet normal -0.707108 -0 -0.707106
    outer loop
      vertex 22.1394 -74.024 10.8022
      vertex 28.3022 -76 4.63938
      vertex 22.1394 -76 10.8022
    endloop
  endfacet
  facet normal -0.707108 0 -0.707106
    outer loop
      vertex 28.3022 74.024 4.63938
      vertex 22.1394 76 10.8022
      vertex 28.3022 76 4.63938
    endloop
  endfacet
  facet normal -0.707108 -0 -0.707106
    outer loop
      vertex 22.1394 76 10.8022
      vertex 28.3022 74.024 4.63938
      vertex 22.1394 74.024 10.8022
    endloop
  endfacet
  facet normal -0.819146 0 -0.573585
    outer loop
      vertex 31.5508 74.024 0
      vertex 28.3022 76 4.63938
      vertex 31.5508 76 0
    endloop
  endfacet
  facet normal -0.819146 -0 -0.573585
    outer loop
      vertex 28.3022 76 4.63938
      vertex 31.5508 74.024 0
      vertex 28.3022 74.024 4.63938
    endloop
  endfacet
  facet normal -0.819146 0 -0.573585
    outer loop
      vertex 31.5508 -76 0
      vertex 28.3022 -74.024 4.63938
      vertex 31.5508 -74.024 0
    endloop
  endfacet
  facet normal -0.819146 -0 -0.573585
    outer loop
      vertex 28.3022 -74.024 4.63938
      vertex 31.5508 -76 0
      vertex 28.3022 -76 4.63938
    endloop
  endfacet
  facet normal 0.422612 0 -0.906311
    outer loop
      vertex -35 74.024 15.8013
      vertex -27.101 76 19.4846
      vertex -27.101 74.024 19.4846
    endloop
  endfacet
  facet normal 0.422612 0 -0.906311
    outer loop
      vertex -27.101 76 19.4846
      vertex -35 74.024 15.8013
      vertex -35 76 15.8013
    endloop
  endfacet
  facet normal 0.422612 0 -0.906311
    outer loop
      vertex -35 -76 15.8013
      vertex -27.101 -74.024 19.4846
      vertex -27.101 -76 19.4846
    endloop
  endfacet
  facet normal 0.422612 0 -0.906311
    outer loop
      vertex -27.101 -74.024 19.4846
      vertex -35 -76 15.8013
      vertex -35 -74.024 15.8013
    endloop
  endfacet
  facet normal 0.819149 0 -0.573581
    outer loop
      vertex -48.3022 74.024 4.63938
      vertex -50 76 2.2147
      vertex -48.3022 76 4.63938
    endloop
  endfacet
  facet normal 0.819149 0 -0.573581
    outer loop
      vertex -50 76 2.2147
      vertex -48.3022 74.024 4.63938
      vertex -50 74.024 2.2147
    endloop
  endfacet
  facet normal 0.819149 0 -0.573581
    outer loop
      vertex -48.3022 -76 4.63938
      vertex -50 -74.024 2.2147
      vertex -48.3022 -74.024 4.63938
    endloop
  endfacet
  facet normal 0.819149 0 -0.573581
    outer loop
      vertex -50 -74.024 2.2147
      vertex -48.3022 -76 4.63938
      vertex -50 -76 2.2147
    endloop
  endfacet
endsolid OpenSCAD_Model
