solid OpenSCAD_Model
  facet normal 0.965918 -0.258848 0
    outer loop
      vertex 44.3969 -68.4202 0
      vertex 44.8481 -66.7365 41.7365
      vertex 44.3969 -68.4202 43.4202
    endloop
  endfacet
  facet normal 0.965918 -0.258848 0
    outer loop
      vertex 44.8481 -66.7365 41.7365
      vertex 44.3969 -68.4202 0
      vertex 44.8481 -66.7365 0
    endloop
  endfacet
  facet normal 0.819132 -0.573605 0
    outer loop
      vertex 42.6604 -71.4279 0
      vertex 43.6603 -70 45
      vertex 42.6604 -71.4279 46.4279
    endloop
  endfacet
  facet normal 0.819132 -0.573605 0
    outer loop
      vertex 43.6603 -70 45
      vertex 42.6604 -71.4279 0
      vertex 43.6603 -70 0
    endloop
  endfacet
  facet normal 0 -1 0
    outer loop
      vertex -45 -75 0
      vertex 35 -75 50
      vertex -45 -75 50
    endloop
  endfacet
  facet normal 0 -1 -0
    outer loop
      vertex 35 -75 50
      vertex -45 -75 0
      vertex 35 -75 0
    endloop
  endfacet
  facet normal 0.906324 -0.422584 0
    outer loop
      vertex 43.6603 -70 0
      vertex 44.3969 -68.4202 43.4202
      vertex 43.6603 -70 45
    endloop
  endfacet
  facet normal 0.906324 -0.422584 0
    outer loop
      vertex 44.3969 -68.4202 43.4202
      vertex 43.6603 -70 0
      vertex 44.3969 -68.4202 0
    endloop
  endfacet
  facet normal 0.707107 -0.707107 0
    outer loop
      vertex 41.4279 -72.6604 0
      vertex 42.6604 -71.4279 46.4279
      vertex 41.4279 -72.6604 47.6604
    endloop
  endfacet
  facet normal 0.707107 -0.707107 0
    outer loop
      vertex 42.6604 -71.4279 46.4279
      vertex 41.4279 -72.6604 0
      vertex 42.6604 -71.4279 0
    endloop
  endfacet
  facet normal 0.087142 -0.996196 0
    outer loop
      vertex 35 -75 0
      vertex 36.7365 -74.8481 49.8481
      vertex 35 -75 50
    endloop
  endfacet
  facet normal 0.087142 -0.996196 0
    outer loop
      vertex 36.7365 -74.8481 49.8481
      vertex 35 -75 0
      vertex 36.7365 -74.8481 0
    endloop
  endfacet
  facet normal 0.906324 0.422584 0
    outer loop
      vertex 44.3969 68.4202 43.4202
      vertex 43.6603 70 0
      vertex 43.6603 70 45
    endloop
  endfacet
  facet normal 0.906324 0.422584 0
    outer loop
      vertex 43.6603 70 0
      vertex 44.3969 68.4202 43.4202
      vertex 44.3969 68.4202 0
    endloop
  endfacet
  facet normal 0.422584 -0.906324 0
    outer loop
      vertex 38.4202 -74.3969 0
      vertex 40 -73.6603 48.6603
      vertex 38.4202 -74.3969 49.3969
    endloop
  endfacet
  facet normal 0.422584 -0.906324 0
    outer loop
      vertex 40 -73.6603 48.6603
      vertex 38.4202 -74.3969 0
      vertex 40 -73.6603 0
    endloop
  endfacet
  facet normal 0 1 -0
    outer loop
      vertex 35 75 0
      vertex -45 75 50
      vertex 35 75 50
    endloop
  endfacet
  facet normal 0 1 0
    outer loop
      vertex -45 75 50
      vertex 35 75 0
      vertex -45 75 0
    endloop
  endfacet
  facet normal 0.707107 0.707107 0
    outer loop
      vertex 42.6604 71.4279 46.4279
      vertex 41.4279 72.6604 0
      vertex 41.4279 72.6604 47.6604
    endloop
  endfacet
  facet normal 0.707107 0.707107 0
    outer loop
      vertex 41.4279 72.6604 0
      vertex 42.6604 71.4279 46.4279
      vertex 42.6604 71.4279 0
    endloop
  endfacet
  facet normal 0.996196 -0.087142 0
    outer loop
      vertex 44.8481 -66.7365 0
      vertex 45 -65 40
      vertex 44.8481 -66.7365 41.7365
    endloop
  endfacet
  facet normal 0.996196 -0.087142 0
    outer loop
      vertex 45 -65 40
      vertex 44.8481 -66.7365 0
      vertex 45 -65 0
    endloop
  endfacet
  facet normal 1 -0 0
    outer loop
      vertex 45 -65 40
      vertex 45 65 0
      vertex 45 65 40
    endloop
  endfacet
  facet normal 1 0 0
    outer loop
      vertex 45 65 0
      vertex 45 -65 40
      vertex 45 -65 0
    endloop
  endfacet
  facet normal 0.965918 0.258848 0
    outer loop
      vertex 44.8481 66.7365 41.7365
      vertex 44.3969 68.4202 0
      vertex 44.3969 68.4202 43.4202
    endloop
  endfacet
  facet normal 0.965918 0.258848 0
    outer loop
      vertex 44.3969 68.4202 0
      vertex 44.8481 66.7365 41.7365
      vertex 44.8481 66.7365 0
    endloop
  endfacet
  facet normal 0.996196 0.087142 0
    outer loop
      vertex 45 65 40
      vertex 44.8481 66.7365 0
      vertex 44.8481 66.7365 41.7365
    endloop
  endfacet
  facet normal 0.996196 0.087142 0
    outer loop
      vertex 44.8481 66.7365 0
      vertex 45 65 40
      vertex 45 65 0
    endloop
  endfacet
  facet normal 0.087142 0.996196 0
    outer loop
      vertex 35 75 0
      vertex 36.7365 74.8481 49.8481
      vertex 36.7365 74.8481 0
    endloop
  endfacet
  facet normal 0.087142 0.996196 0
    outer loop
      vertex 36.7365 74.8481 49.8481
      vertex 35 75 0
      vertex 35 75 50
    endloop
  endfacet
  facet normal 0.258848 0.965918 0
    outer loop
      vertex 36.7365 74.8481 0
      vertex 38.4202 74.3969 49.3969
      vertex 38.4202 74.3969 0
    endloop
  endfacet
  facet normal 0.258848 0.965918 0
    outer loop
      vertex 38.4202 74.3969 49.3969
      vertex 36.7365 74.8481 0
      vertex 36.7365 74.8481 49.8481
    endloop
  endfacet
  facet normal 0.819132 0.573605 0
    outer loop
      vertex 43.6603 70 45
      vertex 42.6604 71.4279 0
      vertex 42.6604 71.4279 46.4279
    endloop
  endfacet
  facet normal 0.819132 0.573605 0
    outer loop
      vertex 42.6604 71.4279 0
      vertex 43.6603 70 45
      vertex 43.6603 70 0
    endloop
  endfacet
  facet normal 0.573605 0.819132 0
    outer loop
      vertex 40 73.6603 0
      vertex 41.4279 72.6604 47.6604
      vertex 41.4279 72.6604 0
    endloop
  endfacet
  facet normal 0.573605 0.819132 0
    outer loop
      vertex 41.4279 72.6604 47.6604
      vertex 40 73.6603 0
      vertex 40 73.6603 48.6603
    endloop
  endfacet
  facet normal 0.258848 -0.965918 0
    outer loop
      vertex 36.7365 -74.8481 0
      vertex 38.4202 -74.3969 49.3969
      vertex 36.7365 -74.8481 49.8481
    endloop
  endfacet
  facet normal 0.258848 -0.965918 0
    outer loop
      vertex 38.4202 -74.3969 49.3969
      vertex 36.7365 -74.8481 0
      vertex 38.4202 -74.3969 0
    endloop
  endfacet
  facet normal 0.422584 0.906324 0
    outer loop
      vertex 38.4202 74.3969 0
      vertex 40 73.6603 48.6603
      vertex 40 73.6603 0
    endloop
  endfacet
  facet normal 0.422584 0.906324 0
    outer loop
      vertex 40 73.6603 48.6603
      vertex 38.4202 74.3969 0
      vertex 38.4202 74.3969 49.3969
    endloop
  endfacet
  facet normal 0.573605 -0.819132 0
    outer loop
      vertex 40 -73.6603 0
      vertex 41.4279 -72.6604 47.6604
      vertex 40 -73.6603 48.6603
    endloop
  endfacet
  facet normal 0.573605 -0.819132 0
    outer loop
      vertex 41.4279 -72.6604 47.6604
      vertex 40 -73.6603 0
      vertex 41.4279 -72.6604 0
    endloop
  endfacet
  facet normal -0 0 1
    outer loop
      vertex -45 75 50
      vertex 35 -75 50
      vertex 35 75 50
    endloop
  endfacet
  facet normal 0 0 1
    outer loop
      vertex 35 -75 50
      vertex -45 75 50
      vertex -45 -75 50
    endloop
  endfacet
  facet normal 0.258848 0 0.965918
    outer loop
      vertex 36.7365 74.8481 49.8481
      vertex 38.4202 -74.3969 49.3969
      vertex 38.4202 74.3969 49.3969
    endloop
  endfacet
  facet normal 0.258848 0 0.965918
    outer loop
      vertex 38.4202 -74.3969 49.3969
      vertex 36.7365 74.8481 49.8481
      vertex 36.7365 -74.8481 49.8481
    endloop
  endfacet
  facet normal 0.422584 0 0.906324
    outer loop
      vertex 38.4202 74.3969 49.3969
      vertex 40 -73.6603 48.6603
      vertex 40 73.6603 48.6603
    endloop
  endfacet
  facet normal 0.422584 0 0.906324
    outer loop
      vertex 40 -73.6603 48.6603
      vertex 38.4202 74.3969 49.3969
      vertex 38.4202 -74.3969 49.3969
    endloop
  endfacet
  facet normal 0.906324 0 0.422584
    outer loop
      vertex 43.6603 70 45
      vertex 44.3969 -68.4202 43.4202
      vertex 44.3969 68.4202 43.4202
    endloop
  endfacet
  facet normal 0.906324 0 0.422584
    outer loop
      vertex 44.3969 -68.4202 43.4202
      vertex 43.6603 70 45
      vertex 43.6603 -70 45
    endloop
  endfacet
  facet normal 0.707107 0 0.707107
    outer loop
      vertex 41.4279 72.6604 47.6604
      vertex 42.6604 -71.4279 46.4279
      vertex 42.6604 71.4279 46.4279
    endloop
  endfacet
  facet normal 0.707107 0 0.707107
    outer loop
      vertex 42.6604 -71.4279 46.4279
      vertex 41.4279 72.6604 47.6604
      vertex 41.4279 -72.6604 47.6604
    endloop
  endfacet
  facet normal 0.573605 0 0.819132
    outer loop
      vertex 40 73.6603 48.6603
      vertex 41.4279 -72.6604 47.6604
      vertex 41.4279 72.6604 47.6604
    endloop
  endfacet
  facet normal 0.573605 0 0.819132
    outer loop
      vertex 41.4279 -72.6604 47.6604
      vertex 40 73.6603 48.6603
      vertex 40 -73.6603 48.6603
    endloop
  endfacet
  facet normal 0.087142 0 0.996196
    outer loop
      vertex 35 75 50
      vertex 36.7365 -74.8481 49.8481
      vertex 36.7365 74.8481 49.8481
    endloop
  endfacet
  facet normal 0.087142 0 0.996196
    outer loop
      vertex 36.7365 -74.8481 49.8481
      vertex 35 75 50
      vertex 35 -75 50
    endloop
  endfacet
  facet normal 0.965918 0 0.258848
    outer loop
      vertex 44.3969 68.4202 43.4202
      vertex 44.8481 -66.7365 41.7365
      vertex 44.8481 66.7365 41.7365
    endloop
  endfacet
  facet normal 0.965918 0 0.258848
    outer loop
      vertex 44.8481 -66.7365 41.7365
      vertex 44.3969 68.4202 43.4202
      vertex 44.3969 -68.4202 43.4202
    endloop
  endfacet
  facet normal 0.996196 0 0.087142
    outer loop
      vertex 44.8481 66.7365 41.7365
      vertex 45 -65 40
      vertex 45 65 40
    endloop
  endfacet
  facet normal 0.996196 0 0.087142
    outer loop
      vertex 45 -65 40
      vertex 44.8481 66.7365 41.7365
      vertex 44.8481 -66.7365 41.7365
    endloop
  endfacet
  facet normal 0.819132 0 0.573605
    outer loop
      vertex 42.6604 71.4279 46.4279
      vertex 43.6603 -70 45
      vertex 43.6603 70 45
    endloop
  endfacet
  facet normal 0.819132 0 0.573605
    outer loop
      vertex 43.6603 -70 45
      vertex 42.6604 71.4279 46.4279
      vertex 42.6604 -71.4279 46.4279
    endloop
  endfacet
  facet normal -1 0 0
    outer loop
      vertex -45 -75 0
      vertex -45 75 50
      vertex -45 75 0
    endloop
  endfacet
  facet normal -1 -0 0
    outer loop
      vertex -45 75 50
      vertex -45 -75 0
      vertex -45 -75 50
    endloop
  endfacet
  facet normal 0 0 -1
    outer loop
      vertex 42.1771 -64.9992 0
      vertex 45 -65 0
      vertex 44.8481 -66.7365 0
    endloop
  endfacet
  facet normal 0 0 -1
    outer loop
      vertex 45 -65 0
      vertex 42.75 -61.75 0
      vertex 45 65 0
    endloop
  endfacet
  facet normal 0 0 -1
    outer loop
      vertex 41.4772 -66.5 0
      vertex 44.8481 -66.7365 0
      vertex 44.3969 -68.4202 0
    endloop
  endfacet
  facet normal 0 0 -1
    outer loop
      vertex 42.75 61.75 0
      vertex 45 65 0
      vertex 42.75 -61.75 0
    endloop
  endfacet
  facet normal 0 0 -1
    outer loop
      vertex 40.5274 -67.8565 0
      vertex 44.3969 -68.4202 0
      vertex 43.6603 -70 0
    endloop
  endfacet
  facet normal 0 0 -1
    outer loop
      vertex 42.6057 63.3997 0
      vertex 45 65 0
      vertex 42.75 61.75 0
    endloop
  endfacet
  facet normal 0 0 -1
    outer loop
      vertex 42.1771 64.9992 0
      vertex 45 65 0
      vertex 42.6057 63.3997 0
    endloop
  endfacet
  facet normal 0 0 -1
    outer loop
      vertex 40.5274 -67.8565 0
      vertex 43.6603 -70 0
      vertex 42.6604 -71.4279 0
    endloop
  endfacet
  facet normal 0 0 -1
    outer loop
      vertex 45 -65 0
      vertex 42.6057 -63.3997 0
      vertex 42.75 -61.75 0
    endloop
  endfacet
  facet normal 0 0 -1
    outer loop
      vertex 45 -65 0
      vertex 42.1771 -64.9992 0
      vertex 42.6057 -63.3997 0
    endloop
  endfacet
  facet normal 0 0 -1
    outer loop
      vertex 44.8481 -66.7365 0
      vertex 41.4772 -66.5 0
      vertex 42.1771 -64.9992 0
    endloop
  endfacet
  facet normal 0 0 -1
    outer loop
      vertex 39.3565 -69.0274 0
      vertex 42.6604 -71.4279 0
      vertex 41.4279 -72.6604 0
    endloop
  endfacet
  facet normal 0 0 -1
    outer loop
      vertex 44.3969 -68.4202 0
      vertex 40.5274 -67.8565 0
      vertex 41.4772 -66.5 0
    endloop
  endfacet
  facet normal 0 0 -1
    outer loop
      vertex 38 -69.9772 0
      vertex 41.4279 -72.6604 0
      vertex 40 -73.6603 0
    endloop
  endfacet
  facet normal 0 0 -1
    outer loop
      vertex 42.6604 -71.4279 0
      vertex 39.3565 -69.0274 0
      vertex 40.5274 -67.8565 0
    endloop
  endfacet
  facet normal 0 0 -1
    outer loop
      vertex 38 -69.9772 0
      vertex 40 -73.6603 0
      vertex 38.4202 -74.3969 0
    endloop
  endfacet
  facet normal 0 0 -1
    outer loop
      vertex 41.4279 -72.6604 0
      vertex 38 -69.9772 0
      vertex 39.3565 -69.0274 0
    endloop
  endfacet
  facet normal 0 0 -1
    outer loop
      vertex 36.4992 -70.6771 0
      vertex 38.4202 -74.3969 0
      vertex 36.7365 -74.8481 0
    endloop
  endfacet
  facet normal 0 0 -1
    outer loop
      vertex 38.4202 -74.3969 0
      vertex 36.4992 -70.6771 0
      vertex 38 -69.9772 0
    endloop
  endfacet
  facet normal 0 0 -1
    outer loop
      vertex 34.8997 -71.1057 0
      vertex 36.7365 -74.8481 0
      vertex 35 -75 0
    endloop
  endfacet
  facet normal 0 0 -1
    outer loop
      vertex 36.7365 -74.8481 0
      vertex 34.8997 -71.1057 0
      vertex 36.4992 -70.6771 0
    endloop
  endfacet
  facet normal 0 0 -1
    outer loop
      vertex 35 -75 0
      vertex 33.25 -71.25 0
      vertex 34.8997 -71.1057 0
    endloop
  endfacet
  facet normal 0 0 -1
    outer loop
      vertex 35 -75 0
      vertex -42.75 -71.25 0
      vertex 33.25 -71.25 0
    endloop
  endfacet
  facet normal -0 0 -1
    outer loop
      vertex -42.75 -71.25 0
      vertex -45 -75 0
      vertex -42.75 71.25 0
    endloop
  endfacet
  facet normal 0 0 -1
    outer loop
      vertex -45 -75 0
      vertex -42.75 -71.25 0
      vertex 35 -75 0
    endloop
  endfacet
  facet normal -0 0 -1
    outer loop
      vertex 45 65 0
      vertex 42.1771 64.9992 0
      vertex 44.8481 66.7365 0
    endloop
  endfacet
  facet normal 0 0 -1
    outer loop
      vertex 41.4772 66.5 0
      vertex 44.8481 66.7365 0
      vertex 42.1771 64.9992 0
    endloop
  endfacet
  facet normal -0 0 -1
    outer loop
      vertex 44.8481 66.7365 0
      vertex 41.4772 66.5 0
      vertex 44.3969 68.4202 0
    endloop
  endfacet
  facet normal 0 0 -1
    outer loop
      vertex 40.5274 67.8565 0
      vertex 44.3969 68.4202 0
      vertex 41.4772 66.5 0
    endloop
  endfacet
  facet normal -0 0 -1
    outer loop
      vertex 44.3969 68.4202 0
      vertex 40.5274 67.8565 0
      vertex 43.6603 70 0
    endloop
  endfacet
  facet normal -0 0 -1
    outer loop
      vertex 43.6603 70 0
      vertex 40.5274 67.8565 0
      vertex 42.6604 71.4279 0
    endloop
  endfacet
  facet normal 0 0 -1
    outer loop
      vertex 39.3565 69.0274 0
      vertex 42.6604 71.4279 0
      vertex 40.5274 67.8565 0
    endloop
  endfacet
  facet normal -0 0 -1
    outer loop
      vertex 42.6604 71.4279 0
      vertex 39.3565 69.0274 0
      vertex 41.4279 72.6604 0
    endloop
  endfacet
  facet normal 0 0 -1
    outer loop
      vertex 38 69.9772 0
      vertex 41.4279 72.6604 0
      vertex 39.3565 69.0274 0
    endloop
  endfacet
  facet normal -0 0 -1
    outer loop
      vertex 41.4279 72.6604 0
      vertex 38 69.9772 0
      vertex 40 73.6603 0
    endloop
  endfacet
  facet normal -0 0 -1
    outer loop
      vertex 40 73.6603 0
      vertex 38 69.9772 0
      vertex 38.4202 74.3969 0
    endloop
  endfacet
  facet normal 0 0 -1
    outer loop
      vertex 36.4992 70.6771 0
      vertex 38.4202 74.3969 0
      vertex 38 69.9772 0
    endloop
  endfacet
  facet normal -0 0 -1
    outer loop
      vertex 38.4202 74.3969 0
      vertex 36.4992 70.6771 0
      vertex 36.7365 74.8481 0
    endloop
  endfacet
  facet normal 0 0 -1
    outer loop
      vertex 34.8997 71.1057 0
      vertex 36.7365 74.8481 0
      vertex 36.4992 70.6771 0
    endloop
  endfacet
  facet normal -0 0 -1
    outer loop
      vertex 36.7365 74.8481 0
      vertex 34.8997 71.1057 0
      vertex 35 75 0
    endloop
  endfacet
  facet normal 0 0 -1
    outer loop
      vertex 33.25 71.25 0
      vertex 35 75 0
      vertex 34.8997 71.1057 0
    endloop
  endfacet
  facet normal 0 0 -1
    outer loop
      vertex -42.75 71.25 0
      vertex 35 75 0
      vertex 33.25 71.25 0
    endloop
  endfacet
  facet normal 0 0 -1
    outer loop
      vertex -42.75 71.25 0
      vertex -45 75 0
      vertex 35 75 0
    endloop
  endfacet
  facet normal 0 0 -1
    outer loop
      vertex -45 75 0
      vertex -42.75 71.25 0
      vertex -45 -75 0
    endloop
  endfacet
  facet normal -0.965924 0.258828 0
    outer loop
      vertex 42.1771 -64.9992 0
      vertex 42.6057 -63.3997 39.7365
      vertex 42.6057 -63.3997 0
    endloop
  endfacet
  facet normal -0.965924 0.258828 0
    outer loop
      vertex 42.6057 -63.3997 39.7365
      vertex 42.1771 -64.9992 0
      vertex 42.1771 -64.9992 41.4202
    endloop
  endfacet
  facet normal -0.819161 0.573564 0
    outer loop
      vertex 40.5274 -67.8565 0
      vertex 41.4772 -66.5 43
      vertex 41.4772 -66.5 0
    endloop
  endfacet
  facet normal -0.819161 0.573564 0
    outer loop
      vertex 41.4772 -66.5 43
      vertex 40.5274 -67.8565 0
      vertex 40.5274 -67.8565 44.4279
    endloop
  endfacet
  facet normal 0 1 -0
    outer loop
      vertex 33.25 -71.25 0
      vertex -42.75 -71.25 48
      vertex 33.25 -71.25 48
    endloop
  endfacet
  facet normal 0 1 0
    outer loop
      vertex -42.75 -71.25 48
      vertex 33.25 -71.25 0
      vertex -42.75 -71.25 0
    endloop
  endfacet
  facet normal -0.906293 0.422651 0
    outer loop
      vertex 41.4772 -66.5 0
      vertex 42.1771 -64.9992 41.4202
      vertex 42.1771 -64.9992 0
    endloop
  endfacet
  facet normal -0.906293 0.422651 0
    outer loop
      vertex 42.1771 -64.9992 41.4202
      vertex 41.4772 -66.5 0
      vertex 41.4772 -66.5 43
    endloop
  endfacet
  facet normal -0.707107 0.707107 0
    outer loop
      vertex 39.3565 -69.0274 0
      vertex 40.5274 -67.8565 44.4279
      vertex 40.5274 -67.8565 0
    endloop
  endfacet
  facet normal -0.707107 0.707107 0
    outer loop
      vertex 40.5274 -67.8565 44.4279
      vertex 39.3565 -69.0274 0
      vertex 39.3565 -69.0274 45.6604
    endloop
  endfacet
  facet normal -0.0871377 0.996196 0
    outer loop
      vertex 33.25 -71.25 0
      vertex 34.8997 -71.1057 47.8481
      vertex 34.8997 -71.1057 0
    endloop
  endfacet
  facet normal -0.0871377 0.996196 0
    outer loop
      vertex 34.8997 -71.1057 47.8481
      vertex 33.25 -71.25 0
      vertex 33.25 -71.25 48
    endloop
  endfacet
  facet normal -0.906293 -0.422651 -0
    outer loop
      vertex 42.1771 64.9992 41.4202
      vertex 41.4772 66.5 0
      vertex 42.1771 64.9992 0
    endloop
  endfacet
  facet normal -0.906293 -0.422651 0
    outer loop
      vertex 41.4772 66.5 0
      vertex 42.1771 64.9992 41.4202
      vertex 41.4772 66.5 43
    endloop
  endfacet
  facet normal -0.422651 0.906293 0
    outer loop
      vertex 36.4992 -70.6771 0
      vertex 38 -69.9772 46.6603
      vertex 38 -69.9772 0
    endloop
  endfacet
  facet normal -0.422651 0.906293 0
    outer loop
      vertex 38 -69.9772 46.6603
      vertex 36.4992 -70.6771 0
      vertex 36.4992 -70.6771 47.3969
    endloop
  endfacet
  facet normal 0 -1 0
    outer loop
      vertex -42.75 71.25 0
      vertex 33.25 71.25 48
      vertex -42.75 71.25 48
    endloop
  endfacet
  facet normal 0 -1 -0
    outer loop
      vertex 33.25 71.25 48
      vertex -42.75 71.25 0
      vertex 33.25 71.25 0
    endloop
  endfacet
  facet normal -0.707107 -0.707107 0
    outer loop
      vertex 39.3565 69.0274 0
      vertex 40.5274 67.8565 44.4279
      vertex 39.3565 69.0274 45.6604
    endloop
  endfacet
  facet normal -0.707107 -0.707107 -0
    outer loop
      vertex 40.5274 67.8565 44.4279
      vertex 39.3565 69.0274 0
      vertex 40.5274 67.8565 0
    endloop
  endfacet
  facet normal -0.996196 0.0871377 0
    outer loop
      vertex 42.6057 -63.3997 0
      vertex 42.75 -61.75 38
      vertex 42.75 -61.75 0
    endloop
  endfacet
  facet normal -0.996196 0.0871377 0
    outer loop
      vertex 42.75 -61.75 38
      vertex 42.6057 -63.3997 0
      vertex 42.6057 -63.3997 39.7365
    endloop
  endfacet
  facet normal -1 0 0
    outer loop
      vertex 42.75 -61.75 0
      vertex 42.75 61.75 38
      vertex 42.75 61.75 0
    endloop
  endfacet
  facet normal -1 -0 0
    outer loop
      vertex 42.75 61.75 38
      vertex 42.75 -61.75 0
      vertex 42.75 -61.75 38
    endloop
  endfacet
  facet normal -0.965924 -0.258828 -0
    outer loop
      vertex 42.6057 63.3997 39.7365
      vertex 42.1771 64.9992 0
      vertex 42.6057 63.3997 0
    endloop
  endfacet
  facet normal -0.965924 -0.258828 0
    outer loop
      vertex 42.1771 64.9992 0
      vertex 42.6057 63.3997 39.7365
      vertex 42.1771 64.9992 41.4202
    endloop
  endfacet
  facet normal -0.996196 -0.0871377 -0
    outer loop
      vertex 42.75 61.75 38
      vertex 42.6057 63.3997 0
      vertex 42.75 61.75 0
    endloop
  endfacet
  facet normal -0.996196 -0.0871377 0
    outer loop
      vertex 42.6057 63.3997 0
      vertex 42.75 61.75 38
      vertex 42.6057 63.3997 39.7365
    endloop
  endfacet
  facet normal -0.0871377 -0.996196 0
    outer loop
      vertex 33.25 71.25 0
      vertex 34.8997 71.1057 47.8481
      vertex 33.25 71.25 48
    endloop
  endfacet
  facet normal -0.0871377 -0.996196 -0
    outer loop
      vertex 34.8997 71.1057 47.8481
      vertex 33.25 71.25 0
      vertex 34.8997 71.1057 0
    endloop
  endfacet
  facet normal -0.258828 -0.965924 0
    outer loop
      vertex 34.8997 71.1057 0
      vertex 36.4992 70.6771 47.3969
      vertex 34.8997 71.1057 47.8481
    endloop
  endfacet
  facet normal -0.258828 -0.965924 -0
    outer loop
      vertex 36.4992 70.6771 47.3969
      vertex 34.8997 71.1057 0
      vertex 36.4992 70.6771 0
    endloop
  endfacet
  facet normal -0.819161 -0.573564 -0
    outer loop
      vertex 41.4772 66.5 43
      vertex 40.5274 67.8565 0
      vertex 41.4772 66.5 0
    endloop
  endfacet
  facet normal -0.819161 -0.573564 0
    outer loop
      vertex 40.5274 67.8565 0
      vertex 41.4772 66.5 43
      vertex 40.5274 67.8565 44.4279
    endloop
  endfacet
  facet normal -0.573564 -0.819161 0
    outer loop
      vertex 38 69.9772 0
      vertex 39.3565 69.0274 45.6604
      vertex 38 69.9772 46.6603
    endloop
  endfacet
  facet normal -0.573564 -0.819161 -0
    outer loop
      vertex 39.3565 69.0274 45.6604
      vertex 38 69.9772 0
      vertex 39.3565 69.0274 0
    endloop
  endfacet
  facet normal -0.258828 0.965924 0
    outer loop
      vertex 34.8997 -71.1057 0
      vertex 36.4992 -70.6771 47.3969
      vertex 36.4992 -70.6771 0
    endloop
  endfacet
  facet normal -0.258828 0.965924 0
    outer loop
      vertex 36.4992 -70.6771 47.3969
      vertex 34.8997 -71.1057 0
      vertex 34.8997 -71.1057 47.8481
    endloop
  endfacet
  facet normal -0.422651 -0.906293 0
    outer loop
      vertex 36.4992 70.6771 0
      vertex 38 69.9772 46.6603
      vertex 36.4992 70.6771 47.3969
    endloop
  endfacet
  facet normal -0.422651 -0.906293 -0
    outer loop
      vertex 38 69.9772 46.6603
      vertex 36.4992 70.6771 0
      vertex 38 69.9772 0
    endloop
  endfacet
  facet normal -0.573564 0.819161 0
    outer loop
      vertex 38 -69.9772 0
      vertex 39.3565 -69.0274 45.6604
      vertex 39.3565 -69.0274 0
    endloop
  endfacet
  facet normal -0.573564 0.819161 0
    outer loop
      vertex 39.3565 -69.0274 45.6604
      vertex 38 -69.9772 0
      vertex 38 -69.9772 46.6603
    endloop
  endfacet
  facet normal 0 0 -1
    outer loop
      vertex -42.75 -71.25 48
      vertex 33.25 71.25 48
      vertex 33.25 -71.25 48
    endloop
  endfacet
  facet normal -0 0 -1
    outer loop
      vertex 33.25 71.25 48
      vertex -42.75 -71.25 48
      vertex -42.75 71.25 48
    endloop
  endfacet
  facet normal -0.271493 0 -0.96244
    outer loop
      vertex 34.8997 -71.1057 47.8481
      vertex 36.4992 70.6771 47.3969
      vertex 36.4992 -70.6771 47.3969
    endloop
  endfacet
  facet normal -0.271493 0 -0.96244
    outer loop
      vertex 36.4992 70.6771 47.3969
      vertex 34.8997 -71.1057 47.8481
      vertex 34.8997 71.1057 47.8481
    endloop
  endfacet
  facet normal -0.440598 0 -0.897705
    outer loop
      vertex 36.4992 -70.6771 47.3969
      vertex 38 69.9772 46.6603
      vertex 38 -69.9772 46.6603
    endloop
  endfacet
  facet normal -0.440598 0 -0.897705
    outer loop
      vertex 38 69.9772 46.6603
      vertex 36.4992 -70.6771 47.3969
      vertex 36.4992 70.6771 47.3969
    endloop
  endfacet
  facet normal -0.914291 0 -0.405059
    outer loop
      vertex 42.1771 -64.9992 41.4202
      vertex 41.4772 66.5 43
      vertex 42.1771 64.9992 41.4202
    endloop
  endfacet
  facet normal -0.914291 -0 -0.405059
    outer loop
      vertex 41.4772 66.5 43
      vertex 42.1771 -64.9992 41.4202
      vertex 41.4772 -66.5 43
    endloop
  endfacet
  facet normal -0.724992 0 -0.688757
    outer loop
      vertex 40.5274 -67.8565 44.4279
      vertex 39.3565 69.0274 45.6604
      vertex 40.5274 67.8565 44.4279
    endloop
  endfacet
  facet normal -0.724992 -0 -0.688757
    outer loop
      vertex 39.3565 69.0274 45.6604
      vertex 40.5274 -67.8565 44.4279
      vertex 39.3565 -69.0274 45.6604
    endloop
  endfacet
  facet normal -0.593343 0 -0.80495
    outer loop
      vertex 38 -69.9772 46.6603
      vertex 39.3565 69.0274 45.6604
      vertex 39.3565 -69.0274 45.6604
    endloop
  endfacet
  facet normal -0.593343 0 -0.80495
    outer loop
      vertex 39.3565 69.0274 45.6604
      vertex 38 -69.9772 46.6603
      vertex 38 69.9772 46.6603
    endloop
  endfacet
  facet normal -0.0916895 0 -0.995788
    outer loop
      vertex 33.25 -71.25 48
      vertex 34.8997 71.1057 47.8481
      vertex 34.8997 -71.1057 47.8481
    endloop
  endfacet
  facet normal -0.0916895 0 -0.995788
    outer loop
      vertex 34.8997 71.1057 47.8481
      vertex 33.25 -71.25 48
      vertex 33.25 71.25 48
    endloop
  endfacet
  facet normal -0.969094 0 -0.246691
    outer loop
      vertex 42.6057 -63.3997 39.7365
      vertex 42.1771 64.9992 41.4202
      vertex 42.6057 63.3997 39.7365
    endloop
  endfacet
  facet normal -0.969094 -0 -0.246691
    outer loop
      vertex 42.1771 64.9992 41.4202
      vertex 42.6057 -63.3997 39.7365
      vertex 42.1771 -64.9992 41.4202
    endloop
  endfacet
  facet normal -0.996565 0 -0.0828128
    outer loop
      vertex 42.75 -61.75 38
      vertex 42.6057 63.3997 39.7365
      vertex 42.75 61.75 38
    endloop
  endfacet
  facet normal -0.996565 -0 -0.0828128
    outer loop
      vertex 42.6057 63.3997 39.7365
      vertex 42.75 -61.75 38
      vertex 42.6057 -63.3997 39.7365
    endloop
  endfacet
  facet normal -0.832624 0 -0.553839
    outer loop
      vertex 41.4772 -66.5 43
      vertex 40.5274 67.8565 44.4279
      vertex 41.4772 66.5 43
    endloop
  endfacet
  facet normal -0.832624 -0 -0.553839
    outer loop
      vertex 40.5274 67.8565 44.4279
      vertex 41.4772 -66.5 43
      vertex 40.5274 -67.8565 44.4279
    endloop
  endfacet
  facet normal 1 -0 0
    outer loop
      vertex -42.75 -71.25 48
      vertex -42.75 71.25 0
      vertex -42.75 71.25 48
    endloop
  endfacet
  facet normal 1 0 0
    outer loop
      vertex -42.75 71.25 0
      vertex -42.75 -71.25 48
      vertex -42.75 -71.25 0
    endloop
  endfacet
endsolid OpenSCAD_Model
