solid OpenSCAD_Model
  facet normal 0.996191 -0.087199 0
    outer loop
      vertex 149.848 -46.7365 0
      vertex 150 -45 40
      vertex 149.848 -46.7365 41.7365
    endloop
  endfacet
  facet normal 0.996191 -0.087199 0
    outer loop
      vertex 150 -45 40
      vertex 149.848 -46.7365 0
      vertex 150 -45 0
    endloop
  endfacet
  facet normal 0.965947 -0.258741 0
    outer loop
      vertex 149.397 -48.4202 0
      vertex 149.848 -46.7365 41.7365
      vertex 149.397 -48.4202 43.4202
    endloop
  endfacet
  facet normal 0.965947 -0.258741 0
    outer loop
      vertex 149.848 -46.7365 41.7365
      vertex 149.397 -48.4202 0
      vertex 149.848 -46.7365 0
    endloop
  endfacet
  facet normal 0.258805 -0.96593 0
    outer loop
      vertex 141.736 -54.8481 0
      vertex 143.42 -54.3969 49.3969
      vertex 141.736 -54.8481 49.8481
    endloop
  endfacet
  facet normal 0.258805 -0.96593 0
    outer loop
      vertex 143.42 -54.3969 49.3969
      vertex 141.736 -54.8481 0
      vertex 143.42 -54.3969 0
    endloop
  endfacet
  facet normal 0.42254 -0.906344 0
    outer loop
      vertex 143.42 -54.3969 0
      vertex 145 -53.6603 48.6603
      vertex 143.42 -54.3969 49.3969
    endloop
  endfacet
  facet normal 0.42254 -0.906344 0
    outer loop
      vertex 145 -53.6603 48.6603
      vertex 143.42 -54.3969 0
      vertex 145 -53.6603 0
    endloop
  endfacet
  facet normal 0 1 -0
    outer loop
      vertex 140 55 0
      vertex 50 55 50
      vertex 140 55 50
    endloop
  endfacet
  facet normal 0 1 0
    outer loop
      vertex 50 55 50
      vertex 140 55 0
      vertex 50 55 0
    endloop
  endfacet
  facet normal 0.573578 0.819151 0
    outer loop
      vertex 145 53.6603 0
      vertex 146.428 52.6604 47.6604
      vertex 146.428 52.6604 0
    endloop
  endfacet
  facet normal 0.573578 0.819151 0
    outer loop
      vertex 146.428 52.6604 47.6604
      vertex 145 53.6603 0
      vertex 145 53.6603 48.6603
    endloop
  endfacet
  facet normal 1 -0 0
    outer loop
      vertex 150 -45 40
      vertex 150 45 0
      vertex 150 45 40
    endloop
  endfacet
  facet normal 1 0 0
    outer loop
      vertex 150 45 0
      vertex 150 -45 40
      vertex 150 -45 0
    endloop
  endfacet
  facet normal 0.819105 0.573643 0
    outer loop
      vertex 148.66 50 45
      vertex 147.66 51.4279 0
      vertex 147.66 51.4279 46.4279
    endloop
  endfacet
  facet normal 0.819105 0.573643 0
    outer loop
      vertex 147.66 51.4279 0
      vertex 148.66 50 45
      vertex 148.66 50 0
    endloop
  endfacet
  facet normal 0 -1 0
    outer loop
      vertex 50 -55 0
      vertex 140 -55 50
      vertex 50 -55 50
    endloop
  endfacet
  facet normal 0 -1 -0
    outer loop
      vertex 140 -55 50
      vertex 50 -55 0
      vertex 140 -55 0
    endloop
  endfacet
  facet normal 0.70725 -0.706963 0
    outer loop
      vertex 146.428 -52.6604 0
      vertex 147.66 -51.4279 46.4279
      vertex 146.428 -52.6604 47.6604
    endloop
  endfacet
  facet normal 0.70725 -0.706963 0
    outer loop
      vertex 147.66 -51.4279 46.4279
      vertex 146.428 -52.6604 0
      vertex 147.66 -51.4279 0
    endloop
  endfacet
  facet normal 0.996191 0.087199 0
    outer loop
      vertex 150 45 40
      vertex 149.848 46.7365 0
      vertex 149.848 46.7365 41.7365
    endloop
  endfacet
  facet normal 0.996191 0.087199 0
    outer loop
      vertex 149.848 46.7365 0
      vertex 150 45 40
      vertex 150 45 0
    endloop
  endfacet
  facet normal 0.906236 -0.422772 0
    outer loop
      vertex 148.66 -50 0
      vertex 149.397 -48.4202 43.4202
      vertex 148.66 -50 45
    endloop
  endfacet
  facet normal 0.906236 -0.422772 0
    outer loop
      vertex 149.397 -48.4202 43.4202
      vertex 148.66 -50 0
      vertex 149.397 -48.4202 0
    endloop
  endfacet
  facet normal 0.087167 -0.996194 0
    outer loop
      vertex 140 -55 0
      vertex 141.736 -54.8481 49.8481
      vertex 140 -55 50
    endloop
  endfacet
  facet normal 0.087167 -0.996194 0
    outer loop
      vertex 141.736 -54.8481 49.8481
      vertex 140 -55 0
      vertex 141.736 -54.8481 0
    endloop
  endfacet
  facet normal 0.819105 -0.573643 0
    outer loop
      vertex 147.66 -51.4279 0
      vertex 148.66 -50 45
      vertex 147.66 -51.4279 46.4279
    endloop
  endfacet
  facet normal 0.819105 -0.573643 0
    outer loop
      vertex 148.66 -50 45
      vertex 147.66 -51.4279 0
      vertex 148.66 -50 0
    endloop
  endfacet
  facet normal 0.965947 0.258741 0
    outer loop
      vertex 149.848 46.7365 41.7365
      vertex 149.397 48.4202 0
      vertex 149.397 48.4202 43.4202
    endloop
  endfacet
  facet normal 0.965947 0.258741 0
    outer loop
      vertex 149.397 48.4202 0
      vertex 149.848 46.7365 41.7365
      vertex 149.848 46.7365 0
    endloop
  endfacet
  facet normal 0.42254 0.906344 0
    outer loop
      vertex 143.42 54.3969 0
      vertex 145 53.6603 48.6603
      vertex 145 53.6603 0
    endloop
  endfacet
  facet normal 0.42254 0.906344 0
    outer loop
      vertex 145 53.6603 48.6603
      vertex 143.42 54.3969 0
      vertex 143.42 54.3969 49.3969
    endloop
  endfacet
  facet normal 0.70725 0.706963 0
    outer loop
      vertex 146.428 52.6604 0
      vertex 147.66 51.4279 46.4279
      vertex 147.66 51.4279 0
    endloop
  endfacet
  facet normal 0.70725 0.706963 0
    outer loop
      vertex 147.66 51.4279 46.4279
      vertex 146.428 52.6604 0
      vertex 146.428 52.6604 47.6604
    endloop
  endfacet
  facet normal 0.258805 0.96593 0
    outer loop
      vertex 141.736 54.8481 0
      vertex 143.42 54.3969 49.3969
      vertex 143.42 54.3969 0
    endloop
  endfacet
  facet normal 0.258805 0.96593 0
    outer loop
      vertex 143.42 54.3969 49.3969
      vertex 141.736 54.8481 0
      vertex 141.736 54.8481 49.8481
    endloop
  endfacet
  facet normal 0.087167 0.996194 0
    outer loop
      vertex 140 55 0
      vertex 141.736 54.8481 49.8481
      vertex 141.736 54.8481 0
    endloop
  endfacet
  facet normal 0.087167 0.996194 0
    outer loop
      vertex 141.736 54.8481 49.8481
      vertex 140 55 0
      vertex 140 55 50
    endloop
  endfacet
  facet normal 0.573578 -0.819151 0
    outer loop
      vertex 145 -53.6603 0
      vertex 146.428 -52.6604 47.6604
      vertex 145 -53.6603 48.6603
    endloop
  endfacet
  facet normal 0.573578 -0.819151 0
    outer loop
      vertex 146.428 -52.6604 47.6604
      vertex 145 -53.6603 0
      vertex 146.428 -52.6604 0
    endloop
  endfacet
  facet normal 0.906236 0.422772 0
    outer loop
      vertex 149.397 48.4202 43.4202
      vertex 148.66 50 0
      vertex 148.66 50 45
    endloop
  endfacet
  facet normal 0.906236 0.422772 0
    outer loop
      vertex 148.66 50 0
      vertex 149.397 48.4202 43.4202
      vertex 149.397 48.4202 0
    endloop
  endfacet
  facet normal -0 0 1
    outer loop
      vertex 50 55 50
      vertex 140 -55 50
      vertex 140 55 50
    endloop
  endfacet
  facet normal 0 0 1
    outer loop
      vertex 140 -55 50
      vertex 50 55 50
      vertex 50 -55 50
    endloop
  endfacet
  facet normal 0.819105 0 0.573643
    outer loop
      vertex 147.66 51.4279 46.4279
      vertex 148.66 -50 45
      vertex 148.66 50 45
    endloop
  endfacet
  facet normal 0.819105 0 0.573643
    outer loop
      vertex 148.66 -50 45
      vertex 147.66 51.4279 46.4279
      vertex 147.66 -51.4279 46.4279
    endloop
  endfacet
  facet normal 0.087167 0 0.996194
    outer loop
      vertex 140 55 50
      vertex 141.736 -54.8481 49.8481
      vertex 141.736 54.8481 49.8481
    endloop
  endfacet
  facet normal 0.087167 0 0.996194
    outer loop
      vertex 141.736 -54.8481 49.8481
      vertex 140 55 50
      vertex 140 -55 50
    endloop
  endfacet
  facet normal 0.996191 0 0.087199
    outer loop
      vertex 149.848 46.7365 41.7365
      vertex 150 -45 40
      vertex 150 45 40
    endloop
  endfacet
  facet normal 0.996191 0 0.087199
    outer loop
      vertex 150 -45 40
      vertex 149.848 46.7365 41.7365
      vertex 149.848 -46.7365 41.7365
    endloop
  endfacet
  facet normal 0.965947 0 0.258741
    outer loop
      vertex 149.397 48.4202 43.4202
      vertex 149.848 -46.7365 41.7365
      vertex 149.848 46.7365 41.7365
    endloop
  endfacet
  facet normal 0.965947 0 0.258741
    outer loop
      vertex 149.848 -46.7365 41.7365
      vertex 149.397 48.4202 43.4202
      vertex 149.397 -48.4202 43.4202
    endloop
  endfacet
  facet normal 0.906236 0 0.422772
    outer loop
      vertex 148.66 50 45
      vertex 149.397 -48.4202 43.4202
      vertex 149.397 48.4202 43.4202
    endloop
  endfacet
  facet normal 0.906236 0 0.422772
    outer loop
      vertex 149.397 -48.4202 43.4202
      vertex 148.66 50 45
      vertex 148.66 -50 45
    endloop
  endfacet
  facet normal 0.573578 0 0.819151
    outer loop
      vertex 145 53.6603 48.6603
      vertex 146.428 -52.6604 47.6604
      vertex 146.428 52.6604 47.6604
    endloop
  endfacet
  facet normal 0.573578 0 0.819151
    outer loop
      vertex 146.428 -52.6604 47.6604
      vertex 145 53.6603 48.6603
      vertex 145 -53.6603 48.6603
    endloop
  endfacet
  facet normal 0.70725 0 0.706963
    outer loop
      vertex 146.428 52.6604 47.6604
      vertex 147.66 -51.4279 46.4279
      vertex 147.66 51.4279 46.4279
    endloop
  endfacet
  facet normal 0.70725 0 0.706963
    outer loop
      vertex 147.66 -51.4279 46.4279
      vertex 146.428 52.6604 47.6604
      vertex 146.428 -52.6604 47.6604
    endloop
  endfacet
  facet normal 0.258805 0 0.96593
    outer loop
      vertex 141.736 54.8481 49.8481
      vertex 143.42 -54.3969 49.3969
      vertex 143.42 54.3969 49.3969
    endloop
  endfacet
  facet normal 0.258805 0 0.96593
    outer loop
      vertex 143.42 -54.3969 49.3969
      vertex 141.736 54.8481 49.8481
      vertex 141.736 -54.8481 49.8481
    endloop
  endfacet
  facet normal 0.42254 0 0.906344
    outer loop
      vertex 143.42 54.3969 49.3969
      vertex 145 -53.6603 48.6603
      vertex 145 53.6603 48.6603
    endloop
  endfacet
  facet normal 0.42254 0 0.906344
    outer loop
      vertex 145 -53.6603 48.6603
      vertex 143.42 54.3969 49.3969
      vertex 143.42 -54.3969 49.3969
    endloop
  endfacet
  facet normal -1 0 0
    outer loop
      vertex 50 -55 0
      vertex 50 -65 0
      vertex 50 -55 50
    endloop
  endfacet
  facet normal -1 0 0
    outer loop
      vertex 50 55 50
      vertex 50 65 0
      vertex 50 55 0
    endloop
  endfacet
  facet normal -1 0 0
    outer loop
      vertex 50 65 0
      vertex 50 55 50
      vertex 50 65 90
    endloop
  endfacet
  facet normal -1 0 0
    outer loop
      vertex 50 -55 50
      vertex 50 65 90
      vertex 50 55 50
    endloop
  endfacet
  facet normal -1 0 0
    outer loop
      vertex 50 -55 50
      vertex 50 -65 90
      vertex 50 65 90
    endloop
  endfacet
  facet normal -1 0 0
    outer loop
      vertex 50 -65 90
      vertex 50 -55 50
      vertex 50 -65 0
    endloop
  endfacet
  facet normal 1 0 0
    outer loop
      vertex 50 65 90
      vertex 50 55 50
      vertex 50 65 0
    endloop
  endfacet
  facet normal 1 0 0
    outer loop
      vertex 50 65 90
      vertex 50 -55 50
      vertex 50 55 50
    endloop
  endfacet
  facet normal 1 -0 0
    outer loop
      vertex 50 -65 90
      vertex 50 -55 50
      vertex 50 65 90
    endloop
  endfacet
  facet normal 1 0 0
    outer loop
      vertex 50 -65 0
      vertex 50 -55 50
      vertex 50 -65 90
    endloop
  endfacet
  facet normal 1 0 0
    outer loop
      vertex 50 -55 50
      vertex 50 -65 0
      vertex 50 -55 0
    endloop
  endfacet
  facet normal 1 0 0
    outer loop
      vertex 50 65 0
      vertex 50 55 50
      vertex 50 55 0
    endloop
  endfacet
  facet normal -1 0 0
    outer loop
      vertex 50 -52.25 0
      vertex 50 -55 0
      vertex 50 -52.25 46
    endloop
  endfacet
  facet normal -1 0 0
    outer loop
      vertex 50 52.25 46
      vertex 50 55 0
      vertex 50 52.25 0
    endloop
  endfacet
  facet normal -1 0 0
    outer loop
      vertex 50 55 0
      vertex 50 52.25 46
      vertex 50 55 50
    endloop
  endfacet
  facet normal -1 0 0
    outer loop
      vertex 50 -52.25 46
      vertex 50 55 50
      vertex 50 52.25 46
    endloop
  endfacet
  facet normal -1 0 0
    outer loop
      vertex 50 -52.25 46
      vertex 50 -55 50
      vertex 50 55 50
    endloop
  endfacet
  facet normal -1 0 0
    outer loop
      vertex 50 -55 50
      vertex 50 -52.25 46
      vertex 50 -55 0
    endloop
  endfacet
  facet normal 0 0 -1
    outer loop
      vertex 146.927 -45.9992 0
      vertex 150 -45 0
      vertex 149.848 -46.7365 0
    endloop
  endfacet
  facet normal 0 0 -1
    outer loop
      vertex 150 -45 0
      vertex 147.5 -42.75 0
      vertex 150 45 0
    endloop
  endfacet
  facet normal 0 0 -1
    outer loop
      vertex 146.927 -45.9992 0
      vertex 149.848 -46.7365 0
      vertex 149.397 -48.4202 0
    endloop
  endfacet
  facet normal 0 0 -1
    outer loop
      vertex 147.5 42.75 0
      vertex 150 45 0
      vertex 147.5 -42.75 0
    endloop
  endfacet
  facet normal 0 0 -1
    outer loop
      vertex 146.227 -47.5 0
      vertex 149.397 -48.4202 0
      vertex 148.66 -50 0
    endloop
  endfacet
  facet normal 0 0 -1
    outer loop
      vertex 147.356 44.3997 0
      vertex 150 45 0
      vertex 147.5 42.75 0
    endloop
  endfacet
  facet normal 0 0 -1
    outer loop
      vertex 145.277 -48.8565 0
      vertex 148.66 -50 0
      vertex 147.66 -51.4279 0
    endloop
  endfacet
  facet normal 0 0 -1
    outer loop
      vertex 146.927 45.9992 0
      vertex 150 45 0
      vertex 147.356 44.3997 0
    endloop
  endfacet
  facet normal 0 0 -1
    outer loop
      vertex 150 45 0
      vertex 146.927 45.9992 0
      vertex 149.848 46.7365 0
    endloop
  endfacet
  facet normal 0 0 -1
    outer loop
      vertex 150 -45 0
      vertex 147.356 -44.3997 0
      vertex 147.5 -42.75 0
    endloop
  endfacet
  facet normal -0 0 -1
    outer loop
      vertex 150 -45 0
      vertex 146.927 -45.9992 0
      vertex 147.356 -44.3997 0
    endloop
  endfacet
  facet normal 0 0 -1
    outer loop
      vertex 144.106 -50.0274 0
      vertex 147.66 -51.4279 0
      vertex 146.428 -52.6604 0
    endloop
  endfacet
  facet normal 0 0 -1
    outer loop
      vertex 149.397 -48.4202 0
      vertex 146.227 -47.5 0
      vertex 146.927 -45.9992 0
    endloop
  endfacet
  facet normal 0 0 -1
    outer loop
      vertex 148.66 -50 0
      vertex 145.277 -48.8565 0
      vertex 146.227 -47.5 0
    endloop
  endfacet
  facet normal 0 0 -1
    outer loop
      vertex 144.106 -50.0274 0
      vertex 146.428 -52.6604 0
      vertex 145 -53.6603 0
    endloop
  endfacet
  facet normal 0 0 -1
    outer loop
      vertex 147.66 -51.4279 0
      vertex 144.106 -50.0274 0
      vertex 145.277 -48.8565 0
    endloop
  endfacet
  facet normal 0 0 -1
    outer loop
      vertex 142.75 -50.9772 0
      vertex 145 -53.6603 0
      vertex 143.42 -54.3969 0
    endloop
  endfacet
  facet normal 0 0 -1
    outer loop
      vertex 145 -53.6603 0
      vertex 142.75 -50.9772 0
      vertex 144.106 -50.0274 0
    endloop
  endfacet
  facet normal 0 0 -1
    outer loop
      vertex 141.249 -51.6771 0
      vertex 143.42 -54.3969 0
      vertex 141.736 -54.8481 0
    endloop
  endfacet
  facet normal 0 0 -1
    outer loop
      vertex 143.42 -54.3969 0
      vertex 141.249 -51.6771 0
      vertex 142.75 -50.9772 0
    endloop
  endfacet
  facet normal 0 0 -1
    outer loop
      vertex 139.65 -52.1057 0
      vertex 141.736 -54.8481 0
      vertex 140 -55 0
    endloop
  endfacet
  facet normal 0 0 -1
    outer loop
      vertex 141.736 -54.8481 0
      vertex 139.65 -52.1057 0
      vertex 141.249 -51.6771 0
    endloop
  endfacet
  facet normal 0 0 -1
    outer loop
      vertex 140 -55 0
      vertex 138 -52.25 0
      vertex 139.65 -52.1057 0
    endloop
  endfacet
  facet normal 0 0 -1
    outer loop
      vertex 50 -55 0
      vertex 138 -52.25 0
      vertex 140 -55 0
    endloop
  endfacet
  facet normal -0 0 -1
    outer loop
      vertex 138 -52.25 0
      vertex 50 -55 0
      vertex 50 -52.25 0
    endloop
  endfacet
  facet normal -0 0 -1
    outer loop
      vertex 149.848 46.7365 0
      vertex 146.927 45.9992 0
      vertex 149.397 48.4202 0
    endloop
  endfacet
  facet normal 0 0 -1
    outer loop
      vertex 146.227 47.5 0
      vertex 149.397 48.4202 0
      vertex 146.927 45.9992 0
    endloop
  endfacet
  facet normal -0 0 -1
    outer loop
      vertex 149.397 48.4202 0
      vertex 146.227 47.5 0
      vertex 148.66 50 0
    endloop
  endfacet
  facet normal 0 0 -1
    outer loop
      vertex 145.277 48.8565 0
      vertex 148.66 50 0
      vertex 146.227 47.5 0
    endloop
  endfacet
  facet normal -0 0 -1
    outer loop
      vertex 148.66 50 0
      vertex 145.277 48.8565 0
      vertex 147.66 51.4279 0
    endloop
  endfacet
  facet normal 0 0 -1
    outer loop
      vertex 144.106 50.0274 0
      vertex 147.66 51.4279 0
      vertex 145.277 48.8565 0
    endloop
  endfacet
  facet normal -0 0 -1
    outer loop
      vertex 147.66 51.4279 0
      vertex 144.106 50.0274 0
      vertex 146.428 52.6604 0
    endloop
  endfacet
  facet normal -0 0 -1
    outer loop
      vertex 146.428 52.6604 0
      vertex 144.106 50.0274 0
      vertex 145 53.6603 0
    endloop
  endfacet
  facet normal 0 0 -1
    outer loop
      vertex 142.75 50.9772 0
      vertex 145 53.6603 0
      vertex 144.106 50.0274 0
    endloop
  endfacet
  facet normal -0 0 -1
    outer loop
      vertex 145 53.6603 0
      vertex 142.75 50.9772 0
      vertex 143.42 54.3969 0
    endloop
  endfacet
  facet normal 0 0 -1
    outer loop
      vertex 141.249 51.6771 0
      vertex 143.42 54.3969 0
      vertex 142.75 50.9772 0
    endloop
  endfacet
  facet normal -0 0 -1
    outer loop
      vertex 143.42 54.3969 0
      vertex 141.249 51.6771 0
      vertex 141.736 54.8481 0
    endloop
  endfacet
  facet normal 0 0 -1
    outer loop
      vertex 139.65 52.1057 0
      vertex 141.736 54.8481 0
      vertex 141.249 51.6771 0
    endloop
  endfacet
  facet normal -0 0 -1
    outer loop
      vertex 141.736 54.8481 0
      vertex 139.65 52.1057 0
      vertex 140 55 0
    endloop
  endfacet
  facet normal 0 0 -1
    outer loop
      vertex 138 52.25 0
      vertex 140 55 0
      vertex 139.65 52.1057 0
    endloop
  endfacet
  facet normal 0 0 -1
    outer loop
      vertex 50 55 0
      vertex 138 52.25 0
      vertex 50 52.25 0
    endloop
  endfacet
  facet normal 0 0 -1
    outer loop
      vertex 138 52.25 0
      vertex 50 55 0
      vertex 140 55 0
    endloop
  endfacet
  facet normal -0.996212 0.0869579 0
    outer loop
      vertex 147.356 -44.3997 0
      vertex 147.5 -42.75 36
      vertex 147.5 -42.75 0
    endloop
  endfacet
  facet normal -0.996212 0.0869579 0
    outer loop
      vertex 147.5 -42.75 36
      vertex 147.356 -44.3997 0
      vertex 147.356 -44.3997 37.7365
    endloop
  endfacet
  facet normal -0.965863 0.259053 0
    outer loop
      vertex 146.927 -45.9992 0
      vertex 147.356 -44.3997 37.7365
      vertex 147.356 -44.3997 0
    endloop
  endfacet
  facet normal -0.965863 0.259053 0
    outer loop
      vertex 147.356 -44.3997 37.7365
      vertex 146.927 -45.9992 0
      vertex 146.927 -45.9992 39.4202
    endloop
  endfacet
  facet normal -0.258903 0.965903 0
    outer loop
      vertex 139.65 -52.1057 0
      vertex 141.249 -51.6771 45.3969
      vertex 141.249 -51.6771 0
    endloop
  endfacet
  facet normal -0.258903 0.965903 0
    outer loop
      vertex 141.249 -51.6771 45.3969
      vertex 139.65 -52.1057 0
      vertex 139.65 -52.1057 45.8481
    endloop
  endfacet
  facet normal -0.422604 0.906314 0
    outer loop
      vertex 141.249 -51.6771 0
      vertex 142.75 -50.9772 44.6603
      vertex 142.75 -50.9772 0
    endloop
  endfacet
  facet normal -0.422604 0.906314 0
    outer loop
      vertex 142.75 -50.9772 44.6603
      vertex 141.249 -51.6771 0
      vertex 141.249 -51.6771 45.3969
    endloop
  endfacet
  facet normal 0 -1 0
    outer loop
      vertex 50 52.25 0
      vertex 138 52.25 46
      vertex 50 52.25 46
    endloop
  endfacet
  facet normal 0 -1 -0
    outer loop
      vertex 138 52.25 46
      vertex 50 52.25 0
      vertex 138 52.25 0
    endloop
  endfacet
  facet normal -0.573706 -0.819062 0
    outer loop
      vertex 142.75 50.9772 0
      vertex 144.106 50.0274 43.6604
      vertex 142.75 50.9772 44.6603
    endloop
  endfacet
  facet normal -0.573706 -0.819062 -0
    outer loop
      vertex 144.106 50.0274 43.6604
      vertex 142.75 50.9772 0
      vertex 144.106 50.0274 0
    endloop
  endfacet
  facet normal -1 0 0
    outer loop
      vertex 147.5 -42.75 0
      vertex 147.5 42.75 36
      vertex 147.5 42.75 0
    endloop
  endfacet
  facet normal -1 -0 0
    outer loop
      vertex 147.5 42.75 36
      vertex 147.5 -42.75 0
      vertex 147.5 -42.75 36
    endloop
  endfacet
  facet normal -0.819104 -0.573645 -0
    outer loop
      vertex 146.227 47.5 41
      vertex 145.277 48.8565 0
      vertex 146.227 47.5 0
    endloop
  endfacet
  facet normal -0.819104 -0.573645 0
    outer loop
      vertex 145.277 48.8565 0
      vertex 146.227 47.5 41
      vertex 145.277 48.8565 42.4279
    endloop
  endfacet
  facet normal 0 1 -0
    outer loop
      vertex 138 -52.25 0
      vertex 50 -52.25 46
      vertex 138 -52.25 46
    endloop
  endfacet
  facet normal 0 1 0
    outer loop
      vertex 50 -52.25 46
      vertex 138 -52.25 0
      vertex 50 -52.25 0
    endloop
  endfacet
  facet normal -0.707077 0.707137 0
    outer loop
      vertex 144.106 -50.0274 0
      vertex 145.277 -48.8565 42.4279
      vertex 145.277 -48.8565 0
    endloop
  endfacet
  facet normal -0.707077 0.707137 0
    outer loop
      vertex 145.277 -48.8565 42.4279
      vertex 144.106 -50.0274 0
      vertex 144.106 -50.0274 43.6604
    endloop
  endfacet
  facet normal -0.996212 -0.0869579 -0
    outer loop
      vertex 147.5 42.75 36
      vertex 147.356 44.3997 0
      vertex 147.5 42.75 0
    endloop
  endfacet
  facet normal -0.996212 -0.0869579 0
    outer loop
      vertex 147.356 44.3997 0
      vertex 147.5 42.75 36
      vertex 147.356 44.3997 37.7365
    endloop
  endfacet
  facet normal -0.90627 0.4227 0
    outer loop
      vertex 146.227 -47.5 0
      vertex 146.927 -45.9992 39.4202
      vertex 146.927 -45.9992 0
    endloop
  endfacet
  facet normal -0.90627 0.4227 0
    outer loop
      vertex 146.927 -45.9992 39.4202
      vertex 146.227 -47.5 0
      vertex 146.227 -47.5 41
    endloop
  endfacet
  facet normal -0.087122 0.996198 0
    outer loop
      vertex 138 -52.25 0
      vertex 139.65 -52.1057 45.8481
      vertex 139.65 -52.1057 0
    endloop
  endfacet
  facet normal -0.087122 0.996198 0
    outer loop
      vertex 139.65 -52.1057 45.8481
      vertex 138 -52.25 0
      vertex 138 -52.25 46
    endloop
  endfacet
  facet normal -0.819104 0.573645 0
    outer loop
      vertex 145.277 -48.8565 0
      vertex 146.227 -47.5 41
      vertex 146.227 -47.5 0
    endloop
  endfacet
  facet normal -0.819104 0.573645 0
    outer loop
      vertex 146.227 -47.5 41
      vertex 145.277 -48.8565 0
      vertex 145.277 -48.8565 42.4279
    endloop
  endfacet
  facet normal -0.965863 -0.259053 -0
    outer loop
      vertex 147.356 44.3997 37.7365
      vertex 146.927 45.9992 0
      vertex 147.356 44.3997 0
    endloop
  endfacet
  facet normal -0.965863 -0.259053 0
    outer loop
      vertex 146.927 45.9992 0
      vertex 147.356 44.3997 37.7365
      vertex 146.927 45.9992 39.4202
    endloop
  endfacet
  facet normal -0.422604 -0.906314 0
    outer loop
      vertex 141.249 51.6771 0
      vertex 142.75 50.9772 44.6603
      vertex 141.249 51.6771 45.3969
    endloop
  endfacet
  facet normal -0.422604 -0.906314 -0
    outer loop
      vertex 142.75 50.9772 44.6603
      vertex 141.249 51.6771 0
      vertex 142.75 50.9772 0
    endloop
  endfacet
  facet normal -0.707077 -0.707137 0
    outer loop
      vertex 144.106 50.0274 0
      vertex 145.277 48.8565 42.4279
      vertex 144.106 50.0274 43.6604
    endloop
  endfacet
  facet normal -0.707077 -0.707137 -0
    outer loop
      vertex 145.277 48.8565 42.4279
      vertex 144.106 50.0274 0
      vertex 145.277 48.8565 0
    endloop
  endfacet
  facet normal -0.258903 -0.965903 0
    outer loop
      vertex 139.65 52.1057 0
      vertex 141.249 51.6771 45.3969
      vertex 139.65 52.1057 45.8481
    endloop
  endfacet
  facet normal -0.258903 -0.965903 -0
    outer loop
      vertex 141.249 51.6771 45.3969
      vertex 139.65 52.1057 0
      vertex 141.249 51.6771 0
    endloop
  endfacet
  facet normal -0.087122 -0.996198 0
    outer loop
      vertex 138 52.25 0
      vertex 139.65 52.1057 45.8481
      vertex 138 52.25 46
    endloop
  endfacet
  facet normal -0.087122 -0.996198 -0
    outer loop
      vertex 139.65 52.1057 45.8481
      vertex 138 52.25 0
      vertex 139.65 52.1057 0
    endloop
  endfacet
  facet normal -0.573706 0.819062 0
    outer loop
      vertex 142.75 -50.9772 0
      vertex 144.106 -50.0274 43.6604
      vertex 144.106 -50.0274 0
    endloop
  endfacet
  facet normal -0.573706 0.819062 0
    outer loop
      vertex 144.106 -50.0274 43.6604
      vertex 142.75 -50.9772 0
      vertex 142.75 -50.9772 44.6603
    endloop
  endfacet
  facet normal -0.90627 -0.4227 -0
    outer loop
      vertex 146.927 45.9992 39.4202
      vertex 146.227 47.5 0
      vertex 146.927 45.9992 0
    endloop
  endfacet
  facet normal -0.90627 -0.4227 0
    outer loop
      vertex 146.227 47.5 0
      vertex 146.927 45.9992 39.4202
      vertex 146.227 47.5 41
    endloop
  endfacet
  facet normal 0 0 -1
    outer loop
      vertex 50 -52.25 46
      vertex 138 52.25 46
      vertex 138 -52.25 46
    endloop
  endfacet
  facet normal -0 0 -1
    outer loop
      vertex 138 52.25 46
      vertex 50 -52.25 46
      vertex 50 52.25 46
    endloop
  endfacet
  facet normal -0.83257 0 -0.55392
    outer loop
      vertex 146.227 -47.5 41
      vertex 145.277 48.8565 42.4279
      vertex 146.227 47.5 41
    endloop
  endfacet
  facet normal -0.83257 -0 -0.55392
    outer loop
      vertex 145.277 48.8565 42.4279
      vertex 146.227 -47.5 41
      vertex 145.277 -48.8565 42.4279
    endloop
  endfacet
  facet normal -0.091673 0 -0.995789
    outer loop
      vertex 138 -52.25 46
      vertex 139.65 52.1057 45.8481
      vertex 139.65 -52.1057 45.8481
    endloop
  endfacet
  facet normal -0.091673 0 -0.995789
    outer loop
      vertex 139.65 52.1057 45.8481
      vertex 138 -52.25 46
      vertex 138 52.25 46
    endloop
  endfacet
  facet normal -0.996579 0 -0.0826418
    outer loop
      vertex 147.5 -42.75 36
      vertex 147.356 44.3997 37.7365
      vertex 147.5 42.75 36
    endloop
  endfacet
  facet normal -0.996579 -0 -0.0826418
    outer loop
      vertex 147.356 44.3997 37.7365
      vertex 147.5 -42.75 36
      vertex 147.356 -44.3997 37.7365
    endloop
  endfacet
  facet normal -0.969039 0 -0.246907
    outer loop
      vertex 147.356 -44.3997 37.7365
      vertex 146.927 45.9992 39.4202
      vertex 147.356 44.3997 37.7365
    endloop
  endfacet
  facet normal -0.969039 -0 -0.246907
    outer loop
      vertex 146.927 45.9992 39.4202
      vertex 147.356 -44.3997 37.7365
      vertex 146.927 -45.9992 39.4202
    endloop
  endfacet
  facet normal -0.914269 0 -0.405107
    outer loop
      vertex 146.927 -45.9992 39.4202
      vertex 146.227 47.5 41
      vertex 146.927 45.9992 39.4202
    endloop
  endfacet
  facet normal -0.914269 -0 -0.405107
    outer loop
      vertex 146.227 47.5 41
      vertex 146.927 -45.9992 39.4202
      vertex 146.227 -47.5 41
    endloop
  endfacet
  facet normal -0.593484 0 -0.804845
    outer loop
      vertex 142.75 -50.9772 44.6603
      vertex 144.106 50.0274 43.6604
      vertex 144.106 -50.0274 43.6604
    endloop
  endfacet
  facet normal -0.593484 0 -0.804845
    outer loop
      vertex 144.106 50.0274 43.6604
      vertex 142.75 -50.9772 44.6603
      vertex 142.75 50.9772 44.6603
    endloop
  endfacet
  facet normal -0.724963 0 -0.688788
    outer loop
      vertex 145.277 -48.8565 42.4279
      vertex 144.106 50.0274 43.6604
      vertex 145.277 48.8565 42.4279
    endloop
  endfacet
  facet normal -0.724963 -0 -0.688788
    outer loop
      vertex 144.106 50.0274 43.6604
      vertex 145.277 -48.8565 42.4279
      vertex 144.106 -50.0274 43.6604
    endloop
  endfacet
  facet normal -0.271572 0 -0.962418
    outer loop
      vertex 139.65 -52.1057 45.8481
      vertex 141.249 51.6771 45.3969
      vertex 141.249 -51.6771 45.3969
    endloop
  endfacet
  facet normal -0.271572 0 -0.962418
    outer loop
      vertex 141.249 51.6771 45.3969
      vertex 139.65 -52.1057 45.8481
      vertex 139.65 52.1057 45.8481
    endloop
  endfacet
  facet normal -0.440551 0 -0.897728
    outer loop
      vertex 141.249 -51.6771 45.3969
      vertex 142.75 50.9772 44.6603
      vertex 142.75 -50.9772 44.6603
    endloop
  endfacet
  facet normal -0.440551 0 -0.897728
    outer loop
      vertex 142.75 50.9772 44.6603
      vertex 141.249 -51.6771 45.3969
      vertex 141.249 51.6771 45.3969
    endloop
  endfacet
endsolid OpenSCAD_Model
