solid OpenSCAD_Model
  facet normal 1 -0 0
    outer loop
      vertex 150 -95 15
      vertex 150 95 -56.25
      vertex 150 95 15
    endloop
  endfacet
  facet normal 1 0 0
    outer loop
      vertex 150 95 -56.25
      vertex 150 -95 15
      vertex 150 -95 -56.25
    endloop
  endfacet
  facet normal 1 -0 0
    outer loop
      vertex 150 -95 75
      vertex 150 95 65
      vertex 150 95 75
    endloop
  endfacet
  facet normal 1 0 0
    outer loop
      vertex 150 95 65
      vertex 150 -95 75
      vertex 150 -95 65
    endloop
  endfacet
  facet normal -0 0 1
    outer loop
      vertex -150 95 131.25
      vertex -8.87688 -95 131.25
      vertex -8.87688 95 131.25
    endloop
  endfacet
  facet normal 0 0 1
    outer loop
      vertex -8.87688 -95 131.25
      vertex -150 95 131.25
      vertex -150 -95 131.25
    endloop
  endfacet
  facet normal 0 0 -1
    outer loop
      vertex -150 -95 -56.25
      vertex 150 95 -56.25
      vertex 150 -95 -56.25
    endloop
  endfacet
  facet normal -0 0 -1
    outer loop
      vertex 150 95 -56.25
      vertex -150 -95 -56.25
      vertex -150 95 -56.25
    endloop
  endfacet
  facet normal -1 0 0
    outer loop
      vertex -150 -95 -56.25
      vertex -150 95 131.25
      vertex -150 95 -56.25
    endloop
  endfacet
  facet normal -1 -0 0
    outer loop
      vertex -150 95 131.25
      vertex -150 -95 -56.25
      vertex -150 -95 131.25
    endloop
  endfacet
  facet normal 0 1 0
    outer loop
      vertex 143.488 95 64.6202
      vertex 150 95 75
      vertex 150 95 65
    endloop
  endfacet
  facet normal 0 1 0
    outer loop
      vertex -0.755555 95 119.652
      vertex -150 95 131.25
      vertex -8.87688 95 131.25
    endloop
  endfacet
  facet normal 0 1 0
    outer loop
      vertex -150 95 -56.25
      vertex -0.755555 95 119.652
      vertex 14.6515 95 104.244
    endloop
  endfacet
  facet normal 0 1 0
    outer loop
      vertex -150 95 -56.25
      vertex 14.6515 95 104.244
      vertex 32.5 95 91.7468
    endloop
  endfacet
  facet normal 0 1 0
    outer loop
      vertex -150 95 -56.25
      vertex 32.5 95 91.7468
      vertex 52.2475 95 82.5384
    endloop
  endfacet
  facet normal 0 1 0
    outer loop
      vertex 113.07 95 35.6588
      vertex 52.2475 95 82.5384
      vertex 73.294 95 76.899
    endloop
  endfacet
  facet normal 0 1 0
    outer loop
      vertex 137.174 95 63.4923
      vertex 150 95 75
      vertex 143.488 95 64.6202
    endloop
  endfacet
  facet normal 0 1 0
    outer loop
      vertex 131.25 95 61.6506
      vertex 150 95 75
      vertex 137.174 95 63.4923
    endloop
  endfacet
  facet normal 0 1 0
    outer loop
      vertex 150 95 75
      vertex 131.25 95 61.6506
      vertex 95 95 75
    endloop
  endfacet
  facet normal 0 1 -0
    outer loop
      vertex 125.895 95 59.1511
      vertex 95 95 75
      vertex 131.25 95 61.6506
    endloop
  endfacet
  facet normal 0 1 -0
    outer loop
      vertex 121.273 95 56.0697
      vertex 95 95 75
      vertex 125.895 95 59.1511
    endloop
  endfacet
  facet normal 0 1 -0
    outer loop
      vertex 117.524 95 52.5
      vertex 95 95 75
      vertex 121.273 95 56.0697
    endloop
  endfacet
  facet normal 0 1 -0
    outer loop
      vertex 114.762 95 48.5505
      vertex 95 95 75
      vertex 117.524 95 52.5
    endloop
  endfacet
  facet normal 0 1 -0
    outer loop
      vertex 113.07 95 44.3412
      vertex 95 95 75
      vertex 114.762 95 48.5505
    endloop
  endfacet
  facet normal 0 1 0
    outer loop
      vertex 95 95 75
      vertex 113.07 95 44.3412
      vertex 73.294 95 76.899
    endloop
  endfacet
  facet normal 0 1 -0
    outer loop
      vertex 112.5 95 40
      vertex 73.294 95 76.899
      vertex 113.07 95 44.3412
    endloop
  endfacet
  facet normal 0 1 0
    outer loop
      vertex 113.07 95 35.6588
      vertex 73.294 95 76.899
      vertex 112.5 95 40
    endloop
  endfacet
  facet normal 0 1 0
    outer loop
      vertex 52.2475 95 82.5384
      vertex 113.07 95 35.6588
      vertex 114.762 95 31.4495
    endloop
  endfacet
  facet normal 0 1 0
    outer loop
      vertex 52.2475 95 82.5384
      vertex 114.762 95 31.4495
      vertex -150 95 -56.25
    endloop
  endfacet
  facet normal 0 1 0
    outer loop
      vertex -150 95 -56.25
      vertex 114.762 95 31.4495
      vertex 117.524 95 27.5
    endloop
  endfacet
  facet normal 0 1 0
    outer loop
      vertex 150 95 -56.25
      vertex 117.524 95 27.5
      vertex 121.273 95 23.9303
    endloop
  endfacet
  facet normal 0 1 0
    outer loop
      vertex 150 95 -56.25
      vertex 121.273 95 23.9303
      vertex 125.895 95 20.8489
    endloop
  endfacet
  facet normal 0 1 0
    outer loop
      vertex 150 95 -56.25
      vertex 125.895 95 20.8489
      vertex 131.25 95 18.3494
    endloop
  endfacet
  facet normal 0 1 -0
    outer loop
      vertex 150 95 -56.25
      vertex 143.488 95 15.3798
      vertex 150 95 15
    endloop
  endfacet
  facet normal 0 1 0
    outer loop
      vertex 150 95 -56.25
      vertex 137.174 95 16.5077
      vertex 143.488 95 15.3798
    endloop
  endfacet
  facet normal 0 1 0
    outer loop
      vertex 150 95 -56.25
      vertex 131.25 95 18.3494
      vertex 137.174 95 16.5077
    endloop
  endfacet
  facet normal 0 1 0
    outer loop
      vertex 117.524 95 27.5
      vertex 150 95 -56.25
      vertex -150 95 -56.25
    endloop
  endfacet
  facet normal 0 1 0
    outer loop
      vertex -0.755555 95 119.652
      vertex -150 95 -56.25
      vertex -150 95 131.25
    endloop
  endfacet
  facet normal 0 -1 0
    outer loop
      vertex -150 -95 131.25
      vertex -0.755555 -95 119.652
      vertex -8.87688 -95 131.25
    endloop
  endfacet
  facet normal 0 -1 0
    outer loop
      vertex -150 -95 -56.25
      vertex -0.755555 -95 119.652
      vertex -150 -95 131.25
    endloop
  endfacet
  facet normal 0 -1 -0
    outer loop
      vertex -0.755555 -95 119.652
      vertex -150 -95 -56.25
      vertex 14.6515 -95 104.244
    endloop
  endfacet
  facet normal 0 -1 -0
    outer loop
      vertex 14.6515 -95 104.244
      vertex -150 -95 -56.25
      vertex 32.5 -95 91.7468
    endloop
  endfacet
  facet normal 0 -1 -0
    outer loop
      vertex 32.5 -95 91.7468
      vertex -150 -95 -56.25
      vertex 52.2475 -95 82.5384
    endloop
  endfacet
  facet normal 0 -1 0
    outer loop
      vertex 131.25 -95 61.6506
      vertex 150 -95 75
      vertex 95 -95 75
    endloop
  endfacet
  facet normal 0 -1 0
    outer loop
      vertex 113.07 -95 44.3412
      vertex 95 -95 75
      vertex 73.294 -95 76.899
    endloop
  endfacet
  facet normal 0 -1 -0
    outer loop
      vertex 150 -95 75
      vertex 143.488 -95 64.6202
      vertex 150 -95 65
    endloop
  endfacet
  facet normal 0 -1 0
    outer loop
      vertex 150 -95 75
      vertex 137.174 -95 63.4923
      vertex 143.488 -95 64.6202
    endloop
  endfacet
  facet normal 0 -1 0
    outer loop
      vertex 150 -95 75
      vertex 131.25 -95 61.6506
      vertex 137.174 -95 63.4923
    endloop
  endfacet
  facet normal -0 -1 0
    outer loop
      vertex 114.762 -95 31.4495
      vertex 52.2475 -95 82.5384
      vertex -150 -95 -56.25
    endloop
  endfacet
  facet normal 0 -1 0
    outer loop
      vertex 95 -95 75
      vertex 125.895 -95 59.1511
      vertex 131.25 -95 61.6506
    endloop
  endfacet
  facet normal 0 -1 0
    outer loop
      vertex 95 -95 75
      vertex 121.273 -95 56.0697
      vertex 125.895 -95 59.1511
    endloop
  endfacet
  facet normal 0 -1 0
    outer loop
      vertex 95 -95 75
      vertex 117.524 -95 52.5
      vertex 121.273 -95 56.0697
    endloop
  endfacet
  facet normal 0 -1 0
    outer loop
      vertex 95 -95 75
      vertex 114.762 -95 48.5505
      vertex 117.524 -95 52.5
    endloop
  endfacet
  facet normal 0 -1 0
    outer loop
      vertex 95 -95 75
      vertex 113.07 -95 44.3412
      vertex 114.762 -95 48.5505
    endloop
  endfacet
  facet normal 0 -1 0
    outer loop
      vertex 73.294 -95 76.899
      vertex 112.5 -95 40
      vertex 113.07 -95 44.3412
    endloop
  endfacet
  facet normal -0 -1 -0
    outer loop
      vertex 113.07 -95 35.6588
      vertex 52.2475 -95 82.5384
      vertex 114.762 -95 31.4495
    endloop
  endfacet
  facet normal 0 -1 0
    outer loop
      vertex 73.294 -95 76.899
      vertex 113.07 -95 35.6588
      vertex 112.5 -95 40
    endloop
  endfacet
  facet normal 0 -1 0
    outer loop
      vertex 52.2475 -95 82.5384
      vertex 113.07 -95 35.6588
      vertex 73.294 -95 76.899
    endloop
  endfacet
  facet normal 0 -1 -0
    outer loop
      vertex 114.762 -95 31.4495
      vertex -150 -95 -56.25
      vertex 117.524 -95 27.5
    endloop
  endfacet
  facet normal 0 -1 0
    outer loop
      vertex 150 -95 -56.25
      vertex 117.524 -95 27.5
      vertex -150 -95 -56.25
    endloop
  endfacet
  facet normal 0 -1 0
    outer loop
      vertex 117.524 -95 27.5
      vertex 150 -95 -56.25
      vertex 121.273 -95 23.9303
    endloop
  endfacet
  facet normal 0 -1 0
    outer loop
      vertex 121.273 -95 23.9303
      vertex 150 -95 -56.25
      vertex 125.895 -95 20.8489
    endloop
  endfacet
  facet normal 0 -1 0
    outer loop
      vertex 125.895 -95 20.8489
      vertex 150 -95 -56.25
      vertex 131.25 -95 18.3494
    endloop
  endfacet
  facet normal 0 -1 0
    outer loop
      vertex 131.25 -95 18.3494
      vertex 150 -95 -56.25
      vertex 137.174 -95 16.5077
    endloop
  endfacet
  facet normal 0 -1 0
    outer loop
      vertex 137.174 -95 16.5077
      vertex 150 -95 -56.25
      vertex 143.488 -95 15.3798
    endloop
  endfacet
  facet normal 0 -1 0
    outer loop
      vertex 143.488 -95 15.3798
      vertex 150 -95 -56.25
      vertex 150 -95 15
    endloop
  endfacet
  facet normal 0.819141 -0 0.573592
    outer loop
      vertex -8.87688 -95 131.25
      vertex -0.755555 95 119.652
      vertex -8.87688 95 131.25
    endloop
  endfacet
  facet normal 0.819141 0 0.573592
    outer loop
      vertex -0.755555 95 119.652
      vertex -8.87688 -95 131.25
      vertex -0.755555 -95 119.652
    endloop
  endfacet
  facet normal -0 0 1
    outer loop
      vertex 95 95 75
      vertex 150 -95 75
      vertex 150 95 75
    endloop
  endfacet
  facet normal 0 0 1
    outer loop
      vertex 150 -95 75
      vertex 95 95 75
      vertex 95 -95 75
    endloop
  endfacet
  facet normal 0.707128 -0 0.707085
    outer loop
      vertex -0.755555 -95 119.652
      vertex 14.6515 95 104.244
      vertex -0.755555 95 119.652
    endloop
  endfacet
  facet normal 0.707128 0 0.707085
    outer loop
      vertex 14.6515 95 104.244
      vertex -0.755555 -95 119.652
      vertex 14.6515 -95 104.244
    endloop
  endfacet
  facet normal 0.258819 0 0.965926
    outer loop
      vertex 52.2475 95 82.5384
      vertex 73.294 -95 76.899
      vertex 73.294 95 76.899
    endloop
  endfacet
  facet normal 0.258819 0 0.965926
    outer loop
      vertex 73.294 -95 76.899
      vertex 52.2475 95 82.5384
      vertex 52.2475 -95 82.5384
    endloop
  endfacet
  facet normal 0.422618 0 0.906308
    outer loop
      vertex 32.5 95 91.7468
      vertex 52.2475 -95 82.5384
      vertex 52.2475 95 82.5384
    endloop
  endfacet
  facet normal 0.422618 0 0.906308
    outer loop
      vertex 52.2475 -95 82.5384
      vertex 32.5 95 91.7468
      vertex 32.5 -95 91.7468
    endloop
  endfacet
  facet normal 0.0871544 0 0.996195
    outer loop
      vertex 73.294 95 76.899
      vertex 95 -95 75
      vertex 95 95 75
    endloop
  endfacet
  facet normal 0.0871544 0 0.996195
    outer loop
      vertex 95 -95 75
      vertex 73.294 95 76.899
      vertex 73.294 -95 76.899
    endloop
  endfacet
  facet normal 0.573562 0 0.819162
    outer loop
      vertex 14.6515 95 104.244
      vertex 32.5 -95 91.7468
      vertex 32.5 95 91.7468
    endloop
  endfacet
  facet normal 0.573562 0 0.819162
    outer loop
      vertex 32.5 -95 91.7468
      vertex 14.6515 95 104.244
      vertex 14.6515 -95 104.244
    endloop
  endfacet
  facet normal 0.296872 0 -0.954917
    outer loop
      vertex 131.25 -95 61.6506
      vertex 137.174 95 63.4923
      vertex 137.174 -95 63.4923
    endloop
  endfacet
  facet normal 0.296872 0 -0.954917
    outer loop
      vertex 137.174 95 63.4923
      vertex 131.25 -95 61.6506
      vertex 131.25 95 61.6506
    endloop
  endfacet
  facet normal 0.422955 0 0.906151
    outer loop
      vertex 125.895 95 20.8489
      vertex 131.25 -95 18.3494
      vertex 131.25 95 18.3494
    endloop
  endfacet
  facet normal 0.422955 0 0.906151
    outer loop
      vertex 131.25 -95 18.3494
      vertex 125.895 95 20.8489
      vertex 125.895 -95 20.8489
    endloop
  endfacet
  facet normal 0.689577 0 0.724213
    outer loop
      vertex 117.524 95 27.5
      vertex 121.273 -95 23.9303
      vertex 121.273 95 23.9303
    endloop
  endfacet
  facet normal 0.689577 0 0.724213
    outer loop
      vertex 121.273 -95 23.9303
      vertex 117.524 95 27.5
      vertex 117.524 -95 27.5
    endloop
  endfacet
  facet normal 0.296872 0 0.954917
    outer loop
      vertex 131.25 95 18.3494
      vertex 137.174 -95 16.5077
      vertex 137.174 95 16.5077
    endloop
  endfacet
  facet normal 0.296872 0 0.954917
    outer loop
      vertex 137.174 -95 16.5077
      vertex 131.25 95 18.3494
      vertex 131.25 -95 18.3494
    endloop
  endfacet
  facet normal 0.0582242 0 -0.998304
    outer loop
      vertex 143.488 -95 64.6202
      vertex 150 95 65
      vertex 150 -95 65
    endloop
  endfacet
  facet normal 0.0582242 0 -0.998304
    outer loop
      vertex 150 95 65
      vertex 143.488 -95 64.6202
      vertex 143.488 95 64.6202
    endloop
  endfacet
  facet normal 0.99149 0 -0.130183
    outer loop
      vertex 113.07 -95 44.3412
      vertex 112.5 95 40
      vertex 113.07 95 44.3412
    endloop
  endfacet
  facet normal 0.99149 0 -0.130183
    outer loop
      vertex 112.5 95 40
      vertex 113.07 -95 44.3412
      vertex 112.5 -95 40
    endloop
  endfacet
  facet normal 0.175851 0 0.984417
    outer loop
      vertex 137.174 95 16.5077
      vertex 143.488 -95 15.3798
      vertex 143.488 95 15.3798
    endloop
  endfacet
  facet normal 0.175851 0 0.984417
    outer loop
      vertex 143.488 -95 15.3798
      vertex 137.174 95 16.5077
      vertex 137.174 -95 16.5077
    endloop
  endfacet
  facet normal 0.175851 0 -0.984417
    outer loop
      vertex 137.174 -95 63.4923
      vertex 143.488 95 64.6202
      vertex 143.488 -95 64.6202
    endloop
  endfacet
  facet normal 0.175851 0 -0.984417
    outer loop
      vertex 143.488 95 64.6202
      vertex 137.174 -95 63.4923
      vertex 137.174 95 63.4923
    endloop
  endfacet
  facet normal 0.422955 0 -0.906151
    outer loop
      vertex 125.895 -95 59.1511
      vertex 131.25 95 61.6506
      vertex 131.25 -95 61.6506
    endloop
  endfacet
  facet normal 0.422955 0 -0.906151
    outer loop
      vertex 131.25 95 61.6506
      vertex 125.895 -95 59.1511
      vertex 125.895 95 59.1511
    endloop
  endfacet
  facet normal 0.0582242 0 0.998304
    outer loop
      vertex 143.488 95 15.3798
      vertex 150 -95 15
      vertex 150 95 15
    endloop
  endfacet
  facet normal 0.0582242 0 0.998304
    outer loop
      vertex 150 -95 15
      vertex 143.488 95 15.3798
      vertex 143.488 -95 15.3798
    endloop
  endfacet
  facet normal 0.81949 -0 0.573093
    outer loop
      vertex 114.762 -95 31.4495
      vertex 117.524 95 27.5
      vertex 114.762 95 31.4495
    endloop
  endfacet
  facet normal 0.81949 0 0.573093
    outer loop
      vertex 117.524 95 27.5
      vertex 114.762 -95 31.4495
      vertex 117.524 -95 27.5
    endloop
  endfacet
  facet normal 0.689577 0 -0.724213
    outer loop
      vertex 117.524 -95 52.5
      vertex 121.273 95 56.0697
      vertex 121.273 -95 56.0697
    endloop
  endfacet
  facet normal 0.689577 0 -0.724213
    outer loop
      vertex 121.273 95 56.0697
      vertex 117.524 -95 52.5
      vertex 117.524 95 52.5
    endloop
  endfacet
  facet normal 0.554709 0 -0.832045
    outer loop
      vertex 121.273 -95 56.0697
      vertex 125.895 95 59.1511
      vertex 125.895 -95 59.1511
    endloop
  endfacet
  facet normal 0.554709 0 -0.832045
    outer loop
      vertex 125.895 95 59.1511
      vertex 121.273 -95 56.0697
      vertex 121.273 95 56.0697
    endloop
  endfacet
  facet normal 0.927846 -0 0.372964
    outer loop
      vertex 113.07 -95 35.6588
      vertex 114.762 95 31.4495
      vertex 113.07 95 35.6588
    endloop
  endfacet
  facet normal 0.927846 0 0.372964
    outer loop
      vertex 114.762 95 31.4495
      vertex 113.07 -95 35.6588
      vertex 114.762 -95 31.4495
    endloop
  endfacet
  facet normal 0.554709 0 0.832045
    outer loop
      vertex 121.273 95 23.9303
      vertex 125.895 -95 20.8489
      vertex 125.895 95 20.8489
    endloop
  endfacet
  facet normal 0.554709 0 0.832045
    outer loop
      vertex 125.895 -95 20.8489
      vertex 121.273 95 23.9303
      vertex 121.273 -95 23.9303
    endloop
  endfacet
  facet normal 0.81949 0 -0.573093
    outer loop
      vertex 117.524 -95 52.5
      vertex 114.762 95 48.5505
      vertex 117.524 95 52.5
    endloop
  endfacet
  facet normal 0.81949 0 -0.573093
    outer loop
      vertex 114.762 95 48.5505
      vertex 117.524 -95 52.5
      vertex 114.762 -95 48.5505
    endloop
  endfacet
  facet normal 0.927846 0 -0.372964
    outer loop
      vertex 114.762 -95 48.5505
      vertex 113.07 95 44.3412
      vertex 114.762 95 48.5505
    endloop
  endfacet
  facet normal 0.927846 0 -0.372964
    outer loop
      vertex 113.07 95 44.3412
      vertex 114.762 -95 48.5505
      vertex 113.07 -95 44.3412
    endloop
  endfacet
  facet normal 0.99149 -0 0.130183
    outer loop
      vertex 112.5 -95 40
      vertex 113.07 95 35.6588
      vertex 112.5 95 40
    endloop
  endfacet
  facet normal 0.99149 0 0.130183
    outer loop
      vertex 113.07 95 35.6588
      vertex 112.5 -95 40
      vertex 113.07 -95 35.6588
    endloop
  endfacet
endsolid OpenSCAD_Model
