solid OpenSCAD_Model
  facet normal -0.707144 0 0.70707
    outer loop
      vertex 21.8303 88.25 738.032
      vertex 23.7501 -88.25 739.952
      vertex 23.7501 88.25 739.952
    endloop
  endfacet
  facet normal -0.707144 0 0.70707
    outer loop
      vertex 23.7501 -88.25 739.952
      vertex 21.8303 88.25 738.032
      vertex 21.8303 -88.25 738.032
    endloop
  endfacet
  facet normal -0.358387 0 0.933573
    outer loop
      vertex 48.6444 88.25 756.118
      vertex 51.179 -88.25 757.091
      vertex 51.179 88.25 757.091
    endloop
  endfacet
  facet normal -0.358387 0 0.933573
    outer loop
      vertex 51.179 -88.25 757.091
      vertex 48.6444 88.25 756.118
      vertex 48.6444 -88.25 756.118
    endloop
  endfacet
  facet normal -0.454124 0 0.890938
    outer loop
      vertex 41.2656 88.25 752.677
      vertex 43.6846 -88.25 753.91
      vertex 43.6846 88.25 753.91
    endloop
  endfacet
  facet normal -0.454124 0 0.890938
    outer loop
      vertex 43.6846 -88.25 753.91
      vertex 41.2656 88.25 752.677
      vertex 41.2656 -88.25 752.677
    endloop
  endfacet
  facet normal -0.777154 0 0.629311
    outer loop
      vertex 16.4889 -88.25 731.887
      vertex 18.1975 88.25 733.997
      vertex 16.4889 88.25 731.887
    endloop
  endfacet
  facet normal -0.777154 0 0.629311
    outer loop
      vertex 18.1975 88.25 733.997
      vertex 16.4889 -88.25 731.887
      vertex 18.1975 -88.25 733.997
    endloop
  endfacet
  facet normal -0.325605 0 0.945506
    outer loop
      vertex 51.179 88.25 757.091
      vertex 53.746 -88.25 757.975
      vertex 53.746 88.25 757.975
    endloop
  endfacet
  facet normal -0.325605 0 0.945506
    outer loop
      vertex 53.746 -88.25 757.975
      vertex 51.179 88.25 757.091
      vertex 51.179 -88.25 757.091
    endloop
  endfacet
  facet normal -0.514951 0 0.85722
    outer loop
      vertex 36.5638 88.25 749.963
      vertex 38.891 -88.25 751.361
      vertex 38.891 88.25 751.361
    endloop
  endfacet
  facet normal -0.514951 0 0.85722
    outer loop
      vertex 38.891 -88.25 751.361
      vertex 36.5638 88.25 749.963
      vertex 36.5638 -88.25 749.963
    endloop
  endfacet
  facet normal -0.933597 0 0.358325
    outer loop
      vertex 4.69083 -88.25 710.603
      vertex 5.66379 88.25 713.138
      vertex 4.69083 88.25 710.603
    endloop
  endfacet
  facet normal -0.933597 0 0.358325
    outer loop
      vertex 5.66379 88.25 713.138
      vertex 4.69083 -88.25 710.603
      vertex 5.66379 -88.25 713.138
    endloop
  endfacet
  facet normal -0.292102 0 0.956387
    outer loop
      vertex 53.746 88.25 757.975
      vertex 55 -88.25 758.358
      vertex 55 88.25 758.358
    endloop
  endfacet
  facet normal -0.292102 0 0.956387
    outer loop
      vertex 55 -88.25 758.358
      vertex 53.746 88.25 757.975
      vertex 53.746 -88.25 757.975
    endloop
  endfacet
  facet normal -0.906269 0 0.422701
    outer loop
      vertex 6.72461 -88.25 715.637
      vertex 7.872 88.25 718.097
      vertex 6.72461 88.25 715.637
    endloop
  endfacet
  facet normal -0.906269 0 0.422701
    outer loop
      vertex 7.872 88.25 718.097
      vertex 6.72461 -88.25 715.637
      vertex 7.872 -88.25 718.097
    endloop
  endfacet
  facet normal -0.422498 0 0.906364
    outer loop
      vertex 43.6846 88.25 753.91
      vertex 46.1452 -88.25 755.057
      vertex 46.1452 88.25 755.057
    endloop
  endfacet
  facet normal -0.422498 0 0.906364
    outer loop
      vertex 46.1452 -88.25 755.057
      vertex 43.6846 88.25 753.91
      vertex 43.6846 -88.25 753.91
    endloop
  endfacet
  facet normal -0.798601 0 0.601861
    outer loop
      vertex 14.855 -88.25 729.719
      vertex 16.4889 88.25 731.887
      vertex 14.855 88.25 729.719
    endloop
  endfacet
  facet normal -0.798601 0 0.601861
    outer loop
      vertex 16.4889 88.25 731.887
      vertex 14.855 -88.25 729.719
      vertex 16.4889 -88.25 731.887
    endloop
  endfacet
  facet normal -0.754704 0 0.656066
    outer loop
      vertex 18.1975 -88.25 733.997
      vertex 19.9787 88.25 736.046
      vertex 18.1975 88.25 733.997
    endloop
  endfacet
  facet normal -0.754704 0 0.656066
    outer loop
      vertex 19.9787 88.25 736.046
      vertex 18.1975 -88.25 733.997
      vertex 19.9787 -88.25 736.046
    endloop
  endfacet
  facet normal -0.998629 0 0.052341
    outer loop
      vertex 0.0473828 -88.25 686.715
      vertex 0.189474 88.25 689.426
      vertex 0.0473828 88.25 686.715
    endloop
  endfacet
  facet normal -0.998629 0 0.052341
    outer loop
      vertex 0.189474 88.25 689.426
      vertex 0.0473828 -88.25 686.715
      vertex 0.189474 -88.25 689.426
    endloop
  endfacet
  facet normal -0.573512 0 0.819197
    outer loop
      vertex 32.0629 88.25 746.927
      vertex 34.2869 -88.25 748.484
      vertex 34.2869 88.25 748.484
    endloop
  endfacet
  facet normal -0.573512 0 0.819197
    outer loop
      vertex 34.2869 -88.25 748.484
      vertex 32.0629 88.25 746.927
      vertex 32.0629 -88.25 746.927
    endloop
  endfacet
  facet normal -0.390779 0 0.920485
    outer loop
      vertex 46.1452 88.25 755.057
      vertex 48.6444 -88.25 756.118
      vertex 48.6444 88.25 756.118
    endloop
  endfacet
  facet normal -0.390779 0 0.920485
    outer loop
      vertex 48.6444 -88.25 756.118
      vertex 46.1452 88.25 755.057
      vertex 46.1452 -88.25 755.057
    endloop
  endfacet
  facet normal -0.484736 0 0.874661
    outer loop
      vertex 38.891 88.25 751.361
      vertex 41.2656 -88.25 752.677
      vertex 41.2656 88.25 752.677
    endloop
  endfacet
  facet normal -0.484736 0 0.874661
    outer loop
      vertex 41.2656 -88.25 752.677
      vertex 38.891 88.25 751.361
      vertex 38.891 -88.25 751.361
    endloop
  endfacet
  facet normal -0.857151 0 0.515064
    outer loop
      vertex 10.4208 -88.25 722.891
      vertex 11.8191 88.25 725.218
      vertex 10.4208 88.25 722.891
    endloop
  endfacet
  facet normal -0.857151 0 0.515064
    outer loop
      vertex 11.8191 88.25 725.218
      vertex 10.4208 -88.25 722.891
      vertex 11.8191 -88.25 725.218
    endloop
  endfacet
  facet normal -0.956294 0 0.292406
    outer loop
      vertex 3.01314 -88.25 705.44
      vertex 3.80692 88.25 708.036
      vertex 3.01314 88.25 705.44
    endloop
  endfacet
  facet normal -0.956294 0 0.292406
    outer loop
      vertex 3.80692 88.25 708.036
      vertex 3.01314 -88.25 705.44
      vertex 3.80692 -88.25 708.036
    endloop
  endfacet
  facet normal -0.96594 0 0.258767
    outer loop
      vertex 2.31046 -88.25 702.817
      vertex 3.01314 88.25 705.44
      vertex 2.31046 88.25 702.817
    endloop
  endfacet
  facet normal -0.96594 0 0.258767
    outer loop
      vertex 3.01314 88.25 705.44
      vertex 2.31046 -88.25 702.817
      vertex 3.01314 -88.25 705.44
    endloop
  endfacet
  facet normal -0.544733 0 0.838609
    outer loop
      vertex 34.2869 88.25 748.484
      vertex 36.5638 -88.25 749.963
      vertex 36.5638 88.25 749.963
    endloop
  endfacet
  facet normal -0.544733 0 0.838609
    outer loop
      vertex 36.5638 -88.25 749.963
      vertex 34.2869 88.25 748.484
      vertex 34.2869 -88.25 748.484
    endloop
  endfacet
  facet normal -0.996193 0 0.0871757
    outer loop
      vertex 0.189474 -88.25 689.426
      vertex 0.426098 88.25 692.13
      vertex 0.189474 88.25 689.426
    endloop
  endfacet
  facet normal -0.996193 0 0.0871757
    outer loop
      vertex 0.426098 88.25 692.13
      vertex 0.189474 -88.25 689.426
      vertex 0.426098 -88.25 692.13
    endloop
  endfacet
  facet normal -0.68188 0 0.731464
    outer loop
      vertex 23.7501 88.25 739.952
      vertex 25.7357 -88.25 741.803
      vertex 25.7357 88.25 741.803
    endloop
  endfacet
  facet normal -0.68188 0 0.731464
    outer loop
      vertex 25.7357 -88.25 741.803
      vertex 23.7501 88.25 739.952
      vertex 23.7501 -88.25 739.952
    endloop
  endfacet
  facet normal -0.874659 0 0.484738
    outer loop
      vertex 9.10457 -88.25 720.516
      vertex 10.4208 88.25 722.891
      vertex 9.10457 88.25 720.516
    endloop
  endfacet
  facet normal -0.874659 0 0.484738
    outer loop
      vertex 10.4208 88.25 722.891
      vertex 9.10457 -88.25 720.516
      vertex 10.4208 -88.25 722.891
    endloop
  endfacet
  facet normal -0.999848 0 0.0174494
    outer loop
      vertex 4.11987e-07 -88.25 684
      vertex 0.0473828 88.25 686.715
      vertex 4.11987e-07 88.25 684
    endloop
  endfacet
  facet normal -0.999848 0 0.0174494
    outer loop
      vertex 0.0473828 88.25 686.715
      vertex 4.11987e-07 -88.25 684
      vertex 0.0473828 -88.25 686.715
    endloop
  endfacet
  facet normal -0.981626 0 0.190815
    outer loop
      vertex 1.18168 -88.25 697.507
      vertex 1.69972 88.25 700.172
      vertex 1.18168 88.25 697.507
    endloop
  endfacet
  facet normal -0.981626 0 0.190815
    outer loop
      vertex 1.69972 88.25 700.172
      vertex 1.18168 -88.25 697.507
      vertex 1.69972 -88.25 700.172
    endloop
  endfacet
  facet normal -0.656024 0 0.75474
    outer loop
      vertex 25.7357 88.25 741.803
      vertex 27.7847 -88.25 743.584
      vertex 27.7847 88.25 743.584
    endloop
  endfacet
  facet normal -0.656024 0 0.75474
    outer loop
      vertex 27.7847 -88.25 743.584
      vertex 25.7357 88.25 741.803
      vertex 25.7357 -88.25 741.803
    endloop
  endfacet
  facet normal -0.601831 0 0.798623
    outer loop
      vertex 29.8946 88.25 745.293
      vertex 32.0629 -88.25 746.927
      vertex 32.0629 88.25 746.927
    endloop
  endfacet
  facet normal -0.601831 0 0.798623
    outer loop
      vertex 32.0629 -88.25 746.927
      vertex 29.8946 88.25 745.293
      vertex 29.8946 -88.25 745.293
    endloop
  endfacet
  facet normal -0.731423 0 0.681924
    outer loop
      vertex 19.9787 -88.25 736.046
      vertex 21.8303 88.25 738.032
      vertex 19.9787 88.25 736.046
    endloop
  endfacet
  facet normal -0.731423 0 0.681924
    outer loop
      vertex 21.8303 88.25 738.032
      vertex 19.9787 -88.25 736.046
      vertex 21.8303 -88.25 738.032
    endloop
  endfacet
  facet normal -0.974363 0 0.224984
    outer loop
      vertex 1.69972 -88.25 700.172
      vertex 2.31046 88.25 702.817
      vertex 1.69972 88.25 700.172
    endloop
  endfacet
  facet normal -0.974363 0 0.224984
    outer loop
      vertex 2.31046 88.25 702.817
      vertex 1.69972 -88.25 700.172
      vertex 2.31046 -88.25 702.817
    endloop
  endfacet
  facet normal 0 -1 0
    outer loop
      vertex 0 -88.25 684
      vertex 55 -88.25 609.642
      vertex 4.11987e-07 -88.25 684
    endloop
  endfacet
  facet normal 0 -1 0
    outer loop
      vertex 0 -88.25 0
      vertex 55 -88.25 609.642
      vertex 0 -88.25 684
    endloop
  endfacet
  facet normal 0 -1 -0
    outer loop
      vertex 55 -88.25 609.642
      vertex 0 -88.25 0
      vertex 55 -88.25 0
    endloop
  endfacet
  facet normal 0 -1 0
    outer loop
      vertex 51.179 -88.25 757.091
      vertex 55 -88.25 758.358
      vertex 53.746 -88.25 757.975
    endloop
  endfacet
  facet normal 0 -1 0
    outer loop
      vertex 48.6444 -88.25 756.118
      vertex 55 -88.25 758.358
      vertex 51.179 -88.25 757.091
    endloop
  endfacet
  facet normal 0 -1 0
    outer loop
      vertex 46.1452 -88.25 755.057
      vertex 55 -88.25 758.358
      vertex 48.6444 -88.25 756.118
    endloop
  endfacet
  facet normal 0 -1 0
    outer loop
      vertex 43.6846 -88.25 753.91
      vertex 55 -88.25 758.358
      vertex 46.1452 -88.25 755.057
    endloop
  endfacet
  facet normal 0 -1 0
    outer loop
      vertex 41.2656 -88.25 752.677
      vertex 55 -88.25 758.358
      vertex 43.6846 -88.25 753.91
    endloop
  endfacet
  facet normal 0 -1 0
    outer loop
      vertex 38.891 -88.25 751.361
      vertex 55 -88.25 758.358
      vertex 41.2656 -88.25 752.677
    endloop
  endfacet
  facet normal 0 -1 0
    outer loop
      vertex 36.5638 -88.25 749.963
      vertex 55 -88.25 758.358
      vertex 38.891 -88.25 751.361
    endloop
  endfacet
  facet normal 0 -1 0
    outer loop
      vertex 34.2869 -88.25 748.484
      vertex 55 -88.25 758.358
      vertex 36.5638 -88.25 749.963
    endloop
  endfacet
  facet normal 0 -1 0
    outer loop
      vertex 32.0629 -88.25 746.927
      vertex 55 -88.25 758.358
      vertex 34.2869 -88.25 748.484
    endloop
  endfacet
  facet normal 0 -1 0
    outer loop
      vertex 29.8946 -88.25 745.293
      vertex 55 -88.25 758.358
      vertex 32.0629 -88.25 746.927
    endloop
  endfacet
  facet normal 0 -1 0
    outer loop
      vertex 27.7847 -88.25 743.584
      vertex 55 -88.25 758.358
      vertex 29.8946 -88.25 745.293
    endloop
  endfacet
  facet normal 0 -1 0
    outer loop
      vertex 25.7357 -88.25 741.803
      vertex 55 -88.25 758.358
      vertex 27.7847 -88.25 743.584
    endloop
  endfacet
  facet normal 0 -1 0
    outer loop
      vertex 23.7501 -88.25 739.952
      vertex 55 -88.25 758.358
      vertex 25.7357 -88.25 741.803
    endloop
  endfacet
  facet normal 0 -1 0
    outer loop
      vertex 21.8303 -88.25 738.032
      vertex 55 -88.25 758.358
      vertex 23.7501 -88.25 739.952
    endloop
  endfacet
  facet normal 0 -1 0
    outer loop
      vertex 19.9787 -88.25 736.046
      vertex 55 -88.25 758.358
      vertex 21.8303 -88.25 738.032
    endloop
  endfacet
  facet normal 0 -1 0
    outer loop
      vertex 18.1975 -88.25 733.997
      vertex 55 -88.25 758.358
      vertex 19.9787 -88.25 736.046
    endloop
  endfacet
  facet normal 0 -1 0
    outer loop
      vertex 16.4889 -88.25 731.887
      vertex 55 -88.25 758.358
      vertex 18.1975 -88.25 733.997
    endloop
  endfacet
  facet normal 0 -1 0
    outer loop
      vertex 14.855 -88.25 729.719
      vertex 55 -88.25 758.358
      vertex 16.4889 -88.25 731.887
    endloop
  endfacet
  facet normal 0 -1 0
    outer loop
      vertex 13.2978 -88.25 727.495
      vertex 55 -88.25 758.358
      vertex 14.855 -88.25 729.719
    endloop
  endfacet
  facet normal 0 -1 0
    outer loop
      vertex 11.8191 -88.25 725.218
      vertex 55 -88.25 758.358
      vertex 13.2978 -88.25 727.495
    endloop
  endfacet
  facet normal 0 -1 0
    outer loop
      vertex 10.4208 -88.25 722.891
      vertex 55 -88.25 758.358
      vertex 11.8191 -88.25 725.218
    endloop
  endfacet
  facet normal 0 -1 0
    outer loop
      vertex 9.10457 -88.25 720.516
      vertex 55 -88.25 758.358
      vertex 10.4208 -88.25 722.891
    endloop
  endfacet
  facet normal 0 -1 0
    outer loop
      vertex 7.872 -88.25 718.097
      vertex 55 -88.25 758.358
      vertex 9.10457 -88.25 720.516
    endloop
  endfacet
  facet normal 0 -1 0
    outer loop
      vertex 6.72461 -88.25 715.637
      vertex 55 -88.25 758.358
      vertex 7.872 -88.25 718.097
    endloop
  endfacet
  facet normal 0 -1 0
    outer loop
      vertex 5.66379 -88.25 713.138
      vertex 55 -88.25 758.358
      vertex 6.72461 -88.25 715.637
    endloop
  endfacet
  facet normal 0 -1 0
    outer loop
      vertex 4.69083 -88.25 710.603
      vertex 55 -88.25 758.358
      vertex 5.66379 -88.25 713.138
    endloop
  endfacet
  facet normal 0 -1 0
    outer loop
      vertex 3.80692 -88.25 708.036
      vertex 55 -88.25 758.358
      vertex 4.69083 -88.25 710.603
    endloop
  endfacet
  facet normal 0 -1 0
    outer loop
      vertex 3.01314 -88.25 705.44
      vertex 55 -88.25 758.358
      vertex 3.80692 -88.25 708.036
    endloop
  endfacet
  facet normal 0 -1 0
    outer loop
      vertex 2.31046 -88.25 702.817
      vertex 55 -88.25 758.358
      vertex 3.01314 -88.25 705.44
    endloop
  endfacet
  facet normal 0 -1 0
    outer loop
      vertex 1.69972 -88.25 700.172
      vertex 55 -88.25 758.358
      vertex 2.31046 -88.25 702.817
    endloop
  endfacet
  facet normal 0 -1 0
    outer loop
      vertex 1.18168 -88.25 697.507
      vertex 55 -88.25 758.358
      vertex 1.69972 -88.25 700.172
    endloop
  endfacet
  facet normal 0 -1 0
    outer loop
      vertex 0.75697 -88.25 694.825
      vertex 55 -88.25 758.358
      vertex 1.18168 -88.25 697.507
    endloop
  endfacet
  facet normal 0 -1 0
    outer loop
      vertex 0.426098 -88.25 692.13
      vertex 55 -88.25 758.358
      vertex 0.75697 -88.25 694.825
    endloop
  endfacet
  facet normal 0 -1 0
    outer loop
      vertex 0.189474 -88.25 689.426
      vertex 55 -88.25 758.358
      vertex 0.426098 -88.25 692.13
    endloop
  endfacet
  facet normal 0 -1 0
    outer loop
      vertex 0.0473828 -88.25 686.715
      vertex 55 -88.25 758.358
      vertex 0.189474 -88.25 689.426
    endloop
  endfacet
  facet normal 0 -1 0
    outer loop
      vertex 4.11987e-07 -88.25 684
      vertex 55 -88.25 758.358
      vertex 0.0473828 -88.25 686.715
    endloop
  endfacet
  facet normal 0 -1 -0
    outer loop
      vertex 55 -88.25 758.358
      vertex 4.11987e-07 -88.25 684
      vertex 55 -88.25 609.642
    endloop
  endfacet
  facet normal -0.629418 0 0.777067
    outer loop
      vertex 27.7847 88.25 743.584
      vertex 29.8946 -88.25 745.293
      vertex 29.8946 88.25 745.293
    endloop
  endfacet
  facet normal -0.629418 0 0.777067
    outer loop
      vertex 29.8946 -88.25 745.293
      vertex 27.7847 88.25 743.584
      vertex 27.7847 -88.25 743.584
    endloop
  endfacet
  facet normal -0.945516 0 0.325575
    outer loop
      vertex 3.80692 -88.25 708.036
      vertex 4.69083 88.25 710.603
      vertex 3.80692 88.25 708.036
    endloop
  endfacet
  facet normal -0.945516 0 0.325575
    outer loop
      vertex 4.69083 88.25 710.603
      vertex 3.80692 -88.25 708.036
      vertex 4.69083 -88.25 710.603
    endloop
  endfacet
  facet normal -0.891002 0 0.453999
    outer loop
      vertex 7.872 -88.25 718.097
      vertex 9.10457 88.25 720.516
      vertex 7.872 88.25 718.097
    endloop
  endfacet
  facet normal -0.891002 0 0.453999
    outer loop
      vertex 9.10457 88.25 720.516
      vertex 7.872 -88.25 718.097
      vertex 9.10457 -88.25 720.516
    endloop
  endfacet
  facet normal -0.987693 0 0.156407
    outer loop
      vertex 0.75697 -88.25 694.825
      vertex 1.18168 88.25 697.507
      vertex 0.75697 88.25 694.825
    endloop
  endfacet
  facet normal -0.987693 0 0.156407
    outer loop
      vertex 1.18168 88.25 697.507
      vertex 0.75697 -88.25 694.825
      vertex 1.18168 -88.25 697.507
    endloop
  endfacet
  facet normal -0.992548 0 0.121858
    outer loop
      vertex 0.426098 -88.25 692.13
      vertex 0.75697 88.25 694.825
      vertex 0.426098 88.25 692.13
    endloop
  endfacet
  facet normal -0.992548 0 0.121858
    outer loop
      vertex 0.75697 88.25 694.825
      vertex 0.426098 -88.25 692.13
      vertex 0.75697 -88.25 694.825
    endloop
  endfacet
  facet normal -0.920497 0 0.390749
    outer loop
      vertex 5.66379 -88.25 713.138
      vertex 6.72461 88.25 715.637
      vertex 5.66379 88.25 713.138
    endloop
  endfacet
  facet normal -0.920497 0 0.390749
    outer loop
      vertex 6.72461 88.25 715.637
      vertex 5.66379 -88.25 713.138
      vertex 6.72461 -88.25 715.637
    endloop
  endfacet
  facet normal -0.819163 0 0.573561
    outer loop
      vertex 13.2978 -88.25 727.495
      vertex 14.855 88.25 729.719
      vertex 13.2978 88.25 727.495
    endloop
  endfacet
  facet normal -0.819163 0 0.573561
    outer loop
      vertex 14.855 88.25 729.719
      vertex 13.2978 -88.25 727.495
      vertex 14.855 -88.25 729.719
    endloop
  endfacet
  facet normal -0.838671 0 0.544639
    outer loop
      vertex 11.8191 -88.25 725.218
      vertex 13.2978 88.25 727.495
      vertex 11.8191 88.25 725.218
    endloop
  endfacet
  facet normal -0.838671 0 0.544639
    outer loop
      vertex 13.2978 88.25 727.495
      vertex 11.8191 -88.25 725.218
      vertex 13.2978 -88.25 727.495
    endloop
  endfacet
  facet normal 0 1 0
    outer loop
      vertex 55 88.25 758.358
      vertex 51.179 88.25 757.091
      vertex 53.746 88.25 757.975
    endloop
  endfacet
  facet normal 0 1 0
    outer loop
      vertex 55 88.25 758.358
      vertex 48.6444 88.25 756.118
      vertex 51.179 88.25 757.091
    endloop
  endfacet
  facet normal 0 1 0
    outer loop
      vertex 55 88.25 758.358
      vertex 46.1452 88.25 755.057
      vertex 48.6444 88.25 756.118
    endloop
  endfacet
  facet normal 0 1 0
    outer loop
      vertex 55 88.25 758.358
      vertex 43.6846 88.25 753.91
      vertex 46.1452 88.25 755.057
    endloop
  endfacet
  facet normal 0 1 0
    outer loop
      vertex 55 88.25 758.358
      vertex 41.2656 88.25 752.677
      vertex 43.6846 88.25 753.91
    endloop
  endfacet
  facet normal 0 1 0
    outer loop
      vertex 55 88.25 758.358
      vertex 38.891 88.25 751.361
      vertex 41.2656 88.25 752.677
    endloop
  endfacet
  facet normal 0 1 0
    outer loop
      vertex 55 88.25 758.358
      vertex 36.5638 88.25 749.963
      vertex 38.891 88.25 751.361
    endloop
  endfacet
  facet normal 0 1 0
    outer loop
      vertex 55 88.25 758.358
      vertex 34.2869 88.25 748.484
      vertex 36.5638 88.25 749.963
    endloop
  endfacet
  facet normal 0 1 0
    outer loop
      vertex 55 88.25 758.358
      vertex 32.0629 88.25 746.927
      vertex 34.2869 88.25 748.484
    endloop
  endfacet
  facet normal 0 1 0
    outer loop
      vertex 55 88.25 758.358
      vertex 29.8946 88.25 745.293
      vertex 32.0629 88.25 746.927
    endloop
  endfacet
  facet normal 0 1 0
    outer loop
      vertex 55 88.25 758.358
      vertex 27.7847 88.25 743.584
      vertex 29.8946 88.25 745.293
    endloop
  endfacet
  facet normal 0 1 0
    outer loop
      vertex 55 88.25 758.358
      vertex 25.7357 88.25 741.803
      vertex 27.7847 88.25 743.584
    endloop
  endfacet
  facet normal 0 1 0
    outer loop
      vertex 55 88.25 758.358
      vertex 23.7501 88.25 739.952
      vertex 25.7357 88.25 741.803
    endloop
  endfacet
  facet normal 0 1 0
    outer loop
      vertex 55 88.25 758.358
      vertex 21.8303 88.25 738.032
      vertex 23.7501 88.25 739.952
    endloop
  endfacet
  facet normal 0 1 0
    outer loop
      vertex 55 88.25 758.358
      vertex 19.9787 88.25 736.046
      vertex 21.8303 88.25 738.032
    endloop
  endfacet
  facet normal 0 1 0
    outer loop
      vertex 55 88.25 758.358
      vertex 18.1975 88.25 733.997
      vertex 19.9787 88.25 736.046
    endloop
  endfacet
  facet normal 0 1 0
    outer loop
      vertex 55 88.25 758.358
      vertex 16.4889 88.25 731.887
      vertex 18.1975 88.25 733.997
    endloop
  endfacet
  facet normal 0 1 0
    outer loop
      vertex 55 88.25 758.358
      vertex 14.855 88.25 729.719
      vertex 16.4889 88.25 731.887
    endloop
  endfacet
  facet normal 0 1 0
    outer loop
      vertex 55 88.25 758.358
      vertex 13.2978 88.25 727.495
      vertex 14.855 88.25 729.719
    endloop
  endfacet
  facet normal 0 1 0
    outer loop
      vertex 55 88.25 758.358
      vertex 11.8191 88.25 725.218
      vertex 13.2978 88.25 727.495
    endloop
  endfacet
  facet normal 0 1 0
    outer loop
      vertex 55 88.25 758.358
      vertex 10.4208 88.25 722.891
      vertex 11.8191 88.25 725.218
    endloop
  endfacet
  facet normal 0 1 0
    outer loop
      vertex 55 88.25 758.358
      vertex 9.10457 88.25 720.516
      vertex 10.4208 88.25 722.891
    endloop
  endfacet
  facet normal 0 1 0
    outer loop
      vertex 55 88.25 758.358
      vertex 7.872 88.25 718.097
      vertex 9.10457 88.25 720.516
    endloop
  endfacet
  facet normal 0 1 0
    outer loop
      vertex 55 88.25 758.358
      vertex 6.72461 88.25 715.637
      vertex 7.872 88.25 718.097
    endloop
  endfacet
  facet normal 0 1 0
    outer loop
      vertex 55 88.25 758.358
      vertex 5.66379 88.25 713.138
      vertex 6.72461 88.25 715.637
    endloop
  endfacet
  facet normal 0 1 0
    outer loop
      vertex 55 88.25 758.358
      vertex 4.69083 88.25 710.603
      vertex 5.66379 88.25 713.138
    endloop
  endfacet
  facet normal 0 1 0
    outer loop
      vertex 55 88.25 758.358
      vertex 3.80692 88.25 708.036
      vertex 4.69083 88.25 710.603
    endloop
  endfacet
  facet normal 0 1 0
    outer loop
      vertex 55 88.25 758.358
      vertex 3.01314 88.25 705.44
      vertex 3.80692 88.25 708.036
    endloop
  endfacet
  facet normal 0 1 0
    outer loop
      vertex 55 88.25 758.358
      vertex 2.31046 88.25 702.817
      vertex 3.01314 88.25 705.44
    endloop
  endfacet
  facet normal 0 1 0
    outer loop
      vertex 55 88.25 758.358
      vertex 1.69972 88.25 700.172
      vertex 2.31046 88.25 702.817
    endloop
  endfacet
  facet normal 0 1 0
    outer loop
      vertex 55 88.25 758.358
      vertex 1.18168 88.25 697.507
      vertex 1.69972 88.25 700.172
    endloop
  endfacet
  facet normal 0 1 0
    outer loop
      vertex 55 88.25 758.358
      vertex 0.75697 88.25 694.825
      vertex 1.18168 88.25 697.507
    endloop
  endfacet
  facet normal 0 1 0
    outer loop
      vertex 55 88.25 758.358
      vertex 0.426098 88.25 692.13
      vertex 0.75697 88.25 694.825
    endloop
  endfacet
  facet normal 0 1 0
    outer loop
      vertex 55 88.25 758.358
      vertex 0.189474 88.25 689.426
      vertex 0.426098 88.25 692.13
    endloop
  endfacet
  facet normal 0 1 0
    outer loop
      vertex 55 88.25 758.358
      vertex 0.0473828 88.25 686.715
      vertex 0.189474 88.25 689.426
    endloop
  endfacet
  facet normal 0 1 0
    outer loop
      vertex 55 88.25 758.358
      vertex 4.11987e-07 88.25 684
      vertex 0.0473828 88.25 686.715
    endloop
  endfacet
  facet normal 0 1 -0
    outer loop
      vertex 55 88.25 609.642
      vertex 4.11987e-07 88.25 684
      vertex 55 88.25 758.358
    endloop
  endfacet
  facet normal 0 1 0
    outer loop
      vertex 55 88.25 609.642
      vertex 0 88.25 684
      vertex 4.11987e-07 88.25 684
    endloop
  endfacet
  facet normal 0 1 0
    outer loop
      vertex 0 88.25 0
      vertex 55 88.25 609.642
      vertex 55 88.25 0
    endloop
  endfacet
  facet normal 0 1 0
    outer loop
      vertex 55 88.25 609.642
      vertex 0 88.25 0
      vertex 0 88.25 684
    endloop
  endfacet
  facet normal 1 0 0
    outer loop
      vertex 55 88.25 758.358
      vertex 55 84.2787 754.459
      vertex 55 88.25 609.642
    endloop
  endfacet
  facet normal 1 0 0
    outer loop
      vertex 55 88.25 758.358
      vertex 55 -84.2787 754.459
      vertex 55 84.2787 754.459
    endloop
  endfacet
  facet normal 1 -0 0
    outer loop
      vertex 55 -88.25 758.358
      vertex 55 -84.2787 754.459
      vertex 55 88.25 758.358
    endloop
  endfacet
  facet normal 1 0 0
    outer loop
      vertex 55 -88.25 609.642
      vertex 55 -84.2787 754.459
      vertex 55 -88.25 758.358
    endloop
  endfacet
  facet normal 1 0 0
    outer loop
      vertex 55 -84.2787 754.459
      vertex 55 -88.25 609.642
      vertex 55 -84.2787 609.642
    endloop
  endfacet
  facet normal 1 0 0
    outer loop
      vertex 55 88.25 609.642
      vertex 55 84.2787 754.459
      vertex 55 84.2787 609.642
    endloop
  endfacet
  facet normal 0 0 -1
    outer loop
      vertex 0 -88.25 0
      vertex 55 88.25 0
      vertex 55 -88.25 0
    endloop
  endfacet
  facet normal -0 0 -1
    outer loop
      vertex 55 88.25 0
      vertex 0 -88.25 0
      vertex 0 88.25 0
    endloop
  endfacet
  facet normal 1 0 0
    outer loop
      vertex 55 -84.2787 609.642
      vertex 55 -88.25 609.642
      vertex 55 -84.2787 8.104
    endloop
  endfacet
  facet normal 1 0 0
    outer loop
      vertex 55 84.2787 8.104
      vertex 55 88.25 609.642
      vertex 55 84.2787 609.642
    endloop
  endfacet
  facet normal 1 0 0
    outer loop
      vertex 55 88.25 609.642
      vertex 55 84.2787 8.104
      vertex 55 88.25 0
    endloop
  endfacet
  facet normal 1 -0 0
    outer loop
      vertex 55 -84.2787 8.104
      vertex 55 88.25 0
      vertex 55 84.2787 8.104
    endloop
  endfacet
  facet normal 1 0 0
    outer loop
      vertex 55 -84.2787 8.104
      vertex 55 -88.25 0
      vertex 55 88.25 0
    endloop
  endfacet
  facet normal 1 0 0
    outer loop
      vertex 55 -88.25 0
      vertex 55 -84.2787 8.104
      vertex 55 -88.25 609.642
    endloop
  endfacet
  facet normal -1 0 0
    outer loop
      vertex 0 -88.25 0
      vertex 0 88.25 684
      vertex 0 88.25 0
    endloop
  endfacet
  facet normal -1 -0 0
    outer loop
      vertex 0 88.25 684
      vertex 0 -88.25 0
      vertex 0 -88.25 684
    endloop
  endfacet
  facet normal -0 0 1
    outer loop
      vertex 0 88.25 684
      vertex 4.11987e-07 -88.25 684
      vertex 4.11987e-07 88.25 684
    endloop
  endfacet
  facet normal 0 0 1
    outer loop
      vertex 4.11987e-07 -88.25 684
      vertex 0 88.25 684
      vertex 0 -88.25 684
    endloop
  endfacet
  facet normal 0.702683 0 -0.711503
    outer loop
      vertex 29.8303 -84.2787 737.28
      vertex 31.7501 84.2787 739.176
      vertex 31.7501 -84.2787 739.176
    endloop
  endfacet
  facet normal 0.702683 0 -0.711503
    outer loop
      vertex 31.7501 84.2787 739.176
      vertex 29.8303 -84.2787 737.28
      vertex 29.8303 84.2787 737.28
    endloop
  endfacet
  facet normal 0.449723 0 -0.893168
    outer loop
      vertex 49.2656 -84.2787 751.749
      vertex 51.6846 84.2787 752.967
      vertex 51.6846 -84.2787 752.967
    endloop
  endfacet
  facet normal 0.449723 0 -0.893168
    outer loop
      vertex 51.6846 84.2787 752.967
      vertex 49.2656 -84.2787 751.749
      vertex 49.2656 84.2787 751.749
    endloop
  endfacet
  facet normal 0.773319 0 -0.634017
    outer loop
      vertex 26.1975 -84.2787 733.293
      vertex 24.4889 84.2787 731.209
      vertex 26.1975 84.2787 733.293
    endloop
  endfacet
  facet normal 0.773319 0 -0.634017
    outer loop
      vertex 24.4889 84.2787 731.209
      vertex 26.1975 -84.2787 733.293
      vertex 24.4889 -84.2787 731.209
    endloop
  endfacet
  facet normal 0.5106 0 -0.859818
    outer loop
      vertex 44.5638 -84.2787 749.067
      vertex 46.891 84.2787 750.449
      vertex 46.891 -84.2787 750.449
    endloop
  endfacet
  facet normal 0.5106 0 -0.859818
    outer loop
      vertex 46.891 84.2787 750.449
      vertex 44.5638 -84.2787 749.067
      vertex 44.5638 84.2787 749.067
    endloop
  endfacet
  facet normal 0.932102 0 -0.362195
    outer loop
      vertex 13.6638 -84.2787 712.684
      vertex 12.6908 84.2787 710.18
      vertex 13.6638 84.2787 712.684
    endloop
  endfacet
  facet normal 0.932102 0 -0.362195
    outer loop
      vertex 12.6908 84.2787 710.18
      vertex 13.6638 -84.2787 712.684
      vertex 12.6908 -84.2787 710.18
    endloop
  endfacet
  facet normal 0.904331 0 -0.426832
    outer loop
      vertex 15.872 -84.2787 717.584
      vertex 14.7246 84.2787 715.153
      vertex 15.872 84.2787 717.584
    endloop
  endfacet
  facet normal 0.904331 0 -0.426832
    outer loop
      vertex 14.7246 84.2787 715.153
      vertex 15.872 -84.2787 717.584
      vertex 14.7246 -84.2787 715.153
    endloop
  endfacet
  facet normal 0.418553 0 -0.908193
    outer loop
      vertex 51.6846 -84.2787 752.967
      vertex 54.1452 84.2787 754.101
      vertex 54.1452 -84.2787 754.101
    endloop
  endfacet
  facet normal 0.418553 0 -0.908193
    outer loop
      vertex 54.1452 84.2787 754.101
      vertex 51.6846 -84.2787 752.967
      vertex 51.6846 84.2787 752.967
    endloop
  endfacet
  facet normal 0.795228 0 -0.60631
    outer loop
      vertex 24.4889 -84.2787 731.209
      vertex 22.855 84.2787 729.066
      vertex 24.4889 84.2787 731.209
    endloop
  endfacet
  facet normal 0.795228 0 -0.60631
    outer loop
      vertex 22.855 84.2787 729.066
      vertex 24.4889 -84.2787 731.209
      vertex 22.855 -84.2787 729.066
    endloop
  endfacet
  facet normal 0.750861 0 -0.660461
    outer loop
      vertex 27.9787 -84.2787 735.318
      vertex 26.1975 84.2787 733.293
      vertex 27.9787 84.2787 735.318
    endloop
  endfacet
  facet normal 0.750861 0 -0.660461
    outer loop
      vertex 26.1975 84.2787 733.293
      vertex 27.9787 -84.2787 735.318
      vertex 26.1975 -84.2787 733.293
    endloop
  endfacet
  facet normal 0.998596 0 -0.052964
    outer loop
      vertex 8.18947 -84.2787 689.257
      vertex 8.04738 84.2787 686.578
      vertex 8.18947 84.2787 689.257
    endloop
  endfacet
  facet normal 0.998596 0 -0.052964
    outer loop
      vertex 8.04738 84.2787 686.578
      vertex 8.18947 -84.2787 689.257
      vertex 8.04738 -84.2787 686.578
    endloop
  endfacet
  facet normal 0.568787 0 -0.822485
    outer loop
      vertex 40.0629 -84.2787 746.068
      vertex 42.2869 84.2787 747.606
      vertex 42.2869 -84.2787 747.606
    endloop
  endfacet
  facet normal 0.568787 0 -0.822485
    outer loop
      vertex 42.2869 84.2787 747.606
      vertex 40.0629 -84.2787 746.068
      vertex 40.0629 84.2787 746.068
    endloop
  endfacet
  facet normal 0.3863 0 -0.922373
    outer loop
      vertex 54.1452 -84.2787 754.101
      vertex 55 84.2787 754.459
      vertex 55 -84.2787 754.459
    endloop
  endfacet
  facet normal 0.3863 0 -0.922373
    outer loop
      vertex 55 84.2787 754.459
      vertex 54.1452 -84.2787 754.101
      vertex 54.1452 84.2787 754.101
    endloop
  endfacet
  facet normal 0.480208 0 -0.877155
    outer loop
      vertex 46.891 -84.2787 750.449
      vertex 49.2656 84.2787 751.749
      vertex 49.2656 -84.2787 751.749
    endloop
  endfacet
  facet normal 0.480208 0 -0.877155
    outer loop
      vertex 49.2656 84.2787 751.749
      vertex 46.891 -84.2787 750.449
      vertex 46.891 84.2787 750.449
    endloop
  endfacet
  facet normal 0.854479 0 -0.519486
    outer loop
      vertex 19.8191 -84.2787 724.62
      vertex 18.4208 84.2787 722.32
      vertex 19.8191 84.2787 724.62
    endloop
  endfacet
  facet normal 0.854479 0 -0.519486
    outer loop
      vertex 18.4208 84.2787 722.32
      vertex 19.8191 -84.2787 724.62
      vertex 18.4208 -84.2787 722.32
    endloop
  endfacet
  facet normal 0.955332 0 -0.295535
    outer loop
      vertex 11.8069 -84.2787 707.644
      vertex 11.0131 84.2787 705.078
      vertex 11.8069 84.2787 707.644
    endloop
  endfacet
  facet normal 0.955332 0 -0.295535
    outer loop
      vertex 11.0131 84.2787 705.078
      vertex 11.8069 -84.2787 707.644
      vertex 11.0131 -84.2787 705.078
    endloop
  endfacet
  facet normal 0.965144 0 -0.261718
    outer loop
      vertex 11.0131 -84.2787 705.078
      vertex 10.3105 84.2787 702.487
      vertex 11.0131 84.2787 705.078
    endloop
  endfacet
  facet normal 0.965144 0 -0.261718
    outer loop
      vertex 10.3105 84.2787 702.487
      vertex 11.0131 -84.2787 705.078
      vertex 10.3105 -84.2787 702.487
    endloop
  endfacet
  facet normal 0.540046 0 -0.841636
    outer loop
      vertex 42.2869 -84.2787 747.606
      vertex 44.5638 84.2787 749.067
      vertex 44.5638 -84.2787 749.067
    endloop
  endfacet
  facet normal 0.540046 0 -0.841636
    outer loop
      vertex 44.5638 84.2787 749.067
      vertex 42.2869 -84.2787 747.606
      vertex 42.2869 84.2787 747.606
    endloop
  endfacet
  facet normal 0.996102 0 -0.0882139
    outer loop
      vertex 8.4261 -84.2787 691.929
      vertex 8.18947 84.2787 689.257
      vertex 8.4261 84.2787 691.929
    endloop
  endfacet
  facet normal 0.996102 0 -0.0882139
    outer loop
      vertex 8.18947 84.2787 689.257
      vertex 8.4261 -84.2787 691.929
      vertex 8.18947 -84.2787 689.257
    endloop
  endfacet
  facet normal 0.677708 0 -0.735331
    outer loop
      vertex 31.7501 -84.2787 739.176
      vertex 33.7357 84.2787 741.006
      vertex 33.7357 -84.2787 741.006
    endloop
  endfacet
  facet normal 0.677708 0 -0.735331
    outer loop
      vertex 33.7357 84.2787 741.006
      vertex 31.7501 -84.2787 739.176
      vertex 31.7501 84.2787 739.176
    endloop
  endfacet
  facet normal 0.872119 0 -0.489294
    outer loop
      vertex 18.4208 -84.2787 722.32
      vertex 17.1046 84.2787 719.974
      vertex 18.4208 84.2787 722.32
    endloop
  endfacet
  facet normal 0.872119 0 -0.489294
    outer loop
      vertex 17.1046 84.2787 719.974
      vertex 18.4208 -84.2787 722.32
      vertex 17.1046 -84.2787 719.974
    endloop
  endfacet
  facet normal 0.999844 0 -0.0176632
    outer loop
      vertex 8.04738 -84.2787 686.578
      vertex 8 84.2787 683.896
      vertex 8.04738 84.2787 686.578
    endloop
  endfacet
  facet normal 0.999844 0 -0.0176632
    outer loop
      vertex 8 84.2787 683.896
      vertex 8.04738 -84.2787 686.578
      vertex 8 -84.2787 683.896
    endloop
  endfacet
  facet normal 0.981189 0 -0.193048
    outer loop
      vertex 9.69972 -84.2787 699.874
      vertex 9.18168 84.2787 697.241
      vertex 9.69972 84.2787 699.874
    endloop
  endfacet
  facet normal 0.981189 0 -0.193048
    outer loop
      vertex 9.18168 84.2787 697.241
      vertex 9.69972 -84.2787 699.874
      vertex 9.18168 -84.2787 697.241
    endloop
  endfacet
  facet normal 0.651371 0 -0.75876
    outer loop
      vertex 33.7357 -84.2787 741.006
      vertex 35.7847 84.2787 742.765
      vertex 35.7847 -84.2787 742.765
    endloop
  endfacet
  facet normal 0.651371 0 -0.75876
    outer loop
      vertex 35.7847 84.2787 742.765
      vertex 33.7357 -84.2787 741.006
      vertex 33.7357 84.2787 741.006
    endloop
  endfacet
  facet normal 0.597102 0 -0.802166
    outer loop
      vertex 37.8946 -84.2787 744.454
      vertex 40.0629 84.2787 746.068
      vertex 40.0629 -84.2787 746.068
    endloop
  endfacet
  facet normal 0.597102 0 -0.802166
    outer loop
      vertex 40.0629 84.2787 746.068
      vertex 37.8946 -84.2787 744.454
      vertex 37.8946 84.2787 744.454
    endloop
  endfacet
  facet normal 0.727272 0 -0.686349
    outer loop
      vertex 29.8303 -84.2787 737.28
      vertex 27.9787 84.2787 735.318
      vertex 29.8303 84.2787 737.28
    endloop
  endfacet
  facet normal 0.727272 0 -0.686349
    outer loop
      vertex 27.9787 84.2787 735.318
      vertex 29.8303 -84.2787 737.28
      vertex 27.9787 -84.2787 735.318
    endloop
  endfacet
  facet normal 0.973752 0 -0.227611
    outer loop
      vertex 10.3105 -84.2787 702.487
      vertex 9.69972 84.2787 699.874
      vertex 10.3105 84.2787 702.487
    endloop
  endfacet
  facet normal 0.973752 0 -0.227611
    outer loop
      vertex 9.69972 84.2787 699.874
      vertex 10.3105 -84.2787 702.487
      vertex 9.69972 -84.2787 699.874
    endloop
  endfacet
  facet normal 0 1 0
    outer loop
      vertex 55 -84.2787 754.459
      vertex 51.6846 -84.2787 752.967
      vertex 54.1452 -84.2787 754.101
    endloop
  endfacet
  facet normal 0 1 0
    outer loop
      vertex 55 -84.2787 754.459
      vertex 49.2656 -84.2787 751.749
      vertex 51.6846 -84.2787 752.967
    endloop
  endfacet
  facet normal 0 1 0
    outer loop
      vertex 55 -84.2787 754.459
      vertex 46.891 -84.2787 750.449
      vertex 49.2656 -84.2787 751.749
    endloop
  endfacet
  facet normal 0 1 0
    outer loop
      vertex 55 -84.2787 754.459
      vertex 44.5638 -84.2787 749.067
      vertex 46.891 -84.2787 750.449
    endloop
  endfacet
  facet normal 0 1 0
    outer loop
      vertex 55 -84.2787 754.459
      vertex 42.2869 -84.2787 747.606
      vertex 44.5638 -84.2787 749.067
    endloop
  endfacet
  facet normal 0 1 0
    outer loop
      vertex 55 -84.2787 754.459
      vertex 40.0629 -84.2787 746.068
      vertex 42.2869 -84.2787 747.606
    endloop
  endfacet
  facet normal 0 1 0
    outer loop
      vertex 55 -84.2787 754.459
      vertex 37.8946 -84.2787 744.454
      vertex 40.0629 -84.2787 746.068
    endloop
  endfacet
  facet normal 0 1 0
    outer loop
      vertex 55 -84.2787 754.459
      vertex 35.7847 -84.2787 742.765
      vertex 37.8946 -84.2787 744.454
    endloop
  endfacet
  facet normal 0 1 0
    outer loop
      vertex 55 -84.2787 754.459
      vertex 33.7357 -84.2787 741.006
      vertex 35.7847 -84.2787 742.765
    endloop
  endfacet
  facet normal 0 1 0
    outer loop
      vertex 55 -84.2787 754.459
      vertex 31.7501 -84.2787 739.176
      vertex 33.7357 -84.2787 741.006
    endloop
  endfacet
  facet normal 0 1 0
    outer loop
      vertex 55 -84.2787 754.459
      vertex 29.8303 -84.2787 737.28
      vertex 31.7501 -84.2787 739.176
    endloop
  endfacet
  facet normal 0 1 0
    outer loop
      vertex 55 -84.2787 754.459
      vertex 27.9787 -84.2787 735.318
      vertex 29.8303 -84.2787 737.28
    endloop
  endfacet
  facet normal 0 1 0
    outer loop
      vertex 55 -84.2787 754.459
      vertex 26.1975 -84.2787 733.293
      vertex 27.9787 -84.2787 735.318
    endloop
  endfacet
  facet normal 0 1 0
    outer loop
      vertex 55 -84.2787 754.459
      vertex 24.4889 -84.2787 731.209
      vertex 26.1975 -84.2787 733.293
    endloop
  endfacet
  facet normal 0 1 0
    outer loop
      vertex 55 -84.2787 754.459
      vertex 22.855 -84.2787 729.066
      vertex 24.4889 -84.2787 731.209
    endloop
  endfacet
  facet normal 0 1 0
    outer loop
      vertex 55 -84.2787 754.459
      vertex 21.2978 -84.2787 726.869
      vertex 22.855 -84.2787 729.066
    endloop
  endfacet
  facet normal 0 1 0
    outer loop
      vertex 55 -84.2787 754.459
      vertex 19.8191 -84.2787 724.62
      vertex 21.2978 -84.2787 726.869
    endloop
  endfacet
  facet normal 0 1 0
    outer loop
      vertex 55 -84.2787 754.459
      vertex 18.4208 -84.2787 722.32
      vertex 19.8191 -84.2787 724.62
    endloop
  endfacet
  facet normal 0 1 0
    outer loop
      vertex 55 -84.2787 754.459
      vertex 17.1046 -84.2787 719.974
      vertex 18.4208 -84.2787 722.32
    endloop
  endfacet
  facet normal 0 1 0
    outer loop
      vertex 55 -84.2787 754.459
      vertex 15.872 -84.2787 717.584
      vertex 17.1046 -84.2787 719.974
    endloop
  endfacet
  facet normal 0 1 0
    outer loop
      vertex 55 -84.2787 754.459
      vertex 14.7246 -84.2787 715.153
      vertex 15.872 -84.2787 717.584
    endloop
  endfacet
  facet normal 0 1 0
    outer loop
      vertex 55 -84.2787 754.459
      vertex 13.6638 -84.2787 712.684
      vertex 14.7246 -84.2787 715.153
    endloop
  endfacet
  facet normal 0 1 0
    outer loop
      vertex 55 -84.2787 754.459
      vertex 12.6908 -84.2787 710.18
      vertex 13.6638 -84.2787 712.684
    endloop
  endfacet
  facet normal 0 1 0
    outer loop
      vertex 55 -84.2787 754.459
      vertex 11.8069 -84.2787 707.644
      vertex 12.6908 -84.2787 710.18
    endloop
  endfacet
  facet normal 0 1 0
    outer loop
      vertex 55 -84.2787 754.459
      vertex 11.0131 -84.2787 705.078
      vertex 11.8069 -84.2787 707.644
    endloop
  endfacet
  facet normal 0 1 0
    outer loop
      vertex 55 -84.2787 754.459
      vertex 10.3105 -84.2787 702.487
      vertex 11.0131 -84.2787 705.078
    endloop
  endfacet
  facet normal 0 1 0
    outer loop
      vertex 55 -84.2787 754.459
      vertex 9.69972 -84.2787 699.874
      vertex 10.3105 -84.2787 702.487
    endloop
  endfacet
  facet normal 0 1 0
    outer loop
      vertex 55 -84.2787 754.459
      vertex 9.18168 -84.2787 697.241
      vertex 9.69972 -84.2787 699.874
    endloop
  endfacet
  facet normal 0 1 0
    outer loop
      vertex 55 -84.2787 754.459
      vertex 8.75697 -84.2787 694.591
      vertex 9.18168 -84.2787 697.241
    endloop
  endfacet
  facet normal 0 1 0
    outer loop
      vertex 55 -84.2787 754.459
      vertex 8.4261 -84.2787 691.929
      vertex 8.75697 -84.2787 694.591
    endloop
  endfacet
  facet normal 0 1 0
    outer loop
      vertex 55 -84.2787 754.459
      vertex 8.18947 -84.2787 689.257
      vertex 8.4261 -84.2787 691.929
    endloop
  endfacet
  facet normal 0 1 0
    outer loop
      vertex 55 -84.2787 754.459
      vertex 8.04738 -84.2787 686.578
      vertex 8.18947 -84.2787 689.257
    endloop
  endfacet
  facet normal 0 1 0
    outer loop
      vertex 55 -84.2787 754.459
      vertex 8 -84.2787 683.896
      vertex 8.04738 -84.2787 686.578
    endloop
  endfacet
  facet normal 0 1 -0
    outer loop
      vertex 55 -84.2787 609.642
      vertex 8 -84.2787 683.896
      vertex 55 -84.2787 754.459
    endloop
  endfacet
  facet normal 0 1 0
    outer loop
      vertex 8 -84.2787 8.104
      vertex 55 -84.2787 609.642
      vertex 55 -84.2787 8.104
    endloop
  endfacet
  facet normal 0 1 0
    outer loop
      vertex 55 -84.2787 609.642
      vertex 8 -84.2787 8.104
      vertex 8 -84.2787 683.896
    endloop
  endfacet
  facet normal 0.624939 0 -0.780674
    outer loop
      vertex 35.7847 -84.2787 742.765
      vertex 37.8946 84.2787 744.454
      vertex 37.8946 -84.2787 744.454
    endloop
  endfacet
  facet normal 0.624939 0 -0.780674
    outer loop
      vertex 37.8946 84.2787 744.454
      vertex 35.7847 -84.2787 742.765
      vertex 35.7847 84.2787 742.765
    endloop
  endfacet
  facet normal 0.944287 0 -0.329123
    outer loop
      vertex 12.6908 -84.2787 710.18
      vertex 11.8069 84.2787 707.644
      vertex 12.6908 84.2787 710.18
    endloop
  endfacet
  facet normal 0.944287 0 -0.329123
    outer loop
      vertex 11.8069 84.2787 707.644
      vertex 12.6908 -84.2787 710.18
      vertex 11.8069 -84.2787 707.644
    endloop
  endfacet
  facet normal 0.888764 0 -0.458364
    outer loop
      vertex 17.1046 -84.2787 719.974
      vertex 15.872 84.2787 717.584
      vertex 17.1046 84.2787 719.974
    endloop
  endfacet
  facet normal 0.888764 0 -0.458364
    outer loop
      vertex 15.872 84.2787 717.584
      vertex 17.1046 -84.2787 719.974
      vertex 15.872 -84.2787 717.584
    endloop
  endfacet
  facet normal 0.987399 0 -0.158248
    outer loop
      vertex 9.18168 -84.2787 697.241
      vertex 8.75697 84.2787 694.591
      vertex 9.18168 84.2787 697.241
    endloop
  endfacet
  facet normal 0.987399 0 -0.158248
    outer loop
      vertex 8.75697 84.2787 694.591
      vertex 9.18168 -84.2787 697.241
      vertex 8.75697 -84.2787 694.591
    endloop
  endfacet
  facet normal 0.992364 0 -0.123345
    outer loop
      vertex 8.75697 -84.2787 694.591
      vertex 8.4261 84.2787 691.929
      vertex 8.75697 84.2787 694.591
    endloop
  endfacet
  facet normal 0.992364 0 -0.123345
    outer loop
      vertex 8.4261 84.2787 691.929
      vertex 8.75697 -84.2787 694.591
      vertex 8.4261 -84.2787 691.929
    endloop
  endfacet
  facet normal 0.918787 0 -0.394755
    outer loop
      vertex 14.7246 -84.2787 715.153
      vertex 13.6638 84.2787 712.684
      vertex 14.7246 84.2787 715.153
    endloop
  endfacet
  facet normal 0.918787 0 -0.394755
    outer loop
      vertex 13.6638 84.2787 712.684
      vertex 14.7246 -84.2787 715.153
      vertex 13.6638 -84.2787 712.684
    endloop
  endfacet
  facet normal 0.815851 0 -0.578263
    outer loop
      vertex 22.855 -84.2787 729.066
      vertex 21.2978 84.2787 726.869
      vertex 22.855 84.2787 729.066
    endloop
  endfacet
  facet normal 0.815851 0 -0.578263
    outer loop
      vertex 21.2978 84.2787 726.869
      vertex 22.855 -84.2787 729.066
      vertex 21.2978 -84.2787 726.869
    endloop
  endfacet
  facet normal 0.835571 0 -0.549382
    outer loop
      vertex 21.2978 -84.2787 726.869
      vertex 19.8191 84.2787 724.62
      vertex 21.2978 84.2787 726.869
    endloop
  endfacet
  facet normal 0.835571 0 -0.549382
    outer loop
      vertex 19.8191 84.2787 724.62
      vertex 21.2978 -84.2787 726.869
      vertex 19.8191 -84.2787 724.62
    endloop
  endfacet
  facet normal 0 -1 0
    outer loop
      vertex 51.6846 84.2787 752.967
      vertex 55 84.2787 754.459
      vertex 54.1452 84.2787 754.101
    endloop
  endfacet
  facet normal 0 -1 0
    outer loop
      vertex 49.2656 84.2787 751.749
      vertex 55 84.2787 754.459
      vertex 51.6846 84.2787 752.967
    endloop
  endfacet
  facet normal 0 -1 0
    outer loop
      vertex 46.891 84.2787 750.449
      vertex 55 84.2787 754.459
      vertex 49.2656 84.2787 751.749
    endloop
  endfacet
  facet normal 0 -1 0
    outer loop
      vertex 44.5638 84.2787 749.067
      vertex 55 84.2787 754.459
      vertex 46.891 84.2787 750.449
    endloop
  endfacet
  facet normal 0 -1 0
    outer loop
      vertex 42.2869 84.2787 747.606
      vertex 55 84.2787 754.459
      vertex 44.5638 84.2787 749.067
    endloop
  endfacet
  facet normal 0 -1 0
    outer loop
      vertex 40.0629 84.2787 746.068
      vertex 55 84.2787 754.459
      vertex 42.2869 84.2787 747.606
    endloop
  endfacet
  facet normal 0 -1 0
    outer loop
      vertex 37.8946 84.2787 744.454
      vertex 55 84.2787 754.459
      vertex 40.0629 84.2787 746.068
    endloop
  endfacet
  facet normal 0 -1 0
    outer loop
      vertex 35.7847 84.2787 742.765
      vertex 55 84.2787 754.459
      vertex 37.8946 84.2787 744.454
    endloop
  endfacet
  facet normal 0 -1 0
    outer loop
      vertex 33.7357 84.2787 741.006
      vertex 55 84.2787 754.459
      vertex 35.7847 84.2787 742.765
    endloop
  endfacet
  facet normal 0 -1 0
    outer loop
      vertex 31.7501 84.2787 739.176
      vertex 55 84.2787 754.459
      vertex 33.7357 84.2787 741.006
    endloop
  endfacet
  facet normal 0 -1 0
    outer loop
      vertex 29.8303 84.2787 737.28
      vertex 55 84.2787 754.459
      vertex 31.7501 84.2787 739.176
    endloop
  endfacet
  facet normal 0 -1 0
    outer loop
      vertex 27.9787 84.2787 735.318
      vertex 55 84.2787 754.459
      vertex 29.8303 84.2787 737.28
    endloop
  endfacet
  facet normal 0 -1 0
    outer loop
      vertex 26.1975 84.2787 733.293
      vertex 55 84.2787 754.459
      vertex 27.9787 84.2787 735.318
    endloop
  endfacet
  facet normal 0 -1 0
    outer loop
      vertex 24.4889 84.2787 731.209
      vertex 55 84.2787 754.459
      vertex 26.1975 84.2787 733.293
    endloop
  endfacet
  facet normal 0 -1 0
    outer loop
      vertex 22.855 84.2787 729.066
      vertex 55 84.2787 754.459
      vertex 24.4889 84.2787 731.209
    endloop
  endfacet
  facet normal 0 -1 0
    outer loop
      vertex 21.2978 84.2787 726.869
      vertex 55 84.2787 754.459
      vertex 22.855 84.2787 729.066
    endloop
  endfacet
  facet normal 0 -1 0
    outer loop
      vertex 19.8191 84.2787 724.62
      vertex 55 84.2787 754.459
      vertex 21.2978 84.2787 726.869
    endloop
  endfacet
  facet normal 0 -1 0
    outer loop
      vertex 18.4208 84.2787 722.32
      vertex 55 84.2787 754.459
      vertex 19.8191 84.2787 724.62
    endloop
  endfacet
  facet normal 0 -1 0
    outer loop
      vertex 17.1046 84.2787 719.974
      vertex 55 84.2787 754.459
      vertex 18.4208 84.2787 722.32
    endloop
  endfacet
  facet normal 0 -1 0
    outer loop
      vertex 15.872 84.2787 717.584
      vertex 55 84.2787 754.459
      vertex 17.1046 84.2787 719.974
    endloop
  endfacet
  facet normal 0 -1 0
    outer loop
      vertex 14.7246 84.2787 715.153
      vertex 55 84.2787 754.459
      vertex 15.872 84.2787 717.584
    endloop
  endfacet
  facet normal 0 -1 0
    outer loop
      vertex 13.6638 84.2787 712.684
      vertex 55 84.2787 754.459
      vertex 14.7246 84.2787 715.153
    endloop
  endfacet
  facet normal 0 -1 0
    outer loop
      vertex 12.6908 84.2787 710.18
      vertex 55 84.2787 754.459
      vertex 13.6638 84.2787 712.684
    endloop
  endfacet
  facet normal 0 -1 0
    outer loop
      vertex 11.8069 84.2787 707.644
      vertex 55 84.2787 754.459
      vertex 12.6908 84.2787 710.18
    endloop
  endfacet
  facet normal 0 -1 0
    outer loop
      vertex 11.0131 84.2787 705.078
      vertex 55 84.2787 754.459
      vertex 11.8069 84.2787 707.644
    endloop
  endfacet
  facet normal 0 -1 0
    outer loop
      vertex 10.3105 84.2787 702.487
      vertex 55 84.2787 754.459
      vertex 11.0131 84.2787 705.078
    endloop
  endfacet
  facet normal 0 -1 0
    outer loop
      vertex 9.69972 84.2787 699.874
      vertex 55 84.2787 754.459
      vertex 10.3105 84.2787 702.487
    endloop
  endfacet
  facet normal 0 -1 0
    outer loop
      vertex 9.18168 84.2787 697.241
      vertex 55 84.2787 754.459
      vertex 9.69972 84.2787 699.874
    endloop
  endfacet
  facet normal 0 -1 0
    outer loop
      vertex 8.75697 84.2787 694.591
      vertex 55 84.2787 754.459
      vertex 9.18168 84.2787 697.241
    endloop
  endfacet
  facet normal 0 -1 0
    outer loop
      vertex 8.4261 84.2787 691.929
      vertex 55 84.2787 754.459
      vertex 8.75697 84.2787 694.591
    endloop
  endfacet
  facet normal 0 -1 0
    outer loop
      vertex 8.18947 84.2787 689.257
      vertex 55 84.2787 754.459
      vertex 8.4261 84.2787 691.929
    endloop
  endfacet
  facet normal 0 -1 0
    outer loop
      vertex 8.04738 84.2787 686.578
      vertex 55 84.2787 754.459
      vertex 8.18947 84.2787 689.257
    endloop
  endfacet
  facet normal 0 -1 0
    outer loop
      vertex 8 84.2787 683.896
      vertex 55 84.2787 754.459
      vertex 8.04738 84.2787 686.578
    endloop
  endfacet
  facet normal 0 -1 0
    outer loop
      vertex 8 84.2787 683.896
      vertex 55 84.2787 609.642
      vertex 55 84.2787 754.459
    endloop
  endfacet
  facet normal 0 -1 0
    outer loop
      vertex 8 84.2787 8.104
      vertex 55 84.2787 609.642
      vertex 8 84.2787 683.896
    endloop
  endfacet
  facet normal 0 -1 -0
    outer loop
      vertex 55 84.2787 609.642
      vertex 8 84.2787 8.104
      vertex 55 84.2787 8.104
    endloop
  endfacet
  facet normal -0 0 1
    outer loop
      vertex 8 84.2787 8.104
      vertex 55 -84.2787 8.104
      vertex 55 84.2787 8.104
    endloop
  endfacet
  facet normal 0 0 1
    outer loop
      vertex 55 -84.2787 8.104
      vertex 8 84.2787 8.104
      vertex 8 -84.2787 8.104
    endloop
  endfacet
  facet normal 1 -0 0
    outer loop
      vertex 8 -84.2787 683.896
      vertex 8 84.2787 8.104
      vertex 8 84.2787 683.896
    endloop
  endfacet
  facet normal 1 0 0
    outer loop
      vertex 8 84.2787 8.104
      vertex 8 -84.2787 683.896
      vertex 8 -84.2787 8.104
    endloop
  endfacet
endsolid OpenSCAD_Model
