solid OpenSCAD_Model
  facet normal 1 -0 0
    outer loop
      vertex 13.5 -6 3.5
      vertex 13.5 6 2.5
      vertex 13.5 6 3.5
    endloop
  endfacet
  facet normal 1 0 0
    outer loop
      vertex 13.5 6 2.5
      vertex 13.5 -6 3.5
      vertex 13.5 -6 2.5
    endloop
  endfacet
  facet normal -0 0 1
    outer loop
      vertex -13.5 6 3.5
      vertex -10.5 -6 3.5
      vertex -10.5 6 3.5
    endloop
  endfacet
  facet normal 0 0 1
    outer loop
      vertex -10.5 -6 3.5
      vertex -13.5 6 3.5
      vertex -13.5 -6 3.5
    endloop
  endfacet
  facet normal 0 0 1
    outer loop
      vertex -10.5 6 3.5
      vertex 10.5 6 3.5
      vertex 10.5 8 3.5
    endloop
  endfacet
  facet normal 0 0 1
    outer loop
      vertex 10.5 6 3.5
      vertex -10.5 6 3.5
      vertex 10.5 -6 3.5
    endloop
  endfacet
  facet normal 0 0 1
    outer loop
      vertex -10.5 6 3.5
      vertex 10.5 8 3.5
      vertex -10.5 8 3.5
    endloop
  endfacet
  facet normal 0 0 1
    outer loop
      vertex -10.5 -6 3.5
      vertex 10.5 -6 3.5
      vertex -10.5 6 3.5
    endloop
  endfacet
  facet normal 0 0 1
    outer loop
      vertex 10.5 -6 3.5
      vertex -10.5 -6 3.5
      vertex 10.5 -8 3.5
    endloop
  endfacet
  facet normal 0 0 1
    outer loop
      vertex 10.5 -8 3.5
      vertex -10.5 -6 3.5
      vertex -10.5 -8 3.5
    endloop
  endfacet
  facet normal -0 0 1
    outer loop
      vertex 10.5 6 3.5
      vertex 13.5 -6 3.5
      vertex 13.5 6 3.5
    endloop
  endfacet
  facet normal 0 0 1
    outer loop
      vertex 13.5 -6 3.5
      vertex 10.5 6 3.5
      vertex 10.5 -6 3.5
    endloop
  endfacet
  facet normal 0 0 -1
    outer loop
      vertex -13.5 -6 2.5
      vertex -10.5 6 2.5
      vertex -10.5 -6 2.5
    endloop
  endfacet
  facet normal -0 0 -1
    outer loop
      vertex -10.5 6 2.5
      vertex -13.5 -6 2.5
      vertex -13.5 6 2.5
    endloop
  endfacet
  facet normal 0 0 -1
    outer loop
      vertex -10.5 -6 2.5
      vertex 10.5 -6 2.5
      vertex 10.5 -9 2.5
    endloop
  endfacet
  facet normal 0 0 -1
    outer loop
      vertex 10.5 -6 2.5
      vertex -10.5 -6 2.5
      vertex 10.5 6 2.5
    endloop
  endfacet
  facet normal 0 0 -1
    outer loop
      vertex -10.5 -6 2.5
      vertex 10.5 -9 2.5
      vertex -10.5 -9 2.5
    endloop
  endfacet
  facet normal 0 0 -1
    outer loop
      vertex -10.5 6 2.5
      vertex 10.5 6 2.5
      vertex -10.5 -6 2.5
    endloop
  endfacet
  facet normal 0 0 -1
    outer loop
      vertex 10.5 6 2.5
      vertex -10.5 6 2.5
      vertex 10.5 9 2.5
    endloop
  endfacet
  facet normal -0 0 -1
    outer loop
      vertex 10.5 9 2.5
      vertex -10.5 6 2.5
      vertex -10.5 9 2.5
    endloop
  endfacet
  facet normal 0 0 -1
    outer loop
      vertex 10.5 -6 2.5
      vertex 13.5 6 2.5
      vertex 13.5 -6 2.5
    endloop
  endfacet
  facet normal -0 0 -1
    outer loop
      vertex 13.5 6 2.5
      vertex 10.5 -6 2.5
      vertex 10.5 6 2.5
    endloop
  endfacet
  facet normal -1 0 0
    outer loop
      vertex -13.5 -6 2.5
      vertex -13.5 6 3.5
      vertex -13.5 6 2.5
    endloop
  endfacet
  facet normal -1 -0 0
    outer loop
      vertex -13.5 6 3.5
      vertex -13.5 -6 2.5
      vertex -13.5 -6 3.5
    endloop
  endfacet
  facet normal 0 1 -0
    outer loop
      vertex -10.5 6 2.5
      vertex -13.5 6 3.5
      vertex -10.5 6 3.5
    endloop
  endfacet
  facet normal 0 1 0
    outer loop
      vertex -13.5 6 3.5
      vertex -10.5 6 2.5
      vertex -13.5 6 2.5
    endloop
  endfacet
  facet normal 0 1 -0
    outer loop
      vertex 13.5 6 2.5
      vertex 10.5 6 3.5
      vertex 13.5 6 3.5
    endloop
  endfacet
  facet normal 0 1 0
    outer loop
      vertex 10.5 6 3.5
      vertex 13.5 6 2.5
      vertex 10.5 6 2.5
    endloop
  endfacet
  facet normal 0 -1 0
    outer loop
      vertex -13.5 -6 2.5
      vertex -10.5 -6 3.5
      vertex -13.5 -6 3.5
    endloop
  endfacet
  facet normal 0 -1 -0
    outer loop
      vertex -10.5 -6 3.5
      vertex -13.5 -6 2.5
      vertex -10.5 -6 2.5
    endloop
  endfacet
  facet normal 0 -1 0
    outer loop
      vertex 10.5 -6 2.5
      vertex 13.5 -6 3.5
      vertex 10.5 -6 3.5
    endloop
  endfacet
  facet normal 0 -1 -0
    outer loop
      vertex 13.5 -6 3.5
      vertex 10.5 -6 2.5
      vertex 13.5 -6 2.5
    endloop
  endfacet
  facet normal 1 0 0
    outer loop
      vertex 10.5 8 3.5
      vertex 10.5 9 8.5
      vertex 10.5 8 8.5
    endloop
  endfacet
  facet normal 1 0 0
    outer loop
      vertex 10.5 9 8.5
      vertex 10.5 8 3.5
      vertex 10.5 9 2.5
    endloop
  endfacet
  facet normal 1 0 0
    outer loop
      vertex 10.5 6 2.5
      vertex 10.5 8 3.5
      vertex 10.5 6 3.5
    endloop
  endfacet
  facet normal 1 0 0
    outer loop
      vertex 10.5 8 3.5
      vertex 10.5 6 2.5
      vertex 10.5 9 2.5
    endloop
  endfacet
  facet normal 1 0 0
    outer loop
      vertex 10.5 -8 8.5
      vertex 10.5 -9 8.5
      vertex 10.5 -8 3.5
    endloop
  endfacet
  facet normal 1 -0 0
    outer loop
      vertex 10.5 -8 3.5
      vertex 10.5 -6 2.5
      vertex 10.5 -6 3.5
    endloop
  endfacet
  facet normal 1 0 0
    outer loop
      vertex 10.5 -8 3.5
      vertex 10.5 -9 2.5
      vertex 10.5 -6 2.5
    endloop
  endfacet
  facet normal 1 0 0
    outer loop
      vertex 10.5 -9 2.5
      vertex 10.5 -8 3.5
      vertex 10.5 -9 8.5
    endloop
  endfacet
  facet normal -1 0 0
    outer loop
      vertex -10.5 9 2.5
      vertex -10.5 8 3.5
      vertex -10.5 9 8.5
    endloop
  endfacet
  facet normal -1 0 0
    outer loop
      vertex -10.5 6 2.5
      vertex -10.5 8 3.5
      vertex -10.5 9 2.5
    endloop
  endfacet
  facet normal -1 -0 0
    outer loop
      vertex -10.5 8 3.5
      vertex -10.5 6 2.5
      vertex -10.5 6 3.5
    endloop
  endfacet
  facet normal -1 -0 0
    outer loop
      vertex -10.5 9 8.5
      vertex -10.5 8 3.5
      vertex -10.5 8 8.5
    endloop
  endfacet
  facet normal -1 0 0
    outer loop
      vertex -10.5 -6 2.5
      vertex -10.5 -8 3.5
      vertex -10.5 -6 3.5
    endloop
  endfacet
  facet normal -1 0 0
    outer loop
      vertex -10.5 -9 2.5
      vertex -10.5 -8 3.5
      vertex -10.5 -6 2.5
    endloop
  endfacet
  facet normal -1 0 0
    outer loop
      vertex -10.5 -9 8.5
      vertex -10.5 -8 3.5
      vertex -10.5 -9 2.5
    endloop
  endfacet
  facet normal -1 0 0
    outer loop
      vertex -10.5 -8 3.5
      vertex -10.5 -9 8.5
      vertex -10.5 -8 8.5
    endloop
  endfacet
  facet normal 0 1 -0
    outer loop
      vertex 10.5 9 2.5
      vertex -10.5 9 8.5
      vertex 10.5 9 8.5
    endloop
  endfacet
  facet normal 0 1 0
    outer loop
      vertex -10.5 9 8.5
      vertex 10.5 9 2.5
      vertex -10.5 9 2.5
    endloop
  endfacet
  facet normal 0 -1 0
    outer loop
      vertex -10.5 -9 2.5
      vertex 10.5 -9 8.5
      vertex -10.5 -9 8.5
    endloop
  endfacet
  facet normal 0 -1 -0
    outer loop
      vertex 10.5 -9 8.5
      vertex -10.5 -9 2.5
      vertex 10.5 -9 2.5
    endloop
  endfacet
  facet normal -0 0 1
    outer loop
      vertex -10.5 9 8.5
      vertex 10.5 8 8.5
      vertex 10.5 9 8.5
    endloop
  endfacet
  facet normal 0 0 1
    outer loop
      vertex 10.5 8 8.5
      vertex -10.5 9 8.5
      vertex -10.5 8 8.5
    endloop
  endfacet
  facet normal 0 -1 0
    outer loop
      vertex -10.5 8 3.5
      vertex 10.5 8 8.5
      vertex -10.5 8 8.5
    endloop
  endfacet
  facet normal 0 -1 -0
    outer loop
      vertex 10.5 8 8.5
      vertex -10.5 8 3.5
      vertex 10.5 8 3.5
    endloop
  endfacet
  facet normal -0 0 1
    outer loop
      vertex -10.5 -8 8.5
      vertex 10.5 -9 8.5
      vertex 10.5 -8 8.5
    endloop
  endfacet
  facet normal 0 0 1
    outer loop
      vertex 10.5 -9 8.5
      vertex -10.5 -8 8.5
      vertex -10.5 -9 8.5
    endloop
  endfacet
  facet normal 0 1 -0
    outer loop
      vertex 10.5 -8 3.5
      vertex -10.5 -8 8.5
      vertex 10.5 -8 8.5
    endloop
  endfacet
  facet normal 0 1 0
    outer loop
      vertex -10.5 -8 8.5
      vertex 10.5 -8 3.5
      vertex -10.5 -8 3.5
    endloop
  endfacet
endsolid OpenSCAD_Model
