solid OpenSCAD_Model
  facet normal 1 -0 0
    outer loop
      vertex 14.75 -6.75 3.35
      vertex 14.75 6.75 2.5
      vertex 14.75 6.75 3.35
    endloop
  endfacet
  facet normal 1 0 0
    outer loop
      vertex 14.75 6.75 2.5
      vertex 14.75 -6.75 3.35
      vertex 14.75 -6.75 2.5
    endloop
  endfacet
  facet normal -0 0 1
    outer loop
      vertex -14.75 6.75 3.35
      vertex -11.75 -6.75 3.35
      vertex -11.75 6.75 3.35
    endloop
  endfacet
  facet normal 0 0 1
    outer loop
      vertex -11.75 -6.75 3.35
      vertex -14.75 6.75 3.35
      vertex -14.75 -6.75 3.35
    endloop
  endfacet
  facet normal 0 0 1
    outer loop
      vertex -11.75 6.75 3.35
      vertex 11.75 6.75 3.35
      vertex 11.75 9.05 3.35
    endloop
  endfacet
  facet normal 0 0 1
    outer loop
      vertex 11.75 6.75 3.35
      vertex -11.75 6.75 3.35
      vertex 11.75 -6.75 3.35
    endloop
  endfacet
  facet normal 0 0 1
    outer loop
      vertex -11.75 6.75 3.35
      vertex 11.75 9.05 3.35
      vertex -11.75 9.05 3.35
    endloop
  endfacet
  facet normal 0 0 1
    outer loop
      vertex -11.75 -6.75 3.35
      vertex 11.75 -6.75 3.35
      vertex -11.75 6.75 3.35
    endloop
  endfacet
  facet normal 0 0 1
    outer loop
      vertex 11.75 -6.75 3.35
      vertex -11.75 -6.75 3.35
      vertex 11.75 -9.05 3.35
    endloop
  endfacet
  facet normal 0 0 1
    outer loop
      vertex 11.75 -9.05 3.35
      vertex -11.75 -6.75 3.35
      vertex -11.75 -9.05 3.35
    endloop
  endfacet
  facet normal -0 0 1
    outer loop
      vertex 11.75 6.75 3.35
      vertex 14.75 -6.75 3.35
      vertex 14.75 6.75 3.35
    endloop
  endfacet
  facet normal 0 0 1
    outer loop
      vertex 14.75 -6.75 3.35
      vertex 11.75 6.75 3.35
      vertex 11.75 -6.75 3.35
    endloop
  endfacet
  facet normal -1 0 0
    outer loop
      vertex -14.75 -6.75 2.5
      vertex -14.75 6.75 3.35
      vertex -14.75 6.75 2.5
    endloop
  endfacet
  facet normal -1 -0 0
    outer loop
      vertex -14.75 6.75 3.35
      vertex -14.75 -6.75 2.5
      vertex -14.75 -6.75 3.35
    endloop
  endfacet
  facet normal 0 1 -0
    outer loop
      vertex -11.75 6.75 2.5
      vertex -14.75 6.75 3.35
      vertex -11.75 6.75 3.35
    endloop
  endfacet
  facet normal 0 1 0
    outer loop
      vertex -14.75 6.75 3.35
      vertex -11.75 6.75 2.5
      vertex -14.75 6.75 2.5
    endloop
  endfacet
  facet normal 0 1 -0
    outer loop
      vertex 14.75 6.75 2.5
      vertex 11.75 6.75 3.35
      vertex 14.75 6.75 3.35
    endloop
  endfacet
  facet normal 0 1 0
    outer loop
      vertex 11.75 6.75 3.35
      vertex 14.75 6.75 2.5
      vertex 11.75 6.75 2.5
    endloop
  endfacet
  facet normal 0 -1 0
    outer loop
      vertex -14.75 -6.75 2.5
      vertex -11.75 -6.75 3.35
      vertex -14.75 -6.75 3.35
    endloop
  endfacet
  facet normal 0 -1 -0
    outer loop
      vertex -11.75 -6.75 3.35
      vertex -14.75 -6.75 2.5
      vertex -11.75 -6.75 2.5
    endloop
  endfacet
  facet normal 0 -1 0
    outer loop
      vertex 11.75 -6.75 2.5
      vertex 14.75 -6.75 3.35
      vertex 11.75 -6.75 3.35
    endloop
  endfacet
  facet normal 0 -1 -0
    outer loop
      vertex 14.75 -6.75 3.35
      vertex 11.75 -6.75 2.5
      vertex 14.75 -6.75 2.5
    endloop
  endfacet
  facet normal 1 0 0
    outer loop
      vertex 11.75 9.05 3.35
      vertex 11.75 9.75 8.2
      vertex 11.75 9.05 8.2
    endloop
  endfacet
  facet normal 1 0 0
    outer loop
      vertex 11.75 9.75 8.2
      vertex 11.75 9.05 3.35
      vertex 11.75 9.75 2.5
    endloop
  endfacet
  facet normal 1 0 0
    outer loop
      vertex 11.75 6.75 2.5
      vertex 11.75 9.05 3.35
      vertex 11.75 6.75 3.35
    endloop
  endfacet
  facet normal 1 0 0
    outer loop
      vertex 11.75 9.05 3.35
      vertex 11.75 6.75 2.5
      vertex 11.75 9.75 2.5
    endloop
  endfacet
  facet normal 1 0 0
    outer loop
      vertex 11.75 -9.05 8.2
      vertex 11.75 -9.75 8.2
      vertex 11.75 -9.05 3.35
    endloop
  endfacet
  facet normal 1 -0 0
    outer loop
      vertex 11.75 -9.05 3.35
      vertex 11.75 -6.75 2.5
      vertex 11.75 -6.75 3.35
    endloop
  endfacet
  facet normal 1 0 0
    outer loop
      vertex 11.75 -9.05 3.35
      vertex 11.75 -9.75 2.5
      vertex 11.75 -6.75 2.5
    endloop
  endfacet
  facet normal 1 0 0
    outer loop
      vertex 11.75 -9.75 2.5
      vertex 11.75 -9.05 3.35
      vertex 11.75 -9.75 8.2
    endloop
  endfacet
  facet normal -1 0 0
    outer loop
      vertex -11.75 9.75 2.5
      vertex -11.75 9.05 3.35
      vertex -11.75 9.75 8.2
    endloop
  endfacet
  facet normal -1 0 0
    outer loop
      vertex -11.75 6.75 2.5
      vertex -11.75 9.05 3.35
      vertex -11.75 9.75 2.5
    endloop
  endfacet
  facet normal -1 -0 0
    outer loop
      vertex -11.75 9.05 3.35
      vertex -11.75 6.75 2.5
      vertex -11.75 6.75 3.35
    endloop
  endfacet
  facet normal -1 -0 0
    outer loop
      vertex -11.75 9.75 8.2
      vertex -11.75 9.05 3.35
      vertex -11.75 9.05 8.2
    endloop
  endfacet
  facet normal -1 0 0
    outer loop
      vertex -11.75 -6.75 2.5
      vertex -11.75 -9.05 3.35
      vertex -11.75 -6.75 3.35
    endloop
  endfacet
  facet normal -1 0 0
    outer loop
      vertex -11.75 -9.75 2.5
      vertex -11.75 -9.05 3.35
      vertex -11.75 -6.75 2.5
    endloop
  endfacet
  facet normal -1 0 0
    outer loop
      vertex -11.75 -9.75 8.2
      vertex -11.75 -9.05 3.35
      vertex -11.75 -9.75 2.5
    endloop
  endfacet
  facet normal -1 0 0
    outer loop
      vertex -11.75 -9.05 3.35
      vertex -11.75 -9.75 8.2
      vertex -11.75 -9.05 8.2
    endloop
  endfacet
  facet normal 0 1 -0
    outer loop
      vertex 11.75 9.75 2.5
      vertex -11.75 9.75 8.2
      vertex 11.75 9.75 8.2
    endloop
  endfacet
  facet normal 0 1 0
    outer loop
      vertex -11.75 9.75 8.2
      vertex 11.75 9.75 2.5
      vertex -11.75 9.75 2.5
    endloop
  endfacet
  facet normal 0 -1 0
    outer loop
      vertex -11.75 -9.75 2.5
      vertex 11.75 -9.75 8.2
      vertex -11.75 -9.75 8.2
    endloop
  endfacet
  facet normal 0 -1 -0
    outer loop
      vertex 11.75 -9.75 8.2
      vertex -11.75 -9.75 2.5
      vertex 11.75 -9.75 2.5
    endloop
  endfacet
  facet normal -0 0 1
    outer loop
      vertex -11.75 9.75 8.2
      vertex 11.75 9.05 8.2
      vertex 11.75 9.75 8.2
    endloop
  endfacet
  facet normal 0 0 1
    outer loop
      vertex 11.75 9.05 8.2
      vertex -11.75 9.75 8.2
      vertex -11.75 9.05 8.2
    endloop
  endfacet
  facet normal 0 -1 0
    outer loop
      vertex -11.75 9.05 3.35
      vertex 11.75 9.05 8.2
      vertex -11.75 9.05 8.2
    endloop
  endfacet
  facet normal 0 -1 -0
    outer loop
      vertex 11.75 9.05 8.2
      vertex -11.75 9.05 3.35
      vertex 11.75 9.05 3.35
    endloop
  endfacet
  facet normal -0 0 1
    outer loop
      vertex -11.75 -9.05 8.2
      vertex 11.75 -9.75 8.2
      vertex 11.75 -9.05 8.2
    endloop
  endfacet
  facet normal 0 0 1
    outer loop
      vertex 11.75 -9.75 8.2
      vertex -11.75 -9.05 8.2
      vertex -11.75 -9.75 8.2
    endloop
  endfacet
  facet normal 0 1 -0
    outer loop
      vertex 11.75 -9.05 3.35
      vertex -11.75 -9.05 8.2
      vertex 11.75 -9.05 8.2
    endloop
  endfacet
  facet normal 0 1 0
    outer loop
      vertex -11.75 -9.05 8.2
      vertex 11.75 -9.05 3.35
      vertex -11.75 -9.05 3.35
    endloop
  endfacet
  facet normal 0 0 -1
    outer loop
      vertex -14.75 -6.75 2.5
      vertex -11.75 6.75 2.5
      vertex -11.75 -6.75 2.5
    endloop
  endfacet
  facet normal -0 0 -1
    outer loop
      vertex -11.75 6.75 2.5
      vertex -14.75 -6.75 2.5
      vertex -14.75 6.75 2.5
    endloop
  endfacet
  facet normal 0 0 -1
    outer loop
      vertex -11.75 -6.75 2.5
      vertex 11.75 -6.75 2.5
      vertex 11.75 -9.75 2.5
    endloop
  endfacet
  facet normal 0 0 -1
    outer loop
      vertex 11.75 -6.75 2.5
      vertex -11.75 -6.75 2.5
      vertex 11.75 6.75 2.5
    endloop
  endfacet
  facet normal 0 0 -1
    outer loop
      vertex -11.75 -6.75 2.5
      vertex 11.75 -9.75 2.5
      vertex -11.75 -9.75 2.5
    endloop
  endfacet
  facet normal 0 0 -1
    outer loop
      vertex -11.75 6.75 2.5
      vertex 11.75 6.75 2.5
      vertex -11.75 -6.75 2.5
    endloop
  endfacet
  facet normal 0 0 -1
    outer loop
      vertex 11.75 6.75 2.5
      vertex -11.75 6.75 2.5
      vertex 11.75 9.75 2.5
    endloop
  endfacet
  facet normal -0 0 -1
    outer loop
      vertex 11.75 9.75 2.5
      vertex -11.75 6.75 2.5
      vertex -11.75 9.75 2.5
    endloop
  endfacet
  facet normal 0 0 -1
    outer loop
      vertex 11.75 -6.75 2.5
      vertex 14.75 6.75 2.5
      vertex 14.75 -6.75 2.5
    endloop
  endfacet
  facet normal -0 0 -1
    outer loop
      vertex 14.75 6.75 2.5
      vertex 11.75 -6.75 2.5
      vertex 11.75 6.75 2.5
    endloop
  endfacet
endsolid OpenSCAD_Model
