solid OpenSCAD_Model
  facet normal 0 1 -0
    outer loop
      vertex 6.55 -2.68468 -0.0499992
      vertex 3.45 -2.68468 2.1
      vertex 6.55 -2.68468 2.1
    endloop
  endfacet
  facet normal 0 1 0
    outer loop
      vertex 3.45 -2.68468 2.1
      vertex 6.55 -2.68468 -0.0499992
      vertex 3.45 -2.68468 -0.0499992
    endloop
  endfacet
  facet normal -0.866026 0.5 0
    outer loop
      vertex 6.55 -2.68468 -0.0499992
      vertex 8.1 0 2.1
      vertex 8.1 0 -0.0499992
    endloop
  endfacet
  facet normal -0.866026 0.5 0
    outer loop
      vertex 8.1 0 2.1
      vertex 6.55 -2.68468 -0.0499992
      vertex 6.55 -2.68468 2.1
    endloop
  endfacet
  facet normal 0 -1 0
    outer loop
      vertex 3.45 2.68468 -0.0499992
      vertex 6.55 2.68468 2.1
      vertex 3.45 2.68468 2.1
    endloop
  endfacet
  facet normal 0 -1 -0
    outer loop
      vertex 6.55 2.68468 2.1
      vertex 3.45 2.68468 -0.0499992
      vertex 6.55 2.68468 -0.0499992
    endloop
  endfacet
  facet normal -0.866026 -0.5 0
    outer loop
      vertex 8.1 0 -0.0499992
      vertex 6.55 2.68468 2.1
      vertex 6.55 2.68468 -0.0499992
    endloop
  endfacet
  facet normal -0.866026 -0.5 0
    outer loop
      vertex 6.55 2.68468 2.1
      vertex 8.1 0 -0.0499992
      vertex 8.1 0 2.1
    endloop
  endfacet
  facet normal 0.866026 -0.5 0
    outer loop
      vertex 1.9 0 2.1
      vertex 3.45 2.68468 -0.0499992
      vertex 3.45 2.68468 2.1
    endloop
  endfacet
  facet normal 0.866026 -0.5 0
    outer loop
      vertex 3.45 2.68468 -0.0499992
      vertex 1.9 0 2.1
      vertex 1.9 0 -0.0499992
    endloop
  endfacet
  facet normal 0.866026 0.5 0
    outer loop
      vertex 3.45 -2.68468 2.1
      vertex 1.9 0 -0.0499992
      vertex 1.9 0 2.1
    endloop
  endfacet
  facet normal 0.866026 0.5 0
    outer loop
      vertex 1.9 0 -0.0499992
      vertex 3.45 -2.68468 2.1
      vertex 3.45 -2.68468 -0.0499992
    endloop
  endfacet
  facet normal 0 0 1
    outer loop
      vertex 8.1 0 -0.0499992
      vertex 6.57569 0.277837 -0.0499992
      vertex 6.6 0 -0.0499992
    endloop
  endfacet
  facet normal -0 0 1
    outer loop
      vertex 6.38564 0.799999 -0.0499992
      vertex 8.1 0 -0.0499992
      vertex 6.55 2.68468 -0.0499992
    endloop
  endfacet
  facet normal 0 0 1
    outer loop
      vertex 8.1 0 -0.0499992
      vertex 6.50351 0.547232 -0.0499992
      vertex 6.57569 0.277837 -0.0499992
    endloop
  endfacet
  facet normal 0 0 1
    outer loop
      vertex 8.1 0 -0.0499992
      vertex 6.38564 0.799999 -0.0499992
      vertex 6.50351 0.547232 -0.0499992
    endloop
  endfacet
  facet normal 0 0 1
    outer loop
      vertex 6.55 2.68468 -0.0499992
      vertex 6.22567 1.02846 -0.0499992
      vertex 6.38564 0.799999 -0.0499992
    endloop
  endfacet
  facet normal 0 0 1
    outer loop
      vertex 6.55 2.68468 -0.0499992
      vertex 6.02846 1.22567 -0.0499992
      vertex 6.22567 1.02846 -0.0499992
    endloop
  endfacet
  facet normal 0 0 1
    outer loop
      vertex 6.55 2.68468 -0.0499992
      vertex 5.8 1.38564 -0.0499992
      vertex 6.02846 1.22567 -0.0499992
    endloop
  endfacet
  facet normal 0 0 1
    outer loop
      vertex 6.55 2.68468 -0.0499992
      vertex 5.54723 1.50351 -0.0499992
      vertex 5.8 1.38564 -0.0499992
    endloop
  endfacet
  facet normal 0 0 1
    outer loop
      vertex 6.55 2.68468 -0.0499992
      vertex 5.27784 1.57569 -0.0499992
      vertex 5.54723 1.50351 -0.0499992
    endloop
  endfacet
  facet normal 0 0 1
    outer loop
      vertex 6.55 2.68468 -0.0499992
      vertex 5 1.6 -0.0499992
      vertex 5.27784 1.57569 -0.0499992
    endloop
  endfacet
  facet normal -0 0 1
    outer loop
      vertex 3.45 2.68468 -0.0499992
      vertex 5 1.6 -0.0499992
      vertex 6.55 2.68468 -0.0499992
    endloop
  endfacet
  facet normal 0 0 1
    outer loop
      vertex 5 1.6 -0.0499992
      vertex 3.45 2.68468 -0.0499992
      vertex 4.72216 1.57569 -0.0499992
    endloop
  endfacet
  facet normal 0 0 1
    outer loop
      vertex 4.72216 1.57569 -0.0499992
      vertex 3.45 2.68468 -0.0499992
      vertex 4.45277 1.50351 -0.0499992
    endloop
  endfacet
  facet normal 0 0 1
    outer loop
      vertex 4.45277 1.50351 -0.0499992
      vertex 3.45 2.68468 -0.0499992
      vertex 4.2 1.38564 -0.0499992
    endloop
  endfacet
  facet normal 0 0 1
    outer loop
      vertex 3.45 2.68468 -0.0499992
      vertex 3.97154 1.22567 -0.0499992
      vertex 4.2 1.38564 -0.0499992
    endloop
  endfacet
  facet normal 0 0 1
    outer loop
      vertex 3.45 2.68468 -0.0499992
      vertex 3.77433 1.02846 -0.0499992
      vertex 3.97154 1.22567 -0.0499992
    endloop
  endfacet
  facet normal 0 0 1
    outer loop
      vertex 3.45 2.68468 -0.0499992
      vertex 3.61436 0.799999 -0.0499992
      vertex 3.77433 1.02846 -0.0499992
    endloop
  endfacet
  facet normal 0 0 1
    outer loop
      vertex 1.9 0 -0.0499992
      vertex 3.61436 0.799999 -0.0499992
      vertex 3.45 2.68468 -0.0499992
    endloop
  endfacet
  facet normal 0 0 1
    outer loop
      vertex 3.61436 0.799999 -0.0499992
      vertex 1.9 0 -0.0499992
      vertex 3.49649 0.547232 -0.0499992
    endloop
  endfacet
  facet normal 0 0 1
    outer loop
      vertex 3.49649 0.547232 -0.0499992
      vertex 1.9 0 -0.0499992
      vertex 3.42431 0.277837 -0.0499992
    endloop
  endfacet
  facet normal 0 0 1
    outer loop
      vertex 3.42431 0.277837 -0.0499992
      vertex 1.9 0 -0.0499992
      vertex 3.4 0 -0.0499992
    endloop
  endfacet
  facet normal 0 0 1
    outer loop
      vertex 6.57569 -0.277837 -0.0499992
      vertex 8.1 0 -0.0499992
      vertex 6.6 0 -0.0499992
    endloop
  endfacet
  facet normal 0 0 1
    outer loop
      vertex 6.50351 -0.547232 -0.0499992
      vertex 8.1 0 -0.0499992
      vertex 6.57569 -0.277837 -0.0499992
    endloop
  endfacet
  facet normal 0 0 1
    outer loop
      vertex 6.38564 -0.799999 -0.0499992
      vertex 8.1 0 -0.0499992
      vertex 6.50351 -0.547232 -0.0499992
    endloop
  endfacet
  facet normal 0 0 1
    outer loop
      vertex 8.1 0 -0.0499992
      vertex 6.38564 -0.799999 -0.0499992
      vertex 6.55 -2.68468 -0.0499992
    endloop
  endfacet
  facet normal -0 0 1
    outer loop
      vertex 6.22567 -1.02846 -0.0499992
      vertex 6.55 -2.68468 -0.0499992
      vertex 6.38564 -0.799999 -0.0499992
    endloop
  endfacet
  facet normal -0 0 1
    outer loop
      vertex 6.02846 -1.22567 -0.0499992
      vertex 6.55 -2.68468 -0.0499992
      vertex 6.22567 -1.02846 -0.0499992
    endloop
  endfacet
  facet normal -0 0 1
    outer loop
      vertex 5.8 -1.38564 -0.0499992
      vertex 6.55 -2.68468 -0.0499992
      vertex 6.02846 -1.22567 -0.0499992
    endloop
  endfacet
  facet normal -0 0 1
    outer loop
      vertex 5.54723 -1.50351 -0.0499992
      vertex 6.55 -2.68468 -0.0499992
      vertex 5.8 -1.38564 -0.0499992
    endloop
  endfacet
  facet normal -0 0 1
    outer loop
      vertex 5.27784 -1.57569 -0.0499992
      vertex 6.55 -2.68468 -0.0499992
      vertex 5.54723 -1.50351 -0.0499992
    endloop
  endfacet
  facet normal -0 0 1
    outer loop
      vertex 5 -1.6 -0.0499992
      vertex 6.55 -2.68468 -0.0499992
      vertex 5.27784 -1.57569 -0.0499992
    endloop
  endfacet
  facet normal 0 0 1
    outer loop
      vertex 3.45 -2.68468 -0.0499992
      vertex 5 -1.6 -0.0499992
      vertex 4.72216 -1.57569 -0.0499992
    endloop
  endfacet
  facet normal 0 0 1
    outer loop
      vertex 3.45 -2.68468 -0.0499992
      vertex 4.72216 -1.57569 -0.0499992
      vertex 4.45277 -1.50351 -0.0499992
    endloop
  endfacet
  facet normal 0 0 1
    outer loop
      vertex 3.45 -2.68468 -0.0499992
      vertex 4.45277 -1.50351 -0.0499992
      vertex 4.2 -1.38564 -0.0499992
    endloop
  endfacet
  facet normal 0 0 1
    outer loop
      vertex 5 -1.6 -0.0499992
      vertex 3.45 -2.68468 -0.0499992
      vertex 6.55 -2.68468 -0.0499992
    endloop
  endfacet
  facet normal 0 0 1
    outer loop
      vertex 3.97154 -1.22567 -0.0499992
      vertex 3.45 -2.68468 -0.0499992
      vertex 4.2 -1.38564 -0.0499992
    endloop
  endfacet
  facet normal 0 0 1
    outer loop
      vertex 3.77433 -1.02846 -0.0499992
      vertex 3.45 -2.68468 -0.0499992
      vertex 3.97154 -1.22567 -0.0499992
    endloop
  endfacet
  facet normal 0 0 1
    outer loop
      vertex 3.61436 -0.799999 -0.0499992
      vertex 3.45 -2.68468 -0.0499992
      vertex 3.77433 -1.02846 -0.0499992
    endloop
  endfacet
  facet normal 0 0 1
    outer loop
      vertex 1.9 0 -0.0499992
      vertex 3.61436 -0.799999 -0.0499992
      vertex 3.49649 -0.547232 -0.0499992
    endloop
  endfacet
  facet normal 0 0 1
    outer loop
      vertex 1.9 0 -0.0499992
      vertex 3.49649 -0.547232 -0.0499992
      vertex 3.42431 -0.277837 -0.0499992
    endloop
  endfacet
  facet normal -0 0 1
    outer loop
      vertex 1.9 0 -0.0499992
      vertex 3.42431 -0.277837 -0.0499992
      vertex 3.4 0 -0.0499992
    endloop
  endfacet
  facet normal 0 0 1
    outer loop
      vertex 3.61436 -0.799999 -0.0499992
      vertex 1.9 0 -0.0499992
      vertex 3.45 -2.68468 -0.0499992
    endloop
  endfacet
  facet normal 0.25881 -0.965928 0
    outer loop
      vertex 4.45277 1.50351 -2.5
      vertex 4.72216 1.57569 -0.0499992
      vertex 4.45277 1.50351 -0.0499992
    endloop
  endfacet
  facet normal 0.25881 -0.965928 0
    outer loop
      vertex 4.72216 1.57569 -0.0499992
      vertex 4.45277 1.50351 -2.5
      vertex 4.72216 1.57569 -2.5
    endloop
  endfacet
  facet normal -0.96593 -0.258805 0
    outer loop
      vertex 6.57569 0.277837 -2.5
      vertex 6.50351 0.547232 -0.0499992
      vertex 6.50351 0.547232 -2.5
    endloop
  endfacet
  facet normal -0.96593 -0.258805 0
    outer loop
      vertex 6.50351 0.547232 -0.0499992
      vertex 6.57569 0.277837 -2.5
      vertex 6.57569 0.277837 -0.0499992
    endloop
  endfacet
  facet normal -0.996194 -0.0871643 0
    outer loop
      vertex 6.6 0 -2.5
      vertex 6.57569 0.277837 -0.0499992
      vertex 6.57569 0.277837 -2.5
    endloop
  endfacet
  facet normal -0.996194 -0.0871643 0
    outer loop
      vertex 6.57569 0.277837 -0.0499992
      vertex 6.6 0 -2.5
      vertex 6.6 0 -0.0499992
    endloop
  endfacet
  facet normal -0.906304 -0.422627 0
    outer loop
      vertex 6.50351 0.547232 -2.5
      vertex 6.38564 0.799999 -0.0499992
      vertex 6.38564 0.799999 -2.5
    endloop
  endfacet
  facet normal -0.906304 -0.422627 0
    outer loop
      vertex 6.38564 0.799999 -0.0499992
      vertex 6.50351 0.547232 -2.5
      vertex 6.50351 0.547232 -0.0499992
    endloop
  endfacet
  facet normal 0.906304 0.422627 0
    outer loop
      vertex 3.61436 -0.799999 -0.0499992
      vertex 3.49649 -0.547232 -2.5
      vertex 3.49649 -0.547232 -0.0499992
    endloop
  endfacet
  facet normal 0.906304 0.422627 0
    outer loop
      vertex 3.49649 -0.547232 -2.5
      vertex 3.61436 -0.799999 -0.0499992
      vertex 3.61436 -0.799999 -2.5
    endloop
  endfacet
  facet normal -0.906304 0.422627 0
    outer loop
      vertex 6.38564 -0.799999 -2.5
      vertex 6.50351 -0.547232 -0.0499992
      vertex 6.50351 -0.547232 -2.5
    endloop
  endfacet
  facet normal -0.906304 0.422627 0
    outer loop
      vertex 6.50351 -0.547232 -0.0499992
      vertex 6.38564 -0.799999 -2.5
      vertex 6.38564 -0.799999 -0.0499992
    endloop
  endfacet
  facet normal -0.819152 0.573576 0
    outer loop
      vertex 6.22567 -1.02846 -2.5
      vertex 6.38564 -0.799999 -0.0499992
      vertex 6.38564 -0.799999 -2.5
    endloop
  endfacet
  facet normal -0.819152 0.573576 0
    outer loop
      vertex 6.38564 -0.799999 -0.0499992
      vertex 6.22567 -1.02846 -2.5
      vertex 6.22567 -1.02846 -0.0499992
    endloop
  endfacet
  facet normal -0.996194 0.0871643 0
    outer loop
      vertex 6.57569 -0.277837 -2.5
      vertex 6.6 0 -0.0499992
      vertex 6.6 0 -2.5
    endloop
  endfacet
  facet normal -0.996194 0.0871643 0
    outer loop
      vertex 6.6 0 -0.0499992
      vertex 6.57569 -0.277837 -2.5
      vertex 6.57569 -0.277837 -0.0499992
    endloop
  endfacet
  facet normal -0.819152 -0.573576 0
    outer loop
      vertex 6.38564 0.799999 -2.5
      vertex 6.22567 1.02846 -0.0499992
      vertex 6.22567 1.02846 -2.5
    endloop
  endfacet
  facet normal -0.819152 -0.573576 0
    outer loop
      vertex 6.22567 1.02846 -0.0499992
      vertex 6.38564 0.799999 -2.5
      vertex 6.38564 0.799999 -0.0499992
    endloop
  endfacet
  facet normal 0.707107 -0.707107 0
    outer loop
      vertex 3.77433 1.02846 -0.0499992
      vertex 3.97154 1.22567 -2.5
      vertex 3.97154 1.22567 -0.0499992
    endloop
  endfacet
  facet normal 0.707107 -0.707107 0
    outer loop
      vertex 3.97154 1.22567 -2.5
      vertex 3.77433 1.02846 -0.0499992
      vertex 3.77433 1.02846 -2.5
    endloop
  endfacet
  facet normal 0.0871634 -0.996194 0
    outer loop
      vertex 4.72216 1.57569 -2.5
      vertex 5 1.6 -0.0499992
      vertex 4.72216 1.57569 -0.0499992
    endloop
  endfacet
  facet normal 0.0871634 -0.996194 0
    outer loop
      vertex 5 1.6 -0.0499992
      vertex 4.72216 1.57569 -2.5
      vertex 5 1.6 -2.5
    endloop
  endfacet
  facet normal 0.573578 -0.819151 0
    outer loop
      vertex 3.97154 1.22567 -2.5
      vertex 4.2 1.38564 -0.0499992
      vertex 3.97154 1.22567 -0.0499992
    endloop
  endfacet
  facet normal 0.573578 -0.819151 0
    outer loop
      vertex 4.2 1.38564 -0.0499992
      vertex 3.97154 1.22567 -2.5
      vertex 4.2 1.38564 -2.5
    endloop
  endfacet
  facet normal 0.422622 -0.906306 0
    outer loop
      vertex 4.2 1.38564 -2.5
      vertex 4.45277 1.50351 -0.0499992
      vertex 4.2 1.38564 -0.0499992
    endloop
  endfacet
  facet normal 0.422622 -0.906306 0
    outer loop
      vertex 4.45277 1.50351 -0.0499992
      vertex 4.2 1.38564 -2.5
      vertex 4.45277 1.50351 -2.5
    endloop
  endfacet
  facet normal -0.422622 0.906306 0
    outer loop
      vertex 5.8 -1.38564 -2.5
      vertex 5.54723 -1.50351 -0.0499992
      vertex 5.8 -1.38564 -0.0499992
    endloop
  endfacet
  facet normal -0.422622 0.906306 0
    outer loop
      vertex 5.54723 -1.50351 -0.0499992
      vertex 5.8 -1.38564 -2.5
      vertex 5.54723 -1.50351 -2.5
    endloop
  endfacet
  facet normal 0.996194 0.0871643 0
    outer loop
      vertex 3.42431 -0.277837 -0.0499992
      vertex 3.4 0 -2.5
      vertex 3.4 0 -0.0499992
    endloop
  endfacet
  facet normal 0.996194 0.0871643 0
    outer loop
      vertex 3.4 0 -2.5
      vertex 3.42431 -0.277837 -0.0499992
      vertex 3.42431 -0.277837 -2.5
    endloop
  endfacet
  facet normal -0.25881 -0.965928 0
    outer loop
      vertex 5.27784 1.57569 -2.5
      vertex 5.54723 1.50351 -0.0499992
      vertex 5.27784 1.57569 -0.0499992
    endloop
  endfacet
  facet normal -0.25881 -0.965928 -0
    outer loop
      vertex 5.54723 1.50351 -0.0499992
      vertex 5.27784 1.57569 -2.5
      vertex 5.54723 1.50351 -2.5
    endloop
  endfacet
  facet normal -0.573578 0.819151 0
    outer loop
      vertex 6.02846 -1.22567 -2.5
      vertex 5.8 -1.38564 -0.0499992
      vertex 6.02846 -1.22567 -0.0499992
    endloop
  endfacet
  facet normal -0.573578 0.819151 0
    outer loop
      vertex 5.8 -1.38564 -0.0499992
      vertex 6.02846 -1.22567 -2.5
      vertex 5.8 -1.38564 -2.5
    endloop
  endfacet
  facet normal 0.96593 -0.258805 0
    outer loop
      vertex 3.42431 0.277837 -0.0499992
      vertex 3.49649 0.547232 -2.5
      vertex 3.49649 0.547232 -0.0499992
    endloop
  endfacet
  facet normal 0.96593 -0.258805 0
    outer loop
      vertex 3.49649 0.547232 -2.5
      vertex 3.42431 0.277837 -0.0499992
      vertex 3.42431 0.277837 -2.5
    endloop
  endfacet
  facet normal -0.422622 -0.906306 0
    outer loop
      vertex 5.54723 1.50351 -2.5
      vertex 5.8 1.38564 -0.0499992
      vertex 5.54723 1.50351 -0.0499992
    endloop
  endfacet
  facet normal -0.422622 -0.906306 -0
    outer loop
      vertex 5.8 1.38564 -0.0499992
      vertex 5.54723 1.50351 -2.5
      vertex 5.8 1.38564 -2.5
    endloop
  endfacet
  facet normal 0.819152 -0.573576 0
    outer loop
      vertex 3.61436 0.799999 -0.0499992
      vertex 3.77433 1.02846 -2.5
      vertex 3.77433 1.02846 -0.0499992
    endloop
  endfacet
  facet normal 0.819152 -0.573576 0
    outer loop
      vertex 3.77433 1.02846 -2.5
      vertex 3.61436 0.799999 -0.0499992
      vertex 3.61436 0.799999 -2.5
    endloop
  endfacet
  facet normal 0.819152 0.573576 0
    outer loop
      vertex 3.77433 -1.02846 -0.0499992
      vertex 3.61436 -0.799999 -2.5
      vertex 3.61436 -0.799999 -0.0499992
    endloop
  endfacet
  facet normal 0.819152 0.573576 0
    outer loop
      vertex 3.61436 -0.799999 -2.5
      vertex 3.77433 -1.02846 -0.0499992
      vertex 3.77433 -1.02846 -2.5
    endloop
  endfacet
  facet normal -0.25881 0.965928 0
    outer loop
      vertex 5.54723 -1.50351 -2.5
      vertex 5.27784 -1.57569 -0.0499992
      vertex 5.54723 -1.50351 -0.0499992
    endloop
  endfacet
  facet normal -0.25881 0.965928 0
    outer loop
      vertex 5.27784 -1.57569 -0.0499992
      vertex 5.54723 -1.50351 -2.5
      vertex 5.27784 -1.57569 -2.5
    endloop
  endfacet
  facet normal -0.707107 0.707107 0
    outer loop
      vertex 6.02846 -1.22567 -2.5
      vertex 6.22567 -1.02846 -0.0499992
      vertex 6.22567 -1.02846 -2.5
    endloop
  endfacet
  facet normal -0.707107 0.707107 0
    outer loop
      vertex 6.22567 -1.02846 -0.0499992
      vertex 6.02846 -1.22567 -2.5
      vertex 6.02846 -1.22567 -0.0499992
    endloop
  endfacet
  facet normal -0.707107 -0.707107 0
    outer loop
      vertex 6.22567 1.02846 -2.5
      vertex 6.02846 1.22567 -0.0499992
      vertex 6.02846 1.22567 -2.5
    endloop
  endfacet
  facet normal -0.707107 -0.707107 0
    outer loop
      vertex 6.02846 1.22567 -0.0499992
      vertex 6.22567 1.02846 -2.5
      vertex 6.22567 1.02846 -0.0499992
    endloop
  endfacet
  facet normal -0.96593 0.258805 0
    outer loop
      vertex 6.50351 -0.547232 -2.5
      vertex 6.57569 -0.277837 -0.0499992
      vertex 6.57569 -0.277837 -2.5
    endloop
  endfacet
  facet normal -0.96593 0.258805 0
    outer loop
      vertex 6.57569 -0.277837 -0.0499992
      vertex 6.50351 -0.547232 -2.5
      vertex 6.50351 -0.547232 -0.0499992
    endloop
  endfacet
  facet normal -0.573578 -0.819151 0
    outer loop
      vertex 5.8 1.38564 -2.5
      vertex 6.02846 1.22567 -0.0499992
      vertex 5.8 1.38564 -0.0499992
    endloop
  endfacet
  facet normal -0.573578 -0.819151 -0
    outer loop
      vertex 6.02846 1.22567 -0.0499992
      vertex 5.8 1.38564 -2.5
      vertex 6.02846 1.22567 -2.5
    endloop
  endfacet
  facet normal 0.707107 0.707107 0
    outer loop
      vertex 3.97154 -1.22567 -0.0499992
      vertex 3.77433 -1.02846 -2.5
      vertex 3.77433 -1.02846 -0.0499992
    endloop
  endfacet
  facet normal 0.707107 0.707107 0
    outer loop
      vertex 3.77433 -1.02846 -2.5
      vertex 3.97154 -1.22567 -0.0499992
      vertex 3.97154 -1.22567 -2.5
    endloop
  endfacet
  facet normal 0.906304 -0.422627 0
    outer loop
      vertex 3.49649 0.547232 -0.0499992
      vertex 3.61436 0.799999 -2.5
      vertex 3.61436 0.799999 -0.0499992
    endloop
  endfacet
  facet normal 0.906304 -0.422627 0
    outer loop
      vertex 3.61436 0.799999 -2.5
      vertex 3.49649 0.547232 -0.0499992
      vertex 3.49649 0.547232 -2.5
    endloop
  endfacet
  facet normal 0.573578 0.819151 -0
    outer loop
      vertex 4.2 -1.38564 -2.5
      vertex 3.97154 -1.22567 -0.0499992
      vertex 4.2 -1.38564 -0.0499992
    endloop
  endfacet
  facet normal 0.573578 0.819151 0
    outer loop
      vertex 3.97154 -1.22567 -0.0499992
      vertex 4.2 -1.38564 -2.5
      vertex 3.97154 -1.22567 -2.5
    endloop
  endfacet
  facet normal -0.0871634 0.996194 0
    outer loop
      vertex 5.27784 -1.57569 -2.5
      vertex 5 -1.6 -0.0499992
      vertex 5.27784 -1.57569 -0.0499992
    endloop
  endfacet
  facet normal -0.0871634 0.996194 0
    outer loop
      vertex 5 -1.6 -0.0499992
      vertex 5.27784 -1.57569 -2.5
      vertex 5 -1.6 -2.5
    endloop
  endfacet
  facet normal -0.0871634 -0.996194 0
    outer loop
      vertex 5 1.6 -2.5
      vertex 5.27784 1.57569 -0.0499992
      vertex 5 1.6 -0.0499992
    endloop
  endfacet
  facet normal -0.0871634 -0.996194 -0
    outer loop
      vertex 5.27784 1.57569 -0.0499992
      vertex 5 1.6 -2.5
      vertex 5.27784 1.57569 -2.5
    endloop
  endfacet
  facet normal 0.0871634 0.996194 -0
    outer loop
      vertex 5 -1.6 -2.5
      vertex 4.72216 -1.57569 -0.0499992
      vertex 5 -1.6 -0.0499992
    endloop
  endfacet
  facet normal 0.0871634 0.996194 0
    outer loop
      vertex 4.72216 -1.57569 -0.0499992
      vertex 5 -1.6 -2.5
      vertex 4.72216 -1.57569 -2.5
    endloop
  endfacet
  facet normal 0.25881 0.965928 -0
    outer loop
      vertex 4.72216 -1.57569 -2.5
      vertex 4.45277 -1.50351 -0.0499992
      vertex 4.72216 -1.57569 -0.0499992
    endloop
  endfacet
  facet normal 0.25881 0.965928 0
    outer loop
      vertex 4.45277 -1.50351 -0.0499992
      vertex 4.72216 -1.57569 -2.5
      vertex 4.45277 -1.50351 -2.5
    endloop
  endfacet
  facet normal 0.996194 -0.0871643 0
    outer loop
      vertex 3.4 0 -0.0499992
      vertex 3.42431 0.277837 -2.5
      vertex 3.42431 0.277837 -0.0499992
    endloop
  endfacet
  facet normal 0.996194 -0.0871643 0
    outer loop
      vertex 3.42431 0.277837 -2.5
      vertex 3.4 0 -0.0499992
      vertex 3.4 0 -2.5
    endloop
  endfacet
  facet normal 0.96593 0.258805 0
    outer loop
      vertex 3.49649 -0.547232 -0.0499992
      vertex 3.42431 -0.277837 -2.5
      vertex 3.42431 -0.277837 -0.0499992
    endloop
  endfacet
  facet normal 0.96593 0.258805 0
    outer loop
      vertex 3.42431 -0.277837 -2.5
      vertex 3.49649 -0.547232 -0.0499992
      vertex 3.49649 -0.547232 -2.5
    endloop
  endfacet
  facet normal 0.422622 0.906306 -0
    outer loop
      vertex 4.45277 -1.50351 -2.5
      vertex 4.2 -1.38564 -0.0499992
      vertex 4.45277 -1.50351 -0.0499992
    endloop
  endfacet
  facet normal 0.422622 0.906306 0
    outer loop
      vertex 4.2 -1.38564 -0.0499992
      vertex 4.45277 -1.50351 -2.5
      vertex 4.2 -1.38564 -2.5
    endloop
  endfacet
  facet normal 0 1 -0
    outer loop
      vertex -3.45 -2.68468 -0.0499992
      vertex -6.55 -2.68468 2.1
      vertex -3.45 -2.68468 2.1
    endloop
  endfacet
  facet normal 0 1 0
    outer loop
      vertex -6.55 -2.68468 2.1
      vertex -3.45 -2.68468 -0.0499992
      vertex -6.55 -2.68468 -0.0499992
    endloop
  endfacet
  facet normal -0.866026 0.5 0
    outer loop
      vertex -3.45 -2.68468 -0.0499992
      vertex -1.9 0 2.1
      vertex -1.9 0 -0.0499992
    endloop
  endfacet
  facet normal -0.866026 0.5 0
    outer loop
      vertex -1.9 0 2.1
      vertex -3.45 -2.68468 -0.0499992
      vertex -3.45 -2.68468 2.1
    endloop
  endfacet
  facet normal 0 -1 0
    outer loop
      vertex -6.55 2.68468 -0.0499992
      vertex -3.45 2.68468 2.1
      vertex -6.55 2.68468 2.1
    endloop
  endfacet
  facet normal 0 -1 -0
    outer loop
      vertex -3.45 2.68468 2.1
      vertex -6.55 2.68468 -0.0499992
      vertex -3.45 2.68468 -0.0499992
    endloop
  endfacet
  facet normal -0.866026 -0.5 0
    outer loop
      vertex -1.9 0 -0.0499992
      vertex -3.45 2.68468 2.1
      vertex -3.45 2.68468 -0.0499992
    endloop
  endfacet
  facet normal -0.866026 -0.5 0
    outer loop
      vertex -3.45 2.68468 2.1
      vertex -1.9 0 -0.0499992
      vertex -1.9 0 2.1
    endloop
  endfacet
  facet normal 0.866026 -0.5 0
    outer loop
      vertex -8.1 0 2.1
      vertex -6.55 2.68468 -0.0499992
      vertex -6.55 2.68468 2.1
    endloop
  endfacet
  facet normal 0.866026 -0.5 0
    outer loop
      vertex -6.55 2.68468 -0.0499992
      vertex -8.1 0 2.1
      vertex -8.1 0 -0.0499992
    endloop
  endfacet
  facet normal 0.866026 0.5 0
    outer loop
      vertex -6.55 -2.68468 2.1
      vertex -8.1 0 -0.0499992
      vertex -8.1 0 2.1
    endloop
  endfacet
  facet normal 0.866026 0.5 0
    outer loop
      vertex -8.1 0 -0.0499992
      vertex -6.55 -2.68468 2.1
      vertex -6.55 -2.68468 -0.0499992
    endloop
  endfacet
  facet normal 0 0 1
    outer loop
      vertex -1.9 0 -0.0499992
      vertex -3.42431 0.277837 -0.0499992
      vertex -3.4 0 -0.0499992
    endloop
  endfacet
  facet normal -0 0 1
    outer loop
      vertex -3.61436 0.799999 -0.0499992
      vertex -1.9 0 -0.0499992
      vertex -3.45 2.68468 -0.0499992
    endloop
  endfacet
  facet normal 0 0 1
    outer loop
      vertex -1.9 0 -0.0499992
      vertex -3.49649 0.547232 -0.0499992
      vertex -3.42431 0.277837 -0.0499992
    endloop
  endfacet
  facet normal 0 0 1
    outer loop
      vertex -1.9 0 -0.0499992
      vertex -3.61436 0.799999 -0.0499992
      vertex -3.49649 0.547232 -0.0499992
    endloop
  endfacet
  facet normal 0 0 1
    outer loop
      vertex -3.45 2.68468 -0.0499992
      vertex -3.77433 1.02846 -0.0499992
      vertex -3.61436 0.799999 -0.0499992
    endloop
  endfacet
  facet normal 0 0 1
    outer loop
      vertex -3.45 2.68468 -0.0499992
      vertex -3.97154 1.22567 -0.0499992
      vertex -3.77433 1.02846 -0.0499992
    endloop
  endfacet
  facet normal 0 0 1
    outer loop
      vertex -3.45 2.68468 -0.0499992
      vertex -4.2 1.38564 -0.0499992
      vertex -3.97154 1.22567 -0.0499992
    endloop
  endfacet
  facet normal 0 0 1
    outer loop
      vertex -3.45 2.68468 -0.0499992
      vertex -4.45277 1.50351 -0.0499992
      vertex -4.2 1.38564 -0.0499992
    endloop
  endfacet
  facet normal 0 0 1
    outer loop
      vertex -3.45 2.68468 -0.0499992
      vertex -4.72216 1.57569 -0.0499992
      vertex -4.45277 1.50351 -0.0499992
    endloop
  endfacet
  facet normal 0 0 1
    outer loop
      vertex -3.45 2.68468 -0.0499992
      vertex -5 1.6 -0.0499992
      vertex -4.72216 1.57569 -0.0499992
    endloop
  endfacet
  facet normal -0 0 1
    outer loop
      vertex -6.55 2.68468 -0.0499992
      vertex -5 1.6 -0.0499992
      vertex -3.45 2.68468 -0.0499992
    endloop
  endfacet
  facet normal 0 0 1
    outer loop
      vertex -5 1.6 -0.0499992
      vertex -6.55 2.68468 -0.0499992
      vertex -5.27784 1.57569 -0.0499992
    endloop
  endfacet
  facet normal 0 0 1
    outer loop
      vertex -5.27784 1.57569 -0.0499992
      vertex -6.55 2.68468 -0.0499992
      vertex -5.54723 1.50351 -0.0499992
    endloop
  endfacet
  facet normal 0 0 1
    outer loop
      vertex -5.54723 1.50351 -0.0499992
      vertex -6.55 2.68468 -0.0499992
      vertex -5.8 1.38564 -0.0499992
    endloop
  endfacet
  facet normal 0 0 1
    outer loop
      vertex -6.55 2.68468 -0.0499992
      vertex -6.02846 1.22567 -0.0499992
      vertex -5.8 1.38564 -0.0499992
    endloop
  endfacet
  facet normal 0 0 1
    outer loop
      vertex -6.55 2.68468 -0.0499992
      vertex -6.22567 1.02846 -0.0499992
      vertex -6.02846 1.22567 -0.0499992
    endloop
  endfacet
  facet normal 0 0 1
    outer loop
      vertex -6.55 2.68468 -0.0499992
      vertex -6.38564 0.799999 -0.0499992
      vertex -6.22567 1.02846 -0.0499992
    endloop
  endfacet
  facet normal 0 0 1
    outer loop
      vertex -8.1 0 -0.0499992
      vertex -6.38564 0.799999 -0.0499992
      vertex -6.55 2.68468 -0.0499992
    endloop
  endfacet
  facet normal 0 0 1
    outer loop
      vertex -6.38564 0.799999 -0.0499992
      vertex -8.1 0 -0.0499992
      vertex -6.50351 0.547232 -0.0499992
    endloop
  endfacet
  facet normal 0 0 1
    outer loop
      vertex -6.50351 0.547232 -0.0499992
      vertex -8.1 0 -0.0499992
      vertex -6.57569 0.277837 -0.0499992
    endloop
  endfacet
  facet normal 0 0 1
    outer loop
      vertex -6.57569 0.277837 -0.0499992
      vertex -8.1 0 -0.0499992
      vertex -6.6 0 -0.0499992
    endloop
  endfacet
  facet normal 0 0 1
    outer loop
      vertex -3.42431 -0.277837 -0.0499992
      vertex -1.9 0 -0.0499992
      vertex -3.4 0 -0.0499992
    endloop
  endfacet
  facet normal 0 0 1
    outer loop
      vertex -3.49649 -0.547232 -0.0499992
      vertex -1.9 0 -0.0499992
      vertex -3.42431 -0.277837 -0.0499992
    endloop
  endfacet
  facet normal 0 0 1
    outer loop
      vertex -3.61436 -0.799999 -0.0499992
      vertex -1.9 0 -0.0499992
      vertex -3.49649 -0.547232 -0.0499992
    endloop
  endfacet
  facet normal 0 0 1
    outer loop
      vertex -1.9 0 -0.0499992
      vertex -3.61436 -0.799999 -0.0499992
      vertex -3.45 -2.68468 -0.0499992
    endloop
  endfacet
  facet normal -0 0 1
    outer loop
      vertex -3.77433 -1.02846 -0.0499992
      vertex -3.45 -2.68468 -0.0499992
      vertex -3.61436 -0.799999 -0.0499992
    endloop
  endfacet
  facet normal -0 0 1
    outer loop
      vertex -3.97154 -1.22567 -0.0499992
      vertex -3.45 -2.68468 -0.0499992
      vertex -3.77433 -1.02846 -0.0499992
    endloop
  endfacet
  facet normal -0 0 1
    outer loop
      vertex -4.2 -1.38564 -0.0499992
      vertex -3.45 -2.68468 -0.0499992
      vertex -3.97154 -1.22567 -0.0499992
    endloop
  endfacet
  facet normal -0 0 1
    outer loop
      vertex -4.45277 -1.50351 -0.0499992
      vertex -3.45 -2.68468 -0.0499992
      vertex -4.2 -1.38564 -0.0499992
    endloop
  endfacet
  facet normal -0 0 1
    outer loop
      vertex -4.72216 -1.57569 -0.0499992
      vertex -3.45 -2.68468 -0.0499992
      vertex -4.45277 -1.50351 -0.0499992
    endloop
  endfacet
  facet normal -0 0 1
    outer loop
      vertex -5 -1.6 -0.0499992
      vertex -3.45 -2.68468 -0.0499992
      vertex -4.72216 -1.57569 -0.0499992
    endloop
  endfacet
  facet normal 0 0 1
    outer loop
      vertex -6.55 -2.68468 -0.0499992
      vertex -5 -1.6 -0.0499992
      vertex -5.27784 -1.57569 -0.0499992
    endloop
  endfacet
  facet normal 0 0 1
    outer loop
      vertex -6.55 -2.68468 -0.0499992
      vertex -5.27784 -1.57569 -0.0499992
      vertex -5.54723 -1.50351 -0.0499992
    endloop
  endfacet
  facet normal 0 0 1
    outer loop
      vertex -6.55 -2.68468 -0.0499992
      vertex -5.54723 -1.50351 -0.0499992
      vertex -5.8 -1.38564 -0.0499992
    endloop
  endfacet
  facet normal 0 0 1
    outer loop
      vertex -5 -1.6 -0.0499992
      vertex -6.55 -2.68468 -0.0499992
      vertex -3.45 -2.68468 -0.0499992
    endloop
  endfacet
  facet normal 0 0 1
    outer loop
      vertex -6.02846 -1.22567 -0.0499992
      vertex -6.55 -2.68468 -0.0499992
      vertex -5.8 -1.38564 -0.0499992
    endloop
  endfacet
  facet normal 0 0 1
    outer loop
      vertex -6.22567 -1.02846 -0.0499992
      vertex -6.55 -2.68468 -0.0499992
      vertex -6.02846 -1.22567 -0.0499992
    endloop
  endfacet
  facet normal 0 0 1
    outer loop
      vertex -6.38564 -0.799999 -0.0499992
      vertex -6.55 -2.68468 -0.0499992
      vertex -6.22567 -1.02846 -0.0499992
    endloop
  endfacet
  facet normal 0 0 1
    outer loop
      vertex -8.1 0 -0.0499992
      vertex -6.38564 -0.799999 -0.0499992
      vertex -6.50351 -0.547232 -0.0499992
    endloop
  endfacet
  facet normal 0 0 1
    outer loop
      vertex -8.1 0 -0.0499992
      vertex -6.50351 -0.547232 -0.0499992
      vertex -6.57569 -0.277837 -0.0499992
    endloop
  endfacet
  facet normal -0 0 1
    outer loop
      vertex -8.1 0 -0.0499992
      vertex -6.57569 -0.277837 -0.0499992
      vertex -6.6 0 -0.0499992
    endloop
  endfacet
  facet normal 0 0 1
    outer loop
      vertex -6.38564 -0.799999 -0.0499992
      vertex -8.1 0 -0.0499992
      vertex -6.55 -2.68468 -0.0499992
    endloop
  endfacet
  facet normal 0.25881 -0.965928 0
    outer loop
      vertex -5.54723 1.50351 -2.5
      vertex -5.27784 1.57569 -0.0499992
      vertex -5.54723 1.50351 -0.0499992
    endloop
  endfacet
  facet normal 0.25881 -0.965928 0
    outer loop
      vertex -5.27784 1.57569 -0.0499992
      vertex -5.54723 1.50351 -2.5
      vertex -5.27784 1.57569 -2.5
    endloop
  endfacet
  facet normal -0.96593 -0.258805 0
    outer loop
      vertex -3.42431 0.277837 -2.5
      vertex -3.49649 0.547232 -0.0499992
      vertex -3.49649 0.547232 -2.5
    endloop
  endfacet
  facet normal -0.96593 -0.258805 0
    outer loop
      vertex -3.49649 0.547232 -0.0499992
      vertex -3.42431 0.277837 -2.5
      vertex -3.42431 0.277837 -0.0499992
    endloop
  endfacet
  facet normal -0.996194 -0.0871643 0
    outer loop
      vertex -3.4 0 -2.5
      vertex -3.42431 0.277837 -0.0499992
      vertex -3.42431 0.277837 -2.5
    endloop
  endfacet
  facet normal -0.996194 -0.0871643 0
    outer loop
      vertex -3.42431 0.277837 -0.0499992
      vertex -3.4 0 -2.5
      vertex -3.4 0 -0.0499992
    endloop
  endfacet
  facet normal -0.906304 -0.422627 0
    outer loop
      vertex -3.49649 0.547232 -2.5
      vertex -3.61436 0.799999 -0.0499992
      vertex -3.61436 0.799999 -2.5
    endloop
  endfacet
  facet normal -0.906304 -0.422627 0
    outer loop
      vertex -3.61436 0.799999 -0.0499992
      vertex -3.49649 0.547232 -2.5
      vertex -3.49649 0.547232 -0.0499992
    endloop
  endfacet
  facet normal 0.906304 0.422627 0
    outer loop
      vertex -6.38564 -0.799999 -0.0499992
      vertex -6.50351 -0.547232 -2.5
      vertex -6.50351 -0.547232 -0.0499992
    endloop
  endfacet
  facet normal 0.906304 0.422627 0
    outer loop
      vertex -6.50351 -0.547232 -2.5
      vertex -6.38564 -0.799999 -0.0499992
      vertex -6.38564 -0.799999 -2.5
    endloop
  endfacet
  facet normal -0.906304 0.422627 0
    outer loop
      vertex -3.61436 -0.799999 -2.5
      vertex -3.49649 -0.547232 -0.0499992
      vertex -3.49649 -0.547232 -2.5
    endloop
  endfacet
  facet normal -0.906304 0.422627 0
    outer loop
      vertex -3.49649 -0.547232 -0.0499992
      vertex -3.61436 -0.799999 -2.5
      vertex -3.61436 -0.799999 -0.0499992
    endloop
  endfacet
  facet normal -0.819152 0.573576 0
    outer loop
      vertex -3.77433 -1.02846 -2.5
      vertex -3.61436 -0.799999 -0.0499992
      vertex -3.61436 -0.799999 -2.5
    endloop
  endfacet
  facet normal -0.819152 0.573576 0
    outer loop
      vertex -3.61436 -0.799999 -0.0499992
      vertex -3.77433 -1.02846 -2.5
      vertex -3.77433 -1.02846 -0.0499992
    endloop
  endfacet
  facet normal -0.996194 0.0871643 0
    outer loop
      vertex -3.42431 -0.277837 -2.5
      vertex -3.4 0 -0.0499992
      vertex -3.4 0 -2.5
    endloop
  endfacet
  facet normal -0.996194 0.0871643 0
    outer loop
      vertex -3.4 0 -0.0499992
      vertex -3.42431 -0.277837 -2.5
      vertex -3.42431 -0.277837 -0.0499992
    endloop
  endfacet
  facet normal -0.819152 -0.573576 0
    outer loop
      vertex -3.61436 0.799999 -2.5
      vertex -3.77433 1.02846 -0.0499992
      vertex -3.77433 1.02846 -2.5
    endloop
  endfacet
  facet normal -0.819152 -0.573576 0
    outer loop
      vertex -3.77433 1.02846 -0.0499992
      vertex -3.61436 0.799999 -2.5
      vertex -3.61436 0.799999 -0.0499992
    endloop
  endfacet
  facet normal 0.707107 -0.707107 0
    outer loop
      vertex -6.22567 1.02846 -0.0499992
      vertex -6.02846 1.22567 -2.5
      vertex -6.02846 1.22567 -0.0499992
    endloop
  endfacet
  facet normal 0.707107 -0.707107 0
    outer loop
      vertex -6.02846 1.22567 -2.5
      vertex -6.22567 1.02846 -0.0499992
      vertex -6.22567 1.02846 -2.5
    endloop
  endfacet
  facet normal 0.0871634 -0.996194 0
    outer loop
      vertex -5.27784 1.57569 -2.5
      vertex -5 1.6 -0.0499992
      vertex -5.27784 1.57569 -0.0499992
    endloop
  endfacet
  facet normal 0.0871634 -0.996194 0
    outer loop
      vertex -5 1.6 -0.0499992
      vertex -5.27784 1.57569 -2.5
      vertex -5 1.6 -2.5
    endloop
  endfacet
  facet normal 0.573578 -0.819151 0
    outer loop
      vertex -6.02846 1.22567 -2.5
      vertex -5.8 1.38564 -0.0499992
      vertex -6.02846 1.22567 -0.0499992
    endloop
  endfacet
  facet normal 0.573578 -0.819151 0
    outer loop
      vertex -5.8 1.38564 -0.0499992
      vertex -6.02846 1.22567 -2.5
      vertex -5.8 1.38564 -2.5
    endloop
  endfacet
  facet normal 0.422622 -0.906306 0
    outer loop
      vertex -5.8 1.38564 -2.5
      vertex -5.54723 1.50351 -0.0499992
      vertex -5.8 1.38564 -0.0499992
    endloop
  endfacet
  facet normal 0.422622 -0.906306 0
    outer loop
      vertex -5.54723 1.50351 -0.0499992
      vertex -5.8 1.38564 -2.5
      vertex -5.54723 1.50351 -2.5
    endloop
  endfacet
  facet normal -0.422622 0.906306 0
    outer loop
      vertex -4.2 -1.38564 -2.5
      vertex -4.45277 -1.50351 -0.0499992
      vertex -4.2 -1.38564 -0.0499992
    endloop
  endfacet
  facet normal -0.422622 0.906306 0
    outer loop
      vertex -4.45277 -1.50351 -0.0499992
      vertex -4.2 -1.38564 -2.5
      vertex -4.45277 -1.50351 -2.5
    endloop
  endfacet
  facet normal 0.996194 0.0871643 0
    outer loop
      vertex -6.57569 -0.277837 -0.0499992
      vertex -6.6 0 -2.5
      vertex -6.6 0 -0.0499992
    endloop
  endfacet
  facet normal 0.996194 0.0871643 0
    outer loop
      vertex -6.6 0 -2.5
      vertex -6.57569 -0.277837 -0.0499992
      vertex -6.57569 -0.277837 -2.5
    endloop
  endfacet
  facet normal -0.25881 -0.965928 0
    outer loop
      vertex -4.72216 1.57569 -2.5
      vertex -4.45277 1.50351 -0.0499992
      vertex -4.72216 1.57569 -0.0499992
    endloop
  endfacet
  facet normal -0.25881 -0.965928 -0
    outer loop
      vertex -4.45277 1.50351 -0.0499992
      vertex -4.72216 1.57569 -2.5
      vertex -4.45277 1.50351 -2.5
    endloop
  endfacet
  facet normal -0.573578 0.819151 0
    outer loop
      vertex -3.97154 -1.22567 -2.5
      vertex -4.2 -1.38564 -0.0499992
      vertex -3.97154 -1.22567 -0.0499992
    endloop
  endfacet
  facet normal -0.573578 0.819151 0
    outer loop
      vertex -4.2 -1.38564 -0.0499992
      vertex -3.97154 -1.22567 -2.5
      vertex -4.2 -1.38564 -2.5
    endloop
  endfacet
  facet normal 0.96593 -0.258805 0
    outer loop
      vertex -6.57569 0.277837 -0.0499992
      vertex -6.50351 0.547232 -2.5
      vertex -6.50351 0.547232 -0.0499992
    endloop
  endfacet
  facet normal 0.96593 -0.258805 0
    outer loop
      vertex -6.50351 0.547232 -2.5
      vertex -6.57569 0.277837 -0.0499992
      vertex -6.57569 0.277837 -2.5
    endloop
  endfacet
  facet normal -0.422622 -0.906306 0
    outer loop
      vertex -4.45277 1.50351 -2.5
      vertex -4.2 1.38564 -0.0499992
      vertex -4.45277 1.50351 -0.0499992
    endloop
  endfacet
  facet normal -0.422622 -0.906306 -0
    outer loop
      vertex -4.2 1.38564 -0.0499992
      vertex -4.45277 1.50351 -2.5
      vertex -4.2 1.38564 -2.5
    endloop
  endfacet
  facet normal 0.819152 -0.573576 0
    outer loop
      vertex -6.38564 0.799999 -0.0499992
      vertex -6.22567 1.02846 -2.5
      vertex -6.22567 1.02846 -0.0499992
    endloop
  endfacet
  facet normal 0.819152 -0.573576 0
    outer loop
      vertex -6.22567 1.02846 -2.5
      vertex -6.38564 0.799999 -0.0499992
      vertex -6.38564 0.799999 -2.5
    endloop
  endfacet
  facet normal 0.819152 0.573576 0
    outer loop
      vertex -6.22567 -1.02846 -0.0499992
      vertex -6.38564 -0.799999 -2.5
      vertex -6.38564 -0.799999 -0.0499992
    endloop
  endfacet
  facet normal 0.819152 0.573576 0
    outer loop
      vertex -6.38564 -0.799999 -2.5
      vertex -6.22567 -1.02846 -0.0499992
      vertex -6.22567 -1.02846 -2.5
    endloop
  endfacet
  facet normal -0.25881 0.965928 0
    outer loop
      vertex -4.45277 -1.50351 -2.5
      vertex -4.72216 -1.57569 -0.0499992
      vertex -4.45277 -1.50351 -0.0499992
    endloop
  endfacet
  facet normal -0.25881 0.965928 0
    outer loop
      vertex -4.72216 -1.57569 -0.0499992
      vertex -4.45277 -1.50351 -2.5
      vertex -4.72216 -1.57569 -2.5
    endloop
  endfacet
  facet normal -0.707107 0.707107 0
    outer loop
      vertex -3.97154 -1.22567 -2.5
      vertex -3.77433 -1.02846 -0.0499992
      vertex -3.77433 -1.02846 -2.5
    endloop
  endfacet
  facet normal -0.707107 0.707107 0
    outer loop
      vertex -3.77433 -1.02846 -0.0499992
      vertex -3.97154 -1.22567 -2.5
      vertex -3.97154 -1.22567 -0.0499992
    endloop
  endfacet
  facet normal -0.707107 -0.707107 0
    outer loop
      vertex -3.77433 1.02846 -2.5
      vertex -3.97154 1.22567 -0.0499992
      vertex -3.97154 1.22567 -2.5
    endloop
  endfacet
  facet normal -0.707107 -0.707107 0
    outer loop
      vertex -3.97154 1.22567 -0.0499992
      vertex -3.77433 1.02846 -2.5
      vertex -3.77433 1.02846 -0.0499992
    endloop
  endfacet
  facet normal -0.96593 0.258805 0
    outer loop
      vertex -3.49649 -0.547232 -2.5
      vertex -3.42431 -0.277837 -0.0499992
      vertex -3.42431 -0.277837 -2.5
    endloop
  endfacet
  facet normal -0.96593 0.258805 0
    outer loop
      vertex -3.42431 -0.277837 -0.0499992
      vertex -3.49649 -0.547232 -2.5
      vertex -3.49649 -0.547232 -0.0499992
    endloop
  endfacet
  facet normal -0.573578 -0.819151 0
    outer loop
      vertex -4.2 1.38564 -2.5
      vertex -3.97154 1.22567 -0.0499992
      vertex -4.2 1.38564 -0.0499992
    endloop
  endfacet
  facet normal -0.573578 -0.819151 -0
    outer loop
      vertex -3.97154 1.22567 -0.0499992
      vertex -4.2 1.38564 -2.5
      vertex -3.97154 1.22567 -2.5
    endloop
  endfacet
  facet normal 0.707107 0.707107 0
    outer loop
      vertex -6.02846 -1.22567 -0.0499992
      vertex -6.22567 -1.02846 -2.5
      vertex -6.22567 -1.02846 -0.0499992
    endloop
  endfacet
  facet normal 0.707107 0.707107 0
    outer loop
      vertex -6.22567 -1.02846 -2.5
      vertex -6.02846 -1.22567 -0.0499992
      vertex -6.02846 -1.22567 -2.5
    endloop
  endfacet
  facet normal 0.906304 -0.422627 0
    outer loop
      vertex -6.50351 0.547232 -0.0499992
      vertex -6.38564 0.799999 -2.5
      vertex -6.38564 0.799999 -0.0499992
    endloop
  endfacet
  facet normal 0.906304 -0.422627 0
    outer loop
      vertex -6.38564 0.799999 -2.5
      vertex -6.50351 0.547232 -0.0499992
      vertex -6.50351 0.547232 -2.5
    endloop
  endfacet
  facet normal 0.573578 0.819151 -0
    outer loop
      vertex -5.8 -1.38564 -2.5
      vertex -6.02846 -1.22567 -0.0499992
      vertex -5.8 -1.38564 -0.0499992
    endloop
  endfacet
  facet normal 0.573578 0.819151 0
    outer loop
      vertex -6.02846 -1.22567 -0.0499992
      vertex -5.8 -1.38564 -2.5
      vertex -6.02846 -1.22567 -2.5
    endloop
  endfacet
  facet normal -0.0871634 0.996194 0
    outer loop
      vertex -4.72216 -1.57569 -2.5
      vertex -5 -1.6 -0.0499992
      vertex -4.72216 -1.57569 -0.0499992
    endloop
  endfacet
  facet normal -0.0871634 0.996194 0
    outer loop
      vertex -5 -1.6 -0.0499992
      vertex -4.72216 -1.57569 -2.5
      vertex -5 -1.6 -2.5
    endloop
  endfacet
  facet normal -0.0871634 -0.996194 0
    outer loop
      vertex -5 1.6 -2.5
      vertex -4.72216 1.57569 -0.0499992
      vertex -5 1.6 -0.0499992
    endloop
  endfacet
  facet normal -0.0871634 -0.996194 -0
    outer loop
      vertex -4.72216 1.57569 -0.0499992
      vertex -5 1.6 -2.5
      vertex -4.72216 1.57569 -2.5
    endloop
  endfacet
  facet normal 0.0871634 0.996194 -0
    outer loop
      vertex -5 -1.6 -2.5
      vertex -5.27784 -1.57569 -0.0499992
      vertex -5 -1.6 -0.0499992
    endloop
  endfacet
  facet normal 0.0871634 0.996194 0
    outer loop
      vertex -5.27784 -1.57569 -0.0499992
      vertex -5 -1.6 -2.5
      vertex -5.27784 -1.57569 -2.5
    endloop
  endfacet
  facet normal 0.25881 0.965928 -0
    outer loop
      vertex -5.27784 -1.57569 -2.5
      vertex -5.54723 -1.50351 -0.0499992
      vertex -5.27784 -1.57569 -0.0499992
    endloop
  endfacet
  facet normal 0.25881 0.965928 0
    outer loop
      vertex -5.54723 -1.50351 -0.0499992
      vertex -5.27784 -1.57569 -2.5
      vertex -5.54723 -1.50351 -2.5
    endloop
  endfacet
  facet normal 0.996194 -0.0871643 0
    outer loop
      vertex -6.6 0 -0.0499992
      vertex -6.57569 0.277837 -2.5
      vertex -6.57569 0.277837 -0.0499992
    endloop
  endfacet
  facet normal 0.996194 -0.0871643 0
    outer loop
      vertex -6.57569 0.277837 -2.5
      vertex -6.6 0 -0.0499992
      vertex -6.6 0 -2.5
    endloop
  endfacet
  facet normal 0.96593 0.258805 0
    outer loop
      vertex -6.50351 -0.547232 -0.0499992
      vertex -6.57569 -0.277837 -2.5
      vertex -6.57569 -0.277837 -0.0499992
    endloop
  endfacet
  facet normal 0.96593 0.258805 0
    outer loop
      vertex -6.57569 -0.277837 -2.5
      vertex -6.50351 -0.547232 -0.0499992
      vertex -6.50351 -0.547232 -2.5
    endloop
  endfacet
  facet normal 0.422622 0.906306 -0
    outer loop
      vertex -5.54723 -1.50351 -2.5
      vertex -5.8 -1.38564 -0.0499992
      vertex -5.54723 -1.50351 -0.0499992
    endloop
  endfacet
  facet normal 0.422622 0.906306 0
    outer loop
      vertex -5.8 -1.38564 -0.0499992
      vertex -5.54723 -1.50351 -2.5
      vertex -5.8 -1.38564 -2.5
    endloop
  endfacet
  facet normal 1 -0 0
    outer loop
      vertex 25 -20 2.5
      vertex 25 20 -2.5
      vertex 25 20 2.5
    endloop
  endfacet
  facet normal 1 0 0
    outer loop
      vertex 25 20 -2.5
      vertex 25 -20 2.5
      vertex 25 -20 -2.5
    endloop
  endfacet
  facet normal 0 0 1
    outer loop
      vertex -10.5 -6 2.5
      vertex -13.5 -6 2.5
      vertex -10.5 -9 2.5
    endloop
  endfacet
  facet normal 0 0 1
    outer loop
      vertex 25 20 2.5
      vertex 13.5 6 2.5
      vertex 25 -20 2.5
    endloop
  endfacet
  facet normal 0 0 1
    outer loop
      vertex 25 20 2.5
      vertex 10.5 9 2.5
      vertex 13.5 6 2.5
    endloop
  endfacet
  facet normal 0 0 1
    outer loop
      vertex 25 20 2.5
      vertex -10.5 9 2.5
      vertex 10.5 9 2.5
    endloop
  endfacet
  facet normal 0 0 1
    outer loop
      vertex -10.5 9 2.5
      vertex -13.5 6 2.5
      vertex -10.5 6 2.5
    endloop
  endfacet
  facet normal 0 0 1
    outer loop
      vertex -13.5 6 2.5
      vertex -25 20 2.5
      vertex -13.5 -6 2.5
    endloop
  endfacet
  facet normal 0 0 1
    outer loop
      vertex -10.5 9 2.5
      vertex -25 20 2.5
      vertex -13.5 6 2.5
    endloop
  endfacet
  facet normal -0 0 1
    outer loop
      vertex -25 20 2.5
      vertex -10.5 9 2.5
      vertex 25 20 2.5
    endloop
  endfacet
  facet normal -0 0 1
    outer loop
      vertex 13.5 -6 2.5
      vertex 25 -20 2.5
      vertex 13.5 6 2.5
    endloop
  endfacet
  facet normal 0 0 1
    outer loop
      vertex 10.5 -9 2.5
      vertex 13.5 -6 2.5
      vertex 10.5 -6 2.5
    endloop
  endfacet
  facet normal 0 0 1
    outer loop
      vertex 13.5 -6 2.5
      vertex 10.5 -9 2.5
      vertex 25 -20 2.5
    endloop
  endfacet
  facet normal -0 0 1
    outer loop
      vertex -10.5 -9 2.5
      vertex 25 -20 2.5
      vertex 10.5 -9 2.5
    endloop
  endfacet
  facet normal 0 0 1
    outer loop
      vertex -10.5 -9 2.5
      vertex -25 -20 2.5
      vertex 25 -20 2.5
    endloop
  endfacet
  facet normal 0 0 1
    outer loop
      vertex -13.5 -6 2.5
      vertex -25 -20 2.5
      vertex -10.5 -9 2.5
    endloop
  endfacet
  facet normal 0 0 1
    outer loop
      vertex -25 -20 2.5
      vertex -13.5 -6 2.5
      vertex -25 20 2.5
    endloop
  endfacet
  facet normal 0 0 1
    outer loop
      vertex 13.5 6 2.5
      vertex 10.5 9 2.5
      vertex 10.5 6 2.5
    endloop
  endfacet
  facet normal 0 0 -1
    outer loop
      vertex 25 -20 -2.5
      vertex 6.6 0 -2.5
      vertex 25 20 -2.5
    endloop
  endfacet
  facet normal 0 0 -1
    outer loop
      vertex 25 -20 -2.5
      vertex 6.57569 -0.277837 -2.5
      vertex 6.6 0 -2.5
    endloop
  endfacet
  facet normal 0 0 -1
    outer loop
      vertex 25 -20 -2.5
      vertex 6.50351 -0.547232 -2.5
      vertex 6.57569 -0.277837 -2.5
    endloop
  endfacet
  facet normal 0 0 -1
    outer loop
      vertex 25 -20 -2.5
      vertex 6.38564 -0.799999 -2.5
      vertex 6.50351 -0.547232 -2.5
    endloop
  endfacet
  facet normal 0 0 -1
    outer loop
      vertex 25 -20 -2.5
      vertex 6.22567 -1.02846 -2.5
      vertex 6.38564 -0.799999 -2.5
    endloop
  endfacet
  facet normal 0 0 -1
    outer loop
      vertex 25 -20 -2.5
      vertex 6.02846 -1.22567 -2.5
      vertex 6.22567 -1.02846 -2.5
    endloop
  endfacet
  facet normal 0 0 -1
    outer loop
      vertex 25 -20 -2.5
      vertex 5.8 -1.38564 -2.5
      vertex 6.02846 -1.22567 -2.5
    endloop
  endfacet
  facet normal 0 0 -1
    outer loop
      vertex 25 -20 -2.5
      vertex 5.54723 -1.50351 -2.5
      vertex 5.8 -1.38564 -2.5
    endloop
  endfacet
  facet normal 0 0 -1
    outer loop
      vertex 25 -20 -2.5
      vertex 5.27784 -1.57569 -2.5
      vertex 5.54723 -1.50351 -2.5
    endloop
  endfacet
  facet normal 0 0 -1
    outer loop
      vertex 25 -20 -2.5
      vertex 5 -1.6 -2.5
      vertex 5.27784 -1.57569 -2.5
    endloop
  endfacet
  facet normal 0 0 -1
    outer loop
      vertex 25 -20 -2.5
      vertex 4.72216 -1.57569 -2.5
      vertex 5 -1.6 -2.5
    endloop
  endfacet
  facet normal 0 0 -1
    outer loop
      vertex -4.72216 -1.57569 -2.5
      vertex 4.72216 -1.57569 -2.5
      vertex 25 -20 -2.5
    endloop
  endfacet
  facet normal 0 0 -1
    outer loop
      vertex 4.72216 -1.57569 -2.5
      vertex -4.72216 -1.57569 -2.5
      vertex 4.45277 -1.50351 -2.5
    endloop
  endfacet
  facet normal 0 -0 -1
    outer loop
      vertex -4.45277 -1.50351 -2.5
      vertex 4.45277 -1.50351 -2.5
      vertex -4.72216 -1.57569 -2.5
    endloop
  endfacet
  facet normal 0 0 -1
    outer loop
      vertex 3.42431 -0.277837 -2.5
      vertex -3.4 0 -2.5
      vertex 3.4 0 -2.5
    endloop
  endfacet
  facet normal 0 0 -1
    outer loop
      vertex -3.42431 -0.277837 -2.5
      vertex 3.42431 -0.277837 -2.5
      vertex 3.49649 -0.547232 -2.5
    endloop
  endfacet
  facet normal 0 0 -1
    outer loop
      vertex -3.49649 -0.547232 -2.5
      vertex 3.49649 -0.547232 -2.5
      vertex 3.61436 -0.799999 -2.5
    endloop
  endfacet
  facet normal 0 0 -1
    outer loop
      vertex -3.61436 -0.799999 -2.5
      vertex 3.61436 -0.799999 -2.5
      vertex 3.77433 -1.02846 -2.5
    endloop
  endfacet
  facet normal 0 0 -1
    outer loop
      vertex -3.77433 -1.02846 -2.5
      vertex 3.77433 -1.02846 -2.5
      vertex 3.97154 -1.22567 -2.5
    endloop
  endfacet
  facet normal 0 0 -1
    outer loop
      vertex 4.45277 -1.50351 -2.5
      vertex -4.45277 -1.50351 -2.5
      vertex 4.2 -1.38564 -2.5
    endloop
  endfacet
  facet normal 0 0 -1
    outer loop
      vertex 3.42431 -0.277837 -2.5
      vertex -3.42431 -0.277837 -2.5
      vertex -3.4 0 -2.5
    endloop
  endfacet
  facet normal 0 0 -1
    outer loop
      vertex 3.49649 -0.547232 -2.5
      vertex -3.49649 -0.547232 -2.5
      vertex -3.42431 -0.277837 -2.5
    endloop
  endfacet
  facet normal 0 0 -1
    outer loop
      vertex 3.61436 -0.799999 -2.5
      vertex -3.61436 -0.799999 -2.5
      vertex -3.49649 -0.547232 -2.5
    endloop
  endfacet
  facet normal 0 0 -1
    outer loop
      vertex 3.77433 -1.02846 -2.5
      vertex -3.77433 -1.02846 -2.5
      vertex -3.61436 -0.799999 -2.5
    endloop
  endfacet
  facet normal 0 0 -1
    outer loop
      vertex 3.97154 -1.22567 -2.5
      vertex -3.97154 -1.22567 -2.5
      vertex -3.77433 -1.02846 -2.5
    endloop
  endfacet
  facet normal -0 0 -1
    outer loop
      vertex 3.97154 -1.22567 -2.5
      vertex -4.2 -1.38564 -2.5
      vertex -3.97154 -1.22567 -2.5
    endloop
  endfacet
  facet normal 0 0 -1
    outer loop
      vertex 4.2 -1.38564 -2.5
      vertex -4.2 -1.38564 -2.5
      vertex 3.97154 -1.22567 -2.5
    endloop
  endfacet
  facet normal 0 -0 -1
    outer loop
      vertex -4.2 -1.38564 -2.5
      vertex 4.2 -1.38564 -2.5
      vertex -4.45277 -1.50351 -2.5
    endloop
  endfacet
  facet normal 0 0 -1
    outer loop
      vertex -25 -20 -2.5
      vertex -4.72216 -1.57569 -2.5
      vertex 25 -20 -2.5
    endloop
  endfacet
  facet normal 0 0 -1
    outer loop
      vertex -4.72216 -1.57569 -2.5
      vertex -25 -20 -2.5
      vertex -5 -1.6 -2.5
    endloop
  endfacet
  facet normal -0 0 -1
    outer loop
      vertex -5 -1.6 -2.5
      vertex -25 -20 -2.5
      vertex -5.27784 -1.57569 -2.5
    endloop
  endfacet
  facet normal -0 0 -1
    outer loop
      vertex -5.27784 -1.57569 -2.5
      vertex -25 -20 -2.5
      vertex -5.54723 -1.50351 -2.5
    endloop
  endfacet
  facet normal -0 0 -1
    outer loop
      vertex -6.57569 -0.277837 -2.5
      vertex -25 -20 -2.5
      vertex -6.6 0 -2.5
    endloop
  endfacet
  facet normal -0 0 -1
    outer loop
      vertex -6.50351 -0.547232 -2.5
      vertex -25 -20 -2.5
      vertex -6.57569 -0.277837 -2.5
    endloop
  endfacet
  facet normal -0 0 -1
    outer loop
      vertex -6.38564 -0.799999 -2.5
      vertex -25 -20 -2.5
      vertex -6.50351 -0.547232 -2.5
    endloop
  endfacet
  facet normal -0 0 -1
    outer loop
      vertex -6.22567 -1.02846 -2.5
      vertex -25 -20 -2.5
      vertex -6.38564 -0.799999 -2.5
    endloop
  endfacet
  facet normal -0 0 -1
    outer loop
      vertex -6.02846 -1.22567 -2.5
      vertex -25 -20 -2.5
      vertex -6.22567 -1.02846 -2.5
    endloop
  endfacet
  facet normal -0 0 -1
    outer loop
      vertex -5.8 -1.38564 -2.5
      vertex -25 -20 -2.5
      vertex -6.02846 -1.22567 -2.5
    endloop
  endfacet
  facet normal -0 0 -1
    outer loop
      vertex -5.54723 -1.50351 -2.5
      vertex -25 -20 -2.5
      vertex -5.8 -1.38564 -2.5
    endloop
  endfacet
  facet normal 0 0 -1
    outer loop
      vertex 6.57569 0.277837 -2.5
      vertex 25 20 -2.5
      vertex 6.6 0 -2.5
    endloop
  endfacet
  facet normal 0 0 -1
    outer loop
      vertex 6.50351 0.547232 -2.5
      vertex 25 20 -2.5
      vertex 6.57569 0.277837 -2.5
    endloop
  endfacet
  facet normal 0 0 -1
    outer loop
      vertex 6.38564 0.799999 -2.5
      vertex 25 20 -2.5
      vertex 6.50351 0.547232 -2.5
    endloop
  endfacet
  facet normal 0 0 -1
    outer loop
      vertex 6.22567 1.02846 -2.5
      vertex 25 20 -2.5
      vertex 6.38564 0.799999 -2.5
    endloop
  endfacet
  facet normal 0 0 -1
    outer loop
      vertex 6.02846 1.22567 -2.5
      vertex 25 20 -2.5
      vertex 6.22567 1.02846 -2.5
    endloop
  endfacet
  facet normal 0 0 -1
    outer loop
      vertex 5.8 1.38564 -2.5
      vertex 25 20 -2.5
      vertex 6.02846 1.22567 -2.5
    endloop
  endfacet
  facet normal 0 0 -1
    outer loop
      vertex 5.54723 1.50351 -2.5
      vertex 25 20 -2.5
      vertex 5.8 1.38564 -2.5
    endloop
  endfacet
  facet normal 0 0 -1
    outer loop
      vertex 5.27784 1.57569 -2.5
      vertex 25 20 -2.5
      vertex 5.54723 1.50351 -2.5
    endloop
  endfacet
  facet normal 0 0 -1
    outer loop
      vertex 5 1.6 -2.5
      vertex 25 20 -2.5
      vertex 5.27784 1.57569 -2.5
    endloop
  endfacet
  facet normal 0 0 -1
    outer loop
      vertex 4.72216 1.57569 -2.5
      vertex 25 20 -2.5
      vertex 5 1.6 -2.5
    endloop
  endfacet
  facet normal 0 0 -1
    outer loop
      vertex -4.72216 1.57569 -2.5
      vertex 4.72216 1.57569 -2.5
      vertex 4.45277 1.50351 -2.5
    endloop
  endfacet
  facet normal 0 0 -1
    outer loop
      vertex -4.45277 1.50351 -2.5
      vertex 4.45277 1.50351 -2.5
      vertex 4.2 1.38564 -2.5
    endloop
  endfacet
  facet normal 0 0 -1
    outer loop
      vertex -4.2 1.38564 -2.5
      vertex 4.2 1.38564 -2.5
      vertex 3.97154 1.22567 -2.5
    endloop
  endfacet
  facet normal 0 0 -1
    outer loop
      vertex -3.4 0 -2.5
      vertex 3.42431 0.277837 -2.5
      vertex 3.4 0 -2.5
    endloop
  endfacet
  facet normal 0 0 -1
    outer loop
      vertex -3.42431 0.277837 -2.5
      vertex 3.42431 0.277837 -2.5
      vertex -3.4 0 -2.5
    endloop
  endfacet
  facet normal 0 0 -1
    outer loop
      vertex 3.42431 0.277837 -2.5
      vertex -3.42431 0.277837 -2.5
      vertex 3.49649 0.547232 -2.5
    endloop
  endfacet
  facet normal 0 0 -1
    outer loop
      vertex -3.49649 0.547232 -2.5
      vertex 3.49649 0.547232 -2.5
      vertex -3.42431 0.277837 -2.5
    endloop
  endfacet
  facet normal 0 0 -1
    outer loop
      vertex 3.49649 0.547232 -2.5
      vertex -3.49649 0.547232 -2.5
      vertex 3.61436 0.799999 -2.5
    endloop
  endfacet
  facet normal 0 0 -1
    outer loop
      vertex -3.61436 0.799999 -2.5
      vertex 3.61436 0.799999 -2.5
      vertex -3.49649 0.547232 -2.5
    endloop
  endfacet
  facet normal 0 0 -1
    outer loop
      vertex 3.61436 0.799999 -2.5
      vertex -3.61436 0.799999 -2.5
      vertex 3.77433 1.02846 -2.5
    endloop
  endfacet
  facet normal 0 0 -1
    outer loop
      vertex -3.77433 1.02846 -2.5
      vertex 3.77433 1.02846 -2.5
      vertex -3.61436 0.799999 -2.5
    endloop
  endfacet
  facet normal 0 0 -1
    outer loop
      vertex 3.77433 1.02846 -2.5
      vertex -3.77433 1.02846 -2.5
      vertex 3.97154 1.22567 -2.5
    endloop
  endfacet
  facet normal 0 0 -1
    outer loop
      vertex -3.97154 1.22567 -2.5
      vertex 3.97154 1.22567 -2.5
      vertex -3.77433 1.02846 -2.5
    endloop
  endfacet
  facet normal 0 0 -1
    outer loop
      vertex -4.2 1.38564 -2.5
      vertex 3.97154 1.22567 -2.5
      vertex -3.97154 1.22567 -2.5
    endloop
  endfacet
  facet normal 0 0 -1
    outer loop
      vertex 4.2 1.38564 -2.5
      vertex -4.2 1.38564 -2.5
      vertex -4.45277 1.50351 -2.5
    endloop
  endfacet
  facet normal 0 0 -1
    outer loop
      vertex 4.45277 1.50351 -2.5
      vertex -4.45277 1.50351 -2.5
      vertex -4.72216 1.57569 -2.5
    endloop
  endfacet
  facet normal 0 0 -1
    outer loop
      vertex 4.72216 1.57569 -2.5
      vertex -4.72216 1.57569 -2.5
      vertex 25 20 -2.5
    endloop
  endfacet
  facet normal 0 0 -1
    outer loop
      vertex -25 20 -2.5
      vertex -4.72216 1.57569 -2.5
      vertex -5 1.6 -2.5
    endloop
  endfacet
  facet normal 0 0 -1
    outer loop
      vertex -25 20 -2.5
      vertex -5 1.6 -2.5
      vertex -5.27784 1.57569 -2.5
    endloop
  endfacet
  facet normal 0 0 -1
    outer loop
      vertex -25 20 -2.5
      vertex -5.27784 1.57569 -2.5
      vertex -5.54723 1.50351 -2.5
    endloop
  endfacet
  facet normal 0 0 -1
    outer loop
      vertex -25 20 -2.5
      vertex -5.54723 1.50351 -2.5
      vertex -5.8 1.38564 -2.5
    endloop
  endfacet
  facet normal 0 0 -1
    outer loop
      vertex -25 20 -2.5
      vertex -6.6 0 -2.5
      vertex -25 -20 -2.5
    endloop
  endfacet
  facet normal 0 0 -1
    outer loop
      vertex -6.6 0 -2.5
      vertex -25 20 -2.5
      vertex -6.57569 0.277837 -2.5
    endloop
  endfacet
  facet normal 0 0 -1
    outer loop
      vertex -6.57569 0.277837 -2.5
      vertex -25 20 -2.5
      vertex -6.50351 0.547232 -2.5
    endloop
  endfacet
  facet normal 0 0 -1
    outer loop
      vertex -6.50351 0.547232 -2.5
      vertex -25 20 -2.5
      vertex -6.38564 0.799999 -2.5
    endloop
  endfacet
  facet normal 0 0 -1
    outer loop
      vertex -4.72216 1.57569 -2.5
      vertex -25 20 -2.5
      vertex 25 20 -2.5
    endloop
  endfacet
  facet normal 0 0 -1
    outer loop
      vertex -6.02846 1.22567 -2.5
      vertex -25 20 -2.5
      vertex -5.8 1.38564 -2.5
    endloop
  endfacet
  facet normal 0 0 -1
    outer loop
      vertex -6.22567 1.02846 -2.5
      vertex -25 20 -2.5
      vertex -6.02846 1.22567 -2.5
    endloop
  endfacet
  facet normal 0 0 -1
    outer loop
      vertex -6.38564 0.799999 -2.5
      vertex -25 20 -2.5
      vertex -6.22567 1.02846 -2.5
    endloop
  endfacet
  facet normal -1 0 0
    outer loop
      vertex -25 -20 -2.5
      vertex -25 20 2.5
      vertex -25 20 -2.5
    endloop
  endfacet
  facet normal -1 -0 0
    outer loop
      vertex -25 20 2.5
      vertex -25 -20 -2.5
      vertex -25 -20 2.5
    endloop
  endfacet
  facet normal 0 1 -0
    outer loop
      vertex 25 20 -2.5
      vertex -25 20 2.5
      vertex 25 20 2.5
    endloop
  endfacet
  facet normal 0 1 0
    outer loop
      vertex -25 20 2.5
      vertex 25 20 -2.5
      vertex -25 20 -2.5
    endloop
  endfacet
  facet normal 0 -1 0
    outer loop
      vertex -25 -20 -2.5
      vertex 25 -20 2.5
      vertex -25 -20 2.5
    endloop
  endfacet
  facet normal 0 -1 -0
    outer loop
      vertex 25 -20 2.5
      vertex -25 -20 -2.5
      vertex 25 -20 -2.5
    endloop
  endfacet
  facet normal -1 0 0
    outer loop
      vertex 13.5 -6 2.1
      vertex 13.5 6 2.5
      vertex 13.5 6 2.1
    endloop
  endfacet
  facet normal -1 -0 0
    outer loop
      vertex 13.5 6 2.5
      vertex 13.5 -6 2.1
      vertex 13.5 -6 2.5
    endloop
  endfacet
  facet normal 0 0 1
    outer loop
      vertex -13.5 -6 2.1
      vertex -8.1 0 2.1
      vertex -13.5 6 2.1
    endloop
  endfacet
  facet normal 0 0 1
    outer loop
      vertex -8.1 0 2.1
      vertex -13.5 -6 2.1
      vertex -10.5 -6 2.1
    endloop
  endfacet
  facet normal 0 0 1
    outer loop
      vertex 6.55 2.68468 2.1
      vertex 10.5 6 2.1
      vertex 10.5 9 2.1
    endloop
  endfacet
  facet normal 0 0 1
    outer loop
      vertex 10.5 6 2.1
      vertex 8.1 0 2.1
      vertex 10.5 -6 2.1
    endloop
  endfacet
  facet normal -0 0 1
    outer loop
      vertex 6.55 -2.68468 2.1
      vertex 10.5 -6 2.1
      vertex 8.1 0 2.1
    endloop
  endfacet
  facet normal 0 0 1
    outer loop
      vertex 10.5 6 2.1
      vertex 6.55 2.68468 2.1
      vertex 8.1 0 2.1
    endloop
  endfacet
  facet normal 0 0 1
    outer loop
      vertex 10.5 9 2.1
      vertex 3.45 2.68468 2.1
      vertex 6.55 2.68468 2.1
    endloop
  endfacet
  facet normal 0 0 1
    outer loop
      vertex 3.45 2.68468 2.1
      vertex -1.9 0 2.1
      vertex 1.9 0 2.1
    endloop
  endfacet
  facet normal 0 0 1
    outer loop
      vertex -3.45 2.68468 2.1
      vertex 3.45 2.68468 2.1
      vertex 10.5 9 2.1
    endloop
  endfacet
  facet normal 0 0 1
    outer loop
      vertex 3.45 2.68468 2.1
      vertex -3.45 2.68468 2.1
      vertex -1.9 0 2.1
    endloop
  endfacet
  facet normal -0 0 1
    outer loop
      vertex -10.5 9 2.1
      vertex -3.45 2.68468 2.1
      vertex 10.5 9 2.1
    endloop
  endfacet
  facet normal -0 0 1
    outer loop
      vertex -10.5 6 2.1
      vertex -6.55 2.68468 2.1
      vertex -10.5 9 2.1
    endloop
  endfacet
  facet normal 0 0 1
    outer loop
      vertex -3.45 2.68468 2.1
      vertex -10.5 9 2.1
      vertex -6.55 2.68468 2.1
    endloop
  endfacet
  facet normal -0 0 1
    outer loop
      vertex 10.5 6 2.1
      vertex 13.5 -6 2.1
      vertex 13.5 6 2.1
    endloop
  endfacet
  facet normal 0 0 1
    outer loop
      vertex 13.5 -6 2.1
      vertex 10.5 6 2.1
      vertex 10.5 -6 2.1
    endloop
  endfacet
  facet normal 0 0 1
    outer loop
      vertex 10.5 -6 2.1
      vertex 6.55 -2.68468 2.1
      vertex 10.5 -9 2.1
    endloop
  endfacet
  facet normal -0 0 1
    outer loop
      vertex 3.45 -2.68468 2.1
      vertex 10.5 -9 2.1
      vertex 6.55 -2.68468 2.1
    endloop
  endfacet
  facet normal -0 0 1
    outer loop
      vertex -1.9 0 2.1
      vertex 3.45 -2.68468 2.1
      vertex 1.9 0 2.1
    endloop
  endfacet
  facet normal 0 0 1
    outer loop
      vertex -3.45 -2.68468 2.1
      vertex 3.45 -2.68468 2.1
      vertex -1.9 0 2.1
    endloop
  endfacet
  facet normal 0 0 1
    outer loop
      vertex 3.45 -2.68468 2.1
      vertex -3.45 -2.68468 2.1
      vertex 10.5 -9 2.1
    endloop
  endfacet
  facet normal 0 0 1
    outer loop
      vertex -10.5 -9 2.1
      vertex -3.45 -2.68468 2.1
      vertex -6.55 -2.68468 2.1
    endloop
  endfacet
  facet normal 0 0 1
    outer loop
      vertex -6.55 2.68468 2.1
      vertex -10.5 6 2.1
      vertex -8.1 0 2.1
    endloop
  endfacet
  facet normal -0 0 1
    outer loop
      vertex -13.5 6 2.1
      vertex -8.1 0 2.1
      vertex -10.5 6 2.1
    endloop
  endfacet
  facet normal 0 0 1
    outer loop
      vertex -10.5 -6 2.1
      vertex -6.55 -2.68468 2.1
      vertex -8.1 0 2.1
    endloop
  endfacet
  facet normal 0 0 1
    outer loop
      vertex -10.5 -9 2.1
      vertex -6.55 -2.68468 2.1
      vertex -10.5 -6 2.1
    endloop
  endfacet
  facet normal 0 0 1
    outer loop
      vertex -3.45 -2.68468 2.1
      vertex -10.5 -9 2.1
      vertex 10.5 -9 2.1
    endloop
  endfacet
  facet normal 1 -0 0
    outer loop
      vertex -13.5 -6 2.5
      vertex -13.5 6 2.1
      vertex -13.5 6 2.5
    endloop
  endfacet
  facet normal 1 0 0
    outer loop
      vertex -13.5 6 2.1
      vertex -13.5 -6 2.5
      vertex -13.5 -6 2.1
    endloop
  endfacet
  facet normal 0 -1 0
    outer loop
      vertex -13.5 6 2.1
      vertex -10.5 6 2.5
      vertex -13.5 6 2.5
    endloop
  endfacet
  facet normal 0 -1 -0
    outer loop
      vertex -10.5 6 2.5
      vertex -13.5 6 2.1
      vertex -10.5 6 2.1
    endloop
  endfacet
  facet normal 0 -1 0
    outer loop
      vertex 10.5 6 2.1
      vertex 13.5 6 2.5
      vertex 10.5 6 2.5
    endloop
  endfacet
  facet normal 0 -1 -0
    outer loop
      vertex 13.5 6 2.5
      vertex 10.5 6 2.1
      vertex 13.5 6 2.1
    endloop
  endfacet
  facet normal 0 1 -0
    outer loop
      vertex -10.5 -6 2.1
      vertex -13.5 -6 2.5
      vertex -10.5 -6 2.5
    endloop
  endfacet
  facet normal 0 1 0
    outer loop
      vertex -13.5 -6 2.5
      vertex -10.5 -6 2.1
      vertex -13.5 -6 2.1
    endloop
  endfacet
  facet normal 0 1 -0
    outer loop
      vertex 13.5 -6 2.1
      vertex 10.5 -6 2.5
      vertex 13.5 -6 2.5
    endloop
  endfacet
  facet normal 0 1 0
    outer loop
      vertex 10.5 -6 2.5
      vertex 13.5 -6 2.1
      vertex 10.5 -6 2.1
    endloop
  endfacet
  facet normal -1 0 0
    outer loop
      vertex 10.5 6 2.1
      vertex 10.5 9 2.5
      vertex 10.5 9 2.1
    endloop
  endfacet
  facet normal -1 -0 0
    outer loop
      vertex 10.5 9 2.5
      vertex 10.5 6 2.1
      vertex 10.5 6 2.5
    endloop
  endfacet
  facet normal -1 0 0
    outer loop
      vertex 10.5 -9 2.1
      vertex 10.5 -6 2.5
      vertex 10.5 -6 2.1
    endloop
  endfacet
  facet normal -1 -0 0
    outer loop
      vertex 10.5 -6 2.5
      vertex 10.5 -9 2.1
      vertex 10.5 -9 2.5
    endloop
  endfacet
  facet normal 1 -0 0
    outer loop
      vertex -10.5 6 2.5
      vertex -10.5 9 2.1
      vertex -10.5 9 2.5
    endloop
  endfacet
  facet normal 1 0 0
    outer loop
      vertex -10.5 9 2.1
      vertex -10.5 6 2.5
      vertex -10.5 6 2.1
    endloop
  endfacet
  facet normal 1 -0 0
    outer loop
      vertex -10.5 -9 2.5
      vertex -10.5 -6 2.1
      vertex -10.5 -6 2.5
    endloop
  endfacet
  facet normal 1 0 0
    outer loop
      vertex -10.5 -6 2.1
      vertex -10.5 -9 2.5
      vertex -10.5 -9 2.1
    endloop
  endfacet
  facet normal 0 -1 0
    outer loop
      vertex -10.5 9 2.1
      vertex 10.5 9 2.5
      vertex -10.5 9 2.5
    endloop
  endfacet
  facet normal 0 -1 -0
    outer loop
      vertex 10.5 9 2.5
      vertex -10.5 9 2.1
      vertex 10.5 9 2.1
    endloop
  endfacet
  facet normal 0 1 -0
    outer loop
      vertex 10.5 -9 2.1
      vertex -10.5 -9 2.5
      vertex 10.5 -9 2.5
    endloop
  endfacet
  facet normal 0 1 0
    outer loop
      vertex -10.5 -9 2.5
      vertex 10.5 -9 2.1
      vertex -10.5 -9 2.1
    endloop
  endfacet
endsolid OpenSCAD_Model
