solid OpenSCAD_Model
  facet normal 1 0 0
    outer loop
      vertex 50.5 16.25 24.5
      vertex 50.5 11 19.55
      vertex 50.5 16.25 0
    endloop
  endfacet
  facet normal 1 0 0
    outer loop
      vertex 50.5 16.25 24.5
      vertex 50.5 -11 19.55
      vertex 50.5 11 19.55
    endloop
  endfacet
  facet normal 1 -0 0
    outer loop
      vertex 50.5 -16.25 24.5
      vertex 50.5 -11 19.55
      vertex 50.5 16.25 24.5
    endloop
  endfacet
  facet normal 1 0 0
    outer loop
      vertex 50.5 -16.25 0
      vertex 50.5 -11 19.55
      vertex 50.5 -16.25 24.5
    endloop
  endfacet
  facet normal 1 0 0
    outer loop
      vertex 50.5 -11 19.55
      vertex 50.5 -16.25 0
      vertex 50.5 -11 0
    endloop
  endfacet
  facet normal 1 0 0
    outer loop
      vertex 50.5 16.25 0
      vertex 50.5 11 19.55
      vertex 50.5 11 0
    endloop
  endfacet
  facet normal -0 0 1
    outer loop
      vertex 30.5 16.25 24.5
      vertex 50.5 -16.25 24.5
      vertex 50.5 16.25 24.5
    endloop
  endfacet
  facet normal 0 0 1
    outer loop
      vertex 50.5 -16.25 24.5
      vertex 30.5 16.25 24.5
      vertex 30.5 -16.25 24.5
    endloop
  endfacet
  facet normal 0 0 -1
    outer loop
      vertex 30.5 11 0
      vertex 50.5 16.25 0
      vertex 50.5 11 0
    endloop
  endfacet
  facet normal -0 0 -1
    outer loop
      vertex 50.5 16.25 0
      vertex 30.5 11 0
      vertex 30.5 16.25 0
    endloop
  endfacet
  facet normal 0 0 -1
    outer loop
      vertex 30.5 -16.25 0
      vertex 50.5 -11 0
      vertex 50.5 -16.25 0
    endloop
  endfacet
  facet normal -0 0 -1
    outer loop
      vertex 50.5 -11 0
      vertex 30.5 -16.25 0
      vertex 30.5 -11 0
    endloop
  endfacet
  facet normal -1 0 0
    outer loop
      vertex 30.5 -11 0
      vertex 30.5 -16.25 0
      vertex 30.5 -11 19.55
    endloop
  endfacet
  facet normal -1 0 0
    outer loop
      vertex 30.5 11 19.55
      vertex 30.5 16.25 0
      vertex 30.5 11 0
    endloop
  endfacet
  facet normal -1 0 0
    outer loop
      vertex 30.5 16.25 0
      vertex 30.5 11 19.55
      vertex 30.5 16.25 24.5
    endloop
  endfacet
  facet normal -1 0 0
    outer loop
      vertex 30.5 -11 19.55
      vertex 30.5 16.25 24.5
      vertex 30.5 11 19.55
    endloop
  endfacet
  facet normal -1 0 0
    outer loop
      vertex 30.5 -11 19.55
      vertex 30.5 -16.25 24.5
      vertex 30.5 16.25 24.5
    endloop
  endfacet
  facet normal -1 0 0
    outer loop
      vertex 30.5 -16.25 24.5
      vertex 30.5 -11 19.55
      vertex 30.5 -16.25 0
    endloop
  endfacet
  facet normal 0 1 -0
    outer loop
      vertex 50.5 16.25 0
      vertex 30.5 16.25 24.5
      vertex 50.5 16.25 24.5
    endloop
  endfacet
  facet normal 0 1 0
    outer loop
      vertex 30.5 16.25 24.5
      vertex 50.5 16.25 0
      vertex 30.5 16.25 0
    endloop
  endfacet
  facet normal 0 -1 0
    outer loop
      vertex 30.5 -16.25 0
      vertex 50.5 -16.25 24.5
      vertex 30.5 -16.25 24.5
    endloop
  endfacet
  facet normal 0 -1 -0
    outer loop
      vertex 50.5 -16.25 24.5
      vertex 30.5 -16.25 0
      vertex 50.5 -16.25 0
    endloop
  endfacet
  facet normal 0 0 -1
    outer loop
      vertex 30.5 -11 19.55
      vertex 50.5 11 19.55
      vertex 50.5 -11 19.55
    endloop
  endfacet
  facet normal -0 0 -1
    outer loop
      vertex 50.5 11 19.55
      vertex 30.5 -11 19.55
      vertex 30.5 11 19.55
    endloop
  endfacet
  facet normal 0 -1 0
    outer loop
      vertex 30.5 11 0
      vertex 50.5 11 19.55
      vertex 30.5 11 19.55
    endloop
  endfacet
  facet normal 0 -1 -0
    outer loop
      vertex 50.5 11 19.55
      vertex 30.5 11 0
      vertex 50.5 11 0
    endloop
  endfacet
  facet normal 0 1 -0
    outer loop
      vertex 50.5 -11 0
      vertex 30.5 -11 19.55
      vertex 50.5 -11 19.55
    endloop
  endfacet
  facet normal 0 1 0
    outer loop
      vertex 30.5 -11 19.55
      vertex 50.5 -11 0
      vertex 30.5 -11 0
    endloop
  endfacet
endsolid OpenSCAD_Model
