solid OpenSCAD_Model
  facet normal -0.707107 -0.707107 0
    outer loop
      vertex -62.9284 -75.7981 2.5
      vertex -63.2981 -75.4284 2.71
      vertex -63.2981 -75.4284 2.5
    endloop
  endfacet
  facet normal -0.707107 -0.707107 0
    outer loop
      vertex -63.2981 -75.4284 2.71
      vertex -62.9284 -75.7981 2.5
      vertex -62.9284 -75.7981 2.71
    endloop
  endfacet
  facet normal -0.0872073 -0.99619 0
    outer loop
      vertex -61.5209 -76.4544 2.5
      vertex -61 -76.5 2.71
      vertex -61.5209 -76.4544 2.71
    endloop
  endfacet
  facet normal -0.0872073 -0.99619 -0
    outer loop
      vertex -61 -76.5 2.71
      vertex -61.5209 -76.4544 2.5
      vertex -61 -76.5 2.5
    endloop
  endfacet
  facet normal 0.573616 -0.819124 0
    outer loop
      vertex 62.5 -76.0981 2.5
      vertex 62.9284 -75.7981 2.71
      vertex 62.5 -76.0981 2.71
    endloop
  endfacet
  facet normal 0.573616 -0.819124 0
    outer loop
      vertex 62.9284 -75.7981 2.71
      vertex 62.5 -76.0981 2.5
      vertex 62.9284 -75.7981 2.5
    endloop
  endfacet
  facet normal -0.99619 -0.0872073 0
    outer loop
      vertex -63.9544 -74.0209 2.5
      vertex -64 -73.5 2.71
      vertex -64 -73.5 2.5
    endloop
  endfacet
  facet normal -0.99619 -0.0872073 0
    outer loop
      vertex -64 -73.5 2.71
      vertex -63.9544 -74.0209 2.5
      vertex -63.9544 -74.0209 2.71
    endloop
  endfacet
  facet normal -0.906295 -0.422645 0
    outer loop
      vertex -63.5981 -75 2.5
      vertex -63.8191 -74.5261 2.71
      vertex -63.8191 -74.5261 2.5
    endloop
  endfacet
  facet normal -0.906295 -0.422645 0
    outer loop
      vertex -63.8191 -74.5261 2.71
      vertex -63.5981 -75 2.5
      vertex -63.5981 -75 2.71
    endloop
  endfacet
  facet normal -1 0 0
    outer loop
      vertex -64 -73.5 2.5
      vertex -64 73.5 2.71
      vertex -64 73.5 2.5
    endloop
  endfacet
  facet normal -1 -0 0
    outer loop
      vertex -64 73.5 2.71
      vertex -64 -73.5 2.5
      vertex -64 -73.5 2.71
    endloop
  endfacet
  facet normal 0.99619 -0.0872073 0
    outer loop
      vertex 63.9544 -74.0209 2.71
      vertex 64 -73.5 2.5
      vertex 64 -73.5 2.71
    endloop
  endfacet
  facet normal 0.99619 -0.0872073 0
    outer loop
      vertex 64 -73.5 2.5
      vertex 63.9544 -74.0209 2.71
      vertex 63.9544 -74.0209 2.5
    endloop
  endfacet
  facet normal 1 -0 0
    outer loop
      vertex 64 -73.5 2.71
      vertex 64 73.5 2.5
      vertex 64 73.5 2.71
    endloop
  endfacet
  facet normal 1 0 0
    outer loop
      vertex 64 73.5 2.5
      vertex 64 -73.5 2.71
      vertex 64 -73.5 2.5
    endloop
  endfacet
  facet normal -0.422645 0.906295 0
    outer loop
      vertex -62.0261 76.3191 2.5
      vertex -62.5 76.0981 2.71
      vertex -62.0261 76.3191 2.71
    endloop
  endfacet
  facet normal -0.422645 0.906295 0
    outer loop
      vertex -62.5 76.0981 2.71
      vertex -62.0261 76.3191 2.5
      vertex -62.5 76.0981 2.5
    endloop
  endfacet
  facet normal 0 1 -0
    outer loop
      vertex 61 76.5 2.5
      vertex -61 76.5 2.71
      vertex 61 76.5 2.71
    endloop
  endfacet
  facet normal 0 1 0
    outer loop
      vertex -61 76.5 2.71
      vertex 61 76.5 2.5
      vertex -61 76.5 2.5
    endloop
  endfacet
  facet normal -0.965958 -0.258698 0
    outer loop
      vertex -63.8191 -74.5261 2.5
      vertex -63.9544 -74.0209 2.71
      vertex -63.9544 -74.0209 2.5
    endloop
  endfacet
  facet normal -0.965958 -0.258698 0
    outer loop
      vertex -63.9544 -74.0209 2.71
      vertex -63.8191 -74.5261 2.5
      vertex -63.8191 -74.5261 2.71
    endloop
  endfacet
  facet normal 0.422645 -0.906295 0
    outer loop
      vertex 62.0261 -76.3191 2.5
      vertex 62.5 -76.0981 2.71
      vertex 62.0261 -76.3191 2.71
    endloop
  endfacet
  facet normal 0.422645 -0.906295 0
    outer loop
      vertex 62.5 -76.0981 2.71
      vertex 62.0261 -76.3191 2.5
      vertex 62.5 -76.0981 2.5
    endloop
  endfacet
  facet normal 0.99619 0.0872073 0
    outer loop
      vertex 64 73.5 2.71
      vertex 63.9544 74.0209 2.5
      vertex 63.9544 74.0209 2.71
    endloop
  endfacet
  facet normal 0.99619 0.0872073 0
    outer loop
      vertex 63.9544 74.0209 2.5
      vertex 64 73.5 2.71
      vertex 64 73.5 2.5
    endloop
  endfacet
  facet normal 0.906295 0.422645 0
    outer loop
      vertex 63.8191 74.5261 2.71
      vertex 63.5981 75 2.5
      vertex 63.5981 75 2.71
    endloop
  endfacet
  facet normal 0.906295 0.422645 0
    outer loop
      vertex 63.5981 75 2.5
      vertex 63.8191 74.5261 2.71
      vertex 63.8191 74.5261 2.5
    endloop
  endfacet
  facet normal 0.965958 -0.258698 0
    outer loop
      vertex 63.8191 -74.5261 2.71
      vertex 63.9544 -74.0209 2.5
      vertex 63.9544 -74.0209 2.71
    endloop
  endfacet
  facet normal 0.965958 -0.258698 0
    outer loop
      vertex 63.9544 -74.0209 2.5
      vertex 63.8191 -74.5261 2.71
      vertex 63.8191 -74.5261 2.5
    endloop
  endfacet
  facet normal -0.258698 0.965958 0
    outer loop
      vertex -61.5209 76.4544 2.5
      vertex -62.0261 76.3191 2.71
      vertex -61.5209 76.4544 2.71
    endloop
  endfacet
  facet normal -0.258698 0.965958 0
    outer loop
      vertex -62.0261 76.3191 2.71
      vertex -61.5209 76.4544 2.5
      vertex -62.0261 76.3191 2.5
    endloop
  endfacet
  facet normal 0.819124 -0.573616 0
    outer loop
      vertex 63.2981 -75.4284 2.71
      vertex 63.5981 -75 2.5
      vertex 63.5981 -75 2.71
    endloop
  endfacet
  facet normal 0.819124 -0.573616 0
    outer loop
      vertex 63.5981 -75 2.5
      vertex 63.2981 -75.4284 2.71
      vertex 63.2981 -75.4284 2.5
    endloop
  endfacet
  facet normal -0.707107 0.707107 0
    outer loop
      vertex -63.2981 75.4284 2.5
      vertex -62.9284 75.7981 2.71
      vertex -62.9284 75.7981 2.5
    endloop
  endfacet
  facet normal -0.707107 0.707107 0
    outer loop
      vertex -62.9284 75.7981 2.71
      vertex -63.2981 75.4284 2.5
      vertex -63.2981 75.4284 2.71
    endloop
  endfacet
  facet normal 0.819124 0.573616 0
    outer loop
      vertex 63.5981 75 2.71
      vertex 63.2981 75.4284 2.5
      vertex 63.2981 75.4284 2.71
    endloop
  endfacet
  facet normal 0.819124 0.573616 0
    outer loop
      vertex 63.2981 75.4284 2.5
      vertex 63.5981 75 2.71
      vertex 63.5981 75 2.5
    endloop
  endfacet
  facet normal 0.965958 0.258698 0
    outer loop
      vertex 63.9544 74.0209 2.71
      vertex 63.8191 74.5261 2.5
      vertex 63.8191 74.5261 2.71
    endloop
  endfacet
  facet normal 0.965958 0.258698 0
    outer loop
      vertex 63.8191 74.5261 2.5
      vertex 63.9544 74.0209 2.71
      vertex 63.9544 74.0209 2.5
    endloop
  endfacet
  facet normal -0.258698 -0.965958 0
    outer loop
      vertex -62.0261 -76.3191 2.5
      vertex -61.5209 -76.4544 2.71
      vertex -62.0261 -76.3191 2.71
    endloop
  endfacet
  facet normal -0.258698 -0.965958 -0
    outer loop
      vertex -61.5209 -76.4544 2.71
      vertex -62.0261 -76.3191 2.5
      vertex -61.5209 -76.4544 2.5
    endloop
  endfacet
  facet normal 0.707107 -0.707107 0
    outer loop
      vertex 62.9284 -75.7981 2.71
      vertex 63.2981 -75.4284 2.5
      vertex 63.2981 -75.4284 2.71
    endloop
  endfacet
  facet normal 0.707107 -0.707107 0
    outer loop
      vertex 63.2981 -75.4284 2.5
      vertex 62.9284 -75.7981 2.71
      vertex 62.9284 -75.7981 2.5
    endloop
  endfacet
  facet normal 0 -1 0
    outer loop
      vertex -61 -76.5 2.5
      vertex 61 -76.5 2.71
      vertex -61 -76.5 2.71
    endloop
  endfacet
  facet normal 0 -1 -0
    outer loop
      vertex 61 -76.5 2.71
      vertex -61 -76.5 2.5
      vertex 61 -76.5 2.5
    endloop
  endfacet
  facet normal -0.0872073 0.99619 0
    outer loop
      vertex -61 76.5 2.5
      vertex -61.5209 76.4544 2.71
      vertex -61 76.5 2.71
    endloop
  endfacet
  facet normal -0.0872073 0.99619 0
    outer loop
      vertex -61.5209 76.4544 2.71
      vertex -61 76.5 2.5
      vertex -61.5209 76.4544 2.5
    endloop
  endfacet
  facet normal -0.422645 -0.906295 0
    outer loop
      vertex -62.5 -76.0981 2.5
      vertex -62.0261 -76.3191 2.71
      vertex -62.5 -76.0981 2.71
    endloop
  endfacet
  facet normal -0.422645 -0.906295 -0
    outer loop
      vertex -62.0261 -76.3191 2.71
      vertex -62.5 -76.0981 2.5
      vertex -62.0261 -76.3191 2.5
    endloop
  endfacet
  facet normal 0.906295 -0.422645 0
    outer loop
      vertex 63.5981 -75 2.71
      vertex 63.8191 -74.5261 2.5
      vertex 63.8191 -74.5261 2.71
    endloop
  endfacet
  facet normal 0.906295 -0.422645 0
    outer loop
      vertex 63.8191 -74.5261 2.5
      vertex 63.5981 -75 2.71
      vertex 63.5981 -75 2.5
    endloop
  endfacet
  facet normal -0.573616 0.819124 0
    outer loop
      vertex -62.5 76.0981 2.5
      vertex -62.9284 75.7981 2.71
      vertex -62.5 76.0981 2.71
    endloop
  endfacet
  facet normal -0.573616 0.819124 0
    outer loop
      vertex -62.9284 75.7981 2.71
      vertex -62.5 76.0981 2.5
      vertex -62.9284 75.7981 2.5
    endloop
  endfacet
  facet normal 0.422645 0.906295 -0
    outer loop
      vertex 62.5 76.0981 2.5
      vertex 62.0261 76.3191 2.71
      vertex 62.5 76.0981 2.71
    endloop
  endfacet
  facet normal 0.422645 0.906295 0
    outer loop
      vertex 62.0261 76.3191 2.71
      vertex 62.5 76.0981 2.5
      vertex 62.0261 76.3191 2.5
    endloop
  endfacet
  facet normal -0.819124 -0.573616 0
    outer loop
      vertex -63.2981 -75.4284 2.5
      vertex -63.5981 -75 2.71
      vertex -63.5981 -75 2.5
    endloop
  endfacet
  facet normal -0.819124 -0.573616 0
    outer loop
      vertex -63.5981 -75 2.71
      vertex -63.2981 -75.4284 2.5
      vertex -63.2981 -75.4284 2.71
    endloop
  endfacet
  facet normal 0.258698 -0.965958 0
    outer loop
      vertex 61.5209 -76.4544 2.5
      vertex 62.0261 -76.3191 2.71
      vertex 61.5209 -76.4544 2.71
    endloop
  endfacet
  facet normal 0.258698 -0.965958 0
    outer loop
      vertex 62.0261 -76.3191 2.71
      vertex 61.5209 -76.4544 2.5
      vertex 62.0261 -76.3191 2.5
    endloop
  endfacet
  facet normal 0.707107 0.707107 0
    outer loop
      vertex 63.2981 75.4284 2.71
      vertex 62.9284 75.7981 2.5
      vertex 62.9284 75.7981 2.71
    endloop
  endfacet
  facet normal 0.707107 0.707107 0
    outer loop
      vertex 62.9284 75.7981 2.5
      vertex 63.2981 75.4284 2.71
      vertex 63.2981 75.4284 2.5
    endloop
  endfacet
  facet normal -0.573616 -0.819124 0
    outer loop
      vertex -62.9284 -75.7981 2.5
      vertex -62.5 -76.0981 2.71
      vertex -62.9284 -75.7981 2.71
    endloop
  endfacet
  facet normal -0.573616 -0.819124 -0
    outer loop
      vertex -62.5 -76.0981 2.71
      vertex -62.9284 -75.7981 2.5
      vertex -62.5 -76.0981 2.5
    endloop
  endfacet
  facet normal -0.819124 0.573616 0
    outer loop
      vertex -63.5981 75 2.5
      vertex -63.2981 75.4284 2.71
      vertex -63.2981 75.4284 2.5
    endloop
  endfacet
  facet normal -0.819124 0.573616 0
    outer loop
      vertex -63.2981 75.4284 2.71
      vertex -63.5981 75 2.5
      vertex -63.5981 75 2.71
    endloop
  endfacet
  facet normal 0.258698 0.965958 -0
    outer loop
      vertex 62.0261 76.3191 2.5
      vertex 61.5209 76.4544 2.71
      vertex 62.0261 76.3191 2.71
    endloop
  endfacet
  facet normal 0.258698 0.965958 0
    outer loop
      vertex 61.5209 76.4544 2.71
      vertex 62.0261 76.3191 2.5
      vertex 61.5209 76.4544 2.5
    endloop
  endfacet
  facet normal 0.573616 0.819124 -0
    outer loop
      vertex 62.9284 75.7981 2.5
      vertex 62.5 76.0981 2.71
      vertex 62.9284 75.7981 2.71
    endloop
  endfacet
  facet normal 0.573616 0.819124 0
    outer loop
      vertex 62.5 76.0981 2.71
      vertex 62.9284 75.7981 2.5
      vertex 62.5 76.0981 2.5
    endloop
  endfacet
  facet normal 0.0872073 0.99619 -0
    outer loop
      vertex 61.5209 76.4544 2.5
      vertex 61 76.5 2.71
      vertex 61.5209 76.4544 2.71
    endloop
  endfacet
  facet normal 0.0872073 0.99619 0
    outer loop
      vertex 61 76.5 2.71
      vertex 61.5209 76.4544 2.5
      vertex 61 76.5 2.5
    endloop
  endfacet
  facet normal 0 0 -1
    outer loop
      vertex 63.0691 -73.7761 2.5
      vertex 64 -73.5 2.5
      vertex 63.9544 -74.0209 2.5
    endloop
  endfacet
  facet normal 0 0 -1
    outer loop
      vertex 64 -73.5 2.5
      vertex 63.25 -72.75 2.5
      vertex 64 73.5 2.5
    endloop
  endfacet
  facet normal 0 0 -1
    outer loop
      vertex 63.0691 -73.7761 2.5
      vertex 63.9544 -74.0209 2.5
      vertex 63.8191 -74.5261 2.5
    endloop
  endfacet
  facet normal 0 0 -1
    outer loop
      vertex 63.25 72.75 2.5
      vertex 64 73.5 2.5
      vertex 63.25 -72.75 2.5
    endloop
  endfacet
  facet normal 0 0 -1
    outer loop
      vertex 62.8481 -74.25 2.5
      vertex 63.8191 -74.5261 2.5
      vertex 63.5981 -75 2.5
    endloop
  endfacet
  facet normal 0 0 -1
    outer loop
      vertex 63.2044 73.2709 2.5
      vertex 64 73.5 2.5
      vertex 63.25 72.75 2.5
    endloop
  endfacet
  facet normal 0 0 -1
    outer loop
      vertex 62.5481 -74.6784 2.5
      vertex 63.5981 -75 2.5
      vertex 63.2981 -75.4284 2.5
    endloop
  endfacet
  facet normal 0 0 -1
    outer loop
      vertex 63.0691 73.7761 2.5
      vertex 64 73.5 2.5
      vertex 63.2044 73.2709 2.5
    endloop
  endfacet
  facet normal 0 0 -1
    outer loop
      vertex 64 73.5 2.5
      vertex 63.0691 73.7761 2.5
      vertex 63.9544 74.0209 2.5
    endloop
  endfacet
  facet normal 0 0 -1
    outer loop
      vertex 64 -73.5 2.5
      vertex 63.2044 -73.2709 2.5
      vertex 63.25 -72.75 2.5
    endloop
  endfacet
  facet normal -0 0 -1
    outer loop
      vertex 64 -73.5 2.5
      vertex 63.0691 -73.7761 2.5
      vertex 63.2044 -73.2709 2.5
    endloop
  endfacet
  facet normal 0 0 -1
    outer loop
      vertex 62.5481 -74.6784 2.5
      vertex 63.2981 -75.4284 2.5
      vertex 62.9284 -75.7981 2.5
    endloop
  endfacet
  facet normal 0 0 -1
    outer loop
      vertex 63.8191 -74.5261 2.5
      vertex 62.8481 -74.25 2.5
      vertex 63.0691 -73.7761 2.5
    endloop
  endfacet
  facet normal 0 0 -1
    outer loop
      vertex 63.5981 -75 2.5
      vertex 62.5481 -74.6784 2.5
      vertex 62.8481 -74.25 2.5
    endloop
  endfacet
  facet normal 0 0 -1
    outer loop
      vertex 62.1784 -75.0481 2.5
      vertex 62.9284 -75.7981 2.5
      vertex 62.5 -76.0981 2.5
    endloop
  endfacet
  facet normal 0 0 -1
    outer loop
      vertex 62.9284 -75.7981 2.5
      vertex 62.1784 -75.0481 2.5
      vertex 62.5481 -74.6784 2.5
    endloop
  endfacet
  facet normal 0 0 -1
    outer loop
      vertex 61.75 -75.3481 2.5
      vertex 62.5 -76.0981 2.5
      vertex 62.0261 -76.3191 2.5
    endloop
  endfacet
  facet normal 0 0 -1
    outer loop
      vertex 62.5 -76.0981 2.5
      vertex 61.75 -75.3481 2.5
      vertex 62.1784 -75.0481 2.5
    endloop
  endfacet
  facet normal 0 0 -1
    outer loop
      vertex 61.2761 -75.5691 2.5
      vertex 62.0261 -76.3191 2.5
      vertex 61.5209 -76.4544 2.5
    endloop
  endfacet
  facet normal 0 0 -1
    outer loop
      vertex 62.0261 -76.3191 2.5
      vertex 61.2761 -75.5691 2.5
      vertex 61.75 -75.3481 2.5
    endloop
  endfacet
  facet normal 0 0 -1
    outer loop
      vertex 61 -76.5 2.5
      vertex 61.2761 -75.5691 2.5
      vertex 61.5209 -76.4544 2.5
    endloop
  endfacet
  facet normal 0 0 -1
    outer loop
      vertex 61 -76.5 2.5
      vertex 60.7709 -75.7044 2.5
      vertex 61.2761 -75.5691 2.5
    endloop
  endfacet
  facet normal 0 0 -1
    outer loop
      vertex 61 -76.5 2.5
      vertex 60.25 -75.75 2.5
      vertex 60.7709 -75.7044 2.5
    endloop
  endfacet
  facet normal 0 0 -1
    outer loop
      vertex 61 -76.5 2.5
      vertex -60.25 -75.75 2.5
      vertex 60.25 -75.75 2.5
    endloop
  endfacet
  facet normal 0 0 -1
    outer loop
      vertex -61 -76.5 2.5
      vertex -60.25 -75.75 2.5
      vertex 61 -76.5 2.5
    endloop
  endfacet
  facet normal 0 0 -1
    outer loop
      vertex -61 -76.5 2.5
      vertex -60.7709 -75.7044 2.5
      vertex -60.25 -75.75 2.5
    endloop
  endfacet
  facet normal 0 0 -1
    outer loop
      vertex -61 -76.5 2.5
      vertex -61.2761 -75.5691 2.5
      vertex -60.7709 -75.7044 2.5
    endloop
  endfacet
  facet normal 0 0 -1
    outer loop
      vertex -61.5209 -76.4544 2.5
      vertex -61.2761 -75.5691 2.5
      vertex -61 -76.5 2.5
    endloop
  endfacet
  facet normal 0 0 -1
    outer loop
      vertex -62.0261 -76.3191 2.5
      vertex -61.2761 -75.5691 2.5
      vertex -61.5209 -76.4544 2.5
    endloop
  endfacet
  facet normal -0 0 -1
    outer loop
      vertex -61.2761 -75.5691 2.5
      vertex -62.0261 -76.3191 2.5
      vertex -61.75 -75.3481 2.5
    endloop
  endfacet
  facet normal 0 0 -1
    outer loop
      vertex -62.5 -76.0981 2.5
      vertex -61.75 -75.3481 2.5
      vertex -62.0261 -76.3191 2.5
    endloop
  endfacet
  facet normal -0 0 -1
    outer loop
      vertex -61.75 -75.3481 2.5
      vertex -62.5 -76.0981 2.5
      vertex -62.1784 -75.0481 2.5
    endloop
  endfacet
  facet normal 0 0 -1
    outer loop
      vertex -62.9284 -75.7981 2.5
      vertex -62.1784 -75.0481 2.5
      vertex -62.5 -76.0981 2.5
    endloop
  endfacet
  facet normal -0 0 -1
    outer loop
      vertex -62.1784 -75.0481 2.5
      vertex -62.9284 -75.7981 2.5
      vertex -62.5481 -74.6784 2.5
    endloop
  endfacet
  facet normal 0 0 -1
    outer loop
      vertex -63.2981 -75.4284 2.5
      vertex -62.5481 -74.6784 2.5
      vertex -62.9284 -75.7981 2.5
    endloop
  endfacet
  facet normal 0 0 -1
    outer loop
      vertex -63.5981 -75 2.5
      vertex -62.5481 -74.6784 2.5
      vertex -63.2981 -75.4284 2.5
    endloop
  endfacet
  facet normal -0 0 -1
    outer loop
      vertex -62.5481 -74.6784 2.5
      vertex -63.5981 -75 2.5
      vertex -62.8481 -74.25 2.5
    endloop
  endfacet
  facet normal 0 0 -1
    outer loop
      vertex -63.9544 -74.0209 2.5
      vertex -63.0691 -73.7761 2.5
      vertex -63.8191 -74.5261 2.5
    endloop
  endfacet
  facet normal -0 0 -1
    outer loop
      vertex -62.8481 -74.25 2.5
      vertex -63.8191 -74.5261 2.5
      vertex -63.0691 -73.7761 2.5
    endloop
  endfacet
  facet normal 0 0 -1
    outer loop
      vertex -63.8191 -74.5261 2.5
      vertex -62.8481 -74.25 2.5
      vertex -63.5981 -75 2.5
    endloop
  endfacet
  facet normal -0 0 -1
    outer loop
      vertex 63.9544 74.0209 2.5
      vertex 63.0691 73.7761 2.5
      vertex 63.8191 74.5261 2.5
    endloop
  endfacet
  facet normal 0 0 -1
    outer loop
      vertex 62.8481 74.25 2.5
      vertex 63.8191 74.5261 2.5
      vertex 63.0691 73.7761 2.5
    endloop
  endfacet
  facet normal -0 0 -1
    outer loop
      vertex 63.8191 74.5261 2.5
      vertex 62.8481 74.25 2.5
      vertex 63.5981 75 2.5
    endloop
  endfacet
  facet normal 0 0 -1
    outer loop
      vertex 62.5481 74.6784 2.5
      vertex 63.5981 75 2.5
      vertex 62.8481 74.25 2.5
    endloop
  endfacet
  facet normal -0 0 -1
    outer loop
      vertex 63.5981 75 2.5
      vertex 62.5481 74.6784 2.5
      vertex 63.2981 75.4284 2.5
    endloop
  endfacet
  facet normal -0 0 -1
    outer loop
      vertex 63.2981 75.4284 2.5
      vertex 62.5481 74.6784 2.5
      vertex 62.9284 75.7981 2.5
    endloop
  endfacet
  facet normal 0 0 -1
    outer loop
      vertex 62.1784 75.0481 2.5
      vertex 62.9284 75.7981 2.5
      vertex 62.5481 74.6784 2.5
    endloop
  endfacet
  facet normal -0 0 -1
    outer loop
      vertex 62.9284 75.7981 2.5
      vertex 62.1784 75.0481 2.5
      vertex 62.5 76.0981 2.5
    endloop
  endfacet
  facet normal 0 0 -1
    outer loop
      vertex 61.75 75.3481 2.5
      vertex 62.5 76.0981 2.5
      vertex 62.1784 75.0481 2.5
    endloop
  endfacet
  facet normal -0 0 -1
    outer loop
      vertex 62.5 76.0981 2.5
      vertex 61.75 75.3481 2.5
      vertex 62.0261 76.3191 2.5
    endloop
  endfacet
  facet normal 0 0 -1
    outer loop
      vertex 61.2761 75.5691 2.5
      vertex 62.0261 76.3191 2.5
      vertex 61.75 75.3481 2.5
    endloop
  endfacet
  facet normal -0 0 -1
    outer loop
      vertex 62.0261 76.3191 2.5
      vertex 61.2761 75.5691 2.5
      vertex 61.5209 76.4544 2.5
    endloop
  endfacet
  facet normal 0 0 -1
    outer loop
      vertex 61.2761 75.5691 2.5
      vertex 61 76.5 2.5
      vertex 61.5209 76.4544 2.5
    endloop
  endfacet
  facet normal 0 0 -1
    outer loop
      vertex 60.7709 75.7044 2.5
      vertex 61 76.5 2.5
      vertex 61.2761 75.5691 2.5
    endloop
  endfacet
  facet normal 0 0 -1
    outer loop
      vertex 60.25 75.75 2.5
      vertex 61 76.5 2.5
      vertex 60.7709 75.7044 2.5
    endloop
  endfacet
  facet normal 0 0 -1
    outer loop
      vertex -60.25 75.75 2.5
      vertex 61 76.5 2.5
      vertex 60.25 75.75 2.5
    endloop
  endfacet
  facet normal 0 0 -1
    outer loop
      vertex -60.25 75.75 2.5
      vertex -61 76.5 2.5
      vertex 61 76.5 2.5
    endloop
  endfacet
  facet normal 0 0 -1
    outer loop
      vertex -60.7709 75.7044 2.5
      vertex -61 76.5 2.5
      vertex -60.25 75.75 2.5
    endloop
  endfacet
  facet normal 0 0 -1
    outer loop
      vertex -61.2761 75.5691 2.5
      vertex -61 76.5 2.5
      vertex -60.7709 75.7044 2.5
    endloop
  endfacet
  facet normal 0 0 -1
    outer loop
      vertex -61.2761 75.5691 2.5
      vertex -61.5209 76.4544 2.5
      vertex -61 76.5 2.5
    endloop
  endfacet
  facet normal 0 0 -1
    outer loop
      vertex -62.0261 76.3191 2.5
      vertex -61.2761 75.5691 2.5
      vertex -61.75 75.3481 2.5
    endloop
  endfacet
  facet normal 0 0 -1
    outer loop
      vertex -61.2761 75.5691 2.5
      vertex -62.0261 76.3191 2.5
      vertex -61.5209 76.4544 2.5
    endloop
  endfacet
  facet normal 0 0 -1
    outer loop
      vertex -62.5 76.0981 2.5
      vertex -61.75 75.3481 2.5
      vertex -62.1784 75.0481 2.5
    endloop
  endfacet
  facet normal 0 0 -1
    outer loop
      vertex -61.75 75.3481 2.5
      vertex -62.5 76.0981 2.5
      vertex -62.0261 76.3191 2.5
    endloop
  endfacet
  facet normal 0 0 -1
    outer loop
      vertex -62.9284 75.7981 2.5
      vertex -62.1784 75.0481 2.5
      vertex -62.5481 74.6784 2.5
    endloop
  endfacet
  facet normal 0 0 -1
    outer loop
      vertex -63.5981 75 2.5
      vertex -62.5481 74.6784 2.5
      vertex -62.8481 74.25 2.5
    endloop
  endfacet
  facet normal 0 0 -1
    outer loop
      vertex -62.1784 75.0481 2.5
      vertex -62.9284 75.7981 2.5
      vertex -62.5 76.0981 2.5
    endloop
  endfacet
  facet normal 0 0 -1
    outer loop
      vertex -63.8191 74.5261 2.5
      vertex -62.8481 74.25 2.5
      vertex -63.0691 73.7761 2.5
    endloop
  endfacet
  facet normal 0 0 -1
    outer loop
      vertex -64 73.5 2.5
      vertex -63.0691 73.7761 2.5
      vertex -63.2044 73.2709 2.5
    endloop
  endfacet
  facet normal 0 0 -1
    outer loop
      vertex -62.5481 74.6784 2.5
      vertex -63.2981 75.4284 2.5
      vertex -62.9284 75.7981 2.5
    endloop
  endfacet
  facet normal 0 0 -1
    outer loop
      vertex -64 73.5 2.5
      vertex -63.2044 73.2709 2.5
      vertex -63.25 72.75 2.5
    endloop
  endfacet
  facet normal -0 0 -1
    outer loop
      vertex -63.25 -72.75 2.5
      vertex -64 -73.5 2.5
      vertex -63.25 72.75 2.5
    endloop
  endfacet
  facet normal 0 0 -1
    outer loop
      vertex -64 -73.5 2.5
      vertex -63.0691 -73.7761 2.5
      vertex -63.9544 -74.0209 2.5
    endloop
  endfacet
  facet normal 0 0 -1
    outer loop
      vertex -64 73.5 2.5
      vertex -63.25 72.75 2.5
      vertex -64 -73.5 2.5
    endloop
  endfacet
  facet normal 0 0 -1
    outer loop
      vertex -63.0691 -73.7761 2.5
      vertex -64 -73.5 2.5
      vertex -63.2044 -73.2709 2.5
    endloop
  endfacet
  facet normal -0 0 -1
    outer loop
      vertex -63.0691 73.7761 2.5
      vertex -64 73.5 2.5
      vertex -63.9544 74.0209 2.5
    endloop
  endfacet
  facet normal -0 0 -1
    outer loop
      vertex -63.2044 -73.2709 2.5
      vertex -64 -73.5 2.5
      vertex -63.25 -72.75 2.5
    endloop
  endfacet
  facet normal 0 0 -1
    outer loop
      vertex -62.5481 74.6784 2.5
      vertex -63.5981 75 2.5
      vertex -63.2981 75.4284 2.5
    endloop
  endfacet
  facet normal 0 0 -1
    outer loop
      vertex -62.8481 74.25 2.5
      vertex -63.8191 74.5261 2.5
      vertex -63.5981 75 2.5
    endloop
  endfacet
  facet normal 0 0 -1
    outer loop
      vertex -63.0691 73.7761 2.5
      vertex -63.9544 74.0209 2.5
      vertex -63.8191 74.5261 2.5
    endloop
  endfacet
  facet normal -0 0 1
    outer loop
      vertex 63.0691 73.7761 2.71
      vertex 64 73.5 2.71
      vertex 63.9544 74.0209 2.71
    endloop
  endfacet
  facet normal 0 0 1
    outer loop
      vertex 64 73.5 2.71
      vertex 63.25 72.75 2.71
      vertex 64 -73.5 2.71
    endloop
  endfacet
  facet normal 0 0 1
    outer loop
      vertex 63.0691 73.7761 2.71
      vertex 63.9544 74.0209 2.71
      vertex 63.8191 74.5261 2.71
    endloop
  endfacet
  facet normal -0 0 1
    outer loop
      vertex 63.25 -72.75 2.71
      vertex 64 -73.5 2.71
      vertex 63.25 72.75 2.71
    endloop
  endfacet
  facet normal 0 0 1
    outer loop
      vertex 62.8481 74.25 2.71
      vertex 63.8191 74.5261 2.71
      vertex 63.5981 75 2.71
    endloop
  endfacet
  facet normal -0 0 1
    outer loop
      vertex 63.2044 -73.2709 2.71
      vertex 64 -73.5 2.71
      vertex 63.25 -72.75 2.71
    endloop
  endfacet
  facet normal 0 0 1
    outer loop
      vertex 62.5481 74.6784 2.71
      vertex 63.5981 75 2.71
      vertex 63.2981 75.4284 2.71
    endloop
  endfacet
  facet normal 0 0 1
    outer loop
      vertex 63.0691 -73.7761 2.71
      vertex 64 -73.5 2.71
      vertex 63.2044 -73.2709 2.71
    endloop
  endfacet
  facet normal 0 0 1
    outer loop
      vertex 64 -73.5 2.71
      vertex 63.0691 -73.7761 2.71
      vertex 63.9544 -74.0209 2.71
    endloop
  endfacet
  facet normal 0 0 1
    outer loop
      vertex 64 73.5 2.71
      vertex 63.2044 73.2709 2.71
      vertex 63.25 72.75 2.71
    endloop
  endfacet
  facet normal 0 0 1
    outer loop
      vertex 64 73.5 2.71
      vertex 63.0691 73.7761 2.71
      vertex 63.2044 73.2709 2.71
    endloop
  endfacet
  facet normal 0 0 1
    outer loop
      vertex 62.5481 74.6784 2.71
      vertex 63.2981 75.4284 2.71
      vertex 62.9284 75.7981 2.71
    endloop
  endfacet
  facet normal 0 0 1
    outer loop
      vertex 63.8191 74.5261 2.71
      vertex 62.8481 74.25 2.71
      vertex 63.0691 73.7761 2.71
    endloop
  endfacet
  facet normal 0 0 1
    outer loop
      vertex 63.5981 75 2.71
      vertex 62.5481 74.6784 2.71
      vertex 62.8481 74.25 2.71
    endloop
  endfacet
  facet normal 0 0 1
    outer loop
      vertex 62.1784 75.0481 2.71
      vertex 62.9284 75.7981 2.71
      vertex 62.5 76.0981 2.71
    endloop
  endfacet
  facet normal 0 0 1
    outer loop
      vertex 62.9284 75.7981 2.71
      vertex 62.1784 75.0481 2.71
      vertex 62.5481 74.6784 2.71
    endloop
  endfacet
  facet normal 0 0 1
    outer loop
      vertex 61.75 75.3481 2.71
      vertex 62.5 76.0981 2.71
      vertex 62.0261 76.3191 2.71
    endloop
  endfacet
  facet normal 0 0 1
    outer loop
      vertex 62.5 76.0981 2.71
      vertex 61.75 75.3481 2.71
      vertex 62.1784 75.0481 2.71
    endloop
  endfacet
  facet normal 0 0 1
    outer loop
      vertex 61.2761 75.5691 2.71
      vertex 62.0261 76.3191 2.71
      vertex 61.5209 76.4544 2.71
    endloop
  endfacet
  facet normal 0 0 1
    outer loop
      vertex 62.0261 76.3191 2.71
      vertex 61.2761 75.5691 2.71
      vertex 61.75 75.3481 2.71
    endloop
  endfacet
  facet normal 0 0 1
    outer loop
      vertex 61 76.5 2.71
      vertex 61.2761 75.5691 2.71
      vertex 61.5209 76.4544 2.71
    endloop
  endfacet
  facet normal 0 0 1
    outer loop
      vertex 61 76.5 2.71
      vertex 60.7709 75.7044 2.71
      vertex 61.2761 75.5691 2.71
    endloop
  endfacet
  facet normal 0 0 1
    outer loop
      vertex 61 76.5 2.71
      vertex 60.25 75.75 2.71
      vertex 60.7709 75.7044 2.71
    endloop
  endfacet
  facet normal 0 0 1
    outer loop
      vertex 61 76.5 2.71
      vertex -60.25 75.75 2.71
      vertex 60.25 75.75 2.71
    endloop
  endfacet
  facet normal -0 0 1
    outer loop
      vertex -61 76.5 2.71
      vertex -60.25 75.75 2.71
      vertex 61 76.5 2.71
    endloop
  endfacet
  facet normal 0 0 1
    outer loop
      vertex -61 76.5 2.71
      vertex -60.7709 75.7044 2.71
      vertex -60.25 75.75 2.71
    endloop
  endfacet
  facet normal 0 0 1
    outer loop
      vertex -61 76.5 2.71
      vertex -61.2761 75.5691 2.71
      vertex -60.7709 75.7044 2.71
    endloop
  endfacet
  facet normal -0 0 1
    outer loop
      vertex -61.5209 76.4544 2.71
      vertex -61.2761 75.5691 2.71
      vertex -61 76.5 2.71
    endloop
  endfacet
  facet normal -0 0 1
    outer loop
      vertex -62.0261 76.3191 2.71
      vertex -61.2761 75.5691 2.71
      vertex -61.5209 76.4544 2.71
    endloop
  endfacet
  facet normal 0 0 1
    outer loop
      vertex -61.2761 75.5691 2.71
      vertex -62.0261 76.3191 2.71
      vertex -61.75 75.3481 2.71
    endloop
  endfacet
  facet normal -0 0 1
    outer loop
      vertex -62.5 76.0981 2.71
      vertex -61.75 75.3481 2.71
      vertex -62.0261 76.3191 2.71
    endloop
  endfacet
  facet normal 0 0 1
    outer loop
      vertex -61.75 75.3481 2.71
      vertex -62.5 76.0981 2.71
      vertex -62.1784 75.0481 2.71
    endloop
  endfacet
  facet normal -0 0 1
    outer loop
      vertex -62.9284 75.7981 2.71
      vertex -62.1784 75.0481 2.71
      vertex -62.5 76.0981 2.71
    endloop
  endfacet
  facet normal 0 0 1
    outer loop
      vertex -62.1784 75.0481 2.71
      vertex -62.9284 75.7981 2.71
      vertex -62.5481 74.6784 2.71
    endloop
  endfacet
  facet normal -0 0 1
    outer loop
      vertex -63.2981 75.4284 2.71
      vertex -62.5481 74.6784 2.71
      vertex -62.9284 75.7981 2.71
    endloop
  endfacet
  facet normal -0 0 1
    outer loop
      vertex -63.5981 75 2.71
      vertex -62.5481 74.6784 2.71
      vertex -63.2981 75.4284 2.71
    endloop
  endfacet
  facet normal 0 0 1
    outer loop
      vertex -62.5481 74.6784 2.71
      vertex -63.5981 75 2.71
      vertex -62.8481 74.25 2.71
    endloop
  endfacet
  facet normal -0 0 1
    outer loop
      vertex -63.9544 74.0209 2.71
      vertex -63.0691 73.7761 2.71
      vertex -63.8191 74.5261 2.71
    endloop
  endfacet
  facet normal 0 0 1
    outer loop
      vertex -62.8481 74.25 2.71
      vertex -63.8191 74.5261 2.71
      vertex -63.0691 73.7761 2.71
    endloop
  endfacet
  facet normal -0 0 1
    outer loop
      vertex -63.8191 74.5261 2.71
      vertex -62.8481 74.25 2.71
      vertex -63.5981 75 2.71
    endloop
  endfacet
  facet normal 0 0 1
    outer loop
      vertex 63.9544 -74.0209 2.71
      vertex 63.0691 -73.7761 2.71
      vertex 63.8191 -74.5261 2.71
    endloop
  endfacet
  facet normal -0 0 1
    outer loop
      vertex 62.8481 -74.25 2.71
      vertex 63.8191 -74.5261 2.71
      vertex 63.0691 -73.7761 2.71
    endloop
  endfacet
  facet normal 0 0 1
    outer loop
      vertex 63.8191 -74.5261 2.71
      vertex 62.8481 -74.25 2.71
      vertex 63.5981 -75 2.71
    endloop
  endfacet
  facet normal -0 0 1
    outer loop
      vertex 62.5481 -74.6784 2.71
      vertex 63.5981 -75 2.71
      vertex 62.8481 -74.25 2.71
    endloop
  endfacet
  facet normal 0 0 1
    outer loop
      vertex 63.5981 -75 2.71
      vertex 62.5481 -74.6784 2.71
      vertex 63.2981 -75.4284 2.71
    endloop
  endfacet
  facet normal 0 0 1
    outer loop
      vertex 63.2981 -75.4284 2.71
      vertex 62.5481 -74.6784 2.71
      vertex 62.9284 -75.7981 2.71
    endloop
  endfacet
  facet normal -0 0 1
    outer loop
      vertex 62.1784 -75.0481 2.71
      vertex 62.9284 -75.7981 2.71
      vertex 62.5481 -74.6784 2.71
    endloop
  endfacet
  facet normal 0 0 1
    outer loop
      vertex 62.9284 -75.7981 2.71
      vertex 62.1784 -75.0481 2.71
      vertex 62.5 -76.0981 2.71
    endloop
  endfacet
  facet normal -0 0 1
    outer loop
      vertex 61.75 -75.3481 2.71
      vertex 62.5 -76.0981 2.71
      vertex 62.1784 -75.0481 2.71
    endloop
  endfacet
  facet normal 0 0 1
    outer loop
      vertex 62.5 -76.0981 2.71
      vertex 61.75 -75.3481 2.71
      vertex 62.0261 -76.3191 2.71
    endloop
  endfacet
  facet normal -0 0 1
    outer loop
      vertex 61.2761 -75.5691 2.71
      vertex 62.0261 -76.3191 2.71
      vertex 61.75 -75.3481 2.71
    endloop
  endfacet
  facet normal 0 0 1
    outer loop
      vertex 62.0261 -76.3191 2.71
      vertex 61.2761 -75.5691 2.71
      vertex 61.5209 -76.4544 2.71
    endloop
  endfacet
  facet normal 0 0 1
    outer loop
      vertex 61.2761 -75.5691 2.71
      vertex 61 -76.5 2.71
      vertex 61.5209 -76.4544 2.71
    endloop
  endfacet
  facet normal -0 0 1
    outer loop
      vertex 60.7709 -75.7044 2.71
      vertex 61 -76.5 2.71
      vertex 61.2761 -75.5691 2.71
    endloop
  endfacet
  facet normal -0 0 1
    outer loop
      vertex 60.25 -75.75 2.71
      vertex 61 -76.5 2.71
      vertex 60.7709 -75.7044 2.71
    endloop
  endfacet
  facet normal -0 0 1
    outer loop
      vertex -60.25 -75.75 2.71
      vertex 61 -76.5 2.71
      vertex 60.25 -75.75 2.71
    endloop
  endfacet
  facet normal 0 0 1
    outer loop
      vertex -60.25 -75.75 2.71
      vertex -61 -76.5 2.71
      vertex 61 -76.5 2.71
    endloop
  endfacet
  facet normal 0 0 1
    outer loop
      vertex -60.7709 -75.7044 2.71
      vertex -61 -76.5 2.71
      vertex -60.25 -75.75 2.71
    endloop
  endfacet
  facet normal 0 0 1
    outer loop
      vertex -61.2761 -75.5691 2.71
      vertex -61 -76.5 2.71
      vertex -60.7709 -75.7044 2.71
    endloop
  endfacet
  facet normal 0 0 1
    outer loop
      vertex -61.2761 -75.5691 2.71
      vertex -61.5209 -76.4544 2.71
      vertex -61 -76.5 2.71
    endloop
  endfacet
  facet normal 0 0 1
    outer loop
      vertex -62.0261 -76.3191 2.71
      vertex -61.2761 -75.5691 2.71
      vertex -61.75 -75.3481 2.71
    endloop
  endfacet
  facet normal 0 0 1
    outer loop
      vertex -61.2761 -75.5691 2.71
      vertex -62.0261 -76.3191 2.71
      vertex -61.5209 -76.4544 2.71
    endloop
  endfacet
  facet normal 0 0 1
    outer loop
      vertex -62.5 -76.0981 2.71
      vertex -61.75 -75.3481 2.71
      vertex -62.1784 -75.0481 2.71
    endloop
  endfacet
  facet normal 0 0 1
    outer loop
      vertex -61.75 -75.3481 2.71
      vertex -62.5 -76.0981 2.71
      vertex -62.0261 -76.3191 2.71
    endloop
  endfacet
  facet normal 0 0 1
    outer loop
      vertex -62.9284 -75.7981 2.71
      vertex -62.1784 -75.0481 2.71
      vertex -62.5481 -74.6784 2.71
    endloop
  endfacet
  facet normal 0 0 1
    outer loop
      vertex -63.5981 -75 2.71
      vertex -62.5481 -74.6784 2.71
      vertex -62.8481 -74.25 2.71
    endloop
  endfacet
  facet normal 0 0 1
    outer loop
      vertex -62.1784 -75.0481 2.71
      vertex -62.9284 -75.7981 2.71
      vertex -62.5 -76.0981 2.71
    endloop
  endfacet
  facet normal 0 0 1
    outer loop
      vertex -63.8191 -74.5261 2.71
      vertex -62.8481 -74.25 2.71
      vertex -63.0691 -73.7761 2.71
    endloop
  endfacet
  facet normal -0 0 1
    outer loop
      vertex -64 -73.5 2.71
      vertex -63.0691 -73.7761 2.71
      vertex -63.2044 -73.2709 2.71
    endloop
  endfacet
  facet normal 0 0 1
    outer loop
      vertex -62.5481 -74.6784 2.71
      vertex -63.2981 -75.4284 2.71
      vertex -62.9284 -75.7981 2.71
    endloop
  endfacet
  facet normal 0 0 1
    outer loop
      vertex -64 -73.5 2.71
      vertex -63.2044 -73.2709 2.71
      vertex -63.25 -72.75 2.71
    endloop
  endfacet
  facet normal 0 0 1
    outer loop
      vertex -63.25 72.75 2.71
      vertex -64 73.5 2.71
      vertex -63.25 -72.75 2.71
    endloop
  endfacet
  facet normal 0 0 1
    outer loop
      vertex -64 73.5 2.71
      vertex -63.0691 73.7761 2.71
      vertex -63.9544 74.0209 2.71
    endloop
  endfacet
  facet normal 0 0 1
    outer loop
      vertex -64 -73.5 2.71
      vertex -63.25 -72.75 2.71
      vertex -64 73.5 2.71
    endloop
  endfacet
  facet normal 0 0 1
    outer loop
      vertex -63.0691 73.7761 2.71
      vertex -64 73.5 2.71
      vertex -63.2044 73.2709 2.71
    endloop
  endfacet
  facet normal 0 0 1
    outer loop
      vertex -63.0691 -73.7761 2.71
      vertex -64 -73.5 2.71
      vertex -63.9544 -74.0209 2.71
    endloop
  endfacet
  facet normal 0 0 1
    outer loop
      vertex -63.2044 73.2709 2.71
      vertex -64 73.5 2.71
      vertex -63.25 72.75 2.71
    endloop
  endfacet
  facet normal 0 0 1
    outer loop
      vertex -62.5481 -74.6784 2.71
      vertex -63.5981 -75 2.71
      vertex -63.2981 -75.4284 2.71
    endloop
  endfacet
  facet normal 0 0 1
    outer loop
      vertex -62.8481 -74.25 2.71
      vertex -63.8191 -74.5261 2.71
      vertex -63.5981 -75 2.71
    endloop
  endfacet
  facet normal 0 0 1
    outer loop
      vertex -63.0691 -73.7761 2.71
      vertex -63.9544 -74.0209 2.71
      vertex -63.8191 -74.5261 2.71
    endloop
  endfacet
  facet normal 0.0872073 -0.99619 0
    outer loop
      vertex 61 -76.5 2.5
      vertex 61.5209 -76.4544 2.71
      vertex 61 -76.5 2.71
    endloop
  endfacet
  facet normal 0.0872073 -0.99619 0
    outer loop
      vertex 61.5209 -76.4544 2.71
      vertex 61 -76.5 2.5
      vertex 61.5209 -76.4544 2.5
    endloop
  endfacet
  facet normal -0.906295 0.422645 0
    outer loop
      vertex -63.8191 74.5261 2.5
      vertex -63.5981 75 2.71
      vertex -63.5981 75 2.5
    endloop
  endfacet
  facet normal -0.906295 0.422645 0
    outer loop
      vertex -63.5981 75 2.71
      vertex -63.8191 74.5261 2.5
      vertex -63.8191 74.5261 2.71
    endloop
  endfacet
  facet normal -0.965958 0.258698 0
    outer loop
      vertex -63.9544 74.0209 2.5
      vertex -63.8191 74.5261 2.71
      vertex -63.8191 74.5261 2.5
    endloop
  endfacet
  facet normal -0.965958 0.258698 0
    outer loop
      vertex -63.8191 74.5261 2.71
      vertex -63.9544 74.0209 2.5
      vertex -63.9544 74.0209 2.71
    endloop
  endfacet
  facet normal -0.99619 0.0872073 0
    outer loop
      vertex -64 73.5 2.5
      vertex -63.9544 74.0209 2.71
      vertex -63.9544 74.0209 2.5
    endloop
  endfacet
  facet normal -0.99619 0.0872073 0
    outer loop
      vertex -63.9544 74.0209 2.71
      vertex -64 73.5 2.5
      vertex -64 73.5 2.71
    endloop
  endfacet
  facet normal 0 1 -0
    outer loop
      vertex 60.25 -75.75 2.5
      vertex -60.25 -75.75 2.71
      vertex 60.25 -75.75 2.71
    endloop
  endfacet
  facet normal 0 1 0
    outer loop
      vertex -60.25 -75.75 2.71
      vertex 60.25 -75.75 2.5
      vertex -60.25 -75.75 2.5
    endloop
  endfacet
  facet normal -0.258698 -0.965958 0
    outer loop
      vertex 60.7709 75.7044 2.5
      vertex 61.2761 75.5691 2.71
      vertex 60.7709 75.7044 2.71
    endloop
  endfacet
  facet normal -0.258698 -0.965958 -0
    outer loop
      vertex 61.2761 75.5691 2.71
      vertex 60.7709 75.7044 2.5
      vertex 61.2761 75.5691 2.5
    endloop
  endfacet
  facet normal 0 -1 0
    outer loop
      vertex -60.25 75.75 2.5
      vertex 60.25 75.75 2.71
      vertex -60.25 75.75 2.71
    endloop
  endfacet
  facet normal 0 -1 -0
    outer loop
      vertex 60.25 75.75 2.71
      vertex -60.25 75.75 2.5
      vertex 60.25 75.75 2.5
    endloop
  endfacet
  facet normal -0.0872073 0.99619 0
    outer loop
      vertex 60.7709 -75.7044 2.5
      vertex 60.25 -75.75 2.71
      vertex 60.7709 -75.7044 2.71
    endloop
  endfacet
  facet normal -0.0872073 0.99619 0
    outer loop
      vertex 60.25 -75.75 2.71
      vertex 60.7709 -75.7044 2.5
      vertex 60.25 -75.75 2.5
    endloop
  endfacet
  facet normal -0.965958 -0.258698 0
    outer loop
      vertex 63.2044 73.2709 2.5
      vertex 63.0691 73.7761 2.71
      vertex 63.0691 73.7761 2.5
    endloop
  endfacet
  facet normal -0.965958 -0.258698 0
    outer loop
      vertex 63.0691 73.7761 2.71
      vertex 63.2044 73.2709 2.5
      vertex 63.2044 73.2709 2.71
    endloop
  endfacet
  facet normal 0.0872073 0.99619 -0
    outer loop
      vertex -60.25 -75.75 2.5
      vertex -60.7709 -75.7044 2.71
      vertex -60.25 -75.75 2.71
    endloop
  endfacet
  facet normal 0.0872073 0.99619 0
    outer loop
      vertex -60.7709 -75.7044 2.71
      vertex -60.25 -75.75 2.5
      vertex -60.7709 -75.7044 2.5
    endloop
  endfacet
  facet normal -0.707107 -0.707107 0
    outer loop
      vertex 62.5481 74.6784 2.5
      vertex 62.1784 75.0481 2.71
      vertex 62.1784 75.0481 2.5
    endloop
  endfacet
  facet normal -0.707107 -0.707107 0
    outer loop
      vertex 62.1784 75.0481 2.71
      vertex 62.5481 74.6784 2.5
      vertex 62.5481 74.6784 2.71
    endloop
  endfacet
  facet normal 0.819124 -0.573616 0
    outer loop
      vertex -62.8481 74.25 2.71
      vertex -62.5481 74.6784 2.5
      vertex -62.5481 74.6784 2.71
    endloop
  endfacet
  facet normal 0.819124 -0.573616 0
    outer loop
      vertex -62.5481 74.6784 2.5
      vertex -62.8481 74.25 2.71
      vertex -62.8481 74.25 2.5
    endloop
  endfacet
  facet normal 1 -0 0
    outer loop
      vertex -63.25 -72.75 2.71
      vertex -63.25 72.75 2.5
      vertex -63.25 72.75 2.71
    endloop
  endfacet
  facet normal 1 0 0
    outer loop
      vertex -63.25 72.75 2.5
      vertex -63.25 -72.75 2.71
      vertex -63.25 -72.75 2.5
    endloop
  endfacet
  facet normal 0.573616 -0.819124 0
    outer loop
      vertex -62.1784 75.0481 2.5
      vertex -61.75 75.3481 2.71
      vertex -62.1784 75.0481 2.71
    endloop
  endfacet
  facet normal 0.573616 -0.819124 0
    outer loop
      vertex -61.75 75.3481 2.71
      vertex -62.1784 75.0481 2.5
      vertex -61.75 75.3481 2.5
    endloop
  endfacet
  facet normal 0.258698 -0.965958 0
    outer loop
      vertex -61.2761 75.5691 2.5
      vertex -60.7709 75.7044 2.71
      vertex -61.2761 75.5691 2.71
    endloop
  endfacet
  facet normal 0.258698 -0.965958 0
    outer loop
      vertex -60.7709 75.7044 2.71
      vertex -61.2761 75.5691 2.5
      vertex -60.7709 75.7044 2.5
    endloop
  endfacet
  facet normal 0.99619 0.0872073 0
    outer loop
      vertex -63.2044 -73.2709 2.71
      vertex -63.25 -72.75 2.5
      vertex -63.25 -72.75 2.71
    endloop
  endfacet
  facet normal 0.99619 0.0872073 0
    outer loop
      vertex -63.25 -72.75 2.5
      vertex -63.2044 -73.2709 2.71
      vertex -63.2044 -73.2709 2.5
    endloop
  endfacet
  facet normal 0.99619 -0.0872073 0
    outer loop
      vertex -63.25 72.75 2.71
      vertex -63.2044 73.2709 2.5
      vertex -63.2044 73.2709 2.71
    endloop
  endfacet
  facet normal 0.99619 -0.0872073 0
    outer loop
      vertex -63.2044 73.2709 2.5
      vertex -63.25 72.75 2.71
      vertex -63.25 72.75 2.5
    endloop
  endfacet
  facet normal 0.707107 0.707107 0
    outer loop
      vertex -62.1784 -75.0481 2.71
      vertex -62.5481 -74.6784 2.5
      vertex -62.5481 -74.6784 2.71
    endloop
  endfacet
  facet normal 0.707107 0.707107 0
    outer loop
      vertex -62.5481 -74.6784 2.5
      vertex -62.1784 -75.0481 2.71
      vertex -62.1784 -75.0481 2.5
    endloop
  endfacet
  facet normal -1 0 0
    outer loop
      vertex 63.25 -72.75 2.5
      vertex 63.25 72.75 2.71
      vertex 63.25 72.75 2.5
    endloop
  endfacet
  facet normal -1 -0 0
    outer loop
      vertex 63.25 72.75 2.71
      vertex 63.25 -72.75 2.5
      vertex 63.25 -72.75 2.71
    endloop
  endfacet
  facet normal -0.422645 -0.906295 0
    outer loop
      vertex 61.2761 75.5691 2.5
      vertex 61.75 75.3481 2.71
      vertex 61.2761 75.5691 2.71
    endloop
  endfacet
  facet normal -0.422645 -0.906295 -0
    outer loop
      vertex 61.75 75.3481 2.71
      vertex 61.2761 75.5691 2.5
      vertex 61.75 75.3481 2.5
    endloop
  endfacet
  facet normal 0.965958 -0.258698 0
    outer loop
      vertex -63.2044 73.2709 2.71
      vertex -63.0691 73.7761 2.5
      vertex -63.0691 73.7761 2.71
    endloop
  endfacet
  facet normal 0.965958 -0.258698 0
    outer loop
      vertex -63.0691 73.7761 2.5
      vertex -63.2044 73.2709 2.71
      vertex -63.2044 73.2709 2.5
    endloop
  endfacet
  facet normal -0.573616 0.819124 0
    outer loop
      vertex 62.1784 -75.0481 2.5
      vertex 61.75 -75.3481 2.71
      vertex 62.1784 -75.0481 2.71
    endloop
  endfacet
  facet normal -0.573616 0.819124 0
    outer loop
      vertex 61.75 -75.3481 2.71
      vertex 62.1784 -75.0481 2.5
      vertex 61.75 -75.3481 2.5
    endloop
  endfacet
  facet normal 0.965958 0.258698 0
    outer loop
      vertex -63.0691 -73.7761 2.71
      vertex -63.2044 -73.2709 2.5
      vertex -63.2044 -73.2709 2.71
    endloop
  endfacet
  facet normal 0.965958 0.258698 0
    outer loop
      vertex -63.2044 -73.2709 2.5
      vertex -63.0691 -73.7761 2.71
      vertex -63.0691 -73.7761 2.5
    endloop
  endfacet
  facet normal 0.906295 -0.422645 0
    outer loop
      vertex -63.0691 73.7761 2.71
      vertex -62.8481 74.25 2.5
      vertex -62.8481 74.25 2.71
    endloop
  endfacet
  facet normal 0.906295 -0.422645 0
    outer loop
      vertex -62.8481 74.25 2.5
      vertex -63.0691 73.7761 2.71
      vertex -63.0691 73.7761 2.5
    endloop
  endfacet
  facet normal -0.422645 0.906295 0
    outer loop
      vertex 61.75 -75.3481 2.5
      vertex 61.2761 -75.5691 2.71
      vertex 61.75 -75.3481 2.71
    endloop
  endfacet
  facet normal -0.422645 0.906295 0
    outer loop
      vertex 61.2761 -75.5691 2.71
      vertex 61.75 -75.3481 2.5
      vertex 61.2761 -75.5691 2.5
    endloop
  endfacet
  facet normal -0.99619 0.0872073 0
    outer loop
      vertex 63.2044 -73.2709 2.5
      vertex 63.25 -72.75 2.71
      vertex 63.25 -72.75 2.5
    endloop
  endfacet
  facet normal -0.99619 0.0872073 0
    outer loop
      vertex 63.25 -72.75 2.71
      vertex 63.2044 -73.2709 2.5
      vertex 63.2044 -73.2709 2.71
    endloop
  endfacet
  facet normal 0.422645 0.906295 -0
    outer loop
      vertex -61.2761 -75.5691 2.5
      vertex -61.75 -75.3481 2.71
      vertex -61.2761 -75.5691 2.71
    endloop
  endfacet
  facet normal 0.422645 0.906295 0
    outer loop
      vertex -61.75 -75.3481 2.71
      vertex -61.2761 -75.5691 2.5
      vertex -61.75 -75.3481 2.5
    endloop
  endfacet
  facet normal 0.819124 0.573616 0
    outer loop
      vertex -62.5481 -74.6784 2.71
      vertex -62.8481 -74.25 2.5
      vertex -62.8481 -74.25 2.71
    endloop
  endfacet
  facet normal 0.819124 0.573616 0
    outer loop
      vertex -62.8481 -74.25 2.5
      vertex -62.5481 -74.6784 2.71
      vertex -62.5481 -74.6784 2.5
    endloop
  endfacet
  facet normal 0.0872073 -0.99619 0
    outer loop
      vertex -60.7709 75.7044 2.5
      vertex -60.25 75.75 2.71
      vertex -60.7709 75.7044 2.71
    endloop
  endfacet
  facet normal 0.0872073 -0.99619 0
    outer loop
      vertex -60.25 75.75 2.71
      vertex -60.7709 75.7044 2.5
      vertex -60.25 75.75 2.5
    endloop
  endfacet
  facet normal -0.906295 -0.422645 0
    outer loop
      vertex 63.0691 73.7761 2.5
      vertex 62.8481 74.25 2.71
      vertex 62.8481 74.25 2.5
    endloop
  endfacet
  facet normal -0.906295 -0.422645 0
    outer loop
      vertex 62.8481 74.25 2.71
      vertex 63.0691 73.7761 2.5
      vertex 63.0691 73.7761 2.71
    endloop
  endfacet
  facet normal -0.906295 0.422645 0
    outer loop
      vertex 62.8481 -74.25 2.5
      vertex 63.0691 -73.7761 2.71
      vertex 63.0691 -73.7761 2.5
    endloop
  endfacet
  facet normal -0.906295 0.422645 0
    outer loop
      vertex 63.0691 -73.7761 2.71
      vertex 62.8481 -74.25 2.5
      vertex 62.8481 -74.25 2.71
    endloop
  endfacet
  facet normal -0.99619 -0.0872073 0
    outer loop
      vertex 63.25 72.75 2.5
      vertex 63.2044 73.2709 2.71
      vertex 63.2044 73.2709 2.5
    endloop
  endfacet
  facet normal -0.99619 -0.0872073 0
    outer loop
      vertex 63.2044 73.2709 2.71
      vertex 63.25 72.75 2.5
      vertex 63.25 72.75 2.71
    endloop
  endfacet
  facet normal 0.707107 -0.707107 0
    outer loop
      vertex -62.5481 74.6784 2.71
      vertex -62.1784 75.0481 2.5
      vertex -62.1784 75.0481 2.71
    endloop
  endfacet
  facet normal 0.707107 -0.707107 0
    outer loop
      vertex -62.1784 75.0481 2.5
      vertex -62.5481 74.6784 2.71
      vertex -62.5481 74.6784 2.5
    endloop
  endfacet
  facet normal -0.573616 -0.819124 0
    outer loop
      vertex 61.75 75.3481 2.5
      vertex 62.1784 75.0481 2.71
      vertex 61.75 75.3481 2.71
    endloop
  endfacet
  facet normal -0.573616 -0.819124 -0
    outer loop
      vertex 62.1784 75.0481 2.71
      vertex 61.75 75.3481 2.5
      vertex 62.1784 75.0481 2.5
    endloop
  endfacet
  facet normal -0.707107 0.707107 0
    outer loop
      vertex 62.1784 -75.0481 2.5
      vertex 62.5481 -74.6784 2.71
      vertex 62.5481 -74.6784 2.5
    endloop
  endfacet
  facet normal -0.707107 0.707107 0
    outer loop
      vertex 62.5481 -74.6784 2.71
      vertex 62.1784 -75.0481 2.5
      vertex 62.1784 -75.0481 2.71
    endloop
  endfacet
  facet normal -0.258698 0.965958 0
    outer loop
      vertex 61.2761 -75.5691 2.5
      vertex 60.7709 -75.7044 2.71
      vertex 61.2761 -75.5691 2.71
    endloop
  endfacet
  facet normal -0.258698 0.965958 0
    outer loop
      vertex 60.7709 -75.7044 2.71
      vertex 61.2761 -75.5691 2.5
      vertex 60.7709 -75.7044 2.5
    endloop
  endfacet
  facet normal -0.819124 0.573616 0
    outer loop
      vertex 62.5481 -74.6784 2.5
      vertex 62.8481 -74.25 2.71
      vertex 62.8481 -74.25 2.5
    endloop
  endfacet
  facet normal -0.819124 0.573616 0
    outer loop
      vertex 62.8481 -74.25 2.71
      vertex 62.5481 -74.6784 2.5
      vertex 62.5481 -74.6784 2.71
    endloop
  endfacet
  facet normal 0.573616 0.819124 -0
    outer loop
      vertex -61.75 -75.3481 2.5
      vertex -62.1784 -75.0481 2.71
      vertex -61.75 -75.3481 2.71
    endloop
  endfacet
  facet normal 0.573616 0.819124 0
    outer loop
      vertex -62.1784 -75.0481 2.71
      vertex -61.75 -75.3481 2.5
      vertex -62.1784 -75.0481 2.5
    endloop
  endfacet
  facet normal 0.422645 -0.906295 0
    outer loop
      vertex -61.75 75.3481 2.5
      vertex -61.2761 75.5691 2.71
      vertex -61.75 75.3481 2.71
    endloop
  endfacet
  facet normal 0.422645 -0.906295 0
    outer loop
      vertex -61.2761 75.5691 2.71
      vertex -61.75 75.3481 2.5
      vertex -61.2761 75.5691 2.5
    endloop
  endfacet
  facet normal -0.965958 0.258698 0
    outer loop
      vertex 63.0691 -73.7761 2.5
      vertex 63.2044 -73.2709 2.71
      vertex 63.2044 -73.2709 2.5
    endloop
  endfacet
  facet normal -0.965958 0.258698 0
    outer loop
      vertex 63.2044 -73.2709 2.71
      vertex 63.0691 -73.7761 2.5
      vertex 63.0691 -73.7761 2.71
    endloop
  endfacet
  facet normal 0.906295 0.422645 0
    outer loop
      vertex -62.8481 -74.25 2.71
      vertex -63.0691 -73.7761 2.5
      vertex -63.0691 -73.7761 2.71
    endloop
  endfacet
  facet normal 0.906295 0.422645 0
    outer loop
      vertex -63.0691 -73.7761 2.5
      vertex -62.8481 -74.25 2.71
      vertex -62.8481 -74.25 2.5
    endloop
  endfacet
  facet normal -0.0872073 -0.99619 0
    outer loop
      vertex 60.25 75.75 2.5
      vertex 60.7709 75.7044 2.71
      vertex 60.25 75.75 2.71
    endloop
  endfacet
  facet normal -0.0872073 -0.99619 -0
    outer loop
      vertex 60.7709 75.7044 2.71
      vertex 60.25 75.75 2.5
      vertex 60.7709 75.7044 2.5
    endloop
  endfacet
  facet normal -0.819124 -0.573616 0
    outer loop
      vertex 62.8481 74.25 2.5
      vertex 62.5481 74.6784 2.71
      vertex 62.5481 74.6784 2.5
    endloop
  endfacet
  facet normal -0.819124 -0.573616 0
    outer loop
      vertex 62.5481 74.6784 2.71
      vertex 62.8481 74.25 2.5
      vertex 62.8481 74.25 2.71
    endloop
  endfacet
  facet normal 0.258698 0.965958 -0
    outer loop
      vertex -60.7709 -75.7044 2.5
      vertex -61.2761 -75.5691 2.71
      vertex -60.7709 -75.7044 2.71
    endloop
  endfacet
  facet normal 0.258698 0.965958 0
    outer loop
      vertex -61.2761 -75.5691 2.71
      vertex -60.7709 -75.7044 2.5
      vertex -61.2761 -75.5691 2.5
    endloop
  endfacet
endsolid OpenSCAD_Model
