solid OpenSCAD_Model
  facet normal 0 0 1
    outer loop
      vertex 24 8.5 2.71
      vertex 23.2044 8.27094 2.71
      vertex 23.25 7.75 2.71
    endloop
  endfacet
  facet normal 0 0 1
    outer loop
      vertex 23.5981 10 2.71
      vertex 23.0691 8.77606 2.71
      vertex 23.2044 8.27094 2.71
    endloop
  endfacet
  facet normal 0 0 1
    outer loop
      vertex 22.5481 9.67836 2.71
      vertex 23.2981 10.4284 2.71
      vertex 22.9284 10.7981 2.71
    endloop
  endfacet
  facet normal 0 0 1
    outer loop
      vertex 23.5981 10 2.71
      vertex 22.8481 9.25 2.71
      vertex 23.0691 8.77606 2.71
    endloop
  endfacet
  facet normal 0 0 1
    outer loop
      vertex 23.5981 10 2.71
      vertex 22.5481 9.67836 2.71
      vertex 22.8481 9.25 2.71
    endloop
  endfacet
  facet normal 0 0 1
    outer loop
      vertex 22.1784 10.0481 2.71
      vertex 22.9284 10.7981 2.71
      vertex 22.5 11.0981 2.71
    endloop
  endfacet
  facet normal 0 0 1
    outer loop
      vertex 22.9284 10.7981 2.71
      vertex 22.1784 10.0481 2.71
      vertex 22.5481 9.67836 2.71
    endloop
  endfacet
  facet normal 0 0 1
    outer loop
      vertex 21.75 10.3481 2.71
      vertex 22.5 11.0981 2.71
      vertex 22.0261 11.3191 2.71
    endloop
  endfacet
  facet normal 0 0 1
    outer loop
      vertex 22.5 11.0981 2.71
      vertex 21.75 10.3481 2.71
      vertex 22.1784 10.0481 2.71
    endloop
  endfacet
  facet normal 0 0 1
    outer loop
      vertex 21.2761 10.5691 2.71
      vertex 22.0261 11.3191 2.71
      vertex 21.5209 11.4544 2.71
    endloop
  endfacet
  facet normal 0 0 1
    outer loop
      vertex 22.0261 11.3191 2.71
      vertex 21.2761 10.5691 2.71
      vertex 21.75 10.3481 2.71
    endloop
  endfacet
  facet normal 0 0 1
    outer loop
      vertex 21 11.5 2.71
      vertex 21.2761 10.5691 2.71
      vertex 21.5209 11.4544 2.71
    endloop
  endfacet
  facet normal 0 0 1
    outer loop
      vertex 21 11.5 2.71
      vertex 20.7709 10.7044 2.71
      vertex 21.2761 10.5691 2.71
    endloop
  endfacet
  facet normal 0 0 1
    outer loop
      vertex 21 11.5 2.71
      vertex 20.25 10.75 2.71
      vertex 20.7709 10.7044 2.71
    endloop
  endfacet
  facet normal 0 0 1
    outer loop
      vertex 21 11.5 2.71
      vertex -20.25 10.75 2.71
      vertex 20.25 10.75 2.71
    endloop
  endfacet
  facet normal -0 0 1
    outer loop
      vertex -21 11.5 2.71
      vertex -20.25 10.75 2.71
      vertex 21 11.5 2.71
    endloop
  endfacet
  facet normal 0 0 1
    outer loop
      vertex -21 11.5 2.71
      vertex -20.7709 10.7044 2.71
      vertex -20.25 10.75 2.71
    endloop
  endfacet
  facet normal 0 0 1
    outer loop
      vertex -21 11.5 2.71
      vertex -21.2761 10.5691 2.71
      vertex -20.7709 10.7044 2.71
    endloop
  endfacet
  facet normal -0 0 1
    outer loop
      vertex -21.5209 11.4544 2.71
      vertex -21.2761 10.5691 2.71
      vertex -21 11.5 2.71
    endloop
  endfacet
  facet normal -0 0 1
    outer loop
      vertex -22.0261 11.3191 2.71
      vertex -21.2761 10.5691 2.71
      vertex -21.5209 11.4544 2.71
    endloop
  endfacet
  facet normal 0 0 1
    outer loop
      vertex -21.2761 10.5691 2.71
      vertex -22.0261 11.3191 2.71
      vertex -21.75 10.3481 2.71
    endloop
  endfacet
  facet normal -0 0 1
    outer loop
      vertex -22.5 11.0981 2.71
      vertex -21.75 10.3481 2.71
      vertex -22.0261 11.3191 2.71
    endloop
  endfacet
  facet normal 0 0 1
    outer loop
      vertex -21.75 10.3481 2.71
      vertex -22.5 11.0981 2.71
      vertex -22.1784 10.0481 2.71
    endloop
  endfacet
  facet normal -0 0 1
    outer loop
      vertex -22.9284 10.7981 2.71
      vertex -22.1784 10.0481 2.71
      vertex -22.5 11.0981 2.71
    endloop
  endfacet
  facet normal 0 0 1
    outer loop
      vertex -22.1784 10.0481 2.71
      vertex -22.9284 10.7981 2.71
      vertex -22.5481 9.67836 2.71
    endloop
  endfacet
  facet normal -0 0 1
    outer loop
      vertex -23.2981 10.4284 2.71
      vertex -22.5481 9.67836 2.71
      vertex -22.9284 10.7981 2.71
    endloop
  endfacet
  facet normal -0 0 1
    outer loop
      vertex -23.5981 10 2.71
      vertex -22.5481 9.67836 2.71
      vertex -23.2981 10.4284 2.71
    endloop
  endfacet
  facet normal 0 0 1
    outer loop
      vertex -22.5481 9.67836 2.71
      vertex -23.5981 10 2.71
      vertex -22.8481 9.25 2.71
    endloop
  endfacet
  facet normal -0 0 1
    outer loop
      vertex -23.8191 9.52606 2.71
      vertex -22.8481 9.25 2.71
      vertex -23.5981 10 2.71
    endloop
  endfacet
  facet normal 0 0 1
    outer loop
      vertex -22.8481 9.25 2.71
      vertex -23.8191 9.52606 2.71
      vertex -23.0691 8.77606 2.71
    endloop
  endfacet
  facet normal -0 0 1
    outer loop
      vertex -23.9544 9.02094 2.71
      vertex -23.0691 8.77606 2.71
      vertex -23.8191 9.52606 2.71
    endloop
  endfacet
  facet normal 0 0 1
    outer loop
      vertex -24 8.5 2.71
      vertex -23.0691 8.77606 2.71
      vertex -23.9544 9.02094 2.71
    endloop
  endfacet
  facet normal 0 0 1
    outer loop
      vertex -23.0691 8.77606 2.71
      vertex -24 8.5 2.71
      vertex -23.2044 8.27094 2.71
    endloop
  endfacet
  facet normal 0 0 1
    outer loop
      vertex -23.2044 8.27094 2.71
      vertex -24 8.5 2.71
      vertex -23.25 7.75 2.71
    endloop
  endfacet
  facet normal 0 0 1
    outer loop
      vertex -24 3 2.71
      vertex -23.25 7.75 2.71
      vertex -24 8.5 2.71
    endloop
  endfacet
  facet normal 0 0 1
    outer loop
      vertex -23.25 7.75 2.71
      vertex -24 3 2.71
      vertex -23.25 3 2.71
    endloop
  endfacet
  facet normal 0 0 1
    outer loop
      vertex 23.2044 8.27094 2.71
      vertex 24 8.5 2.71
      vertex 23.9544 9.02094 2.71
    endloop
  endfacet
  facet normal 0 0 1
    outer loop
      vertex 23.2044 8.27094 2.71
      vertex 23.9544 9.02094 2.71
      vertex 23.8191 9.52606 2.71
    endloop
  endfacet
  facet normal 0 0 1
    outer loop
      vertex 23.2044 8.27094 2.71
      vertex 23.8191 9.52606 2.71
      vertex 23.5981 10 2.71
    endloop
  endfacet
  facet normal 0 0 1
    outer loop
      vertex 22.5481 9.67836 2.71
      vertex 23.5981 10 2.71
      vertex 23.2981 10.4284 2.71
    endloop
  endfacet
  facet normal 0 0 1
    outer loop
      vertex 24 8.5 2.71
      vertex 23.25 7.75 2.71
      vertex 24 4 2.71
    endloop
  endfacet
  facet normal 0 0 1
    outer loop
      vertex 24 4 2.71
      vertex 23.25 7.75 2.71
      vertex 23.25 4 2.71
    endloop
  endfacet
  facet normal -0 0 1
    outer loop
      vertex -24 -3 2.71
      vertex -23.25 -7.75 2.71
      vertex -23.25 -3 2.71
    endloop
  endfacet
  facet normal 0 -0 1
    outer loop
      vertex -23.9544 -9.02094 2.71
      vertex -23.25 -7.75 2.71
      vertex -24 -8.5 2.71
    endloop
  endfacet
  facet normal 0 0 1
    outer loop
      vertex -23.25 -7.75 2.71
      vertex -23.5981 -10 2.71
      vertex -23.2981 -10.4284 2.71
    endloop
  endfacet
  facet normal 0 0 1
    outer loop
      vertex -23.25 -7.75 2.71
      vertex -23.8191 -9.52606 2.71
      vertex -23.5981 -10 2.71
    endloop
  endfacet
  facet normal 0 0 1
    outer loop
      vertex -23.25 -7.75 2.71
      vertex -24 -3 2.71
      vertex -24 -8.5 2.71
    endloop
  endfacet
  facet normal 0 0 1
    outer loop
      vertex -23.25 -7.75 2.71
      vertex -23.9544 -9.02094 2.71
      vertex -23.8191 -9.52606 2.71
    endloop
  endfacet
  facet normal -0 0 1
    outer loop
      vertex 23.25 -7.75 2.71
      vertex 24 -8.5 2.71
      vertex 24 -4 2.71
    endloop
  endfacet
  facet normal -0 0 1
    outer loop
      vertex 23.2044 -8.27094 2.71
      vertex 24 -8.5 2.71
      vertex 23.25 -7.75 2.71
    endloop
  endfacet
  facet normal 0 0 1
    outer loop
      vertex 23.0691 -8.77606 2.71
      vertex 24 -8.5 2.71
      vertex 23.2044 -8.27094 2.71
    endloop
  endfacet
  facet normal 0 0 1
    outer loop
      vertex 24 -8.5 2.71
      vertex 23.0691 -8.77606 2.71
      vertex 23.9544 -9.02094 2.71
    endloop
  endfacet
  facet normal 0 0 1
    outer loop
      vertex 23.25 -7.75 2.71
      vertex 24 -4 2.71
      vertex 23.25 -4 2.71
    endloop
  endfacet
  facet normal 0 0 1
    outer loop
      vertex 23.9544 -9.02094 2.71
      vertex 23.0691 -8.77606 2.71
      vertex 23.8191 -9.52606 2.71
    endloop
  endfacet
  facet normal -0 0 1
    outer loop
      vertex 22.8481 -9.25 2.71
      vertex 23.8191 -9.52606 2.71
      vertex 23.0691 -8.77606 2.71
    endloop
  endfacet
  facet normal 0 0 1
    outer loop
      vertex 23.8191 -9.52606 2.71
      vertex 22.8481 -9.25 2.71
      vertex 23.5981 -10 2.71
    endloop
  endfacet
  facet normal -0 0 1
    outer loop
      vertex 22.5481 -9.67836 2.71
      vertex 23.5981 -10 2.71
      vertex 22.8481 -9.25 2.71
    endloop
  endfacet
  facet normal 0 0 1
    outer loop
      vertex 23.5981 -10 2.71
      vertex 22.5481 -9.67836 2.71
      vertex 23.2981 -10.4284 2.71
    endloop
  endfacet
  facet normal 0 0 1
    outer loop
      vertex 23.2981 -10.4284 2.71
      vertex 22.5481 -9.67836 2.71
      vertex 22.9284 -10.7981 2.71
    endloop
  endfacet
  facet normal -0 0 1
    outer loop
      vertex 22.1784 -10.0481 2.71
      vertex 22.9284 -10.7981 2.71
      vertex 22.5481 -9.67836 2.71
    endloop
  endfacet
  facet normal 0 0 1
    outer loop
      vertex 22.9284 -10.7981 2.71
      vertex 22.1784 -10.0481 2.71
      vertex 22.5 -11.0981 2.71
    endloop
  endfacet
  facet normal -0 0 1
    outer loop
      vertex 21.75 -10.3481 2.71
      vertex 22.5 -11.0981 2.71
      vertex 22.1784 -10.0481 2.71
    endloop
  endfacet
  facet normal 0 0 1
    outer loop
      vertex 22.5 -11.0981 2.71
      vertex 21.75 -10.3481 2.71
      vertex 22.0261 -11.3191 2.71
    endloop
  endfacet
  facet normal -0 0 1
    outer loop
      vertex 21.2761 -10.5691 2.71
      vertex 22.0261 -11.3191 2.71
      vertex 21.75 -10.3481 2.71
    endloop
  endfacet
  facet normal 0 0 1
    outer loop
      vertex 22.0261 -11.3191 2.71
      vertex 21.2761 -10.5691 2.71
      vertex 21.5209 -11.4544 2.71
    endloop
  endfacet
  facet normal 0 0 1
    outer loop
      vertex 21.2761 -10.5691 2.71
      vertex 21 -11.5 2.71
      vertex 21.5209 -11.4544 2.71
    endloop
  endfacet
  facet normal -0 0 1
    outer loop
      vertex 20.7709 -10.7044 2.71
      vertex 21 -11.5 2.71
      vertex 21.2761 -10.5691 2.71
    endloop
  endfacet
  facet normal -0 0 1
    outer loop
      vertex 20.25 -10.75 2.71
      vertex 21 -11.5 2.71
      vertex 20.7709 -10.7044 2.71
    endloop
  endfacet
  facet normal -0 0 1
    outer loop
      vertex -20.25 -10.75 2.71
      vertex 21 -11.5 2.71
      vertex 20.25 -10.75 2.71
    endloop
  endfacet
  facet normal 0 0 1
    outer loop
      vertex -20.25 -10.75 2.71
      vertex -21 -11.5 2.71
      vertex 21 -11.5 2.71
    endloop
  endfacet
  facet normal 0 0 1
    outer loop
      vertex -20.7709 -10.7044 2.71
      vertex -21 -11.5 2.71
      vertex -20.25 -10.75 2.71
    endloop
  endfacet
  facet normal 0 0 1
    outer loop
      vertex -21.2761 -10.5691 2.71
      vertex -21 -11.5 2.71
      vertex -20.7709 -10.7044 2.71
    endloop
  endfacet
  facet normal 0 0 1
    outer loop
      vertex -21.2761 -10.5691 2.71
      vertex -21.5209 -11.4544 2.71
      vertex -21 -11.5 2.71
    endloop
  endfacet
  facet normal 0 0 1
    outer loop
      vertex -22.0261 -11.3191 2.71
      vertex -21.2761 -10.5691 2.71
      vertex -21.75 -10.3481 2.71
    endloop
  endfacet
  facet normal 0 0 1
    outer loop
      vertex -21.2761 -10.5691 2.71
      vertex -22.0261 -11.3191 2.71
      vertex -21.5209 -11.4544 2.71
    endloop
  endfacet
  facet normal 0 0 1
    outer loop
      vertex -22.5 -11.0981 2.71
      vertex -21.75 -10.3481 2.71
      vertex -22.1784 -10.0481 2.71
    endloop
  endfacet
  facet normal 0 0 1
    outer loop
      vertex -21.75 -10.3481 2.71
      vertex -22.5 -11.0981 2.71
      vertex -22.0261 -11.3191 2.71
    endloop
  endfacet
  facet normal 0 0 1
    outer loop
      vertex -22.9284 -10.7981 2.71
      vertex -22.1784 -10.0481 2.71
      vertex -22.5481 -9.67836 2.71
    endloop
  endfacet
  facet normal 0 0 1
    outer loop
      vertex -23.2981 -10.4284 2.71
      vertex -22.5481 -9.67836 2.71
      vertex -22.8481 -9.25 2.71
    endloop
  endfacet
  facet normal 0 0 1
    outer loop
      vertex -22.1784 -10.0481 2.71
      vertex -22.9284 -10.7981 2.71
      vertex -22.5 -11.0981 2.71
    endloop
  endfacet
  facet normal 0 0 1
    outer loop
      vertex -23.2981 -10.4284 2.71
      vertex -22.8481 -9.25 2.71
      vertex -23.0691 -8.77606 2.71
    endloop
  endfacet
  facet normal 0 0 1
    outer loop
      vertex -23.2981 -10.4284 2.71
      vertex -23.0691 -8.77606 2.71
      vertex -23.2044 -8.27094 2.71
    endloop
  endfacet
  facet normal 0 0 1
    outer loop
      vertex -22.5481 -9.67836 2.71
      vertex -23.2981 -10.4284 2.71
      vertex -22.9284 -10.7981 2.71
    endloop
  endfacet
  facet normal 0 0 1
    outer loop
      vertex -23.2981 -10.4284 2.71
      vertex -23.2044 -8.27094 2.71
      vertex -23.25 -7.75 2.71
    endloop
  endfacet
  facet normal -0 0 1
    outer loop
      vertex -23.4 1 2.71
      vertex -23.25 -1 2.71
      vertex -23.25 1 2.71
    endloop
  endfacet
  facet normal 0 0 1
    outer loop
      vertex -23.25 -1 2.71
      vertex -23.4 1 2.71
      vertex -23.4 -1 2.71
    endloop
  endfacet
  facet normal -0 0 1
    outer loop
      vertex 23.25 2 2.71
      vertex 23.4 -2 2.71
      vertex 23.4 2 2.71
    endloop
  endfacet
  facet normal 0 0 1
    outer loop
      vertex 23.4 -2 2.71
      vertex 23.25 2 2.71
      vertex 23.25 -2 2.71
    endloop
  endfacet
  facet normal 0.422645 -0.906295 0
    outer loop
      vertex 22.0261 -11.3191 2.5
      vertex 22.5 -11.0981 2.71
      vertex 22.0261 -11.3191 2.71
    endloop
  endfacet
  facet normal 0.422645 -0.906295 0
    outer loop
      vertex 22.5 -11.0981 2.71
      vertex 22.0261 -11.3191 2.5
      vertex 22.5 -11.0981 2.5
    endloop
  endfacet
  facet normal -0.906309 0.422615 0
    outer loop
      vertex -23.8191 9.52606 2.5
      vertex -23.5981 10 2.71
      vertex -23.5981 10 2.5
    endloop
  endfacet
  facet normal -0.906309 0.422615 0
    outer loop
      vertex -23.5981 10 2.71
      vertex -23.8191 9.52606 2.5
      vertex -23.8191 9.52606 2.71
    endloop
  endfacet
  facet normal 0 1 -0
    outer loop
      vertex 21 11.5 2.5
      vertex -21 11.5 2.71
      vertex 21 11.5 2.71
    endloop
  endfacet
  facet normal 0 1 0
    outer loop
      vertex -21 11.5 2.71
      vertex 21 11.5 2.5
      vertex -21 11.5 2.5
    endloop
  endfacet
  facet normal 0.258698 0.965958 -0
    outer loop
      vertex 22.0261 11.3191 2.5
      vertex 21.5209 11.4544 2.71
      vertex 22.0261 11.3191 2.71
    endloop
  endfacet
  facet normal 0.258698 0.965958 0
    outer loop
      vertex 21.5209 11.4544 2.71
      vertex 22.0261 11.3191 2.5
      vertex 21.5209 11.4544 2.5
    endloop
  endfacet
  facet normal -1 0 0
    outer loop
      vertex -24 8.5 2.5
      vertex -24 3 2.6
      vertex -24 8.5 2.71
    endloop
  endfacet
  facet normal -1 0 0
    outer loop
      vertex -24 8.5 2.5
      vertex -24 -3 2.6
      vertex -24 3 2.6
    endloop
  endfacet
  facet normal -1 0 0
    outer loop
      vertex -24 -8.5 2.5
      vertex -24 -3 2.6
      vertex -24 8.5 2.5
    endloop
  endfacet
  facet normal -1 0 0
    outer loop
      vertex -24 -8.5 2.71
      vertex -24 -3 2.6
      vertex -24 -8.5 2.5
    endloop
  endfacet
  facet normal -1 0 0
    outer loop
      vertex -24 -3 2.6
      vertex -24 -8.5 2.71
      vertex -24 -3 2.71
    endloop
  endfacet
  facet normal -1 -0 0
    outer loop
      vertex -24 8.5 2.71
      vertex -24 3 2.6
      vertex -24 3 2.71
    endloop
  endfacet
  facet normal -0.422645 0.906295 0
    outer loop
      vertex -22.0261 11.3191 2.5
      vertex -22.5 11.0981 2.71
      vertex -22.0261 11.3191 2.71
    endloop
  endfacet
  facet normal -0.422645 0.906295 0
    outer loop
      vertex -22.5 11.0981 2.71
      vertex -22.0261 11.3191 2.5
      vertex -22.5 11.0981 2.5
    endloop
  endfacet
  facet normal 0.707107 -0.707107 0
    outer loop
      vertex 22.9284 -10.7981 2.5
      vertex 23.2981 -10.4284 2.71
      vertex 22.9284 -10.7981 2.71
    endloop
  endfacet
  facet normal 0.707107 -0.707107 0
    outer loop
      vertex 23.2981 -10.4284 2.71
      vertex 22.9284 -10.7981 2.5
      vertex 23.2981 -10.4284 2.5
    endloop
  endfacet
  facet normal 1 0 0
    outer loop
      vertex 24 -4 2.71
      vertex 24 -8.5 2.71
      vertex 24 -4 2.6
    endloop
  endfacet
  facet normal 1 0 0
    outer loop
      vertex 24 4 2.6
      vertex 24 8.5 2.71
      vertex 24 4 2.71
    endloop
  endfacet
  facet normal 1 0 0
    outer loop
      vertex 24 8.5 2.71
      vertex 24 4 2.6
      vertex 24 8.5 2.5
    endloop
  endfacet
  facet normal 1 -0 0
    outer loop
      vertex 24 -4 2.6
      vertex 24 8.5 2.5
      vertex 24 4 2.6
    endloop
  endfacet
  facet normal 1 0 0
    outer loop
      vertex 24 -4 2.6
      vertex 24 -8.5 2.5
      vertex 24 8.5 2.5
    endloop
  endfacet
  facet normal 1 0 0
    outer loop
      vertex 24 -8.5 2.5
      vertex 24 -4 2.6
      vertex 24 -8.5 2.71
    endloop
  endfacet
  facet normal 0 -1 0
    outer loop
      vertex -21 -11.5 2.5
      vertex 21 -11.5 2.71
      vertex -21 -11.5 2.71
    endloop
  endfacet
  facet normal 0 -1 -0
    outer loop
      vertex 21 -11.5 2.71
      vertex -21 -11.5 2.5
      vertex 21 -11.5 2.5
    endloop
  endfacet
  facet normal 0.996191 -0.0872006 0
    outer loop
      vertex 23.9544 -9.02094 2.71
      vertex 24 -8.5 2.5
      vertex 24 -8.5 2.71
    endloop
  endfacet
  facet normal 0.996191 -0.0872006 0
    outer loop
      vertex 24 -8.5 2.5
      vertex 23.9544 -9.02094 2.71
      vertex 23.9544 -9.02094 2.5
    endloop
  endfacet
  facet normal -0.965948 0.258736 0
    outer loop
      vertex -23.9544 9.02094 2.5
      vertex -23.8191 9.52606 2.71
      vertex -23.8191 9.52606 2.5
    endloop
  endfacet
  facet normal -0.965948 0.258736 0
    outer loop
      vertex -23.8191 9.52606 2.71
      vertex -23.9544 9.02094 2.5
      vertex -23.9544 9.02094 2.71
    endloop
  endfacet
  facet normal 0.965948 -0.258736 0
    outer loop
      vertex 23.8191 -9.52606 2.71
      vertex 23.9544 -9.02094 2.5
      vertex 23.9544 -9.02094 2.71
    endloop
  endfacet
  facet normal 0.965948 -0.258736 0
    outer loop
      vertex 23.9544 -9.02094 2.5
      vertex 23.8191 -9.52606 2.71
      vertex 23.8191 -9.52606 2.5
    endloop
  endfacet
  facet normal -0.819124 0.573616 0
    outer loop
      vertex -23.5981 10 2.5
      vertex -23.2981 10.4284 2.71
      vertex -23.2981 10.4284 2.5
    endloop
  endfacet
  facet normal -0.819124 0.573616 0
    outer loop
      vertex -23.2981 10.4284 2.71
      vertex -23.5981 10 2.5
      vertex -23.5981 10 2.71
    endloop
  endfacet
  facet normal -0.573616 0.819124 0
    outer loop
      vertex -22.5 11.0981 2.5
      vertex -22.9284 10.7981 2.71
      vertex -22.5 11.0981 2.71
    endloop
  endfacet
  facet normal -0.573616 0.819124 0
    outer loop
      vertex -22.9284 10.7981 2.71
      vertex -22.5 11.0981 2.5
      vertex -22.9284 10.7981 2.5
    endloop
  endfacet
  facet normal 0.0872073 0.99619 -0
    outer loop
      vertex 21.5209 11.4544 2.5
      vertex 21 11.5 2.71
      vertex 21.5209 11.4544 2.71
    endloop
  endfacet
  facet normal 0.0872073 0.99619 0
    outer loop
      vertex 21 11.5 2.71
      vertex 21.5209 11.4544 2.5
      vertex 21 11.5 2.5
    endloop
  endfacet
  facet normal 0.0872073 -0.99619 0
    outer loop
      vertex 21 -11.5 2.5
      vertex 21.5209 -11.4544 2.71
      vertex 21 -11.5 2.71
    endloop
  endfacet
  facet normal 0.0872073 -0.99619 0
    outer loop
      vertex 21.5209 -11.4544 2.71
      vertex 21 -11.5 2.5
      vertex 21.5209 -11.4544 2.5
    endloop
  endfacet
  facet normal 0.573616 0.819124 -0
    outer loop
      vertex 22.9284 10.7981 2.5
      vertex 22.5 11.0981 2.71
      vertex 22.9284 10.7981 2.71
    endloop
  endfacet
  facet normal 0.573616 0.819124 0
    outer loop
      vertex 22.5 11.0981 2.71
      vertex 22.9284 10.7981 2.5
      vertex 22.5 11.0981 2.5
    endloop
  endfacet
  facet normal 0.906309 0.422615 0
    outer loop
      vertex 23.8191 9.52606 2.71
      vertex 23.5981 10 2.5
      vertex 23.5981 10 2.71
    endloop
  endfacet
  facet normal 0.906309 0.422615 0
    outer loop
      vertex 23.5981 10 2.5
      vertex 23.8191 9.52606 2.71
      vertex 23.8191 9.52606 2.5
    endloop
  endfacet
  facet normal 0.819124 -0.573616 0
    outer loop
      vertex 23.2981 -10.4284 2.71
      vertex 23.5981 -10 2.5
      vertex 23.5981 -10 2.71
    endloop
  endfacet
  facet normal 0.819124 -0.573616 0
    outer loop
      vertex 23.5981 -10 2.5
      vertex 23.2981 -10.4284 2.71
      vertex 23.2981 -10.4284 2.5
    endloop
  endfacet
  facet normal -0.996191 0.0872006 0
    outer loop
      vertex -24 8.5 2.5
      vertex -23.9544 9.02094 2.71
      vertex -23.9544 9.02094 2.5
    endloop
  endfacet
  facet normal -0.996191 0.0872006 0
    outer loop
      vertex -23.9544 9.02094 2.71
      vertex -24 8.5 2.5
      vertex -24 8.5 2.71
    endloop
  endfacet
  facet normal -0.258698 -0.965958 0
    outer loop
      vertex -22.0261 -11.3191 2.5
      vertex -21.5209 -11.4544 2.71
      vertex -22.0261 -11.3191 2.71
    endloop
  endfacet
  facet normal -0.258698 -0.965958 -0
    outer loop
      vertex -21.5209 -11.4544 2.71
      vertex -22.0261 -11.3191 2.5
      vertex -21.5209 -11.4544 2.5
    endloop
  endfacet
  facet normal -0.707107 0.707107 0
    outer loop
      vertex -22.9284 10.7981 2.5
      vertex -23.2981 10.4284 2.71
      vertex -22.9284 10.7981 2.71
    endloop
  endfacet
  facet normal -0.707107 0.707107 0
    outer loop
      vertex -23.2981 10.4284 2.71
      vertex -22.9284 10.7981 2.5
      vertex -23.2981 10.4284 2.5
    endloop
  endfacet
  facet normal 0.258698 -0.965958 0
    outer loop
      vertex 21.5209 -11.4544 2.5
      vertex 22.0261 -11.3191 2.71
      vertex 21.5209 -11.4544 2.71
    endloop
  endfacet
  facet normal 0.258698 -0.965958 0
    outer loop
      vertex 22.0261 -11.3191 2.71
      vertex 21.5209 -11.4544 2.5
      vertex 22.0261 -11.3191 2.5
    endloop
  endfacet
  facet normal -0.996191 -0.0872006 0
    outer loop
      vertex -23.9544 -9.02094 2.5
      vertex -24 -8.5 2.71
      vertex -24 -8.5 2.5
    endloop
  endfacet
  facet normal -0.996191 -0.0872006 0
    outer loop
      vertex -24 -8.5 2.71
      vertex -23.9544 -9.02094 2.5
      vertex -23.9544 -9.02094 2.71
    endloop
  endfacet
  facet normal 0.906309 -0.422615 0
    outer loop
      vertex 23.5981 -10 2.71
      vertex 23.8191 -9.52606 2.5
      vertex 23.8191 -9.52606 2.71
    endloop
  endfacet
  facet normal 0.906309 -0.422615 0
    outer loop
      vertex 23.8191 -9.52606 2.5
      vertex 23.5981 -10 2.71
      vertex 23.5981 -10 2.5
    endloop
  endfacet
  facet normal -0.573616 -0.819124 0
    outer loop
      vertex -22.9284 -10.7981 2.5
      vertex -22.5 -11.0981 2.71
      vertex -22.9284 -10.7981 2.71
    endloop
  endfacet
  facet normal -0.573616 -0.819124 -0
    outer loop
      vertex -22.5 -11.0981 2.71
      vertex -22.9284 -10.7981 2.5
      vertex -22.5 -11.0981 2.5
    endloop
  endfacet
  facet normal -0.0872073 -0.99619 0
    outer loop
      vertex -21.5209 -11.4544 2.5
      vertex -21 -11.5 2.71
      vertex -21.5209 -11.4544 2.71
    endloop
  endfacet
  facet normal -0.0872073 -0.99619 -0
    outer loop
      vertex -21 -11.5 2.71
      vertex -21.5209 -11.4544 2.5
      vertex -21 -11.5 2.5
    endloop
  endfacet
  facet normal -0.0872073 0.99619 0
    outer loop
      vertex -21 11.5 2.5
      vertex -21.5209 11.4544 2.71
      vertex -21 11.5 2.71
    endloop
  endfacet
  facet normal -0.0872073 0.99619 0
    outer loop
      vertex -21.5209 11.4544 2.71
      vertex -21 11.5 2.5
      vertex -21.5209 11.4544 2.5
    endloop
  endfacet
  facet normal -0.258698 0.965958 0
    outer loop
      vertex -21.5209 11.4544 2.5
      vertex -22.0261 11.3191 2.71
      vertex -21.5209 11.4544 2.71
    endloop
  endfacet
  facet normal -0.258698 0.965958 0
    outer loop
      vertex -22.0261 11.3191 2.71
      vertex -21.5209 11.4544 2.5
      vertex -22.0261 11.3191 2.5
    endloop
  endfacet
  facet normal 0.707107 0.707107 -0
    outer loop
      vertex 23.2981 10.4284 2.5
      vertex 22.9284 10.7981 2.71
      vertex 23.2981 10.4284 2.71
    endloop
  endfacet
  facet normal 0.707107 0.707107 0
    outer loop
      vertex 22.9284 10.7981 2.71
      vertex 23.2981 10.4284 2.5
      vertex 22.9284 10.7981 2.5
    endloop
  endfacet
  facet normal -0.906309 -0.422615 0
    outer loop
      vertex -23.5981 -10 2.5
      vertex -23.8191 -9.52606 2.71
      vertex -23.8191 -9.52606 2.5
    endloop
  endfacet
  facet normal -0.906309 -0.422615 0
    outer loop
      vertex -23.8191 -9.52606 2.71
      vertex -23.5981 -10 2.5
      vertex -23.5981 -10 2.71
    endloop
  endfacet
  facet normal 0.422645 0.906295 -0
    outer loop
      vertex 22.5 11.0981 2.5
      vertex 22.0261 11.3191 2.71
      vertex 22.5 11.0981 2.71
    endloop
  endfacet
  facet normal 0.422645 0.906295 0
    outer loop
      vertex 22.0261 11.3191 2.71
      vertex 22.5 11.0981 2.5
      vertex 22.0261 11.3191 2.5
    endloop
  endfacet
  facet normal -0.422645 -0.906295 0
    outer loop
      vertex -22.5 -11.0981 2.5
      vertex -22.0261 -11.3191 2.71
      vertex -22.5 -11.0981 2.71
    endloop
  endfacet
  facet normal -0.422645 -0.906295 -0
    outer loop
      vertex -22.0261 -11.3191 2.71
      vertex -22.5 -11.0981 2.5
      vertex -22.0261 -11.3191 2.5
    endloop
  endfacet
  facet normal 0.996191 0.0872006 0
    outer loop
      vertex 24 8.5 2.71
      vertex 23.9544 9.02094 2.5
      vertex 23.9544 9.02094 2.71
    endloop
  endfacet
  facet normal 0.996191 0.0872006 0
    outer loop
      vertex 23.9544 9.02094 2.5
      vertex 24 8.5 2.71
      vertex 24 8.5 2.5
    endloop
  endfacet
  facet normal 0.965948 0.258736 0
    outer loop
      vertex 23.9544 9.02094 2.71
      vertex 23.8191 9.52606 2.5
      vertex 23.8191 9.52606 2.71
    endloop
  endfacet
  facet normal 0.965948 0.258736 0
    outer loop
      vertex 23.8191 9.52606 2.5
      vertex 23.9544 9.02094 2.71
      vertex 23.9544 9.02094 2.5
    endloop
  endfacet
  facet normal 0.573616 -0.819124 0
    outer loop
      vertex 22.5 -11.0981 2.5
      vertex 22.9284 -10.7981 2.71
      vertex 22.5 -11.0981 2.71
    endloop
  endfacet
  facet normal 0.573616 -0.819124 0
    outer loop
      vertex 22.9284 -10.7981 2.71
      vertex 22.5 -11.0981 2.5
      vertex 22.9284 -10.7981 2.5
    endloop
  endfacet
  facet normal -0.819124 -0.573616 0
    outer loop
      vertex -23.2981 -10.4284 2.5
      vertex -23.5981 -10 2.71
      vertex -23.5981 -10 2.5
    endloop
  endfacet
  facet normal -0.819124 -0.573616 0
    outer loop
      vertex -23.5981 -10 2.71
      vertex -23.2981 -10.4284 2.5
      vertex -23.2981 -10.4284 2.71
    endloop
  endfacet
  facet normal 0.819124 0.573616 0
    outer loop
      vertex 23.5981 10 2.71
      vertex 23.2981 10.4284 2.5
      vertex 23.2981 10.4284 2.71
    endloop
  endfacet
  facet normal 0.819124 0.573616 0
    outer loop
      vertex 23.2981 10.4284 2.5
      vertex 23.5981 10 2.71
      vertex 23.5981 10 2.5
    endloop
  endfacet
  facet normal -0.707107 -0.707107 0
    outer loop
      vertex -23.2981 -10.4284 2.5
      vertex -22.9284 -10.7981 2.71
      vertex -23.2981 -10.4284 2.71
    endloop
  endfacet
  facet normal -0.707107 -0.707107 -0
    outer loop
      vertex -22.9284 -10.7981 2.71
      vertex -23.2981 -10.4284 2.5
      vertex -22.9284 -10.7981 2.5
    endloop
  endfacet
  facet normal 0 0 -1
    outer loop
      vertex 23.0691 -8.77606 2.5
      vertex 24 -8.5 2.5
      vertex 23.9544 -9.02094 2.5
    endloop
  endfacet
  facet normal 0 0 -1
    outer loop
      vertex 24 -8.5 2.5
      vertex 23.25 -7.75 2.5
      vertex 24 8.5 2.5
    endloop
  endfacet
  facet normal 0 0 -1
    outer loop
      vertex 23.0691 -8.77606 2.5
      vertex 23.9544 -9.02094 2.5
      vertex 23.8191 -9.52606 2.5
    endloop
  endfacet
  facet normal 0 0 -1
    outer loop
      vertex 23.25 7.75 2.5
      vertex 24 8.5 2.5
      vertex 23.25 -7.75 2.5
    endloop
  endfacet
  facet normal 0 0 -1
    outer loop
      vertex 22.8481 -9.25 2.5
      vertex 23.8191 -9.52606 2.5
      vertex 23.5981 -10 2.5
    endloop
  endfacet
  facet normal 0 0 -1
    outer loop
      vertex 23.2044 8.27094 2.5
      vertex 24 8.5 2.5
      vertex 23.25 7.75 2.5
    endloop
  endfacet
  facet normal 0 0 -1
    outer loop
      vertex 22.5481 -9.67836 2.5
      vertex 23.5981 -10 2.5
      vertex 23.2981 -10.4284 2.5
    endloop
  endfacet
  facet normal 0 0 -1
    outer loop
      vertex 23.0691 8.77606 2.5
      vertex 24 8.5 2.5
      vertex 23.2044 8.27094 2.5
    endloop
  endfacet
  facet normal 0 0 -1
    outer loop
      vertex 24 8.5 2.5
      vertex 23.0691 8.77606 2.5
      vertex 23.9544 9.02094 2.5
    endloop
  endfacet
  facet normal 0 0 -1
    outer loop
      vertex 24 -8.5 2.5
      vertex 23.2044 -8.27094 2.5
      vertex 23.25 -7.75 2.5
    endloop
  endfacet
  facet normal -0 0 -1
    outer loop
      vertex 24 -8.5 2.5
      vertex 23.0691 -8.77606 2.5
      vertex 23.2044 -8.27094 2.5
    endloop
  endfacet
  facet normal 0 0 -1
    outer loop
      vertex 22.5481 -9.67836 2.5
      vertex 23.2981 -10.4284 2.5
      vertex 22.9284 -10.7981 2.5
    endloop
  endfacet
  facet normal 0 0 -1
    outer loop
      vertex 23.8191 -9.52606 2.5
      vertex 22.8481 -9.25 2.5
      vertex 23.0691 -8.77606 2.5
    endloop
  endfacet
  facet normal 0 0 -1
    outer loop
      vertex 23.5981 -10 2.5
      vertex 22.5481 -9.67836 2.5
      vertex 22.8481 -9.25 2.5
    endloop
  endfacet
  facet normal 0 0 -1
    outer loop
      vertex 22.1784 -10.0481 2.5
      vertex 22.9284 -10.7981 2.5
      vertex 22.5 -11.0981 2.5
    endloop
  endfacet
  facet normal 0 0 -1
    outer loop
      vertex 22.9284 -10.7981 2.5
      vertex 22.1784 -10.0481 2.5
      vertex 22.5481 -9.67836 2.5
    endloop
  endfacet
  facet normal 0 0 -1
    outer loop
      vertex 21.75 -10.3481 2.5
      vertex 22.5 -11.0981 2.5
      vertex 22.0261 -11.3191 2.5
    endloop
  endfacet
  facet normal 0 0 -1
    outer loop
      vertex 22.5 -11.0981 2.5
      vertex 21.75 -10.3481 2.5
      vertex 22.1784 -10.0481 2.5
    endloop
  endfacet
  facet normal 0 0 -1
    outer loop
      vertex 21.2761 -10.5691 2.5
      vertex 22.0261 -11.3191 2.5
      vertex 21.5209 -11.4544 2.5
    endloop
  endfacet
  facet normal 0 0 -1
    outer loop
      vertex 22.0261 -11.3191 2.5
      vertex 21.2761 -10.5691 2.5
      vertex 21.75 -10.3481 2.5
    endloop
  endfacet
  facet normal 0 0 -1
    outer loop
      vertex 21 -11.5 2.5
      vertex 21.2761 -10.5691 2.5
      vertex 21.5209 -11.4544 2.5
    endloop
  endfacet
  facet normal 0 0 -1
    outer loop
      vertex 21 -11.5 2.5
      vertex 20.7709 -10.7044 2.5
      vertex 21.2761 -10.5691 2.5
    endloop
  endfacet
  facet normal 0 0 -1
    outer loop
      vertex 21 -11.5 2.5
      vertex 20.25 -10.75 2.5
      vertex 20.7709 -10.7044 2.5
    endloop
  endfacet
  facet normal 0 0 -1
    outer loop
      vertex 21 -11.5 2.5
      vertex -20.25 -10.75 2.5
      vertex 20.25 -10.75 2.5
    endloop
  endfacet
  facet normal 0 0 -1
    outer loop
      vertex -21 -11.5 2.5
      vertex -20.25 -10.75 2.5
      vertex 21 -11.5 2.5
    endloop
  endfacet
  facet normal 0 0 -1
    outer loop
      vertex -21 -11.5 2.5
      vertex -20.7709 -10.7044 2.5
      vertex -20.25 -10.75 2.5
    endloop
  endfacet
  facet normal 0 0 -1
    outer loop
      vertex -21 -11.5 2.5
      vertex -21.2761 -10.5691 2.5
      vertex -20.7709 -10.7044 2.5
    endloop
  endfacet
  facet normal 0 0 -1
    outer loop
      vertex -21.5209 -11.4544 2.5
      vertex -21.2761 -10.5691 2.5
      vertex -21 -11.5 2.5
    endloop
  endfacet
  facet normal 0 0 -1
    outer loop
      vertex -22.0261 -11.3191 2.5
      vertex -21.2761 -10.5691 2.5
      vertex -21.5209 -11.4544 2.5
    endloop
  endfacet
  facet normal -0 0 -1
    outer loop
      vertex -21.2761 -10.5691 2.5
      vertex -22.0261 -11.3191 2.5
      vertex -21.75 -10.3481 2.5
    endloop
  endfacet
  facet normal 0 0 -1
    outer loop
      vertex -22.5 -11.0981 2.5
      vertex -21.75 -10.3481 2.5
      vertex -22.0261 -11.3191 2.5
    endloop
  endfacet
  facet normal -0 0 -1
    outer loop
      vertex -21.75 -10.3481 2.5
      vertex -22.5 -11.0981 2.5
      vertex -22.1784 -10.0481 2.5
    endloop
  endfacet
  facet normal 0 0 -1
    outer loop
      vertex -22.9284 -10.7981 2.5
      vertex -22.1784 -10.0481 2.5
      vertex -22.5 -11.0981 2.5
    endloop
  endfacet
  facet normal -0 0 -1
    outer loop
      vertex -22.1784 -10.0481 2.5
      vertex -22.9284 -10.7981 2.5
      vertex -22.5481 -9.67836 2.5
    endloop
  endfacet
  facet normal 0 0 -1
    outer loop
      vertex -23.2981 -10.4284 2.5
      vertex -22.5481 -9.67836 2.5
      vertex -22.9284 -10.7981 2.5
    endloop
  endfacet
  facet normal 0 0 -1
    outer loop
      vertex -23.5981 -10 2.5
      vertex -22.5481 -9.67836 2.5
      vertex -23.2981 -10.4284 2.5
    endloop
  endfacet
  facet normal -0 0 -1
    outer loop
      vertex -22.5481 -9.67836 2.5
      vertex -23.5981 -10 2.5
      vertex -22.8481 -9.25 2.5
    endloop
  endfacet
  facet normal 0 0 -1
    outer loop
      vertex -23.9544 -9.02094 2.5
      vertex -23.0691 -8.77606 2.5
      vertex -23.8191 -9.52606 2.5
    endloop
  endfacet
  facet normal -0 0 -1
    outer loop
      vertex -22.8481 -9.25 2.5
      vertex -23.8191 -9.52606 2.5
      vertex -23.0691 -8.77606 2.5
    endloop
  endfacet
  facet normal 0 0 -1
    outer loop
      vertex -23.8191 -9.52606 2.5
      vertex -22.8481 -9.25 2.5
      vertex -23.5981 -10 2.5
    endloop
  endfacet
  facet normal -0 0 -1
    outer loop
      vertex 23.9544 9.02094 2.5
      vertex 23.0691 8.77606 2.5
      vertex 23.8191 9.52606 2.5
    endloop
  endfacet
  facet normal 0 0 -1
    outer loop
      vertex 22.8481 9.25 2.5
      vertex 23.8191 9.52606 2.5
      vertex 23.0691 8.77606 2.5
    endloop
  endfacet
  facet normal -0 0 -1
    outer loop
      vertex 23.8191 9.52606 2.5
      vertex 22.8481 9.25 2.5
      vertex 23.5981 10 2.5
    endloop
  endfacet
  facet normal 0 0 -1
    outer loop
      vertex 22.5481 9.67836 2.5
      vertex 23.5981 10 2.5
      vertex 22.8481 9.25 2.5
    endloop
  endfacet
  facet normal -0 0 -1
    outer loop
      vertex 23.5981 10 2.5
      vertex 22.5481 9.67836 2.5
      vertex 23.2981 10.4284 2.5
    endloop
  endfacet
  facet normal -0 0 -1
    outer loop
      vertex 23.2981 10.4284 2.5
      vertex 22.5481 9.67836 2.5
      vertex 22.9284 10.7981 2.5
    endloop
  endfacet
  facet normal 0 0 -1
    outer loop
      vertex 22.1784 10.0481 2.5
      vertex 22.9284 10.7981 2.5
      vertex 22.5481 9.67836 2.5
    endloop
  endfacet
  facet normal -0 0 -1
    outer loop
      vertex 22.9284 10.7981 2.5
      vertex 22.1784 10.0481 2.5
      vertex 22.5 11.0981 2.5
    endloop
  endfacet
  facet normal 0 0 -1
    outer loop
      vertex 21.75 10.3481 2.5
      vertex 22.5 11.0981 2.5
      vertex 22.1784 10.0481 2.5
    endloop
  endfacet
  facet normal -0 0 -1
    outer loop
      vertex 22.5 11.0981 2.5
      vertex 21.75 10.3481 2.5
      vertex 22.0261 11.3191 2.5
    endloop
  endfacet
  facet normal 0 0 -1
    outer loop
      vertex 21.2761 10.5691 2.5
      vertex 22.0261 11.3191 2.5
      vertex 21.75 10.3481 2.5
    endloop
  endfacet
  facet normal -0 0 -1
    outer loop
      vertex 22.0261 11.3191 2.5
      vertex 21.2761 10.5691 2.5
      vertex 21.5209 11.4544 2.5
    endloop
  endfacet
  facet normal 0 0 -1
    outer loop
      vertex 21.2761 10.5691 2.5
      vertex 21 11.5 2.5
      vertex 21.5209 11.4544 2.5
    endloop
  endfacet
  facet normal 0 0 -1
    outer loop
      vertex 20.7709 10.7044 2.5
      vertex 21 11.5 2.5
      vertex 21.2761 10.5691 2.5
    endloop
  endfacet
  facet normal 0 0 -1
    outer loop
      vertex 20.25 10.75 2.5
      vertex 21 11.5 2.5
      vertex 20.7709 10.7044 2.5
    endloop
  endfacet
  facet normal 0 0 -1
    outer loop
      vertex -20.25 10.75 2.5
      vertex 21 11.5 2.5
      vertex 20.25 10.75 2.5
    endloop
  endfacet
  facet normal 0 0 -1
    outer loop
      vertex -20.25 10.75 2.5
      vertex -21 11.5 2.5
      vertex 21 11.5 2.5
    endloop
  endfacet
  facet normal 0 0 -1
    outer loop
      vertex -20.7709 10.7044 2.5
      vertex -21 11.5 2.5
      vertex -20.25 10.75 2.5
    endloop
  endfacet
  facet normal 0 0 -1
    outer loop
      vertex -21.2761 10.5691 2.5
      vertex -21 11.5 2.5
      vertex -20.7709 10.7044 2.5
    endloop
  endfacet
  facet normal 0 0 -1
    outer loop
      vertex -21.2761 10.5691 2.5
      vertex -21.5209 11.4544 2.5
      vertex -21 11.5 2.5
    endloop
  endfacet
  facet normal 0 0 -1
    outer loop
      vertex -22.0261 11.3191 2.5
      vertex -21.2761 10.5691 2.5
      vertex -21.75 10.3481 2.5
    endloop
  endfacet
  facet normal 0 0 -1
    outer loop
      vertex -21.2761 10.5691 2.5
      vertex -22.0261 11.3191 2.5
      vertex -21.5209 11.4544 2.5
    endloop
  endfacet
  facet normal 0 0 -1
    outer loop
      vertex -22.5 11.0981 2.5
      vertex -21.75 10.3481 2.5
      vertex -22.1784 10.0481 2.5
    endloop
  endfacet
  facet normal 0 0 -1
    outer loop
      vertex -21.75 10.3481 2.5
      vertex -22.5 11.0981 2.5
      vertex -22.0261 11.3191 2.5
    endloop
  endfacet
  facet normal 0 0 -1
    outer loop
      vertex -22.9284 10.7981 2.5
      vertex -22.1784 10.0481 2.5
      vertex -22.5481 9.67836 2.5
    endloop
  endfacet
  facet normal 0 0 -1
    outer loop
      vertex -23.5981 10 2.5
      vertex -22.5481 9.67836 2.5
      vertex -22.8481 9.25 2.5
    endloop
  endfacet
  facet normal 0 0 -1
    outer loop
      vertex -22.1784 10.0481 2.5
      vertex -22.9284 10.7981 2.5
      vertex -22.5 11.0981 2.5
    endloop
  endfacet
  facet normal 0 0 -1
    outer loop
      vertex -23.8191 9.52606 2.5
      vertex -22.8481 9.25 2.5
      vertex -23.0691 8.77606 2.5
    endloop
  endfacet
  facet normal 0 0 -1
    outer loop
      vertex -24 8.5 2.5
      vertex -23.0691 8.77606 2.5
      vertex -23.2044 8.27094 2.5
    endloop
  endfacet
  facet normal 0 0 -1
    outer loop
      vertex -22.5481 9.67836 2.5
      vertex -23.2981 10.4284 2.5
      vertex -22.9284 10.7981 2.5
    endloop
  endfacet
  facet normal 0 0 -1
    outer loop
      vertex -24 8.5 2.5
      vertex -23.2044 8.27094 2.5
      vertex -23.25 7.75 2.5
    endloop
  endfacet
  facet normal -0 0 -1
    outer loop
      vertex -23.25 -7.75 2.5
      vertex -24 -8.5 2.5
      vertex -23.25 7.75 2.5
    endloop
  endfacet
  facet normal 0 0 -1
    outer loop
      vertex -24 -8.5 2.5
      vertex -23.0691 -8.77606 2.5
      vertex -23.9544 -9.02094 2.5
    endloop
  endfacet
  facet normal 0 0 -1
    outer loop
      vertex -24 8.5 2.5
      vertex -23.25 7.75 2.5
      vertex -24 -8.5 2.5
    endloop
  endfacet
  facet normal 0 0 -1
    outer loop
      vertex -23.0691 -8.77606 2.5
      vertex -24 -8.5 2.5
      vertex -23.2044 -8.27094 2.5
    endloop
  endfacet
  facet normal -0 0 -1
    outer loop
      vertex -23.0691 8.77606 2.5
      vertex -24 8.5 2.5
      vertex -23.9544 9.02094 2.5
    endloop
  endfacet
  facet normal -0 0 -1
    outer loop
      vertex -23.2044 -8.27094 2.5
      vertex -24 -8.5 2.5
      vertex -23.25 -7.75 2.5
    endloop
  endfacet
  facet normal 0 0 -1
    outer loop
      vertex -22.5481 9.67836 2.5
      vertex -23.5981 10 2.5
      vertex -23.2981 10.4284 2.5
    endloop
  endfacet
  facet normal 0 0 -1
    outer loop
      vertex -22.8481 9.25 2.5
      vertex -23.8191 9.52606 2.5
      vertex -23.5981 10 2.5
    endloop
  endfacet
  facet normal 0 0 -1
    outer loop
      vertex -23.0691 8.77606 2.5
      vertex -23.9544 9.02094 2.5
      vertex -23.8191 9.52606 2.5
    endloop
  endfacet
  facet normal -0.965948 -0.258736 0
    outer loop
      vertex -23.8191 -9.52606 2.5
      vertex -23.9544 -9.02094 2.71
      vertex -23.9544 -9.02094 2.5
    endloop
  endfacet
  facet normal -0.965948 -0.258736 0
    outer loop
      vertex -23.9544 -9.02094 2.71
      vertex -23.8191 -9.52606 2.5
      vertex -23.8191 -9.52606 2.71
    endloop
  endfacet
  facet normal 0.258698 0.965958 -0
    outer loop
      vertex -20.7709 -10.7044 2.5
      vertex -21.2761 -10.5691 2.71
      vertex -20.7709 -10.7044 2.71
    endloop
  endfacet
  facet normal 0.258698 0.965958 0
    outer loop
      vertex -21.2761 -10.5691 2.71
      vertex -20.7709 -10.7044 2.5
      vertex -21.2761 -10.5691 2.5
    endloop
  endfacet
  facet normal 0.573616 0.819124 -0
    outer loop
      vertex -21.75 -10.3481 2.5
      vertex -22.1784 -10.0481 2.71
      vertex -21.75 -10.3481 2.71
    endloop
  endfacet
  facet normal 0.573616 0.819124 0
    outer loop
      vertex -22.1784 -10.0481 2.71
      vertex -21.75 -10.3481 2.5
      vertex -22.1784 -10.0481 2.5
    endloop
  endfacet
  facet normal 0.707145 -0.707069 0
    outer loop
      vertex -22.5481 9.67836 2.5
      vertex -22.1784 10.0481 2.71
      vertex -22.5481 9.67836 2.71
    endloop
  endfacet
  facet normal 0.707145 -0.707069 0
    outer loop
      vertex -22.1784 10.0481 2.71
      vertex -22.5481 9.67836 2.5
      vertex -22.1784 10.0481 2.5
    endloop
  endfacet
  facet normal -0.996191 0.0872006 0
    outer loop
      vertex 23.2044 -8.27094 2.5
      vertex 23.25 -7.75 2.71
      vertex 23.25 -7.75 2.5
    endloop
  endfacet
  facet normal -0.996191 0.0872006 0
    outer loop
      vertex 23.25 -7.75 2.71
      vertex 23.2044 -8.27094 2.5
      vertex 23.2044 -8.27094 2.71
    endloop
  endfacet
  facet normal -0.258698 0.965958 0
    outer loop
      vertex 21.2761 -10.5691 2.5
      vertex 20.7709 -10.7044 2.71
      vertex 21.2761 -10.5691 2.71
    endloop
  endfacet
  facet normal -0.258698 0.965958 0
    outer loop
      vertex 20.7709 -10.7044 2.71
      vertex 21.2761 -10.5691 2.5
      vertex 20.7709 -10.7044 2.5
    endloop
  endfacet
  facet normal -0.819099 -0.573652 0
    outer loop
      vertex 22.8481 9.25 2.5
      vertex 22.5481 9.67836 2.71
      vertex 22.5481 9.67836 2.5
    endloop
  endfacet
  facet normal -0.819099 -0.573652 0
    outer loop
      vertex 22.5481 9.67836 2.71
      vertex 22.8481 9.25 2.5
      vertex 22.8481 9.25 2.71
    endloop
  endfacet
  facet normal -0.707145 0.707069 0
    outer loop
      vertex 22.5481 -9.67836 2.5
      vertex 22.1784 -10.0481 2.71
      vertex 22.5481 -9.67836 2.71
    endloop
  endfacet
  facet normal -0.707145 0.707069 0
    outer loop
      vertex 22.1784 -10.0481 2.71
      vertex 22.5481 -9.67836 2.5
      vertex 22.1784 -10.0481 2.5
    endloop
  endfacet
  facet normal -0.573616 0.819124 0
    outer loop
      vertex 22.1784 -10.0481 2.5
      vertex 21.75 -10.3481 2.71
      vertex 22.1784 -10.0481 2.71
    endloop
  endfacet
  facet normal -0.573616 0.819124 0
    outer loop
      vertex 21.75 -10.3481 2.71
      vertex 22.1784 -10.0481 2.5
      vertex 21.75 -10.3481 2.5
    endloop
  endfacet
  facet normal 0.996191 -0.0872006 0
    outer loop
      vertex -23.25 7.75 2.71
      vertex -23.2044 8.27094 2.5
      vertex -23.2044 8.27094 2.71
    endloop
  endfacet
  facet normal 0.996191 -0.0872006 0
    outer loop
      vertex -23.2044 8.27094 2.5
      vertex -23.25 7.75 2.71
      vertex -23.25 7.75 2.5
    endloop
  endfacet
  facet normal 0.573616 -0.819124 0
    outer loop
      vertex -22.1784 10.0481 2.5
      vertex -21.75 10.3481 2.71
      vertex -22.1784 10.0481 2.71
    endloop
  endfacet
  facet normal 0.573616 -0.819124 0
    outer loop
      vertex -21.75 10.3481 2.71
      vertex -22.1784 10.0481 2.5
      vertex -21.75 10.3481 2.5
    endloop
  endfacet
  facet normal 0.0872073 -0.99619 0
    outer loop
      vertex -20.7709 10.7044 2.5
      vertex -20.25 10.75 2.71
      vertex -20.7709 10.7044 2.71
    endloop
  endfacet
  facet normal 0.0872073 -0.99619 0
    outer loop
      vertex -20.25 10.75 2.71
      vertex -20.7709 10.7044 2.5
      vertex -20.25 10.75 2.5
    endloop
  endfacet
  facet normal -0.0872073 0.99619 0
    outer loop
      vertex 20.7709 -10.7044 2.5
      vertex 20.25 -10.75 2.71
      vertex 20.7709 -10.7044 2.71
    endloop
  endfacet
  facet normal -0.0872073 0.99619 0
    outer loop
      vertex 20.25 -10.75 2.71
      vertex 20.7709 -10.7044 2.5
      vertex 20.25 -10.75 2.5
    endloop
  endfacet
  facet normal 0.965948 -0.258736 0
    outer loop
      vertex -23.2044 8.27094 2.71
      vertex -23.0691 8.77606 2.5
      vertex -23.0691 8.77606 2.71
    endloop
  endfacet
  facet normal 0.965948 -0.258736 0
    outer loop
      vertex -23.0691 8.77606 2.5
      vertex -23.2044 8.27094 2.71
      vertex -23.2044 8.27094 2.5
    endloop
  endfacet
  facet normal 0.0872073 0.99619 -0
    outer loop
      vertex -20.25 -10.75 2.5
      vertex -20.7709 -10.7044 2.71
      vertex -20.25 -10.75 2.71
    endloop
  endfacet
  facet normal 0.0872073 0.99619 0
    outer loop
      vertex -20.7709 -10.7044 2.71
      vertex -20.25 -10.75 2.5
      vertex -20.7709 -10.7044 2.5
    endloop
  endfacet
  facet normal -0.965948 0.258736 0
    outer loop
      vertex 23.0691 -8.77606 2.5
      vertex 23.2044 -8.27094 2.71
      vertex 23.2044 -8.27094 2.5
    endloop
  endfacet
  facet normal -0.965948 0.258736 0
    outer loop
      vertex 23.2044 -8.27094 2.71
      vertex 23.0691 -8.77606 2.5
      vertex 23.0691 -8.77606 2.71
    endloop
  endfacet
  facet normal -0.258698 -0.965958 0
    outer loop
      vertex 20.7709 10.7044 2.5
      vertex 21.2761 10.5691 2.71
      vertex 20.7709 10.7044 2.71
    endloop
  endfacet
  facet normal -0.258698 -0.965958 -0
    outer loop
      vertex 21.2761 10.5691 2.71
      vertex 20.7709 10.7044 2.5
      vertex 21.2761 10.5691 2.5
    endloop
  endfacet
  facet normal 0 1 -0
    outer loop
      vertex 20.25 -10.75 2.5
      vertex -20.25 -10.75 2.71
      vertex 20.25 -10.75 2.71
    endloop
  endfacet
  facet normal 0 1 0
    outer loop
      vertex -20.25 -10.75 2.71
      vertex 20.25 -10.75 2.5
      vertex -20.25 -10.75 2.5
    endloop
  endfacet
  facet normal 0.819099 -0.573652 0
    outer loop
      vertex -22.8481 9.25 2.71
      vertex -22.5481 9.67836 2.5
      vertex -22.5481 9.67836 2.71
    endloop
  endfacet
  facet normal 0.819099 -0.573652 0
    outer loop
      vertex -22.5481 9.67836 2.5
      vertex -22.8481 9.25 2.71
      vertex -22.8481 9.25 2.5
    endloop
  endfacet
  facet normal 0 -1 0
    outer loop
      vertex -20.25 10.75 2.5
      vertex 20.25 10.75 2.71
      vertex -20.25 10.75 2.71
    endloop
  endfacet
  facet normal 0 -1 -0
    outer loop
      vertex 20.25 10.75 2.71
      vertex -20.25 10.75 2.5
      vertex 20.25 10.75 2.5
    endloop
  endfacet
  facet normal 0.819099 0.573652 0
    outer loop
      vertex -22.5481 -9.67836 2.71
      vertex -22.8481 -9.25 2.5
      vertex -22.8481 -9.25 2.71
    endloop
  endfacet
  facet normal 0.819099 0.573652 0
    outer loop
      vertex -22.8481 -9.25 2.5
      vertex -22.5481 -9.67836 2.71
      vertex -22.5481 -9.67836 2.5
    endloop
  endfacet
  facet normal -1 0 0
    outer loop
      vertex 23.25 7.75 2.5
      vertex 23.25 4 2.6
      vertex 23.25 7.75 2.71
    endloop
  endfacet
  facet normal -1 0 0
    outer loop
      vertex 23.25 7.75 2.5
      vertex 23.25 2 2.6
      vertex 23.25 4 2.6
    endloop
  endfacet
  facet normal -1 0 0
    outer loop
      vertex 23.25 2 2.6
      vertex 23.25 -2 2.6
      vertex 23.25 2 2.71
    endloop
  endfacet
  facet normal -1 0 0
    outer loop
      vertex 23.25 7.75 2.5
      vertex 23.25 -2 2.6
      vertex 23.25 2 2.6
    endloop
  endfacet
  facet normal -1 0 0
    outer loop
      vertex 23.25 -7.75 2.5
      vertex 23.25 -2 2.6
      vertex 23.25 7.75 2.5
    endloop
  endfacet
  facet normal -1 -0 0
    outer loop
      vertex 23.25 -2 2.6
      vertex 23.25 -7.75 2.5
      vertex 23.25 -4 2.6
    endloop
  endfacet
  facet normal -1 0 0
    outer loop
      vertex 23.25 -7.75 2.71
      vertex 23.25 -4 2.6
      vertex 23.25 -7.75 2.5
    endloop
  endfacet
  facet normal -1 0 0
    outer loop
      vertex 23.25 -4 2.6
      vertex 23.25 -7.75 2.71
      vertex 23.25 -4 2.71
    endloop
  endfacet
  facet normal -1 -0 0
    outer loop
      vertex 23.25 7.75 2.71
      vertex 23.25 4 2.6
      vertex 23.25 4 2.71
    endloop
  endfacet
  facet normal -1 -0 0
    outer loop
      vertex 23.25 2 2.71
      vertex 23.25 -2 2.6
      vertex 23.25 -2 2.71
    endloop
  endfacet
  facet normal -0.819099 0.573652 0
    outer loop
      vertex 22.5481 -9.67836 2.5
      vertex 22.8481 -9.25 2.71
      vertex 22.8481 -9.25 2.5
    endloop
  endfacet
  facet normal -0.819099 0.573652 0
    outer loop
      vertex 22.8481 -9.25 2.71
      vertex 22.5481 -9.67836 2.5
      vertex 22.5481 -9.67836 2.71
    endloop
  endfacet
  facet normal 0.906309 -0.422615 0
    outer loop
      vertex -23.0691 8.77606 2.71
      vertex -22.8481 9.25 2.5
      vertex -22.8481 9.25 2.71
    endloop
  endfacet
  facet normal 0.906309 -0.422615 0
    outer loop
      vertex -22.8481 9.25 2.5
      vertex -23.0691 8.77606 2.71
      vertex -23.0691 8.77606 2.5
    endloop
  endfacet
  facet normal -0.906309 -0.422615 0
    outer loop
      vertex 23.0691 8.77606 2.5
      vertex 22.8481 9.25 2.71
      vertex 22.8481 9.25 2.5
    endloop
  endfacet
  facet normal -0.906309 -0.422615 0
    outer loop
      vertex 22.8481 9.25 2.71
      vertex 23.0691 8.77606 2.5
      vertex 23.0691 8.77606 2.71
    endloop
  endfacet
  facet normal -0.422645 0.906295 0
    outer loop
      vertex 21.75 -10.3481 2.5
      vertex 21.2761 -10.5691 2.71
      vertex 21.75 -10.3481 2.71
    endloop
  endfacet
  facet normal -0.422645 0.906295 0
    outer loop
      vertex 21.2761 -10.5691 2.71
      vertex 21.75 -10.3481 2.5
      vertex 21.2761 -10.5691 2.5
    endloop
  endfacet
  facet normal 0.422645 -0.906295 0
    outer loop
      vertex -21.75 10.3481 2.5
      vertex -21.2761 10.5691 2.71
      vertex -21.75 10.3481 2.71
    endloop
  endfacet
  facet normal 0.422645 -0.906295 0
    outer loop
      vertex -21.2761 10.5691 2.71
      vertex -21.75 10.3481 2.5
      vertex -21.2761 10.5691 2.5
    endloop
  endfacet
  facet normal 0.422645 0.906295 -0
    outer loop
      vertex -21.2761 -10.5691 2.5
      vertex -21.75 -10.3481 2.71
      vertex -21.2761 -10.5691 2.71
    endloop
  endfacet
  facet normal 0.422645 0.906295 0
    outer loop
      vertex -21.75 -10.3481 2.71
      vertex -21.2761 -10.5691 2.5
      vertex -21.75 -10.3481 2.5
    endloop
  endfacet
  facet normal -0.0872073 -0.99619 0
    outer loop
      vertex 20.25 10.75 2.5
      vertex 20.7709 10.7044 2.71
      vertex 20.25 10.75 2.71
    endloop
  endfacet
  facet normal -0.0872073 -0.99619 -0
    outer loop
      vertex 20.7709 10.7044 2.71
      vertex 20.25 10.75 2.5
      vertex 20.7709 10.7044 2.5
    endloop
  endfacet
  facet normal 0.258698 -0.965958 0
    outer loop
      vertex -21.2761 10.5691 2.5
      vertex -20.7709 10.7044 2.71
      vertex -21.2761 10.5691 2.71
    endloop
  endfacet
  facet normal 0.258698 -0.965958 0
    outer loop
      vertex -20.7709 10.7044 2.71
      vertex -21.2761 10.5691 2.5
      vertex -20.7709 10.7044 2.5
    endloop
  endfacet
  facet normal 0.996191 0.0872006 0
    outer loop
      vertex -23.2044 -8.27094 2.71
      vertex -23.25 -7.75 2.5
      vertex -23.25 -7.75 2.71
    endloop
  endfacet
  facet normal 0.996191 0.0872006 0
    outer loop
      vertex -23.25 -7.75 2.5
      vertex -23.2044 -8.27094 2.71
      vertex -23.2044 -8.27094 2.5
    endloop
  endfacet
  facet normal 0.906309 0.422615 0
    outer loop
      vertex -22.8481 -9.25 2.71
      vertex -23.0691 -8.77606 2.5
      vertex -23.0691 -8.77606 2.71
    endloop
  endfacet
  facet normal 0.906309 0.422615 0
    outer loop
      vertex -23.0691 -8.77606 2.5
      vertex -22.8481 -9.25 2.71
      vertex -22.8481 -9.25 2.5
    endloop
  endfacet
  facet normal -0.573616 -0.819124 0
    outer loop
      vertex 21.75 10.3481 2.5
      vertex 22.1784 10.0481 2.71
      vertex 21.75 10.3481 2.71
    endloop
  endfacet
  facet normal -0.573616 -0.819124 -0
    outer loop
      vertex 22.1784 10.0481 2.71
      vertex 21.75 10.3481 2.5
      vertex 22.1784 10.0481 2.5
    endloop
  endfacet
  facet normal -0.906309 0.422615 0
    outer loop
      vertex 22.8481 -9.25 2.5
      vertex 23.0691 -8.77606 2.71
      vertex 23.0691 -8.77606 2.5
    endloop
  endfacet
  facet normal -0.906309 0.422615 0
    outer loop
      vertex 23.0691 -8.77606 2.71
      vertex 22.8481 -9.25 2.5
      vertex 22.8481 -9.25 2.71
    endloop
  endfacet
  facet normal 1 0 0
    outer loop
      vertex -23.25 -3 2.71
      vertex -23.25 -7.75 2.71
      vertex -23.25 -3 2.6
    endloop
  endfacet
  facet normal 1 0 0
    outer loop
      vertex -23.25 1 2.71
      vertex -23.25 -1 2.71
      vertex -23.25 1 2.6
    endloop
  endfacet
  facet normal 1 0 0
    outer loop
      vertex -23.25 3 2.6
      vertex -23.25 7.75 2.71
      vertex -23.25 3 2.71
    endloop
  endfacet
  facet normal 1 0 0
    outer loop
      vertex -23.25 7.75 2.71
      vertex -23.25 3 2.6
      vertex -23.25 7.75 2.5
    endloop
  endfacet
  facet normal 1 -0 0
    outer loop
      vertex -23.25 1 2.6
      vertex -23.25 7.75 2.5
      vertex -23.25 3 2.6
    endloop
  endfacet
  facet normal 1 0 0
    outer loop
      vertex -23.25 -1 2.6
      vertex -23.25 1 2.6
      vertex -23.25 -1 2.71
    endloop
  endfacet
  facet normal 1 -0 0
    outer loop
      vertex -23.25 -1 2.6
      vertex -23.25 7.75 2.5
      vertex -23.25 1 2.6
    endloop
  endfacet
  facet normal 1 -0 0
    outer loop
      vertex -23.25 -3 2.6
      vertex -23.25 7.75 2.5
      vertex -23.25 -1 2.6
    endloop
  endfacet
  facet normal 1 0 0
    outer loop
      vertex -23.25 -3 2.6
      vertex -23.25 -7.75 2.5
      vertex -23.25 7.75 2.5
    endloop
  endfacet
  facet normal 1 0 0
    outer loop
      vertex -23.25 -7.75 2.5
      vertex -23.25 -3 2.6
      vertex -23.25 -7.75 2.71
    endloop
  endfacet
  facet normal -0.707145 -0.707069 0
    outer loop
      vertex 22.1784 10.0481 2.5
      vertex 22.5481 9.67836 2.71
      vertex 22.1784 10.0481 2.71
    endloop
  endfacet
  facet normal -0.707145 -0.707069 -0
    outer loop
      vertex 22.5481 9.67836 2.71
      vertex 22.1784 10.0481 2.5
      vertex 22.5481 9.67836 2.5
    endloop
  endfacet
  facet normal 0.707145 0.707069 -0
    outer loop
      vertex -22.1784 -10.0481 2.5
      vertex -22.5481 -9.67836 2.71
      vertex -22.1784 -10.0481 2.71
    endloop
  endfacet
  facet normal 0.707145 0.707069 0
    outer loop
      vertex -22.5481 -9.67836 2.71
      vertex -22.1784 -10.0481 2.5
      vertex -22.5481 -9.67836 2.5
    endloop
  endfacet
  facet normal -0.996191 -0.0872006 0
    outer loop
      vertex 23.25 7.75 2.5
      vertex 23.2044 8.27094 2.71
      vertex 23.2044 8.27094 2.5
    endloop
  endfacet
  facet normal -0.996191 -0.0872006 0
    outer loop
      vertex 23.2044 8.27094 2.71
      vertex 23.25 7.75 2.5
      vertex 23.25 7.75 2.71
    endloop
  endfacet
  facet normal 0.965948 0.258736 0
    outer loop
      vertex -23.0691 -8.77606 2.71
      vertex -23.2044 -8.27094 2.5
      vertex -23.2044 -8.27094 2.71
    endloop
  endfacet
  facet normal 0.965948 0.258736 0
    outer loop
      vertex -23.2044 -8.27094 2.5
      vertex -23.0691 -8.77606 2.71
      vertex -23.0691 -8.77606 2.5
    endloop
  endfacet
  facet normal -0.965948 -0.258736 0
    outer loop
      vertex 23.2044 8.27094 2.5
      vertex 23.0691 8.77606 2.71
      vertex 23.0691 8.77606 2.5
    endloop
  endfacet
  facet normal -0.965948 -0.258736 0
    outer loop
      vertex 23.0691 8.77606 2.71
      vertex 23.2044 8.27094 2.5
      vertex 23.2044 8.27094 2.71
    endloop
  endfacet
  facet normal -0.422645 -0.906295 0
    outer loop
      vertex 21.2761 10.5691 2.5
      vertex 21.75 10.3481 2.71
      vertex 21.2761 10.5691 2.71
    endloop
  endfacet
  facet normal -0.422645 -0.906295 -0
    outer loop
      vertex 21.75 10.3481 2.71
      vertex 21.2761 10.5691 2.5
      vertex 21.75 10.3481 2.5
    endloop
  endfacet
  facet normal -1 0 0
    outer loop
      vertex 21 -4 2.6
      vertex 21 -2 22.6
      vertex 21 -2 2.6
    endloop
  endfacet
  facet normal -1 -0 0
    outer loop
      vertex 21 -2 22.6
      vertex 21 -4 2.6
      vertex 21 -4 22.6
    endloop
  endfacet
  facet normal -1 0 0
    outer loop
      vertex 21 2 2.6
      vertex 21 4 22.6
      vertex 21 4 2.6
    endloop
  endfacet
  facet normal -1 -0 0
    outer loop
      vertex 21 4 22.6
      vertex 21 2 2.6
      vertex 21 2 22.6
    endloop
  endfacet
  facet normal 0 0 1
    outer loop
      vertex 25.5 4 22.6
      vertex 23.4 2 22.6
      vertex 25.5 -4 22.6
    endloop
  endfacet
  facet normal -0 0 1
    outer loop
      vertex 21 4 22.6
      vertex 23.4 2 22.6
      vertex 25.5 4 22.6
    endloop
  endfacet
  facet normal 0 0 1
    outer loop
      vertex 23.4 2 22.6
      vertex 21 4 22.6
      vertex 21 2 22.6
    endloop
  endfacet
  facet normal -0 0 1
    outer loop
      vertex 23.4 -2 22.6
      vertex 25.5 -4 22.6
      vertex 23.4 2 22.6
    endloop
  endfacet
  facet normal 0 0 1
    outer loop
      vertex 21 -4 22.6
      vertex 23.4 -2 22.6
      vertex 21 -2 22.6
    endloop
  endfacet
  facet normal 0 0 1
    outer loop
      vertex 23.4 -2 22.6
      vertex 21 -4 22.6
      vertex 25.5 -4 22.6
    endloop
  endfacet
  facet normal 0 0 -1
    outer loop
      vertex 21 -4 2.6
      vertex 23.25 -2 2.6
      vertex 23.25 -4 2.6
    endloop
  endfacet
  facet normal -0 0 -1
    outer loop
      vertex 23.25 -2 2.6
      vertex 21 -4 2.6
      vertex 21 -2 2.6
    endloop
  endfacet
  facet normal 0 0 -1
    outer loop
      vertex 21 2 2.6
      vertex 23.25 4 2.6
      vertex 23.25 2 2.6
    endloop
  endfacet
  facet normal -0 0 -1
    outer loop
      vertex 23.25 4 2.6
      vertex 21 2 2.6
      vertex 21 4 2.6
    endloop
  endfacet
  facet normal 0 0 -1
    outer loop
      vertex 24 -4 2.6
      vertex 25.5 4 2.6
      vertex 25.5 -4 2.6
    endloop
  endfacet
  facet normal -0 0 -1
    outer loop
      vertex 25.5 4 2.6
      vertex 24 -4 2.6
      vertex 24 4 2.6
    endloop
  endfacet
  facet normal 1 -0 0
    outer loop
      vertex 25.5 -4 22.6
      vertex 25.5 4 2.6
      vertex 25.5 4 22.6
    endloop
  endfacet
  facet normal 1 0 0
    outer loop
      vertex 25.5 4 2.6
      vertex 25.5 -4 22.6
      vertex 25.5 -4 2.6
    endloop
  endfacet
  facet normal 0 -1 0
    outer loop
      vertex 21 -4 22.6
      vertex 23.25 -4 2.71
      vertex 25.5 -4 22.6
    endloop
  endfacet
  facet normal 0 -1 0
    outer loop
      vertex 21 -4 2.6
      vertex 23.25 -4 2.71
      vertex 21 -4 22.6
    endloop
  endfacet
  facet normal 0 -1 -0
    outer loop
      vertex 23.25 -4 2.71
      vertex 21 -4 2.6
      vertex 23.25 -4 2.6
    endloop
  endfacet
  facet normal 0 -1 0
    outer loop
      vertex 24 -4 2.71
      vertex 25.5 -4 22.6
      vertex 23.25 -4 2.71
    endloop
  endfacet
  facet normal 0 -1 0
    outer loop
      vertex 25.5 -4 2.6
      vertex 24 -4 2.71
      vertex 24 -4 2.6
    endloop
  endfacet
  facet normal 0 -1 0
    outer loop
      vertex 24 -4 2.71
      vertex 25.5 -4 2.6
      vertex 25.5 -4 22.6
    endloop
  endfacet
  facet normal 0 1 0
    outer loop
      vertex 23.25 4 2.71
      vertex 25.5 4 22.6
      vertex 24 4 2.71
    endloop
  endfacet
  facet normal 0 1 -0
    outer loop
      vertex 25.5 4 2.6
      vertex 24 4 2.71
      vertex 25.5 4 22.6
    endloop
  endfacet
  facet normal 0 1 0
    outer loop
      vertex 24 4 2.71
      vertex 25.5 4 2.6
      vertex 24 4 2.6
    endloop
  endfacet
  facet normal 0 1 0
    outer loop
      vertex 25.5 4 22.6
      vertex 23.25 4 2.71
      vertex 21 4 22.6
    endloop
  endfacet
  facet normal 0 1 0
    outer loop
      vertex 21 4 2.6
      vertex 23.25 4 2.71
      vertex 23.25 4 2.6
    endloop
  endfacet
  facet normal 0 1 0
    outer loop
      vertex 23.25 4 2.71
      vertex 21 4 2.6
      vertex 21 4 22.6
    endloop
  endfacet
  facet normal -1 0 0
    outer loop
      vertex 23.4 -2 2.71
      vertex 23.4 2 22.6
      vertex 23.4 2 2.71
    endloop
  endfacet
  facet normal -1 -0 0
    outer loop
      vertex 23.4 2 22.6
      vertex 23.4 -2 2.71
      vertex 23.4 -2 22.6
    endloop
  endfacet
  facet normal 0 1 0
    outer loop
      vertex 23.25 -2 2.71
      vertex 23.4 -2 22.6
      vertex 23.4 -2 2.71
    endloop
  endfacet
  facet normal 0 1 0
    outer loop
      vertex 23.4 -2 22.6
      vertex 23.25 -2 2.71
      vertex 21 -2 22.6
    endloop
  endfacet
  facet normal 0 1 0
    outer loop
      vertex 21 -2 2.6
      vertex 23.25 -2 2.71
      vertex 23.25 -2 2.6
    endloop
  endfacet
  facet normal 0 1 0
    outer loop
      vertex 23.25 -2 2.71
      vertex 21 -2 2.6
      vertex 21 -2 22.6
    endloop
  endfacet
  facet normal 0 -1 0
    outer loop
      vertex 21 2 22.6
      vertex 23.25 2 2.71
      vertex 23.4 2 22.6
    endloop
  endfacet
  facet normal 0 -1 0
    outer loop
      vertex 21 2 2.6
      vertex 23.25 2 2.71
      vertex 21 2 22.6
    endloop
  endfacet
  facet normal 0 -1 -0
    outer loop
      vertex 23.25 2 2.71
      vertex 21 2 2.6
      vertex 23.25 2 2.6
    endloop
  endfacet
  facet normal 0 -1 -0
    outer loop
      vertex 23.4 2 22.6
      vertex 23.25 2 2.71
      vertex 23.4 2 2.71
    endloop
  endfacet
  facet normal 1 -0 0
    outer loop
      vertex -21 1 22.6
      vertex -21 3 2.6
      vertex -21 3 22.6
    endloop
  endfacet
  facet normal 1 0 0
    outer loop
      vertex -21 3 2.6
      vertex -21 1 22.6
      vertex -21 1 2.6
    endloop
  endfacet
  facet normal 1 -0 0
    outer loop
      vertex -21 -3 22.6
      vertex -21 -1 2.6
      vertex -21 -1 22.6
    endloop
  endfacet
  facet normal 1 0 0
    outer loop
      vertex -21 -1 2.6
      vertex -21 -3 22.6
      vertex -21 -3 2.6
    endloop
  endfacet
  facet normal 0 0 1
    outer loop
      vertex -21 3 22.6
      vertex -23.4 1 22.6
      vertex -21 1 22.6
    endloop
  endfacet
  facet normal 0 0 1
    outer loop
      vertex -23.4 1 22.6
      vertex -25.5 3 22.6
      vertex -23.4 -1 22.6
    endloop
  endfacet
  facet normal -0 0 1
    outer loop
      vertex -25.5 3 22.6
      vertex -23.4 1 22.6
      vertex -21 3 22.6
    endloop
  endfacet
  facet normal -0 0 1
    outer loop
      vertex -23.4 -1 22.6
      vertex -21 -3 22.6
      vertex -21 -1 22.6
    endloop
  endfacet
  facet normal 0 0 1
    outer loop
      vertex -23.4 -1 22.6
      vertex -25.5 -3 22.6
      vertex -21 -3 22.6
    endloop
  endfacet
  facet normal 0 0 1
    outer loop
      vertex -25.5 -3 22.6
      vertex -23.4 -1 22.6
      vertex -25.5 3 22.6
    endloop
  endfacet
  facet normal 0 0 -1
    outer loop
      vertex -23.25 1 2.6
      vertex -21 3 2.6
      vertex -21 1 2.6
    endloop
  endfacet
  facet normal -0 0 -1
    outer loop
      vertex -21 3 2.6
      vertex -23.25 1 2.6
      vertex -23.25 3 2.6
    endloop
  endfacet
  facet normal 0 0 -1
    outer loop
      vertex -23.25 -3 2.6
      vertex -21 -1 2.6
      vertex -21 -3 2.6
    endloop
  endfacet
  facet normal -0 0 -1
    outer loop
      vertex -21 -1 2.6
      vertex -23.25 -3 2.6
      vertex -23.25 -1 2.6
    endloop
  endfacet
  facet normal 0 0 -1
    outer loop
      vertex -25.5 -3 2.6
      vertex -24 3 2.6
      vertex -24 -3 2.6
    endloop
  endfacet
  facet normal -0 0 -1
    outer loop
      vertex -24 3 2.6
      vertex -25.5 -3 2.6
      vertex -25.5 3 2.6
    endloop
  endfacet
  facet normal -1 0 0
    outer loop
      vertex -25.5 -3 2.6
      vertex -25.5 3 22.6
      vertex -25.5 3 2.6
    endloop
  endfacet
  facet normal -1 -0 0
    outer loop
      vertex -25.5 3 22.6
      vertex -25.5 -3 2.6
      vertex -25.5 -3 22.6
    endloop
  endfacet
  facet normal 0 1 0
    outer loop
      vertex -21 3 22.6
      vertex -23.25 3 2.71
      vertex -25.5 3 22.6
    endloop
  endfacet
  facet normal 0 1 -0
    outer loop
      vertex -21 3 2.6
      vertex -23.25 3 2.71
      vertex -21 3 22.6
    endloop
  endfacet
  facet normal 0 1 0
    outer loop
      vertex -23.25 3 2.71
      vertex -21 3 2.6
      vertex -23.25 3 2.6
    endloop
  endfacet
  facet normal 0 1 -0
    outer loop
      vertex -24 3 2.71
      vertex -25.5 3 22.6
      vertex -23.25 3 2.71
    endloop
  endfacet
  facet normal 0 1 0
    outer loop
      vertex -25.5 3 2.6
      vertex -24 3 2.71
      vertex -24 3 2.6
    endloop
  endfacet
  facet normal 0 1 0
    outer loop
      vertex -24 3 2.71
      vertex -25.5 3 2.6
      vertex -25.5 3 22.6
    endloop
  endfacet
  facet normal 0 -1 0
    outer loop
      vertex -23.25 -3 2.71
      vertex -25.5 -3 22.6
      vertex -24 -3 2.71
    endloop
  endfacet
  facet normal 0 -1 0
    outer loop
      vertex -25.5 -3 2.6
      vertex -24 -3 2.71
      vertex -25.5 -3 22.6
    endloop
  endfacet
  facet normal 0 -1 -0
    outer loop
      vertex -24 -3 2.71
      vertex -25.5 -3 2.6
      vertex -24 -3 2.6
    endloop
  endfacet
  facet normal 0 -1 0
    outer loop
      vertex -25.5 -3 22.6
      vertex -23.25 -3 2.71
      vertex -21 -3 22.6
    endloop
  endfacet
  facet normal 0 -1 0
    outer loop
      vertex -21 -3 2.6
      vertex -23.25 -3 2.71
      vertex -23.25 -3 2.6
    endloop
  endfacet
  facet normal 0 -1 0
    outer loop
      vertex -23.25 -3 2.71
      vertex -21 -3 2.6
      vertex -21 -3 22.6
    endloop
  endfacet
  facet normal 1 -0 0
    outer loop
      vertex -23.4 -1 22.6
      vertex -23.4 1 2.71
      vertex -23.4 1 22.6
    endloop
  endfacet
  facet normal 1 0 0
    outer loop
      vertex -23.4 1 2.71
      vertex -23.4 -1 22.6
      vertex -23.4 -1 2.71
    endloop
  endfacet
  facet normal 0 -1 0
    outer loop
      vertex -23.25 1 2.71
      vertex -23.4 1 22.6
      vertex -23.4 1 2.71
    endloop
  endfacet
  facet normal 0 -1 0
    outer loop
      vertex -23.4 1 22.6
      vertex -23.25 1 2.71
      vertex -21 1 22.6
    endloop
  endfacet
  facet normal 0 -1 0
    outer loop
      vertex -21 1 2.6
      vertex -23.25 1 2.71
      vertex -23.25 1 2.6
    endloop
  endfacet
  facet normal 0 -1 0
    outer loop
      vertex -23.25 1 2.71
      vertex -21 1 2.6
      vertex -21 1 22.6
    endloop
  endfacet
  facet normal 0 1 0
    outer loop
      vertex -21 -1 22.6
      vertex -23.25 -1 2.71
      vertex -23.4 -1 22.6
    endloop
  endfacet
  facet normal 0 1 -0
    outer loop
      vertex -21 -1 2.6
      vertex -23.25 -1 2.71
      vertex -21 -1 22.6
    endloop
  endfacet
  facet normal 0 1 0
    outer loop
      vertex -23.25 -1 2.71
      vertex -21 -1 2.6
      vertex -23.25 -1 2.6
    endloop
  endfacet
  facet normal 0 1 0
    outer loop
      vertex -23.4 -1 22.6
      vertex -23.25 -1 2.71
      vertex -23.4 -1 2.71
    endloop
  endfacet
endsolid OpenSCAD_Model
