solid OpenSCAD_Model
  facet normal 0 -1 0
    outer loop
      vertex 0.0005 -97 116.003
      vertex 51.6255 -97 131.003
      vertex 0.0005 -97 131.003
    endloop
  endfacet
  facet normal 0 -1 -0
    outer loop
      vertex 51.6255 -97 131.003
      vertex 0.0005 -97 116.003
      vertex 51.6255 -97 116.003
    endloop
  endfacet
  facet normal 0 1 -0
    outer loop
      vertex 51.6255 97 116.003
      vertex 0.0005 97 131.003
      vertex 51.6255 97 131.003
    endloop
  endfacet
  facet normal 0 1 0
    outer loop
      vertex 0.0005 97 131.003
      vertex 51.6255 97 116.003
      vertex 0.0005 97 116.003
    endloop
  endfacet
  facet normal 1 -0 0
    outer loop
      vertex 51.6255 90.986 131.003
      vertex 51.6255 97 116.003
      vertex 51.6255 97 131.003
    endloop
  endfacet
  facet normal 1 0 0
    outer loop
      vertex 51.6255 97 116.003
      vertex 51.6255 90.986 131.003
      vertex 51.6255 90.986 116.003
    endloop
  endfacet
  facet normal 1 -0 0
    outer loop
      vertex 51.6255 -97 131.003
      vertex 51.6255 -90.986 116.003
      vertex 51.6255 -90.986 131.003
    endloop
  endfacet
  facet normal 1 0 0
    outer loop
      vertex 51.6255 -90.986 116.003
      vertex 51.6255 -97 131.003
      vertex 51.6255 -97 116.003
    endloop
  endfacet
  facet normal -1 0 0
    outer loop
      vertex 0.0005 -97 116.003
      vertex 0.0005 97 131.003
      vertex 0.0005 97 116.003
    endloop
  endfacet
  facet normal -1 -0 0
    outer loop
      vertex 0.0005 97 131.003
      vertex 0.0005 -97 116.003
      vertex 0.0005 -97 131.003
    endloop
  endfacet
  facet normal 0 1 -0
    outer loop
      vertex 51.6255 -90.986 116.003
      vertex 8.0005 -90.986 131.003
      vertex 51.6255 -90.986 131.003
    endloop
  endfacet
  facet normal 0 1 0
    outer loop
      vertex 8.0005 -90.986 131.003
      vertex 51.6255 -90.986 116.003
      vertex 8.0005 -90.986 116.003
    endloop
  endfacet
  facet normal 0 -1 0
    outer loop
      vertex 8.0005 90.986 116.003
      vertex 51.6255 90.986 131.003
      vertex 8.0005 90.986 131.003
    endloop
  endfacet
  facet normal 0 -1 -0
    outer loop
      vertex 51.6255 90.986 131.003
      vertex 8.0005 90.986 116.003
      vertex 51.6255 90.986 116.003
    endloop
  endfacet
  facet normal 1 -0 0
    outer loop
      vertex 8.0005 -90.986 131.003
      vertex 8.0005 90.986 116.003
      vertex 8.0005 90.986 131.003
    endloop
  endfacet
  facet normal 1 0 0
    outer loop
      vertex 8.0005 90.986 116.003
      vertex 8.0005 -90.986 131.003
      vertex 8.0005 -90.986 116.003
    endloop
  endfacet
  facet normal 0 0 1
    outer loop
      vertex 51.6255 97 131.003
      vertex 8.0005 90.986 131.003
      vertex 51.6255 90.986 131.003
    endloop
  endfacet
  facet normal 0 0 1
    outer loop
      vertex 8.0005 90.986 131.003
      vertex 0.0005 97 131.003
      vertex 8.0005 -90.986 131.003
    endloop
  endfacet
  facet normal -0 0 1
    outer loop
      vertex 0.0005 97 131.003
      vertex 8.0005 90.986 131.003
      vertex 51.6255 97 131.003
    endloop
  endfacet
  facet normal -0 0 1
    outer loop
      vertex 8.0005 -90.986 131.003
      vertex 51.6255 -97 131.003
      vertex 51.6255 -90.986 131.003
    endloop
  endfacet
  facet normal 0 0 1
    outer loop
      vertex 8.0005 -90.986 131.003
      vertex 0.0005 -97 131.003
      vertex 51.6255 -97 131.003
    endloop
  endfacet
  facet normal 0 0 1
    outer loop
      vertex 0.0005 -97 131.003
      vertex 8.0005 -90.986 131.003
      vertex 0.0005 97 131.003
    endloop
  endfacet
  facet normal 0 0 -1
    outer loop
      vertex 51.6255 -97 116.003
      vertex 8.0005 -90.986 116.003
      vertex 51.6255 -90.986 116.003
    endloop
  endfacet
  facet normal -0 0 -1
    outer loop
      vertex 8.0005 -90.986 116.003
      vertex 0.0005 -97 116.003
      vertex 8.0005 90.986 116.003
    endloop
  endfacet
  facet normal 0 0 -1
    outer loop
      vertex 0.0005 -97 116.003
      vertex 8.0005 -90.986 116.003
      vertex 51.6255 -97 116.003
    endloop
  endfacet
  facet normal 0 0 -1
    outer loop
      vertex 8.0005 90.986 116.003
      vertex 51.6255 97 116.003
      vertex 51.6255 90.986 116.003
    endloop
  endfacet
  facet normal 0 0 -1
    outer loop
      vertex 8.0005 90.986 116.003
      vertex 0.0005 97 116.003
      vertex 51.6255 97 116.003
    endloop
  endfacet
  facet normal 0 0 -1
    outer loop
      vertex 0.0005 97 116.003
      vertex 8.0005 90.986 116.003
      vertex 0.0005 -97 116.003
    endloop
  endfacet
endsolid OpenSCAD_Model
