solid OpenSCAD_Model
  facet normal 0 -0.999045 -0.0437036
    outer loop
      vertex 150 -93.5567 -32.9932
      vertex 300 -95 0
      vertex 150 -95 0
    endloop
  endfacet
  facet normal 0 -0.999045 -0.0437036
    outer loop
      vertex 300 -95 0
      vertex 150 -93.5567 -32.9932
      vertex 300 -93.5567 -32.9932
    endloop
  endfacet
  facet normal 0 0.682043 -0.731312
    outer loop
      vertex 150 32.4919 -178.542
      vertex 300 47.5 -164.545
      vertex 300 32.4919 -178.542
    endloop
  endfacet
  facet normal 0 0.682043 -0.731312
    outer loop
      vertex 300 47.5 -164.545
      vertex 150 32.4919 -178.542
      vertex 150 47.5 -164.545
    endloop
  endfacet
  facet normal 0 0.97388 -0.227064
    outer loop
      vertex 300 82.2724 -95
      vertex 150 89.2708 -64.9838
      vertex 300 89.2708 -64.9838
    endloop
  endfacet
  facet normal 0 0.97388 -0.227064
    outer loop
      vertex 150 89.2708 -64.9838
      vertex 300 82.2724 -95
      vertex 150 82.2724 -95
    endloop
  endfacet
  facet normal 0 0.894421 -0.447226
    outer loop
      vertex 300 61.0648 -145.548
      vertex 150 72.7742 -122.13
      vertex 300 72.7742 -122.13
    endloop
  endfacet
  facet normal 0 0.894421 -0.447226
    outer loop
      vertex 150 72.7742 -122.13
      vertex 300 61.0648 -145.548
      vertex 150 61.0648 -145.548
    endloop
  endfacet
  facet normal 0 0.172386 -0.98503
    outer loop
      vertex 150 0 -190
      vertex 300 16.4966 -187.113
      vertex 300 0 -190
    endloop
  endfacet
  facet normal 0 0.172386 -0.98503
    outer loop
      vertex 300 16.4966 -187.113
      vertex 150 0 -190
      vertex 150 16.4966 -187.113
    endloop
  endfacet
  facet normal 0 0.813824 -0.581111
    outer loop
      vertex 300 47.5 -164.545
      vertex 150 61.0648 -145.548
      vertex 300 61.0648 -145.548
    endloop
  endfacet
  facet normal 0 0.813824 -0.581111
    outer loop
      vertex 150 61.0648 -145.548
      vertex 300 47.5 -164.545
      vertex 150 47.5 -164.545
    endloop
  endfacet
  facet normal 0 -0.894421 -0.447226
    outer loop
      vertex 150 -61.0648 -145.548
      vertex 300 -72.7742 -122.13
      vertex 150 -72.7742 -122.13
    endloop
  endfacet
  facet normal 0 -0.894421 -0.447226
    outer loop
      vertex 300 -72.7742 -122.13
      vertex 150 -61.0648 -145.548
      vertex 300 -61.0648 -145.548
    endloop
  endfacet
  facet normal 0 0.999045 -0.0437036
    outer loop
      vertex 300 93.5567 -32.9932
      vertex 150 95 0
      vertex 300 95 0
    endloop
  endfacet
  facet normal 0 0.999045 -0.0437036
    outer loop
      vertex 150 95 0
      vertex 300 93.5567 -32.9932
      vertex 150 93.5567 -32.9932
    endloop
  endfacet
  facet normal 0 -0.943829 -0.330434
    outer loop
      vertex 150 -72.7742 -122.13
      vertex 300 -82.2724 -95
      vertex 150 -82.2724 -95
    endloop
  endfacet
  facet normal 0 -0.943829 -0.330434
    outer loop
      vertex 300 -82.2724 -95
      vertex 150 -72.7742 -122.13
      vertex 300 -72.7742 -122.13
    endloop
  endfacet
  facet normal 0 -0.172386 -0.98503
    outer loop
      vertex 150 -16.4966 -187.113
      vertex 300 0 -190
      vertex 300 -16.4966 -187.113
    endloop
  endfacet
  facet normal -0 -0.172386 -0.98503
    outer loop
      vertex 300 0 -190
      vertex 150 -16.4966 -187.113
      vertex 150 0 -190
    endloop
  endfacet
  facet normal 0 -0.682043 -0.731312
    outer loop
      vertex 150 -47.5 -164.545
      vertex 300 -32.4919 -178.542
      vertex 300 -47.5 -164.545
    endloop
  endfacet
  facet normal -0 -0.682043 -0.731312
    outer loop
      vertex 300 -32.4919 -178.542
      vertex 150 -47.5 -164.545
      vertex 150 -32.4919 -178.542
    endloop
  endfacet
  facet normal 0 -0.991145 -0.132787
    outer loop
      vertex 150 -89.2708 -64.9838
      vertex 300 -93.5567 -32.9932
      vertex 150 -93.5567 -32.9932
    endloop
  endfacet
  facet normal 0 -0.991145 -0.132787
    outer loop
      vertex 300 -93.5567 -32.9932
      vertex 150 -89.2708 -64.9838
      vertex 300 -89.2708 -64.9838
    endloop
  endfacet
  facet normal 0 0.472311 -0.881432
    outer loop
      vertex 150 16.4966 -187.113
      vertex 300 32.4919 -178.542
      vertex 300 16.4966 -187.113
    endloop
  endfacet
  facet normal 0 0.472311 -0.881432
    outer loop
      vertex 300 32.4919 -178.542
      vertex 150 16.4966 -187.113
      vertex 150 32.4919 -178.542
    endloop
  endfacet
  facet normal 0 -0.813824 -0.581111
    outer loop
      vertex 150 -47.5 -164.545
      vertex 300 -61.0648 -145.548
      vertex 150 -61.0648 -145.548
    endloop
  endfacet
  facet normal 0 -0.813824 -0.581111
    outer loop
      vertex 300 -61.0648 -145.548
      vertex 150 -47.5 -164.545
      vertex 300 -47.5 -164.545
    endloop
  endfacet
  facet normal 0 -0.472311 -0.881432
    outer loop
      vertex 150 -32.4919 -178.542
      vertex 300 -16.4966 -187.113
      vertex 300 -32.4919 -178.542
    endloop
  endfacet
  facet normal -0 -0.472311 -0.881432
    outer loop
      vertex 300 -16.4966 -187.113
      vertex 150 -32.4919 -178.542
      vertex 150 -16.4966 -187.113
    endloop
  endfacet
  facet normal 0 0.943829 -0.330434
    outer loop
      vertex 300 72.7742 -122.13
      vertex 150 82.2724 -95
      vertex 300 82.2724 -95
    endloop
  endfacet
  facet normal 0 0.943829 -0.330434
    outer loop
      vertex 150 82.2724 -95
      vertex 300 72.7742 -122.13
      vertex 150 72.7742 -122.13
    endloop
  endfacet
  facet normal 0 0.991145 -0.132787
    outer loop
      vertex 300 89.2708 -64.9838
      vertex 150 93.5567 -32.9932
      vertex 300 93.5567 -32.9932
    endloop
  endfacet
  facet normal 0 0.991145 -0.132787
    outer loop
      vertex 150 93.5567 -32.9932
      vertex 300 89.2708 -64.9838
      vertex 150 89.2708 -64.9838
    endloop
  endfacet
  facet normal 0 -0.97388 -0.227064
    outer loop
      vertex 150 -82.2724 -95
      vertex 300 -89.2708 -64.9838
      vertex 150 -89.2708 -64.9838
    endloop
  endfacet
  facet normal 0 -0.97388 -0.227064
    outer loop
      vertex 300 -89.2708 -64.9838
      vertex 150 -82.2724 -95
      vertex 300 -82.2724 -95
    endloop
  endfacet
  facet normal -0 0 1
    outer loop
      vertex 150 -89.9606 0
      vertex 300 -95 0
      vertex 300 -89.9606 0
    endloop
  endfacet
  facet normal 0 0 1
    outer loop
      vertex 300 -95 0
      vertex 150 -89.9606 0
      vertex 150 -95 0
    endloop
  endfacet
  facet normal -0 0 1
    outer loop
      vertex 150 95 0
      vertex 300 89.9606 0
      vertex 300 95 0
    endloop
  endfacet
  facet normal 0 0 1
    outer loop
      vertex 300 89.9606 0
      vertex 150 95 0
      vertex 150 89.9606 0
    endloop
  endfacet
  facet normal 0 0.999045 0.0437027
    outer loop
      vertex 300 -88.5982 -31.1445
      vertex 150 -89.9606 0
      vertex 300 -89.9606 0
    endloop
  endfacet
  facet normal 0 0.999045 0.0437027
    outer loop
      vertex 150 -89.9606 0
      vertex 300 -88.5982 -31.1445
      vertex 150 -88.5982 -31.1445
    endloop
  endfacet
  facet normal 0 -0.682038 0.731317
    outer loop
      vertex 150 44.9825 -155.724
      vertex 300 30.7698 -168.979
      vertex 300 44.9825 -155.724
    endloop
  endfacet
  facet normal 0 -0.682038 0.731317
    outer loop
      vertex 300 30.7698 -168.979
      vertex 150 44.9825 -155.724
      vertex 150 30.7698 -168.979
    endloop
  endfacet
  facet normal 0 -0.97388 0.227062
    outer loop
      vertex 150 77.912 -89.865
      vertex 300 84.5394 -61.4397
      vertex 150 84.5394 -61.4397
    endloop
  endfacet
  facet normal 0 -0.97388 0.227062
    outer loop
      vertex 300 84.5394 -61.4397
      vertex 150 77.912 -89.865
      vertex 300 77.912 -89.865
    endloop
  endfacet
  facet normal 0 -0.894422 0.447223
    outer loop
      vertex 150 57.8284 -137.734
      vertex 300 68.9172 -115.557
      vertex 150 68.9172 -115.557
    endloop
  endfacet
  facet normal 0 -0.894422 0.447223
    outer loop
      vertex 300 68.9172 -115.557
      vertex 150 57.8284 -137.734
      vertex 300 57.8284 -137.734
    endloop
  endfacet
  facet normal 0 -0.172386 0.985029
    outer loop
      vertex 150 15.6223 -177.096
      vertex 300 0 -179.83
      vertex 300 15.6223 -177.096
    endloop
  endfacet
  facet normal 0 -0.172386 0.985029
    outer loop
      vertex 300 0 -179.83
      vertex 150 15.6223 -177.096
      vertex 150 0 -179.83
    endloop
  endfacet
  facet normal 0 -0.813821 0.581115
    outer loop
      vertex 150 44.9825 -155.724
      vertex 300 57.8284 -137.734
      vertex 150 57.8284 -137.734
    endloop
  endfacet
  facet normal 0 -0.813821 0.581115
    outer loop
      vertex 300 57.8284 -137.734
      vertex 150 44.9825 -155.724
      vertex 300 44.9825 -155.724
    endloop
  endfacet
  facet normal 0 0.894422 0.447223
    outer loop
      vertex 300 -57.8284 -137.734
      vertex 150 -68.9172 -115.557
      vertex 300 -68.9172 -115.557
    endloop
  endfacet
  facet normal 0 0.894422 0.447223
    outer loop
      vertex 150 -68.9172 -115.557
      vertex 300 -57.8284 -137.734
      vertex 150 -57.8284 -137.734
    endloop
  endfacet
  facet normal 0 -0.999045 0.0437027
    outer loop
      vertex 150 88.5982 -31.1445
      vertex 300 89.9606 0
      vertex 150 89.9606 0
    endloop
  endfacet
  facet normal 0 -0.999045 0.0437027
    outer loop
      vertex 300 89.9606 0
      vertex 150 88.5982 -31.1445
      vertex 300 88.5982 -31.1445
    endloop
  endfacet
  facet normal 0 0.943829 0.330436
    outer loop
      vertex 300 -68.9172 -115.557
      vertex 150 -77.912 -89.865
      vertex 300 -77.912 -89.865
    endloop
  endfacet
  facet normal 0 0.943829 0.330436
    outer loop
      vertex 150 -77.912 -89.865
      vertex 300 -68.9172 -115.557
      vertex 150 -68.9172 -115.557
    endloop
  endfacet
  facet normal -0 0.172386 0.985029
    outer loop
      vertex 150 0 -179.83
      vertex 300 -15.6223 -177.096
      vertex 300 0 -179.83
    endloop
  endfacet
  facet normal 0 0.172386 0.985029
    outer loop
      vertex 300 -15.6223 -177.096
      vertex 150 0 -179.83
      vertex 150 -15.6223 -177.096
    endloop
  endfacet
  facet normal -0 0.682038 0.731317
    outer loop
      vertex 150 -30.7698 -168.979
      vertex 300 -44.9825 -155.724
      vertex 300 -30.7698 -168.979
    endloop
  endfacet
  facet normal 0 0.682038 0.731317
    outer loop
      vertex 300 -44.9825 -155.724
      vertex 150 -30.7698 -168.979
      vertex 150 -44.9825 -155.724
    endloop
  endfacet
  facet normal 0 0.991144 0.132789
    outer loop
      vertex 300 -84.5394 -61.4397
      vertex 150 -88.5982 -31.1445
      vertex 300 -88.5982 -31.1445
    endloop
  endfacet
  facet normal 0 0.991144 0.132789
    outer loop
      vertex 150 -88.5982 -31.1445
      vertex 300 -84.5394 -61.4397
      vertex 150 -84.5394 -61.4397
    endloop
  endfacet
  facet normal 0 -0.472324 0.881425
    outer loop
      vertex 150 30.7698 -168.979
      vertex 300 15.6223 -177.096
      vertex 300 30.7698 -168.979
    endloop
  endfacet
  facet normal 0 -0.472324 0.881425
    outer loop
      vertex 300 15.6223 -177.096
      vertex 150 30.7698 -168.979
      vertex 150 15.6223 -177.096
    endloop
  endfacet
  facet normal 0 0.813821 0.581115
    outer loop
      vertex 300 -44.9825 -155.724
      vertex 150 -57.8284 -137.734
      vertex 300 -57.8284 -137.734
    endloop
  endfacet
  facet normal 0 0.813821 0.581115
    outer loop
      vertex 150 -57.8284 -137.734
      vertex 300 -44.9825 -155.724
      vertex 150 -44.9825 -155.724
    endloop
  endfacet
  facet normal -0 0.472324 0.881425
    outer loop
      vertex 150 -15.6223 -177.096
      vertex 300 -30.7698 -168.979
      vertex 300 -15.6223 -177.096
    endloop
  endfacet
  facet normal 0 0.472324 0.881425
    outer loop
      vertex 300 -30.7698 -168.979
      vertex 150 -15.6223 -177.096
      vertex 150 -30.7698 -168.979
    endloop
  endfacet
  facet normal 0 -0.943829 0.330436
    outer loop
      vertex 150 68.9172 -115.557
      vertex 300 77.912 -89.865
      vertex 150 77.912 -89.865
    endloop
  endfacet
  facet normal 0 -0.943829 0.330436
    outer loop
      vertex 300 77.912 -89.865
      vertex 150 68.9172 -115.557
      vertex 300 68.9172 -115.557
    endloop
  endfacet
  facet normal 0 -0.991144 0.132789
    outer loop
      vertex 150 84.5394 -61.4397
      vertex 300 88.5982 -31.1445
      vertex 150 88.5982 -31.1445
    endloop
  endfacet
  facet normal 0 -0.991144 0.132789
    outer loop
      vertex 300 88.5982 -31.1445
      vertex 150 84.5394 -61.4397
      vertex 300 84.5394 -61.4397
    endloop
  endfacet
  facet normal 0 0.97388 0.227062
    outer loop
      vertex 300 -77.912 -89.865
      vertex 150 -84.5394 -61.4397
      vertex 300 -84.5394 -61.4397
    endloop
  endfacet
  facet normal 0 0.97388 0.227062
    outer loop
      vertex 150 -84.5394 -61.4397
      vertex 300 -77.912 -89.865
      vertex 150 -77.912 -89.865
    endloop
  endfacet
  facet normal 1 0 0
    outer loop
      vertex 300 88.5982 -31.1445
      vertex 300 95 0
      vertex 300 89.9606 0
    endloop
  endfacet
  facet normal 1 0 0
    outer loop
      vertex 300 95 0
      vertex 300 88.5982 -31.1445
      vertex 300 93.5567 -32.9932
    endloop
  endfacet
  facet normal 1 0 0
    outer loop
      vertex 300 84.5394 -61.4397
      vertex 300 93.5567 -32.9932
      vertex 300 88.5982 -31.1445
    endloop
  endfacet
  facet normal 1 0 0
    outer loop
      vertex 300 93.5567 -32.9932
      vertex 300 84.5394 -61.4397
      vertex 300 89.2708 -64.9838
    endloop
  endfacet
  facet normal 1 0 0
    outer loop
      vertex 300 77.912 -89.865
      vertex 300 89.2708 -64.9838
      vertex 300 84.5394 -61.4397
    endloop
  endfacet
  facet normal 1 0 0
    outer loop
      vertex 300 89.2708 -64.9838
      vertex 300 77.912 -89.865
      vertex 300 82.2724 -95
    endloop
  endfacet
  facet normal 1 0 0
    outer loop
      vertex 300 68.9172 -115.557
      vertex 300 82.2724 -95
      vertex 300 77.912 -89.865
    endloop
  endfacet
  facet normal 1 0 0
    outer loop
      vertex 300 82.2724 -95
      vertex 300 68.9172 -115.557
      vertex 300 72.7742 -122.13
    endloop
  endfacet
  facet normal 1 0 0
    outer loop
      vertex 300 57.8284 -137.734
      vertex 300 72.7742 -122.13
      vertex 300 68.9172 -115.557
    endloop
  endfacet
  facet normal 1 0 0
    outer loop
      vertex 300 72.7742 -122.13
      vertex 300 57.8284 -137.734
      vertex 300 61.0648 -145.548
    endloop
  endfacet
  facet normal 1 0 0
    outer loop
      vertex 300 44.9825 -155.724
      vertex 300 61.0648 -145.548
      vertex 300 57.8284 -137.734
    endloop
  endfacet
  facet normal 1 0 0
    outer loop
      vertex 300 61.0648 -145.548
      vertex 300 44.9825 -155.724
      vertex 300 47.5 -164.545
    endloop
  endfacet
  facet normal 1 0 0
    outer loop
      vertex 300 30.7698 -168.979
      vertex 300 47.5 -164.545
      vertex 300 44.9825 -155.724
    endloop
  endfacet
  facet normal 1 0 0
    outer loop
      vertex 300 47.5 -164.545
      vertex 300 30.7698 -168.979
      vertex 300 32.4919 -178.542
    endloop
  endfacet
  facet normal 1 -0 0
    outer loop
      vertex 300 15.6223 -177.096
      vertex 300 32.4919 -178.542
      vertex 300 30.7698 -168.979
    endloop
  endfacet
  facet normal 1 0 0
    outer loop
      vertex 300 32.4919 -178.542
      vertex 300 15.6223 -177.096
      vertex 300 16.4966 -187.113
    endloop
  endfacet
  facet normal 1 -0 0
    outer loop
      vertex 300 0 -179.83
      vertex 300 16.4966 -187.113
      vertex 300 15.6223 -177.096
    endloop
  endfacet
  facet normal 1 0 0
    outer loop
      vertex 300 0 -179.83
      vertex 300 0 -190
      vertex 300 16.4966 -187.113
    endloop
  endfacet
  facet normal 1 0 0
    outer loop
      vertex 300 -16.4966 -187.113
      vertex 300 0 -179.83
      vertex 300 -15.6223 -177.096
    endloop
  endfacet
  facet normal 1 0 0
    outer loop
      vertex 300 0 -179.83
      vertex 300 -16.4966 -187.113
      vertex 300 0 -190
    endloop
  endfacet
  facet normal 1 0 0
    outer loop
      vertex 300 -32.4919 -178.542
      vertex 300 -15.6223 -177.096
      vertex 300 -30.7698 -168.979
    endloop
  endfacet
  facet normal 1 0 0
    outer loop
      vertex 300 -15.6223 -177.096
      vertex 300 -32.4919 -178.542
      vertex 300 -16.4966 -187.113
    endloop
  endfacet
  facet normal 1 -0 0
    outer loop
      vertex 300 -47.5 -164.545
      vertex 300 -30.7698 -168.979
      vertex 300 -44.9825 -155.724
    endloop
  endfacet
  facet normal 1 0 0
    outer loop
      vertex 300 -30.7698 -168.979
      vertex 300 -47.5 -164.545
      vertex 300 -32.4919 -178.542
    endloop
  endfacet
  facet normal 1 -0 0
    outer loop
      vertex 300 -61.0648 -145.548
      vertex 300 -44.9825 -155.724
      vertex 300 -57.8284 -137.734
    endloop
  endfacet
  facet normal 1 0 0
    outer loop
      vertex 300 -44.9825 -155.724
      vertex 300 -61.0648 -145.548
      vertex 300 -47.5 -164.545
    endloop
  endfacet
  facet normal 1 -0 0
    outer loop
      vertex 300 -72.7742 -122.13
      vertex 300 -57.8284 -137.734
      vertex 300 -68.9172 -115.557
    endloop
  endfacet
  facet normal 1 0 0
    outer loop
      vertex 300 -57.8284 -137.734
      vertex 300 -72.7742 -122.13
      vertex 300 -61.0648 -145.548
    endloop
  endfacet
  facet normal 1 -0 0
    outer loop
      vertex 300 -82.2724 -95
      vertex 300 -68.9172 -115.557
      vertex 300 -77.912 -89.865
    endloop
  endfacet
  facet normal 1 0 0
    outer loop
      vertex 300 -68.9172 -115.557
      vertex 300 -82.2724 -95
      vertex 300 -72.7742 -122.13
    endloop
  endfacet
  facet normal 1 -0 0
    outer loop
      vertex 300 -89.2708 -64.9838
      vertex 300 -77.912 -89.865
      vertex 300 -84.5394 -61.4397
    endloop
  endfacet
  facet normal 1 -0 0
    outer loop
      vertex 300 -93.5567 -32.9932
      vertex 300 -84.5394 -61.4397
      vertex 300 -88.5982 -31.1445
    endloop
  endfacet
  facet normal 1 0 0
    outer loop
      vertex 300 -77.912 -89.865
      vertex 300 -89.2708 -64.9838
      vertex 300 -82.2724 -95
    endloop
  endfacet
  facet normal 1 -0 0
    outer loop
      vertex 300 -95 0
      vertex 300 -88.5982 -31.1445
      vertex 300 -89.9606 0
    endloop
  endfacet
  facet normal 1 0 0
    outer loop
      vertex 300 -84.5394 -61.4397
      vertex 300 -93.5567 -32.9932
      vertex 300 -89.2708 -64.9838
    endloop
  endfacet
  facet normal 1 0 0
    outer loop
      vertex 300 -88.5982 -31.1445
      vertex 300 -95 0
      vertex 300 -93.5567 -32.9932
    endloop
  endfacet
  facet normal -1 0 0
    outer loop
      vertex 150 88.5982 -31.1445
      vertex 150 95 0
      vertex 150 93.5567 -32.9932
    endloop
  endfacet
  facet normal -1 0 0
    outer loop
      vertex 150 84.5394 -61.4397
      vertex 150 93.5567 -32.9932
      vertex 150 89.2708 -64.9838
    endloop
  endfacet
  facet normal -1 -0 0
    outer loop
      vertex 150 95 0
      vertex 150 88.5982 -31.1445
      vertex 150 89.9606 0
    endloop
  endfacet
  facet normal -1 -0 0
    outer loop
      vertex 150 93.5567 -32.9932
      vertex 150 84.5394 -61.4397
      vertex 150 88.5982 -31.1445
    endloop
  endfacet
  facet normal -1 0 0
    outer loop
      vertex 150 77.912 -89.865
      vertex 150 89.2708 -64.9838
      vertex 150 82.2724 -95
    endloop
  endfacet
  facet normal -1 -0 0
    outer loop
      vertex 150 89.2708 -64.9838
      vertex 150 77.912 -89.865
      vertex 150 84.5394 -61.4397
    endloop
  endfacet
  facet normal -1 0 0
    outer loop
      vertex 150 68.9172 -115.557
      vertex 150 82.2724 -95
      vertex 150 72.7742 -122.13
    endloop
  endfacet
  facet normal -1 -0 0
    outer loop
      vertex 150 82.2724 -95
      vertex 150 68.9172 -115.557
      vertex 150 77.912 -89.865
    endloop
  endfacet
  facet normal -1 0 0
    outer loop
      vertex 150 57.8284 -137.734
      vertex 150 72.7742 -122.13
      vertex 150 61.0648 -145.548
    endloop
  endfacet
  facet normal -1 -0 0
    outer loop
      vertex 150 72.7742 -122.13
      vertex 150 57.8284 -137.734
      vertex 150 68.9172 -115.557
    endloop
  endfacet
  facet normal -1 0 0
    outer loop
      vertex 150 44.9825 -155.724
      vertex 150 61.0648 -145.548
      vertex 150 47.5 -164.545
    endloop
  endfacet
  facet normal -1 -0 0
    outer loop
      vertex 150 61.0648 -145.548
      vertex 150 44.9825 -155.724
      vertex 150 57.8284 -137.734
    endloop
  endfacet
  facet normal -1 0 0
    outer loop
      vertex 150 30.7698 -168.979
      vertex 150 47.5 -164.545
      vertex 150 32.4919 -178.542
    endloop
  endfacet
  facet normal -1 -0 0
    outer loop
      vertex 150 47.5 -164.545
      vertex 150 30.7698 -168.979
      vertex 150 44.9825 -155.724
    endloop
  endfacet
  facet normal -1 0 0
    outer loop
      vertex 150 15.6223 -177.096
      vertex 150 32.4919 -178.542
      vertex 150 16.4966 -187.113
    endloop
  endfacet
  facet normal -1 0 0
    outer loop
      vertex 150 32.4919 -178.542
      vertex 150 15.6223 -177.096
      vertex 150 30.7698 -168.979
    endloop
  endfacet
  facet normal -1 0 0
    outer loop
      vertex 150 0 -179.83
      vertex 150 16.4966 -187.113
      vertex 150 0 -190
    endloop
  endfacet
  facet normal -1 0 0
    outer loop
      vertex 150 16.4966 -187.113
      vertex 150 0 -179.83
      vertex 150 15.6223 -177.096
    endloop
  endfacet
  facet normal -1 0 0
    outer loop
      vertex 150 -16.4966 -187.113
      vertex 150 0 -179.83
      vertex 150 0 -190
    endloop
  endfacet
  facet normal -1 -0 0
    outer loop
      vertex 150 0 -179.83
      vertex 150 -16.4966 -187.113
      vertex 150 -15.6223 -177.096
    endloop
  endfacet
  facet normal -1 0 0
    outer loop
      vertex 150 -32.4919 -178.542
      vertex 150 -15.6223 -177.096
      vertex 150 -16.4966 -187.113
    endloop
  endfacet
  facet normal -1 -0 0
    outer loop
      vertex 150 -15.6223 -177.096
      vertex 150 -32.4919 -178.542
      vertex 150 -30.7698 -168.979
    endloop
  endfacet
  facet normal -1 0 0
    outer loop
      vertex 150 -47.5 -164.545
      vertex 150 -30.7698 -168.979
      vertex 150 -32.4919 -178.542
    endloop
  endfacet
  facet normal -1 0 0
    outer loop
      vertex 150 -30.7698 -168.979
      vertex 150 -47.5 -164.545
      vertex 150 -44.9825 -155.724
    endloop
  endfacet
  facet normal -1 0 0
    outer loop
      vertex 150 -61.0648 -145.548
      vertex 150 -44.9825 -155.724
      vertex 150 -47.5 -164.545
    endloop
  endfacet
  facet normal -1 0 0
    outer loop
      vertex 150 -44.9825 -155.724
      vertex 150 -61.0648 -145.548
      vertex 150 -57.8284 -137.734
    endloop
  endfacet
  facet normal -1 0 0
    outer loop
      vertex 150 -72.7742 -122.13
      vertex 150 -57.8284 -137.734
      vertex 150 -61.0648 -145.548
    endloop
  endfacet
  facet normal -1 0 0
    outer loop
      vertex 150 -57.8284 -137.734
      vertex 150 -72.7742 -122.13
      vertex 150 -68.9172 -115.557
    endloop
  endfacet
  facet normal -1 0 0
    outer loop
      vertex 150 -82.2724 -95
      vertex 150 -68.9172 -115.557
      vertex 150 -72.7742 -122.13
    endloop
  endfacet
  facet normal -1 0 0
    outer loop
      vertex 150 -68.9172 -115.557
      vertex 150 -82.2724 -95
      vertex 150 -77.912 -89.865
    endloop
  endfacet
  facet normal -1 0 0
    outer loop
      vertex 150 -89.2708 -64.9838
      vertex 150 -77.912 -89.865
      vertex 150 -82.2724 -95
    endloop
  endfacet
  facet normal -1 0 0
    outer loop
      vertex 150 -77.912 -89.865
      vertex 150 -89.2708 -64.9838
      vertex 150 -84.5394 -61.4397
    endloop
  endfacet
  facet normal -1 0 0
    outer loop
      vertex 150 -93.5567 -32.9932
      vertex 150 -84.5394 -61.4397
      vertex 150 -89.2708 -64.9838
    endloop
  endfacet
  facet normal -1 0 0
    outer loop
      vertex 150 -84.5394 -61.4397
      vertex 150 -93.5567 -32.9932
      vertex 150 -88.5982 -31.1445
    endloop
  endfacet
  facet normal -1 0 0
    outer loop
      vertex 150 -95 0
      vertex 150 -88.5982 -31.1445
      vertex 150 -93.5567 -32.9932
    endloop
  endfacet
  facet normal -1 0 0
    outer loop
      vertex 150 -88.5982 -31.1445
      vertex 150 -95 0
      vertex 150 -89.9606 0
    endloop
  endfacet
endsolid OpenSCAD_Model
