solid OpenSCAD_Model
  facet normal -1 0 0
    outer loop
      vertex 339.375 18.8016 -155.535
      vertex 339.375 4.92404 -143.368
      vertex 339.375 5 -142.5
    endloop
  endfacet
  facet normal -1 0 0
    outer loop
      vertex 339.375 18.8016 -155.535
      vertex 339.375 4.69846 -144.21
      vertex 339.375 4.92404 -143.368
    endloop
  endfacet
  facet normal -1 0 0
    outer loop
      vertex 339.375 15.6234 -157.062
      vertex 339.375 4.33013 -145
      vertex 339.375 4.69846 -144.21
    endloop
  endfacet
  facet normal -1 0 0
    outer loop
      vertex 339.375 15.6234 -157.062
      vertex 339.375 3.83022 -145.714
      vertex 339.375 4.33013 -145
    endloop
  endfacet
  facet normal -1 0 0
    outer loop
      vertex 339.375 3.21394 -146.33
      vertex 339.375 15.6234 -157.062
      vertex 339.375 3.27782 -158.972
    endloop
  endfacet
  facet normal -1 0 0
    outer loop
      vertex 339.375 15.6234 -157.062
      vertex 339.375 3.21394 -146.33
      vertex 339.375 3.83022 -145.714
    endloop
  endfacet
  facet normal -1 0 0
    outer loop
      vertex 339.375 3.27782 -158.972
      vertex 339.375 2.5 -146.83
      vertex 339.375 3.21394 -146.33
    endloop
  endfacet
  facet normal -1 0 0
    outer loop
      vertex 339.375 3.27782 -158.972
      vertex 339.375 1.7101 -147.198
      vertex 339.375 2.5 -146.83
    endloop
  endfacet
  facet normal -1 0 0
    outer loop
      vertex 339.375 3.27782 -158.972
      vertex 339.375 0.86824 -147.424
      vertex 339.375 1.7101 -147.198
    endloop
  endfacet
  facet normal -1 0 0
    outer loop
      vertex 339.375 0 -147.5
      vertex 339.375 3.27782 -158.972
      vertex 339.375 0 -159.487
    endloop
  endfacet
  facet normal -1 0 0
    outer loop
      vertex 339.375 3.27782 -158.972
      vertex 339.375 0 -147.5
      vertex 339.375 0.86824 -147.424
    endloop
  endfacet
  facet normal -1 0 0
    outer loop
      vertex 339.375 -3.27782 -158.972
      vertex 339.375 0 -147.5
      vertex 339.375 0 -159.487
    endloop
  endfacet
  facet normal -1 -0 0
    outer loop
      vertex 339.375 0 -147.5
      vertex 339.375 -3.27782 -158.972
      vertex 339.375 -0.86824 -147.424
    endloop
  endfacet
  facet normal -1 -0 0
    outer loop
      vertex 339.375 -0.86824 -147.424
      vertex 339.375 -3.27782 -158.972
      vertex 339.375 -1.7101 -147.198
    endloop
  endfacet
  facet normal -1 -0 0
    outer loop
      vertex 339.375 -1.7101 -147.198
      vertex 339.375 -3.27782 -158.972
      vertex 339.375 -2.5 -146.83
    endloop
  endfacet
  facet normal -1 -0 0
    outer loop
      vertex 339.375 -2.5 -146.83
      vertex 339.375 -3.27782 -158.972
      vertex 339.375 -3.21394 -146.33
    endloop
  endfacet
  facet normal -1 0 0
    outer loop
      vertex 339.375 -15.6234 -157.062
      vertex 339.375 -3.21394 -146.33
      vertex 339.375 -3.27782 -158.972
    endloop
  endfacet
  facet normal -1 -0 0
    outer loop
      vertex 339.375 -3.21394 -146.33
      vertex 339.375 -15.6234 -157.062
      vertex 339.375 -3.83022 -145.714
    endloop
  endfacet
  facet normal -1 -0 0
    outer loop
      vertex 339.375 -3.83022 -145.714
      vertex 339.375 -15.6234 -157.062
      vertex 339.375 -4.33013 -145
    endloop
  endfacet
  facet normal -1 -0 0
    outer loop
      vertex 339.375 -4.33013 -145
      vertex 339.375 -15.6234 -157.062
      vertex 339.375 -4.69846 -144.21
    endloop
  endfacet
  facet normal -1 -0 0
    outer loop
      vertex 339.375 -4.69846 -144.21
      vertex 339.375 -18.8016 -155.535
      vertex 339.375 -4.92404 -143.368
    endloop
  endfacet
  facet normal -1 0 0
    outer loop
      vertex 339.375 -18.8016 -155.535
      vertex 339.375 -4.69846 -144.21
      vertex 339.375 -15.6234 -157.062
    endloop
  endfacet
  facet normal -1 0 0
    outer loop
      vertex 339.375 3.83022 -139.286
      vertex 339.375 44.9856 -138.106
      vertex 339.375 33.7541 -147.369
    endloop
  endfacet
  facet normal -1 -0 0
    outer loop
      vertex 339.375 44.9856 -138.106
      vertex 339.375 3.83022 -139.286
      vertex 339.375 47.6809 -134.722
    endloop
  endfacet
  facet normal -1 0 0
    outer loop
      vertex 339.375 4.69846 -140.79
      vertex 339.375 33.7541 -147.369
      vertex 339.375 30.772 -149.862
    endloop
  endfacet
  facet normal -1 0 0
    outer loop
      vertex 339.375 5 -142.5
      vertex 339.375 30.772 -149.862
      vertex 339.375 18.8016 -155.535
    endloop
  endfacet
  facet normal -1 0 0
    outer loop
      vertex 339.375 4.69846 -144.21
      vertex 339.375 18.8016 -155.535
      vertex 339.375 15.6234 -157.062
    endloop
  endfacet
  facet normal -1 0 0
    outer loop
      vertex 339.375 30.772 -149.862
      vertex 339.375 5 -142.5
      vertex 339.375 4.92404 -141.632
    endloop
  endfacet
  facet normal -1 0 0
    outer loop
      vertex 339.375 30.772 -149.862
      vertex 339.375 4.92404 -141.632
      vertex 339.375 4.69846 -140.79
    endloop
  endfacet
  facet normal -1 0 0
    outer loop
      vertex 339.375 33.7541 -147.369
      vertex 339.375 4.69846 -140.79
      vertex 339.375 4.33013 -140
    endloop
  endfacet
  facet normal -1 0 0
    outer loop
      vertex 339.375 33.7541 -147.369
      vertex 339.375 4.33013 -140
      vertex 339.375 3.83022 -139.286
    endloop
  endfacet
  facet normal -1 0 0
    outer loop
      vertex 339.375 3.21394 -138.67
      vertex 339.375 47.6809 -134.722
      vertex 339.375 3.83022 -139.286
    endloop
  endfacet
  facet normal -1 0 0
    outer loop
      vertex 339.375 2.5 -138.17
      vertex 339.375 47.6809 -134.722
      vertex 339.375 3.21394 -138.67
    endloop
  endfacet
  facet normal -1 -0 0
    outer loop
      vertex 339.375 47.6809 -134.722
      vertex 339.375 2.5 -138.17
      vertex 339.375 56.7426 -123.5
    endloop
  endfacet
  facet normal -1 0 0
    outer loop
      vertex 339.375 1.7101 -137.802
      vertex 339.375 56.7426 -123.5
      vertex 339.375 2.5 -138.17
    endloop
  endfacet
  facet normal -1 0 0
    outer loop
      vertex 339.375 0.86824 -137.576
      vertex 339.375 56.7426 -123.5
      vertex 339.375 1.7101 -137.802
    endloop
  endfacet
  facet normal -1 0 0
    outer loop
      vertex 339.375 0 -137.5
      vertex 339.375 56.7426 -123.5
      vertex 339.375 0.86824 -137.576
    endloop
  endfacet
  facet normal -1 0 0
    outer loop
      vertex 339.375 -56.7426 -123.5
      vertex 339.375 0 -137.5
      vertex 339.375 -0.86824 -137.576
    endloop
  endfacet
  facet normal -1 -0 0
    outer loop
      vertex 339.375 -4.92404 -143.368
      vertex 339.375 -18.8016 -155.535
      vertex 339.375 -5 -142.5
    endloop
  endfacet
  facet normal -1 0 0
    outer loop
      vertex 339.375 -30.772 -149.862
      vertex 339.375 -5 -142.5
      vertex 339.375 -18.8016 -155.535
    endloop
  endfacet
  facet normal -1 -0 0
    outer loop
      vertex 339.375 -5 -142.5
      vertex 339.375 -30.772 -149.862
      vertex 339.375 -4.92404 -141.632
    endloop
  endfacet
  facet normal -1 -0 0
    outer loop
      vertex 339.375 -4.92404 -141.632
      vertex 339.375 -30.772 -149.862
      vertex 339.375 -4.69846 -140.79
    endloop
  endfacet
  facet normal -1 0 0
    outer loop
      vertex 339.375 -33.7541 -147.369
      vertex 339.375 -4.69846 -140.79
      vertex 339.375 -30.772 -149.862
    endloop
  endfacet
  facet normal -1 -0 0
    outer loop
      vertex 339.375 -4.69846 -140.79
      vertex 339.375 -33.7541 -147.369
      vertex 339.375 -4.33013 -140
    endloop
  endfacet
  facet normal -1 -0 0
    outer loop
      vertex 339.375 -4.33013 -140
      vertex 339.375 -33.7541 -147.369
      vertex 339.375 -3.83022 -139.286
    endloop
  endfacet
  facet normal -1 0 0
    outer loop
      vertex 339.375 -44.9856 -138.106
      vertex 339.375 -3.83022 -139.286
      vertex 339.375 -33.7541 -147.369
    endloop
  endfacet
  facet normal -1 0 0
    outer loop
      vertex 339.375 -3.83022 -139.286
      vertex 339.375 -44.9856 -138.106
      vertex 339.375 -3.21394 -138.67
    endloop
  endfacet
  facet normal -1 0 0
    outer loop
      vertex 339.375 -47.6809 -134.722
      vertex 339.375 -3.21394 -138.67
      vertex 339.375 -44.9856 -138.106
    endloop
  endfacet
  facet normal -1 0 0
    outer loop
      vertex 339.375 -3.21394 -138.67
      vertex 339.375 -47.6809 -134.722
      vertex 339.375 -2.5 -138.17
    endloop
  endfacet
  facet normal -1 0 0
    outer loop
      vertex 339.375 -56.7426 -123.5
      vertex 339.375 -2.5 -138.17
      vertex 339.375 -47.6809 -134.722
    endloop
  endfacet
  facet normal -1 0 0
    outer loop
      vertex 339.375 -2.5 -138.17
      vertex 339.375 -56.7426 -123.5
      vertex 339.375 -1.7101 -137.802
    endloop
  endfacet
  facet normal -1 0 0
    outer loop
      vertex 339.375 -1.7101 -137.802
      vertex 339.375 -56.7426 -123.5
      vertex 339.375 -0.86824 -137.576
    endloop
  endfacet
  facet normal -1 0 0
    outer loop
      vertex 339.375 0 -137.5
      vertex 339.375 -56.7426 -123.5
      vertex 339.375 56.7426 -123.5
    endloop
  endfacet
  facet normal 0 0 1
    outer loop
      vertex 391.651 2.55703 -123.5
      vertex 391.651 -2.55703 -123.5
      vertex 392.102 0 -123.5
    endloop
  endfacet
  facet normal 0 0 1
    outer loop
      vertex 388.426 17.203 -123.5
      vertex 391.651 2.55703 -123.5
      vertex 389.308 15.6234 -123.5
    endloop
  endfacet
  facet normal 0 0 1
    outer loop
      vertex 387.897 18.1052 -123.5
      vertex 391.651 2.55703 -123.5
      vertex 388.426 17.203 -123.5
    endloop
  endfacet
  facet normal 0 0 1
    outer loop
      vertex 385.201 22.8483 -123.5
      vertex 391.651 2.55703 -123.5
      vertex 387.897 18.1052 -123.5
    endloop
  endfacet
  facet normal 0 0 1
    outer loop
      vertex 391.651 -2.55703 -123.5
      vertex 388.426 -17.203 -123.5
      vertex 389.308 -15.6234 -123.5
    endloop
  endfacet
  facet normal 0 0 1
    outer loop
      vertex 391.651 2.55703 -123.5
      vertex 385.201 22.8483 -123.5
      vertex 391.651 -2.55703 -123.5
    endloop
  endfacet
  facet normal 0 0 1
    outer loop
      vertex 391.651 -2.55703 -123.5
      vertex 387.897 -18.1052 -123.5
      vertex 388.426 -17.203 -123.5
    endloop
  endfacet
  facet normal 0 0 1
    outer loop
      vertex 385.201 -22.8483 -123.5
      vertex 391.651 -2.55703 -123.5
      vertex 385.201 22.8483 -123.5
    endloop
  endfacet
  facet normal 0 0 1
    outer loop
      vertex 391.651 -2.55703 -123.5
      vertex 385.201 -22.8483 -123.5
      vertex 387.897 -18.1052 -123.5
    endloop
  endfacet
  facet normal 0 0 1
    outer loop
      vertex 374.25 36.3938 -123.5
      vertex 385.201 22.8483 -123.5
      vertex 382.808 26.8649 -123.5
    endloop
  endfacet
  facet normal 0 0 1
    outer loop
      vertex 385.201 22.8483 -123.5
      vertex 374.25 36.3938 -123.5
      vertex 385.201 -22.8483 -123.5
    endloop
  endfacet
  facet normal 0 0 1
    outer loop
      vertex 378.297 32.7743 -123.5
      vertex 382.808 26.8649 -123.5
      vertex 381.976 28.3032 -123.5
    endloop
  endfacet
  facet normal 0 0 1
    outer loop
      vertex 374.25 36.3938 -123.5
      vertex 382.808 26.8649 -123.5
      vertex 375.526 35.3156 -123.5
    endloop
  endfacet
  facet normal 0 0 1
    outer loop
      vertex 378.751 32.3839 -123.5
      vertex 381.976 28.3032 -123.5
      vertex 380.48 30.772 -123.5
    endloop
  endfacet
  facet normal 0 0 1
    outer loop
      vertex 378.297 32.7743 -123.5
      vertex 381.976 28.3032 -123.5
      vertex 378.751 32.3839 -123.5
    endloop
  endfacet
  facet normal 0 0 1
    outer loop
      vertex 382.808 26.8649 -123.5
      vertex 378.297 32.7743 -123.5
      vertex 375.526 35.3156 -123.5
    endloop
  endfacet
  facet normal 0 0 1
    outer loop
      vertex 381.976 -28.3032 -123.5
      vertex 378.751 -32.3839 -123.5
      vertex 380.48 -30.772 -123.5
    endloop
  endfacet
  facet normal 0 0 1
    outer loop
      vertex 374.25 -36.3938 -123.5
      vertex 385.201 -22.8483 -123.5
      vertex 374.25 36.3938 -123.5
    endloop
  endfacet
  facet normal 0 0 1
    outer loop
      vertex 381.976 -28.3032 -123.5
      vertex 378.297 -32.7743 -123.5
      vertex 378.751 -32.3839 -123.5
    endloop
  endfacet
  facet normal 0 -0 1
    outer loop
      vertex 378.297 -32.7743 -123.5
      vertex 382.808 -26.8649 -123.5
      vertex 375.526 -35.3156 -123.5
    endloop
  endfacet
  facet normal 0 0 1
    outer loop
      vertex 382.808 -26.8649 -123.5
      vertex 378.297 -32.7743 -123.5
      vertex 381.976 -28.3032 -123.5
    endloop
  endfacet
  facet normal 0 0 1
    outer loop
      vertex 385.201 -22.8483 -123.5
      vertex 374.25 -36.3938 -123.5
      vertex 382.808 -26.8649 -123.5
    endloop
  endfacet
  facet normal 0 0 1
    outer loop
      vertex 382.808 -26.8649 -123.5
      vertex 374.25 -36.3938 -123.5
      vertex 375.526 -35.3156 -123.5
    endloop
  endfacet
  facet normal 0 0 1
    outer loop
      vertex 372.301 38.1531 -123.5
      vertex 374.25 -36.3938 -123.5
      vertex 374.25 36.3938 -123.5
    endloop
  endfacet
  facet normal 0 0 1
    outer loop
      vertex 372.301 38.1531 -123.5
      vertex 372.301 -38.1531 -123.5
      vertex 374.25 -36.3938 -123.5
    endloop
  endfacet
  facet normal 0 0 1
    outer loop
      vertex 370.237 39.87 -123.5
      vertex 372.301 -38.1531 -123.5
      vertex 372.301 38.1531 -123.5
    endloop
  endfacet
  facet normal 0 0 1
    outer loop
      vertex 370.237 39.87 -123.5
      vertex 370.237 -39.87 -123.5
      vertex 372.301 -38.1531 -123.5
    endloop
  endfacet
  facet normal 0 0 1
    outer loop
      vertex 358.709 47.7427 -123.5
      vertex 370.237 39.87 -123.5
      vertex 369.076 40.901 -123.5
    endloop
  endfacet
  facet normal 0 0 1
    outer loop
      vertex 370.237 39.87 -123.5
      vertex 358.709 47.7427 -123.5
      vertex 370.237 -39.87 -123.5
    endloop
  endfacet
  facet normal 0 0 1
    outer loop
      vertex 358.709 47.7427 -123.5
      vertex 369.076 40.901 -123.5
      vertex 366.254 43.2114 -123.5
    endloop
  endfacet
  facet normal 0 0 1
    outer loop
      vertex 358.709 -47.7427 -123.5
      vertex 370.237 -39.87 -123.5
      vertex 358.709 47.7427 -123.5
    endloop
  endfacet
  facet normal 0 0 1
    outer loop
      vertex 362.407 45.8598 -123.5
      vertex 366.254 43.2114 -123.5
      vertex 365.851 43.5634 -123.5
    endloop
  endfacet
  facet normal 0 0 1
    outer loop
      vertex 370.237 -39.87 -123.5
      vertex 358.709 -47.7427 -123.5
      vertex 369.076 -40.901 -123.5
    endloop
  endfacet
  facet normal 0 0 1
    outer loop
      vertex 362.626 45.7572 -123.5
      vertex 365.851 43.5634 -123.5
      vertex 364.086 44.9856 -123.5
    endloop
  endfacet
  facet normal 0 0 1
    outer loop
      vertex 366.254 43.2114 -123.5
      vertex 362.407 45.8598 -123.5
      vertex 359.401 47.4241 -123.5
    endloop
  endfacet
  facet normal 0 0 1
    outer loop
      vertex 365.851 43.5634 -123.5
      vertex 362.626 45.7572 -123.5
      vertex 362.407 45.8598 -123.5
    endloop
  endfacet
  facet normal 0 0 1
    outer loop
      vertex 366.254 43.2114 -123.5
      vertex 359.401 47.4241 -123.5
      vertex 358.709 47.7427 -123.5
    endloop
  endfacet
  facet normal 0 -0 1
    outer loop
      vertex 362.626 -45.7572 -123.5
      vertex 365.851 -43.5634 -123.5
      vertex 362.407 -45.8598 -123.5
    endloop
  endfacet
  facet normal 0 0 1
    outer loop
      vertex 365.851 -43.5634 -123.5
      vertex 362.626 -45.7572 -123.5
      vertex 364.086 -44.9856 -123.5
    endloop
  endfacet
  facet normal 0 0 1
    outer loop
      vertex 369.076 -40.901 -123.5
      vertex 358.709 -47.7427 -123.5
      vertex 366.254 -43.2114 -123.5
    endloop
  endfacet
  facet normal 0 0 1
    outer loop
      vertex 366.254 -43.2114 -123.5
      vertex 362.407 -45.8598 -123.5
      vertex 365.851 -43.5634 -123.5
    endloop
  endfacet
  facet normal 0 -0 1
    outer loop
      vertex 359.401 -47.4241 -123.5
      vertex 366.254 -43.2114 -123.5
      vertex 358.709 -47.7427 -123.5
    endloop
  endfacet
  facet normal 0 -0 1
    outer loop
      vertex 362.407 -45.8598 -123.5
      vertex 366.254 -43.2114 -123.5
      vertex 359.401 -47.4241 -123.5
    endloop
  endfacet
  facet normal 0 0 1
    outer loop
      vertex 355.027 49.5625 -123.5
      vertex 358.709 47.7427 -123.5
      vertex 356.176 49.0414 -123.5
    endloop
  endfacet
  facet normal 0 0 1
    outer loop
      vertex 358.709 47.7427 -123.5
      vertex 355.027 49.5625 -123.5
      vertex 358.709 -47.7427 -123.5
    endloop
  endfacet
  facet normal 0 0 1
    outer loop
      vertex 355.027 -49.5625 -123.5
      vertex 358.709 -47.7427 -123.5
      vertex 355.027 49.5625 -123.5
    endloop
  endfacet
  facet normal 0 0 1
    outer loop
      vertex 358.709 -47.7427 -123.5
      vertex 355.027 -49.5625 -123.5
      vertex 356.176 -49.0414 -123.5
    endloop
  endfacet
  facet normal 0 0 1
    outer loop
      vertex 351.361 51.3223 -123.5
      vertex 355.027 49.5625 -123.5
      vertex 352.951 50.6114 -123.5
    endloop
  endfacet
  facet normal 0 0 1
    outer loop
      vertex 355.027 49.5625 -123.5
      vertex 351.361 51.3223 -123.5
      vertex 355.027 -49.5625 -123.5
    endloop
  endfacet
  facet normal 0 0 1
    outer loop
      vertex 351.361 -51.3223 -123.5
      vertex 355.027 -49.5625 -123.5
      vertex 351.361 51.3223 -123.5
    endloop
  endfacet
  facet normal 0 0 1
    outer loop
      vertex 355.027 -49.5625 -123.5
      vertex 351.361 -51.3223 -123.5
      vertex 352.951 -50.6114 -123.5
    endloop
  endfacet
  facet normal 0 0 1
    outer loop
      vertex 347.708 53.025 -123.5
      vertex 351.361 51.3223 -123.5
      vertex 349.726 52.1361 -123.5
    endloop
  endfacet
  facet normal 0 0 1
    outer loop
      vertex 351.361 51.3223 -123.5
      vertex 347.708 53.025 -123.5
      vertex 351.361 -51.3223 -123.5
    endloop
  endfacet
  facet normal 0 0 1
    outer loop
      vertex 347.708 -53.025 -123.5
      vertex 351.361 -51.3223 -123.5
      vertex 347.708 53.025 -123.5
    endloop
  endfacet
  facet normal 0 0 1
    outer loop
      vertex 351.361 -51.3223 -123.5
      vertex 347.708 -53.025 -123.5
      vertex 349.726 -52.1361 -123.5
    endloop
  endfacet
  facet normal 0 0 1
    outer loop
      vertex 344.07 54.6733 -123.5
      vertex 347.708 53.025 -123.5
      vertex 346.501 53.6174 -123.5
    endloop
  endfacet
  facet normal 0 0 1
    outer loop
      vertex 347.708 53.025 -123.5
      vertex 344.07 54.6733 -123.5
      vertex 347.708 -53.025 -123.5
    endloop
  endfacet
  facet normal 0 0 1
    outer loop
      vertex 344.07 -54.6733 -123.5
      vertex 347.708 -53.025 -123.5
      vertex 344.07 54.6733 -123.5
    endloop
  endfacet
  facet normal 0 0 1
    outer loop
      vertex 347.708 -53.025 -123.5
      vertex 344.07 -54.6733 -123.5
      vertex 346.501 -53.6174 -123.5
    endloop
  endfacet
  facet normal 0 0 1
    outer loop
      vertex 340.444 56.2698 -123.5
      vertex 344.07 54.6733 -123.5
      vertex 343.277 55.0571 -123.5
    endloop
  endfacet
  facet normal 0 0 1
    outer loop
      vertex 344.07 54.6733 -123.5
      vertex 340.444 56.2698 -123.5
      vertex 344.07 -54.6733 -123.5
    endloop
  endfacet
  facet normal 0 0 1
    outer loop
      vertex 340.444 -56.2698 -123.5
      vertex 344.07 -54.6733 -123.5
      vertex 340.444 56.2698 -123.5
    endloop
  endfacet
  facet normal 0 0 1
    outer loop
      vertex 344.07 -54.6733 -123.5
      vertex 340.444 -56.2698 -123.5
      vertex 343.277 -55.0571 -123.5
    endloop
  endfacet
  facet normal 0 0 1
    outer loop
      vertex 339.375 56.7426 -123.5
      vertex 340.444 56.2698 -123.5
      vertex 340.052 56.457 -123.5
    endloop
  endfacet
  facet normal 0 0 1
    outer loop
      vertex 340.444 56.2698 -123.5
      vertex 339.375 56.7426 -123.5
      vertex 340.444 -56.2698 -123.5
    endloop
  endfacet
  facet normal 0 0 1
    outer loop
      vertex 339.375 -56.7426 -123.5
      vertex 340.444 -56.2698 -123.5
      vertex 339.375 56.7426 -123.5
    endloop
  endfacet
  facet normal 0 0 1
    outer loop
      vertex 340.444 -56.2698 -123.5
      vertex 339.375 -56.7426 -123.5
      vertex 340.052 -56.457 -123.5
    endloop
  endfacet
  facet normal 0.55899 0.128698 -0.819126
    outer loop
      vertex 339.375 3.27782 -158.972
      vertex 340.052 0 -159.025
      vertex 339.375 0 -159.487
    endloop
  endfacet
  facet normal 0.552673 0.127466 -0.823593
    outer loop
      vertex 339.375 3.27782 -158.972
      vertex 340.052 15.6234 -156.607
      vertex 340.052 0 -159.025
    endloop
  endfacet
  facet normal 0.553266 0.12736 -0.823211
    outer loop
      vertex 340.052 15.6234 -156.607
      vertex 339.375 3.27782 -158.972
      vertex 339.375 15.6234 -157.062
    endloop
  endfacet
  facet normal 0.518132 0.370404 -0.770935
    outer loop
      vertex 339.375 18.8016 -155.535
      vertex 340.052 15.6234 -156.607
      vertex 339.375 15.6234 -157.062
    endloop
  endfacet
  facet normal 0.50141 0.370526 -0.781856
    outer loop
      vertex 339.375 18.8016 -155.535
      vertex 340.052 30.772 -149.428
      vertex 340.052 15.6234 -156.607
    endloop
  endfacet
  facet normal 0.501265 0.37057 -0.781928
    outer loop
      vertex 340.052 30.772 -149.428
      vertex 339.375 18.8016 -155.535
      vertex 339.375 30.772 -149.862
    endloop
  endfacet
  facet normal 0.441343 0.57554 -0.688455
    outer loop
      vertex 339.375 33.7541 -147.369
      vertex 340.052 30.772 -149.428
      vertex 339.375 30.772 -149.862
    endloop
  endfacet
  facet normal 0.415066 0.578852 -0.701891
    outer loop
      vertex 339.375 33.7541 -147.369
      vertex 340.052 44.9856 -137.706
      vertex 340.052 30.772 -149.428
    endloop
  endfacet
  facet normal 0.414763 0.578952 -0.701987
    outer loop
      vertex 340.052 44.9856 -137.706
      vertex 339.375 33.7541 -147.369
      vertex 339.375 44.9856 -138.106
    endloop
  endfacet
  facet normal 0.345444 0.734056 -0.584663
    outer loop
      vertex 339.375 47.6809 -134.722
      vertex 340.052 44.9856 -137.706
      vertex 339.375 44.9856 -138.106
    endloop
  endfacet
  facet normal 0.311848 0.739218 -0.596915
    outer loop
      vertex 340.052 56.457 -123.5
      vertex 339.375 47.6809 -134.722
      vertex 339.375 56.7426 -123.5
    endloop
  endfacet
  facet normal 0.311953 0.739188 -0.596897
    outer loop
      vertex 339.375 47.6809 -134.722
      vertex 340.052 56.457 -123.5
      vertex 340.052 44.9856 -137.706
    endloop
  endfacet
  facet normal 0.345444 -0.734056 -0.584663
    outer loop
      vertex 339.375 -44.9856 -138.106
      vertex 340.052 -44.9856 -137.706
      vertex 339.375 -47.6809 -134.722
    endloop
  endfacet
  facet normal 0.311848 -0.739218 -0.596915
    outer loop
      vertex 339.375 -47.6809 -134.722
      vertex 340.052 -56.457 -123.5
      vertex 339.375 -56.7426 -123.5
    endloop
  endfacet
  facet normal 0.311953 -0.739188 -0.596897
    outer loop
      vertex 340.052 -56.457 -123.5
      vertex 339.375 -47.6809 -134.722
      vertex 340.052 -44.9856 -137.706
    endloop
  endfacet
  facet normal 0.441343 -0.57554 -0.688455
    outer loop
      vertex 339.375 -30.772 -149.862
      vertex 340.052 -30.772 -149.428
      vertex 339.375 -33.7541 -147.369
    endloop
  endfacet
  facet normal 0.414763 -0.578952 -0.701987
    outer loop
      vertex 339.375 -33.7541 -147.369
      vertex 340.052 -44.9856 -137.706
      vertex 339.375 -44.9856 -138.106
    endloop
  endfacet
  facet normal 0.415066 -0.578852 -0.701891
    outer loop
      vertex 340.052 -44.9856 -137.706
      vertex 339.375 -33.7541 -147.369
      vertex 340.052 -30.772 -149.428
    endloop
  endfacet
  facet normal 0.518132 -0.370404 -0.770935
    outer loop
      vertex 339.375 -15.6234 -157.062
      vertex 340.052 -15.6234 -156.607
      vertex 339.375 -18.8016 -155.535
    endloop
  endfacet
  facet normal 0.501265 -0.37057 -0.781928
    outer loop
      vertex 339.375 -18.8016 -155.535
      vertex 340.052 -30.772 -149.428
      vertex 339.375 -30.772 -149.862
    endloop
  endfacet
  facet normal 0.50141 -0.370526 -0.781856
    outer loop
      vertex 340.052 -30.772 -149.428
      vertex 339.375 -18.8016 -155.535
      vertex 340.052 -15.6234 -156.607
    endloop
  endfacet
  facet normal 0.55899 -0.128698 -0.819126
    outer loop
      vertex 339.375 0 -159.487
      vertex 340.052 0 -159.025
      vertex 339.375 -3.27782 -158.972
    endloop
  endfacet
  facet normal 0.553266 -0.12736 -0.823211
    outer loop
      vertex 339.375 -3.27782 -158.972
      vertex 340.052 -15.6234 -156.607
      vertex 339.375 -15.6234 -157.062
    endloop
  endfacet
  facet normal 0.552673 -0.127466 -0.823593
    outer loop
      vertex 340.052 -15.6234 -156.607
      vertex 339.375 -3.27782 -158.972
      vertex 340.052 0 -159.025
    endloop
  endfacet
  facet normal 0.55916 0.126802 -0.819305
    outer loop
      vertex 340.052 15.6234 -156.607
      vertex 343.277 0 -156.824
      vertex 340.052 0 -159.025
    endloop
  endfacet
  facet normal 0.553305 0.125651 -0.823447
    outer loop
      vertex 343.277 15.6234 -154.44
      vertex 343.277 0 -156.824
      vertex 340.052 15.6234 -156.607
    endloop
  endfacet
  facet normal 0.519016 0.366052 -0.772417
    outer loop
      vertex 340.052 30.772 -149.428
      vertex 343.277 15.6234 -154.44
      vertex 340.052 15.6234 -156.607
    endloop
  endfacet
  facet normal 0.502316 0.366115 -0.783351
    outer loop
      vertex 343.277 30.772 -147.36
      vertex 343.277 15.6234 -154.44
      vertex 340.052 30.772 -149.428
    endloop
  endfacet
  facet normal 0.443415 0.570278 -0.691495
    outer loop
      vertex 340.052 44.9856 -137.706
      vertex 343.277 30.772 -147.36
      vertex 340.052 30.772 -149.428
    endloop
  endfacet
  facet normal 0.416786 0.573554 -0.705213
    outer loop
      vertex 343.277 44.9856 -135.8
      vertex 343.277 30.772 -147.36
      vertex 340.052 44.9856 -137.706
    endloop
  endfacet
  facet normal 0.348291 0.729328 -0.588876
    outer loop
      vertex 343.277 44.9856 -135.8
      vertex 340.052 56.457 -123.5
      vertex 340.444 56.2698 -123.5
    endloop
  endfacet
  facet normal 0.34808 0.72936 -0.588961
    outer loop
      vertex 340.052 56.457 -123.5
      vertex 343.277 44.9856 -135.8
      vertex 340.052 44.9856 -137.706
    endloop
  endfacet
  facet normal 0.314403 0.734479 -0.601407
    outer loop
      vertex 343.277 55.0571 -123.5
      vertex 343.277 44.9856 -135.8
      vertex 340.444 56.2698 -123.5
    endloop
  endfacet
  facet normal 0.348291 -0.729328 -0.588876
    outer loop
      vertex 340.052 -56.457 -123.5
      vertex 343.277 -44.9856 -135.8
      vertex 340.444 -56.2698 -123.5
    endloop
  endfacet
  facet normal 0.34808 -0.72936 -0.588961
    outer loop
      vertex 343.277 -44.9856 -135.8
      vertex 340.052 -56.457 -123.5
      vertex 340.052 -44.9856 -137.706
    endloop
  endfacet
  facet normal 0.314403 -0.734479 -0.601407
    outer loop
      vertex 343.277 -44.9856 -135.8
      vertex 343.277 -55.0571 -123.5
      vertex 340.444 -56.2698 -123.5
    endloop
  endfacet
  facet normal 0.443415 -0.570278 -0.691495
    outer loop
      vertex 340.052 -30.772 -149.428
      vertex 343.277 -30.772 -147.36
      vertex 340.052 -44.9856 -137.706
    endloop
  endfacet
  facet normal 0.416786 -0.573554 -0.705213
    outer loop
      vertex 343.277 -30.772 -147.36
      vertex 343.277 -44.9856 -135.8
      vertex 340.052 -44.9856 -137.706
    endloop
  endfacet
  facet normal 0.519016 -0.366052 -0.772417
    outer loop
      vertex 340.052 -15.6234 -156.607
      vertex 343.277 -15.6234 -154.44
      vertex 340.052 -30.772 -149.428
    endloop
  endfacet
  facet normal 0.502316 -0.366115 -0.783351
    outer loop
      vertex 343.277 -15.6234 -154.44
      vertex 343.277 -30.772 -147.36
      vertex 340.052 -30.772 -149.428
    endloop
  endfacet
  facet normal 0.55916 -0.126802 -0.819305
    outer loop
      vertex 340.052 0 -159.025
      vertex 343.277 0 -156.824
      vertex 340.052 -15.6234 -156.607
    endloop
  endfacet
  facet normal 0.553305 -0.125651 -0.823447
    outer loop
      vertex 343.277 0 -156.824
      vertex 343.277 -15.6234 -154.44
      vertex 340.052 -15.6234 -156.607
    endloop
  endfacet
  facet normal 0.559405 0.125035 -0.81941
    outer loop
      vertex 343.277 15.6234 -154.44
      vertex 346.501 0 -154.623
      vertex 343.277 0 -156.824
    endloop
  endfacet
  facet normal 0.553722 0.123909 -0.823431
    outer loop
      vertex 346.501 15.6234 -152.272
      vertex 346.501 0 -154.623
      vertex 343.277 15.6234 -154.44
    endloop
  endfacet
  facet normal 0.520264 0.361593 -0.773677
    outer loop
      vertex 343.277 30.772 -147.36
      vertex 346.501 15.6234 -152.272
      vertex 343.277 15.6234 -154.44
    endloop
  endfacet
  facet normal 0.50338 0.361596 -0.784766
    outer loop
      vertex 346.501 30.772 -145.292
      vertex 346.501 15.6234 -152.272
      vertex 343.277 30.772 -147.36
    endloop
  endfacet
  facet normal 0.445518 0.564889 -0.69456
    outer loop
      vertex 343.277 44.9856 -135.8
      vertex 346.501 30.772 -145.292
      vertex 343.277 30.772 -147.36
    endloop
  endfacet
  facet normal 0.418815 0.568092 -0.708425
    outer loop
      vertex 346.501 44.9856 -133.894
      vertex 346.501 30.772 -145.292
      vertex 343.277 44.9856 -135.8
    endloop
  endfacet
  facet normal 0.350681 0.72457 -0.593314
    outer loop
      vertex 346.501 44.9856 -133.894
      vertex 343.277 55.0571 -123.5
      vertex 344.07 54.6733 -123.5
    endloop
  endfacet
  facet normal 0.350745 0.724561 -0.593286
    outer loop
      vertex 343.277 55.0571 -123.5
      vertex 346.501 44.9856 -133.894
      vertex 343.277 44.9856 -135.8
    endloop
  endfacet
  facet normal 0.316922 0.729651 -0.605946
    outer loop
      vertex 346.501 53.6174 -123.5
      vertex 346.501 44.9856 -133.894
      vertex 344.07 54.6733 -123.5
    endloop
  endfacet
  facet normal 0.350681 -0.72457 -0.593314
    outer loop
      vertex 343.277 -55.0571 -123.5
      vertex 346.501 -44.9856 -133.894
      vertex 344.07 -54.6733 -123.5
    endloop
  endfacet
  facet normal 0.350745 -0.724561 -0.593286
    outer loop
      vertex 346.501 -44.9856 -133.894
      vertex 343.277 -55.0571 -123.5
      vertex 343.277 -44.9856 -135.8
    endloop
  endfacet
  facet normal 0.316922 -0.729651 -0.605946
    outer loop
      vertex 346.501 -44.9856 -133.894
      vertex 346.501 -53.6174 -123.5
      vertex 344.07 -54.6733 -123.5
    endloop
  endfacet
  facet normal 0.445518 -0.564889 -0.69456
    outer loop
      vertex 343.277 -30.772 -147.36
      vertex 346.501 -30.772 -145.292
      vertex 343.277 -44.9856 -135.8
    endloop
  endfacet
  facet normal 0.418815 -0.568092 -0.708425
    outer loop
      vertex 346.501 -30.772 -145.292
      vertex 346.501 -44.9856 -133.894
      vertex 343.277 -44.9856 -135.8
    endloop
  endfacet
  facet normal 0.520264 -0.361593 -0.773677
    outer loop
      vertex 343.277 -15.6234 -154.44
      vertex 346.501 -15.6234 -152.272
      vertex 343.277 -30.772 -147.36
    endloop
  endfacet
  facet normal 0.50338 -0.361596 -0.784766
    outer loop
      vertex 346.501 -15.6234 -152.272
      vertex 346.501 -30.772 -145.292
      vertex 343.277 -30.772 -147.36
    endloop
  endfacet
  facet normal 0.559405 -0.125035 -0.81941
    outer loop
      vertex 343.277 0 -156.824
      vertex 346.501 0 -154.623
      vertex 343.277 -15.6234 -154.44
    endloop
  endfacet
  facet normal 0.553722 -0.123909 -0.823431
    outer loop
      vertex 346.501 0 -154.623
      vertex 346.501 -15.6234 -152.272
      vertex 343.277 -15.6234 -154.44
    endloop
  endfacet
  facet normal 0.559406 0.123343 -0.819666
    outer loop
      vertex 346.501 15.6234 -152.272
      vertex 349.726 0 -152.422
      vertex 346.501 0 -154.623
    endloop
  endfacet
  facet normal 0.553548 0.122173 -0.823808
    outer loop
      vertex 349.726 15.6234 -150.105
      vertex 349.726 0 -152.422
      vertex 346.501 15.6234 -152.272
    endloop
  endfacet
  facet normal 0.520928 0.357216 -0.775262
    outer loop
      vertex 346.501 30.772 -145.292
      vertex 349.726 15.6234 -150.105
      vertex 346.501 15.6234 -152.272
    endloop
  endfacet
  facet normal 0.504365 0.357155 -0.786166
    outer loop
      vertex 349.726 30.772 -143.223
      vertex 349.726 15.6234 -150.105
      vertex 346.501 30.772 -145.292
    endloop
  endfacet
  facet normal 0.447572 0.559444 -0.697641
    outer loop
      vertex 346.501 44.9856 -133.894
      vertex 349.726 30.772 -143.223
      vertex 346.501 30.772 -145.292
    endloop
  endfacet
  facet normal 0.42064 0.562582 -0.711733
    outer loop
      vertex 349.726 44.9856 -131.988
      vertex 349.726 30.772 -143.223
      vertex 346.501 44.9856 -133.894
    endloop
  endfacet
  facet normal 0.353237 0.719712 -0.597693
    outer loop
      vertex 349.726 44.9856 -131.988
      vertex 346.501 53.6174 -123.5
      vertex 347.708 53.025 -123.5
    endloop
  endfacet
  facet normal 0.353241 0.719712 -0.597692
    outer loop
      vertex 346.501 53.6174 -123.5
      vertex 349.726 44.9856 -131.988
      vertex 346.501 44.9856 -133.894
    endloop
  endfacet
  facet normal 0.319251 0.72477 -0.610564
    outer loop
      vertex 349.726 52.1361 -123.5
      vertex 349.726 44.9856 -131.988
      vertex 347.708 53.025 -123.5
    endloop
  endfacet
  facet normal 0.353237 -0.719712 -0.597693
    outer loop
      vertex 346.501 -53.6174 -123.5
      vertex 349.726 -44.9856 -131.988
      vertex 347.708 -53.025 -123.5
    endloop
  endfacet
  facet normal 0.353241 -0.719712 -0.597692
    outer loop
      vertex 349.726 -44.9856 -131.988
      vertex 346.501 -53.6174 -123.5
      vertex 346.501 -44.9856 -133.894
    endloop
  endfacet
  facet normal 0.319251 -0.72477 -0.610564
    outer loop
      vertex 349.726 -44.9856 -131.988
      vertex 349.726 -52.1361 -123.5
      vertex 347.708 -53.025 -123.5
    endloop
  endfacet
  facet normal 0.447572 -0.559444 -0.697641
    outer loop
      vertex 346.501 -30.772 -145.292
      vertex 349.726 -30.772 -143.223
      vertex 346.501 -44.9856 -133.894
    endloop
  endfacet
  facet normal 0.42064 -0.562582 -0.711733
    outer loop
      vertex 349.726 -30.772 -143.223
      vertex 349.726 -44.9856 -131.988
      vertex 346.501 -44.9856 -133.894
    endloop
  endfacet
  facet normal 0.520928 -0.357216 -0.775262
    outer loop
      vertex 346.501 -15.6234 -152.272
      vertex 349.726 -15.6234 -150.105
      vertex 346.501 -30.772 -145.292
    endloop
  endfacet
  facet normal 0.504365 -0.357155 -0.786166
    outer loop
      vertex 349.726 -15.6234 -150.105
      vertex 349.726 -30.772 -143.223
      vertex 346.501 -30.772 -145.292
    endloop
  endfacet
  facet normal 0.559406 -0.123343 -0.819666
    outer loop
      vertex 346.501 0 -154.623
      vertex 349.726 0 -152.422
      vertex 346.501 -15.6234 -152.272
    endloop
  endfacet
  facet normal 0.553548 -0.122173 -0.823808
    outer loop
      vertex 349.726 0 -152.422
      vertex 349.726 -15.6234 -150.105
      vertex 346.501 -15.6234 -152.272
    endloop
  endfacet
  facet normal 0.559528 0.121586 -0.819845
    outer loop
      vertex 349.726 15.6234 -150.105
      vertex 352.951 0 -150.221
      vertex 349.726 0 -152.422
    endloop
  endfacet
  facet normal 0.553842 0.120442 -0.823865
    outer loop
      vertex 352.951 15.6234 -147.937
      vertex 352.951 0 -150.221
      vertex 349.726 15.6234 -150.105
    endloop
  endfacet
  facet normal 0.522032 0.352785 -0.776547
    outer loop
      vertex 349.726 30.772 -143.223
      vertex 352.951 15.6234 -147.937
      vertex 349.726 15.6234 -150.105
    endloop
  endfacet
  facet normal 0.505114 0.352658 -0.787714
    outer loop
      vertex 352.951 30.772 -141.155
      vertex 352.951 15.6234 -147.937
      vertex 349.726 30.772 -143.223
    endloop
  endfacet
  facet normal 0.449401 0.553964 -0.70083
    outer loop
      vertex 349.726 44.9856 -131.988
      vertex 352.951 30.772 -141.155
      vertex 349.726 30.772 -143.223
    endloop
  endfacet
  facet normal 0.422729 0.556982 -0.714893
    outer loop
      vertex 352.951 44.9856 -130.081
      vertex 352.951 30.772 -141.155
      vertex 349.726 44.9856 -131.988
    endloop
  endfacet
  facet normal 0.35573 0.714695 -0.602218
    outer loop
      vertex 352.951 44.9856 -130.081
      vertex 349.726 52.1361 -123.5
      vertex 351.361 51.3223 -123.5
    endloop
  endfacet
  facet normal 0.356013 0.714683 -0.602066
    outer loop
      vertex 349.726 52.1361 -123.5
      vertex 352.951 44.9856 -130.081
      vertex 349.726 44.9856 -131.988
    endloop
  endfacet
  facet normal 0.321778 0.719689 -0.615229
    outer loop
      vertex 352.951 50.6114 -123.5
      vertex 352.951 44.9856 -130.081
      vertex 351.361 51.3223 -123.5
    endloop
  endfacet
  facet normal 0.35573 -0.714695 -0.602218
    outer loop
      vertex 349.726 -52.1361 -123.5
      vertex 352.951 -44.9856 -130.081
      vertex 351.361 -51.3223 -123.5
    endloop
  endfacet
  facet normal 0.356013 -0.714683 -0.602066
    outer loop
      vertex 352.951 -44.9856 -130.081
      vertex 349.726 -52.1361 -123.5
      vertex 349.726 -44.9856 -131.988
    endloop
  endfacet
  facet normal 0.321778 -0.719689 -0.615229
    outer loop
      vertex 352.951 -44.9856 -130.081
      vertex 352.951 -50.6114 -123.5
      vertex 351.361 -51.3223 -123.5
    endloop
  endfacet
  facet normal 0.449401 -0.553964 -0.70083
    outer loop
      vertex 349.726 -30.772 -143.223
      vertex 352.951 -30.772 -141.155
      vertex 349.726 -44.9856 -131.988
    endloop
  endfacet
  facet normal 0.422729 -0.556982 -0.714893
    outer loop
      vertex 352.951 -30.772 -141.155
      vertex 352.951 -44.9856 -130.081
      vertex 349.726 -44.9856 -131.988
    endloop
  endfacet
  facet normal 0.522032 -0.352785 -0.776547
    outer loop
      vertex 349.726 -15.6234 -150.105
      vertex 352.951 -15.6234 -147.937
      vertex 349.726 -30.772 -143.223
    endloop
  endfacet
  facet normal 0.505114 -0.352658 -0.787714
    outer loop
      vertex 352.951 -15.6234 -147.937
      vertex 352.951 -30.772 -141.155
      vertex 349.726 -30.772 -143.223
    endloop
  endfacet
  facet normal 0.559528 -0.121586 -0.819845
    outer loop
      vertex 349.726 0 -152.422
      vertex 352.951 0 -150.221
      vertex 349.726 -15.6234 -150.105
    endloop
  endfacet
  facet normal 0.553842 -0.120442 -0.823865
    outer loop
      vertex 352.951 0 -150.221
      vertex 352.951 -15.6234 -147.937
      vertex 349.726 -15.6234 -150.105
    endloop
  endfacet
  facet normal 0.559645 0.119879 -0.820016
    outer loop
      vertex 352.951 15.6234 -147.937
      vertex 356.176 0 -148.02
      vertex 352.951 0 -150.221
    endloop
  endfacet
  facet normal 0.553957 0.118726 -0.824036
    outer loop
      vertex 356.176 15.6234 -145.769
      vertex 356.176 0 -148.02
      vertex 352.951 15.6234 -147.937
    endloop
  endfacet
  facet normal 0.522972 0.348284 -0.777945
    outer loop
      vertex 352.951 30.772 -141.155
      vertex 356.176 15.6234 -145.769
      vertex 352.951 15.6234 -147.937
    endloop
  endfacet
  facet normal 0.506036 0.348092 -0.789151
    outer loop
      vertex 356.176 30.772 -139.087
      vertex 356.176 15.6234 -145.769
      vertex 352.951 30.772 -141.155
    endloop
  endfacet
  facet normal 0.451376 0.548426 -0.70391
    outer loop
      vertex 352.951 44.9856 -130.081
      vertex 356.176 30.772 -139.087
      vertex 352.951 30.772 -141.155
    endloop
  endfacet
  facet normal 0.424464 0.551376 -0.718203
    outer loop
      vertex 356.176 44.9856 -128.175
      vertex 356.176 30.772 -139.087
      vertex 352.951 44.9856 -130.081
    endloop
  endfacet
  facet normal 0.358521 0.70959 -0.606585
    outer loop
      vertex 356.176 44.9856 -128.175
      vertex 352.951 50.6114 -123.5
      vertex 355.027 49.5625 -123.5
    endloop
  endfacet
  facet normal 0.358503 0.709589 -0.606596
    outer loop
      vertex 352.951 50.6114 -123.5
      vertex 356.176 44.9856 -128.175
      vertex 352.951 44.9856 -130.081
    endloop
  endfacet
  facet normal 0.324084 0.71459 -0.619943
    outer loop
      vertex 356.176 49.0414 -123.5
      vertex 356.176 44.9856 -128.175
      vertex 355.027 49.5625 -123.5
    endloop
  endfacet
  facet normal 0.358521 -0.70959 -0.606585
    outer loop
      vertex 352.951 -50.6114 -123.5
      vertex 356.176 -44.9856 -128.175
      vertex 355.027 -49.5625 -123.5
    endloop
  endfacet
  facet normal 0.358503 -0.709589 -0.606596
    outer loop
      vertex 356.176 -44.9856 -128.175
      vertex 352.951 -50.6114 -123.5
      vertex 352.951 -44.9856 -130.081
    endloop
  endfacet
  facet normal 0.324084 -0.71459 -0.619943
    outer loop
      vertex 356.176 -44.9856 -128.175
      vertex 356.176 -49.0414 -123.5
      vertex 355.027 -49.5625 -123.5
    endloop
  endfacet
  facet normal 0.451376 -0.548426 -0.70391
    outer loop
      vertex 352.951 -30.772 -141.155
      vertex 356.176 -30.772 -139.087
      vertex 352.951 -44.9856 -130.081
    endloop
  endfacet
  facet normal 0.424464 -0.551376 -0.718203
    outer loop
      vertex 356.176 -30.772 -139.087
      vertex 356.176 -44.9856 -128.175
      vertex 352.951 -44.9856 -130.081
    endloop
  endfacet
  facet normal 0.522972 -0.348284 -0.777945
    outer loop
      vertex 352.951 -15.6234 -147.937
      vertex 356.176 -15.6234 -145.769
      vertex 352.951 -30.772 -141.155
    endloop
  endfacet
  facet normal 0.506036 -0.348092 -0.789151
    outer loop
      vertex 356.176 -15.6234 -145.769
      vertex 356.176 -30.772 -139.087
      vertex 352.951 -30.772 -141.155
    endloop
  endfacet
  facet normal 0.559645 -0.119879 -0.820016
    outer loop
      vertex 352.951 0 -150.221
      vertex 356.176 0 -148.02
      vertex 352.951 -15.6234 -147.937
    endloop
  endfacet
  facet normal 0.553957 -0.118726 -0.824036
    outer loop
      vertex 356.176 0 -148.02
      vertex 356.176 -15.6234 -145.769
      vertex 352.951 -15.6234 -147.937
    endloop
  endfacet
  facet normal 0.559721 0.118211 -0.820206
    outer loop
      vertex 356.938 0 -147.5
      vertex 356.176 0 -148.02
      vertex 356.866 0.86824 -147.424
    endloop
  endfacet
  facet normal 0.559417 0.118561 -0.820363
    outer loop
      vertex 356.176 0 -148.02
      vertex 357.019 1.7101 -147.198
      vertex 356.866 0.86824 -147.424
    endloop
  endfacet
  facet normal 0.559947 0.118153 -0.82006
    outer loop
      vertex 356.176 15.6234 -145.769
      vertex 357.019 1.7101 -147.198
      vertex 356.176 0 -148.02
    endloop
  endfacet
  facet normal 0.559166 0.11807 -0.820605
    outer loop
      vertex 357.973 3.21394 -146.33
      vertex 356.176 15.6234 -145.769
      vertex 358.63 3.7374 -145.807
    endloop
  endfacet
  facet normal 0.560286 0.118196 -0.819823
    outer loop
      vertex 357.392 2.5 -146.83
      vertex 356.176 15.6234 -145.769
      vertex 357.973 3.21394 -146.33
    endloop
  endfacet
  facet normal 0.559286 0.118159 -0.82051
    outer loop
      vertex 357.019 1.7101 -147.198
      vertex 356.176 15.6234 -145.769
      vertex 357.392 2.5 -146.83
    endloop
  endfacet
  facet normal 0.553754 0.116925 -0.82443
    outer loop
      vertex 356.176 15.6234 -145.769
      vertex 359.401 4.17143 -145.227
      vertex 358.748 3.83022 -145.714
    endloop
  endfacet
  facet normal 0.556086 0.117441 -0.822785
    outer loop
      vertex 356.176 15.6234 -145.769
      vertex 358.748 3.83022 -145.714
      vertex 358.63 3.7374 -145.807
    endloop
  endfacet
  facet normal 0.553897 0.11697 -0.824328
    outer loop
      vertex 359.401 4.17143 -145.227
      vertex 356.176 15.6234 -145.769
      vertex 359.401 15.6234 -143.602
    endloop
  endfacet
  facet normal 0.523728 0.343803 -0.779428
    outer loop
      vertex 356.176 30.772 -139.087
      vertex 359.401 15.6234 -143.602
      vertex 356.176 15.6234 -145.769
    endloop
  endfacet
  facet normal 0.50694 0.343548 -0.790561
    outer loop
      vertex 359.401 30.772 -137.019
      vertex 359.401 15.6234 -143.602
      vertex 356.176 30.772 -139.087
    endloop
  endfacet
  facet normal 0.45336 0.542779 -0.707005
    outer loop
      vertex 356.176 44.9856 -128.175
      vertex 359.401 30.772 -137.019
      vertex 356.176 30.772 -139.087
    endloop
  endfacet
  facet normal 0.426378 0.54564 -0.721442
    outer loop
      vertex 359.401 44.9856 -126.269
      vertex 359.401 30.772 -137.019
      vertex 356.176 44.9856 -128.175
    endloop
  endfacet
  facet normal 0.361141 0.704373 -0.611094
    outer loop
      vertex 359.401 44.9856 -126.269
      vertex 356.176 49.0414 -123.5
      vertex 358.709 47.7427 -123.5
    endloop
  endfacet
  facet normal 0.361154 0.704376 -0.611082
    outer loop
      vertex 356.176 49.0414 -123.5
      vertex 359.401 44.9856 -126.269
      vertex 356.176 44.9856 -128.175
    endloop
  endfacet
  facet normal 0.326577 0.709326 -0.624663
    outer loop
      vertex 359.401 47.4241 -123.5
      vertex 359.401 44.9856 -126.269
      vertex 358.709 47.7427 -123.5
    endloop
  endfacet
  facet normal 0.361141 -0.704373 -0.611094
    outer loop
      vertex 356.176 -49.0414 -123.5
      vertex 359.401 -44.9856 -126.269
      vertex 358.709 -47.7427 -123.5
    endloop
  endfacet
  facet normal 0.361154 -0.704376 -0.611082
    outer loop
      vertex 359.401 -44.9856 -126.269
      vertex 356.176 -49.0414 -123.5
      vertex 356.176 -44.9856 -128.175
    endloop
  endfacet
  facet normal 0.326577 -0.709326 -0.624663
    outer loop
      vertex 359.401 -44.9856 -126.269
      vertex 359.401 -47.4241 -123.5
      vertex 358.709 -47.7427 -123.5
    endloop
  endfacet
  facet normal 0.45336 -0.542779 -0.707005
    outer loop
      vertex 356.176 -30.772 -139.087
      vertex 359.401 -30.772 -137.019
      vertex 356.176 -44.9856 -128.175
    endloop
  endfacet
  facet normal 0.426378 -0.54564 -0.721442
    outer loop
      vertex 359.401 -30.772 -137.019
      vertex 359.401 -44.9856 -126.269
      vertex 356.176 -44.9856 -128.175
    endloop
  endfacet
  facet normal 0.523728 -0.343803 -0.779428
    outer loop
      vertex 356.176 -15.6234 -145.769
      vertex 359.401 -15.6234 -143.602
      vertex 356.176 -30.772 -139.087
    endloop
  endfacet
  facet normal 0.50694 -0.343548 -0.790561
    outer loop
      vertex 359.401 -15.6234 -143.602
      vertex 359.401 -30.772 -137.019
      vertex 356.176 -30.772 -139.087
    endloop
  endfacet
  facet normal 0.559947 -0.118153 -0.82006
    outer loop
      vertex 356.176 0 -148.02
      vertex 357.019 -1.7101 -147.198
      vertex 356.176 -15.6234 -145.769
    endloop
  endfacet
  facet normal 0.559286 -0.118159 -0.82051
    outer loop
      vertex 357.392 -2.5 -146.83
      vertex 356.176 -15.6234 -145.769
      vertex 357.019 -1.7101 -147.198
    endloop
  endfacet
  facet normal 0.560286 -0.118196 -0.819823
    outer loop
      vertex 357.973 -3.21394 -146.33
      vertex 356.176 -15.6234 -145.769
      vertex 357.392 -2.5 -146.83
    endloop
  endfacet
  facet normal 0.559166 -0.11807 -0.820605
    outer loop
      vertex 356.176 -15.6234 -145.769
      vertex 357.973 -3.21394 -146.33
      vertex 358.63 -3.7374 -145.807
    endloop
  endfacet
  facet normal 0.559721 -0.118211 -0.820206
    outer loop
      vertex 356.866 -0.86824 -147.424
      vertex 356.176 0 -148.02
      vertex 356.938 0 -147.5
    endloop
  endfacet
  facet normal 0.559417 -0.118561 -0.820363
    outer loop
      vertex 357.019 -1.7101 -147.198
      vertex 356.176 0 -148.02
      vertex 356.866 -0.86824 -147.424
    endloop
  endfacet
  facet normal 0.553897 -0.11697 -0.824328
    outer loop
      vertex 356.176 -15.6234 -145.769
      vertex 359.401 -4.17143 -145.227
      vertex 359.401 -15.6234 -143.602
    endloop
  endfacet
  facet normal 0.553754 -0.116925 -0.82443
    outer loop
      vertex 359.401 -4.17143 -145.227
      vertex 356.176 -15.6234 -145.769
      vertex 358.748 -3.83022 -145.714
    endloop
  endfacet
  facet normal 0.556086 -0.117441 -0.822785
    outer loop
      vertex 358.748 -3.83022 -145.714
      vertex 356.176 -15.6234 -145.769
      vertex 358.63 -3.7374 -145.807
    endloop
  endfacet
  facet normal 0.559646 0.116357 -0.820523
    outer loop
      vertex 360.781 4.69846 -144.21
      vertex 359.401 15.6234 -143.602
      vertex 361.623 4.85857 -143.613
    endloop
  endfacet
  facet normal 0.559873 0.116377 -0.820365
    outer loop
      vertex 359.7 4.33013 -145
      vertex 359.401 15.6234 -143.602
      vertex 360.781 4.69846 -144.21
    endloop
  endfacet
  facet normal 0.560667 0.116331 -0.819829
    outer loop
      vertex 359.401 15.6234 -143.602
      vertex 359.7 4.33013 -145
      vertex 359.401 4.17143 -145.227
    endloop
  endfacet
  facet normal 0.553828 0.115255 -0.824616
    outer loop
      vertex 361.973 4.92404 -143.368
      vertex 362.626 15.6234 -141.434
      vertex 362.626 4.96291 -142.924
    endloop
  endfacet
  facet normal 0.555051 0.115411 -0.823771
    outer loop
      vertex 359.401 15.6234 -143.602
      vertex 361.973 4.92404 -143.368
      vertex 361.623 4.85857 -143.613
    endloop
  endfacet
  facet normal 0.554189 0.115191 -0.824382
    outer loop
      vertex 361.973 4.92404 -143.368
      vertex 359.401 15.6234 -143.602
      vertex 362.626 15.6234 -141.434
    endloop
  endfacet
  facet normal 0.524816 0.339257 -0.780688
    outer loop
      vertex 359.401 30.772 -137.019
      vertex 362.626 15.6234 -141.434
      vertex 359.401 15.6234 -143.602
    endloop
  endfacet
  facet normal 0.508017 0.338936 -0.791859
    outer loop
      vertex 362.626 30.772 -134.95
      vertex 362.626 15.6234 -141.434
      vertex 359.401 30.772 -137.019
    endloop
  endfacet
  facet normal 0.455516 0.537003 -0.710023
    outer loop
      vertex 359.401 44.9856 -126.269
      vertex 362.626 30.772 -134.95
      vertex 359.401 30.772 -137.019
    endloop
  endfacet
  facet normal 0.428301 0.53979 -0.724696
    outer loop
      vertex 362.626 44.9856 -124.363
      vertex 362.626 30.772 -134.95
      vertex 359.401 44.9856 -126.269
    endloop
  endfacet
  facet normal 0.363739 0.698971 -0.615738
    outer loop
      vertex 362.626 44.9856 -124.363
      vertex 359.401 47.4241 -123.5
      vertex 362.407 45.8598 -123.5
    endloop
  endfacet
  facet normal 0.363828 0.699041 -0.615606
    outer loop
      vertex 359.401 47.4241 -123.5
      vertex 362.626 44.9856 -124.363
      vertex 359.401 44.9856 -126.269
    endloop
  endfacet
  facet normal 0.329722 0.703792 -0.629254
    outer loop
      vertex 362.626 45.7572 -123.5
      vertex 362.626 44.9856 -124.363
      vertex 362.407 45.8598 -123.5
    endloop
  endfacet
  facet normal 0.363739 -0.698971 -0.615738
    outer loop
      vertex 359.401 -47.4241 -123.5
      vertex 362.626 -44.9856 -124.363
      vertex 362.407 -45.8598 -123.5
    endloop
  endfacet
  facet normal 0.363828 -0.699041 -0.615606
    outer loop
      vertex 362.626 -44.9856 -124.363
      vertex 359.401 -47.4241 -123.5
      vertex 359.401 -44.9856 -126.269
    endloop
  endfacet
  facet normal 0.329722 -0.703792 -0.629254
    outer loop
      vertex 362.626 -44.9856 -124.363
      vertex 362.626 -45.7572 -123.5
      vertex 362.407 -45.8598 -123.5
    endloop
  endfacet
  facet normal 0.455516 -0.537003 -0.710023
    outer loop
      vertex 359.401 -30.772 -137.019
      vertex 362.626 -30.772 -134.95
      vertex 359.401 -44.9856 -126.269
    endloop
  endfacet
  facet normal 0.428301 -0.53979 -0.724696
    outer loop
      vertex 362.626 -30.772 -134.95
      vertex 362.626 -44.9856 -124.363
      vertex 359.401 -44.9856 -126.269
    endloop
  endfacet
  facet normal 0.524816 -0.339257 -0.780688
    outer loop
      vertex 359.401 -15.6234 -143.602
      vertex 362.626 -15.6234 -141.434
      vertex 359.401 -30.772 -137.019
    endloop
  endfacet
  facet normal 0.508017 -0.338936 -0.791859
    outer loop
      vertex 362.626 -15.6234 -141.434
      vertex 362.626 -30.772 -134.95
      vertex 359.401 -30.772 -137.019
    endloop
  endfacet
  facet normal 0.559646 -0.116357 -0.820523
    outer loop
      vertex 359.401 -15.6234 -143.602
      vertex 360.781 -4.69846 -144.21
      vertex 361.623 -4.85857 -143.613
    endloop
  endfacet
  facet normal 0.559873 -0.116377 -0.820365
    outer loop
      vertex 359.401 -15.6234 -143.602
      vertex 359.7 -4.33013 -145
      vertex 360.781 -4.69846 -144.21
    endloop
  endfacet
  facet normal 0.560667 -0.116331 -0.819829
    outer loop
      vertex 359.7 -4.33013 -145
      vertex 359.401 -15.6234 -143.602
      vertex 359.401 -4.17143 -145.227
    endloop
  endfacet
  facet normal 0.553828 -0.115255 -0.824616
    outer loop
      vertex 362.626 -15.6234 -141.434
      vertex 361.973 -4.92404 -143.368
      vertex 362.626 -4.96291 -142.924
    endloop
  endfacet
  facet normal 0.554189 -0.115191 -0.824382
    outer loop
      vertex 359.401 -15.6234 -143.602
      vertex 361.973 -4.92404 -143.368
      vertex 362.626 -15.6234 -141.434
    endloop
  endfacet
  facet normal 0.555051 -0.115411 -0.823771
    outer loop
      vertex 361.973 -4.92404 -143.368
      vertex 359.401 -15.6234 -143.602
      vertex 361.623 -4.85857 -143.613
    endloop
  endfacet
  facet normal 0.560253 0.114724 -0.820338
    outer loop
      vertex 364.527 4.92404 -141.632
      vertex 362.626 15.6234 -141.434
      vertex 364.846 4.86782 -141.422
    endloop
  endfacet
  facet normal 0.560106 0.114699 -0.820442
    outer loop
      vertex 363.24 5 -142.5
      vertex 362.626 15.6234 -141.434
      vertex 364.527 4.92404 -141.632
    endloop
  endfacet
  facet normal 0.559783 0.114703 -0.820662
    outer loop
      vertex 362.626 15.6234 -141.434
      vertex 363.24 5 -142.5
      vertex 362.626 4.96291 -142.924
    endloop
  endfacet
  facet normal 0.555054 0.113428 -0.824045
    outer loop
      vertex 365.821 4.69846 -140.79
      vertex 365.851 15.6234 -139.266
      vertex 365.851 4.68969 -140.771
    endloop
  endfacet
  facet normal 0.554222 0.113507 -0.824593
    outer loop
      vertex 364.846 4.86782 -141.422
      vertex 365.851 15.6234 -139.266
      vertex 365.821 4.69846 -140.79
    endloop
  endfacet
  facet normal 0.554298 0.11349 -0.824544
    outer loop
      vertex 365.851 15.6234 -139.266
      vertex 364.846 4.86782 -141.422
      vertex 362.626 15.6234 -141.434
    endloop
  endfacet
  facet normal 0.52572 0.33473 -0.782032
    outer loop
      vertex 362.626 30.772 -134.95
      vertex 365.851 15.6234 -139.266
      vertex 362.626 15.6234 -141.434
    endloop
  endfacet
  facet normal 0.508731 0.334339 -0.793354
    outer loop
      vertex 365.851 30.772 -132.882
      vertex 365.851 15.6234 -139.266
      vertex 362.626 30.772 -134.95
    endloop
  endfacet
  facet normal 0.45733 0.531225 -0.713197
    outer loop
      vertex 362.626 44.9856 -124.363
      vertex 365.851 30.772 -132.882
      vertex 362.626 30.772 -134.95
    endloop
  endfacet
  facet normal 0.430231 0.533896 -0.727912
    outer loop
      vertex 362.626 44.9856 -124.363
      vertex 365.851 43.5634 -123.5
      vertex 365.851 30.772 -132.882
    endloop
  endfacet
  facet normal 0.430241 0.533945 -0.727871
    outer loop
      vertex 365.851 43.5634 -123.5
      vertex 362.626 44.9856 -124.363
      vertex 364.086 44.9856 -123.5
    endloop
  endfacet
  facet normal 0.366558 0.693592 -0.620134
    outer loop
      vertex 362.626 45.7572 -123.5
      vertex 364.086 44.9856 -123.5
      vertex 362.626 44.9856 -124.363
    endloop
  endfacet
  facet normal 0.366558 -0.693592 -0.620134
    outer loop
      vertex 362.626 -44.9856 -124.363
      vertex 364.086 -44.9856 -123.5
      vertex 362.626 -45.7572 -123.5
    endloop
  endfacet
  facet normal 0.45733 -0.531225 -0.713197
    outer loop
      vertex 362.626 -30.772 -134.95
      vertex 365.851 -30.772 -132.882
      vertex 362.626 -44.9856 -124.363
    endloop
  endfacet
  facet normal 0.430241 -0.533945 -0.727871
    outer loop
      vertex 362.626 -44.9856 -124.363
      vertex 365.851 -43.5634 -123.5
      vertex 364.086 -44.9856 -123.5
    endloop
  endfacet
  facet normal 0.430231 -0.533896 -0.727912
    outer loop
      vertex 365.851 -43.5634 -123.5
      vertex 362.626 -44.9856 -124.363
      vertex 365.851 -30.772 -132.882
    endloop
  endfacet
  facet normal 0.52572 -0.33473 -0.782032
    outer loop
      vertex 362.626 -15.6234 -141.434
      vertex 365.851 -15.6234 -139.266
      vertex 362.626 -30.772 -134.95
    endloop
  endfacet
  facet normal 0.508731 -0.334339 -0.793354
    outer loop
      vertex 365.851 -15.6234 -139.266
      vertex 365.851 -30.772 -132.882
      vertex 362.626 -30.772 -134.95
    endloop
  endfacet
  facet normal 0.560253 -0.114724 -0.820338
    outer loop
      vertex 362.626 -15.6234 -141.434
      vertex 364.527 -4.92404 -141.632
      vertex 364.846 -4.86782 -141.422
    endloop
  endfacet
  facet normal 0.560106 -0.114699 -0.820442
    outer loop
      vertex 362.626 -15.6234 -141.434
      vertex 363.24 -5 -142.5
      vertex 364.527 -4.92404 -141.632
    endloop
  endfacet
  facet normal 0.559783 -0.114703 -0.820662
    outer loop
      vertex 363.24 -5 -142.5
      vertex 362.626 -15.6234 -141.434
      vertex 362.626 -4.96291 -142.924
    endloop
  endfacet
  facet normal 0.555054 -0.113428 -0.824045
    outer loop
      vertex 365.851 -15.6234 -139.266
      vertex 365.821 -4.69846 -140.79
      vertex 365.851 -4.68969 -140.771
    endloop
  endfacet
  facet normal 0.554222 -0.113507 -0.824593
    outer loop
      vertex 365.851 -15.6234 -139.266
      vertex 364.846 -4.86782 -141.422
      vertex 365.821 -4.69846 -140.79
    endloop
  endfacet
  facet normal 0.554298 -0.11349 -0.824544
    outer loop
      vertex 364.846 -4.86782 -141.422
      vertex 365.851 -15.6234 -139.266
      vertex 362.626 -15.6234 -141.434
    endloop
  endfacet
  facet normal 0.554583 0.111862 -0.824575
    outer loop
      vertex 368.2 3.83022 -139.286
      vertex 365.851 15.6234 -139.266
      vertex 368.298 3.7719 -139.228
    endloop
  endfacet
  facet normal 0.560102 0.112955 -0.820687
    outer loop
      vertex 367.053 4.33013 -140
      vertex 365.851 15.6234 -139.266
      vertex 368.2 3.83022 -139.286
    endloop
  endfacet
  facet normal 0.560173 0.112959 -0.820638
    outer loop
      vertex 365.851 15.6234 -139.266
      vertex 367.053 4.33013 -140
      vertex 365.851 4.68969 -140.771
    endloop
  endfacet
  facet normal 0.554725 0.111698 -0.824502
    outer loop
      vertex 368.298 3.7719 -139.228
      vertex 369.076 15.6234 -137.099
      vertex 369.076 3.31101 -138.767
    endloop
  endfacet
  facet normal 0.55423 0.111788 -0.824823
    outer loop
      vertex 369.076 15.6234 -137.099
      vertex 368.298 3.7719 -139.228
      vertex 365.851 15.6234 -139.266
    endloop
  endfacet
  facet normal 0.526448 0.330177 -0.783477
    outer loop
      vertex 365.851 30.772 -132.882
      vertex 369.076 15.6234 -137.099
      vertex 365.851 15.6234 -139.266
    endloop
  endfacet
  facet normal 0.509608 0.329722 -0.794722
    outer loop
      vertex 369.076 30.772 -130.814
      vertex 369.076 15.6234 -137.099
      vertex 365.851 30.772 -132.882
    endloop
  endfacet
  facet normal 0.459305 0.525347 -0.716275
    outer loop
      vertex 365.851 30.772 -132.882
      vertex 366.254 43.2114 -123.5
      vertex 369.076 30.772 -130.814
    endloop
  endfacet
  facet normal 0.458963 0.52546 -0.716411
    outer loop
      vertex 366.254 43.2114 -123.5
      vertex 365.851 30.772 -132.882
      vertex 365.851 43.5634 -123.5
    endloop
  endfacet
  facet normal 0.432209 0.527914 -0.731097
    outer loop
      vertex 369.076 40.901 -123.5
      vertex 369.076 30.772 -130.814
      vertex 366.254 43.2114 -123.5
    endloop
  endfacet
  facet normal 0.458963 -0.52546 -0.716411
    outer loop
      vertex 365.851 -30.772 -132.882
      vertex 366.254 -43.2114 -123.5
      vertex 365.851 -43.5634 -123.5
    endloop
  endfacet
  facet normal 0.459305 -0.525347 -0.716275
    outer loop
      vertex 366.254 -43.2114 -123.5
      vertex 365.851 -30.772 -132.882
      vertex 369.076 -30.772 -130.814
    endloop
  endfacet
  facet normal 0.432209 -0.527914 -0.731097
    outer loop
      vertex 369.076 -30.772 -130.814
      vertex 369.076 -40.901 -123.5
      vertex 366.254 -43.2114 -123.5
    endloop
  endfacet
  facet normal 0.526448 -0.330177 -0.783477
    outer loop
      vertex 365.851 -15.6234 -139.266
      vertex 369.076 -15.6234 -137.099
      vertex 365.851 -30.772 -132.882
    endloop
  endfacet
  facet normal 0.509608 -0.329722 -0.794722
    outer loop
      vertex 369.076 -15.6234 -137.099
      vertex 369.076 -30.772 -130.814
      vertex 365.851 -30.772 -132.882
    endloop
  endfacet
  facet normal 0.554583 -0.111862 -0.824575
    outer loop
      vertex 365.851 -15.6234 -139.266
      vertex 368.2 -3.83022 -139.286
      vertex 368.298 -3.7719 -139.228
    endloop
  endfacet
  facet normal 0.560102 -0.112955 -0.820687
    outer loop
      vertex 365.851 -15.6234 -139.266
      vertex 367.053 -4.33013 -140
      vertex 368.2 -3.83022 -139.286
    endloop
  endfacet
  facet normal 0.560173 -0.112959 -0.820638
    outer loop
      vertex 367.053 -4.33013 -140
      vertex 365.851 -15.6234 -139.266
      vertex 365.851 -4.68969 -140.771
    endloop
  endfacet
  facet normal 0.554725 -0.111698 -0.824502
    outer loop
      vertex 369.076 -15.6234 -137.099
      vertex 368.298 -3.7719 -139.228
      vertex 369.076 -3.31101 -138.767
    endloop
  endfacet
  facet normal 0.55423 -0.111788 -0.824823
    outer loop
      vertex 368.298 -3.7719 -139.228
      vertex 369.076 -15.6234 -137.099
      vertex 365.851 -15.6234 -139.266
    endloop
  endfacet
  facet normal 0.560299 0.110776 -0.820849
    outer loop
      vertex 371.306 0.86824 -137.576
      vertex 372.301 0 -137.014
      vertex 371.589 0 -137.5
    endloop
  endfacet
  facet normal 0.56064 0.11137 -0.820536
    outer loop
      vertex 370.808 1.7101 -137.802
      vertex 372.301 0 -137.014
      vertex 371.306 0.86824 -137.576
    endloop
  endfacet
  facet normal 0.56054 0.111243 -0.820622
    outer loop
      vertex 370.808 1.7101 -137.802
      vertex 369.076 15.6234 -137.099
      vertex 372.301 0 -137.014
    endloop
  endfacet
  facet normal 0.560226 0.111215 -0.82084
    outer loop
      vertex 370.112 2.5 -138.17
      vertex 369.076 15.6234 -137.099
      vertex 370.808 1.7101 -137.802
    endloop
  endfacet
  facet normal 0.560378 0.111218 -0.820735
    outer loop
      vertex 369.238 3.21394 -138.67
      vertex 369.076 15.6234 -137.099
      vertex 370.112 2.5 -138.17
    endloop
  endfacet
  facet normal 0.558781 0.111333 -0.821808
    outer loop
      vertex 369.076 15.6234 -137.099
      vertex 369.238 3.21394 -138.67
      vertex 369.076 3.31101 -138.767
    endloop
  endfacet
  facet normal 0.554519 0.109977 -0.824872
    outer loop
      vertex 372.301 15.6234 -134.931
      vertex 372.301 0 -137.014
      vertex 369.076 15.6234 -137.099
    endloop
  endfacet
  facet normal 0.527509 0.325561 -0.784694
    outer loop
      vertex 369.076 30.772 -130.814
      vertex 372.301 15.6234 -134.931
      vertex 369.076 15.6234 -137.099
    endloop
  endfacet
  facet normal 0.510658 0.32504 -0.795975
    outer loop
      vertex 372.301 30.772 -128.745
      vertex 372.301 15.6234 -134.931
      vertex 369.076 30.772 -130.814
    endloop
  endfacet
  facet normal 0.461447 0.519344 -0.719269
    outer loop
      vertex 369.076 30.772 -130.814
      vertex 370.237 39.87 -123.5
      vertex 372.301 30.772 -128.745
    endloop
  endfacet
  facet normal 0.46126 0.519421 -0.719334
    outer loop
      vertex 370.237 39.87 -123.5
      vertex 369.076 30.772 -130.814
      vertex 369.076 40.901 -123.5
    endloop
  endfacet
  facet normal 0.434074 0.52183 -0.734352
    outer loop
      vertex 372.301 38.1531 -123.5
      vertex 372.301 30.772 -128.745
      vertex 370.237 39.87 -123.5
    endloop
  endfacet
  facet normal 0.46126 -0.519421 -0.719334
    outer loop
      vertex 369.076 -30.772 -130.814
      vertex 370.237 -39.87 -123.5
      vertex 369.076 -40.901 -123.5
    endloop
  endfacet
  facet normal 0.461447 -0.519344 -0.719269
    outer loop
      vertex 370.237 -39.87 -123.5
      vertex 369.076 -30.772 -130.814
      vertex 372.301 -30.772 -128.745
    endloop
  endfacet
  facet normal 0.434074 -0.52183 -0.734352
    outer loop
      vertex 372.301 -30.772 -128.745
      vertex 372.301 -38.1531 -123.5
      vertex 370.237 -39.87 -123.5
    endloop
  endfacet
  facet normal 0.527509 -0.325561 -0.784694
    outer loop
      vertex 369.076 -15.6234 -137.099
      vertex 372.301 -15.6234 -134.931
      vertex 369.076 -30.772 -130.814
    endloop
  endfacet
  facet normal 0.510658 -0.32504 -0.795975
    outer loop
      vertex 372.301 -15.6234 -134.931
      vertex 372.301 -30.772 -128.745
      vertex 369.076 -30.772 -130.814
    endloop
  endfacet
  facet normal 0.560299 -0.110776 -0.820849
    outer loop
      vertex 372.301 0 -137.014
      vertex 371.306 -0.86824 -137.576
      vertex 371.589 0 -137.5
    endloop
  endfacet
  facet normal 0.56064 -0.11137 -0.820536
    outer loop
      vertex 372.301 0 -137.014
      vertex 370.808 -1.7101 -137.802
      vertex 371.306 -0.86824 -137.576
    endloop
  endfacet
  facet normal 0.56054 -0.111243 -0.820622
    outer loop
      vertex 369.076 -15.6234 -137.099
      vertex 370.808 -1.7101 -137.802
      vertex 372.301 0 -137.014
    endloop
  endfacet
  facet normal 0.560226 -0.111215 -0.82084
    outer loop
      vertex 369.076 -15.6234 -137.099
      vertex 370.112 -2.5 -138.17
      vertex 370.808 -1.7101 -137.802
    endloop
  endfacet
  facet normal 0.560378 -0.111218 -0.820735
    outer loop
      vertex 369.076 -15.6234 -137.099
      vertex 369.238 -3.21394 -138.67
      vertex 370.112 -2.5 -138.17
    endloop
  endfacet
  facet normal 0.558781 -0.111333 -0.821808
    outer loop
      vertex 369.238 -3.21394 -138.67
      vertex 369.076 -15.6234 -137.099
      vertex 369.076 -3.31101 -138.767
    endloop
  endfacet
  facet normal 0.554519 -0.109977 -0.824872
    outer loop
      vertex 372.301 0 -137.014
      vertex 372.301 -15.6234 -134.931
      vertex 369.076 -15.6234 -137.099
    endloop
  endfacet
  facet normal 0.560323 0.109462 -0.821009
    outer loop
      vertex 372.301 15.6234 -134.931
      vertex 375.526 0 -134.813
      vertex 372.301 0 -137.014
    endloop
  endfacet
  facet normal 0.55445 0.108218 -0.825151
    outer loop
      vertex 375.526 15.6234 -132.764
      vertex 375.526 0 -134.813
      vertex 372.301 15.6234 -134.931
    endloop
  endfacet
  facet normal 0.528209 0.321007 -0.786098
    outer loop
      vertex 372.301 30.772 -128.745
      vertex 375.526 15.6234 -132.764
      vertex 372.301 15.6234 -134.931
    endloop
  endfacet
  facet normal 0.511334 0.320417 -0.797415
    outer loop
      vertex 375.526 30.772 -126.677
      vertex 375.526 15.6234 -132.764
      vertex 372.301 30.772 -128.745
    endloop
  endfacet
  facet normal 0.46323 0.513383 -0.722396
    outer loop
      vertex 372.301 30.772 -128.745
      vertex 374.25 36.3938 -123.5
      vertex 375.526 30.772 -126.677
    endloop
  endfacet
  facet normal 0.463352 0.513313 -0.722367
    outer loop
      vertex 374.25 36.3938 -123.5
      vertex 372.301 30.772 -128.745
      vertex 372.301 38.1531 -123.5
    endloop
  endfacet
  facet normal 0.435806 0.515756 -0.737611
    outer loop
      vertex 375.526 35.3156 -123.5
      vertex 375.526 30.772 -126.677
      vertex 374.25 36.3938 -123.5
    endloop
  endfacet
  facet normal 0.463352 -0.513313 -0.722367
    outer loop
      vertex 372.301 -30.772 -128.745
      vertex 374.25 -36.3938 -123.5
      vertex 372.301 -38.1531 -123.5
    endloop
  endfacet
  facet normal 0.46323 -0.513383 -0.722396
    outer loop
      vertex 374.25 -36.3938 -123.5
      vertex 372.301 -30.772 -128.745
      vertex 375.526 -30.772 -126.677
    endloop
  endfacet
  facet normal 0.435806 -0.515756 -0.737611
    outer loop
      vertex 375.526 -30.772 -126.677
      vertex 375.526 -35.3156 -123.5
      vertex 374.25 -36.3938 -123.5
    endloop
  endfacet
  facet normal 0.528209 -0.321007 -0.786098
    outer loop
      vertex 372.301 -15.6234 -134.931
      vertex 375.526 -15.6234 -132.764
      vertex 372.301 -30.772 -128.745
    endloop
  endfacet
  facet normal 0.511334 -0.320417 -0.797415
    outer loop
      vertex 375.526 -15.6234 -132.764
      vertex 375.526 -30.772 -126.677
      vertex 372.301 -30.772 -128.745
    endloop
  endfacet
  facet normal 0.560323 -0.109462 -0.821009
    outer loop
      vertex 372.301 0 -137.014
      vertex 375.526 0 -134.813
      vertex 372.301 -15.6234 -134.931
    endloop
  endfacet
  facet normal 0.55445 -0.108218 -0.825151
    outer loop
      vertex 375.526 0 -134.813
      vertex 375.526 -15.6234 -132.764
      vertex 372.301 -15.6234 -134.931
    endloop
  endfacet
  facet normal 0.560432 0.107696 -0.821169
    outer loop
      vertex 375.526 15.6234 -132.764
      vertex 378.751 0 -132.612
      vertex 375.526 0 -134.813
    endloop
  endfacet
  facet normal 0.554731 0.10648 -0.825188
    outer loop
      vertex 378.751 15.6234 -130.596
      vertex 378.751 0 -132.612
      vertex 375.526 15.6234 -132.764
    endloop
  endfacet
  facet normal 0.529251 0.316346 -0.787285
    outer loop
      vertex 375.526 30.772 -126.677
      vertex 378.751 15.6234 -130.596
      vertex 375.526 15.6234 -132.764
    endloop
  endfacet
  facet normal 0.512192 0.315681 -0.798752
    outer loop
      vertex 378.751 30.772 -124.609
      vertex 378.751 15.6234 -130.596
      vertex 375.526 30.772 -126.677
    endloop
  endfacet
  facet normal 0.465186 0.507275 -0.725448
    outer loop
      vertex 375.526 30.772 -126.677
      vertex 378.297 32.7743 -123.5
      vertex 378.751 30.772 -124.609
    endloop
  endfacet
  facet normal 0.465205 0.507253 -0.72545
    outer loop
      vertex 378.297 32.7743 -123.5
      vertex 375.526 30.772 -126.677
      vertex 375.526 35.3156 -123.5
    endloop
  endfacet
  facet normal 0.438136 0.509513 -0.740563
    outer loop
      vertex 378.751 32.3839 -123.5
      vertex 378.751 30.772 -124.609
      vertex 378.297 32.7743 -123.5
    endloop
  endfacet
  facet normal 0.465205 -0.507253 -0.72545
    outer loop
      vertex 375.526 -30.772 -126.677
      vertex 378.297 -32.7743 -123.5
      vertex 375.526 -35.3156 -123.5
    endloop
  endfacet
  facet normal 0.465186 -0.507275 -0.725448
    outer loop
      vertex 378.297 -32.7743 -123.5
      vertex 375.526 -30.772 -126.677
      vertex 378.751 -30.772 -124.609
    endloop
  endfacet
  facet normal 0.438136 -0.509513 -0.740563
    outer loop
      vertex 378.751 -30.772 -124.609
      vertex 378.751 -32.3839 -123.5
      vertex 378.297 -32.7743 -123.5
    endloop
  endfacet
  facet normal 0.529251 -0.316346 -0.787285
    outer loop
      vertex 375.526 -15.6234 -132.764
      vertex 378.751 -15.6234 -130.596
      vertex 375.526 -30.772 -126.677
    endloop
  endfacet
  facet normal 0.512192 -0.315681 -0.798752
    outer loop
      vertex 378.751 -15.6234 -130.596
      vertex 378.751 -30.772 -124.609
      vertex 375.526 -30.772 -126.677
    endloop
  endfacet
  facet normal 0.560432 -0.107696 -0.821169
    outer loop
      vertex 375.526 0 -134.813
      vertex 378.751 0 -132.612
      vertex 375.526 -15.6234 -132.764
    endloop
  endfacet
  facet normal 0.554731 -0.10648 -0.825188
    outer loop
      vertex 378.751 0 -132.612
      vertex 378.751 -15.6234 -130.596
      vertex 375.526 -15.6234 -132.764
    endloop
  endfacet
  facet normal 0.560536 0.105981 -0.821321
    outer loop
      vertex 378.751 15.6234 -130.596
      vertex 381.976 0 -130.411
      vertex 378.751 0 -132.612
    endloop
  endfacet
  facet normal 0.554833 0.104756 -0.82534
    outer loop
      vertex 381.976 15.6234 -128.428
      vertex 381.976 0 -130.411
      vertex 378.751 15.6234 -130.596
    endloop
  endfacet
  facet normal 0.530116 0.311658 -0.788572
    outer loop
      vertex 378.751 30.772 -124.609
      vertex 381.976 15.6234 -128.428
      vertex 378.751 15.6234 -130.596
    endloop
  endfacet
  facet normal 0.513126 0.310926 -0.800016
    outer loop
      vertex 378.751 30.772 -124.609
      vertex 381.976 28.3032 -123.5
      vertex 381.976 15.6234 -128.428
    endloop
  endfacet
  facet normal 0.513133 0.31094 -0.800007
    outer loop
      vertex 381.976 28.3032 -123.5
      vertex 378.751 30.772 -124.609
      vertex 380.48 30.772 -123.5
    endloop
  endfacet
  facet normal 0.467206 0.501147 -0.728403
    outer loop
      vertex 378.751 32.3839 -123.5
      vertex 380.48 30.772 -123.5
      vertex 378.751 30.772 -124.609
    endloop
  endfacet
  facet normal 0.467206 -0.501147 -0.728403
    outer loop
      vertex 378.751 -30.772 -124.609
      vertex 380.48 -30.772 -123.5
      vertex 378.751 -32.3839 -123.5
    endloop
  endfacet
  facet normal 0.530116 -0.311658 -0.788572
    outer loop
      vertex 378.751 -15.6234 -130.596
      vertex 381.976 -15.6234 -128.428
      vertex 378.751 -30.772 -124.609
    endloop
  endfacet
  facet normal 0.513133 -0.31094 -0.800007
    outer loop
      vertex 378.751 -30.772 -124.609
      vertex 381.976 -28.3032 -123.5
      vertex 380.48 -30.772 -123.5
    endloop
  endfacet
  facet normal 0.513126 -0.310926 -0.800016
    outer loop
      vertex 381.976 -28.3032 -123.5
      vertex 378.751 -30.772 -124.609
      vertex 381.976 -15.6234 -128.428
    endloop
  endfacet
  facet normal 0.560536 -0.105981 -0.821321
    outer loop
      vertex 378.751 0 -132.612
      vertex 381.976 0 -130.411
      vertex 378.751 -15.6234 -130.596
    endloop
  endfacet
  facet normal 0.554833 -0.104756 -0.82534
    outer loop
      vertex 381.976 0 -130.411
      vertex 381.976 -15.6234 -128.428
      vertex 378.751 -15.6234 -130.596
    endloop
  endfacet
  facet normal 0.560638 0.104265 -0.821471
    outer loop
      vertex 381.976 15.6234 -128.428
      vertex 385.201 0 -128.21
      vertex 381.976 0 -130.411
    endloop
  endfacet
  facet normal 0.55476 0.102994 -0.825611
    outer loop
      vertex 385.201 15.6234 -126.261
      vertex 385.201 0 -128.21
      vertex 381.976 15.6234 -128.428
    endloop
  endfacet
  facet normal 0.530792 0.307006 -0.789941
    outer loop
      vertex 381.976 15.6234 -128.428
      vertex 382.808 26.8649 -123.5
      vertex 385.201 15.6234 -126.261
    endloop
  endfacet
  facet normal 0.530752 0.307019 -0.789963
    outer loop
      vertex 382.808 26.8649 -123.5
      vertex 381.976 15.6234 -128.428
      vertex 381.976 28.3032 -123.5
    endloop
  endfacet
  facet normal 0.513973 0.306213 -0.80129
    outer loop
      vertex 385.201 22.8483 -123.5
      vertex 385.201 15.6234 -126.261
      vertex 382.808 26.8649 -123.5
    endloop
  endfacet
  facet normal 0.530752 -0.307019 -0.789963
    outer loop
      vertex 381.976 -15.6234 -128.428
      vertex 382.808 -26.8649 -123.5
      vertex 381.976 -28.3032 -123.5
    endloop
  endfacet
  facet normal 0.530792 -0.307006 -0.789941
    outer loop
      vertex 382.808 -26.8649 -123.5
      vertex 381.976 -15.6234 -128.428
      vertex 385.201 -15.6234 -126.261
    endloop
  endfacet
  facet normal 0.513973 -0.306213 -0.80129
    outer loop
      vertex 385.201 -15.6234 -126.261
      vertex 385.201 -22.8483 -123.5
      vertex 382.808 -26.8649 -123.5
    endloop
  endfacet
  facet normal 0.560638 -0.104265 -0.821471
    outer loop
      vertex 381.976 0 -130.411
      vertex 385.201 0 -128.21
      vertex 381.976 -15.6234 -128.428
    endloop
  endfacet
  facet normal 0.55476 -0.102994 -0.825611
    outer loop
      vertex 385.201 0 -128.21
      vertex 385.201 -15.6234 -126.261
      vertex 381.976 -15.6234 -128.428
    endloop
  endfacet
  facet normal 0.560741 0.102496 -0.821623
    outer loop
      vertex 385.201 15.6234 -126.261
      vertex 388.426 0 -126.009
      vertex 385.201 0 -128.21
    endloop
  endfacet
  facet normal 0.555036 0.101254 -0.825641
    outer loop
      vertex 388.426 15.6234 -124.093
      vertex 388.426 0 -126.009
      vertex 385.201 15.6234 -126.261
    endloop
  endfacet
  facet normal 0.531788 0.302367 -0.79106
    outer loop
      vertex 385.201 15.6234 -126.261
      vertex 387.897 18.1052 -123.5
      vertex 388.426 15.6234 -124.093
    endloop
  endfacet
  facet normal 0.53184 0.3023 -0.79105
    outer loop
      vertex 387.897 18.1052 -123.5
      vertex 385.201 15.6234 -126.261
      vertex 385.201 22.8483 -123.5
    endloop
  endfacet
  facet normal 0.514124 0.301454 -0.802996
    outer loop
      vertex 388.426 17.203 -123.5
      vertex 388.426 15.6234 -124.093
      vertex 387.897 18.1052 -123.5
    endloop
  endfacet
  facet normal 0.53184 -0.3023 -0.79105
    outer loop
      vertex 385.201 -15.6234 -126.261
      vertex 387.897 -18.1052 -123.5
      vertex 385.201 -22.8483 -123.5
    endloop
  endfacet
  facet normal 0.531788 -0.302367 -0.79106
    outer loop
      vertex 387.897 -18.1052 -123.5
      vertex 385.201 -15.6234 -126.261
      vertex 388.426 -15.6234 -124.093
    endloop
  endfacet
  facet normal 0.514124 -0.301454 -0.802996
    outer loop
      vertex 388.426 -15.6234 -124.093
      vertex 388.426 -17.203 -123.5
      vertex 387.897 -18.1052 -123.5
    endloop
  endfacet
  facet normal 0.560741 -0.102496 -0.821623
    outer loop
      vertex 385.201 0 -128.21
      vertex 388.426 0 -126.009
      vertex 385.201 -15.6234 -126.261
    endloop
  endfacet
  facet normal 0.555036 -0.101254 -0.825641
    outer loop
      vertex 388.426 0 -126.009
      vertex 388.426 -15.6234 -124.093
      vertex 385.201 -15.6234 -126.261
    endloop
  endfacet
  facet normal 0.56084 0.100779 -0.821767
    outer loop
      vertex 388.426 15.6234 -124.093
      vertex 391.651 0 -123.808
      vertex 388.426 0 -126.009
    endloop
  endfacet
  facet normal 0.554936 0.0994842 -0.825923
    outer loop
      vertex 388.426 15.6234 -124.093
      vertex 391.651 2.55703 -123.5
      vertex 391.651 0 -123.808
    endloop
  endfacet
  facet normal 0.555181 0.0995525 -0.82575
    outer loop
      vertex 391.651 2.55703 -123.5
      vertex 388.426 15.6234 -124.093
      vertex 389.308 15.6234 -123.5
    endloop
  endfacet
  facet normal 0.5327 0.297443 -0.792312
    outer loop
      vertex 388.426 17.203 -123.5
      vertex 389.308 15.6234 -123.5
      vertex 388.426 15.6234 -124.093
    endloop
  endfacet
  facet normal 0.5327 -0.297443 -0.792312
    outer loop
      vertex 388.426 -15.6234 -124.093
      vertex 389.308 -15.6234 -123.5
      vertex 388.426 -17.203 -123.5
    endloop
  endfacet
  facet normal 0.56084 -0.100779 -0.821767
    outer loop
      vertex 388.426 0 -126.009
      vertex 391.651 0 -123.808
      vertex 388.426 -15.6234 -124.093
    endloop
  endfacet
  facet normal 0.555181 -0.0995525 -0.82575
    outer loop
      vertex 388.426 -15.6234 -124.093
      vertex 391.651 -2.55703 -123.5
      vertex 389.308 -15.6234 -123.5
    endloop
  endfacet
  facet normal 0.554936 -0.0994842 -0.825923
    outer loop
      vertex 391.651 -2.55703 -123.5
      vertex 388.426 -15.6234 -124.093
      vertex 391.651 0 -123.808
    endloop
  endfacet
  facet normal 0.561192 0.0989811 -0.821746
    outer loop
      vertex 391.651 2.55703 -123.5
      vertex 392.102 0 -123.5
      vertex 391.651 0 -123.808
    endloop
  endfacet
  facet normal 0.561192 -0.0989811 -0.821746
    outer loop
      vertex 391.651 0 -123.808
      vertex 392.102 0 -123.5
      vertex 391.651 -2.55703 -123.5
    endloop
  endfacet
  facet normal 0 -0.422301 0.906456
    outer loop
      vertex 339.375 2.5 -146.83
      vertex 357.019 1.7101 -147.198
      vertex 357.392 2.5 -146.83
    endloop
  endfacet
  facet normal 0 -0.422301 0.906456
    outer loop
      vertex 357.019 1.7101 -147.198
      vertex 339.375 2.5 -146.83
      vertex 339.375 1.7101 -147.198
    endloop
  endfacet
  facet normal 0 0.0872 -0.996191
    outer loop
      vertex 339.375 0 -137.5
      vertex 371.306 -0.86824 -137.576
      vertex 339.375 -0.86824 -137.576
    endloop
  endfacet
  facet normal 0 0.0872 -0.996191
    outer loop
      vertex 371.306 -0.86824 -137.576
      vertex 339.375 0 -137.5
      vertex 371.589 0 -137.5
    endloop
  endfacet
  facet normal 0 -0.966101 0.258166
    outer loop
      vertex 339.375 4.92404 -143.368
      vertex 361.623 4.85857 -143.613
      vertex 361.973 4.92404 -143.368
    endloop
  endfacet
  facet normal 0 -0.965935 0.258783
    outer loop
      vertex 360.781 4.69846 -144.21
      vertex 339.375 4.92404 -143.368
      vertex 339.375 4.69846 -144.21
    endloop
  endfacet
  facet normal 1.01225e-05 -0.965871 0.259024
    outer loop
      vertex 339.375 4.92404 -143.368
      vertex 360.781 4.69846 -144.21
      vertex 361.623 4.85857 -143.613
    endloop
  endfacet
  facet normal 0 0.573649 0.819101
    outer loop
      vertex 339.375 -3.21394 -146.33
      vertex 357.392 -2.5 -146.83
      vertex 339.375 -2.5 -146.83
    endloop
  endfacet
  facet normal 0 0.573649 0.819101
    outer loop
      vertex 357.392 -2.5 -146.83
      vertex 339.375 -3.21394 -146.33
      vertex 357.973 -3.21394 -146.33
    endloop
  endfacet
  facet normal 0 -0.96592 -0.258842
    outer loop
      vertex 339.375 4.69846 -140.79
      vertex 364.846 4.86782 -141.422
      vertex 365.821 4.69846 -140.79
    endloop
  endfacet
  facet normal -0 -0.965935 -0.258783
    outer loop
      vertex 364.527 4.92404 -141.632
      vertex 339.375 4.69846 -140.79
      vertex 339.375 4.92404 -141.632
    endloop
  endfacet
  facet normal 6.01462e-06 -0.96598 -0.258616
    outer loop
      vertex 339.375 4.69846 -140.79
      vertex 364.527 4.92404 -141.632
      vertex 364.846 4.86782 -141.422
    endloop
  endfacet
  facet normal 0 0.966101 0.258166
    outer loop
      vertex 361.623 -4.85857 -143.613
      vertex 339.375 -4.92404 -143.368
      vertex 361.973 -4.92404 -143.368
    endloop
  endfacet
  facet normal 1.01225e-05 0.965871 0.259024
    outer loop
      vertex 360.781 -4.69846 -144.21
      vertex 339.375 -4.92404 -143.368
      vertex 361.623 -4.85857 -143.613
    endloop
  endfacet
  facet normal 0 0.965935 0.258783
    outer loop
      vertex 339.375 -4.92404 -143.368
      vertex 360.781 -4.69846 -144.21
      vertex 339.375 -4.69846 -144.21
    endloop
  endfacet
  facet normal 0 -0.0872 0.996191
    outer loop
      vertex 339.375 0 -147.5
      vertex 356.866 0.86824 -147.424
      vertex 339.375 0.86824 -147.424
    endloop
  endfacet
  facet normal 0 -0.0872 0.996191
    outer loop
      vertex 356.866 0.86824 -147.424
      vertex 339.375 0 -147.5
      vertex 356.938 0 -147.5
    endloop
  endfacet
  facet normal 0 -0.259273 -0.965804
    outer loop
      vertex 339.375 0.86824 -137.576
      vertex 370.808 1.7101 -137.802
      vertex 371.306 0.86824 -137.576
    endloop
  endfacet
  facet normal -0 -0.259273 -0.965804
    outer loop
      vertex 370.808 1.7101 -137.802
      vertex 339.375 0.86824 -137.576
      vertex 339.375 1.7101 -137.802
    endloop
  endfacet
  facet normal 0 -0.996196 0.0871436
    outer loop
      vertex 339.375 5 -142.5
      vertex 362.626 4.96291 -142.924
      vertex 363.24 5 -142.5
    endloop
  endfacet
  facet normal 0 -0.996193 0.0871783
    outer loop
      vertex 361.973 4.92404 -143.368
      vertex 339.375 5 -142.5
      vertex 339.375 4.92404 -143.368
    endloop
  endfacet
  facet normal 1.21419e-06 -0.99619 0.0872097
    outer loop
      vertex 339.375 5 -142.5
      vertex 361.973 4.92404 -143.368
      vertex 362.626 4.96291 -142.924
    endloop
  endfacet
  facet normal -0 0.0872 0.996191
    outer loop
      vertex 339.375 0 -147.5
      vertex 356.866 -0.86824 -147.424
      vertex 356.938 0 -147.5
    endloop
  endfacet
  facet normal 0 0.0872 0.996191
    outer loop
      vertex 356.866 -0.86824 -147.424
      vertex 339.375 0 -147.5
      vertex 339.375 -0.86824 -147.424
    endloop
  endfacet
  facet normal 0 0.706946 0.707267
    outer loop
      vertex 339.375 -3.83022 -145.714
      vertex 357.973 -3.21394 -146.33
      vertex 339.375 -3.21394 -146.33
    endloop
  endfacet
  facet normal 9.55196e-06 0.706802 0.707412
    outer loop
      vertex 357.973 -3.21394 -146.33
      vertex 339.375 -3.83022 -145.714
      vertex 358.63 -3.7374 -145.807
    endloop
  endfacet
  facet normal 0 0.707791 0.706421
    outer loop
      vertex 358.63 -3.7374 -145.807
      vertex 339.375 -3.83022 -145.714
      vertex 358.748 -3.83022 -145.714
    endloop
  endfacet
  facet normal 0 0.259273 0.965804
    outer loop
      vertex 339.375 -1.7101 -147.198
      vertex 356.866 -0.86824 -147.424
      vertex 339.375 -0.86824 -147.424
    endloop
  endfacet
  facet normal 0 0.259273 0.965804
    outer loop
      vertex 356.866 -0.86824 -147.424
      vertex 339.375 -1.7101 -147.198
      vertex 357.019 -1.7101 -147.198
    endloop
  endfacet
  facet normal 0 -0.819571 0.572978
    outer loop
      vertex 339.375 4.33013 -145
      vertex 359.401 4.17143 -145.227
      vertex 359.7 4.33013 -145
    endloop
  endfacet
  facet normal 0 -0.819173 0.573547
    outer loop
      vertex 358.748 3.83022 -145.714
      vertex 339.375 4.33013 -145
      vertex 339.375 3.83022 -145.714
    endloop
  endfacet
  facet normal 1.38778e-05 -0.818996 0.5738
    outer loop
      vertex 339.375 4.33013 -145
      vertex 358.748 3.83022 -145.714
      vertex 359.401 4.17143 -145.227
    endloop
  endfacet
  facet normal 0 0.906331 0.422568
    outer loop
      vertex 359.7 -4.33013 -145
      vertex 339.375 -4.69846 -144.21
      vertex 360.781 -4.69846 -144.21
    endloop
  endfacet
  facet normal 0 0.906331 0.422568
    outer loop
      vertex 339.375 -4.69846 -144.21
      vertex 359.7 -4.33013 -145
      vertex 339.375 -4.33013 -145
    endloop
  endfacet
  facet normal 0 -0.259273 0.965804
    outer loop
      vertex 339.375 1.7101 -147.198
      vertex 356.866 0.86824 -147.424
      vertex 357.019 1.7101 -147.198
    endloop
  endfacet
  facet normal 0 -0.259273 0.965804
    outer loop
      vertex 356.866 0.86824 -147.424
      vertex 339.375 1.7101 -147.198
      vertex 339.375 0.86824 -147.424
    endloop
  endfacet
  facet normal 0 0.996196 0.0871436
    outer loop
      vertex 362.626 -4.96291 -142.924
      vertex 339.375 -5 -142.5
      vertex 363.24 -5 -142.5
    endloop
  endfacet
  facet normal 1.21419e-06 0.99619 0.0872097
    outer loop
      vertex 361.973 -4.92404 -143.368
      vertex 339.375 -5 -142.5
      vertex 362.626 -4.96291 -142.924
    endloop
  endfacet
  facet normal 0 0.996193 0.0871783
    outer loop
      vertex 339.375 -5 -142.5
      vertex 361.973 -4.92404 -143.368
      vertex 339.375 -4.92404 -143.368
    endloop
  endfacet
  facet normal 0 0.819571 0.572978
    outer loop
      vertex 359.401 -4.17143 -145.227
      vertex 339.375 -4.33013 -145
      vertex 359.7 -4.33013 -145
    endloop
  endfacet
  facet normal 1.38778e-05 0.818996 0.5738
    outer loop
      vertex 358.748 -3.83022 -145.714
      vertex 339.375 -4.33013 -145
      vertex 359.401 -4.17143 -145.227
    endloop
  endfacet
  facet normal 0 0.819173 0.573547
    outer loop
      vertex 339.375 -4.33013 -145
      vertex 358.748 -3.83022 -145.714
      vertex 339.375 -3.83022 -145.714
    endloop
  endfacet
  facet normal -0 -0.819173 -0.573547
    outer loop
      vertex 367.053 4.33013 -140
      vertex 339.375 3.83022 -139.286
      vertex 339.375 4.33013 -140
    endloop
  endfacet
  facet normal 0 -0.819173 -0.573547
    outer loop
      vertex 339.375 3.83022 -139.286
      vertex 367.053 4.33013 -140
      vertex 368.2 3.83022 -139.286
    endloop
  endfacet
  facet normal 0 -0.573649 0.819101
    outer loop
      vertex 339.375 3.21394 -146.33
      vertex 357.392 2.5 -146.83
      vertex 357.973 3.21394 -146.33
    endloop
  endfacet
  facet normal 0 -0.573649 0.819101
    outer loop
      vertex 357.392 2.5 -146.83
      vertex 339.375 3.21394 -146.33
      vertex 339.375 2.5 -146.83
    endloop
  endfacet
  facet normal 0 -0.906291 -0.422654
    outer loop
      vertex 339.375 4.33013 -140
      vertex 365.851 4.68969 -140.771
      vertex 367.053 4.33013 -140
    endloop
  endfacet
  facet normal -0 -0.906331 -0.422568
    outer loop
      vertex 365.821 4.69846 -140.79
      vertex 339.375 4.33013 -140
      vertex 339.375 4.69846 -140.79
    endloop
  endfacet
  facet normal 0.000120728 -0.907873 -0.419246
    outer loop
      vertex 339.375 4.33013 -140
      vertex 365.821 4.69846 -140.79
      vertex 365.851 4.68969 -140.771
    endloop
  endfacet
  facet normal 0 0.422301 0.906456
    outer loop
      vertex 339.375 -2.5 -146.83
      vertex 357.019 -1.7101 -147.198
      vertex 339.375 -1.7101 -147.198
    endloop
  endfacet
  facet normal 0 0.422301 0.906456
    outer loop
      vertex 357.019 -1.7101 -147.198
      vertex 339.375 -2.5 -146.83
      vertex 357.392 -2.5 -146.83
    endloop
  endfacet
  facet normal 0 0.422301 -0.906456
    outer loop
      vertex 339.375 -1.7101 -137.802
      vertex 370.112 -2.5 -138.17
      vertex 339.375 -2.5 -138.17
    endloop
  endfacet
  facet normal 0 0.422301 -0.906456
    outer loop
      vertex 370.112 -2.5 -138.17
      vertex 339.375 -1.7101 -137.802
      vertex 370.808 -1.7101 -137.802
    endloop
  endfacet
  facet normal 0 -0.707791 0.706421
    outer loop
      vertex 339.375 3.83022 -145.714
      vertex 358.63 3.7374 -145.807
      vertex 358.748 3.83022 -145.714
    endloop
  endfacet
  facet normal 9.55196e-06 -0.706802 0.707412
    outer loop
      vertex 339.375 3.83022 -145.714
      vertex 357.973 3.21394 -146.33
      vertex 358.63 3.7374 -145.807
    endloop
  endfacet
  facet normal 0 -0.706946 0.707267
    outer loop
      vertex 357.973 3.21394 -146.33
      vertex 339.375 3.83022 -145.714
      vertex 339.375 3.21394 -146.33
    endloop
  endfacet
  facet normal 0 0.996193 -0.0871783
    outer loop
      vertex 363.24 -5 -142.5
      vertex 339.375 -4.92404 -141.632
      vertex 364.527 -4.92404 -141.632
    endloop
  endfacet
  facet normal 0 0.996193 -0.0871783
    outer loop
      vertex 339.375 -4.92404 -141.632
      vertex 363.24 -5 -142.5
      vertex 339.375 -5 -142.5
    endloop
  endfacet
  facet normal -0 -0.996193 -0.0871783
    outer loop
      vertex 363.24 5 -142.5
      vertex 339.375 4.92404 -141.632
      vertex 339.375 5 -142.5
    endloop
  endfacet
  facet normal 0 -0.996193 -0.0871783
    outer loop
      vertex 339.375 4.92404 -141.632
      vertex 363.24 5 -142.5
      vertex 364.527 4.92404 -141.632
    endloop
  endfacet
  facet normal 0 -0.906331 0.422568
    outer loop
      vertex 359.7 4.33013 -145
      vertex 339.375 4.69846 -144.21
      vertex 339.375 4.33013 -145
    endloop
  endfacet
  facet normal 0 -0.906331 0.422568
    outer loop
      vertex 339.375 4.69846 -144.21
      vertex 359.7 4.33013 -145
      vertex 360.781 4.69846 -144.21
    endloop
  endfacet
  facet normal 0 -0.573649 -0.819101
    outer loop
      vertex 339.375 2.5 -138.17
      vertex 369.238 3.21394 -138.67
      vertex 370.112 2.5 -138.17
    endloop
  endfacet
  facet normal -0 -0.573649 -0.819101
    outer loop
      vertex 369.238 3.21394 -138.67
      vertex 339.375 2.5 -138.17
      vertex 339.375 3.21394 -138.67
    endloop
  endfacet
  facet normal 0 0.819173 -0.573547
    outer loop
      vertex 367.053 -4.33013 -140
      vertex 339.375 -3.83022 -139.286
      vertex 368.2 -3.83022 -139.286
    endloop
  endfacet
  facet normal 0 0.819173 -0.573547
    outer loop
      vertex 339.375 -3.83022 -139.286
      vertex 367.053 -4.33013 -140
      vertex 339.375 -4.33013 -140
    endloop
  endfacet
  facet normal 0 0.259273 -0.965804
    outer loop
      vertex 339.375 -0.86824 -137.576
      vertex 370.808 -1.7101 -137.802
      vertex 339.375 -1.7101 -137.802
    endloop
  endfacet
  facet normal 0 0.259273 -0.965804
    outer loop
      vertex 370.808 -1.7101 -137.802
      vertex 339.375 -0.86824 -137.576
      vertex 371.306 -0.86824 -137.576
    endloop
  endfacet
  facet normal 0 -0.706852 -0.707362
    outer loop
      vertex 339.375 3.21394 -138.67
      vertex 369.076 3.31101 -138.767
      vertex 369.238 3.21394 -138.67
    endloop
  endfacet
  facet normal 2.20566e-06 -0.707189 -0.707024
    outer loop
      vertex 339.375 3.21394 -138.67
      vertex 368.298 3.7719 -139.228
      vertex 369.076 3.31101 -138.767
    endloop
  endfacet
  facet normal -0 -0.706946 -0.707267
    outer loop
      vertex 368.2 3.83022 -139.286
      vertex 339.375 3.21394 -138.67
      vertex 339.375 3.83022 -139.286
    endloop
  endfacet
  facet normal -7.36399e-05 -0.705221 -0.708987
    outer loop
      vertex 339.375 3.21394 -138.67
      vertex 368.2 3.83022 -139.286
      vertex 368.298 3.7719 -139.228
    endloop
  endfacet
  facet normal 0 0.706852 -0.707362
    outer loop
      vertex 369.076 -3.31101 -138.767
      vertex 339.375 -3.21394 -138.67
      vertex 369.238 -3.21394 -138.67
    endloop
  endfacet
  facet normal 2.20566e-06 0.707189 -0.707024
    outer loop
      vertex 368.298 -3.7719 -139.228
      vertex 339.375 -3.21394 -138.67
      vertex 369.076 -3.31101 -138.767
    endloop
  endfacet
  facet normal -7.36399e-05 0.705221 -0.708987
    outer loop
      vertex 368.2 -3.83022 -139.286
      vertex 339.375 -3.21394 -138.67
      vertex 368.298 -3.7719 -139.228
    endloop
  endfacet
  facet normal 0 0.706946 -0.707267
    outer loop
      vertex 339.375 -3.21394 -138.67
      vertex 368.2 -3.83022 -139.286
      vertex 339.375 -3.83022 -139.286
    endloop
  endfacet
  facet normal 0 0.573649 -0.819101
    outer loop
      vertex 339.375 -2.5 -138.17
      vertex 369.238 -3.21394 -138.67
      vertex 339.375 -3.21394 -138.67
    endloop
  endfacet
  facet normal 0 0.573649 -0.819101
    outer loop
      vertex 369.238 -3.21394 -138.67
      vertex 339.375 -2.5 -138.17
      vertex 370.112 -2.5 -138.17
    endloop
  endfacet
  facet normal 0 -0.422301 -0.906456
    outer loop
      vertex 339.375 1.7101 -137.802
      vertex 370.112 2.5 -138.17
      vertex 370.808 1.7101 -137.802
    endloop
  endfacet
  facet normal -0 -0.422301 -0.906456
    outer loop
      vertex 370.112 2.5 -138.17
      vertex 339.375 1.7101 -137.802
      vertex 339.375 2.5 -138.17
    endloop
  endfacet
  facet normal 0 0.96592 -0.258842
    outer loop
      vertex 364.846 -4.86782 -141.422
      vertex 339.375 -4.69846 -140.79
      vertex 365.821 -4.69846 -140.79
    endloop
  endfacet
  facet normal 6.01462e-06 0.96598 -0.258616
    outer loop
      vertex 364.527 -4.92404 -141.632
      vertex 339.375 -4.69846 -140.79
      vertex 364.846 -4.86782 -141.422
    endloop
  endfacet
  facet normal 0 0.965935 -0.258783
    outer loop
      vertex 339.375 -4.69846 -140.79
      vertex 364.527 -4.92404 -141.632
      vertex 339.375 -4.92404 -141.632
    endloop
  endfacet
  facet normal 0 0.906291 -0.422654
    outer loop
      vertex 365.851 -4.68969 -140.771
      vertex 339.375 -4.33013 -140
      vertex 367.053 -4.33013 -140
    endloop
  endfacet
  facet normal 0.000120728 0.907873 -0.419246
    outer loop
      vertex 365.821 -4.69846 -140.79
      vertex 339.375 -4.33013 -140
      vertex 365.851 -4.68969 -140.771
    endloop
  endfacet
  facet normal 0 0.906331 -0.422568
    outer loop
      vertex 339.375 -4.33013 -140
      vertex 365.821 -4.69846 -140.79
      vertex 339.375 -4.69846 -140.79
    endloop
  endfacet
  facet normal 0 -0.0872 -0.996191
    outer loop
      vertex 339.375 0 -137.5
      vertex 371.306 0.86824 -137.576
      vertex 371.589 0 -137.5
    endloop
  endfacet
  facet normal -0 -0.0872 -0.996191
    outer loop
      vertex 371.306 0.86824 -137.576
      vertex 339.375 0 -137.5
      vertex 339.375 0.86824 -137.576
    endloop
  endfacet
endsolid OpenSCAD_Model
