solid OpenSCAD_Model
  facet normal 0 -0.172189 -0.985064
    outer loop
      vertex 150 -2.5 -189.563
      vertex 288 0 -190
      vertex 288 -2.5 -189.563
    endloop
  endfacet
  facet normal -0 -0.172189 -0.985064
    outer loop
      vertex 288 0 -190
      vertex 150 -2.5 -189.563
      vertex 150 0 -190
    endloop
  endfacet
  facet normal 0 0.172189 -0.985064
    outer loop
      vertex 150 0 -190
      vertex 288 2.5 -189.563
      vertex 288 0 -190
    endloop
  endfacet
  facet normal 0 0.172189 -0.985064
    outer loop
      vertex 288 2.5 -189.563
      vertex 150 0 -190
      vertex 150 2.5 -189.563
    endloop
  endfacet
  facet normal -0 0.172189 0.985064
    outer loop
      vertex 150 0 -179.83
      vertex 288 -2.5 -179.393
      vertex 288 0 -179.83
    endloop
  endfacet
  facet normal 0 0.172189 0.985064
    outer loop
      vertex 288 -2.5 -179.393
      vertex 150 0 -179.83
      vertex 150 -2.5 -179.393
    endloop
  endfacet
  facet normal 0 -0.172189 0.985064
    outer loop
      vertex 150 2.5 -179.393
      vertex 288 0 -179.83
      vertex 288 2.5 -179.393
    endloop
  endfacet
  facet normal 0 -0.172189 0.985064
    outer loop
      vertex 288 0 -179.83
      vertex 150 2.5 -179.393
      vertex 150 0 -179.83
    endloop
  endfacet
  facet normal 0 -0.906008 -0.42326
    outer loop
      vertex 150 1.2216 -187.055
      vertex 160 1.12583 -186.85
      vertex 150 1.12583 -186.85
    endloop
  endfacet
  facet normal 0 -0.906008 -0.42326
    outer loop
      vertex 160 1.12583 -186.85
      vertex 150 1.2216 -187.055
      vertex 160 1.2216 -187.055
    endloop
  endfacet
  facet normal 0 -0.96596 -0.258692
    outer loop
      vertex 150 1.28025 -187.274
      vertex 160 1.2216 -187.055
      vertex 150 1.2216 -187.055
    endloop
  endfacet
  facet normal 0 -0.96596 -0.258692
    outer loop
      vertex 160 1.2216 -187.055
      vertex 150 1.28025 -187.274
      vertex 160 1.28025 -187.274
    endloop
  endfacet
  facet normal 0 -0.423461 0.905915
    outer loop
      vertex 150 0.65 -188.626
      vertex 160 0.444626 -188.722
      vertex 160 0.65 -188.626
    endloop
  endfacet
  facet normal 0 -0.423461 0.905915
    outer loop
      vertex 160 0.444626 -188.722
      vertex 150 0.65 -188.626
      vertex 150 0.444626 -188.722
    endloop
  endfacet
  facet normal -0 0.423461 0.905915
    outer loop
      vertex 150 -0.444626 -188.722
      vertex 160 -0.65 -188.626
      vertex 160 -0.444626 -188.722
    endloop
  endfacet
  facet normal 0 0.423461 0.905915
    outer loop
      vertex 160 -0.65 -188.626
      vertex 150 -0.444626 -188.722
      vertex 150 -0.65 -188.626
    endloop
  endfacet
  facet normal -0 0.088251 0.996098
    outer loop
      vertex 150 0 -188.8
      vertex 160 -0.225742 -188.78
      vertex 160 0 -188.8
    endloop
  endfacet
  facet normal 0 0.088251 0.996098
    outer loop
      vertex 160 -0.225742 -188.78
      vertex 150 0 -188.8
      vertex 150 -0.225742 -188.78
    endloop
  endfacet
  facet normal 0 -0.088251 0.996098
    outer loop
      vertex 150 0.225742 -188.78
      vertex 160 0 -188.8
      vertex 160 0.225742 -188.78
    endloop
  endfacet
  facet normal 0 -0.088251 0.996098
    outer loop
      vertex 160 0 -188.8
      vertex 150 0.225742 -188.78
      vertex 150 0 -188.8
    endloop
  endfacet
  facet normal 0 -0.573649 0.819101
    outer loop
      vertex 150 0.835624 -188.496
      vertex 160 0.65 -188.626
      vertex 160 0.835624 -188.496
    endloop
  endfacet
  facet normal 0 -0.573649 0.819101
    outer loop
      vertex 160 0.65 -188.626
      vertex 150 0.835624 -188.496
      vertex 150 0.65 -188.626
    endloop
  endfacet
  facet normal 0 -0.706592 -0.707621
    outer loop
      vertex 150 0.835624 -186.504
      vertex 160 0.995857 -186.664
      vertex 160 0.835624 -186.504
    endloop
  endfacet
  facet normal -0 -0.706592 -0.707621
    outer loop
      vertex 160 0.995857 -186.664
      vertex 150 0.835624 -186.504
      vertex 150 0.995857 -186.664
    endloop
  endfacet
  facet normal 0 -0.996203 -0.0870576
    outer loop
      vertex 150 1.3 -187.5
      vertex 160 1.28025 -187.274
      vertex 150 1.28025 -187.274
    endloop
  endfacet
  facet normal 0 -0.996203 -0.0870576
    outer loop
      vertex 160 1.28025 -187.274
      vertex 150 1.3 -187.5
      vertex 160 1.3 -187.5
    endloop
  endfacet
  facet normal 0 -0.819702 -0.572791
    outer loop
      vertex 150 1.12583 -186.85
      vertex 160 0.995857 -186.664
      vertex 150 0.995857 -186.664
    endloop
  endfacet
  facet normal 0 -0.819702 -0.572791
    outer loop
      vertex 160 0.995857 -186.664
      vertex 150 1.12583 -186.85
      vertex 160 1.12583 -186.85
    endloop
  endfacet
  facet normal -0 0.573649 0.819101
    outer loop
      vertex 150 -0.65 -188.626
      vertex 160 -0.835624 -188.496
      vertex 160 -0.65 -188.626
    endloop
  endfacet
  facet normal 0 0.573649 0.819101
    outer loop
      vertex 160 -0.835624 -188.496
      vertex 150 -0.65 -188.626
      vertex 150 -0.835624 -188.496
    endloop
  endfacet
  facet normal -0 0.706592 0.707621
    outer loop
      vertex 150 -0.835624 -188.496
      vertex 160 -0.995857 -188.336
      vertex 160 -0.835624 -188.496
    endloop
  endfacet
  facet normal 0 0.706592 0.707621
    outer loop
      vertex 160 -0.995857 -188.336
      vertex 150 -0.835624 -188.496
      vertex 150 -0.995857 -188.336
    endloop
  endfacet
  facet normal -0 0.256141 0.96664
    outer loop
      vertex 150 -0.225742 -188.78
      vertex 160 -0.444626 -188.722
      vertex 160 -0.225742 -188.78
    endloop
  endfacet
  facet normal 0 0.256141 0.96664
    outer loop
      vertex 160 -0.444626 -188.722
      vertex 150 -0.225742 -188.78
      vertex 150 -0.444626 -188.722
    endloop
  endfacet
  facet normal 0 0.819702 0.572791
    outer loop
      vertex 160 -0.995857 -188.336
      vertex 150 -1.12583 -188.15
      vertex 160 -1.12583 -188.15
    endloop
  endfacet
  facet normal 0 0.819702 0.572791
    outer loop
      vertex 150 -1.12583 -188.15
      vertex 160 -0.995857 -188.336
      vertex 150 -0.995857 -188.336
    endloop
  endfacet
  facet normal 0 0.819702 -0.572791
    outer loop
      vertex 160 -1.12583 -186.85
      vertex 150 -0.995857 -186.664
      vertex 160 -0.995857 -186.664
    endloop
  endfacet
  facet normal 0 0.819702 -0.572791
    outer loop
      vertex 150 -0.995857 -186.664
      vertex 160 -1.12583 -186.85
      vertex 150 -1.12583 -186.85
    endloop
  endfacet
  facet normal 0 0.906008 0.42326
    outer loop
      vertex 160 -1.12583 -188.15
      vertex 150 -1.2216 -187.945
      vertex 160 -1.2216 -187.945
    endloop
  endfacet
  facet normal 0 0.906008 0.42326
    outer loop
      vertex 150 -1.2216 -187.945
      vertex 160 -1.12583 -188.15
      vertex 150 -1.12583 -188.15
    endloop
  endfacet
  facet normal 0 -0.256141 0.96664
    outer loop
      vertex 150 0.444626 -188.722
      vertex 160 0.225742 -188.78
      vertex 160 0.444626 -188.722
    endloop
  endfacet
  facet normal 0 -0.256141 0.96664
    outer loop
      vertex 160 0.225742 -188.78
      vertex 150 0.444626 -188.722
      vertex 150 0.225742 -188.78
    endloop
  endfacet
  facet normal 0 -0.906008 0.42326
    outer loop
      vertex 150 1.12583 -188.15
      vertex 160 1.2216 -187.945
      vertex 150 1.2216 -187.945
    endloop
  endfacet
  facet normal 0 -0.906008 0.42326
    outer loop
      vertex 160 1.2216 -187.945
      vertex 150 1.12583 -188.15
      vertex 160 1.12583 -188.15
    endloop
  endfacet
  facet normal 0 -0.256141 -0.96664
    outer loop
      vertex 150 0.225742 -186.22
      vertex 160 0.444626 -186.278
      vertex 160 0.225742 -186.22
    endloop
  endfacet
  facet normal -0 -0.256141 -0.96664
    outer loop
      vertex 160 0.444626 -186.278
      vertex 150 0.225742 -186.22
      vertex 150 0.444626 -186.278
    endloop
  endfacet
  facet normal 0 0.423461 -0.905915
    outer loop
      vertex 150 -0.65 -186.374
      vertex 160 -0.444626 -186.278
      vertex 160 -0.65 -186.374
    endloop
  endfacet
  facet normal 0 0.423461 -0.905915
    outer loop
      vertex 160 -0.444626 -186.278
      vertex 150 -0.65 -186.374
      vertex 150 -0.444626 -186.278
    endloop
  endfacet
  facet normal 0 -0.706592 0.707621
    outer loop
      vertex 150 0.995857 -188.336
      vertex 160 0.835624 -188.496
      vertex 160 0.995857 -188.336
    endloop
  endfacet
  facet normal 0 -0.706592 0.707621
    outer loop
      vertex 160 0.835624 -188.496
      vertex 150 0.995857 -188.336
      vertex 150 0.835624 -188.496
    endloop
  endfacet
  facet normal 0 -0.819702 0.572791
    outer loop
      vertex 150 0.995857 -188.336
      vertex 160 1.12583 -188.15
      vertex 150 1.12583 -188.15
    endloop
  endfacet
  facet normal 0 -0.819702 0.572791
    outer loop
      vertex 160 1.12583 -188.15
      vertex 150 0.995857 -188.336
      vertex 160 0.995857 -188.336
    endloop
  endfacet
  facet normal 0 0.96596 -0.258692
    outer loop
      vertex 160 -1.28025 -187.274
      vertex 150 -1.2216 -187.055
      vertex 160 -1.2216 -187.055
    endloop
  endfacet
  facet normal 0 0.96596 -0.258692
    outer loop
      vertex 150 -1.2216 -187.055
      vertex 160 -1.28025 -187.274
      vertex 150 -1.28025 -187.274
    endloop
  endfacet
  facet normal 0 0.706592 -0.707621
    outer loop
      vertex 150 -0.995857 -186.664
      vertex 160 -0.835624 -186.504
      vertex 160 -0.995857 -186.664
    endloop
  endfacet
  facet normal 0 0.706592 -0.707621
    outer loop
      vertex 160 -0.835624 -186.504
      vertex 150 -0.995857 -186.664
      vertex 150 -0.835624 -186.504
    endloop
  endfacet
  facet normal 0 -0.573649 -0.819101
    outer loop
      vertex 150 0.65 -186.374
      vertex 160 0.835624 -186.504
      vertex 160 0.65 -186.374
    endloop
  endfacet
  facet normal -0 -0.573649 -0.819101
    outer loop
      vertex 160 0.835624 -186.504
      vertex 150 0.65 -186.374
      vertex 150 0.835624 -186.504
    endloop
  endfacet
  facet normal 0 0.96596 0.258692
    outer loop
      vertex 160 -1.2216 -187.945
      vertex 150 -1.28025 -187.726
      vertex 160 -1.28025 -187.726
    endloop
  endfacet
  facet normal 0 0.96596 0.258692
    outer loop
      vertex 150 -1.28025 -187.726
      vertex 160 -1.2216 -187.945
      vertex 150 -1.2216 -187.945
    endloop
  endfacet
  facet normal 0 0.996203 0.0870576
    outer loop
      vertex 160 -1.28025 -187.726
      vertex 150 -1.3 -187.5
      vertex 160 -1.3 -187.5
    endloop
  endfacet
  facet normal 0 0.996203 0.0870576
    outer loop
      vertex 150 -1.3 -187.5
      vertex 160 -1.28025 -187.726
      vertex 150 -1.28025 -187.726
    endloop
  endfacet
  facet normal 0 0.088251 -0.996098
    outer loop
      vertex 150 -0.225742 -186.22
      vertex 160 0 -186.2
      vertex 160 -0.225742 -186.22
    endloop
  endfacet
  facet normal 0 0.088251 -0.996098
    outer loop
      vertex 160 0 -186.2
      vertex 150 -0.225742 -186.22
      vertex 150 0 -186.2
    endloop
  endfacet
  facet normal 0 0.573649 -0.819101
    outer loop
      vertex 150 -0.835624 -186.504
      vertex 160 -0.65 -186.374
      vertex 160 -0.835624 -186.504
    endloop
  endfacet
  facet normal 0 0.573649 -0.819101
    outer loop
      vertex 160 -0.65 -186.374
      vertex 150 -0.835624 -186.504
      vertex 150 -0.65 -186.374
    endloop
  endfacet
  facet normal 0 -0.996203 0.0870576
    outer loop
      vertex 150 1.28025 -187.726
      vertex 160 1.3 -187.5
      vertex 150 1.3 -187.5
    endloop
  endfacet
  facet normal 0 -0.996203 0.0870576
    outer loop
      vertex 160 1.3 -187.5
      vertex 150 1.28025 -187.726
      vertex 160 1.28025 -187.726
    endloop
  endfacet
  facet normal -1 0 0
    outer loop
      vertex 160 1.28025 -187.726
      vertex 160 1.28025 -187.274
      vertex 160 1.3 -187.5
    endloop
  endfacet
  facet normal -1 0 0
    outer loop
      vertex 160 1.2216 -187.945
      vertex 160 1.28025 -187.274
      vertex 160 1.28025 -187.726
    endloop
  endfacet
  facet normal -1 0 0
    outer loop
      vertex 160 1.2216 -187.945
      vertex 160 1.2216 -187.055
      vertex 160 1.28025 -187.274
    endloop
  endfacet
  facet normal -1 0 0
    outer loop
      vertex 160 1.12583 -188.15
      vertex 160 1.2216 -187.055
      vertex 160 1.2216 -187.945
    endloop
  endfacet
  facet normal -1 0 0
    outer loop
      vertex 160 1.12583 -188.15
      vertex 160 1.12583 -186.85
      vertex 160 1.2216 -187.055
    endloop
  endfacet
  facet normal -1 0 0
    outer loop
      vertex 160 0.995857 -188.336
      vertex 160 1.12583 -186.85
      vertex 160 1.12583 -188.15
    endloop
  endfacet
  facet normal -1 0 0
    outer loop
      vertex 160 0.995857 -188.336
      vertex 160 0.995857 -186.664
      vertex 160 1.12583 -186.85
    endloop
  endfacet
  facet normal -1 0 0
    outer loop
      vertex 160 0.835624 -188.496
      vertex 160 0.995857 -186.664
      vertex 160 0.995857 -188.336
    endloop
  endfacet
  facet normal -1 0 0
    outer loop
      vertex 160 0.835624 -188.496
      vertex 160 0.835624 -186.504
      vertex 160 0.995857 -186.664
    endloop
  endfacet
  facet normal -1 0 0
    outer loop
      vertex 160 0.65 -188.626
      vertex 160 0.835624 -186.504
      vertex 160 0.835624 -188.496
    endloop
  endfacet
  facet normal -1 0 0
    outer loop
      vertex 160 0.65 -188.626
      vertex 160 0.65 -186.374
      vertex 160 0.835624 -186.504
    endloop
  endfacet
  facet normal -1 0 0
    outer loop
      vertex 160 0.444626 -188.722
      vertex 160 0.65 -186.374
      vertex 160 0.65 -188.626
    endloop
  endfacet
  facet normal -1 0 0
    outer loop
      vertex 160 0.444626 -188.722
      vertex 160 0.444626 -186.278
      vertex 160 0.65 -186.374
    endloop
  endfacet
  facet normal -1 0 0
    outer loop
      vertex 160 0.225742 -188.78
      vertex 160 0.444626 -186.278
      vertex 160 0.444626 -188.722
    endloop
  endfacet
  facet normal -1 0 0
    outer loop
      vertex 160 0.225742 -188.78
      vertex 160 0.225742 -186.22
      vertex 160 0.444626 -186.278
    endloop
  endfacet
  facet normal -1 0 0
    outer loop
      vertex 160 0 -188.8
      vertex 160 0.225742 -186.22
      vertex 160 0.225742 -188.78
    endloop
  endfacet
  facet normal -1 0 0
    outer loop
      vertex 160 0 -188.8
      vertex 160 0 -186.2
      vertex 160 0.225742 -186.22
    endloop
  endfacet
  facet normal -1 0 0
    outer loop
      vertex 160 -0.225742 -188.78
      vertex 160 0 -186.2
      vertex 160 0 -188.8
    endloop
  endfacet
  facet normal -1 0 0
    outer loop
      vertex 160 -0.225742 -188.78
      vertex 160 -0.225742 -186.22
      vertex 160 0 -186.2
    endloop
  endfacet
  facet normal -1 0 0
    outer loop
      vertex 160 -0.444626 -188.722
      vertex 160 -0.225742 -186.22
      vertex 160 -0.225742 -188.78
    endloop
  endfacet
  facet normal -1 0 0
    outer loop
      vertex 160 -0.444626 -188.722
      vertex 160 -0.444626 -186.278
      vertex 160 -0.225742 -186.22
    endloop
  endfacet
  facet normal -1 0 0
    outer loop
      vertex 160 -0.65 -188.626
      vertex 160 -0.444626 -186.278
      vertex 160 -0.444626 -188.722
    endloop
  endfacet
  facet normal -1 0 0
    outer loop
      vertex 160 -0.65 -188.626
      vertex 160 -0.65 -186.374
      vertex 160 -0.444626 -186.278
    endloop
  endfacet
  facet normal -1 0 0
    outer loop
      vertex 160 -0.835624 -188.496
      vertex 160 -0.65 -186.374
      vertex 160 -0.65 -188.626
    endloop
  endfacet
  facet normal -1 0 0
    outer loop
      vertex 160 -0.835624 -188.496
      vertex 160 -0.835624 -186.504
      vertex 160 -0.65 -186.374
    endloop
  endfacet
  facet normal -1 0 0
    outer loop
      vertex 160 -0.995857 -188.336
      vertex 160 -0.835624 -186.504
      vertex 160 -0.835624 -188.496
    endloop
  endfacet
  facet normal -1 0 0
    outer loop
      vertex 160 -0.995857 -188.336
      vertex 160 -0.995857 -186.664
      vertex 160 -0.835624 -186.504
    endloop
  endfacet
  facet normal -1 0 0
    outer loop
      vertex 160 -1.12583 -188.15
      vertex 160 -0.995857 -186.664
      vertex 160 -0.995857 -188.336
    endloop
  endfacet
  facet normal -1 0 0
    outer loop
      vertex 160 -1.12583 -188.15
      vertex 160 -1.12583 -186.85
      vertex 160 -0.995857 -186.664
    endloop
  endfacet
  facet normal -1 0 0
    outer loop
      vertex 160 -1.2216 -187.945
      vertex 160 -1.12583 -186.85
      vertex 160 -1.12583 -188.15
    endloop
  endfacet
  facet normal -1 0 0
    outer loop
      vertex 160 -1.2216 -187.945
      vertex 160 -1.2216 -187.055
      vertex 160 -1.12583 -186.85
    endloop
  endfacet
  facet normal -1 0 0
    outer loop
      vertex 160 -1.28025 -187.726
      vertex 160 -1.2216 -187.055
      vertex 160 -1.2216 -187.945
    endloop
  endfacet
  facet normal -1 0 0
    outer loop
      vertex 160 -1.28025 -187.726
      vertex 160 -1.28025 -187.274
      vertex 160 -1.2216 -187.055
    endloop
  endfacet
  facet normal -1 0 -0
    outer loop
      vertex 160 -1.28025 -187.274
      vertex 160 -1.28025 -187.726
      vertex 160 -1.3 -187.5
    endloop
  endfacet
  facet normal 0 -0.96596 0.258692
    outer loop
      vertex 150 1.2216 -187.945
      vertex 160 1.28025 -187.726
      vertex 150 1.28025 -187.726
    endloop
  endfacet
  facet normal 0 -0.96596 0.258692
    outer loop
      vertex 160 1.28025 -187.726
      vertex 150 1.2216 -187.945
      vertex 160 1.2216 -187.945
    endloop
  endfacet
  facet normal 0 -0.088251 -0.996098
    outer loop
      vertex 150 0 -186.2
      vertex 160 0.225742 -186.22
      vertex 160 0 -186.2
    endloop
  endfacet
  facet normal -0 -0.088251 -0.996098
    outer loop
      vertex 160 0.225742 -186.22
      vertex 150 0 -186.2
      vertex 150 0.225742 -186.22
    endloop
  endfacet
  facet normal 0 0.256141 -0.96664
    outer loop
      vertex 150 -0.444626 -186.278
      vertex 160 -0.225742 -186.22
      vertex 160 -0.444626 -186.278
    endloop
  endfacet
  facet normal 0 0.256141 -0.96664
    outer loop
      vertex 160 -0.225742 -186.22
      vertex 150 -0.444626 -186.278
      vertex 150 -0.225742 -186.22
    endloop
  endfacet
  facet normal 0 0.996203 -0.0870576
    outer loop
      vertex 160 -1.3 -187.5
      vertex 150 -1.28025 -187.274
      vertex 160 -1.28025 -187.274
    endloop
  endfacet
  facet normal 0 0.996203 -0.0870576
    outer loop
      vertex 150 -1.28025 -187.274
      vertex 160 -1.3 -187.5
      vertex 150 -1.3 -187.5
    endloop
  endfacet
  facet normal 0 -0.423461 -0.905915
    outer loop
      vertex 150 0.444626 -186.278
      vertex 160 0.65 -186.374
      vertex 160 0.444626 -186.278
    endloop
  endfacet
  facet normal -0 -0.423461 -0.905915
    outer loop
      vertex 160 0.65 -186.374
      vertex 150 0.444626 -186.278
      vertex 150 0.65 -186.374
    endloop
  endfacet
  facet normal 0 0.906008 -0.42326
    outer loop
      vertex 160 -1.2216 -187.055
      vertex 150 -1.12583 -186.85
      vertex 160 -1.12583 -186.85
    endloop
  endfacet
  facet normal 0 0.906008 -0.42326
    outer loop
      vertex 150 -1.12583 -186.85
      vertex 160 -1.2216 -187.055
      vertex 150 -1.2216 -187.055
    endloop
  endfacet
  facet normal 0 -0.819702 -0.572791
    outer loop
      vertex 278 1.12583 -186.85
      vertex 288 0.995857 -186.664
      vertex 278 0.995857 -186.664
    endloop
  endfacet
  facet normal 0 -0.819702 -0.572791
    outer loop
      vertex 288 0.995857 -186.664
      vertex 278 1.12583 -186.85
      vertex 288 1.12583 -186.85
    endloop
  endfacet
  facet normal 0 0.96596 0.258692
    outer loop
      vertex 288 -1.2216 -187.945
      vertex 278 -1.28025 -187.726
      vertex 288 -1.28025 -187.726
    endloop
  endfacet
  facet normal 0 0.96596 0.258692
    outer loop
      vertex 278 -1.28025 -187.726
      vertex 288 -1.2216 -187.945
      vertex 278 -1.2216 -187.945
    endloop
  endfacet
  facet normal 0 -0.256141 0.96664
    outer loop
      vertex 278 0.444626 -188.722
      vertex 288 0.225742 -188.78
      vertex 288 0.444626 -188.722
    endloop
  endfacet
  facet normal 0 -0.256141 0.96664
    outer loop
      vertex 288 0.225742 -188.78
      vertex 278 0.444626 -188.722
      vertex 278 0.225742 -188.78
    endloop
  endfacet
  facet normal 0 -0.96596 -0.258692
    outer loop
      vertex 278 1.28025 -187.274
      vertex 288 1.2216 -187.055
      vertex 278 1.2216 -187.055
    endloop
  endfacet
  facet normal 0 -0.96596 -0.258692
    outer loop
      vertex 288 1.2216 -187.055
      vertex 278 1.28025 -187.274
      vertex 288 1.28025 -187.274
    endloop
  endfacet
  facet normal -0 0.088251 0.996098
    outer loop
      vertex 278 0 -188.8
      vertex 288 -0.225742 -188.78
      vertex 288 0 -188.8
    endloop
  endfacet
  facet normal 0 0.088251 0.996098
    outer loop
      vertex 288 -0.225742 -188.78
      vertex 278 0 -188.8
      vertex 278 -0.225742 -188.78
    endloop
  endfacet
  facet normal 0 -0.423461 0.905915
    outer loop
      vertex 278 0.65 -188.626
      vertex 288 0.444626 -188.722
      vertex 288 0.65 -188.626
    endloop
  endfacet
  facet normal 0 -0.423461 0.905915
    outer loop
      vertex 288 0.444626 -188.722
      vertex 278 0.65 -188.626
      vertex 278 0.444626 -188.722
    endloop
  endfacet
  facet normal 0 -0.996203 -0.0870576
    outer loop
      vertex 278 1.3 -187.5
      vertex 288 1.28025 -187.274
      vertex 278 1.28025 -187.274
    endloop
  endfacet
  facet normal 0 -0.996203 -0.0870576
    outer loop
      vertex 288 1.28025 -187.274
      vertex 278 1.3 -187.5
      vertex 288 1.3 -187.5
    endloop
  endfacet
  facet normal 0 0.996203 -0.0870576
    outer loop
      vertex 288 -1.3 -187.5
      vertex 278 -1.28025 -187.274
      vertex 288 -1.28025 -187.274
    endloop
  endfacet
  facet normal 0 0.996203 -0.0870576
    outer loop
      vertex 278 -1.28025 -187.274
      vertex 288 -1.3 -187.5
      vertex 278 -1.3 -187.5
    endloop
  endfacet
  facet normal 0 -0.423461 -0.905915
    outer loop
      vertex 278 0.444626 -186.278
      vertex 288 0.65 -186.374
      vertex 288 0.444626 -186.278
    endloop
  endfacet
  facet normal -0 -0.423461 -0.905915
    outer loop
      vertex 288 0.65 -186.374
      vertex 278 0.444626 -186.278
      vertex 278 0.65 -186.374
    endloop
  endfacet
  facet normal 0 0.706592 -0.707621
    outer loop
      vertex 278 -0.995857 -186.664
      vertex 288 -0.835624 -186.504
      vertex 288 -0.995857 -186.664
    endloop
  endfacet
  facet normal 0 0.706592 -0.707621
    outer loop
      vertex 288 -0.835624 -186.504
      vertex 278 -0.995857 -186.664
      vertex 278 -0.835624 -186.504
    endloop
  endfacet
  facet normal 0 0.088251 -0.996098
    outer loop
      vertex 278 -0.225742 -186.22
      vertex 288 0 -186.2
      vertex 288 -0.225742 -186.22
    endloop
  endfacet
  facet normal 0 0.088251 -0.996098
    outer loop
      vertex 288 0 -186.2
      vertex 278 -0.225742 -186.22
      vertex 278 0 -186.2
    endloop
  endfacet
  facet normal 0 0.819702 0.572791
    outer loop
      vertex 288 -0.995857 -188.336
      vertex 278 -1.12583 -188.15
      vertex 288 -1.12583 -188.15
    endloop
  endfacet
  facet normal 0 0.819702 0.572791
    outer loop
      vertex 278 -1.12583 -188.15
      vertex 288 -0.995857 -188.336
      vertex 278 -0.995857 -188.336
    endloop
  endfacet
  facet normal -0 0.256141 0.96664
    outer loop
      vertex 278 -0.225742 -188.78
      vertex 288 -0.444626 -188.722
      vertex 288 -0.225742 -188.78
    endloop
  endfacet
  facet normal 0 0.256141 0.96664
    outer loop
      vertex 288 -0.444626 -188.722
      vertex 278 -0.225742 -188.78
      vertex 278 -0.444626 -188.722
    endloop
  endfacet
  facet normal 0 -0.088251 0.996098
    outer loop
      vertex 278 0.225742 -188.78
      vertex 288 0 -188.8
      vertex 288 0.225742 -188.78
    endloop
  endfacet
  facet normal 0 -0.088251 0.996098
    outer loop
      vertex 288 0 -188.8
      vertex 278 0.225742 -188.78
      vertex 278 0 -188.8
    endloop
  endfacet
  facet normal 0 -0.256141 -0.96664
    outer loop
      vertex 278 0.225742 -186.22
      vertex 288 0.444626 -186.278
      vertex 288 0.225742 -186.22
    endloop
  endfacet
  facet normal -0 -0.256141 -0.96664
    outer loop
      vertex 288 0.444626 -186.278
      vertex 278 0.225742 -186.22
      vertex 278 0.444626 -186.278
    endloop
  endfacet
  facet normal 0 0.906008 0.42326
    outer loop
      vertex 288 -1.12583 -188.15
      vertex 278 -1.2216 -187.945
      vertex 288 -1.2216 -187.945
    endloop
  endfacet
  facet normal 0 0.906008 0.42326
    outer loop
      vertex 278 -1.2216 -187.945
      vertex 288 -1.12583 -188.15
      vertex 278 -1.12583 -188.15
    endloop
  endfacet
  facet normal 0 0.256141 -0.96664
    outer loop
      vertex 278 -0.444626 -186.278
      vertex 288 -0.225742 -186.22
      vertex 288 -0.444626 -186.278
    endloop
  endfacet
  facet normal 0 0.256141 -0.96664
    outer loop
      vertex 288 -0.225742 -186.22
      vertex 278 -0.444626 -186.278
      vertex 278 -0.225742 -186.22
    endloop
  endfacet
  facet normal -0 0.706592 0.707621
    outer loop
      vertex 278 -0.835624 -188.496
      vertex 288 -0.995857 -188.336
      vertex 288 -0.835624 -188.496
    endloop
  endfacet
  facet normal 0 0.706592 0.707621
    outer loop
      vertex 288 -0.995857 -188.336
      vertex 278 -0.835624 -188.496
      vertex 278 -0.995857 -188.336
    endloop
  endfacet
  facet normal 0 -0.906008 0.42326
    outer loop
      vertex 278 1.12583 -188.15
      vertex 288 1.2216 -187.945
      vertex 278 1.2216 -187.945
    endloop
  endfacet
  facet normal 0 -0.906008 0.42326
    outer loop
      vertex 288 1.2216 -187.945
      vertex 278 1.12583 -188.15
      vertex 288 1.12583 -188.15
    endloop
  endfacet
  facet normal 0 -0.706592 -0.707621
    outer loop
      vertex 278 0.835624 -186.504
      vertex 288 0.995857 -186.664
      vertex 288 0.835624 -186.504
    endloop
  endfacet
  facet normal -0 -0.706592 -0.707621
    outer loop
      vertex 288 0.995857 -186.664
      vertex 278 0.835624 -186.504
      vertex 278 0.995857 -186.664
    endloop
  endfacet
  facet normal 0 -0.706592 0.707621
    outer loop
      vertex 278 0.995857 -188.336
      vertex 288 0.835624 -188.496
      vertex 288 0.995857 -188.336
    endloop
  endfacet
  facet normal 0 -0.706592 0.707621
    outer loop
      vertex 288 0.835624 -188.496
      vertex 278 0.995857 -188.336
      vertex 278 0.835624 -188.496
    endloop
  endfacet
  facet normal 0 -0.573649 -0.819101
    outer loop
      vertex 278 0.65 -186.374
      vertex 288 0.835624 -186.504
      vertex 288 0.65 -186.374
    endloop
  endfacet
  facet normal -0 -0.573649 -0.819101
    outer loop
      vertex 288 0.835624 -186.504
      vertex 278 0.65 -186.374
      vertex 278 0.835624 -186.504
    endloop
  endfacet
  facet normal 0 -0.573649 0.819101
    outer loop
      vertex 278 0.835624 -188.496
      vertex 288 0.65 -188.626
      vertex 288 0.835624 -188.496
    endloop
  endfacet
  facet normal 0 -0.573649 0.819101
    outer loop
      vertex 288 0.65 -188.626
      vertex 278 0.835624 -188.496
      vertex 278 0.65 -188.626
    endloop
  endfacet
  facet normal 0 0.996203 0.0870576
    outer loop
      vertex 288 -1.28025 -187.726
      vertex 278 -1.3 -187.5
      vertex 288 -1.3 -187.5
    endloop
  endfacet
  facet normal 0 0.996203 0.0870576
    outer loop
      vertex 278 -1.3 -187.5
      vertex 288 -1.28025 -187.726
      vertex 278 -1.28025 -187.726
    endloop
  endfacet
  facet normal -0 0.423461 0.905915
    outer loop
      vertex 278 -0.444626 -188.722
      vertex 288 -0.65 -188.626
      vertex 288 -0.444626 -188.722
    endloop
  endfacet
  facet normal 0 0.423461 0.905915
    outer loop
      vertex 288 -0.65 -188.626
      vertex 278 -0.444626 -188.722
      vertex 278 -0.65 -188.626
    endloop
  endfacet
  facet normal 0 -0.819702 0.572791
    outer loop
      vertex 278 0.995857 -188.336
      vertex 288 1.12583 -188.15
      vertex 278 1.12583 -188.15
    endloop
  endfacet
  facet normal 0 -0.819702 0.572791
    outer loop
      vertex 288 1.12583 -188.15
      vertex 278 0.995857 -188.336
      vertex 288 0.995857 -188.336
    endloop
  endfacet
  facet normal 0 0.423461 -0.905915
    outer loop
      vertex 278 -0.65 -186.374
      vertex 288 -0.444626 -186.278
      vertex 288 -0.65 -186.374
    endloop
  endfacet
  facet normal 0 0.423461 -0.905915
    outer loop
      vertex 288 -0.444626 -186.278
      vertex 278 -0.65 -186.374
      vertex 278 -0.444626 -186.278
    endloop
  endfacet
  facet normal 0 -0.906008 -0.42326
    outer loop
      vertex 278 1.2216 -187.055
      vertex 288 1.12583 -186.85
      vertex 278 1.12583 -186.85
    endloop
  endfacet
  facet normal 0 -0.906008 -0.42326
    outer loop
      vertex 288 1.12583 -186.85
      vertex 278 1.2216 -187.055
      vertex 288 1.2216 -187.055
    endloop
  endfacet
  facet normal -0 0.573649 0.819101
    outer loop
      vertex 278 -0.65 -188.626
      vertex 288 -0.835624 -188.496
      vertex 288 -0.65 -188.626
    endloop
  endfacet
  facet normal 0 0.573649 0.819101
    outer loop
      vertex 288 -0.835624 -188.496
      vertex 278 -0.65 -188.626
      vertex 278 -0.835624 -188.496
    endloop
  endfacet
  facet normal 0 0.819702 -0.572791
    outer loop
      vertex 288 -1.12583 -186.85
      vertex 278 -0.995857 -186.664
      vertex 288 -0.995857 -186.664
    endloop
  endfacet
  facet normal 0 0.819702 -0.572791
    outer loop
      vertex 278 -0.995857 -186.664
      vertex 288 -1.12583 -186.85
      vertex 278 -1.12583 -186.85
    endloop
  endfacet
  facet normal 0 0.96596 -0.258692
    outer loop
      vertex 288 -1.28025 -187.274
      vertex 278 -1.2216 -187.055
      vertex 288 -1.2216 -187.055
    endloop
  endfacet
  facet normal 0 0.96596 -0.258692
    outer loop
      vertex 278 -1.2216 -187.055
      vertex 288 -1.28025 -187.274
      vertex 278 -1.28025 -187.274
    endloop
  endfacet
  facet normal 0 0.573649 -0.819101
    outer loop
      vertex 278 -0.835624 -186.504
      vertex 288 -0.65 -186.374
      vertex 288 -0.835624 -186.504
    endloop
  endfacet
  facet normal 0 0.573649 -0.819101
    outer loop
      vertex 288 -0.65 -186.374
      vertex 278 -0.835624 -186.504
      vertex 278 -0.65 -186.374
    endloop
  endfacet
  facet normal 0 -0.088251 -0.996098
    outer loop
      vertex 278 0 -186.2
      vertex 288 0.225742 -186.22
      vertex 288 0 -186.2
    endloop
  endfacet
  facet normal -0 -0.088251 -0.996098
    outer loop
      vertex 288 0.225742 -186.22
      vertex 278 0 -186.2
      vertex 278 0.225742 -186.22
    endloop
  endfacet
  facet normal 0 -0.96596 0.258692
    outer loop
      vertex 278 1.2216 -187.945
      vertex 288 1.28025 -187.726
      vertex 278 1.28025 -187.726
    endloop
  endfacet
  facet normal 0 -0.96596 0.258692
    outer loop
      vertex 288 1.28025 -187.726
      vertex 278 1.2216 -187.945
      vertex 288 1.2216 -187.945
    endloop
  endfacet
  facet normal 0 -0.996203 0.0870576
    outer loop
      vertex 278 1.28025 -187.726
      vertex 288 1.3 -187.5
      vertex 278 1.3 -187.5
    endloop
  endfacet
  facet normal 0 -0.996203 0.0870576
    outer loop
      vertex 288 1.3 -187.5
      vertex 278 1.28025 -187.726
      vertex 288 1.28025 -187.726
    endloop
  endfacet
  facet normal 1 0 0
    outer loop
      vertex 278 1.28025 -187.274
      vertex 278 1.28025 -187.726
      vertex 278 1.3 -187.5
    endloop
  endfacet
  facet normal 1 0 0
    outer loop
      vertex 278 1.2216 -187.055
      vertex 278 1.28025 -187.726
      vertex 278 1.28025 -187.274
    endloop
  endfacet
  facet normal 1 0 0
    outer loop
      vertex 278 1.2216 -187.055
      vertex 278 1.2216 -187.945
      vertex 278 1.28025 -187.726
    endloop
  endfacet
  facet normal 1 0 0
    outer loop
      vertex 278 1.12583 -186.85
      vertex 278 1.2216 -187.945
      vertex 278 1.2216 -187.055
    endloop
  endfacet
  facet normal 1 0 0
    outer loop
      vertex 278 1.12583 -186.85
      vertex 278 1.12583 -188.15
      vertex 278 1.2216 -187.945
    endloop
  endfacet
  facet normal 1 0 0
    outer loop
      vertex 278 0.995857 -186.664
      vertex 278 1.12583 -188.15
      vertex 278 1.12583 -186.85
    endloop
  endfacet
  facet normal 1 0 0
    outer loop
      vertex 278 0.995857 -186.664
      vertex 278 0.995857 -188.336
      vertex 278 1.12583 -188.15
    endloop
  endfacet
  facet normal 1 0 0
    outer loop
      vertex 278 0.835624 -186.504
      vertex 278 0.995857 -188.336
      vertex 278 0.995857 -186.664
    endloop
  endfacet
  facet normal 1 0 0
    outer loop
      vertex 278 0.835624 -186.504
      vertex 278 0.835624 -188.496
      vertex 278 0.995857 -188.336
    endloop
  endfacet
  facet normal 1 0 0
    outer loop
      vertex 278 0.65 -186.374
      vertex 278 0.835624 -188.496
      vertex 278 0.835624 -186.504
    endloop
  endfacet
  facet normal 1 0 0
    outer loop
      vertex 278 0.65 -186.374
      vertex 278 0.65 -188.626
      vertex 278 0.835624 -188.496
    endloop
  endfacet
  facet normal 1 0 0
    outer loop
      vertex 278 0.444626 -186.278
      vertex 278 0.65 -188.626
      vertex 278 0.65 -186.374
    endloop
  endfacet
  facet normal 1 0 0
    outer loop
      vertex 278 0.444626 -186.278
      vertex 278 0.444626 -188.722
      vertex 278 0.65 -188.626
    endloop
  endfacet
  facet normal 1 0 0
    outer loop
      vertex 278 0.225742 -186.22
      vertex 278 0.444626 -188.722
      vertex 278 0.444626 -186.278
    endloop
  endfacet
  facet normal 1 0 0
    outer loop
      vertex 278 0.225742 -186.22
      vertex 278 0.225742 -188.78
      vertex 278 0.444626 -188.722
    endloop
  endfacet
  facet normal 1 0 0
    outer loop
      vertex 278 0 -186.2
      vertex 278 0.225742 -188.78
      vertex 278 0.225742 -186.22
    endloop
  endfacet
  facet normal 1 0 0
    outer loop
      vertex 278 0 -186.2
      vertex 278 0 -188.8
      vertex 278 0.225742 -188.78
    endloop
  endfacet
  facet normal 1 -0 0
    outer loop
      vertex 278 -0.225742 -186.22
      vertex 278 0 -188.8
      vertex 278 0 -186.2
    endloop
  endfacet
  facet normal 1 0 0
    outer loop
      vertex 278 -0.225742 -186.22
      vertex 278 -0.225742 -188.78
      vertex 278 0 -188.8
    endloop
  endfacet
  facet normal 1 -0 0
    outer loop
      vertex 278 -0.444626 -186.278
      vertex 278 -0.225742 -188.78
      vertex 278 -0.225742 -186.22
    endloop
  endfacet
  facet normal 1 0 0
    outer loop
      vertex 278 -0.444626 -186.278
      vertex 278 -0.444626 -188.722
      vertex 278 -0.225742 -188.78
    endloop
  endfacet
  facet normal 1 -0 0
    outer loop
      vertex 278 -0.65 -186.374
      vertex 278 -0.444626 -188.722
      vertex 278 -0.444626 -186.278
    endloop
  endfacet
  facet normal 1 0 0
    outer loop
      vertex 278 -0.65 -186.374
      vertex 278 -0.65 -188.626
      vertex 278 -0.444626 -188.722
    endloop
  endfacet
  facet normal 1 -0 0
    outer loop
      vertex 278 -0.835624 -186.504
      vertex 278 -0.65 -188.626
      vertex 278 -0.65 -186.374
    endloop
  endfacet
  facet normal 1 0 0
    outer loop
      vertex 278 -0.835624 -186.504
      vertex 278 -0.835624 -188.496
      vertex 278 -0.65 -188.626
    endloop
  endfacet
  facet normal 1 -0 0
    outer loop
      vertex 278 -0.995857 -186.664
      vertex 278 -0.835624 -188.496
      vertex 278 -0.835624 -186.504
    endloop
  endfacet
  facet normal 1 0 0
    outer loop
      vertex 278 -0.995857 -186.664
      vertex 278 -0.995857 -188.336
      vertex 278 -0.835624 -188.496
    endloop
  endfacet
  facet normal 1 -0 0
    outer loop
      vertex 278 -1.12583 -186.85
      vertex 278 -0.995857 -188.336
      vertex 278 -0.995857 -186.664
    endloop
  endfacet
  facet normal 1 0 0
    outer loop
      vertex 278 -1.12583 -186.85
      vertex 278 -1.12583 -188.15
      vertex 278 -0.995857 -188.336
    endloop
  endfacet
  facet normal 1 -0 0
    outer loop
      vertex 278 -1.2216 -187.055
      vertex 278 -1.12583 -188.15
      vertex 278 -1.12583 -186.85
    endloop
  endfacet
  facet normal 1 0 0
    outer loop
      vertex 278 -1.2216 -187.055
      vertex 278 -1.2216 -187.945
      vertex 278 -1.12583 -188.15
    endloop
  endfacet
  facet normal 1 -0 0
    outer loop
      vertex 278 -1.28025 -187.274
      vertex 278 -1.2216 -187.945
      vertex 278 -1.2216 -187.055
    endloop
  endfacet
  facet normal 1 0 0
    outer loop
      vertex 278 -1.28025 -187.274
      vertex 278 -1.28025 -187.726
      vertex 278 -1.2216 -187.945
    endloop
  endfacet
  facet normal 1 0 -0
    outer loop
      vertex 278 -1.28025 -187.726
      vertex 278 -1.28025 -187.274
      vertex 278 -1.3 -187.5
    endloop
  endfacet
  facet normal 0 0.906008 -0.42326
    outer loop
      vertex 288 -1.2216 -187.055
      vertex 278 -1.12583 -186.85
      vertex 288 -1.12583 -186.85
    endloop
  endfacet
  facet normal 0 0.906008 -0.42326
    outer loop
      vertex 278 -1.12583 -186.85
      vertex 288 -1.2216 -187.055
      vertex 278 -1.2216 -187.055
    endloop
  endfacet
  facet normal 1 -0 0
    outer loop
      vertex 288 1.2216 -187.055
      vertex 288 2.5 -189.563
      vertex 288 2.5 -179.393
    endloop
  endfacet
  facet normal 1 0 0
    outer loop
      vertex 288 2.5 -189.563
      vertex 288 1.28025 -187.274
      vertex 288 1.3 -187.5
    endloop
  endfacet
  facet normal 1 0 0
    outer loop
      vertex 288 2.5 -189.563
      vertex 288 1.2216 -187.055
      vertex 288 1.28025 -187.274
    endloop
  endfacet
  facet normal 1 0 0
    outer loop
      vertex 288 2.5 -179.393
      vertex 288 1.12583 -186.85
      vertex 288 1.2216 -187.055
    endloop
  endfacet
  facet normal 1 0 0
    outer loop
      vertex 288 2.5 -179.393
      vertex 288 0.995857 -186.664
      vertex 288 1.12583 -186.85
    endloop
  endfacet
  facet normal 1 0 0
    outer loop
      vertex 288 2.5 -179.393
      vertex 288 0.835624 -186.504
      vertex 288 0.995857 -186.664
    endloop
  endfacet
  facet normal 1 0 0
    outer loop
      vertex 288 2.5 -179.393
      vertex 288 0.65 -186.374
      vertex 288 0.835624 -186.504
    endloop
  endfacet
  facet normal 1 0 0
    outer loop
      vertex 288 2.5 -179.393
      vertex 288 0.444626 -186.278
      vertex 288 0.65 -186.374
    endloop
  endfacet
  facet normal 1 -0 0
    outer loop
      vertex 288 0 -179.83
      vertex 288 0.444626 -186.278
      vertex 288 2.5 -179.393
    endloop
  endfacet
  facet normal 1 0 0
    outer loop
      vertex 288 0.444626 -186.278
      vertex 288 0 -179.83
      vertex 288 0.225742 -186.22
    endloop
  endfacet
  facet normal 1 0 0
    outer loop
      vertex 288 0 -179.83
      vertex 288 0 -186.2
      vertex 288 0.225742 -186.22
    endloop
  endfacet
  facet normal 1 0 0
    outer loop
      vertex 288 0 -179.83
      vertex 288 -0.225742 -186.22
      vertex 288 0 -186.2
    endloop
  endfacet
  facet normal 1 0 0
    outer loop
      vertex 288 0 -179.83
      vertex 288 -0.444626 -186.278
      vertex 288 -0.225742 -186.22
    endloop
  endfacet
  facet normal 1 0 0
    outer loop
      vertex 288 -2.5 -179.393
      vertex 288 -0.444626 -186.278
      vertex 288 0 -179.83
    endloop
  endfacet
  facet normal 1 0 0
    outer loop
      vertex 288 -0.444626 -186.278
      vertex 288 -2.5 -179.393
      vertex 288 -0.65 -186.374
    endloop
  endfacet
  facet normal 1 0 0
    outer loop
      vertex 288 -0.65 -186.374
      vertex 288 -2.5 -179.393
      vertex 288 -0.835624 -186.504
    endloop
  endfacet
  facet normal 1 0 0
    outer loop
      vertex 288 -0.835624 -186.504
      vertex 288 -2.5 -179.393
      vertex 288 -0.995857 -186.664
    endloop
  endfacet
  facet normal 1 0 0
    outer loop
      vertex 288 -0.995857 -186.664
      vertex 288 -2.5 -179.393
      vertex 288 -1.12583 -186.85
    endloop
  endfacet
  facet normal 1 0 0
    outer loop
      vertex 288 -1.12583 -186.85
      vertex 288 -2.5 -179.393
      vertex 288 -1.2216 -187.055
    endloop
  endfacet
  facet normal 1 0 0
    outer loop
      vertex 288 -1.2216 -187.055
      vertex 288 -2.5 -189.563
      vertex 288 -1.28025 -187.274
    endloop
  endfacet
  facet normal 1 0 0
    outer loop
      vertex 288 -2.5 -189.563
      vertex 288 -1.2216 -187.055
      vertex 288 -2.5 -179.393
    endloop
  endfacet
  facet normal 1 -0 0
    outer loop
      vertex 288 1.28025 -187.726
      vertex 288 2.5 -189.563
      vertex 288 1.3 -187.5
    endloop
  endfacet
  facet normal 1 -0 0
    outer loop
      vertex 288 1.2216 -187.945
      vertex 288 2.5 -189.563
      vertex 288 1.28025 -187.726
    endloop
  endfacet
  facet normal 1 -0 0
    outer loop
      vertex 288 1.12583 -188.15
      vertex 288 2.5 -189.563
      vertex 288 1.2216 -187.945
    endloop
  endfacet
  facet normal 1 -0 0
    outer loop
      vertex 288 0.995857 -188.336
      vertex 288 2.5 -189.563
      vertex 288 1.12583 -188.15
    endloop
  endfacet
  facet normal 1 -0 0
    outer loop
      vertex 288 0.835624 -188.496
      vertex 288 2.5 -189.563
      vertex 288 0.995857 -188.336
    endloop
  endfacet
  facet normal 1 -0 0
    outer loop
      vertex 288 0.65 -188.626
      vertex 288 2.5 -189.563
      vertex 288 0.835624 -188.496
    endloop
  endfacet
  facet normal 1 0 0
    outer loop
      vertex 288 0 -190
      vertex 288 0.65 -188.626
      vertex 288 0.444626 -188.722
    endloop
  endfacet
  facet normal 1 0 0
    outer loop
      vertex 288 0 -190
      vertex 288 0.444626 -188.722
      vertex 288 0.225742 -188.78
    endloop
  endfacet
  facet normal 1 0 0
    outer loop
      vertex 288 0 -190
      vertex 288 0.225742 -188.78
      vertex 288 0 -188.8
    endloop
  endfacet
  facet normal 1 0 0
    outer loop
      vertex 288 0.65 -188.626
      vertex 288 0 -190
      vertex 288 2.5 -189.563
    endloop
  endfacet
  facet normal 1 0 0
    outer loop
      vertex 288 -0.225742 -188.78
      vertex 288 0 -190
      vertex 288 0 -188.8
    endloop
  endfacet
  facet normal 1 0 0
    outer loop
      vertex 288 -0.444626 -188.722
      vertex 288 0 -190
      vertex 288 -0.225742 -188.78
    endloop
  endfacet
  facet normal 1 0 0
    outer loop
      vertex 288 -0.65 -188.626
      vertex 288 0 -190
      vertex 288 -0.444626 -188.722
    endloop
  endfacet
  facet normal 1 0 0
    outer loop
      vertex 288 -2.5 -189.563
      vertex 288 -0.65 -188.626
      vertex 288 -0.835624 -188.496
    endloop
  endfacet
  facet normal 1 0 0
    outer loop
      vertex 288 -2.5 -189.563
      vertex 288 -0.835624 -188.496
      vertex 288 -0.995857 -188.336
    endloop
  endfacet
  facet normal 1 0 0
    outer loop
      vertex 288 -2.5 -189.563
      vertex 288 -0.995857 -188.336
      vertex 288 -1.12583 -188.15
    endloop
  endfacet
  facet normal 1 0 0
    outer loop
      vertex 288 -1.28025 -187.274
      vertex 288 -2.5 -189.563
      vertex 288 -1.3 -187.5
    endloop
  endfacet
  facet normal 1 0 0
    outer loop
      vertex 288 -0.65 -188.626
      vertex 288 -2.5 -189.563
      vertex 288 0 -190
    endloop
  endfacet
  facet normal 1 0 0
    outer loop
      vertex 288 -1.2216 -187.945
      vertex 288 -2.5 -189.563
      vertex 288 -1.12583 -188.15
    endloop
  endfacet
  facet normal 1 0 0
    outer loop
      vertex 288 -1.28025 -187.726
      vertex 288 -2.5 -189.563
      vertex 288 -1.2216 -187.945
    endloop
  endfacet
  facet normal 1 0 0
    outer loop
      vertex 288 -1.3 -187.5
      vertex 288 -2.5 -189.563
      vertex 288 -1.28025 -187.726
    endloop
  endfacet
  facet normal -1 0 0
    outer loop
      vertex 150 1.28025 -187.274
      vertex 150 2.5 -189.563
      vertex 150 1.3 -187.5
    endloop
  endfacet
  facet normal -1 0 0
    outer loop
      vertex 150 2.5 -189.563
      vertex 150 1.28025 -187.726
      vertex 150 1.3 -187.5
    endloop
  endfacet
  facet normal -1 0 0
    outer loop
      vertex 150 2.5 -189.563
      vertex 150 1.2216 -187.945
      vertex 150 1.28025 -187.726
    endloop
  endfacet
  facet normal -1 0 0
    outer loop
      vertex 150 2.5 -189.563
      vertex 150 1.12583 -188.15
      vertex 150 1.2216 -187.945
    endloop
  endfacet
  facet normal -1 0 0
    outer loop
      vertex 150 2.5 -189.563
      vertex 150 0.995857 -188.336
      vertex 150 1.12583 -188.15
    endloop
  endfacet
  facet normal -1 0 0
    outer loop
      vertex 150 2.5 -189.563
      vertex 150 0.835624 -188.496
      vertex 150 0.995857 -188.336
    endloop
  endfacet
  facet normal -1 0 0
    outer loop
      vertex 150 2.5 -189.563
      vertex 150 0.65 -188.626
      vertex 150 0.835624 -188.496
    endloop
  endfacet
  facet normal -1 0 0
    outer loop
      vertex 150 0 -190
      vertex 150 0.65 -188.626
      vertex 150 2.5 -189.563
    endloop
  endfacet
  facet normal -1 0 0
    outer loop
      vertex 150 0.65 -188.626
      vertex 150 0 -190
      vertex 150 0.444626 -188.722
    endloop
  endfacet
  facet normal -1 0 0
    outer loop
      vertex 150 0.444626 -188.722
      vertex 150 0 -190
      vertex 150 0.225742 -188.78
    endloop
  endfacet
  facet normal -1 0 0
    outer loop
      vertex 150 0 -190
      vertex 150 0 -188.8
      vertex 150 0.225742 -188.78
    endloop
  endfacet
  facet normal -1 0 0
    outer loop
      vertex 150 0 -190
      vertex 150 -0.225742 -188.78
      vertex 150 0 -188.8
    endloop
  endfacet
  facet normal -1 0 0
    outer loop
      vertex 150 0 -190
      vertex 150 -0.444626 -188.722
      vertex 150 -0.225742 -188.78
    endloop
  endfacet
  facet normal -1 0 0
    outer loop
      vertex 150 0 -190
      vertex 150 -0.65 -188.626
      vertex 150 -0.444626 -188.722
    endloop
  endfacet
  facet normal -1 0 0
    outer loop
      vertex 150 -2.5 -189.563
      vertex 150 -0.65 -188.626
      vertex 150 0 -190
    endloop
  endfacet
  facet normal -1 -0 0
    outer loop
      vertex 150 -0.65 -188.626
      vertex 150 -2.5 -189.563
      vertex 150 -0.835624 -188.496
    endloop
  endfacet
  facet normal -1 -0 0
    outer loop
      vertex 150 -0.835624 -188.496
      vertex 150 -2.5 -189.563
      vertex 150 -0.995857 -188.336
    endloop
  endfacet
  facet normal -1 -0 0
    outer loop
      vertex 150 -1.28025 -187.726
      vertex 150 -2.5 -189.563
      vertex 150 -1.3 -187.5
    endloop
  endfacet
  facet normal -1 -0 0
    outer loop
      vertex 150 -1.2216 -187.945
      vertex 150 -2.5 -189.563
      vertex 150 -1.28025 -187.726
    endloop
  endfacet
  facet normal -1 -0 0
    outer loop
      vertex 150 -1.12583 -188.15
      vertex 150 -2.5 -189.563
      vertex 150 -1.2216 -187.945
    endloop
  endfacet
  facet normal -1 -0 0
    outer loop
      vertex 150 -0.995857 -188.336
      vertex 150 -2.5 -189.563
      vertex 150 -1.12583 -188.15
    endloop
  endfacet
  facet normal -1 0 0
    outer loop
      vertex 150 1.2216 -187.055
      vertex 150 2.5 -189.563
      vertex 150 1.28025 -187.274
    endloop
  endfacet
  facet normal -1 0 0
    outer loop
      vertex 150 2.5 -189.563
      vertex 150 1.2216 -187.055
      vertex 150 2.5 -179.393
    endloop
  endfacet
  facet normal -1 0 0
    outer loop
      vertex 150 1.12583 -186.85
      vertex 150 2.5 -179.393
      vertex 150 1.2216 -187.055
    endloop
  endfacet
  facet normal -1 0 0
    outer loop
      vertex 150 0.995857 -186.664
      vertex 150 2.5 -179.393
      vertex 150 1.12583 -186.85
    endloop
  endfacet
  facet normal -1 0 0
    outer loop
      vertex 150 0.835624 -186.504
      vertex 150 2.5 -179.393
      vertex 150 0.995857 -186.664
    endloop
  endfacet
  facet normal -1 0 0
    outer loop
      vertex 150 0.65 -186.374
      vertex 150 2.5 -179.393
      vertex 150 0.835624 -186.504
    endloop
  endfacet
  facet normal -1 0 0
    outer loop
      vertex 150 0.444626 -186.278
      vertex 150 2.5 -179.393
      vertex 150 0.65 -186.374
    endloop
  endfacet
  facet normal -1 0 0
    outer loop
      vertex 150 0 -179.83
      vertex 150 0.444626 -186.278
      vertex 150 0.225742 -186.22
    endloop
  endfacet
  facet normal -1 0 0
    outer loop
      vertex 150 0 -179.83
      vertex 150 0.225742 -186.22
      vertex 150 0 -186.2
    endloop
  endfacet
  facet normal -1 0 0
    outer loop
      vertex 150 0.444626 -186.278
      vertex 150 0 -179.83
      vertex 150 2.5 -179.393
    endloop
  endfacet
  facet normal -1 0 0
    outer loop
      vertex 150 -0.225742 -186.22
      vertex 150 0 -179.83
      vertex 150 0 -186.2
    endloop
  endfacet
  facet normal -1 0 0
    outer loop
      vertex 150 -0.444626 -186.278
      vertex 150 0 -179.83
      vertex 150 -0.225742 -186.22
    endloop
  endfacet
  facet normal -1 0 0
    outer loop
      vertex 150 -2.5 -179.393
      vertex 150 -0.444626 -186.278
      vertex 150 -0.65 -186.374
    endloop
  endfacet
  facet normal -1 0 0
    outer loop
      vertex 150 -2.5 -179.393
      vertex 150 -0.65 -186.374
      vertex 150 -0.835624 -186.504
    endloop
  endfacet
  facet normal -1 0 0
    outer loop
      vertex 150 -2.5 -179.393
      vertex 150 -0.835624 -186.504
      vertex 150 -0.995857 -186.664
    endloop
  endfacet
  facet normal -1 0 0
    outer loop
      vertex 150 -2.5 -179.393
      vertex 150 -0.995857 -186.664
      vertex 150 -1.12583 -186.85
    endloop
  endfacet
  facet normal -1 0 0
    outer loop
      vertex 150 -2.5 -179.393
      vertex 150 -1.12583 -186.85
      vertex 150 -1.2216 -187.055
    endloop
  endfacet
  facet normal -1 0 0
    outer loop
      vertex 150 -2.5 -189.563
      vertex 150 -1.2216 -187.055
      vertex 150 -1.28025 -187.274
    endloop
  endfacet
  facet normal -1 0 0
    outer loop
      vertex 150 -2.5 -189.563
      vertex 150 -1.28025 -187.274
      vertex 150 -1.3 -187.5
    endloop
  endfacet
  facet normal -1 -0 0
    outer loop
      vertex 150 -1.2216 -187.055
      vertex 150 -2.5 -189.563
      vertex 150 -2.5 -179.393
    endloop
  endfacet
  facet normal -1 0 0
    outer loop
      vertex 150 -0.444626 -186.278
      vertex 150 -2.5 -179.393
      vertex 150 0 -179.83
    endloop
  endfacet
  facet normal 0 1 -0
    outer loop
      vertex 288 2.5 -189.563
      vertex 150 2.5 -179.393
      vertex 288 2.5 -179.393
    endloop
  endfacet
  facet normal 0 1 0
    outer loop
      vertex 150 2.5 -179.393
      vertex 288 2.5 -189.563
      vertex 150 2.5 -189.563
    endloop
  endfacet
  facet normal 0 -1 0
    outer loop
      vertex 150 -2.5 -189.563
      vertex 288 -2.5 -179.393
      vertex 150 -2.5 -179.393
    endloop
  endfacet
  facet normal 0 -1 -0
    outer loop
      vertex 288 -2.5 -179.393
      vertex 150 -2.5 -189.563
      vertex 288 -2.5 -189.563
    endloop
  endfacet
endsolid OpenSCAD_Model
