solid OpenSCAD_Model
  facet normal 0 0.172189 -0.985064
    outer loop
      vertex 300 0 -190
      vertex 306 2.5 -189.563
      vertex 306 0 -190
    endloop
  endfacet
  facet normal 0 0.172189 -0.985064
    outer loop
      vertex 306 2.5 -189.563
      vertex 300 0 -190
      vertex 300 2.5 -189.563
    endloop
  endfacet
  facet normal 0 -0.172189 -0.985064
    outer loop
      vertex 300 -2.5 -189.563
      vertex 306 0 -190
      vertex 306 -2.5 -189.563
    endloop
  endfacet
  facet normal -0 -0.172189 -0.985064
    outer loop
      vertex 306 0 -190
      vertex 300 -2.5 -189.563
      vertex 300 0 -190
    endloop
  endfacet
  facet normal 1 -0 0
    outer loop
      vertex 306 0 -189.05
      vertex 306 2.5 -189.563
      vertex 306 2.5 -188.615
    endloop
  endfacet
  facet normal 1 0 0
    outer loop
      vertex 306 0 -189.05
      vertex 306 0 -190
      vertex 306 2.5 -189.563
    endloop
  endfacet
  facet normal 1 0 0
    outer loop
      vertex 306 -2.5 -189.563
      vertex 306 0 -189.05
      vertex 306 -2.5 -188.615
    endloop
  endfacet
  facet normal 1 0 0
    outer loop
      vertex 306 0 -189.05
      vertex 306 -2.5 -189.563
      vertex 306 0 -190
    endloop
  endfacet
  facet normal 0 0.171424 -0.985197
    outer loop
      vertex 306 0 -189.05
      vertex 312 2.5 -188.615
      vertex 312 0 -189.05
    endloop
  endfacet
  facet normal 0 0.171424 -0.985197
    outer loop
      vertex 312 2.5 -188.615
      vertex 306 0 -189.05
      vertex 306 2.5 -188.615
    endloop
  endfacet
  facet normal 0 -0.171424 -0.985197
    outer loop
      vertex 306 -2.5 -188.615
      vertex 312 0 -189.05
      vertex 312 -2.5 -188.615
    endloop
  endfacet
  facet normal -0 -0.171424 -0.985197
    outer loop
      vertex 312 0 -189.05
      vertex 306 -2.5 -188.615
      vertex 306 0 -189.05
    endloop
  endfacet
  facet normal 1 -0 0
    outer loop
      vertex 312 0 -188.1
      vertex 312 2.5 -188.615
      vertex 312 2.5 -187.667
    endloop
  endfacet
  facet normal 1 0 0
    outer loop
      vertex 312 0 -188.1
      vertex 312 0 -189.05
      vertex 312 2.5 -188.615
    endloop
  endfacet
  facet normal 1 0 0
    outer loop
      vertex 312 -2.5 -188.615
      vertex 312 0 -188.1
      vertex 312 -2.5 -187.667
    endloop
  endfacet
  facet normal 1 0 0
    outer loop
      vertex 312 0 -188.1
      vertex 312 -2.5 -188.615
      vertex 312 0 -189.05
    endloop
  endfacet
  facet normal 0 0.170659 -0.98533
    outer loop
      vertex 312 0 -188.1
      vertex 318 2.5 -187.667
      vertex 318 0 -188.1
    endloop
  endfacet
  facet normal 0 0.170659 -0.98533
    outer loop
      vertex 318 2.5 -187.667
      vertex 312 0 -188.1
      vertex 312 2.5 -187.667
    endloop
  endfacet
  facet normal 0 -0.170659 -0.98533
    outer loop
      vertex 312 -2.5 -187.667
      vertex 318 0 -188.1
      vertex 318 -2.5 -187.667
    endloop
  endfacet
  facet normal -0 -0.170659 -0.98533
    outer loop
      vertex 318 0 -188.1
      vertex 312 -2.5 -187.667
      vertex 312 0 -188.1
    endloop
  endfacet
  facet normal 1 -0 0
    outer loop
      vertex 318 0 -186.77
      vertex 318 2.5 -187.667
      vertex 318 2.5 -186.34
    endloop
  endfacet
  facet normal 1 0 0
    outer loop
      vertex 318 0 -186.77
      vertex 318 0 -188.1
      vertex 318 2.5 -187.667
    endloop
  endfacet
  facet normal 1 0 0
    outer loop
      vertex 318 -2.5 -187.667
      vertex 318 0 -186.77
      vertex 318 -2.5 -186.34
    endloop
  endfacet
  facet normal 1 0 0
    outer loop
      vertex 318 0 -186.77
      vertex 318 -2.5 -187.667
      vertex 318 0 -188.1
    endloop
  endfacet
  facet normal 0 0.169511 -0.985528
    outer loop
      vertex 318 0 -186.77
      vertex 324 2.5 -186.34
      vertex 324 0 -186.77
    endloop
  endfacet
  facet normal 0 0.169511 -0.985528
    outer loop
      vertex 324 2.5 -186.34
      vertex 318 0 -186.77
      vertex 318 2.5 -186.34
    endloop
  endfacet
  facet normal 0 -0.169511 -0.985528
    outer loop
      vertex 318 -2.5 -186.34
      vertex 324 0 -186.77
      vertex 324 -2.5 -186.34
    endloop
  endfacet
  facet normal -0 -0.169511 -0.985528
    outer loop
      vertex 324 0 -186.77
      vertex 318 -2.5 -186.34
      vertex 318 0 -186.77
    endloop
  endfacet
  facet normal 1 -0 0
    outer loop
      vertex 324 0 -185.63
      vertex 324 2.5 -186.34
      vertex 324 2.5 -185.203
    endloop
  endfacet
  facet normal 1 0 0
    outer loop
      vertex 324 0 -185.63
      vertex 324 0 -186.77
      vertex 324 2.5 -186.34
    endloop
  endfacet
  facet normal 1 0 0
    outer loop
      vertex 324 -2.5 -186.34
      vertex 324 0 -185.63
      vertex 324 -2.5 -185.203
    endloop
  endfacet
  facet normal 1 0 0
    outer loop
      vertex 324 0 -185.63
      vertex 324 -2.5 -186.34
      vertex 324 0 -186.77
    endloop
  endfacet
  facet normal 0 0.168362 -0.985725
    outer loop
      vertex 324 0 -185.63
      vertex 330 2.5 -185.203
      vertex 330 0 -185.63
    endloop
  endfacet
  facet normal 0 0.168362 -0.985725
    outer loop
      vertex 330 2.5 -185.203
      vertex 324 0 -185.63
      vertex 324 2.5 -185.203
    endloop
  endfacet
  facet normal 0 -0.168362 -0.985725
    outer loop
      vertex 324 -2.5 -185.203
      vertex 330 0 -185.63
      vertex 330 -2.5 -185.203
    endloop
  endfacet
  facet normal -0 -0.168362 -0.985725
    outer loop
      vertex 330 0 -185.63
      vertex 324 -2.5 -185.203
      vertex 324 0 -185.63
    endloop
  endfacet
  facet normal 1 -0 0
    outer loop
      vertex 330 0 -184.3
      vertex 330 2.5 -185.203
      vertex 330 2.5 -183.876
    endloop
  endfacet
  facet normal 1 0 0
    outer loop
      vertex 330 0 -184.3
      vertex 330 0 -185.63
      vertex 330 2.5 -185.203
    endloop
  endfacet
  facet normal 1 0 0
    outer loop
      vertex 330 -2.5 -185.203
      vertex 330 0 -184.3
      vertex 330 -2.5 -183.876
    endloop
  endfacet
  facet normal 1 0 0
    outer loop
      vertex 330 0 -184.3
      vertex 330 -2.5 -185.203
      vertex 330 0 -185.63
    endloop
  endfacet
  facet normal 0 0.167212 -0.985921
    outer loop
      vertex 330 0 -184.3
      vertex 336 2.5 -183.876
      vertex 336 0 -184.3
    endloop
  endfacet
  facet normal 0 0.167212 -0.985921
    outer loop
      vertex 336 2.5 -183.876
      vertex 330 0 -184.3
      vertex 330 2.5 -183.876
    endloop
  endfacet
  facet normal 0 -0.167212 -0.985921
    outer loop
      vertex 330 -2.5 -183.876
      vertex 336 0 -184.3
      vertex 336 -2.5 -183.876
    endloop
  endfacet
  facet normal -0 -0.167212 -0.985921
    outer loop
      vertex 336 0 -184.3
      vertex 330 -2.5 -183.876
      vertex 330 0 -184.3
    endloop
  endfacet
  facet normal 1 -0 0
    outer loop
      vertex 336 0 -177.84
      vertex 336 2.5 -183.876
      vertex 336 2.5 -177.431
    endloop
  endfacet
  facet normal 1 0 0
    outer loop
      vertex 336 0 -177.84
      vertex 336 0 -184.3
      vertex 336 2.5 -183.876
    endloop
  endfacet
  facet normal 1 0 0
    outer loop
      vertex 336 -2.5 -183.876
      vertex 336 0 -177.84
      vertex 336 -2.5 -177.431
    endloop
  endfacet
  facet normal 1 0 0
    outer loop
      vertex 336 0 -177.84
      vertex 336 -2.5 -183.876
      vertex 336 0 -184.3
    endloop
  endfacet
  facet normal 0 0.161454 -0.98688
    outer loop
      vertex 336 0 -177.84
      vertex 342 2.5 -177.431
      vertex 342 0 -177.84
    endloop
  endfacet
  facet normal 0 0.161454 -0.98688
    outer loop
      vertex 342 2.5 -177.431
      vertex 336 0 -177.84
      vertex 336 2.5 -177.431
    endloop
  endfacet
  facet normal 0 -0.161454 -0.98688
    outer loop
      vertex 336 -2.5 -177.431
      vertex 342 0 -177.84
      vertex 342 -2.5 -177.431
    endloop
  endfacet
  facet normal -0 -0.161454 -0.98688
    outer loop
      vertex 342 0 -177.84
      vertex 336 -2.5 -177.431
      vertex 336 0 -177.84
    endloop
  endfacet
  facet normal 1 -0 0
    outer loop
      vertex 342 0 -171.38
      vertex 342 2.5 -177.431
      vertex 342 2.5 -170.985
    endloop
  endfacet
  facet normal 1 0 0
    outer loop
      vertex 342 0 -171.38
      vertex 342 0 -177.84
      vertex 342 2.5 -177.431
    endloop
  endfacet
  facet normal 1 0 0
    outer loop
      vertex 342 -2.5 -177.431
      vertex 342 0 -171.38
      vertex 342 -2.5 -170.985
    endloop
  endfacet
  facet normal 1 0 0
    outer loop
      vertex 342 0 -171.38
      vertex 342 -2.5 -177.431
      vertex 342 0 -177.84
    endloop
  endfacet
  facet normal 0 0.156064 -0.987747
    outer loop
      vertex 342 0 -171.38
      vertex 348 2.5 -170.985
      vertex 348 0 -171.38
    endloop
  endfacet
  facet normal 0 0.156064 -0.987747
    outer loop
      vertex 348 2.5 -170.985
      vertex 342 0 -171.38
      vertex 342 2.5 -170.985
    endloop
  endfacet
  facet normal 0 -0.156064 -0.987747
    outer loop
      vertex 342 -2.5 -170.985
      vertex 348 0 -171.38
      vertex 348 -2.5 -170.985
    endloop
  endfacet
  facet normal -0 -0.156064 -0.987747
    outer loop
      vertex 348 0 -171.38
      vertex 342 -2.5 -170.985
      vertex 342 0 -171.38
    endloop
  endfacet
  facet normal 1 -0 0
    outer loop
      vertex 348 0 -164.92
      vertex 348 2.5 -170.985
      vertex 348 2.5 -164.54
    endloop
  endfacet
  facet normal 1 0 0
    outer loop
      vertex 348 0 -164.92
      vertex 348 0 -171.38
      vertex 348 2.5 -170.985
    endloop
  endfacet
  facet normal 1 0 0
    outer loop
      vertex 348 -2.5 -170.985
      vertex 348 0 -164.92
      vertex 348 -2.5 -164.54
    endloop
  endfacet
  facet normal 1 0 0
    outer loop
      vertex 348 0 -164.92
      vertex 348 -2.5 -170.985
      vertex 348 0 -171.38
    endloop
  endfacet
  facet normal 0 0.150274 -0.988644
    outer loop
      vertex 348 0 -164.92
      vertex 354 2.5 -164.54
      vertex 354 0 -164.92
    endloop
  endfacet
  facet normal 0 0.150274 -0.988644
    outer loop
      vertex 354 2.5 -164.54
      vertex 348 0 -164.92
      vertex 348 2.5 -164.54
    endloop
  endfacet
  facet normal 0 -0.150274 -0.988644
    outer loop
      vertex 348 -2.5 -164.54
      vertex 354 0 -164.92
      vertex 354 -2.5 -164.54
    endloop
  endfacet
  facet normal -0 -0.150274 -0.988644
    outer loop
      vertex 354 0 -164.92
      vertex 348 -2.5 -164.54
      vertex 348 0 -164.92
    endloop
  endfacet
  facet normal 1 -0 0
    outer loop
      vertex 354 0 -158.65
      vertex 354 2.5 -164.54
      vertex 354 2.5 -158.285
    endloop
  endfacet
  facet normal 1 0 0
    outer loop
      vertex 354 0 -158.65
      vertex 354 0 -164.92
      vertex 354 2.5 -164.54
    endloop
  endfacet
  facet normal 1 0 0
    outer loop
      vertex 354 -2.5 -164.54
      vertex 354 0 -158.65
      vertex 354 -2.5 -158.285
    endloop
  endfacet
  facet normal 1 0 0
    outer loop
      vertex 354 0 -158.65
      vertex 354 -2.5 -164.54
      vertex 354 0 -164.92
    endloop
  endfacet
  facet normal 0 0.144468 -0.989509
    outer loop
      vertex 354 0 -158.65
      vertex 360 2.5 -158.285
      vertex 360 0 -158.65
    endloop
  endfacet
  facet normal 0 0.144468 -0.989509
    outer loop
      vertex 360 2.5 -158.285
      vertex 354 0 -158.65
      vertex 354 2.5 -158.285
    endloop
  endfacet
  facet normal 0 -0.144468 -0.989509
    outer loop
      vertex 354 -2.5 -158.285
      vertex 360 0 -158.65
      vertex 360 -2.5 -158.285
    endloop
  endfacet
  facet normal -0 -0.144468 -0.989509
    outer loop
      vertex 360 0 -158.65
      vertex 354 -2.5 -158.285
      vertex 354 0 -158.65
    endloop
  endfacet
  facet normal 1 -0 0
    outer loop
      vertex 360 0 -152.19
      vertex 360 2.5 -158.285
      vertex 360 2.5 -151.84
    endloop
  endfacet
  facet normal 1 0 0
    outer loop
      vertex 360 0 -152.19
      vertex 360 0 -158.65
      vertex 360 2.5 -158.285
    endloop
  endfacet
  facet normal 1 0 0
    outer loop
      vertex 360 -2.5 -158.285
      vertex 360 0 -152.19
      vertex 360 -2.5 -151.84
    endloop
  endfacet
  facet normal 1 0 0
    outer loop
      vertex 360 0 -152.19
      vertex 360 -2.5 -158.285
      vertex 360 0 -158.65
    endloop
  endfacet
  facet normal 0 0.138648 -0.990342
    outer loop
      vertex 360 0 -152.19
      vertex 366 2.5 -151.84
      vertex 366 0 -152.19
    endloop
  endfacet
  facet normal 0 0.138648 -0.990342
    outer loop
      vertex 366 2.5 -151.84
      vertex 360 0 -152.19
      vertex 360 2.5 -151.84
    endloop
  endfacet
  facet normal 0 -0.138648 -0.990342
    outer loop
      vertex 360 -2.5 -151.84
      vertex 366 0 -152.19
      vertex 366 -2.5 -151.84
    endloop
  endfacet
  facet normal -0 -0.138648 -0.990342
    outer loop
      vertex 366 0 -152.19
      vertex 360 -2.5 -151.84
      vertex 360 0 -152.19
    endloop
  endfacet
  facet normal 1 -0 0
    outer loop
      vertex 366 0 -145.73
      vertex 366 2.5 -151.84
      vertex 366 2.5 -145.394
    endloop
  endfacet
  facet normal 1 0 0
    outer loop
      vertex 366 0 -145.73
      vertex 366 0 -152.19
      vertex 366 2.5 -151.84
    endloop
  endfacet
  facet normal 1 0 0
    outer loop
      vertex 366 -2.5 -151.84
      vertex 366 0 -145.73
      vertex 366 -2.5 -145.394
    endloop
  endfacet
  facet normal 1 0 0
    outer loop
      vertex 366 0 -145.73
      vertex 366 -2.5 -151.84
      vertex 366 0 -152.19
    endloop
  endfacet
  facet normal 0 0.133202 -0.991089
    outer loop
      vertex 366 0 -145.73
      vertex 372 2.5 -145.394
      vertex 372 0 -145.73
    endloop
  endfacet
  facet normal 0 0.133202 -0.991089
    outer loop
      vertex 372 2.5 -145.394
      vertex 366 0 -145.73
      vertex 366 2.5 -145.394
    endloop
  endfacet
  facet normal 0 -0.133202 -0.991089
    outer loop
      vertex 366 -2.5 -145.394
      vertex 372 0 -145.73
      vertex 372 -2.5 -145.394
    endloop
  endfacet
  facet normal -0 -0.133202 -0.991089
    outer loop
      vertex 372 0 -145.73
      vertex 366 -2.5 -145.394
      vertex 366 0 -145.73
    endloop
  endfacet
  facet normal 1 -0 0
    outer loop
      vertex 372 0 -139.27
      vertex 372 2.5 -145.394
      vertex 372 2.5 -138.949
    endloop
  endfacet
  facet normal 1 0 0
    outer loop
      vertex 372 0 -139.27
      vertex 372 0 -145.73
      vertex 372 2.5 -145.394
    endloop
  endfacet
  facet normal 1 0 0
    outer loop
      vertex 372 -2.5 -145.394
      vertex 372 0 -139.27
      vertex 372 -2.5 -138.949
    endloop
  endfacet
  facet normal 1 0 0
    outer loop
      vertex 372 0 -139.27
      vertex 372 -2.5 -145.394
      vertex 372 0 -145.73
    endloop
  endfacet
  facet normal 0 0.127354 -0.991857
    outer loop
      vertex 372 0 -139.27
      vertex 378 2.5 -138.949
      vertex 378 0 -139.27
    endloop
  endfacet
  facet normal 0 0.127354 -0.991857
    outer loop
      vertex 378 2.5 -138.949
      vertex 372 0 -139.27
      vertex 372 2.5 -138.949
    endloop
  endfacet
  facet normal 0 -0.127354 -0.991857
    outer loop
      vertex 372 -2.5 -138.949
      vertex 378 0 -139.27
      vertex 378 -2.5 -138.949
    endloop
  endfacet
  facet normal -0 -0.127354 -0.991857
    outer loop
      vertex 378 0 -139.27
      vertex 372 -2.5 -138.949
      vertex 372 0 -139.27
    endloop
  endfacet
  facet normal 1 -0 0
    outer loop
      vertex 378 0 -132.81
      vertex 378 2.5 -138.949
      vertex 378 2.5 -132.504
    endloop
  endfacet
  facet normal 1 0 0
    outer loop
      vertex 378 0 -132.81
      vertex 378 0 -139.27
      vertex 378 2.5 -138.949
    endloop
  endfacet
  facet normal 1 0 0
    outer loop
      vertex 378 -2.5 -138.949
      vertex 378 0 -132.81
      vertex 378 -2.5 -132.504
    endloop
  endfacet
  facet normal 1 0 0
    outer loop
      vertex 378 0 -132.81
      vertex 378 -2.5 -138.949
      vertex 378 0 -139.27
    endloop
  endfacet
  facet normal 0 0.121493 -0.992592
    outer loop
      vertex 378 0 -132.81
      vertex 384 2.5 -132.504
      vertex 384 0 -132.81
    endloop
  endfacet
  facet normal 0 0.121493 -0.992592
    outer loop
      vertex 384 2.5 -132.504
      vertex 378 0 -132.81
      vertex 378 2.5 -132.504
    endloop
  endfacet
  facet normal 0 -0.121493 -0.992592
    outer loop
      vertex 378 -2.5 -132.504
      vertex 384 0 -132.81
      vertex 384 -2.5 -132.504
    endloop
  endfacet
  facet normal -0 -0.121493 -0.992592
    outer loop
      vertex 384 0 -132.81
      vertex 378 -2.5 -132.504
      vertex 378 0 -132.81
    endloop
  endfacet
  facet normal 1 -0 0
    outer loop
      vertex 384 0 -126.35
      vertex 384 2.5 -132.504
      vertex 384 2.5 -126.059
    endloop
  endfacet
  facet normal 1 0 0
    outer loop
      vertex 384 0 -126.35
      vertex 384 0 -132.81
      vertex 384 2.5 -132.504
    endloop
  endfacet
  facet normal 1 0 0
    outer loop
      vertex 384 -2.5 -132.504
      vertex 384 0 -126.35
      vertex 384 -2.5 -126.059
    endloop
  endfacet
  facet normal 1 0 0
    outer loop
      vertex 384 0 -126.35
      vertex 384 -2.5 -132.504
      vertex 384 0 -132.81
    endloop
  endfacet
  facet normal 0 0.115619 -0.993294
    outer loop
      vertex 384 0 -126.35
      vertex 390 2.5 -126.059
      vertex 390 0 -126.35
    endloop
  endfacet
  facet normal 0 0.115619 -0.993294
    outer loop
      vertex 390 2.5 -126.059
      vertex 384 0 -126.35
      vertex 384 2.5 -126.059
    endloop
  endfacet
  facet normal 0 -0.115619 -0.993294
    outer loop
      vertex 384 -2.5 -126.059
      vertex 390 0 -126.35
      vertex 390 -2.5 -126.059
    endloop
  endfacet
  facet normal -0 -0.115619 -0.993294
    outer loop
      vertex 390 0 -126.35
      vertex 384 -2.5 -126.059
      vertex 384 0 -126.35
    endloop
  endfacet
  facet normal 1 -0 0
    outer loop
      vertex 390 0 -120.08
      vertex 390 2.5 -126.059
      vertex 390 2.5 -119.804
    endloop
  endfacet
  facet normal 1 0 0
    outer loop
      vertex 390 0 -120.08
      vertex 390 0 -126.35
      vertex 390 2.5 -126.059
    endloop
  endfacet
  facet normal 1 0 0
    outer loop
      vertex 390 -2.5 -126.059
      vertex 390 0 -120.08
      vertex 390 -2.5 -119.804
    endloop
  endfacet
  facet normal 1 0 0
    outer loop
      vertex 390 0 -120.08
      vertex 390 -2.5 -126.059
      vertex 390 0 -126.35
    endloop
  endfacet
  facet normal 0 0.109733 -0.993961
    outer loop
      vertex 390 0 -120.08
      vertex 396 2.5 -119.804
      vertex 396 0 -120.08
    endloop
  endfacet
  facet normal 0 0.109733 -0.993961
    outer loop
      vertex 396 2.5 -119.804
      vertex 390 0 -120.08
      vertex 390 2.5 -119.804
    endloop
  endfacet
  facet normal 0 -0.109733 -0.993961
    outer loop
      vertex 390 -2.5 -119.804
      vertex 396 0 -120.08
      vertex 396 -2.5 -119.804
    endloop
  endfacet
  facet normal -0 -0.109733 -0.993961
    outer loop
      vertex 396 0 -120.08
      vertex 390 -2.5 -119.804
      vertex 390 0 -120.08
    endloop
  endfacet
  facet normal 1 -0 0
    outer loop
      vertex 396 0 -113.62
      vertex 396 2.5 -119.804
      vertex 396 2.5 -113.358
    endloop
  endfacet
  facet normal 1 0 0
    outer loop
      vertex 396 0 -113.62
      vertex 396 0 -120.08
      vertex 396 2.5 -119.804
    endloop
  endfacet
  facet normal 1 0 0
    outer loop
      vertex 396 -2.5 -119.804
      vertex 396 0 -113.62
      vertex 396 -2.5 -113.358
    endloop
  endfacet
  facet normal 1 0 0
    outer loop
      vertex 396 0 -113.62
      vertex 396 -2.5 -119.804
      vertex 396 0 -120.08
    endloop
  endfacet
  facet normal 0 -0.104229 -0.994553
    outer loop
      vertex 396 -2.5 -113.358
      vertex 402 0 -113.62
      vertex 402 -2.5 -113.358
    endloop
  endfacet
  facet normal -0 -0.104229 -0.994553
    outer loop
      vertex 402 0 -113.62
      vertex 396 -2.5 -113.358
      vertex 396 0 -113.62
    endloop
  endfacet
  facet normal 0 0.104229 -0.994553
    outer loop
      vertex 396 0 -113.62
      vertex 402 2.5 -113.358
      vertex 402 0 -113.62
    endloop
  endfacet
  facet normal 0 0.104229 -0.994553
    outer loop
      vertex 402 2.5 -113.358
      vertex 396 0 -113.62
      vertex 396 2.5 -113.358
    endloop
  endfacet
  facet normal 1 -0 0
    outer loop
      vertex 402 0 -107.16
      vertex 402 2.5 -113.358
      vertex 402 2.5 -106.913
    endloop
  endfacet
  facet normal 1 0 0
    outer loop
      vertex 402 0 -107.16
      vertex 402 0 -113.62
      vertex 402 2.5 -113.358
    endloop
  endfacet
  facet normal 1 0 0
    outer loop
      vertex 402 -2.5 -113.358
      vertex 402 0 -107.16
      vertex 402 -2.5 -106.913
    endloop
  endfacet
  facet normal 1 0 0
    outer loop
      vertex 402 0 -107.16
      vertex 402 -2.5 -113.358
      vertex 402 0 -113.62
    endloop
  endfacet
  facet normal 0 0.0983213 -0.995155
    outer loop
      vertex 402 0 -107.16
      vertex 408 2.5 -106.913
      vertex 408 0 -107.16
    endloop
  endfacet
  facet normal 0 0.0983213 -0.995155
    outer loop
      vertex 408 2.5 -106.913
      vertex 402 0 -107.16
      vertex 402 2.5 -106.913
    endloop
  endfacet
  facet normal 1 -0 0
    outer loop
      vertex 408 0 -100.7
      vertex 408 2.5 -106.913
      vertex 408 2.5 -100.468
    endloop
  endfacet
  facet normal 1 0 0
    outer loop
      vertex 408 0 -100.7
      vertex 408 0 -107.16
      vertex 408 2.5 -106.913
    endloop
  endfacet
  facet normal 1 0 0
    outer loop
      vertex 408 -2.5 -106.913
      vertex 408 0 -100.7
      vertex 408 -2.5 -100.468
    endloop
  endfacet
  facet normal 1 0 0
    outer loop
      vertex 408 0 -100.7
      vertex 408 -2.5 -106.913
      vertex 408 0 -107.16
    endloop
  endfacet
  facet normal 0 -0.0983213 -0.995155
    outer loop
      vertex 402 -2.5 -106.913
      vertex 408 0 -107.16
      vertex 408 -2.5 -106.913
    endloop
  endfacet
  facet normal -0 -0.0983213 -0.995155
    outer loop
      vertex 408 0 -107.16
      vertex 402 -2.5 -106.913
      vertex 402 0 -107.16
    endloop
  endfacet
  facet normal 0 0.092403 -0.995722
    outer loop
      vertex 408 0 -100.7
      vertex 414 2.5 -100.468
      vertex 414 0 -100.7
    endloop
  endfacet
  facet normal 0 0.092403 -0.995722
    outer loop
      vertex 414 2.5 -100.468
      vertex 408 0 -100.7
      vertex 408 2.5 -100.468
    endloop
  endfacet
  facet normal 0 -0.092403 -0.995722
    outer loop
      vertex 408 -2.5 -100.468
      vertex 414 0 -100.7
      vertex 414 -2.5 -100.468
    endloop
  endfacet
  facet normal -0 -0.092403 -0.995722
    outer loop
      vertex 414 0 -100.7
      vertex 408 -2.5 -100.468
      vertex 408 0 -100.7
    endloop
  endfacet
  facet normal 1 -0 0
    outer loop
      vertex 414 0 -98.8
      vertex 414 2.5 -100.468
      vertex 414 2.5 -98.5725
    endloop
  endfacet
  facet normal 1 0 0
    outer loop
      vertex 414 0 -98.8
      vertex 414 0 -100.7
      vertex 414 2.5 -100.468
    endloop
  endfacet
  facet normal 1 0 0
    outer loop
      vertex 414 -2.5 -100.468
      vertex 414 0 -98.8
      vertex 414 -2.5 -98.5725
    endloop
  endfacet
  facet normal 1 0 0
    outer loop
      vertex 414 0 -98.8
      vertex 414 -2.5 -100.468
      vertex 414 0 -100.7
    endloop
  endfacet
  facet normal 0 0.0906255 -0.995885
    outer loop
      vertex 414 0 -98.8
      vertex 420 2.5 -98.5725
      vertex 420 0 -98.8
    endloop
  endfacet
  facet normal 0 0.0906255 -0.995885
    outer loop
      vertex 420 2.5 -98.5725
      vertex 414 0 -98.8
      vertex 414 2.5 -98.5725
    endloop
  endfacet
  facet normal 0 -0.0906255 -0.995885
    outer loop
      vertex 414 -2.5 -98.5725
      vertex 420 0 -98.8
      vertex 420 -2.5 -98.5725
    endloop
  endfacet
  facet normal -0 -0.0906255 -0.995885
    outer loop
      vertex 420 0 -98.8
      vertex 414 -2.5 -98.5725
      vertex 414 0 -98.8
    endloop
  endfacet
  facet normal 1 -0 0
    outer loop
      vertex 420 0 -96.9
      vertex 420 2.5 -98.5725
      vertex 420 2.5 -96.6769
    endloop
  endfacet
  facet normal 1 0 0
    outer loop
      vertex 420 0 -96.9
      vertex 420 0 -98.8
      vertex 420 2.5 -98.5725
    endloop
  endfacet
  facet normal 1 0 0
    outer loop
      vertex 420 -2.5 -98.5725
      vertex 420 0 -96.9
      vertex 420 -2.5 -96.6769
    endloop
  endfacet
  facet normal 1 0 0
    outer loop
      vertex 420 0 -96.9
      vertex 420 -2.5 -98.5725
      vertex 420 0 -98.8
    endloop
  endfacet
  facet normal 0 0.0888868 -0.996042
    outer loop
      vertex 420 0 -96.9
      vertex 432 2.5 -96.6769
      vertex 432 0 -96.9
    endloop
  endfacet
  facet normal 0 0.0888868 -0.996042
    outer loop
      vertex 432 2.5 -96.6769
      vertex 420 0 -96.9
      vertex 420 2.5 -96.6769
    endloop
  endfacet
  facet normal 0 -0.0888868 -0.996042
    outer loop
      vertex 420 -2.5 -96.6769
      vertex 432 0 -96.9
      vertex 432 -2.5 -96.6769
    endloop
  endfacet
  facet normal -0 -0.0888868 -0.996042
    outer loop
      vertex 432 0 -96.9
      vertex 420 -2.5 -96.6769
      vertex 420 0 -96.9
    endloop
  endfacet
  facet normal 1 0 0
    outer loop
      vertex 432 0 -96.71
      vertex 432 2.5 -96.6769
      vertex 432 2.5 -96.4873
    endloop
  endfacet
  facet normal 1 -0 0
    outer loop
      vertex 432 0 -96.71
      vertex 432 0 -96.9
      vertex 432 2.5 -96.6769
    endloop
  endfacet
  facet normal 1 -0 0
    outer loop
      vertex 432 -2.5 -96.6769
      vertex 432 0 -96.71
      vertex 432 -2.5 -96.4873
    endloop
  endfacet
  facet normal 1 0 0
    outer loop
      vertex 432 0 -96.71
      vertex 432 -2.5 -96.6769
      vertex 432 0 -96.9
    endloop
  endfacet
  facet normal 0 0.0887287 -0.996056
    outer loop
      vertex 432 0 -96.71
      vertex 444 2.5 -96.4873
      vertex 444 0 -96.71
    endloop
  endfacet
  facet normal 0 0.0887287 -0.996056
    outer loop
      vertex 444 2.5 -96.4873
      vertex 432 0 -96.71
      vertex 432 2.5 -96.4873
    endloop
  endfacet
  facet normal 0 -0.0887287 -0.996056
    outer loop
      vertex 432 -2.5 -96.4873
      vertex 444 0 -96.71
      vertex 444 -2.5 -96.4873
    endloop
  endfacet
  facet normal -0 -0.0887287 -0.996056
    outer loop
      vertex 444 0 -96.71
      vertex 432 -2.5 -96.4873
      vertex 432 0 -96.71
    endloop
  endfacet
  facet normal 1 0 0
    outer loop
      vertex 444 0 -96.52
      vertex 444 2.5 -96.4873
      vertex 444 2.5 -96.2978
    endloop
  endfacet
  facet normal 1 -0 0
    outer loop
      vertex 444 0 -96.52
      vertex 444 0 -96.71
      vertex 444 2.5 -96.4873
    endloop
  endfacet
  facet normal 1 -0 0
    outer loop
      vertex 444 -2.5 -96.4873
      vertex 444 0 -96.52
      vertex 444 -2.5 -96.2978
    endloop
  endfacet
  facet normal 1 0 0
    outer loop
      vertex 444 0 -96.52
      vertex 444 -2.5 -96.4873
      vertex 444 0 -96.71
    endloop
  endfacet
  facet normal 0 -0.088531 -0.996073
    outer loop
      vertex 444 -2.5 -96.2978
      vertex 450 0 -96.52
      vertex 450 -2.5 -96.2978
    endloop
  endfacet
  facet normal -0 -0.088531 -0.996073
    outer loop
      vertex 450 0 -96.52
      vertex 444 -2.5 -96.2978
      vertex 444 0 -96.52
    endloop
  endfacet
  facet normal 0 0.088531 -0.996073
    outer loop
      vertex 444 0 -96.52
      vertex 450 2.5 -96.2978
      vertex 450 0 -96.52
    endloop
  endfacet
  facet normal 0 0.088531 -0.996073
    outer loop
      vertex 450 2.5 -96.2978
      vertex 444 0 -96.52
      vertex 444 2.5 -96.2978
    endloop
  endfacet
  facet normal 0 -0.172189 0.985064
    outer loop
      vertex 300 2.5 -179.393
      vertex 308.402 0 -179.83
      vertex 308.402 2.5 -179.393
    endloop
  endfacet
  facet normal 0 -0.172189 0.985064
    outer loop
      vertex 308.402 0 -179.83
      vertex 300 2.5 -179.393
      vertex 300 0 -179.83
    endloop
  endfacet
  facet normal -0 0.172189 0.985064
    outer loop
      vertex 300 0 -179.83
      vertex 308.402 -2.5 -179.393
      vertex 308.402 0 -179.83
    endloop
  endfacet
  facet normal 0 0.172189 0.985064
    outer loop
      vertex 308.402 -2.5 -179.393
      vertex 300 0 -179.83
      vertex 300 -2.5 -179.393
    endloop
  endfacet
  facet normal -1 0 0
    outer loop
      vertex 308.402 0 -178.93
      vertex 308.402 2.5 -179.393
      vertex 308.402 0 -179.83
    endloop
  endfacet
  facet normal -1 0 0
    outer loop
      vertex 308.402 2.5 -179.393
      vertex 308.402 0 -178.93
      vertex 308.402 2.5 -178.495
    endloop
  endfacet
  facet normal -1 0 0
    outer loop
      vertex 308.402 -2.5 -179.393
      vertex 308.402 0 -178.93
      vertex 308.402 0 -179.83
    endloop
  endfacet
  facet normal -1 -0 0
    outer loop
      vertex 308.402 0 -178.93
      vertex 308.402 -2.5 -179.393
      vertex 308.402 -2.5 -178.495
    endloop
  endfacet
  facet normal 0 -0.171424 0.985197
    outer loop
      vertex 308.402 2.5 -178.495
      vertex 314.204 0 -178.93
      vertex 314.204 2.5 -178.495
    endloop
  endfacet
  facet normal 0 -0.171424 0.985197
    outer loop
      vertex 314.204 0 -178.93
      vertex 308.402 2.5 -178.495
      vertex 308.402 0 -178.93
    endloop
  endfacet
  facet normal -0 0.171424 0.985197
    outer loop
      vertex 308.402 0 -178.93
      vertex 314.204 -2.5 -178.495
      vertex 314.204 0 -178.93
    endloop
  endfacet
  facet normal 0 0.171424 0.985197
    outer loop
      vertex 314.204 -2.5 -178.495
      vertex 308.402 0 -178.93
      vertex 308.402 -2.5 -178.495
    endloop
  endfacet
  facet normal -1 0 0
    outer loop
      vertex 314.204 0 -178.031
      vertex 314.204 2.5 -178.495
      vertex 314.204 0 -178.93
    endloop
  endfacet
  facet normal -1 0 0
    outer loop
      vertex 314.204 2.5 -178.495
      vertex 314.204 0 -178.031
      vertex 314.204 2.5 -177.598
    endloop
  endfacet
  facet normal -1 0 0
    outer loop
      vertex 314.204 -2.5 -178.495
      vertex 314.204 0 -178.031
      vertex 314.204 0 -178.93
    endloop
  endfacet
  facet normal -1 -0 0
    outer loop
      vertex 314.204 0 -178.031
      vertex 314.204 -2.5 -178.495
      vertex 314.204 -2.5 -177.598
    endloop
  endfacet
  facet normal 0 -0.170659 0.98533
    outer loop
      vertex 314.204 2.5 -177.598
      vertex 320.006 0 -178.031
      vertex 320.006 2.5 -177.598
    endloop
  endfacet
  facet normal 0 -0.170659 0.98533
    outer loop
      vertex 320.006 0 -178.031
      vertex 314.204 2.5 -177.598
      vertex 314.204 0 -178.031
    endloop
  endfacet
  facet normal -0 0.170659 0.98533
    outer loop
      vertex 314.204 0 -178.031
      vertex 320.006 -2.5 -177.598
      vertex 320.006 0 -178.031
    endloop
  endfacet
  facet normal 0 0.170659 0.98533
    outer loop
      vertex 320.006 -2.5 -177.598
      vertex 314.204 0 -178.031
      vertex 314.204 -2.5 -177.598
    endloop
  endfacet
  facet normal -1 0 0
    outer loop
      vertex 320.006 0 -176.771
      vertex 320.006 2.5 -177.598
      vertex 320.006 0 -178.031
    endloop
  endfacet
  facet normal -1 0 0
    outer loop
      vertex 320.006 2.5 -177.598
      vertex 320.006 0 -176.771
      vertex 320.006 2.5 -176.341
    endloop
  endfacet
  facet normal -1 0 0
    outer loop
      vertex 320.006 -2.5 -177.598
      vertex 320.006 0 -176.771
      vertex 320.006 0 -178.031
    endloop
  endfacet
  facet normal -1 -0 0
    outer loop
      vertex 320.006 0 -176.771
      vertex 320.006 -2.5 -177.598
      vertex 320.006 -2.5 -176.341
    endloop
  endfacet
  facet normal 0 -0.169511 0.985528
    outer loop
      vertex 320.006 2.5 -176.341
      vertex 325.808 0 -176.771
      vertex 325.808 2.5 -176.341
    endloop
  endfacet
  facet normal 0 -0.169511 0.985528
    outer loop
      vertex 325.808 0 -176.771
      vertex 320.006 2.5 -176.341
      vertex 320.006 0 -176.771
    endloop
  endfacet
  facet normal -0 0.169511 0.985528
    outer loop
      vertex 320.006 0 -176.771
      vertex 325.808 -2.5 -176.341
      vertex 325.808 0 -176.771
    endloop
  endfacet
  facet normal 0 0.169511 0.985528
    outer loop
      vertex 325.808 -2.5 -176.341
      vertex 320.006 0 -176.771
      vertex 320.006 -2.5 -176.341
    endloop
  endfacet
  facet normal -1 0 0
    outer loop
      vertex 325.808 0 -175.692
      vertex 325.808 2.5 -176.341
      vertex 325.808 0 -176.771
    endloop
  endfacet
  facet normal -1 0 0
    outer loop
      vertex 325.808 2.5 -176.341
      vertex 325.808 0 -175.692
      vertex 325.808 2.5 -175.264
    endloop
  endfacet
  facet normal -1 0 0
    outer loop
      vertex 325.808 -2.5 -176.341
      vertex 325.808 0 -175.692
      vertex 325.808 0 -176.771
    endloop
  endfacet
  facet normal -1 -0 0
    outer loop
      vertex 325.808 0 -175.692
      vertex 325.808 -2.5 -176.341
      vertex 325.808 -2.5 -175.264
    endloop
  endfacet
  facet normal 0 -0.168745 0.98566
    outer loop
      vertex 325.808 2.5 -175.264
      vertex 331.61 0 -175.692
      vertex 331.61 2.5 -175.264
    endloop
  endfacet
  facet normal 0 -0.168745 0.98566
    outer loop
      vertex 331.61 0 -175.692
      vertex 325.808 2.5 -175.264
      vertex 325.808 0 -175.692
    endloop
  endfacet
  facet normal -0 0.168745 0.98566
    outer loop
      vertex 325.808 0 -175.692
      vertex 331.61 -2.5 -175.264
      vertex 331.61 0 -175.692
    endloop
  endfacet
  facet normal 0 0.168745 0.98566
    outer loop
      vertex 331.61 -2.5 -175.264
      vertex 325.808 0 -175.692
      vertex 325.808 -2.5 -175.264
    endloop
  endfacet
  facet normal -1 0 0
    outer loop
      vertex 331.61 0 -174.432
      vertex 331.61 2.5 -175.264
      vertex 331.61 0 -175.692
    endloop
  endfacet
  facet normal -1 0 0
    outer loop
      vertex 331.61 2.5 -175.264
      vertex 331.61 0 -174.432
      vertex 331.61 2.5 -174.008
    endloop
  endfacet
  facet normal -1 0 0
    outer loop
      vertex 331.61 -2.5 -175.264
      vertex 331.61 0 -174.432
      vertex 331.61 0 -175.692
    endloop
  endfacet
  facet normal -1 -0 0
    outer loop
      vertex 331.61 0 -174.432
      vertex 331.61 -2.5 -175.264
      vertex 331.61 -2.5 -174.008
    endloop
  endfacet
  facet normal 0 -0.167212 0.985921
    outer loop
      vertex 331.61 2.5 -174.008
      vertex 337.412 0 -174.432
      vertex 337.412 2.5 -174.008
    endloop
  endfacet
  facet normal 0 -0.167212 0.985921
    outer loop
      vertex 337.412 0 -174.432
      vertex 331.61 2.5 -174.008
      vertex 331.61 0 -174.432
    endloop
  endfacet
  facet normal -0 0.167212 0.985921
    outer loop
      vertex 331.61 0 -174.432
      vertex 337.412 -2.5 -174.008
      vertex 337.412 0 -174.432
    endloop
  endfacet
  facet normal 0 0.167212 0.985921
    outer loop
      vertex 337.412 -2.5 -174.008
      vertex 331.61 0 -174.432
      vertex 331.61 -2.5 -174.008
    endloop
  endfacet
  facet normal -1 0 0
    outer loop
      vertex 337.412 0 -168.314
      vertex 337.412 2.5 -174.008
      vertex 337.412 0 -174.432
    endloop
  endfacet
  facet normal -1 0 0
    outer loop
      vertex 337.412 2.5 -174.008
      vertex 337.412 0 -168.314
      vertex 337.412 2.5 -167.905
    endloop
  endfacet
  facet normal -1 0 0
    outer loop
      vertex 337.412 -2.5 -174.008
      vertex 337.412 0 -168.314
      vertex 337.412 0 -174.432
    endloop
  endfacet
  facet normal -1 -0 0
    outer loop
      vertex 337.412 0 -168.314
      vertex 337.412 -2.5 -174.008
      vertex 337.412 -2.5 -167.905
    endloop
  endfacet
  facet normal 0 -0.161454 0.98688
    outer loop
      vertex 337.412 2.5 -167.905
      vertex 343.214 0 -168.314
      vertex 343.214 2.5 -167.905
    endloop
  endfacet
  facet normal 0 -0.161454 0.98688
    outer loop
      vertex 343.214 0 -168.314
      vertex 337.412 2.5 -167.905
      vertex 337.412 0 -168.314
    endloop
  endfacet
  facet normal -0 0.161454 0.98688
    outer loop
      vertex 337.412 0 -168.314
      vertex 343.214 -2.5 -167.905
      vertex 343.214 0 -168.314
    endloop
  endfacet
  facet normal 0 0.161454 0.98688
    outer loop
      vertex 343.214 -2.5 -167.905
      vertex 337.412 0 -168.314
      vertex 337.412 -2.5 -167.905
    endloop
  endfacet
  facet normal -1 0 0
    outer loop
      vertex 343.214 0 -162.197
      vertex 343.214 2.5 -167.905
      vertex 343.214 0 -168.314
    endloop
  endfacet
  facet normal -1 0 0
    outer loop
      vertex 343.214 2.5 -167.905
      vertex 343.214 0 -162.197
      vertex 343.214 2.5 -161.802
    endloop
  endfacet
  facet normal -1 0 0
    outer loop
      vertex 343.214 -2.5 -167.905
      vertex 343.214 0 -162.197
      vertex 343.214 0 -168.314
    endloop
  endfacet
  facet normal -1 -0 0
    outer loop
      vertex 343.214 0 -162.197
      vertex 343.214 -2.5 -167.905
      vertex 343.214 -2.5 -161.802
    endloop
  endfacet
  facet normal 0 -0.156064 0.987747
    outer loop
      vertex 343.214 2.5 -161.802
      vertex 349.016 0 -162.197
      vertex 349.016 2.5 -161.802
    endloop
  endfacet
  facet normal 0 -0.156064 0.987747
    outer loop
      vertex 349.016 0 -162.197
      vertex 343.214 2.5 -161.802
      vertex 343.214 0 -162.197
    endloop
  endfacet
  facet normal -0 0.156064 0.987747
    outer loop
      vertex 343.214 0 -162.197
      vertex 349.016 -2.5 -161.802
      vertex 349.016 0 -162.197
    endloop
  endfacet
  facet normal 0 0.156064 0.987747
    outer loop
      vertex 349.016 -2.5 -161.802
      vertex 343.214 0 -162.197
      vertex 343.214 -2.5 -161.802
    endloop
  endfacet
  facet normal -1 0 0
    outer loop
      vertex 349.016 0 -156.079
      vertex 349.016 2.5 -161.802
      vertex 349.016 0 -162.197
    endloop
  endfacet
  facet normal -1 0 0
    outer loop
      vertex 349.016 2.5 -161.802
      vertex 349.016 0 -156.079
      vertex 349.016 2.5 -155.7
    endloop
  endfacet
  facet normal -1 0 0
    outer loop
      vertex 349.016 -2.5 -161.802
      vertex 349.016 0 -156.079
      vertex 349.016 0 -162.197
    endloop
  endfacet
  facet normal -1 -0 0
    outer loop
      vertex 349.016 0 -156.079
      vertex 349.016 -2.5 -161.802
      vertex 349.016 -2.5 -155.7
    endloop
  endfacet
  facet normal 0 -0.149887 0.988703
    outer loop
      vertex 349.016 2.5 -155.7
      vertex 354.818 0 -156.079
      vertex 354.818 2.5 -155.7
    endloop
  endfacet
  facet normal 0 -0.149887 0.988703
    outer loop
      vertex 354.818 0 -156.079
      vertex 349.016 2.5 -155.7
      vertex 349.016 0 -156.079
    endloop
  endfacet
  facet normal -0 0.149887 0.988703
    outer loop
      vertex 349.016 0 -156.079
      vertex 354.818 -2.5 -155.7
      vertex 354.818 0 -156.079
    endloop
  endfacet
  facet normal 0 0.149887 0.988703
    outer loop
      vertex 354.818 -2.5 -155.7
      vertex 349.016 0 -156.079
      vertex 349.016 -2.5 -155.7
    endloop
  endfacet
  facet normal -1 0 0
    outer loop
      vertex 354.818 0 -150.142
      vertex 354.818 2.5 -155.7
      vertex 354.818 0 -156.079
    endloop
  endfacet
  facet normal -1 0 0
    outer loop
      vertex 354.818 2.5 -155.7
      vertex 354.818 0 -150.142
      vertex 354.818 2.5 -149.776
    endloop
  endfacet
  facet normal -1 0 0
    outer loop
      vertex 354.818 -2.5 -155.7
      vertex 354.818 0 -150.142
      vertex 354.818 0 -156.079
    endloop
  endfacet
  facet normal -1 -0 0
    outer loop
      vertex 354.818 0 -150.142
      vertex 354.818 -2.5 -155.7
      vertex 354.818 -2.5 -149.776
    endloop
  endfacet
  facet normal 0 -0.144856 0.989453
    outer loop
      vertex 354.818 2.5 -149.776
      vertex 360.62 0 -150.142
      vertex 360.62 2.5 -149.776
    endloop
  endfacet
  facet normal 0 -0.144856 0.989453
    outer loop
      vertex 360.62 0 -150.142
      vertex 354.818 2.5 -149.776
      vertex 354.818 0 -150.142
    endloop
  endfacet
  facet normal -0 0.144856 0.989453
    outer loop
      vertex 354.818 0 -150.142
      vertex 360.62 -2.5 -149.776
      vertex 360.62 0 -150.142
    endloop
  endfacet
  facet normal 0 0.144856 0.989453
    outer loop
      vertex 360.62 -2.5 -149.776
      vertex 354.818 0 -150.142
      vertex 354.818 -2.5 -149.776
    endloop
  endfacet
  facet normal -1 0 0
    outer loop
      vertex 360.62 0 -144.024
      vertex 360.62 2.5 -149.776
      vertex 360.62 0 -150.142
    endloop
  endfacet
  facet normal -1 0 0
    outer loop
      vertex 360.62 2.5 -149.776
      vertex 360.62 0 -144.024
      vertex 360.62 2.5 -143.674
    endloop
  endfacet
  facet normal -1 0 0
    outer loop
      vertex 360.62 -2.5 -149.776
      vertex 360.62 0 -144.024
      vertex 360.62 0 -150.142
    endloop
  endfacet
  facet normal -1 -0 0
    outer loop
      vertex 360.62 0 -144.024
      vertex 360.62 -2.5 -149.776
      vertex 360.62 -2.5 -143.674
    endloop
  endfacet
  facet normal 0 -0.138648 0.990342
    outer loop
      vertex 360.62 2.5 -143.674
      vertex 366.422 0 -144.024
      vertex 366.422 2.5 -143.674
    endloop
  endfacet
  facet normal 0 -0.138648 0.990342
    outer loop
      vertex 366.422 0 -144.024
      vertex 360.62 2.5 -143.674
      vertex 360.62 0 -144.024
    endloop
  endfacet
  facet normal -0 0.138648 0.990342
    outer loop
      vertex 360.62 0 -144.024
      vertex 366.422 -2.5 -143.674
      vertex 366.422 0 -144.024
    endloop
  endfacet
  facet normal 0 0.138648 0.990342
    outer loop
      vertex 366.422 -2.5 -143.674
      vertex 360.62 0 -144.024
      vertex 360.62 -2.5 -143.674
    endloop
  endfacet
  facet normal -1 0 0
    outer loop
      vertex 366.422 0 -137.906
      vertex 366.422 2.5 -143.674
      vertex 366.422 0 -144.024
    endloop
  endfacet
  facet normal -1 0 0
    outer loop
      vertex 366.422 2.5 -143.674
      vertex 366.422 0 -137.906
      vertex 366.422 2.5 -137.571
    endloop
  endfacet
  facet normal -1 0 0
    outer loop
      vertex 366.422 -2.5 -143.674
      vertex 366.422 0 -137.906
      vertex 366.422 0 -144.024
    endloop
  endfacet
  facet normal -1 -0 0
    outer loop
      vertex 366.422 0 -137.906
      vertex 366.422 -2.5 -143.674
      vertex 366.422 -2.5 -137.571
    endloop
  endfacet
  facet normal 0 -0.132813 0.991141
    outer loop
      vertex 366.422 2.5 -137.571
      vertex 372.224 0 -137.906
      vertex 372.224 2.5 -137.571
    endloop
  endfacet
  facet normal 0 -0.132813 0.991141
    outer loop
      vertex 372.224 0 -137.906
      vertex 366.422 2.5 -137.571
      vertex 366.422 0 -137.906
    endloop
  endfacet
  facet normal -0 0.132813 0.991141
    outer loop
      vertex 366.422 0 -137.906
      vertex 372.224 -2.5 -137.571
      vertex 372.224 0 -137.906
    endloop
  endfacet
  facet normal 0 0.132813 0.991141
    outer loop
      vertex 372.224 -2.5 -137.571
      vertex 366.422 0 -137.906
      vertex 366.422 -2.5 -137.571
    endloop
  endfacet
  facet normal -1 0 0
    outer loop
      vertex 372.224 0 -131.789
      vertex 372.224 2.5 -137.571
      vertex 372.224 0 -137.906
    endloop
  endfacet
  facet normal -1 0 0
    outer loop
      vertex 372.224 2.5 -137.571
      vertex 372.224 0 -131.789
      vertex 372.224 2.5 -131.468
    endloop
  endfacet
  facet normal -1 0 0
    outer loop
      vertex 372.224 -2.5 -137.571
      vertex 372.224 0 -131.789
      vertex 372.224 0 -137.906
    endloop
  endfacet
  facet normal -1 -0 0
    outer loop
      vertex 372.224 0 -131.789
      vertex 372.224 -2.5 -137.571
      vertex 372.224 -2.5 -131.468
    endloop
  endfacet
  facet normal 0 -0.127354 0.991857
    outer loop
      vertex 372.224 2.5 -131.468
      vertex 378.026 0 -131.789
      vertex 378.026 2.5 -131.468
    endloop
  endfacet
  facet normal 0 -0.127354 0.991857
    outer loop
      vertex 378.026 0 -131.789
      vertex 372.224 2.5 -131.468
      vertex 372.224 0 -131.789
    endloop
  endfacet
  facet normal -0 0.127354 0.991857
    outer loop
      vertex 372.224 0 -131.789
      vertex 378.026 -2.5 -131.468
      vertex 378.026 0 -131.789
    endloop
  endfacet
  facet normal 0 0.127354 0.991857
    outer loop
      vertex 378.026 -2.5 -131.468
      vertex 372.224 0 -131.789
      vertex 372.224 -2.5 -131.468
    endloop
  endfacet
  facet normal -1 0 0
    outer loop
      vertex 378.026 0 -125.671
      vertex 378.026 2.5 -131.468
      vertex 378.026 0 -131.789
    endloop
  endfacet
  facet normal -1 0 0
    outer loop
      vertex 378.026 2.5 -131.468
      vertex 378.026 0 -125.671
      vertex 378.026 2.5 -125.365
    endloop
  endfacet
  facet normal -1 0 0
    outer loop
      vertex 378.026 -2.5 -131.468
      vertex 378.026 0 -125.671
      vertex 378.026 0 -131.789
    endloop
  endfacet
  facet normal -1 -0 0
    outer loop
      vertex 378.026 0 -125.671
      vertex 378.026 -2.5 -131.468
      vertex 378.026 -2.5 -125.365
    endloop
  endfacet
  facet normal 0 -0.121493 0.992592
    outer loop
      vertex 378.026 2.5 -125.365
      vertex 383.828 0 -125.671
      vertex 383.828 2.5 -125.365
    endloop
  endfacet
  facet normal 0 -0.121493 0.992592
    outer loop
      vertex 383.828 0 -125.671
      vertex 378.026 2.5 -125.365
      vertex 378.026 0 -125.671
    endloop
  endfacet
  facet normal -0 0.121493 0.992592
    outer loop
      vertex 378.026 0 -125.671
      vertex 383.828 -2.5 -125.365
      vertex 383.828 0 -125.671
    endloop
  endfacet
  facet normal 0 0.121493 0.992592
    outer loop
      vertex 383.828 -2.5 -125.365
      vertex 378.026 0 -125.671
      vertex 378.026 -2.5 -125.365
    endloop
  endfacet
  facet normal -1 0 0
    outer loop
      vertex 383.828 0 -119.553
      vertex 383.828 2.5 -125.365
      vertex 383.828 0 -125.671
    endloop
  endfacet
  facet normal -1 0 0
    outer loop
      vertex 383.828 2.5 -125.365
      vertex 383.828 0 -119.553
      vertex 383.828 2.5 -119.263
    endloop
  endfacet
  facet normal -1 0 0
    outer loop
      vertex 383.828 -2.5 -125.365
      vertex 383.828 0 -119.553
      vertex 383.828 0 -125.671
    endloop
  endfacet
  facet normal -1 -0 0
    outer loop
      vertex 383.828 0 -119.553
      vertex 383.828 -2.5 -125.365
      vertex 383.828 -2.5 -119.263
    endloop
  endfacet
  facet normal 0 -0.115227 0.993339
    outer loop
      vertex 383.828 2.5 -119.263
      vertex 389.63 0 -119.553
      vertex 389.63 2.5 -119.263
    endloop
  endfacet
  facet normal 0 -0.115227 0.993339
    outer loop
      vertex 389.63 0 -119.553
      vertex 383.828 2.5 -119.263
      vertex 383.828 0 -119.553
    endloop
  endfacet
  facet normal -0 0.115227 0.993339
    outer loop
      vertex 383.828 0 -119.553
      vertex 389.63 -2.5 -119.263
      vertex 389.63 0 -119.553
    endloop
  endfacet
  facet normal 0 0.115227 0.993339
    outer loop
      vertex 389.63 -2.5 -119.263
      vertex 383.828 0 -119.553
      vertex 383.828 -2.5 -119.263
    endloop
  endfacet
  facet normal -1 0 0
    outer loop
      vertex 389.63 0 -113.616
      vertex 389.63 2.5 -119.263
      vertex 389.63 0 -119.553
    endloop
  endfacet
  facet normal -1 0 0
    outer loop
      vertex 389.63 2.5 -119.263
      vertex 389.63 0 -113.616
      vertex 389.63 2.5 -113.339
    endloop
  endfacet
  facet normal -1 0 0
    outer loop
      vertex 389.63 -2.5 -119.263
      vertex 389.63 0 -113.616
      vertex 389.63 0 -119.553
    endloop
  endfacet
  facet normal -1 -0 0
    outer loop
      vertex 389.63 0 -113.616
      vertex 389.63 -2.5 -119.263
      vertex 389.63 -2.5 -113.339
    endloop
  endfacet
  facet normal 0 -0.110126 0.993918
    outer loop
      vertex 389.63 2.5 -113.339
      vertex 395.432 0 -113.616
      vertex 395.432 2.5 -113.339
    endloop
  endfacet
  facet normal 0 -0.110126 0.993918
    outer loop
      vertex 395.432 0 -113.616
      vertex 389.63 2.5 -113.339
      vertex 389.63 0 -113.616
    endloop
  endfacet
  facet normal -0 0.110126 0.993918
    outer loop
      vertex 389.63 0 -113.616
      vertex 395.432 -2.5 -113.339
      vertex 395.432 0 -113.616
    endloop
  endfacet
  facet normal 0 0.110126 0.993918
    outer loop
      vertex 395.432 -2.5 -113.339
      vertex 389.63 0 -113.616
      vertex 389.63 -2.5 -113.339
    endloop
  endfacet
  facet normal -1 0 0
    outer loop
      vertex 395.432 0 -107.498
      vertex 395.432 2.5 -113.339
      vertex 395.432 0 -113.616
    endloop
  endfacet
  facet normal -1 0 0
    outer loop
      vertex 395.432 2.5 -113.339
      vertex 395.432 0 -107.498
      vertex 395.432 2.5 -107.237
    endloop
  endfacet
  facet normal -1 0 0
    outer loop
      vertex 395.432 -2.5 -113.339
      vertex 395.432 0 -107.498
      vertex 395.432 0 -113.616
    endloop
  endfacet
  facet normal -1 -0 0
    outer loop
      vertex 395.432 0 -107.498
      vertex 395.432 -2.5 -113.339
      vertex 395.432 -2.5 -107.237
    endloop
  endfacet
  facet normal -0 0.103836 0.994594
    outer loop
      vertex 395.432 0 -107.498
      vertex 401.234 -2.5 -107.237
      vertex 401.234 0 -107.498
    endloop
  endfacet
  facet normal 0 0.103836 0.994594
    outer loop
      vertex 401.234 -2.5 -107.237
      vertex 395.432 0 -107.498
      vertex 395.432 -2.5 -107.237
    endloop
  endfacet
  facet normal 0 -0.103836 0.994594
    outer loop
      vertex 395.432 2.5 -107.237
      vertex 401.234 0 -107.498
      vertex 401.234 2.5 -107.237
    endloop
  endfacet
  facet normal 0 -0.103836 0.994594
    outer loop
      vertex 401.234 0 -107.498
      vertex 395.432 2.5 -107.237
      vertex 395.432 0 -107.498
    endloop
  endfacet
  facet normal -1 0 0
    outer loop
      vertex 401.234 0 -101.381
      vertex 401.234 2.5 -107.237
      vertex 401.234 0 -107.498
    endloop
  endfacet
  facet normal -1 0 0
    outer loop
      vertex 401.234 2.5 -107.237
      vertex 401.234 0 -101.381
      vertex 401.234 2.5 -101.134
    endloop
  endfacet
  facet normal -1 0 0
    outer loop
      vertex 401.234 -2.5 -107.237
      vertex 401.234 0 -101.381
      vertex 401.234 0 -107.498
    endloop
  endfacet
  facet normal -1 -0 0
    outer loop
      vertex 401.234 0 -101.381
      vertex 401.234 -2.5 -107.237
      vertex 401.234 -2.5 -101.134
    endloop
  endfacet
  facet normal 0 -0.0983213 0.995155
    outer loop
      vertex 401.234 2.5 -101.134
      vertex 407.036 0 -101.381
      vertex 407.036 2.5 -101.134
    endloop
  endfacet
  facet normal 0 -0.0983213 0.995155
    outer loop
      vertex 407.036 0 -101.381
      vertex 401.234 2.5 -101.134
      vertex 401.234 0 -101.381
    endloop
  endfacet
  facet normal -1 0 0
    outer loop
      vertex 407.036 0 -95.2629
      vertex 407.036 2.5 -101.134
      vertex 407.036 0 -101.381
    endloop
  endfacet
  facet normal -1 0 0
    outer loop
      vertex 407.036 2.5 -101.134
      vertex 407.036 0 -95.2629
      vertex 407.036 2.5 -95.0311
    endloop
  endfacet
  facet normal -1 0 0
    outer loop
      vertex 407.036 -2.5 -101.134
      vertex 407.036 0 -95.2629
      vertex 407.036 0 -101.381
    endloop
  endfacet
  facet normal -1 -0 0
    outer loop
      vertex 407.036 0 -95.2629
      vertex 407.036 -2.5 -101.134
      vertex 407.036 -2.5 -95.0311
    endloop
  endfacet
  facet normal -0 0.0983213 0.995155
    outer loop
      vertex 401.234 0 -101.381
      vertex 407.036 -2.5 -101.134
      vertex 407.036 0 -101.381
    endloop
  endfacet
  facet normal 0 0.0983213 0.995155
    outer loop
      vertex 407.036 -2.5 -101.134
      vertex 401.234 0 -101.381
      vertex 401.234 -2.5 -101.134
    endloop
  endfacet
  facet normal 0 -0.092324 0.995729
    outer loop
      vertex 407.036 2.5 -95.0311
      vertex 412.838 0 -95.2629
      vertex 412.838 2.5 -95.0311
    endloop
  endfacet
  facet normal 0 -0.092324 0.995729
    outer loop
      vertex 412.838 0 -95.2629
      vertex 407.036 2.5 -95.0311
      vertex 407.036 0 -95.2629
    endloop
  endfacet
  facet normal -0 0.092324 0.995729
    outer loop
      vertex 407.036 0 -95.2629
      vertex 412.838 -2.5 -95.0311
      vertex 412.838 0 -95.2629
    endloop
  endfacet
  facet normal 0 0.092324 0.995729
    outer loop
      vertex 412.838 -2.5 -95.0311
      vertex 407.036 0 -95.2629
      vertex 407.036 -2.5 -95.0311
    endloop
  endfacet
  facet normal -1 0 0
    outer loop
      vertex 412.838 0 -93.4636
      vertex 412.838 2.5 -95.0311
      vertex 412.838 0 -95.2629
    endloop
  endfacet
  facet normal -1 0 0
    outer loop
      vertex 412.838 2.5 -95.0311
      vertex 412.838 0 -93.4636
      vertex 412.838 2.5 -93.2361
    endloop
  endfacet
  facet normal -1 0 0
    outer loop
      vertex 412.838 -2.5 -95.0311
      vertex 412.838 0 -93.4636
      vertex 412.838 0 -95.2629
    endloop
  endfacet
  facet normal -1 -0 0
    outer loop
      vertex 412.838 0 -93.4636
      vertex 412.838 -2.5 -95.0311
      vertex 412.838 -2.5 -93.2361
    endloop
  endfacet
  facet normal 0 -0.0906255 0.995885
    outer loop
      vertex 412.838 2.5 -93.2361
      vertex 418.64 0 -93.4636
      vertex 418.64 2.5 -93.2361
    endloop
  endfacet
  facet normal 0 -0.0906255 0.995885
    outer loop
      vertex 418.64 0 -93.4636
      vertex 412.838 2.5 -93.2361
      vertex 412.838 0 -93.4636
    endloop
  endfacet
  facet normal -0 0.0906255 0.995885
    outer loop
      vertex 412.838 0 -93.4636
      vertex 418.64 -2.5 -93.2361
      vertex 418.64 0 -93.4636
    endloop
  endfacet
  facet normal 0 0.0906255 0.995885
    outer loop
      vertex 418.64 -2.5 -93.2361
      vertex 412.838 0 -93.4636
      vertex 412.838 -2.5 -93.2361
    endloop
  endfacet
  facet normal -1 0 0
    outer loop
      vertex 418.64 0 -91.6643
      vertex 418.64 2.5 -93.2361
      vertex 418.64 0 -93.4636
    endloop
  endfacet
  facet normal -1 0 0
    outer loop
      vertex 418.64 2.5 -93.2361
      vertex 418.64 0 -91.6643
      vertex 418.64 2.5 -91.4412
    endloop
  endfacet
  facet normal -1 0 0
    outer loop
      vertex 418.64 -2.5 -93.2361
      vertex 418.64 0 -91.6643
      vertex 418.64 0 -93.4636
    endloop
  endfacet
  facet normal -1 -0 0
    outer loop
      vertex 418.64 0 -91.6643
      vertex 418.64 -2.5 -93.2361
      vertex 418.64 -2.5 -91.4412
    endloop
  endfacet
  facet normal 0 -0.0888868 0.996042
    outer loop
      vertex 418.64 2.5 -91.4412
      vertex 430.244 0 -91.6643
      vertex 430.244 2.5 -91.4412
    endloop
  endfacet
  facet normal 0 -0.0888868 0.996042
    outer loop
      vertex 430.244 0 -91.6643
      vertex 418.64 2.5 -91.4412
      vertex 418.64 0 -91.6643
    endloop
  endfacet
  facet normal -0 0.0888868 0.996042
    outer loop
      vertex 418.64 0 -91.6643
      vertex 430.244 -2.5 -91.4412
      vertex 430.244 0 -91.6643
    endloop
  endfacet
  facet normal 0 0.0888868 0.996042
    outer loop
      vertex 430.244 -2.5 -91.4412
      vertex 418.64 0 -91.6643
      vertex 418.64 -2.5 -91.4412
    endloop
  endfacet
  facet normal -1 0 0
    outer loop
      vertex 430.244 0 -91.4844
      vertex 430.244 2.5 -91.4412
      vertex 430.244 0 -91.6643
    endloop
  endfacet
  facet normal -1 -0 0
    outer loop
      vertex 430.244 2.5 -91.4412
      vertex 430.244 0 -91.4844
      vertex 430.244 2.5 -91.2617
    endloop
  endfacet
  facet normal -1 0 0
    outer loop
      vertex 430.244 -2.5 -91.4412
      vertex 430.244 0 -91.4844
      vertex 430.244 0 -91.6643
    endloop
  endfacet
  facet normal -1 0 0
    outer loop
      vertex 430.244 0 -91.4844
      vertex 430.244 -2.5 -91.4412
      vertex 430.244 -2.5 -91.2617
    endloop
  endfacet
  facet normal 0 -0.0887287 0.996056
    outer loop
      vertex 430.244 2.5 -91.2617
      vertex 441.848 0 -91.4844
      vertex 441.848 2.5 -91.2617
    endloop
  endfacet
  facet normal 0 -0.0887287 0.996056
    outer loop
      vertex 441.848 0 -91.4844
      vertex 430.244 2.5 -91.2617
      vertex 430.244 0 -91.4844
    endloop
  endfacet
  facet normal -0 0.0887287 0.996056
    outer loop
      vertex 430.244 0 -91.4844
      vertex 441.848 -2.5 -91.2617
      vertex 441.848 0 -91.4844
    endloop
  endfacet
  facet normal 0 0.0887287 0.996056
    outer loop
      vertex 441.848 -2.5 -91.2617
      vertex 430.244 0 -91.4844
      vertex 430.244 -2.5 -91.2617
    endloop
  endfacet
  facet normal -1 0 0
    outer loop
      vertex 441.848 0 -91.3044
      vertex 441.848 2.5 -91.2617
      vertex 441.848 0 -91.4844
    endloop
  endfacet
  facet normal -1 -0 0
    outer loop
      vertex 441.848 2.5 -91.2617
      vertex 441.848 0 -91.3044
      vertex 441.848 2.5 -91.0822
    endloop
  endfacet
  facet normal -1 0 0
    outer loop
      vertex 441.848 -2.5 -91.2617
      vertex 441.848 0 -91.3044
      vertex 441.848 0 -91.4844
    endloop
  endfacet
  facet normal -1 0 0
    outer loop
      vertex 441.848 0 -91.3044
      vertex 441.848 -2.5 -91.2617
      vertex 441.848 -2.5 -91.0822
    endloop
  endfacet
  facet normal -0 0.088531 0.996073
    outer loop
      vertex 441.848 0 -91.3044
      vertex 450 -2.5 -91.0822
      vertex 450 0 -91.3044
    endloop
  endfacet
  facet normal 0 0.088531 0.996073
    outer loop
      vertex 450 -2.5 -91.0822
      vertex 441.848 0 -91.3044
      vertex 441.848 -2.5 -91.0822
    endloop
  endfacet
  facet normal 0 -0.088531 0.996073
    outer loop
      vertex 441.848 2.5 -91.0822
      vertex 450 0 -91.3044
      vertex 450 2.5 -91.0822
    endloop
  endfacet
  facet normal 0 -0.088531 0.996073
    outer loop
      vertex 450 0 -91.3044
      vertex 441.848 2.5 -91.0822
      vertex 441.848 0 -91.3044
    endloop
  endfacet
  facet normal 1 -0 0
    outer loop
      vertex 450 0 -91.3044
      vertex 450 2.5 -96.2978
      vertex 450 2.5 -91.0822
    endloop
  endfacet
  facet normal 1 0 0
    outer loop
      vertex 450 0 -91.3044
      vertex 450 0 -96.52
      vertex 450 2.5 -96.2978
    endloop
  endfacet
  facet normal 1 0 0
    outer loop
      vertex 450 -2.5 -96.2978
      vertex 450 0 -91.3044
      vertex 450 -2.5 -91.0822
    endloop
  endfacet
  facet normal 1 0 0
    outer loop
      vertex 450 0 -91.3044
      vertex 450 -2.5 -96.2978
      vertex 450 0 -96.52
    endloop
  endfacet
  facet normal -1 0 0
    outer loop
      vertex 300 0 -179.83
      vertex 300 2.5 -189.563
      vertex 300 0 -190
    endloop
  endfacet
  facet normal -1 0 0
    outer loop
      vertex 300 2.5 -189.563
      vertex 300 0 -179.83
      vertex 300 2.5 -179.393
    endloop
  endfacet
  facet normal -1 0 0
    outer loop
      vertex 300 -2.5 -189.563
      vertex 300 0 -179.83
      vertex 300 0 -190
    endloop
  endfacet
  facet normal -1 -0 0
    outer loop
      vertex 300 0 -179.83
      vertex 300 -2.5 -189.563
      vertex 300 -2.5 -179.393
    endloop
  endfacet
  facet normal 0 1 0
    outer loop
      vertex 450 2.5 -91.0822
      vertex 441.848 2.5 -91.2617
      vertex 441.848 2.5 -91.0822
    endloop
  endfacet
  facet normal 0 1 0
    outer loop
      vertex 441.848 2.5 -91.2617
      vertex 430.244 2.5 -91.4412
      vertex 430.244 2.5 -91.2617
    endloop
  endfacet
  facet normal 0 1 0
    outer loop
      vertex 430.244 2.5 -91.4412
      vertex 418.64 2.5 -93.2361
      vertex 418.64 2.5 -91.4412
    endloop
  endfacet
  facet normal 0 1 -0
    outer loop
      vertex 432 2.5 -96.4873
      vertex 430.244 2.5 -91.4412
      vertex 441.848 2.5 -91.2617
    endloop
  endfacet
  facet normal 0 1 -0
    outer loop
      vertex 444 2.5 -96.2978
      vertex 441.848 2.5 -91.2617
      vertex 450 2.5 -91.0822
    endloop
  endfacet
  facet normal 0 1 0
    outer loop
      vertex 418.64 2.5 -93.2361
      vertex 412.838 2.5 -95.0311
      vertex 412.838 2.5 -93.2361
    endloop
  endfacet
  facet normal 0 1 0
    outer loop
      vertex 420 2.5 -96.6769
      vertex 430.244 2.5 -91.4412
      vertex 432 2.5 -96.4873
    endloop
  endfacet
  facet normal 0 1 0
    outer loop
      vertex 444 2.5 -96.2978
      vertex 450 2.5 -91.0822
      vertex 450 2.5 -96.2978
    endloop
  endfacet
  facet normal 0 1 0
    outer loop
      vertex 441.848 2.5 -91.2617
      vertex 444 2.5 -96.2978
      vertex 432 2.5 -96.4873
    endloop
  endfacet
  facet normal 0 1 0
    outer loop
      vertex 430.244 2.5 -91.4412
      vertex 420 2.5 -96.6769
      vertex 418.64 2.5 -93.2361
    endloop
  endfacet
  facet normal 0 1 0
    outer loop
      vertex 432 2.5 -96.4873
      vertex 444 2.5 -96.2978
      vertex 444 2.5 -96.4873
    endloop
  endfacet
  facet normal 0 1 0
    outer loop
      vertex 414 2.5 -98.5725
      vertex 418.64 2.5 -93.2361
      vertex 420 2.5 -96.6769
    endloop
  endfacet
  facet normal 0 1 0
    outer loop
      vertex 420 2.5 -96.6769
      vertex 432 2.5 -96.4873
      vertex 432 2.5 -96.6769
    endloop
  endfacet
  facet normal 0 1 0
    outer loop
      vertex 418.64 2.5 -93.2361
      vertex 414 2.5 -98.5725
      vertex 412.838 2.5 -95.0311
    endloop
  endfacet
  facet normal 0 1 0
    outer loop
      vertex 414 2.5 -98.5725
      vertex 420 2.5 -96.6769
      vertex 420 2.5 -98.5725
    endloop
  endfacet
  facet normal 0 1 0
    outer loop
      vertex 408 2.5 -100.468
      vertex 412.838 2.5 -95.0311
      vertex 414 2.5 -98.5725
    endloop
  endfacet
  facet normal 0 1 0
    outer loop
      vertex 408 2.5 -100.468
      vertex 414 2.5 -98.5725
      vertex 414 2.5 -100.468
    endloop
  endfacet
  facet normal 0 1 0
    outer loop
      vertex 412.838 2.5 -95.0311
      vertex 408 2.5 -100.468
      vertex 407.036 2.5 -95.0311
    endloop
  endfacet
  facet normal 0 1 0
    outer loop
      vertex 408 2.5 -100.468
      vertex 407.036 2.5 -101.134
      vertex 407.036 2.5 -95.0311
    endloop
  endfacet
  facet normal 0 1 -0
    outer loop
      vertex 408 2.5 -106.913
      vertex 407.036 2.5 -101.134
      vertex 408 2.5 -100.468
    endloop
  endfacet
  facet normal 0 1 0
    outer loop
      vertex 402 2.5 -106.913
      vertex 407.036 2.5 -101.134
      vertex 408 2.5 -106.913
    endloop
  endfacet
  facet normal 0 1 0
    outer loop
      vertex 407.036 2.5 -101.134
      vertex 402 2.5 -106.913
      vertex 401.234 2.5 -101.134
    endloop
  endfacet
  facet normal 0 1 0
    outer loop
      vertex 402 2.5 -106.913
      vertex 401.234 2.5 -107.237
      vertex 401.234 2.5 -101.134
    endloop
  endfacet
  facet normal 0 1 -0
    outer loop
      vertex 396 2.5 -113.358
      vertex 395.432 2.5 -107.237
      vertex 401.234 2.5 -107.237
    endloop
  endfacet
  facet normal 0 1 -0
    outer loop
      vertex 402 2.5 -113.358
      vertex 401.234 2.5 -107.237
      vertex 402 2.5 -106.913
    endloop
  endfacet
  facet normal 0 1 0
    outer loop
      vertex 401.234 2.5 -107.237
      vertex 402 2.5 -113.358
      vertex 396 2.5 -113.358
    endloop
  endfacet
  facet normal 0 1 0
    outer loop
      vertex 395.432 2.5 -107.237
      vertex 396 2.5 -113.358
      vertex 395.432 2.5 -113.339
    endloop
  endfacet
  facet normal 0 1 -0
    outer loop
      vertex 396 2.5 -119.804
      vertex 395.432 2.5 -113.339
      vertex 396 2.5 -113.358
    endloop
  endfacet
  facet normal 0 1 0
    outer loop
      vertex 395.432 2.5 -113.339
      vertex 389.63 2.5 -119.263
      vertex 389.63 2.5 -113.339
    endloop
  endfacet
  facet normal 0 1 0
    outer loop
      vertex 395.432 2.5 -113.339
      vertex 396 2.5 -119.804
      vertex 389.63 2.5 -119.263
    endloop
  endfacet
  facet normal 0 1 -0
    outer loop
      vertex 390 2.5 -119.804
      vertex 389.63 2.5 -119.263
      vertex 396 2.5 -119.804
    endloop
  endfacet
  facet normal 0 1 0
    outer loop
      vertex 389.63 2.5 -119.263
      vertex 390 2.5 -119.804
      vertex 383.828 2.5 -119.263
    endloop
  endfacet
  facet normal 0 1 0
    outer loop
      vertex 390 2.5 -119.804
      vertex 383.828 2.5 -125.365
      vertex 383.828 2.5 -119.263
    endloop
  endfacet
  facet normal 0 1 -0
    outer loop
      vertex 390 2.5 -126.059
      vertex 383.828 2.5 -125.365
      vertex 390 2.5 -119.804
    endloop
  endfacet
  facet normal 0 1 -0
    outer loop
      vertex 384 2.5 -126.059
      vertex 383.828 2.5 -125.365
      vertex 390 2.5 -126.059
    endloop
  endfacet
  facet normal 0 1 0
    outer loop
      vertex 383.828 2.5 -125.365
      vertex 384 2.5 -126.059
      vertex 378.026 2.5 -125.365
    endloop
  endfacet
  facet normal 0 1 0
    outer loop
      vertex 384 2.5 -126.059
      vertex 378.026 2.5 -131.468
      vertex 378.026 2.5 -125.365
    endloop
  endfacet
  facet normal 0 1 -0
    outer loop
      vertex 384 2.5 -132.504
      vertex 378.026 2.5 -131.468
      vertex 384 2.5 -126.059
    endloop
  endfacet
  facet normal 0 1 0
    outer loop
      vertex 378 2.5 -132.504
      vertex 378.026 2.5 -131.468
      vertex 384 2.5 -132.504
    endloop
  endfacet
  facet normal 0 1 0
    outer loop
      vertex 378.026 2.5 -131.468
      vertex 378 2.5 -132.504
      vertex 372.224 2.5 -131.468
    endloop
  endfacet
  facet normal 0 1 0
    outer loop
      vertex 378 2.5 -132.504
      vertex 372.224 2.5 -137.571
      vertex 372.224 2.5 -131.468
    endloop
  endfacet
  facet normal 0 1 -0
    outer loop
      vertex 378 2.5 -138.949
      vertex 372.224 2.5 -137.571
      vertex 378 2.5 -132.504
    endloop
  endfacet
  facet normal 0 1 0
    outer loop
      vertex 372 2.5 -138.949
      vertex 372.224 2.5 -137.571
      vertex 378 2.5 -138.949
    endloop
  endfacet
  facet normal 0 1 0
    outer loop
      vertex 372.224 2.5 -137.571
      vertex 372 2.5 -138.949
      vertex 366.422 2.5 -137.571
    endloop
  endfacet
  facet normal 0 1 0
    outer loop
      vertex 372 2.5 -138.949
      vertex 366.422 2.5 -143.674
      vertex 366.422 2.5 -137.571
    endloop
  endfacet
  facet normal 0 1 -0
    outer loop
      vertex 372 2.5 -145.394
      vertex 366.422 2.5 -143.674
      vertex 372 2.5 -138.949
    endloop
  endfacet
  facet normal 0 1 0
    outer loop
      vertex 366 2.5 -145.394
      vertex 366.422 2.5 -143.674
      vertex 372 2.5 -145.394
    endloop
  endfacet
  facet normal 0 1 0
    outer loop
      vertex 366.422 2.5 -143.674
      vertex 366 2.5 -145.394
      vertex 360.62 2.5 -143.674
    endloop
  endfacet
  facet normal 0 1 0
    outer loop
      vertex 366 2.5 -145.394
      vertex 360.62 2.5 -149.776
      vertex 360.62 2.5 -143.674
    endloop
  endfacet
  facet normal 0 1 -0
    outer loop
      vertex 366 2.5 -151.84
      vertex 360.62 2.5 -149.776
      vertex 366 2.5 -145.394
    endloop
  endfacet
  facet normal 0 1 0
    outer loop
      vertex 360 2.5 -151.84
      vertex 360.62 2.5 -149.776
      vertex 366 2.5 -151.84
    endloop
  endfacet
  facet normal 0 1 0
    outer loop
      vertex 360.62 2.5 -149.776
      vertex 360 2.5 -151.84
      vertex 354.818 2.5 -149.776
    endloop
  endfacet
  facet normal 0 1 0
    outer loop
      vertex 360 2.5 -151.84
      vertex 354.818 2.5 -155.7
      vertex 354.818 2.5 -149.776
    endloop
  endfacet
  facet normal 0 1 -0
    outer loop
      vertex 360 2.5 -158.285
      vertex 354.818 2.5 -155.7
      vertex 360 2.5 -151.84
    endloop
  endfacet
  facet normal 0 1 0
    outer loop
      vertex 354 2.5 -158.285
      vertex 354.818 2.5 -155.7
      vertex 360 2.5 -158.285
    endloop
  endfacet
  facet normal 0 1 0
    outer loop
      vertex 354.818 2.5 -155.7
      vertex 354 2.5 -158.285
      vertex 349.016 2.5 -155.7
    endloop
  endfacet
  facet normal 0 1 0
    outer loop
      vertex 354 2.5 -158.285
      vertex 349.016 2.5 -161.802
      vertex 349.016 2.5 -155.7
    endloop
  endfacet
  facet normal 0 1 -0
    outer loop
      vertex 354 2.5 -164.54
      vertex 349.016 2.5 -161.802
      vertex 354 2.5 -158.285
    endloop
  endfacet
  facet normal 0 1 0
    outer loop
      vertex 348 2.5 -164.54
      vertex 349.016 2.5 -161.802
      vertex 354 2.5 -164.54
    endloop
  endfacet
  facet normal 0 1 0
    outer loop
      vertex 349.016 2.5 -161.802
      vertex 348 2.5 -164.54
      vertex 343.214 2.5 -161.802
    endloop
  endfacet
  facet normal 0 1 0
    outer loop
      vertex 348 2.5 -164.54
      vertex 343.214 2.5 -167.905
      vertex 343.214 2.5 -161.802
    endloop
  endfacet
  facet normal 0 1 -0
    outer loop
      vertex 348 2.5 -170.985
      vertex 343.214 2.5 -167.905
      vertex 348 2.5 -164.54
    endloop
  endfacet
  facet normal 0 1 0
    outer loop
      vertex 342 2.5 -170.985
      vertex 343.214 2.5 -167.905
      vertex 348 2.5 -170.985
    endloop
  endfacet
  facet normal 0 1 0
    outer loop
      vertex 343.214 2.5 -167.905
      vertex 342 2.5 -170.985
      vertex 337.412 2.5 -167.905
    endloop
  endfacet
  facet normal 0 1 0
    outer loop
      vertex 342 2.5 -170.985
      vertex 337.412 2.5 -174.008
      vertex 337.412 2.5 -167.905
    endloop
  endfacet
  facet normal 0 1 0
    outer loop
      vertex 337.412 2.5 -174.008
      vertex 331.61 2.5 -175.264
      vertex 331.61 2.5 -174.008
    endloop
  endfacet
  facet normal 0 1 0
    outer loop
      vertex 331.61 2.5 -175.264
      vertex 325.808 2.5 -176.341
      vertex 325.808 2.5 -175.264
    endloop
  endfacet
  facet normal 0 1 -0
    outer loop
      vertex 342 2.5 -177.431
      vertex 337.412 2.5 -174.008
      vertex 342 2.5 -170.985
    endloop
  endfacet
  facet normal 0 1 0
    outer loop
      vertex 336 2.5 -177.431
      vertex 337.412 2.5 -174.008
      vertex 342 2.5 -177.431
    endloop
  endfacet
  facet normal 0 1 0
    outer loop
      vertex 337.412 2.5 -174.008
      vertex 336 2.5 -177.431
      vertex 331.61 2.5 -175.264
    endloop
  endfacet
  facet normal 0 1 0
    outer loop
      vertex 330 2.5 -183.876
      vertex 331.61 2.5 -175.264
      vertex 336 2.5 -177.431
    endloop
  endfacet
  facet normal 0 1 0
    outer loop
      vertex 331.61 2.5 -175.264
      vertex 330 2.5 -183.876
      vertex 325.808 2.5 -176.341
    endloop
  endfacet
  facet normal 0 1 0
    outer loop
      vertex 324 2.5 -185.203
      vertex 325.808 2.5 -176.341
      vertex 330 2.5 -183.876
    endloop
  endfacet
  facet normal 0 1 0
    outer loop
      vertex 320.006 2.5 -177.598
      vertex 314.204 2.5 -178.495
      vertex 314.204 2.5 -177.598
    endloop
  endfacet
  facet normal 0 1 0
    outer loop
      vertex 325.808 2.5 -176.341
      vertex 320.006 2.5 -177.598
      vertex 320.006 2.5 -176.341
    endloop
  endfacet
  facet normal 0 1 0
    outer loop
      vertex 314.204 2.5 -178.495
      vertex 308.402 2.5 -179.393
      vertex 308.402 2.5 -178.495
    endloop
  endfacet
  facet normal 0 1 0
    outer loop
      vertex 325.808 2.5 -176.341
      vertex 324 2.5 -185.203
      vertex 320.006 2.5 -177.598
    endloop
  endfacet
  facet normal 0 1 0
    outer loop
      vertex 330 2.5 -183.876
      vertex 336 2.5 -177.431
      vertex 336 2.5 -183.876
    endloop
  endfacet
  facet normal 0 1 0
    outer loop
      vertex 318 2.5 -186.34
      vertex 320.006 2.5 -177.598
      vertex 324 2.5 -185.203
    endloop
  endfacet
  facet normal 0 1 0
    outer loop
      vertex 320.006 2.5 -177.598
      vertex 318 2.5 -186.34
      vertex 314.204 2.5 -178.495
    endloop
  endfacet
  facet normal 0 1 0
    outer loop
      vertex 324 2.5 -185.203
      vertex 330 2.5 -183.876
      vertex 330 2.5 -185.203
    endloop
  endfacet
  facet normal 0 1 0
    outer loop
      vertex 312 2.5 -187.667
      vertex 314.204 2.5 -178.495
      vertex 318 2.5 -186.34
    endloop
  endfacet
  facet normal 0 1 0
    outer loop
      vertex 318 2.5 -186.34
      vertex 324 2.5 -185.203
      vertex 324 2.5 -186.34
    endloop
  endfacet
  facet normal 0 1 0
    outer loop
      vertex 314.204 2.5 -178.495
      vertex 312 2.5 -187.667
      vertex 308.402 2.5 -179.393
    endloop
  endfacet
  facet normal 0 1 0
    outer loop
      vertex 312 2.5 -187.667
      vertex 318 2.5 -186.34
      vertex 318 2.5 -187.667
    endloop
  endfacet
  facet normal 0 1 0
    outer loop
      vertex 306 2.5 -188.615
      vertex 308.402 2.5 -179.393
      vertex 312 2.5 -187.667
    endloop
  endfacet
  facet normal 0 1 0
    outer loop
      vertex 306 2.5 -188.615
      vertex 312 2.5 -187.667
      vertex 312 2.5 -188.615
    endloop
  endfacet
  facet normal 0 1 0
    outer loop
      vertex 308.402 2.5 -179.393
      vertex 306 2.5 -188.615
      vertex 300 2.5 -179.393
    endloop
  endfacet
  facet normal 0 1 0
    outer loop
      vertex 300 2.5 -189.563
      vertex 306 2.5 -188.615
      vertex 306 2.5 -189.563
    endloop
  endfacet
  facet normal 0 1 0
    outer loop
      vertex 306 2.5 -188.615
      vertex 300 2.5 -189.563
      vertex 300 2.5 -179.393
    endloop
  endfacet
  facet normal 0 -1 0
    outer loop
      vertex 306 -2.5 -188.615
      vertex 308.402 -2.5 -179.393
      vertex 300 -2.5 -179.393
    endloop
  endfacet
  facet normal 0 -1 0
    outer loop
      vertex 308.402 -2.5 -179.393
      vertex 324 -2.5 -185.203
      vertex 330 -2.5 -183.876
    endloop
  endfacet
  facet normal 0 -1 0
    outer loop
      vertex 308.402 -2.5 -179.393
      vertex 318 -2.5 -186.34
      vertex 324 -2.5 -185.203
    endloop
  endfacet
  facet normal 0 -1 0
    outer loop
      vertex 308.402 -2.5 -179.393
      vertex 312 -2.5 -187.667
      vertex 318 -2.5 -186.34
    endloop
  endfacet
  facet normal 0 -1 -0
    outer loop
      vertex 308.402 -2.5 -179.393
      vertex 306 -2.5 -188.615
      vertex 312 -2.5 -187.667
    endloop
  endfacet
  facet normal 0 -1 0
    outer loop
      vertex 300 -2.5 -189.563
      vertex 306 -2.5 -188.615
      vertex 300 -2.5 -179.393
    endloop
  endfacet
  facet normal 0 -1 -0
    outer loop
      vertex 306 -2.5 -188.615
      vertex 300 -2.5 -189.563
      vertex 306 -2.5 -189.563
    endloop
  endfacet
  facet normal 0 -1 0
    outer loop
      vertex 308.402 -2.5 -178.495
      vertex 308.402 -2.5 -179.393
      vertex 314.204 -2.5 -178.495
    endloop
  endfacet
  facet normal 0 -1 0
    outer loop
      vertex 314.204 -2.5 -177.598
      vertex 314.204 -2.5 -178.495
      vertex 320.006 -2.5 -177.598
    endloop
  endfacet
  facet normal 0 -1 0
    outer loop
      vertex 320.006 -2.5 -177.598
      vertex 325.808 -2.5 -176.341
      vertex 320.006 -2.5 -176.341
    endloop
  endfacet
  facet normal 0 -1 -0
    outer loop
      vertex 325.808 -2.5 -176.341
      vertex 320.006 -2.5 -177.598
      vertex 330 -2.5 -183.876
    endloop
  endfacet
  facet normal 0 -1 0
    outer loop
      vertex 330 -2.5 -183.876
      vertex 320.006 -2.5 -177.598
      vertex 314.204 -2.5 -178.495
    endloop
  endfacet
  facet normal 0 -1 0
    outer loop
      vertex 330 -2.5 -183.876
      vertex 314.204 -2.5 -178.495
      vertex 308.402 -2.5 -179.393
    endloop
  endfacet
  facet normal 0 -1 0
    outer loop
      vertex 325.808 -2.5 -176.341
      vertex 330 -2.5 -183.876
      vertex 336 -2.5 -177.431
    endloop
  endfacet
  facet normal 0 -1 -0
    outer loop
      vertex 336 -2.5 -177.431
      vertex 330 -2.5 -183.876
      vertex 336 -2.5 -183.876
    endloop
  endfacet
  facet normal 0 -1 0
    outer loop
      vertex 325.808 -2.5 -175.264
      vertex 325.808 -2.5 -176.341
      vertex 331.61 -2.5 -175.264
    endloop
  endfacet
  facet normal 0 -1 0
    outer loop
      vertex 331.61 -2.5 -174.008
      vertex 331.61 -2.5 -175.264
      vertex 337.412 -2.5 -174.008
    endloop
  endfacet
  facet normal 0 -1 0
    outer loop
      vertex 337.412 -2.5 -167.905
      vertex 342 -2.5 -170.985
      vertex 343.214 -2.5 -167.905
    endloop
  endfacet
  facet normal 0 -1 0
    outer loop
      vertex 337.412 -2.5 -174.008
      vertex 342 -2.5 -170.985
      vertex 337.412 -2.5 -167.905
    endloop
  endfacet
  facet normal 0 -1 0
    outer loop
      vertex 336 -2.5 -177.431
      vertex 331.61 -2.5 -175.264
      vertex 325.808 -2.5 -176.341
    endloop
  endfacet
  facet normal 0 -1 0
    outer loop
      vertex 336 -2.5 -177.431
      vertex 337.412 -2.5 -174.008
      vertex 331.61 -2.5 -175.264
    endloop
  endfacet
  facet normal 0 -1 0
    outer loop
      vertex 342 -2.5 -177.431
      vertex 337.412 -2.5 -174.008
      vertex 336 -2.5 -177.431
    endloop
  endfacet
  facet normal 0 -1 0
    outer loop
      vertex 337.412 -2.5 -174.008
      vertex 342 -2.5 -177.431
      vertex 342 -2.5 -170.985
    endloop
  endfacet
  facet normal 0 -1 0
    outer loop
      vertex 343.214 -2.5 -161.802
      vertex 348 -2.5 -164.54
      vertex 349.016 -2.5 -161.802
    endloop
  endfacet
  facet normal 0 -1 0
    outer loop
      vertex 343.214 -2.5 -167.905
      vertex 348 -2.5 -164.54
      vertex 343.214 -2.5 -161.802
    endloop
  endfacet
  facet normal 0 -1 0
    outer loop
      vertex 348 -2.5 -170.985
      vertex 343.214 -2.5 -167.905
      vertex 342 -2.5 -170.985
    endloop
  endfacet
  facet normal 0 -1 0
    outer loop
      vertex 343.214 -2.5 -167.905
      vertex 348 -2.5 -170.985
      vertex 348 -2.5 -164.54
    endloop
  endfacet
  facet normal 0 -1 0
    outer loop
      vertex 349.016 -2.5 -155.7
      vertex 354 -2.5 -158.285
      vertex 354.818 -2.5 -155.7
    endloop
  endfacet
  facet normal 0 -1 0
    outer loop
      vertex 349.016 -2.5 -161.802
      vertex 354 -2.5 -158.285
      vertex 349.016 -2.5 -155.7
    endloop
  endfacet
  facet normal 0 -1 0
    outer loop
      vertex 354 -2.5 -164.54
      vertex 349.016 -2.5 -161.802
      vertex 348 -2.5 -164.54
    endloop
  endfacet
  facet normal 0 -1 0
    outer loop
      vertex 349.016 -2.5 -161.802
      vertex 354 -2.5 -164.54
      vertex 354 -2.5 -158.285
    endloop
  endfacet
  facet normal 0 -1 0
    outer loop
      vertex 354.818 -2.5 -149.776
      vertex 360 -2.5 -151.84
      vertex 360.62 -2.5 -149.776
    endloop
  endfacet
  facet normal 0 -1 0
    outer loop
      vertex 354.818 -2.5 -155.7
      vertex 360 -2.5 -151.84
      vertex 354.818 -2.5 -149.776
    endloop
  endfacet
  facet normal 0 -1 0
    outer loop
      vertex 360 -2.5 -158.285
      vertex 354.818 -2.5 -155.7
      vertex 354 -2.5 -158.285
    endloop
  endfacet
  facet normal 0 -1 0
    outer loop
      vertex 354.818 -2.5 -155.7
      vertex 360 -2.5 -158.285
      vertex 360 -2.5 -151.84
    endloop
  endfacet
  facet normal 0 -1 0
    outer loop
      vertex 360.62 -2.5 -143.674
      vertex 366 -2.5 -145.394
      vertex 366.422 -2.5 -143.674
    endloop
  endfacet
  facet normal 0 -1 0
    outer loop
      vertex 360.62 -2.5 -149.776
      vertex 366 -2.5 -145.394
      vertex 360.62 -2.5 -143.674
    endloop
  endfacet
  facet normal 0 -1 0
    outer loop
      vertex 366 -2.5 -151.84
      vertex 360.62 -2.5 -149.776
      vertex 360 -2.5 -151.84
    endloop
  endfacet
  facet normal 0 -1 0
    outer loop
      vertex 360.62 -2.5 -149.776
      vertex 366 -2.5 -151.84
      vertex 366 -2.5 -145.394
    endloop
  endfacet
  facet normal 0 -1 0
    outer loop
      vertex 366.422 -2.5 -137.571
      vertex 372 -2.5 -138.949
      vertex 372.224 -2.5 -137.571
    endloop
  endfacet
  facet normal 0 -1 0
    outer loop
      vertex 366.422 -2.5 -143.674
      vertex 372 -2.5 -138.949
      vertex 366.422 -2.5 -137.571
    endloop
  endfacet
  facet normal 0 -1 0
    outer loop
      vertex 372 -2.5 -145.394
      vertex 366.422 -2.5 -143.674
      vertex 366 -2.5 -145.394
    endloop
  endfacet
  facet normal 0 -1 0
    outer loop
      vertex 366.422 -2.5 -143.674
      vertex 372 -2.5 -145.394
      vertex 372 -2.5 -138.949
    endloop
  endfacet
  facet normal 0 -1 0
    outer loop
      vertex 372.224 -2.5 -131.468
      vertex 378 -2.5 -132.504
      vertex 378.026 -2.5 -131.468
    endloop
  endfacet
  facet normal 0 -1 0
    outer loop
      vertex 372.224 -2.5 -137.571
      vertex 378 -2.5 -132.504
      vertex 372.224 -2.5 -131.468
    endloop
  endfacet
  facet normal 0 -1 0
    outer loop
      vertex 378 -2.5 -138.949
      vertex 372.224 -2.5 -137.571
      vertex 372 -2.5 -138.949
    endloop
  endfacet
  facet normal 0 -1 0
    outer loop
      vertex 372.224 -2.5 -137.571
      vertex 378 -2.5 -138.949
      vertex 378 -2.5 -132.504
    endloop
  endfacet
  facet normal 0 -1 0
    outer loop
      vertex 378.026 -2.5 -125.365
      vertex 384 -2.5 -126.059
      vertex 383.828 -2.5 -125.365
    endloop
  endfacet
  facet normal 0 -1 0
    outer loop
      vertex 378.026 -2.5 -131.468
      vertex 384 -2.5 -126.059
      vertex 378.026 -2.5 -125.365
    endloop
  endfacet
  facet normal 0 -1 0
    outer loop
      vertex 384 -2.5 -132.504
      vertex 378.026 -2.5 -131.468
      vertex 378 -2.5 -132.504
    endloop
  endfacet
  facet normal 0 -1 0
    outer loop
      vertex 378.026 -2.5 -131.468
      vertex 384 -2.5 -132.504
      vertex 384 -2.5 -126.059
    endloop
  endfacet
  facet normal 0 -1 0
    outer loop
      vertex 383.828 -2.5 -119.263
      vertex 390 -2.5 -119.804
      vertex 389.63 -2.5 -119.263
    endloop
  endfacet
  facet normal 0 -1 0
    outer loop
      vertex 383.828 -2.5 -125.365
      vertex 390 -2.5 -119.804
      vertex 383.828 -2.5 -119.263
    endloop
  endfacet
  facet normal 0 -1 0
    outer loop
      vertex 390 -2.5 -126.059
      vertex 383.828 -2.5 -125.365
      vertex 384 -2.5 -126.059
    endloop
  endfacet
  facet normal 0 -1 0
    outer loop
      vertex 383.828 -2.5 -125.365
      vertex 390 -2.5 -126.059
      vertex 390 -2.5 -119.804
    endloop
  endfacet
  facet normal 0 -1 0
    outer loop
      vertex 389.63 -2.5 -119.263
      vertex 395.432 -2.5 -113.339
      vertex 389.63 -2.5 -113.339
    endloop
  endfacet
  facet normal 0 -1 0
    outer loop
      vertex 396 -2.5 -119.804
      vertex 395.432 -2.5 -113.339
      vertex 389.63 -2.5 -119.263
    endloop
  endfacet
  facet normal 0 -1 0
    outer loop
      vertex 396 -2.5 -119.804
      vertex 389.63 -2.5 -119.263
      vertex 390 -2.5 -119.804
    endloop
  endfacet
  facet normal 0 -1 0
    outer loop
      vertex 395.432 -2.5 -113.339
      vertex 396 -2.5 -119.804
      vertex 396 -2.5 -113.358
    endloop
  endfacet
  facet normal 0 -1 0
    outer loop
      vertex 396 -2.5 -113.358
      vertex 395.432 -2.5 -107.237
      vertex 395.432 -2.5 -113.339
    endloop
  endfacet
  facet normal 0 -1 0
    outer loop
      vertex 401.234 -2.5 -101.134
      vertex 402 -2.5 -106.913
      vertex 407.036 -2.5 -101.134
    endloop
  endfacet
  facet normal 0 -1 0
    outer loop
      vertex 401.234 -2.5 -107.237
      vertex 402 -2.5 -106.913
      vertex 401.234 -2.5 -101.134
    endloop
  endfacet
  facet normal 0 -1 0
    outer loop
      vertex 395.432 -2.5 -107.237
      vertex 396 -2.5 -113.358
      vertex 401.234 -2.5 -107.237
    endloop
  endfacet
  facet normal 0 -1 0
    outer loop
      vertex 402 -2.5 -113.358
      vertex 401.234 -2.5 -107.237
      vertex 396 -2.5 -113.358
    endloop
  endfacet
  facet normal 0 -1 0
    outer loop
      vertex 401.234 -2.5 -107.237
      vertex 402 -2.5 -113.358
      vertex 402 -2.5 -106.913
    endloop
  endfacet
  facet normal 0 -1 0
    outer loop
      vertex 408 -2.5 -100.468
      vertex 412.838 -2.5 -95.0311
      vertex 407.036 -2.5 -95.0311
    endloop
  endfacet
  facet normal 0 -1 0
    outer loop
      vertex 412.838 -2.5 -95.0311
      vertex 432 -2.5 -96.4873
      vertex 444 -2.5 -96.2978
    endloop
  endfacet
  facet normal 0 -1 0
    outer loop
      vertex 412.838 -2.5 -95.0311
      vertex 420 -2.5 -96.6769
      vertex 432 -2.5 -96.4873
    endloop
  endfacet
  facet normal 0 -1 0
    outer loop
      vertex 412.838 -2.5 -95.0311
      vertex 414 -2.5 -98.5725
      vertex 420 -2.5 -96.6769
    endloop
  endfacet
  facet normal 0 -1 -0
    outer loop
      vertex 412.838 -2.5 -95.0311
      vertex 408 -2.5 -100.468
      vertex 414 -2.5 -98.5725
    endloop
  endfacet
  facet normal 0 -1 0
    outer loop
      vertex 407.036 -2.5 -101.134
      vertex 408 -2.5 -100.468
      vertex 407.036 -2.5 -95.0311
    endloop
  endfacet
  facet normal 0 -1 0
    outer loop
      vertex 408 -2.5 -106.913
      vertex 407.036 -2.5 -101.134
      vertex 402 -2.5 -106.913
    endloop
  endfacet
  facet normal 0 -1 0
    outer loop
      vertex 407.036 -2.5 -101.134
      vertex 408 -2.5 -106.913
      vertex 408 -2.5 -100.468
    endloop
  endfacet
  facet normal 0 -1 0
    outer loop
      vertex 412.838 -2.5 -93.2361
      vertex 412.838 -2.5 -95.0311
      vertex 418.64 -2.5 -93.2361
    endloop
  endfacet
  facet normal 0 -1 0
    outer loop
      vertex 418.64 -2.5 -91.4412
      vertex 418.64 -2.5 -93.2361
      vertex 430.244 -2.5 -91.4412
    endloop
  endfacet
  facet normal 0 -1 0
    outer loop
      vertex 430.244 -2.5 -91.2617
      vertex 430.244 -2.5 -91.4412
      vertex 441.848 -2.5 -91.2617
    endloop
  endfacet
  facet normal 0 -1 0
    outer loop
      vertex 441.848 -2.5 -91.2617
      vertex 450 -2.5 -91.0822
      vertex 441.848 -2.5 -91.0822
    endloop
  endfacet
  facet normal 0 -1 0
    outer loop
      vertex 444 -2.5 -96.2978
      vertex 430.244 -2.5 -91.4412
      vertex 418.64 -2.5 -93.2361
    endloop
  endfacet
  facet normal 0 -1 0
    outer loop
      vertex 430.244 -2.5 -91.4412
      vertex 444 -2.5 -96.2978
      vertex 441.848 -2.5 -91.2617
    endloop
  endfacet
  facet normal 0 -1 0
    outer loop
      vertex 444 -2.5 -96.2978
      vertex 418.64 -2.5 -93.2361
      vertex 412.838 -2.5 -95.0311
    endloop
  endfacet
  facet normal 0 -1 0
    outer loop
      vertex 441.848 -2.5 -91.2617
      vertex 444 -2.5 -96.2978
      vertex 450 -2.5 -91.0822
    endloop
  endfacet
  facet normal 0 -1 -0
    outer loop
      vertex 450 -2.5 -91.0822
      vertex 444 -2.5 -96.2978
      vertex 450 -2.5 -96.2978
    endloop
  endfacet
  facet normal 0 -1 -0
    outer loop
      vertex 444 -2.5 -96.2978
      vertex 432 -2.5 -96.4873
      vertex 444 -2.5 -96.4873
    endloop
  endfacet
  facet normal 0 -1 -0
    outer loop
      vertex 432 -2.5 -96.4873
      vertex 420 -2.5 -96.6769
      vertex 432 -2.5 -96.6769
    endloop
  endfacet
  facet normal 0 -1 -0
    outer loop
      vertex 420 -2.5 -96.6769
      vertex 414 -2.5 -98.5725
      vertex 420 -2.5 -98.5725
    endloop
  endfacet
  facet normal 0 -1 -0
    outer loop
      vertex 414 -2.5 -98.5725
      vertex 408 -2.5 -100.468
      vertex 414 -2.5 -100.468
    endloop
  endfacet
  facet normal 0 -1 -0
    outer loop
      vertex 330 -2.5 -183.876
      vertex 324 -2.5 -185.203
      vertex 330 -2.5 -185.203
    endloop
  endfacet
  facet normal 0 -1 -0
    outer loop
      vertex 324 -2.5 -185.203
      vertex 318 -2.5 -186.34
      vertex 324 -2.5 -186.34
    endloop
  endfacet
  facet normal 0 -1 -0
    outer loop
      vertex 318 -2.5 -186.34
      vertex 312 -2.5 -187.667
      vertex 318 -2.5 -187.667
    endloop
  endfacet
  facet normal 0 -1 -0
    outer loop
      vertex 312 -2.5 -187.667
      vertex 306 -2.5 -188.615
      vertex 312 -2.5 -188.615
    endloop
  endfacet
endsolid OpenSCAD_Model
