solid OpenSCAD_Model
  facet normal 0 -0.996269 -0.0863017
    outer loop
      vertex 500 -93.5567 -16.6615
      vertex 504 -95 0
      vertex 500 -95 0
    endloop
  endfacet
  facet normal 0 -0.996269 -0.0863017
    outer loop
      vertex 504 -95 0
      vertex 500 -93.5567 -16.6615
      vertex 504 -93.5567 -16.6615
    endloop
  endfacet
  facet normal 0 0.426082 -0.904685
    outer loop
      vertex 500 32.4919 -90.1635
      vertex 504 47.5 -83.0951
      vertex 504 32.4919 -90.1635
    endloop
  endfacet
  facet normal 0 0.426082 -0.904685
    outer loop
      vertex 504 47.5 -83.0951
      vertex 500 32.4919 -90.1635
      vertex 500 47.5 -83.0951
    endloop
  endfacet
  facet normal 0 0.907907 -0.419172
    outer loop
      vertex 504 82.2724 -47.975
      vertex 500 89.2708 -32.8168
      vertex 504 89.2708 -32.8168
    endloop
  endfacet
  facet normal 0 0.907907 -0.419172
    outer loop
      vertex 500 89.2708 -32.8168
      vertex 504 82.2724 -47.975
      vertex 500 82.2724 -47.975
    endloop
  endfacet
  facet normal 0 0.577404 -0.816459
    outer loop
      vertex 500 47.5 -83.0951
      vertex 504 61.0648 -73.502
      vertex 504 47.5 -83.0951
    endloop
  endfacet
  facet normal 0 0.577404 -0.816459
    outer loop
      vertex 504 61.0648 -73.502
      vertex 500 47.5 -83.0951
      vertex 500 61.0648 -73.502
    endloop
  endfacet
  facet normal 0 0.0880207 -0.996119
    outer loop
      vertex 500 0 -95.95
      vertex 504 16.4966 -94.4923
      vertex 504 0 -95.95
    endloop
  endfacet
  facet normal 0 0.0880207 -0.996119
    outer loop
      vertex 504 16.4966 -94.4923
      vertex 500 0 -95.95
      vertex 500 16.4966 -94.4923
    endloop
  endfacet
  facet normal 0 0.710616 -0.70358
    outer loop
      vertex 504 61.0648 -73.502
      vertex 500 72.7742 -61.6755
      vertex 504 72.7742 -61.6755
    endloop
  endfacet
  facet normal 0 0.710616 -0.70358
    outer loop
      vertex 500 72.7742 -61.6755
      vertex 504 61.0648 -73.502
      vertex 500 61.0648 -73.502
    endloop
  endfacet
  facet normal 0 -0.966565 -0.256424
    outer loop
      vertex 500 -89.2708 -32.8168
      vertex 504 -93.5567 -16.6615
      vertex 500 -93.5567 -16.6615
    endloop
  endfacet
  facet normal 0 -0.966565 -0.256424
    outer loop
      vertex 504 -93.5567 -16.6615
      vertex 500 -89.2708 -32.8168
      vertex 504 -89.2708 -32.8168
    endloop
  endfacet
  facet normal 0 0.966565 -0.256424
    outer loop
      vertex 504 89.2708 -32.8168
      vertex 500 93.5567 -16.6615
      vertex 504 93.5567 -16.6615
    endloop
  endfacet
  facet normal 0 0.966565 -0.256424
    outer loop
      vertex 500 93.5567 -16.6615
      vertex 504 89.2708 -32.8168
      vertex 500 89.2708 -32.8168
    endloop
  endfacet
  facet normal 0 -0.577404 -0.816459
    outer loop
      vertex 500 -61.0648 -73.502
      vertex 504 -47.5 -83.0951
      vertex 504 -61.0648 -73.502
    endloop
  endfacet
  facet normal -0 -0.577404 -0.816459
    outer loop
      vertex 504 -47.5 -83.0951
      vertex 500 -61.0648 -73.502
      vertex 500 -47.5 -83.0951
    endloop
  endfacet
  facet normal 0 0.261232 -0.965276
    outer loop
      vertex 500 16.4966 -94.4923
      vertex 504 32.4919 -90.1635
      vertex 504 16.4966 -94.4923
    endloop
  endfacet
  facet normal 0 0.261232 -0.965276
    outer loop
      vertex 504 32.4919 -90.1635
      vertex 500 16.4966 -94.4923
      vertex 500 32.4919 -90.1635
    endloop
  endfacet
  facet normal 0 -0.426082 -0.904685
    outer loop
      vertex 500 -47.5 -83.0951
      vertex 504 -32.4919 -90.1635
      vertex 504 -47.5 -83.0951
    endloop
  endfacet
  facet normal -0 -0.426082 -0.904685
    outer loop
      vertex 504 -32.4919 -90.1635
      vertex 500 -47.5 -83.0951
      vertex 500 -32.4919 -90.1635
    endloop
  endfacet
  facet normal 0 -0.907907 -0.419172
    outer loop
      vertex 500 -82.2724 -47.975
      vertex 504 -89.2708 -32.8168
      vertex 500 -89.2708 -32.8168
    endloop
  endfacet
  facet normal 0 -0.907907 -0.419172
    outer loop
      vertex 504 -89.2708 -32.8168
      vertex 500 -82.2724 -47.975
      vertex 504 -82.2724 -47.975
    endloop
  endfacet
  facet normal 0 -0.261232 -0.965276
    outer loop
      vertex 500 -32.4919 -90.1635
      vertex 504 -16.4966 -94.4923
      vertex 504 -32.4919 -90.1635
    endloop
  endfacet
  facet normal -0 -0.261232 -0.965276
    outer loop
      vertex 504 -16.4966 -94.4923
      vertex 500 -32.4919 -90.1635
      vertex 500 -16.4966 -94.4923
    endloop
  endfacet
  facet normal 0 -0.0880207 -0.996119
    outer loop
      vertex 500 -16.4966 -94.4923
      vertex 504 0 -95.95
      vertex 504 -16.4966 -94.4923
    endloop
  endfacet
  facet normal -0 -0.0880207 -0.996119
    outer loop
      vertex 504 0 -95.95
      vertex 500 -16.4966 -94.4923
      vertex 500 0 -95.95
    endloop
  endfacet
  facet normal 0 0.82182 -0.569747
    outer loop
      vertex 504 72.7742 -61.6755
      vertex 500 82.2724 -47.975
      vertex 504 82.2724 -47.975
    endloop
  endfacet
  facet normal 0 0.82182 -0.569747
    outer loop
      vertex 500 82.2724 -47.975
      vertex 504 72.7742 -61.6755
      vertex 500 72.7742 -61.6755
    endloop
  endfacet
  facet normal 0 0.996269 -0.0863017
    outer loop
      vertex 504 93.5567 -16.6615
      vertex 500 95 0
      vertex 504 95 0
    endloop
  endfacet
  facet normal 0 0.996269 -0.0863017
    outer loop
      vertex 500 95 0
      vertex 504 93.5567 -16.6615
      vertex 500 93.5567 -16.6615
    endloop
  endfacet
  facet normal 0 -0.710616 -0.70358
    outer loop
      vertex 500 -61.0648 -73.502
      vertex 504 -72.7742 -61.6755
      vertex 500 -72.7742 -61.6755
    endloop
  endfacet
  facet normal 0 -0.710616 -0.70358
    outer loop
      vertex 504 -72.7742 -61.6755
      vertex 500 -61.0648 -73.502
      vertex 504 -61.0648 -73.502
    endloop
  endfacet
  facet normal 0 -0.82182 -0.569747
    outer loop
      vertex 500 -72.7742 -61.6755
      vertex 504 -82.2724 -47.975
      vertex 500 -82.2724 -47.975
    endloop
  endfacet
  facet normal 0 -0.82182 -0.569747
    outer loop
      vertex 504 -82.2724 -47.975
      vertex 500 -72.7742 -61.6755
      vertex 504 -72.7742 -61.6755
    endloop
  endfacet
  facet normal 1 -0 0
    outer loop
      vertex 504 93.5567 -16.6285
      vertex 504 93.5567 -16.6615
      vertex 504 95 0
    endloop
  endfacet
  facet normal 1 0 0
    outer loop
      vertex 504 89.2708 -32.7519
      vertex 504 93.5567 -16.6615
      vertex 504 93.5567 -16.6285
    endloop
  endfacet
  facet normal 1 -0 0
    outer loop
      vertex 504 89.2708 -32.7519
      vertex 504 89.2708 -32.8168
      vertex 504 93.5567 -16.6615
    endloop
  endfacet
  facet normal 1 0 0
    outer loop
      vertex 504 82.2724 -47.88
      vertex 504 89.2708 -32.8168
      vertex 504 89.2708 -32.7519
    endloop
  endfacet
  facet normal 1 -0 0
    outer loop
      vertex 504 82.2724 -47.88
      vertex 504 82.2724 -47.975
      vertex 504 89.2708 -32.8168
    endloop
  endfacet
  facet normal 1 0 0
    outer loop
      vertex 504 72.7742 -61.5533
      vertex 504 82.2724 -47.975
      vertex 504 82.2724 -47.88
    endloop
  endfacet
  facet normal 1 -0 0
    outer loop
      vertex 504 72.7742 -61.5533
      vertex 504 72.7742 -61.6755
      vertex 504 82.2724 -47.975
    endloop
  endfacet
  facet normal 1 0 0
    outer loop
      vertex 504 61.0648 -73.3564
      vertex 504 72.7742 -61.6755
      vertex 504 72.7742 -61.5533
    endloop
  endfacet
  facet normal 1 -0 0
    outer loop
      vertex 504 61.0648 -73.3564
      vertex 504 61.0648 -73.502
      vertex 504 72.7742 -61.6755
    endloop
  endfacet
  facet normal 1 0 0
    outer loop
      vertex 504 47.5 -82.9306
      vertex 504 61.0648 -73.502
      vertex 504 61.0648 -73.3564
    endloop
  endfacet
  facet normal 1 -0 0
    outer loop
      vertex 504 47.5 -82.9306
      vertex 504 47.5 -83.0951
      vertex 504 61.0648 -73.502
    endloop
  endfacet
  facet normal 1 0 0
    outer loop
      vertex 504 32.4919 -89.985
      vertex 504 47.5 -83.0951
      vertex 504 47.5 -82.9306
    endloop
  endfacet
  facet normal 1 -0 0
    outer loop
      vertex 504 32.4919 -89.985
      vertex 504 32.4919 -90.1635
      vertex 504 47.5 -83.0951
    endloop
  endfacet
  facet normal 1 0 0
    outer loop
      vertex 504 16.4966 -94.3052
      vertex 504 32.4919 -90.1635
      vertex 504 32.4919 -89.985
    endloop
  endfacet
  facet normal 1 -0 0
    outer loop
      vertex 504 16.4966 -94.3052
      vertex 504 16.4966 -94.4923
      vertex 504 32.4919 -90.1635
    endloop
  endfacet
  facet normal 1 0 0
    outer loop
      vertex 504 0 -95.76
      vertex 504 16.4966 -94.4923
      vertex 504 16.4966 -94.3052
    endloop
  endfacet
  facet normal 1 -0 0
    outer loop
      vertex 504 0 -95.76
      vertex 504 0 -95.95
      vertex 504 16.4966 -94.4923
    endloop
  endfacet
  facet normal 1 -0 0
    outer loop
      vertex 504 -16.4966 -94.4923
      vertex 504 0 -95.76
      vertex 504 -16.4966 -94.3052
    endloop
  endfacet
  facet normal 1 0 0
    outer loop
      vertex 504 0 -95.76
      vertex 504 -16.4966 -94.4923
      vertex 504 0 -95.95
    endloop
  endfacet
  facet normal 1 -0 0
    outer loop
      vertex 504 -32.4919 -90.1635
      vertex 504 -16.4966 -94.3052
      vertex 504 -32.4919 -89.985
    endloop
  endfacet
  facet normal 1 0 0
    outer loop
      vertex 504 -16.4966 -94.3052
      vertex 504 -32.4919 -90.1635
      vertex 504 -16.4966 -94.4923
    endloop
  endfacet
  facet normal 1 -0 0
    outer loop
      vertex 504 -47.5 -83.0951
      vertex 504 -32.4919 -89.985
      vertex 504 -47.5 -82.9306
    endloop
  endfacet
  facet normal 1 0 0
    outer loop
      vertex 504 -32.4919 -89.985
      vertex 504 -47.5 -83.0951
      vertex 504 -32.4919 -90.1635
    endloop
  endfacet
  facet normal 1 -0 0
    outer loop
      vertex 504 -61.0648 -73.502
      vertex 504 -47.5 -82.9306
      vertex 504 -61.0648 -73.3564
    endloop
  endfacet
  facet normal 1 0 0
    outer loop
      vertex 504 -47.5 -82.9306
      vertex 504 -61.0648 -73.502
      vertex 504 -47.5 -83.0951
    endloop
  endfacet
  facet normal 1 -0 0
    outer loop
      vertex 504 -72.7742 -61.6755
      vertex 504 -61.0648 -73.3564
      vertex 504 -72.7742 -61.5533
    endloop
  endfacet
  facet normal 1 0 0
    outer loop
      vertex 504 -61.0648 -73.3564
      vertex 504 -72.7742 -61.6755
      vertex 504 -61.0648 -73.502
    endloop
  endfacet
  facet normal 1 -0 0
    outer loop
      vertex 504 -82.2724 -47.975
      vertex 504 -72.7742 -61.5533
      vertex 504 -82.2724 -47.88
    endloop
  endfacet
  facet normal 1 0 0
    outer loop
      vertex 504 -72.7742 -61.5533
      vertex 504 -82.2724 -47.975
      vertex 504 -72.7742 -61.6755
    endloop
  endfacet
  facet normal 1 -0 0
    outer loop
      vertex 504 -89.2708 -32.8168
      vertex 504 -82.2724 -47.88
      vertex 504 -89.2708 -32.7519
    endloop
  endfacet
  facet normal 1 0 0
    outer loop
      vertex 504 -82.2724 -47.88
      vertex 504 -89.2708 -32.8168
      vertex 504 -82.2724 -47.975
    endloop
  endfacet
  facet normal 1 -0 0
    outer loop
      vertex 504 -93.5567 -16.6615
      vertex 504 -89.2708 -32.7519
      vertex 504 -93.5567 -16.6285
    endloop
  endfacet
  facet normal 1 0 0
    outer loop
      vertex 504 -89.2708 -32.7519
      vertex 504 -93.5567 -16.6615
      vertex 504 -89.2708 -32.8168
    endloop
  endfacet
  facet normal 1 0 -0
    outer loop
      vertex 504 -93.5567 -16.6615
      vertex 504 -93.5567 -16.6285
      vertex 504 -95 0
    endloop
  endfacet
  facet normal 0 -0.996254 -0.0864717
    outer loop
      vertex 504 -93.5567 -16.6285
      vertex 505 -95 0
      vertex 504 -95 0
    endloop
  endfacet
  facet normal 0 -0.996254 -0.0864717
    outer loop
      vertex 505 -95 0
      vertex 504 -93.5567 -16.6285
      vertex 505 -93.5567 -16.6285
    endloop
  endfacet
  facet normal 0 0.42539 -0.90501
    outer loop
      vertex 504 32.4919 -89.985
      vertex 505 47.5 -82.9306
      vertex 505 32.4919 -89.985
    endloop
  endfacet
  facet normal 0 0.42539 -0.90501
    outer loop
      vertex 505 47.5 -82.9306
      vertex 504 32.4919 -89.985
      vertex 504 47.5 -82.9306
    endloop
  endfacet
  facet normal 0 -0.0878469 -0.996134
    outer loop
      vertex 504 -16.4966 -94.3052
      vertex 505 0 -95.76
      vertex 505 -16.4966 -94.3052
    endloop
  endfacet
  facet normal -0 -0.0878469 -0.996134
    outer loop
      vertex 505 0 -95.76
      vertex 504 -16.4966 -94.3052
      vertex 504 0 -95.76
    endloop
  endfacet
  facet normal 0 -0.907589 -0.419859
    outer loop
      vertex 504 -82.2724 -47.88
      vertex 505 -89.2708 -32.7519
      vertex 504 -89.2708 -32.7519
    endloop
  endfacet
  facet normal 0 -0.907589 -0.419859
    outer loop
      vertex 505 -89.2708 -32.7519
      vertex 504 -82.2724 -47.88
      vertex 505 -82.2724 -47.88
    endloop
  endfacet
  facet normal 0 0.0878469 -0.996134
    outer loop
      vertex 504 0 -95.76
      vertex 505 16.4966 -94.3052
      vertex 505 0 -95.76
    endloop
  endfacet
  facet normal 0 0.0878469 -0.996134
    outer loop
      vertex 505 16.4966 -94.3052
      vertex 504 0 -95.76
      vertex 504 16.4966 -94.3052
    endloop
  endfacet
  facet normal 0 0.907589 -0.419859
    outer loop
      vertex 505 82.2724 -47.88
      vertex 504 89.2708 -32.7519
      vertex 505 89.2708 -32.7519
    endloop
  endfacet
  facet normal 0 0.907589 -0.419859
    outer loop
      vertex 504 89.2708 -32.7519
      vertex 505 82.2724 -47.88
      vertex 504 82.2724 -47.88
    endloop
  endfacet
  facet normal 0 -0.709919 -0.704283
    outer loop
      vertex 504 -61.0648 -73.3564
      vertex 505 -72.7742 -61.5533
      vertex 504 -72.7742 -61.5533
    endloop
  endfacet
  facet normal 0 -0.709919 -0.704283
    outer loop
      vertex 505 -72.7742 -61.5533
      vertex 504 -61.0648 -73.3564
      vertex 505 -61.0648 -73.3564
    endloop
  endfacet
  facet normal 0 0.996254 -0.0864717
    outer loop
      vertex 505 93.5567 -16.6285
      vertex 504 95 0
      vertex 505 95 0
    endloop
  endfacet
  facet normal 0 0.996254 -0.0864717
    outer loop
      vertex 504 95 0
      vertex 505 93.5567 -16.6285
      vertex 504 93.5567 -16.6285
    endloop
  endfacet
  facet normal 0 -0.576645 -0.816995
    outer loop
      vertex 504 -61.0648 -73.3564
      vertex 505 -47.5 -82.9306
      vertex 505 -61.0648 -73.3564
    endloop
  endfacet
  facet normal -0 -0.576645 -0.816995
    outer loop
      vertex 505 -47.5 -82.9306
      vertex 504 -61.0648 -73.3564
      vertex 504 -47.5 -82.9306
    endloop
  endfacet
  facet normal 0 -0.966439 -0.256897
    outer loop
      vertex 504 -89.2708 -32.7519
      vertex 505 -93.5567 -16.6285
      vertex 504 -93.5567 -16.6285
    endloop
  endfacet
  facet normal 0 -0.966439 -0.256897
    outer loop
      vertex 505 -93.5567 -16.6285
      vertex 504 -89.2708 -32.7519
      vertex 505 -89.2708 -32.7519
    endloop
  endfacet
  facet normal 0 0.576645 -0.816995
    outer loop
      vertex 504 47.5 -82.9306
      vertex 505 61.0648 -73.3564
      vertex 505 47.5 -82.9306
    endloop
  endfacet
  facet normal 0 0.576645 -0.816995
    outer loop
      vertex 505 61.0648 -73.3564
      vertex 504 47.5 -82.9306
      vertex 504 61.0648 -73.3564
    endloop
  endfacet
  facet normal 0 0.260748 -0.965407
    outer loop
      vertex 504 16.4966 -94.3052
      vertex 505 32.4919 -89.985
      vertex 505 16.4966 -94.3052
    endloop
  endfacet
  facet normal 0 0.260748 -0.965407
    outer loop
      vertex 505 32.4919 -89.985
      vertex 504 16.4966 -94.3052
      vertex 504 32.4919 -89.985
    endloop
  endfacet
  facet normal 0 0.709919 -0.704283
    outer loop
      vertex 505 61.0648 -73.3564
      vertex 504 72.7742 -61.5533
      vertex 505 72.7742 -61.5533
    endloop
  endfacet
  facet normal 0 0.709919 -0.704283
    outer loop
      vertex 504 72.7742 -61.5533
      vertex 505 61.0648 -73.3564
      vertex 504 61.0648 -73.3564
    endloop
  endfacet
  facet normal 0 -0.82129 -0.570511
    outer loop
      vertex 504 -72.7742 -61.5533
      vertex 505 -82.2724 -47.88
      vertex 504 -82.2724 -47.88
    endloop
  endfacet
  facet normal 0 -0.82129 -0.570511
    outer loop
      vertex 505 -82.2724 -47.88
      vertex 504 -72.7742 -61.5533
      vertex 505 -72.7742 -61.5533
    endloop
  endfacet
  facet normal 0 0.82129 -0.570511
    outer loop
      vertex 505 72.7742 -61.5533
      vertex 504 82.2724 -47.88
      vertex 505 82.2724 -47.88
    endloop
  endfacet
  facet normal 0 0.82129 -0.570511
    outer loop
      vertex 504 82.2724 -47.88
      vertex 505 72.7742 -61.5533
      vertex 504 72.7742 -61.5533
    endloop
  endfacet
  facet normal 0 0.966439 -0.256897
    outer loop
      vertex 505 89.2708 -32.7519
      vertex 504 93.5567 -16.6285
      vertex 505 93.5567 -16.6285
    endloop
  endfacet
  facet normal 0 0.966439 -0.256897
    outer loop
      vertex 504 93.5567 -16.6285
      vertex 505 89.2708 -32.7519
      vertex 504 89.2708 -32.7519
    endloop
  endfacet
  facet normal 0 -0.260748 -0.965407
    outer loop
      vertex 504 -32.4919 -89.985
      vertex 505 -16.4966 -94.3052
      vertex 505 -32.4919 -89.985
    endloop
  endfacet
  facet normal -0 -0.260748 -0.965407
    outer loop
      vertex 505 -16.4966 -94.3052
      vertex 504 -32.4919 -89.985
      vertex 504 -16.4966 -94.3052
    endloop
  endfacet
  facet normal 0 -0.42539 -0.90501
    outer loop
      vertex 504 -47.5 -82.9306
      vertex 505 -32.4919 -89.985
      vertex 505 -47.5 -82.9306
    endloop
  endfacet
  facet normal -0 -0.42539 -0.90501
    outer loop
      vertex 505 -32.4919 -89.985
      vertex 504 -47.5 -82.9306
      vertex 504 -32.4919 -89.985
    endloop
  endfacet
  facet normal 0 0 1
    outer loop
      vertex 505 -89.9563 0
      vertex 504 -95 0
      vertex 505 -95 0
    endloop
  endfacet
  facet normal -0 0 1
    outer loop
      vertex 500 -89.9563 0
      vertex 504 -95 0
      vertex 505 -89.9563 0
    endloop
  endfacet
  facet normal 0 0 1
    outer loop
      vertex 504 -95 0
      vertex 500 -89.9563 0
      vertex 500 -95 0
    endloop
  endfacet
  facet normal -0 0 1
    outer loop
      vertex 504 95 0
      vertex 505 89.9563 0
      vertex 505 95 0
    endloop
  endfacet
  facet normal 0 0 1
    outer loop
      vertex 500 89.9563 0
      vertex 504 95 0
      vertex 500 95 0
    endloop
  endfacet
  facet normal 0 0 1
    outer loop
      vertex 504 95 0
      vertex 500 89.9563 0
      vertex 505 89.9563 0
    endloop
  endfacet
  facet normal 0 0.996254 0.08647
    outer loop
      vertex 505 -88.5982 -15.6472
      vertex 500 -89.9563 0
      vertex 505 -89.9563 0
    endloop
  endfacet
  facet normal 0 0.996254 0.08647
    outer loop
      vertex 500 -89.9563 0
      vertex 505 -88.5982 -15.6472
      vertex 500 -88.5982 -15.6472
    endloop
  endfacet
  facet normal 0 -0.425389 0.905011
    outer loop
      vertex 500 44.9825 -78.4353
      vertex 505 30.7698 -85.1158
      vertex 505 44.9825 -78.4353
    endloop
  endfacet
  facet normal 0 -0.425389 0.905011
    outer loop
      vertex 505 30.7698 -85.1158
      vertex 500 44.9825 -78.4353
      vertex 500 30.7698 -85.1158
    endloop
  endfacet
  facet normal -0 0.0878471 0.996134
    outer loop
      vertex 500 0 -90.5847
      vertex 505 -15.6223 -89.207
      vertex 505 0 -90.5847
    endloop
  endfacet
  facet normal 0 0.0878471 0.996134
    outer loop
      vertex 505 -15.6223 -89.207
      vertex 500 0 -90.5847
      vertex 500 -15.6223 -89.207
    endloop
  endfacet
  facet normal 0 0.907592 0.419853
    outer loop
      vertex 505 -77.912 -45.2424
      vertex 500 -84.5394 -30.916
      vertex 505 -84.5394 -30.916
    endloop
  endfacet
  facet normal 0 0.907592 0.419853
    outer loop
      vertex 500 -84.5394 -30.916
      vertex 505 -77.912 -45.2424
      vertex 500 -77.912 -45.2424
    endloop
  endfacet
  facet normal 0 -0.0878471 0.996134
    outer loop
      vertex 500 15.6223 -89.207
      vertex 505 0 -90.5847
      vertex 505 15.6223 -89.207
    endloop
  endfacet
  facet normal 0 -0.0878471 0.996134
    outer loop
      vertex 505 0 -90.5847
      vertex 500 15.6223 -89.207
      vertex 500 0 -90.5847
    endloop
  endfacet
  facet normal 0 -0.907592 0.419853
    outer loop
      vertex 500 77.912 -45.2424
      vertex 505 84.5394 -30.916
      vertex 500 84.5394 -30.916
    endloop
  endfacet
  facet normal 0 -0.907592 0.419853
    outer loop
      vertex 505 84.5394 -30.916
      vertex 500 77.912 -45.2424
      vertex 505 77.912 -45.2424
    endloop
  endfacet
  facet normal 0 0.709918 0.704284
    outer loop
      vertex 505 -57.8284 -69.3685
      vertex 500 -68.9172 -58.191
      vertex 505 -68.9172 -58.191
    endloop
  endfacet
  facet normal 0 0.709918 0.704284
    outer loop
      vertex 500 -68.9172 -58.191
      vertex 505 -57.8284 -69.3685
      vertex 500 -57.8284 -69.3685
    endloop
  endfacet
  facet normal 0 -0.996254 0.08647
    outer loop
      vertex 500 88.5982 -15.6472
      vertex 505 89.9563 0
      vertex 500 89.9563 0
    endloop
  endfacet
  facet normal 0 -0.996254 0.08647
    outer loop
      vertex 505 89.9563 0
      vertex 500 88.5982 -15.6472
      vertex 505 88.5982 -15.6472
    endloop
  endfacet
  facet normal -0 0.576645 0.816995
    outer loop
      vertex 500 -44.9825 -78.4353
      vertex 505 -57.8284 -69.3685
      vertex 505 -44.9825 -78.4353
    endloop
  endfacet
  facet normal 0 0.576645 0.816995
    outer loop
      vertex 505 -57.8284 -69.3685
      vertex 500 -44.9825 -78.4353
      vertex 500 -57.8284 -69.3685
    endloop
  endfacet
  facet normal 0 0.966438 0.256901
    outer loop
      vertex 505 -84.5394 -30.916
      vertex 500 -88.5982 -15.6472
      vertex 505 -88.5982 -15.6472
    endloop
  endfacet
  facet normal 0 0.966438 0.256901
    outer loop
      vertex 500 -88.5982 -15.6472
      vertex 505 -84.5394 -30.916
      vertex 500 -84.5394 -30.916
    endloop
  endfacet
  facet normal 0 -0.576645 0.816995
    outer loop
      vertex 500 57.8284 -69.3685
      vertex 505 44.9825 -78.4353
      vertex 505 57.8284 -69.3685
    endloop
  endfacet
  facet normal 0 -0.576645 0.816995
    outer loop
      vertex 505 44.9825 -78.4353
      vertex 500 57.8284 -69.3685
      vertex 500 44.9825 -78.4353
    endloop
  endfacet
  facet normal 0 -0.260748 0.965407
    outer loop
      vertex 500 30.7698 -85.1158
      vertex 505 15.6223 -89.207
      vertex 505 30.7698 -85.1158
    endloop
  endfacet
  facet normal 0 -0.260748 0.965407
    outer loop
      vertex 505 15.6223 -89.207
      vertex 500 30.7698 -85.1158
      vertex 500 15.6223 -89.207
    endloop
  endfacet
  facet normal 0 -0.709918 0.704284
    outer loop
      vertex 500 57.8284 -69.3685
      vertex 505 68.9172 -58.191
      vertex 500 68.9172 -58.191
    endloop
  endfacet
  facet normal 0 -0.709918 0.704284
    outer loop
      vertex 505 68.9172 -58.191
      vertex 500 57.8284 -69.3685
      vertex 505 57.8284 -69.3685
    endloop
  endfacet
  facet normal 0 0.821289 0.570512
    outer loop
      vertex 505 -68.9172 -58.191
      vertex 500 -77.912 -45.2424
      vertex 505 -77.912 -45.2424
    endloop
  endfacet
  facet normal 0 0.821289 0.570512
    outer loop
      vertex 500 -77.912 -45.2424
      vertex 505 -68.9172 -58.191
      vertex 500 -68.9172 -58.191
    endloop
  endfacet
  facet normal 0 -0.821289 0.570512
    outer loop
      vertex 500 68.9172 -58.191
      vertex 505 77.912 -45.2424
      vertex 500 77.912 -45.2424
    endloop
  endfacet
  facet normal 0 -0.821289 0.570512
    outer loop
      vertex 505 77.912 -45.2424
      vertex 500 68.9172 -58.191
      vertex 505 68.9172 -58.191
    endloop
  endfacet
  facet normal 0 -0.966438 0.256901
    outer loop
      vertex 500 84.5394 -30.916
      vertex 505 88.5982 -15.6472
      vertex 500 88.5982 -15.6472
    endloop
  endfacet
  facet normal 0 -0.966438 0.256901
    outer loop
      vertex 505 88.5982 -15.6472
      vertex 500 84.5394 -30.916
      vertex 505 84.5394 -30.916
    endloop
  endfacet
  facet normal -0 0.260748 0.965407
    outer loop
      vertex 500 -15.6223 -89.207
      vertex 505 -30.7698 -85.1158
      vertex 505 -15.6223 -89.207
    endloop
  endfacet
  facet normal 0 0.260748 0.965407
    outer loop
      vertex 505 -30.7698 -85.1158
      vertex 500 -15.6223 -89.207
      vertex 500 -30.7698 -85.1158
    endloop
  endfacet
  facet normal -0 0.425389 0.905011
    outer loop
      vertex 500 -30.7698 -85.1158
      vertex 505 -44.9825 -78.4353
      vertex 505 -30.7698 -85.1158
    endloop
  endfacet
  facet normal 0 0.425389 0.905011
    outer loop
      vertex 505 -44.9825 -78.4353
      vertex 500 -30.7698 -85.1158
      vertex 500 -44.9825 -78.4353
    endloop
  endfacet
  facet normal 1 0 0
    outer loop
      vertex 505 88.5982 -15.6472
      vertex 505 95 0
      vertex 505 89.9563 0
    endloop
  endfacet
  facet normal 1 0 0
    outer loop
      vertex 505 95 0
      vertex 505 88.5982 -15.6472
      vertex 505 93.5567 -16.6285
    endloop
  endfacet
  facet normal 1 0 0
    outer loop
      vertex 505 84.5394 -30.916
      vertex 505 93.5567 -16.6285
      vertex 505 88.5982 -15.6472
    endloop
  endfacet
  facet normal 1 0 0
    outer loop
      vertex 505 93.5567 -16.6285
      vertex 505 84.5394 -30.916
      vertex 505 89.2708 -32.7519
    endloop
  endfacet
  facet normal 1 0 0
    outer loop
      vertex 505 77.912 -45.2424
      vertex 505 89.2708 -32.7519
      vertex 505 84.5394 -30.916
    endloop
  endfacet
  facet normal 1 0 0
    outer loop
      vertex 505 89.2708 -32.7519
      vertex 505 77.912 -45.2424
      vertex 505 82.2724 -47.88
    endloop
  endfacet
  facet normal 1 0 0
    outer loop
      vertex 505 68.9172 -58.191
      vertex 505 82.2724 -47.88
      vertex 505 77.912 -45.2424
    endloop
  endfacet
  facet normal 1 0 0
    outer loop
      vertex 505 82.2724 -47.88
      vertex 505 68.9172 -58.191
      vertex 505 72.7742 -61.5533
    endloop
  endfacet
  facet normal 1 0 0
    outer loop
      vertex 505 57.8284 -69.3685
      vertex 505 72.7742 -61.5533
      vertex 505 68.9172 -58.191
    endloop
  endfacet
  facet normal 1 0 0
    outer loop
      vertex 505 72.7742 -61.5533
      vertex 505 57.8284 -69.3685
      vertex 505 61.0648 -73.3564
    endloop
  endfacet
  facet normal 1 0 0
    outer loop
      vertex 505 44.9825 -78.4353
      vertex 505 61.0648 -73.3564
      vertex 505 57.8284 -69.3685
    endloop
  endfacet
  facet normal 1 0 0
    outer loop
      vertex 505 61.0648 -73.3564
      vertex 505 44.9825 -78.4353
      vertex 505 47.5 -82.9306
    endloop
  endfacet
  facet normal 1 0 0
    outer loop
      vertex 505 30.7698 -85.1158
      vertex 505 47.5 -82.9306
      vertex 505 44.9825 -78.4353
    endloop
  endfacet
  facet normal 1 0 0
    outer loop
      vertex 505 47.5 -82.9306
      vertex 505 30.7698 -85.1158
      vertex 505 32.4919 -89.985
    endloop
  endfacet
  facet normal 1 -0 0
    outer loop
      vertex 505 15.6223 -89.207
      vertex 505 32.4919 -89.985
      vertex 505 30.7698 -85.1158
    endloop
  endfacet
  facet normal 1 0 0
    outer loop
      vertex 505 32.4919 -89.985
      vertex 505 15.6223 -89.207
      vertex 505 16.4966 -94.3052
    endloop
  endfacet
  facet normal 1 -0 0
    outer loop
      vertex 505 0 -90.5847
      vertex 505 16.4966 -94.3052
      vertex 505 15.6223 -89.207
    endloop
  endfacet
  facet normal 1 0 0
    outer loop
      vertex 505 0 -90.5847
      vertex 505 0 -95.76
      vertex 505 16.4966 -94.3052
    endloop
  endfacet
  facet normal 1 0 0
    outer loop
      vertex 505 -15.6223 -89.207
      vertex 505 0 -95.76
      vertex 505 0 -90.5847
    endloop
  endfacet
  facet normal 1 0 0
    outer loop
      vertex 505 -15.6223 -89.207
      vertex 505 -16.4966 -94.3052
      vertex 505 0 -95.76
    endloop
  endfacet
  facet normal 1 0 0
    outer loop
      vertex 505 -32.4919 -89.985
      vertex 505 -15.6223 -89.207
      vertex 505 -30.7698 -85.1158
    endloop
  endfacet
  facet normal 1 0 0
    outer loop
      vertex 505 -15.6223 -89.207
      vertex 505 -32.4919 -89.985
      vertex 505 -16.4966 -94.3052
    endloop
  endfacet
  facet normal 1 -0 0
    outer loop
      vertex 505 -47.5 -82.9306
      vertex 505 -30.7698 -85.1158
      vertex 505 -44.9825 -78.4353
    endloop
  endfacet
  facet normal 1 0 0
    outer loop
      vertex 505 -30.7698 -85.1158
      vertex 505 -47.5 -82.9306
      vertex 505 -32.4919 -89.985
    endloop
  endfacet
  facet normal 1 -0 0
    outer loop
      vertex 505 -61.0648 -73.3564
      vertex 505 -44.9825 -78.4353
      vertex 505 -57.8284 -69.3685
    endloop
  endfacet
  facet normal 1 0 0
    outer loop
      vertex 505 -44.9825 -78.4353
      vertex 505 -61.0648 -73.3564
      vertex 505 -47.5 -82.9306
    endloop
  endfacet
  facet normal 1 -0 0
    outer loop
      vertex 505 -72.7742 -61.5533
      vertex 505 -57.8284 -69.3685
      vertex 505 -68.9172 -58.191
    endloop
  endfacet
  facet normal 1 0 0
    outer loop
      vertex 505 -57.8284 -69.3685
      vertex 505 -72.7742 -61.5533
      vertex 505 -61.0648 -73.3564
    endloop
  endfacet
  facet normal 1 -0 0
    outer loop
      vertex 505 -82.2724 -47.88
      vertex 505 -68.9172 -58.191
      vertex 505 -77.912 -45.2424
    endloop
  endfacet
  facet normal 1 0 0
    outer loop
      vertex 505 -68.9172 -58.191
      vertex 505 -82.2724 -47.88
      vertex 505 -72.7742 -61.5533
    endloop
  endfacet
  facet normal 1 -0 0
    outer loop
      vertex 505 -89.2708 -32.7519
      vertex 505 -77.912 -45.2424
      vertex 505 -84.5394 -30.916
    endloop
  endfacet
  facet normal 1 -0 0
    outer loop
      vertex 505 -93.5567 -16.6285
      vertex 505 -84.5394 -30.916
      vertex 505 -88.5982 -15.6472
    endloop
  endfacet
  facet normal 1 0 0
    outer loop
      vertex 505 -77.912 -45.2424
      vertex 505 -89.2708 -32.7519
      vertex 505 -82.2724 -47.88
    endloop
  endfacet
  facet normal 1 -0 0
    outer loop
      vertex 505 -95 0
      vertex 505 -88.5982 -15.6472
      vertex 505 -89.9563 0
    endloop
  endfacet
  facet normal 1 0 0
    outer loop
      vertex 505 -84.5394 -30.916
      vertex 505 -93.5567 -16.6285
      vertex 505 -89.2708 -32.7519
    endloop
  endfacet
  facet normal 1 0 0
    outer loop
      vertex 505 -88.5982 -15.6472
      vertex 505 -95 0
      vertex 505 -93.5567 -16.6285
    endloop
  endfacet
  facet normal -1 0 0
    outer loop
      vertex 500 88.5982 -15.6472
      vertex 500 95 0
      vertex 500 93.5567 -16.6615
    endloop
  endfacet
  facet normal -1 0 0
    outer loop
      vertex 500 84.5394 -30.916
      vertex 500 93.5567 -16.6615
      vertex 500 89.2708 -32.8168
    endloop
  endfacet
  facet normal -1 -0 0
    outer loop
      vertex 500 95 0
      vertex 500 88.5982 -15.6472
      vertex 500 89.9563 0
    endloop
  endfacet
  facet normal -1 -0 0
    outer loop
      vertex 500 93.5567 -16.6615
      vertex 500 84.5394 -30.916
      vertex 500 88.5982 -15.6472
    endloop
  endfacet
  facet normal -1 0 0
    outer loop
      vertex 500 77.912 -45.2424
      vertex 500 89.2708 -32.8168
      vertex 500 82.2724 -47.975
    endloop
  endfacet
  facet normal -1 -0 0
    outer loop
      vertex 500 89.2708 -32.8168
      vertex 500 77.912 -45.2424
      vertex 500 84.5394 -30.916
    endloop
  endfacet
  facet normal -1 0 0
    outer loop
      vertex 500 68.9172 -58.191
      vertex 500 82.2724 -47.975
      vertex 500 72.7742 -61.6755
    endloop
  endfacet
  facet normal -1 -0 0
    outer loop
      vertex 500 82.2724 -47.975
      vertex 500 68.9172 -58.191
      vertex 500 77.912 -45.2424
    endloop
  endfacet
  facet normal -1 0 0
    outer loop
      vertex 500 57.8284 -69.3685
      vertex 500 72.7742 -61.6755
      vertex 500 61.0648 -73.502
    endloop
  endfacet
  facet normal -1 -0 0
    outer loop
      vertex 500 72.7742 -61.6755
      vertex 500 57.8284 -69.3685
      vertex 500 68.9172 -58.191
    endloop
  endfacet
  facet normal -1 0 0
    outer loop
      vertex 500 44.9825 -78.4353
      vertex 500 61.0648 -73.502
      vertex 500 47.5 -83.0951
    endloop
  endfacet
  facet normal -1 -0 0
    outer loop
      vertex 500 61.0648 -73.502
      vertex 500 44.9825 -78.4353
      vertex 500 57.8284 -69.3685
    endloop
  endfacet
  facet normal -1 0 0
    outer loop
      vertex 500 30.7698 -85.1158
      vertex 500 47.5 -83.0951
      vertex 500 32.4919 -90.1635
    endloop
  endfacet
  facet normal -1 -0 0
    outer loop
      vertex 500 47.5 -83.0951
      vertex 500 30.7698 -85.1158
      vertex 500 44.9825 -78.4353
    endloop
  endfacet
  facet normal -1 0 0
    outer loop
      vertex 500 15.6223 -89.207
      vertex 500 32.4919 -90.1635
      vertex 500 16.4966 -94.4923
    endloop
  endfacet
  facet normal -1 0 0
    outer loop
      vertex 500 32.4919 -90.1635
      vertex 500 15.6223 -89.207
      vertex 500 30.7698 -85.1158
    endloop
  endfacet
  facet normal -1 0 0
    outer loop
      vertex 500 0 -90.5847
      vertex 500 16.4966 -94.4923
      vertex 500 0 -95.95
    endloop
  endfacet
  facet normal -1 0 0
    outer loop
      vertex 500 16.4966 -94.4923
      vertex 500 0 -90.5847
      vertex 500 15.6223 -89.207
    endloop
  endfacet
  facet normal -1 0 0
    outer loop
      vertex 500 -16.4966 -94.4923
      vertex 500 0 -90.5847
      vertex 500 0 -95.95
    endloop
  endfacet
  facet normal -1 -0 0
    outer loop
      vertex 500 0 -90.5847
      vertex 500 -16.4966 -94.4923
      vertex 500 -15.6223 -89.207
    endloop
  endfacet
  facet normal -1 0 0
    outer loop
      vertex 500 -32.4919 -90.1635
      vertex 500 -15.6223 -89.207
      vertex 500 -16.4966 -94.4923
    endloop
  endfacet
  facet normal -1 -0 0
    outer loop
      vertex 500 -15.6223 -89.207
      vertex 500 -32.4919 -90.1635
      vertex 500 -30.7698 -85.1158
    endloop
  endfacet
  facet normal -1 0 0
    outer loop
      vertex 500 -47.5 -83.0951
      vertex 500 -30.7698 -85.1158
      vertex 500 -32.4919 -90.1635
    endloop
  endfacet
  facet normal -1 0 0
    outer loop
      vertex 500 -30.7698 -85.1158
      vertex 500 -47.5 -83.0951
      vertex 500 -44.9825 -78.4353
    endloop
  endfacet
  facet normal -1 0 0
    outer loop
      vertex 500 -61.0648 -73.502
      vertex 500 -44.9825 -78.4353
      vertex 500 -47.5 -83.0951
    endloop
  endfacet
  facet normal -1 0 0
    outer loop
      vertex 500 -44.9825 -78.4353
      vertex 500 -61.0648 -73.502
      vertex 500 -57.8284 -69.3685
    endloop
  endfacet
  facet normal -1 0 0
    outer loop
      vertex 500 -72.7742 -61.6755
      vertex 500 -57.8284 -69.3685
      vertex 500 -61.0648 -73.502
    endloop
  endfacet
  facet normal -1 0 0
    outer loop
      vertex 500 -57.8284 -69.3685
      vertex 500 -72.7742 -61.6755
      vertex 500 -68.9172 -58.191
    endloop
  endfacet
  facet normal -1 0 0
    outer loop
      vertex 500 -82.2724 -47.975
      vertex 500 -68.9172 -58.191
      vertex 500 -72.7742 -61.6755
    endloop
  endfacet
  facet normal -1 0 0
    outer loop
      vertex 500 -68.9172 -58.191
      vertex 500 -82.2724 -47.975
      vertex 500 -77.912 -45.2424
    endloop
  endfacet
  facet normal -1 0 0
    outer loop
      vertex 500 -89.2708 -32.8168
      vertex 500 -77.912 -45.2424
      vertex 500 -82.2724 -47.975
    endloop
  endfacet
  facet normal -1 0 0
    outer loop
      vertex 500 -77.912 -45.2424
      vertex 500 -89.2708 -32.8168
      vertex 500 -84.5394 -30.916
    endloop
  endfacet
  facet normal -1 0 0
    outer loop
      vertex 500 -93.5567 -16.6615
      vertex 500 -84.5394 -30.916
      vertex 500 -89.2708 -32.8168
    endloop
  endfacet
  facet normal -1 0 0
    outer loop
      vertex 500 -84.5394 -30.916
      vertex 500 -93.5567 -16.6615
      vertex 500 -88.5982 -15.6472
    endloop
  endfacet
  facet normal -1 0 0
    outer loop
      vertex 500 -95 0
      vertex 500 -88.5982 -15.6472
      vertex 500 -93.5567 -16.6615
    endloop
  endfacet
  facet normal -1 0 0
    outer loop
      vertex 500 -88.5982 -15.6472
      vertex 500 -95 0
      vertex 500 -89.9563 0
    endloop
  endfacet
endsolid OpenSCAD_Model
