solid OpenSCAD_Model
  facet normal 0 0.691003 -0.722852
    outer loop
      vertex 100 31.1922 -175.685
      vertex 102 45.6 -161.912
      vertex 102 31.1922 -175.685
    endloop
  endfacet
  facet normal 0 0.691003 -0.722852
    outer loop
      vertex 102 45.6 -161.912
      vertex 100 31.1922 -175.685
      vertex 100 45.6 -161.912
    endloop
  endfacet
  facet normal 0 -0.975091 -0.221803
    outer loop
      vertex 100 -78.9815 -93.48
      vertex 102 -85.7 -63.9441
      vertex 100 -85.7 -63.9441
    endloop
  endfacet
  facet normal 0 -0.975091 -0.221803
    outer loop
      vertex 102 -85.7 -63.9441
      vertex 100 -78.9815 -93.48
      vertex 102 -78.9815 -93.48
    endloop
  endfacet
  facet normal 0 0.975091 -0.221803
    outer loop
      vertex 102 78.9815 -93.48
      vertex 100 85.7 -63.9441
      vertex 102 85.7 -63.9441
    endloop
  endfacet
  facet normal 0 0.975091 -0.221803
    outer loop
      vertex 100 85.7 -63.9441
      vertex 102 78.9815 -93.48
      vertex 100 78.9815 -93.48
    endloop
  endfacet
  facet normal -1 0 0
    outer loop
      vertex 102 89.8145 -32.4653
      vertex 102 92.15 0
      vertex 102 90.75 -32.6114
    endloop
  endfacet
  facet normal -1 -0 0
    outer loop
      vertex 102 92.15 0
      vertex 102 89.8145 -32.4653
      vertex 102 91.2 0
    endloop
  endfacet
  facet normal -1 0 0
    outer loop
      vertex 102 85.7 -63.9441
      vertex 102 90.75 -32.6114
      vertex 102 86.5927 -64.232
    endloop
  endfacet
  facet normal -1 -0 0
    outer loop
      vertex 102 90.75 -32.6114
      vertex 102 85.7 -63.9441
      vertex 102 89.8145 -32.4653
    endloop
  endfacet
  facet normal -1 0 0
    outer loop
      vertex 102 78.9815 -93.48
      vertex 102 86.5927 -64.232
      vertex 102 79.8042 -93.9008
    endloop
  endfacet
  facet normal -1 -0 0
    outer loop
      vertex 102 86.5927 -64.232
      vertex 102 78.9815 -93.48
      vertex 102 85.7 -63.9441
    endloop
  endfacet
  facet normal -1 0 0
    outer loop
      vertex 102 69.8633 -120.176
      vertex 102 79.8042 -93.9008
      vertex 102 70.591 -120.717
    endloop
  endfacet
  facet normal -1 -0 0
    outer loop
      vertex 102 79.8042 -93.9008
      vertex 102 69.8633 -120.176
      vertex 102 78.9815 -93.48
    endloop
  endfacet
  facet normal -1 0 0
    outer loop
      vertex 102 58.6222 -143.22
      vertex 102 70.591 -120.717
      vertex 102 59.2329 -143.864
    endloop
  endfacet
  facet normal -1 -0 0
    outer loop
      vertex 102 70.591 -120.717
      vertex 102 58.6222 -143.22
      vertex 102 69.8633 -120.176
    endloop
  endfacet
  facet normal -1 0 0
    outer loop
      vertex 102 45.6 -161.912
      vertex 102 59.2329 -143.864
      vertex 102 46.075 -162.641
    endloop
  endfacet
  facet normal -1 -0 0
    outer loop
      vertex 102 59.2329 -143.864
      vertex 102 45.6 -161.912
      vertex 102 58.6222 -143.22
    endloop
  endfacet
  facet normal -1 0 0
    outer loop
      vertex 102 31.1922 -175.685
      vertex 102 46.075 -162.641
      vertex 102 31.5172 -176.476
    endloop
  endfacet
  facet normal -1 -0 0
    outer loop
      vertex 102 46.075 -162.641
      vertex 102 31.1922 -175.685
      vertex 102 45.6 -161.912
    endloop
  endfacet
  facet normal -1 0 0
    outer loop
      vertex 102 15.8367 -184.12
      vertex 102 31.5172 -176.476
      vertex 102 16.0017 -184.949
    endloop
  endfacet
  facet normal -1 -0 0
    outer loop
      vertex 102 31.5172 -176.476
      vertex 102 15.8367 -184.12
      vertex 102 31.1922 -175.685
    endloop
  endfacet
  facet normal -1 0 0
    outer loop
      vertex 102 0 -186.96
      vertex 102 16.0017 -184.949
      vertex 102 0 -187.802
    endloop
  endfacet
  facet normal -1 -0 0
    outer loop
      vertex 102 16.0017 -184.949
      vertex 102 0 -186.96
      vertex 102 15.8367 -184.12
    endloop
  endfacet
  facet normal -1 0 0
    outer loop
      vertex 102 -16.0017 -184.949
      vertex 102 0 -186.96
      vertex 102 0 -187.802
    endloop
  endfacet
  facet normal -1 0 0
    outer loop
      vertex 102 0 -186.96
      vertex 102 -16.0017 -184.949
      vertex 102 -15.8367 -184.12
    endloop
  endfacet
  facet normal -1 0 0
    outer loop
      vertex 102 -31.5172 -176.476
      vertex 102 -15.8367 -184.12
      vertex 102 -16.0017 -184.949
    endloop
  endfacet
  facet normal -1 0 0
    outer loop
      vertex 102 -15.8367 -184.12
      vertex 102 -31.5172 -176.476
      vertex 102 -31.1922 -175.685
    endloop
  endfacet
  facet normal -1 0 0
    outer loop
      vertex 102 -46.075 -162.641
      vertex 102 -31.1922 -175.685
      vertex 102 -31.5172 -176.476
    endloop
  endfacet
  facet normal -1 0 0
    outer loop
      vertex 102 -31.1922 -175.685
      vertex 102 -46.075 -162.641
      vertex 102 -45.6 -161.912
    endloop
  endfacet
  facet normal -1 0 0
    outer loop
      vertex 102 -59.2329 -143.864
      vertex 102 -45.6 -161.912
      vertex 102 -46.075 -162.641
    endloop
  endfacet
  facet normal -1 0 0
    outer loop
      vertex 102 -45.6 -161.912
      vertex 102 -59.2329 -143.864
      vertex 102 -58.6222 -143.22
    endloop
  endfacet
  facet normal -1 0 0
    outer loop
      vertex 102 -70.591 -120.717
      vertex 102 -58.6222 -143.22
      vertex 102 -59.2329 -143.864
    endloop
  endfacet
  facet normal -1 0 0
    outer loop
      vertex 102 -58.6222 -143.22
      vertex 102 -70.591 -120.717
      vertex 102 -69.8633 -120.176
    endloop
  endfacet
  facet normal -1 0 0
    outer loop
      vertex 102 -79.8042 -93.9008
      vertex 102 -69.8633 -120.176
      vertex 102 -70.591 -120.717
    endloop
  endfacet
  facet normal -1 0 0
    outer loop
      vertex 102 -69.8633 -120.176
      vertex 102 -79.8042 -93.9008
      vertex 102 -78.9815 -93.48
    endloop
  endfacet
  facet normal -1 0 0
    outer loop
      vertex 102 -86.5927 -64.232
      vertex 102 -78.9815 -93.48
      vertex 102 -79.8042 -93.9008
    endloop
  endfacet
  facet normal -1 0 0
    outer loop
      vertex 102 -78.9815 -93.48
      vertex 102 -86.5927 -64.232
      vertex 102 -85.7 -63.9441
    endloop
  endfacet
  facet normal -1 0 0
    outer loop
      vertex 102 -90.75 -32.6114
      vertex 102 -85.7 -63.9441
      vertex 102 -86.5927 -64.232
    endloop
  endfacet
  facet normal -1 0 0
    outer loop
      vertex 102 -85.7 -63.9441
      vertex 102 -90.75 -32.6114
      vertex 102 -89.8145 -32.4653
    endloop
  endfacet
  facet normal -1 0 0
    outer loop
      vertex 102 -92.15 0
      vertex 102 -89.8145 -32.4653
      vertex 102 -90.75 -32.6114
    endloop
  endfacet
  facet normal -1 0 0
    outer loop
      vertex 102 -89.8145 -32.4653
      vertex 102 -92.15 0
      vertex 102 -91.2 0
    endloop
  endfacet
  facet normal 0 0.999091 -0.0426375
    outer loop
      vertex 102 89.8145 -32.4653
      vertex 100 91.2 0
      vertex 102 91.2 0
    endloop
  endfacet
  facet normal 0 0.999091 -0.0426375
    outer loop
      vertex 100 91.2 0
      vertex 102 89.8145 -32.4653
      vertex 100 89.8145 -32.4653
    endloop
  endfacet
  facet normal 0 0.176514 -0.984298
    outer loop
      vertex 100 0 -186.96
      vertex 102 15.8367 -184.12
      vertex 102 0 -186.96
    endloop
  endfacet
  facet normal 0 0.176514 -0.984298
    outer loop
      vertex 102 15.8367 -184.12
      vertex 100 0 -186.96
      vertex 100 15.8367 -184.12
    endloop
  endfacet
  facet normal 0 -0.991566 -0.129605
    outer loop
      vertex 100 -85.7 -63.9441
      vertex 102 -89.8145 -32.4653
      vertex 100 -89.8145 -32.4653
    endloop
  endfacet
  facet normal 0 -0.991566 -0.129605
    outer loop
      vertex 102 -89.8145 -32.4653
      vertex 100 -85.7 -63.9441
      vertex 102 -85.7 -63.9441
    endloop
  endfacet
  facet normal 0 -0.999091 -0.0426375
    outer loop
      vertex 100 -89.8145 -32.4653
      vertex 102 -91.2 0
      vertex 100 -91.2 0
    endloop
  endfacet
  facet normal 0 -0.999091 -0.0426375
    outer loop
      vertex 102 -91.2 0
      vertex 100 -89.8145 -32.4653
      vertex 102 -89.8145 -32.4653
    endloop
  endfacet
  facet normal 0 -0.176514 -0.984298
    outer loop
      vertex 100 -15.8367 -184.12
      vertex 102 0 -186.96
      vertex 102 -15.8367 -184.12
    endloop
  endfacet
  facet normal -0 -0.176514 -0.984298
    outer loop
      vertex 102 0 -186.96
      vertex 100 -15.8367 -184.12
      vertex 100 0 -186.96
    endloop
  endfacet
  facet normal 0 -0.691003 -0.722852
    outer loop
      vertex 100 -45.6 -161.912
      vertex 102 -31.1922 -175.685
      vertex 102 -45.6 -161.912
    endloop
  endfacet
  facet normal -0 -0.691003 -0.722852
    outer loop
      vertex 102 -31.1922 -175.685
      vertex 100 -45.6 -161.912
      vertex 100 -31.1922 -175.685
    endloop
  endfacet
  facet normal 0 -0.820513 -0.571628
    outer loop
      vertex 100 -45.6 -161.912
      vertex 102 -58.6222 -143.22
      vertex 100 -58.6222 -143.22
    endloop
  endfacet
  facet normal 0 -0.820513 -0.571628
    outer loop
      vertex 102 -58.6222 -143.22
      vertex 100 -45.6 -161.912
      vertex 102 -45.6 -161.912
    endloop
  endfacet
  facet normal 0 0.481457 -0.876469
    outer loop
      vertex 100 15.8367 -184.12
      vertex 102 31.1922 -175.685
      vertex 102 15.8367 -184.12
    endloop
  endfacet
  facet normal 0 0.481457 -0.876469
    outer loop
      vertex 102 31.1922 -175.685
      vertex 100 15.8367 -184.12
      vertex 100 31.1922 -175.685
    endloop
  endfacet
  facet normal 0 -0.898767 -0.438428
    outer loop
      vertex 100 -58.6222 -143.22
      vertex 102 -69.8633 -120.176
      vertex 100 -69.8633 -120.176
    endloop
  endfacet
  facet normal 0 -0.898767 -0.438428
    outer loop
      vertex 102 -69.8633 -120.176
      vertex 100 -58.6222 -143.22
      vertex 102 -58.6222 -143.22
    endloop
  endfacet
  facet normal 0 0.820513 -0.571628
    outer loop
      vertex 102 45.6 -161.912
      vertex 100 58.6222 -143.22
      vertex 102 58.6222 -143.22
    endloop
  endfacet
  facet normal 0 0.820513 -0.571628
    outer loop
      vertex 100 58.6222 -143.22
      vertex 102 45.6 -161.912
      vertex 100 45.6 -161.912
    endloop
  endfacet
  facet normal 0 -0.946323 -0.323223
    outer loop
      vertex 100 -69.8633 -120.176
      vertex 102 -78.9815 -93.48
      vertex 100 -78.9815 -93.48
    endloop
  endfacet
  facet normal 0 -0.946323 -0.323223
    outer loop
      vertex 102 -78.9815 -93.48
      vertex 100 -69.8633 -120.176
      vertex 102 -69.8633 -120.176
    endloop
  endfacet
  facet normal 0 0.898767 -0.438428
    outer loop
      vertex 102 58.6222 -143.22
      vertex 100 69.8633 -120.176
      vertex 102 69.8633 -120.176
    endloop
  endfacet
  facet normal 0 0.898767 -0.438428
    outer loop
      vertex 100 69.8633 -120.176
      vertex 102 58.6222 -143.22
      vertex 100 58.6222 -143.22
    endloop
  endfacet
  facet normal 0 0.946323 -0.323223
    outer loop
      vertex 102 69.8633 -120.176
      vertex 100 78.9815 -93.48
      vertex 102 78.9815 -93.48
    endloop
  endfacet
  facet normal 0 0.946323 -0.323223
    outer loop
      vertex 100 78.9815 -93.48
      vertex 102 69.8633 -120.176
      vertex 100 69.8633 -120.176
    endloop
  endfacet
  facet normal 0 -0.481457 -0.876469
    outer loop
      vertex 100 -31.1922 -175.685
      vertex 102 -15.8367 -184.12
      vertex 102 -31.1922 -175.685
    endloop
  endfacet
  facet normal -0 -0.481457 -0.876469
    outer loop
      vertex 102 -15.8367 -184.12
      vertex 100 -31.1922 -175.685
      vertex 100 -15.8367 -184.12
    endloop
  endfacet
  facet normal 0 0.991566 -0.129605
    outer loop
      vertex 102 85.7 -63.9441
      vertex 100 89.8145 -32.4653
      vertex 102 89.8145 -32.4653
    endloop
  endfacet
  facet normal 0 0.991566 -0.129605
    outer loop
      vertex 100 89.8145 -32.4653
      vertex 102 85.7 -63.9441
      vertex 100 85.7 -63.9441
    endloop
  endfacet
  facet normal 0 0.688883 -0.724873
    outer loop
      vertex 102 31.5172 -176.476
      vertex 105 46.075 -162.641
      vertex 105 31.5172 -176.476
    endloop
  endfacet
  facet normal 0 0.688883 -0.724873
    outer loop
      vertex 105 46.075 -162.641
      vertex 102 31.5172 -176.476
      vertex 102 46.075 -162.641
    endloop
  endfacet
  facet normal 0 0.175526 -0.984475
    outer loop
      vertex 102 0 -187.802
      vertex 105 16.0017 -184.949
      vertex 105 0 -187.802
    endloop
  endfacet
  facet normal 0 0.175526 -0.984475
    outer loop
      vertex 105 16.0017 -184.949
      vertex 102 0 -187.802
      vertex 102 16.0017 -184.949
    endloop
  endfacet
  facet normal 0 -0.991468 -0.130353
    outer loop
      vertex 102 -86.5927 -64.232
      vertex 105 -90.75 -32.6114
      vertex 102 -90.75 -32.6114
    endloop
  endfacet
  facet normal 0 -0.991468 -0.130353
    outer loop
      vertex 105 -90.75 -32.6114
      vertex 102 -86.5927 -64.232
      vertex 105 -86.5927 -64.232
    endloop
  endfacet
  facet normal 0 0.974808 -0.223045
    outer loop
      vertex 105 79.8042 -93.9008
      vertex 102 86.5927 -64.232
      vertex 105 86.5927 -64.232
    endloop
  endfacet
  facet normal 0 0.974808 -0.223045
    outer loop
      vertex 102 86.5927 -64.232
      vertex 105 79.8042 -93.9008
      vertex 102 79.8042 -93.9008
    endloop
  endfacet
  facet normal 0 -0.688883 -0.724873
    outer loop
      vertex 102 -46.075 -162.641
      vertex 105 -31.5172 -176.476
      vertex 105 -46.075 -162.641
    endloop
  endfacet
  facet normal -0 -0.688883 -0.724873
    outer loop
      vertex 105 -31.5172 -176.476
      vertex 102 -46.075 -162.641
      vertex 102 -31.5172 -176.476
    endloop
  endfacet
  facet normal 0 -0.175526 -0.984475
    outer loop
      vertex 102 -16.0017 -184.949
      vertex 105 0 -187.802
      vertex 105 -16.0017 -184.949
    endloop
  endfacet
  facet normal -0 -0.175526 -0.984475
    outer loop
      vertex 105 0 -187.802
      vertex 102 -16.0017 -184.949
      vertex 102 0 -187.802
    endloop
  endfacet
  facet normal 0 -0.818945 -0.573872
    outer loop
      vertex 102 -46.075 -162.641
      vertex 105 -59.2329 -143.864
      vertex 102 -59.2329 -143.864
    endloop
  endfacet
  facet normal 0 -0.818945 -0.573872
    outer loop
      vertex 105 -59.2329 -143.864
      vertex 102 -46.075 -162.641
      vertex 105 -46.075 -162.641
    endloop
  endfacet
  facet normal 0 -0.99908 -0.0428903
    outer loop
      vertex 102 -90.75 -32.6114
      vertex 105 -92.15 0
      vertex 102 -92.15 0
    endloop
  endfacet
  facet normal 0 -0.99908 -0.0428903
    outer loop
      vertex 105 -92.15 0
      vertex 102 -90.75 -32.6114
      vertex 105 -90.75 -32.6114
    endloop
  endfacet
  facet normal 0 0.818945 -0.573872
    outer loop
      vertex 105 46.075 -162.641
      vertex 102 59.2329 -143.864
      vertex 105 59.2329 -143.864
    endloop
  endfacet
  facet normal 0 0.818945 -0.573872
    outer loop
      vertex 102 59.2329 -143.864
      vertex 105 46.075 -162.641
      vertex 102 46.075 -162.641
    endloop
  endfacet
  facet normal 0 -0.479288 -0.877658
    outer loop
      vertex 102 -31.5172 -176.476
      vertex 105 -16.0017 -184.949
      vertex 105 -31.5172 -176.476
    endloop
  endfacet
  facet normal -0 -0.479288 -0.877658
    outer loop
      vertex 105 -16.0017 -184.949
      vertex 102 -31.5172 -176.476
      vertex 102 -16.0017 -184.949
    endloop
  endfacet
  facet normal 0 0.479288 -0.877658
    outer loop
      vertex 102 16.0017 -184.949
      vertex 105 31.5172 -176.476
      vertex 105 16.0017 -184.949
    endloop
  endfacet
  facet normal 0 0.479288 -0.877658
    outer loop
      vertex 105 31.5172 -176.476
      vertex 102 16.0017 -184.949
      vertex 102 31.5172 -176.476
    endloop
  endfacet
  facet normal 0 -0.897744 -0.440518
    outer loop
      vertex 102 -59.2329 -143.864
      vertex 105 -70.591 -120.717
      vertex 102 -70.591 -120.717
    endloop
  endfacet
  facet normal 0 -0.897744 -0.440518
    outer loop
      vertex 105 -70.591 -120.717
      vertex 102 -59.2329 -143.864
      vertex 105 -59.2329 -143.864
    endloop
  endfacet
  facet normal 0 0.897744 -0.440518
    outer loop
      vertex 105 59.2329 -143.864
      vertex 102 70.591 -120.717
      vertex 105 70.591 -120.717
    endloop
  endfacet
  facet normal 0 0.897744 -0.440518
    outer loop
      vertex 102 70.591 -120.717
      vertex 105 59.2329 -143.864
      vertex 102 59.2329 -143.864
    endloop
  endfacet
  facet normal 0 -0.945739 -0.324926
    outer loop
      vertex 102 -70.591 -120.717
      vertex 105 -79.8042 -93.9008
      vertex 102 -79.8042 -93.9008
    endloop
  endfacet
  facet normal 0 -0.945739 -0.324926
    outer loop
      vertex 105 -79.8042 -93.9008
      vertex 102 -70.591 -120.717
      vertex 105 -70.591 -120.717
    endloop
  endfacet
  facet normal 0 0.945739 -0.324926
    outer loop
      vertex 105 70.591 -120.717
      vertex 102 79.8042 -93.9008
      vertex 105 79.8042 -93.9008
    endloop
  endfacet
  facet normal 0 0.945739 -0.324926
    outer loop
      vertex 102 79.8042 -93.9008
      vertex 105 70.591 -120.717
      vertex 102 70.591 -120.717
    endloop
  endfacet
  facet normal 0 0.99908 -0.0428903
    outer loop
      vertex 105 90.75 -32.6114
      vertex 102 92.15 0
      vertex 105 92.15 0
    endloop
  endfacet
  facet normal 0 0.99908 -0.0428903
    outer loop
      vertex 102 92.15 0
      vertex 105 90.75 -32.6114
      vertex 102 90.75 -32.6114
    endloop
  endfacet
  facet normal 0 -0.974808 -0.223045
    outer loop
      vertex 102 -79.8042 -93.9008
      vertex 105 -86.5927 -64.232
      vertex 102 -86.5927 -64.232
    endloop
  endfacet
  facet normal 0 -0.974808 -0.223045
    outer loop
      vertex 105 -86.5927 -64.232
      vertex 102 -79.8042 -93.9008
      vertex 105 -79.8042 -93.9008
    endloop
  endfacet
  facet normal 0 0.991468 -0.130353
    outer loop
      vertex 105 86.5927 -64.232
      vertex 102 90.75 -32.6114
      vertex 105 90.75 -32.6114
    endloop
  endfacet
  facet normal 0 0.991468 -0.130353
    outer loop
      vertex 102 90.75 -32.6114
      vertex 105 86.5927 -64.232
      vertex 102 86.5927 -64.232
    endloop
  endfacet
  facet normal 0 0 1
    outer loop
      vertex 105 -85.4625 0
      vertex 102 -91.2 0
      vertex 105 -92.15 0
    endloop
  endfacet
  facet normal -0 0 1
    outer loop
      vertex 100 -85.4625 0
      vertex 102 -91.2 0
      vertex 105 -85.4625 0
    endloop
  endfacet
  facet normal 0 0 1
    outer loop
      vertex 102 -91.2 0
      vertex 100 -85.4625 0
      vertex 100 -91.2 0
    endloop
  endfacet
  facet normal 0 0 1
    outer loop
      vertex 105 -92.15 0
      vertex 102 -91.2 0
      vertex 102 -92.15 0
    endloop
  endfacet
  facet normal 0 0 1
    outer loop
      vertex 102 91.2 0
      vertex 105 92.15 0
      vertex 102 92.15 0
    endloop
  endfacet
  facet normal 0 0 1
    outer loop
      vertex 105 92.15 0
      vertex 102 91.2 0
      vertex 105 85.4625 0
    endloop
  endfacet
  facet normal 0 0 1
    outer loop
      vertex 100 85.4625 0
      vertex 102 91.2 0
      vertex 100 91.2 0
    endloop
  endfacet
  facet normal 0 0 1
    outer loop
      vertex 102 91.2 0
      vertex 100 85.4625 0
      vertex 105 85.4625 0
    endloop
  endfacet
  facet normal 0 -0.693447 0.720507
    outer loop
      vertex 100 42.7334 -152.67
      vertex 105 29.2313 -165.665
      vertex 105 42.7334 -152.67
    endloop
  endfacet
  facet normal 0 -0.693447 0.720507
    outer loop
      vertex 105 29.2313 -165.665
      vertex 100 42.7334 -152.67
      vertex 100 29.2313 -165.665
    endloop
  endfacet
  facet normal 0 -0.975416 0.22037
    outer loop
      vertex 100 74.0164 -88.1017
      vertex 105 80.3125 -60.2335
      vertex 100 80.3125 -60.2335
    endloop
  endfacet
  facet normal 0 -0.975416 0.22037
    outer loop
      vertex 105 80.3125 -60.2335
      vertex 100 74.0164 -88.1017
      vertex 105 74.0164 -88.1017
    endloop
  endfacet
  facet normal 0 0.991679 0.128739
    outer loop
      vertex 105 -80.3125 -60.2335
      vertex 100 -84.1683 -30.5321
      vertex 105 -84.1683 -30.5321
    endloop
  endfacet
  facet normal 0 0.991679 0.128739
    outer loop
      vertex 100 -84.1683 -30.5321
      vertex 105 -80.3125 -60.2335
      vertex 100 -80.3125 -60.2335
    endloop
  endfacet
  facet normal 0 0.946989 0.321265
    outer loop
      vertex 105 -65.4713 -113.29
      vertex 100 -74.0164 -88.1017
      vertex 105 -74.0164 -88.1017
    endloop
  endfacet
  facet normal 0 0.946989 0.321265
    outer loop
      vertex 100 -74.0164 -88.1017
      vertex 105 -65.4713 -113.29
      vertex 100 -65.4713 -113.29
    endloop
  endfacet
  facet normal 0 0.999103 0.0423501
    outer loop
      vertex 105 -84.1683 -30.5321
      vertex 100 -85.4625 0
      vertex 105 -85.4625 0
    endloop
  endfacet
  facet normal 0 0.999103 0.0423501
    outer loop
      vertex 100 -85.4625 0
      vertex 105 -84.1683 -30.5321
      vertex 100 -84.1683 -30.5321
    endloop
  endfacet
  facet normal 0 -0.177705 0.984084
    outer loop
      vertex 100 14.8411 -173.623
      vertex 105 0 -176.303
      vertex 105 14.8411 -173.623
    endloop
  endfacet
  facet normal 0 -0.177705 0.984084
    outer loop
      vertex 105 0 -176.303
      vertex 100 14.8411 -173.623
      vertex 100 0 -176.303
    endloop
  endfacet
  facet normal -0 0.483943 0.875099
    outer loop
      vertex 100 -14.8411 -173.623
      vertex 105 -29.2313 -165.665
      vertex 105 -14.8411 -173.623
    endloop
  endfacet
  facet normal 0 0.483943 0.875099
    outer loop
      vertex 105 -29.2313 -165.665
      vertex 100 -14.8411 -173.623
      vertex 100 -29.2313 -165.665
    endloop
  endfacet
  facet normal -0 0.693447 0.720507
    outer loop
      vertex 100 -29.2313 -165.665
      vertex 105 -42.7334 -152.67
      vertex 105 -29.2313 -165.665
    endloop
  endfacet
  facet normal 0 0.693447 0.720507
    outer loop
      vertex 105 -42.7334 -152.67
      vertex 100 -29.2313 -165.665
      vertex 100 -42.7334 -152.67
    endloop
  endfacet
  facet normal 0 0.975416 0.22037
    outer loop
      vertex 105 -74.0164 -88.1017
      vertex 100 -80.3125 -60.2335
      vertex 105 -80.3125 -60.2335
    endloop
  endfacet
  facet normal 0 0.975416 0.22037
    outer loop
      vertex 100 -80.3125 -60.2335
      vertex 105 -74.0164 -88.1017
      vertex 100 -74.0164 -88.1017
    endloop
  endfacet
  facet normal 0 -0.999103 0.0423501
    outer loop
      vertex 100 84.1683 -30.5321
      vertex 105 85.4625 0
      vertex 100 85.4625 0
    endloop
  endfacet
  facet normal 0 -0.999103 0.0423501
    outer loop
      vertex 105 85.4625 0
      vertex 100 84.1683 -30.5321
      vertex 105 84.1683 -30.5321
    endloop
  endfacet
  facet normal 0 -0.991679 0.128739
    outer loop
      vertex 100 80.3125 -60.2335
      vertex 105 84.1683 -30.5321
      vertex 100 84.1683 -30.5321
    endloop
  endfacet
  facet normal 0 -0.991679 0.128739
    outer loop
      vertex 105 84.1683 -30.5321
      vertex 100 80.3125 -60.2335
      vertex 105 80.3125 -60.2335
    endloop
  endfacet
  facet normal -0 0.177705 0.984084
    outer loop
      vertex 100 0 -176.303
      vertex 105 -14.8411 -173.623
      vertex 105 0 -176.303
    endloop
  endfacet
  facet normal 0 0.177705 0.984084
    outer loop
      vertex 105 -14.8411 -173.623
      vertex 100 0 -176.303
      vertex 100 -14.8411 -173.623
    endloop
  endfacet
  facet normal 0 -0.483943 0.875099
    outer loop
      vertex 100 29.2313 -165.665
      vertex 105 14.8411 -173.623
      vertex 105 29.2313 -165.665
    endloop
  endfacet
  facet normal 0 -0.483943 0.875099
    outer loop
      vertex 105 14.8411 -173.623
      vertex 100 29.2313 -165.665
      vertex 100 14.8411 -173.623
    endloop
  endfacet
  facet normal 0 0.822337 0.569001
    outer loop
      vertex 105 -42.7334 -152.67
      vertex 100 -54.937 -135.033
      vertex 105 -54.937 -135.033
    endloop
  endfacet
  facet normal 0 0.822337 0.569001
    outer loop
      vertex 100 -54.937 -135.033
      vertex 105 -42.7334 -152.67
      vertex 100 -42.7334 -152.67
    endloop
  endfacet
  facet normal 0 -0.822337 0.569001
    outer loop
      vertex 100 42.7334 -152.67
      vertex 105 54.937 -135.033
      vertex 100 54.937 -135.033
    endloop
  endfacet
  facet normal 0 -0.822337 0.569001
    outer loop
      vertex 105 54.937 -135.033
      vertex 100 42.7334 -152.67
      vertex 105 42.7334 -152.67
    endloop
  endfacet
  facet normal 0 -0.89994 0.436013
    outer loop
      vertex 100 54.937 -135.033
      vertex 105 65.4713 -113.29
      vertex 100 65.4713 -113.29
    endloop
  endfacet
  facet normal 0 -0.89994 0.436013
    outer loop
      vertex 105 65.4713 -113.29
      vertex 100 54.937 -135.033
      vertex 105 54.937 -135.033
    endloop
  endfacet
  facet normal 0 -0.946989 0.321265
    outer loop
      vertex 100 65.4713 -113.29
      vertex 105 74.0164 -88.1017
      vertex 100 74.0164 -88.1017
    endloop
  endfacet
  facet normal 0 -0.946989 0.321265
    outer loop
      vertex 105 74.0164 -88.1017
      vertex 100 65.4713 -113.29
      vertex 105 65.4713 -113.29
    endloop
  endfacet
  facet normal 0 0.89994 0.436013
    outer loop
      vertex 105 -54.937 -135.033
      vertex 100 -65.4713 -113.29
      vertex 105 -65.4713 -113.29
    endloop
  endfacet
  facet normal 0 0.89994 0.436013
    outer loop
      vertex 100 -65.4713 -113.29
      vertex 105 -54.937 -135.033
      vertex 100 -54.937 -135.033
    endloop
  endfacet
  facet normal 1 -0 0
    outer loop
      vertex 105 84.1683 -30.5321
      vertex 105 90.75 -32.6114
      vertex 105 92.15 0
    endloop
  endfacet
  facet normal 1 0 0
    outer loop
      vertex 105 84.1683 -30.5321
      vertex 105 92.15 0
      vertex 105 85.4625 0
    endloop
  endfacet
  facet normal 1 0 0
    outer loop
      vertex 105 80.3125 -60.2335
      vertex 105 90.75 -32.6114
      vertex 105 84.1683 -30.5321
    endloop
  endfacet
  facet normal 1 0 0
    outer loop
      vertex 105 90.75 -32.6114
      vertex 105 80.3125 -60.2335
      vertex 105 86.5927 -64.232
    endloop
  endfacet
  facet normal 1 0 0
    outer loop
      vertex 105 74.0164 -88.1017
      vertex 105 86.5927 -64.232
      vertex 105 80.3125 -60.2335
    endloop
  endfacet
  facet normal 1 0 0
    outer loop
      vertex 105 86.5927 -64.232
      vertex 105 74.0164 -88.1017
      vertex 105 79.8042 -93.9008
    endloop
  endfacet
  facet normal 1 0 0
    outer loop
      vertex 105 65.4713 -113.29
      vertex 105 79.8042 -93.9008
      vertex 105 74.0164 -88.1017
    endloop
  endfacet
  facet normal 1 0 0
    outer loop
      vertex 105 79.8042 -93.9008
      vertex 105 65.4713 -113.29
      vertex 105 70.591 -120.717
    endloop
  endfacet
  facet normal 1 0 0
    outer loop
      vertex 105 54.937 -135.033
      vertex 105 70.591 -120.717
      vertex 105 65.4713 -113.29
    endloop
  endfacet
  facet normal 1 0 0
    outer loop
      vertex 105 70.591 -120.717
      vertex 105 54.937 -135.033
      vertex 105 59.2329 -143.864
    endloop
  endfacet
  facet normal 1 0 0
    outer loop
      vertex 105 42.7334 -152.67
      vertex 105 59.2329 -143.864
      vertex 105 54.937 -135.033
    endloop
  endfacet
  facet normal 1 0 0
    outer loop
      vertex 105 59.2329 -143.864
      vertex 105 42.7334 -152.67
      vertex 105 46.075 -162.641
    endloop
  endfacet
  facet normal 1 0 0
    outer loop
      vertex 105 29.2313 -165.665
      vertex 105 46.075 -162.641
      vertex 105 42.7334 -152.67
    endloop
  endfacet
  facet normal 1 0 0
    outer loop
      vertex 105 46.075 -162.641
      vertex 105 29.2313 -165.665
      vertex 105 31.5172 -176.476
    endloop
  endfacet
  facet normal 1 -0 0
    outer loop
      vertex 105 14.8411 -173.623
      vertex 105 31.5172 -176.476
      vertex 105 29.2313 -165.665
    endloop
  endfacet
  facet normal 1 0 0
    outer loop
      vertex 105 31.5172 -176.476
      vertex 105 14.8411 -173.623
      vertex 105 16.0017 -184.949
    endloop
  endfacet
  facet normal 1 -0 0
    outer loop
      vertex 105 0 -176.303
      vertex 105 16.0017 -184.949
      vertex 105 14.8411 -173.623
    endloop
  endfacet
  facet normal 1 0 0
    outer loop
      vertex 105 0 -176.303
      vertex 105 0 -187.802
      vertex 105 16.0017 -184.949
    endloop
  endfacet
  facet normal 1 0 0
    outer loop
      vertex 105 -16.0017 -184.949
      vertex 105 0 -176.303
      vertex 105 -14.8411 -173.623
    endloop
  endfacet
  facet normal 1 0 0
    outer loop
      vertex 105 0 -176.303
      vertex 105 -16.0017 -184.949
      vertex 105 0 -187.802
    endloop
  endfacet
  facet normal 1 0 0
    outer loop
      vertex 105 -31.5172 -176.476
      vertex 105 -14.8411 -173.623
      vertex 105 -29.2313 -165.665
    endloop
  endfacet
  facet normal 1 0 0
    outer loop
      vertex 105 -14.8411 -173.623
      vertex 105 -31.5172 -176.476
      vertex 105 -16.0017 -184.949
    endloop
  endfacet
  facet normal 1 -0 0
    outer loop
      vertex 105 -46.075 -162.641
      vertex 105 -29.2313 -165.665
      vertex 105 -42.7334 -152.67
    endloop
  endfacet
  facet normal 1 0 0
    outer loop
      vertex 105 -29.2313 -165.665
      vertex 105 -46.075 -162.641
      vertex 105 -31.5172 -176.476
    endloop
  endfacet
  facet normal 1 -0 0
    outer loop
      vertex 105 -59.2329 -143.864
      vertex 105 -42.7334 -152.67
      vertex 105 -54.937 -135.033
    endloop
  endfacet
  facet normal 1 0 0
    outer loop
      vertex 105 -42.7334 -152.67
      vertex 105 -59.2329 -143.864
      vertex 105 -46.075 -162.641
    endloop
  endfacet
  facet normal 1 -0 0
    outer loop
      vertex 105 -70.591 -120.717
      vertex 105 -54.937 -135.033
      vertex 105 -65.4713 -113.29
    endloop
  endfacet
  facet normal 1 0 0
    outer loop
      vertex 105 -54.937 -135.033
      vertex 105 -70.591 -120.717
      vertex 105 -59.2329 -143.864
    endloop
  endfacet
  facet normal 1 -0 0
    outer loop
      vertex 105 -79.8042 -93.9008
      vertex 105 -65.4713 -113.29
      vertex 105 -74.0164 -88.1017
    endloop
  endfacet
  facet normal 1 0 0
    outer loop
      vertex 105 -65.4713 -113.29
      vertex 105 -79.8042 -93.9008
      vertex 105 -70.591 -120.717
    endloop
  endfacet
  facet normal 1 -0 0
    outer loop
      vertex 105 -86.5927 -64.232
      vertex 105 -74.0164 -88.1017
      vertex 105 -80.3125 -60.2335
    endloop
  endfacet
  facet normal 1 -0 0
    outer loop
      vertex 105 -90.75 -32.6114
      vertex 105 -80.3125 -60.2335
      vertex 105 -84.1683 -30.5321
    endloop
  endfacet
  facet normal 1 0 0
    outer loop
      vertex 105 -74.0164 -88.1017
      vertex 105 -86.5927 -64.232
      vertex 105 -79.8042 -93.9008
    endloop
  endfacet
  facet normal 1 -0 0
    outer loop
      vertex 105 -92.15 0
      vertex 105 -84.1683 -30.5321
      vertex 105 -85.4625 0
    endloop
  endfacet
  facet normal 1 0 0
    outer loop
      vertex 105 -80.3125 -60.2335
      vertex 105 -90.75 -32.6114
      vertex 105 -86.5927 -64.232
    endloop
  endfacet
  facet normal 1 0 0
    outer loop
      vertex 105 -84.1683 -30.5321
      vertex 105 -92.15 0
      vertex 105 -90.75 -32.6114
    endloop
  endfacet
  facet normal -1 0 0
    outer loop
      vertex 100 80.3125 -60.2335
      vertex 100 89.8145 -32.4653
      vertex 100 85.7 -63.9441
    endloop
  endfacet
  facet normal -1 0 0
    outer loop
      vertex 100 89.8145 -32.4653
      vertex 100 84.1683 -30.5321
      vertex 100 91.2 0
    endloop
  endfacet
  facet normal -1 -0 0
    outer loop
      vertex 100 91.2 0
      vertex 100 84.1683 -30.5321
      vertex 100 85.4625 0
    endloop
  endfacet
  facet normal -1 -0 0
    outer loop
      vertex 100 89.8145 -32.4653
      vertex 100 80.3125 -60.2335
      vertex 100 84.1683 -30.5321
    endloop
  endfacet
  facet normal -1 0 0
    outer loop
      vertex 100 74.0164 -88.1017
      vertex 100 85.7 -63.9441
      vertex 100 78.9815 -93.48
    endloop
  endfacet
  facet normal -1 -0 0
    outer loop
      vertex 100 85.7 -63.9441
      vertex 100 74.0164 -88.1017
      vertex 100 80.3125 -60.2335
    endloop
  endfacet
  facet normal -1 0 0
    outer loop
      vertex 100 65.4713 -113.29
      vertex 100 78.9815 -93.48
      vertex 100 69.8633 -120.176
    endloop
  endfacet
  facet normal -1 -0 0
    outer loop
      vertex 100 78.9815 -93.48
      vertex 100 65.4713 -113.29
      vertex 100 74.0164 -88.1017
    endloop
  endfacet
  facet normal -1 0 0
    outer loop
      vertex 100 54.937 -135.033
      vertex 100 69.8633 -120.176
      vertex 100 58.6222 -143.22
    endloop
  endfacet
  facet normal -1 -0 0
    outer loop
      vertex 100 69.8633 -120.176
      vertex 100 54.937 -135.033
      vertex 100 65.4713 -113.29
    endloop
  endfacet
  facet normal -1 0 0
    outer loop
      vertex 100 42.7334 -152.67
      vertex 100 58.6222 -143.22
      vertex 100 45.6 -161.912
    endloop
  endfacet
  facet normal -1 -0 0
    outer loop
      vertex 100 58.6222 -143.22
      vertex 100 42.7334 -152.67
      vertex 100 54.937 -135.033
    endloop
  endfacet
  facet normal -1 0 0
    outer loop
      vertex 100 29.2313 -165.665
      vertex 100 45.6 -161.912
      vertex 100 31.1922 -175.685
    endloop
  endfacet
  facet normal -1 -0 0
    outer loop
      vertex 100 45.6 -161.912
      vertex 100 29.2313 -165.665
      vertex 100 42.7334 -152.67
    endloop
  endfacet
  facet normal -1 0 0
    outer loop
      vertex 100 14.8411 -173.623
      vertex 100 31.1922 -175.685
      vertex 100 15.8367 -184.12
    endloop
  endfacet
  facet normal -1 0 0
    outer loop
      vertex 100 31.1922 -175.685
      vertex 100 14.8411 -173.623
      vertex 100 29.2313 -165.665
    endloop
  endfacet
  facet normal -1 0 0
    outer loop
      vertex 100 0 -176.303
      vertex 100 15.8367 -184.12
      vertex 100 0 -186.96
    endloop
  endfacet
  facet normal -1 0 0
    outer loop
      vertex 100 15.8367 -184.12
      vertex 100 0 -176.303
      vertex 100 14.8411 -173.623
    endloop
  endfacet
  facet normal -1 0 0
    outer loop
      vertex 100 -15.8367 -184.12
      vertex 100 0 -176.303
      vertex 100 0 -186.96
    endloop
  endfacet
  facet normal -1 -0 0
    outer loop
      vertex 100 0 -176.303
      vertex 100 -15.8367 -184.12
      vertex 100 -14.8411 -173.623
    endloop
  endfacet
  facet normal -1 0 0
    outer loop
      vertex 100 -31.1922 -175.685
      vertex 100 -14.8411 -173.623
      vertex 100 -15.8367 -184.12
    endloop
  endfacet
  facet normal -1 -0 0
    outer loop
      vertex 100 -14.8411 -173.623
      vertex 100 -31.1922 -175.685
      vertex 100 -29.2313 -165.665
    endloop
  endfacet
  facet normal -1 0 0
    outer loop
      vertex 100 -45.6 -161.912
      vertex 100 -29.2313 -165.665
      vertex 100 -31.1922 -175.685
    endloop
  endfacet
  facet normal -1 0 0
    outer loop
      vertex 100 -29.2313 -165.665
      vertex 100 -45.6 -161.912
      vertex 100 -42.7334 -152.67
    endloop
  endfacet
  facet normal -1 0 0
    outer loop
      vertex 100 -58.6222 -143.22
      vertex 100 -42.7334 -152.67
      vertex 100 -45.6 -161.912
    endloop
  endfacet
  facet normal -1 0 0
    outer loop
      vertex 100 -42.7334 -152.67
      vertex 100 -58.6222 -143.22
      vertex 100 -54.937 -135.033
    endloop
  endfacet
  facet normal -1 0 0
    outer loop
      vertex 100 -69.8633 -120.176
      vertex 100 -54.937 -135.033
      vertex 100 -58.6222 -143.22
    endloop
  endfacet
  facet normal -1 0 0
    outer loop
      vertex 100 -54.937 -135.033
      vertex 100 -69.8633 -120.176
      vertex 100 -65.4713 -113.29
    endloop
  endfacet
  facet normal -1 0 0
    outer loop
      vertex 100 -78.9815 -93.48
      vertex 100 -65.4713 -113.29
      vertex 100 -69.8633 -120.176
    endloop
  endfacet
  facet normal -1 0 0
    outer loop
      vertex 100 -65.4713 -113.29
      vertex 100 -78.9815 -93.48
      vertex 100 -74.0164 -88.1017
    endloop
  endfacet
  facet normal -1 0 0
    outer loop
      vertex 100 -85.7 -63.9441
      vertex 100 -74.0164 -88.1017
      vertex 100 -78.9815 -93.48
    endloop
  endfacet
  facet normal -1 0 0
    outer loop
      vertex 100 -74.0164 -88.1017
      vertex 100 -85.7 -63.9441
      vertex 100 -80.3125 -60.2335
    endloop
  endfacet
  facet normal -1 0 0
    outer loop
      vertex 100 -89.8145 -32.4653
      vertex 100 -80.3125 -60.2335
      vertex 100 -85.7 -63.9441
    endloop
  endfacet
  facet normal -1 0 0
    outer loop
      vertex 100 -80.3125 -60.2335
      vertex 100 -89.8145 -32.4653
      vertex 100 -84.1683 -30.5321
    endloop
  endfacet
  facet normal -1 0 0
    outer loop
      vertex 100 -91.2 0
      vertex 100 -84.1683 -30.5321
      vertex 100 -89.8145 -32.4653
    endloop
  endfacet
  facet normal -1 0 0
    outer loop
      vertex 100 -84.1683 -30.5321
      vertex 100 -91.2 0
      vertex 100 -85.4625 0
    endloop
  endfacet
endsolid OpenSCAD_Model
