solid OpenSCAD_Model
  facet normal 0 -0.088531 -0.996073
    outer loop
      vertex 450 -2.5 -96.2978
      vertex 462 0 -96.52
      vertex 462 -2.5 -96.2978
    endloop
  endfacet
  facet normal -0 -0.088531 -0.996073
    outer loop
      vertex 462 0 -96.52
      vertex 450 -2.5 -96.2978
      vertex 450 0 -96.52
    endloop
  endfacet
  facet normal 0 0.088531 -0.996073
    outer loop
      vertex 450 0 -96.52
      vertex 462 2.5 -96.2978
      vertex 462 0 -96.52
    endloop
  endfacet
  facet normal 0 0.088531 -0.996073
    outer loop
      vertex 462 2.5 -96.2978
      vertex 450 0 -96.52
      vertex 450 2.5 -96.2978
    endloop
  endfacet
  facet normal 1 0 0
    outer loop
      vertex 462 0 -96.33
      vertex 462 2.5 -96.2978
      vertex 462 2.5 -96.1082
    endloop
  endfacet
  facet normal 1 -0 0
    outer loop
      vertex 462 0 -96.33
      vertex 462 0 -96.52
      vertex 462 2.5 -96.2978
    endloop
  endfacet
  facet normal 1 -0 0
    outer loop
      vertex 462 -2.5 -96.2978
      vertex 462 0 -96.33
      vertex 462 -2.5 -96.1082
    endloop
  endfacet
  facet normal 1 0 0
    outer loop
      vertex 462 0 -96.33
      vertex 462 -2.5 -96.2978
      vertex 462 0 -96.52
    endloop
  endfacet
  facet normal 0 -0.0883729 -0.996087
    outer loop
      vertex 462 -2.5 -96.1082
      vertex 474 0 -96.33
      vertex 474 -2.5 -96.1082
    endloop
  endfacet
  facet normal -0 -0.0883729 -0.996087
    outer loop
      vertex 474 0 -96.33
      vertex 462 -2.5 -96.1082
      vertex 462 0 -96.33
    endloop
  endfacet
  facet normal 0 0.0883729 -0.996087
    outer loop
      vertex 462 0 -96.33
      vertex 474 2.5 -96.1082
      vertex 474 0 -96.33
    endloop
  endfacet
  facet normal 0 0.0883729 -0.996087
    outer loop
      vertex 474 2.5 -96.1082
      vertex 462 0 -96.33
      vertex 462 2.5 -96.1082
    endloop
  endfacet
  facet normal 1 0 0
    outer loop
      vertex 474 0 -96.14
      vertex 474 2.5 -96.1082
      vertex 474 2.5 -95.9187
    endloop
  endfacet
  facet normal 1 -0 0
    outer loop
      vertex 474 0 -96.14
      vertex 474 0 -96.33
      vertex 474 2.5 -96.1082
    endloop
  endfacet
  facet normal 1 -0 0
    outer loop
      vertex 474 -2.5 -96.1082
      vertex 474 0 -96.14
      vertex 474 -2.5 -95.9187
    endloop
  endfacet
  facet normal 1 0 0
    outer loop
      vertex 474 0 -96.14
      vertex 474 -2.5 -96.1082
      vertex 474 0 -96.33
    endloop
  endfacet
  facet normal 0 0.0881752 -0.996105
    outer loop
      vertex 474 0 -96.14
      vertex 486 2.5 -95.9187
      vertex 486 0 -96.14
    endloop
  endfacet
  facet normal 0 0.0881752 -0.996105
    outer loop
      vertex 486 2.5 -95.9187
      vertex 474 0 -96.14
      vertex 474 2.5 -95.9187
    endloop
  endfacet
  facet normal 0 -0.0881752 -0.996105
    outer loop
      vertex 474 -2.5 -95.9187
      vertex 486 0 -96.14
      vertex 486 -2.5 -95.9187
    endloop
  endfacet
  facet normal -0 -0.0881752 -0.996105
    outer loop
      vertex 486 0 -96.14
      vertex 474 -2.5 -95.9187
      vertex 474 0 -96.14
    endloop
  endfacet
  facet normal 1 0 0
    outer loop
      vertex 486 0 -95.95
      vertex 486 2.5 -95.9187
      vertex 486 2.5 -95.7291
    endloop
  endfacet
  facet normal 1 -0 0
    outer loop
      vertex 486 0 -95.95
      vertex 486 0 -96.14
      vertex 486 2.5 -95.9187
    endloop
  endfacet
  facet normal 1 -0 0
    outer loop
      vertex 486 -2.5 -95.9187
      vertex 486 0 -95.95
      vertex 486 -2.5 -95.7291
    endloop
  endfacet
  facet normal 1 0 0
    outer loop
      vertex 486 0 -95.95
      vertex 486 -2.5 -95.9187
      vertex 486 0 -96.14
    endloop
  endfacet
  facet normal 0 0.0880171 -0.996119
    outer loop
      vertex 486 0 -95.95
      vertex 504 2.5 -95.7291
      vertex 504 0 -95.95
    endloop
  endfacet
  facet normal 0 0.0880171 -0.996119
    outer loop
      vertex 504 2.5 -95.7291
      vertex 486 0 -95.95
      vertex 486 2.5 -95.7291
    endloop
  endfacet
  facet normal 0 -0.0880171 -0.996119
    outer loop
      vertex 486 -2.5 -95.7291
      vertex 504 0 -95.95
      vertex 504 -2.5 -95.7291
    endloop
  endfacet
  facet normal -0 -0.0880171 -0.996119
    outer loop
      vertex 504 0 -95.95
      vertex 486 -2.5 -95.7291
      vertex 486 0 -95.95
    endloop
  endfacet
  facet normal 1 0 0
    outer loop
      vertex 504 0 -95.76
      vertex 504 2.5 -95.7291
      vertex 504 2.5 -95.5395
    endloop
  endfacet
  facet normal 1 -0 0
    outer loop
      vertex 504 0 -95.76
      vertex 504 0 -95.95
      vertex 504 2.5 -95.7291
    endloop
  endfacet
  facet normal 1 -0 0
    outer loop
      vertex 504 -2.5 -95.7291
      vertex 504 0 -95.76
      vertex 504 -2.5 -95.5395
    endloop
  endfacet
  facet normal 1 0 0
    outer loop
      vertex 504 0 -95.76
      vertex 504 -2.5 -95.7291
      vertex 504 0 -95.95
    endloop
  endfacet
  facet normal 0 -0.0878589 -0.996133
    outer loop
      vertex 504 -2.5 -95.5395
      vertex 516 0 -95.76
      vertex 516 -2.5 -95.5395
    endloop
  endfacet
  facet normal -0 -0.0878589 -0.996133
    outer loop
      vertex 516 0 -95.76
      vertex 504 -2.5 -95.5395
      vertex 504 0 -95.76
    endloop
  endfacet
  facet normal 0 0.0878589 -0.996133
    outer loop
      vertex 504 0 -95.76
      vertex 516 2.5 -95.5395
      vertex 516 0 -95.76
    endloop
  endfacet
  facet normal 0 0.0878589 -0.996133
    outer loop
      vertex 516 2.5 -95.5395
      vertex 504 0 -95.76
      vertex 504 2.5 -95.5395
    endloop
  endfacet
  facet normal 1 0 0
    outer loop
      vertex 516 0 -95.57
      vertex 516 2.5 -95.5395
      vertex 516 2.5 -95.35
    endloop
  endfacet
  facet normal 1 -0 0
    outer loop
      vertex 516 0 -95.57
      vertex 516 0 -95.76
      vertex 516 2.5 -95.5395
    endloop
  endfacet
  facet normal 1 -0 0
    outer loop
      vertex 516 -2.5 -95.5395
      vertex 516 0 -95.57
      vertex 516 -2.5 -95.35
    endloop
  endfacet
  facet normal 1 0 0
    outer loop
      vertex 516 0 -95.57
      vertex 516 -2.5 -95.5395
      vertex 516 0 -95.76
    endloop
  endfacet
  facet normal 0 0.0876612 -0.99615
    outer loop
      vertex 516 0 -95.57
      vertex 534 2.5 -95.35
      vertex 534 0 -95.57
    endloop
  endfacet
  facet normal 0 0.0876612 -0.99615
    outer loop
      vertex 534 2.5 -95.35
      vertex 516 0 -95.57
      vertex 516 2.5 -95.35
    endloop
  endfacet
  facet normal 0 -0.0876612 -0.99615
    outer loop
      vertex 516 -2.5 -95.35
      vertex 534 0 -95.57
      vertex 534 -2.5 -95.35
    endloop
  endfacet
  facet normal -0 -0.0876612 -0.99615
    outer loop
      vertex 534 0 -95.57
      vertex 516 -2.5 -95.35
      vertex 516 0 -95.57
    endloop
  endfacet
  facet normal 1 0 0
    outer loop
      vertex 534 0 -95.38
      vertex 534 2.5 -95.35
      vertex 534 2.5 -95.1604
    endloop
  endfacet
  facet normal 1 -0 0
    outer loop
      vertex 534 0 -95.38
      vertex 534 0 -95.57
      vertex 534 2.5 -95.35
    endloop
  endfacet
  facet normal 1 -0 0
    outer loop
      vertex 534 -2.5 -95.35
      vertex 534 0 -95.38
      vertex 534 -2.5 -95.1604
    endloop
  endfacet
  facet normal 1 0 0
    outer loop
      vertex 534 0 -95.38
      vertex 534 -2.5 -95.35
      vertex 534 0 -95.57
    endloop
  endfacet
  facet normal 0 0.0875031 -0.996164
    outer loop
      vertex 534 0 -95.38
      vertex 546 2.5 -95.1604
      vertex 546 0 -95.38
    endloop
  endfacet
  facet normal 0 0.0875031 -0.996164
    outer loop
      vertex 546 2.5 -95.1604
      vertex 534 0 -95.38
      vertex 534 2.5 -95.1604
    endloop
  endfacet
  facet normal 0 -0.0875031 -0.996164
    outer loop
      vertex 534 -2.5 -95.1604
      vertex 546 0 -95.38
      vertex 546 -2.5 -95.1604
    endloop
  endfacet
  facet normal -0 -0.0875031 -0.996164
    outer loop
      vertex 546 0 -95.38
      vertex 534 -2.5 -95.1604
      vertex 534 0 -95.38
    endloop
  endfacet
  facet normal 1 0 0
    outer loop
      vertex 546 0 -95.19
      vertex 546 2.5 -95.1604
      vertex 546 2.5 -94.9708
    endloop
  endfacet
  facet normal 1 -0 0
    outer loop
      vertex 546 0 -95.19
      vertex 546 0 -95.38
      vertex 546 2.5 -95.1604
    endloop
  endfacet
  facet normal 1 -0 0
    outer loop
      vertex 546 -2.5 -95.1604
      vertex 546 0 -95.19
      vertex 546 -2.5 -94.9708
    endloop
  endfacet
  facet normal 1 0 0
    outer loop
      vertex 546 0 -95.19
      vertex 546 -2.5 -95.1604
      vertex 546 0 -95.38
    endloop
  endfacet
  facet normal 0 0.0873449 -0.996178
    outer loop
      vertex 546 0 -95.19
      vertex 558 2.5 -94.9708
      vertex 558 0 -95.19
    endloop
  endfacet
  facet normal 0 0.0873449 -0.996178
    outer loop
      vertex 558 2.5 -94.9708
      vertex 546 0 -95.19
      vertex 546 2.5 -94.9708
    endloop
  endfacet
  facet normal 0 -0.0873449 -0.996178
    outer loop
      vertex 546 -2.5 -94.9708
      vertex 558 0 -95.19
      vertex 558 -2.5 -94.9708
    endloop
  endfacet
  facet normal -0 -0.0873449 -0.996178
    outer loop
      vertex 558 0 -95.19
      vertex 546 -2.5 -94.9708
      vertex 546 0 -95.19
    endloop
  endfacet
  facet normal 1 0 0
    outer loop
      vertex 558 0 -95
      vertex 558 2.5 -94.9708
      vertex 558 2.5 -94.7813
    endloop
  endfacet
  facet normal 1 -0 0
    outer loop
      vertex 558 0 -95
      vertex 558 0 -95.19
      vertex 558 2.5 -94.9708
    endloop
  endfacet
  facet normal 1 -0 0
    outer loop
      vertex 558 -2.5 -94.9708
      vertex 558 0 -95
      vertex 558 -2.5 -94.7813
    endloop
  endfacet
  facet normal 1 0 0
    outer loop
      vertex 558 0 -95
      vertex 558 -2.5 -94.9708
      vertex 558 0 -95.19
    endloop
  endfacet
  facet normal 0 -0.0871472 -0.996195
    outer loop
      vertex 558 -2.5 -94.7813
      vertex 570 0 -95
      vertex 570 -2.5 -94.7813
    endloop
  endfacet
  facet normal -0 -0.0871472 -0.996195
    outer loop
      vertex 570 0 -95
      vertex 558 -2.5 -94.7813
      vertex 558 0 -95
    endloop
  endfacet
  facet normal 0 0.0871472 -0.996195
    outer loop
      vertex 558 0 -95
      vertex 570 2.5 -94.7813
      vertex 570 0 -95
    endloop
  endfacet
  facet normal 0 0.0871472 -0.996195
    outer loop
      vertex 570 2.5 -94.7813
      vertex 558 0 -95
      vertex 558 2.5 -94.7813
    endloop
  endfacet
  facet normal 1 0 0
    outer loop
      vertex 570 0 -94.9145
      vertex 570 2.5 -94.7813
      vertex 570 2.5 -94.6892
    endloop
  endfacet
  facet normal 1 -0 0
    outer loop
      vertex 570 0 -94.9145
      vertex 570 0 -95
      vertex 570 2.5 -94.7813
    endloop
  endfacet
  facet normal 1 -0 0
    outer loop
      vertex 570 -2.5 -94.7813
      vertex 570 0 -94.9145
      vertex 570 -2.5 -94.6892
    endloop
  endfacet
  facet normal 1 0 0
    outer loop
      vertex 570 0 -94.9145
      vertex 570 -2.5 -94.7813
      vertex 570 0 -95
    endloop
  endfacet
  facet normal 0 0.0897563 -0.995964
    outer loop
      vertex 570 0 -94.9145
      vertex 576 2.5 -94.6892
      vertex 576 0 -94.9145
    endloop
  endfacet
  facet normal 0 0.0897563 -0.995964
    outer loop
      vertex 576 2.5 -94.6892
      vertex 570 0 -94.9145
      vertex 570 2.5 -94.6892
    endloop
  endfacet
  facet normal 0 -0.0897563 -0.995964
    outer loop
      vertex 570 -2.5 -94.6892
      vertex 576 0 -94.9145
      vertex 576 -2.5 -94.6892
    endloop
  endfacet
  facet normal -0 -0.0897563 -0.995964
    outer loop
      vertex 576 0 -94.9145
      vertex 570 -2.5 -94.6892
      vertex 570 0 -94.9145
    endloop
  endfacet
  facet normal -1 0 0
    outer loop
      vertex 576 0 -94.9145
      vertex 576 2.5 -94.7129
      vertex 576 0 -94.943
    endloop
  endfacet
  facet normal -1 -0 0
    outer loop
      vertex 576 2.5 -94.7129
      vertex 576 0 -94.9145
      vertex 576 2.5 -94.6892
    endloop
  endfacet
  facet normal -1 0 0
    outer loop
      vertex 576 -2.5 -94.7129
      vertex 576 0 -94.9145
      vertex 576 0 -94.943
    endloop
  endfacet
  facet normal -1 0 0
    outer loop
      vertex 576 0 -94.9145
      vertex 576 -2.5 -94.7129
      vertex 576 -2.5 -94.6892
    endloop
  endfacet
  facet normal 0 -0.0916526 -0.995791
    outer loop
      vertex 576 -2.5 -94.7129
      vertex 582 0 -94.943
      vertex 582 -2.5 -94.7129
    endloop
  endfacet
  facet normal -0 -0.0916526 -0.995791
    outer loop
      vertex 582 0 -94.943
      vertex 576 -2.5 -94.7129
      vertex 576 0 -94.943
    endloop
  endfacet
  facet normal 0 0.0916526 -0.995791
    outer loop
      vertex 576 0 -94.943
      vertex 582 2.5 -94.7129
      vertex 582 0 -94.943
    endloop
  endfacet
  facet normal 0 0.0916526 -0.995791
    outer loop
      vertex 582 2.5 -94.7129
      vertex 576 0 -94.943
      vertex 576 2.5 -94.7129
    endloop
  endfacet
  facet normal -1 0 0
    outer loop
      vertex 582 0 -94.943
      vertex 582 2.5 -94.8328
      vertex 582 0 -95.076
    endloop
  endfacet
  facet normal -1 -0 0
    outer loop
      vertex 582 2.5 -94.8328
      vertex 582 0 -94.943
      vertex 582 2.5 -94.7129
    endloop
  endfacet
  facet normal -1 0 0
    outer loop
      vertex 582 -2.5 -94.8328
      vertex 582 0 -94.943
      vertex 582 0 -95.076
    endloop
  endfacet
  facet normal -1 0 0
    outer loop
      vertex 582 0 -94.943
      vertex 582 -2.5 -94.8328
      vertex 582 -2.5 -94.7129
    endloop
  endfacet
  facet normal 0 0.0968229 -0.995302
    outer loop
      vertex 582 0 -95.076
      vertex 588 2.5 -94.8328
      vertex 588 0 -95.076
    endloop
  endfacet
  facet normal 0 0.0968229 -0.995302
    outer loop
      vertex 588 2.5 -94.8328
      vertex 582 0 -95.076
      vertex 582 2.5 -94.8328
    endloop
  endfacet
  facet normal 1 0 0
    outer loop
      vertex 588 0 -94.962
      vertex 588 2.5 -94.8328
      vertex 588 2.5 -94.7048
    endloop
  endfacet
  facet normal 1 -0 0
    outer loop
      vertex 588 0 -94.962
      vertex 588 0 -95.076
      vertex 588 2.5 -94.8328
    endloop
  endfacet
  facet normal 1 -0 0
    outer loop
      vertex 588 -2.5 -94.8328
      vertex 588 0 -94.962
      vertex 588 -2.5 -94.7048
    endloop
  endfacet
  facet normal 1 0 0
    outer loop
      vertex 588 0 -94.962
      vertex 588 -2.5 -94.8328
      vertex 588 0 -95.076
    endloop
  endfacet
  facet normal 0 -0.0968229 -0.995302
    outer loop
      vertex 582 -2.5 -94.8328
      vertex 588 0 -95.076
      vertex 588 -2.5 -94.8328
    endloop
  endfacet
  facet normal -0 -0.0968229 -0.995302
    outer loop
      vertex 588 0 -95.076
      vertex 582 -2.5 -94.8328
      vertex 582 0 -95.076
    endloop
  endfacet
  facet normal 0 0.10234 -0.994749
    outer loop
      vertex 588 0 -94.962
      vertex 594 2.5 -94.7048
      vertex 594 0 -94.962
    endloop
  endfacet
  facet normal 0 0.10234 -0.994749
    outer loop
      vertex 594 2.5 -94.7048
      vertex 588 0 -94.962
      vertex 588 2.5 -94.7048
    endloop
  endfacet
  facet normal 0 -0.10234 -0.994749
    outer loop
      vertex 588 -2.5 -94.7048
      vertex 594 0 -94.962
      vertex 594 -2.5 -94.7048
    endloop
  endfacet
  facet normal -0 -0.10234 -0.994749
    outer loop
      vertex 594 0 -94.962
      vertex 588 -2.5 -94.7048
      vertex 588 0 -94.962
    endloop
  endfacet
  facet normal -1 0 0
    outer loop
      vertex 594 0 -94.962
      vertex 594 2.5 -94.7712
      vertex 594 0 -95.038
    endloop
  endfacet
  facet normal -1 -0 0
    outer loop
      vertex 594 2.5 -94.7712
      vertex 594 0 -94.962
      vertex 594 2.5 -94.7048
    endloop
  endfacet
  facet normal -1 0 0
    outer loop
      vertex 594 -2.5 -94.7712
      vertex 594 0 -94.962
      vertex 594 0 -95.038
    endloop
  endfacet
  facet normal -1 0 0
    outer loop
      vertex 594 0 -94.962
      vertex 594 -2.5 -94.7712
      vertex 594 -2.5 -94.7048
    endloop
  endfacet
  facet normal 0 0.106117 -0.994354
    outer loop
      vertex 594 0 -95.038
      vertex 600 2.5 -94.7712
      vertex 600 0 -95.038
    endloop
  endfacet
  facet normal 0 0.106117 -0.994354
    outer loop
      vertex 600 2.5 -94.7712
      vertex 594 0 -95.038
      vertex 594 2.5 -94.7712
    endloop
  endfacet
  facet normal 1 0 0
    outer loop
      vertex 600 -2.5 -94.7712
      vertex 600 2.5 -94.7712
      vertex 600 2.5 0
    endloop
  endfacet
  facet normal 1 0 0
    outer loop
      vertex 600 -2.5 -94.7712
      vertex 600 2.5 0
      vertex 600 -2.5 0
    endloop
  endfacet
  facet normal 1 0 0
    outer loop
      vertex 600 2.5 -94.7712
      vertex 600 -2.5 -94.7712
      vertex 600 0 -95.038
    endloop
  endfacet
  facet normal 0 -0.106117 -0.994354
    outer loop
      vertex 594 -2.5 -94.7712
      vertex 600 0 -95.038
      vertex 600 -2.5 -94.7712
    endloop
  endfacet
  facet normal -0 -0.106117 -0.994354
    outer loop
      vertex 600 0 -95.038
      vertex 594 -2.5 -94.7712
      vertex 594 0 -95.038
    endloop
  endfacet
  facet normal -0 0 1
    outer loop
      vertex 592.7 2.5 0
      vertex 600 -2.5 0
      vertex 600 2.5 0
    endloop
  endfacet
  facet normal 0 0 1
    outer loop
      vertex 600 -2.5 0
      vertex 592.7 2.5 0
      vertex 592.7 -2.5 0
    endloop
  endfacet
  facet normal -0 0.088531 0.996073
    outer loop
      vertex 450 0 -91.3044
      vertex 459.254 -2.5 -91.0822
      vertex 459.254 0 -91.3044
    endloop
  endfacet
  facet normal 0 0.088531 0.996073
    outer loop
      vertex 459.254 -2.5 -91.0822
      vertex 450 0 -91.3044
      vertex 450 -2.5 -91.0822
    endloop
  endfacet
  facet normal 0 -0.088531 0.996073
    outer loop
      vertex 450 2.5 -91.0822
      vertex 459.254 0 -91.3044
      vertex 459.254 2.5 -91.0822
    endloop
  endfacet
  facet normal 0 -0.088531 0.996073
    outer loop
      vertex 459.254 0 -91.3044
      vertex 450 2.5 -91.0822
      vertex 450 0 -91.3044
    endloop
  endfacet
  facet normal -1 0 0
    outer loop
      vertex 459.254 0 -91.1245
      vertex 459.254 2.5 -91.0822
      vertex 459.254 0 -91.3044
    endloop
  endfacet
  facet normal -1 -0 0
    outer loop
      vertex 459.254 2.5 -91.0822
      vertex 459.254 0 -91.1245
      vertex 459.254 2.5 -90.9027
    endloop
  endfacet
  facet normal -1 0 0
    outer loop
      vertex 459.254 -2.5 -91.0822
      vertex 459.254 0 -91.1245
      vertex 459.254 0 -91.3044
    endloop
  endfacet
  facet normal -1 0 0
    outer loop
      vertex 459.254 0 -91.1245
      vertex 459.254 -2.5 -91.0822
      vertex 459.254 -2.5 -90.9027
    endloop
  endfacet
  facet normal -0 0.0883729 0.996087
    outer loop
      vertex 459.254 0 -91.1245
      vertex 470.858 -2.5 -90.9027
      vertex 470.858 0 -91.1245
    endloop
  endfacet
  facet normal 0 0.0883729 0.996087
    outer loop
      vertex 470.858 -2.5 -90.9027
      vertex 459.254 0 -91.1245
      vertex 459.254 -2.5 -90.9027
    endloop
  endfacet
  facet normal 0 -0.0883729 0.996087
    outer loop
      vertex 459.254 2.5 -90.9027
      vertex 470.858 0 -91.1245
      vertex 470.858 2.5 -90.9027
    endloop
  endfacet
  facet normal 0 -0.0883729 0.996087
    outer loop
      vertex 470.858 0 -91.1245
      vertex 459.254 2.5 -90.9027
      vertex 459.254 0 -91.1245
    endloop
  endfacet
  facet normal -1 0 0
    outer loop
      vertex 470.858 0 -90.9446
      vertex 470.858 2.5 -90.9027
      vertex 470.858 0 -91.1245
    endloop
  endfacet
  facet normal -1 -0 0
    outer loop
      vertex 470.858 2.5 -90.9027
      vertex 470.858 0 -90.9446
      vertex 470.858 2.5 -90.7232
    endloop
  endfacet
  facet normal -1 0 0
    outer loop
      vertex 470.858 -2.5 -90.9027
      vertex 470.858 0 -90.9446
      vertex 470.858 0 -91.1245
    endloop
  endfacet
  facet normal -1 0 0
    outer loop
      vertex 470.858 0 -90.9446
      vertex 470.858 -2.5 -90.9027
      vertex 470.858 -2.5 -90.7232
    endloop
  endfacet
  facet normal 0 -0.0882147 0.996101
    outer loop
      vertex 470.858 2.5 -90.7232
      vertex 482.462 0 -90.9446
      vertex 482.462 2.5 -90.7232
    endloop
  endfacet
  facet normal 0 -0.0882147 0.996101
    outer loop
      vertex 482.462 0 -90.9446
      vertex 470.858 2.5 -90.7232
      vertex 470.858 0 -90.9446
    endloop
  endfacet
  facet normal -0 0.0882147 0.996101
    outer loop
      vertex 470.858 0 -90.9446
      vertex 482.462 -2.5 -90.7232
      vertex 482.462 0 -90.9446
    endloop
  endfacet
  facet normal 0 0.0882147 0.996101
    outer loop
      vertex 482.462 -2.5 -90.7232
      vertex 470.858 0 -90.9446
      vertex 470.858 -2.5 -90.7232
    endloop
  endfacet
  facet normal -1 0 0
    outer loop
      vertex 482.462 0 -90.7646
      vertex 482.462 2.5 -90.7232
      vertex 482.462 0 -90.9446
    endloop
  endfacet
  facet normal -1 -0 0
    outer loop
      vertex 482.462 2.5 -90.7232
      vertex 482.462 0 -90.7646
      vertex 482.462 2.5 -90.5437
    endloop
  endfacet
  facet normal -1 0 0
    outer loop
      vertex 482.462 -2.5 -90.7232
      vertex 482.462 0 -90.7646
      vertex 482.462 0 -90.9446
    endloop
  endfacet
  facet normal -1 0 0
    outer loop
      vertex 482.462 0 -90.7646
      vertex 482.462 -2.5 -90.7232
      vertex 482.462 -2.5 -90.5437
    endloop
  endfacet
  facet normal 0 -0.0880171 0.996119
    outer loop
      vertex 482.462 2.5 -90.5437
      vertex 499.868 0 -90.7646
      vertex 499.868 2.5 -90.5437
    endloop
  endfacet
  facet normal 0 -0.0880171 0.996119
    outer loop
      vertex 499.868 0 -90.7646
      vertex 482.462 2.5 -90.5437
      vertex 482.462 0 -90.7646
    endloop
  endfacet
  facet normal -0 0.0880171 0.996119
    outer loop
      vertex 482.462 0 -90.7646
      vertex 499.868 -2.5 -90.5437
      vertex 499.868 0 -90.7646
    endloop
  endfacet
  facet normal 0 0.0880171 0.996119
    outer loop
      vertex 499.868 -2.5 -90.5437
      vertex 482.462 0 -90.7646
      vertex 482.462 -2.5 -90.5437
    endloop
  endfacet
  facet normal -1 0 0
    outer loop
      vertex 499.868 0 -90.5847
      vertex 499.868 2.5 -90.5437
      vertex 499.868 0 -90.7646
    endloop
  endfacet
  facet normal -1 -0 0
    outer loop
      vertex 499.868 2.5 -90.5437
      vertex 499.868 0 -90.5847
      vertex 499.868 2.5 -90.3643
    endloop
  endfacet
  facet normal -1 0 0
    outer loop
      vertex 499.868 -2.5 -90.5437
      vertex 499.868 0 -90.5847
      vertex 499.868 0 -90.7646
    endloop
  endfacet
  facet normal -1 0 0
    outer loop
      vertex 499.868 0 -90.5847
      vertex 499.868 -2.5 -90.5437
      vertex 499.868 -2.5 -90.3643
    endloop
  endfacet
  facet normal -0 0.0878194 0.996136
    outer loop
      vertex 499.868 0 -90.5847
      vertex 511.472 -2.5 -90.3643
      vertex 511.472 0 -90.5847
    endloop
  endfacet
  facet normal 0 0.0878194 0.996136
    outer loop
      vertex 511.472 -2.5 -90.3643
      vertex 499.868 0 -90.5847
      vertex 499.868 -2.5 -90.3643
    endloop
  endfacet
  facet normal 0 -0.0878194 0.996136
    outer loop
      vertex 499.868 2.5 -90.3643
      vertex 511.472 0 -90.5847
      vertex 511.472 2.5 -90.3643
    endloop
  endfacet
  facet normal 0 -0.0878194 0.996136
    outer loop
      vertex 511.472 0 -90.5847
      vertex 499.868 2.5 -90.3643
      vertex 499.868 0 -90.5847
    endloop
  endfacet
  facet normal -1 0 0
    outer loop
      vertex 511.472 0 -90.4048
      vertex 511.472 2.5 -90.3643
      vertex 511.472 0 -90.5847
    endloop
  endfacet
  facet normal -1 -0 0
    outer loop
      vertex 511.472 2.5 -90.3643
      vertex 511.472 0 -90.4048
      vertex 511.472 2.5 -90.1848
    endloop
  endfacet
  facet normal -1 0 0
    outer loop
      vertex 511.472 -2.5 -90.3643
      vertex 511.472 0 -90.4048
      vertex 511.472 0 -90.5847
    endloop
  endfacet
  facet normal -1 0 0
    outer loop
      vertex 511.472 0 -90.4048
      vertex 511.472 -2.5 -90.3643
      vertex 511.472 -2.5 -90.1848
    endloop
  endfacet
  facet normal 0 -0.0876612 0.99615
    outer loop
      vertex 511.472 2.5 -90.1848
      vertex 528.878 0 -90.4048
      vertex 528.878 2.5 -90.1848
    endloop
  endfacet
  facet normal 0 -0.0876612 0.99615
    outer loop
      vertex 528.878 0 -90.4048
      vertex 511.472 2.5 -90.1848
      vertex 511.472 0 -90.4048
    endloop
  endfacet
  facet normal -0 0.0876612 0.99615
    outer loop
      vertex 511.472 0 -90.4048
      vertex 528.878 -2.5 -90.1848
      vertex 528.878 0 -90.4048
    endloop
  endfacet
  facet normal 0 0.0876612 0.99615
    outer loop
      vertex 528.878 -2.5 -90.1848
      vertex 511.472 0 -90.4048
      vertex 511.472 -2.5 -90.1848
    endloop
  endfacet
  facet normal -1 0 0
    outer loop
      vertex 528.878 0 -90.2249
      vertex 528.878 2.5 -90.1848
      vertex 528.878 0 -90.4048
    endloop
  endfacet
  facet normal -1 -0 0
    outer loop
      vertex 528.878 2.5 -90.1848
      vertex 528.878 0 -90.2249
      vertex 528.878 2.5 -90.0053
    endloop
  endfacet
  facet normal -1 0 0
    outer loop
      vertex 528.878 -2.5 -90.1848
      vertex 528.878 0 -90.2249
      vertex 528.878 0 -90.4048
    endloop
  endfacet
  facet normal -1 0 0
    outer loop
      vertex 528.878 0 -90.2249
      vertex 528.878 -2.5 -90.1848
      vertex 528.878 -2.5 -90.0053
    endloop
  endfacet
  facet normal 0 -0.0875031 0.996164
    outer loop
      vertex 528.878 2.5 -90.0053
      vertex 540.482 0 -90.2249
      vertex 540.482 2.5 -90.0053
    endloop
  endfacet
  facet normal 0 -0.0875031 0.996164
    outer loop
      vertex 540.482 0 -90.2249
      vertex 528.878 2.5 -90.0053
      vertex 528.878 0 -90.2249
    endloop
  endfacet
  facet normal -0 0.0875031 0.996164
    outer loop
      vertex 528.878 0 -90.2249
      vertex 540.482 -2.5 -90.0053
      vertex 540.482 0 -90.2249
    endloop
  endfacet
  facet normal 0 0.0875031 0.996164
    outer loop
      vertex 540.482 -2.5 -90.0053
      vertex 528.878 0 -90.2249
      vertex 528.878 -2.5 -90.0053
    endloop
  endfacet
  facet normal -1 0 0
    outer loop
      vertex 540.482 0 -90.0449
      vertex 540.482 2.5 -90.0053
      vertex 540.482 0 -90.2249
    endloop
  endfacet
  facet normal -1 -0 0
    outer loop
      vertex 540.482 2.5 -90.0053
      vertex 540.482 0 -90.0449
      vertex 540.482 2.5 -89.8258
    endloop
  endfacet
  facet normal -1 0 0
    outer loop
      vertex 540.482 -2.5 -90.0053
      vertex 540.482 0 -90.0449
      vertex 540.482 0 -90.2249
    endloop
  endfacet
  facet normal -1 0 0
    outer loop
      vertex 540.482 0 -90.0449
      vertex 540.482 -2.5 -90.0053
      vertex 540.482 -2.5 -89.8258
    endloop
  endfacet
  facet normal 0 -0.0873054 0.996182
    outer loop
      vertex 540.482 2.5 -89.8258
      vertex 552.086 0 -90.0449
      vertex 552.086 2.5 -89.8258
    endloop
  endfacet
  facet normal 0 -0.0873054 0.996182
    outer loop
      vertex 552.086 0 -90.0449
      vertex 540.482 2.5 -89.8258
      vertex 540.482 0 -90.0449
    endloop
  endfacet
  facet normal -0 0.0873054 0.996182
    outer loop
      vertex 540.482 0 -90.0449
      vertex 552.086 -2.5 -89.8258
      vertex 552.086 0 -90.0449
    endloop
  endfacet
  facet normal 0 0.0873054 0.996182
    outer loop
      vertex 552.086 -2.5 -89.8258
      vertex 540.482 0 -90.0449
      vertex 540.482 -2.5 -89.8258
    endloop
  endfacet
  facet normal -1 0 0
    outer loop
      vertex 552.086 0 -89.865
      vertex 552.086 2.5 -89.8258
      vertex 552.086 0 -90.0449
    endloop
  endfacet
  facet normal -1 -0 0
    outer loop
      vertex 552.086 2.5 -89.8258
      vertex 552.086 0 -89.865
      vertex 552.086 2.5 -89.6463
    endloop
  endfacet
  facet normal -1 0 0
    outer loop
      vertex 552.086 -2.5 -89.8258
      vertex 552.086 0 -89.865
      vertex 552.086 0 -90.0449
    endloop
  endfacet
  facet normal -1 0 0
    outer loop
      vertex 552.086 0 -89.865
      vertex 552.086 -2.5 -89.8258
      vertex 552.086 -2.5 -89.6463
    endloop
  endfacet
  facet normal -0 0.0871472 0.996195
    outer loop
      vertex 552.086 0 -89.865
      vertex 563.69 -2.5 -89.6463
      vertex 563.69 0 -89.865
    endloop
  endfacet
  facet normal 0 0.0871472 0.996195
    outer loop
      vertex 563.69 -2.5 -89.6463
      vertex 552.086 0 -89.865
      vertex 552.086 -2.5 -89.6463
    endloop
  endfacet
  facet normal 0 -0.0871472 0.996195
    outer loop
      vertex 552.086 2.5 -89.6463
      vertex 563.69 0 -89.865
      vertex 563.69 2.5 -89.6463
    endloop
  endfacet
  facet normal 0 -0.0871472 0.996195
    outer loop
      vertex 563.69 0 -89.865
      vertex 552.086 2.5 -89.6463
      vertex 552.086 0 -89.865
    endloop
  endfacet
  facet normal -1 0 0
    outer loop
      vertex 563.69 0 -89.784
      vertex 563.69 2.5 -89.6463
      vertex 563.69 0 -89.865
    endloop
  endfacet
  facet normal -1 -0 0
    outer loop
      vertex 563.69 2.5 -89.6463
      vertex 563.69 0 -89.784
      vertex 563.69 2.5 -89.5587
    endloop
  endfacet
  facet normal -1 0 0
    outer loop
      vertex 563.69 -2.5 -89.6463
      vertex 563.69 0 -89.784
      vertex 563.69 0 -89.865
    endloop
  endfacet
  facet normal -1 0 0
    outer loop
      vertex 563.69 0 -89.784
      vertex 563.69 -2.5 -89.6463
      vertex 563.69 -2.5 -89.5587
    endloop
  endfacet
  facet normal 0 -0.0897563 0.995964
    outer loop
      vertex 563.69 2.5 -89.5587
      vertex 569.492 0 -89.784
      vertex 569.492 2.5 -89.5587
    endloop
  endfacet
  facet normal 0 -0.0897563 0.995964
    outer loop
      vertex 569.492 0 -89.784
      vertex 563.69 2.5 -89.5587
      vertex 563.69 0 -89.784
    endloop
  endfacet
  facet normal -0 0.0897563 0.995964
    outer loop
      vertex 563.69 0 -89.784
      vertex 569.492 -2.5 -89.5587
      vertex 569.492 0 -89.784
    endloop
  endfacet
  facet normal 0 0.0897563 0.995964
    outer loop
      vertex 569.492 -2.5 -89.5587
      vertex 563.69 0 -89.784
      vertex 563.69 -2.5 -89.5587
    endloop
  endfacet
  facet normal 1 0 0
    outer loop
      vertex 569.492 0 -89.784
      vertex 569.492 2.5 -89.5809
      vertex 569.492 2.5 -89.5587
    endloop
  endfacet
  facet normal 1 -0 0
    outer loop
      vertex 569.492 0 -89.784
      vertex 569.492 0 -89.811
      vertex 569.492 2.5 -89.5809
    endloop
  endfacet
  facet normal 1 -0 0
    outer loop
      vertex 569.492 -2.5 -89.5809
      vertex 569.492 0 -89.784
      vertex 569.492 -2.5 -89.5587
    endloop
  endfacet
  facet normal 1 0 0
    outer loop
      vertex 569.492 0 -89.784
      vertex 569.492 -2.5 -89.5809
      vertex 569.492 0 -89.811
    endloop
  endfacet
  facet normal -0 0.0916526 0.995791
    outer loop
      vertex 569.492 0 -89.811
      vertex 575.294 -2.5 -89.5809
      vertex 575.294 0 -89.811
    endloop
  endfacet
  facet normal 0 0.0916526 0.995791
    outer loop
      vertex 575.294 -2.5 -89.5809
      vertex 569.492 0 -89.811
      vertex 569.492 -2.5 -89.5809
    endloop
  endfacet
  facet normal 0 -0.0916526 0.995791
    outer loop
      vertex 569.492 2.5 -89.5809
      vertex 575.294 0 -89.811
      vertex 575.294 2.5 -89.5809
    endloop
  endfacet
  facet normal 0 -0.0916526 0.995791
    outer loop
      vertex 575.294 0 -89.811
      vertex 569.492 2.5 -89.5809
      vertex 569.492 0 -89.811
    endloop
  endfacet
  facet normal 1 0 0
    outer loop
      vertex 575.294 0 -89.811
      vertex 575.294 2.5 -89.6938
      vertex 575.294 2.5 -89.5809
    endloop
  endfacet
  facet normal 1 -0 0
    outer loop
      vertex 575.294 0 -89.811
      vertex 575.294 0 -89.937
      vertex 575.294 2.5 -89.6938
    endloop
  endfacet
  facet normal 1 -0 0
    outer loop
      vertex 575.294 -2.5 -89.6938
      vertex 575.294 0 -89.811
      vertex 575.294 -2.5 -89.5809
    endloop
  endfacet
  facet normal 1 0 0
    outer loop
      vertex 575.294 0 -89.811
      vertex 575.294 -2.5 -89.6938
      vertex 575.294 0 -89.937
    endloop
  endfacet
  facet normal 0 -0.0968229 0.995302
    outer loop
      vertex 575.294 2.5 -89.6938
      vertex 581.096 0 -89.937
      vertex 581.096 2.5 -89.6938
    endloop
  endfacet
  facet normal 0 -0.0968229 0.995302
    outer loop
      vertex 581.096 0 -89.937
      vertex 575.294 2.5 -89.6938
      vertex 575.294 0 -89.937
    endloop
  endfacet
  facet normal -1 0 0
    outer loop
      vertex 581.096 0 -89.829
      vertex 581.096 2.5 -89.6938
      vertex 581.096 0 -89.937
    endloop
  endfacet
  facet normal -1 -0 0
    outer loop
      vertex 581.096 2.5 -89.6938
      vertex 581.096 0 -89.829
      vertex 581.096 2.5 -89.5718
    endloop
  endfacet
  facet normal -1 0 0
    outer loop
      vertex 581.096 -2.5 -89.6938
      vertex 581.096 0 -89.829
      vertex 581.096 0 -89.937
    endloop
  endfacet
  facet normal -1 0 0
    outer loop
      vertex 581.096 0 -89.829
      vertex 581.096 -2.5 -89.6938
      vertex 581.096 -2.5 -89.5718
    endloop
  endfacet
  facet normal -0 0.0968229 0.995302
    outer loop
      vertex 575.294 0 -89.937
      vertex 581.096 -2.5 -89.6938
      vertex 581.096 0 -89.937
    endloop
  endfacet
  facet normal 0 0.0968229 0.995302
    outer loop
      vertex 581.096 -2.5 -89.6938
      vertex 575.294 0 -89.937
      vertex 575.294 -2.5 -89.6938
    endloop
  endfacet
  facet normal 0 -0.10234 0.994749
    outer loop
      vertex 581.096 2.5 -89.5718
      vertex 586.898 0 -89.829
      vertex 586.898 2.5 -89.5718
    endloop
  endfacet
  facet normal 0 -0.10234 0.994749
    outer loop
      vertex 586.898 0 -89.829
      vertex 581.096 2.5 -89.5718
      vertex 581.096 0 -89.829
    endloop
  endfacet
  facet normal -0 0.10234 0.994749
    outer loop
      vertex 581.096 0 -89.829
      vertex 586.898 -2.5 -89.5718
      vertex 586.898 0 -89.829
    endloop
  endfacet
  facet normal 0 0.10234 0.994749
    outer loop
      vertex 586.898 -2.5 -89.5718
      vertex 581.096 0 -89.829
      vertex 581.096 -2.5 -89.5718
    endloop
  endfacet
  facet normal 1 0 0
    outer loop
      vertex 586.898 0 -89.829
      vertex 586.898 2.5 -89.6341
      vertex 586.898 2.5 -89.5718
    endloop
  endfacet
  facet normal 1 -0 0
    outer loop
      vertex 586.898 0 -89.829
      vertex 586.898 0 -89.901
      vertex 586.898 2.5 -89.6341
    endloop
  endfacet
  facet normal 1 -0 0
    outer loop
      vertex 586.898 -2.5 -89.6341
      vertex 586.898 0 -89.829
      vertex 586.898 -2.5 -89.5718
    endloop
  endfacet
  facet normal 1 0 0
    outer loop
      vertex 586.898 0 -89.829
      vertex 586.898 -2.5 -89.6341
      vertex 586.898 0 -89.901
    endloop
  endfacet
  facet normal 0 -0.106157 0.994349
    outer loop
      vertex 586.898 2.5 -89.6341
      vertex 592.7 0 -89.901
      vertex 592.7 2.5 -89.6341
    endloop
  endfacet
  facet normal 0 -0.106157 0.994349
    outer loop
      vertex 592.7 0 -89.901
      vertex 586.898 2.5 -89.6341
      vertex 586.898 0 -89.901
    endloop
  endfacet
  facet normal -1 0 0
    outer loop
      vertex 592.7 -2.5 -89.6341
      vertex 592.7 2.5 -89.6341
      vertex 592.7 0 -89.901
    endloop
  endfacet
  facet normal -1 0 0
    outer loop
      vertex 592.7 2.5 -89.6341
      vertex 592.7 -2.5 -89.6341
      vertex 592.7 2.5 0
    endloop
  endfacet
  facet normal -1 -0 0
    outer loop
      vertex 592.7 2.5 0
      vertex 592.7 -2.5 -89.6341
      vertex 592.7 -2.5 0
    endloop
  endfacet
  facet normal -0 0.106157 0.994349
    outer loop
      vertex 586.898 0 -89.901
      vertex 592.7 -2.5 -89.6341
      vertex 592.7 0 -89.901
    endloop
  endfacet
  facet normal 0 0.106157 0.994349
    outer loop
      vertex 592.7 -2.5 -89.6341
      vertex 586.898 0 -89.901
      vertex 586.898 -2.5 -89.6341
    endloop
  endfacet
  facet normal -1 0 0
    outer loop
      vertex 450 0 -91.3044
      vertex 450 2.5 -96.2978
      vertex 450 0 -96.52
    endloop
  endfacet
  facet normal -1 0 0
    outer loop
      vertex 450 2.5 -96.2978
      vertex 450 0 -91.3044
      vertex 450 2.5 -91.0822
    endloop
  endfacet
  facet normal -1 0 0
    outer loop
      vertex 450 -2.5 -96.2978
      vertex 450 0 -91.3044
      vertex 450 0 -96.52
    endloop
  endfacet
  facet normal -1 -0 0
    outer loop
      vertex 450 0 -91.3044
      vertex 450 -2.5 -96.2978
      vertex 450 -2.5 -91.0822
    endloop
  endfacet
  facet normal 0 1 -0
    outer loop
      vertex 588 2.5 -94.8328
      vertex 582 2.5 -94.7129
      vertex 588 2.5 -94.7048
    endloop
  endfacet
  facet normal 0 1 0
    outer loop
      vertex 582 2.5 -94.7129
      vertex 588 2.5 -94.8328
      vertex 582 2.5 -94.8328
    endloop
  endfacet
  facet normal 0 1 0
    outer loop
      vertex 600 2.5 0
      vertex 592.7 2.5 -89.6341
      vertex 592.7 2.5 0
    endloop
  endfacet
  facet normal 0 1 -0
    outer loop
      vertex 588 2.5 -94.7048
      vertex 586.898 2.5 -89.6341
      vertex 592.7 2.5 -89.6341
    endloop
  endfacet
  facet normal 0 1 -0
    outer loop
      vertex 576 2.5 -94.6892
      vertex 575.294 2.5 -89.6938
      vertex 581.096 2.5 -89.6938
    endloop
  endfacet
  facet normal 0 1 -0
    outer loop
      vertex 546 2.5 -94.9708
      vertex 540.482 2.5 -89.8258
      vertex 552.086 2.5 -89.8258
    endloop
  endfacet
  facet normal 0 1 0
    outer loop
      vertex 558 2.5 -94.7813
      vertex 575.294 2.5 -89.6938
      vertex 570 2.5 -94.6892
    endloop
  endfacet
  facet normal 0 1 0
    outer loop
      vertex 582 2.5 -94.7129
      vertex 586.898 2.5 -89.6341
      vertex 588 2.5 -94.7048
    endloop
  endfacet
  facet normal 0 1 -0
    outer loop
      vertex 534 2.5 -95.1604
      vertex 528.878 2.5 -90.0053
      vertex 540.482 2.5 -90.0053
    endloop
  endfacet
  facet normal 0 1 0
    outer loop
      vertex 575.294 2.5 -89.6938
      vertex 558 2.5 -94.7813
      vertex 552.086 2.5 -89.8258
    endloop
  endfacet
  facet normal 0 1 -0
    outer loop
      vertex 516 2.5 -95.35
      vertex 511.472 2.5 -90.1848
      vertex 528.878 2.5 -90.1848
    endloop
  endfacet
  facet normal 0 1 0
    outer loop
      vertex 540.482 2.5 -89.8258
      vertex 546 2.5 -94.9708
      vertex 540.482 2.5 -90.0053
    endloop
  endfacet
  facet normal 0 1 -0
    outer loop
      vertex 504 2.5 -95.5395
      vertex 499.868 2.5 -90.3643
      vertex 511.472 2.5 -90.3643
    endloop
  endfacet
  facet normal 0 1 -0
    outer loop
      vertex 546 2.5 -95.1604
      vertex 540.482 2.5 -90.0053
      vertex 546 2.5 -94.9708
    endloop
  endfacet
  facet normal 0 1 -0
    outer loop
      vertex 486 2.5 -95.7291
      vertex 482.462 2.5 -90.5437
      vertex 499.868 2.5 -90.5437
    endloop
  endfacet
  facet normal 0 1 -0
    outer loop
      vertex 534 2.5 -95.35
      vertex 528.878 2.5 -90.1848
      vertex 534 2.5 -95.1604
    endloop
  endfacet
  facet normal 0 1 0
    outer loop
      vertex 482.462 2.5 -90.7232
      vertex 470.858 2.5 -90.9027
      vertex 470.858 2.5 -90.7232
    endloop
  endfacet
  facet normal 0 1 -0
    outer loop
      vertex 516 2.5 -95.5395
      vertex 511.472 2.5 -90.3643
      vertex 516 2.5 -95.35
    endloop
  endfacet
  facet normal 0 1 0
    outer loop
      vertex 470.858 2.5 -90.9027
      vertex 459.254 2.5 -91.0822
      vertex 459.254 2.5 -90.9027
    endloop
  endfacet
  facet normal 0 1 0
    outer loop
      vertex 499.868 2.5 -90.3643
      vertex 504 2.5 -95.5395
      vertex 499.868 2.5 -90.5437
    endloop
  endfacet
  facet normal 0 1 -0
    outer loop
      vertex 558 2.5 -94.9708
      vertex 552.086 2.5 -89.8258
      vertex 558 2.5 -94.7813
    endloop
  endfacet
  facet normal 0 1 0
    outer loop
      vertex 575.294 2.5 -89.6938
      vertex 576 2.5 -94.6892
      vertex 570 2.5 -94.6892
    endloop
  endfacet
  facet normal 0 1 0
    outer loop
      vertex 588 2.5 -94.7048
      vertex 592.7 2.5 -89.6341
      vertex 594 2.5 -94.7048
    endloop
  endfacet
  facet normal 0 1 -0
    outer loop
      vertex 600 2.5 -94.7712
      vertex 592.7 2.5 -89.6341
      vertex 600 2.5 0
    endloop
  endfacet
  facet normal 0 1 0
    outer loop
      vertex 592.7 2.5 -89.6341
      vertex 600 2.5 -94.7712
      vertex 594 2.5 -94.7048
    endloop
  endfacet
  facet normal 0 1 0
    outer loop
      vertex 594 2.5 -94.7048
      vertex 600 2.5 -94.7712
      vertex 594 2.5 -94.7712
    endloop
  endfacet
  facet normal 0 1 -0
    outer loop
      vertex 586.898 2.5 -89.6341
      vertex 581.096 2.5 -89.5718
      vertex 586.898 2.5 -89.5718
    endloop
  endfacet
  facet normal 0 1 0
    outer loop
      vertex 581.096 2.5 -89.5718
      vertex 586.898 2.5 -89.6341
      vertex 581.096 2.5 -89.6938
    endloop
  endfacet
  facet normal 0 1 -0
    outer loop
      vertex 575.294 2.5 -89.6938
      vertex 569.492 2.5 -89.5809
      vertex 575.294 2.5 -89.5809
    endloop
  endfacet
  facet normal 0 1 0
    outer loop
      vertex 569.492 2.5 -89.5809
      vertex 575.294 2.5 -89.6938
      vertex 563.69 2.5 -89.6463
    endloop
  endfacet
  facet normal 0 1 0
    outer loop
      vertex 552.086 2.5 -89.8258
      vertex 563.69 2.5 -89.6463
      vertex 575.294 2.5 -89.6938
    endloop
  endfacet
  facet normal 0 1 0
    outer loop
      vertex 563.69 2.5 -89.6463
      vertex 552.086 2.5 -89.8258
      vertex 552.086 2.5 -89.6463
    endloop
  endfacet
  facet normal 0 1 -0
    outer loop
      vertex 569.492 2.5 -89.5809
      vertex 563.69 2.5 -89.5587
      vertex 569.492 2.5 -89.5587
    endloop
  endfacet
  facet normal 0 1 0
    outer loop
      vertex 563.69 2.5 -89.5587
      vertex 569.492 2.5 -89.5809
      vertex 563.69 2.5 -89.6463
    endloop
  endfacet
  facet normal 0 1 0
    outer loop
      vertex 528.878 2.5 -90.0053
      vertex 534 2.5 -95.1604
      vertex 528.878 2.5 -90.1848
    endloop
  endfacet
  facet normal 0 1 0
    outer loop
      vertex 558 2.5 -94.7813
      vertex 570 2.5 -94.6892
      vertex 570 2.5 -94.7813
    endloop
  endfacet
  facet normal 0 1 0
    outer loop
      vertex 511.472 2.5 -90.1848
      vertex 516 2.5 -95.35
      vertex 511.472 2.5 -90.3643
    endloop
  endfacet
  facet normal 0 1 0
    outer loop
      vertex 552.086 2.5 -89.8258
      vertex 558 2.5 -94.9708
      vertex 546 2.5 -94.9708
    endloop
  endfacet
  facet normal 0 1 -0
    outer loop
      vertex 504 2.5 -95.7291
      vertex 499.868 2.5 -90.5437
      vertex 504 2.5 -95.5395
    endloop
  endfacet
  facet normal 0 1 0
    outer loop
      vertex 540.482 2.5 -90.0053
      vertex 546 2.5 -95.1604
      vertex 534 2.5 -95.1604
    endloop
  endfacet
  facet normal 0 1 0
    outer loop
      vertex 482.462 2.5 -90.5437
      vertex 486 2.5 -95.7291
      vertex 482.462 2.5 -90.7232
    endloop
  endfacet
  facet normal 0 1 0
    outer loop
      vertex 528.878 2.5 -90.1848
      vertex 534 2.5 -95.35
      vertex 516 2.5 -95.35
    endloop
  endfacet
  facet normal 0 1 -0
    outer loop
      vertex 486 2.5 -95.9187
      vertex 482.462 2.5 -90.7232
      vertex 486 2.5 -95.7291
    endloop
  endfacet
  facet normal 0 1 0
    outer loop
      vertex 511.472 2.5 -90.3643
      vertex 516 2.5 -95.5395
      vertex 504 2.5 -95.5395
    endloop
  endfacet
  facet normal 0 1 0
    outer loop
      vertex 482.462 2.5 -90.7232
      vertex 474 2.5 -95.9187
      vertex 470.858 2.5 -90.9027
    endloop
  endfacet
  facet normal 0 1 0
    outer loop
      vertex 499.868 2.5 -90.5437
      vertex 504 2.5 -95.7291
      vertex 486 2.5 -95.7291
    endloop
  endfacet
  facet normal 0 1 -0
    outer loop
      vertex 474 2.5 -96.1082
      vertex 470.858 2.5 -90.9027
      vertex 474 2.5 -95.9187
    endloop
  endfacet
  facet normal 0 1 0
    outer loop
      vertex 482.462 2.5 -90.7232
      vertex 486 2.5 -95.9187
      vertex 474 2.5 -95.9187
    endloop
  endfacet
  facet normal 0 1 0
    outer loop
      vertex 470.858 2.5 -90.9027
      vertex 462 2.5 -96.1082
      vertex 459.254 2.5 -91.0822
    endloop
  endfacet
  facet normal 0 1 0
    outer loop
      vertex 470.858 2.5 -90.9027
      vertex 474 2.5 -96.1082
      vertex 462 2.5 -96.1082
    endloop
  endfacet
  facet normal 0 1 0
    outer loop
      vertex 450 2.5 -96.2978
      vertex 459.254 2.5 -91.0822
      vertex 462 2.5 -96.1082
    endloop
  endfacet
  facet normal 0 1 0
    outer loop
      vertex 450 2.5 -96.2978
      vertex 462 2.5 -96.1082
      vertex 462 2.5 -96.2978
    endloop
  endfacet
  facet normal 0 1 0
    outer loop
      vertex 459.254 2.5 -91.0822
      vertex 450 2.5 -96.2978
      vertex 450 2.5 -91.0822
    endloop
  endfacet
  facet normal 0 1 0
    outer loop
      vertex 586.898 2.5 -89.6341
      vertex 582 2.5 -94.7129
      vertex 581.096 2.5 -89.6938
    endloop
  endfacet
  facet normal 0 1 0
    outer loop
      vertex 581.096 2.5 -89.6938
      vertex 582 2.5 -94.7129
      vertex 576 2.5 -94.6892
    endloop
  endfacet
  facet normal 0 1 0
    outer loop
      vertex 576 2.5 -94.6892
      vertex 582 2.5 -94.7129
      vertex 576 2.5 -94.7129
    endloop
  endfacet
  facet normal 0 -1 0
    outer loop
      vertex 576 -2.5 -94.6892
      vertex 582 -2.5 -94.7129
      vertex 581.096 -2.5 -89.6938
    endloop
  endfacet
  facet normal 0 -1 0
    outer loop
      vertex 581.096 -2.5 -89.6938
      vertex 582 -2.5 -94.7129
      vertex 588 -2.5 -94.7048
    endloop
  endfacet
  facet normal 0 -1 0
    outer loop
      vertex 582 -2.5 -94.8328
      vertex 588 -2.5 -94.7048
      vertex 582 -2.5 -94.7129
    endloop
  endfacet
  facet normal 0 -1 -0
    outer loop
      vertex 588 -2.5 -94.7048
      vertex 582 -2.5 -94.8328
      vertex 588 -2.5 -94.8328
    endloop
  endfacet
  facet normal 0 -1 0
    outer loop
      vertex 450 -2.5 -96.2978
      vertex 459.254 -2.5 -91.0822
      vertex 450 -2.5 -91.0822
    endloop
  endfacet
  facet normal 0 -1 0
    outer loop
      vertex 459.254 -2.5 -91.0822
      vertex 558 -2.5 -94.7813
      vertex 570 -2.5 -94.6892
    endloop
  endfacet
  facet normal 0 -1 0
    outer loop
      vertex 459.254 -2.5 -91.0822
      vertex 546 -2.5 -94.9708
      vertex 558 -2.5 -94.7813
    endloop
  endfacet
  facet normal 0 -1 0
    outer loop
      vertex 459.254 -2.5 -91.0822
      vertex 534 -2.5 -95.1604
      vertex 546 -2.5 -94.9708
    endloop
  endfacet
  facet normal 0 -1 0
    outer loop
      vertex 459.254 -2.5 -91.0822
      vertex 516 -2.5 -95.35
      vertex 534 -2.5 -95.1604
    endloop
  endfacet
  facet normal 0 -1 0
    outer loop
      vertex 459.254 -2.5 -91.0822
      vertex 504 -2.5 -95.5395
      vertex 516 -2.5 -95.35
    endloop
  endfacet
  facet normal 0 -1 0
    outer loop
      vertex 459.254 -2.5 -91.0822
      vertex 486 -2.5 -95.7291
      vertex 504 -2.5 -95.5395
    endloop
  endfacet
  facet normal 0 -1 0
    outer loop
      vertex 459.254 -2.5 -91.0822
      vertex 474 -2.5 -95.9187
      vertex 486 -2.5 -95.7291
    endloop
  endfacet
  facet normal 0 -1 0
    outer loop
      vertex 459.254 -2.5 -91.0822
      vertex 462 -2.5 -96.1082
      vertex 474 -2.5 -95.9187
    endloop
  endfacet
  facet normal 0 -1 -0
    outer loop
      vertex 459.254 -2.5 -91.0822
      vertex 450 -2.5 -96.2978
      vertex 462 -2.5 -96.1082
    endloop
  endfacet
  facet normal 0 -1 -0
    outer loop
      vertex 462 -2.5 -96.1082
      vertex 450 -2.5 -96.2978
      vertex 462 -2.5 -96.2978
    endloop
  endfacet
  facet normal 0 -1 0
    outer loop
      vertex 459.254 -2.5 -90.9027
      vertex 459.254 -2.5 -91.0822
      vertex 470.858 -2.5 -90.9027
    endloop
  endfacet
  facet normal 0 -1 0
    outer loop
      vertex 470.858 -2.5 -90.7232
      vertex 470.858 -2.5 -90.9027
      vertex 482.462 -2.5 -90.7232
    endloop
  endfacet
  facet normal 0 -1 0
    outer loop
      vertex 482.462 -2.5 -90.5437
      vertex 482.462 -2.5 -90.7232
      vertex 499.868 -2.5 -90.5437
    endloop
  endfacet
  facet normal 0 -1 0
    outer loop
      vertex 499.868 -2.5 -90.3643
      vertex 499.868 -2.5 -90.5437
      vertex 511.472 -2.5 -90.3643
    endloop
  endfacet
  facet normal 0 -1 0
    outer loop
      vertex 511.472 -2.5 -90.1848
      vertex 511.472 -2.5 -90.3643
      vertex 528.878 -2.5 -90.1848
    endloop
  endfacet
  facet normal 0 -1 0
    outer loop
      vertex 528.878 -2.5 -90.0053
      vertex 528.878 -2.5 -90.1848
      vertex 540.482 -2.5 -90.0053
    endloop
  endfacet
  facet normal 0 -1 0
    outer loop
      vertex 540.482 -2.5 -89.8258
      vertex 540.482 -2.5 -90.0053
      vertex 552.086 -2.5 -89.8258
    endloop
  endfacet
  facet normal 0 -1 0
    outer loop
      vertex 552.086 -2.5 -89.8258
      vertex 563.69 -2.5 -89.6463
      vertex 552.086 -2.5 -89.6463
    endloop
  endfacet
  facet normal 0 -1 0
    outer loop
      vertex 563.69 -2.5 -89.6463
      vertex 570 -2.5 -94.6892
      vertex 575.294 -2.5 -89.6938
    endloop
  endfacet
  facet normal 0 -1 -0
    outer loop
      vertex 563.69 -2.5 -89.6463
      vertex 552.086 -2.5 -89.8258
      vertex 570 -2.5 -94.6892
    endloop
  endfacet
  facet normal 0 -1 0
    outer loop
      vertex 563.69 -2.5 -89.5587
      vertex 569.492 -2.5 -89.5809
      vertex 569.492 -2.5 -89.5587
    endloop
  endfacet
  facet normal 0 -1 0
    outer loop
      vertex 563.69 -2.5 -89.6463
      vertex 569.492 -2.5 -89.5809
      vertex 563.69 -2.5 -89.5587
    endloop
  endfacet
  facet normal 0 -1 0
    outer loop
      vertex 575.294 -2.5 -89.6938
      vertex 569.492 -2.5 -89.5809
      vertex 563.69 -2.5 -89.6463
    endloop
  endfacet
  facet normal 0 -1 0
    outer loop
      vertex 569.492 -2.5 -89.5809
      vertex 575.294 -2.5 -89.6938
      vertex 575.294 -2.5 -89.5809
    endloop
  endfacet
  facet normal 0 -1 0
    outer loop
      vertex 581.096 -2.5 -89.5718
      vertex 586.898 -2.5 -89.6341
      vertex 586.898 -2.5 -89.5718
    endloop
  endfacet
  facet normal 0 -1 0
    outer loop
      vertex 588 -2.5 -94.7048
      vertex 586.898 -2.5 -89.6341
      vertex 581.096 -2.5 -89.6938
    endloop
  endfacet
  facet normal 0 -1 0
    outer loop
      vertex 581.096 -2.5 -89.6938
      vertex 586.898 -2.5 -89.6341
      vertex 581.096 -2.5 -89.5718
    endloop
  endfacet
  facet normal 0 -1 0
    outer loop
      vertex 592.7 -2.5 -89.6341
      vertex 600 -2.5 0
      vertex 592.7 -2.5 0
    endloop
  endfacet
  facet normal 0 -1 0
    outer loop
      vertex 570 -2.5 -94.6892
      vertex 552.086 -2.5 -89.8258
      vertex 540.482 -2.5 -90.0053
    endloop
  endfacet
  facet normal 0 -1 0
    outer loop
      vertex 576 -2.5 -94.6892
      vertex 575.294 -2.5 -89.6938
      vertex 570 -2.5 -94.6892
    endloop
  endfacet
  facet normal 0 -1 0
    outer loop
      vertex 570 -2.5 -94.6892
      vertex 540.482 -2.5 -90.0053
      vertex 528.878 -2.5 -90.1848
    endloop
  endfacet
  facet normal 0 -1 0
    outer loop
      vertex 570 -2.5 -94.6892
      vertex 528.878 -2.5 -90.1848
      vertex 511.472 -2.5 -90.3643
    endloop
  endfacet
  facet normal 0 -1 0
    outer loop
      vertex 570 -2.5 -94.6892
      vertex 511.472 -2.5 -90.3643
      vertex 499.868 -2.5 -90.5437
    endloop
  endfacet
  facet normal 0 -1 0
    outer loop
      vertex 570 -2.5 -94.6892
      vertex 499.868 -2.5 -90.5437
      vertex 482.462 -2.5 -90.7232
    endloop
  endfacet
  facet normal 0 -1 0
    outer loop
      vertex 570 -2.5 -94.6892
      vertex 482.462 -2.5 -90.7232
      vertex 470.858 -2.5 -90.9027
    endloop
  endfacet
  facet normal 0 -1 0
    outer loop
      vertex 570 -2.5 -94.6892
      vertex 470.858 -2.5 -90.9027
      vertex 459.254 -2.5 -91.0822
    endloop
  endfacet
  facet normal 0 -1 0
    outer loop
      vertex 575.294 -2.5 -89.6938
      vertex 576 -2.5 -94.6892
      vertex 581.096 -2.5 -89.6938
    endloop
  endfacet
  facet normal 0 -1 0
    outer loop
      vertex 582 -2.5 -94.7129
      vertex 576 -2.5 -94.6892
      vertex 576 -2.5 -94.7129
    endloop
  endfacet
  facet normal 0 -1 0
    outer loop
      vertex 586.898 -2.5 -89.6341
      vertex 588 -2.5 -94.7048
      vertex 592.7 -2.5 -89.6341
    endloop
  endfacet
  facet normal 0 -1 0
    outer loop
      vertex 594 -2.5 -94.7048
      vertex 592.7 -2.5 -89.6341
      vertex 588 -2.5 -94.7048
    endloop
  endfacet
  facet normal 0 -1 0
    outer loop
      vertex 600 -2.5 -94.7712
      vertex 592.7 -2.5 -89.6341
      vertex 594 -2.5 -94.7048
    endloop
  endfacet
  facet normal 0 -1 0
    outer loop
      vertex 600 -2.5 -94.7712
      vertex 594 -2.5 -94.7048
      vertex 594 -2.5 -94.7712
    endloop
  endfacet
  facet normal 0 -1 0
    outer loop
      vertex 592.7 -2.5 -89.6341
      vertex 600 -2.5 -94.7712
      vertex 600 -2.5 0
    endloop
  endfacet
  facet normal 0 -1 -0
    outer loop
      vertex 570 -2.5 -94.6892
      vertex 558 -2.5 -94.7813
      vertex 570 -2.5 -94.7813
    endloop
  endfacet
  facet normal 0 -1 -0
    outer loop
      vertex 558 -2.5 -94.7813
      vertex 546 -2.5 -94.9708
      vertex 558 -2.5 -94.9708
    endloop
  endfacet
  facet normal 0 -1 -0
    outer loop
      vertex 546 -2.5 -94.9708
      vertex 534 -2.5 -95.1604
      vertex 546 -2.5 -95.1604
    endloop
  endfacet
  facet normal 0 -1 -0
    outer loop
      vertex 534 -2.5 -95.1604
      vertex 516 -2.5 -95.35
      vertex 534 -2.5 -95.35
    endloop
  endfacet
  facet normal 0 -1 -0
    outer loop
      vertex 516 -2.5 -95.35
      vertex 504 -2.5 -95.5395
      vertex 516 -2.5 -95.5395
    endloop
  endfacet
  facet normal 0 -1 -0
    outer loop
      vertex 504 -2.5 -95.5395
      vertex 486 -2.5 -95.7291
      vertex 504 -2.5 -95.7291
    endloop
  endfacet
  facet normal 0 -1 -0
    outer loop
      vertex 486 -2.5 -95.7291
      vertex 474 -2.5 -95.9187
      vertex 486 -2.5 -95.9187
    endloop
  endfacet
  facet normal 0 -1 -0
    outer loop
      vertex 474 -2.5 -95.9187
      vertex 462 -2.5 -96.1082
      vertex 474 -2.5 -96.1082
    endloop
  endfacet
endsolid OpenSCAD_Model
