solid OpenSCAD_Model
  facet normal -0.707107 -0.707107 0
    outer loop
      vertex -11.5702 -13.7888 20
      vertex -13.7888 -11.5702 40
      vertex -13.7888 -11.5702 20
    endloop
  endfacet
  facet normal -0.707107 -0.707107 0
    outer loop
      vertex -13.7888 -11.5702 40
      vertex -11.5702 -13.7888 20
      vertex -11.5702 -13.7888 40
    endloop
  endfacet
  facet normal -0.707107 -0.707107 0
    outer loop
      vertex -11.5702 -13.7888 -40
      vertex -13.7888 -11.5702 -20
      vertex -13.7888 -11.5702 -40
    endloop
  endfacet
  facet normal -0.707107 -0.707107 0
    outer loop
      vertex -13.7888 -11.5702 -20
      vertex -11.5702 -13.7888 -40
      vertex -11.5702 -13.7888 -20
    endloop
  endfacet
  facet normal -0.906309 0.422615 0
    outer loop
      vertex -16.9145 6.15636 -40
      vertex -15.5885 9 -20
      vertex -15.5885 9 -40
    endloop
  endfacet
  facet normal -0.906309 0.422615 0
    outer loop
      vertex -15.5885 9 -20
      vertex -16.9145 6.15636 -40
      vertex -16.9145 6.15636 -20
    endloop
  endfacet
  facet normal -0.906309 0.422615 0
    outer loop
      vertex -16.9145 6.15636 20
      vertex -15.5885 9 40
      vertex -15.5885 9 20
    endloop
  endfacet
  facet normal -0.906309 0.422615 0
    outer loop
      vertex -15.5885 9 40
      vertex -16.9145 6.15636 20
      vertex -16.9145 6.15636 40
    endloop
  endfacet
  facet normal 0.965931 0.258798 0
    outer loop
      vertex 17.7265 3.12567 -20
      vertex 16.9145 6.15636 -40
      vertex 16.9145 6.15636 -20
    endloop
  endfacet
  facet normal 0.965931 0.258798 0
    outer loop
      vertex 16.9145 6.15636 -40
      vertex 17.7265 3.12567 -20
      vertex 17.7265 3.12567 -40
    endloop
  endfacet
  facet normal 0.965931 0.258798 0
    outer loop
      vertex 17.7265 3.12567 40
      vertex 16.9145 6.15636 20
      vertex 16.9145 6.15636 40
    endloop
  endfacet
  facet normal 0.965931 0.258798 0
    outer loop
      vertex 16.9145 6.15636 20
      vertex 17.7265 3.12567 40
      vertex 17.7265 3.12567 20
    endloop
  endfacet
  facet normal 0.996194 0.0871682 0
    outer loop
      vertex 18 0 -20
      vertex 17.7265 3.12567 -40
      vertex 17.7265 3.12567 -20
    endloop
  endfacet
  facet normal 0.996194 0.0871682 0
    outer loop
      vertex 17.7265 3.12567 -40
      vertex 18 0 -20
      vertex 18 0 -40
    endloop
  endfacet
  facet normal 0.996194 0.0871682 0
    outer loop
      vertex 18 0 40
      vertex 17.7265 3.12567 20
      vertex 17.7265 3.12567 40
    endloop
  endfacet
  facet normal 0.996194 0.0871682 0
    outer loop
      vertex 17.7265 3.12567 20
      vertex 18 0 40
      vertex 18 0 20
    endloop
  endfacet
  facet normal 0.906309 0.422615 0
    outer loop
      vertex 16.9145 6.15636 -20
      vertex 15.5885 9 -40
      vertex 15.5885 9 -20
    endloop
  endfacet
  facet normal 0.906309 0.422615 0
    outer loop
      vertex 15.5885 9 -40
      vertex 16.9145 6.15636 -20
      vertex 16.9145 6.15636 -40
    endloop
  endfacet
  facet normal 0.906309 0.422615 0
    outer loop
      vertex 16.9145 6.15636 40
      vertex 15.5885 9 20
      vertex 15.5885 9 40
    endloop
  endfacet
  facet normal 0.906309 0.422615 0
    outer loop
      vertex 15.5885 9 20
      vertex 16.9145 6.15636 40
      vertex 16.9145 6.15636 20
    endloop
  endfacet
  facet normal 0.573582 -0.819148 0
    outer loop
      vertex 9 -15.5885 -40
      vertex 11.5702 -13.7888 -20
      vertex 9 -15.5885 -20
    endloop
  endfacet
  facet normal 0.573582 -0.819148 0
    outer loop
      vertex 11.5702 -13.7888 -20
      vertex 9 -15.5885 -40
      vertex 11.5702 -13.7888 -40
    endloop
  endfacet
  facet normal 0.573582 -0.819148 0
    outer loop
      vertex 9 -15.5885 20
      vertex 11.5702 -13.7888 40
      vertex 9 -15.5885 40
    endloop
  endfacet
  facet normal 0.573582 -0.819148 0
    outer loop
      vertex 11.5702 -13.7888 40
      vertex 9 -15.5885 20
      vertex 11.5702 -13.7888 20
    endloop
  endfacet
  facet normal -0.0871682 -0.996194 0
    outer loop
      vertex -3.12567 -17.7265 -40
      vertex 0 -18 -20
      vertex -3.12567 -17.7265 -20
    endloop
  endfacet
  facet normal -0.0871682 -0.996194 -0
    outer loop
      vertex 0 -18 -20
      vertex -3.12567 -17.7265 -40
      vertex 0 -18 -40
    endloop
  endfacet
  facet normal -0.0871682 -0.996194 0
    outer loop
      vertex -3.12567 -17.7265 20
      vertex 0 -18 40
      vertex -3.12567 -17.7265 40
    endloop
  endfacet
  facet normal -0.0871682 -0.996194 -0
    outer loop
      vertex 0 -18 40
      vertex -3.12567 -17.7265 20
      vertex 0 -18 20
    endloop
  endfacet
  facet normal 0 0 1
    outer loop
      vertex 5 0 40
      vertex 18 0 40
      vertex 17.7265 3.12567 40
    endloop
  endfacet
  facet normal 0 0 1
    outer loop
      vertex 4.92404 0.86824 40
      vertex 17.7265 3.12567 40
      vertex 16.9145 6.15636 40
    endloop
  endfacet
  facet normal 0 0 1
    outer loop
      vertex 18 0 40
      vertex 5 0 40
      vertex 17.7265 -3.12567 40
    endloop
  endfacet
  facet normal 0 0 1
    outer loop
      vertex 4.69846 1.7101 40
      vertex 16.9145 6.15636 40
      vertex 15.5885 9 40
    endloop
  endfacet
  facet normal -0 0 1
    outer loop
      vertex 4.92404 -0.86824 40
      vertex 17.7265 -3.12567 40
      vertex 5 0 40
    endloop
  endfacet
  facet normal 0 0 1
    outer loop
      vertex 4.33013 2.5 40
      vertex 15.5885 9 40
      vertex 13.7888 11.5702 40
    endloop
  endfacet
  facet normal 0 0 1
    outer loop
      vertex 17.7265 -3.12567 40
      vertex 4.92404 -0.86824 40
      vertex 16.9145 -6.15636 40
    endloop
  endfacet
  facet normal 0 0 1
    outer loop
      vertex 3.83022 3.21394 40
      vertex 13.7888 11.5702 40
      vertex 11.5702 13.7888 40
    endloop
  endfacet
  facet normal -0 0 1
    outer loop
      vertex 4.69846 -1.7101 40
      vertex 16.9145 -6.15636 40
      vertex 4.92404 -0.86824 40
    endloop
  endfacet
  facet normal 0 0 1
    outer loop
      vertex 3.21394 3.83022 40
      vertex 11.5702 13.7888 40
      vertex 9 15.5885 40
    endloop
  endfacet
  facet normal 0 0 1
    outer loop
      vertex 16.9145 -6.15636 40
      vertex 4.69846 -1.7101 40
      vertex 15.5885 -9 40
    endloop
  endfacet
  facet normal 0 0 1
    outer loop
      vertex 2.5 4.33013 40
      vertex 9 15.5885 40
      vertex 6.15636 16.9145 40
    endloop
  endfacet
  facet normal -0 0 1
    outer loop
      vertex 4.33013 -2.5 40
      vertex 15.5885 -9 40
      vertex 4.69846 -1.7101 40
    endloop
  endfacet
  facet normal 0 0 1
    outer loop
      vertex 15.5885 -9 40
      vertex 4.33013 -2.5 40
      vertex 13.7888 -11.5702 40
    endloop
  endfacet
  facet normal 0 0 1
    outer loop
      vertex 17.7265 3.12567 40
      vertex 4.92404 0.86824 40
      vertex 5 0 40
    endloop
  endfacet
  facet normal 0 0 1
    outer loop
      vertex 16.9145 6.15636 40
      vertex 4.69846 1.7101 40
      vertex 4.92404 0.86824 40
    endloop
  endfacet
  facet normal 0 0 1
    outer loop
      vertex 15.5885 9 40
      vertex 4.33013 2.5 40
      vertex 4.69846 1.7101 40
    endloop
  endfacet
  facet normal 0 0 1
    outer loop
      vertex 13.7888 11.5702 40
      vertex 3.83022 3.21394 40
      vertex 4.33013 2.5 40
    endloop
  endfacet
  facet normal 0 0 1
    outer loop
      vertex 11.5702 13.7888 40
      vertex 3.21394 3.83022 40
      vertex 3.83022 3.21394 40
    endloop
  endfacet
  facet normal 0 0 1
    outer loop
      vertex 1.7101 4.69846 40
      vertex 6.15636 16.9145 40
      vertex 3.12567 17.7265 40
    endloop
  endfacet
  facet normal 0 0 1
    outer loop
      vertex 9 15.5885 40
      vertex 2.5 4.33013 40
      vertex 3.21394 3.83022 40
    endloop
  endfacet
  facet normal 0 0 1
    outer loop
      vertex 6.15636 16.9145 40
      vertex 1.7101 4.69846 40
      vertex 2.5 4.33013 40
    endloop
  endfacet
  facet normal 0 0 1
    outer loop
      vertex 3.12567 17.7265 40
      vertex 0.86824 4.92404 40
      vertex 1.7101 4.69846 40
    endloop
  endfacet
  facet normal 0 0 1
    outer loop
      vertex 0 18 40
      vertex 0.86824 4.92404 40
      vertex 3.12567 17.7265 40
    endloop
  endfacet
  facet normal 0 0 1
    outer loop
      vertex 0 18 40
      vertex 0 5 40
      vertex 0.86824 4.92404 40
    endloop
  endfacet
  facet normal 0 0 1
    outer loop
      vertex 0 18 40
      vertex -0.86824 4.92404 40
      vertex 0 5 40
    endloop
  endfacet
  facet normal -0 0 1
    outer loop
      vertex -3.12567 17.7265 40
      vertex -0.86824 4.92404 40
      vertex 0 18 40
    endloop
  endfacet
  facet normal 0 0 1
    outer loop
      vertex -0.86824 4.92404 40
      vertex -3.12567 17.7265 40
      vertex -1.7101 4.69846 40
    endloop
  endfacet
  facet normal -0 0 1
    outer loop
      vertex -6.15636 16.9145 40
      vertex -1.7101 4.69846 40
      vertex -3.12567 17.7265 40
    endloop
  endfacet
  facet normal 0 0 1
    outer loop
      vertex -1.7101 4.69846 40
      vertex -6.15636 16.9145 40
      vertex -2.5 4.33013 40
    endloop
  endfacet
  facet normal -0 0 1
    outer loop
      vertex -9 15.5885 40
      vertex -2.5 4.33013 40
      vertex -6.15636 16.9145 40
    endloop
  endfacet
  facet normal 0 0 1
    outer loop
      vertex -2.5 4.33013 40
      vertex -9 15.5885 40
      vertex -3.21394 3.83022 40
    endloop
  endfacet
  facet normal -0 0 1
    outer loop
      vertex -11.5702 13.7888 40
      vertex -3.21394 3.83022 40
      vertex -9 15.5885 40
    endloop
  endfacet
  facet normal 0 0 1
    outer loop
      vertex -3.21394 3.83022 40
      vertex -11.5702 13.7888 40
      vertex -3.83022 3.21394 40
    endloop
  endfacet
  facet normal 0 0 1
    outer loop
      vertex -3.83022 3.21394 40
      vertex -13.7888 11.5702 40
      vertex -4.33013 2.5 40
    endloop
  endfacet
  facet normal -0 0 1
    outer loop
      vertex -13.7888 11.5702 40
      vertex -3.83022 3.21394 40
      vertex -11.5702 13.7888 40
    endloop
  endfacet
  facet normal -0 0 1
    outer loop
      vertex 3.83022 -3.21394 40
      vertex 13.7888 -11.5702 40
      vertex 4.33013 -2.5 40
    endloop
  endfacet
  facet normal 0 0 1
    outer loop
      vertex 13.7888 -11.5702 40
      vertex 3.83022 -3.21394 40
      vertex 11.5702 -13.7888 40
    endloop
  endfacet
  facet normal -0 0 1
    outer loop
      vertex 3.21394 -3.83022 40
      vertex 11.5702 -13.7888 40
      vertex 3.83022 -3.21394 40
    endloop
  endfacet
  facet normal 0 0 1
    outer loop
      vertex 11.5702 -13.7888 40
      vertex 3.21394 -3.83022 40
      vertex 9 -15.5885 40
    endloop
  endfacet
  facet normal -0 0 1
    outer loop
      vertex 2.5 -4.33013 40
      vertex 9 -15.5885 40
      vertex 3.21394 -3.83022 40
    endloop
  endfacet
  facet normal 0 0 1
    outer loop
      vertex 9 -15.5885 40
      vertex 2.5 -4.33013 40
      vertex 6.15636 -16.9145 40
    endloop
  endfacet
  facet normal -0 0 1
    outer loop
      vertex 1.7101 -4.69846 40
      vertex 6.15636 -16.9145 40
      vertex 2.5 -4.33013 40
    endloop
  endfacet
  facet normal 0 0 1
    outer loop
      vertex 6.15636 -16.9145 40
      vertex 1.7101 -4.69846 40
      vertex 3.12567 -17.7265 40
    endloop
  endfacet
  facet normal -0 0 1
    outer loop
      vertex 0.86824 -4.92404 40
      vertex 3.12567 -17.7265 40
      vertex 1.7101 -4.69846 40
    endloop
  endfacet
  facet normal -0 0 1
    outer loop
      vertex 0 -5 40
      vertex 3.12567 -17.7265 40
      vertex 0.86824 -4.92404 40
    endloop
  endfacet
  facet normal 0 0 1
    outer loop
      vertex 0 -5 40
      vertex 0 -18 40
      vertex 3.12567 -17.7265 40
    endloop
  endfacet
  facet normal 0 0 1
    outer loop
      vertex -0.86824 -4.92404 40
      vertex 0 -18 40
      vertex 0 -5 40
    endloop
  endfacet
  facet normal 0 0 1
    outer loop
      vertex -3.12567 -17.7265 40
      vertex -0.86824 -4.92404 40
      vertex -1.7101 -4.69846 40
    endloop
  endfacet
  facet normal 0 0 1
    outer loop
      vertex -6.15636 -16.9145 40
      vertex -1.7101 -4.69846 40
      vertex -2.5 -4.33013 40
    endloop
  endfacet
  facet normal 0 0 1
    outer loop
      vertex -0.86824 -4.92404 40
      vertex -3.12567 -17.7265 40
      vertex 0 -18 40
    endloop
  endfacet
  facet normal 0 0 1
    outer loop
      vertex -9 -15.5885 40
      vertex -2.5 -4.33013 40
      vertex -3.21394 -3.83022 40
    endloop
  endfacet
  facet normal 0 0 1
    outer loop
      vertex -11.5702 -13.7888 40
      vertex -3.21394 -3.83022 40
      vertex -3.83022 -3.21394 40
    endloop
  endfacet
  facet normal 0 0 1
    outer loop
      vertex -13.7888 -11.5702 40
      vertex -3.83022 -3.21394 40
      vertex -4.33013 -2.5 40
    endloop
  endfacet
  facet normal 0 0 1
    outer loop
      vertex -15.5885 -9 40
      vertex -4.33013 -2.5 40
      vertex -4.69846 -1.7101 40
    endloop
  endfacet
  facet normal 0 0 1
    outer loop
      vertex -16.9145 -6.15636 40
      vertex -4.69846 -1.7101 40
      vertex -4.92404 -0.86824 40
    endloop
  endfacet
  facet normal 0 0 1
    outer loop
      vertex -1.7101 -4.69846 40
      vertex -6.15636 -16.9145 40
      vertex -3.12567 -17.7265 40
    endloop
  endfacet
  facet normal 0 0 1
    outer loop
      vertex -17.7265 -3.12567 40
      vertex -4.92404 -0.86824 40
      vertex -5 0 40
    endloop
  endfacet
  facet normal -0 0 1
    outer loop
      vertex -15.5885 9 40
      vertex -4.33013 2.5 40
      vertex -13.7888 11.5702 40
    endloop
  endfacet
  facet normal 0 0 1
    outer loop
      vertex -4.33013 2.5 40
      vertex -15.5885 9 40
      vertex -4.69846 1.7101 40
    endloop
  endfacet
  facet normal 0 0 1
    outer loop
      vertex -2.5 -4.33013 40
      vertex -9 -15.5885 40
      vertex -6.15636 -16.9145 40
    endloop
  endfacet
  facet normal -0 0 1
    outer loop
      vertex -16.9145 6.15636 40
      vertex -4.69846 1.7101 40
      vertex -15.5885 9 40
    endloop
  endfacet
  facet normal 0 0 1
    outer loop
      vertex -3.21394 -3.83022 40
      vertex -11.5702 -13.7888 40
      vertex -9 -15.5885 40
    endloop
  endfacet
  facet normal 0 0 1
    outer loop
      vertex -4.69846 1.7101 40
      vertex -16.9145 6.15636 40
      vertex -4.92404 0.86824 40
    endloop
  endfacet
  facet normal 0 0 1
    outer loop
      vertex -3.83022 -3.21394 40
      vertex -13.7888 -11.5702 40
      vertex -11.5702 -13.7888 40
    endloop
  endfacet
  facet normal -0 0 1
    outer loop
      vertex -17.7265 3.12567 40
      vertex -4.92404 0.86824 40
      vertex -16.9145 6.15636 40
    endloop
  endfacet
  facet normal 0 0 1
    outer loop
      vertex -4.33013 -2.5 40
      vertex -15.5885 -9 40
      vertex -13.7888 -11.5702 40
    endloop
  endfacet
  facet normal 0 0 1
    outer loop
      vertex -4.92404 0.86824 40
      vertex -17.7265 3.12567 40
      vertex -5 0 40
    endloop
  endfacet
  facet normal 0 0 1
    outer loop
      vertex -4.69846 -1.7101 40
      vertex -16.9145 -6.15636 40
      vertex -15.5885 -9 40
    endloop
  endfacet
  facet normal 0 0 1
    outer loop
      vertex -18 0 40
      vertex -5 0 40
      vertex -17.7265 3.12567 40
    endloop
  endfacet
  facet normal 0 0 1
    outer loop
      vertex -4.92404 -0.86824 40
      vertex -17.7265 -3.12567 40
      vertex -16.9145 -6.15636 40
    endloop
  endfacet
  facet normal 0 0 1
    outer loop
      vertex -5 0 40
      vertex -18 0 40
      vertex -17.7265 -3.12567 40
    endloop
  endfacet
  facet normal 0.422615 -0.906309 0
    outer loop
      vertex 6.15636 -16.9145 -40
      vertex 9 -15.5885 -20
      vertex 6.15636 -16.9145 -20
    endloop
  endfacet
  facet normal 0.422615 -0.906309 0
    outer loop
      vertex 9 -15.5885 -20
      vertex 6.15636 -16.9145 -40
      vertex 9 -15.5885 -40
    endloop
  endfacet
  facet normal 0.422615 -0.906309 0
    outer loop
      vertex 6.15636 -16.9145 20
      vertex 9 -15.5885 40
      vertex 6.15636 -16.9145 40
    endloop
  endfacet
  facet normal 0.422615 -0.906309 0
    outer loop
      vertex 9 -15.5885 40
      vertex 6.15636 -16.9145 20
      vertex 9 -15.5885 20
    endloop
  endfacet
  facet normal -0.258798 0.965931 0
    outer loop
      vertex -3.12567 17.7265 20
      vertex -6.15636 16.9145 40
      vertex -3.12567 17.7265 40
    endloop
  endfacet
  facet normal -0.258798 0.965931 0
    outer loop
      vertex -6.15636 16.9145 40
      vertex -3.12567 17.7265 20
      vertex -6.15636 16.9145 20
    endloop
  endfacet
  facet normal -0.258798 0.965931 0
    outer loop
      vertex -3.12567 17.7265 -40
      vertex -6.15636 16.9145 -20
      vertex -3.12567 17.7265 -20
    endloop
  endfacet
  facet normal -0.258798 0.965931 0
    outer loop
      vertex -6.15636 16.9145 -20
      vertex -3.12567 17.7265 -40
      vertex -6.15636 16.9145 -40
    endloop
  endfacet
  facet normal -0.422615 0.906309 0
    outer loop
      vertex -6.15636 16.9145 20
      vertex -9 15.5885 40
      vertex -6.15636 16.9145 40
    endloop
  endfacet
  facet normal -0.422615 0.906309 0
    outer loop
      vertex -9 15.5885 40
      vertex -6.15636 16.9145 20
      vertex -9 15.5885 20
    endloop
  endfacet
  facet normal -0.422615 0.906309 0
    outer loop
      vertex -6.15636 16.9145 -40
      vertex -9 15.5885 -20
      vertex -6.15636 16.9145 -20
    endloop
  endfacet
  facet normal -0.422615 0.906309 0
    outer loop
      vertex -9 15.5885 -20
      vertex -6.15636 16.9145 -40
      vertex -9 15.5885 -40
    endloop
  endfacet
  facet normal 0.0871682 -0.996194 0
    outer loop
      vertex 0 -18 -40
      vertex 3.12567 -17.7265 -20
      vertex 0 -18 -20
    endloop
  endfacet
  facet normal 0.0871682 -0.996194 0
    outer loop
      vertex 3.12567 -17.7265 -20
      vertex 0 -18 -40
      vertex 3.12567 -17.7265 -40
    endloop
  endfacet
  facet normal 0.0871682 -0.996194 0
    outer loop
      vertex 0 -18 20
      vertex 3.12567 -17.7265 40
      vertex 0 -18 40
    endloop
  endfacet
  facet normal 0.0871682 -0.996194 0
    outer loop
      vertex 3.12567 -17.7265 40
      vertex 0 -18 20
      vertex 3.12567 -17.7265 20
    endloop
  endfacet
  facet normal -0.965931 -0.258798 0
    outer loop
      vertex -16.9145 -6.15636 -40
      vertex -17.7265 -3.12567 -20
      vertex -17.7265 -3.12567 -40
    endloop
  endfacet
  facet normal -0.965931 -0.258798 0
    outer loop
      vertex -17.7265 -3.12567 -20
      vertex -16.9145 -6.15636 -40
      vertex -16.9145 -6.15636 -20
    endloop
  endfacet
  facet normal -0.965931 -0.258798 0
    outer loop
      vertex -16.9145 -6.15636 20
      vertex -17.7265 -3.12567 40
      vertex -17.7265 -3.12567 20
    endloop
  endfacet
  facet normal -0.965931 -0.258798 0
    outer loop
      vertex -17.7265 -3.12567 40
      vertex -16.9145 -6.15636 20
      vertex -16.9145 -6.15636 40
    endloop
  endfacet
  facet normal -0.573582 -0.819148 0
    outer loop
      vertex -11.5702 -13.7888 -40
      vertex -9 -15.5885 -20
      vertex -11.5702 -13.7888 -20
    endloop
  endfacet
  facet normal -0.573582 -0.819148 -0
    outer loop
      vertex -9 -15.5885 -20
      vertex -11.5702 -13.7888 -40
      vertex -9 -15.5885 -40
    endloop
  endfacet
  facet normal -0.573582 -0.819148 0
    outer loop
      vertex -11.5702 -13.7888 20
      vertex -9 -15.5885 40
      vertex -11.5702 -13.7888 40
    endloop
  endfacet
  facet normal -0.573582 -0.819148 -0
    outer loop
      vertex -9 -15.5885 40
      vertex -11.5702 -13.7888 20
      vertex -9 -15.5885 20
    endloop
  endfacet
  facet normal -0.819148 0.573582 0
    outer loop
      vertex -15.5885 9 20
      vertex -13.7888 11.5702 40
      vertex -13.7888 11.5702 20
    endloop
  endfacet
  facet normal -0.819148 0.573582 0
    outer loop
      vertex -13.7888 11.5702 40
      vertex -15.5885 9 20
      vertex -15.5885 9 40
    endloop
  endfacet
  facet normal -0.819148 0.573582 0
    outer loop
      vertex -15.5885 9 -40
      vertex -13.7888 11.5702 -20
      vertex -13.7888 11.5702 -40
    endloop
  endfacet
  facet normal -0.819148 0.573582 0
    outer loop
      vertex -13.7888 11.5702 -20
      vertex -15.5885 9 -40
      vertex -15.5885 9 -20
    endloop
  endfacet
  facet normal 0.906309 -0.422615 0
    outer loop
      vertex 15.5885 -9 -20
      vertex 16.9145 -6.15636 -40
      vertex 16.9145 -6.15636 -20
    endloop
  endfacet
  facet normal 0.906309 -0.422615 0
    outer loop
      vertex 16.9145 -6.15636 -40
      vertex 15.5885 -9 -20
      vertex 15.5885 -9 -40
    endloop
  endfacet
  facet normal 0.906309 -0.422615 0
    outer loop
      vertex 15.5885 -9 40
      vertex 16.9145 -6.15636 20
      vertex 16.9145 -6.15636 40
    endloop
  endfacet
  facet normal 0.906309 -0.422615 0
    outer loop
      vertex 16.9145 -6.15636 20
      vertex 15.5885 -9 40
      vertex 15.5885 -9 20
    endloop
  endfacet
  facet normal -0.819148 -0.573582 0
    outer loop
      vertex -13.7888 -11.5702 20
      vertex -15.5885 -9 40
      vertex -15.5885 -9 20
    endloop
  endfacet
  facet normal -0.819148 -0.573582 0
    outer loop
      vertex -15.5885 -9 40
      vertex -13.7888 -11.5702 20
      vertex -13.7888 -11.5702 40
    endloop
  endfacet
  facet normal -0.819148 -0.573582 0
    outer loop
      vertex -13.7888 -11.5702 -40
      vertex -15.5885 -9 -20
      vertex -15.5885 -9 -40
    endloop
  endfacet
  facet normal -0.819148 -0.573582 0
    outer loop
      vertex -15.5885 -9 -20
      vertex -13.7888 -11.5702 -40
      vertex -13.7888 -11.5702 -20
    endloop
  endfacet
  facet normal -0.573582 0.819148 0
    outer loop
      vertex -9 15.5885 -40
      vertex -11.5702 13.7888 -20
      vertex -9 15.5885 -20
    endloop
  endfacet
  facet normal -0.573582 0.819148 0
    outer loop
      vertex -11.5702 13.7888 -20
      vertex -9 15.5885 -40
      vertex -11.5702 13.7888 -40
    endloop
  endfacet
  facet normal -0.573582 0.819148 0
    outer loop
      vertex -9 15.5885 20
      vertex -11.5702 13.7888 40
      vertex -9 15.5885 40
    endloop
  endfacet
  facet normal -0.573582 0.819148 0
    outer loop
      vertex -11.5702 13.7888 40
      vertex -9 15.5885 20
      vertex -11.5702 13.7888 20
    endloop
  endfacet
  facet normal 0.819148 -0.573582 0
    outer loop
      vertex 13.7888 -11.5702 40
      vertex 15.5885 -9 20
      vertex 15.5885 -9 40
    endloop
  endfacet
  facet normal 0.819148 -0.573582 0
    outer loop
      vertex 15.5885 -9 20
      vertex 13.7888 -11.5702 40
      vertex 13.7888 -11.5702 20
    endloop
  endfacet
  facet normal 0.819148 -0.573582 0
    outer loop
      vertex 13.7888 -11.5702 -20
      vertex 15.5885 -9 -40
      vertex 15.5885 -9 -20
    endloop
  endfacet
  facet normal 0.819148 -0.573582 0
    outer loop
      vertex 15.5885 -9 -40
      vertex 13.7888 -11.5702 -20
      vertex 13.7888 -11.5702 -40
    endloop
  endfacet
  facet normal 0.819148 0.573582 0
    outer loop
      vertex 15.5885 9 -20
      vertex 13.7888 11.5702 -40
      vertex 13.7888 11.5702 -20
    endloop
  endfacet
  facet normal 0.819148 0.573582 0
    outer loop
      vertex 13.7888 11.5702 -40
      vertex 15.5885 9 -20
      vertex 15.5885 9 -40
    endloop
  endfacet
  facet normal 0.819148 0.573582 0
    outer loop
      vertex 15.5885 9 40
      vertex 13.7888 11.5702 20
      vertex 13.7888 11.5702 40
    endloop
  endfacet
  facet normal 0.819148 0.573582 0
    outer loop
      vertex 13.7888 11.5702 20
      vertex 15.5885 9 40
      vertex 15.5885 9 20
    endloop
  endfacet
  facet normal 0.965931 -0.258798 0
    outer loop
      vertex 16.9145 -6.15636 -20
      vertex 17.7265 -3.12567 -40
      vertex 17.7265 -3.12567 -20
    endloop
  endfacet
  facet normal 0.965931 -0.258798 0
    outer loop
      vertex 17.7265 -3.12567 -40
      vertex 16.9145 -6.15636 -20
      vertex 16.9145 -6.15636 -40
    endloop
  endfacet
  facet normal 0.965931 -0.258798 0
    outer loop
      vertex 16.9145 -6.15636 40
      vertex 17.7265 -3.12567 20
      vertex 17.7265 -3.12567 40
    endloop
  endfacet
  facet normal 0.965931 -0.258798 0
    outer loop
      vertex 17.7265 -3.12567 20
      vertex 16.9145 -6.15636 40
      vertex 16.9145 -6.15636 20
    endloop
  endfacet
  facet normal -0.996194 0.0871682 0
    outer loop
      vertex -18 0 20
      vertex -17.7265 3.12567 40
      vertex -17.7265 3.12567 20
    endloop
  endfacet
  facet normal -0.996194 0.0871682 0
    outer loop
      vertex -17.7265 3.12567 40
      vertex -18 0 20
      vertex -18 0 40
    endloop
  endfacet
  facet normal -0.996194 0.0871682 0
    outer loop
      vertex -18 0 -40
      vertex -17.7265 3.12567 -20
      vertex -17.7265 3.12567 -40
    endloop
  endfacet
  facet normal -0.996194 0.0871682 0
    outer loop
      vertex -17.7265 3.12567 -20
      vertex -18 0 -40
      vertex -18 0 -20
    endloop
  endfacet
  facet normal 0.422615 0.906309 -0
    outer loop
      vertex 9 15.5885 20
      vertex 6.15636 16.9145 40
      vertex 9 15.5885 40
    endloop
  endfacet
  facet normal 0.422615 0.906309 0
    outer loop
      vertex 6.15636 16.9145 40
      vertex 9 15.5885 20
      vertex 6.15636 16.9145 20
    endloop
  endfacet
  facet normal 0.422615 0.906309 -0
    outer loop
      vertex 9 15.5885 -40
      vertex 6.15636 16.9145 -20
      vertex 9 15.5885 -20
    endloop
  endfacet
  facet normal 0.422615 0.906309 0
    outer loop
      vertex 6.15636 16.9145 -20
      vertex 9 15.5885 -40
      vertex 6.15636 16.9145 -40
    endloop
  endfacet
  facet normal 0.707107 0.707107 0
    outer loop
      vertex 13.7888 11.5702 -20
      vertex 11.5702 13.7888 -40
      vertex 11.5702 13.7888 -20
    endloop
  endfacet
  facet normal 0.707107 0.707107 0
    outer loop
      vertex 11.5702 13.7888 -40
      vertex 13.7888 11.5702 -20
      vertex 13.7888 11.5702 -40
    endloop
  endfacet
  facet normal 0.707107 0.707107 0
    outer loop
      vertex 13.7888 11.5702 40
      vertex 11.5702 13.7888 20
      vertex 11.5702 13.7888 40
    endloop
  endfacet
  facet normal 0.707107 0.707107 0
    outer loop
      vertex 11.5702 13.7888 20
      vertex 13.7888 11.5702 40
      vertex 13.7888 11.5702 20
    endloop
  endfacet
  facet normal 0.258798 -0.965931 0
    outer loop
      vertex 3.12567 -17.7265 -40
      vertex 6.15636 -16.9145 -20
      vertex 3.12567 -17.7265 -20
    endloop
  endfacet
  facet normal 0.258798 -0.965931 0
    outer loop
      vertex 6.15636 -16.9145 -20
      vertex 3.12567 -17.7265 -40
      vertex 6.15636 -16.9145 -40
    endloop
  endfacet
  facet normal 0.258798 -0.965931 0
    outer loop
      vertex 3.12567 -17.7265 20
      vertex 6.15636 -16.9145 40
      vertex 3.12567 -17.7265 40
    endloop
  endfacet
  facet normal 0.258798 -0.965931 0
    outer loop
      vertex 6.15636 -16.9145 40
      vertex 3.12567 -17.7265 20
      vertex 6.15636 -16.9145 20
    endloop
  endfacet
  facet normal 0.996194 -0.0871682 0
    outer loop
      vertex 17.7265 -3.12567 40
      vertex 18 0 20
      vertex 18 0 40
    endloop
  endfacet
  facet normal 0.996194 -0.0871682 0
    outer loop
      vertex 18 0 20
      vertex 17.7265 -3.12567 40
      vertex 17.7265 -3.12567 20
    endloop
  endfacet
  facet normal 0.996194 -0.0871682 0
    outer loop
      vertex 17.7265 -3.12567 -20
      vertex 18 0 -40
      vertex 18 0 -20
    endloop
  endfacet
  facet normal 0.996194 -0.0871682 0
    outer loop
      vertex 18 0 -40
      vertex 17.7265 -3.12567 -20
      vertex 17.7265 -3.12567 -40
    endloop
  endfacet
  facet normal 0 0 -1
    outer loop
      vertex 17.7265 -3.12567 -40
      vertex 17.7265 3.12567 -40
      vertex 18 0 -40
    endloop
  endfacet
  facet normal 0 0 -1
    outer loop
      vertex 16.9145 -6.15636 -40
      vertex 17.7265 3.12567 -40
      vertex 17.7265 -3.12567 -40
    endloop
  endfacet
  facet normal 0 0 -1
    outer loop
      vertex 16.9145 -6.15636 -40
      vertex 16.9145 6.15636 -40
      vertex 17.7265 3.12567 -40
    endloop
  endfacet
  facet normal 0 0 -1
    outer loop
      vertex 15.5885 -9 -40
      vertex 16.9145 6.15636 -40
      vertex 16.9145 -6.15636 -40
    endloop
  endfacet
  facet normal 0 0 -1
    outer loop
      vertex 15.5885 -9 -40
      vertex 15.5885 9 -40
      vertex 16.9145 6.15636 -40
    endloop
  endfacet
  facet normal 0 0 -1
    outer loop
      vertex 13.7888 -11.5702 -40
      vertex 15.5885 9 -40
      vertex 15.5885 -9 -40
    endloop
  endfacet
  facet normal 0 0 -1
    outer loop
      vertex 13.7888 -11.5702 -40
      vertex 13.7888 11.5702 -40
      vertex 15.5885 9 -40
    endloop
  endfacet
  facet normal 0 0 -1
    outer loop
      vertex 11.5702 -13.7888 -40
      vertex 13.7888 11.5702 -40
      vertex 13.7888 -11.5702 -40
    endloop
  endfacet
  facet normal 0 0 -1
    outer loop
      vertex 11.5702 -13.7888 -40
      vertex 11.5702 13.7888 -40
      vertex 13.7888 11.5702 -40
    endloop
  endfacet
  facet normal 0 0 -1
    outer loop
      vertex 9 -15.5885 -40
      vertex 11.5702 13.7888 -40
      vertex 11.5702 -13.7888 -40
    endloop
  endfacet
  facet normal 0 0 -1
    outer loop
      vertex 9 -15.5885 -40
      vertex 9 15.5885 -40
      vertex 11.5702 13.7888 -40
    endloop
  endfacet
  facet normal 0 0 -1
    outer loop
      vertex 6.15636 -16.9145 -40
      vertex 9 15.5885 -40
      vertex 9 -15.5885 -40
    endloop
  endfacet
  facet normal 0 0 -1
    outer loop
      vertex 6.15636 -16.9145 -40
      vertex 6.15636 16.9145 -40
      vertex 9 15.5885 -40
    endloop
  endfacet
  facet normal 0 0 -1
    outer loop
      vertex 3.12567 -17.7265 -40
      vertex 6.15636 16.9145 -40
      vertex 6.15636 -16.9145 -40
    endloop
  endfacet
  facet normal 0 0 -1
    outer loop
      vertex 3.12567 -17.7265 -40
      vertex 3.12567 17.7265 -40
      vertex 6.15636 16.9145 -40
    endloop
  endfacet
  facet normal 0 0 -1
    outer loop
      vertex 0 -18 -40
      vertex 3.12567 17.7265 -40
      vertex 3.12567 -17.7265 -40
    endloop
  endfacet
  facet normal 0 0 -1
    outer loop
      vertex 0 -18 -40
      vertex 0 18 -40
      vertex 3.12567 17.7265 -40
    endloop
  endfacet
  facet normal 0 0 -1
    outer loop
      vertex -3.12567 -17.7265 -40
      vertex 0 18 -40
      vertex 0 -18 -40
    endloop
  endfacet
  facet normal 0 0 -1
    outer loop
      vertex -3.12567 -17.7265 -40
      vertex -3.12567 17.7265 -40
      vertex 0 18 -40
    endloop
  endfacet
  facet normal 0 0 -1
    outer loop
      vertex -6.15636 -16.9145 -40
      vertex -3.12567 17.7265 -40
      vertex -3.12567 -17.7265 -40
    endloop
  endfacet
  facet normal 0 0 -1
    outer loop
      vertex -6.15636 -16.9145 -40
      vertex -6.15636 16.9145 -40
      vertex -3.12567 17.7265 -40
    endloop
  endfacet
  facet normal 0 0 -1
    outer loop
      vertex -9 -15.5885 -40
      vertex -6.15636 16.9145 -40
      vertex -6.15636 -16.9145 -40
    endloop
  endfacet
  facet normal 0 0 -1
    outer loop
      vertex -9 -15.5885 -40
      vertex -9 15.5885 -40
      vertex -6.15636 16.9145 -40
    endloop
  endfacet
  facet normal 0 0 -1
    outer loop
      vertex -11.5702 -13.7888 -40
      vertex -9 15.5885 -40
      vertex -9 -15.5885 -40
    endloop
  endfacet
  facet normal 0 0 -1
    outer loop
      vertex -11.5702 -13.7888 -40
      vertex -11.5702 13.7888 -40
      vertex -9 15.5885 -40
    endloop
  endfacet
  facet normal 0 0 -1
    outer loop
      vertex -13.7888 -11.5702 -40
      vertex -11.5702 13.7888 -40
      vertex -11.5702 -13.7888 -40
    endloop
  endfacet
  facet normal 0 0 -1
    outer loop
      vertex -13.7888 -11.5702 -40
      vertex -13.7888 11.5702 -40
      vertex -11.5702 13.7888 -40
    endloop
  endfacet
  facet normal 0 0 -1
    outer loop
      vertex -15.5885 -9 -40
      vertex -13.7888 11.5702 -40
      vertex -13.7888 -11.5702 -40
    endloop
  endfacet
  facet normal 0 0 -1
    outer loop
      vertex -15.5885 -9 -40
      vertex -15.5885 9 -40
      vertex -13.7888 11.5702 -40
    endloop
  endfacet
  facet normal 0 0 -1
    outer loop
      vertex -16.9145 -6.15636 -40
      vertex -15.5885 9 -40
      vertex -15.5885 -9 -40
    endloop
  endfacet
  facet normal 0 0 -1
    outer loop
      vertex -16.9145 -6.15636 -40
      vertex -16.9145 6.15636 -40
      vertex -15.5885 9 -40
    endloop
  endfacet
  facet normal 0 0 -1
    outer loop
      vertex -17.7265 -3.12567 -40
      vertex -16.9145 6.15636 -40
      vertex -16.9145 -6.15636 -40
    endloop
  endfacet
  facet normal 0 0 -1
    outer loop
      vertex -17.7265 -3.12567 -40
      vertex -17.7265 3.12567 -40
      vertex -16.9145 6.15636 -40
    endloop
  endfacet
  facet normal 0 -0 -1
    outer loop
      vertex -17.7265 3.12567 -40
      vertex -17.7265 -3.12567 -40
      vertex -18 0 -40
    endloop
  endfacet
  facet normal 0.573582 0.819148 -0
    outer loop
      vertex 11.5702 13.7888 20
      vertex 9 15.5885 40
      vertex 11.5702 13.7888 40
    endloop
  endfacet
  facet normal 0.573582 0.819148 0
    outer loop
      vertex 9 15.5885 40
      vertex 11.5702 13.7888 20
      vertex 9 15.5885 20
    endloop
  endfacet
  facet normal 0.573582 0.819148 -0
    outer loop
      vertex 11.5702 13.7888 -40
      vertex 9 15.5885 -20
      vertex 11.5702 13.7888 -20
    endloop
  endfacet
  facet normal 0.573582 0.819148 0
    outer loop
      vertex 9 15.5885 -20
      vertex 11.5702 13.7888 -40
      vertex 9 15.5885 -40
    endloop
  endfacet
  facet normal -0.422615 -0.906309 0
    outer loop
      vertex -9 -15.5885 -40
      vertex -6.15636 -16.9145 -20
      vertex -9 -15.5885 -20
    endloop
  endfacet
  facet normal -0.422615 -0.906309 -0
    outer loop
      vertex -6.15636 -16.9145 -20
      vertex -9 -15.5885 -40
      vertex -6.15636 -16.9145 -40
    endloop
  endfacet
  facet normal -0.422615 -0.906309 0
    outer loop
      vertex -9 -15.5885 20
      vertex -6.15636 -16.9145 40
      vertex -9 -15.5885 40
    endloop
  endfacet
  facet normal -0.422615 -0.906309 -0
    outer loop
      vertex -6.15636 -16.9145 40
      vertex -9 -15.5885 20
      vertex -6.15636 -16.9145 20
    endloop
  endfacet
  facet normal -0.0871682 0.996194 0
    outer loop
      vertex 0 18 20
      vertex -3.12567 17.7265 40
      vertex 0 18 40
    endloop
  endfacet
  facet normal -0.0871682 0.996194 0
    outer loop
      vertex -3.12567 17.7265 40
      vertex 0 18 20
      vertex -3.12567 17.7265 20
    endloop
  endfacet
  facet normal -0.0871682 0.996194 0
    outer loop
      vertex 0 18 -40
      vertex -3.12567 17.7265 -20
      vertex 0 18 -20
    endloop
  endfacet
  facet normal -0.0871682 0.996194 0
    outer loop
      vertex -3.12567 17.7265 -20
      vertex 0 18 -40
      vertex -3.12567 17.7265 -40
    endloop
  endfacet
  facet normal -0.258798 -0.965931 0
    outer loop
      vertex -6.15636 -16.9145 -40
      vertex -3.12567 -17.7265 -20
      vertex -6.15636 -16.9145 -20
    endloop
  endfacet
  facet normal -0.258798 -0.965931 -0
    outer loop
      vertex -3.12567 -17.7265 -20
      vertex -6.15636 -16.9145 -40
      vertex -3.12567 -17.7265 -40
    endloop
  endfacet
  facet normal -0.258798 -0.965931 0
    outer loop
      vertex -6.15636 -16.9145 20
      vertex -3.12567 -17.7265 40
      vertex -6.15636 -16.9145 40
    endloop
  endfacet
  facet normal -0.258798 -0.965931 -0
    outer loop
      vertex -3.12567 -17.7265 40
      vertex -6.15636 -16.9145 20
      vertex -3.12567 -17.7265 20
    endloop
  endfacet
  facet normal -0.906309 -0.422615 0
    outer loop
      vertex -15.5885 -9 -40
      vertex -16.9145 -6.15636 -20
      vertex -16.9145 -6.15636 -40
    endloop
  endfacet
  facet normal -0.906309 -0.422615 0
    outer loop
      vertex -16.9145 -6.15636 -20
      vertex -15.5885 -9 -40
      vertex -15.5885 -9 -20
    endloop
  endfacet
  facet normal -0.906309 -0.422615 0
    outer loop
      vertex -15.5885 -9 20
      vertex -16.9145 -6.15636 40
      vertex -16.9145 -6.15636 20
    endloop
  endfacet
  facet normal -0.906309 -0.422615 0
    outer loop
      vertex -16.9145 -6.15636 40
      vertex -15.5885 -9 20
      vertex -15.5885 -9 40
    endloop
  endfacet
  facet normal 0.0871682 0.996194 -0
    outer loop
      vertex 3.12567 17.7265 -40
      vertex 0 18 -20
      vertex 3.12567 17.7265 -20
    endloop
  endfacet
  facet normal 0.0871682 0.996194 0
    outer loop
      vertex 0 18 -20
      vertex 3.12567 17.7265 -40
      vertex 0 18 -40
    endloop
  endfacet
  facet normal 0.0871682 0.996194 -0
    outer loop
      vertex 3.12567 17.7265 20
      vertex 0 18 40
      vertex 3.12567 17.7265 40
    endloop
  endfacet
  facet normal 0.0871682 0.996194 0
    outer loop
      vertex 0 18 40
      vertex 3.12567 17.7265 20
      vertex 0 18 20
    endloop
  endfacet
  facet normal 0.707107 -0.707107 0
    outer loop
      vertex 11.5702 -13.7888 -20
      vertex 13.7888 -11.5702 -40
      vertex 13.7888 -11.5702 -20
    endloop
  endfacet
  facet normal 0.707107 -0.707107 0
    outer loop
      vertex 13.7888 -11.5702 -40
      vertex 11.5702 -13.7888 -20
      vertex 11.5702 -13.7888 -40
    endloop
  endfacet
  facet normal 0.707107 -0.707107 0
    outer loop
      vertex 11.5702 -13.7888 40
      vertex 13.7888 -11.5702 20
      vertex 13.7888 -11.5702 40
    endloop
  endfacet
  facet normal 0.707107 -0.707107 0
    outer loop
      vertex 13.7888 -11.5702 20
      vertex 11.5702 -13.7888 40
      vertex 11.5702 -13.7888 20
    endloop
  endfacet
  facet normal -0.996194 -0.0871682 0
    outer loop
      vertex -17.7265 -3.12567 20
      vertex -18 0 40
      vertex -18 0 20
    endloop
  endfacet
  facet normal -0.996194 -0.0871682 0
    outer loop
      vertex -18 0 40
      vertex -17.7265 -3.12567 20
      vertex -17.7265 -3.12567 40
    endloop
  endfacet
  facet normal -0.996194 -0.0871682 0
    outer loop
      vertex -17.7265 -3.12567 -40
      vertex -18 0 -20
      vertex -18 0 -40
    endloop
  endfacet
  facet normal -0.996194 -0.0871682 0
    outer loop
      vertex -18 0 -20
      vertex -17.7265 -3.12567 -40
      vertex -17.7265 -3.12567 -20
    endloop
  endfacet
  facet normal 0.258798 0.965931 -0
    outer loop
      vertex 6.15636 16.9145 -40
      vertex 3.12567 17.7265 -20
      vertex 6.15636 16.9145 -20
    endloop
  endfacet
  facet normal 0.258798 0.965931 0
    outer loop
      vertex 3.12567 17.7265 -20
      vertex 6.15636 16.9145 -40
      vertex 3.12567 17.7265 -40
    endloop
  endfacet
  facet normal 0.258798 0.965931 -0
    outer loop
      vertex 6.15636 16.9145 20
      vertex 3.12567 17.7265 40
      vertex 6.15636 16.9145 40
    endloop
  endfacet
  facet normal 0.258798 0.965931 0
    outer loop
      vertex 3.12567 17.7265 40
      vertex 6.15636 16.9145 20
      vertex 3.12567 17.7265 20
    endloop
  endfacet
  facet normal -0.965931 0.258798 0
    outer loop
      vertex -17.7265 3.12567 -40
      vertex -16.9145 6.15636 -20
      vertex -16.9145 6.15636 -40
    endloop
  endfacet
  facet normal -0.965931 0.258798 0
    outer loop
      vertex -16.9145 6.15636 -20
      vertex -17.7265 3.12567 -40
      vertex -17.7265 3.12567 -20
    endloop
  endfacet
  facet normal -0.965931 0.258798 0
    outer loop
      vertex -17.7265 3.12567 20
      vertex -16.9145 6.15636 40
      vertex -16.9145 6.15636 20
    endloop
  endfacet
  facet normal -0.965931 0.258798 0
    outer loop
      vertex -16.9145 6.15636 40
      vertex -17.7265 3.12567 20
      vertex -17.7265 3.12567 40
    endloop
  endfacet
  facet normal -0.707107 0.707107 0
    outer loop
      vertex -13.7888 11.5702 20
      vertex -11.5702 13.7888 40
      vertex -11.5702 13.7888 20
    endloop
  endfacet
  facet normal -0.707107 0.707107 0
    outer loop
      vertex -11.5702 13.7888 40
      vertex -13.7888 11.5702 20
      vertex -13.7888 11.5702 40
    endloop
  endfacet
  facet normal -0.707107 0.707107 0
    outer loop
      vertex -13.7888 11.5702 -40
      vertex -11.5702 13.7888 -20
      vertex -11.5702 13.7888 -40
    endloop
  endfacet
  facet normal -0.707107 0.707107 0
    outer loop
      vertex -11.5702 13.7888 -20
      vertex -13.7888 11.5702 -40
      vertex -13.7888 11.5702 -20
    endloop
  endfacet
  facet normal 0.0871443 -0.996196 0
    outer loop
      vertex 0 -20.5 -20
      vertex 3.55979 -20.1886 20
      vertex 0 -20.5 20
    endloop
  endfacet
  facet normal 0.0871443 -0.996196 0
    outer loop
      vertex 3.55979 -20.1886 20
      vertex 0 -20.5 -20
      vertex 3.55979 -20.1886 -20
    endloop
  endfacet
  facet normal 0.965923 0.25883 0
    outer loop
      vertex 20.1886 3.55979 20
      vertex 19.2637 7.01141 -20
      vertex 19.2637 7.01141 20
    endloop
  endfacet
  facet normal 0.965923 0.25883 0
    outer loop
      vertex 19.2637 7.01141 -20
      vertex 20.1886 3.55979 20
      vertex 20.1886 3.55979 -20
    endloop
  endfacet
  facet normal 0.996196 0.0871443 0
    outer loop
      vertex 20.5 0 20
      vertex 20.1886 3.55979 -20
      vertex 20.1886 3.55979 20
    endloop
  endfacet
  facet normal 0.996196 0.0871443 0
    outer loop
      vertex 20.1886 3.55979 -20
      vertex 20.5 0 20
      vertex 20.5 0 -20
    endloop
  endfacet
  facet normal 0.906306 0.422623 0
    outer loop
      vertex 19.2637 7.01141 20
      vertex 17.7535 10.25 -20
      vertex 17.7535 10.25 20
    endloop
  endfacet
  facet normal 0.906306 0.422623 0
    outer loop
      vertex 17.7535 10.25 -20
      vertex 19.2637 7.01141 20
      vertex 19.2637 7.01141 -20
    endloop
  endfacet
  facet normal 0.819149 0.573581 0
    outer loop
      vertex 17.7535 10.25 20
      vertex 15.7039 13.1771 -20
      vertex 15.7039 13.1771 20
    endloop
  endfacet
  facet normal 0.819149 0.573581 0
    outer loop
      vertex 15.7039 13.1771 -20
      vertex 17.7535 10.25 20
      vertex 17.7535 10.25 -20
    endloop
  endfacet
  facet normal 0.707107 0.707107 0
    outer loop
      vertex 15.7039 13.1771 20
      vertex 13.1771 15.7039 -20
      vertex 13.1771 15.7039 20
    endloop
  endfacet
  facet normal 0.707107 0.707107 0
    outer loop
      vertex 13.1771 15.7039 -20
      vertex 15.7039 13.1771 20
      vertex 15.7039 13.1771 -20
    endloop
  endfacet
  facet normal 0.965923 -0.25883 0
    outer loop
      vertex 19.2637 -7.01141 20
      vertex 20.1886 -3.55979 -20
      vertex 20.1886 -3.55979 20
    endloop
  endfacet
  facet normal 0.965923 -0.25883 0
    outer loop
      vertex 20.1886 -3.55979 -20
      vertex 19.2637 -7.01141 20
      vertex 19.2637 -7.01141 -20
    endloop
  endfacet
  facet normal 0.707107 -0.707107 0
    outer loop
      vertex 13.1771 -15.7039 20
      vertex 15.7039 -13.1771 -20
      vertex 15.7039 -13.1771 20
    endloop
  endfacet
  facet normal 0.707107 -0.707107 0
    outer loop
      vertex 15.7039 -13.1771 -20
      vertex 13.1771 -15.7039 20
      vertex 13.1771 -15.7039 -20
    endloop
  endfacet
  facet normal -0.422623 0.906306 0
    outer loop
      vertex -7.01141 19.2637 -20
      vertex -10.25 17.7535 20
      vertex -7.01141 19.2637 20
    endloop
  endfacet
  facet normal -0.422623 0.906306 0
    outer loop
      vertex -10.25 17.7535 20
      vertex -7.01141 19.2637 -20
      vertex -10.25 17.7535 -20
    endloop
  endfacet
  facet normal 0.25883 -0.965923 0
    outer loop
      vertex 3.55979 -20.1886 -20
      vertex 7.01141 -19.2637 20
      vertex 3.55979 -20.1886 20
    endloop
  endfacet
  facet normal 0.25883 -0.965923 0
    outer loop
      vertex 7.01141 -19.2637 20
      vertex 3.55979 -20.1886 -20
      vertex 7.01141 -19.2637 -20
    endloop
  endfacet
  facet normal -0.906306 0.422623 0
    outer loop
      vertex -19.2637 7.01141 -20
      vertex -17.7535 10.25 20
      vertex -17.7535 10.25 -20
    endloop
  endfacet
  facet normal -0.906306 0.422623 0
    outer loop
      vertex -17.7535 10.25 20
      vertex -19.2637 7.01141 -20
      vertex -19.2637 7.01141 20
    endloop
  endfacet
  facet normal -0.996196 -0.0871443 0
    outer loop
      vertex -20.1886 -3.55979 -20
      vertex -20.5 0 20
      vertex -20.5 0 -20
    endloop
  endfacet
  facet normal -0.996196 -0.0871443 0
    outer loop
      vertex -20.5 0 20
      vertex -20.1886 -3.55979 -20
      vertex -20.1886 -3.55979 20
    endloop
  endfacet
  facet normal 0.819149 -0.573581 0
    outer loop
      vertex 15.7039 -13.1771 20
      vertex 17.7535 -10.25 -20
      vertex 17.7535 -10.25 20
    endloop
  endfacet
  facet normal 0.819149 -0.573581 0
    outer loop
      vertex 17.7535 -10.25 -20
      vertex 15.7039 -13.1771 20
      vertex 15.7039 -13.1771 -20
    endloop
  endfacet
  facet normal -0.965923 0.25883 0
    outer loop
      vertex -20.1886 3.55979 -20
      vertex -19.2637 7.01141 20
      vertex -19.2637 7.01141 -20
    endloop
  endfacet
  facet normal -0.965923 0.25883 0
    outer loop
      vertex -19.2637 7.01141 20
      vertex -20.1886 3.55979 -20
      vertex -20.1886 3.55979 20
    endloop
  endfacet
  facet normal 0.906306 -0.422623 0
    outer loop
      vertex 17.7535 -10.25 20
      vertex 19.2637 -7.01141 -20
      vertex 19.2637 -7.01141 20
    endloop
  endfacet
  facet normal 0.906306 -0.422623 0
    outer loop
      vertex 19.2637 -7.01141 -20
      vertex 17.7535 -10.25 20
      vertex 17.7535 -10.25 -20
    endloop
  endfacet
  facet normal 0.422623 0.906306 -0
    outer loop
      vertex 10.25 17.7535 -20
      vertex 7.01141 19.2637 20
      vertex 10.25 17.7535 20
    endloop
  endfacet
  facet normal 0.422623 0.906306 0
    outer loop
      vertex 7.01141 19.2637 20
      vertex 10.25 17.7535 -20
      vertex 7.01141 19.2637 -20
    endloop
  endfacet
  facet normal -0.965923 -0.25883 0
    outer loop
      vertex -19.2637 -7.01141 -20
      vertex -20.1886 -3.55979 20
      vertex -20.1886 -3.55979 -20
    endloop
  endfacet
  facet normal -0.965923 -0.25883 0
    outer loop
      vertex -20.1886 -3.55979 20
      vertex -19.2637 -7.01141 -20
      vertex -19.2637 -7.01141 20
    endloop
  endfacet
  facet normal 0.996196 -0.0871443 0
    outer loop
      vertex 20.1886 -3.55979 20
      vertex 20.5 0 -20
      vertex 20.5 0 20
    endloop
  endfacet
  facet normal 0.996196 -0.0871443 0
    outer loop
      vertex 20.5 0 -20
      vertex 20.1886 -3.55979 20
      vertex 20.1886 -3.55979 -20
    endloop
  endfacet
  facet normal 0.573581 -0.819149 0
    outer loop
      vertex 10.25 -17.7535 -20
      vertex 13.1771 -15.7039 20
      vertex 10.25 -17.7535 20
    endloop
  endfacet
  facet normal 0.573581 -0.819149 0
    outer loop
      vertex 13.1771 -15.7039 20
      vertex 10.25 -17.7535 -20
      vertex 13.1771 -15.7039 -20
    endloop
  endfacet
  facet normal -0.573581 0.819149 0
    outer loop
      vertex -10.25 17.7535 -20
      vertex -13.1771 15.7039 20
      vertex -10.25 17.7535 20
    endloop
  endfacet
  facet normal -0.573581 0.819149 0
    outer loop
      vertex -13.1771 15.7039 20
      vertex -10.25 17.7535 -20
      vertex -13.1771 15.7039 -20
    endloop
  endfacet
  facet normal 0.573581 0.819149 -0
    outer loop
      vertex 13.1771 15.7039 -20
      vertex 10.25 17.7535 20
      vertex 13.1771 15.7039 20
    endloop
  endfacet
  facet normal 0.573581 0.819149 0
    outer loop
      vertex 10.25 17.7535 20
      vertex 13.1771 15.7039 -20
      vertex 10.25 17.7535 -20
    endloop
  endfacet
  facet normal -0.25883 0.965923 0
    outer loop
      vertex -3.55979 20.1886 -20
      vertex -7.01141 19.2637 20
      vertex -3.55979 20.1886 20
    endloop
  endfacet
  facet normal -0.25883 0.965923 0
    outer loop
      vertex -7.01141 19.2637 20
      vertex -3.55979 20.1886 -20
      vertex -7.01141 19.2637 -20
    endloop
  endfacet
  facet normal -0.422623 -0.906306 0
    outer loop
      vertex -10.25 -17.7535 -20
      vertex -7.01141 -19.2637 20
      vertex -10.25 -17.7535 20
    endloop
  endfacet
  facet normal -0.422623 -0.906306 -0
    outer loop
      vertex -7.01141 -19.2637 20
      vertex -10.25 -17.7535 -20
      vertex -7.01141 -19.2637 -20
    endloop
  endfacet
  facet normal -0.707107 0.707107 0
    outer loop
      vertex -15.7039 13.1771 -20
      vertex -13.1771 15.7039 20
      vertex -13.1771 15.7039 -20
    endloop
  endfacet
  facet normal -0.707107 0.707107 0
    outer loop
      vertex -13.1771 15.7039 20
      vertex -15.7039 13.1771 -20
      vertex -15.7039 13.1771 20
    endloop
  endfacet
  facet normal -0.0871443 0.996196 0
    outer loop
      vertex 0 20.5 -20
      vertex -3.55979 20.1886 20
      vertex 0 20.5 20
    endloop
  endfacet
  facet normal -0.0871443 0.996196 0
    outer loop
      vertex -3.55979 20.1886 20
      vertex 0 20.5 -20
      vertex -3.55979 20.1886 -20
    endloop
  endfacet
  facet normal -0.906306 -0.422623 0
    outer loop
      vertex -17.7535 -10.25 -20
      vertex -19.2637 -7.01141 20
      vertex -19.2637 -7.01141 -20
    endloop
  endfacet
  facet normal -0.906306 -0.422623 0
    outer loop
      vertex -19.2637 -7.01141 20
      vertex -17.7535 -10.25 -20
      vertex -17.7535 -10.25 20
    endloop
  endfacet
  facet normal 0.0871443 0.996196 -0
    outer loop
      vertex 3.55979 20.1886 -20
      vertex 0 20.5 20
      vertex 3.55979 20.1886 20
    endloop
  endfacet
  facet normal 0.0871443 0.996196 0
    outer loop
      vertex 0 20.5 20
      vertex 3.55979 20.1886 -20
      vertex 0 20.5 -20
    endloop
  endfacet
  facet normal -0.996196 0.0871443 0
    outer loop
      vertex -20.5 0 -20
      vertex -20.1886 3.55979 20
      vertex -20.1886 3.55979 -20
    endloop
  endfacet
  facet normal -0.996196 0.0871443 0
    outer loop
      vertex -20.1886 3.55979 20
      vertex -20.5 0 -20
      vertex -20.5 0 20
    endloop
  endfacet
  facet normal -0.819149 -0.573581 0
    outer loop
      vertex -15.7039 -13.1771 -20
      vertex -17.7535 -10.25 20
      vertex -17.7535 -10.25 -20
    endloop
  endfacet
  facet normal -0.819149 -0.573581 0
    outer loop
      vertex -17.7535 -10.25 20
      vertex -15.7039 -13.1771 -20
      vertex -15.7039 -13.1771 20
    endloop
  endfacet
  facet normal 0 0 1
    outer loop
      vertex 18 0 20
      vertex 20.5 0 20
      vertex 20.1886 3.55979 20
    endloop
  endfacet
  facet normal 0 0 1
    outer loop
      vertex 17.7265 3.12567 20
      vertex 20.1886 3.55979 20
      vertex 19.2637 7.01141 20
    endloop
  endfacet
  facet normal 0 0 1
    outer loop
      vertex 20.5 0 20
      vertex 18 0 20
      vertex 20.1886 -3.55979 20
    endloop
  endfacet
  facet normal -0 0 1
    outer loop
      vertex 17.7265 -3.12567 20
      vertex 20.1886 -3.55979 20
      vertex 18 0 20
    endloop
  endfacet
  facet normal 0 0 1
    outer loop
      vertex 16.9145 6.15636 20
      vertex 19.2637 7.01141 20
      vertex 17.7535 10.25 20
    endloop
  endfacet
  facet normal 0 0 1
    outer loop
      vertex 20.1886 3.55979 20
      vertex 17.7265 3.12567 20
      vertex 18 0 20
    endloop
  endfacet
  facet normal 0 0 1
    outer loop
      vertex 19.2637 7.01141 20
      vertex 16.9145 6.15636 20
      vertex 17.7265 3.12567 20
    endloop
  endfacet
  facet normal 0 0 1
    outer loop
      vertex 15.5885 9 20
      vertex 17.7535 10.25 20
      vertex 15.7039 13.1771 20
    endloop
  endfacet
  facet normal 0 0 1
    outer loop
      vertex 17.7535 10.25 20
      vertex 15.5885 9 20
      vertex 16.9145 6.15636 20
    endloop
  endfacet
  facet normal 0 0 1
    outer loop
      vertex 15.7039 13.1771 20
      vertex 13.7888 11.5702 20
      vertex 15.5885 9 20
    endloop
  endfacet
  facet normal 0 0 1
    outer loop
      vertex 13.1771 15.7039 20
      vertex 13.7888 11.5702 20
      vertex 15.7039 13.1771 20
    endloop
  endfacet
  facet normal 0 0 1
    outer loop
      vertex 13.1771 15.7039 20
      vertex 11.5702 13.7888 20
      vertex 13.7888 11.5702 20
    endloop
  endfacet
  facet normal 0 0 1
    outer loop
      vertex 10.25 17.7535 20
      vertex 11.5702 13.7888 20
      vertex 13.1771 15.7039 20
    endloop
  endfacet
  facet normal 0 0 1
    outer loop
      vertex 10.25 17.7535 20
      vertex 9 15.5885 20
      vertex 11.5702 13.7888 20
    endloop
  endfacet
  facet normal 0 0 1
    outer loop
      vertex 7.01141 19.2637 20
      vertex 9 15.5885 20
      vertex 10.25 17.7535 20
    endloop
  endfacet
  facet normal 0 0 1
    outer loop
      vertex 7.01141 19.2637 20
      vertex 6.15636 16.9145 20
      vertex 9 15.5885 20
    endloop
  endfacet
  facet normal 0 0 1
    outer loop
      vertex 3.55979 20.1886 20
      vertex 6.15636 16.9145 20
      vertex 7.01141 19.2637 20
    endloop
  endfacet
  facet normal 0 0 1
    outer loop
      vertex 3.55979 20.1886 20
      vertex 3.12567 17.7265 20
      vertex 6.15636 16.9145 20
    endloop
  endfacet
  facet normal 0 0 1
    outer loop
      vertex 0 20.5 20
      vertex 3.12567 17.7265 20
      vertex 3.55979 20.1886 20
    endloop
  endfacet
  facet normal 0 0 1
    outer loop
      vertex 0 20.5 20
      vertex 0 18 20
      vertex 3.12567 17.7265 20
    endloop
  endfacet
  facet normal 0 0 1
    outer loop
      vertex 0 20.5 20
      vertex -3.12567 17.7265 20
      vertex 0 18 20
    endloop
  endfacet
  facet normal -0 0 1
    outer loop
      vertex -3.55979 20.1886 20
      vertex -3.12567 17.7265 20
      vertex 0 20.5 20
    endloop
  endfacet
  facet normal 0 0 1
    outer loop
      vertex -3.55979 20.1886 20
      vertex -6.15636 16.9145 20
      vertex -3.12567 17.7265 20
    endloop
  endfacet
  facet normal -0 0 1
    outer loop
      vertex -7.01141 19.2637 20
      vertex -6.15636 16.9145 20
      vertex -3.55979 20.1886 20
    endloop
  endfacet
  facet normal 0 0 1
    outer loop
      vertex -7.01141 19.2637 20
      vertex -9 15.5885 20
      vertex -6.15636 16.9145 20
    endloop
  endfacet
  facet normal -0 0 1
    outer loop
      vertex -10.25 17.7535 20
      vertex -9 15.5885 20
      vertex -7.01141 19.2637 20
    endloop
  endfacet
  facet normal 0 0 1
    outer loop
      vertex -10.25 17.7535 20
      vertex -11.5702 13.7888 20
      vertex -9 15.5885 20
    endloop
  endfacet
  facet normal -0 0 1
    outer loop
      vertex -13.1771 15.7039 20
      vertex -11.5702 13.7888 20
      vertex -10.25 17.7535 20
    endloop
  endfacet
  facet normal 0 0 1
    outer loop
      vertex -13.1771 15.7039 20
      vertex -13.7888 11.5702 20
      vertex -11.5702 13.7888 20
    endloop
  endfacet
  facet normal -0 0 1
    outer loop
      vertex -15.7039 13.1771 20
      vertex -13.7888 11.5702 20
      vertex -13.1771 15.7039 20
    endloop
  endfacet
  facet normal 0 0 1
    outer loop
      vertex -13.7888 11.5702 20
      vertex -15.7039 13.1771 20
      vertex -15.5885 9 20
    endloop
  endfacet
  facet normal -0 0 1
    outer loop
      vertex -17.7535 10.25 20
      vertex -15.5885 9 20
      vertex -15.7039 13.1771 20
    endloop
  endfacet
  facet normal 0 0 1
    outer loop
      vertex -15.5885 9 20
      vertex -17.7535 10.25 20
      vertex -16.9145 6.15636 20
    endloop
  endfacet
  facet normal -0 0 1
    outer loop
      vertex -19.2637 7.01141 20
      vertex -16.9145 6.15636 20
      vertex -17.7535 10.25 20
    endloop
  endfacet
  facet normal 0 0 1
    outer loop
      vertex -16.9145 6.15636 20
      vertex -19.2637 7.01141 20
      vertex -17.7265 3.12567 20
    endloop
  endfacet
  facet normal -0 0 1
    outer loop
      vertex -20.1886 3.55979 20
      vertex -17.7265 3.12567 20
      vertex -19.2637 7.01141 20
    endloop
  endfacet
  facet normal 0 0 1
    outer loop
      vertex 20.1886 -3.55979 20
      vertex 17.7265 -3.12567 20
      vertex 19.2637 -7.01141 20
    endloop
  endfacet
  facet normal -0 0 1
    outer loop
      vertex 16.9145 -6.15636 20
      vertex 19.2637 -7.01141 20
      vertex 17.7265 -3.12567 20
    endloop
  endfacet
  facet normal 0 0 1
    outer loop
      vertex 19.2637 -7.01141 20
      vertex 16.9145 -6.15636 20
      vertex 17.7535 -10.25 20
    endloop
  endfacet
  facet normal -0 0 1
    outer loop
      vertex 15.5885 -9 20
      vertex 17.7535 -10.25 20
      vertex 16.9145 -6.15636 20
    endloop
  endfacet
  facet normal 0 0 1
    outer loop
      vertex 17.7535 -10.25 20
      vertex 15.5885 -9 20
      vertex 15.7039 -13.1771 20
    endloop
  endfacet
  facet normal -0 0 1
    outer loop
      vertex 13.7888 -11.5702 20
      vertex 15.7039 -13.1771 20
      vertex 15.5885 -9 20
    endloop
  endfacet
  facet normal 0 0 1
    outer loop
      vertex 13.7888 -11.5702 20
      vertex 13.1771 -15.7039 20
      vertex 15.7039 -13.1771 20
    endloop
  endfacet
  facet normal -0 0 1
    outer loop
      vertex 11.5702 -13.7888 20
      vertex 13.1771 -15.7039 20
      vertex 13.7888 -11.5702 20
    endloop
  endfacet
  facet normal 0 0 1
    outer loop
      vertex 11.5702 -13.7888 20
      vertex 10.25 -17.7535 20
      vertex 13.1771 -15.7039 20
    endloop
  endfacet
  facet normal -0 0 1
    outer loop
      vertex 9 -15.5885 20
      vertex 10.25 -17.7535 20
      vertex 11.5702 -13.7888 20
    endloop
  endfacet
  facet normal 0 0 1
    outer loop
      vertex 9 -15.5885 20
      vertex 7.01141 -19.2637 20
      vertex 10.25 -17.7535 20
    endloop
  endfacet
  facet normal -0 0 1
    outer loop
      vertex 6.15636 -16.9145 20
      vertex 7.01141 -19.2637 20
      vertex 9 -15.5885 20
    endloop
  endfacet
  facet normal 0 0 1
    outer loop
      vertex 6.15636 -16.9145 20
      vertex 3.55979 -20.1886 20
      vertex 7.01141 -19.2637 20
    endloop
  endfacet
  facet normal -0 0 1
    outer loop
      vertex 3.12567 -17.7265 20
      vertex 3.55979 -20.1886 20
      vertex 6.15636 -16.9145 20
    endloop
  endfacet
  facet normal -0 0 1
    outer loop
      vertex 0 -18 20
      vertex 3.55979 -20.1886 20
      vertex 3.12567 -17.7265 20
    endloop
  endfacet
  facet normal 0 0 1
    outer loop
      vertex 0 -18 20
      vertex 0 -20.5 20
      vertex 3.55979 -20.1886 20
    endloop
  endfacet
  facet normal 0 0 1
    outer loop
      vertex -3.12567 -17.7265 20
      vertex 0 -20.5 20
      vertex 0 -18 20
    endloop
  endfacet
  facet normal 0 0 1
    outer loop
      vertex -3.12567 -17.7265 20
      vertex -3.55979 -20.1886 20
      vertex 0 -20.5 20
    endloop
  endfacet
  facet normal 0 0 1
    outer loop
      vertex -6.15636 -16.9145 20
      vertex -3.55979 -20.1886 20
      vertex -3.12567 -17.7265 20
    endloop
  endfacet
  facet normal 0 0 1
    outer loop
      vertex -6.15636 -16.9145 20
      vertex -7.01141 -19.2637 20
      vertex -3.55979 -20.1886 20
    endloop
  endfacet
  facet normal 0 0 1
    outer loop
      vertex -9 -15.5885 20
      vertex -7.01141 -19.2637 20
      vertex -6.15636 -16.9145 20
    endloop
  endfacet
  facet normal 0 0 1
    outer loop
      vertex -9 -15.5885 20
      vertex -10.25 -17.7535 20
      vertex -7.01141 -19.2637 20
    endloop
  endfacet
  facet normal 0 0 1
    outer loop
      vertex -11.5702 -13.7888 20
      vertex -10.25 -17.7535 20
      vertex -9 -15.5885 20
    endloop
  endfacet
  facet normal 0 0 1
    outer loop
      vertex -11.5702 -13.7888 20
      vertex -13.1771 -15.7039 20
      vertex -10.25 -17.7535 20
    endloop
  endfacet
  facet normal 0 0 1
    outer loop
      vertex -13.7888 -11.5702 20
      vertex -13.1771 -15.7039 20
      vertex -11.5702 -13.7888 20
    endloop
  endfacet
  facet normal 0 0 1
    outer loop
      vertex -15.7039 -13.1771 20
      vertex -13.7888 -11.5702 20
      vertex -15.5885 -9 20
    endloop
  endfacet
  facet normal 0 0 1
    outer loop
      vertex -13.7888 -11.5702 20
      vertex -15.7039 -13.1771 20
      vertex -13.1771 -15.7039 20
    endloop
  endfacet
  facet normal 0 0 1
    outer loop
      vertex -17.7535 -10.25 20
      vertex -15.5885 -9 20
      vertex -16.9145 -6.15636 20
    endloop
  endfacet
  facet normal 0 0 1
    outer loop
      vertex -19.2637 -7.01141 20
      vertex -16.9145 -6.15636 20
      vertex -17.7265 -3.12567 20
    endloop
  endfacet
  facet normal 0 0 1
    outer loop
      vertex -15.5885 -9 20
      vertex -17.7535 -10.25 20
      vertex -15.7039 -13.1771 20
    endloop
  endfacet
  facet normal 0 0 1
    outer loop
      vertex -20.1886 -3.55979 20
      vertex -17.7265 -3.12567 20
      vertex -18 0 20
    endloop
  endfacet
  facet normal 0 0 1
    outer loop
      vertex -17.7265 3.12567 20
      vertex -20.1886 3.55979 20
      vertex -18 0 20
    endloop
  endfacet
  facet normal 0 0 1
    outer loop
      vertex -16.9145 -6.15636 20
      vertex -19.2637 -7.01141 20
      vertex -17.7535 -10.25 20
    endloop
  endfacet
  facet normal 0 0 1
    outer loop
      vertex -20.5 0 20
      vertex -18 0 20
      vertex -20.1886 3.55979 20
    endloop
  endfacet
  facet normal 0 0 1
    outer loop
      vertex -17.7265 -3.12567 20
      vertex -20.1886 -3.55979 20
      vertex -19.2637 -7.01141 20
    endloop
  endfacet
  facet normal 0 0 1
    outer loop
      vertex -18 0 20
      vertex -20.5 0 20
      vertex -20.1886 -3.55979 20
    endloop
  endfacet
  facet normal -0.707107 -0.707107 0
    outer loop
      vertex -13.1771 -15.7039 -20
      vertex -15.7039 -13.1771 20
      vertex -15.7039 -13.1771 -20
    endloop
  endfacet
  facet normal -0.707107 -0.707107 0
    outer loop
      vertex -15.7039 -13.1771 20
      vertex -13.1771 -15.7039 -20
      vertex -13.1771 -15.7039 20
    endloop
  endfacet
  facet normal 0.422623 -0.906306 0
    outer loop
      vertex 7.01141 -19.2637 -20
      vertex 10.25 -17.7535 20
      vertex 7.01141 -19.2637 20
    endloop
  endfacet
  facet normal 0.422623 -0.906306 0
    outer loop
      vertex 10.25 -17.7535 20
      vertex 7.01141 -19.2637 -20
      vertex 10.25 -17.7535 -20
    endloop
  endfacet
  facet normal -0.819149 0.573581 0
    outer loop
      vertex -17.7535 10.25 -20
      vertex -15.7039 13.1771 20
      vertex -15.7039 13.1771 -20
    endloop
  endfacet
  facet normal -0.819149 0.573581 0
    outer loop
      vertex -15.7039 13.1771 20
      vertex -17.7535 10.25 -20
      vertex -17.7535 10.25 20
    endloop
  endfacet
  facet normal 0.25883 0.965923 -0
    outer loop
      vertex 7.01141 19.2637 -20
      vertex 3.55979 20.1886 20
      vertex 7.01141 19.2637 20
    endloop
  endfacet
  facet normal 0.25883 0.965923 0
    outer loop
      vertex 3.55979 20.1886 20
      vertex 7.01141 19.2637 -20
      vertex 3.55979 20.1886 -20
    endloop
  endfacet
  facet normal -0.0871443 -0.996196 0
    outer loop
      vertex -3.55979 -20.1886 -20
      vertex 0 -20.5 20
      vertex -3.55979 -20.1886 20
    endloop
  endfacet
  facet normal -0.0871443 -0.996196 -0
    outer loop
      vertex 0 -20.5 20
      vertex -3.55979 -20.1886 -20
      vertex 0 -20.5 -20
    endloop
  endfacet
  facet normal -0.25883 -0.965923 0
    outer loop
      vertex -7.01141 -19.2637 -20
      vertex -3.55979 -20.1886 20
      vertex -7.01141 -19.2637 20
    endloop
  endfacet
  facet normal -0.25883 -0.965923 -0
    outer loop
      vertex -3.55979 -20.1886 20
      vertex -7.01141 -19.2637 -20
      vertex -3.55979 -20.1886 -20
    endloop
  endfacet
  facet normal 0 0 -1
    outer loop
      vertex 18 0 -20
      vertex 20.5 0 -20
      vertex 20.1886 -3.55979 -20
    endloop
  endfacet
  facet normal 0 0 -1
    outer loop
      vertex 17.7265 -3.12567 -20
      vertex 20.1886 -3.55979 -20
      vertex 19.2637 -7.01141 -20
    endloop
  endfacet
  facet normal 0 0 -1
    outer loop
      vertex 20.5 0 -20
      vertex 18 0 -20
      vertex 20.1886 3.55979 -20
    endloop
  endfacet
  facet normal 0 0 -1
    outer loop
      vertex 17.7265 3.12567 -20
      vertex 20.1886 3.55979 -20
      vertex 18 0 -20
    endloop
  endfacet
  facet normal 0 0 -1
    outer loop
      vertex 16.9145 -6.15636 -20
      vertex 19.2637 -7.01141 -20
      vertex 17.7535 -10.25 -20
    endloop
  endfacet
  facet normal 0 0 -1
    outer loop
      vertex 20.1886 -3.55979 -20
      vertex 17.7265 -3.12567 -20
      vertex 18 0 -20
    endloop
  endfacet
  facet normal 0 0 -1
    outer loop
      vertex 19.2637 -7.01141 -20
      vertex 16.9145 -6.15636 -20
      vertex 17.7265 -3.12567 -20
    endloop
  endfacet
  facet normal 0 0 -1
    outer loop
      vertex 15.5885 -9 -20
      vertex 17.7535 -10.25 -20
      vertex 15.7039 -13.1771 -20
    endloop
  endfacet
  facet normal 0 0 -1
    outer loop
      vertex 17.7535 -10.25 -20
      vertex 15.5885 -9 -20
      vertex 16.9145 -6.15636 -20
    endloop
  endfacet
  facet normal 0 0 -1
    outer loop
      vertex 15.7039 -13.1771 -20
      vertex 13.7888 -11.5702 -20
      vertex 15.5885 -9 -20
    endloop
  endfacet
  facet normal 0 0 -1
    outer loop
      vertex 13.1771 -15.7039 -20
      vertex 13.7888 -11.5702 -20
      vertex 15.7039 -13.1771 -20
    endloop
  endfacet
  facet normal 0 0 -1
    outer loop
      vertex 13.1771 -15.7039 -20
      vertex 11.5702 -13.7888 -20
      vertex 13.7888 -11.5702 -20
    endloop
  endfacet
  facet normal 0 0 -1
    outer loop
      vertex 10.25 -17.7535 -20
      vertex 11.5702 -13.7888 -20
      vertex 13.1771 -15.7039 -20
    endloop
  endfacet
  facet normal 0 0 -1
    outer loop
      vertex 10.25 -17.7535 -20
      vertex 9 -15.5885 -20
      vertex 11.5702 -13.7888 -20
    endloop
  endfacet
  facet normal 0 0 -1
    outer loop
      vertex 7.01141 -19.2637 -20
      vertex 9 -15.5885 -20
      vertex 10.25 -17.7535 -20
    endloop
  endfacet
  facet normal 0 0 -1
    outer loop
      vertex 7.01141 -19.2637 -20
      vertex 6.15636 -16.9145 -20
      vertex 9 -15.5885 -20
    endloop
  endfacet
  facet normal 0 0 -1
    outer loop
      vertex 3.55979 -20.1886 -20
      vertex 6.15636 -16.9145 -20
      vertex 7.01141 -19.2637 -20
    endloop
  endfacet
  facet normal 0 0 -1
    outer loop
      vertex 3.55979 -20.1886 -20
      vertex 3.12567 -17.7265 -20
      vertex 6.15636 -16.9145 -20
    endloop
  endfacet
  facet normal 0 0 -1
    outer loop
      vertex 0 -20.5 -20
      vertex 3.12567 -17.7265 -20
      vertex 3.55979 -20.1886 -20
    endloop
  endfacet
  facet normal 0 0 -1
    outer loop
      vertex 0 -20.5 -20
      vertex 0 -18 -20
      vertex 3.12567 -17.7265 -20
    endloop
  endfacet
  facet normal 0 0 -1
    outer loop
      vertex 0 -20.5 -20
      vertex -3.12567 -17.7265 -20
      vertex 0 -18 -20
    endloop
  endfacet
  facet normal 0 0 -1
    outer loop
      vertex -3.55979 -20.1886 -20
      vertex -3.12567 -17.7265 -20
      vertex 0 -20.5 -20
    endloop
  endfacet
  facet normal 0 0 -1
    outer loop
      vertex -3.55979 -20.1886 -20
      vertex -6.15636 -16.9145 -20
      vertex -3.12567 -17.7265 -20
    endloop
  endfacet
  facet normal 0 0 -1
    outer loop
      vertex -7.01141 -19.2637 -20
      vertex -6.15636 -16.9145 -20
      vertex -3.55979 -20.1886 -20
    endloop
  endfacet
  facet normal 0 0 -1
    outer loop
      vertex -7.01141 -19.2637 -20
      vertex -9 -15.5885 -20
      vertex -6.15636 -16.9145 -20
    endloop
  endfacet
  facet normal 0 0 -1
    outer loop
      vertex -10.25 -17.7535 -20
      vertex -9 -15.5885 -20
      vertex -7.01141 -19.2637 -20
    endloop
  endfacet
  facet normal 0 0 -1
    outer loop
      vertex -10.25 -17.7535 -20
      vertex -11.5702 -13.7888 -20
      vertex -9 -15.5885 -20
    endloop
  endfacet
  facet normal 0 0 -1
    outer loop
      vertex -13.1771 -15.7039 -20
      vertex -11.5702 -13.7888 -20
      vertex -10.25 -17.7535 -20
    endloop
  endfacet
  facet normal 0 0 -1
    outer loop
      vertex -13.1771 -15.7039 -20
      vertex -13.7888 -11.5702 -20
      vertex -11.5702 -13.7888 -20
    endloop
  endfacet
  facet normal 0 0 -1
    outer loop
      vertex -15.7039 -13.1771 -20
      vertex -13.7888 -11.5702 -20
      vertex -13.1771 -15.7039 -20
    endloop
  endfacet
  facet normal -0 0 -1
    outer loop
      vertex -13.7888 -11.5702 -20
      vertex -15.7039 -13.1771 -20
      vertex -15.5885 -9 -20
    endloop
  endfacet
  facet normal 0 0 -1
    outer loop
      vertex -17.7535 -10.25 -20
      vertex -15.5885 -9 -20
      vertex -15.7039 -13.1771 -20
    endloop
  endfacet
  facet normal -0 0 -1
    outer loop
      vertex -15.5885 -9 -20
      vertex -17.7535 -10.25 -20
      vertex -16.9145 -6.15636 -20
    endloop
  endfacet
  facet normal 0 0 -1
    outer loop
      vertex -19.2637 -7.01141 -20
      vertex -16.9145 -6.15636 -20
      vertex -17.7535 -10.25 -20
    endloop
  endfacet
  facet normal -0 0 -1
    outer loop
      vertex -16.9145 -6.15636 -20
      vertex -19.2637 -7.01141 -20
      vertex -17.7265 -3.12567 -20
    endloop
  endfacet
  facet normal 0 0 -1
    outer loop
      vertex -20.1886 -3.55979 -20
      vertex -17.7265 -3.12567 -20
      vertex -19.2637 -7.01141 -20
    endloop
  endfacet
  facet normal -0 0 -1
    outer loop
      vertex 20.1886 3.55979 -20
      vertex 17.7265 3.12567 -20
      vertex 19.2637 7.01141 -20
    endloop
  endfacet
  facet normal 0 0 -1
    outer loop
      vertex 16.9145 6.15636 -20
      vertex 19.2637 7.01141 -20
      vertex 17.7265 3.12567 -20
    endloop
  endfacet
  facet normal -0 0 -1
    outer loop
      vertex 19.2637 7.01141 -20
      vertex 16.9145 6.15636 -20
      vertex 17.7535 10.25 -20
    endloop
  endfacet
  facet normal 0 0 -1
    outer loop
      vertex 15.5885 9 -20
      vertex 17.7535 10.25 -20
      vertex 16.9145 6.15636 -20
    endloop
  endfacet
  facet normal -0 0 -1
    outer loop
      vertex 17.7535 10.25 -20
      vertex 15.5885 9 -20
      vertex 15.7039 13.1771 -20
    endloop
  endfacet
  facet normal 0 0 -1
    outer loop
      vertex 13.7888 11.5702 -20
      vertex 15.7039 13.1771 -20
      vertex 15.5885 9 -20
    endloop
  endfacet
  facet normal 0 0 -1
    outer loop
      vertex 13.7888 11.5702 -20
      vertex 13.1771 15.7039 -20
      vertex 15.7039 13.1771 -20
    endloop
  endfacet
  facet normal 0 0 -1
    outer loop
      vertex 11.5702 13.7888 -20
      vertex 13.1771 15.7039 -20
      vertex 13.7888 11.5702 -20
    endloop
  endfacet
  facet normal 0 0 -1
    outer loop
      vertex 11.5702 13.7888 -20
      vertex 10.25 17.7535 -20
      vertex 13.1771 15.7039 -20
    endloop
  endfacet
  facet normal 0 0 -1
    outer loop
      vertex 9 15.5885 -20
      vertex 10.25 17.7535 -20
      vertex 11.5702 13.7888 -20
    endloop
  endfacet
  facet normal 0 0 -1
    outer loop
      vertex 9 15.5885 -20
      vertex 7.01141 19.2637 -20
      vertex 10.25 17.7535 -20
    endloop
  endfacet
  facet normal 0 0 -1
    outer loop
      vertex 6.15636 16.9145 -20
      vertex 7.01141 19.2637 -20
      vertex 9 15.5885 -20
    endloop
  endfacet
  facet normal 0 0 -1
    outer loop
      vertex 6.15636 16.9145 -20
      vertex 3.55979 20.1886 -20
      vertex 7.01141 19.2637 -20
    endloop
  endfacet
  facet normal 0 0 -1
    outer loop
      vertex 3.12567 17.7265 -20
      vertex 3.55979 20.1886 -20
      vertex 6.15636 16.9145 -20
    endloop
  endfacet
  facet normal 0 0 -1
    outer loop
      vertex 0 18 -20
      vertex 3.55979 20.1886 -20
      vertex 3.12567 17.7265 -20
    endloop
  endfacet
  facet normal 0 0 -1
    outer loop
      vertex 0 18 -20
      vertex 0 20.5 -20
      vertex 3.55979 20.1886 -20
    endloop
  endfacet
  facet normal 0 0 -1
    outer loop
      vertex -3.12567 17.7265 -20
      vertex 0 20.5 -20
      vertex 0 18 -20
    endloop
  endfacet
  facet normal 0 0 -1
    outer loop
      vertex -3.12567 17.7265 -20
      vertex -3.55979 20.1886 -20
      vertex 0 20.5 -20
    endloop
  endfacet
  facet normal 0 0 -1
    outer loop
      vertex -6.15636 16.9145 -20
      vertex -3.55979 20.1886 -20
      vertex -3.12567 17.7265 -20
    endloop
  endfacet
  facet normal 0 0 -1
    outer loop
      vertex -6.15636 16.9145 -20
      vertex -7.01141 19.2637 -20
      vertex -3.55979 20.1886 -20
    endloop
  endfacet
  facet normal 0 0 -1
    outer loop
      vertex -9 15.5885 -20
      vertex -7.01141 19.2637 -20
      vertex -6.15636 16.9145 -20
    endloop
  endfacet
  facet normal 0 0 -1
    outer loop
      vertex -9 15.5885 -20
      vertex -10.25 17.7535 -20
      vertex -7.01141 19.2637 -20
    endloop
  endfacet
  facet normal 0 0 -1
    outer loop
      vertex -11.5702 13.7888 -20
      vertex -10.25 17.7535 -20
      vertex -9 15.5885 -20
    endloop
  endfacet
  facet normal 0 0 -1
    outer loop
      vertex -11.5702 13.7888 -20
      vertex -13.1771 15.7039 -20
      vertex -10.25 17.7535 -20
    endloop
  endfacet
  facet normal 0 0 -1
    outer loop
      vertex -13.7888 11.5702 -20
      vertex -13.1771 15.7039 -20
      vertex -11.5702 13.7888 -20
    endloop
  endfacet
  facet normal 0 0 -1
    outer loop
      vertex -15.7039 13.1771 -20
      vertex -13.7888 11.5702 -20
      vertex -15.5885 9 -20
    endloop
  endfacet
  facet normal 0 0 -1
    outer loop
      vertex -13.7888 11.5702 -20
      vertex -15.7039 13.1771 -20
      vertex -13.1771 15.7039 -20
    endloop
  endfacet
  facet normal 0 0 -1
    outer loop
      vertex -17.7535 10.25 -20
      vertex -15.5885 9 -20
      vertex -16.9145 6.15636 -20
    endloop
  endfacet
  facet normal 0 0 -1
    outer loop
      vertex -19.2637 7.01141 -20
      vertex -16.9145 6.15636 -20
      vertex -17.7265 3.12567 -20
    endloop
  endfacet
  facet normal 0 0 -1
    outer loop
      vertex -15.5885 9 -20
      vertex -17.7535 10.25 -20
      vertex -15.7039 13.1771 -20
    endloop
  endfacet
  facet normal 0 0 -1
    outer loop
      vertex -20.1886 3.55979 -20
      vertex -17.7265 3.12567 -20
      vertex -18 0 -20
    endloop
  endfacet
  facet normal -0 0 -1
    outer loop
      vertex -17.7265 -3.12567 -20
      vertex -20.1886 -3.55979 -20
      vertex -18 0 -20
    endloop
  endfacet
  facet normal 0 0 -1
    outer loop
      vertex -16.9145 6.15636 -20
      vertex -19.2637 7.01141 -20
      vertex -17.7535 10.25 -20
    endloop
  endfacet
  facet normal 0 0 -1
    outer loop
      vertex -20.5 0 -20
      vertex -18 0 -20
      vertex -20.1886 -3.55979 -20
    endloop
  endfacet
  facet normal 0 0 -1
    outer loop
      vertex -17.7265 3.12567 -20
      vertex -20.1886 3.55979 -20
      vertex -19.2637 7.01141 -20
    endloop
  endfacet
  facet normal 0 0 -1
    outer loop
      vertex -18 0 -20
      vertex -20.5 0 -20
      vertex -20.1886 3.55979 -20
    endloop
  endfacet
  facet normal -0.573581 -0.819149 0
    outer loop
      vertex -13.1771 -15.7039 -20
      vertex -10.25 -17.7535 20
      vertex -13.1771 -15.7039 20
    endloop
  endfacet
  facet normal -0.573581 -0.819149 -0
    outer loop
      vertex -10.25 -17.7535 20
      vertex -13.1771 -15.7039 -20
      vertex -10.25 -17.7535 -20
    endloop
  endfacet
  facet normal -0.707107 -0.707107 0
    outer loop
      vertex -3.21394 -3.83022 40
      vertex -3.83022 -3.21394 57
      vertex -3.83022 -3.21394 40
    endloop
  endfacet
  facet normal -0.707107 -0.707107 0
    outer loop
      vertex -3.83022 -3.21394 57
      vertex -3.21394 -3.83022 40
      vertex -3.21394 -3.83022 57
    endloop
  endfacet
  facet normal -0.906311 0.422612 0
    outer loop
      vertex -4.69846 1.7101 40
      vertex -4.33013 2.5 57
      vertex -4.33013 2.5 40
    endloop
  endfacet
  facet normal -0.906311 0.422612 0
    outer loop
      vertex -4.33013 2.5 57
      vertex -4.69846 1.7101 40
      vertex -4.69846 1.7101 57
    endloop
  endfacet
  facet normal 0.965925 0.258824 0
    outer loop
      vertex 4.92404 0.86824 57
      vertex 4.69846 1.7101 40
      vertex 4.69846 1.7101 57
    endloop
  endfacet
  facet normal 0.965925 0.258824 0
    outer loop
      vertex 4.69846 1.7101 40
      vertex 4.92404 0.86824 57
      vertex 4.92404 0.86824 40
    endloop
  endfacet
  facet normal 0.996195 0.0871544 0
    outer loop
      vertex 5 0 57
      vertex 4.92404 0.86824 40
      vertex 4.92404 0.86824 57
    endloop
  endfacet
  facet normal 0.996195 0.0871544 0
    outer loop
      vertex 4.92404 0.86824 40
      vertex 5 0 57
      vertex 5 0 40
    endloop
  endfacet
  facet normal 0.906311 0.422612 0
    outer loop
      vertex 4.69846 1.7101 57
      vertex 4.33013 2.5 40
      vertex 4.33013 2.5 57
    endloop
  endfacet
  facet normal 0.906311 0.422612 0
    outer loop
      vertex 4.33013 2.5 40
      vertex 4.69846 1.7101 57
      vertex 4.69846 1.7101 40
    endloop
  endfacet
  facet normal 0.573579 -0.81915 0
    outer loop
      vertex 2.5 -4.33013 40
      vertex 3.21394 -3.83022 57
      vertex 2.5 -4.33013 57
    endloop
  endfacet
  facet normal 0.573579 -0.81915 0
    outer loop
      vertex 3.21394 -3.83022 57
      vertex 2.5 -4.33013 40
      vertex 3.21394 -3.83022 40
    endloop
  endfacet
  facet normal -0.0871544 -0.996195 0
    outer loop
      vertex -0.86824 -4.92404 40
      vertex 0 -5 57
      vertex -0.86824 -4.92404 57
    endloop
  endfacet
  facet normal -0.0871544 -0.996195 -0
    outer loop
      vertex 0 -5 57
      vertex -0.86824 -4.92404 40
      vertex 0 -5 40
    endloop
  endfacet
  facet normal 0 0 1
    outer loop
      vertex 4.92404 0.86824 57
      vertex 4.92404 -0.86824 57
      vertex 5 0 57
    endloop
  endfacet
  facet normal 0 0 1
    outer loop
      vertex 4.69846 1.7101 57
      vertex 4.92404 -0.86824 57
      vertex 4.92404 0.86824 57
    endloop
  endfacet
  facet normal 0 0 1
    outer loop
      vertex 4.69846 1.7101 57
      vertex 4.69846 -1.7101 57
      vertex 4.92404 -0.86824 57
    endloop
  endfacet
  facet normal 0 0 1
    outer loop
      vertex 4.33013 2.5 57
      vertex 4.69846 -1.7101 57
      vertex 4.69846 1.7101 57
    endloop
  endfacet
  facet normal 0 0 1
    outer loop
      vertex 4.33013 2.5 57
      vertex 4.33013 -2.5 57
      vertex 4.69846 -1.7101 57
    endloop
  endfacet
  facet normal 0 0 1
    outer loop
      vertex 3.83022 3.21394 57
      vertex 4.33013 -2.5 57
      vertex 4.33013 2.5 57
    endloop
  endfacet
  facet normal 0 0 1
    outer loop
      vertex 3.83022 3.21394 57
      vertex 3.83022 -3.21394 57
      vertex 4.33013 -2.5 57
    endloop
  endfacet
  facet normal 0 0 1
    outer loop
      vertex 3.21394 3.83022 57
      vertex 3.83022 -3.21394 57
      vertex 3.83022 3.21394 57
    endloop
  endfacet
  facet normal 0 0 1
    outer loop
      vertex 3.21394 3.83022 57
      vertex 3.21394 -3.83022 57
      vertex 3.83022 -3.21394 57
    endloop
  endfacet
  facet normal 0 0 1
    outer loop
      vertex 2.5 4.33013 57
      vertex 3.21394 -3.83022 57
      vertex 3.21394 3.83022 57
    endloop
  endfacet
  facet normal 0 0 1
    outer loop
      vertex 2.5 4.33013 57
      vertex 2.5 -4.33013 57
      vertex 3.21394 -3.83022 57
    endloop
  endfacet
  facet normal 0 0 1
    outer loop
      vertex 1.7101 4.69846 57
      vertex 2.5 -4.33013 57
      vertex 2.5 4.33013 57
    endloop
  endfacet
  facet normal 0 0 1
    outer loop
      vertex 1.7101 4.69846 57
      vertex 1.7101 -4.69846 57
      vertex 2.5 -4.33013 57
    endloop
  endfacet
  facet normal 0 0 1
    outer loop
      vertex 0.86824 4.92404 57
      vertex 1.7101 -4.69846 57
      vertex 1.7101 4.69846 57
    endloop
  endfacet
  facet normal 0 0 1
    outer loop
      vertex 0.86824 4.92404 57
      vertex 0.86824 -4.92404 57
      vertex 1.7101 -4.69846 57
    endloop
  endfacet
  facet normal 0 0 1
    outer loop
      vertex 0 5 57
      vertex 0.86824 -4.92404 57
      vertex 0.86824 4.92404 57
    endloop
  endfacet
  facet normal 0 0 1
    outer loop
      vertex 0 5 57
      vertex 0 -5 57
      vertex 0.86824 -4.92404 57
    endloop
  endfacet
  facet normal -0 0 1
    outer loop
      vertex -0.86824 4.92404 57
      vertex 0 -5 57
      vertex 0 5 57
    endloop
  endfacet
  facet normal 0 0 1
    outer loop
      vertex -0.86824 4.92404 57
      vertex -0.86824 -4.92404 57
      vertex 0 -5 57
    endloop
  endfacet
  facet normal -0 0 1
    outer loop
      vertex -1.7101 4.69846 57
      vertex -0.86824 -4.92404 57
      vertex -0.86824 4.92404 57
    endloop
  endfacet
  facet normal 0 0 1
    outer loop
      vertex -1.7101 4.69846 57
      vertex -1.7101 -4.69846 57
      vertex -0.86824 -4.92404 57
    endloop
  endfacet
  facet normal -0 0 1
    outer loop
      vertex -2.5 4.33013 57
      vertex -1.7101 -4.69846 57
      vertex -1.7101 4.69846 57
    endloop
  endfacet
  facet normal 0 0 1
    outer loop
      vertex -2.5 4.33013 57
      vertex -2.5 -4.33013 57
      vertex -1.7101 -4.69846 57
    endloop
  endfacet
  facet normal -0 0 1
    outer loop
      vertex -3.21394 3.83022 57
      vertex -2.5 -4.33013 57
      vertex -2.5 4.33013 57
    endloop
  endfacet
  facet normal 0 0 1
    outer loop
      vertex -3.21394 3.83022 57
      vertex -3.21394 -3.83022 57
      vertex -2.5 -4.33013 57
    endloop
  endfacet
  facet normal -0 0 1
    outer loop
      vertex -3.83022 3.21394 57
      vertex -3.21394 -3.83022 57
      vertex -3.21394 3.83022 57
    endloop
  endfacet
  facet normal 0 0 1
    outer loop
      vertex -3.83022 3.21394 57
      vertex -3.83022 -3.21394 57
      vertex -3.21394 -3.83022 57
    endloop
  endfacet
  facet normal -0 0 1
    outer loop
      vertex -4.33013 2.5 57
      vertex -3.83022 -3.21394 57
      vertex -3.83022 3.21394 57
    endloop
  endfacet
  facet normal 0 0 1
    outer loop
      vertex -4.33013 2.5 57
      vertex -4.33013 -2.5 57
      vertex -3.83022 -3.21394 57
    endloop
  endfacet
  facet normal -0 0 1
    outer loop
      vertex -4.69846 1.7101 57
      vertex -4.33013 -2.5 57
      vertex -4.33013 2.5 57
    endloop
  endfacet
  facet normal 0 0 1
    outer loop
      vertex -4.69846 1.7101 57
      vertex -4.69846 -1.7101 57
      vertex -4.33013 -2.5 57
    endloop
  endfacet
  facet normal -0 0 1
    outer loop
      vertex -4.92404 0.86824 57
      vertex -4.69846 -1.7101 57
      vertex -4.69846 1.7101 57
    endloop
  endfacet
  facet normal 0 0 1
    outer loop
      vertex -4.92404 0.86824 57
      vertex -4.92404 -0.86824 57
      vertex -4.69846 -1.7101 57
    endloop
  endfacet
  facet normal 0 -0 1
    outer loop
      vertex -4.92404 -0.86824 57
      vertex -4.92404 0.86824 57
      vertex -5 0 57
    endloop
  endfacet
  facet normal 0.422612 -0.906311 0
    outer loop
      vertex 1.7101 -4.69846 40
      vertex 2.5 -4.33013 57
      vertex 1.7101 -4.69846 57
    endloop
  endfacet
  facet normal 0.422612 -0.906311 0
    outer loop
      vertex 2.5 -4.33013 57
      vertex 1.7101 -4.69846 40
      vertex 2.5 -4.33013 40
    endloop
  endfacet
  facet normal -0.258824 0.965925 0
    outer loop
      vertex -0.86824 4.92404 40
      vertex -1.7101 4.69846 57
      vertex -0.86824 4.92404 57
    endloop
  endfacet
  facet normal -0.258824 0.965925 0
    outer loop
      vertex -1.7101 4.69846 57
      vertex -0.86824 4.92404 40
      vertex -1.7101 4.69846 40
    endloop
  endfacet
  facet normal -0.422612 0.906311 0
    outer loop
      vertex -1.7101 4.69846 40
      vertex -2.5 4.33013 57
      vertex -1.7101 4.69846 57
    endloop
  endfacet
  facet normal -0.422612 0.906311 0
    outer loop
      vertex -2.5 4.33013 57
      vertex -1.7101 4.69846 40
      vertex -2.5 4.33013 40
    endloop
  endfacet
  facet normal 0.0871544 -0.996195 0
    outer loop
      vertex 0 -5 40
      vertex 0.86824 -4.92404 57
      vertex 0 -5 57
    endloop
  endfacet
  facet normal 0.0871544 -0.996195 0
    outer loop
      vertex 0.86824 -4.92404 57
      vertex 0 -5 40
      vertex 0.86824 -4.92404 40
    endloop
  endfacet
  facet normal -0.965925 -0.258824 0
    outer loop
      vertex -4.69846 -1.7101 40
      vertex -4.92404 -0.86824 57
      vertex -4.92404 -0.86824 40
    endloop
  endfacet
  facet normal -0.965925 -0.258824 0
    outer loop
      vertex -4.92404 -0.86824 57
      vertex -4.69846 -1.7101 40
      vertex -4.69846 -1.7101 57
    endloop
  endfacet
  facet normal -0.573579 -0.81915 0
    outer loop
      vertex -3.21394 -3.83022 40
      vertex -2.5 -4.33013 57
      vertex -3.21394 -3.83022 57
    endloop
  endfacet
  facet normal -0.573579 -0.81915 -0
    outer loop
      vertex -2.5 -4.33013 57
      vertex -3.21394 -3.83022 40
      vertex -2.5 -4.33013 40
    endloop
  endfacet
  facet normal -0.81915 0.573579 0
    outer loop
      vertex -4.33013 2.5 40
      vertex -3.83022 3.21394 57
      vertex -3.83022 3.21394 40
    endloop
  endfacet
  facet normal -0.81915 0.573579 0
    outer loop
      vertex -3.83022 3.21394 57
      vertex -4.33013 2.5 40
      vertex -4.33013 2.5 57
    endloop
  endfacet
  facet normal 0.906311 -0.422612 0
    outer loop
      vertex 4.33013 -2.5 57
      vertex 4.69846 -1.7101 40
      vertex 4.69846 -1.7101 57
    endloop
  endfacet
  facet normal 0.906311 -0.422612 0
    outer loop
      vertex 4.69846 -1.7101 40
      vertex 4.33013 -2.5 57
      vertex 4.33013 -2.5 40
    endloop
  endfacet
  facet normal -0.81915 -0.573579 0
    outer loop
      vertex -3.83022 -3.21394 40
      vertex -4.33013 -2.5 57
      vertex -4.33013 -2.5 40
    endloop
  endfacet
  facet normal -0.81915 -0.573579 0
    outer loop
      vertex -4.33013 -2.5 57
      vertex -3.83022 -3.21394 40
      vertex -3.83022 -3.21394 57
    endloop
  endfacet
  facet normal -0.573579 0.81915 0
    outer loop
      vertex -2.5 4.33013 40
      vertex -3.21394 3.83022 57
      vertex -2.5 4.33013 57
    endloop
  endfacet
  facet normal -0.573579 0.81915 0
    outer loop
      vertex -3.21394 3.83022 57
      vertex -2.5 4.33013 40
      vertex -3.21394 3.83022 40
    endloop
  endfacet
  facet normal 0.81915 -0.573579 0
    outer loop
      vertex 3.83022 -3.21394 57
      vertex 4.33013 -2.5 40
      vertex 4.33013 -2.5 57
    endloop
  endfacet
  facet normal 0.81915 -0.573579 0
    outer loop
      vertex 4.33013 -2.5 40
      vertex 3.83022 -3.21394 57
      vertex 3.83022 -3.21394 40
    endloop
  endfacet
  facet normal 0.81915 0.573579 0
    outer loop
      vertex 4.33013 2.5 57
      vertex 3.83022 3.21394 40
      vertex 3.83022 3.21394 57
    endloop
  endfacet
  facet normal 0.81915 0.573579 0
    outer loop
      vertex 3.83022 3.21394 40
      vertex 4.33013 2.5 57
      vertex 4.33013 2.5 40
    endloop
  endfacet
  facet normal 0.965925 -0.258824 0
    outer loop
      vertex 4.69846 -1.7101 57
      vertex 4.92404 -0.86824 40
      vertex 4.92404 -0.86824 57
    endloop
  endfacet
  facet normal 0.965925 -0.258824 0
    outer loop
      vertex 4.92404 -0.86824 40
      vertex 4.69846 -1.7101 57
      vertex 4.69846 -1.7101 40
    endloop
  endfacet
  facet normal -0.996195 0.0871544 0
    outer loop
      vertex -5 0 40
      vertex -4.92404 0.86824 57
      vertex -4.92404 0.86824 40
    endloop
  endfacet
  facet normal -0.996195 0.0871544 0
    outer loop
      vertex -4.92404 0.86824 57
      vertex -5 0 40
      vertex -5 0 57
    endloop
  endfacet
  facet normal 0.422612 0.906311 -0
    outer loop
      vertex 2.5 4.33013 40
      vertex 1.7101 4.69846 57
      vertex 2.5 4.33013 57
    endloop
  endfacet
  facet normal 0.422612 0.906311 0
    outer loop
      vertex 1.7101 4.69846 57
      vertex 2.5 4.33013 40
      vertex 1.7101 4.69846 40
    endloop
  endfacet
  facet normal 0.707107 0.707107 0
    outer loop
      vertex 3.83022 3.21394 57
      vertex 3.21394 3.83022 40
      vertex 3.21394 3.83022 57
    endloop
  endfacet
  facet normal 0.707107 0.707107 0
    outer loop
      vertex 3.21394 3.83022 40
      vertex 3.83022 3.21394 57
      vertex 3.83022 3.21394 40
    endloop
  endfacet
  facet normal 0.258824 -0.965925 0
    outer loop
      vertex 0.86824 -4.92404 40
      vertex 1.7101 -4.69846 57
      vertex 0.86824 -4.92404 57
    endloop
  endfacet
  facet normal 0.258824 -0.965925 0
    outer loop
      vertex 1.7101 -4.69846 57
      vertex 0.86824 -4.92404 40
      vertex 1.7101 -4.69846 40
    endloop
  endfacet
  facet normal 0.996195 -0.0871544 0
    outer loop
      vertex 4.92404 -0.86824 57
      vertex 5 0 40
      vertex 5 0 57
    endloop
  endfacet
  facet normal 0.996195 -0.0871544 0
    outer loop
      vertex 5 0 40
      vertex 4.92404 -0.86824 57
      vertex 4.92404 -0.86824 40
    endloop
  endfacet
  facet normal 0.573579 0.81915 -0
    outer loop
      vertex 3.21394 3.83022 40
      vertex 2.5 4.33013 57
      vertex 3.21394 3.83022 57
    endloop
  endfacet
  facet normal 0.573579 0.81915 0
    outer loop
      vertex 2.5 4.33013 57
      vertex 3.21394 3.83022 40
      vertex 2.5 4.33013 40
    endloop
  endfacet
  facet normal -0.422612 -0.906311 0
    outer loop
      vertex -2.5 -4.33013 40
      vertex -1.7101 -4.69846 57
      vertex -2.5 -4.33013 57
    endloop
  endfacet
  facet normal -0.422612 -0.906311 -0
    outer loop
      vertex -1.7101 -4.69846 57
      vertex -2.5 -4.33013 40
      vertex -1.7101 -4.69846 40
    endloop
  endfacet
  facet normal -0.0871544 0.996195 0
    outer loop
      vertex 0 5 40
      vertex -0.86824 4.92404 57
      vertex 0 5 57
    endloop
  endfacet
  facet normal -0.0871544 0.996195 0
    outer loop
      vertex -0.86824 4.92404 57
      vertex 0 5 40
      vertex -0.86824 4.92404 40
    endloop
  endfacet
  facet normal -0.258824 -0.965925 0
    outer loop
      vertex -1.7101 -4.69846 40
      vertex -0.86824 -4.92404 57
      vertex -1.7101 -4.69846 57
    endloop
  endfacet
  facet normal -0.258824 -0.965925 -0
    outer loop
      vertex -0.86824 -4.92404 57
      vertex -1.7101 -4.69846 40
      vertex -0.86824 -4.92404 40
    endloop
  endfacet
  facet normal -0.906311 -0.422612 0
    outer loop
      vertex -4.33013 -2.5 40
      vertex -4.69846 -1.7101 57
      vertex -4.69846 -1.7101 40
    endloop
  endfacet
  facet normal -0.906311 -0.422612 0
    outer loop
      vertex -4.69846 -1.7101 57
      vertex -4.33013 -2.5 40
      vertex -4.33013 -2.5 57
    endloop
  endfacet
  facet normal 0.0871544 0.996195 -0
    outer loop
      vertex 0.86824 4.92404 40
      vertex 0 5 57
      vertex 0.86824 4.92404 57
    endloop
  endfacet
  facet normal 0.0871544 0.996195 0
    outer loop
      vertex 0 5 57
      vertex 0.86824 4.92404 40
      vertex 0 5 40
    endloop
  endfacet
  facet normal 0.707107 -0.707107 0
    outer loop
      vertex 3.21394 -3.83022 57
      vertex 3.83022 -3.21394 40
      vertex 3.83022 -3.21394 57
    endloop
  endfacet
  facet normal 0.707107 -0.707107 0
    outer loop
      vertex 3.83022 -3.21394 40
      vertex 3.21394 -3.83022 57
      vertex 3.21394 -3.83022 40
    endloop
  endfacet
  facet normal -0.996195 -0.0871544 0
    outer loop
      vertex -4.92404 -0.86824 40
      vertex -5 0 57
      vertex -5 0 40
    endloop
  endfacet
  facet normal -0.996195 -0.0871544 0
    outer loop
      vertex -5 0 57
      vertex -4.92404 -0.86824 40
      vertex -4.92404 -0.86824 57
    endloop
  endfacet
  facet normal 0.258824 0.965925 -0
    outer loop
      vertex 1.7101 4.69846 40
      vertex 0.86824 4.92404 57
      vertex 1.7101 4.69846 57
    endloop
  endfacet
  facet normal 0.258824 0.965925 0
    outer loop
      vertex 0.86824 4.92404 57
      vertex 1.7101 4.69846 40
      vertex 0.86824 4.92404 40
    endloop
  endfacet
  facet normal -0.965925 0.258824 0
    outer loop
      vertex -4.92404 0.86824 40
      vertex -4.69846 1.7101 57
      vertex -4.69846 1.7101 40
    endloop
  endfacet
  facet normal -0.965925 0.258824 0
    outer loop
      vertex -4.69846 1.7101 57
      vertex -4.92404 0.86824 40
      vertex -4.92404 0.86824 57
    endloop
  endfacet
  facet normal -0.707107 0.707107 0
    outer loop
      vertex -3.83022 3.21394 40
      vertex -3.21394 3.83022 57
      vertex -3.21394 3.83022 40
    endloop
  endfacet
  facet normal -0.707107 0.707107 0
    outer loop
      vertex -3.21394 3.83022 57
      vertex -3.83022 3.21394 40
      vertex -3.83022 3.21394 57
    endloop
  endfacet
endsolid OpenSCAD_Model
