solid OpenSCAD_Model
  facet normal 0 0 -1
    outer loop
      vertex 3.1 0 -30
      vertex 9.3 0 -30
      vertex 9.15871 -1.61493 -30
    endloop
  endfacet
  facet normal 0 0 -1
    outer loop
      vertex 3.0529 -0.538309 -30
      vertex 9.15871 -1.61493 -30
      vertex 8.73914 -3.18079 -30
    endloop
  endfacet
  facet normal 0 0 -1
    outer loop
      vertex 9.3 0 -30
      vertex 3.1 0 -30
      vertex 9.15871 1.61493 -30
    endloop
  endfacet
  facet normal 0 0 -1
    outer loop
      vertex 2.91305 -1.06026 -30
      vertex 8.73914 -3.18079 -30
      vertex 8.05404 -4.65 -30
    endloop
  endfacet
  facet normal 0 0 -1
    outer loop
      vertex 3.0529 0.538309 -30
      vertex 9.15871 1.61493 -30
      vertex 3.1 0 -30
    endloop
  endfacet
  facet normal 0 0 -1
    outer loop
      vertex 2.68468 -1.55 -30
      vertex 8.05404 -4.65 -30
      vertex 7.12421 -5.97792 -30
    endloop
  endfacet
  facet normal -0 0 -1
    outer loop
      vertex 9.15871 1.61493 -30
      vertex 3.0529 0.538309 -30
      vertex 8.73914 3.18079 -30
    endloop
  endfacet
  facet normal 0 0 -1
    outer loop
      vertex 2.37474 -1.99264 -30
      vertex 7.12421 -5.97792 -30
      vertex 5.97792 -7.12421 -30
    endloop
  endfacet
  facet normal 0 0 -1
    outer loop
      vertex 2.91305 1.06026 -30
      vertex 8.73914 3.18079 -30
      vertex 3.0529 0.538309 -30
    endloop
  endfacet
  facet normal 0 0 -1
    outer loop
      vertex 1.99264 -2.37474 -30
      vertex 5.97792 -7.12421 -30
      vertex 4.65 -8.05404 -30
    endloop
  endfacet
  facet normal -0 0 -1
    outer loop
      vertex 8.73914 3.18079 -30
      vertex 2.91305 1.06026 -30
      vertex 8.05404 4.65 -30
    endloop
  endfacet
  facet normal 0 0 -1
    outer loop
      vertex 1.55 -2.68468 -30
      vertex 4.65 -8.05404 -30
      vertex 3.18079 -8.73914 -30
    endloop
  endfacet
  facet normal 0 0 -1
    outer loop
      vertex 2.68468 1.55 -30
      vertex 8.05404 4.65 -30
      vertex 2.91305 1.06026 -30
    endloop
  endfacet
  facet normal -0 0 -1
    outer loop
      vertex 8.05404 4.65 -30
      vertex 2.68468 1.55 -30
      vertex 7.12421 5.97792 -30
    endloop
  endfacet
  facet normal 0 0 -1
    outer loop
      vertex 9.15871 -1.61493 -30
      vertex 3.0529 -0.538309 -30
      vertex 3.1 0 -30
    endloop
  endfacet
  facet normal 0 0 -1
    outer loop
      vertex 8.73914 -3.18079 -30
      vertex 2.91305 -1.06026 -30
      vertex 3.0529 -0.538309 -30
    endloop
  endfacet
  facet normal 0 0 -1
    outer loop
      vertex 8.05404 -4.65 -30
      vertex 2.68468 -1.55 -30
      vertex 2.91305 -1.06026 -30
    endloop
  endfacet
  facet normal 0 0 -1
    outer loop
      vertex 7.12421 -5.97792 -30
      vertex 2.37474 -1.99264 -30
      vertex 2.68468 -1.55 -30
    endloop
  endfacet
  facet normal 0 0 -1
    outer loop
      vertex 5.97792 -7.12421 -30
      vertex 1.99264 -2.37474 -30
      vertex 2.37474 -1.99264 -30
    endloop
  endfacet
  facet normal 0 0 -1
    outer loop
      vertex 1.06026 -2.91305 -30
      vertex 3.18079 -8.73914 -30
      vertex 1.61493 -9.15871 -30
    endloop
  endfacet
  facet normal 0 0 -1
    outer loop
      vertex 4.65 -8.05404 -30
      vertex 1.55 -2.68468 -30
      vertex 1.99264 -2.37474 -30
    endloop
  endfacet
  facet normal 0 0 -1
    outer loop
      vertex 3.18079 -8.73914 -30
      vertex 1.06026 -2.91305 -30
      vertex 1.55 -2.68468 -30
    endloop
  endfacet
  facet normal 0 0 -1
    outer loop
      vertex 1.61493 -9.15871 -30
      vertex 0.538309 -3.0529 -30
      vertex 1.06026 -2.91305 -30
    endloop
  endfacet
  facet normal 0 0 -1
    outer loop
      vertex 0 -9.3 -30
      vertex 0.538309 -3.0529 -30
      vertex 1.61493 -9.15871 -30
    endloop
  endfacet
  facet normal 0 0 -1
    outer loop
      vertex 0 -9.3 -30
      vertex 0 -3.1 -30
      vertex 0.538309 -3.0529 -30
    endloop
  endfacet
  facet normal 0 0 -1
    outer loop
      vertex 0 -9.3 -30
      vertex -0.538309 -3.0529 -30
      vertex 0 -3.1 -30
    endloop
  endfacet
  facet normal 0 0 -1
    outer loop
      vertex -1.61493 -9.15871 -30
      vertex -0.538309 -3.0529 -30
      vertex 0 -9.3 -30
    endloop
  endfacet
  facet normal -0 0 -1
    outer loop
      vertex -0.538309 -3.0529 -30
      vertex -1.61493 -9.15871 -30
      vertex -1.06026 -2.91305 -30
    endloop
  endfacet
  facet normal 0 0 -1
    outer loop
      vertex -3.18079 -8.73914 -30
      vertex -1.06026 -2.91305 -30
      vertex -1.61493 -9.15871 -30
    endloop
  endfacet
  facet normal -0 0 -1
    outer loop
      vertex -1.06026 -2.91305 -30
      vertex -3.18079 -8.73914 -30
      vertex -1.55 -2.68468 -30
    endloop
  endfacet
  facet normal 0 0 -1
    outer loop
      vertex -4.65 -8.05404 -30
      vertex -1.55 -2.68468 -30
      vertex -3.18079 -8.73914 -30
    endloop
  endfacet
  facet normal -0 0 -1
    outer loop
      vertex -1.55 -2.68468 -30
      vertex -4.65 -8.05404 -30
      vertex -1.99264 -2.37474 -30
    endloop
  endfacet
  facet normal 0 0 -1
    outer loop
      vertex -5.97792 -7.12421 -30
      vertex -1.99264 -2.37474 -30
      vertex -4.65 -8.05404 -30
    endloop
  endfacet
  facet normal -0 0 -1
    outer loop
      vertex -1.99264 -2.37474 -30
      vertex -5.97792 -7.12421 -30
      vertex -2.37474 -1.99264 -30
    endloop
  endfacet
  facet normal -0 0 -1
    outer loop
      vertex -2.37474 -1.99264 -30
      vertex -7.12421 -5.97792 -30
      vertex -2.68468 -1.55 -30
    endloop
  endfacet
  facet normal 0 0 -1
    outer loop
      vertex -7.12421 -5.97792 -30
      vertex -2.37474 -1.99264 -30
      vertex -5.97792 -7.12421 -30
    endloop
  endfacet
  facet normal 0 0 -1
    outer loop
      vertex 2.37474 1.99264 -30
      vertex 7.12421 5.97792 -30
      vertex 2.68468 1.55 -30
    endloop
  endfacet
  facet normal -0 0 -1
    outer loop
      vertex 7.12421 5.97792 -30
      vertex 2.37474 1.99264 -30
      vertex 5.97792 7.12421 -30
    endloop
  endfacet
  facet normal 0 0 -1
    outer loop
      vertex 1.99264 2.37474 -30
      vertex 5.97792 7.12421 -30
      vertex 2.37474 1.99264 -30
    endloop
  endfacet
  facet normal -0 0 -1
    outer loop
      vertex 5.97792 7.12421 -30
      vertex 1.99264 2.37474 -30
      vertex 4.65 8.05404 -30
    endloop
  endfacet
  facet normal 0 0 -1
    outer loop
      vertex 1.55 2.68468 -30
      vertex 4.65 8.05404 -30
      vertex 1.99264 2.37474 -30
    endloop
  endfacet
  facet normal -0 0 -1
    outer loop
      vertex 4.65 8.05404 -30
      vertex 1.55 2.68468 -30
      vertex 3.18079 8.73914 -30
    endloop
  endfacet
  facet normal 0 0 -1
    outer loop
      vertex 1.06026 2.91305 -30
      vertex 3.18079 8.73914 -30
      vertex 1.55 2.68468 -30
    endloop
  endfacet
  facet normal -0 0 -1
    outer loop
      vertex 3.18079 8.73914 -30
      vertex 1.06026 2.91305 -30
      vertex 1.61493 9.15871 -30
    endloop
  endfacet
  facet normal 0 0 -1
    outer loop
      vertex 0.538309 3.0529 -30
      vertex 1.61493 9.15871 -30
      vertex 1.06026 2.91305 -30
    endloop
  endfacet
  facet normal 0 0 -1
    outer loop
      vertex 0 3.1 -30
      vertex 1.61493 9.15871 -30
      vertex 0.538309 3.0529 -30
    endloop
  endfacet
  facet normal 0 0 -1
    outer loop
      vertex 0 3.1 -30
      vertex 0 9.3 -30
      vertex 1.61493 9.15871 -30
    endloop
  endfacet
  facet normal 0 0 -1
    outer loop
      vertex -0.538309 3.0529 -30
      vertex 0 9.3 -30
      vertex 0 3.1 -30
    endloop
  endfacet
  facet normal 0 0 -1
    outer loop
      vertex -1.61493 9.15871 -30
      vertex -0.538309 3.0529 -30
      vertex -1.06026 2.91305 -30
    endloop
  endfacet
  facet normal 0 0 -1
    outer loop
      vertex -3.18079 8.73914 -30
      vertex -1.06026 2.91305 -30
      vertex -1.55 2.68468 -30
    endloop
  endfacet
  facet normal 0 0 -1
    outer loop
      vertex -0.538309 3.0529 -30
      vertex -1.61493 9.15871 -30
      vertex 0 9.3 -30
    endloop
  endfacet
  facet normal 0 0 -1
    outer loop
      vertex -4.65 8.05404 -30
      vertex -1.55 2.68468 -30
      vertex -1.99264 2.37474 -30
    endloop
  endfacet
  facet normal 0 0 -1
    outer loop
      vertex -5.97792 7.12421 -30
      vertex -1.99264 2.37474 -30
      vertex -2.37474 1.99264 -30
    endloop
  endfacet
  facet normal 0 0 -1
    outer loop
      vertex -7.12421 5.97792 -30
      vertex -2.37474 1.99264 -30
      vertex -2.68468 1.55 -30
    endloop
  endfacet
  facet normal 0 0 -1
    outer loop
      vertex -8.05404 4.65 -30
      vertex -2.68468 1.55 -30
      vertex -2.91305 1.06026 -30
    endloop
  endfacet
  facet normal 0 0 -1
    outer loop
      vertex -8.73914 3.18079 -30
      vertex -2.91305 1.06026 -30
      vertex -3.0529 0.538309 -30
    endloop
  endfacet
  facet normal 0 0 -1
    outer loop
      vertex -1.06026 2.91305 -30
      vertex -3.18079 8.73914 -30
      vertex -1.61493 9.15871 -30
    endloop
  endfacet
  facet normal 0 0 -1
    outer loop
      vertex -9.15871 1.61493 -30
      vertex -3.0529 0.538309 -30
      vertex -3.1 0 -30
    endloop
  endfacet
  facet normal 0 0 -1
    outer loop
      vertex -8.05404 -4.65 -30
      vertex -2.68468 -1.55 -30
      vertex -7.12421 -5.97792 -30
    endloop
  endfacet
  facet normal -0 0 -1
    outer loop
      vertex -2.68468 -1.55 -30
      vertex -8.05404 -4.65 -30
      vertex -2.91305 -1.06026 -30
    endloop
  endfacet
  facet normal 0 0 -1
    outer loop
      vertex -1.55 2.68468 -30
      vertex -4.65 8.05404 -30
      vertex -3.18079 8.73914 -30
    endloop
  endfacet
  facet normal 0 0 -1
    outer loop
      vertex -8.73914 -3.18079 -30
      vertex -2.91305 -1.06026 -30
      vertex -8.05404 -4.65 -30
    endloop
  endfacet
  facet normal 0 0 -1
    outer loop
      vertex -1.99264 2.37474 -30
      vertex -5.97792 7.12421 -30
      vertex -4.65 8.05404 -30
    endloop
  endfacet
  facet normal -0 0 -1
    outer loop
      vertex -2.91305 -1.06026 -30
      vertex -8.73914 -3.18079 -30
      vertex -3.0529 -0.538309 -30
    endloop
  endfacet
  facet normal 0 0 -1
    outer loop
      vertex -2.37474 1.99264 -30
      vertex -7.12421 5.97792 -30
      vertex -5.97792 7.12421 -30
    endloop
  endfacet
  facet normal 0 0 -1
    outer loop
      vertex -9.15871 -1.61493 -30
      vertex -3.0529 -0.538309 -30
      vertex -8.73914 -3.18079 -30
    endloop
  endfacet
  facet normal 0 0 -1
    outer loop
      vertex -2.68468 1.55 -30
      vertex -8.05404 4.65 -30
      vertex -7.12421 5.97792 -30
    endloop
  endfacet
  facet normal -0 0 -1
    outer loop
      vertex -3.0529 -0.538309 -30
      vertex -9.15871 -1.61493 -30
      vertex -3.1 0 -30
    endloop
  endfacet
  facet normal 0 0 -1
    outer loop
      vertex -2.91305 1.06026 -30
      vertex -8.73914 3.18079 -30
      vertex -8.05404 4.65 -30
    endloop
  endfacet
  facet normal 0 0 -1
    outer loop
      vertex -9.3 0 -30
      vertex -3.1 0 -30
      vertex -9.15871 -1.61493 -30
    endloop
  endfacet
  facet normal 0 0 -1
    outer loop
      vertex -3.0529 0.538309 -30
      vertex -9.15871 1.61493 -30
      vertex -8.73914 3.18079 -30
    endloop
  endfacet
  facet normal 0 0 -1
    outer loop
      vertex -3.1 0 -30
      vertex -9.3 0 -30
      vertex -9.15871 1.61493 -30
    endloop
  endfacet
  facet normal 0.965926 0.258819 0
    outer loop
      vertex 9.15871 1.61493 0
      vertex 8.73914 3.18079 -30
      vertex 8.73914 3.18079 0
    endloop
  endfacet
  facet normal 0.965926 0.258819 0
    outer loop
      vertex 8.73914 3.18079 -30
      vertex 9.15871 1.61493 0
      vertex 9.15871 1.61493 -30
    endloop
  endfacet
  facet normal 0.996195 0.0871569 0
    outer loop
      vertex 9.3 0 0
      vertex 9.15871 1.61493 -30
      vertex 9.15871 1.61493 0
    endloop
  endfacet
  facet normal 0.996195 0.0871569 0
    outer loop
      vertex 9.15871 1.61493 -30
      vertex 9.3 0 0
      vertex 9.3 0 -30
    endloop
  endfacet
  facet normal 0.906309 0.422616 0
    outer loop
      vertex 8.73914 3.18079 0
      vertex 8.05404 4.65 -30
      vertex 8.05404 4.65 0
    endloop
  endfacet
  facet normal 0.906309 0.422616 0
    outer loop
      vertex 8.05404 4.65 -30
      vertex 8.73914 3.18079 0
      vertex 8.73914 3.18079 -30
    endloop
  endfacet
  facet normal 0.819149 -0.573581 0
    outer loop
      vertex 7.12421 -5.97792 0
      vertex 8.05404 -4.65 -30
      vertex 8.05404 -4.65 0
    endloop
  endfacet
  facet normal 0.819149 -0.573581 0
    outer loop
      vertex 8.05404 -4.65 -30
      vertex 7.12421 -5.97792 0
      vertex 7.12421 -5.97792 -30
    endloop
  endfacet
  facet normal 0.707107 0.707107 0
    outer loop
      vertex 7.12421 5.97792 0
      vertex 5.97792 7.12421 -30
      vertex 5.97792 7.12421 0
    endloop
  endfacet
  facet normal 0.707107 0.707107 0
    outer loop
      vertex 5.97792 7.12421 -30
      vertex 7.12421 5.97792 0
      vertex 7.12421 5.97792 -30
    endloop
  endfacet
  facet normal -0.422616 -0.906309 0
    outer loop
      vertex -4.65 -8.05404 -30
      vertex -3.18079 -8.73914 0
      vertex -4.65 -8.05404 0
    endloop
  endfacet
  facet normal -0.422616 -0.906309 -0
    outer loop
      vertex -3.18079 -8.73914 0
      vertex -4.65 -8.05404 -30
      vertex -3.18079 -8.73914 -30
    endloop
  endfacet
  facet normal -0.965926 -0.258819 0
    outer loop
      vertex -8.73914 -3.18079 -30
      vertex -9.15871 -1.61493 0
      vertex -9.15871 -1.61493 -30
    endloop
  endfacet
  facet normal -0.965926 -0.258819 0
    outer loop
      vertex -9.15871 -1.61493 0
      vertex -8.73914 -3.18079 -30
      vertex -8.73914 -3.18079 0
    endloop
  endfacet
  facet normal -0.996195 0.0871569 0
    outer loop
      vertex -9.3 0 -30
      vertex -9.15871 1.61493 0
      vertex -9.15871 1.61493 -30
    endloop
  endfacet
  facet normal -0.996195 0.0871569 0
    outer loop
      vertex -9.15871 1.61493 0
      vertex -9.3 0 -30
      vertex -9.3 0 0
    endloop
  endfacet
  facet normal 0.0871569 0.996195 -0
    outer loop
      vertex 1.61493 9.15871 -30
      vertex 0 9.3 0
      vertex 1.61493 9.15871 0
    endloop
  endfacet
  facet normal 0.0871569 0.996195 0
    outer loop
      vertex 0 9.3 0
      vertex 1.61493 9.15871 -30
      vertex 0 9.3 -30
    endloop
  endfacet
  facet normal 0.258819 -0.965926 0
    outer loop
      vertex 1.61493 -9.15871 -30
      vertex 3.18079 -8.73914 0
      vertex 1.61493 -9.15871 0
    endloop
  endfacet
  facet normal 0.258819 -0.965926 0
    outer loop
      vertex 3.18079 -8.73914 0
      vertex 1.61493 -9.15871 -30
      vertex 3.18079 -8.73914 -30
    endloop
  endfacet
  facet normal -0.422616 0.906309 0
    outer loop
      vertex -3.18079 8.73914 -30
      vertex -4.65 8.05404 0
      vertex -3.18079 8.73914 0
    endloop
  endfacet
  facet normal -0.422616 0.906309 0
    outer loop
      vertex -4.65 8.05404 0
      vertex -3.18079 8.73914 -30
      vertex -4.65 8.05404 -30
    endloop
  endfacet
  facet normal 0.906309 -0.422616 0
    outer loop
      vertex 8.05404 -4.65 0
      vertex 8.73914 -3.18079 -30
      vertex 8.73914 -3.18079 0
    endloop
  endfacet
  facet normal 0.906309 -0.422616 0
    outer loop
      vertex 8.73914 -3.18079 -30
      vertex 8.05404 -4.65 0
      vertex 8.05404 -4.65 -30
    endloop
  endfacet
  facet normal 0.996195 -0.0871569 0
    outer loop
      vertex 9.15871 -1.61493 0
      vertex 9.3 0 -30
      vertex 9.3 0 0
    endloop
  endfacet
  facet normal 0.996195 -0.0871569 0
    outer loop
      vertex 9.3 0 -30
      vertex 9.15871 -1.61493 0
      vertex 9.15871 -1.61493 -30
    endloop
  endfacet
  facet normal -0.707107 -0.707107 0
    outer loop
      vertex -5.97792 -7.12421 -30
      vertex -7.12421 -5.97792 0
      vertex -7.12421 -5.97792 -30
    endloop
  endfacet
  facet normal -0.707107 -0.707107 0
    outer loop
      vertex -7.12421 -5.97792 0
      vertex -5.97792 -7.12421 -30
      vertex -5.97792 -7.12421 0
    endloop
  endfacet
  facet normal 0.0871569 -0.996195 0
    outer loop
      vertex 0 -9.3 -30
      vertex 1.61493 -9.15871 0
      vertex 0 -9.3 0
    endloop
  endfacet
  facet normal 0.0871569 -0.996195 0
    outer loop
      vertex 1.61493 -9.15871 0
      vertex 0 -9.3 -30
      vertex 1.61493 -9.15871 -30
    endloop
  endfacet
  facet normal -0.573581 0.819149 0
    outer loop
      vertex -4.65 8.05404 -30
      vertex -5.97792 7.12421 0
      vertex -4.65 8.05404 0
    endloop
  endfacet
  facet normal -0.573581 0.819149 0
    outer loop
      vertex -5.97792 7.12421 0
      vertex -4.65 8.05404 -30
      vertex -5.97792 7.12421 -30
    endloop
  endfacet
  facet normal 0.819149 0.573581 0
    outer loop
      vertex 8.05404 4.65 0
      vertex 7.12421 5.97792 -30
      vertex 7.12421 5.97792 0
    endloop
  endfacet
  facet normal 0.819149 0.573581 0
    outer loop
      vertex 7.12421 5.97792 -30
      vertex 8.05404 4.65 0
      vertex 8.05404 4.65 -30
    endloop
  endfacet
  facet normal -0.258819 0.965926 0
    outer loop
      vertex -1.61493 9.15871 -30
      vertex -3.18079 8.73914 0
      vertex -1.61493 9.15871 0
    endloop
  endfacet
  facet normal -0.258819 0.965926 0
    outer loop
      vertex -3.18079 8.73914 0
      vertex -1.61493 9.15871 -30
      vertex -3.18079 8.73914 -30
    endloop
  endfacet
  facet normal -0.0871569 0.996195 0
    outer loop
      vertex 0 9.3 -30
      vertex -1.61493 9.15871 0
      vertex 0 9.3 0
    endloop
  endfacet
  facet normal -0.0871569 0.996195 0
    outer loop
      vertex -1.61493 9.15871 0
      vertex 0 9.3 -30
      vertex -1.61493 9.15871 -30
    endloop
  endfacet
  facet normal 0.965926 -0.258819 0
    outer loop
      vertex 8.73914 -3.18079 0
      vertex 9.15871 -1.61493 -30
      vertex 9.15871 -1.61493 0
    endloop
  endfacet
  facet normal 0.965926 -0.258819 0
    outer loop
      vertex 9.15871 -1.61493 -30
      vertex 8.73914 -3.18079 0
      vertex 8.73914 -3.18079 -30
    endloop
  endfacet
  facet normal -0.965926 0.258819 0
    outer loop
      vertex -9.15871 1.61493 -30
      vertex -8.73914 3.18079 0
      vertex -8.73914 3.18079 -30
    endloop
  endfacet
  facet normal -0.965926 0.258819 0
    outer loop
      vertex -8.73914 3.18079 0
      vertex -9.15871 1.61493 -30
      vertex -9.15871 1.61493 0
    endloop
  endfacet
  facet normal 0.707107 -0.707107 0
    outer loop
      vertex 5.97792 -7.12421 0
      vertex 7.12421 -5.97792 -30
      vertex 7.12421 -5.97792 0
    endloop
  endfacet
  facet normal 0.707107 -0.707107 0
    outer loop
      vertex 7.12421 -5.97792 -30
      vertex 5.97792 -7.12421 0
      vertex 5.97792 -7.12421 -30
    endloop
  endfacet
  facet normal 0.422616 0.906309 -0
    outer loop
      vertex 4.65 8.05404 -30
      vertex 3.18079 8.73914 0
      vertex 4.65 8.05404 0
    endloop
  endfacet
  facet normal 0.422616 0.906309 0
    outer loop
      vertex 3.18079 8.73914 0
      vertex 4.65 8.05404 -30
      vertex 3.18079 8.73914 -30
    endloop
  endfacet
  facet normal -0.996195 -0.0871569 0
    outer loop
      vertex -9.15871 -1.61493 -30
      vertex -9.3 0 0
      vertex -9.3 0 -30
    endloop
  endfacet
  facet normal -0.996195 -0.0871569 0
    outer loop
      vertex -9.3 0 0
      vertex -9.15871 -1.61493 -30
      vertex -9.15871 -1.61493 0
    endloop
  endfacet
  facet normal 0.573581 -0.819149 0
    outer loop
      vertex 4.65 -8.05404 -30
      vertex 5.97792 -7.12421 0
      vertex 4.65 -8.05404 0
    endloop
  endfacet
  facet normal 0.573581 -0.819149 0
    outer loop
      vertex 5.97792 -7.12421 0
      vertex 4.65 -8.05404 -30
      vertex 5.97792 -7.12421 -30
    endloop
  endfacet
  facet normal 0.573581 0.819149 -0
    outer loop
      vertex 5.97792 7.12421 -30
      vertex 4.65 8.05404 0
      vertex 5.97792 7.12421 0
    endloop
  endfacet
  facet normal 0.573581 0.819149 0
    outer loop
      vertex 4.65 8.05404 0
      vertex 5.97792 7.12421 -30
      vertex 4.65 8.05404 -30
    endloop
  endfacet
  facet normal -0.906309 -0.422616 0
    outer loop
      vertex -8.05404 -4.65 -30
      vertex -8.73914 -3.18079 0
      vertex -8.73914 -3.18079 -30
    endloop
  endfacet
  facet normal -0.906309 -0.422616 0
    outer loop
      vertex -8.73914 -3.18079 0
      vertex -8.05404 -4.65 -30
      vertex -8.05404 -4.65 0
    endloop
  endfacet
  facet normal -0.819149 -0.573581 0
    outer loop
      vertex -7.12421 -5.97792 -30
      vertex -8.05404 -4.65 0
      vertex -8.05404 -4.65 -30
    endloop
  endfacet
  facet normal -0.819149 -0.573581 0
    outer loop
      vertex -8.05404 -4.65 0
      vertex -7.12421 -5.97792 -30
      vertex -7.12421 -5.97792 0
    endloop
  endfacet
  facet normal -0.258819 -0.965926 0
    outer loop
      vertex -3.18079 -8.73914 -30
      vertex -1.61493 -9.15871 0
      vertex -3.18079 -8.73914 0
    endloop
  endfacet
  facet normal -0.258819 -0.965926 -0
    outer loop
      vertex -1.61493 -9.15871 0
      vertex -3.18079 -8.73914 -30
      vertex -1.61493 -9.15871 -30
    endloop
  endfacet
  facet normal -0.573581 -0.819149 0
    outer loop
      vertex -5.97792 -7.12421 -30
      vertex -4.65 -8.05404 0
      vertex -5.97792 -7.12421 0
    endloop
  endfacet
  facet normal -0.573581 -0.819149 -0
    outer loop
      vertex -4.65 -8.05404 0
      vertex -5.97792 -7.12421 -30
      vertex -4.65 -8.05404 -30
    endloop
  endfacet
  facet normal 0.422616 -0.906309 0
    outer loop
      vertex 3.18079 -8.73914 -30
      vertex 4.65 -8.05404 0
      vertex 3.18079 -8.73914 0
    endloop
  endfacet
  facet normal 0.422616 -0.906309 0
    outer loop
      vertex 4.65 -8.05404 0
      vertex 3.18079 -8.73914 -30
      vertex 4.65 -8.05404 -30
    endloop
  endfacet
  facet normal 0 0 1
    outer loop
      vertex 3.1 0 0
      vertex 9.3 0 0
      vertex 9.15871 1.61493 0
    endloop
  endfacet
  facet normal 0 0 1
    outer loop
      vertex 3.1 0 0
      vertex 9.15871 1.61493 0
      vertex 8.73914 3.18079 0
    endloop
  endfacet
  facet normal 0 0 1
    outer loop
      vertex 9.3 0 0
      vertex 3.1 0 0
      vertex 9.15871 -1.61493 0
    endloop
  endfacet
  facet normal 0 0 1
    outer loop
      vertex 3.1 0 0
      vertex 8.73914 3.18079 0
      vertex 8.05404 4.65 0
    endloop
  endfacet
  facet normal 0 0 1
    outer loop
      vertex 9.15871 -1.61493 0
      vertex 3.1 0 0
      vertex 8.73914 -3.18079 0
    endloop
  endfacet
  facet normal 0 0 1
    outer loop
      vertex 1.55 2.68468 0
      vertex 8.05404 4.65 0
      vertex 7.12421 5.97792 0
    endloop
  endfacet
  facet normal 0 0 1
    outer loop
      vertex 8.73914 -3.18079 0
      vertex 3.1 0 0
      vertex 8.05404 -4.65 0
    endloop
  endfacet
  facet normal 0 0 1
    outer loop
      vertex 1.55 2.68468 0
      vertex 7.12421 5.97792 0
      vertex 5.97792 7.12421 0
    endloop
  endfacet
  facet normal -0 0 1
    outer loop
      vertex 1.55 -2.68468 0
      vertex 8.05404 -4.65 0
      vertex 3.1 0 0
    endloop
  endfacet
  facet normal 0 0 1
    outer loop
      vertex 1.55 2.68468 0
      vertex 5.97792 7.12421 0
      vertex 4.65 8.05404 0
    endloop
  endfacet
  facet normal 0 0 1
    outer loop
      vertex 8.05404 -4.65 0
      vertex 1.55 -2.68468 0
      vertex 7.12421 -5.97792 0
    endloop
  endfacet
  facet normal 0 0 1
    outer loop
      vertex 1.55 2.68468 0
      vertex 4.65 8.05404 0
      vertex 3.18079 8.73914 0
    endloop
  endfacet
  facet normal 0 0 1
    outer loop
      vertex 7.12421 -5.97792 0
      vertex 1.55 -2.68468 0
      vertex 5.97792 -7.12421 0
    endloop
  endfacet
  facet normal 0 0 1
    outer loop
      vertex 5.97792 -7.12421 0
      vertex 1.55 -2.68468 0
      vertex 4.65 -8.05404 0
    endloop
  endfacet
  facet normal 0 0 1
    outer loop
      vertex 1.55 2.68468 0
      vertex 3.18079 8.73914 0
      vertex 1.61493 9.15871 0
    endloop
  endfacet
  facet normal 0 0 1
    outer loop
      vertex 8.05404 4.65 0
      vertex 1.55 2.68468 0
      vertex 3.1 0 0
    endloop
  endfacet
  facet normal 0 0 1
    outer loop
      vertex 0 9.3 0
      vertex 1.55 2.68468 0
      vertex 1.61493 9.15871 0
    endloop
  endfacet
  facet normal 0 0 1
    outer loop
      vertex 0 9.3 0
      vertex -1.55 2.68468 0
      vertex 1.55 2.68468 0
    endloop
  endfacet
  facet normal -0 0 1
    outer loop
      vertex -1.61493 9.15871 0
      vertex -1.55 2.68468 0
      vertex 0 9.3 0
    endloop
  endfacet
  facet normal -0 0 1
    outer loop
      vertex -3.18079 8.73914 0
      vertex -1.55 2.68468 0
      vertex -1.61493 9.15871 0
    endloop
  endfacet
  facet normal -0 0 1
    outer loop
      vertex -4.65 8.05404 0
      vertex -1.55 2.68468 0
      vertex -3.18079 8.73914 0
    endloop
  endfacet
  facet normal 0 0 1
    outer loop
      vertex 4.65 -8.05404 0
      vertex 1.55 -2.68468 0
      vertex 3.18079 -8.73914 0
    endloop
  endfacet
  facet normal 0 0 1
    outer loop
      vertex 3.18079 -8.73914 0
      vertex 1.55 -2.68468 0
      vertex 1.61493 -9.15871 0
    endloop
  endfacet
  facet normal 0 0 1
    outer loop
      vertex 1.55 -2.68468 0
      vertex 0 -9.3 0
      vertex 1.61493 -9.15871 0
    endloop
  endfacet
  facet normal -0 0 1
    outer loop
      vertex -1.55 -2.68468 0
      vertex 0 -9.3 0
      vertex 1.55 -2.68468 0
    endloop
  endfacet
  facet normal 0 0 1
    outer loop
      vertex -1.55 -2.68468 0
      vertex -1.61493 -9.15871 0
      vertex 0 -9.3 0
    endloop
  endfacet
  facet normal 0 0 1
    outer loop
      vertex -8.05404 -4.65 0
      vertex -1.55 -2.68468 0
      vertex -3.1 0 0
    endloop
  endfacet
  facet normal 0 0 1
    outer loop
      vertex -1.55 -2.68468 0
      vertex -3.18079 -8.73914 0
      vertex -1.61493 -9.15871 0
    endloop
  endfacet
  facet normal -0 0 1
    outer loop
      vertex -5.97792 7.12421 0
      vertex -1.55 2.68468 0
      vertex -4.65 8.05404 0
    endloop
  endfacet
  facet normal -0 0 1
    outer loop
      vertex -7.12421 5.97792 0
      vertex -1.55 2.68468 0
      vertex -5.97792 7.12421 0
    endloop
  endfacet
  facet normal 0 0 1
    outer loop
      vertex -1.55 -2.68468 0
      vertex -4.65 -8.05404 0
      vertex -3.18079 -8.73914 0
    endloop
  endfacet
  facet normal -0 0 1
    outer loop
      vertex -8.05404 4.65 0
      vertex -1.55 2.68468 0
      vertex -7.12421 5.97792 0
    endloop
  endfacet
  facet normal 0 0 1
    outer loop
      vertex -1.55 -2.68468 0
      vertex -5.97792 -7.12421 0
      vertex -4.65 -8.05404 0
    endloop
  endfacet
  facet normal 0 0 1
    outer loop
      vertex -1.55 2.68468 0
      vertex -8.05404 4.65 0
      vertex -3.1 0 0
    endloop
  endfacet
  facet normal 0 0 1
    outer loop
      vertex -1.55 -2.68468 0
      vertex -7.12421 -5.97792 0
      vertex -5.97792 -7.12421 0
    endloop
  endfacet
  facet normal -0 0 1
    outer loop
      vertex -8.73914 3.18079 0
      vertex -3.1 0 0
      vertex -8.05404 4.65 0
    endloop
  endfacet
  facet normal 0 0 1
    outer loop
      vertex -1.55 -2.68468 0
      vertex -8.05404 -4.65 0
      vertex -7.12421 -5.97792 0
    endloop
  endfacet
  facet normal -0 0 1
    outer loop
      vertex -9.15871 1.61493 0
      vertex -3.1 0 0
      vertex -8.73914 3.18079 0
    endloop
  endfacet
  facet normal 0 0 1
    outer loop
      vertex -3.1 0 0
      vertex -8.73914 -3.18079 0
      vertex -8.05404 -4.65 0
    endloop
  endfacet
  facet normal 0 0 1
    outer loop
      vertex -9.3 0 0
      vertex -3.1 0 0
      vertex -9.15871 1.61493 0
    endloop
  endfacet
  facet normal 0 0 1
    outer loop
      vertex -3.1 0 0
      vertex -9.15871 -1.61493 0
      vertex -8.73914 -3.18079 0
    endloop
  endfacet
  facet normal 0 0 1
    outer loop
      vertex -3.1 0 0
      vertex -9.3 0 0
      vertex -9.15871 -1.61493 0
    endloop
  endfacet
  facet normal 0.258819 0.965926 -0
    outer loop
      vertex 3.18079 8.73914 -30
      vertex 1.61493 9.15871 0
      vertex 3.18079 8.73914 0
    endloop
  endfacet
  facet normal 0.258819 0.965926 0
    outer loop
      vertex 1.61493 9.15871 0
      vertex 3.18079 8.73914 -30
      vertex 1.61493 9.15871 -30
    endloop
  endfacet
  facet normal -0.906309 0.422616 0
    outer loop
      vertex -8.73914 3.18079 -30
      vertex -8.05404 4.65 0
      vertex -8.05404 4.65 -30
    endloop
  endfacet
  facet normal -0.906309 0.422616 0
    outer loop
      vertex -8.05404 4.65 0
      vertex -8.73914 3.18079 -30
      vertex -8.73914 3.18079 0
    endloop
  endfacet
  facet normal -0.0871569 -0.996195 0
    outer loop
      vertex -1.61493 -9.15871 -30
      vertex 0 -9.3 0
      vertex -1.61493 -9.15871 0
    endloop
  endfacet
  facet normal -0.0871569 -0.996195 -0
    outer loop
      vertex 0 -9.3 0
      vertex -1.61493 -9.15871 -30
      vertex 0 -9.3 -30
    endloop
  endfacet
  facet normal -0.819149 0.573581 0
    outer loop
      vertex -8.05404 4.65 -30
      vertex -7.12421 5.97792 0
      vertex -7.12421 5.97792 -30
    endloop
  endfacet
  facet normal -0.819149 0.573581 0
    outer loop
      vertex -7.12421 5.97792 0
      vertex -8.05404 4.65 -30
      vertex -8.05404 4.65 0
    endloop
  endfacet
  facet normal -0.707107 0.707107 0
    outer loop
      vertex -7.12421 5.97792 -30
      vertex -5.97792 7.12421 0
      vertex -5.97792 7.12421 -30
    endloop
  endfacet
  facet normal -0.707107 0.707107 0
    outer loop
      vertex -5.97792 7.12421 0
      vertex -7.12421 5.97792 -30
      vertex -7.12421 5.97792 0
    endloop
  endfacet
  facet normal 0 -1 0
    outer loop
      vertex -1.55 2.68468 -2.05
      vertex 1.55 2.68468 0
      vertex -1.55 2.68468 0
    endloop
  endfacet
  facet normal 0 -1 -0
    outer loop
      vertex 1.55 2.68468 0
      vertex -1.55 2.68468 -2.05
      vertex 1.55 2.68468 -2.05
    endloop
  endfacet
  facet normal -0.866026 -0.5 0
    outer loop
      vertex 3.1 0 -2.05
      vertex 1.55 2.68468 0
      vertex 1.55 2.68468 -2.05
    endloop
  endfacet
  facet normal -0.866026 -0.5 0
    outer loop
      vertex 1.55 2.68468 0
      vertex 3.1 0 -2.05
      vertex 3.1 0 0
    endloop
  endfacet
  facet normal 0 1 -0
    outer loop
      vertex 1.55 -2.68468 -2.05
      vertex -1.55 -2.68468 0
      vertex 1.55 -2.68468 0
    endloop
  endfacet
  facet normal 0 1 0
    outer loop
      vertex -1.55 -2.68468 0
      vertex 1.55 -2.68468 -2.05
      vertex -1.55 -2.68468 -2.05
    endloop
  endfacet
  facet normal -0.866026 0.5 0
    outer loop
      vertex 1.55 -2.68468 -2.05
      vertex 3.1 0 0
      vertex 3.1 0 -2.05
    endloop
  endfacet
  facet normal -0.866026 0.5 0
    outer loop
      vertex 3.1 0 0
      vertex 1.55 -2.68468 -2.05
      vertex 1.55 -2.68468 0
    endloop
  endfacet
  facet normal 0.866026 0.5 0
    outer loop
      vertex -1.55 -2.68468 0
      vertex -3.1 0 -2.05
      vertex -3.1 0 0
    endloop
  endfacet
  facet normal 0.866026 0.5 0
    outer loop
      vertex -3.1 0 -2.05
      vertex -1.55 -2.68468 0
      vertex -1.55 -2.68468 -2.05
    endloop
  endfacet
  facet normal 0.866026 -0.5 0
    outer loop
      vertex -3.1 0 0
      vertex -1.55 2.68468 -2.05
      vertex -1.55 2.68468 0
    endloop
  endfacet
  facet normal 0.866026 -0.5 0
    outer loop
      vertex -1.55 2.68468 -2.05
      vertex -3.1 0 0
      vertex -3.1 0 -2.05
    endloop
  endfacet
  facet normal 0 0 1
    outer loop
      vertex 3.1 0 -2.05
      vertex 1.57569 0.277837 -2.05
      vertex 1.6 0 -2.05
    endloop
  endfacet
  facet normal -0 0 1
    outer loop
      vertex 1.38564 0.799999 -2.05
      vertex 3.1 0 -2.05
      vertex 1.55 2.68468 -2.05
    endloop
  endfacet
  facet normal 0 0 1
    outer loop
      vertex 3.1 0 -2.05
      vertex 1.50351 0.547232 -2.05
      vertex 1.57569 0.277837 -2.05
    endloop
  endfacet
  facet normal 0 0 1
    outer loop
      vertex 3.1 0 -2.05
      vertex 1.38564 0.799999 -2.05
      vertex 1.50351 0.547232 -2.05
    endloop
  endfacet
  facet normal 0 0 1
    outer loop
      vertex 1.55 2.68468 -2.05
      vertex 1.22567 1.02846 -2.05
      vertex 1.38564 0.799999 -2.05
    endloop
  endfacet
  facet normal 0 0 1
    outer loop
      vertex 1.55 2.68468 -2.05
      vertex 1.02846 1.22567 -2.05
      vertex 1.22567 1.02846 -2.05
    endloop
  endfacet
  facet normal 0 0 1
    outer loop
      vertex 1.55 2.68468 -2.05
      vertex 0.799999 1.38564 -2.05
      vertex 1.02846 1.22567 -2.05
    endloop
  endfacet
  facet normal 0 0 1
    outer loop
      vertex 1.55 2.68468 -2.05
      vertex 0.547232 1.50351 -2.05
      vertex 0.799999 1.38564 -2.05
    endloop
  endfacet
  facet normal 0 0 1
    outer loop
      vertex 1.55 2.68468 -2.05
      vertex 0.277837 1.57569 -2.05
      vertex 0.547232 1.50351 -2.05
    endloop
  endfacet
  facet normal 0 0 1
    outer loop
      vertex 1.55 2.68468 -2.05
      vertex 0 1.6 -2.05
      vertex 0.277837 1.57569 -2.05
    endloop
  endfacet
  facet normal -0 0 1
    outer loop
      vertex -1.55 2.68468 -2.05
      vertex 0 1.6 -2.05
      vertex 1.55 2.68468 -2.05
    endloop
  endfacet
  facet normal 0 0 1
    outer loop
      vertex 0 1.6 -2.05
      vertex -1.55 2.68468 -2.05
      vertex -0.277837 1.57569 -2.05
    endloop
  endfacet
  facet normal 0 0 1
    outer loop
      vertex -0.277837 1.57569 -2.05
      vertex -1.55 2.68468 -2.05
      vertex -0.547232 1.50351 -2.05
    endloop
  endfacet
  facet normal 0 0 1
    outer loop
      vertex -0.547232 1.50351 -2.05
      vertex -1.55 2.68468 -2.05
      vertex -0.799999 1.38564 -2.05
    endloop
  endfacet
  facet normal 0 0 1
    outer loop
      vertex -1.55 2.68468 -2.05
      vertex -1.02846 1.22567 -2.05
      vertex -0.799999 1.38564 -2.05
    endloop
  endfacet
  facet normal 0 0 1
    outer loop
      vertex -1.55 2.68468 -2.05
      vertex -1.22567 1.02846 -2.05
      vertex -1.02846 1.22567 -2.05
    endloop
  endfacet
  facet normal 0 0 1
    outer loop
      vertex -1.55 2.68468 -2.05
      vertex -1.38564 0.799999 -2.05
      vertex -1.22567 1.02846 -2.05
    endloop
  endfacet
  facet normal 0 0 1
    outer loop
      vertex -3.1 0 -2.05
      vertex -1.38564 0.799999 -2.05
      vertex -1.55 2.68468 -2.05
    endloop
  endfacet
  facet normal 0 0 1
    outer loop
      vertex -1.38564 0.799999 -2.05
      vertex -3.1 0 -2.05
      vertex -1.50351 0.547232 -2.05
    endloop
  endfacet
  facet normal 0 0 1
    outer loop
      vertex -1.50351 0.547232 -2.05
      vertex -3.1 0 -2.05
      vertex -1.57569 0.277837 -2.05
    endloop
  endfacet
  facet normal 0 0 1
    outer loop
      vertex -1.57569 0.277837 -2.05
      vertex -3.1 0 -2.05
      vertex -1.6 0 -2.05
    endloop
  endfacet
  facet normal 0 0 1
    outer loop
      vertex 1.57569 -0.277837 -2.05
      vertex 3.1 0 -2.05
      vertex 1.6 0 -2.05
    endloop
  endfacet
  facet normal 0 0 1
    outer loop
      vertex 1.50351 -0.547232 -2.05
      vertex 3.1 0 -2.05
      vertex 1.57569 -0.277837 -2.05
    endloop
  endfacet
  facet normal 0 0 1
    outer loop
      vertex 1.38564 -0.799999 -2.05
      vertex 3.1 0 -2.05
      vertex 1.50351 -0.547232 -2.05
    endloop
  endfacet
  facet normal 0 0 1
    outer loop
      vertex 3.1 0 -2.05
      vertex 1.38564 -0.799999 -2.05
      vertex 1.55 -2.68468 -2.05
    endloop
  endfacet
  facet normal -0 0 1
    outer loop
      vertex 1.22567 -1.02846 -2.05
      vertex 1.55 -2.68468 -2.05
      vertex 1.38564 -0.799999 -2.05
    endloop
  endfacet
  facet normal -0 0 1
    outer loop
      vertex 1.02846 -1.22567 -2.05
      vertex 1.55 -2.68468 -2.05
      vertex 1.22567 -1.02846 -2.05
    endloop
  endfacet
  facet normal -0 0 1
    outer loop
      vertex 0.799999 -1.38564 -2.05
      vertex 1.55 -2.68468 -2.05
      vertex 1.02846 -1.22567 -2.05
    endloop
  endfacet
  facet normal -0 0 1
    outer loop
      vertex 0.547232 -1.50351 -2.05
      vertex 1.55 -2.68468 -2.05
      vertex 0.799999 -1.38564 -2.05
    endloop
  endfacet
  facet normal -0 0 1
    outer loop
      vertex 0.277837 -1.57569 -2.05
      vertex 1.55 -2.68468 -2.05
      vertex 0.547232 -1.50351 -2.05
    endloop
  endfacet
  facet normal -0 0 1
    outer loop
      vertex 0 -1.6 -2.05
      vertex 1.55 -2.68468 -2.05
      vertex 0.277837 -1.57569 -2.05
    endloop
  endfacet
  facet normal 0 0 1
    outer loop
      vertex -1.55 -2.68468 -2.05
      vertex 0 -1.6 -2.05
      vertex -0.277837 -1.57569 -2.05
    endloop
  endfacet
  facet normal 0 0 1
    outer loop
      vertex -1.55 -2.68468 -2.05
      vertex -0.277837 -1.57569 -2.05
      vertex -0.547232 -1.50351 -2.05
    endloop
  endfacet
  facet normal 0 0 1
    outer loop
      vertex -1.55 -2.68468 -2.05
      vertex -0.547232 -1.50351 -2.05
      vertex -0.799999 -1.38564 -2.05
    endloop
  endfacet
  facet normal 0 0 1
    outer loop
      vertex 0 -1.6 -2.05
      vertex -1.55 -2.68468 -2.05
      vertex 1.55 -2.68468 -2.05
    endloop
  endfacet
  facet normal 0 0 1
    outer loop
      vertex -1.02846 -1.22567 -2.05
      vertex -1.55 -2.68468 -2.05
      vertex -0.799999 -1.38564 -2.05
    endloop
  endfacet
  facet normal 0 0 1
    outer loop
      vertex -1.22567 -1.02846 -2.05
      vertex -1.55 -2.68468 -2.05
      vertex -1.02846 -1.22567 -2.05
    endloop
  endfacet
  facet normal 0 0 1
    outer loop
      vertex -1.38564 -0.799999 -2.05
      vertex -1.55 -2.68468 -2.05
      vertex -1.22567 -1.02846 -2.05
    endloop
  endfacet
  facet normal 0 0 1
    outer loop
      vertex -3.1 0 -2.05
      vertex -1.38564 -0.799999 -2.05
      vertex -1.50351 -0.547232 -2.05
    endloop
  endfacet
  facet normal 0 0 1
    outer loop
      vertex -3.1 0 -2.05
      vertex -1.50351 -0.547232 -2.05
      vertex -1.57569 -0.277837 -2.05
    endloop
  endfacet
  facet normal -0 0 1
    outer loop
      vertex -3.1 0 -2.05
      vertex -1.57569 -0.277837 -2.05
      vertex -1.6 0 -2.05
    endloop
  endfacet
  facet normal 0 0 1
    outer loop
      vertex -1.38564 -0.799999 -2.05
      vertex -3.1 0 -2.05
      vertex -1.55 -2.68468 -2.05
    endloop
  endfacet
  facet normal 0.258805 -0.96593 0
    outer loop
      vertex -0.547232 1.50351 -16
      vertex -0.277837 1.57569 -2.05
      vertex -0.547232 1.50351 -2.05
    endloop
  endfacet
  facet normal 0.258805 -0.96593 0
    outer loop
      vertex -0.277837 1.57569 -2.05
      vertex -0.547232 1.50351 -16
      vertex -0.277837 1.57569 -16
    endloop
  endfacet
  facet normal -0.96593 -0.258805 0
    outer loop
      vertex 1.57569 0.277837 -16
      vertex 1.50351 0.547232 -2.05
      vertex 1.50351 0.547232 -16
    endloop
  endfacet
  facet normal -0.96593 -0.258805 0
    outer loop
      vertex 1.50351 0.547232 -2.05
      vertex 1.57569 0.277837 -16
      vertex 1.57569 0.277837 -2.05
    endloop
  endfacet
  facet normal -0.996194 -0.0871643 0
    outer loop
      vertex 1.6 0 -16
      vertex 1.57569 0.277837 -2.05
      vertex 1.57569 0.277837 -16
    endloop
  endfacet
  facet normal -0.996194 -0.0871643 0
    outer loop
      vertex 1.57569 0.277837 -2.05
      vertex 1.6 0 -16
      vertex 1.6 0 -2.05
    endloop
  endfacet
  facet normal -0.906304 -0.422627 0
    outer loop
      vertex 1.50351 0.547232 -16
      vertex 1.38564 0.799999 -2.05
      vertex 1.38564 0.799999 -16
    endloop
  endfacet
  facet normal -0.906304 -0.422627 0
    outer loop
      vertex 1.38564 0.799999 -2.05
      vertex 1.50351 0.547232 -16
      vertex 1.50351 0.547232 -2.05
    endloop
  endfacet
  facet normal 0.906304 0.422627 0
    outer loop
      vertex -1.38564 -0.799999 -2.05
      vertex -1.50351 -0.547232 -16
      vertex -1.50351 -0.547232 -2.05
    endloop
  endfacet
  facet normal 0.906304 0.422627 0
    outer loop
      vertex -1.50351 -0.547232 -16
      vertex -1.38564 -0.799999 -2.05
      vertex -1.38564 -0.799999 -16
    endloop
  endfacet
  facet normal -0.906304 0.422627 0
    outer loop
      vertex 1.38564 -0.799999 -16
      vertex 1.50351 -0.547232 -2.05
      vertex 1.50351 -0.547232 -16
    endloop
  endfacet
  facet normal -0.906304 0.422627 0
    outer loop
      vertex 1.50351 -0.547232 -2.05
      vertex 1.38564 -0.799999 -16
      vertex 1.38564 -0.799999 -2.05
    endloop
  endfacet
  facet normal -0.819152 0.573576 0
    outer loop
      vertex 1.22567 -1.02846 -16
      vertex 1.38564 -0.799999 -2.05
      vertex 1.38564 -0.799999 -16
    endloop
  endfacet
  facet normal -0.819152 0.573576 0
    outer loop
      vertex 1.38564 -0.799999 -2.05
      vertex 1.22567 -1.02846 -16
      vertex 1.22567 -1.02846 -2.05
    endloop
  endfacet
  facet normal -0.996194 0.0871643 0
    outer loop
      vertex 1.57569 -0.277837 -16
      vertex 1.6 0 -2.05
      vertex 1.6 0 -16
    endloop
  endfacet
  facet normal -0.996194 0.0871643 0
    outer loop
      vertex 1.6 0 -2.05
      vertex 1.57569 -0.277837 -16
      vertex 1.57569 -0.277837 -2.05
    endloop
  endfacet
  facet normal -0.819152 -0.573576 0
    outer loop
      vertex 1.38564 0.799999 -16
      vertex 1.22567 1.02846 -2.05
      vertex 1.22567 1.02846 -16
    endloop
  endfacet
  facet normal -0.819152 -0.573576 0
    outer loop
      vertex 1.22567 1.02846 -2.05
      vertex 1.38564 0.799999 -16
      vertex 1.38564 0.799999 -2.05
    endloop
  endfacet
  facet normal 0.96593 0.258805 0
    outer loop
      vertex -1.50351 -0.547232 -2.05
      vertex -1.57569 -0.277837 -16
      vertex -1.57569 -0.277837 -2.05
    endloop
  endfacet
  facet normal 0.96593 0.258805 0
    outer loop
      vertex -1.57569 -0.277837 -16
      vertex -1.50351 -0.547232 -2.05
      vertex -1.50351 -0.547232 -16
    endloop
  endfacet
  facet normal 0.707107 -0.707107 0
    outer loop
      vertex -1.22567 1.02846 -2.05
      vertex -1.02846 1.22567 -16
      vertex -1.02846 1.22567 -2.05
    endloop
  endfacet
  facet normal 0.707107 -0.707107 0
    outer loop
      vertex -1.02846 1.22567 -16
      vertex -1.22567 1.02846 -2.05
      vertex -1.22567 1.02846 -16
    endloop
  endfacet
  facet normal 0.0871643 -0.996194 0
    outer loop
      vertex -0.277837 1.57569 -16
      vertex 0 1.6 -2.05
      vertex -0.277837 1.57569 -2.05
    endloop
  endfacet
  facet normal 0.0871643 -0.996194 0
    outer loop
      vertex 0 1.6 -2.05
      vertex -0.277837 1.57569 -16
      vertex 0 1.6 -16
    endloop
  endfacet
  facet normal 0.573576 -0.819152 0
    outer loop
      vertex -1.02846 1.22567 -16
      vertex -0.799999 1.38564 -2.05
      vertex -1.02846 1.22567 -2.05
    endloop
  endfacet
  facet normal 0.573576 -0.819152 0
    outer loop
      vertex -0.799999 1.38564 -2.05
      vertex -1.02846 1.22567 -16
      vertex -0.799999 1.38564 -16
    endloop
  endfacet
  facet normal 0.422627 -0.906304 0
    outer loop
      vertex -0.799999 1.38564 -16
      vertex -0.547232 1.50351 -2.05
      vertex -0.799999 1.38564 -2.05
    endloop
  endfacet
  facet normal 0.422627 -0.906304 0
    outer loop
      vertex -0.547232 1.50351 -2.05
      vertex -0.799999 1.38564 -16
      vertex -0.547232 1.50351 -16
    endloop
  endfacet
  facet normal -0.422627 0.906304 0
    outer loop
      vertex 0.799999 -1.38564 -16
      vertex 0.547232 -1.50351 -2.05
      vertex 0.799999 -1.38564 -2.05
    endloop
  endfacet
  facet normal -0.422627 0.906304 0
    outer loop
      vertex 0.547232 -1.50351 -2.05
      vertex 0.799999 -1.38564 -16
      vertex 0.547232 -1.50351 -16
    endloop
  endfacet
  facet normal 0.996194 0.0871643 0
    outer loop
      vertex -1.57569 -0.277837 -2.05
      vertex -1.6 0 -16
      vertex -1.6 0 -2.05
    endloop
  endfacet
  facet normal 0.996194 0.0871643 0
    outer loop
      vertex -1.6 0 -16
      vertex -1.57569 -0.277837 -2.05
      vertex -1.57569 -0.277837 -16
    endloop
  endfacet
  facet normal -0.573576 -0.819152 0
    outer loop
      vertex 0.799999 1.38564 -16
      vertex 1.02846 1.22567 -2.05
      vertex 0.799999 1.38564 -2.05
    endloop
  endfacet
  facet normal -0.573576 -0.819152 -0
    outer loop
      vertex 1.02846 1.22567 -2.05
      vertex 0.799999 1.38564 -16
      vertex 1.02846 1.22567 -16
    endloop
  endfacet
  facet normal -0.258805 -0.96593 0
    outer loop
      vertex 0.277837 1.57569 -16
      vertex 0.547232 1.50351 -2.05
      vertex 0.277837 1.57569 -2.05
    endloop
  endfacet
  facet normal -0.258805 -0.96593 -0
    outer loop
      vertex 0.547232 1.50351 -2.05
      vertex 0.277837 1.57569 -16
      vertex 0.547232 1.50351 -16
    endloop
  endfacet
  facet normal -0.573576 0.819152 0
    outer loop
      vertex 1.02846 -1.22567 -16
      vertex 0.799999 -1.38564 -2.05
      vertex 1.02846 -1.22567 -2.05
    endloop
  endfacet
  facet normal -0.573576 0.819152 0
    outer loop
      vertex 0.799999 -1.38564 -2.05
      vertex 1.02846 -1.22567 -16
      vertex 0.799999 -1.38564 -16
    endloop
  endfacet
  facet normal 0.96593 -0.258805 0
    outer loop
      vertex -1.57569 0.277837 -2.05
      vertex -1.50351 0.547232 -16
      vertex -1.50351 0.547232 -2.05
    endloop
  endfacet
  facet normal 0.96593 -0.258805 0
    outer loop
      vertex -1.50351 0.547232 -16
      vertex -1.57569 0.277837 -2.05
      vertex -1.57569 0.277837 -16
    endloop
  endfacet
  facet normal -0.422627 -0.906304 0
    outer loop
      vertex 0.547232 1.50351 -16
      vertex 0.799999 1.38564 -2.05
      vertex 0.547232 1.50351 -2.05
    endloop
  endfacet
  facet normal -0.422627 -0.906304 -0
    outer loop
      vertex 0.799999 1.38564 -2.05
      vertex 0.547232 1.50351 -16
      vertex 0.799999 1.38564 -16
    endloop
  endfacet
  facet normal 0.819152 -0.573576 0
    outer loop
      vertex -1.38564 0.799999 -2.05
      vertex -1.22567 1.02846 -16
      vertex -1.22567 1.02846 -2.05
    endloop
  endfacet
  facet normal 0.819152 -0.573576 0
    outer loop
      vertex -1.22567 1.02846 -16
      vertex -1.38564 0.799999 -2.05
      vertex -1.38564 0.799999 -16
    endloop
  endfacet
  facet normal 0.819152 0.573576 0
    outer loop
      vertex -1.22567 -1.02846 -2.05
      vertex -1.38564 -0.799999 -16
      vertex -1.38564 -0.799999 -2.05
    endloop
  endfacet
  facet normal 0.819152 0.573576 0
    outer loop
      vertex -1.38564 -0.799999 -16
      vertex -1.22567 -1.02846 -2.05
      vertex -1.22567 -1.02846 -16
    endloop
  endfacet
  facet normal -0.258805 0.96593 0
    outer loop
      vertex 0.547232 -1.50351 -16
      vertex 0.277837 -1.57569 -2.05
      vertex 0.547232 -1.50351 -2.05
    endloop
  endfacet
  facet normal -0.258805 0.96593 0
    outer loop
      vertex 0.277837 -1.57569 -2.05
      vertex 0.547232 -1.50351 -16
      vertex 0.277837 -1.57569 -16
    endloop
  endfacet
  facet normal -0.707107 0.707107 0
    outer loop
      vertex 1.02846 -1.22567 -16
      vertex 1.22567 -1.02846 -2.05
      vertex 1.22567 -1.02846 -16
    endloop
  endfacet
  facet normal -0.707107 0.707107 0
    outer loop
      vertex 1.22567 -1.02846 -2.05
      vertex 1.02846 -1.22567 -16
      vertex 1.02846 -1.22567 -2.05
    endloop
  endfacet
  facet normal -0.707107 -0.707107 0
    outer loop
      vertex 1.22567 1.02846 -16
      vertex 1.02846 1.22567 -2.05
      vertex 1.02846 1.22567 -16
    endloop
  endfacet
  facet normal -0.707107 -0.707107 0
    outer loop
      vertex 1.02846 1.22567 -2.05
      vertex 1.22567 1.02846 -16
      vertex 1.22567 1.02846 -2.05
    endloop
  endfacet
  facet normal -0.96593 0.258805 0
    outer loop
      vertex 1.50351 -0.547232 -16
      vertex 1.57569 -0.277837 -2.05
      vertex 1.57569 -0.277837 -16
    endloop
  endfacet
  facet normal -0.96593 0.258805 0
    outer loop
      vertex 1.57569 -0.277837 -2.05
      vertex 1.50351 -0.547232 -16
      vertex 1.50351 -0.547232 -2.05
    endloop
  endfacet
  facet normal 0.707107 0.707107 0
    outer loop
      vertex -1.02846 -1.22567 -2.05
      vertex -1.22567 -1.02846 -16
      vertex -1.22567 -1.02846 -2.05
    endloop
  endfacet
  facet normal 0.707107 0.707107 0
    outer loop
      vertex -1.22567 -1.02846 -16
      vertex -1.02846 -1.22567 -2.05
      vertex -1.02846 -1.22567 -16
    endloop
  endfacet
  facet normal 0.906304 -0.422627 0
    outer loop
      vertex -1.50351 0.547232 -2.05
      vertex -1.38564 0.799999 -16
      vertex -1.38564 0.799999 -2.05
    endloop
  endfacet
  facet normal 0.906304 -0.422627 0
    outer loop
      vertex -1.38564 0.799999 -16
      vertex -1.50351 0.547232 -2.05
      vertex -1.50351 0.547232 -16
    endloop
  endfacet
  facet normal 0.573576 0.819152 -0
    outer loop
      vertex -0.799999 -1.38564 -16
      vertex -1.02846 -1.22567 -2.05
      vertex -0.799999 -1.38564 -2.05
    endloop
  endfacet
  facet normal 0.573576 0.819152 0
    outer loop
      vertex -1.02846 -1.22567 -2.05
      vertex -0.799999 -1.38564 -16
      vertex -1.02846 -1.22567 -16
    endloop
  endfacet
  facet normal -0.0871643 0.996194 0
    outer loop
      vertex 0.277837 -1.57569 -16
      vertex 0 -1.6 -2.05
      vertex 0.277837 -1.57569 -2.05
    endloop
  endfacet
  facet normal -0.0871643 0.996194 0
    outer loop
      vertex 0 -1.6 -2.05
      vertex 0.277837 -1.57569 -16
      vertex 0 -1.6 -16
    endloop
  endfacet
  facet normal -0.0871643 -0.996194 0
    outer loop
      vertex 0 1.6 -16
      vertex 0.277837 1.57569 -2.05
      vertex 0 1.6 -2.05
    endloop
  endfacet
  facet normal -0.0871643 -0.996194 -0
    outer loop
      vertex 0.277837 1.57569 -2.05
      vertex 0 1.6 -16
      vertex 0.277837 1.57569 -16
    endloop
  endfacet
  facet normal 0.0871643 0.996194 -0
    outer loop
      vertex 0 -1.6 -16
      vertex -0.277837 -1.57569 -2.05
      vertex 0 -1.6 -2.05
    endloop
  endfacet
  facet normal 0.0871643 0.996194 0
    outer loop
      vertex -0.277837 -1.57569 -2.05
      vertex 0 -1.6 -16
      vertex -0.277837 -1.57569 -16
    endloop
  endfacet
  facet normal 0.258805 0.96593 -0
    outer loop
      vertex -0.277837 -1.57569 -16
      vertex -0.547232 -1.50351 -2.05
      vertex -0.277837 -1.57569 -2.05
    endloop
  endfacet
  facet normal 0.258805 0.96593 0
    outer loop
      vertex -0.547232 -1.50351 -2.05
      vertex -0.277837 -1.57569 -16
      vertex -0.547232 -1.50351 -16
    endloop
  endfacet
  facet normal 0.996194 -0.0871643 0
    outer loop
      vertex -1.6 0 -2.05
      vertex -1.57569 0.277837 -16
      vertex -1.57569 0.277837 -2.05
    endloop
  endfacet
  facet normal 0.996194 -0.0871643 0
    outer loop
      vertex -1.57569 0.277837 -16
      vertex -1.6 0 -2.05
      vertex -1.6 0 -16
    endloop
  endfacet
  facet normal 0.422627 0.906304 -0
    outer loop
      vertex -0.547232 -1.50351 -16
      vertex -0.799999 -1.38564 -2.05
      vertex -0.547232 -1.50351 -2.05
    endloop
  endfacet
  facet normal 0.422627 0.906304 0
    outer loop
      vertex -0.799999 -1.38564 -2.05
      vertex -0.547232 -1.50351 -16
      vertex -0.799999 -1.38564 -16
    endloop
  endfacet
  facet normal -0.0871632 0.996194 0
    outer loop
      vertex 0.538309 -3.0529 -30
      vertex 0 -3.1 -16
      vertex 0.538309 -3.0529 -16
    endloop
  endfacet
  facet normal -0.0871632 0.996194 0
    outer loop
      vertex 0 -3.1 -16
      vertex 0.538309 -3.0529 -30
      vertex 0 -3.1 -30
    endloop
  endfacet
  facet normal -0.965929 -0.258808 0
    outer loop
      vertex 3.0529 0.538309 -30
      vertex 2.91305 1.06026 -16
      vertex 2.91305 1.06026 -30
    endloop
  endfacet
  facet normal -0.965929 -0.258808 0
    outer loop
      vertex 2.91305 1.06026 -16
      vertex 3.0529 0.538309 -30
      vertex 3.0529 0.538309 -16
    endloop
  endfacet
  facet normal -0.996194 -0.0871632 0
    outer loop
      vertex 3.1 0 -30
      vertex 3.0529 0.538309 -16
      vertex 3.0529 0.538309 -30
    endloop
  endfacet
  facet normal -0.996194 -0.0871632 0
    outer loop
      vertex 3.0529 0.538309 -16
      vertex 3.1 0 -30
      vertex 3.1 0 -16
    endloop
  endfacet
  facet normal -0.906307 -0.422619 0
    outer loop
      vertex 2.91305 1.06026 -30
      vertex 2.68468 1.55 -16
      vertex 2.68468 1.55 -30
    endloop
  endfacet
  facet normal -0.906307 -0.422619 0
    outer loop
      vertex 2.68468 1.55 -16
      vertex 2.91305 1.06026 -30
      vertex 2.91305 1.06026 -16
    endloop
  endfacet
  facet normal -0.819152 -0.573577 0
    outer loop
      vertex 2.68468 1.55 -30
      vertex 2.37474 1.99264 -16
      vertex 2.37474 1.99264 -30
    endloop
  endfacet
  facet normal -0.819152 -0.573577 0
    outer loop
      vertex 2.37474 1.99264 -16
      vertex 2.68468 1.55 -30
      vertex 2.68468 1.55 -16
    endloop
  endfacet
  facet normal -0.707107 -0.707107 0
    outer loop
      vertex 2.37474 1.99264 -30
      vertex 1.99264 2.37474 -16
      vertex 1.99264 2.37474 -30
    endloop
  endfacet
  facet normal -0.707107 -0.707107 0
    outer loop
      vertex 1.99264 2.37474 -16
      vertex 2.37474 1.99264 -30
      vertex 2.37474 1.99264 -16
    endloop
  endfacet
  facet normal -0.965929 0.258808 0
    outer loop
      vertex 2.91305 -1.06026 -30
      vertex 3.0529 -0.538309 -16
      vertex 3.0529 -0.538309 -30
    endloop
  endfacet
  facet normal -0.965929 0.258808 0
    outer loop
      vertex 3.0529 -0.538309 -16
      vertex 2.91305 -1.06026 -30
      vertex 2.91305 -1.06026 -16
    endloop
  endfacet
  facet normal -0.707107 0.707107 0
    outer loop
      vertex 1.99264 -2.37474 -30
      vertex 2.37474 -1.99264 -16
      vertex 2.37474 -1.99264 -30
    endloop
  endfacet
  facet normal -0.707107 0.707107 0
    outer loop
      vertex 2.37474 -1.99264 -16
      vertex 1.99264 -2.37474 -30
      vertex 1.99264 -2.37474 -16
    endloop
  endfacet
  facet normal 0.422619 -0.906307 0
    outer loop
      vertex -1.55 2.68468 -30
      vertex -1.06026 2.91305 -16
      vertex -1.55 2.68468 -16
    endloop
  endfacet
  facet normal 0.422619 -0.906307 0
    outer loop
      vertex -1.06026 2.91305 -16
      vertex -1.55 2.68468 -30
      vertex -1.06026 2.91305 -30
    endloop
  endfacet
  facet normal -0.258808 0.965929 0
    outer loop
      vertex 1.06026 -2.91305 -30
      vertex 0.538309 -3.0529 -16
      vertex 1.06026 -2.91305 -16
    endloop
  endfacet
  facet normal -0.258808 0.965929 0
    outer loop
      vertex 0.538309 -3.0529 -16
      vertex 1.06026 -2.91305 -30
      vertex 0.538309 -3.0529 -30
    endloop
  endfacet
  facet normal 0.906307 -0.422619 0
    outer loop
      vertex -2.91305 1.06026 -16
      vertex -2.68468 1.55 -30
      vertex -2.68468 1.55 -16
    endloop
  endfacet
  facet normal 0.906307 -0.422619 0
    outer loop
      vertex -2.68468 1.55 -30
      vertex -2.91305 1.06026 -16
      vertex -2.91305 1.06026 -30
    endloop
  endfacet
  facet normal 0.996194 0.0871632 0
    outer loop
      vertex -3.0529 -0.538309 -16
      vertex -3.1 0 -30
      vertex -3.1 0 -16
    endloop
  endfacet
  facet normal 0.996194 0.0871632 0
    outer loop
      vertex -3.1 0 -30
      vertex -3.0529 -0.538309 -16
      vertex -3.0529 -0.538309 -30
    endloop
  endfacet
  facet normal -0.819152 0.573577 0
    outer loop
      vertex 2.37474 -1.99264 -30
      vertex 2.68468 -1.55 -16
      vertex 2.68468 -1.55 -30
    endloop
  endfacet
  facet normal -0.819152 0.573577 0
    outer loop
      vertex 2.68468 -1.55 -16
      vertex 2.37474 -1.99264 -30
      vertex 2.37474 -1.99264 -16
    endloop
  endfacet
  facet normal 0.965929 -0.258808 0
    outer loop
      vertex -3.0529 0.538309 -16
      vertex -2.91305 1.06026 -30
      vertex -2.91305 1.06026 -16
    endloop
  endfacet
  facet normal 0.965929 -0.258808 0
    outer loop
      vertex -2.91305 1.06026 -30
      vertex -3.0529 0.538309 -16
      vertex -3.0529 0.538309 -30
    endloop
  endfacet
  facet normal -0.906307 0.422619 0
    outer loop
      vertex 2.68468 -1.55 -30
      vertex 2.91305 -1.06026 -16
      vertex 2.91305 -1.06026 -30
    endloop
  endfacet
  facet normal -0.906307 0.422619 0
    outer loop
      vertex 2.91305 -1.06026 -16
      vertex 2.68468 -1.55 -30
      vertex 2.68468 -1.55 -16
    endloop
  endfacet
  facet normal -0.422619 -0.906307 0
    outer loop
      vertex 1.06026 2.91305 -30
      vertex 1.55 2.68468 -16
      vertex 1.06026 2.91305 -16
    endloop
  endfacet
  facet normal -0.422619 -0.906307 -0
    outer loop
      vertex 1.55 2.68468 -16
      vertex 1.06026 2.91305 -30
      vertex 1.55 2.68468 -30
    endloop
  endfacet
  facet normal 0.965929 0.258808 0
    outer loop
      vertex -2.91305 -1.06026 -16
      vertex -3.0529 -0.538309 -30
      vertex -3.0529 -0.538309 -16
    endloop
  endfacet
  facet normal 0.965929 0.258808 0
    outer loop
      vertex -3.0529 -0.538309 -30
      vertex -2.91305 -1.06026 -16
      vertex -2.91305 -1.06026 -30
    endloop
  endfacet
  facet normal -0.996194 0.0871632 0
    outer loop
      vertex 3.0529 -0.538309 -30
      vertex 3.1 0 -16
      vertex 3.1 0 -30
    endloop
  endfacet
  facet normal -0.996194 0.0871632 0
    outer loop
      vertex 3.1 0 -16
      vertex 3.0529 -0.538309 -30
      vertex 3.0529 -0.538309 -16
    endloop
  endfacet
  facet normal -0.573577 0.819152 0
    outer loop
      vertex 1.99264 -2.37474 -30
      vertex 1.55 -2.68468 -16
      vertex 1.99264 -2.37474 -16
    endloop
  endfacet
  facet normal -0.573577 0.819152 0
    outer loop
      vertex 1.55 -2.68468 -16
      vertex 1.99264 -2.37474 -30
      vertex 1.55 -2.68468 -30
    endloop
  endfacet
  facet normal 0.573577 -0.819152 0
    outer loop
      vertex -1.99264 2.37474 -30
      vertex -1.55 2.68468 -16
      vertex -1.99264 2.37474 -16
    endloop
  endfacet
  facet normal 0.573577 -0.819152 0
    outer loop
      vertex -1.55 2.68468 -16
      vertex -1.99264 2.37474 -30
      vertex -1.55 2.68468 -30
    endloop
  endfacet
  facet normal -0.573577 -0.819152 0
    outer loop
      vertex 1.55 2.68468 -30
      vertex 1.99264 2.37474 -16
      vertex 1.55 2.68468 -16
    endloop
  endfacet
  facet normal -0.573577 -0.819152 -0
    outer loop
      vertex 1.99264 2.37474 -16
      vertex 1.55 2.68468 -30
      vertex 1.99264 2.37474 -30
    endloop
  endfacet
  facet normal 0.258808 -0.965929 0
    outer loop
      vertex -1.06026 2.91305 -30
      vertex -0.538309 3.0529 -16
      vertex -1.06026 2.91305 -16
    endloop
  endfacet
  facet normal 0.258808 -0.965929 0
    outer loop
      vertex -0.538309 3.0529 -16
      vertex -1.06026 2.91305 -30
      vertex -0.538309 3.0529 -30
    endloop
  endfacet
  facet normal 0.422619 0.906307 -0
    outer loop
      vertex -1.06026 -2.91305 -30
      vertex -1.55 -2.68468 -16
      vertex -1.06026 -2.91305 -16
    endloop
  endfacet
  facet normal 0.422619 0.906307 0
    outer loop
      vertex -1.55 -2.68468 -16
      vertex -1.06026 -2.91305 -30
      vertex -1.55 -2.68468 -30
    endloop
  endfacet
  facet normal 0.707107 -0.707107 0
    outer loop
      vertex -2.37474 1.99264 -16
      vertex -1.99264 2.37474 -30
      vertex -1.99264 2.37474 -16
    endloop
  endfacet
  facet normal 0.707107 -0.707107 0
    outer loop
      vertex -1.99264 2.37474 -30
      vertex -2.37474 1.99264 -16
      vertex -2.37474 1.99264 -30
    endloop
  endfacet
  facet normal 0.0871632 -0.996194 0
    outer loop
      vertex -0.538309 3.0529 -30
      vertex 0 3.1 -16
      vertex -0.538309 3.0529 -16
    endloop
  endfacet
  facet normal 0.0871632 -0.996194 0
    outer loop
      vertex 0 3.1 -16
      vertex -0.538309 3.0529 -30
      vertex 0 3.1 -30
    endloop
  endfacet
  facet normal 0.906307 0.422619 0
    outer loop
      vertex -2.68468 -1.55 -16
      vertex -2.91305 -1.06026 -30
      vertex -2.91305 -1.06026 -16
    endloop
  endfacet
  facet normal 0.906307 0.422619 0
    outer loop
      vertex -2.91305 -1.06026 -30
      vertex -2.68468 -1.55 -16
      vertex -2.68468 -1.55 -30
    endloop
  endfacet
  facet normal -0.0871632 -0.996194 0
    outer loop
      vertex 0 3.1 -30
      vertex 0.538309 3.0529 -16
      vertex 0 3.1 -16
    endloop
  endfacet
  facet normal -0.0871632 -0.996194 -0
    outer loop
      vertex 0.538309 3.0529 -16
      vertex 0 3.1 -30
      vertex 0.538309 3.0529 -30
    endloop
  endfacet
  facet normal 0.996194 -0.0871632 0
    outer loop
      vertex -3.1 0 -16
      vertex -3.0529 0.538309 -30
      vertex -3.0529 0.538309 -16
    endloop
  endfacet
  facet normal 0.996194 -0.0871632 0
    outer loop
      vertex -3.0529 0.538309 -30
      vertex -3.1 0 -16
      vertex -3.1 0 -30
    endloop
  endfacet
  facet normal 0.819152 0.573577 0
    outer loop
      vertex -2.37474 -1.99264 -16
      vertex -2.68468 -1.55 -30
      vertex -2.68468 -1.55 -16
    endloop
  endfacet
  facet normal 0.819152 0.573577 0
    outer loop
      vertex -2.68468 -1.55 -30
      vertex -2.37474 -1.99264 -16
      vertex -2.37474 -1.99264 -30
    endloop
  endfacet
  facet normal 0 0 -1
    outer loop
      vertex 1.6 0 -16
      vertex 3.1 0 -16
      vertex 3.0529 -0.538309 -16
    endloop
  endfacet
  facet normal 0 0 -1
    outer loop
      vertex 1.57569 -0.277837 -16
      vertex 3.0529 -0.538309 -16
      vertex 2.91305 -1.06026 -16
    endloop
  endfacet
  facet normal 0 0 -1
    outer loop
      vertex 3.1 0 -16
      vertex 1.6 0 -16
      vertex 3.0529 0.538309 -16
    endloop
  endfacet
  facet normal 0 0 -1
    outer loop
      vertex 1.50351 -0.547232 -16
      vertex 2.91305 -1.06026 -16
      vertex 2.68468 -1.55 -16
    endloop
  endfacet
  facet normal 0 0 -1
    outer loop
      vertex 1.57569 0.277837 -16
      vertex 3.0529 0.538309 -16
      vertex 1.6 0 -16
    endloop
  endfacet
  facet normal 0 0 -1
    outer loop
      vertex 1.38564 -0.799999 -16
      vertex 2.68468 -1.55 -16
      vertex 2.37474 -1.99264 -16
    endloop
  endfacet
  facet normal -0 0 -1
    outer loop
      vertex 3.0529 0.538309 -16
      vertex 1.57569 0.277837 -16
      vertex 2.91305 1.06026 -16
    endloop
  endfacet
  facet normal 0 0 -1
    outer loop
      vertex 1.22567 -1.02846 -16
      vertex 2.37474 -1.99264 -16
      vertex 1.99264 -2.37474 -16
    endloop
  endfacet
  facet normal 0 0 -1
    outer loop
      vertex 1.50351 0.547232 -16
      vertex 2.91305 1.06026 -16
      vertex 1.57569 0.277837 -16
    endloop
  endfacet
  facet normal -0 0 -1
    outer loop
      vertex 2.91305 1.06026 -16
      vertex 1.50351 0.547232 -16
      vertex 2.68468 1.55 -16
    endloop
  endfacet
  facet normal 0 0 -1
    outer loop
      vertex 3.0529 -0.538309 -16
      vertex 1.57569 -0.277837 -16
      vertex 1.6 0 -16
    endloop
  endfacet
  facet normal 0 0 -1
    outer loop
      vertex 1.02846 -1.22567 -16
      vertex 1.99264 -2.37474 -16
      vertex 1.55 -2.68468 -16
    endloop
  endfacet
  facet normal 0 0 -1
    outer loop
      vertex 2.91305 -1.06026 -16
      vertex 1.50351 -0.547232 -16
      vertex 1.57569 -0.277837 -16
    endloop
  endfacet
  facet normal 0 0 -1
    outer loop
      vertex 2.68468 -1.55 -16
      vertex 1.38564 -0.799999 -16
      vertex 1.50351 -0.547232 -16
    endloop
  endfacet
  facet normal 0 0 -1
    outer loop
      vertex 2.37474 -1.99264 -16
      vertex 1.22567 -1.02846 -16
      vertex 1.38564 -0.799999 -16
    endloop
  endfacet
  facet normal 0 0 -1
    outer loop
      vertex 0.799999 -1.38564 -16
      vertex 1.55 -2.68468 -16
      vertex 1.06026 -2.91305 -16
    endloop
  endfacet
  facet normal 0 0 -1
    outer loop
      vertex 1.99264 -2.37474 -16
      vertex 1.02846 -1.22567 -16
      vertex 1.22567 -1.02846 -16
    endloop
  endfacet
  facet normal 0 0 -1
    outer loop
      vertex 1.55 -2.68468 -16
      vertex 0.799999 -1.38564 -16
      vertex 1.02846 -1.22567 -16
    endloop
  endfacet
  facet normal 0 0 -1
    outer loop
      vertex 1.06026 -2.91305 -16
      vertex 0.547232 -1.50351 -16
      vertex 0.799999 -1.38564 -16
    endloop
  endfacet
  facet normal 0 0 -1
    outer loop
      vertex 0.538309 -3.0529 -16
      vertex 0.547232 -1.50351 -16
      vertex 1.06026 -2.91305 -16
    endloop
  endfacet
  facet normal 0 0 -1
    outer loop
      vertex 0.538309 -3.0529 -16
      vertex 0.277837 -1.57569 -16
      vertex 0.547232 -1.50351 -16
    endloop
  endfacet
  facet normal 0 0 -1
    outer loop
      vertex 0 -3.1 -16
      vertex 0.277837 -1.57569 -16
      vertex 0.538309 -3.0529 -16
    endloop
  endfacet
  facet normal 0 0 -1
    outer loop
      vertex 0 -3.1 -16
      vertex 0 -1.6 -16
      vertex 0.277837 -1.57569 -16
    endloop
  endfacet
  facet normal 0 0 -1
    outer loop
      vertex 0 -3.1 -16
      vertex -0.277837 -1.57569 -16
      vertex 0 -1.6 -16
    endloop
  endfacet
  facet normal 0 0 -1
    outer loop
      vertex -0.538309 -3.0529 -16
      vertex -0.277837 -1.57569 -16
      vertex 0 -3.1 -16
    endloop
  endfacet
  facet normal 0 0 -1
    outer loop
      vertex -0.538309 -3.0529 -16
      vertex -0.547232 -1.50351 -16
      vertex -0.277837 -1.57569 -16
    endloop
  endfacet
  facet normal 0 0 -1
    outer loop
      vertex -1.06026 -2.91305 -16
      vertex -0.547232 -1.50351 -16
      vertex -0.538309 -3.0529 -16
    endloop
  endfacet
  facet normal -0 0 -1
    outer loop
      vertex -0.547232 -1.50351 -16
      vertex -1.06026 -2.91305 -16
      vertex -0.799999 -1.38564 -16
    endloop
  endfacet
  facet normal 0 0 -1
    outer loop
      vertex -1.55 -2.68468 -16
      vertex -0.799999 -1.38564 -16
      vertex -1.06026 -2.91305 -16
    endloop
  endfacet
  facet normal -0 0 -1
    outer loop
      vertex -0.799999 -1.38564 -16
      vertex -1.55 -2.68468 -16
      vertex -1.02846 -1.22567 -16
    endloop
  endfacet
  facet normal 0 0 -1
    outer loop
      vertex -1.99264 -2.37474 -16
      vertex -1.02846 -1.22567 -16
      vertex -1.55 -2.68468 -16
    endloop
  endfacet
  facet normal -0 0 -1
    outer loop
      vertex -1.02846 -1.22567 -16
      vertex -1.99264 -2.37474 -16
      vertex -1.22567 -1.02846 -16
    endloop
  endfacet
  facet normal 0 0 -1
    outer loop
      vertex -2.37474 -1.99264 -16
      vertex -1.22567 -1.02846 -16
      vertex -1.99264 -2.37474 -16
    endloop
  endfacet
  facet normal -0 0 -1
    outer loop
      vertex -1.22567 -1.02846 -16
      vertex -2.37474 -1.99264 -16
      vertex -1.38564 -0.799999 -16
    endloop
  endfacet
  facet normal 0 0 -1
    outer loop
      vertex -2.68468 -1.55 -16
      vertex -1.38564 -0.799999 -16
      vertex -2.37474 -1.99264 -16
    endloop
  endfacet
  facet normal -0 0 -1
    outer loop
      vertex -1.38564 -0.799999 -16
      vertex -2.68468 -1.55 -16
      vertex -1.50351 -0.547232 -16
    endloop
  endfacet
  facet normal 0 0 -1
    outer loop
      vertex 1.38564 0.799999 -16
      vertex 2.68468 1.55 -16
      vertex 1.50351 0.547232 -16
    endloop
  endfacet
  facet normal -0 0 -1
    outer loop
      vertex 2.68468 1.55 -16
      vertex 1.38564 0.799999 -16
      vertex 2.37474 1.99264 -16
    endloop
  endfacet
  facet normal 0 0 -1
    outer loop
      vertex 1.22567 1.02846 -16
      vertex 2.37474 1.99264 -16
      vertex 1.38564 0.799999 -16
    endloop
  endfacet
  facet normal -0 0 -1
    outer loop
      vertex 2.37474 1.99264 -16
      vertex 1.22567 1.02846 -16
      vertex 1.99264 2.37474 -16
    endloop
  endfacet
  facet normal 0 0 -1
    outer loop
      vertex 1.02846 1.22567 -16
      vertex 1.99264 2.37474 -16
      vertex 1.22567 1.02846 -16
    endloop
  endfacet
  facet normal -0 0 -1
    outer loop
      vertex 1.99264 2.37474 -16
      vertex 1.02846 1.22567 -16
      vertex 1.55 2.68468 -16
    endloop
  endfacet
  facet normal 0 0 -1
    outer loop
      vertex 0.799999 1.38564 -16
      vertex 1.55 2.68468 -16
      vertex 1.02846 1.22567 -16
    endloop
  endfacet
  facet normal -0 0 -1
    outer loop
      vertex 1.55 2.68468 -16
      vertex 0.799999 1.38564 -16
      vertex 1.06026 2.91305 -16
    endloop
  endfacet
  facet normal 0 0 -1
    outer loop
      vertex 0.547232 1.50351 -16
      vertex 1.06026 2.91305 -16
      vertex 0.799999 1.38564 -16
    endloop
  endfacet
  facet normal 0 0 -1
    outer loop
      vertex 0.547232 1.50351 -16
      vertex 0.538309 3.0529 -16
      vertex 1.06026 2.91305 -16
    endloop
  endfacet
  facet normal 0 0 -1
    outer loop
      vertex 0.277837 1.57569 -16
      vertex 0.538309 3.0529 -16
      vertex 0.547232 1.50351 -16
    endloop
  endfacet
  facet normal 0 0 -1
    outer loop
      vertex 0 1.6 -16
      vertex 0.538309 3.0529 -16
      vertex 0.277837 1.57569 -16
    endloop
  endfacet
  facet normal 0 0 -1
    outer loop
      vertex 0 1.6 -16
      vertex 0 3.1 -16
      vertex 0.538309 3.0529 -16
    endloop
  endfacet
  facet normal 0 0 -1
    outer loop
      vertex -0.277837 1.57569 -16
      vertex 0 3.1 -16
      vertex 0 1.6 -16
    endloop
  endfacet
  facet normal 0 0 -1
    outer loop
      vertex -0.277837 1.57569 -16
      vertex -0.538309 3.0529 -16
      vertex 0 3.1 -16
    endloop
  endfacet
  facet normal 0 0 -1
    outer loop
      vertex -0.547232 1.50351 -16
      vertex -0.538309 3.0529 -16
      vertex -0.277837 1.57569 -16
    endloop
  endfacet
  facet normal 0 0 -1
    outer loop
      vertex -1.06026 2.91305 -16
      vertex -0.547232 1.50351 -16
      vertex -0.799999 1.38564 -16
    endloop
  endfacet
  facet normal 0 0 -1
    outer loop
      vertex -1.55 2.68468 -16
      vertex -0.799999 1.38564 -16
      vertex -1.02846 1.22567 -16
    endloop
  endfacet
  facet normal 0 0 -1
    outer loop
      vertex -0.547232 1.50351 -16
      vertex -1.06026 2.91305 -16
      vertex -0.538309 3.0529 -16
    endloop
  endfacet
  facet normal 0 0 -1
    outer loop
      vertex -1.99264 2.37474 -16
      vertex -1.02846 1.22567 -16
      vertex -1.22567 1.02846 -16
    endloop
  endfacet
  facet normal 0 0 -1
    outer loop
      vertex -2.37474 1.99264 -16
      vertex -1.22567 1.02846 -16
      vertex -1.38564 0.799999 -16
    endloop
  endfacet
  facet normal 0 0 -1
    outer loop
      vertex -2.68468 1.55 -16
      vertex -1.38564 0.799999 -16
      vertex -1.50351 0.547232 -16
    endloop
  endfacet
  facet normal 0 0 -1
    outer loop
      vertex -0.799999 1.38564 -16
      vertex -1.55 2.68468 -16
      vertex -1.06026 2.91305 -16
    endloop
  endfacet
  facet normal 0 0 -1
    outer loop
      vertex -2.91305 1.06026 -16
      vertex -1.50351 0.547232 -16
      vertex -1.57569 0.277837 -16
    endloop
  endfacet
  facet normal 0 0 -1
    outer loop
      vertex -3.0529 0.538309 -16
      vertex -1.57569 0.277837 -16
      vertex -1.6 0 -16
    endloop
  endfacet
  facet normal 0 0 -1
    outer loop
      vertex -2.91305 -1.06026 -16
      vertex -1.50351 -0.547232 -16
      vertex -2.68468 -1.55 -16
    endloop
  endfacet
  facet normal 0 0 -1
    outer loop
      vertex -1.02846 1.22567 -16
      vertex -1.99264 2.37474 -16
      vertex -1.55 2.68468 -16
    endloop
  endfacet
  facet normal -0 0 -1
    outer loop
      vertex -1.50351 -0.547232 -16
      vertex -2.91305 -1.06026 -16
      vertex -1.57569 -0.277837 -16
    endloop
  endfacet
  facet normal 0 0 -1
    outer loop
      vertex -1.22567 1.02846 -16
      vertex -2.37474 1.99264 -16
      vertex -1.99264 2.37474 -16
    endloop
  endfacet
  facet normal 0 0 -1
    outer loop
      vertex -3.0529 -0.538309 -16
      vertex -1.57569 -0.277837 -16
      vertex -2.91305 -1.06026 -16
    endloop
  endfacet
  facet normal 0 0 -1
    outer loop
      vertex -1.38564 0.799999 -16
      vertex -2.68468 1.55 -16
      vertex -2.37474 1.99264 -16
    endloop
  endfacet
  facet normal -0 0 -1
    outer loop
      vertex -1.57569 -0.277837 -16
      vertex -3.0529 -0.538309 -16
      vertex -1.6 0 -16
    endloop
  endfacet
  facet normal 0 0 -1
    outer loop
      vertex -1.50351 0.547232 -16
      vertex -2.91305 1.06026 -16
      vertex -2.68468 1.55 -16
    endloop
  endfacet
  facet normal 0 0 -1
    outer loop
      vertex -3.1 0 -16
      vertex -1.6 0 -16
      vertex -3.0529 -0.538309 -16
    endloop
  endfacet
  facet normal 0 0 -1
    outer loop
      vertex -1.57569 0.277837 -16
      vertex -3.0529 0.538309 -16
      vertex -2.91305 1.06026 -16
    endloop
  endfacet
  facet normal 0 0 -1
    outer loop
      vertex -1.6 0 -16
      vertex -3.1 0 -16
      vertex -3.0529 0.538309 -16
    endloop
  endfacet
  facet normal 0.707107 0.707107 0
    outer loop
      vertex -1.99264 -2.37474 -16
      vertex -2.37474 -1.99264 -30
      vertex -2.37474 -1.99264 -16
    endloop
  endfacet
  facet normal 0.707107 0.707107 0
    outer loop
      vertex -2.37474 -1.99264 -30
      vertex -1.99264 -2.37474 -16
      vertex -1.99264 -2.37474 -30
    endloop
  endfacet
  facet normal -0.422619 0.906307 0
    outer loop
      vertex 1.55 -2.68468 -30
      vertex 1.06026 -2.91305 -16
      vertex 1.55 -2.68468 -16
    endloop
  endfacet
  facet normal -0.422619 0.906307 0
    outer loop
      vertex 1.06026 -2.91305 -16
      vertex 1.55 -2.68468 -30
      vertex 1.06026 -2.91305 -30
    endloop
  endfacet
  facet normal 0.819152 -0.573577 0
    outer loop
      vertex -2.68468 1.55 -16
      vertex -2.37474 1.99264 -30
      vertex -2.37474 1.99264 -16
    endloop
  endfacet
  facet normal 0.819152 -0.573577 0
    outer loop
      vertex -2.37474 1.99264 -30
      vertex -2.68468 1.55 -16
      vertex -2.68468 1.55 -30
    endloop
  endfacet
  facet normal -0.258808 -0.965929 0
    outer loop
      vertex 0.538309 3.0529 -30
      vertex 1.06026 2.91305 -16
      vertex 0.538309 3.0529 -16
    endloop
  endfacet
  facet normal -0.258808 -0.965929 -0
    outer loop
      vertex 1.06026 2.91305 -16
      vertex 0.538309 3.0529 -30
      vertex 1.06026 2.91305 -30
    endloop
  endfacet
  facet normal 0.0871632 0.996194 -0
    outer loop
      vertex 0 -3.1 -30
      vertex -0.538309 -3.0529 -16
      vertex 0 -3.1 -16
    endloop
  endfacet
  facet normal 0.0871632 0.996194 0
    outer loop
      vertex -0.538309 -3.0529 -16
      vertex 0 -3.1 -30
      vertex -0.538309 -3.0529 -30
    endloop
  endfacet
  facet normal 0.258808 0.965929 -0
    outer loop
      vertex -0.538309 -3.0529 -30
      vertex -1.06026 -2.91305 -16
      vertex -0.538309 -3.0529 -16
    endloop
  endfacet
  facet normal 0.258808 0.965929 0
    outer loop
      vertex -1.06026 -2.91305 -16
      vertex -0.538309 -3.0529 -30
      vertex -1.06026 -2.91305 -30
    endloop
  endfacet
  facet normal 0.573577 0.819152 -0
    outer loop
      vertex -1.55 -2.68468 -30
      vertex -1.99264 -2.37474 -16
      vertex -1.55 -2.68468 -16
    endloop
  endfacet
  facet normal 0.573577 0.819152 0
    outer loop
      vertex -1.99264 -2.37474 -16
      vertex -1.55 -2.68468 -30
      vertex -1.99264 -2.37474 -30
    endloop
  endfacet
endsolid OpenSCAD_Model
