solid OpenSCAD_Model
  facet normal -0.587787 0.809016 0
    outer loop
      vertex -5.56231 17.119 -40
      vertex -14.5623 10.5801 -20
      vertex -5.56231 17.119 -20
    endloop
  endfacet
  facet normal -0.587787 0.809016 0
    outer loop
      vertex -14.5623 10.5801 -20
      vertex -5.56231 17.119 -40
      vertex -14.5623 10.5801 -40
    endloop
  endfacet
  facet normal -0.587787 0.809016 0
    outer loop
      vertex -5.56231 17.119 20
      vertex -14.5623 10.5801 40
      vertex -5.56231 17.119 40
    endloop
  endfacet
  facet normal -0.587787 0.809016 0
    outer loop
      vertex -14.5623 10.5801 40
      vertex -5.56231 17.119 20
      vertex -14.5623 10.5801 20
    endloop
  endfacet
  facet normal 0.587787 0.809016 -0
    outer loop
      vertex 14.5623 10.5801 -40
      vertex 5.56231 17.119 -20
      vertex 14.5623 10.5801 -20
    endloop
  endfacet
  facet normal 0.587787 0.809016 0
    outer loop
      vertex 5.56231 17.119 -20
      vertex 14.5623 10.5801 -40
      vertex 5.56231 17.119 -40
    endloop
  endfacet
  facet normal 0.587787 0.809016 -0
    outer loop
      vertex 14.5623 10.5801 20
      vertex 5.56231 17.119 40
      vertex 14.5623 10.5801 40
    endloop
  endfacet
  facet normal 0.587787 0.809016 0
    outer loop
      vertex 5.56231 17.119 40
      vertex 14.5623 10.5801 20
      vertex 5.56231 17.119 20
    endloop
  endfacet
  facet normal 0.951056 0.309018 0
    outer loop
      vertex 17.9675 0.0999994 -20
      vertex 14.5623 10.5801 -40
      vertex 14.5623 10.5801 -20
    endloop
  endfacet
  facet normal 0.951056 0.309018 0
    outer loop
      vertex 14.5623 10.5801 -40
      vertex 17.9675 0.0999994 -20
      vertex 17.9675 0.0999994 -40
    endloop
  endfacet
  facet normal 0.951056 0.309018 0
    outer loop
      vertex 17.9675 0.0999994 40
      vertex 14.5623 10.5801 20
      vertex 14.5623 10.5801 40
    endloop
  endfacet
  facet normal 0.951056 0.309018 0
    outer loop
      vertex 14.5623 10.5801 20
      vertex 17.9675 0.0999994 40
      vertex 17.9675 0.0999994 20
    endloop
  endfacet
  facet normal 0 1 -0
    outer loop
      vertex 5.56231 17.119 -40
      vertex -5.56231 17.119 -20
      vertex 5.56231 17.119 -20
    endloop
  endfacet
  facet normal 0 1 0
    outer loop
      vertex -5.56231 17.119 -20
      vertex 5.56231 17.119 -40
      vertex -5.56231 17.119 -40
    endloop
  endfacet
  facet normal 0 1 -0
    outer loop
      vertex 5.56231 17.119 20
      vertex -5.56231 17.119 40
      vertex 5.56231 17.119 40
    endloop
  endfacet
  facet normal 0 1 0
    outer loop
      vertex -5.56231 17.119 40
      vertex 5.56231 17.119 20
      vertex -5.56231 17.119 20
    endloop
  endfacet
  facet normal -0.951056 0.309018 0
    outer loop
      vertex -17.9675 0.0999994 -40
      vertex -14.5623 10.5801 -20
      vertex -14.5623 10.5801 -40
    endloop
  endfacet
  facet normal -0.951056 0.309018 0
    outer loop
      vertex -14.5623 10.5801 -20
      vertex -17.9675 0.0999994 -40
      vertex -17.9675 0.0999994 -20
    endloop
  endfacet
  facet normal -0.951056 0.309018 0
    outer loop
      vertex -17.9675 0.0999994 20
      vertex -14.5623 10.5801 40
      vertex -14.5623 10.5801 20
    endloop
  endfacet
  facet normal -0.951056 0.309018 0
    outer loop
      vertex -14.5623 10.5801 40
      vertex -17.9675 0.0999994 20
      vertex -17.9675 0.0999994 40
    endloop
  endfacet
  facet normal 0 0 -1
    outer loop
      vertex 17.9675 0.0999994 -40
      vertex 5.56231 17.119 -40
      vertex 14.5623 10.5801 -40
    endloop
  endfacet
  facet normal 0 0 -1
    outer loop
      vertex 17.9675 0.0999994 -40
      vertex -5.56231 17.119 -40
      vertex 5.56231 17.119 -40
    endloop
  endfacet
  facet normal 0 0 -1
    outer loop
      vertex 17.9675 0.0999994 -40
      vertex -14.5623 10.5801 -40
      vertex -5.56231 17.119 -40
    endloop
  endfacet
  facet normal 0 -0 -1
    outer loop
      vertex -14.5623 10.5801 -40
      vertex 17.9675 0.0999994 -40
      vertex -17.9675 0.0999994 -40
    endloop
  endfacet
  facet normal 0 0 1
    outer loop
      vertex 4.04508 2.93893 40
      vertex 14.5623 10.5801 40
      vertex 5.56231 17.119 40
    endloop
  endfacet
  facet normal 0 0 1
    outer loop
      vertex 14.5623 10.5801 40
      vertex 4.04508 2.93893 40
      vertex 17.9675 0.0999994 40
    endloop
  endfacet
  facet normal 0 0 1
    outer loop
      vertex 17.9675 0.0999994 40
      vertex 4.04508 2.93893 40
      vertex 4.96751 0.0999994 40
    endloop
  endfacet
  facet normal 0 0 1
    outer loop
      vertex 5.56231 17.119 40
      vertex 1.54508 4.75528 40
      vertex 4.04508 2.93893 40
    endloop
  endfacet
  facet normal 0 0 1
    outer loop
      vertex 5.56231 17.119 40
      vertex -1.54508 4.75528 40
      vertex 1.54508 4.75528 40
    endloop
  endfacet
  facet normal -0 0 1
    outer loop
      vertex -5.56231 17.119 40
      vertex -1.54508 4.75528 40
      vertex 5.56231 17.119 40
    endloop
  endfacet
  facet normal 0 0 1
    outer loop
      vertex -1.54508 4.75528 40
      vertex -5.56231 17.119 40
      vertex -4.04508 2.93893 40
    endloop
  endfacet
  facet normal -0 0 1
    outer loop
      vertex -14.5623 10.5801 40
      vertex -4.04508 2.93893 40
      vertex -5.56231 17.119 40
    endloop
  endfacet
  facet normal 0 0 1
    outer loop
      vertex -4.04508 2.93893 40
      vertex -14.5623 10.5801 40
      vertex -4.96751 0.0999994 40
    endloop
  endfacet
  facet normal 0 0 1
    outer loop
      vertex -4.96751 0.0999994 40
      vertex -14.5623 10.5801 40
      vertex -17.9675 0.0999994 40
    endloop
  endfacet
  facet normal 0.587789 0.809014 -0
    outer loop
      vertex 16.5848 12.0496 -20
      vertex 6.33485 19.4967 20
      vertex 16.5848 12.0496 20
    endloop
  endfacet
  facet normal 0.587789 0.809014 0
    outer loop
      vertex 6.33485 19.4967 20
      vertex 16.5848 12.0496 -20
      vertex 6.33485 19.4967 -20
    endloop
  endfacet
  facet normal 0.951056 0.30902 0
    outer loop
      vertex 20.4675 0.0999994 20
      vertex 16.5848 12.0496 -20
      vertex 16.5848 12.0496 20
    endloop
  endfacet
  facet normal 0.951056 0.30902 0
    outer loop
      vertex 16.5848 12.0496 -20
      vertex 20.4675 0.0999994 20
      vertex 20.4675 0.0999994 -20
    endloop
  endfacet
  facet normal 0 1 -0
    outer loop
      vertex 6.33485 19.4967 -20
      vertex -6.33485 19.4967 20
      vertex 6.33485 19.4967 20
    endloop
  endfacet
  facet normal 0 1 0
    outer loop
      vertex -6.33485 19.4967 20
      vertex 6.33485 19.4967 -20
      vertex -6.33485 19.4967 -20
    endloop
  endfacet
  facet normal -0.587789 0.809014 0
    outer loop
      vertex -6.33485 19.4967 -20
      vertex -16.5848 12.0496 20
      vertex -6.33485 19.4967 20
    endloop
  endfacet
  facet normal -0.587789 0.809014 0
    outer loop
      vertex -16.5848 12.0496 20
      vertex -6.33485 19.4967 -20
      vertex -16.5848 12.0496 -20
    endloop
  endfacet
  facet normal -0.951056 0.30902 0
    outer loop
      vertex -20.4675 0.0999994 -20
      vertex -16.5848 12.0496 20
      vertex -16.5848 12.0496 -20
    endloop
  endfacet
  facet normal -0.951056 0.30902 0
    outer loop
      vertex -16.5848 12.0496 20
      vertex -20.4675 0.0999994 -20
      vertex -20.4675 0.0999994 20
    endloop
  endfacet
  facet normal 0 0 -1
    outer loop
      vertex 17.9675 0.0999994 -20
      vertex 16.5848 12.0496 -20
      vertex 20.4675 0.0999994 -20
    endloop
  endfacet
  facet normal 0 0 -1
    outer loop
      vertex 14.5623 10.5801 -20
      vertex 16.5848 12.0496 -20
      vertex 17.9675 0.0999994 -20
    endloop
  endfacet
  facet normal 0 0 -1
    outer loop
      vertex 14.5623 10.5801 -20
      vertex 6.33485 19.4967 -20
      vertex 16.5848 12.0496 -20
    endloop
  endfacet
  facet normal 0 0 -1
    outer loop
      vertex 5.56231 17.119 -20
      vertex 6.33485 19.4967 -20
      vertex 14.5623 10.5801 -20
    endloop
  endfacet
  facet normal 0 0 -1
    outer loop
      vertex -5.56231 17.119 -20
      vertex 6.33485 19.4967 -20
      vertex 5.56231 17.119 -20
    endloop
  endfacet
  facet normal 0 0 -1
    outer loop
      vertex -5.56231 17.119 -20
      vertex -6.33485 19.4967 -20
      vertex 6.33485 19.4967 -20
    endloop
  endfacet
  facet normal 0 0 -1
    outer loop
      vertex -14.5623 10.5801 -20
      vertex -6.33485 19.4967 -20
      vertex -5.56231 17.119 -20
    endloop
  endfacet
  facet normal 0 0 -1
    outer loop
      vertex -14.5623 10.5801 -20
      vertex -16.5848 12.0496 -20
      vertex -6.33485 19.4967 -20
    endloop
  endfacet
  facet normal 0 0 -1
    outer loop
      vertex -17.9675 0.0999994 -20
      vertex -16.5848 12.0496 -20
      vertex -14.5623 10.5801 -20
    endloop
  endfacet
  facet normal 0 0 -1
    outer loop
      vertex -16.5848 12.0496 -20
      vertex -17.9675 0.0999994 -20
      vertex -20.4675 0.0999994 -20
    endloop
  endfacet
  facet normal 0 0 1
    outer loop
      vertex 16.5848 12.0496 20
      vertex 17.9675 0.0999994 20
      vertex 20.4675 0.0999994 20
    endloop
  endfacet
  facet normal 0 0 1
    outer loop
      vertex 16.5848 12.0496 20
      vertex 14.5623 10.5801 20
      vertex 17.9675 0.0999994 20
    endloop
  endfacet
  facet normal 0 0 1
    outer loop
      vertex 6.33485 19.4967 20
      vertex 14.5623 10.5801 20
      vertex 16.5848 12.0496 20
    endloop
  endfacet
  facet normal 0 0 1
    outer loop
      vertex 6.33485 19.4967 20
      vertex 5.56231 17.119 20
      vertex 14.5623 10.5801 20
    endloop
  endfacet
  facet normal 0 0 1
    outer loop
      vertex 6.33485 19.4967 20
      vertex -5.56231 17.119 20
      vertex 5.56231 17.119 20
    endloop
  endfacet
  facet normal -0 0 1
    outer loop
      vertex -6.33485 19.4967 20
      vertex -5.56231 17.119 20
      vertex 6.33485 19.4967 20
    endloop
  endfacet
  facet normal 0 0 1
    outer loop
      vertex -6.33485 19.4967 20
      vertex -14.5623 10.5801 20
      vertex -5.56231 17.119 20
    endloop
  endfacet
  facet normal -0 0 1
    outer loop
      vertex -16.5848 12.0496 20
      vertex -14.5623 10.5801 20
      vertex -6.33485 19.4967 20
    endloop
  endfacet
  facet normal 0 0 1
    outer loop
      vertex -16.5848 12.0496 20
      vertex -17.9675 0.0999994 20
      vertex -14.5623 10.5801 20
    endloop
  endfacet
  facet normal 0 -0 1
    outer loop
      vertex -17.9675 0.0999994 20
      vertex -16.5848 12.0496 20
      vertex -20.4675 0.0999994 20
    endloop
  endfacet
  facet normal 0.587784 0.809018 -0
    outer loop
      vertex 4.04508 2.93893 40
      vertex 1.54508 4.75528 57
      vertex 4.04508 2.93893 57
    endloop
  endfacet
  facet normal 0.587784 0.809018 0
    outer loop
      vertex 1.54508 4.75528 57
      vertex 4.04508 2.93893 40
      vertex 1.54508 4.75528 40
    endloop
  endfacet
  facet normal 0.951056 0.309019 0
    outer loop
      vertex 4.96751 0.0999994 57
      vertex 4.04508 2.93893 40
      vertex 4.04508 2.93893 57
    endloop
  endfacet
  facet normal 0.951056 0.309019 0
    outer loop
      vertex 4.04508 2.93893 40
      vertex 4.96751 0.0999994 57
      vertex 4.96751 0.0999994 40
    endloop
  endfacet
  facet normal 0 1 -0
    outer loop
      vertex 1.54508 4.75528 40
      vertex -1.54508 4.75528 57
      vertex 1.54508 4.75528 57
    endloop
  endfacet
  facet normal 0 1 0
    outer loop
      vertex -1.54508 4.75528 57
      vertex 1.54508 4.75528 40
      vertex -1.54508 4.75528 40
    endloop
  endfacet
  facet normal -0.587784 0.809018 0
    outer loop
      vertex -1.54508 4.75528 40
      vertex -4.04508 2.93893 57
      vertex -1.54508 4.75528 57
    endloop
  endfacet
  facet normal -0.587784 0.809018 0
    outer loop
      vertex -4.04508 2.93893 57
      vertex -1.54508 4.75528 40
      vertex -4.04508 2.93893 40
    endloop
  endfacet
  facet normal -0.951056 0.309019 0
    outer loop
      vertex -4.96751 0.0999994 40
      vertex -4.04508 2.93893 57
      vertex -4.04508 2.93893 40
    endloop
  endfacet
  facet normal -0.951056 0.309019 0
    outer loop
      vertex -4.04508 2.93893 57
      vertex -4.96751 0.0999994 40
      vertex -4.96751 0.0999994 57
    endloop
  endfacet
  facet normal 0 0 1
    outer loop
      vertex 1.54508 4.75528 57
      vertex 4.96751 0.0999994 57
      vertex 4.04508 2.93893 57
    endloop
  endfacet
  facet normal -0 0 1
    outer loop
      vertex -1.54508 4.75528 57
      vertex 4.96751 0.0999994 57
      vertex 1.54508 4.75528 57
    endloop
  endfacet
  facet normal -0 0 1
    outer loop
      vertex -4.04508 2.93893 57
      vertex 4.96751 0.0999994 57
      vertex -1.54508 4.75528 57
    endloop
  endfacet
  facet normal 0 0 1
    outer loop
      vertex 4.96751 0.0999994 57
      vertex -4.04508 2.93893 57
      vertex -4.96751 0.0999994 57
    endloop
  endfacet
  facet normal 0 -1 0
    outer loop
      vertex -17.9675 0.0999994 -40
      vertex 17.9675 0.0999994 -20
      vertex -17.9675 0.0999994 -20
    endloop
  endfacet
  facet normal 0 -1 -0
    outer loop
      vertex 17.9675 0.0999994 -20
      vertex -17.9675 0.0999994 -40
      vertex 17.9675 0.0999994 -40
    endloop
  endfacet
  facet normal 0 -1 0
    outer loop
      vertex -17.9675 0.0999994 -20
      vertex -17.9675 0.0999994 20
      vertex -20.4675 0.0999994 20
    endloop
  endfacet
  facet normal 0 -1 0
    outer loop
      vertex -17.9675 0.0999994 20
      vertex -17.9675 0.0999994 -20
      vertex 17.9675 0.0999994 20
    endloop
  endfacet
  facet normal 0 -1 0
    outer loop
      vertex -17.9675 0.0999994 -20
      vertex -20.4675 0.0999994 20
      vertex -20.4675 0.0999994 -20
    endloop
  endfacet
  facet normal 0 -1 0
    outer loop
      vertex 17.9675 0.0999994 -20
      vertex 17.9675 0.0999994 20
      vertex -17.9675 0.0999994 -20
    endloop
  endfacet
  facet normal 0 -1 0
    outer loop
      vertex 17.9675 0.0999994 20
      vertex 17.9675 0.0999994 -20
      vertex 20.4675 0.0999994 20
    endloop
  endfacet
  facet normal 0 -1 -0
    outer loop
      vertex 20.4675 0.0999994 20
      vertex 17.9675 0.0999994 -20
      vertex 20.4675 0.0999994 -20
    endloop
  endfacet
  facet normal 0 -1 0
    outer loop
      vertex -17.9675 0.0999994 20
      vertex -4.96751 0.0999994 40
      vertex -17.9675 0.0999994 40
    endloop
  endfacet
  facet normal 0 -1 -0
    outer loop
      vertex -4.96751 0.0999994 40
      vertex -17.9675 0.0999994 20
      vertex 4.96751 0.0999994 40
    endloop
  endfacet
  facet normal 0 -1 0
    outer loop
      vertex 17.9675 0.0999994 20
      vertex 4.96751 0.0999994 40
      vertex -17.9675 0.0999994 20
    endloop
  endfacet
  facet normal 0 -1 0
    outer loop
      vertex 4.96751 0.0999994 40
      vertex 17.9675 0.0999994 20
      vertex 17.9675 0.0999994 40
    endloop
  endfacet
  facet normal 0 -1 0
    outer loop
      vertex -4.96751 0.0999994 40
      vertex 4.96751 0.0999994 57
      vertex -4.96751 0.0999994 57
    endloop
  endfacet
  facet normal 0 -1 -0
    outer loop
      vertex 4.96751 0.0999994 57
      vertex -4.96751 0.0999994 40
      vertex 4.96751 0.0999994 40
    endloop
  endfacet
endsolid OpenSCAD_Model
