solid OpenSCAD_Model
  facet normal 0.677283 0.735723 -0
    outer loop
      vertex 12.9021 12.5513 -40
      vertex 11.443 13.8945 -20
      vertex 12.9021 12.5513 -20
    endloop
  endfacet
  facet normal 0.677283 0.735723 0
    outer loop
      vertex 11.443 13.8945 -20
      vertex 12.9021 12.5513 -40
      vertex 11.443 13.8945 -40
    endloop
  endfacet
  facet normal 0.677283 0.735723 -0
    outer loop
      vertex 12.9021 12.5513 20
      vertex 11.443 13.8945 40
      vertex 12.9021 12.5513 40
    endloop
  endfacet
  facet normal 0.677283 0.735723 0
    outer loop
      vertex 11.443 13.8945 40
      vertex 12.9021 12.5513 20
      vertex 11.443 13.8945 20
    endloop
  endfacet
  facet normal 0.592244 0.805759 -0
    outer loop
      vertex 11.443 13.8945 -40
      vertex 9.84507 15.069 -20
      vertex 11.443 13.8945 -20
    endloop
  endfacet
  facet normal 0.592244 0.805759 0
    outer loop
      vertex 9.84507 15.069 -20
      vertex 11.443 13.8945 -40
      vertex 9.84507 15.069 -40
    endloop
  endfacet
  facet normal 0.592244 0.805759 -0
    outer loop
      vertex 11.443 13.8945 20
      vertex 9.84507 15.069 40
      vertex 11.443 13.8945 40
    endloop
  endfacet
  facet normal 0.592244 0.805759 0
    outer loop
      vertex 9.84507 15.069 40
      vertex 11.443 13.8945 20
      vertex 9.84507 15.069 20
    endloop
  endfacet
  facet normal 0.998482 0.0550715 0
    outer loop
      vertex 17.9945 0.0999994 -20
      vertex 17.8908 1.98015 -40
      vertex 17.8908 1.98015 -20
    endloop
  endfacet
  facet normal 0.998482 0.0550715 0
    outer loop
      vertex 17.8908 1.98015 -40
      vertex 17.9945 0.0999994 -20
      vertex 17.9945 0.0999994 -40
    endloop
  endfacet
  facet normal 0.998482 0.0550715 0
    outer loop
      vertex 17.9945 0.0999994 40
      vertex 17.8908 1.98015 20
      vertex 17.8908 1.98015 40
    endloop
  endfacet
  facet normal 0.998482 0.0550715 0
    outer loop
      vertex 17.8908 1.98015 20
      vertex 17.9945 0.0999994 40
      vertex 17.9945 0.0999994 20
    endloop
  endfacet
  facet normal 0.986355 0.164635 0
    outer loop
      vertex 17.8908 1.98015 -20
      vertex 17.5643 3.93626 -40
      vertex 17.5643 3.93626 -20
    endloop
  endfacet
  facet normal 0.986355 0.164635 0
    outer loop
      vertex 17.5643 3.93626 -40
      vertex 17.8908 1.98015 -20
      vertex 17.8908 1.98015 -40
    endloop
  endfacet
  facet normal 0.986355 0.164635 0
    outer loop
      vertex 17.8908 1.98015 40
      vertex 17.5643 3.93626 20
      vertex 17.5643 3.93626 40
    endloop
  endfacet
  facet normal 0.986355 0.164635 0
    outer loop
      vertex 17.5643 3.93626 20
      vertex 17.8908 1.98015 40
      vertex 17.8908 1.98015 20
    endloop
  endfacet
  facet normal -0.0275822 0.99962 0
    outer loop
      vertex 0.495977 17.9932 20
      vertex -1.48643 17.9385 40
      vertex 0.495977 17.9932 40
    endloop
  endfacet
  facet normal -0.0275822 0.99962 0
    outer loop
      vertex -1.48643 17.9385 40
      vertex 0.495977 17.9932 20
      vertex -1.48643 17.9385 20
    endloop
  endfacet
  facet normal -0.0275822 0.99962 0
    outer loop
      vertex 0.495977 17.9932 -40
      vertex -1.48643 17.9385 -20
      vertex 0.495977 17.9932 -20
    endloop
  endfacet
  facet normal -0.0275822 0.99962 0
    outer loop
      vertex -1.48643 17.9385 -20
      vertex 0.495977 17.9932 -40
      vertex -1.48643 17.9385 -40
    endloop
  endfacet
  facet normal -0.975794 0.218691 0
    outer loop
      vertex -17.7545 2.9627 -40
      vertex -17.3208 4.89786 -20
      vertex -17.3208 4.89786 -40
    endloop
  endfacet
  facet normal -0.975794 0.218691 0
    outer loop
      vertex -17.3208 4.89786 -20
      vertex -17.7545 2.9627 -40
      vertex -17.7545 2.9627 -20
    endloop
  endfacet
  facet normal -0.975794 0.218691 0
    outer loop
      vertex -17.7545 2.9627 20
      vertex -17.3208 4.89786 40
      vertex -17.3208 4.89786 20
    endloop
  endfacet
  facet normal -0.975794 0.218691 0
    outer loop
      vertex -17.3208 4.89786 40
      vertex -17.7545 2.9627 20
      vertex -17.7545 2.9627 40
    endloop
  endfacet
  facet normal -0.137357 0.990522 0
    outer loop
      vertex -1.48643 17.9385 20
      vertex -3.45079 17.6661 40
      vertex -1.48643 17.9385 40
    endloop
  endfacet
  facet normal -0.137357 0.990522 0
    outer loop
      vertex -3.45079 17.6661 40
      vertex -1.48643 17.9385 20
      vertex -3.45079 17.6661 20
    endloop
  endfacet
  facet normal -0.137357 0.990522 0
    outer loop
      vertex -1.48643 17.9385 -40
      vertex -3.45079 17.6661 -20
      vertex -1.48643 17.9385 -20
    endloop
  endfacet
  facet normal -0.137357 0.990522 0
    outer loop
      vertex -3.45079 17.6661 -20
      vertex -1.48643 17.9385 -40
      vertex -3.45079 17.6661 -40
    endloop
  endfacet
  facet normal 0.962271 0.272092 0
    outer loop
      vertex 17.5643 3.93626 -20
      vertex 17.0247 5.84459 -40
      vertex 17.0247 5.84459 -20
    endloop
  endfacet
  facet normal 0.962271 0.272092 0
    outer loop
      vertex 17.0247 5.84459 -40
      vertex 17.5643 3.93626 -20
      vertex 17.5643 3.93626 -40
    endloop
  endfacet
  facet normal 0.962271 0.272092 0
    outer loop
      vertex 17.5643 3.93626 40
      vertex 17.0247 5.84459 20
      vertex 17.0247 5.84459 40
    endloop
  endfacet
  facet normal 0.962271 0.272092 0
    outer loop
      vertex 17.0247 5.84459 20
      vertex 17.5643 3.93626 40
      vertex 17.5643 3.93626 20
    endloop
  endfacet
  facet normal -0.945822 0.324685 0
    outer loop
      vertex -17.3208 4.89786 20
      vertex -16.6769 6.77357 40
      vertex -16.6769 6.77357 20
    endloop
  endfacet
  facet normal -0.945822 0.324685 0
    outer loop
      vertex -16.6769 6.77357 40
      vertex -17.3208 4.89786 20
      vertex -17.3208 4.89786 40
    endloop
  endfacet
  facet normal -0.945822 0.324685 0
    outer loop
      vertex -17.3208 4.89786 -40
      vertex -16.6769 6.77357 -20
      vertex -16.6769 6.77357 -40
    endloop
  endfacet
  facet normal -0.945822 0.324685 0
    outer loop
      vertex -16.6769 6.77357 -20
      vertex -17.3208 4.89786 -40
      vertex -17.3208 4.89786 -20
    endloop
  endfacet
  facet normal -0.789138 0.614216 0
    outer loop
      vertex -14.792 10.2565 20
      vertex -13.5739 11.8215 40
      vertex -13.5739 11.8215 20
    endloop
  endfacet
  facet normal -0.789138 0.614216 0
    outer loop
      vertex -13.5739 11.8215 40
      vertex -14.792 10.2565 20
      vertex -14.792 10.2565 40
    endloop
  endfacet
  facet normal -0.789138 0.614216 0
    outer loop
      vertex -14.792 10.2565 -40
      vertex -13.5739 11.8215 -20
      vertex -13.5739 11.8215 -40
    endloop
  endfacet
  facet normal -0.789138 0.614216 0
    outer loop
      vertex -13.5739 11.8215 -20
      vertex -14.792 10.2565 -40
      vertex -14.792 10.2565 -20
    endloop
  endfacet
  facet normal -0.245467 0.969405 0
    outer loop
      vertex -3.45079 17.6661 20
      vertex -5.37327 17.1793 40
      vertex -3.45079 17.6661 40
    endloop
  endfacet
  facet normal -0.245467 0.969405 0
    outer loop
      vertex -5.37327 17.1793 40
      vertex -3.45079 17.6661 20
      vertex -5.37327 17.1793 20
    endloop
  endfacet
  facet normal -0.245467 0.969405 0
    outer loop
      vertex -3.45079 17.6661 -40
      vertex -5.37327 17.1793 -20
      vertex -3.45079 17.6661 -20
    endloop
  endfacet
  facet normal -0.245467 0.969405 0
    outer loop
      vertex -5.37327 17.1793 -20
      vertex -3.45079 17.6661 -40
      vertex -5.37327 17.1793 -40
    endloop
  endfacet
  facet normal 0.754115 0.656743 0
    outer loop
      vertex 14.2045 11.0558 40
      vertex 12.9021 12.5513 20
      vertex 12.9021 12.5513 40
    endloop
  endfacet
  facet normal 0.754115 0.656743 0
    outer loop
      vertex 12.9021 12.5513 20
      vertex 14.2045 11.0558 40
      vertex 14.2045 11.0558 20
    endloop
  endfacet
  facet normal 0.754115 0.656743 0
    outer loop
      vertex 14.2045 11.0558 -20
      vertex 12.9021 12.5513 -40
      vertex 12.9021 12.5513 -20
    endloop
  endfacet
  facet normal 0.754115 0.656743 0
    outer loop
      vertex 12.9021 12.5513 -40
      vertex 14.2045 11.0558 -20
      vertex 14.2045 11.0558 -40
    endloop
  endfacet
  facet normal -0.635725 0.771916 0
    outer loop
      vertex -10.6602 14.5038 20
      vertex -12.1911 13.243 40
      vertex -10.6602 14.5038 40
    endloop
  endfacet
  facet normal -0.635725 0.771916 0
    outer loop
      vertex -12.1911 13.243 40
      vertex -10.6602 14.5038 20
      vertex -12.1911 13.243 20
    endloop
  endfacet
  facet normal -0.635725 0.771916 0
    outer loop
      vertex -10.6602 14.5038 -40
      vertex -12.1911 13.243 -20
      vertex -10.6602 14.5038 -20
    endloop
  endfacet
  facet normal -0.635725 0.771916 0
    outer loop
      vertex -12.1911 13.243 -20
      vertex -10.6602 14.5038 -40
      vertex -12.1911 13.243 -40
    endloop
  endfacet
  facet normal 0.821778 0.569807 0
    outer loop
      vertex 15.3345 9.42611 -20
      vertex 14.2045 11.0558 -40
      vertex 14.2045 11.0558 -20
    endloop
  endfacet
  facet normal 0.821778 0.569807 0
    outer loop
      vertex 14.2045 11.0558 -40
      vertex 15.3345 9.42611 -20
      vertex 15.3345 9.42611 -40
    endloop
  endfacet
  facet normal 0.821778 0.569807 0
    outer loop
      vertex 15.3345 9.42611 40
      vertex 14.2045 11.0558 20
      vertex 14.2045 11.0558 40
    endloop
  endfacet
  facet normal 0.821778 0.569807 0
    outer loop
      vertex 14.2045 11.0558 20
      vertex 15.3345 9.42611 40
      vertex 15.3345 9.42611 20
    endloop
  endfacet
  facet normal -0.993929 0.110026 0
    outer loop
      vertex -17.9727 0.991579 -40
      vertex -17.7545 2.9627 -20
      vertex -17.7545 2.9627 -40
    endloop
  endfacet
  facet normal -0.993929 0.110026 0
    outer loop
      vertex -17.7545 2.9627 -20
      vertex -17.9727 0.991579 -40
      vertex -17.9727 0.991579 -20
    endloop
  endfacet
  facet normal -0.993929 0.110026 0
    outer loop
      vertex -17.9727 0.991579 20
      vertex -17.7545 2.9627 40
      vertex -17.7545 2.9627 20
    endloop
  endfacet
  facet normal -0.993929 0.110026 0
    outer loop
      vertex -17.7545 2.9627 40
      vertex -17.9727 0.991579 20
      vertex -17.9727 0.991579 40
    endloop
  endfacet
  facet normal -0.546961 0.837158 0
    outer loop
      vertex -9 15.5885 20
      vertex -10.6602 14.5038 40
      vertex -9 15.5885 40
    endloop
  endfacet
  facet normal -0.546961 0.837158 0
    outer loop
      vertex -10.6602 14.5038 40
      vertex -9 15.5885 20
      vertex -10.6602 14.5038 20
    endloop
  endfacet
  facet normal -0.546961 0.837158 0
    outer loop
      vertex -9 15.5885 -40
      vertex -10.6602 14.5038 -20
      vertex -9 15.5885 -20
    endloop
  endfacet
  facet normal -0.546961 0.837158 0
    outer loop
      vertex -10.6602 14.5038 -20
      vertex -9 15.5885 -40
      vertex -10.6602 14.5038 -40
    endloop
  endfacet
  facet normal 0.500007 0.866021 -0
    outer loop
      vertex 9.84507 15.069 -40
      vertex 8.1276 16.0606 -20
      vertex 9.84507 15.069 -20
    endloop
  endfacet
  facet normal 0.500007 0.866021 0
    outer loop
      vertex 8.1276 16.0606 -20
      vertex 9.84507 15.069 -40
      vertex 8.1276 16.0606 -40
    endloop
  endfacet
  facet normal 0.500007 0.866021 -0
    outer loop
      vertex 9.84507 15.069 20
      vertex 8.1276 16.0606 40
      vertex 9.84507 15.069 40
    endloop
  endfacet
  facet normal 0.500007 0.866021 0
    outer loop
      vertex 8.1276 16.0606 40
      vertex 9.84507 15.069 20
      vertex 8.1276 16.0606 20
    endloop
  endfacet
  facet normal -1 0 0
    outer loop
      vertex -17.9727 0.0999994 -40
      vertex -17.9727 0.991579 -20
      vertex -17.9727 0.991579 -40
    endloop
  endfacet
  facet normal -1 -0 0
    outer loop
      vertex -17.9727 0.991579 -20
      vertex -17.9727 0.0999994 -40
      vertex -17.9727 0.0999994 -20
    endloop
  endfacet
  facet normal -1 0 0
    outer loop
      vertex -17.9727 0.0999994 20
      vertex -17.9727 0.991579 40
      vertex -17.9727 0.991579 20
    endloop
  endfacet
  facet normal -1 -0 0
    outer loop
      vertex -17.9727 0.991579 40
      vertex -17.9727 0.0999994 20
      vertex -17.9727 0.0999994 40
    endloop
  endfacet
  facet normal 0.191714 0.981451 -0
    outer loop
      vertex 4.41874 17.4492 20
      vertex 2.47236 17.8294 40
      vertex 4.41874 17.4492 40
    endloop
  endfacet
  facet normal 0.191714 0.981451 0
    outer loop
      vertex 2.47236 17.8294 40
      vertex 4.41874 17.4492 20
      vertex 2.47236 17.8294 20
    endloop
  endfacet
  facet normal 0.191714 0.981451 -0
    outer loop
      vertex 4.41874 17.4492 -40
      vertex 2.47236 17.8294 -20
      vertex 4.41874 17.4492 -20
    endloop
  endfacet
  facet normal 0.191714 0.981451 0
    outer loop
      vertex 2.47236 17.8294 -20
      vertex 4.41874 17.4492 -40
      vertex 2.47236 17.8294 -40
    endloop
  endfacet
  facet normal 0.0825955 0.996583 -0
    outer loop
      vertex 2.47236 17.8294 20
      vertex 0.495977 17.9932 40
      vertex 2.47236 17.8294 40
    endloop
  endfacet
  facet normal 0.0825955 0.996583 0
    outer loop
      vertex 0.495977 17.9932 40
      vertex 2.47236 17.8294 20
      vertex 0.495977 17.9932 20
    endloop
  endfacet
  facet normal 0.0825955 0.996583 -0
    outer loop
      vertex 2.47236 17.8294 -40
      vertex 0.495977 17.9932 -20
      vertex 2.47236 17.8294 -20
    endloop
  endfacet
  facet normal 0.0825955 0.996583 0
    outer loop
      vertex 0.495977 17.9932 -20
      vertex 2.47236 17.8294 -40
      vertex 0.495977 17.9932 -40
    endloop
  endfacet
  facet normal 0.879469 0.475957 0
    outer loop
      vertex 16.2784 7.68198 -20
      vertex 15.3345 9.42611 -40
      vertex 15.3345 9.42611 -20
    endloop
  endfacet
  facet normal 0.879469 0.475957 0
    outer loop
      vertex 15.3345 9.42611 -40
      vertex 16.2784 7.68198 -20
      vertex 16.2784 7.68198 -40
    endloop
  endfacet
  facet normal 0.879469 0.475957 0
    outer loop
      vertex 16.2784 7.68198 40
      vertex 15.3345 9.42611 20
      vertex 15.3345 9.42611 40
    endloop
  endfacet
  facet normal 0.879469 0.475957 0
    outer loop
      vertex 15.3345 9.42611 20
      vertex 16.2784 7.68198 40
      vertex 16.2784 7.68198 20
    endloop
  endfacet
  facet normal -0.451509 0.892267 0
    outer loop
      vertex -7.23052 16.4839 20
      vertex -9 15.5885 40
      vertex -7.23052 16.4839 40
    endloop
  endfacet
  facet normal -0.451509 0.892267 0
    outer loop
      vertex -9 15.5885 40
      vertex -7.23052 16.4839 20
      vertex -9 15.5885 20
    endloop
  endfacet
  facet normal -0.451509 0.892267 0
    outer loop
      vertex -7.23052 16.4839 -40
      vertex -9 15.5885 -20
      vertex -7.23052 16.4839 -20
    endloop
  endfacet
  facet normal -0.451509 0.892267 0
    outer loop
      vertex -9 15.5885 -20
      vertex -7.23052 16.4839 -40
      vertex -9 15.5885 -40
    endloop
  endfacet
  facet normal 0.926491 0.376317 0
    outer loop
      vertex 17.0247 5.84459 -20
      vertex 16.2784 7.68198 -40
      vertex 16.2784 7.68198 -20
    endloop
  endfacet
  facet normal 0.926491 0.376317 0
    outer loop
      vertex 16.2784 7.68198 -40
      vertex 17.0247 5.84459 -20
      vertex 17.0247 5.84459 -40
    endloop
  endfacet
  facet normal 0.926491 0.376317 0
    outer loop
      vertex 17.0247 5.84459 40
      vertex 16.2784 7.68198 20
      vertex 16.2784 7.68198 40
    endloop
  endfacet
  facet normal 0.926491 0.376317 0
    outer loop
      vertex 16.2784 7.68198 20
      vertex 17.0247 5.84459 40
      vertex 17.0247 5.84459 20
    endloop
  endfacet
  facet normal 0.298513 0.954405 -0
    outer loop
      vertex 6.31148 16.8572 20
      vertex 4.41874 17.4492 40
      vertex 6.31148 16.8572 40
    endloop
  endfacet
  facet normal 0.298513 0.954405 0
    outer loop
      vertex 4.41874 17.4492 40
      vertex 6.31148 16.8572 20
      vertex 4.41874 17.4492 20
    endloop
  endfacet
  facet normal 0.298513 0.954405 -0
    outer loop
      vertex 6.31148 16.8572 -40
      vertex 4.41874 17.4492 -20
      vertex 6.31148 16.8572 -20
    endloop
  endfacet
  facet normal 0.298513 0.954405 0
    outer loop
      vertex 4.41874 17.4492 -20
      vertex 6.31148 16.8572 -40
      vertex 4.41874 17.4492 -40
    endloop
  endfacet
  facet normal 0.401685 0.915778 -0
    outer loop
      vertex 8.1276 16.0606 -40
      vertex 6.31148 16.8572 -20
      vertex 8.1276 16.0606 -20
    endloop
  endfacet
  facet normal 0.401685 0.915778 0
    outer loop
      vertex 6.31148 16.8572 -20
      vertex 8.1276 16.0606 -40
      vertex 6.31148 16.8572 -40
    endloop
  endfacet
  facet normal 0.401685 0.915778 -0
    outer loop
      vertex 8.1276 16.0606 20
      vertex 6.31148 16.8572 40
      vertex 8.1276 16.0606 40
    endloop
  endfacet
  facet normal 0.401685 0.915778 0
    outer loop
      vertex 6.31148 16.8572 40
      vertex 8.1276 16.0606 20
      vertex 6.31148 16.8572 20
    endloop
  endfacet
  facet normal -0.716797 0.697282 0
    outer loop
      vertex -13.5739 11.8215 20
      vertex -12.1911 13.243 40
      vertex -12.1911 13.243 20
    endloop
  endfacet
  facet normal -0.716797 0.697282 0
    outer loop
      vertex -12.1911 13.243 40
      vertex -13.5739 11.8215 20
      vertex -13.5739 11.8215 40
    endloop
  endfacet
  facet normal -0.716797 0.697282 0
    outer loop
      vertex -13.5739 11.8215 -40
      vertex -12.1911 13.243 -20
      vertex -12.1911 13.243 -40
    endloop
  endfacet
  facet normal -0.716797 0.697282 0
    outer loop
      vertex -12.1911 13.243 -20
      vertex -13.5739 11.8215 -40
      vertex -13.5739 11.8215 -20
    endloop
  endfacet
  facet normal -0.350651 0.936506 0
    outer loop
      vertex -5.37327 17.1793 -40
      vertex -7.23052 16.4839 -20
      vertex -5.37327 17.1793 -20
    endloop
  endfacet
  facet normal -0.350651 0.936506 0
    outer loop
      vertex -7.23052 16.4839 -20
      vertex -5.37327 17.1793 -40
      vertex -7.23052 16.4839 -40
    endloop
  endfacet
  facet normal -0.350651 0.936506 0
    outer loop
      vertex -5.37327 17.1793 20
      vertex -7.23052 16.4839 40
      vertex -5.37327 17.1793 40
    endloop
  endfacet
  facet normal -0.350651 0.936506 0
    outer loop
      vertex -7.23052 16.4839 40
      vertex -5.37327 17.1793 20
      vertex -7.23052 16.4839 20
    endloop
  endfacet
  facet normal 0 0 1
    outer loop
      vertex 4.98011 0.0999994 40
      vertex 17.8908 1.98015 40
      vertex 17.5643 3.93626 40
    endloop
  endfacet
  facet normal 0 0 1
    outer loop
      vertex 4.6194 1.91342 40
      vertex 17.5643 3.93626 40
      vertex 17.0247 5.84459 40
    endloop
  endfacet
  facet normal 0 0 1
    outer loop
      vertex 4.6194 1.91342 40
      vertex 17.0247 5.84459 40
      vertex 16.2784 7.68198 40
    endloop
  endfacet
  facet normal 0 0 1
    outer loop
      vertex 4.6194 1.91342 40
      vertex 16.2784 7.68198 40
      vertex 15.3345 9.42611 40
    endloop
  endfacet
  facet normal 0 0 1
    outer loop
      vertex 3.53553 3.53553 40
      vertex 15.3345 9.42611 40
      vertex 14.2045 11.0558 40
    endloop
  endfacet
  facet normal 0 0 1
    outer loop
      vertex 3.53553 3.53553 40
      vertex 14.2045 11.0558 40
      vertex 12.9021 12.5513 40
    endloop
  endfacet
  facet normal 0 0 1
    outer loop
      vertex 3.53553 3.53553 40
      vertex 12.9021 12.5513 40
      vertex 11.443 13.8945 40
    endloop
  endfacet
  facet normal 0 0 1
    outer loop
      vertex 3.53553 3.53553 40
      vertex 11.443 13.8945 40
      vertex 9.84507 15.069 40
    endloop
  endfacet
  facet normal 0 0 1
    outer loop
      vertex 1.91342 4.6194 40
      vertex 9.84507 15.069 40
      vertex 8.1276 16.0606 40
    endloop
  endfacet
  facet normal 0 0 1
    outer loop
      vertex 1.91342 4.6194 40
      vertex 8.1276 16.0606 40
      vertex 6.31148 16.8572 40
    endloop
  endfacet
  facet normal 0 0 1
    outer loop
      vertex 15.3345 9.42611 40
      vertex 3.53553 3.53553 40
      vertex 4.6194 1.91342 40
    endloop
  endfacet
  facet normal 0 0 1
    outer loop
      vertex 17.8908 1.98015 40
      vertex 4.98011 0.0999994 40
      vertex 17.9945 0.0999994 40
    endloop
  endfacet
  facet normal 0 0 1
    outer loop
      vertex 1.91342 4.6194 40
      vertex 6.31148 16.8572 40
      vertex 4.41874 17.4492 40
    endloop
  endfacet
  facet normal 0 0 1
    outer loop
      vertex 17.5643 3.93626 40
      vertex 4.6194 1.91342 40
      vertex 4.98011 0.0999994 40
    endloop
  endfacet
  facet normal 0 0 1
    outer loop
      vertex 1.91342 4.6194 40
      vertex 4.41874 17.4492 40
      vertex 2.47236 17.8294 40
    endloop
  endfacet
  facet normal 0 0 1
    outer loop
      vertex 9.84507 15.069 40
      vertex 1.91342 4.6194 40
      vertex 3.53553 3.53553 40
    endloop
  endfacet
  facet normal 0 0 1
    outer loop
      vertex 0 5 40
      vertex 2.47236 17.8294 40
      vertex 0.495977 17.9932 40
    endloop
  endfacet
  facet normal 0 0 1
    outer loop
      vertex 2.47236 17.8294 40
      vertex 0 5 40
      vertex 1.91342 4.6194 40
    endloop
  endfacet
  facet normal -0 0 1
    outer loop
      vertex -1.48643 17.9385 40
      vertex 0 5 40
      vertex 0.495977 17.9932 40
    endloop
  endfacet
  facet normal -0 0 1
    outer loop
      vertex -3.45079 17.6661 40
      vertex 0 5 40
      vertex -1.48643 17.9385 40
    endloop
  endfacet
  facet normal 0 0 1
    outer loop
      vertex 0 5 40
      vertex -3.45079 17.6661 40
      vertex -1.91342 4.6194 40
    endloop
  endfacet
  facet normal -0 0 1
    outer loop
      vertex -5.37327 17.1793 40
      vertex -1.91342 4.6194 40
      vertex -3.45079 17.6661 40
    endloop
  endfacet
  facet normal -0 0 1
    outer loop
      vertex -7.23052 16.4839 40
      vertex -1.91342 4.6194 40
      vertex -5.37327 17.1793 40
    endloop
  endfacet
  facet normal -0 0 1
    outer loop
      vertex -9 15.5885 40
      vertex -1.91342 4.6194 40
      vertex -7.23052 16.4839 40
    endloop
  endfacet
  facet normal -0 0 1
    outer loop
      vertex -10.6602 14.5038 40
      vertex -1.91342 4.6194 40
      vertex -9 15.5885 40
    endloop
  endfacet
  facet normal 0 0 1
    outer loop
      vertex -1.91342 4.6194 40
      vertex -10.6602 14.5038 40
      vertex -3.53553 3.53553 40
    endloop
  endfacet
  facet normal -0 0 1
    outer loop
      vertex -12.1911 13.243 40
      vertex -3.53553 3.53553 40
      vertex -10.6602 14.5038 40
    endloop
  endfacet
  facet normal -0 0 1
    outer loop
      vertex -13.5739 11.8215 40
      vertex -3.53553 3.53553 40
      vertex -12.1911 13.243 40
    endloop
  endfacet
  facet normal -0 0 1
    outer loop
      vertex -14.792 10.2565 40
      vertex -3.53553 3.53553 40
      vertex -13.5739 11.8215 40
    endloop
  endfacet
  facet normal 0 0 1
    outer loop
      vertex -3.53553 3.53553 40
      vertex -14.792 10.2565 40
      vertex -4.6194 1.91342 40
    endloop
  endfacet
  facet normal -0 0 1
    outer loop
      vertex -15.8305 8.56705 40
      vertex -4.6194 1.91342 40
      vertex -14.792 10.2565 40
    endloop
  endfacet
  facet normal -0 0 1
    outer loop
      vertex -16.6769 6.77357 40
      vertex -4.6194 1.91342 40
      vertex -15.8305 8.56705 40
    endloop
  endfacet
  facet normal -0 0 1
    outer loop
      vertex -17.3208 4.89786 40
      vertex -4.6194 1.91342 40
      vertex -16.6769 6.77357 40
    endloop
  endfacet
  facet normal -0 0 1
    outer loop
      vertex -17.7545 2.9627 40
      vertex -4.6194 1.91342 40
      vertex -17.3208 4.89786 40
    endloop
  endfacet
  facet normal 0 0 1
    outer loop
      vertex -4.6194 1.91342 40
      vertex -17.7545 2.9627 40
      vertex -4.98011 0.0999994 40
    endloop
  endfacet
  facet normal -0 0 1
    outer loop
      vertex -17.9727 0.991579 40
      vertex -4.98011 0.0999994 40
      vertex -17.7545 2.9627 40
    endloop
  endfacet
  facet normal 0 0 1
    outer loop
      vertex -4.98011 0.0999994 40
      vertex -17.9727 0.991579 40
      vertex -17.9727 0.0999994 40
    endloop
  endfacet
  facet normal 0 0 -1
    outer loop
      vertex 17.9945 0.0999994 -40
      vertex 17.5643 3.93626 -40
      vertex 17.8908 1.98015 -40
    endloop
  endfacet
  facet normal 0 0 -1
    outer loop
      vertex 17.9945 0.0999994 -40
      vertex 17.0247 5.84459 -40
      vertex 17.5643 3.93626 -40
    endloop
  endfacet
  facet normal 0 0 -1
    outer loop
      vertex 17.9945 0.0999994 -40
      vertex 16.2784 7.68198 -40
      vertex 17.0247 5.84459 -40
    endloop
  endfacet
  facet normal 0 0 -1
    outer loop
      vertex 17.9945 0.0999994 -40
      vertex 15.3345 9.42611 -40
      vertex 16.2784 7.68198 -40
    endloop
  endfacet
  facet normal 0 0 -1
    outer loop
      vertex 17.9945 0.0999994 -40
      vertex 14.2045 11.0558 -40
      vertex 15.3345 9.42611 -40
    endloop
  endfacet
  facet normal 0 0 -1
    outer loop
      vertex 17.9945 0.0999994 -40
      vertex 12.9021 12.5513 -40
      vertex 14.2045 11.0558 -40
    endloop
  endfacet
  facet normal 0 0 -1
    outer loop
      vertex 17.9945 0.0999994 -40
      vertex 11.443 13.8945 -40
      vertex 12.9021 12.5513 -40
    endloop
  endfacet
  facet normal 0 0 -1
    outer loop
      vertex 17.9945 0.0999994 -40
      vertex 9.84507 15.069 -40
      vertex 11.443 13.8945 -40
    endloop
  endfacet
  facet normal 0 0 -1
    outer loop
      vertex 17.9945 0.0999994 -40
      vertex 8.1276 16.0606 -40
      vertex 9.84507 15.069 -40
    endloop
  endfacet
  facet normal 0 0 -1
    outer loop
      vertex 17.9945 0.0999994 -40
      vertex 6.31148 16.8572 -40
      vertex 8.1276 16.0606 -40
    endloop
  endfacet
  facet normal 0 0 -1
    outer loop
      vertex 17.9945 0.0999994 -40
      vertex 4.41874 17.4492 -40
      vertex 6.31148 16.8572 -40
    endloop
  endfacet
  facet normal 0 0 -1
    outer loop
      vertex 17.9945 0.0999994 -40
      vertex 2.47236 17.8294 -40
      vertex 4.41874 17.4492 -40
    endloop
  endfacet
  facet normal 0 0 -1
    outer loop
      vertex 17.9945 0.0999994 -40
      vertex 0.495977 17.9932 -40
      vertex 2.47236 17.8294 -40
    endloop
  endfacet
  facet normal 0 0 -1
    outer loop
      vertex 17.9945 0.0999994 -40
      vertex -1.48643 17.9385 -40
      vertex 0.495977 17.9932 -40
    endloop
  endfacet
  facet normal 0 0 -1
    outer loop
      vertex 17.9945 0.0999994 -40
      vertex -3.45079 17.6661 -40
      vertex -1.48643 17.9385 -40
    endloop
  endfacet
  facet normal 0 0 -1
    outer loop
      vertex 17.9945 0.0999994 -40
      vertex -5.37327 17.1793 -40
      vertex -3.45079 17.6661 -40
    endloop
  endfacet
  facet normal 0 0 -1
    outer loop
      vertex 17.9945 0.0999994 -40
      vertex -7.23052 16.4839 -40
      vertex -5.37327 17.1793 -40
    endloop
  endfacet
  facet normal 0 0 -1
    outer loop
      vertex 17.9945 0.0999994 -40
      vertex -9 15.5885 -40
      vertex -7.23052 16.4839 -40
    endloop
  endfacet
  facet normal 0 0 -1
    outer loop
      vertex 17.9945 0.0999994 -40
      vertex -10.6602 14.5038 -40
      vertex -9 15.5885 -40
    endloop
  endfacet
  facet normal 0 0 -1
    outer loop
      vertex 17.9945 0.0999994 -40
      vertex -12.1911 13.243 -40
      vertex -10.6602 14.5038 -40
    endloop
  endfacet
  facet normal 0 0 -1
    outer loop
      vertex 17.9945 0.0999994 -40
      vertex -13.5739 11.8215 -40
      vertex -12.1911 13.243 -40
    endloop
  endfacet
  facet normal 0 0 -1
    outer loop
      vertex 17.9945 0.0999994 -40
      vertex -14.792 10.2565 -40
      vertex -13.5739 11.8215 -40
    endloop
  endfacet
  facet normal 0 0 -1
    outer loop
      vertex 17.9945 0.0999994 -40
      vertex -15.8305 8.56705 -40
      vertex -14.792 10.2565 -40
    endloop
  endfacet
  facet normal 0 0 -1
    outer loop
      vertex 17.9945 0.0999994 -40
      vertex -16.6769 6.77357 -40
      vertex -15.8305 8.56705 -40
    endloop
  endfacet
  facet normal 0 0 -1
    outer loop
      vertex 17.9945 0.0999994 -40
      vertex -17.3208 4.89786 -40
      vertex -16.6769 6.77357 -40
    endloop
  endfacet
  facet normal 0 0 -1
    outer loop
      vertex 17.9945 0.0999994 -40
      vertex -17.7545 2.9627 -40
      vertex -17.3208 4.89786 -40
    endloop
  endfacet
  facet normal 0 0 -1
    outer loop
      vertex -17.9727 0.0999994 -40
      vertex -17.7545 2.9627 -40
      vertex 17.9945 0.0999994 -40
    endloop
  endfacet
  facet normal 0 0 -1
    outer loop
      vertex -17.7545 2.9627 -40
      vertex -17.9727 0.0999994 -40
      vertex -17.9727 0.991579 -40
    endloop
  endfacet
  facet normal -0.90435 0.426791 0
    outer loop
      vertex -16.6769 6.77357 20
      vertex -15.8305 8.56705 40
      vertex -15.8305 8.56705 20
    endloop
  endfacet
  facet normal -0.90435 0.426791 0
    outer loop
      vertex -15.8305 8.56705 40
      vertex -16.6769 6.77357 20
      vertex -16.6769 6.77357 40
    endloop
  endfacet
  facet normal -0.90435 0.426791 0
    outer loop
      vertex -16.6769 6.77357 -40
      vertex -15.8305 8.56705 -20
      vertex -15.8305 8.56705 -40
    endloop
  endfacet
  facet normal -0.90435 0.426791 0
    outer loop
      vertex -15.8305 8.56705 -20
      vertex -16.6769 6.77357 -40
      vertex -16.6769 6.77357 -20
    endloop
  endfacet
  facet normal -0.85192 0.523673 0
    outer loop
      vertex -15.8305 8.56705 -40
      vertex -14.792 10.2565 -20
      vertex -14.792 10.2565 -40
    endloop
  endfacet
  facet normal -0.85192 0.523673 0
    outer loop
      vertex -14.792 10.2565 -20
      vertex -15.8305 8.56705 -40
      vertex -15.8305 8.56705 -20
    endloop
  endfacet
  facet normal -0.85192 0.523673 0
    outer loop
      vertex -15.8305 8.56705 20
      vertex -14.792 10.2565 40
      vertex -14.792 10.2565 20
    endloop
  endfacet
  facet normal -0.85192 0.523673 0
    outer loop
      vertex -14.792 10.2565 40
      vertex -15.8305 8.56705 20
      vertex -15.8305 8.56705 40
    endloop
  endfacet
  facet normal 0.354642 0.935002 -0
    outer loop
      vertex 8.18697 18.7942 -20
      vertex 6.33485 19.4967 20
      vertex 8.18697 18.7942 20
    endloop
  endfacet
  facet normal 0.354642 0.935002 0
    outer loop
      vertex 6.33485 19.4967 20
      vertex 8.18697 18.7942 -20
      vertex 6.33485 19.4967 -20
    endloop
  endfacet
  facet normal 0.989507 0.144483 0
    outer loop
      vertex 20.4043 1.97853 20
      vertex 20.1181 3.9386 -20
      vertex 20.1181 3.9386 20
    endloop
  endfacet
  facet normal 0.989507 0.144483 0
    outer loop
      vertex 20.1181 3.9386 -20
      vertex 20.4043 1.97853 20
      vertex 20.4043 1.97853 -20
    endloop
  endfacet
  facet normal 0.998831 0.0483323 0
    outer loop
      vertex 20.4952 0.0999994 20
      vertex 20.4043 1.97853 -20
      vertex 20.4043 1.97853 20
    endloop
  endfacet
  facet normal 0.998831 0.0483323 0
    outer loop
      vertex 20.4043 1.97853 -20
      vertex 20.4952 0.0999994 20
      vertex 20.4952 0.0999994 -20
    endloop
  endfacet
  facet normal 0.970936 0.23934 0
    outer loop
      vertex 20.1181 3.9386 20
      vertex 19.644 5.86189 -20
      vertex 19.644 5.86189 20
    endloop
  endfacet
  facet normal 0.970936 0.23934 0
    outer loop
      vertex 19.644 5.86189 -20
      vertex 20.1181 3.9386 20
      vertex 20.1181 3.9386 -20
    endloop
  endfacet
  facet normal -0.0241816 0.999708 0
    outer loop
      vertex 0.495357 20.494 -20
      vertex -1.48491 20.4461 20
      vertex 0.495357 20.494 20
    endloop
  endfacet
  facet normal -0.0241816 0.999708 0
    outer loop
      vertex -1.48491 20.4461 20
      vertex 0.495357 20.494 -20
      vertex -1.48491 20.4461 -20
    endloop
  endfacet
  facet normal 0.943321 0.331883 0
    outer loop
      vertex 19.644 5.86189 20
      vertex 18.9866 7.73044 -20
      vertex 18.9866 7.73044 20
    endloop
  endfacet
  facet normal 0.943321 0.331883 0
    outer loop
      vertex 18.9866 7.73044 -20
      vertex 19.644 5.86189 20
      vertex 19.644 5.86189 -20
    endloop
  endfacet
  facet normal 0.906861 0.42143 0
    outer loop
      vertex 18.9866 7.73044 20
      vertex 18.1518 9.52682 -20
      vertex 18.1518 9.52682 20
    endloop
  endfacet
  facet normal 0.906861 0.42143 0
    outer loop
      vertex 18.1518 9.52682 -20
      vertex 18.9866 7.73044 20
      vertex 18.9866 7.73044 -20
    endloop
  endfacet
  facet normal -0.486005 0.873956 0
    outer loop
      vertex -9.08543 18.3768 -20
      vertex -10.8166 17.4141 20
      vertex -9.08543 18.3768 20
    endloop
  endfacet
  facet normal -0.486005 0.873956 0
    outer loop
      vertex -10.8166 17.4141 20
      vertex -9.08543 18.3768 -20
      vertex -10.8166 17.4141 -20
    endloop
  endfacet
  facet normal -0.215815 0.976434 0
    outer loop
      vertex -3.45132 20.2074 -20
      vertex -5.3855 19.7799 20
      vertex -3.45132 20.2074 20
    endloop
  endfacet
  facet normal -0.215815 0.976434 0
    outer loop
      vertex -5.3855 19.7799 20
      vertex -3.45132 20.2074 -20
      vertex -5.3855 19.7799 -20
    endloop
  endfacet
  facet normal 0.527619 0.849481 -0
    outer loop
      vertex 11.6453 16.8712 -20
      vertex 9.96266 17.9163 20
      vertex 11.6453 16.8712 20
    endloop
  endfacet
  facet normal 0.527619 0.849481 0
    outer loop
      vertex 9.96266 17.9163 20
      vertex 11.6453 16.8712 -20
      vertex 9.96266 17.9163 -20
    endloop
  endfacet
  facet normal 0.681022 0.732263 -0
    outer loop
      vertex 14.6698 14.3195 -20
      vertex 13.2193 15.6685 20
      vertex 14.6698 14.3195 20
    endloop
  endfacet
  facet normal 0.681022 0.732263 0
    outer loop
      vertex 13.2193 15.6685 20
      vertex 14.6698 14.3195 -20
      vertex 13.2193 15.6685 -20
    endloop
  endfacet
  facet normal -0.981368 0.192139 0
    outer loop
      vertex -20.2849 2.96202 -20
      vertex -19.9043 4.90597 20
      vertex -19.9043 4.90597 -20
    endloop
  endfacet
  facet normal -0.981368 0.192139 0
    outer loop
      vertex -19.9043 4.90597 20
      vertex -20.2849 2.96202 -20
      vertex -20.2849 2.96202 20
    endloop
  endfacet
  facet normal 0.809013 0.58779 0
    outer loop
      vertex 17.1476 11.2343 20
      vertex 15.9833 12.8368 -20
      vertex 15.9833 12.8368 20
    endloop
  endfacet
  facet normal 0.809013 0.58779 0
    outer loop
      vertex 15.9833 12.8368 -20
      vertex 17.1476 11.2343 20
      vertex 17.1476 11.2343 -20
    endloop
  endfacet
  facet normal 0.443193 0.896426 -0
    outer loop
      vertex 9.96266 17.9163 -20
      vertex 8.18697 18.7942 20
      vertex 9.96266 17.9163 20
    endloop
  endfacet
  facet normal 0.443193 0.896426 0
    outer loop
      vertex 8.18697 18.7942 20
      vertex 9.96266 17.9163 -20
      vertex 8.18697 18.7942 -20
    endloop
  endfacet
  facet normal -0.926169 0.377109 0
    outer loop
      vertex -19.3379 6.80411 -20
      vertex -18.5909 8.63872 20
      vertex -18.5909 8.63872 -20
    endloop
  endfacet
  facet normal -0.926169 0.377109 0
    outer loop
      vertex -18.5909 8.63872 20
      vertex -19.3379 6.80411 -20
      vertex -19.3379 6.80411 20
    endloop
  endfacet
  facet normal 0.262668 0.964886 -0
    outer loop
      vertex 6.33485 19.4967 -20
      vertex 4.42358 20.017 20
      vertex 6.33485 19.4967 20
    endloop
  endfacet
  facet normal 0.262668 0.964886 0
    outer loop
      vertex 4.42358 20.017 20
      vertex 6.33485 19.4967 -20
      vertex 4.42358 20.017 -20
    endloop
  endfacet
  facet normal -0 0 1
    outer loop
      vertex 17.8908 1.98015 20
      vertex 20.4043 1.97853 20
      vertex 20.1181 3.9386 20
    endloop
  endfacet
  facet normal 0 0 1
    outer loop
      vertex 17.5643 3.93626 20
      vertex 20.1181 3.9386 20
      vertex 19.644 5.86189 20
    endloop
  endfacet
  facet normal 0 0 1
    outer loop
      vertex 17.0247 5.84459 20
      vertex 19.644 5.86189 20
      vertex 18.9866 7.73044 20
    endloop
  endfacet
  facet normal 0 0 1
    outer loop
      vertex 16.2784 7.68198 20
      vertex 18.9866 7.73044 20
      vertex 18.1518 9.52682 20
    endloop
  endfacet
  facet normal 0 0 1
    outer loop
      vertex 20.1181 3.9386 20
      vertex 17.5643 3.93626 20
      vertex 17.8908 1.98015 20
    endloop
  endfacet
  facet normal 0 0 1
    outer loop
      vertex 20.4043 1.97853 20
      vertex 17.9945 0.0999994 20
      vertex 20.4952 0.0999994 20
    endloop
  endfacet
  facet normal 0 -0 1
    outer loop
      vertex 17.9945 0.0999994 20
      vertex 20.4043 1.97853 20
      vertex 17.8908 1.98015 20
    endloop
  endfacet
  facet normal 0 0 1
    outer loop
      vertex 15.3345 9.42611 20
      vertex 18.1518 9.52682 20
      vertex 17.1476 11.2343 20
    endloop
  endfacet
  facet normal 0 0 1
    outer loop
      vertex 19.644 5.86189 20
      vertex 17.0247 5.84459 20
      vertex 17.5643 3.93626 20
    endloop
  endfacet
  facet normal 0 0 1
    outer loop
      vertex 18.9866 7.73044 20
      vertex 16.2784 7.68198 20
      vertex 17.0247 5.84459 20
    endloop
  endfacet
  facet normal 0 0 1
    outer loop
      vertex 14.2045 11.0558 20
      vertex 17.1476 11.2343 20
      vertex 15.9833 12.8368 20
    endloop
  endfacet
  facet normal 0 0 1
    outer loop
      vertex 18.1518 9.52682 20
      vertex 15.3345 9.42611 20
      vertex 16.2784 7.68198 20
    endloop
  endfacet
  facet normal 0 0 1
    outer loop
      vertex 12.9021 12.5513 20
      vertex 15.9833 12.8368 20
      vertex 14.6698 14.3195 20
    endloop
  endfacet
  facet normal 0 0 1
    outer loop
      vertex 17.1476 11.2343 20
      vertex 14.2045 11.0558 20
      vertex 15.3345 9.42611 20
    endloop
  endfacet
  facet normal 0 0 1
    outer loop
      vertex 12.9021 12.5513 20
      vertex 14.6698 14.3195 20
      vertex 13.2193 15.6685 20
    endloop
  endfacet
  facet normal 0 0 1
    outer loop
      vertex 15.9833 12.8368 20
      vertex 12.9021 12.5513 20
      vertex 14.2045 11.0558 20
    endloop
  endfacet
  facet normal 0 0 1
    outer loop
      vertex 11.443 13.8945 20
      vertex 13.2193 15.6685 20
      vertex 11.6453 16.8712 20
    endloop
  endfacet
  facet normal 0 0 1
    outer loop
      vertex 13.2193 15.6685 20
      vertex 11.443 13.8945 20
      vertex 12.9021 12.5513 20
    endloop
  endfacet
  facet normal 0 0 1
    outer loop
      vertex 9.84507 15.069 20
      vertex 11.6453 16.8712 20
      vertex 9.96266 17.9163 20
    endloop
  endfacet
  facet normal 0 0 1
    outer loop
      vertex 11.6453 16.8712 20
      vertex 9.84507 15.069 20
      vertex 11.443 13.8945 20
    endloop
  endfacet
  facet normal 0 0 1
    outer loop
      vertex 8.1276 16.0606 20
      vertex 9.96266 17.9163 20
      vertex 8.18697 18.7942 20
    endloop
  endfacet
  facet normal 0 0 1
    outer loop
      vertex 9.96266 17.9163 20
      vertex 8.1276 16.0606 20
      vertex 9.84507 15.069 20
    endloop
  endfacet
  facet normal 0 0 1
    outer loop
      vertex 6.31148 16.8572 20
      vertex 8.18697 18.7942 20
      vertex 6.33485 19.4967 20
    endloop
  endfacet
  facet normal 0 0 1
    outer loop
      vertex 8.18697 18.7942 20
      vertex 6.31148 16.8572 20
      vertex 8.1276 16.0606 20
    endloop
  endfacet
  facet normal 0 0 1
    outer loop
      vertex 4.41874 17.4492 20
      vertex 6.33485 19.4967 20
      vertex 4.42358 20.017 20
    endloop
  endfacet
  facet normal 0 0 1
    outer loop
      vertex 6.33485 19.4967 20
      vertex 4.41874 17.4492 20
      vertex 6.31148 16.8572 20
    endloop
  endfacet
  facet normal 0 0 1
    outer loop
      vertex 4.42358 20.017 20
      vertex 2.47236 17.8294 20
      vertex 4.41874 17.4492 20
    endloop
  endfacet
  facet normal 0 0 1
    outer loop
      vertex 2.471 20.3505 20
      vertex 2.47236 17.8294 20
      vertex 4.42358 20.017 20
    endloop
  endfacet
  facet normal 0 0 1
    outer loop
      vertex 2.471 20.3505 20
      vertex 0.495977 17.9932 20
      vertex 2.47236 17.8294 20
    endloop
  endfacet
  facet normal 0 0 1
    outer loop
      vertex 0.495357 20.494 20
      vertex 0.495977 17.9932 20
      vertex 2.471 20.3505 20
    endloop
  endfacet
  facet normal -0 0 1
    outer loop
      vertex -1.48491 20.4461 20
      vertex 0.495977 17.9932 20
      vertex 0.495357 20.494 20
    endloop
  endfacet
  facet normal 0 0 1
    outer loop
      vertex -1.48491 20.4461 20
      vertex -1.48643 17.9385 20
      vertex 0.495977 17.9932 20
    endloop
  endfacet
  facet normal -0 0 1
    outer loop
      vertex -3.45132 20.2074 20
      vertex -1.48643 17.9385 20
      vertex -1.48491 20.4461 20
    endloop
  endfacet
  facet normal 0 0 1
    outer loop
      vertex -1.48643 17.9385 20
      vertex -3.45132 20.2074 20
      vertex -3.45079 17.6661 20
    endloop
  endfacet
  facet normal -0 0 1
    outer loop
      vertex -5.3855 19.7799 20
      vertex -3.45079 17.6661 20
      vertex -3.45132 20.2074 20
    endloop
  endfacet
  facet normal 0 0 1
    outer loop
      vertex -3.45079 17.6661 20
      vertex -5.3855 19.7799 20
      vertex -5.37327 17.1793 20
    endloop
  endfacet
  facet normal -0 0 1
    outer loop
      vertex -7.2694 19.1678 20
      vertex -5.37327 17.1793 20
      vertex -5.3855 19.7799 20
    endloop
  endfacet
  facet normal 0 0 1
    outer loop
      vertex -5.37327 17.1793 20
      vertex -7.2694 19.1678 20
      vertex -7.23052 16.4839 20
    endloop
  endfacet
  facet normal -0 0 1
    outer loop
      vertex -9.08543 18.3768 20
      vertex -7.23052 16.4839 20
      vertex -7.2694 19.1678 20
    endloop
  endfacet
  facet normal 0 0 1
    outer loop
      vertex -7.23052 16.4839 20
      vertex -9.08543 18.3768 20
      vertex -9 15.5885 20
    endloop
  endfacet
  facet normal -0 0 1
    outer loop
      vertex -10.8166 17.4141 20
      vertex -9 15.5885 20
      vertex -9.08543 18.3768 20
    endloop
  endfacet
  facet normal 0 0 1
    outer loop
      vertex -9 15.5885 20
      vertex -10.8166 17.4141 20
      vertex -10.6602 14.5038 20
    endloop
  endfacet
  facet normal -0 0 1
    outer loop
      vertex -12.4468 16.2888 20
      vertex -10.6602 14.5038 20
      vertex -10.8166 17.4141 20
    endloop
  endfacet
  facet normal 0 0 1
    outer loop
      vertex -10.6602 14.5038 20
      vertex -12.4468 16.2888 20
      vertex -12.1911 13.243 20
    endloop
  endfacet
  facet normal -0 0 1
    outer loop
      vertex -13.9608 15.0115 20
      vertex -12.1911 13.243 20
      vertex -12.4468 16.2888 20
    endloop
  endfacet
  facet normal -0 0 1
    outer loop
      vertex -15.3445 13.594 20
      vertex -12.1911 13.243 20
      vertex -13.9608 15.0115 20
    endloop
  endfacet
  facet normal 0 0 1
    outer loop
      vertex -12.1911 13.243 20
      vertex -15.3445 13.594 20
      vertex -13.5739 11.8215 20
    endloop
  endfacet
  facet normal -0 0 1
    outer loop
      vertex -16.5848 12.0496 20
      vertex -13.5739 11.8215 20
      vertex -15.3445 13.594 20
    endloop
  endfacet
  facet normal 0 0 1
    outer loop
      vertex -13.5739 11.8215 20
      vertex -16.5848 12.0496 20
      vertex -14.792 10.2565 20
    endloop
  endfacet
  facet normal -0 0 1
    outer loop
      vertex -17.6704 10.3927 20
      vertex -14.792 10.2565 20
      vertex -16.5848 12.0496 20
    endloop
  endfacet
  facet normal 0 0 1
    outer loop
      vertex -14.792 10.2565 20
      vertex -17.6704 10.3927 20
      vertex -15.8305 8.56705 20
    endloop
  endfacet
  facet normal -0 0 1
    outer loop
      vertex -18.5909 8.63872 20
      vertex -15.8305 8.56705 20
      vertex -17.6704 10.3927 20
    endloop
  endfacet
  facet normal 0 0 1
    outer loop
      vertex -15.8305 8.56705 20
      vertex -18.5909 8.63872 20
      vertex -16.6769 6.77357 20
    endloop
  endfacet
  facet normal -0 0 1
    outer loop
      vertex -19.3379 6.80411 20
      vertex -16.6769 6.77357 20
      vertex -18.5909 8.63872 20
    endloop
  endfacet
  facet normal 0 0 1
    outer loop
      vertex -16.6769 6.77357 20
      vertex -19.3379 6.80411 20
      vertex -17.3208 4.89786 20
    endloop
  endfacet
  facet normal -0 0 1
    outer loop
      vertex -19.9043 4.90597 20
      vertex -17.3208 4.89786 20
      vertex -19.3379 6.80411 20
    endloop
  endfacet
  facet normal 0 0 1
    outer loop
      vertex -17.3208 4.89786 20
      vertex -19.9043 4.90597 20
      vertex -17.7545 2.9627 20
    endloop
  endfacet
  facet normal 0 0 1
    outer loop
      vertex -20.2849 2.96202 20
      vertex -17.7545 2.9627 20
      vertex -19.9043 4.90597 20
    endloop
  endfacet
  facet normal 0 0 1
    outer loop
      vertex -17.7545 2.9627 20
      vertex -20.2849 2.96202 20
      vertex -17.9727 0.991579 20
    endloop
  endfacet
  facet normal 0 0 1
    outer loop
      vertex -20.4761 0.990424 20
      vertex -17.9727 0.991579 20
      vertex -20.2849 2.96202 20
    endloop
  endfacet
  facet normal 0 0 1
    outer loop
      vertex -17.9727 0.991579 20
      vertex -20.4761 0.990424 20
      vertex -17.9727 0.0999994 20
    endloop
  endfacet
  facet normal 0 0 1
    outer loop
      vertex -17.9727 0.0999994 20
      vertex -20.4761 0.990424 20
      vertex -20.4761 0.0999994 20
    endloop
  endfacet
  facet normal -0.885468 0.4647 0
    outer loop
      vertex -18.5909 8.63872 -20
      vertex -17.6704 10.3927 20
      vertex -17.6704 10.3927 -20
    endloop
  endfacet
  facet normal -0.885468 0.4647 0
    outer loop
      vertex -17.6704 10.3927 20
      vertex -18.5909 8.63872 -20
      vertex -18.5909 8.63872 20
    endloop
  endfacet
  facet normal -0.30901 0.951059 0
    outer loop
      vertex -5.3855 19.7799 -20
      vertex -7.2694 19.1678 20
      vertex -5.3855 19.7799 20
    endloop
  endfacet
  facet normal -0.30901 0.951059 0
    outer loop
      vertex -7.2694 19.1678 20
      vertex -5.3855 19.7799 -20
      vertex -7.2694 19.1678 -20
    endloop
  endfacet
  facet normal 0.748525 0.663106 0
    outer loop
      vertex 15.9833 12.8368 20
      vertex 14.6698 14.3195 -20
      vertex 14.6698 14.3195 20
    endloop
  endfacet
  facet normal 0.748525 0.663106 0
    outer loop
      vertex 14.6698 14.3195 -20
      vertex 15.9833 12.8368 20
      vertex 15.9833 12.8368 -20
    endloop
  endfacet
  facet normal -0.64483 0.764326 0
    outer loop
      vertex -12.4468 16.2888 -20
      vertex -13.9608 15.0115 20
      vertex -12.4468 16.2888 20
    endloop
  endfacet
  facet normal -0.64483 0.764326 0
    outer loop
      vertex -13.9608 15.0115 20
      vertex -12.4468 16.2888 -20
      vertex -13.9608 15.0115 -20
    endloop
  endfacet
  facet normal 0.0724437 0.997373 -0
    outer loop
      vertex 2.471 20.3505 -20
      vertex 0.495357 20.494 20
      vertex 2.471 20.3505 20
    endloop
  endfacet
  facet normal 0.0724437 0.997373 0
    outer loop
      vertex 0.495357 20.494 20
      vertex 2.471 20.3505 -20
      vertex 0.495357 20.494 -20
    endloop
  endfacet
  facet normal -0.568083 0.822971 0
    outer loop
      vertex -10.8166 17.4141 -20
      vertex -12.4468 16.2888 20
      vertex -10.8166 17.4141 20
    endloop
  endfacet
  facet normal -0.568083 0.822971 0
    outer loop
      vertex -12.4468 16.2888 20
      vertex -10.8166 17.4141 -20
      vertex -12.4468 16.2888 -20
    endloop
  endfacet
  facet normal -0.77969 0.626165 0
    outer loop
      vertex -16.5848 12.0496 -20
      vertex -15.3445 13.594 20
      vertex -15.3445 13.594 -20
    endloop
  endfacet
  facet normal -0.77969 0.626165 0
    outer loop
      vertex -15.3445 13.594 20
      vertex -16.5848 12.0496 -20
      vertex -16.5848 12.0496 20
    endloop
  endfacet
  facet normal 0.607148 0.794588 -0
    outer loop
      vertex 13.2193 15.6685 -20
      vertex 11.6453 16.8712 20
      vertex 13.2193 15.6685 20
    endloop
  endfacet
  facet normal 0.607148 0.794588 0
    outer loop
      vertex 11.6453 16.8712 20
      vertex 13.2193 15.6685 -20
      vertex 11.6453 16.8712 -20
    endloop
  endfacet
  facet normal -0.120504 0.992713 0
    outer loop
      vertex -1.48491 20.4461 -20
      vertex -3.45132 20.2074 20
      vertex -1.48491 20.4461 20
    endloop
  endfacet
  facet normal -0.120504 0.992713 0
    outer loop
      vertex -3.45132 20.2074 20
      vertex -1.48491 20.4461 -20
      vertex -3.45132 20.2074 -20
    endloop
  endfacet
  facet normal -0.39933 0.916807 0
    outer loop
      vertex -7.2694 19.1678 -20
      vertex -9.08543 18.3768 20
      vertex -7.2694 19.1678 20
    endloop
  endfacet
  facet normal -0.39933 0.916807 0
    outer loop
      vertex -9.08543 18.3768 20
      vertex -7.2694 19.1678 -20
      vertex -9.08543 18.3768 -20
    endloop
  endfacet
  facet normal 0.861978 0.506945 0
    outer loop
      vertex 18.1518 9.52682 20
      vertex 17.1476 11.2343 -20
      vertex 17.1476 11.2343 20
    endloop
  endfacet
  facet normal 0.861978 0.506945 0
    outer loop
      vertex 17.1476 11.2343 -20
      vertex 18.1518 9.52682 20
      vertex 18.1518 9.52682 -20
    endloop
  endfacet
  facet normal -0.995331 0.0965244 0
    outer loop
      vertex -20.4761 0.990424 -20
      vertex -20.2849 2.96202 20
      vertex -20.2849 2.96202 -20
    endloop
  endfacet
  facet normal -0.995331 0.0965244 0
    outer loop
      vertex -20.2849 2.96202 20
      vertex -20.4761 0.990424 -20
      vertex -20.4761 0.990424 20
    endloop
  endfacet
  facet normal -0.715587 0.698524 0
    outer loop
      vertex -15.3445 13.594 -20
      vertex -13.9608 15.0115 20
      vertex -13.9608 15.0115 -20
    endloop
  endfacet
  facet normal -0.715587 0.698524 0
    outer loop
      vertex -13.9608 15.0115 20
      vertex -15.3445 13.594 -20
      vertex -15.3445 13.594 20
    endloop
  endfacet
  facet normal -0.836451 0.548042 0
    outer loop
      vertex -17.6704 10.3927 -20
      vertex -16.5848 12.0496 20
      vertex -16.5848 12.0496 -20
    endloop
  endfacet
  facet normal -0.836451 0.548042 0
    outer loop
      vertex -16.5848 12.0496 20
      vertex -17.6704 10.3927 -20
      vertex -17.6704 10.3927 20
    endloop
  endfacet
  facet normal -0.958248 0.285939 0
    outer loop
      vertex -19.9043 4.90597 -20
      vertex -19.3379 6.80411 20
      vertex -19.3379 6.80411 -20
    endloop
  endfacet
  facet normal -0.958248 0.285939 0
    outer loop
      vertex -19.3379 6.80411 20
      vertex -19.9043 4.90597 -20
      vertex -19.9043 4.90597 20
    endloop
  endfacet
  facet normal 0.168362 0.985725 -0
    outer loop
      vertex 4.42358 20.017 -20
      vertex 2.471 20.3505 20
      vertex 4.42358 20.017 20
    endloop
  endfacet
  facet normal 0.168362 0.985725 0
    outer loop
      vertex 2.471 20.3505 20
      vertex 4.42358 20.017 -20
      vertex 2.471 20.3505 -20
    endloop
  endfacet
  facet normal -1 0 0
    outer loop
      vertex -20.4761 0.0999994 -20
      vertex -20.4761 0.990424 20
      vertex -20.4761 0.990424 -20
    endloop
  endfacet
  facet normal -1 -0 0
    outer loop
      vertex -20.4761 0.990424 20
      vertex -20.4761 0.0999994 -20
      vertex -20.4761 0.0999994 20
    endloop
  endfacet
  facet normal 0 0 -1
    outer loop
      vertex -20.4761 0.990424 -20
      vertex -17.9727 0.991579 -20
      vertex -17.9727 0.0999994 -20
    endloop
  endfacet
  facet normal 0 0 -1
    outer loop
      vertex -17.9727 0.991579 -20
      vertex -19.3379 6.80411 -20
      vertex -18.5909 8.63872 -20
    endloop
  endfacet
  facet normal 0 0 -1
    outer loop
      vertex -17.9727 0.991579 -20
      vertex -19.9043 4.90597 -20
      vertex -19.3379 6.80411 -20
    endloop
  endfacet
  facet normal 0 0 -1
    outer loop
      vertex -17.9727 0.991579 -20
      vertex -20.2849 2.96202 -20
      vertex -19.9043 4.90597 -20
    endloop
  endfacet
  facet normal 0 0 -1
    outer loop
      vertex -20.4761 0.990424 -20
      vertex -17.9727 0.0999994 -20
      vertex -20.4761 0.0999994 -20
    endloop
  endfacet
  facet normal -0 0 -1
    outer loop
      vertex -17.9727 0.991579 -20
      vertex -20.4761 0.990424 -20
      vertex -20.2849 2.96202 -20
    endloop
  endfacet
  facet normal 0 0 -1
    outer loop
      vertex 17.9945 0.0999994 -20
      vertex 20.4043 1.97853 -20
      vertex 20.4952 0.0999994 -20
    endloop
  endfacet
  facet normal 0 0 -1
    outer loop
      vertex 20.4043 1.97853 -20
      vertex 17.8908 1.98015 -20
      vertex 20.1181 3.9386 -20
    endloop
  endfacet
  facet normal 0 0 -1
    outer loop
      vertex 17.5643 3.93626 -20
      vertex 20.1181 3.9386 -20
      vertex 17.8908 1.98015 -20
    endloop
  endfacet
  facet normal 0 0 -1
    outer loop
      vertex 17.0247 5.84459 -20
      vertex 19.644 5.86189 -20
      vertex 17.5643 3.93626 -20
    endloop
  endfacet
  facet normal -0 0 -1
    outer loop
      vertex 20.4043 1.97853 -20
      vertex 17.9945 0.0999994 -20
      vertex 17.8908 1.98015 -20
    endloop
  endfacet
  facet normal -0 0 -1
    outer loop
      vertex 20.1181 3.9386 -20
      vertex 17.5643 3.93626 -20
      vertex 19.644 5.86189 -20
    endloop
  endfacet
  facet normal -0 0 -1
    outer loop
      vertex 19.644 5.86189 -20
      vertex 17.0247 5.84459 -20
      vertex 18.9866 7.73044 -20
    endloop
  endfacet
  facet normal 0 0 -1
    outer loop
      vertex 16.2784 7.68198 -20
      vertex 18.9866 7.73044 -20
      vertex 17.0247 5.84459 -20
    endloop
  endfacet
  facet normal -0 0 -1
    outer loop
      vertex 18.9866 7.73044 -20
      vertex 16.2784 7.68198 -20
      vertex 18.1518 9.52682 -20
    endloop
  endfacet
  facet normal 0 0 -1
    outer loop
      vertex 15.3345 9.42611 -20
      vertex 18.1518 9.52682 -20
      vertex 16.2784 7.68198 -20
    endloop
  endfacet
  facet normal -0 0 -1
    outer loop
      vertex 18.1518 9.52682 -20
      vertex 15.3345 9.42611 -20
      vertex 17.1476 11.2343 -20
    endloop
  endfacet
  facet normal 0 0 -1
    outer loop
      vertex 14.2045 11.0558 -20
      vertex 17.1476 11.2343 -20
      vertex 15.3345 9.42611 -20
    endloop
  endfacet
  facet normal -0 0 -1
    outer loop
      vertex 17.1476 11.2343 -20
      vertex 14.2045 11.0558 -20
      vertex 15.9833 12.8368 -20
    endloop
  endfacet
  facet normal 0 0 -1
    outer loop
      vertex 12.9021 12.5513 -20
      vertex 15.9833 12.8368 -20
      vertex 14.2045 11.0558 -20
    endloop
  endfacet
  facet normal -0 0 -1
    outer loop
      vertex 15.9833 12.8368 -20
      vertex 12.9021 12.5513 -20
      vertex 14.6698 14.3195 -20
    endloop
  endfacet
  facet normal -0 0 -1
    outer loop
      vertex 14.6698 14.3195 -20
      vertex 12.9021 12.5513 -20
      vertex 13.2193 15.6685 -20
    endloop
  endfacet
  facet normal 0 0 -1
    outer loop
      vertex 11.443 13.8945 -20
      vertex 13.2193 15.6685 -20
      vertex 12.9021 12.5513 -20
    endloop
  endfacet
  facet normal -0 0 -1
    outer loop
      vertex 13.2193 15.6685 -20
      vertex 11.443 13.8945 -20
      vertex 11.6453 16.8712 -20
    endloop
  endfacet
  facet normal 0 0 -1
    outer loop
      vertex 9.84507 15.069 -20
      vertex 11.6453 16.8712 -20
      vertex 11.443 13.8945 -20
    endloop
  endfacet
  facet normal -0 0 -1
    outer loop
      vertex 11.6453 16.8712 -20
      vertex 9.84507 15.069 -20
      vertex 9.96266 17.9163 -20
    endloop
  endfacet
  facet normal 0 0 -1
    outer loop
      vertex 8.1276 16.0606 -20
      vertex 9.96266 17.9163 -20
      vertex 9.84507 15.069 -20
    endloop
  endfacet
  facet normal -0 0 -1
    outer loop
      vertex 9.96266 17.9163 -20
      vertex 8.1276 16.0606 -20
      vertex 8.18697 18.7942 -20
    endloop
  endfacet
  facet normal 0 0 -1
    outer loop
      vertex 6.31148 16.8572 -20
      vertex 8.18697 18.7942 -20
      vertex 8.1276 16.0606 -20
    endloop
  endfacet
  facet normal -0 0 -1
    outer loop
      vertex 8.18697 18.7942 -20
      vertex 6.31148 16.8572 -20
      vertex 6.33485 19.4967 -20
    endloop
  endfacet
  facet normal 0 0 -1
    outer loop
      vertex 4.41874 17.4492 -20
      vertex 6.33485 19.4967 -20
      vertex 6.31148 16.8572 -20
    endloop
  endfacet
  facet normal -0 0 -1
    outer loop
      vertex 6.33485 19.4967 -20
      vertex 4.41874 17.4492 -20
      vertex 4.42358 20.017 -20
    endloop
  endfacet
  facet normal 0 0 -1
    outer loop
      vertex 2.47236 17.8294 -20
      vertex 4.42358 20.017 -20
      vertex 4.41874 17.4492 -20
    endloop
  endfacet
  facet normal 0 0 -1
    outer loop
      vertex 2.47236 17.8294 -20
      vertex 2.471 20.3505 -20
      vertex 4.42358 20.017 -20
    endloop
  endfacet
  facet normal 0 0 -1
    outer loop
      vertex 0.495977 17.9932 -20
      vertex 2.471 20.3505 -20
      vertex 2.47236 17.8294 -20
    endloop
  endfacet
  facet normal 0 0 -1
    outer loop
      vertex 0.495977 17.9932 -20
      vertex 0.495357 20.494 -20
      vertex 2.471 20.3505 -20
    endloop
  endfacet
  facet normal 0 0 -1
    outer loop
      vertex 0.495977 17.9932 -20
      vertex -1.48491 20.4461 -20
      vertex 0.495357 20.494 -20
    endloop
  endfacet
  facet normal 0 0 -1
    outer loop
      vertex -1.48643 17.9385 -20
      vertex -1.48491 20.4461 -20
      vertex 0.495977 17.9932 -20
    endloop
  endfacet
  facet normal 0 0 -1
    outer loop
      vertex -3.45132 20.2074 -20
      vertex -1.48643 17.9385 -20
      vertex -3.45079 17.6661 -20
    endloop
  endfacet
  facet normal 0 0 -1
    outer loop
      vertex -1.48643 17.9385 -20
      vertex -3.45132 20.2074 -20
      vertex -1.48491 20.4461 -20
    endloop
  endfacet
  facet normal 0 0 -1
    outer loop
      vertex -5.3855 19.7799 -20
      vertex -3.45079 17.6661 -20
      vertex -5.37327 17.1793 -20
    endloop
  endfacet
  facet normal 0 0 -1
    outer loop
      vertex -3.45079 17.6661 -20
      vertex -5.3855 19.7799 -20
      vertex -3.45132 20.2074 -20
    endloop
  endfacet
  facet normal 0 0 -1
    outer loop
      vertex -7.2694 19.1678 -20
      vertex -5.37327 17.1793 -20
      vertex -7.23052 16.4839 -20
    endloop
  endfacet
  facet normal 0 0 -1
    outer loop
      vertex -5.37327 17.1793 -20
      vertex -7.2694 19.1678 -20
      vertex -5.3855 19.7799 -20
    endloop
  endfacet
  facet normal 0 0 -1
    outer loop
      vertex -9.08543 18.3768 -20
      vertex -7.23052 16.4839 -20
      vertex -9 15.5885 -20
    endloop
  endfacet
  facet normal 0 0 -1
    outer loop
      vertex -7.23052 16.4839 -20
      vertex -9.08543 18.3768 -20
      vertex -7.2694 19.1678 -20
    endloop
  endfacet
  facet normal 0 0 -1
    outer loop
      vertex -10.8166 17.4141 -20
      vertex -9 15.5885 -20
      vertex -10.6602 14.5038 -20
    endloop
  endfacet
  facet normal 0 0 -1
    outer loop
      vertex -9 15.5885 -20
      vertex -10.8166 17.4141 -20
      vertex -9.08543 18.3768 -20
    endloop
  endfacet
  facet normal 0 0 -1
    outer loop
      vertex -12.4468 16.2888 -20
      vertex -10.6602 14.5038 -20
      vertex -12.1911 13.243 -20
    endloop
  endfacet
  facet normal 0 0 -1
    outer loop
      vertex -10.6602 14.5038 -20
      vertex -12.4468 16.2888 -20
      vertex -10.8166 17.4141 -20
    endloop
  endfacet
  facet normal 0 0 -1
    outer loop
      vertex -15.3445 13.594 -20
      vertex -12.1911 13.243 -20
      vertex -13.5739 11.8215 -20
    endloop
  endfacet
  facet normal 0 0 -1
    outer loop
      vertex -12.1911 13.243 -20
      vertex -13.9608 15.0115 -20
      vertex -12.4468 16.2888 -20
    endloop
  endfacet
  facet normal 0 0 -1
    outer loop
      vertex -16.5848 12.0496 -20
      vertex -13.5739 11.8215 -20
      vertex -14.792 10.2565 -20
    endloop
  endfacet
  facet normal 0 0 -1
    outer loop
      vertex -12.1911 13.243 -20
      vertex -15.3445 13.594 -20
      vertex -13.9608 15.0115 -20
    endloop
  endfacet
  facet normal 0 0 -1
    outer loop
      vertex -17.6704 10.3927 -20
      vertex -14.792 10.2565 -20
      vertex -15.8305 8.56705 -20
    endloop
  endfacet
  facet normal 0 0 -1
    outer loop
      vertex -13.5739 11.8215 -20
      vertex -16.5848 12.0496 -20
      vertex -15.3445 13.594 -20
    endloop
  endfacet
  facet normal 0 0 -1
    outer loop
      vertex -18.5909 8.63872 -20
      vertex -15.8305 8.56705 -20
      vertex -16.6769 6.77357 -20
    endloop
  endfacet
  facet normal 0 0 -1
    outer loop
      vertex -18.5909 8.63872 -20
      vertex -16.6769 6.77357 -20
      vertex -17.3208 4.89786 -20
    endloop
  endfacet
  facet normal 0 0 -1
    outer loop
      vertex -14.792 10.2565 -20
      vertex -17.6704 10.3927 -20
      vertex -16.5848 12.0496 -20
    endloop
  endfacet
  facet normal 0 0 -1
    outer loop
      vertex -18.5909 8.63872 -20
      vertex -17.3208 4.89786 -20
      vertex -17.7545 2.9627 -20
    endloop
  endfacet
  facet normal 0 0 -1
    outer loop
      vertex -18.5909 8.63872 -20
      vertex -17.7545 2.9627 -20
      vertex -17.9727 0.991579 -20
    endloop
  endfacet
  facet normal 0 0 -1
    outer loop
      vertex -15.8305 8.56705 -20
      vertex -18.5909 8.63872 -20
      vertex -17.6704 10.3927 -20
    endloop
  endfacet
  facet normal -0.555574 0.831467 0
    outer loop
      vertex -1.91342 4.6194 40
      vertex -3.53553 3.53553 57
      vertex -1.91342 4.6194 57
    endloop
  endfacet
  facet normal -0.555574 0.831467 0
    outer loop
      vertex -3.53553 3.53553 57
      vertex -1.91342 4.6194 40
      vertex -3.53553 3.53553 40
    endloop
  endfacet
  facet normal 0.831467 0.555574 0
    outer loop
      vertex 4.6194 1.91342 57
      vertex 3.53553 3.53553 40
      vertex 3.53553 3.53553 57
    endloop
  endfacet
  facet normal 0.831467 0.555574 0
    outer loop
      vertex 3.53553 3.53553 40
      vertex 4.6194 1.91342 57
      vertex 4.6194 1.91342 40
    endloop
  endfacet
  facet normal 0.980785 0.195089 0
    outer loop
      vertex 4.98011 0.0999994 57
      vertex 4.6194 1.91342 40
      vertex 4.6194 1.91342 57
    endloop
  endfacet
  facet normal 0.980785 0.195089 0
    outer loop
      vertex 4.6194 1.91342 40
      vertex 4.98011 0.0999994 57
      vertex 4.98011 0.0999994 40
    endloop
  endfacet
  facet normal -0.831467 0.555574 0
    outer loop
      vertex -4.6194 1.91342 40
      vertex -3.53553 3.53553 57
      vertex -3.53553 3.53553 40
    endloop
  endfacet
  facet normal -0.831467 0.555574 0
    outer loop
      vertex -3.53553 3.53553 57
      vertex -4.6194 1.91342 40
      vertex -4.6194 1.91342 57
    endloop
  endfacet
  facet normal -0.980785 0.195089 0
    outer loop
      vertex -4.98011 0.0999994 40
      vertex -4.6194 1.91342 57
      vertex -4.6194 1.91342 40
    endloop
  endfacet
  facet normal -0.980785 0.195089 0
    outer loop
      vertex -4.6194 1.91342 57
      vertex -4.98011 0.0999994 40
      vertex -4.98011 0.0999994 57
    endloop
  endfacet
  facet normal -0.195089 0.980786 0
    outer loop
      vertex 0 5 40
      vertex -1.91342 4.6194 57
      vertex 0 5 57
    endloop
  endfacet
  facet normal -0.195089 0.980786 0
    outer loop
      vertex -1.91342 4.6194 57
      vertex 0 5 40
      vertex -1.91342 4.6194 40
    endloop
  endfacet
  facet normal 0.195089 0.980786 -0
    outer loop
      vertex 1.91342 4.6194 40
      vertex 0 5 57
      vertex 1.91342 4.6194 57
    endloop
  endfacet
  facet normal 0.195089 0.980786 0
    outer loop
      vertex 0 5 57
      vertex 1.91342 4.6194 40
      vertex 0 5 40
    endloop
  endfacet
  facet normal 0.555574 0.831467 -0
    outer loop
      vertex 3.53553 3.53553 40
      vertex 1.91342 4.6194 57
      vertex 3.53553 3.53553 57
    endloop
  endfacet
  facet normal 0.555574 0.831467 0
    outer loop
      vertex 1.91342 4.6194 57
      vertex 3.53553 3.53553 40
      vertex 1.91342 4.6194 40
    endloop
  endfacet
  facet normal 0 0 1
    outer loop
      vertex 3.53553 3.53553 57
      vertex 4.98011 0.0999994 57
      vertex 4.6194 1.91342 57
    endloop
  endfacet
  facet normal 0 0 1
    outer loop
      vertex 1.91342 4.6194 57
      vertex 4.98011 0.0999994 57
      vertex 3.53553 3.53553 57
    endloop
  endfacet
  facet normal 0 0 1
    outer loop
      vertex 0 5 57
      vertex 4.98011 0.0999994 57
      vertex 1.91342 4.6194 57
    endloop
  endfacet
  facet normal -0 0 1
    outer loop
      vertex -1.91342 4.6194 57
      vertex 4.98011 0.0999994 57
      vertex 0 5 57
    endloop
  endfacet
  facet normal -0 0 1
    outer loop
      vertex -3.53553 3.53553 57
      vertex 4.98011 0.0999994 57
      vertex -1.91342 4.6194 57
    endloop
  endfacet
  facet normal -0 0 1
    outer loop
      vertex -4.6194 1.91342 57
      vertex 4.98011 0.0999994 57
      vertex -3.53553 3.53553 57
    endloop
  endfacet
  facet normal 0 0 1
    outer loop
      vertex 4.98011 0.0999994 57
      vertex -4.6194 1.91342 57
      vertex -4.98011 0.0999994 57
    endloop
  endfacet
  facet normal 0 -1 0
    outer loop
      vertex -17.9727 0.0999994 -40
      vertex 17.9945 0.0999994 -20
      vertex -17.9727 0.0999994 -20
    endloop
  endfacet
  facet normal 0 -1 -0
    outer loop
      vertex 17.9945 0.0999994 -20
      vertex -17.9727 0.0999994 -40
      vertex 17.9945 0.0999994 -40
    endloop
  endfacet
  facet normal 0 -1 0
    outer loop
      vertex -17.9727 0.0999994 -20
      vertex -17.9727 0.0999994 20
      vertex -20.4761 0.0999994 20
    endloop
  endfacet
  facet normal 0 -1 0
    outer loop
      vertex -17.9727 0.0999994 20
      vertex -17.9727 0.0999994 -20
      vertex 17.9945 0.0999994 20
    endloop
  endfacet
  facet normal 0 -1 0
    outer loop
      vertex -17.9727 0.0999994 -20
      vertex -20.4761 0.0999994 20
      vertex -20.4761 0.0999994 -20
    endloop
  endfacet
  facet normal 0 -1 0
    outer loop
      vertex 17.9945 0.0999994 -20
      vertex 17.9945 0.0999994 20
      vertex -17.9727 0.0999994 -20
    endloop
  endfacet
  facet normal 0 -1 0
    outer loop
      vertex 17.9945 0.0999994 20
      vertex 17.9945 0.0999994 -20
      vertex 20.4952 0.0999994 20
    endloop
  endfacet
  facet normal 0 -1 -0
    outer loop
      vertex 20.4952 0.0999994 20
      vertex 17.9945 0.0999994 -20
      vertex 20.4952 0.0999994 -20
    endloop
  endfacet
  facet normal 0 -1 0
    outer loop
      vertex -17.9727 0.0999994 20
      vertex -4.98011 0.0999994 40
      vertex -17.9727 0.0999994 40
    endloop
  endfacet
  facet normal 0 -1 -0
    outer loop
      vertex -4.98011 0.0999994 40
      vertex -17.9727 0.0999994 20
      vertex 4.98011 0.0999994 40
    endloop
  endfacet
  facet normal 0 -1 0
    outer loop
      vertex 17.9945 0.0999994 20
      vertex 4.98011 0.0999994 40
      vertex -17.9727 0.0999994 20
    endloop
  endfacet
  facet normal 0 -1 0
    outer loop
      vertex 4.98011 0.0999994 40
      vertex 17.9945 0.0999994 20
      vertex 17.9945 0.0999994 40
    endloop
  endfacet
  facet normal 0 -1 0
    outer loop
      vertex -4.98011 0.0999994 40
      vertex 4.98011 0.0999994 57
      vertex -4.98011 0.0999994 57
    endloop
  endfacet
  facet normal 0 -1 -0
    outer loop
      vertex 4.98011 0.0999994 57
      vertex -4.98011 0.0999994 40
      vertex 4.98011 0.0999994 40
    endloop
  endfacet
endsolid OpenSCAD_Model
