solid OpenSCAD_Model
  facet normal 0.976987 0.195413 -0.0855031
    outer loop
      vertex 146.013 0.0999994 464.788
      vertex 145.972 1.91342 468.464
      vertex 146.332 0.0999994 468.433
    endloop
  endfacet
  facet normal 0.976999 0.195363 -0.0854785
    outer loop
      vertex 145.972 1.91342 468.464
      vertex 146.013 0.0999994 464.788
      vertex 139.871 1.91342 398.731
    endloop
  endfacet
  facet normal -0.0885692 0.000579222 -0.99607
    outer loop
      vertex 130.33 0.0999994 399.565
      vertex 130.668 1.91342 399.536
      vertex 131.747 3.53553 399.441
    endloop
  endfacet
  facet normal -0.0905357 0.000948582 -0.995893
    outer loop
      vertex 130.668 1.91342 399.536
      vertex 130.33 0.0999994 399.565
      vertex 130.308 0.0999994 399.567
    endloop
  endfacet
  facet normal -0.0874368 -0.000773147 -0.99617
    outer loop
      vertex 138.792 3.53553 398.825
      vertex 135.27 5 399.133
      vertex 137.176 4.6194 398.966
    endloop
  endfacet
  facet normal 0.97698 0.195458 -0.0854741
    outer loop
      vertex 140.231 0.0999994 398.699
      vertex 139.871 1.91342 398.731
      vertex 146.013 0.0999994 464.788
    endloop
  endfacet
  facet normal -0.828488 0.555296 0.0724841
    outer loop
      vertex 137.848 3.53553 469.175
      vertex 131.747 3.53553 399.441
      vertex 136.769 1.91342 469.269
    endloop
  endfacet
  facet normal 0.194358 0.980783 -0.0170015
    outer loop
      vertex 137.176 4.6194 398.966
      vertex 135.27 5 399.133
      vertex 141.37 5 468.867
    endloop
  endfacet
  facet normal 0.0861578 0.000423014 0.996281
    outer loop
      vertex 136.769 1.91342 469.269
      vertex 136.431 0.0999994 469.299
      vertex 137.848 3.53553 469.175
    endloop
  endfacet
  facet normal 0.0905357 -0.000399403 0.995893
    outer loop
      vertex 136.431 0.0999994 469.299
      vertex 136.769 1.91342 469.269
      vertex 136.409 0.0999994 469.301
    endloop
  endfacet
  facet normal -0.0905357 -0.000399403 -0.995893
    outer loop
      vertex 140.209 0.0999994 398.701
      vertex 139.871 1.91342 398.731
      vertex 140.231 0.0999994 398.699
    endloop
  endfacet
  facet normal -0.0861578 0.000423014 -0.996281
    outer loop
      vertex 139.871 1.91342 398.731
      vertex 140.209 0.0999994 398.701
      vertex 138.792 3.53553 398.825
    endloop
  endfacet
  facet normal -0.553453 0.831472 0.0484214
    outer loop
      vertex 139.464 4.6194 469.034
      vertex 131.747 3.53553 399.441
      vertex 137.848 3.53553 469.175
    endloop
  endfacet
  facet normal 0.194261 0.980803 -0.0169958
    outer loop
      vertex 143.277 4.6194 468.7
      vertex 137.176 4.6194 398.966
      vertex 141.37 5 468.867
    endloop
  endfacet
  facet normal -0.976989 0.195413 0.0854776
    outer loop
      vertex 130.308 0.0999994 399.567
      vertex 136.769 1.91342 469.269
      vertex 130.668 1.91342 399.536
    endloop
  endfacet
  facet normal -0.97698 0.195458 0.0854756
    outer loop
      vertex 136.769 1.91342 469.269
      vertex 130.308 0.0999994 399.567
      vertex 136.409 0.0999994 469.301
    endloop
  endfacet
  facet normal -0.0871056 0 -0.996199
    outer loop
      vertex 131.747 0.0999994 399.441
      vertex 138.792 3.53553 398.825
      vertex 138.792 0.0999994 398.825
    endloop
  endfacet
  facet normal -0.0871056 0 -0.996199
    outer loop
      vertex 138.792 3.53553 398.825
      vertex 131.747 0.0999994 399.441
      vertex 131.747 3.53553 399.441
    endloop
  endfacet
  facet normal 0.0871757 0 0.996193
    outer loop
      vertex 144.893 3.53553 468.559
      vertex 144.893 0.0999994 468.559
      vertex 146.31 0.0999994 468.435
    endloop
  endfacet
  facet normal 0.0905357 0.000948582 0.995893
    outer loop
      vertex 145.972 1.91342 468.464
      vertex 146.31 0.0999994 468.435
      vertex 146.332 0.0999994 468.433
    endloop
  endfacet
  facet normal 0.0885692 0.000579222 0.99607
    outer loop
      vertex 146.31 0.0999994 468.435
      vertex 145.972 1.91342 468.464
      vertex 144.893 3.53553 468.559
    endloop
  endfacet
  facet normal 0.553453 0.831472 -0.0484214
    outer loop
      vertex 144.893 3.53553 468.559
      vertex 138.792 3.53553 398.825
      vertex 143.277 4.6194 468.7
    endloop
  endfacet
  facet normal 0.0871056 2.97396e-05 0.996199
    outer loop
      vertex 141.37 5 468.867
      vertex 137.848 3.53553 469.175
      vertex 144.893 3.53553 468.559
    endloop
  endfacet
  facet normal -0.0873721 0.000675831 -0.996176
    outer loop
      vertex 135.27 5 399.133
      vertex 131.747 3.53553 399.441
      vertex 133.363 4.6194 399.3
    endloop
  endfacet
  facet normal -0.0871757 0 -0.996193
    outer loop
      vertex 140.209 0.0999994 398.701
      vertex 138.792 0.0999994 398.825
      vertex 138.792 3.53553 398.825
    endloop
  endfacet
  facet normal -0.0871757 0 -0.996193
    outer loop
      vertex 131.747 0.0999994 399.441
      vertex 130.33 0.0999994 399.565
      vertex 131.747 3.53553 399.441
    endloop
  endfacet
  facet normal 0.0873721 0.000675831 0.996176
    outer loop
      vertex 143.277 4.6194 468.7
      vertex 141.37 5 468.867
      vertex 144.893 3.53553 468.559
    endloop
  endfacet
  facet normal 0.553453 0.831472 -0.0484214
    outer loop
      vertex 138.792 3.53553 398.825
      vertex 137.176 4.6194 398.966
      vertex 143.277 4.6194 468.7
    endloop
  endfacet
  facet normal -0.828467 0.555327 0.0724833
    outer loop
      vertex 131.747 3.53553 399.441
      vertex 130.668 1.91342 399.536
      vertex 136.769 1.91342 469.269
    endloop
  endfacet
  facet normal 0.0874368 -0.000773147 0.99617
    outer loop
      vertex 139.464 4.6194 469.034
      vertex 137.848 3.53553 469.175
      vertex 141.37 5 468.867
    endloop
  endfacet
  facet normal -0.194358 0.980783 0.0170015
    outer loop
      vertex 141.37 5 468.867
      vertex 135.27 5 399.133
      vertex 139.464 4.6194 469.034
    endloop
  endfacet
  facet normal -0.0871056 2.97396e-05 -0.996199
    outer loop
      vertex 138.792 3.53553 398.825
      vertex 131.747 3.53553 399.441
      vertex 135.27 5 399.133
    endloop
  endfacet
  facet normal 0.828467 0.555327 -0.0724823
    outer loop
      vertex 145.972 1.91342 468.464
      vertex 138.792 3.53553 398.825
      vertex 144.893 3.53553 468.559
    endloop
  endfacet
  facet normal 0.828488 0.555296 -0.0724851
    outer loop
      vertex 139.871 1.91342 398.731
      vertex 138.792 3.53553 398.825
      vertex 145.972 1.91342 468.464
    endloop
  endfacet
  facet normal 0.0871056 0 0.996199
    outer loop
      vertex 137.848 3.53553 469.175
      vertex 144.893 0.0999994 468.559
      vertex 144.893 3.53553 468.559
    endloop
  endfacet
  facet normal 0.0871056 0 0.996199
    outer loop
      vertex 144.893 0.0999994 468.559
      vertex 137.848 3.53553 469.175
      vertex 137.848 0.0999994 469.175
    endloop
  endfacet
  facet normal 0.0871757 0 0.996193
    outer loop
      vertex 137.848 3.53553 469.175
      vertex 136.431 0.0999994 469.299
      vertex 137.848 0.0999994 469.175
    endloop
  endfacet
  facet normal -0.553453 0.831472 0.0484214
    outer loop
      vertex 133.363 4.6194 399.3
      vertex 131.747 3.53553 399.441
      vertex 139.464 4.6194 469.034
    endloop
  endfacet
  facet normal -0.194261 0.980803 0.0169958
    outer loop
      vertex 135.27 5 399.133
      vertex 133.363 4.6194 399.3
      vertex 139.464 4.6194 469.034
    endloop
  endfacet
  facet normal 0 -1 0
    outer loop
      vertex 146.013 0.0999994 464.788
      vertex 137.848 0.0999994 469.175
      vertex 136.431 0.0999994 469.299
    endloop
  endfacet
  facet normal 0 -1 0
    outer loop
      vertex 137.848 0.0999994 469.175
      vertex 146.013 0.0999994 464.788
      vertex 144.893 0.0999994 468.559
    endloop
  endfacet
  facet normal 0 -1 -0
    outer loop
      vertex 146.31 0.0999994 468.435
      vertex 146.013 0.0999994 464.788
      vertex 146.332 0.0999994 468.433
    endloop
  endfacet
  facet normal 0 -1 0
    outer loop
      vertex 144.893 0.0999994 468.559
      vertex 146.013 0.0999994 464.788
      vertex 146.31 0.0999994 468.435
    endloop
  endfacet
  facet normal 0 -1 0
    outer loop
      vertex 136.409 0.0999994 469.301
      vertex 146.013 0.0999994 464.788
      vertex 136.431 0.0999994 469.299
    endloop
  endfacet
  facet normal 0 -1 0
    outer loop
      vertex 130.308 0.0999994 399.567
      vertex 146.013 0.0999994 464.788
      vertex 136.409 0.0999994 469.301
    endloop
  endfacet
  facet normal 0 -1 0
    outer loop
      vertex 130.33 0.0999994 399.565
      vertex 146.013 0.0999994 464.788
      vertex 130.308 0.0999994 399.567
    endloop
  endfacet
  facet normal 0 -1 0
    outer loop
      vertex 131.747 0.0999994 399.441
      vertex 146.013 0.0999994 464.788
      vertex 130.33 0.0999994 399.565
    endloop
  endfacet
  facet normal 0 -1 0
    outer loop
      vertex 138.792 0.0999994 398.825
      vertex 146.013 0.0999994 464.788
      vertex 131.747 0.0999994 399.441
    endloop
  endfacet
  facet normal 0 -1 0
    outer loop
      vertex 140.209 0.0999994 398.701
      vertex 146.013 0.0999994 464.788
      vertex 138.792 0.0999994 398.825
    endloop
  endfacet
  facet normal 0 -1 0
    outer loop
      vertex 146.013 0.0999994 464.788
      vertex 140.209 0.0999994 398.701
      vertex 140.231 0.0999994 398.699
    endloop
  endfacet
endsolid OpenSCAD_Model
