solid OpenSCAD_Model
  facet normal 0.947419 0.309032 -0.0830439
    outer loop
      vertex 146.111 0.0999994 466.061
      vertex 145.4 2.93893 468.514
      vertex 146.319 0.0999994 468.434
    endloop
  endfacet
  facet normal 0.94747 0.308916 -0.0828949
    outer loop
      vertex 145.4 2.93893 468.514
      vertex 146.111 0.0999994 466.061
      vertex 139.299 2.93893 398.781
    endloop
  endfacet
  facet normal 0.0872293 0 0.996188
    outer loop
      vertex 139.831 4.75528 469.001
      vertex 136.462 0.0999994 469.296
      vertex 139.831 0.0999994 469.001
    endloop
  endfacet
  facet normal 0.947424 0.309059 -0.0828843
    outer loop
      vertex 140.218 0.0999994 398.7
      vertex 139.299 2.93893 398.781
      vertex 146.111 0.0999994 466.061
    endloop
  endfacet
  facet normal -0.58562 0.808965 0.0512364
    outer loop
      vertex 139.831 4.75528 469.001
      vertex 133.73 4.75528 399.268
      vertex 137.341 2.93893 469.219
    endloop
  endfacet
  facet normal -0.0872293 0 -0.996188
    outer loop
      vertex 133.73 0.0999994 399.268
      vertex 130.361 0.0999994 399.563
      vertex 133.73 4.75528 399.268
    endloop
  endfacet
  facet normal 0.0870345 0 0.996205
    outer loop
      vertex 139.831 4.75528 469.001
      vertex 142.91 0.0999994 468.732
      vertex 142.91 4.75528 468.732
    endloop
  endfacet
  facet normal 0.0870345 0 0.996205
    outer loop
      vertex 142.91 0.0999994 468.732
      vertex 139.831 4.75528 469.001
      vertex 139.831 0.0999994 469.001
    endloop
  endfacet
  facet normal -0.947432 0.309032 0.0828917
    outer loop
      vertex 130.321 0.0999994 399.566
      vertex 137.341 2.93893 469.219
      vertex 131.24 2.93893 399.486
    endloop
  endfacet
  facet normal -0.947424 0.309059 0.0828897
    outer loop
      vertex 137.341 2.93893 469.219
      vertex 130.321 0.0999994 399.566
      vertex 136.422 0.0999994 469.3
    endloop
  endfacet
  facet normal 0 1 0
    outer loop
      vertex 142.91 4.75528 468.732
      vertex 133.73 4.75528 399.268
      vertex 139.831 4.75528 469.001
    endloop
  endfacet
  facet normal -0 1 0
    outer loop
      vertex 133.73 4.75528 399.268
      vertex 142.91 4.75528 468.732
      vertex 136.809 4.75528 398.999
    endloop
  endfacet
  facet normal 0.0872023 1.96603e-05 0.996191
    outer loop
      vertex 137.341 2.93893 469.219
      vertex 136.462 0.0999994 469.296
      vertex 139.831 4.75528 469.001
    endloop
  endfacet
  facet normal 0.099503 -0.00382039 0.99503
    outer loop
      vertex 136.462 0.0999994 469.296
      vertex 137.341 2.93893 469.219
      vertex 136.422 0.0999994 469.3
    endloop
  endfacet
  facet normal -0.0872023 -1.96603e-05 -0.996191
    outer loop
      vertex 130.361 0.0999994 399.563
      vertex 131.24 2.93893 399.486
      vertex 133.73 4.75528 399.268
    endloop
  endfacet
  facet normal -0.0747894 -0.00389016 -0.997192
    outer loop
      vertex 131.24 2.93893 399.486
      vertex 130.361 0.0999994 399.563
      vertex 130.321 0.0999994 399.566
    endloop
  endfacet
  facet normal -0.0870345 0 -0.996205
    outer loop
      vertex 133.73 0.0999994 399.268
      vertex 136.809 4.75528 398.999
      vertex 136.809 0.0999994 398.999
    endloop
  endfacet
  facet normal -0.0870345 0 -0.996205
    outer loop
      vertex 136.809 4.75528 398.999
      vertex 133.73 0.0999994 399.268
      vertex 133.73 4.75528 399.268
    endloop
  endfacet
  facet normal 0.58562 0.808965 -0.0512364
    outer loop
      vertex 145.4 2.93893 468.514
      vertex 136.809 4.75528 398.999
      vertex 142.91 4.75528 468.732
    endloop
  endfacet
  facet normal 0.58562 0.808965 -0.0512364
    outer loop
      vertex 139.299 2.93893 398.781
      vertex 136.809 4.75528 398.999
      vertex 145.4 2.93893 468.514
    endloop
  endfacet
  facet normal -0.58562 0.808965 0.0512364
    outer loop
      vertex 133.73 4.75528 399.268
      vertex 131.24 2.93893 399.486
      vertex 137.341 2.93893 469.219
    endloop
  endfacet
  facet normal -0.0872293 0 -0.996188
    outer loop
      vertex 140.178 0.0999994 398.704
      vertex 136.809 0.0999994 398.999
      vertex 136.809 4.75528 398.999
    endloop
  endfacet
  facet normal -0.099503 -0.00382039 -0.99503
    outer loop
      vertex 140.178 0.0999994 398.704
      vertex 139.299 2.93893 398.781
      vertex 140.218 0.0999994 398.7
    endloop
  endfacet
  facet normal -0.0872023 1.96603e-05 -0.996191
    outer loop
      vertex 139.299 2.93893 398.781
      vertex 140.178 0.0999994 398.704
      vertex 136.809 4.75528 398.999
    endloop
  endfacet
  facet normal 0.0872293 0 0.996188
    outer loop
      vertex 142.91 4.75528 468.732
      vertex 142.91 0.0999994 468.732
      vertex 146.279 0.0999994 468.437
    endloop
  endfacet
  facet normal 0.0747894 -0.00389016 0.997192
    outer loop
      vertex 145.4 2.93893 468.514
      vertex 146.279 0.0999994 468.437
      vertex 146.319 0.0999994 468.434
    endloop
  endfacet
  facet normal 0.0872023 -1.96603e-05 0.996191
    outer loop
      vertex 146.279 0.0999994 468.437
      vertex 145.4 2.93893 468.514
      vertex 142.91 4.75528 468.732
    endloop
  endfacet
  facet normal 0 -1 0
    outer loop
      vertex 146.111 0.0999994 466.061
      vertex 146.279 0.0999994 468.437
      vertex 142.91 0.0999994 468.732
    endloop
  endfacet
  facet normal 0 -1 0
    outer loop
      vertex 146.111 0.0999994 466.061
      vertex 142.91 0.0999994 468.732
      vertex 139.831 0.0999994 469.001
    endloop
  endfacet
  facet normal 0 -1 -0
    outer loop
      vertex 146.279 0.0999994 468.437
      vertex 146.111 0.0999994 466.061
      vertex 146.319 0.0999994 468.434
    endloop
  endfacet
  facet normal 0 -1 0
    outer loop
      vertex 136.462 0.0999994 469.296
      vertex 146.111 0.0999994 466.061
      vertex 139.831 0.0999994 469.001
    endloop
  endfacet
  facet normal 0 -1 0
    outer loop
      vertex 136.422 0.0999994 469.3
      vertex 146.111 0.0999994 466.061
      vertex 136.462 0.0999994 469.296
    endloop
  endfacet
  facet normal 0 -1 0
    outer loop
      vertex 130.321 0.0999994 399.566
      vertex 146.111 0.0999994 466.061
      vertex 136.422 0.0999994 469.3
    endloop
  endfacet
  facet normal 0 -1 0
    outer loop
      vertex 130.361 0.0999994 399.563
      vertex 146.111 0.0999994 466.061
      vertex 130.321 0.0999994 399.566
    endloop
  endfacet
  facet normal 0 -1 0
    outer loop
      vertex 133.73 0.0999994 399.268
      vertex 146.111 0.0999994 466.061
      vertex 130.361 0.0999994 399.563
    endloop
  endfacet
  facet normal 0 -1 0
    outer loop
      vertex 136.809 0.0999994 398.999
      vertex 146.111 0.0999994 466.061
      vertex 133.73 0.0999994 399.268
    endloop
  endfacet
  facet normal 0 -1 0
    outer loop
      vertex 140.178 0.0999994 398.704
      vertex 146.111 0.0999994 466.061
      vertex 136.809 0.0999994 398.999
    endloop
  endfacet
  facet normal 0 -1 0
    outer loop
      vertex 146.111 0.0999994 466.061
      vertex 140.178 0.0999994 398.704
      vertex 140.218 0.0999994 398.7
    endloop
  endfacet
endsolid OpenSCAD_Model
