solid OpenSCAD_Model
  facet normal 0 1 -0
    outer loop
      vertex 10.975 -2.55477 -0.0499992
      vertex 8.025 -2.55477 2.5
      vertex 10.975 -2.55477 2.5
    endloop
  endfacet
  facet normal 0 1 0
    outer loop
      vertex 8.025 -2.55477 2.5
      vertex 10.975 -2.55477 -0.0499992
      vertex 8.025 -2.55477 -0.0499992
    endloop
  endfacet
  facet normal -0.866025 0.500001 0
    outer loop
      vertex 10.975 -2.55477 -0.0499992
      vertex 12.45 0 2.5
      vertex 12.45 0 -0.0499992
    endloop
  endfacet
  facet normal -0.866025 0.500001 0
    outer loop
      vertex 12.45 0 2.5
      vertex 10.975 -2.55477 -0.0499992
      vertex 10.975 -2.55477 2.5
    endloop
  endfacet
  facet normal 0 -1 0
    outer loop
      vertex 8.025 2.55477 -0.0499992
      vertex 10.975 2.55477 2.5
      vertex 8.025 2.55477 2.5
    endloop
  endfacet
  facet normal 0 -1 -0
    outer loop
      vertex 10.975 2.55477 2.5
      vertex 8.025 2.55477 -0.0499992
      vertex 10.975 2.55477 -0.0499992
    endloop
  endfacet
  facet normal -0.866025 -0.500001 0
    outer loop
      vertex 12.45 0 -0.0499992
      vertex 10.975 2.55477 2.5
      vertex 10.975 2.55477 -0.0499992
    endloop
  endfacet
  facet normal -0.866025 -0.500001 0
    outer loop
      vertex 10.975 2.55477 2.5
      vertex 12.45 0 -0.0499992
      vertex 12.45 0 2.5
    endloop
  endfacet
  facet normal 0.866025 -0.500001 0
    outer loop
      vertex 6.55 0 2.5
      vertex 8.025 2.55477 -0.0499992
      vertex 8.025 2.55477 2.5
    endloop
  endfacet
  facet normal 0.866025 -0.500001 0
    outer loop
      vertex 8.025 2.55477 -0.0499992
      vertex 6.55 0 2.5
      vertex 6.55 0 -0.0499992
    endloop
  endfacet
  facet normal 0.866025 0.500001 0
    outer loop
      vertex 8.025 -2.55477 2.5
      vertex 6.55 0 -0.0499992
      vertex 6.55 0 2.5
    endloop
  endfacet
  facet normal 0.866025 0.500001 0
    outer loop
      vertex 6.55 0 -0.0499992
      vertex 8.025 -2.55477 2.5
      vertex 8.025 -2.55477 -0.0499992
    endloop
  endfacet
  facet normal 0 0 1
    outer loop
      vertex 12.45 0 -0.0499992
      vertex 11.0757 0.277837 -0.0499992
      vertex 11.1 0 -0.0499992
    endloop
  endfacet
  facet normal 0 0 1
    outer loop
      vertex 12.45 0 -0.0499992
      vertex 11.0035 0.547232 -0.0499992
      vertex 11.0757 0.277837 -0.0499992
    endloop
  endfacet
  facet normal -0 0 1
    outer loop
      vertex 10.8856 0.799999 -0.0499992
      vertex 12.45 0 -0.0499992
      vertex 10.975 2.55477 -0.0499992
    endloop
  endfacet
  facet normal 0 0 1
    outer loop
      vertex 12.45 0 -0.0499992
      vertex 10.8856 0.799999 -0.0499992
      vertex 11.0035 0.547232 -0.0499992
    endloop
  endfacet
  facet normal 0 0 1
    outer loop
      vertex 10.975 2.55477 -0.0499992
      vertex 10.7257 1.02846 -0.0499992
      vertex 10.8856 0.799999 -0.0499992
    endloop
  endfacet
  facet normal 0 0 1
    outer loop
      vertex 10.975 2.55477 -0.0499992
      vertex 10.5285 1.22567 -0.0499992
      vertex 10.7257 1.02846 -0.0499992
    endloop
  endfacet
  facet normal 0 0 1
    outer loop
      vertex 10.975 2.55477 -0.0499992
      vertex 10.3 1.38564 -0.0499992
      vertex 10.5285 1.22567 -0.0499992
    endloop
  endfacet
  facet normal 0 0 1
    outer loop
      vertex 10.975 2.55477 -0.0499992
      vertex 10.0472 1.50351 -0.0499992
      vertex 10.3 1.38564 -0.0499992
    endloop
  endfacet
  facet normal 0 0 1
    outer loop
      vertex 10.975 2.55477 -0.0499992
      vertex 9.77784 1.57569 -0.0499992
      vertex 10.0472 1.50351 -0.0499992
    endloop
  endfacet
  facet normal 0 0 1
    outer loop
      vertex 10.975 2.55477 -0.0499992
      vertex 9.5 1.6 -0.0499992
      vertex 9.77784 1.57569 -0.0499992
    endloop
  endfacet
  facet normal -0 0 1
    outer loop
      vertex 8.025 2.55477 -0.0499992
      vertex 9.5 1.6 -0.0499992
      vertex 10.975 2.55477 -0.0499992
    endloop
  endfacet
  facet normal 0 0 1
    outer loop
      vertex 9.5 1.6 -0.0499992
      vertex 8.025 2.55477 -0.0499992
      vertex 9.22216 1.57569 -0.0499992
    endloop
  endfacet
  facet normal 0 0 1
    outer loop
      vertex 9.22216 1.57569 -0.0499992
      vertex 8.025 2.55477 -0.0499992
      vertex 8.95277 1.50351 -0.0499992
    endloop
  endfacet
  facet normal 0 0 1
    outer loop
      vertex 8.95277 1.50351 -0.0499992
      vertex 8.025 2.55477 -0.0499992
      vertex 8.7 1.38564 -0.0499992
    endloop
  endfacet
  facet normal 0 0 1
    outer loop
      vertex 8.025 2.55477 -0.0499992
      vertex 8.47154 1.22567 -0.0499992
      vertex 8.7 1.38564 -0.0499992
    endloop
  endfacet
  facet normal 0 0 1
    outer loop
      vertex 8.025 2.55477 -0.0499992
      vertex 8.27433 1.02846 -0.0499992
      vertex 8.47154 1.22567 -0.0499992
    endloop
  endfacet
  facet normal 0 0 1
    outer loop
      vertex 8.025 2.55477 -0.0499992
      vertex 8.11436 0.799999 -0.0499992
      vertex 8.27433 1.02846 -0.0499992
    endloop
  endfacet
  facet normal 0 0 1
    outer loop
      vertex 6.55 0 -0.0499992
      vertex 8.11436 0.799999 -0.0499992
      vertex 8.025 2.55477 -0.0499992
    endloop
  endfacet
  facet normal 0 0 1
    outer loop
      vertex 8.11436 0.799999 -0.0499992
      vertex 6.55 0 -0.0499992
      vertex 7.99649 0.547232 -0.0499992
    endloop
  endfacet
  facet normal 0 0 1
    outer loop
      vertex 7.99649 0.547232 -0.0499992
      vertex 6.55 0 -0.0499992
      vertex 7.92431 0.277837 -0.0499992
    endloop
  endfacet
  facet normal 0 0 1
    outer loop
      vertex 7.92431 0.277837 -0.0499992
      vertex 6.55 0 -0.0499992
      vertex 7.9 0 -0.0499992
    endloop
  endfacet
  facet normal 0 0 1
    outer loop
      vertex 11.0757 -0.277837 -0.0499992
      vertex 12.45 0 -0.0499992
      vertex 11.1 0 -0.0499992
    endloop
  endfacet
  facet normal 0 0 1
    outer loop
      vertex 11.0035 -0.547232 -0.0499992
      vertex 12.45 0 -0.0499992
      vertex 11.0757 -0.277837 -0.0499992
    endloop
  endfacet
  facet normal 0 0 1
    outer loop
      vertex 10.8856 -0.799999 -0.0499992
      vertex 12.45 0 -0.0499992
      vertex 11.0035 -0.547232 -0.0499992
    endloop
  endfacet
  facet normal 0 0 1
    outer loop
      vertex 12.45 0 -0.0499992
      vertex 10.8856 -0.799999 -0.0499992
      vertex 10.975 -2.55477 -0.0499992
    endloop
  endfacet
  facet normal -0 0 1
    outer loop
      vertex 10.7257 -1.02846 -0.0499992
      vertex 10.975 -2.55477 -0.0499992
      vertex 10.8856 -0.799999 -0.0499992
    endloop
  endfacet
  facet normal -0 0 1
    outer loop
      vertex 10.5285 -1.22567 -0.0499992
      vertex 10.975 -2.55477 -0.0499992
      vertex 10.7257 -1.02846 -0.0499992
    endloop
  endfacet
  facet normal -0 0 1
    outer loop
      vertex 10.3 -1.38564 -0.0499992
      vertex 10.975 -2.55477 -0.0499992
      vertex 10.5285 -1.22567 -0.0499992
    endloop
  endfacet
  facet normal -0 0 1
    outer loop
      vertex 10.0472 -1.50351 -0.0499992
      vertex 10.975 -2.55477 -0.0499992
      vertex 10.3 -1.38564 -0.0499992
    endloop
  endfacet
  facet normal -0 0 1
    outer loop
      vertex 9.77784 -1.57569 -0.0499992
      vertex 10.975 -2.55477 -0.0499992
      vertex 10.0472 -1.50351 -0.0499992
    endloop
  endfacet
  facet normal -0 0 1
    outer loop
      vertex 9.5 -1.6 -0.0499992
      vertex 10.975 -2.55477 -0.0499992
      vertex 9.77784 -1.57569 -0.0499992
    endloop
  endfacet
  facet normal 0 0 1
    outer loop
      vertex 8.025 -2.55477 -0.0499992
      vertex 9.5 -1.6 -0.0499992
      vertex 9.22216 -1.57569 -0.0499992
    endloop
  endfacet
  facet normal 0 0 1
    outer loop
      vertex 8.025 -2.55477 -0.0499992
      vertex 9.22216 -1.57569 -0.0499992
      vertex 8.95277 -1.50351 -0.0499992
    endloop
  endfacet
  facet normal 0 0 1
    outer loop
      vertex 8.025 -2.55477 -0.0499992
      vertex 8.95277 -1.50351 -0.0499992
      vertex 8.7 -1.38564 -0.0499992
    endloop
  endfacet
  facet normal 0 0 1
    outer loop
      vertex 9.5 -1.6 -0.0499992
      vertex 8.025 -2.55477 -0.0499992
      vertex 10.975 -2.55477 -0.0499992
    endloop
  endfacet
  facet normal 0 0 1
    outer loop
      vertex 8.47154 -1.22567 -0.0499992
      vertex 8.025 -2.55477 -0.0499992
      vertex 8.7 -1.38564 -0.0499992
    endloop
  endfacet
  facet normal 0 0 1
    outer loop
      vertex 8.27433 -1.02846 -0.0499992
      vertex 8.025 -2.55477 -0.0499992
      vertex 8.47154 -1.22567 -0.0499992
    endloop
  endfacet
  facet normal 0 0 1
    outer loop
      vertex 8.11436 -0.799999 -0.0499992
      vertex 8.025 -2.55477 -0.0499992
      vertex 8.27433 -1.02846 -0.0499992
    endloop
  endfacet
  facet normal 0 0 1
    outer loop
      vertex 6.55 0 -0.0499992
      vertex 8.11436 -0.799999 -0.0499992
      vertex 7.99649 -0.547232 -0.0499992
    endloop
  endfacet
  facet normal 0 0 1
    outer loop
      vertex 6.55 0 -0.0499992
      vertex 7.99649 -0.547232 -0.0499992
      vertex 7.92431 -0.277837 -0.0499992
    endloop
  endfacet
  facet normal -0 0 1
    outer loop
      vertex 6.55 0 -0.0499992
      vertex 7.92431 -0.277837 -0.0499992
      vertex 7.9 0 -0.0499992
    endloop
  endfacet
  facet normal 0 0 1
    outer loop
      vertex 8.11436 -0.799999 -0.0499992
      vertex 6.55 0 -0.0499992
      vertex 8.025 -2.55477 -0.0499992
    endloop
  endfacet
  facet normal 0.25881 -0.965928 0
    outer loop
      vertex 8.95277 1.50351 -2.5
      vertex 9.22216 1.57569 -0.0499992
      vertex 8.95277 1.50351 -0.0499992
    endloop
  endfacet
  facet normal 0.25881 -0.965928 0
    outer loop
      vertex 9.22216 1.57569 -0.0499992
      vertex 8.95277 1.50351 -2.5
      vertex 9.22216 1.57569 -2.5
    endloop
  endfacet
  facet normal -0.965912 -0.258872 0
    outer loop
      vertex 11.0757 0.277837 -2.5
      vertex 11.0035 0.547232 -0.0499992
      vertex 11.0035 0.547232 -2.5
    endloop
  endfacet
  facet normal -0.965912 -0.258872 0
    outer loop
      vertex 11.0035 0.547232 -0.0499992
      vertex 11.0757 0.277837 -2.5
      vertex 11.0757 0.277837 -0.0499992
    endloop
  endfacet
  facet normal -0.996197 -0.0871287 0
    outer loop
      vertex 11.1 0 -2.5
      vertex 11.0757 0.277837 -0.0499992
      vertex 11.0757 0.277837 -2.5
    endloop
  endfacet
  facet normal -0.996197 -0.0871287 0
    outer loop
      vertex 11.0757 0.277837 -0.0499992
      vertex 11.1 0 -2.5
      vertex 11.1 0 -0.0499992
    endloop
  endfacet
  facet normal -0.906263 -0.422715 0
    outer loop
      vertex 11.0035 0.547232 -2.5
      vertex 10.8856 0.799999 -0.0499992
      vertex 10.8856 0.799999 -2.5
    endloop
  endfacet
  facet normal -0.906263 -0.422715 0
    outer loop
      vertex 10.8856 0.799999 -0.0499992
      vertex 11.0035 0.547232 -2.5
      vertex 11.0035 0.547232 -0.0499992
    endloop
  endfacet
  facet normal 0.906304 0.422627 0
    outer loop
      vertex 8.11436 -0.799999 -0.0499992
      vertex 7.99649 -0.547232 -2.5
      vertex 7.99649 -0.547232 -0.0499992
    endloop
  endfacet
  facet normal 0.906304 0.422627 0
    outer loop
      vertex 7.99649 -0.547232 -2.5
      vertex 8.11436 -0.799999 -0.0499992
      vertex 8.11436 -0.799999 -2.5
    endloop
  endfacet
  facet normal -0.906263 0.422715 0
    outer loop
      vertex 10.8856 -0.799999 -2.5
      vertex 11.0035 -0.547232 -0.0499992
      vertex 11.0035 -0.547232 -2.5
    endloop
  endfacet
  facet normal -0.906263 0.422715 0
    outer loop
      vertex 11.0035 -0.547232 -0.0499992
      vertex 10.8856 -0.799999 -2.5
      vertex 10.8856 -0.799999 -0.0499992
    endloop
  endfacet
  facet normal -0.81927 0.573408 0
    outer loop
      vertex 10.7257 -1.02846 -2.5
      vertex 10.8856 -0.799999 -0.0499992
      vertex 10.8856 -0.799999 -2.5
    endloop
  endfacet
  facet normal -0.81927 0.573408 0
    outer loop
      vertex 10.8856 -0.799999 -0.0499992
      vertex 10.7257 -1.02846 -2.5
      vertex 10.7257 -1.02846 -0.0499992
    endloop
  endfacet
  facet normal -0.996197 0.0871287 0
    outer loop
      vertex 11.0757 -0.277837 -2.5
      vertex 11.1 0 -0.0499992
      vertex 11.1 0 -2.5
    endloop
  endfacet
  facet normal -0.996197 0.0871287 0
    outer loop
      vertex 11.1 0 -0.0499992
      vertex 11.0757 -0.277837 -2.5
      vertex 11.0757 -0.277837 -0.0499992
    endloop
  endfacet
  facet normal -0.81927 -0.573408 0
    outer loop
      vertex 10.8856 0.799999 -2.5
      vertex 10.7257 1.02846 -0.0499992
      vertex 10.7257 1.02846 -2.5
    endloop
  endfacet
  facet normal -0.81927 -0.573408 0
    outer loop
      vertex 10.7257 1.02846 -0.0499992
      vertex 10.8856 0.799999 -2.5
      vertex 10.8856 0.799999 -0.0499992
    endloop
  endfacet
  facet normal 0.707107 -0.707107 0
    outer loop
      vertex 8.27433 1.02846 -0.0499992
      vertex 8.47154 1.22567 -2.5
      vertex 8.47154 1.22567 -0.0499992
    endloop
  endfacet
  facet normal 0.707107 -0.707107 0
    outer loop
      vertex 8.47154 1.22567 -2.5
      vertex 8.27433 1.02846 -0.0499992
      vertex 8.27433 1.02846 -2.5
    endloop
  endfacet
  facet normal 0.0871634 -0.996194 0
    outer loop
      vertex 9.22216 1.57569 -2.5
      vertex 9.5 1.6 -0.0499992
      vertex 9.22216 1.57569 -0.0499992
    endloop
  endfacet
  facet normal 0.0871634 -0.996194 0
    outer loop
      vertex 9.5 1.6 -0.0499992
      vertex 9.22216 1.57569 -2.5
      vertex 9.5 1.6 -2.5
    endloop
  endfacet
  facet normal 0.573578 -0.819151 0
    outer loop
      vertex 8.47154 1.22567 -2.5
      vertex 8.7 1.38564 -0.0499992
      vertex 8.47154 1.22567 -0.0499992
    endloop
  endfacet
  facet normal 0.573578 -0.819151 0
    outer loop
      vertex 8.7 1.38564 -0.0499992
      vertex 8.47154 1.22567 -2.5
      vertex 8.7 1.38564 -2.5
    endloop
  endfacet
  facet normal 0.422622 -0.906306 0
    outer loop
      vertex 8.7 1.38564 -2.5
      vertex 8.95277 1.50351 -0.0499992
      vertex 8.7 1.38564 -0.0499992
    endloop
  endfacet
  facet normal 0.422622 -0.906306 0
    outer loop
      vertex 8.95277 1.50351 -0.0499992
      vertex 8.7 1.38564 -2.5
      vertex 8.95277 1.50351 -2.5
    endloop
  endfacet
  facet normal -0.422581 0.906325 0
    outer loop
      vertex 10.3 -1.38564 -2.5
      vertex 10.0472 -1.50351 -0.0499992
      vertex 10.3 -1.38564 -0.0499992
    endloop
  endfacet
  facet normal -0.422581 0.906325 0
    outer loop
      vertex 10.0472 -1.50351 -0.0499992
      vertex 10.3 -1.38564 -2.5
      vertex 10.0472 -1.50351 -2.5
    endloop
  endfacet
  facet normal 0.996194 0.0871643 0
    outer loop
      vertex 7.92431 -0.277837 -0.0499992
      vertex 7.9 0 -2.5
      vertex 7.9 0 -0.0499992
    endloop
  endfacet
  facet normal 0.996194 0.0871643 0
    outer loop
      vertex 7.9 0 -2.5
      vertex 7.92431 -0.277837 -0.0499992
      vertex 7.92431 -0.277837 -2.5
    endloop
  endfacet
  facet normal -0.258836 -0.965921 0
    outer loop
      vertex 9.77784 1.57569 -2.5
      vertex 10.0472 1.50351 -0.0499992
      vertex 9.77784 1.57569 -0.0499992
    endloop
  endfacet
  facet normal -0.258836 -0.965921 -0
    outer loop
      vertex 10.0472 1.50351 -0.0499992
      vertex 9.77784 1.57569 -2.5
      vertex 10.0472 1.50351 -2.5
    endloop
  endfacet
  facet normal -0.57351 0.819198 0
    outer loop
      vertex 10.5285 -1.22567 -2.5
      vertex 10.3 -1.38564 -0.0499992
      vertex 10.5285 -1.22567 -0.0499992
    endloop
  endfacet
  facet normal -0.57351 0.819198 0
    outer loop
      vertex 10.3 -1.38564 -0.0499992
      vertex 10.5285 -1.22567 -2.5
      vertex 10.3 -1.38564 -2.5
    endloop
  endfacet
  facet normal 0.96593 -0.258805 0
    outer loop
      vertex 7.92431 0.277837 -0.0499992
      vertex 7.99649 0.547232 -2.5
      vertex 7.99649 0.547232 -0.0499992
    endloop
  endfacet
  facet normal 0.96593 -0.258805 0
    outer loop
      vertex 7.99649 0.547232 -2.5
      vertex 7.92431 0.277837 -0.0499992
      vertex 7.92431 0.277837 -2.5
    endloop
  endfacet
  facet normal -0.422581 -0.906325 0
    outer loop
      vertex 10.0472 1.50351 -2.5
      vertex 10.3 1.38564 -0.0499992
      vertex 10.0472 1.50351 -0.0499992
    endloop
  endfacet
  facet normal -0.422581 -0.906325 -0
    outer loop
      vertex 10.3 1.38564 -0.0499992
      vertex 10.0472 1.50351 -2.5
      vertex 10.3 1.38564 -2.5
    endloop
  endfacet
  facet normal 0.819152 -0.573576 0
    outer loop
      vertex 8.11436 0.799999 -0.0499992
      vertex 8.27433 1.02846 -2.5
      vertex 8.27433 1.02846 -0.0499992
    endloop
  endfacet
  facet normal 0.819152 -0.573576 0
    outer loop
      vertex 8.27433 1.02846 -2.5
      vertex 8.11436 0.799999 -0.0499992
      vertex 8.11436 0.799999 -2.5
    endloop
  endfacet
  facet normal 0.819152 0.573576 0
    outer loop
      vertex 8.27433 -1.02846 -0.0499992
      vertex 8.11436 -0.799999 -2.5
      vertex 8.11436 -0.799999 -0.0499992
    endloop
  endfacet
  facet normal 0.819152 0.573576 0
    outer loop
      vertex 8.11436 -0.799999 -2.5
      vertex 8.27433 -1.02846 -0.0499992
      vertex 8.27433 -1.02846 -2.5
    endloop
  endfacet
  facet normal -0.258836 0.965921 0
    outer loop
      vertex 10.0472 -1.50351 -2.5
      vertex 9.77784 -1.57569 -0.0499992
      vertex 10.0472 -1.50351 -0.0499992
    endloop
  endfacet
  facet normal -0.258836 0.965921 0
    outer loop
      vertex 9.77784 -1.57569 -0.0499992
      vertex 10.0472 -1.50351 -2.5
      vertex 9.77784 -1.57569 -2.5
    endloop
  endfacet
  facet normal -0.707125 0.707089 0
    outer loop
      vertex 10.5285 -1.22567 -2.5
      vertex 10.7257 -1.02846 -0.0499992
      vertex 10.7257 -1.02846 -2.5
    endloop
  endfacet
  facet normal -0.707125 0.707089 0
    outer loop
      vertex 10.7257 -1.02846 -0.0499992
      vertex 10.5285 -1.22567 -2.5
      vertex 10.5285 -1.22567 -0.0499992
    endloop
  endfacet
  facet normal -0.707125 -0.707089 0
    outer loop
      vertex 10.7257 1.02846 -2.5
      vertex 10.5285 1.22567 -0.0499992
      vertex 10.5285 1.22567 -2.5
    endloop
  endfacet
  facet normal -0.707125 -0.707089 0
    outer loop
      vertex 10.5285 1.22567 -0.0499992
      vertex 10.7257 1.02846 -2.5
      vertex 10.7257 1.02846 -0.0499992
    endloop
  endfacet
  facet normal -0.965912 0.258872 0
    outer loop
      vertex 11.0035 -0.547232 -2.5
      vertex 11.0757 -0.277837 -0.0499992
      vertex 11.0757 -0.277837 -2.5
    endloop
  endfacet
  facet normal -0.965912 0.258872 0
    outer loop
      vertex 11.0757 -0.277837 -0.0499992
      vertex 11.0035 -0.547232 -2.5
      vertex 11.0035 -0.547232 -0.0499992
    endloop
  endfacet
  facet normal -0.57351 -0.819198 0
    outer loop
      vertex 10.3 1.38564 -2.5
      vertex 10.5285 1.22567 -0.0499992
      vertex 10.3 1.38564 -0.0499992
    endloop
  endfacet
  facet normal -0.57351 -0.819198 -0
    outer loop
      vertex 10.5285 1.22567 -0.0499992
      vertex 10.3 1.38564 -2.5
      vertex 10.5285 1.22567 -2.5
    endloop
  endfacet
  facet normal 0.707107 0.707107 0
    outer loop
      vertex 8.47154 -1.22567 -0.0499992
      vertex 8.27433 -1.02846 -2.5
      vertex 8.27433 -1.02846 -0.0499992
    endloop
  endfacet
  facet normal 0.707107 0.707107 0
    outer loop
      vertex 8.27433 -1.02846 -2.5
      vertex 8.47154 -1.22567 -0.0499992
      vertex 8.47154 -1.22567 -2.5
    endloop
  endfacet
  facet normal 0.906304 -0.422627 0
    outer loop
      vertex 7.99649 0.547232 -0.0499992
      vertex 8.11436 0.799999 -2.5
      vertex 8.11436 0.799999 -0.0499992
    endloop
  endfacet
  facet normal 0.906304 -0.422627 0
    outer loop
      vertex 8.11436 0.799999 -2.5
      vertex 7.99649 0.547232 -0.0499992
      vertex 7.99649 0.547232 -2.5
    endloop
  endfacet
  facet normal 0.573578 0.819151 -0
    outer loop
      vertex 8.7 -1.38564 -2.5
      vertex 8.47154 -1.22567 -0.0499992
      vertex 8.7 -1.38564 -0.0499992
    endloop
  endfacet
  facet normal 0.573578 0.819151 0
    outer loop
      vertex 8.47154 -1.22567 -0.0499992
      vertex 8.7 -1.38564 -2.5
      vertex 8.47154 -1.22567 -2.5
    endloop
  endfacet
  facet normal -0.0871634 0.996194 0
    outer loop
      vertex 9.77784 -1.57569 -2.5
      vertex 9.5 -1.6 -0.0499992
      vertex 9.77784 -1.57569 -0.0499992
    endloop
  endfacet
  facet normal -0.0871634 0.996194 0
    outer loop
      vertex 9.5 -1.6 -0.0499992
      vertex 9.77784 -1.57569 -2.5
      vertex 9.5 -1.6 -2.5
    endloop
  endfacet
  facet normal -0.0871634 -0.996194 0
    outer loop
      vertex 9.5 1.6 -2.5
      vertex 9.77784 1.57569 -0.0499992
      vertex 9.5 1.6 -0.0499992
    endloop
  endfacet
  facet normal -0.0871634 -0.996194 -0
    outer loop
      vertex 9.77784 1.57569 -0.0499992
      vertex 9.5 1.6 -2.5
      vertex 9.77784 1.57569 -2.5
    endloop
  endfacet
  facet normal 0.0871634 0.996194 -0
    outer loop
      vertex 9.5 -1.6 -2.5
      vertex 9.22216 -1.57569 -0.0499992
      vertex 9.5 -1.6 -0.0499992
    endloop
  endfacet
  facet normal 0.0871634 0.996194 0
    outer loop
      vertex 9.22216 -1.57569 -0.0499992
      vertex 9.5 -1.6 -2.5
      vertex 9.22216 -1.57569 -2.5
    endloop
  endfacet
  facet normal 0.25881 0.965928 -0
    outer loop
      vertex 9.22216 -1.57569 -2.5
      vertex 8.95277 -1.50351 -0.0499992
      vertex 9.22216 -1.57569 -0.0499992
    endloop
  endfacet
  facet normal 0.25881 0.965928 0
    outer loop
      vertex 8.95277 -1.50351 -0.0499992
      vertex 9.22216 -1.57569 -2.5
      vertex 8.95277 -1.50351 -2.5
    endloop
  endfacet
  facet normal 0.996194 -0.0871643 0
    outer loop
      vertex 7.9 0 -0.0499992
      vertex 7.92431 0.277837 -2.5
      vertex 7.92431 0.277837 -0.0499992
    endloop
  endfacet
  facet normal 0.996194 -0.0871643 0
    outer loop
      vertex 7.92431 0.277837 -2.5
      vertex 7.9 0 -0.0499992
      vertex 7.9 0 -2.5
    endloop
  endfacet
  facet normal 0.96593 0.258805 0
    outer loop
      vertex 7.99649 -0.547232 -0.0499992
      vertex 7.92431 -0.277837 -2.5
      vertex 7.92431 -0.277837 -0.0499992
    endloop
  endfacet
  facet normal 0.96593 0.258805 0
    outer loop
      vertex 7.92431 -0.277837 -2.5
      vertex 7.99649 -0.547232 -0.0499992
      vertex 7.99649 -0.547232 -2.5
    endloop
  endfacet
  facet normal 0.422622 0.906306 -0
    outer loop
      vertex 8.95277 -1.50351 -2.5
      vertex 8.7 -1.38564 -0.0499992
      vertex 8.95277 -1.50351 -0.0499992
    endloop
  endfacet
  facet normal 0.422622 0.906306 0
    outer loop
      vertex 8.7 -1.38564 -0.0499992
      vertex 8.95277 -1.50351 -2.5
      vertex 8.7 -1.38564 -2.5
    endloop
  endfacet
  facet normal 0 1 -0
    outer loop
      vertex -8.025 -2.55477 -0.0499992
      vertex -10.975 -2.55477 2.5
      vertex -8.025 -2.55477 2.5
    endloop
  endfacet
  facet normal 0 1 0
    outer loop
      vertex -10.975 -2.55477 2.5
      vertex -8.025 -2.55477 -0.0499992
      vertex -10.975 -2.55477 -0.0499992
    endloop
  endfacet
  facet normal -0.866025 0.500001 0
    outer loop
      vertex -8.025 -2.55477 -0.0499992
      vertex -6.55 0 2.5
      vertex -6.55 0 -0.0499992
    endloop
  endfacet
  facet normal -0.866025 0.500001 0
    outer loop
      vertex -6.55 0 2.5
      vertex -8.025 -2.55477 -0.0499992
      vertex -8.025 -2.55477 2.5
    endloop
  endfacet
  facet normal 0 -1 0
    outer loop
      vertex -10.975 2.55477 -0.0499992
      vertex -8.025 2.55477 2.5
      vertex -10.975 2.55477 2.5
    endloop
  endfacet
  facet normal 0 -1 -0
    outer loop
      vertex -8.025 2.55477 2.5
      vertex -10.975 2.55477 -0.0499992
      vertex -8.025 2.55477 -0.0499992
    endloop
  endfacet
  facet normal -0.866025 -0.500001 0
    outer loop
      vertex -6.55 0 -0.0499992
      vertex -8.025 2.55477 2.5
      vertex -8.025 2.55477 -0.0499992
    endloop
  endfacet
  facet normal -0.866025 -0.500001 0
    outer loop
      vertex -8.025 2.55477 2.5
      vertex -6.55 0 -0.0499992
      vertex -6.55 0 2.5
    endloop
  endfacet
  facet normal 0.866025 -0.500001 0
    outer loop
      vertex -12.45 0 2.5
      vertex -10.975 2.55477 -0.0499992
      vertex -10.975 2.55477 2.5
    endloop
  endfacet
  facet normal 0.866025 -0.500001 0
    outer loop
      vertex -10.975 2.55477 -0.0499992
      vertex -12.45 0 2.5
      vertex -12.45 0 -0.0499992
    endloop
  endfacet
  facet normal 0.866025 0.500001 0
    outer loop
      vertex -10.975 -2.55477 2.5
      vertex -12.45 0 -0.0499992
      vertex -12.45 0 2.5
    endloop
  endfacet
  facet normal 0.866025 0.500001 0
    outer loop
      vertex -12.45 0 -0.0499992
      vertex -10.975 -2.55477 2.5
      vertex -10.975 -2.55477 -0.0499992
    endloop
  endfacet
  facet normal 0 0 1
    outer loop
      vertex -6.55 0 -0.0499992
      vertex -7.92431 0.277837 -0.0499992
      vertex -7.9 0 -0.0499992
    endloop
  endfacet
  facet normal 0 0 1
    outer loop
      vertex -6.55 0 -0.0499992
      vertex -7.99649 0.547232 -0.0499992
      vertex -7.92431 0.277837 -0.0499992
    endloop
  endfacet
  facet normal -0 0 1
    outer loop
      vertex -8.11436 0.799999 -0.0499992
      vertex -6.55 0 -0.0499992
      vertex -8.025 2.55477 -0.0499992
    endloop
  endfacet
  facet normal 0 0 1
    outer loop
      vertex -6.55 0 -0.0499992
      vertex -8.11436 0.799999 -0.0499992
      vertex -7.99649 0.547232 -0.0499992
    endloop
  endfacet
  facet normal 0 0 1
    outer loop
      vertex -8.025 2.55477 -0.0499992
      vertex -8.27433 1.02846 -0.0499992
      vertex -8.11436 0.799999 -0.0499992
    endloop
  endfacet
  facet normal 0 0 1
    outer loop
      vertex -8.025 2.55477 -0.0499992
      vertex -8.47154 1.22567 -0.0499992
      vertex -8.27433 1.02846 -0.0499992
    endloop
  endfacet
  facet normal 0 0 1
    outer loop
      vertex -8.025 2.55477 -0.0499992
      vertex -8.7 1.38564 -0.0499992
      vertex -8.47154 1.22567 -0.0499992
    endloop
  endfacet
  facet normal 0 0 1
    outer loop
      vertex -8.025 2.55477 -0.0499992
      vertex -8.95277 1.50351 -0.0499992
      vertex -8.7 1.38564 -0.0499992
    endloop
  endfacet
  facet normal 0 0 1
    outer loop
      vertex -8.025 2.55477 -0.0499992
      vertex -9.22216 1.57569 -0.0499992
      vertex -8.95277 1.50351 -0.0499992
    endloop
  endfacet
  facet normal 0 0 1
    outer loop
      vertex -8.025 2.55477 -0.0499992
      vertex -9.5 1.6 -0.0499992
      vertex -9.22216 1.57569 -0.0499992
    endloop
  endfacet
  facet normal -0 0 1
    outer loop
      vertex -10.975 2.55477 -0.0499992
      vertex -9.5 1.6 -0.0499992
      vertex -8.025 2.55477 -0.0499992
    endloop
  endfacet
  facet normal 0 0 1
    outer loop
      vertex -9.5 1.6 -0.0499992
      vertex -10.975 2.55477 -0.0499992
      vertex -9.77784 1.57569 -0.0499992
    endloop
  endfacet
  facet normal 0 0 1
    outer loop
      vertex -9.77784 1.57569 -0.0499992
      vertex -10.975 2.55477 -0.0499992
      vertex -10.0472 1.50351 -0.0499992
    endloop
  endfacet
  facet normal 0 0 1
    outer loop
      vertex -10.0472 1.50351 -0.0499992
      vertex -10.975 2.55477 -0.0499992
      vertex -10.3 1.38564 -0.0499992
    endloop
  endfacet
  facet normal 0 0 1
    outer loop
      vertex -10.975 2.55477 -0.0499992
      vertex -10.5285 1.22567 -0.0499992
      vertex -10.3 1.38564 -0.0499992
    endloop
  endfacet
  facet normal 0 0 1
    outer loop
      vertex -10.975 2.55477 -0.0499992
      vertex -10.7257 1.02846 -0.0499992
      vertex -10.5285 1.22567 -0.0499992
    endloop
  endfacet
  facet normal 0 0 1
    outer loop
      vertex -10.975 2.55477 -0.0499992
      vertex -10.8856 0.799999 -0.0499992
      vertex -10.7257 1.02846 -0.0499992
    endloop
  endfacet
  facet normal 0 0 1
    outer loop
      vertex -12.45 0 -0.0499992
      vertex -10.8856 0.799999 -0.0499992
      vertex -10.975 2.55477 -0.0499992
    endloop
  endfacet
  facet normal 0 0 1
    outer loop
      vertex -10.8856 0.799999 -0.0499992
      vertex -12.45 0 -0.0499992
      vertex -11.0035 0.547232 -0.0499992
    endloop
  endfacet
  facet normal 0 0 1
    outer loop
      vertex -11.0035 0.547232 -0.0499992
      vertex -12.45 0 -0.0499992
      vertex -11.0757 0.277837 -0.0499992
    endloop
  endfacet
  facet normal 0 0 1
    outer loop
      vertex -11.0757 0.277837 -0.0499992
      vertex -12.45 0 -0.0499992
      vertex -11.1 0 -0.0499992
    endloop
  endfacet
  facet normal 0 0 1
    outer loop
      vertex -7.92431 -0.277837 -0.0499992
      vertex -6.55 0 -0.0499992
      vertex -7.9 0 -0.0499992
    endloop
  endfacet
  facet normal 0 0 1
    outer loop
      vertex -7.99649 -0.547232 -0.0499992
      vertex -6.55 0 -0.0499992
      vertex -7.92431 -0.277837 -0.0499992
    endloop
  endfacet
  facet normal 0 0 1
    outer loop
      vertex -8.11436 -0.799999 -0.0499992
      vertex -6.55 0 -0.0499992
      vertex -7.99649 -0.547232 -0.0499992
    endloop
  endfacet
  facet normal 0 0 1
    outer loop
      vertex -6.55 0 -0.0499992
      vertex -8.11436 -0.799999 -0.0499992
      vertex -8.025 -2.55477 -0.0499992
    endloop
  endfacet
  facet normal -0 0 1
    outer loop
      vertex -8.27433 -1.02846 -0.0499992
      vertex -8.025 -2.55477 -0.0499992
      vertex -8.11436 -0.799999 -0.0499992
    endloop
  endfacet
  facet normal -0 0 1
    outer loop
      vertex -8.47154 -1.22567 -0.0499992
      vertex -8.025 -2.55477 -0.0499992
      vertex -8.27433 -1.02846 -0.0499992
    endloop
  endfacet
  facet normal -0 0 1
    outer loop
      vertex -8.7 -1.38564 -0.0499992
      vertex -8.025 -2.55477 -0.0499992
      vertex -8.47154 -1.22567 -0.0499992
    endloop
  endfacet
  facet normal -0 0 1
    outer loop
      vertex -8.95277 -1.50351 -0.0499992
      vertex -8.025 -2.55477 -0.0499992
      vertex -8.7 -1.38564 -0.0499992
    endloop
  endfacet
  facet normal -0 0 1
    outer loop
      vertex -9.22216 -1.57569 -0.0499992
      vertex -8.025 -2.55477 -0.0499992
      vertex -8.95277 -1.50351 -0.0499992
    endloop
  endfacet
  facet normal -0 0 1
    outer loop
      vertex -9.5 -1.6 -0.0499992
      vertex -8.025 -2.55477 -0.0499992
      vertex -9.22216 -1.57569 -0.0499992
    endloop
  endfacet
  facet normal 0 0 1
    outer loop
      vertex -10.975 -2.55477 -0.0499992
      vertex -9.5 -1.6 -0.0499992
      vertex -9.77784 -1.57569 -0.0499992
    endloop
  endfacet
  facet normal 0 0 1
    outer loop
      vertex -10.975 -2.55477 -0.0499992
      vertex -9.77784 -1.57569 -0.0499992
      vertex -10.0472 -1.50351 -0.0499992
    endloop
  endfacet
  facet normal 0 0 1
    outer loop
      vertex -10.975 -2.55477 -0.0499992
      vertex -10.0472 -1.50351 -0.0499992
      vertex -10.3 -1.38564 -0.0499992
    endloop
  endfacet
  facet normal 0 0 1
    outer loop
      vertex -9.5 -1.6 -0.0499992
      vertex -10.975 -2.55477 -0.0499992
      vertex -8.025 -2.55477 -0.0499992
    endloop
  endfacet
  facet normal 0 0 1
    outer loop
      vertex -10.5285 -1.22567 -0.0499992
      vertex -10.975 -2.55477 -0.0499992
      vertex -10.3 -1.38564 -0.0499992
    endloop
  endfacet
  facet normal 0 0 1
    outer loop
      vertex -10.7257 -1.02846 -0.0499992
      vertex -10.975 -2.55477 -0.0499992
      vertex -10.5285 -1.22567 -0.0499992
    endloop
  endfacet
  facet normal 0 0 1
    outer loop
      vertex -10.8856 -0.799999 -0.0499992
      vertex -10.975 -2.55477 -0.0499992
      vertex -10.7257 -1.02846 -0.0499992
    endloop
  endfacet
  facet normal 0 0 1
    outer loop
      vertex -12.45 0 -0.0499992
      vertex -10.8856 -0.799999 -0.0499992
      vertex -11.0035 -0.547232 -0.0499992
    endloop
  endfacet
  facet normal 0 0 1
    outer loop
      vertex -12.45 0 -0.0499992
      vertex -11.0035 -0.547232 -0.0499992
      vertex -11.0757 -0.277837 -0.0499992
    endloop
  endfacet
  facet normal -0 0 1
    outer loop
      vertex -12.45 0 -0.0499992
      vertex -11.0757 -0.277837 -0.0499992
      vertex -11.1 0 -0.0499992
    endloop
  endfacet
  facet normal 0 0 1
    outer loop
      vertex -10.8856 -0.799999 -0.0499992
      vertex -12.45 0 -0.0499992
      vertex -10.975 -2.55477 -0.0499992
    endloop
  endfacet
  facet normal 0.258836 -0.965921 0
    outer loop
      vertex -10.0472 1.50351 -2.5
      vertex -9.77784 1.57569 -0.0499992
      vertex -10.0472 1.50351 -0.0499992
    endloop
  endfacet
  facet normal 0.258836 -0.965921 0
    outer loop
      vertex -9.77784 1.57569 -0.0499992
      vertex -10.0472 1.50351 -2.5
      vertex -9.77784 1.57569 -2.5
    endloop
  endfacet
  facet normal -0.96593 -0.258805 0
    outer loop
      vertex -7.92431 0.277837 -2.5
      vertex -7.99649 0.547232 -0.0499992
      vertex -7.99649 0.547232 -2.5
    endloop
  endfacet
  facet normal -0.96593 -0.258805 0
    outer loop
      vertex -7.99649 0.547232 -0.0499992
      vertex -7.92431 0.277837 -2.5
      vertex -7.92431 0.277837 -0.0499992
    endloop
  endfacet
  facet normal -0.996194 -0.0871643 0
    outer loop
      vertex -7.9 0 -2.5
      vertex -7.92431 0.277837 -0.0499992
      vertex -7.92431 0.277837 -2.5
    endloop
  endfacet
  facet normal -0.996194 -0.0871643 0
    outer loop
      vertex -7.92431 0.277837 -0.0499992
      vertex -7.9 0 -2.5
      vertex -7.9 0 -0.0499992
    endloop
  endfacet
  facet normal -0.906304 -0.422627 0
    outer loop
      vertex -7.99649 0.547232 -2.5
      vertex -8.11436 0.799999 -0.0499992
      vertex -8.11436 0.799999 -2.5
    endloop
  endfacet
  facet normal -0.906304 -0.422627 0
    outer loop
      vertex -8.11436 0.799999 -0.0499992
      vertex -7.99649 0.547232 -2.5
      vertex -7.99649 0.547232 -0.0499992
    endloop
  endfacet
  facet normal 0.906263 0.422715 0
    outer loop
      vertex -10.8856 -0.799999 -0.0499992
      vertex -11.0035 -0.547232 -2.5
      vertex -11.0035 -0.547232 -0.0499992
    endloop
  endfacet
  facet normal 0.906263 0.422715 0
    outer loop
      vertex -11.0035 -0.547232 -2.5
      vertex -10.8856 -0.799999 -0.0499992
      vertex -10.8856 -0.799999 -2.5
    endloop
  endfacet
  facet normal -0.906304 0.422627 0
    outer loop
      vertex -8.11436 -0.799999 -2.5
      vertex -7.99649 -0.547232 -0.0499992
      vertex -7.99649 -0.547232 -2.5
    endloop
  endfacet
  facet normal -0.906304 0.422627 0
    outer loop
      vertex -7.99649 -0.547232 -0.0499992
      vertex -8.11436 -0.799999 -2.5
      vertex -8.11436 -0.799999 -0.0499992
    endloop
  endfacet
  facet normal -0.819152 0.573576 0
    outer loop
      vertex -8.27433 -1.02846 -2.5
      vertex -8.11436 -0.799999 -0.0499992
      vertex -8.11436 -0.799999 -2.5
    endloop
  endfacet
  facet normal -0.819152 0.573576 0
    outer loop
      vertex -8.11436 -0.799999 -0.0499992
      vertex -8.27433 -1.02846 -2.5
      vertex -8.27433 -1.02846 -0.0499992
    endloop
  endfacet
  facet normal -0.996194 0.0871643 0
    outer loop
      vertex -7.92431 -0.277837 -2.5
      vertex -7.9 0 -0.0499992
      vertex -7.9 0 -2.5
    endloop
  endfacet
  facet normal -0.996194 0.0871643 0
    outer loop
      vertex -7.9 0 -0.0499992
      vertex -7.92431 -0.277837 -2.5
      vertex -7.92431 -0.277837 -0.0499992
    endloop
  endfacet
  facet normal -0.819152 -0.573576 0
    outer loop
      vertex -8.11436 0.799999 -2.5
      vertex -8.27433 1.02846 -0.0499992
      vertex -8.27433 1.02846 -2.5
    endloop
  endfacet
  facet normal -0.819152 -0.573576 0
    outer loop
      vertex -8.27433 1.02846 -0.0499992
      vertex -8.11436 0.799999 -2.5
      vertex -8.11436 0.799999 -0.0499992
    endloop
  endfacet
  facet normal 0.707125 -0.707089 0
    outer loop
      vertex -10.7257 1.02846 -0.0499992
      vertex -10.5285 1.22567 -2.5
      vertex -10.5285 1.22567 -0.0499992
    endloop
  endfacet
  facet normal 0.707125 -0.707089 0
    outer loop
      vertex -10.5285 1.22567 -2.5
      vertex -10.7257 1.02846 -0.0499992
      vertex -10.7257 1.02846 -2.5
    endloop
  endfacet
  facet normal 0.0871634 -0.996194 0
    outer loop
      vertex -9.77784 1.57569 -2.5
      vertex -9.5 1.6 -0.0499992
      vertex -9.77784 1.57569 -0.0499992
    endloop
  endfacet
  facet normal 0.0871634 -0.996194 0
    outer loop
      vertex -9.5 1.6 -0.0499992
      vertex -9.77784 1.57569 -2.5
      vertex -9.5 1.6 -2.5
    endloop
  endfacet
  facet normal 0.57351 -0.819198 0
    outer loop
      vertex -10.5285 1.22567 -2.5
      vertex -10.3 1.38564 -0.0499992
      vertex -10.5285 1.22567 -0.0499992
    endloop
  endfacet
  facet normal 0.57351 -0.819198 0
    outer loop
      vertex -10.3 1.38564 -0.0499992
      vertex -10.5285 1.22567 -2.5
      vertex -10.3 1.38564 -2.5
    endloop
  endfacet
  facet normal 0.422581 -0.906325 0
    outer loop
      vertex -10.3 1.38564 -2.5
      vertex -10.0472 1.50351 -0.0499992
      vertex -10.3 1.38564 -0.0499992
    endloop
  endfacet
  facet normal 0.422581 -0.906325 0
    outer loop
      vertex -10.0472 1.50351 -0.0499992
      vertex -10.3 1.38564 -2.5
      vertex -10.0472 1.50351 -2.5
    endloop
  endfacet
  facet normal -0.422622 0.906306 0
    outer loop
      vertex -8.7 -1.38564 -2.5
      vertex -8.95277 -1.50351 -0.0499992
      vertex -8.7 -1.38564 -0.0499992
    endloop
  endfacet
  facet normal -0.422622 0.906306 0
    outer loop
      vertex -8.95277 -1.50351 -0.0499992
      vertex -8.7 -1.38564 -2.5
      vertex -8.95277 -1.50351 -2.5
    endloop
  endfacet
  facet normal 0.996197 0.0871287 0
    outer loop
      vertex -11.0757 -0.277837 -0.0499992
      vertex -11.1 0 -2.5
      vertex -11.1 0 -0.0499992
    endloop
  endfacet
  facet normal 0.996197 0.0871287 0
    outer loop
      vertex -11.1 0 -2.5
      vertex -11.0757 -0.277837 -0.0499992
      vertex -11.0757 -0.277837 -2.5
    endloop
  endfacet
  facet normal -0.25881 -0.965928 0
    outer loop
      vertex -9.22216 1.57569 -2.5
      vertex -8.95277 1.50351 -0.0499992
      vertex -9.22216 1.57569 -0.0499992
    endloop
  endfacet
  facet normal -0.25881 -0.965928 -0
    outer loop
      vertex -8.95277 1.50351 -0.0499992
      vertex -9.22216 1.57569 -2.5
      vertex -8.95277 1.50351 -2.5
    endloop
  endfacet
  facet normal -0.573578 0.819151 0
    outer loop
      vertex -8.47154 -1.22567 -2.5
      vertex -8.7 -1.38564 -0.0499992
      vertex -8.47154 -1.22567 -0.0499992
    endloop
  endfacet
  facet normal -0.573578 0.819151 0
    outer loop
      vertex -8.7 -1.38564 -0.0499992
      vertex -8.47154 -1.22567 -2.5
      vertex -8.7 -1.38564 -2.5
    endloop
  endfacet
  facet normal 0.965912 -0.258872 0
    outer loop
      vertex -11.0757 0.277837 -0.0499992
      vertex -11.0035 0.547232 -2.5
      vertex -11.0035 0.547232 -0.0499992
    endloop
  endfacet
  facet normal 0.965912 -0.258872 0
    outer loop
      vertex -11.0035 0.547232 -2.5
      vertex -11.0757 0.277837 -0.0499992
      vertex -11.0757 0.277837 -2.5
    endloop
  endfacet
  facet normal -0.422622 -0.906306 0
    outer loop
      vertex -8.95277 1.50351 -2.5
      vertex -8.7 1.38564 -0.0499992
      vertex -8.95277 1.50351 -0.0499992
    endloop
  endfacet
  facet normal -0.422622 -0.906306 -0
    outer loop
      vertex -8.7 1.38564 -0.0499992
      vertex -8.95277 1.50351 -2.5
      vertex -8.7 1.38564 -2.5
    endloop
  endfacet
  facet normal 0.81927 -0.573408 0
    outer loop
      vertex -10.8856 0.799999 -0.0499992
      vertex -10.7257 1.02846 -2.5
      vertex -10.7257 1.02846 -0.0499992
    endloop
  endfacet
  facet normal 0.81927 -0.573408 0
    outer loop
      vertex -10.7257 1.02846 -2.5
      vertex -10.8856 0.799999 -0.0499992
      vertex -10.8856 0.799999 -2.5
    endloop
  endfacet
  facet normal 0.81927 0.573408 0
    outer loop
      vertex -10.7257 -1.02846 -0.0499992
      vertex -10.8856 -0.799999 -2.5
      vertex -10.8856 -0.799999 -0.0499992
    endloop
  endfacet
  facet normal 0.81927 0.573408 0
    outer loop
      vertex -10.8856 -0.799999 -2.5
      vertex -10.7257 -1.02846 -0.0499992
      vertex -10.7257 -1.02846 -2.5
    endloop
  endfacet
  facet normal -0.25881 0.965928 0
    outer loop
      vertex -8.95277 -1.50351 -2.5
      vertex -9.22216 -1.57569 -0.0499992
      vertex -8.95277 -1.50351 -0.0499992
    endloop
  endfacet
  facet normal -0.25881 0.965928 0
    outer loop
      vertex -9.22216 -1.57569 -0.0499992
      vertex -8.95277 -1.50351 -2.5
      vertex -9.22216 -1.57569 -2.5
    endloop
  endfacet
  facet normal -0.707107 0.707107 0
    outer loop
      vertex -8.47154 -1.22567 -2.5
      vertex -8.27433 -1.02846 -0.0499992
      vertex -8.27433 -1.02846 -2.5
    endloop
  endfacet
  facet normal -0.707107 0.707107 0
    outer loop
      vertex -8.27433 -1.02846 -0.0499992
      vertex -8.47154 -1.22567 -2.5
      vertex -8.47154 -1.22567 -0.0499992
    endloop
  endfacet
  facet normal -0.707107 -0.707107 0
    outer loop
      vertex -8.27433 1.02846 -2.5
      vertex -8.47154 1.22567 -0.0499992
      vertex -8.47154 1.22567 -2.5
    endloop
  endfacet
  facet normal -0.707107 -0.707107 0
    outer loop
      vertex -8.47154 1.22567 -0.0499992
      vertex -8.27433 1.02846 -2.5
      vertex -8.27433 1.02846 -0.0499992
    endloop
  endfacet
  facet normal -0.96593 0.258805 0
    outer loop
      vertex -7.99649 -0.547232 -2.5
      vertex -7.92431 -0.277837 -0.0499992
      vertex -7.92431 -0.277837 -2.5
    endloop
  endfacet
  facet normal -0.96593 0.258805 0
    outer loop
      vertex -7.92431 -0.277837 -0.0499992
      vertex -7.99649 -0.547232 -2.5
      vertex -7.99649 -0.547232 -0.0499992
    endloop
  endfacet
  facet normal -0.573578 -0.819151 0
    outer loop
      vertex -8.7 1.38564 -2.5
      vertex -8.47154 1.22567 -0.0499992
      vertex -8.7 1.38564 -0.0499992
    endloop
  endfacet
  facet normal -0.573578 -0.819151 -0
    outer loop
      vertex -8.47154 1.22567 -0.0499992
      vertex -8.7 1.38564 -2.5
      vertex -8.47154 1.22567 -2.5
    endloop
  endfacet
  facet normal 0.707125 0.707089 0
    outer loop
      vertex -10.5285 -1.22567 -0.0499992
      vertex -10.7257 -1.02846 -2.5
      vertex -10.7257 -1.02846 -0.0499992
    endloop
  endfacet
  facet normal 0.707125 0.707089 0
    outer loop
      vertex -10.7257 -1.02846 -2.5
      vertex -10.5285 -1.22567 -0.0499992
      vertex -10.5285 -1.22567 -2.5
    endloop
  endfacet
  facet normal 0.906263 -0.422715 0
    outer loop
      vertex -11.0035 0.547232 -0.0499992
      vertex -10.8856 0.799999 -2.5
      vertex -10.8856 0.799999 -0.0499992
    endloop
  endfacet
  facet normal 0.906263 -0.422715 0
    outer loop
      vertex -10.8856 0.799999 -2.5
      vertex -11.0035 0.547232 -0.0499992
      vertex -11.0035 0.547232 -2.5
    endloop
  endfacet
  facet normal 0.57351 0.819198 -0
    outer loop
      vertex -10.3 -1.38564 -2.5
      vertex -10.5285 -1.22567 -0.0499992
      vertex -10.3 -1.38564 -0.0499992
    endloop
  endfacet
  facet normal 0.57351 0.819198 0
    outer loop
      vertex -10.5285 -1.22567 -0.0499992
      vertex -10.3 -1.38564 -2.5
      vertex -10.5285 -1.22567 -2.5
    endloop
  endfacet
  facet normal -0.0871634 0.996194 0
    outer loop
      vertex -9.22216 -1.57569 -2.5
      vertex -9.5 -1.6 -0.0499992
      vertex -9.22216 -1.57569 -0.0499992
    endloop
  endfacet
  facet normal -0.0871634 0.996194 0
    outer loop
      vertex -9.5 -1.6 -0.0499992
      vertex -9.22216 -1.57569 -2.5
      vertex -9.5 -1.6 -2.5
    endloop
  endfacet
  facet normal -0.0871634 -0.996194 0
    outer loop
      vertex -9.5 1.6 -2.5
      vertex -9.22216 1.57569 -0.0499992
      vertex -9.5 1.6 -0.0499992
    endloop
  endfacet
  facet normal -0.0871634 -0.996194 -0
    outer loop
      vertex -9.22216 1.57569 -0.0499992
      vertex -9.5 1.6 -2.5
      vertex -9.22216 1.57569 -2.5
    endloop
  endfacet
  facet normal 0.0871634 0.996194 -0
    outer loop
      vertex -9.5 -1.6 -2.5
      vertex -9.77784 -1.57569 -0.0499992
      vertex -9.5 -1.6 -0.0499992
    endloop
  endfacet
  facet normal 0.0871634 0.996194 0
    outer loop
      vertex -9.77784 -1.57569 -0.0499992
      vertex -9.5 -1.6 -2.5
      vertex -9.77784 -1.57569 -2.5
    endloop
  endfacet
  facet normal 0.258836 0.965921 -0
    outer loop
      vertex -9.77784 -1.57569 -2.5
      vertex -10.0472 -1.50351 -0.0499992
      vertex -9.77784 -1.57569 -0.0499992
    endloop
  endfacet
  facet normal 0.258836 0.965921 0
    outer loop
      vertex -10.0472 -1.50351 -0.0499992
      vertex -9.77784 -1.57569 -2.5
      vertex -10.0472 -1.50351 -2.5
    endloop
  endfacet
  facet normal 0.996197 -0.0871287 0
    outer loop
      vertex -11.1 0 -0.0499992
      vertex -11.0757 0.277837 -2.5
      vertex -11.0757 0.277837 -0.0499992
    endloop
  endfacet
  facet normal 0.996197 -0.0871287 0
    outer loop
      vertex -11.0757 0.277837 -2.5
      vertex -11.1 0 -0.0499992
      vertex -11.1 0 -2.5
    endloop
  endfacet
  facet normal 0.965912 0.258872 0
    outer loop
      vertex -11.0035 -0.547232 -0.0499992
      vertex -11.0757 -0.277837 -2.5
      vertex -11.0757 -0.277837 -0.0499992
    endloop
  endfacet
  facet normal 0.965912 0.258872 0
    outer loop
      vertex -11.0757 -0.277837 -2.5
      vertex -11.0035 -0.547232 -0.0499992
      vertex -11.0035 -0.547232 -2.5
    endloop
  endfacet
  facet normal 0.422581 0.906325 -0
    outer loop
      vertex -10.0472 -1.50351 -2.5
      vertex -10.3 -1.38564 -0.0499992
      vertex -10.0472 -1.50351 -0.0499992
    endloop
  endfacet
  facet normal 0.422581 0.906325 0
    outer loop
      vertex -10.3 -1.38564 -0.0499992
      vertex -10.0472 -1.50351 -2.5
      vertex -10.3 -1.38564 -2.5
    endloop
  endfacet
  facet normal 1 -0 0
    outer loop
      vertex 25.5 -17 2.5
      vertex 25.5 17 -2.5
      vertex 25.5 17 2.5
    endloop
  endfacet
  facet normal 1 0 0
    outer loop
      vertex 25.5 17 -2.5
      vertex 25.5 -17 2.5
      vertex 25.5 -17 -2.5
    endloop
  endfacet
  facet normal 0 0 1
    outer loop
      vertex 25.5 17 2.5
      vertex 12.45 0 2.5
      vertex 25.5 -17 2.5
    endloop
  endfacet
  facet normal 0 0 1
    outer loop
      vertex 25.5 17 2.5
      vertex 10.975 2.55477 2.5
      vertex 12.45 0 2.5
    endloop
  endfacet
  facet normal 0 0 1
    outer loop
      vertex 25.5 17 2.5
      vertex 8.025 2.55477 2.5
      vertex 10.975 2.55477 2.5
    endloop
  endfacet
  facet normal 0 0 1
    outer loop
      vertex 8.025 2.55477 2.5
      vertex -6.55 0 2.5
      vertex 6.55 0 2.5
    endloop
  endfacet
  facet normal 0 0 1
    outer loop
      vertex -8.025 2.55477 2.5
      vertex 8.025 2.55477 2.5
      vertex 25.5 17 2.5
    endloop
  endfacet
  facet normal 0 0 1
    outer loop
      vertex 8.025 2.55477 2.5
      vertex -8.025 2.55477 2.5
      vertex -6.55 0 2.5
    endloop
  endfacet
  facet normal -0 0 1
    outer loop
      vertex -25.5 17 2.5
      vertex -8.025 2.55477 2.5
      vertex 25.5 17 2.5
    endloop
  endfacet
  facet normal 0 0 1
    outer loop
      vertex -10.975 2.55477 2.5
      vertex -25.5 17 2.5
      vertex -12.45 0 2.5
    endloop
  endfacet
  facet normal 0 0 1
    outer loop
      vertex -8.025 2.55477 2.5
      vertex -25.5 17 2.5
      vertex -10.975 2.55477 2.5
    endloop
  endfacet
  facet normal -0 0 1
    outer loop
      vertex 10.975 -2.55477 2.5
      vertex 25.5 -17 2.5
      vertex 12.45 0 2.5
    endloop
  endfacet
  facet normal -0 0 1
    outer loop
      vertex 8.025 -2.55477 2.5
      vertex 25.5 -17 2.5
      vertex 10.975 -2.55477 2.5
    endloop
  endfacet
  facet normal -0 0 1
    outer loop
      vertex -6.55 0 2.5
      vertex 8.025 -2.55477 2.5
      vertex 6.55 0 2.5
    endloop
  endfacet
  facet normal 0 0 1
    outer loop
      vertex -8.025 -2.55477 2.5
      vertex 8.025 -2.55477 2.5
      vertex -6.55 0 2.5
    endloop
  endfacet
  facet normal 0 0 1
    outer loop
      vertex 8.025 -2.55477 2.5
      vertex -8.025 -2.55477 2.5
      vertex 25.5 -17 2.5
    endloop
  endfacet
  facet normal 0 0 1
    outer loop
      vertex -25.5 -17 2.5
      vertex -8.025 -2.55477 2.5
      vertex -10.975 -2.55477 2.5
    endloop
  endfacet
  facet normal 0 0 1
    outer loop
      vertex -25.5 -17 2.5
      vertex -12.45 0 2.5
      vertex -25.5 17 2.5
    endloop
  endfacet
  facet normal 0 0 1
    outer loop
      vertex -8.025 -2.55477 2.5
      vertex -25.5 -17 2.5
      vertex 25.5 -17 2.5
    endloop
  endfacet
  facet normal 0 0 1
    outer loop
      vertex -12.45 0 2.5
      vertex -25.5 -17 2.5
      vertex -10.975 -2.55477 2.5
    endloop
  endfacet
  facet normal 0 0 -1
    outer loop
      vertex 25.5 -17 -2.5
      vertex 11.1 0 -2.5
      vertex 25.5 17 -2.5
    endloop
  endfacet
  facet normal 0 0 -1
    outer loop
      vertex 25.5 -17 -2.5
      vertex 11.0757 -0.277837 -2.5
      vertex 11.1 0 -2.5
    endloop
  endfacet
  facet normal 0 0 -1
    outer loop
      vertex 25.5 -17 -2.5
      vertex 11.0035 -0.547232 -2.5
      vertex 11.0757 -0.277837 -2.5
    endloop
  endfacet
  facet normal 0 0 -1
    outer loop
      vertex 25.5 -17 -2.5
      vertex 10.8856 -0.799999 -2.5
      vertex 11.0035 -0.547232 -2.5
    endloop
  endfacet
  facet normal 0 0 -1
    outer loop
      vertex 25.5 -17 -2.5
      vertex 10.7257 -1.02846 -2.5
      vertex 10.8856 -0.799999 -2.5
    endloop
  endfacet
  facet normal 0 0 -1
    outer loop
      vertex 25.5 -17 -2.5
      vertex 10.5285 -1.22567 -2.5
      vertex 10.7257 -1.02846 -2.5
    endloop
  endfacet
  facet normal 0 0 -1
    outer loop
      vertex 25.5 -17 -2.5
      vertex 10.3 -1.38564 -2.5
      vertex 10.5285 -1.22567 -2.5
    endloop
  endfacet
  facet normal 0 0 -1
    outer loop
      vertex 25.5 -17 -2.5
      vertex 10.0472 -1.50351 -2.5
      vertex 10.3 -1.38564 -2.5
    endloop
  endfacet
  facet normal 0 0 -1
    outer loop
      vertex 25.5 -17 -2.5
      vertex 9.77784 -1.57569 -2.5
      vertex 10.0472 -1.50351 -2.5
    endloop
  endfacet
  facet normal 0 0 -1
    outer loop
      vertex 25.5 -17 -2.5
      vertex 9.5 -1.6 -2.5
      vertex 9.77784 -1.57569 -2.5
    endloop
  endfacet
  facet normal 0 0 -1
    outer loop
      vertex 25.5 -17 -2.5
      vertex 9.22216 -1.57569 -2.5
      vertex 9.5 -1.6 -2.5
    endloop
  endfacet
  facet normal 0 0 -1
    outer loop
      vertex 25.5 -17 -2.5
      vertex 8.95277 -1.50351 -2.5
      vertex 9.22216 -1.57569 -2.5
    endloop
  endfacet
  facet normal 0 0 -1
    outer loop
      vertex -8.95277 -1.50351 -2.5
      vertex 8.95277 -1.50351 -2.5
      vertex 25.5 -17 -2.5
    endloop
  endfacet
  facet normal 0 0 -1
    outer loop
      vertex 8.95277 -1.50351 -2.5
      vertex -8.95277 -1.50351 -2.5
      vertex 8.7 -1.38564 -2.5
    endloop
  endfacet
  facet normal 0 0 -1
    outer loop
      vertex 7.92431 -0.277837 -2.5
      vertex -7.9 0 -2.5
      vertex 7.9 0 -2.5
    endloop
  endfacet
  facet normal 0 0 -1
    outer loop
      vertex -7.92431 -0.277837 -2.5
      vertex 7.92431 -0.277837 -2.5
      vertex 7.99649 -0.547232 -2.5
    endloop
  endfacet
  facet normal 0 0 -1
    outer loop
      vertex -7.99649 -0.547232 -2.5
      vertex 7.99649 -0.547232 -2.5
      vertex 8.11436 -0.799999 -2.5
    endloop
  endfacet
  facet normal 0 0 -1
    outer loop
      vertex -8.11436 -0.799999 -2.5
      vertex 8.11436 -0.799999 -2.5
      vertex 8.27433 -1.02846 -2.5
    endloop
  endfacet
  facet normal 0 0 -1
    outer loop
      vertex -8.27433 -1.02846 -2.5
      vertex 8.27433 -1.02846 -2.5
      vertex 8.47154 -1.22567 -2.5
    endloop
  endfacet
  facet normal 0 -0 -1
    outer loop
      vertex -8.7 -1.38564 -2.5
      vertex 8.7 -1.38564 -2.5
      vertex -8.95277 -1.50351 -2.5
    endloop
  endfacet
  facet normal 0 0 -1
    outer loop
      vertex 7.92431 -0.277837 -2.5
      vertex -7.92431 -0.277837 -2.5
      vertex -7.9 0 -2.5
    endloop
  endfacet
  facet normal 0 0 -1
    outer loop
      vertex 7.99649 -0.547232 -2.5
      vertex -7.99649 -0.547232 -2.5
      vertex -7.92431 -0.277837 -2.5
    endloop
  endfacet
  facet normal 0 0 -1
    outer loop
      vertex 8.11436 -0.799999 -2.5
      vertex -8.11436 -0.799999 -2.5
      vertex -7.99649 -0.547232 -2.5
    endloop
  endfacet
  facet normal 0 0 -1
    outer loop
      vertex 8.27433 -1.02846 -2.5
      vertex -8.27433 -1.02846 -2.5
      vertex -8.11436 -0.799999 -2.5
    endloop
  endfacet
  facet normal 0 0 -1
    outer loop
      vertex 8.47154 -1.22567 -2.5
      vertex -8.47154 -1.22567 -2.5
      vertex -8.27433 -1.02846 -2.5
    endloop
  endfacet
  facet normal -0 0 -1
    outer loop
      vertex 8.47154 -1.22567 -2.5
      vertex -8.7 -1.38564 -2.5
      vertex -8.47154 -1.22567 -2.5
    endloop
  endfacet
  facet normal 0 0 -1
    outer loop
      vertex 8.7 -1.38564 -2.5
      vertex -8.7 -1.38564 -2.5
      vertex 8.47154 -1.22567 -2.5
    endloop
  endfacet
  facet normal 0 0 -1
    outer loop
      vertex -25.5 -17 -2.5
      vertex -8.95277 -1.50351 -2.5
      vertex 25.5 -17 -2.5
    endloop
  endfacet
  facet normal 0 0 -1
    outer loop
      vertex -8.95277 -1.50351 -2.5
      vertex -25.5 -17 -2.5
      vertex -9.22216 -1.57569 -2.5
    endloop
  endfacet
  facet normal 0 0 -1
    outer loop
      vertex -9.22216 -1.57569 -2.5
      vertex -25.5 -17 -2.5
      vertex -9.5 -1.6 -2.5
    endloop
  endfacet
  facet normal -0 0 -1
    outer loop
      vertex -9.5 -1.6 -2.5
      vertex -25.5 -17 -2.5
      vertex -9.77784 -1.57569 -2.5
    endloop
  endfacet
  facet normal -0 0 -1
    outer loop
      vertex -11.0757 -0.277837 -2.5
      vertex -25.5 -17 -2.5
      vertex -11.1 0 -2.5
    endloop
  endfacet
  facet normal -0 0 -1
    outer loop
      vertex -11.0035 -0.547232 -2.5
      vertex -25.5 -17 -2.5
      vertex -11.0757 -0.277837 -2.5
    endloop
  endfacet
  facet normal -0 0 -1
    outer loop
      vertex -10.8856 -0.799999 -2.5
      vertex -25.5 -17 -2.5
      vertex -11.0035 -0.547232 -2.5
    endloop
  endfacet
  facet normal -0 0 -1
    outer loop
      vertex -10.7257 -1.02846 -2.5
      vertex -25.5 -17 -2.5
      vertex -10.8856 -0.799999 -2.5
    endloop
  endfacet
  facet normal -0 0 -1
    outer loop
      vertex -10.5285 -1.22567 -2.5
      vertex -25.5 -17 -2.5
      vertex -10.7257 -1.02846 -2.5
    endloop
  endfacet
  facet normal -0 0 -1
    outer loop
      vertex -10.3 -1.38564 -2.5
      vertex -25.5 -17 -2.5
      vertex -10.5285 -1.22567 -2.5
    endloop
  endfacet
  facet normal -0 0 -1
    outer loop
      vertex -10.0472 -1.50351 -2.5
      vertex -25.5 -17 -2.5
      vertex -10.3 -1.38564 -2.5
    endloop
  endfacet
  facet normal -0 0 -1
    outer loop
      vertex -9.77784 -1.57569 -2.5
      vertex -25.5 -17 -2.5
      vertex -10.0472 -1.50351 -2.5
    endloop
  endfacet
  facet normal 0 0 -1
    outer loop
      vertex 11.0757 0.277837 -2.5
      vertex 25.5 17 -2.5
      vertex 11.1 0 -2.5
    endloop
  endfacet
  facet normal 0 0 -1
    outer loop
      vertex 11.0035 0.547232 -2.5
      vertex 25.5 17 -2.5
      vertex 11.0757 0.277837 -2.5
    endloop
  endfacet
  facet normal 0 0 -1
    outer loop
      vertex 10.8856 0.799999 -2.5
      vertex 25.5 17 -2.5
      vertex 11.0035 0.547232 -2.5
    endloop
  endfacet
  facet normal 0 0 -1
    outer loop
      vertex 10.7257 1.02846 -2.5
      vertex 25.5 17 -2.5
      vertex 10.8856 0.799999 -2.5
    endloop
  endfacet
  facet normal 0 0 -1
    outer loop
      vertex 10.5285 1.22567 -2.5
      vertex 25.5 17 -2.5
      vertex 10.7257 1.02846 -2.5
    endloop
  endfacet
  facet normal 0 0 -1
    outer loop
      vertex 10.3 1.38564 -2.5
      vertex 25.5 17 -2.5
      vertex 10.5285 1.22567 -2.5
    endloop
  endfacet
  facet normal 0 0 -1
    outer loop
      vertex 10.0472 1.50351 -2.5
      vertex 25.5 17 -2.5
      vertex 10.3 1.38564 -2.5
    endloop
  endfacet
  facet normal 0 0 -1
    outer loop
      vertex 9.77784 1.57569 -2.5
      vertex 25.5 17 -2.5
      vertex 10.0472 1.50351 -2.5
    endloop
  endfacet
  facet normal 0 0 -1
    outer loop
      vertex 9.5 1.6 -2.5
      vertex 25.5 17 -2.5
      vertex 9.77784 1.57569 -2.5
    endloop
  endfacet
  facet normal 0 0 -1
    outer loop
      vertex 9.22216 1.57569 -2.5
      vertex 25.5 17 -2.5
      vertex 9.5 1.6 -2.5
    endloop
  endfacet
  facet normal 0 0 -1
    outer loop
      vertex 8.95277 1.50351 -2.5
      vertex 25.5 17 -2.5
      vertex 9.22216 1.57569 -2.5
    endloop
  endfacet
  facet normal 0 0 -1
    outer loop
      vertex -8.95277 1.50351 -2.5
      vertex 8.95277 1.50351 -2.5
      vertex 8.7 1.38564 -2.5
    endloop
  endfacet
  facet normal 0 0 -1
    outer loop
      vertex -8.7 1.38564 -2.5
      vertex 8.7 1.38564 -2.5
      vertex 8.47154 1.22567 -2.5
    endloop
  endfacet
  facet normal 0 0 -1
    outer loop
      vertex -7.9 0 -2.5
      vertex 7.92431 0.277837 -2.5
      vertex 7.9 0 -2.5
    endloop
  endfacet
  facet normal 0 0 -1
    outer loop
      vertex -7.92431 0.277837 -2.5
      vertex 7.92431 0.277837 -2.5
      vertex -7.9 0 -2.5
    endloop
  endfacet
  facet normal 0 0 -1
    outer loop
      vertex 7.92431 0.277837 -2.5
      vertex -7.92431 0.277837 -2.5
      vertex 7.99649 0.547232 -2.5
    endloop
  endfacet
  facet normal 0 0 -1
    outer loop
      vertex -7.99649 0.547232 -2.5
      vertex 7.99649 0.547232 -2.5
      vertex -7.92431 0.277837 -2.5
    endloop
  endfacet
  facet normal 0 0 -1
    outer loop
      vertex 7.99649 0.547232 -2.5
      vertex -7.99649 0.547232 -2.5
      vertex 8.11436 0.799999 -2.5
    endloop
  endfacet
  facet normal 0 0 -1
    outer loop
      vertex -8.11436 0.799999 -2.5
      vertex 8.11436 0.799999 -2.5
      vertex -7.99649 0.547232 -2.5
    endloop
  endfacet
  facet normal 0 0 -1
    outer loop
      vertex 8.11436 0.799999 -2.5
      vertex -8.11436 0.799999 -2.5
      vertex 8.27433 1.02846 -2.5
    endloop
  endfacet
  facet normal 0 0 -1
    outer loop
      vertex -8.27433 1.02846 -2.5
      vertex 8.27433 1.02846 -2.5
      vertex -8.11436 0.799999 -2.5
    endloop
  endfacet
  facet normal 0 0 -1
    outer loop
      vertex 8.27433 1.02846 -2.5
      vertex -8.27433 1.02846 -2.5
      vertex 8.47154 1.22567 -2.5
    endloop
  endfacet
  facet normal 0 0 -1
    outer loop
      vertex -8.47154 1.22567 -2.5
      vertex 8.47154 1.22567 -2.5
      vertex -8.27433 1.02846 -2.5
    endloop
  endfacet
  facet normal 0 0 -1
    outer loop
      vertex -8.7 1.38564 -2.5
      vertex 8.47154 1.22567 -2.5
      vertex -8.47154 1.22567 -2.5
    endloop
  endfacet
  facet normal 0 0 -1
    outer loop
      vertex 8.7 1.38564 -2.5
      vertex -8.7 1.38564 -2.5
      vertex -8.95277 1.50351 -2.5
    endloop
  endfacet
  facet normal 0 0 -1
    outer loop
      vertex 8.95277 1.50351 -2.5
      vertex -8.95277 1.50351 -2.5
      vertex 25.5 17 -2.5
    endloop
  endfacet
  facet normal 0 0 -1
    outer loop
      vertex -25.5 17 -2.5
      vertex -8.95277 1.50351 -2.5
      vertex -9.22216 1.57569 -2.5
    endloop
  endfacet
  facet normal 0 0 -1
    outer loop
      vertex -25.5 17 -2.5
      vertex -9.22216 1.57569 -2.5
      vertex -9.5 1.6 -2.5
    endloop
  endfacet
  facet normal 0 0 -1
    outer loop
      vertex -25.5 17 -2.5
      vertex -9.5 1.6 -2.5
      vertex -9.77784 1.57569 -2.5
    endloop
  endfacet
  facet normal 0 0 -1
    outer loop
      vertex -25.5 17 -2.5
      vertex -9.77784 1.57569 -2.5
      vertex -10.0472 1.50351 -2.5
    endloop
  endfacet
  facet normal 0 0 -1
    outer loop
      vertex -25.5 17 -2.5
      vertex -11.1 0 -2.5
      vertex -25.5 -17 -2.5
    endloop
  endfacet
  facet normal 0 0 -1
    outer loop
      vertex -11.1 0 -2.5
      vertex -25.5 17 -2.5
      vertex -11.0757 0.277837 -2.5
    endloop
  endfacet
  facet normal 0 0 -1
    outer loop
      vertex -11.0757 0.277837 -2.5
      vertex -25.5 17 -2.5
      vertex -11.0035 0.547232 -2.5
    endloop
  endfacet
  facet normal 0 0 -1
    outer loop
      vertex -11.0035 0.547232 -2.5
      vertex -25.5 17 -2.5
      vertex -10.8856 0.799999 -2.5
    endloop
  endfacet
  facet normal 0 0 -1
    outer loop
      vertex -8.95277 1.50351 -2.5
      vertex -25.5 17 -2.5
      vertex 25.5 17 -2.5
    endloop
  endfacet
  facet normal 0 0 -1
    outer loop
      vertex -10.3 1.38564 -2.5
      vertex -25.5 17 -2.5
      vertex -10.0472 1.50351 -2.5
    endloop
  endfacet
  facet normal 0 0 -1
    outer loop
      vertex -10.5285 1.22567 -2.5
      vertex -25.5 17 -2.5
      vertex -10.3 1.38564 -2.5
    endloop
  endfacet
  facet normal 0 0 -1
    outer loop
      vertex -10.7257 1.02846 -2.5
      vertex -25.5 17 -2.5
      vertex -10.5285 1.22567 -2.5
    endloop
  endfacet
  facet normal 0 0 -1
    outer loop
      vertex -10.8856 0.799999 -2.5
      vertex -25.5 17 -2.5
      vertex -10.7257 1.02846 -2.5
    endloop
  endfacet
  facet normal -1 0 0
    outer loop
      vertex -25.5 -17 -2.5
      vertex -25.5 17 2.5
      vertex -25.5 17 -2.5
    endloop
  endfacet
  facet normal -1 -0 0
    outer loop
      vertex -25.5 17 2.5
      vertex -25.5 -17 -2.5
      vertex -25.5 -17 2.5
    endloop
  endfacet
  facet normal 0 1 -0
    outer loop
      vertex 25.5 17 -2.5
      vertex -25.5 17 2.5
      vertex 25.5 17 2.5
    endloop
  endfacet
  facet normal 0 1 0
    outer loop
      vertex -25.5 17 2.5
      vertex 25.5 17 -2.5
      vertex -25.5 17 -2.5
    endloop
  endfacet
  facet normal 0 -1 0
    outer loop
      vertex -25.5 -17 -2.5
      vertex 25.5 -17 2.5
      vertex -25.5 -17 2.5
    endloop
  endfacet
  facet normal 0 -1 -0
    outer loop
      vertex 25.5 -17 2.5
      vertex -25.5 -17 -2.5
      vertex 25.5 -17 -2.5
    endloop
  endfacet
endsolid OpenSCAD_Model
