solid OpenSCAD_Model
  facet normal 1 -0 0
    outer loop
      vertex 17 -5.5 2.71
      vertex 17 5.5 2.5
      vertex 17 5.5 2.71
    endloop
  endfacet
  facet normal 1 0 0
    outer loop
      vertex 17 5.5 2.5
      vertex 17 -5.5 2.71
      vertex 17 -5.5 2.5
    endloop
  endfacet
  facet normal 0.573552 0.819169 -0
    outer loop
      vertex 15.9284 7.79813 2.5
      vertex 15.5 8.09808 2.71
      vertex 15.9284 7.79813 2.71
    endloop
  endfacet
  facet normal 0.573552 0.819169 0
    outer loop
      vertex 15.5 8.09808 2.71
      vertex 15.9284 7.79813 2.5
      vertex 15.5 8.09808 2.5
    endloop
  endfacet
  facet normal 0.906309 -0.422615 0
    outer loop
      vertex 16.5981 -7 2.71
      vertex 16.8191 -6.52606 2.5
      vertex 16.8191 -6.52606 2.71
    endloop
  endfacet
  facet normal 0.906309 -0.422615 0
    outer loop
      vertex 16.8191 -6.52606 2.5
      vertex 16.5981 -7 2.71
      vertex 16.5981 -7 2.5
    endloop
  endfacet
  facet normal 0.258769 -0.965939 0
    outer loop
      vertex 14.5209 -8.45442 2.5
      vertex 15.0261 -8.31908 2.71
      vertex 14.5209 -8.45442 2.71
    endloop
  endfacet
  facet normal 0.258769 -0.965939 0
    outer loop
      vertex 15.0261 -8.31908 2.71
      vertex 14.5209 -8.45442 2.5
      vertex 15.0261 -8.31908 2.5
    endloop
  endfacet
  facet normal 0.819099 0.573652 0
    outer loop
      vertex 16.5981 7 2.71
      vertex 16.2981 7.42836 2.5
      vertex 16.2981 7.42836 2.71
    endloop
  endfacet
  facet normal 0.819099 0.573652 0
    outer loop
      vertex 16.2981 7.42836 2.5
      vertex 16.5981 7 2.71
      vertex 16.5981 7 2.5
    endloop
  endfacet
  facet normal 0.422645 -0.906295 0
    outer loop
      vertex 15.0261 -8.31908 2.5
      vertex 15.5 -8.09808 2.71
      vertex 15.0261 -8.31908 2.71
    endloop
  endfacet
  facet normal 0.422645 -0.906295 0
    outer loop
      vertex 15.5 -8.09808 2.71
      vertex 15.0261 -8.31908 2.5
      vertex 15.5 -8.09808 2.5
    endloop
  endfacet
  facet normal 0.0871693 0.996194 -0
    outer loop
      vertex 14.5209 8.45442 2.5
      vertex 14 8.5 2.71
      vertex 14.5209 8.45442 2.71
    endloop
  endfacet
  facet normal 0.0871693 0.996194 0
    outer loop
      vertex 14 8.5 2.71
      vertex 14.5209 8.45442 2.5
      vertex 14 8.5 2.5
    endloop
  endfacet
  facet normal 0.258769 0.965939 -0
    outer loop
      vertex 15.0261 8.31908 2.5
      vertex 14.5209 8.45442 2.71
      vertex 15.0261 8.31908 2.71
    endloop
  endfacet
  facet normal 0.258769 0.965939 0
    outer loop
      vertex 14.5209 8.45442 2.71
      vertex 15.0261 8.31908 2.5
      vertex 14.5209 8.45442 2.5
    endloop
  endfacet
  facet normal -0.258769 -0.965939 0
    outer loop
      vertex -15.0261 -8.31908 2.5
      vertex -14.5209 -8.45442 2.71
      vertex -15.0261 -8.31908 2.71
    endloop
  endfacet
  facet normal -0.258769 -0.965939 -0
    outer loop
      vertex -14.5209 -8.45442 2.71
      vertex -15.0261 -8.31908 2.5
      vertex -14.5209 -8.45442 2.5
    endloop
  endfacet
  facet normal 0.422645 0.906295 -0
    outer loop
      vertex 15.5 8.09808 2.5
      vertex 15.0261 8.31908 2.71
      vertex 15.5 8.09808 2.71
    endloop
  endfacet
  facet normal 0.422645 0.906295 0
    outer loop
      vertex 15.0261 8.31908 2.71
      vertex 15.5 8.09808 2.5
      vertex 15.0261 8.31908 2.5
    endloop
  endfacet
  facet normal -1 0 0
    outer loop
      vertex -17 -5.5 2.5
      vertex -17 5.5 2.71
      vertex -17 5.5 2.5
    endloop
  endfacet
  facet normal -1 -0 0
    outer loop
      vertex -17 5.5 2.71
      vertex -17 -5.5 2.5
      vertex -17 -5.5 2.71
    endloop
  endfacet
  facet normal -0.258769 0.965939 0
    outer loop
      vertex -14.5209 8.45442 2.5
      vertex -15.0261 8.31908 2.71
      vertex -14.5209 8.45442 2.71
    endloop
  endfacet
  facet normal -0.258769 0.965939 0
    outer loop
      vertex -15.0261 8.31908 2.71
      vertex -14.5209 8.45442 2.5
      vertex -15.0261 8.31908 2.5
    endloop
  endfacet
  facet normal 0 1 -0
    outer loop
      vertex 14 8.5 2.5
      vertex -14 8.5 2.71
      vertex 14 8.5 2.71
    endloop
  endfacet
  facet normal 0 1 0
    outer loop
      vertex -14 8.5 2.71
      vertex 14 8.5 2.5
      vertex -14 8.5 2.5
    endloop
  endfacet
  facet normal -0.819099 -0.573652 0
    outer loop
      vertex -16.2981 -7.42836 2.5
      vertex -16.5981 -7 2.71
      vertex -16.5981 -7 2.5
    endloop
  endfacet
  facet normal -0.819099 -0.573652 0
    outer loop
      vertex -16.5981 -7 2.71
      vertex -16.2981 -7.42836 2.5
      vertex -16.2981 -7.42836 2.71
    endloop
  endfacet
  facet normal -0.906309 -0.422615 0
    outer loop
      vertex -16.5981 -7 2.5
      vertex -16.8191 -6.52606 2.71
      vertex -16.8191 -6.52606 2.5
    endloop
  endfacet
  facet normal -0.906309 -0.422615 0
    outer loop
      vertex -16.8191 -6.52606 2.71
      vertex -16.5981 -7 2.5
      vertex -16.5981 -7 2.71
    endloop
  endfacet
  facet normal 0 -1 0
    outer loop
      vertex -14 -8.5 2.5
      vertex 14 -8.5 2.71
      vertex -14 -8.5 2.71
    endloop
  endfacet
  facet normal 0 -1 -0
    outer loop
      vertex 14 -8.5 2.71
      vertex -14 -8.5 2.5
      vertex 14 -8.5 2.5
    endloop
  endfacet
  facet normal -0.996191 0.0872006 0
    outer loop
      vertex -17 5.5 2.5
      vertex -16.9544 6.02094 2.71
      vertex -16.9544 6.02094 2.5
    endloop
  endfacet
  facet normal -0.996191 0.0872006 0
    outer loop
      vertex -16.9544 6.02094 2.71
      vertex -17 5.5 2.5
      vertex -17 5.5 2.71
    endloop
  endfacet
  facet normal 0.0871693 -0.996194 0
    outer loop
      vertex 14 -8.5 2.5
      vertex 14.5209 -8.45442 2.71
      vertex 14 -8.5 2.71
    endloop
  endfacet
  facet normal 0.0871693 -0.996194 0
    outer loop
      vertex 14.5209 -8.45442 2.71
      vertex 14 -8.5 2.5
      vertex 14.5209 -8.45442 2.5
    endloop
  endfacet
  facet normal 0.573552 -0.819169 0
    outer loop
      vertex 15.5 -8.09808 2.5
      vertex 15.9284 -7.79813 2.71
      vertex 15.5 -8.09808 2.71
    endloop
  endfacet
  facet normal 0.573552 -0.819169 0
    outer loop
      vertex 15.9284 -7.79813 2.71
      vertex 15.5 -8.09808 2.5
      vertex 15.9284 -7.79813 2.5
    endloop
  endfacet
  facet normal -0.422645 0.906295 0
    outer loop
      vertex -15.0261 8.31908 2.5
      vertex -15.5 8.09808 2.71
      vertex -15.0261 8.31908 2.71
    endloop
  endfacet
  facet normal -0.422645 0.906295 0
    outer loop
      vertex -15.5 8.09808 2.71
      vertex -15.0261 8.31908 2.5
      vertex -15.5 8.09808 2.5
    endloop
  endfacet
  facet normal -0.707174 0.70704 0
    outer loop
      vertex -15.9284 7.79813 2.5
      vertex -16.2981 7.42836 2.71
      vertex -15.9284 7.79813 2.71
    endloop
  endfacet
  facet normal -0.707174 0.70704 0
    outer loop
      vertex -16.2981 7.42836 2.71
      vertex -15.9284 7.79813 2.5
      vertex -16.2981 7.42836 2.5
    endloop
  endfacet
  facet normal -0.707174 -0.70704 0
    outer loop
      vertex -16.2981 -7.42836 2.5
      vertex -15.9284 -7.79813 2.71
      vertex -16.2981 -7.42836 2.71
    endloop
  endfacet
  facet normal -0.707174 -0.70704 -0
    outer loop
      vertex -15.9284 -7.79813 2.71
      vertex -16.2981 -7.42836 2.5
      vertex -15.9284 -7.79813 2.5
    endloop
  endfacet
  facet normal -0.422645 -0.906295 0
    outer loop
      vertex -15.5 -8.09808 2.5
      vertex -15.0261 -8.31908 2.71
      vertex -15.5 -8.09808 2.71
    endloop
  endfacet
  facet normal -0.422645 -0.906295 -0
    outer loop
      vertex -15.0261 -8.31908 2.71
      vertex -15.5 -8.09808 2.5
      vertex -15.0261 -8.31908 2.5
    endloop
  endfacet
  facet normal -0 0 1
    outer loop
      vertex 16.0691 5.77606 2.71
      vertex 17 5.5 2.71
      vertex 16.9544 6.02094 2.71
    endloop
  endfacet
  facet normal 0 0 1
    outer loop
      vertex 17 5.5 2.71
      vertex 16.25 4.75 2.71
      vertex 17 -5.5 2.71
    endloop
  endfacet
  facet normal 0 0 1
    outer loop
      vertex 16.0691 5.77606 2.71
      vertex 16.9544 6.02094 2.71
      vertex 16.8191 6.52606 2.71
    endloop
  endfacet
  facet normal -0 0 1
    outer loop
      vertex 16.25 -4.75 2.71
      vertex 17 -5.5 2.71
      vertex 16.25 4.75 2.71
    endloop
  endfacet
  facet normal 0 0 1
    outer loop
      vertex 15.8481 6.25 2.71
      vertex 16.8191 6.52606 2.71
      vertex 16.5981 7 2.71
    endloop
  endfacet
  facet normal -0 0 1
    outer loop
      vertex 16.2044 -5.27094 2.71
      vertex 17 -5.5 2.71
      vertex 16.25 -4.75 2.71
    endloop
  endfacet
  facet normal 0 0 1
    outer loop
      vertex 15.5481 6.67836 2.71
      vertex 16.5981 7 2.71
      vertex 16.2981 7.42836 2.71
    endloop
  endfacet
  facet normal 0 0 1
    outer loop
      vertex 16.0691 -5.77606 2.71
      vertex 17 -5.5 2.71
      vertex 16.2044 -5.27094 2.71
    endloop
  endfacet
  facet normal 0 0 1
    outer loop
      vertex 17 -5.5 2.71
      vertex 16.0691 -5.77606 2.71
      vertex 16.9544 -6.02094 2.71
    endloop
  endfacet
  facet normal 0 0 1
    outer loop
      vertex 17 5.5 2.71
      vertex 16.2044 5.27094 2.71
      vertex 16.25 4.75 2.71
    endloop
  endfacet
  facet normal 0 0 1
    outer loop
      vertex 17 5.5 2.71
      vertex 16.0691 5.77606 2.71
      vertex 16.2044 5.27094 2.71
    endloop
  endfacet
  facet normal 0 0 1
    outer loop
      vertex 15.5481 6.67836 2.71
      vertex 16.2981 7.42836 2.71
      vertex 15.9284 7.79813 2.71
    endloop
  endfacet
  facet normal 0 0 1
    outer loop
      vertex 16.8191 6.52606 2.71
      vertex 15.8481 6.25 2.71
      vertex 16.0691 5.77606 2.71
    endloop
  endfacet
  facet normal 0 0 1
    outer loop
      vertex 16.5981 7 2.71
      vertex 15.5481 6.67836 2.71
      vertex 15.8481 6.25 2.71
    endloop
  endfacet
  facet normal 0 0 1
    outer loop
      vertex 15.1784 7.04813 2.71
      vertex 15.9284 7.79813 2.71
      vertex 15.5 8.09808 2.71
    endloop
  endfacet
  facet normal 0 0 1
    outer loop
      vertex 15.9284 7.79813 2.71
      vertex 15.1784 7.04813 2.71
      vertex 15.5481 6.67836 2.71
    endloop
  endfacet
  facet normal 0 0 1
    outer loop
      vertex 14.75 7.34808 2.71
      vertex 15.5 8.09808 2.71
      vertex 15.0261 8.31908 2.71
    endloop
  endfacet
  facet normal 0 0 1
    outer loop
      vertex 15.5 8.09808 2.71
      vertex 14.75 7.34808 2.71
      vertex 15.1784 7.04813 2.71
    endloop
  endfacet
  facet normal 0 0 1
    outer loop
      vertex 14.2761 7.56908 2.71
      vertex 15.0261 8.31908 2.71
      vertex 14.5209 8.45442 2.71
    endloop
  endfacet
  facet normal 0 0 1
    outer loop
      vertex 15.0261 8.31908 2.71
      vertex 14.2761 7.56908 2.71
      vertex 14.75 7.34808 2.71
    endloop
  endfacet
  facet normal 0 0 1
    outer loop
      vertex 14 8.5 2.71
      vertex 14.2761 7.56908 2.71
      vertex 14.5209 8.45442 2.71
    endloop
  endfacet
  facet normal 0 0 1
    outer loop
      vertex 14 8.5 2.71
      vertex 13.7709 7.70442 2.71
      vertex 14.2761 7.56908 2.71
    endloop
  endfacet
  facet normal 0 0 1
    outer loop
      vertex 14 8.5 2.71
      vertex 13.25 7.75 2.71
      vertex 13.7709 7.70442 2.71
    endloop
  endfacet
  facet normal 0 0 1
    outer loop
      vertex 14 8.5 2.71
      vertex -13.25 7.75 2.71
      vertex 13.25 7.75 2.71
    endloop
  endfacet
  facet normal -0 0 1
    outer loop
      vertex -14 8.5 2.71
      vertex -13.25 7.75 2.71
      vertex 14 8.5 2.71
    endloop
  endfacet
  facet normal 0 0 1
    outer loop
      vertex -14 8.5 2.71
      vertex -13.7709 7.70442 2.71
      vertex -13.25 7.75 2.71
    endloop
  endfacet
  facet normal 0 0 1
    outer loop
      vertex -14 8.5 2.71
      vertex -14.2761 7.56908 2.71
      vertex -13.7709 7.70442 2.71
    endloop
  endfacet
  facet normal -0 0 1
    outer loop
      vertex -14.5209 8.45442 2.71
      vertex -14.2761 7.56908 2.71
      vertex -14 8.5 2.71
    endloop
  endfacet
  facet normal -0 0 1
    outer loop
      vertex -15.0261 8.31908 2.71
      vertex -14.2761 7.56908 2.71
      vertex -14.5209 8.45442 2.71
    endloop
  endfacet
  facet normal 0 0 1
    outer loop
      vertex -14.2761 7.56908 2.71
      vertex -15.0261 8.31908 2.71
      vertex -14.75 7.34808 2.71
    endloop
  endfacet
  facet normal -0 0 1
    outer loop
      vertex -15.5 8.09808 2.71
      vertex -14.75 7.34808 2.71
      vertex -15.0261 8.31908 2.71
    endloop
  endfacet
  facet normal 0 0 1
    outer loop
      vertex -14.75 7.34808 2.71
      vertex -15.5 8.09808 2.71
      vertex -15.1784 7.04813 2.71
    endloop
  endfacet
  facet normal -0 0 1
    outer loop
      vertex -15.9284 7.79813 2.71
      vertex -15.1784 7.04813 2.71
      vertex -15.5 8.09808 2.71
    endloop
  endfacet
  facet normal 0 0 1
    outer loop
      vertex -15.1784 7.04813 2.71
      vertex -15.9284 7.79813 2.71
      vertex -15.5481 6.67836 2.71
    endloop
  endfacet
  facet normal -0 0 1
    outer loop
      vertex -16.2981 7.42836 2.71
      vertex -15.5481 6.67836 2.71
      vertex -15.9284 7.79813 2.71
    endloop
  endfacet
  facet normal -0 0 1
    outer loop
      vertex -16.5981 7 2.71
      vertex -15.5481 6.67836 2.71
      vertex -16.2981 7.42836 2.71
    endloop
  endfacet
  facet normal 0 0 1
    outer loop
      vertex -15.5481 6.67836 2.71
      vertex -16.5981 7 2.71
      vertex -15.8481 6.25 2.71
    endloop
  endfacet
  facet normal -0 0 1
    outer loop
      vertex -16.9544 6.02094 2.71
      vertex -16.0691 5.77606 2.71
      vertex -16.8191 6.52606 2.71
    endloop
  endfacet
  facet normal 0 0 1
    outer loop
      vertex -15.8481 6.25 2.71
      vertex -16.8191 6.52606 2.71
      vertex -16.0691 5.77606 2.71
    endloop
  endfacet
  facet normal -0 0 1
    outer loop
      vertex -16.8191 6.52606 2.71
      vertex -15.8481 6.25 2.71
      vertex -16.5981 7 2.71
    endloop
  endfacet
  facet normal 0 0 1
    outer loop
      vertex 16.9544 -6.02094 2.71
      vertex 16.0691 -5.77606 2.71
      vertex 16.8191 -6.52606 2.71
    endloop
  endfacet
  facet normal -0 0 1
    outer loop
      vertex 15.8481 -6.25 2.71
      vertex 16.8191 -6.52606 2.71
      vertex 16.0691 -5.77606 2.71
    endloop
  endfacet
  facet normal 0 0 1
    outer loop
      vertex 16.8191 -6.52606 2.71
      vertex 15.8481 -6.25 2.71
      vertex 16.5981 -7 2.71
    endloop
  endfacet
  facet normal -0 0 1
    outer loop
      vertex 15.5481 -6.67836 2.71
      vertex 16.5981 -7 2.71
      vertex 15.8481 -6.25 2.71
    endloop
  endfacet
  facet normal 0 0 1
    outer loop
      vertex 16.5981 -7 2.71
      vertex 15.5481 -6.67836 2.71
      vertex 16.2981 -7.42836 2.71
    endloop
  endfacet
  facet normal 0 0 1
    outer loop
      vertex 16.2981 -7.42836 2.71
      vertex 15.5481 -6.67836 2.71
      vertex 15.9284 -7.79813 2.71
    endloop
  endfacet
  facet normal -0 0 1
    outer loop
      vertex 15.1784 -7.04813 2.71
      vertex 15.9284 -7.79813 2.71
      vertex 15.5481 -6.67836 2.71
    endloop
  endfacet
  facet normal 0 0 1
    outer loop
      vertex 15.9284 -7.79813 2.71
      vertex 15.1784 -7.04813 2.71
      vertex 15.5 -8.09808 2.71
    endloop
  endfacet
  facet normal -0 0 1
    outer loop
      vertex 14.75 -7.34808 2.71
      vertex 15.5 -8.09808 2.71
      vertex 15.1784 -7.04813 2.71
    endloop
  endfacet
  facet normal 0 0 1
    outer loop
      vertex 15.5 -8.09808 2.71
      vertex 14.75 -7.34808 2.71
      vertex 15.0261 -8.31908 2.71
    endloop
  endfacet
  facet normal -0 0 1
    outer loop
      vertex 14.2761 -7.56908 2.71
      vertex 15.0261 -8.31908 2.71
      vertex 14.75 -7.34808 2.71
    endloop
  endfacet
  facet normal 0 0 1
    outer loop
      vertex 15.0261 -8.31908 2.71
      vertex 14.2761 -7.56908 2.71
      vertex 14.5209 -8.45442 2.71
    endloop
  endfacet
  facet normal 0 0 1
    outer loop
      vertex 14.2761 -7.56908 2.71
      vertex 14 -8.5 2.71
      vertex 14.5209 -8.45442 2.71
    endloop
  endfacet
  facet normal -0 0 1
    outer loop
      vertex 13.7709 -7.70442 2.71
      vertex 14 -8.5 2.71
      vertex 14.2761 -7.56908 2.71
    endloop
  endfacet
  facet normal -0 0 1
    outer loop
      vertex 13.25 -7.75 2.71
      vertex 14 -8.5 2.71
      vertex 13.7709 -7.70442 2.71
    endloop
  endfacet
  facet normal -0 0 1
    outer loop
      vertex -13.25 -7.75 2.71
      vertex 14 -8.5 2.71
      vertex 13.25 -7.75 2.71
    endloop
  endfacet
  facet normal 0 0 1
    outer loop
      vertex -13.25 -7.75 2.71
      vertex -14 -8.5 2.71
      vertex 14 -8.5 2.71
    endloop
  endfacet
  facet normal 0 0 1
    outer loop
      vertex -13.7709 -7.70442 2.71
      vertex -14 -8.5 2.71
      vertex -13.25 -7.75 2.71
    endloop
  endfacet
  facet normal 0 0 1
    outer loop
      vertex -14.2761 -7.56908 2.71
      vertex -14 -8.5 2.71
      vertex -13.7709 -7.70442 2.71
    endloop
  endfacet
  facet normal 0 0 1
    outer loop
      vertex -14.2761 -7.56908 2.71
      vertex -14.5209 -8.45442 2.71
      vertex -14 -8.5 2.71
    endloop
  endfacet
  facet normal 0 0 1
    outer loop
      vertex -15.0261 -8.31908 2.71
      vertex -14.2761 -7.56908 2.71
      vertex -14.75 -7.34808 2.71
    endloop
  endfacet
  facet normal 0 0 1
    outer loop
      vertex -14.2761 -7.56908 2.71
      vertex -15.0261 -8.31908 2.71
      vertex -14.5209 -8.45442 2.71
    endloop
  endfacet
  facet normal 0 0 1
    outer loop
      vertex -15.5 -8.09808 2.71
      vertex -14.75 -7.34808 2.71
      vertex -15.1784 -7.04813 2.71
    endloop
  endfacet
  facet normal 0 0 1
    outer loop
      vertex -14.75 -7.34808 2.71
      vertex -15.5 -8.09808 2.71
      vertex -15.0261 -8.31908 2.71
    endloop
  endfacet
  facet normal 0 0 1
    outer loop
      vertex -15.9284 -7.79813 2.71
      vertex -15.1784 -7.04813 2.71
      vertex -15.5481 -6.67836 2.71
    endloop
  endfacet
  facet normal 0 0 1
    outer loop
      vertex -16.5981 -7 2.71
      vertex -15.5481 -6.67836 2.71
      vertex -15.8481 -6.25 2.71
    endloop
  endfacet
  facet normal 0 0 1
    outer loop
      vertex -15.1784 -7.04813 2.71
      vertex -15.9284 -7.79813 2.71
      vertex -15.5 -8.09808 2.71
    endloop
  endfacet
  facet normal 0 0 1
    outer loop
      vertex -16.8191 -6.52606 2.71
      vertex -15.8481 -6.25 2.71
      vertex -16.0691 -5.77606 2.71
    endloop
  endfacet
  facet normal -0 0 1
    outer loop
      vertex -17 -5.5 2.71
      vertex -16.0691 -5.77606 2.71
      vertex -16.2044 -5.27094 2.71
    endloop
  endfacet
  facet normal 0 0 1
    outer loop
      vertex -15.5481 -6.67836 2.71
      vertex -16.2981 -7.42836 2.71
      vertex -15.9284 -7.79813 2.71
    endloop
  endfacet
  facet normal 0 0 1
    outer loop
      vertex -17 -5.5 2.71
      vertex -16.2044 -5.27094 2.71
      vertex -16.25 -4.75 2.71
    endloop
  endfacet
  facet normal 0 0 1
    outer loop
      vertex -16.25 4.75 2.71
      vertex -17 5.5 2.71
      vertex -16.25 -4.75 2.71
    endloop
  endfacet
  facet normal 0 0 1
    outer loop
      vertex -17 5.5 2.71
      vertex -16.0691 5.77606 2.71
      vertex -16.9544 6.02094 2.71
    endloop
  endfacet
  facet normal 0 0 1
    outer loop
      vertex -17 -5.5 2.71
      vertex -16.25 -4.75 2.71
      vertex -17 5.5 2.71
    endloop
  endfacet
  facet normal 0 0 1
    outer loop
      vertex -16.0691 5.77606 2.71
      vertex -17 5.5 2.71
      vertex -16.2044 5.27094 2.71
    endloop
  endfacet
  facet normal 0 0 1
    outer loop
      vertex -16.0691 -5.77606 2.71
      vertex -17 -5.5 2.71
      vertex -16.9544 -6.02094 2.71
    endloop
  endfacet
  facet normal 0 0 1
    outer loop
      vertex -16.2044 5.27094 2.71
      vertex -17 5.5 2.71
      vertex -16.25 4.75 2.71
    endloop
  endfacet
  facet normal 0 0 1
    outer loop
      vertex -15.5481 -6.67836 2.71
      vertex -16.5981 -7 2.71
      vertex -16.2981 -7.42836 2.71
    endloop
  endfacet
  facet normal 0 0 1
    outer loop
      vertex -15.8481 -6.25 2.71
      vertex -16.8191 -6.52606 2.71
      vertex -16.5981 -7 2.71
    endloop
  endfacet
  facet normal 0 0 1
    outer loop
      vertex -16.0691 -5.77606 2.71
      vertex -16.9544 -6.02094 2.71
      vertex -16.8191 -6.52606 2.71
    endloop
  endfacet
  facet normal -0.996191 -0.0872006 0
    outer loop
      vertex -16.9544 -6.02094 2.5
      vertex -17 -5.5 2.71
      vertex -17 -5.5 2.5
    endloop
  endfacet
  facet normal -0.996191 -0.0872006 0
    outer loop
      vertex -17 -5.5 2.71
      vertex -16.9544 -6.02094 2.5
      vertex -16.9544 -6.02094 2.71
    endloop
  endfacet
  facet normal -0.0871693 0.996194 0
    outer loop
      vertex -14 8.5 2.5
      vertex -14.5209 8.45442 2.71
      vertex -14 8.5 2.71
    endloop
  endfacet
  facet normal -0.0871693 0.996194 0
    outer loop
      vertex -14.5209 8.45442 2.71
      vertex -14 8.5 2.5
      vertex -14.5209 8.45442 2.5
    endloop
  endfacet
  facet normal 0 0 -1
    outer loop
      vertex 16.0691 -5.77606 2.5
      vertex 17 -5.5 2.5
      vertex 16.9544 -6.02094 2.5
    endloop
  endfacet
  facet normal 0 0 -1
    outer loop
      vertex 17 -5.5 2.5
      vertex 16.25 -4.75 2.5
      vertex 17 5.5 2.5
    endloop
  endfacet
  facet normal 0 0 -1
    outer loop
      vertex 16.0691 -5.77606 2.5
      vertex 16.9544 -6.02094 2.5
      vertex 16.8191 -6.52606 2.5
    endloop
  endfacet
  facet normal 0 0 -1
    outer loop
      vertex 16.25 4.75 2.5
      vertex 17 5.5 2.5
      vertex 16.25 -4.75 2.5
    endloop
  endfacet
  facet normal 0 0 -1
    outer loop
      vertex 15.8481 -6.25 2.5
      vertex 16.8191 -6.52606 2.5
      vertex 16.5981 -7 2.5
    endloop
  endfacet
  facet normal 0 0 -1
    outer loop
      vertex 16.2044 5.27094 2.5
      vertex 17 5.5 2.5
      vertex 16.25 4.75 2.5
    endloop
  endfacet
  facet normal 0 0 -1
    outer loop
      vertex 15.5481 -6.67836 2.5
      vertex 16.5981 -7 2.5
      vertex 16.2981 -7.42836 2.5
    endloop
  endfacet
  facet normal 0 0 -1
    outer loop
      vertex 16.0691 5.77606 2.5
      vertex 17 5.5 2.5
      vertex 16.2044 5.27094 2.5
    endloop
  endfacet
  facet normal 0 0 -1
    outer loop
      vertex 17 5.5 2.5
      vertex 16.0691 5.77606 2.5
      vertex 16.9544 6.02094 2.5
    endloop
  endfacet
  facet normal 0 0 -1
    outer loop
      vertex 17 -5.5 2.5
      vertex 16.2044 -5.27094 2.5
      vertex 16.25 -4.75 2.5
    endloop
  endfacet
  facet normal -0 0 -1
    outer loop
      vertex 17 -5.5 2.5
      vertex 16.0691 -5.77606 2.5
      vertex 16.2044 -5.27094 2.5
    endloop
  endfacet
  facet normal 0 0 -1
    outer loop
      vertex 15.5481 -6.67836 2.5
      vertex 16.2981 -7.42836 2.5
      vertex 15.9284 -7.79813 2.5
    endloop
  endfacet
  facet normal 0 0 -1
    outer loop
      vertex 16.8191 -6.52606 2.5
      vertex 15.8481 -6.25 2.5
      vertex 16.0691 -5.77606 2.5
    endloop
  endfacet
  facet normal 0 0 -1
    outer loop
      vertex 16.5981 -7 2.5
      vertex 15.5481 -6.67836 2.5
      vertex 15.8481 -6.25 2.5
    endloop
  endfacet
  facet normal 0 0 -1
    outer loop
      vertex 15.1784 -7.04813 2.5
      vertex 15.9284 -7.79813 2.5
      vertex 15.5 -8.09808 2.5
    endloop
  endfacet
  facet normal 0 0 -1
    outer loop
      vertex 15.9284 -7.79813 2.5
      vertex 15.1784 -7.04813 2.5
      vertex 15.5481 -6.67836 2.5
    endloop
  endfacet
  facet normal 0 0 -1
    outer loop
      vertex 14.75 -7.34808 2.5
      vertex 15.5 -8.09808 2.5
      vertex 15.0261 -8.31908 2.5
    endloop
  endfacet
  facet normal 0 0 -1
    outer loop
      vertex 15.5 -8.09808 2.5
      vertex 14.75 -7.34808 2.5
      vertex 15.1784 -7.04813 2.5
    endloop
  endfacet
  facet normal 0 0 -1
    outer loop
      vertex 14.2761 -7.56908 2.5
      vertex 15.0261 -8.31908 2.5
      vertex 14.5209 -8.45442 2.5
    endloop
  endfacet
  facet normal 0 0 -1
    outer loop
      vertex 15.0261 -8.31908 2.5
      vertex 14.2761 -7.56908 2.5
      vertex 14.75 -7.34808 2.5
    endloop
  endfacet
  facet normal 0 0 -1
    outer loop
      vertex 14 -8.5 2.5
      vertex 14.2761 -7.56908 2.5
      vertex 14.5209 -8.45442 2.5
    endloop
  endfacet
  facet normal 0 0 -1
    outer loop
      vertex 14 -8.5 2.5
      vertex 13.7709 -7.70442 2.5
      vertex 14.2761 -7.56908 2.5
    endloop
  endfacet
  facet normal 0 0 -1
    outer loop
      vertex 14 -8.5 2.5
      vertex 13.25 -7.75 2.5
      vertex 13.7709 -7.70442 2.5
    endloop
  endfacet
  facet normal 0 0 -1
    outer loop
      vertex 14 -8.5 2.5
      vertex -13.25 -7.75 2.5
      vertex 13.25 -7.75 2.5
    endloop
  endfacet
  facet normal 0 0 -1
    outer loop
      vertex -14 -8.5 2.5
      vertex -13.25 -7.75 2.5
      vertex 14 -8.5 2.5
    endloop
  endfacet
  facet normal 0 0 -1
    outer loop
      vertex -14 -8.5 2.5
      vertex -13.7709 -7.70442 2.5
      vertex -13.25 -7.75 2.5
    endloop
  endfacet
  facet normal 0 0 -1
    outer loop
      vertex -14 -8.5 2.5
      vertex -14.2761 -7.56908 2.5
      vertex -13.7709 -7.70442 2.5
    endloop
  endfacet
  facet normal 0 0 -1
    outer loop
      vertex -14.5209 -8.45442 2.5
      vertex -14.2761 -7.56908 2.5
      vertex -14 -8.5 2.5
    endloop
  endfacet
  facet normal 0 0 -1
    outer loop
      vertex -15.0261 -8.31908 2.5
      vertex -14.2761 -7.56908 2.5
      vertex -14.5209 -8.45442 2.5
    endloop
  endfacet
  facet normal -0 0 -1
    outer loop
      vertex -14.2761 -7.56908 2.5
      vertex -15.0261 -8.31908 2.5
      vertex -14.75 -7.34808 2.5
    endloop
  endfacet
  facet normal 0 0 -1
    outer loop
      vertex -15.5 -8.09808 2.5
      vertex -14.75 -7.34808 2.5
      vertex -15.0261 -8.31908 2.5
    endloop
  endfacet
  facet normal -0 0 -1
    outer loop
      vertex -14.75 -7.34808 2.5
      vertex -15.5 -8.09808 2.5
      vertex -15.1784 -7.04813 2.5
    endloop
  endfacet
  facet normal 0 0 -1
    outer loop
      vertex -15.9284 -7.79813 2.5
      vertex -15.1784 -7.04813 2.5
      vertex -15.5 -8.09808 2.5
    endloop
  endfacet
  facet normal -0 0 -1
    outer loop
      vertex -15.1784 -7.04813 2.5
      vertex -15.9284 -7.79813 2.5
      vertex -15.5481 -6.67836 2.5
    endloop
  endfacet
  facet normal 0 0 -1
    outer loop
      vertex -16.2981 -7.42836 2.5
      vertex -15.5481 -6.67836 2.5
      vertex -15.9284 -7.79813 2.5
    endloop
  endfacet
  facet normal 0 0 -1
    outer loop
      vertex -16.5981 -7 2.5
      vertex -15.5481 -6.67836 2.5
      vertex -16.2981 -7.42836 2.5
    endloop
  endfacet
  facet normal -0 0 -1
    outer loop
      vertex -15.5481 -6.67836 2.5
      vertex -16.5981 -7 2.5
      vertex -15.8481 -6.25 2.5
    endloop
  endfacet
  facet normal 0 0 -1
    outer loop
      vertex -16.9544 -6.02094 2.5
      vertex -16.0691 -5.77606 2.5
      vertex -16.8191 -6.52606 2.5
    endloop
  endfacet
  facet normal -0 0 -1
    outer loop
      vertex -15.8481 -6.25 2.5
      vertex -16.8191 -6.52606 2.5
      vertex -16.0691 -5.77606 2.5
    endloop
  endfacet
  facet normal 0 0 -1
    outer loop
      vertex -16.8191 -6.52606 2.5
      vertex -15.8481 -6.25 2.5
      vertex -16.5981 -7 2.5
    endloop
  endfacet
  facet normal -0 0 -1
    outer loop
      vertex 16.9544 6.02094 2.5
      vertex 16.0691 5.77606 2.5
      vertex 16.8191 6.52606 2.5
    endloop
  endfacet
  facet normal 0 0 -1
    outer loop
      vertex 15.8481 6.25 2.5
      vertex 16.8191 6.52606 2.5
      vertex 16.0691 5.77606 2.5
    endloop
  endfacet
  facet normal -0 0 -1
    outer loop
      vertex 16.8191 6.52606 2.5
      vertex 15.8481 6.25 2.5
      vertex 16.5981 7 2.5
    endloop
  endfacet
  facet normal 0 0 -1
    outer loop
      vertex 15.5481 6.67836 2.5
      vertex 16.5981 7 2.5
      vertex 15.8481 6.25 2.5
    endloop
  endfacet
  facet normal -0 0 -1
    outer loop
      vertex 16.5981 7 2.5
      vertex 15.5481 6.67836 2.5
      vertex 16.2981 7.42836 2.5
    endloop
  endfacet
  facet normal -0 0 -1
    outer loop
      vertex 16.2981 7.42836 2.5
      vertex 15.5481 6.67836 2.5
      vertex 15.9284 7.79813 2.5
    endloop
  endfacet
  facet normal 0 0 -1
    outer loop
      vertex 15.1784 7.04813 2.5
      vertex 15.9284 7.79813 2.5
      vertex 15.5481 6.67836 2.5
    endloop
  endfacet
  facet normal -0 0 -1
    outer loop
      vertex 15.9284 7.79813 2.5
      vertex 15.1784 7.04813 2.5
      vertex 15.5 8.09808 2.5
    endloop
  endfacet
  facet normal 0 0 -1
    outer loop
      vertex 14.75 7.34808 2.5
      vertex 15.5 8.09808 2.5
      vertex 15.1784 7.04813 2.5
    endloop
  endfacet
  facet normal -0 0 -1
    outer loop
      vertex 15.5 8.09808 2.5
      vertex 14.75 7.34808 2.5
      vertex 15.0261 8.31908 2.5
    endloop
  endfacet
  facet normal 0 0 -1
    outer loop
      vertex 14.2761 7.56908 2.5
      vertex 15.0261 8.31908 2.5
      vertex 14.75 7.34808 2.5
    endloop
  endfacet
  facet normal -0 0 -1
    outer loop
      vertex 15.0261 8.31908 2.5
      vertex 14.2761 7.56908 2.5
      vertex 14.5209 8.45442 2.5
    endloop
  endfacet
  facet normal 0 0 -1
    outer loop
      vertex 14.2761 7.56908 2.5
      vertex 14 8.5 2.5
      vertex 14.5209 8.45442 2.5
    endloop
  endfacet
  facet normal 0 0 -1
    outer loop
      vertex 13.7709 7.70442 2.5
      vertex 14 8.5 2.5
      vertex 14.2761 7.56908 2.5
    endloop
  endfacet
  facet normal 0 0 -1
    outer loop
      vertex 13.25 7.75 2.5
      vertex 14 8.5 2.5
      vertex 13.7709 7.70442 2.5
    endloop
  endfacet
  facet normal 0 0 -1
    outer loop
      vertex -13.25 7.75 2.5
      vertex 14 8.5 2.5
      vertex 13.25 7.75 2.5
    endloop
  endfacet
  facet normal 0 0 -1
    outer loop
      vertex -13.25 7.75 2.5
      vertex -14 8.5 2.5
      vertex 14 8.5 2.5
    endloop
  endfacet
  facet normal 0 0 -1
    outer loop
      vertex -13.7709 7.70442 2.5
      vertex -14 8.5 2.5
      vertex -13.25 7.75 2.5
    endloop
  endfacet
  facet normal 0 0 -1
    outer loop
      vertex -14.2761 7.56908 2.5
      vertex -14 8.5 2.5
      vertex -13.7709 7.70442 2.5
    endloop
  endfacet
  facet normal 0 0 -1
    outer loop
      vertex -14.2761 7.56908 2.5
      vertex -14.5209 8.45442 2.5
      vertex -14 8.5 2.5
    endloop
  endfacet
  facet normal 0 0 -1
    outer loop
      vertex -15.0261 8.31908 2.5
      vertex -14.2761 7.56908 2.5
      vertex -14.75 7.34808 2.5
    endloop
  endfacet
  facet normal 0 0 -1
    outer loop
      vertex -14.2761 7.56908 2.5
      vertex -15.0261 8.31908 2.5
      vertex -14.5209 8.45442 2.5
    endloop
  endfacet
  facet normal 0 0 -1
    outer loop
      vertex -15.5 8.09808 2.5
      vertex -14.75 7.34808 2.5
      vertex -15.1784 7.04813 2.5
    endloop
  endfacet
  facet normal 0 0 -1
    outer loop
      vertex -14.75 7.34808 2.5
      vertex -15.5 8.09808 2.5
      vertex -15.0261 8.31908 2.5
    endloop
  endfacet
  facet normal 0 0 -1
    outer loop
      vertex -15.9284 7.79813 2.5
      vertex -15.1784 7.04813 2.5
      vertex -15.5481 6.67836 2.5
    endloop
  endfacet
  facet normal 0 0 -1
    outer loop
      vertex -16.5981 7 2.5
      vertex -15.5481 6.67836 2.5
      vertex -15.8481 6.25 2.5
    endloop
  endfacet
  facet normal 0 0 -1
    outer loop
      vertex -15.1784 7.04813 2.5
      vertex -15.9284 7.79813 2.5
      vertex -15.5 8.09808 2.5
    endloop
  endfacet
  facet normal 0 0 -1
    outer loop
      vertex -16.8191 6.52606 2.5
      vertex -15.8481 6.25 2.5
      vertex -16.0691 5.77606 2.5
    endloop
  endfacet
  facet normal 0 0 -1
    outer loop
      vertex -17 5.5 2.5
      vertex -16.0691 5.77606 2.5
      vertex -16.2044 5.27094 2.5
    endloop
  endfacet
  facet normal 0 0 -1
    outer loop
      vertex -15.5481 6.67836 2.5
      vertex -16.2981 7.42836 2.5
      vertex -15.9284 7.79813 2.5
    endloop
  endfacet
  facet normal 0 0 -1
    outer loop
      vertex -17 5.5 2.5
      vertex -16.2044 5.27094 2.5
      vertex -16.25 4.75 2.5
    endloop
  endfacet
  facet normal -0 0 -1
    outer loop
      vertex -16.25 -4.75 2.5
      vertex -17 -5.5 2.5
      vertex -16.25 4.75 2.5
    endloop
  endfacet
  facet normal 0 0 -1
    outer loop
      vertex -17 -5.5 2.5
      vertex -16.0691 -5.77606 2.5
      vertex -16.9544 -6.02094 2.5
    endloop
  endfacet
  facet normal 0 0 -1
    outer loop
      vertex -17 5.5 2.5
      vertex -16.25 4.75 2.5
      vertex -17 -5.5 2.5
    endloop
  endfacet
  facet normal 0 0 -1
    outer loop
      vertex -16.0691 -5.77606 2.5
      vertex -17 -5.5 2.5
      vertex -16.2044 -5.27094 2.5
    endloop
  endfacet
  facet normal -0 0 -1
    outer loop
      vertex -16.0691 5.77606 2.5
      vertex -17 5.5 2.5
      vertex -16.9544 6.02094 2.5
    endloop
  endfacet
  facet normal -0 0 -1
    outer loop
      vertex -16.2044 -5.27094 2.5
      vertex -17 -5.5 2.5
      vertex -16.25 -4.75 2.5
    endloop
  endfacet
  facet normal 0 0 -1
    outer loop
      vertex -15.5481 6.67836 2.5
      vertex -16.5981 7 2.5
      vertex -16.2981 7.42836 2.5
    endloop
  endfacet
  facet normal 0 0 -1
    outer loop
      vertex -15.8481 6.25 2.5
      vertex -16.8191 6.52606 2.5
      vertex -16.5981 7 2.5
    endloop
  endfacet
  facet normal 0 0 -1
    outer loop
      vertex -16.0691 5.77606 2.5
      vertex -16.9544 6.02094 2.5
      vertex -16.8191 6.52606 2.5
    endloop
  endfacet
  facet normal -0.819099 0.573652 0
    outer loop
      vertex -16.5981 7 2.5
      vertex -16.2981 7.42836 2.71
      vertex -16.2981 7.42836 2.5
    endloop
  endfacet
  facet normal -0.819099 0.573652 0
    outer loop
      vertex -16.2981 7.42836 2.71
      vertex -16.5981 7 2.5
      vertex -16.5981 7 2.71
    endloop
  endfacet
  facet normal -0.965948 0.258736 0
    outer loop
      vertex -16.9544 6.02094 2.5
      vertex -16.8191 6.52606 2.71
      vertex -16.8191 6.52606 2.5
    endloop
  endfacet
  facet normal -0.965948 0.258736 0
    outer loop
      vertex -16.8191 6.52606 2.71
      vertex -16.9544 6.02094 2.5
      vertex -16.9544 6.02094 2.71
    endloop
  endfacet
  facet normal 0.965948 0.258736 0
    outer loop
      vertex 16.9544 6.02094 2.71
      vertex 16.8191 6.52606 2.5
      vertex 16.8191 6.52606 2.71
    endloop
  endfacet
  facet normal 0.965948 0.258736 0
    outer loop
      vertex 16.8191 6.52606 2.5
      vertex 16.9544 6.02094 2.71
      vertex 16.9544 6.02094 2.5
    endloop
  endfacet
  facet normal -0.573552 -0.819169 0
    outer loop
      vertex -15.9284 -7.79813 2.5
      vertex -15.5 -8.09808 2.71
      vertex -15.9284 -7.79813 2.71
    endloop
  endfacet
  facet normal -0.573552 -0.819169 -0
    outer loop
      vertex -15.5 -8.09808 2.71
      vertex -15.9284 -7.79813 2.5
      vertex -15.5 -8.09808 2.5
    endloop
  endfacet
  facet normal 0.996191 0.0872006 0
    outer loop
      vertex 17 5.5 2.71
      vertex 16.9544 6.02094 2.5
      vertex 16.9544 6.02094 2.71
    endloop
  endfacet
  facet normal 0.996191 0.0872006 0
    outer loop
      vertex 16.9544 6.02094 2.5
      vertex 17 5.5 2.71
      vertex 17 5.5 2.5
    endloop
  endfacet
  facet normal -0.906309 0.422615 0
    outer loop
      vertex -16.8191 6.52606 2.5
      vertex -16.5981 7 2.71
      vertex -16.5981 7 2.5
    endloop
  endfacet
  facet normal -0.906309 0.422615 0
    outer loop
      vertex -16.5981 7 2.71
      vertex -16.8191 6.52606 2.5
      vertex -16.8191 6.52606 2.71
    endloop
  endfacet
  facet normal -0.573552 0.819169 0
    outer loop
      vertex -15.5 8.09808 2.5
      vertex -15.9284 7.79813 2.71
      vertex -15.5 8.09808 2.71
    endloop
  endfacet
  facet normal -0.573552 0.819169 0
    outer loop
      vertex -15.9284 7.79813 2.71
      vertex -15.5 8.09808 2.5
      vertex -15.9284 7.79813 2.5
    endloop
  endfacet
  facet normal 0.707174 -0.70704 0
    outer loop
      vertex 15.9284 -7.79813 2.5
      vertex 16.2981 -7.42836 2.71
      vertex 15.9284 -7.79813 2.71
    endloop
  endfacet
  facet normal 0.707174 -0.70704 0
    outer loop
      vertex 16.2981 -7.42836 2.71
      vertex 15.9284 -7.79813 2.5
      vertex 16.2981 -7.42836 2.5
    endloop
  endfacet
  facet normal -0.0871693 -0.996194 0
    outer loop
      vertex -14.5209 -8.45442 2.5
      vertex -14 -8.5 2.71
      vertex -14.5209 -8.45442 2.71
    endloop
  endfacet
  facet normal -0.0871693 -0.996194 -0
    outer loop
      vertex -14 -8.5 2.71
      vertex -14.5209 -8.45442 2.5
      vertex -14 -8.5 2.5
    endloop
  endfacet
  facet normal -0.965948 -0.258736 0
    outer loop
      vertex -16.8191 -6.52606 2.5
      vertex -16.9544 -6.02094 2.71
      vertex -16.9544 -6.02094 2.5
    endloop
  endfacet
  facet normal -0.965948 -0.258736 0
    outer loop
      vertex -16.9544 -6.02094 2.71
      vertex -16.8191 -6.52606 2.5
      vertex -16.8191 -6.52606 2.71
    endloop
  endfacet
  facet normal 0.965948 -0.258736 0
    outer loop
      vertex 16.8191 -6.52606 2.71
      vertex 16.9544 -6.02094 2.5
      vertex 16.9544 -6.02094 2.71
    endloop
  endfacet
  facet normal 0.965948 -0.258736 0
    outer loop
      vertex 16.9544 -6.02094 2.5
      vertex 16.8191 -6.52606 2.71
      vertex 16.8191 -6.52606 2.5
    endloop
  endfacet
  facet normal 0.906309 0.422615 0
    outer loop
      vertex 16.8191 6.52606 2.71
      vertex 16.5981 7 2.5
      vertex 16.5981 7 2.71
    endloop
  endfacet
  facet normal 0.906309 0.422615 0
    outer loop
      vertex 16.5981 7 2.5
      vertex 16.8191 6.52606 2.71
      vertex 16.8191 6.52606 2.5
    endloop
  endfacet
  facet normal 0.707174 0.70704 -0
    outer loop
      vertex 16.2981 7.42836 2.5
      vertex 15.9284 7.79813 2.71
      vertex 16.2981 7.42836 2.71
    endloop
  endfacet
  facet normal 0.707174 0.70704 0
    outer loop
      vertex 15.9284 7.79813 2.71
      vertex 16.2981 7.42836 2.5
      vertex 15.9284 7.79813 2.5
    endloop
  endfacet
  facet normal 0.819099 -0.573652 0
    outer loop
      vertex 16.2981 -7.42836 2.71
      vertex 16.5981 -7 2.5
      vertex 16.5981 -7 2.71
    endloop
  endfacet
  facet normal 0.819099 -0.573652 0
    outer loop
      vertex 16.5981 -7 2.5
      vertex 16.2981 -7.42836 2.71
      vertex 16.2981 -7.42836 2.5
    endloop
  endfacet
  facet normal 0.996191 -0.0872006 0
    outer loop
      vertex 16.9544 -6.02094 2.71
      vertex 17 -5.5 2.5
      vertex 17 -5.5 2.71
    endloop
  endfacet
  facet normal 0.996191 -0.0872006 0
    outer loop
      vertex 17 -5.5 2.5
      vertex 16.9544 -6.02094 2.71
      vertex 16.9544 -6.02094 2.5
    endloop
  endfacet
  facet normal 0.258769 0.965939 -0
    outer loop
      vertex -13.7709 -7.70442 2.5
      vertex -14.2761 -7.56908 2.71
      vertex -13.7709 -7.70442 2.71
    endloop
  endfacet
  facet normal 0.258769 0.965939 0
    outer loop
      vertex -14.2761 -7.56908 2.71
      vertex -13.7709 -7.70442 2.5
      vertex -14.2761 -7.56908 2.5
    endloop
  endfacet
  facet normal -0.422645 0.906295 0
    outer loop
      vertex 14.75 -7.34808 2.5
      vertex 14.2761 -7.56908 2.71
      vertex 14.75 -7.34808 2.71
    endloop
  endfacet
  facet normal -0.422645 0.906295 0
    outer loop
      vertex 14.2761 -7.56908 2.71
      vertex 14.75 -7.34808 2.5
      vertex 14.2761 -7.56908 2.5
    endloop
  endfacet
  facet normal 0.996191 0.0872006 0
    outer loop
      vertex -16.2044 -5.27094 2.71
      vertex -16.25 -4.75 2.5
      vertex -16.25 -4.75 2.71
    endloop
  endfacet
  facet normal 0.996191 0.0872006 0
    outer loop
      vertex -16.25 -4.75 2.5
      vertex -16.2044 -5.27094 2.71
      vertex -16.2044 -5.27094 2.5
    endloop
  endfacet
  facet normal -0.996191 -0.0872006 0
    outer loop
      vertex 16.25 4.75 2.5
      vertex 16.2044 5.27094 2.71
      vertex 16.2044 5.27094 2.5
    endloop
  endfacet
  facet normal -0.996191 -0.0872006 0
    outer loop
      vertex 16.2044 5.27094 2.71
      vertex 16.25 4.75 2.5
      vertex 16.25 4.75 2.71
    endloop
  endfacet
  facet normal -0.422645 -0.906295 0
    outer loop
      vertex 14.2761 7.56908 2.5
      vertex 14.75 7.34808 2.71
      vertex 14.2761 7.56908 2.71
    endloop
  endfacet
  facet normal -0.422645 -0.906295 -0
    outer loop
      vertex 14.75 7.34808 2.71
      vertex 14.2761 7.56908 2.5
      vertex 14.75 7.34808 2.5
    endloop
  endfacet
  facet normal -0.707174 0.70704 0
    outer loop
      vertex 15.1784 -7.04813 2.5
      vertex 15.5481 -6.67836 2.71
      vertex 15.5481 -6.67836 2.5
    endloop
  endfacet
  facet normal -0.707174 0.70704 0
    outer loop
      vertex 15.5481 -6.67836 2.71
      vertex 15.1784 -7.04813 2.5
      vertex 15.1784 -7.04813 2.71
    endloop
  endfacet
  facet normal 0.906309 0.422615 0
    outer loop
      vertex -15.8481 -6.25 2.71
      vertex -16.0691 -5.77606 2.5
      vertex -16.0691 -5.77606 2.71
    endloop
  endfacet
  facet normal 0.906309 0.422615 0
    outer loop
      vertex -16.0691 -5.77606 2.5
      vertex -15.8481 -6.25 2.71
      vertex -15.8481 -6.25 2.5
    endloop
  endfacet
  facet normal -0.906309 -0.422615 0
    outer loop
      vertex 16.0691 5.77606 2.5
      vertex 15.8481 6.25 2.71
      vertex 15.8481 6.25 2.5
    endloop
  endfacet
  facet normal -0.906309 -0.422615 0
    outer loop
      vertex 15.8481 6.25 2.71
      vertex 16.0691 5.77606 2.5
      vertex 16.0691 5.77606 2.71
    endloop
  endfacet
  facet normal 0.0871693 0.996194 -0
    outer loop
      vertex -13.25 -7.75 2.5
      vertex -13.7709 -7.70442 2.71
      vertex -13.25 -7.75 2.71
    endloop
  endfacet
  facet normal 0.0871693 0.996194 0
    outer loop
      vertex -13.7709 -7.70442 2.71
      vertex -13.25 -7.75 2.5
      vertex -13.7709 -7.70442 2.5
    endloop
  endfacet
  facet normal 0.422645 0.906295 -0
    outer loop
      vertex -14.2761 -7.56908 2.5
      vertex -14.75 -7.34808 2.71
      vertex -14.2761 -7.56908 2.71
    endloop
  endfacet
  facet normal 0.422645 0.906295 0
    outer loop
      vertex -14.75 -7.34808 2.71
      vertex -14.2761 -7.56908 2.5
      vertex -14.75 -7.34808 2.5
    endloop
  endfacet
  facet normal 0 1 -0
    outer loop
      vertex 13.25 -7.75 2.5
      vertex -13.25 -7.75 2.71
      vertex 13.25 -7.75 2.71
    endloop
  endfacet
  facet normal 0 1 0
    outer loop
      vertex -13.25 -7.75 2.71
      vertex 13.25 -7.75 2.5
      vertex -13.25 -7.75 2.5
    endloop
  endfacet
  facet normal 0.0871693 -0.996194 0
    outer loop
      vertex -13.7709 7.70442 2.5
      vertex -13.25 7.75 2.71
      vertex -13.7709 7.70442 2.71
    endloop
  endfacet
  facet normal 0.0871693 -0.996194 0
    outer loop
      vertex -13.25 7.75 2.71
      vertex -13.7709 7.70442 2.5
      vertex -13.25 7.75 2.5
    endloop
  endfacet
  facet normal 0 -1 0
    outer loop
      vertex -13.25 7.75 2.5
      vertex 13.25 7.75 2.71
      vertex -13.25 7.75 2.71
    endloop
  endfacet
  facet normal 0 -1 -0
    outer loop
      vertex 13.25 7.75 2.71
      vertex -13.25 7.75 2.5
      vertex 13.25 7.75 2.5
    endloop
  endfacet
  facet normal -0.573552 -0.819169 0
    outer loop
      vertex 14.75 7.34808 2.5
      vertex 15.1784 7.04813 2.71
      vertex 14.75 7.34808 2.71
    endloop
  endfacet
  facet normal -0.573552 -0.819169 -0
    outer loop
      vertex 15.1784 7.04813 2.71
      vertex 14.75 7.34808 2.5
      vertex 15.1784 7.04813 2.5
    endloop
  endfacet
  facet normal 0.819099 0.573652 0
    outer loop
      vertex -15.5481 -6.67836 2.71
      vertex -15.8481 -6.25 2.5
      vertex -15.8481 -6.25 2.71
    endloop
  endfacet
  facet normal 0.819099 0.573652 0
    outer loop
      vertex -15.8481 -6.25 2.5
      vertex -15.5481 -6.67836 2.71
      vertex -15.5481 -6.67836 2.5
    endloop
  endfacet
  facet normal -1 0 0
    outer loop
      vertex 16.25 -4.75 2.5
      vertex 16.25 4.75 2.71
      vertex 16.25 4.75 2.5
    endloop
  endfacet
  facet normal -1 -0 0
    outer loop
      vertex 16.25 4.75 2.71
      vertex 16.25 -4.75 2.5
      vertex 16.25 -4.75 2.71
    endloop
  endfacet
  facet normal -0.906309 0.422615 0
    outer loop
      vertex 15.8481 -6.25 2.5
      vertex 16.0691 -5.77606 2.71
      vertex 16.0691 -5.77606 2.5
    endloop
  endfacet
  facet normal -0.906309 0.422615 0
    outer loop
      vertex 16.0691 -5.77606 2.71
      vertex 15.8481 -6.25 2.5
      vertex 15.8481 -6.25 2.71
    endloop
  endfacet
  facet normal -0.707174 -0.70704 0
    outer loop
      vertex 15.5481 6.67836 2.5
      vertex 15.1784 7.04813 2.71
      vertex 15.1784 7.04813 2.5
    endloop
  endfacet
  facet normal -0.707174 -0.70704 0
    outer loop
      vertex 15.1784 7.04813 2.71
      vertex 15.5481 6.67836 2.5
      vertex 15.5481 6.67836 2.71
    endloop
  endfacet
  facet normal 0.573552 0.819169 -0
    outer loop
      vertex -14.75 -7.34808 2.5
      vertex -15.1784 -7.04813 2.71
      vertex -14.75 -7.34808 2.71
    endloop
  endfacet
  facet normal 0.573552 0.819169 0
    outer loop
      vertex -15.1784 -7.04813 2.71
      vertex -14.75 -7.34808 2.5
      vertex -15.1784 -7.04813 2.5
    endloop
  endfacet
  facet normal 0.707174 0.70704 0
    outer loop
      vertex -15.1784 -7.04813 2.71
      vertex -15.5481 -6.67836 2.5
      vertex -15.5481 -6.67836 2.71
    endloop
  endfacet
  facet normal 0.707174 0.70704 0
    outer loop
      vertex -15.5481 -6.67836 2.5
      vertex -15.1784 -7.04813 2.71
      vertex -15.1784 -7.04813 2.5
    endloop
  endfacet
  facet normal -0.965948 0.258736 0
    outer loop
      vertex 16.0691 -5.77606 2.5
      vertex 16.2044 -5.27094 2.71
      vertex 16.2044 -5.27094 2.5
    endloop
  endfacet
  facet normal -0.965948 0.258736 0
    outer loop
      vertex 16.2044 -5.27094 2.71
      vertex 16.0691 -5.77606 2.5
      vertex 16.0691 -5.77606 2.71
    endloop
  endfacet
  facet normal -0.819099 -0.573652 0
    outer loop
      vertex 15.8481 6.25 2.5
      vertex 15.5481 6.67836 2.71
      vertex 15.5481 6.67836 2.5
    endloop
  endfacet
  facet normal -0.819099 -0.573652 0
    outer loop
      vertex 15.5481 6.67836 2.71
      vertex 15.8481 6.25 2.5
      vertex 15.8481 6.25 2.71
    endloop
  endfacet
  facet normal 1 -0 0
    outer loop
      vertex -16.25 -4.75 2.71
      vertex -16.25 4.75 2.5
      vertex -16.25 4.75 2.71
    endloop
  endfacet
  facet normal 1 0 0
    outer loop
      vertex -16.25 4.75 2.5
      vertex -16.25 -4.75 2.71
      vertex -16.25 -4.75 2.5
    endloop
  endfacet
  facet normal 0.422645 -0.906295 0
    outer loop
      vertex -14.75 7.34808 2.5
      vertex -14.2761 7.56908 2.71
      vertex -14.75 7.34808 2.71
    endloop
  endfacet
  facet normal 0.422645 -0.906295 0
    outer loop
      vertex -14.2761 7.56908 2.71
      vertex -14.75 7.34808 2.5
      vertex -14.2761 7.56908 2.5
    endloop
  endfacet
  facet normal 0.965948 0.258736 0
    outer loop
      vertex -16.0691 -5.77606 2.71
      vertex -16.2044 -5.27094 2.5
      vertex -16.2044 -5.27094 2.71
    endloop
  endfacet
  facet normal 0.965948 0.258736 0
    outer loop
      vertex -16.2044 -5.27094 2.5
      vertex -16.0691 -5.77606 2.71
      vertex -16.0691 -5.77606 2.5
    endloop
  endfacet
  facet normal -0.258769 0.965939 0
    outer loop
      vertex 14.2761 -7.56908 2.5
      vertex 13.7709 -7.70442 2.71
      vertex 14.2761 -7.56908 2.71
    endloop
  endfacet
  facet normal -0.258769 0.965939 0
    outer loop
      vertex 13.7709 -7.70442 2.71
      vertex 14.2761 -7.56908 2.5
      vertex 13.7709 -7.70442 2.5
    endloop
  endfacet
  facet normal -0.965948 -0.258736 0
    outer loop
      vertex 16.2044 5.27094 2.5
      vertex 16.0691 5.77606 2.71
      vertex 16.0691 5.77606 2.5
    endloop
  endfacet
  facet normal -0.965948 -0.258736 0
    outer loop
      vertex 16.0691 5.77606 2.71
      vertex 16.2044 5.27094 2.5
      vertex 16.2044 5.27094 2.71
    endloop
  endfacet
  facet normal -0.996191 0.0872006 0
    outer loop
      vertex 16.2044 -5.27094 2.5
      vertex 16.25 -4.75 2.71
      vertex 16.25 -4.75 2.5
    endloop
  endfacet
  facet normal -0.996191 0.0872006 0
    outer loop
      vertex 16.25 -4.75 2.71
      vertex 16.2044 -5.27094 2.5
      vertex 16.2044 -5.27094 2.71
    endloop
  endfacet
  facet normal -0.258769 -0.965939 0
    outer loop
      vertex 13.7709 7.70442 2.5
      vertex 14.2761 7.56908 2.71
      vertex 13.7709 7.70442 2.71
    endloop
  endfacet
  facet normal -0.258769 -0.965939 -0
    outer loop
      vertex 14.2761 7.56908 2.71
      vertex 13.7709 7.70442 2.5
      vertex 14.2761 7.56908 2.5
    endloop
  endfacet
  facet normal 0.707174 -0.70704 0
    outer loop
      vertex -15.5481 6.67836 2.71
      vertex -15.1784 7.04813 2.5
      vertex -15.1784 7.04813 2.71
    endloop
  endfacet
  facet normal 0.707174 -0.70704 0
    outer loop
      vertex -15.1784 7.04813 2.5
      vertex -15.5481 6.67836 2.71
      vertex -15.5481 6.67836 2.5
    endloop
  endfacet
  facet normal -0.0871693 0.996194 0
    outer loop
      vertex 13.7709 -7.70442 2.5
      vertex 13.25 -7.75 2.71
      vertex 13.7709 -7.70442 2.71
    endloop
  endfacet
  facet normal -0.0871693 0.996194 0
    outer loop
      vertex 13.25 -7.75 2.71
      vertex 13.7709 -7.70442 2.5
      vertex 13.25 -7.75 2.5
    endloop
  endfacet
  facet normal 0.258769 -0.965939 0
    outer loop
      vertex -14.2761 7.56908 2.5
      vertex -13.7709 7.70442 2.71
      vertex -14.2761 7.56908 2.71
    endloop
  endfacet
  facet normal 0.258769 -0.965939 0
    outer loop
      vertex -13.7709 7.70442 2.71
      vertex -14.2761 7.56908 2.5
      vertex -13.7709 7.70442 2.5
    endloop
  endfacet
  facet normal 0.996191 -0.0872006 0
    outer loop
      vertex -16.25 4.75 2.71
      vertex -16.2044 5.27094 2.5
      vertex -16.2044 5.27094 2.71
    endloop
  endfacet
  facet normal 0.996191 -0.0872006 0
    outer loop
      vertex -16.2044 5.27094 2.5
      vertex -16.25 4.75 2.71
      vertex -16.25 4.75 2.5
    endloop
  endfacet
  facet normal 0.819099 -0.573652 0
    outer loop
      vertex -15.8481 6.25 2.71
      vertex -15.5481 6.67836 2.5
      vertex -15.5481 6.67836 2.71
    endloop
  endfacet
  facet normal 0.819099 -0.573652 0
    outer loop
      vertex -15.5481 6.67836 2.5
      vertex -15.8481 6.25 2.71
      vertex -15.8481 6.25 2.5
    endloop
  endfacet
  facet normal -0.573552 0.819169 0
    outer loop
      vertex 15.1784 -7.04813 2.5
      vertex 14.75 -7.34808 2.71
      vertex 15.1784 -7.04813 2.71
    endloop
  endfacet
  facet normal -0.573552 0.819169 0
    outer loop
      vertex 14.75 -7.34808 2.71
      vertex 15.1784 -7.04813 2.5
      vertex 14.75 -7.34808 2.5
    endloop
  endfacet
  facet normal 0.906309 -0.422615 0
    outer loop
      vertex -16.0691 5.77606 2.71
      vertex -15.8481 6.25 2.5
      vertex -15.8481 6.25 2.71
    endloop
  endfacet
  facet normal 0.906309 -0.422615 0
    outer loop
      vertex -15.8481 6.25 2.5
      vertex -16.0691 5.77606 2.71
      vertex -16.0691 5.77606 2.5
    endloop
  endfacet
  facet normal -0.819099 0.573652 0
    outer loop
      vertex 15.5481 -6.67836 2.5
      vertex 15.8481 -6.25 2.71
      vertex 15.8481 -6.25 2.5
    endloop
  endfacet
  facet normal -0.819099 0.573652 0
    outer loop
      vertex 15.8481 -6.25 2.71
      vertex 15.5481 -6.67836 2.5
      vertex 15.5481 -6.67836 2.71
    endloop
  endfacet
  facet normal -0.0871693 -0.996194 0
    outer loop
      vertex 13.25 7.75 2.5
      vertex 13.7709 7.70442 2.71
      vertex 13.25 7.75 2.71
    endloop
  endfacet
  facet normal -0.0871693 -0.996194 -0
    outer loop
      vertex 13.7709 7.70442 2.71
      vertex 13.25 7.75 2.5
      vertex 13.7709 7.70442 2.5
    endloop
  endfacet
  facet normal 0.965948 -0.258736 0
    outer loop
      vertex -16.2044 5.27094 2.71
      vertex -16.0691 5.77606 2.5
      vertex -16.0691 5.77606 2.71
    endloop
  endfacet
  facet normal 0.965948 -0.258736 0
    outer loop
      vertex -16.0691 5.77606 2.5
      vertex -16.2044 5.27094 2.71
      vertex -16.2044 5.27094 2.5
    endloop
  endfacet
  facet normal 0.573552 -0.819169 0
    outer loop
      vertex -15.1784 7.04813 2.5
      vertex -14.75 7.34808 2.71
      vertex -15.1784 7.04813 2.71
    endloop
  endfacet
  facet normal 0.573552 -0.819169 0
    outer loop
      vertex -14.75 7.34808 2.71
      vertex -15.1784 7.04813 2.5
      vertex -14.75 7.34808 2.5
    endloop
  endfacet
  facet normal 0 0 -1
    outer loop
      vertex -4.68214 -3.7325 2.5
      vertex -3.08174 3.91133 2.5
      vertex -3.08174 -3.7325 2.5
    endloop
  endfacet
  facet normal -0 0 -1
    outer loop
      vertex -3.08174 3.91133 2.5
      vertex -4.68214 -3.7325 2.5
      vertex -4.68214 3.91133 2.5
    endloop
  endfacet
  facet normal 0 0 -1
    outer loop
      vertex -1.66745 -3.7325 2.5
      vertex -0.0670624 -0.830093 2.5
      vertex -0.0670624 -3.7325 2.5
    endloop
  endfacet
  facet normal -0 0 -1
    outer loop
      vertex -0.0670624 -0.830093 2.5
      vertex -1.66745 -3.7325 2.5
      vertex -0.0670624 0.412216 2.5
    endloop
  endfacet
  facet normal 0 0 -1
    outer loop
      vertex -1.66745 3.91133 2.5
      vertex -0.0670624 0.412216 2.5
      vertex -1.66745 -3.7325 2.5
    endloop
  endfacet
  facet normal 0 0 -1
    outer loop
      vertex 3.58397 -3.7325 2.5
      vertex 3.31813 -0.520889 2.5
      vertex 5.38509 -3.7325 2.5
    endloop
  endfacet
  facet normal 0 0 -1
    outer loop
      vertex 4.35449 0.0293884 2.5
      vertex 3.17184 0.847275 2.5
      vertex 3.26906 0.998093 2.5
    endloop
  endfacet
  facet normal 0 0 -1
    outer loop
      vertex 1.80997 -0.830093 2.5
      vertex 3.31813 -0.520889 2.5
      vertex 3.58397 -3.7325 2.5
    endloop
  endfacet
  facet normal 0 0 -1
    outer loop
      vertex 3.61563 -0.431152 2.5
      vertex 3.04684 0.715973 2.5
      vertex 3.17184 0.847275 2.5
    endloop
  endfacet
  facet normal 0 0 -1
    outer loop
      vertex 3.61563 -0.431152 2.5
      vertex 2.89494 0.606613 2.5
      vertex 3.04684 0.715973 2.5
    endloop
  endfacet
  facet normal 0 -0 -1
    outer loop
      vertex 2.28305 0.424362 2.5
      vertex 3.31813 -0.520889 2.5
      vertex 1.80997 -0.830093 2.5
    endloop
  endfacet
  facet normal 0 0 -1
    outer loop
      vertex 3.31813 -0.520889 2.5
      vertex 2.71701 0.521561 2.5
      vertex 2.89494 0.606613 2.5
    endloop
  endfacet
  facet normal 0 0 -1
    outer loop
      vertex 3.31813 -0.520889 2.5
      vertex 2.51305 0.460815 2.5
      vertex 2.71701 0.521561 2.5
    endloop
  endfacet
  facet normal 0 0 -1
    outer loop
      vertex 3.31813 -0.520889 2.5
      vertex 2.28305 0.424362 2.5
      vertex 2.51305 0.460815 2.5
    endloop
  endfacet
  facet normal 0 0 -1
    outer loop
      vertex 2.28305 0.424362 2.5
      vertex 1.80997 -0.830093 2.5
      vertex 2.02701 0.412216 2.5
    endloop
  endfacet
  facet normal 0 0 -1
    outer loop
      vertex -0.0670624 0.412216 2.5
      vertex 1.80997 -0.830093 2.5
      vertex -0.0670624 -0.830093 2.5
    endloop
  endfacet
  facet normal 0 0 -1
    outer loop
      vertex 1.80997 -0.830093 2.5
      vertex -0.0670624 0.412216 2.5
      vertex 2.02701 0.412216 2.5
    endloop
  endfacet
  facet normal 0 0 -1
    outer loop
      vertex 3.39404 1.56773 2.5
      vertex 5.00533 1.63286 2.5
      vertex 4.98709 1.32047 2.5
    endloop
  endfacet
  facet normal 0 0 -1
    outer loop
      vertex 3.38016 1.35832 2.5
      vertex 4.98709 1.32047 2.5
      vertex 4.9324 1.02565 2.5
    endloop
  endfacet
  facet normal -0 0 -1
    outer loop
      vertex 5.00533 1.63286 2.5
      vertex 3.39404 1.56773 2.5
      vertex 4.9756 2.05286 2.5
    endloop
  endfacet
  facet normal 0 0 -1
    outer loop
      vertex 3.38016 1.35832 2.5
      vertex 4.9324 1.02565 2.5
      vertex 4.84125 0.748413 2.5
    endloop
  endfacet
  facet normal 0 0 -1
    outer loop
      vertex 3.33763 1.96419 2.5
      vertex 4.9756 2.05286 2.5
      vertex 3.39404 1.56773 2.5
    endloop
  endfacet
  facet normal 0 0 -1
    outer loop
      vertex 3.3385 1.16844 2.5
      vertex 4.84125 0.748413 2.5
      vertex 4.71364 0.48877 2.5
    endloop
  endfacet
  facet normal 0 0 -1
    outer loop
      vertex 3.3385 1.16844 2.5
      vertex 4.71364 0.48877 2.5
      vertex 4.54958 0.246689 2.5
    endloop
  endfacet
  facet normal -0 0 -1
    outer loop
      vertex 4.9756 2.05286 2.5
      vertex 3.33763 1.96419 2.5
      vertex 4.8864 2.43184 2.5
    endloop
  endfacet
  facet normal 0 0 -1
    outer loop
      vertex 3.26906 0.998093 2.5
      vertex 4.54958 0.246689 2.5
      vertex 4.35449 0.0293884 2.5
    endloop
  endfacet
  facet normal -0 0 -1
    outer loop
      vertex 4.8864 2.43184 2.5
      vertex 3.33763 1.96419 2.5
      vertex 4.73775 2.76981 2.5
    endloop
  endfacet
  facet normal 0 0 -1
    outer loop
      vertex 3.17184 0.847275 2.5
      vertex 4.35449 0.0293884 2.5
      vertex 4.1338 -0.156006 2.5
    endloop
  endfacet
  facet normal -0 0 -1
    outer loop
      vertex 4.73775 2.76981 2.5
      vertex 3.33763 1.96419 2.5
      vertex 4.52963 3.06676 2.5
    endloop
  endfacet
  facet normal 0 0 -1
    outer loop
      vertex 3.17184 0.847275 2.5
      vertex 4.1338 -0.156006 2.5
      vertex 3.88753 -0.309525 2.5
    endloop
  endfacet
  facet normal 0 0 -1
    outer loop
      vertex 3.17184 0.847275 2.5
      vertex 3.88753 -0.309525 2.5
      vertex 3.61563 -0.431152 2.5
    endloop
  endfacet
  facet normal 0 0 -1
    outer loop
      vertex 3.16837 2.27255 2.5
      vertex 4.52963 3.06676 2.5
      vertex 3.33763 1.96419 2.5
    endloop
  endfacet
  facet normal -0 0 -1
    outer loop
      vertex 4.52963 3.06676 2.5
      vertex 3.16837 2.27255 2.5
      vertex 4.26205 3.32269 2.5
    endloop
  endfacet
  facet normal 0 0 -1
    outer loop
      vertex 4.98709 1.32047 2.5
      vertex 3.38016 1.35832 2.5
      vertex 3.39404 1.56773 2.5
    endloop
  endfacet
  facet normal 0 0 -1
    outer loop
      vertex 4.84125 0.748413 2.5
      vertex 3.3385 1.16844 2.5
      vertex 3.38016 1.35832 2.5
    endloop
  endfacet
  facet normal 0 0 -1
    outer loop
      vertex 2.89494 0.606613 2.5
      vertex 3.61563 -0.431152 2.5
      vertex 3.31813 -0.520889 2.5
    endloop
  endfacet
  facet normal 0 0 -1
    outer loop
      vertex 4.54958 0.246689 2.5
      vertex 3.26906 0.998093 2.5
      vertex 3.3385 1.16844 2.5
    endloop
  endfacet
  facet normal -0 0 -1
    outer loop
      vertex 4.26205 3.32269 2.5
      vertex 3.16837 2.27255 2.5
      vertex 3.9398 3.53461 2.5
    endloop
  endfacet
  facet normal 0 0 -1
    outer loop
      vertex 2.88628 2.49281 2.5
      vertex 3.9398 3.53461 2.5
      vertex 3.16837 2.27255 2.5
    endloop
  endfacet
  facet normal -0 0 -1
    outer loop
      vertex 3.9398 3.53461 2.5
      vertex 2.88628 2.49281 2.5
      vertex 3.56766 3.69942 2.5
    endloop
  endfacet
  facet normal -0 0 -1
    outer loop
      vertex 3.56766 3.69942 2.5
      vertex 2.88628 2.49281 2.5
      vertex 3.1456 3.81715 2.5
    endloop
  endfacet
  facet normal 0 0 -1
    outer loop
      vertex 2.49135 2.62495 2.5
      vertex 3.1456 3.81715 2.5
      vertex 2.88628 2.49281 2.5
    endloop
  endfacet
  facet normal -0 0 -1
    outer loop
      vertex 3.1456 3.81715 2.5
      vertex 2.49135 2.62495 2.5
      vertex 2.67361 3.88779 2.5
    endloop
  endfacet
  facet normal 0 0 -1
    outer loop
      vertex 2.49135 2.62495 2.5
      vertex 2.15173 3.91133 2.5
      vertex 2.67361 3.88779 2.5
    endloop
  endfacet
  facet normal 0 0 -1
    outer loop
      vertex 1.98357 2.66901 2.5
      vertex 2.15173 3.91133 2.5
      vertex 2.49135 2.62495 2.5
    endloop
  endfacet
  facet normal 0 0 -1
    outer loop
      vertex -0.0670624 2.66901 2.5
      vertex 2.15173 3.91133 2.5
      vertex 1.98357 2.66901 2.5
    endloop
  endfacet
  facet normal 0 0 -1
    outer loop
      vertex -0.0670624 2.66901 2.5
      vertex -1.66745 3.91133 2.5
      vertex 2.15173 3.91133 2.5
    endloop
  endfacet
  facet normal 0 0 -1
    outer loop
      vertex -0.0670624 0.412216 2.5
      vertex -1.66745 3.91133 2.5
      vertex -0.0670624 2.66901 2.5
    endloop
  endfacet
  facet normal -0 0 1
    outer loop
      vertex -4.68214 3.91133 2.7
      vertex -3.08174 -3.7325 2.7
      vertex -3.08174 3.91133 2.7
    endloop
  endfacet
  facet normal 0 0 1
    outer loop
      vertex -3.08174 -3.7325 2.7
      vertex -4.68214 3.91133 2.7
      vertex -4.68214 -3.7325 2.7
    endloop
  endfacet
  facet normal 0 0 1
    outer loop
      vertex 4.9756 2.05286 2.7
      vertex 3.33763 1.96419 2.7
      vertex 3.39404 1.56773 2.7
    endloop
  endfacet
  facet normal 0 0 1
    outer loop
      vertex 3.9398 3.53461 2.7
      vertex 3.16837 2.27255 2.7
      vertex 3.33763 1.96419 2.7
    endloop
  endfacet
  facet normal 0 0 1
    outer loop
      vertex 2.88628 2.49281 2.7
      vertex 3.56766 3.69942 2.7
      vertex 3.1456 3.81715 2.7
    endloop
  endfacet
  facet normal 0 0 1
    outer loop
      vertex 3.9398 3.53461 2.7
      vertex 2.88628 2.49281 2.7
      vertex 3.16837 2.27255 2.7
    endloop
  endfacet
  facet normal 0 0 1
    outer loop
      vertex 2.49135 2.62495 2.7
      vertex 3.1456 3.81715 2.7
      vertex 2.67361 3.88779 2.7
    endloop
  endfacet
  facet normal 0 0 1
    outer loop
      vertex 3.1456 3.81715 2.7
      vertex 2.49135 2.62495 2.7
      vertex 2.88628 2.49281 2.7
    endloop
  endfacet
  facet normal 0 0 1
    outer loop
      vertex 2.15173 3.91133 2.7
      vertex 2.49135 2.62495 2.7
      vertex 2.67361 3.88779 2.7
    endloop
  endfacet
  facet normal 0 0 1
    outer loop
      vertex 2.15173 3.91133 2.7
      vertex 1.98357 2.66901 2.7
      vertex 2.49135 2.62495 2.7
    endloop
  endfacet
  facet normal 0 0 1
    outer loop
      vertex 2.15173 3.91133 2.7
      vertex -0.0670624 2.66901 2.7
      vertex 1.98357 2.66901 2.7
    endloop
  endfacet
  facet normal 0 0 1
    outer loop
      vertex -1.66745 3.91133 2.7
      vertex -0.0670624 0.412216 2.7
      vertex -0.0670624 2.66901 2.7
    endloop
  endfacet
  facet normal 0 0 1
    outer loop
      vertex -1.66745 -3.7325 2.7
      vertex -0.0670624 0.412216 2.7
      vertex -1.66745 3.91133 2.7
    endloop
  endfacet
  facet normal -0 0 1
    outer loop
      vertex -1.66745 3.91133 2.7
      vertex -0.0670624 2.66901 2.7
      vertex 2.15173 3.91133 2.7
    endloop
  endfacet
  facet normal 0 0 1
    outer loop
      vertex -0.0670624 0.412216 2.7
      vertex -1.66745 -3.7325 2.7
      vertex -0.0670624 -0.830093 2.7
    endloop
  endfacet
  facet normal 0 0 1
    outer loop
      vertex -0.0670624 -0.830093 2.7
      vertex -1.66745 -3.7325 2.7
      vertex -0.0670624 -3.7325 2.7
    endloop
  endfacet
  facet normal 0 0 1
    outer loop
      vertex 3.39404 1.56773 2.7
      vertex 5.00533 1.63286 2.7
      vertex 4.9756 2.05286 2.7
    endloop
  endfacet
  facet normal 0 0 1
    outer loop
      vertex 5.00533 1.63286 2.7
      vertex 3.39404 1.56773 2.7
      vertex 4.98709 1.32047 2.7
    endloop
  endfacet
  facet normal 0 0 1
    outer loop
      vertex 3.33763 1.96419 2.7
      vertex 4.9756 2.05286 2.7
      vertex 4.8864 2.43184 2.7
    endloop
  endfacet
  facet normal -0 0 1
    outer loop
      vertex 3.38016 1.35832 2.7
      vertex 4.98709 1.32047 2.7
      vertex 3.39404 1.56773 2.7
    endloop
  endfacet
  facet normal 0 0 1
    outer loop
      vertex 3.33763 1.96419 2.7
      vertex 4.8864 2.43184 2.7
      vertex 4.73775 2.76981 2.7
    endloop
  endfacet
  facet normal 0 0 1
    outer loop
      vertex 4.98709 1.32047 2.7
      vertex 3.38016 1.35832 2.7
      vertex 4.9324 1.02565 2.7
    endloop
  endfacet
  facet normal 0 0 1
    outer loop
      vertex 4.9324 1.02565 2.7
      vertex 3.38016 1.35832 2.7
      vertex 4.84125 0.748413 2.7
    endloop
  endfacet
  facet normal 0 0 1
    outer loop
      vertex 3.33763 1.96419 2.7
      vertex 4.73775 2.76981 2.7
      vertex 4.52963 3.06676 2.7
    endloop
  endfacet
  facet normal -0 0 1
    outer loop
      vertex 3.3385 1.16844 2.7
      vertex 4.84125 0.748413 2.7
      vertex 3.38016 1.35832 2.7
    endloop
  endfacet
  facet normal 0 0 1
    outer loop
      vertex 3.33763 1.96419 2.7
      vertex 4.52963 3.06676 2.7
      vertex 4.26205 3.32269 2.7
    endloop
  endfacet
  facet normal 0 0 1
    outer loop
      vertex 4.84125 0.748413 2.7
      vertex 3.3385 1.16844 2.7
      vertex 4.71364 0.48877 2.7
    endloop
  endfacet
  facet normal 0 0 1
    outer loop
      vertex 3.33763 1.96419 2.7
      vertex 4.26205 3.32269 2.7
      vertex 3.9398 3.53461 2.7
    endloop
  endfacet
  facet normal 0 0 1
    outer loop
      vertex 4.71364 0.48877 2.7
      vertex 3.3385 1.16844 2.7
      vertex 4.54958 0.246689 2.7
    endloop
  endfacet
  facet normal -0 0 1
    outer loop
      vertex 3.26906 0.998093 2.7
      vertex 4.54958 0.246689 2.7
      vertex 3.3385 1.16844 2.7
    endloop
  endfacet
  facet normal 0 0 1
    outer loop
      vertex 2.88628 2.49281 2.7
      vertex 3.9398 3.53461 2.7
      vertex 3.56766 3.69942 2.7
    endloop
  endfacet
  facet normal 0 0 1
    outer loop
      vertex 4.54958 0.246689 2.7
      vertex 3.26906 0.998093 2.7
      vertex 4.35449 0.0293884 2.7
    endloop
  endfacet
  facet normal -0 0 1
    outer loop
      vertex 3.17184 0.847275 2.7
      vertex 4.35449 0.0293884 2.7
      vertex 3.26906 0.998093 2.7
    endloop
  endfacet
  facet normal 0 0 1
    outer loop
      vertex 4.35449 0.0293884 2.7
      vertex 3.17184 0.847275 2.7
      vertex 4.1338 -0.156006 2.7
    endloop
  endfacet
  facet normal 0 0 1
    outer loop
      vertex 4.1338 -0.156006 2.7
      vertex 3.17184 0.847275 2.7
      vertex 3.88753 -0.309525 2.7
    endloop
  endfacet
  facet normal -0 0 1
    outer loop
      vertex 3.04684 0.715973 2.7
      vertex 3.88753 -0.309525 2.7
      vertex 3.17184 0.847275 2.7
    endloop
  endfacet
  facet normal 0 0 1
    outer loop
      vertex 3.31813 -0.520889 2.7
      vertex 3.58397 -3.7325 2.7
      vertex 5.38509 -3.7325 2.7
    endloop
  endfacet
  facet normal 0 0 1
    outer loop
      vertex 3.88753 -0.309525 2.7
      vertex 3.04684 0.715973 2.7
      vertex 3.61563 -0.431152 2.7
    endloop
  endfacet
  facet normal -0 0 1
    outer loop
      vertex 2.89494 0.606613 2.7
      vertex 3.61563 -0.431152 2.7
      vertex 3.04684 0.715973 2.7
    endloop
  endfacet
  facet normal 0 0 1
    outer loop
      vertex 3.61563 -0.431152 2.7
      vertex 2.89494 0.606613 2.7
      vertex 3.31813 -0.520889 2.7
    endloop
  endfacet
  facet normal -0 0 1
    outer loop
      vertex 2.71701 0.521561 2.7
      vertex 3.31813 -0.520889 2.7
      vertex 2.89494 0.606613 2.7
    endloop
  endfacet
  facet normal -0 0 1
    outer loop
      vertex 2.51305 0.460815 2.7
      vertex 3.31813 -0.520889 2.7
      vertex 2.71701 0.521561 2.7
    endloop
  endfacet
  facet normal -0 0 1
    outer loop
      vertex 2.28305 0.424362 2.7
      vertex 3.31813 -0.520889 2.7
      vertex 2.51305 0.460815 2.7
    endloop
  endfacet
  facet normal 0 0 1
    outer loop
      vertex 3.31813 -0.520889 2.7
      vertex 2.28305 0.424362 2.7
      vertex 1.80997 -0.830093 2.7
    endloop
  endfacet
  facet normal 0 0 1
    outer loop
      vertex 1.80997 -0.830093 2.7
      vertex 2.28305 0.424362 2.7
      vertex 2.02701 0.412216 2.7
    endloop
  endfacet
  facet normal 0 0 1
    outer loop
      vertex 3.31813 -0.520889 2.7
      vertex 1.80997 -0.830093 2.7
      vertex 3.58397 -3.7325 2.7
    endloop
  endfacet
  facet normal -0 0 1
    outer loop
      vertex -0.0670624 0.412216 2.7
      vertex 1.80997 -0.830093 2.7
      vertex 2.02701 0.412216 2.7
    endloop
  endfacet
  facet normal 0 0 1
    outer loop
      vertex 1.80997 -0.830093 2.7
      vertex -0.0670624 0.412216 2.7
      vertex -0.0670624 -0.830093 2.7
    endloop
  endfacet
  facet normal 0 1 -0
    outer loop
      vertex -3.08174 3.91133 2.5
      vertex -4.68214 3.91133 2.7
      vertex -3.08174 3.91133 2.7
    endloop
  endfacet
  facet normal 0 1 0
    outer loop
      vertex -4.68214 3.91133 2.7
      vertex -3.08174 3.91133 2.5
      vertex -4.68214 3.91133 2.5
    endloop
  endfacet
  facet normal -1 0 0
    outer loop
      vertex -4.68214 -3.7325 2.5
      vertex -4.68214 3.91133 2.7
      vertex -4.68214 3.91133 2.5
    endloop
  endfacet
  facet normal -1 -0 0
    outer loop
      vertex -4.68214 3.91133 2.7
      vertex -4.68214 -3.7325 2.5
      vertex -4.68214 -3.7325 2.7
    endloop
  endfacet
  facet normal 0 -1 0
    outer loop
      vertex -4.68214 -3.7325 2.5
      vertex -3.08174 -3.7325 2.7
      vertex -4.68214 -3.7325 2.7
    endloop
  endfacet
  facet normal 0 -1 -0
    outer loop
      vertex -3.08174 -3.7325 2.7
      vertex -4.68214 -3.7325 2.5
      vertex -3.08174 -3.7325 2.5
    endloop
  endfacet
  facet normal 1 -0 0
    outer loop
      vertex -3.08174 -3.7325 2.7
      vertex -3.08174 3.91133 2.5
      vertex -3.08174 3.91133 2.7
    endloop
  endfacet
  facet normal 1 0 0
    outer loop
      vertex -3.08174 3.91133 2.5
      vertex -3.08174 -3.7325 2.7
      vertex -3.08174 -3.7325 2.5
    endloop
  endfacet
  facet normal 0 -1 0
    outer loop
      vertex -0.0670624 -0.830093 2.5
      vertex 1.80997 -0.830093 2.7
      vertex -0.0670624 -0.830093 2.7
    endloop
  endfacet
  facet normal 0 -1 -0
    outer loop
      vertex 1.80997 -0.830093 2.7
      vertex -0.0670624 -0.830093 2.5
      vertex 1.80997 -0.830093 2.5
    endloop
  endfacet
  facet normal -0.853242 -0.521516 0
    outer loop
      vertex 3.58397 -3.7325 2.5
      vertex 1.80997 -0.830093 2.7
      vertex 1.80997 -0.830093 2.5
    endloop
  endfacet
  facet normal -0.853242 -0.521516 0
    outer loop
      vertex 1.80997 -0.830093 2.7
      vertex 3.58397 -3.7325 2.5
      vertex 3.58397 -3.7325 2.7
    endloop
  endfacet
  facet normal 0 -1 0
    outer loop
      vertex 3.58397 -3.7325 2.5
      vertex 5.38509 -3.7325 2.7
      vertex 3.58397 -3.7325 2.7
    endloop
  endfacet
  facet normal 0 -1 -0
    outer loop
      vertex 5.38509 -3.7325 2.7
      vertex 3.58397 -3.7325 2.5
      vertex 5.38509 -3.7325 2.5
    endloop
  endfacet
  facet normal 0.840898 0.541193 0
    outer loop
      vertex 5.38509 -3.7325 2.7
      vertex 3.31813 -0.520889 2.5
      vertex 3.31813 -0.520889 2.7
    endloop
  endfacet
  facet normal 0.840898 0.541193 0
    outer loop
      vertex 3.31813 -0.520889 2.5
      vertex 5.38509 -3.7325 2.7
      vertex 5.38509 -3.7325 2.5
    endloop
  endfacet
  facet normal 0.288785 -0.957394 0
    outer loop
      vertex 3.31813 -0.520889 2.5
      vertex 3.61563 -0.431152 2.7
      vertex 3.31813 -0.520889 2.7
    endloop
  endfacet
  facet normal 0.288785 -0.957394 0
    outer loop
      vertex 3.61563 -0.431152 2.7
      vertex 3.31813 -0.520889 2.5
      vertex 3.61563 -0.431152 2.5
    endloop
  endfacet
  facet normal 0.408331 -0.912834 0
    outer loop
      vertex 3.61563 -0.431152 2.5
      vertex 3.88753 -0.309525 2.7
      vertex 3.61563 -0.431152 2.7
    endloop
  endfacet
  facet normal 0.408331 -0.912834 0
    outer loop
      vertex 3.88753 -0.309525 2.7
      vertex 3.61563 -0.431152 2.5
      vertex 3.88753 -0.309525 2.5
    endloop
  endfacet
  facet normal 0.529008 -0.848617 0
    outer loop
      vertex 3.88753 -0.309525 2.5
      vertex 4.1338 -0.156006 2.7
      vertex 3.88753 -0.309525 2.7
    endloop
  endfacet
  facet normal 0.529008 -0.848617 0
    outer loop
      vertex 4.1338 -0.156006 2.7
      vertex 3.88753 -0.309525 2.5
      vertex 4.1338 -0.156006 2.5
    endloop
  endfacet
  facet normal 0.643222 -0.76568 0
    outer loop
      vertex 4.1338 -0.156006 2.5
      vertex 4.35449 0.0293884 2.7
      vertex 4.1338 -0.156006 2.7
    endloop
  endfacet
  facet normal 0.643222 -0.76568 0
    outer loop
      vertex 4.35449 0.0293884 2.7
      vertex 4.1338 -0.156006 2.5
      vertex 4.35449 0.0293884 2.5
    endloop
  endfacet
  facet normal 0.744112 -0.668055 0
    outer loop
      vertex 4.35449 0.0293884 2.7
      vertex 4.54958 0.246689 2.5
      vertex 4.54958 0.246689 2.7
    endloop
  endfacet
  facet normal 0.744112 -0.668055 0
    outer loop
      vertex 4.54958 0.246689 2.5
      vertex 4.35449 0.0293884 2.7
      vertex 4.35449 0.0293884 2.5
    endloop
  endfacet
  facet normal 0.827808 -0.561011 0
    outer loop
      vertex 4.54958 0.246689 2.7
      vertex 4.71364 0.48877 2.5
      vertex 4.71364 0.48877 2.7
    endloop
  endfacet
  facet normal 0.827808 -0.561011 0
    outer loop
      vertex 4.71364 0.48877 2.5
      vertex 4.54958 0.246689 2.7
      vertex 4.54958 0.246689 2.5
    endloop
  endfacet
  facet normal 0.897464 -0.441088 0
    outer loop
      vertex 4.71364 0.48877 2.7
      vertex 4.84125 0.748413 2.5
      vertex 4.84125 0.748413 2.7
    endloop
  endfacet
  facet normal 0.897464 -0.441088 0
    outer loop
      vertex 4.84125 0.748413 2.5
      vertex 4.71364 0.48877 2.7
      vertex 4.71364 0.48877 2.5
    endloop
  endfacet
  facet normal 0.949973 -0.312332 0
    outer loop
      vertex 4.84125 0.748413 2.7
      vertex 4.9324 1.02565 2.5
      vertex 4.9324 1.02565 2.7
    endloop
  endfacet
  facet normal 0.949973 -0.312332 0
    outer loop
      vertex 4.9324 1.02565 2.5
      vertex 4.84125 0.748413 2.7
      vertex 4.84125 0.748413 2.5
    endloop
  endfacet
  facet normal 0.983226 -0.182391 0
    outer loop
      vertex 4.9324 1.02565 2.7
      vertex 4.98709 1.32047 2.5
      vertex 4.98709 1.32047 2.7
    endloop
  endfacet
  facet normal 0.983226 -0.182391 0
    outer loop
      vertex 4.98709 1.32047 2.5
      vertex 4.9324 1.02565 2.7
      vertex 4.9324 1.02565 2.5
    endloop
  endfacet
  facet normal 0.9983 -0.0582893 0
    outer loop
      vertex 4.98709 1.32047 2.7
      vertex 5.00533 1.63286 2.5
      vertex 5.00533 1.63286 2.7
    endloop
  endfacet
  facet normal 0.9983 -0.0582893 0
    outer loop
      vertex 5.00533 1.63286 2.5
      vertex 4.98709 1.32047 2.7
      vertex 4.98709 1.32047 2.5
    endloop
  endfacet
  facet normal 0.997504 0.070609 0
    outer loop
      vertex 5.00533 1.63286 2.7
      vertex 4.9756 2.05286 2.5
      vertex 4.9756 2.05286 2.7
    endloop
  endfacet
  facet normal 0.997504 0.070609 0
    outer loop
      vertex 4.9756 2.05286 2.5
      vertex 5.00533 1.63286 2.7
      vertex 5.00533 1.63286 2.5
    endloop
  endfacet
  facet normal 0.973401 0.229108 0
    outer loop
      vertex 4.9756 2.05286 2.7
      vertex 4.8864 2.43184 2.5
      vertex 4.8864 2.43184 2.7
    endloop
  endfacet
  facet normal 0.973401 0.229108 0
    outer loop
      vertex 4.8864 2.43184 2.5
      vertex 4.9756 2.05286 2.7
      vertex 4.9756 2.05286 2.5
    endloop
  endfacet
  facet normal 0.915372 0.40261 0
    outer loop
      vertex 4.8864 2.43184 2.7
      vertex 4.73775 2.76981 2.5
      vertex 4.73775 2.76981 2.7
    endloop
  endfacet
  facet normal 0.915372 0.40261 0
    outer loop
      vertex 4.73775 2.76981 2.5
      vertex 4.8864 2.43184 2.7
      vertex 4.8864 2.43184 2.5
    endloop
  endfacet
  facet normal 0.818901 0.573934 0
    outer loop
      vertex 4.73775 2.76981 2.7
      vertex 4.52963 3.06676 2.5
      vertex 4.52963 3.06676 2.7
    endloop
  endfacet
  facet normal 0.818901 0.573934 0
    outer loop
      vertex 4.52963 3.06676 2.5
      vertex 4.73775 2.76981 2.7
      vertex 4.73775 2.76981 2.5
    endloop
  endfacet
  facet normal 0.6912 0.722664 -0
    outer loop
      vertex 4.52963 3.06676 2.5
      vertex 4.26205 3.32269 2.7
      vertex 4.52963 3.06676 2.7
    endloop
  endfacet
  facet normal 0.6912 0.722664 0
    outer loop
      vertex 4.26205 3.32269 2.7
      vertex 4.52963 3.06676 2.5
      vertex 4.26205 3.32269 2.5
    endloop
  endfacet
  facet normal 0.54946 0.83552 -0
    outer loop
      vertex 4.26205 3.32269 2.5
      vertex 3.9398 3.53461 2.7
      vertex 4.26205 3.32269 2.7
    endloop
  endfacet
  facet normal 0.54946 0.83552 0
    outer loop
      vertex 3.9398 3.53461 2.7
      vertex 4.26205 3.32269 2.5
      vertex 3.9398 3.53461 2.5
    endloop
  endfacet
  facet normal 0.404937 0.914345 -0
    outer loop
      vertex 3.9398 3.53461 2.5
      vertex 3.56766 3.69942 2.7
      vertex 3.9398 3.53461 2.7
    endloop
  endfacet
  facet normal 0.404937 0.914345 0
    outer loop
      vertex 3.56766 3.69942 2.7
      vertex 3.9398 3.53461 2.5
      vertex 3.56766 3.69942 2.5
    endloop
  endfacet
  facet normal 0.268684 0.963228 -0
    outer loop
      vertex 3.56766 3.69942 2.5
      vertex 3.1456 3.81715 2.7
      vertex 3.56766 3.69942 2.7
    endloop
  endfacet
  facet normal 0.268684 0.963228 0
    outer loop
      vertex 3.1456 3.81715 2.7
      vertex 3.56766 3.69942 2.5
      vertex 3.1456 3.81715 2.5
    endloop
  endfacet
  facet normal 0.148016 0.988985 -0
    outer loop
      vertex 3.1456 3.81715 2.5
      vertex 2.67361 3.88779 2.7
      vertex 3.1456 3.81715 2.7
    endloop
  endfacet
  facet normal 0.148016 0.988985 0
    outer loop
      vertex 2.67361 3.88779 2.7
      vertex 3.1456 3.81715 2.5
      vertex 2.67361 3.88779 2.5
    endloop
  endfacet
  facet normal 0.0450603 0.998984 -0
    outer loop
      vertex 2.67361 3.88779 2.5
      vertex 2.15173 3.91133 2.7
      vertex 2.67361 3.88779 2.7
    endloop
  endfacet
  facet normal 0.0450603 0.998984 0
    outer loop
      vertex 2.15173 3.91133 2.7
      vertex 2.67361 3.88779 2.5
      vertex 2.15173 3.91133 2.5
    endloop
  endfacet
  facet normal 0 1 -0
    outer loop
      vertex 2.15173 3.91133 2.5
      vertex -1.66745 3.91133 2.7
      vertex 2.15173 3.91133 2.7
    endloop
  endfacet
  facet normal 0 1 0
    outer loop
      vertex -1.66745 3.91133 2.7
      vertex 2.15173 3.91133 2.5
      vertex -1.66745 3.91133 2.5
    endloop
  endfacet
  facet normal -1 0 0
    outer loop
      vertex -1.66745 -3.7325 2.5
      vertex -1.66745 3.91133 2.7
      vertex -1.66745 3.91133 2.5
    endloop
  endfacet
  facet normal -1 -0 0
    outer loop
      vertex -1.66745 3.91133 2.7
      vertex -1.66745 -3.7325 2.5
      vertex -1.66745 -3.7325 2.7
    endloop
  endfacet
  facet normal 0 -1 0
    outer loop
      vertex -1.66745 -3.7325 2.5
      vertex -0.0670624 -3.7325 2.7
      vertex -1.66745 -3.7325 2.7
    endloop
  endfacet
  facet normal 0 -1 -0
    outer loop
      vertex -0.0670624 -3.7325 2.7
      vertex -1.66745 -3.7325 2.5
      vertex -0.0670624 -3.7325 2.5
    endloop
  endfacet
  facet normal 1 -0 0
    outer loop
      vertex -0.0670624 -3.7325 2.7
      vertex -0.0670624 -0.830093 2.5
      vertex -0.0670624 -0.830093 2.7
    endloop
  endfacet
  facet normal 1 0 0
    outer loop
      vertex -0.0670624 -0.830093 2.5
      vertex -0.0670624 -3.7325 2.7
      vertex -0.0670624 -3.7325 2.5
    endloop
  endfacet
  facet normal 1 -0 0
    outer loop
      vertex -0.0670624 0.412216 2.7
      vertex -0.0670624 2.66901 2.5
      vertex -0.0670624 2.66901 2.7
    endloop
  endfacet
  facet normal 1 0 0
    outer loop
      vertex -0.0670624 2.66901 2.5
      vertex -0.0670624 0.412216 2.7
      vertex -0.0670624 0.412216 2.5
    endloop
  endfacet
  facet normal 0 -1 0
    outer loop
      vertex -0.0670624 2.66901 2.5
      vertex 1.98357 2.66901 2.7
      vertex -0.0670624 2.66901 2.7
    endloop
  endfacet
  facet normal 0 -1 -0
    outer loop
      vertex 1.98357 2.66901 2.7
      vertex -0.0670624 2.66901 2.5
      vertex 1.98357 2.66901 2.5
    endloop
  endfacet
  facet normal -0.086445 -0.996257 0
    outer loop
      vertex 1.98357 2.66901 2.5
      vertex 2.49135 2.62495 2.7
      vertex 1.98357 2.66901 2.7
    endloop
  endfacet
  facet normal -0.086445 -0.996257 -0
    outer loop
      vertex 2.49135 2.62495 2.7
      vertex 1.98357 2.66901 2.5
      vertex 2.49135 2.62495 2.5
    endloop
  endfacet
  facet normal -0.317301 -0.948325 0
    outer loop
      vertex 2.49135 2.62495 2.5
      vertex 2.88628 2.49281 2.7
      vertex 2.49135 2.62495 2.7
    endloop
  endfacet
  facet normal -0.317301 -0.948325 -0
    outer loop
      vertex 2.88628 2.49281 2.7
      vertex 2.49135 2.62495 2.5
      vertex 2.88628 2.49281 2.5
    endloop
  endfacet
  facet normal -0.615431 -0.788191 0
    outer loop
      vertex 2.88628 2.49281 2.5
      vertex 3.16837 2.27255 2.7
      vertex 2.88628 2.49281 2.7
    endloop
  endfacet
  facet normal -0.615431 -0.788191 -0
    outer loop
      vertex 3.16837 2.27255 2.7
      vertex 2.88628 2.49281 2.5
      vertex 3.16837 2.27255 2.5
    endloop
  endfacet
  facet normal -0.876621 -0.481181 0
    outer loop
      vertex 3.33763 1.96419 2.5
      vertex 3.16837 2.27255 2.7
      vertex 3.16837 2.27255 2.5
    endloop
  endfacet
  facet normal -0.876621 -0.481181 0
    outer loop
      vertex 3.16837 2.27255 2.7
      vertex 3.33763 1.96419 2.5
      vertex 3.33763 1.96419 2.7
    endloop
  endfacet
  facet normal -0.990029 -0.140865 0
    outer loop
      vertex 3.39404 1.56773 2.5
      vertex 3.33763 1.96419 2.7
      vertex 3.33763 1.96419 2.5
    endloop
  endfacet
  facet normal -0.990029 -0.140865 0
    outer loop
      vertex 3.33763 1.96419 2.7
      vertex 3.39404 1.56773 2.5
      vertex 3.39404 1.56773 2.7
    endloop
  endfacet
  facet normal -0.997811 0.0661363 0
    outer loop
      vertex 3.38016 1.35832 2.5
      vertex 3.39404 1.56773 2.7
      vertex 3.39404 1.56773 2.5
    endloop
  endfacet
  facet normal -0.997811 0.0661363 0
    outer loop
      vertex 3.39404 1.56773 2.7
      vertex 3.38016 1.35832 2.5
      vertex 3.38016 1.35832 2.7
    endloop
  endfacet
  facet normal -0.976767 0.214304 0
    outer loop
      vertex 3.3385 1.16844 2.5
      vertex 3.38016 1.35832 2.7
      vertex 3.38016 1.35832 2.5
    endloop
  endfacet
  facet normal -0.976767 0.214304 0
    outer loop
      vertex 3.38016 1.35832 2.7
      vertex 3.3385 1.16844 2.5
      vertex 3.3385 1.16844 2.7
    endloop
  endfacet
  facet normal -0.926018 0.37748 0
    outer loop
      vertex 3.26906 0.998093 2.5
      vertex 3.3385 1.16844 2.7
      vertex 3.3385 1.16844 2.5
    endloop
  endfacet
  facet normal -0.926018 0.37748 0
    outer loop
      vertex 3.3385 1.16844 2.7
      vertex 3.26906 0.998093 2.5
      vertex 3.26906 0.998093 2.7
    endloop
  endfacet
  facet normal -0.840505 0.541804 0
    outer loop
      vertex 3.17184 0.847275 2.5
      vertex 3.26906 0.998093 2.7
      vertex 3.26906 0.998093 2.5
    endloop
  endfacet
  facet normal -0.840505 0.541804 0
    outer loop
      vertex 3.26906 0.998093 2.7
      vertex 3.17184 0.847275 2.5
      vertex 3.17184 0.847275 2.7
    endloop
  endfacet
  facet normal -0.724274 0.689512 0
    outer loop
      vertex 3.04684 0.715973 2.5
      vertex 3.17184 0.847275 2.7
      vertex 3.17184 0.847275 2.5
    endloop
  endfacet
  facet normal -0.724274 0.689512 0
    outer loop
      vertex 3.17184 0.847275 2.7
      vertex 3.04684 0.715973 2.5
      vertex 3.04684 0.715973 2.7
    endloop
  endfacet
  facet normal -0.584277 0.811555 0
    outer loop
      vertex 3.04684 0.715973 2.5
      vertex 2.89494 0.606613 2.7
      vertex 3.04684 0.715973 2.7
    endloop
  endfacet
  facet normal -0.584277 0.811555 0
    outer loop
      vertex 2.89494 0.606613 2.7
      vertex 3.04684 0.715973 2.5
      vertex 2.89494 0.606613 2.5
    endloop
  endfacet
  facet normal -0.43127 0.902223 0
    outer loop
      vertex 2.89494 0.606613 2.5
      vertex 2.71701 0.521561 2.7
      vertex 2.89494 0.606613 2.7
    endloop
  endfacet
  facet normal -0.43127 0.902223 0
    outer loop
      vertex 2.71701 0.521561 2.7
      vertex 2.89494 0.606613 2.5
      vertex 2.71701 0.521561 2.5
    endloop
  endfacet
  facet normal -0.285442 0.958396 0
    outer loop
      vertex 2.71701 0.521561 2.5
      vertex 2.51305 0.460815 2.7
      vertex 2.71701 0.521561 2.7
    endloop
  endfacet
  facet normal -0.285442 0.958396 0
    outer loop
      vertex 2.51305 0.460815 2.7
      vertex 2.71701 0.521561 2.5
      vertex 2.51305 0.460815 2.5
    endloop
  endfacet
  facet normal -0.156537 0.987672 0
    outer loop
      vertex 2.51305 0.460815 2.5
      vertex 2.28305 0.424362 2.7
      vertex 2.51305 0.460815 2.7
    endloop
  endfacet
  facet normal -0.156537 0.987672 0
    outer loop
      vertex 2.28305 0.424362 2.7
      vertex 2.51305 0.460815 2.5
      vertex 2.28305 0.424362 2.5
    endloop
  endfacet
  facet normal -0.0473846 0.998877 0
    outer loop
      vertex 2.28305 0.424362 2.5
      vertex 2.02701 0.412216 2.7
      vertex 2.28305 0.424362 2.7
    endloop
  endfacet
  facet normal -0.0473846 0.998877 0
    outer loop
      vertex 2.02701 0.412216 2.7
      vertex 2.28305 0.424362 2.5
      vertex 2.02701 0.412216 2.5
    endloop
  endfacet
  facet normal 0 1 -0
    outer loop
      vertex 2.02701 0.412216 2.5
      vertex -0.0670624 0.412216 2.7
      vertex 2.02701 0.412216 2.7
    endloop
  endfacet
  facet normal 0 1 0
    outer loop
      vertex -0.0670624 0.412216 2.7
      vertex 2.02701 0.412216 2.5
      vertex -0.0670624 0.412216 2.5
    endloop
  endfacet
endsolid OpenSCAD_Model
