solid OpenSCAD_Model
  facet normal 0.258698 -0.965958 0
    outer loop
      vertex 10.0209 -18.9544 2.5
      vertex 10.5261 -18.8191 2.71
      vertex 10.0209 -18.9544 2.71
    endloop
  endfacet
  facet normal 0.258698 -0.965958 0
    outer loop
      vertex 10.5261 -18.8191 2.71
      vertex 10.0209 -18.9544 2.5
      vertex 10.5261 -18.8191 2.5
    endloop
  endfacet
  facet normal -1 0 0
    outer loop
      vertex -12.5 -16 2.5
      vertex -12.5 16 2.71
      vertex -12.5 16 2.5
    endloop
  endfacet
  facet normal -1 -0 0
    outer loop
      vertex -12.5 16 2.71
      vertex -12.5 -16 2.5
      vertex -12.5 -16 2.71
    endloop
  endfacet
  facet normal -0.906295 -0.422645 0
    outer loop
      vertex -12.0981 -17.5 2.5
      vertex -12.3191 -17.0261 2.71
      vertex -12.3191 -17.0261 2.5
    endloop
  endfacet
  facet normal -0.906295 -0.422645 0
    outer loop
      vertex -12.3191 -17.0261 2.71
      vertex -12.0981 -17.5 2.5
      vertex -12.0981 -17.5 2.71
    endloop
  endfacet
  facet normal -0.965958 0.258698 0
    outer loop
      vertex -12.4544 16.5209 2.5
      vertex -12.3191 17.0261 2.71
      vertex -12.3191 17.0261 2.5
    endloop
  endfacet
  facet normal -0.965958 0.258698 0
    outer loop
      vertex -12.3191 17.0261 2.71
      vertex -12.4544 16.5209 2.5
      vertex -12.4544 16.5209 2.71
    endloop
  endfacet
  facet normal 0.573616 -0.819124 0
    outer loop
      vertex 11 -18.5981 2.5
      vertex 11.4284 -18.2981 2.71
      vertex 11 -18.5981 2.71
    endloop
  endfacet
  facet normal 0.573616 -0.819124 0
    outer loop
      vertex 11.4284 -18.2981 2.71
      vertex 11 -18.5981 2.5
      vertex 11.4284 -18.2981 2.5
    endloop
  endfacet
  facet normal -0.99619 0.0872073 0
    outer loop
      vertex -12.5 16 2.5
      vertex -12.4544 16.5209 2.71
      vertex -12.4544 16.5209 2.5
    endloop
  endfacet
  facet normal -0.99619 0.0872073 0
    outer loop
      vertex -12.4544 16.5209 2.71
      vertex -12.5 16 2.5
      vertex -12.5 16 2.71
    endloop
  endfacet
  facet normal 0.422645 0.906295 -0
    outer loop
      vertex 11 18.5981 2.5
      vertex 10.5261 18.8191 2.71
      vertex 11 18.5981 2.71
    endloop
  endfacet
  facet normal 0.422645 0.906295 0
    outer loop
      vertex 10.5261 18.8191 2.71
      vertex 11 18.5981 2.5
      vertex 10.5261 18.8191 2.5
    endloop
  endfacet
  facet normal -0.99619 -0.0872073 0
    outer loop
      vertex -12.4544 -16.5209 2.5
      vertex -12.5 -16 2.71
      vertex -12.5 -16 2.5
    endloop
  endfacet
  facet normal -0.99619 -0.0872073 0
    outer loop
      vertex -12.5 -16 2.71
      vertex -12.4544 -16.5209 2.5
      vertex -12.4544 -16.5209 2.71
    endloop
  endfacet
  facet normal -0.906295 0.422645 0
    outer loop
      vertex -12.3191 17.0261 2.5
      vertex -12.0981 17.5 2.71
      vertex -12.0981 17.5 2.5
    endloop
  endfacet
  facet normal -0.906295 0.422645 0
    outer loop
      vertex -12.0981 17.5 2.71
      vertex -12.3191 17.0261 2.5
      vertex -12.3191 17.0261 2.71
    endloop
  endfacet
  facet normal -0.422645 -0.906295 0
    outer loop
      vertex -11 -18.5981 2.5
      vertex -10.5261 -18.8191 2.71
      vertex -11 -18.5981 2.71
    endloop
  endfacet
  facet normal -0.422645 -0.906295 -0
    outer loop
      vertex -10.5261 -18.8191 2.71
      vertex -11 -18.5981 2.5
      vertex -10.5261 -18.8191 2.5
    endloop
  endfacet
  facet normal 0 1 -0
    outer loop
      vertex 9.5 19 2.5
      vertex -9.5 19 2.71
      vertex 9.5 19 2.71
    endloop
  endfacet
  facet normal 0 1 0
    outer loop
      vertex -9.5 19 2.71
      vertex 9.5 19 2.5
      vertex -9.5 19 2.5
    endloop
  endfacet
  facet normal 0.258698 0.965958 -0
    outer loop
      vertex 10.5261 18.8191 2.5
      vertex 10.0209 18.9544 2.71
      vertex 10.5261 18.8191 2.71
    endloop
  endfacet
  facet normal 0.258698 0.965958 0
    outer loop
      vertex 10.0209 18.9544 2.71
      vertex 10.5261 18.8191 2.5
      vertex 10.0209 18.9544 2.5
    endloop
  endfacet
  facet normal -0.819124 -0.573616 0
    outer loop
      vertex -11.7981 -17.9284 2.5
      vertex -12.0981 -17.5 2.71
      vertex -12.0981 -17.5 2.5
    endloop
  endfacet
  facet normal -0.819124 -0.573616 0
    outer loop
      vertex -12.0981 -17.5 2.71
      vertex -11.7981 -17.9284 2.5
      vertex -11.7981 -17.9284 2.71
    endloop
  endfacet
  facet normal 0 -1 0
    outer loop
      vertex -9.5 -19 2.5
      vertex 9.5 -19 2.71
      vertex -9.5 -19 2.71
    endloop
  endfacet
  facet normal 0 -1 -0
    outer loop
      vertex 9.5 -19 2.71
      vertex -9.5 -19 2.5
      vertex 9.5 -19 2.5
    endloop
  endfacet
  facet normal -0.965958 -0.258698 0
    outer loop
      vertex -12.3191 -17.0261 2.5
      vertex -12.4544 -16.5209 2.71
      vertex -12.4544 -16.5209 2.5
    endloop
  endfacet
  facet normal -0.965958 -0.258698 0
    outer loop
      vertex -12.4544 -16.5209 2.71
      vertex -12.3191 -17.0261 2.5
      vertex -12.3191 -17.0261 2.71
    endloop
  endfacet
  facet normal 0.0872073 0.99619 -0
    outer loop
      vertex 10.0209 18.9544 2.5
      vertex 9.5 19 2.71
      vertex 10.0209 18.9544 2.71
    endloop
  endfacet
  facet normal 0.0872073 0.99619 0
    outer loop
      vertex 9.5 19 2.71
      vertex 10.0209 18.9544 2.5
      vertex 9.5 19 2.5
    endloop
  endfacet
  facet normal 0.99619 0.0872073 0
    outer loop
      vertex 12.5 16 2.71
      vertex 12.4544 16.5209 2.5
      vertex 12.4544 16.5209 2.71
    endloop
  endfacet
  facet normal 0.99619 0.0872073 0
    outer loop
      vertex 12.4544 16.5209 2.5
      vertex 12.5 16 2.71
      vertex 12.5 16 2.5
    endloop
  endfacet
  facet normal 0.906295 -0.422645 0
    outer loop
      vertex 12.0981 -17.5 2.71
      vertex 12.3191 -17.0261 2.5
      vertex 12.3191 -17.0261 2.71
    endloop
  endfacet
  facet normal 0.906295 -0.422645 0
    outer loop
      vertex 12.3191 -17.0261 2.5
      vertex 12.0981 -17.5 2.71
      vertex 12.0981 -17.5 2.5
    endloop
  endfacet
  facet normal -0.707107 -0.707107 0
    outer loop
      vertex -11.4284 -18.2981 2.5
      vertex -11.7981 -17.9284 2.71
      vertex -11.7981 -17.9284 2.5
    endloop
  endfacet
  facet normal -0.707107 -0.707107 0
    outer loop
      vertex -11.7981 -17.9284 2.71
      vertex -11.4284 -18.2981 2.5
      vertex -11.4284 -18.2981 2.71
    endloop
  endfacet
  facet normal -0.819124 0.573616 0
    outer loop
      vertex -12.0981 17.5 2.5
      vertex -11.7981 17.9284 2.71
      vertex -11.7981 17.9284 2.5
    endloop
  endfacet
  facet normal -0.819124 0.573616 0
    outer loop
      vertex -11.7981 17.9284 2.71
      vertex -12.0981 17.5 2.5
      vertex -12.0981 17.5 2.71
    endloop
  endfacet
  facet normal -0.258698 0.965958 0
    outer loop
      vertex -10.0209 18.9544 2.5
      vertex -10.5261 18.8191 2.71
      vertex -10.0209 18.9544 2.71
    endloop
  endfacet
  facet normal -0.258698 0.965958 0
    outer loop
      vertex -10.5261 18.8191 2.71
      vertex -10.0209 18.9544 2.5
      vertex -10.5261 18.8191 2.5
    endloop
  endfacet
  facet normal 0.99619 -0.0872073 0
    outer loop
      vertex 12.4544 -16.5209 2.71
      vertex 12.5 -16 2.5
      vertex 12.5 -16 2.71
    endloop
  endfacet
  facet normal 0.99619 -0.0872073 0
    outer loop
      vertex 12.5 -16 2.5
      vertex 12.4544 -16.5209 2.71
      vertex 12.4544 -16.5209 2.5
    endloop
  endfacet
  facet normal 1 -0 0
    outer loop
      vertex 12.5 -16 2.71
      vertex 12.5 16 2.5
      vertex 12.5 16 2.71
    endloop
  endfacet
  facet normal 1 0 0
    outer loop
      vertex 12.5 16 2.5
      vertex 12.5 -16 2.71
      vertex 12.5 -16 2.5
    endloop
  endfacet
  facet normal 0.707107 0.707107 0
    outer loop
      vertex 11.7981 17.9284 2.71
      vertex 11.4284 18.2981 2.5
      vertex 11.4284 18.2981 2.71
    endloop
  endfacet
  facet normal 0.707107 0.707107 0
    outer loop
      vertex 11.4284 18.2981 2.5
      vertex 11.7981 17.9284 2.71
      vertex 11.7981 17.9284 2.5
    endloop
  endfacet
  facet normal 0.819124 -0.573616 0
    outer loop
      vertex 11.7981 -17.9284 2.71
      vertex 12.0981 -17.5 2.5
      vertex 12.0981 -17.5 2.71
    endloop
  endfacet
  facet normal 0.819124 -0.573616 0
    outer loop
      vertex 12.0981 -17.5 2.5
      vertex 11.7981 -17.9284 2.71
      vertex 11.7981 -17.9284 2.5
    endloop
  endfacet
  facet normal 0.707107 -0.707107 0
    outer loop
      vertex 11.4284 -18.2981 2.71
      vertex 11.7981 -17.9284 2.5
      vertex 11.7981 -17.9284 2.71
    endloop
  endfacet
  facet normal 0.707107 -0.707107 0
    outer loop
      vertex 11.7981 -17.9284 2.5
      vertex 11.4284 -18.2981 2.71
      vertex 11.4284 -18.2981 2.5
    endloop
  endfacet
  facet normal -0 0 1
    outer loop
      vertex 11.5691 16.2761 2.71
      vertex 12.5 16 2.71
      vertex 12.4544 16.5209 2.71
    endloop
  endfacet
  facet normal 0 0 1
    outer loop
      vertex 12.5 16 2.71
      vertex 11.75 15.25 2.71
      vertex 12.5 -16 2.71
    endloop
  endfacet
  facet normal 0 0 1
    outer loop
      vertex 11.5691 16.2761 2.71
      vertex 12.4544 16.5209 2.71
      vertex 12.3191 17.0261 2.71
    endloop
  endfacet
  facet normal -0 0 1
    outer loop
      vertex 11.75 -15.25 2.71
      vertex 12.5 -16 2.71
      vertex 11.75 15.25 2.71
    endloop
  endfacet
  facet normal 0 0 1
    outer loop
      vertex 11.3481 16.75 2.71
      vertex 12.3191 17.0261 2.71
      vertex 12.0981 17.5 2.71
    endloop
  endfacet
  facet normal -0 0 1
    outer loop
      vertex 11.7044 -15.7709 2.71
      vertex 12.5 -16 2.71
      vertex 11.75 -15.25 2.71
    endloop
  endfacet
  facet normal 0 0 1
    outer loop
      vertex 11.0481 17.1784 2.71
      vertex 12.0981 17.5 2.71
      vertex 11.7981 17.9284 2.71
    endloop
  endfacet
  facet normal 0 0 1
    outer loop
      vertex 11.5691 -16.2761 2.71
      vertex 12.5 -16 2.71
      vertex 11.7044 -15.7709 2.71
    endloop
  endfacet
  facet normal 0 0 1
    outer loop
      vertex 12.5 -16 2.71
      vertex 11.5691 -16.2761 2.71
      vertex 12.4544 -16.5209 2.71
    endloop
  endfacet
  facet normal 0 0 1
    outer loop
      vertex 12.5 16 2.71
      vertex 11.7044 15.7709 2.71
      vertex 11.75 15.25 2.71
    endloop
  endfacet
  facet normal 0 0 1
    outer loop
      vertex 12.5 16 2.71
      vertex 11.5691 16.2761 2.71
      vertex 11.7044 15.7709 2.71
    endloop
  endfacet
  facet normal 0 0 1
    outer loop
      vertex 11.0481 17.1784 2.71
      vertex 11.7981 17.9284 2.71
      vertex 11.4284 18.2981 2.71
    endloop
  endfacet
  facet normal 0 0 1
    outer loop
      vertex 12.3191 17.0261 2.71
      vertex 11.3481 16.75 2.71
      vertex 11.5691 16.2761 2.71
    endloop
  endfacet
  facet normal 0 0 1
    outer loop
      vertex 12.0981 17.5 2.71
      vertex 11.0481 17.1784 2.71
      vertex 11.3481 16.75 2.71
    endloop
  endfacet
  facet normal 0 0 1
    outer loop
      vertex 10.6784 17.5481 2.71
      vertex 11.4284 18.2981 2.71
      vertex 11 18.5981 2.71
    endloop
  endfacet
  facet normal 0 0 1
    outer loop
      vertex 11.4284 18.2981 2.71
      vertex 10.6784 17.5481 2.71
      vertex 11.0481 17.1784 2.71
    endloop
  endfacet
  facet normal 0 0 1
    outer loop
      vertex 10.25 17.8481 2.71
      vertex 11 18.5981 2.71
      vertex 10.5261 18.8191 2.71
    endloop
  endfacet
  facet normal 0 0 1
    outer loop
      vertex 11 18.5981 2.71
      vertex 10.25 17.8481 2.71
      vertex 10.6784 17.5481 2.71
    endloop
  endfacet
  facet normal 0 0 1
    outer loop
      vertex 9.77606 18.0691 2.71
      vertex 10.5261 18.8191 2.71
      vertex 10.0209 18.9544 2.71
    endloop
  endfacet
  facet normal 0 0 1
    outer loop
      vertex 10.5261 18.8191 2.71
      vertex 9.77606 18.0691 2.71
      vertex 10.25 17.8481 2.71
    endloop
  endfacet
  facet normal 0 0 1
    outer loop
      vertex 9.5 19 2.71
      vertex 9.77606 18.0691 2.71
      vertex 10.0209 18.9544 2.71
    endloop
  endfacet
  facet normal 0 0 1
    outer loop
      vertex 9.5 19 2.71
      vertex 9.27094 18.2044 2.71
      vertex 9.77606 18.0691 2.71
    endloop
  endfacet
  facet normal 0 0 1
    outer loop
      vertex 9.5 19 2.71
      vertex 8.75 18.25 2.71
      vertex 9.27094 18.2044 2.71
    endloop
  endfacet
  facet normal 0 0 1
    outer loop
      vertex 9.5 19 2.71
      vertex -8.75 18.25 2.71
      vertex 8.75 18.25 2.71
    endloop
  endfacet
  facet normal -0 0 1
    outer loop
      vertex -9.5 19 2.71
      vertex -8.75 18.25 2.71
      vertex 9.5 19 2.71
    endloop
  endfacet
  facet normal 0 0 1
    outer loop
      vertex -9.5 19 2.71
      vertex -9.27094 18.2044 2.71
      vertex -8.75 18.25 2.71
    endloop
  endfacet
  facet normal 0 0 1
    outer loop
      vertex -9.5 19 2.71
      vertex -9.77606 18.0691 2.71
      vertex -9.27094 18.2044 2.71
    endloop
  endfacet
  facet normal -0 0 1
    outer loop
      vertex -10.0209 18.9544 2.71
      vertex -9.77606 18.0691 2.71
      vertex -9.5 19 2.71
    endloop
  endfacet
  facet normal -0 0 1
    outer loop
      vertex -10.5261 18.8191 2.71
      vertex -9.77606 18.0691 2.71
      vertex -10.0209 18.9544 2.71
    endloop
  endfacet
  facet normal 0 0 1
    outer loop
      vertex -9.77606 18.0691 2.71
      vertex -10.5261 18.8191 2.71
      vertex -10.25 17.8481 2.71
    endloop
  endfacet
  facet normal -0 0 1
    outer loop
      vertex -11 18.5981 2.71
      vertex -10.25 17.8481 2.71
      vertex -10.5261 18.8191 2.71
    endloop
  endfacet
  facet normal 0 0 1
    outer loop
      vertex -10.25 17.8481 2.71
      vertex -11 18.5981 2.71
      vertex -10.6784 17.5481 2.71
    endloop
  endfacet
  facet normal -0 0 1
    outer loop
      vertex -11.4284 18.2981 2.71
      vertex -10.6784 17.5481 2.71
      vertex -11 18.5981 2.71
    endloop
  endfacet
  facet normal 0 0 1
    outer loop
      vertex -10.6784 17.5481 2.71
      vertex -11.4284 18.2981 2.71
      vertex -11.0481 17.1784 2.71
    endloop
  endfacet
  facet normal -0 0 1
    outer loop
      vertex -11.7981 17.9284 2.71
      vertex -11.0481 17.1784 2.71
      vertex -11.4284 18.2981 2.71
    endloop
  endfacet
  facet normal -0 0 1
    outer loop
      vertex -12.0981 17.5 2.71
      vertex -11.0481 17.1784 2.71
      vertex -11.7981 17.9284 2.71
    endloop
  endfacet
  facet normal 0 0 1
    outer loop
      vertex -11.0481 17.1784 2.71
      vertex -12.0981 17.5 2.71
      vertex -11.3481 16.75 2.71
    endloop
  endfacet
  facet normal -0 0 1
    outer loop
      vertex -12.4544 16.5209 2.71
      vertex -11.5691 16.2761 2.71
      vertex -12.3191 17.0261 2.71
    endloop
  endfacet
  facet normal 0 0 1
    outer loop
      vertex -11.3481 16.75 2.71
      vertex -12.3191 17.0261 2.71
      vertex -11.5691 16.2761 2.71
    endloop
  endfacet
  facet normal -0 0 1
    outer loop
      vertex -12.3191 17.0261 2.71
      vertex -11.3481 16.75 2.71
      vertex -12.0981 17.5 2.71
    endloop
  endfacet
  facet normal 0 0 1
    outer loop
      vertex 12.4544 -16.5209 2.71
      vertex 11.5691 -16.2761 2.71
      vertex 12.3191 -17.0261 2.71
    endloop
  endfacet
  facet normal -0 0 1
    outer loop
      vertex 11.3481 -16.75 2.71
      vertex 12.3191 -17.0261 2.71
      vertex 11.5691 -16.2761 2.71
    endloop
  endfacet
  facet normal 0 0 1
    outer loop
      vertex 12.3191 -17.0261 2.71
      vertex 11.3481 -16.75 2.71
      vertex 12.0981 -17.5 2.71
    endloop
  endfacet
  facet normal -0 0 1
    outer loop
      vertex 11.0481 -17.1784 2.71
      vertex 12.0981 -17.5 2.71
      vertex 11.3481 -16.75 2.71
    endloop
  endfacet
  facet normal 0 0 1
    outer loop
      vertex 12.0981 -17.5 2.71
      vertex 11.0481 -17.1784 2.71
      vertex 11.7981 -17.9284 2.71
    endloop
  endfacet
  facet normal 0 0 1
    outer loop
      vertex 11.7981 -17.9284 2.71
      vertex 11.0481 -17.1784 2.71
      vertex 11.4284 -18.2981 2.71
    endloop
  endfacet
  facet normal -0 0 1
    outer loop
      vertex 10.6784 -17.5481 2.71
      vertex 11.4284 -18.2981 2.71
      vertex 11.0481 -17.1784 2.71
    endloop
  endfacet
  facet normal 0 0 1
    outer loop
      vertex 11.4284 -18.2981 2.71
      vertex 10.6784 -17.5481 2.71
      vertex 11 -18.5981 2.71
    endloop
  endfacet
  facet normal -0 0 1
    outer loop
      vertex 10.25 -17.8481 2.71
      vertex 11 -18.5981 2.71
      vertex 10.6784 -17.5481 2.71
    endloop
  endfacet
  facet normal 0 0 1
    outer loop
      vertex 11 -18.5981 2.71
      vertex 10.25 -17.8481 2.71
      vertex 10.5261 -18.8191 2.71
    endloop
  endfacet
  facet normal -0 0 1
    outer loop
      vertex 9.77606 -18.0691 2.71
      vertex 10.5261 -18.8191 2.71
      vertex 10.25 -17.8481 2.71
    endloop
  endfacet
  facet normal 0 0 1
    outer loop
      vertex 10.5261 -18.8191 2.71
      vertex 9.77606 -18.0691 2.71
      vertex 10.0209 -18.9544 2.71
    endloop
  endfacet
  facet normal 0 0 1
    outer loop
      vertex 9.77606 -18.0691 2.71
      vertex 9.5 -19 2.71
      vertex 10.0209 -18.9544 2.71
    endloop
  endfacet
  facet normal -0 0 1
    outer loop
      vertex 9.27094 -18.2044 2.71
      vertex 9.5 -19 2.71
      vertex 9.77606 -18.0691 2.71
    endloop
  endfacet
  facet normal -0 0 1
    outer loop
      vertex 8.75 -18.25 2.71
      vertex 9.5 -19 2.71
      vertex 9.27094 -18.2044 2.71
    endloop
  endfacet
  facet normal -0 0 1
    outer loop
      vertex -8.75 -18.25 2.71
      vertex 9.5 -19 2.71
      vertex 8.75 -18.25 2.71
    endloop
  endfacet
  facet normal 0 0 1
    outer loop
      vertex -8.75 -18.25 2.71
      vertex -9.5 -19 2.71
      vertex 9.5 -19 2.71
    endloop
  endfacet
  facet normal 0 0 1
    outer loop
      vertex -9.27094 -18.2044 2.71
      vertex -9.5 -19 2.71
      vertex -8.75 -18.25 2.71
    endloop
  endfacet
  facet normal 0 0 1
    outer loop
      vertex -9.77606 -18.0691 2.71
      vertex -9.5 -19 2.71
      vertex -9.27094 -18.2044 2.71
    endloop
  endfacet
  facet normal 0 0 1
    outer loop
      vertex -9.77606 -18.0691 2.71
      vertex -10.0209 -18.9544 2.71
      vertex -9.5 -19 2.71
    endloop
  endfacet
  facet normal 0 0 1
    outer loop
      vertex -10.5261 -18.8191 2.71
      vertex -9.77606 -18.0691 2.71
      vertex -10.25 -17.8481 2.71
    endloop
  endfacet
  facet normal 0 0 1
    outer loop
      vertex -9.77606 -18.0691 2.71
      vertex -10.5261 -18.8191 2.71
      vertex -10.0209 -18.9544 2.71
    endloop
  endfacet
  facet normal 0 0 1
    outer loop
      vertex -11 -18.5981 2.71
      vertex -10.25 -17.8481 2.71
      vertex -10.6784 -17.5481 2.71
    endloop
  endfacet
  facet normal 0 0 1
    outer loop
      vertex -10.25 -17.8481 2.71
      vertex -11 -18.5981 2.71
      vertex -10.5261 -18.8191 2.71
    endloop
  endfacet
  facet normal 0 0 1
    outer loop
      vertex -11.4284 -18.2981 2.71
      vertex -10.6784 -17.5481 2.71
      vertex -11.0481 -17.1784 2.71
    endloop
  endfacet
  facet normal 0 0 1
    outer loop
      vertex -12.0981 -17.5 2.71
      vertex -11.0481 -17.1784 2.71
      vertex -11.3481 -16.75 2.71
    endloop
  endfacet
  facet normal 0 0 1
    outer loop
      vertex -10.6784 -17.5481 2.71
      vertex -11.4284 -18.2981 2.71
      vertex -11 -18.5981 2.71
    endloop
  endfacet
  facet normal 0 0 1
    outer loop
      vertex -12.3191 -17.0261 2.71
      vertex -11.3481 -16.75 2.71
      vertex -11.5691 -16.2761 2.71
    endloop
  endfacet
  facet normal -0 0 1
    outer loop
      vertex -12.5 -16 2.71
      vertex -11.5691 -16.2761 2.71
      vertex -11.7044 -15.7709 2.71
    endloop
  endfacet
  facet normal 0 0 1
    outer loop
      vertex -11.0481 -17.1784 2.71
      vertex -11.7981 -17.9284 2.71
      vertex -11.4284 -18.2981 2.71
    endloop
  endfacet
  facet normal 0 0 1
    outer loop
      vertex -12.5 -16 2.71
      vertex -11.7044 -15.7709 2.71
      vertex -11.75 -15.25 2.71
    endloop
  endfacet
  facet normal 0 0 1
    outer loop
      vertex -11.75 15.25 2.71
      vertex -12.5 16 2.71
      vertex -11.75 -15.25 2.71
    endloop
  endfacet
  facet normal 0 0 1
    outer loop
      vertex -12.5 16 2.71
      vertex -11.5691 16.2761 2.71
      vertex -12.4544 16.5209 2.71
    endloop
  endfacet
  facet normal 0 0 1
    outer loop
      vertex -12.5 -16 2.71
      vertex -11.75 -15.25 2.71
      vertex -12.5 16 2.71
    endloop
  endfacet
  facet normal 0 0 1
    outer loop
      vertex -11.5691 16.2761 2.71
      vertex -12.5 16 2.71
      vertex -11.7044 15.7709 2.71
    endloop
  endfacet
  facet normal 0 0 1
    outer loop
      vertex -11.5691 -16.2761 2.71
      vertex -12.5 -16 2.71
      vertex -12.4544 -16.5209 2.71
    endloop
  endfacet
  facet normal 0 0 1
    outer loop
      vertex -11.7044 15.7709 2.71
      vertex -12.5 16 2.71
      vertex -11.75 15.25 2.71
    endloop
  endfacet
  facet normal 0 0 1
    outer loop
      vertex -11.0481 -17.1784 2.71
      vertex -12.0981 -17.5 2.71
      vertex -11.7981 -17.9284 2.71
    endloop
  endfacet
  facet normal 0 0 1
    outer loop
      vertex -11.3481 -16.75 2.71
      vertex -12.3191 -17.0261 2.71
      vertex -12.0981 -17.5 2.71
    endloop
  endfacet
  facet normal 0 0 1
    outer loop
      vertex -11.5691 -16.2761 2.71
      vertex -12.4544 -16.5209 2.71
      vertex -12.3191 -17.0261 2.71
    endloop
  endfacet
  facet normal -0.573616 0.819124 0
    outer loop
      vertex -11 18.5981 2.5
      vertex -11.4284 18.2981 2.71
      vertex -11 18.5981 2.71
    endloop
  endfacet
  facet normal -0.573616 0.819124 0
    outer loop
      vertex -11.4284 18.2981 2.71
      vertex -11 18.5981 2.5
      vertex -11.4284 18.2981 2.5
    endloop
  endfacet
  facet normal -0.0872073 -0.99619 0
    outer loop
      vertex -10.0209 -18.9544 2.5
      vertex -9.5 -19 2.71
      vertex -10.0209 -18.9544 2.71
    endloop
  endfacet
  facet normal -0.0872073 -0.99619 -0
    outer loop
      vertex -9.5 -19 2.71
      vertex -10.0209 -18.9544 2.5
      vertex -9.5 -19 2.5
    endloop
  endfacet
  facet normal -0.258698 -0.965958 0
    outer loop
      vertex -10.5261 -18.8191 2.5
      vertex -10.0209 -18.9544 2.71
      vertex -10.5261 -18.8191 2.71
    endloop
  endfacet
  facet normal -0.258698 -0.965958 -0
    outer loop
      vertex -10.0209 -18.9544 2.71
      vertex -10.5261 -18.8191 2.5
      vertex -10.0209 -18.9544 2.5
    endloop
  endfacet
  facet normal 0.422645 -0.906295 0
    outer loop
      vertex 10.5261 -18.8191 2.5
      vertex 11 -18.5981 2.71
      vertex 10.5261 -18.8191 2.71
    endloop
  endfacet
  facet normal 0.422645 -0.906295 0
    outer loop
      vertex 11 -18.5981 2.71
      vertex 10.5261 -18.8191 2.5
      vertex 11 -18.5981 2.5
    endloop
  endfacet
  facet normal 0.906295 0.422645 0
    outer loop
      vertex 12.3191 17.0261 2.71
      vertex 12.0981 17.5 2.5
      vertex 12.0981 17.5 2.71
    endloop
  endfacet
  facet normal 0.906295 0.422645 0
    outer loop
      vertex 12.0981 17.5 2.5
      vertex 12.3191 17.0261 2.71
      vertex 12.3191 17.0261 2.5
    endloop
  endfacet
  facet normal -0.573616 -0.819124 0
    outer loop
      vertex -11.4284 -18.2981 2.5
      vertex -11 -18.5981 2.71
      vertex -11.4284 -18.2981 2.71
    endloop
  endfacet
  facet normal -0.573616 -0.819124 -0
    outer loop
      vertex -11 -18.5981 2.71
      vertex -11.4284 -18.2981 2.5
      vertex -11 -18.5981 2.5
    endloop
  endfacet
  facet normal 0.573616 0.819124 -0
    outer loop
      vertex 11.4284 18.2981 2.5
      vertex 11 18.5981 2.71
      vertex 11.4284 18.2981 2.71
    endloop
  endfacet
  facet normal 0.573616 0.819124 0
    outer loop
      vertex 11 18.5981 2.71
      vertex 11.4284 18.2981 2.5
      vertex 11 18.5981 2.5
    endloop
  endfacet
  facet normal 0.965958 0.258698 0
    outer loop
      vertex 12.4544 16.5209 2.71
      vertex 12.3191 17.0261 2.5
      vertex 12.3191 17.0261 2.71
    endloop
  endfacet
  facet normal 0.965958 0.258698 0
    outer loop
      vertex 12.3191 17.0261 2.5
      vertex 12.4544 16.5209 2.71
      vertex 12.4544 16.5209 2.5
    endloop
  endfacet
  facet normal -0.422645 0.906295 0
    outer loop
      vertex -10.5261 18.8191 2.5
      vertex -11 18.5981 2.71
      vertex -10.5261 18.8191 2.71
    endloop
  endfacet
  facet normal -0.422645 0.906295 0
    outer loop
      vertex -11 18.5981 2.71
      vertex -10.5261 18.8191 2.5
      vertex -11 18.5981 2.5
    endloop
  endfacet
  facet normal 0.965958 -0.258698 0
    outer loop
      vertex 12.3191 -17.0261 2.71
      vertex 12.4544 -16.5209 2.5
      vertex 12.4544 -16.5209 2.71
    endloop
  endfacet
  facet normal 0.965958 -0.258698 0
    outer loop
      vertex 12.4544 -16.5209 2.5
      vertex 12.3191 -17.0261 2.71
      vertex 12.3191 -17.0261 2.5
    endloop
  endfacet
  facet normal 0.819124 0.573616 0
    outer loop
      vertex 12.0981 17.5 2.71
      vertex 11.7981 17.9284 2.5
      vertex 11.7981 17.9284 2.71
    endloop
  endfacet
  facet normal 0.819124 0.573616 0
    outer loop
      vertex 11.7981 17.9284 2.5
      vertex 12.0981 17.5 2.71
      vertex 12.0981 17.5 2.5
    endloop
  endfacet
  facet normal 0.0872073 -0.99619 0
    outer loop
      vertex 9.5 -19 2.5
      vertex 10.0209 -18.9544 2.71
      vertex 9.5 -19 2.71
    endloop
  endfacet
  facet normal 0.0872073 -0.99619 0
    outer loop
      vertex 10.0209 -18.9544 2.71
      vertex 9.5 -19 2.5
      vertex 10.0209 -18.9544 2.5
    endloop
  endfacet
  facet normal -0.707107 0.707107 0
    outer loop
      vertex -11.7981 17.9284 2.5
      vertex -11.4284 18.2981 2.71
      vertex -11.4284 18.2981 2.5
    endloop
  endfacet
  facet normal -0.707107 0.707107 0
    outer loop
      vertex -11.4284 18.2981 2.71
      vertex -11.7981 17.9284 2.5
      vertex -11.7981 17.9284 2.71
    endloop
  endfacet
  facet normal 0 0 -1
    outer loop
      vertex 11.5691 -16.2761 2.5
      vertex 12.5 -16 2.5
      vertex 12.4544 -16.5209 2.5
    endloop
  endfacet
  facet normal 0 0 -1
    outer loop
      vertex 12.5 -16 2.5
      vertex 11.75 -15.25 2.5
      vertex 12.5 16 2.5
    endloop
  endfacet
  facet normal 0 0 -1
    outer loop
      vertex 11.5691 -16.2761 2.5
      vertex 12.4544 -16.5209 2.5
      vertex 12.3191 -17.0261 2.5
    endloop
  endfacet
  facet normal 0 0 -1
    outer loop
      vertex 11.75 15.25 2.5
      vertex 12.5 16 2.5
      vertex 11.75 -15.25 2.5
    endloop
  endfacet
  facet normal 0 0 -1
    outer loop
      vertex 11.3481 -16.75 2.5
      vertex 12.3191 -17.0261 2.5
      vertex 12.0981 -17.5 2.5
    endloop
  endfacet
  facet normal 0 0 -1
    outer loop
      vertex 11.7044 15.7709 2.5
      vertex 12.5 16 2.5
      vertex 11.75 15.25 2.5
    endloop
  endfacet
  facet normal 0 0 -1
    outer loop
      vertex 11.0481 -17.1784 2.5
      vertex 12.0981 -17.5 2.5
      vertex 11.7981 -17.9284 2.5
    endloop
  endfacet
  facet normal 0 0 -1
    outer loop
      vertex 11.5691 16.2761 2.5
      vertex 12.5 16 2.5
      vertex 11.7044 15.7709 2.5
    endloop
  endfacet
  facet normal 0 0 -1
    outer loop
      vertex 12.5 16 2.5
      vertex 11.5691 16.2761 2.5
      vertex 12.4544 16.5209 2.5
    endloop
  endfacet
  facet normal 0 0 -1
    outer loop
      vertex 12.5 -16 2.5
      vertex 11.7044 -15.7709 2.5
      vertex 11.75 -15.25 2.5
    endloop
  endfacet
  facet normal -0 0 -1
    outer loop
      vertex 12.5 -16 2.5
      vertex 11.5691 -16.2761 2.5
      vertex 11.7044 -15.7709 2.5
    endloop
  endfacet
  facet normal 0 0 -1
    outer loop
      vertex 11.0481 -17.1784 2.5
      vertex 11.7981 -17.9284 2.5
      vertex 11.4284 -18.2981 2.5
    endloop
  endfacet
  facet normal 0 0 -1
    outer loop
      vertex 12.3191 -17.0261 2.5
      vertex 11.3481 -16.75 2.5
      vertex 11.5691 -16.2761 2.5
    endloop
  endfacet
  facet normal 0 0 -1
    outer loop
      vertex 12.0981 -17.5 2.5
      vertex 11.0481 -17.1784 2.5
      vertex 11.3481 -16.75 2.5
    endloop
  endfacet
  facet normal 0 0 -1
    outer loop
      vertex 10.6784 -17.5481 2.5
      vertex 11.4284 -18.2981 2.5
      vertex 11 -18.5981 2.5
    endloop
  endfacet
  facet normal 0 0 -1
    outer loop
      vertex 11.4284 -18.2981 2.5
      vertex 10.6784 -17.5481 2.5
      vertex 11.0481 -17.1784 2.5
    endloop
  endfacet
  facet normal 0 0 -1
    outer loop
      vertex 10.25 -17.8481 2.5
      vertex 11 -18.5981 2.5
      vertex 10.5261 -18.8191 2.5
    endloop
  endfacet
  facet normal 0 0 -1
    outer loop
      vertex 11 -18.5981 2.5
      vertex 10.25 -17.8481 2.5
      vertex 10.6784 -17.5481 2.5
    endloop
  endfacet
  facet normal 0 0 -1
    outer loop
      vertex 9.77606 -18.0691 2.5
      vertex 10.5261 -18.8191 2.5
      vertex 10.0209 -18.9544 2.5
    endloop
  endfacet
  facet normal 0 0 -1
    outer loop
      vertex 10.5261 -18.8191 2.5
      vertex 9.77606 -18.0691 2.5
      vertex 10.25 -17.8481 2.5
    endloop
  endfacet
  facet normal 0 0 -1
    outer loop
      vertex 9.5 -19 2.5
      vertex 9.77606 -18.0691 2.5
      vertex 10.0209 -18.9544 2.5
    endloop
  endfacet
  facet normal 0 0 -1
    outer loop
      vertex 9.5 -19 2.5
      vertex 9.27094 -18.2044 2.5
      vertex 9.77606 -18.0691 2.5
    endloop
  endfacet
  facet normal 0 0 -1
    outer loop
      vertex 9.5 -19 2.5
      vertex 8.75 -18.25 2.5
      vertex 9.27094 -18.2044 2.5
    endloop
  endfacet
  facet normal 0 0 -1
    outer loop
      vertex 9.5 -19 2.5
      vertex -8.75 -18.25 2.5
      vertex 8.75 -18.25 2.5
    endloop
  endfacet
  facet normal 0 0 -1
    outer loop
      vertex -9.5 -19 2.5
      vertex -8.75 -18.25 2.5
      vertex 9.5 -19 2.5
    endloop
  endfacet
  facet normal 0 0 -1
    outer loop
      vertex -9.5 -19 2.5
      vertex -9.27094 -18.2044 2.5
      vertex -8.75 -18.25 2.5
    endloop
  endfacet
  facet normal 0 0 -1
    outer loop
      vertex -9.5 -19 2.5
      vertex -9.77606 -18.0691 2.5
      vertex -9.27094 -18.2044 2.5
    endloop
  endfacet
  facet normal 0 0 -1
    outer loop
      vertex -10.0209 -18.9544 2.5
      vertex -9.77606 -18.0691 2.5
      vertex -9.5 -19 2.5
    endloop
  endfacet
  facet normal 0 0 -1
    outer loop
      vertex -10.5261 -18.8191 2.5
      vertex -9.77606 -18.0691 2.5
      vertex -10.0209 -18.9544 2.5
    endloop
  endfacet
  facet normal -0 0 -1
    outer loop
      vertex -9.77606 -18.0691 2.5
      vertex -10.5261 -18.8191 2.5
      vertex -10.25 -17.8481 2.5
    endloop
  endfacet
  facet normal 0 0 -1
    outer loop
      vertex -11 -18.5981 2.5
      vertex -10.25 -17.8481 2.5
      vertex -10.5261 -18.8191 2.5
    endloop
  endfacet
  facet normal -0 0 -1
    outer loop
      vertex -10.25 -17.8481 2.5
      vertex -11 -18.5981 2.5
      vertex -10.6784 -17.5481 2.5
    endloop
  endfacet
  facet normal 0 0 -1
    outer loop
      vertex -11.4284 -18.2981 2.5
      vertex -10.6784 -17.5481 2.5
      vertex -11 -18.5981 2.5
    endloop
  endfacet
  facet normal -0 0 -1
    outer loop
      vertex -10.6784 -17.5481 2.5
      vertex -11.4284 -18.2981 2.5
      vertex -11.0481 -17.1784 2.5
    endloop
  endfacet
  facet normal 0 0 -1
    outer loop
      vertex -11.7981 -17.9284 2.5
      vertex -11.0481 -17.1784 2.5
      vertex -11.4284 -18.2981 2.5
    endloop
  endfacet
  facet normal 0 0 -1
    outer loop
      vertex -12.0981 -17.5 2.5
      vertex -11.0481 -17.1784 2.5
      vertex -11.7981 -17.9284 2.5
    endloop
  endfacet
  facet normal -0 0 -1
    outer loop
      vertex -11.0481 -17.1784 2.5
      vertex -12.0981 -17.5 2.5
      vertex -11.3481 -16.75 2.5
    endloop
  endfacet
  facet normal 0 0 -1
    outer loop
      vertex -12.4544 -16.5209 2.5
      vertex -11.5691 -16.2761 2.5
      vertex -12.3191 -17.0261 2.5
    endloop
  endfacet
  facet normal -0 0 -1
    outer loop
      vertex -11.3481 -16.75 2.5
      vertex -12.3191 -17.0261 2.5
      vertex -11.5691 -16.2761 2.5
    endloop
  endfacet
  facet normal 0 0 -1
    outer loop
      vertex -12.3191 -17.0261 2.5
      vertex -11.3481 -16.75 2.5
      vertex -12.0981 -17.5 2.5
    endloop
  endfacet
  facet normal -0 0 -1
    outer loop
      vertex 12.4544 16.5209 2.5
      vertex 11.5691 16.2761 2.5
      vertex 12.3191 17.0261 2.5
    endloop
  endfacet
  facet normal 0 0 -1
    outer loop
      vertex 11.3481 16.75 2.5
      vertex 12.3191 17.0261 2.5
      vertex 11.5691 16.2761 2.5
    endloop
  endfacet
  facet normal -0 0 -1
    outer loop
      vertex 12.3191 17.0261 2.5
      vertex 11.3481 16.75 2.5
      vertex 12.0981 17.5 2.5
    endloop
  endfacet
  facet normal 0 0 -1
    outer loop
      vertex 11.0481 17.1784 2.5
      vertex 12.0981 17.5 2.5
      vertex 11.3481 16.75 2.5
    endloop
  endfacet
  facet normal -0 0 -1
    outer loop
      vertex 12.0981 17.5 2.5
      vertex 11.0481 17.1784 2.5
      vertex 11.7981 17.9284 2.5
    endloop
  endfacet
  facet normal -0 0 -1
    outer loop
      vertex 11.7981 17.9284 2.5
      vertex 11.0481 17.1784 2.5
      vertex 11.4284 18.2981 2.5
    endloop
  endfacet
  facet normal 0 0 -1
    outer loop
      vertex 10.6784 17.5481 2.5
      vertex 11.4284 18.2981 2.5
      vertex 11.0481 17.1784 2.5
    endloop
  endfacet
  facet normal -0 0 -1
    outer loop
      vertex 11.4284 18.2981 2.5
      vertex 10.6784 17.5481 2.5
      vertex 11 18.5981 2.5
    endloop
  endfacet
  facet normal 0 0 -1
    outer loop
      vertex 10.25 17.8481 2.5
      vertex 11 18.5981 2.5
      vertex 10.6784 17.5481 2.5
    endloop
  endfacet
  facet normal -0 0 -1
    outer loop
      vertex 11 18.5981 2.5
      vertex 10.25 17.8481 2.5
      vertex 10.5261 18.8191 2.5
    endloop
  endfacet
  facet normal 0 0 -1
    outer loop
      vertex 9.77606 18.0691 2.5
      vertex 10.5261 18.8191 2.5
      vertex 10.25 17.8481 2.5
    endloop
  endfacet
  facet normal -0 0 -1
    outer loop
      vertex 10.5261 18.8191 2.5
      vertex 9.77606 18.0691 2.5
      vertex 10.0209 18.9544 2.5
    endloop
  endfacet
  facet normal 0 0 -1
    outer loop
      vertex 9.77606 18.0691 2.5
      vertex 9.5 19 2.5
      vertex 10.0209 18.9544 2.5
    endloop
  endfacet
  facet normal 0 0 -1
    outer loop
      vertex 9.27094 18.2044 2.5
      vertex 9.5 19 2.5
      vertex 9.77606 18.0691 2.5
    endloop
  endfacet
  facet normal 0 0 -1
    outer loop
      vertex 8.75 18.25 2.5
      vertex 9.5 19 2.5
      vertex 9.27094 18.2044 2.5
    endloop
  endfacet
  facet normal 0 0 -1
    outer loop
      vertex -8.75 18.25 2.5
      vertex 9.5 19 2.5
      vertex 8.75 18.25 2.5
    endloop
  endfacet
  facet normal 0 0 -1
    outer loop
      vertex -8.75 18.25 2.5
      vertex -9.5 19 2.5
      vertex 9.5 19 2.5
    endloop
  endfacet
  facet normal 0 0 -1
    outer loop
      vertex -9.27094 18.2044 2.5
      vertex -9.5 19 2.5
      vertex -8.75 18.25 2.5
    endloop
  endfacet
  facet normal 0 0 -1
    outer loop
      vertex -9.77606 18.0691 2.5
      vertex -9.5 19 2.5
      vertex -9.27094 18.2044 2.5
    endloop
  endfacet
  facet normal 0 0 -1
    outer loop
      vertex -9.77606 18.0691 2.5
      vertex -10.0209 18.9544 2.5
      vertex -9.5 19 2.5
    endloop
  endfacet
  facet normal 0 0 -1
    outer loop
      vertex -10.5261 18.8191 2.5
      vertex -9.77606 18.0691 2.5
      vertex -10.25 17.8481 2.5
    endloop
  endfacet
  facet normal 0 0 -1
    outer loop
      vertex -9.77606 18.0691 2.5
      vertex -10.5261 18.8191 2.5
      vertex -10.0209 18.9544 2.5
    endloop
  endfacet
  facet normal 0 0 -1
    outer loop
      vertex -11 18.5981 2.5
      vertex -10.25 17.8481 2.5
      vertex -10.6784 17.5481 2.5
    endloop
  endfacet
  facet normal 0 0 -1
    outer loop
      vertex -10.25 17.8481 2.5
      vertex -11 18.5981 2.5
      vertex -10.5261 18.8191 2.5
    endloop
  endfacet
  facet normal 0 0 -1
    outer loop
      vertex -11.4284 18.2981 2.5
      vertex -10.6784 17.5481 2.5
      vertex -11.0481 17.1784 2.5
    endloop
  endfacet
  facet normal 0 0 -1
    outer loop
      vertex -12.0981 17.5 2.5
      vertex -11.0481 17.1784 2.5
      vertex -11.3481 16.75 2.5
    endloop
  endfacet
  facet normal 0 0 -1
    outer loop
      vertex -10.6784 17.5481 2.5
      vertex -11.4284 18.2981 2.5
      vertex -11 18.5981 2.5
    endloop
  endfacet
  facet normal 0 0 -1
    outer loop
      vertex -12.3191 17.0261 2.5
      vertex -11.3481 16.75 2.5
      vertex -11.5691 16.2761 2.5
    endloop
  endfacet
  facet normal 0 0 -1
    outer loop
      vertex -12.5 16 2.5
      vertex -11.5691 16.2761 2.5
      vertex -11.7044 15.7709 2.5
    endloop
  endfacet
  facet normal 0 0 -1
    outer loop
      vertex -11.0481 17.1784 2.5
      vertex -11.7981 17.9284 2.5
      vertex -11.4284 18.2981 2.5
    endloop
  endfacet
  facet normal 0 0 -1
    outer loop
      vertex -12.5 16 2.5
      vertex -11.7044 15.7709 2.5
      vertex -11.75 15.25 2.5
    endloop
  endfacet
  facet normal -0 0 -1
    outer loop
      vertex -11.75 -15.25 2.5
      vertex -12.5 -16 2.5
      vertex -11.75 15.25 2.5
    endloop
  endfacet
  facet normal 0 0 -1
    outer loop
      vertex -12.5 -16 2.5
      vertex -11.5691 -16.2761 2.5
      vertex -12.4544 -16.5209 2.5
    endloop
  endfacet
  facet normal 0 0 -1
    outer loop
      vertex -12.5 16 2.5
      vertex -11.75 15.25 2.5
      vertex -12.5 -16 2.5
    endloop
  endfacet
  facet normal 0 0 -1
    outer loop
      vertex -11.5691 -16.2761 2.5
      vertex -12.5 -16 2.5
      vertex -11.7044 -15.7709 2.5
    endloop
  endfacet
  facet normal -0 0 -1
    outer loop
      vertex -11.5691 16.2761 2.5
      vertex -12.5 16 2.5
      vertex -12.4544 16.5209 2.5
    endloop
  endfacet
  facet normal -0 0 -1
    outer loop
      vertex -11.7044 -15.7709 2.5
      vertex -12.5 -16 2.5
      vertex -11.75 -15.25 2.5
    endloop
  endfacet
  facet normal 0 0 -1
    outer loop
      vertex -11.0481 17.1784 2.5
      vertex -12.0981 17.5 2.5
      vertex -11.7981 17.9284 2.5
    endloop
  endfacet
  facet normal 0 0 -1
    outer loop
      vertex -11.3481 16.75 2.5
      vertex -12.3191 17.0261 2.5
      vertex -12.0981 17.5 2.5
    endloop
  endfacet
  facet normal 0 0 -1
    outer loop
      vertex -11.5691 16.2761 2.5
      vertex -12.4544 16.5209 2.5
      vertex -12.3191 17.0261 2.5
    endloop
  endfacet
  facet normal -0.0872073 0.99619 0
    outer loop
      vertex -9.5 19 2.5
      vertex -10.0209 18.9544 2.71
      vertex -9.5 19 2.71
    endloop
  endfacet
  facet normal -0.0872073 0.99619 0
    outer loop
      vertex -10.0209 18.9544 2.71
      vertex -9.5 19 2.5
      vertex -10.0209 18.9544 2.5
    endloop
  endfacet
  facet normal 0.422615 0.906309 -0
    outer loop
      vertex -9.77606 -18.0691 2.5
      vertex -10.25 -17.8481 2.71
      vertex -9.77606 -18.0691 2.71
    endloop
  endfacet
  facet normal 0.422615 0.906309 0
    outer loop
      vertex -10.25 -17.8481 2.71
      vertex -9.77606 -18.0691 2.5
      vertex -10.25 -17.8481 2.5
    endloop
  endfacet
  facet normal 0.0872006 -0.996191 0
    outer loop
      vertex -9.27094 18.2044 2.5
      vertex -8.75 18.25 2.71
      vertex -9.27094 18.2044 2.71
    endloop
  endfacet
  facet normal 0.0872006 -0.996191 0
    outer loop
      vertex -8.75 18.25 2.71
      vertex -9.27094 18.2044 2.5
      vertex -8.75 18.25 2.5
    endloop
  endfacet
  facet normal 0.573616 0.819124 -0
    outer loop
      vertex -10.25 -17.8481 2.5
      vertex -10.6784 -17.5481 2.71
      vertex -10.25 -17.8481 2.71
    endloop
  endfacet
  facet normal 0.573616 0.819124 0
    outer loop
      vertex -10.6784 -17.5481 2.71
      vertex -10.25 -17.8481 2.5
      vertex -10.6784 -17.5481 2.5
    endloop
  endfacet
  facet normal 0.906295 0.422645 0
    outer loop
      vertex -11.3481 -16.75 2.71
      vertex -11.5691 -16.2761 2.5
      vertex -11.5691 -16.2761 2.71
    endloop
  endfacet
  facet normal 0.906295 0.422645 0
    outer loop
      vertex -11.5691 -16.2761 2.5
      vertex -11.3481 -16.75 2.71
      vertex -11.3481 -16.75 2.5
    endloop
  endfacet
  facet normal -0.99619 -0.0872073 0
    outer loop
      vertex 11.75 15.25 2.5
      vertex 11.7044 15.7709 2.71
      vertex 11.7044 15.7709 2.5
    endloop
  endfacet
  facet normal -0.99619 -0.0872073 0
    outer loop
      vertex 11.7044 15.7709 2.71
      vertex 11.75 15.25 2.5
      vertex 11.75 15.25 2.71
    endloop
  endfacet
  facet normal -0.819124 -0.573616 0
    outer loop
      vertex 11.3481 16.75 2.5
      vertex 11.0481 17.1784 2.71
      vertex 11.0481 17.1784 2.5
    endloop
  endfacet
  facet normal -0.819124 -0.573616 0
    outer loop
      vertex 11.0481 17.1784 2.71
      vertex 11.3481 16.75 2.5
      vertex 11.3481 16.75 2.71
    endloop
  endfacet
  facet normal 0.906295 -0.422645 0
    outer loop
      vertex -11.5691 16.2761 2.71
      vertex -11.3481 16.75 2.5
      vertex -11.3481 16.75 2.71
    endloop
  endfacet
  facet normal 0.906295 -0.422645 0
    outer loop
      vertex -11.3481 16.75 2.5
      vertex -11.5691 16.2761 2.71
      vertex -11.5691 16.2761 2.5
    endloop
  endfacet
  facet normal -0.0872006 0.996191 0
    outer loop
      vertex 9.27094 -18.2044 2.5
      vertex 8.75 -18.25 2.71
      vertex 9.27094 -18.2044 2.71
    endloop
  endfacet
  facet normal -0.0872006 0.996191 0
    outer loop
      vertex 8.75 -18.25 2.71
      vertex 9.27094 -18.2044 2.5
      vertex 8.75 -18.25 2.5
    endloop
  endfacet
  facet normal -0.906295 0.422645 0
    outer loop
      vertex 11.3481 -16.75 2.5
      vertex 11.5691 -16.2761 2.71
      vertex 11.5691 -16.2761 2.5
    endloop
  endfacet
  facet normal -0.906295 0.422645 0
    outer loop
      vertex 11.5691 -16.2761 2.71
      vertex 11.3481 -16.75 2.5
      vertex 11.3481 -16.75 2.71
    endloop
  endfacet
  facet normal 0 1 -0
    outer loop
      vertex 8.75 -18.25 2.5
      vertex -8.75 -18.25 2.71
      vertex 8.75 -18.25 2.71
    endloop
  endfacet
  facet normal 0 1 0
    outer loop
      vertex -8.75 -18.25 2.71
      vertex 8.75 -18.25 2.5
      vertex -8.75 -18.25 2.5
    endloop
  endfacet
  facet normal -0.422615 0.906309 0
    outer loop
      vertex 10.25 -17.8481 2.5
      vertex 9.77606 -18.0691 2.71
      vertex 10.25 -17.8481 2.71
    endloop
  endfacet
  facet normal -0.422615 0.906309 0
    outer loop
      vertex 9.77606 -18.0691 2.71
      vertex 10.25 -17.8481 2.5
      vertex 9.77606 -18.0691 2.5
    endloop
  endfacet
  facet normal 1 -0 0
    outer loop
      vertex -11.75 -15.25 2.71
      vertex -11.75 15.25 2.5
      vertex -11.75 15.25 2.71
    endloop
  endfacet
  facet normal 1 0 0
    outer loop
      vertex -11.75 15.25 2.5
      vertex -11.75 -15.25 2.71
      vertex -11.75 -15.25 2.5
    endloop
  endfacet
  facet normal -1 0 0
    outer loop
      vertex 11.75 -15.25 2.5
      vertex 11.75 15.25 2.71
      vertex 11.75 15.25 2.5
    endloop
  endfacet
  facet normal -1 -0 0
    outer loop
      vertex 11.75 15.25 2.71
      vertex 11.75 -15.25 2.5
      vertex 11.75 -15.25 2.71
    endloop
  endfacet
  facet normal -0.906295 -0.422645 0
    outer loop
      vertex 11.5691 16.2761 2.5
      vertex 11.3481 16.75 2.71
      vertex 11.3481 16.75 2.5
    endloop
  endfacet
  facet normal -0.906295 -0.422645 0
    outer loop
      vertex 11.3481 16.75 2.71
      vertex 11.5691 16.2761 2.5
      vertex 11.5691 16.2761 2.71
    endloop
  endfacet
  facet normal 0 -1 0
    outer loop
      vertex -8.75 18.25 2.5
      vertex 8.75 18.25 2.71
      vertex -8.75 18.25 2.71
    endloop
  endfacet
  facet normal 0 -1 -0
    outer loop
      vertex 8.75 18.25 2.71
      vertex -8.75 18.25 2.5
      vertex 8.75 18.25 2.5
    endloop
  endfacet
  facet normal -0.258736 0.965948 0
    outer loop
      vertex 9.77606 -18.0691 2.5
      vertex 9.27094 -18.2044 2.71
      vertex 9.77606 -18.0691 2.71
    endloop
  endfacet
  facet normal -0.258736 0.965948 0
    outer loop
      vertex 9.27094 -18.2044 2.71
      vertex 9.77606 -18.0691 2.5
      vertex 9.27094 -18.2044 2.5
    endloop
  endfacet
  facet normal -0.965958 0.258698 0
    outer loop
      vertex 11.5691 -16.2761 2.5
      vertex 11.7044 -15.7709 2.71
      vertex 11.7044 -15.7709 2.5
    endloop
  endfacet
  facet normal -0.965958 0.258698 0
    outer loop
      vertex 11.7044 -15.7709 2.71
      vertex 11.5691 -16.2761 2.5
      vertex 11.5691 -16.2761 2.71
    endloop
  endfacet
  facet normal 0.819124 0.573616 0
    outer loop
      vertex -11.0481 -17.1784 2.71
      vertex -11.3481 -16.75 2.5
      vertex -11.3481 -16.75 2.71
    endloop
  endfacet
  facet normal 0.819124 0.573616 0
    outer loop
      vertex -11.3481 -16.75 2.5
      vertex -11.0481 -17.1784 2.71
      vertex -11.0481 -17.1784 2.5
    endloop
  endfacet
  facet normal -0.819124 0.573616 0
    outer loop
      vertex 11.0481 -17.1784 2.5
      vertex 11.3481 -16.75 2.71
      vertex 11.3481 -16.75 2.5
    endloop
  endfacet
  facet normal -0.819124 0.573616 0
    outer loop
      vertex 11.3481 -16.75 2.71
      vertex 11.0481 -17.1784 2.5
      vertex 11.0481 -17.1784 2.71
    endloop
  endfacet
  facet normal -0.573616 0.819124 0
    outer loop
      vertex 10.6784 -17.5481 2.5
      vertex 10.25 -17.8481 2.71
      vertex 10.6784 -17.5481 2.71
    endloop
  endfacet
  facet normal -0.573616 0.819124 0
    outer loop
      vertex 10.25 -17.8481 2.71
      vertex 10.6784 -17.5481 2.5
      vertex 10.25 -17.8481 2.5
    endloop
  endfacet
  facet normal 0.965958 0.258698 0
    outer loop
      vertex -11.5691 -16.2761 2.71
      vertex -11.7044 -15.7709 2.5
      vertex -11.7044 -15.7709 2.71
    endloop
  endfacet
  facet normal 0.965958 0.258698 0
    outer loop
      vertex -11.7044 -15.7709 2.5
      vertex -11.5691 -16.2761 2.71
      vertex -11.5691 -16.2761 2.5
    endloop
  endfacet
  facet normal -0.707107 -0.707107 0
    outer loop
      vertex 11.0481 17.1784 2.5
      vertex 10.6784 17.5481 2.71
      vertex 10.6784 17.5481 2.5
    endloop
  endfacet
  facet normal -0.707107 -0.707107 0
    outer loop
      vertex 10.6784 17.5481 2.71
      vertex 11.0481 17.1784 2.5
      vertex 11.0481 17.1784 2.71
    endloop
  endfacet
  facet normal -0.965958 -0.258698 0
    outer loop
      vertex 11.7044 15.7709 2.5
      vertex 11.5691 16.2761 2.71
      vertex 11.5691 16.2761 2.5
    endloop
  endfacet
  facet normal -0.965958 -0.258698 0
    outer loop
      vertex 11.5691 16.2761 2.71
      vertex 11.7044 15.7709 2.5
      vertex 11.7044 15.7709 2.71
    endloop
  endfacet
  facet normal 0.258736 0.965948 -0
    outer loop
      vertex -9.27094 -18.2044 2.5
      vertex -9.77606 -18.0691 2.71
      vertex -9.27094 -18.2044 2.71
    endloop
  endfacet
  facet normal 0.258736 0.965948 0
    outer loop
      vertex -9.77606 -18.0691 2.71
      vertex -9.27094 -18.2044 2.5
      vertex -9.77606 -18.0691 2.5
    endloop
  endfacet
  facet normal 0.99619 0.0872073 0
    outer loop
      vertex -11.7044 -15.7709 2.71
      vertex -11.75 -15.25 2.5
      vertex -11.75 -15.25 2.71
    endloop
  endfacet
  facet normal 0.99619 0.0872073 0
    outer loop
      vertex -11.75 -15.25 2.5
      vertex -11.7044 -15.7709 2.71
      vertex -11.7044 -15.7709 2.5
    endloop
  endfacet
  facet normal 0.819124 -0.573616 0
    outer loop
      vertex -11.3481 16.75 2.71
      vertex -11.0481 17.1784 2.5
      vertex -11.0481 17.1784 2.71
    endloop
  endfacet
  facet normal 0.819124 -0.573616 0
    outer loop
      vertex -11.0481 17.1784 2.5
      vertex -11.3481 16.75 2.71
      vertex -11.3481 16.75 2.5
    endloop
  endfacet
  facet normal -0.707107 0.707107 0
    outer loop
      vertex 10.6784 -17.5481 2.5
      vertex 11.0481 -17.1784 2.71
      vertex 11.0481 -17.1784 2.5
    endloop
  endfacet
  facet normal -0.707107 0.707107 0
    outer loop
      vertex 11.0481 -17.1784 2.71
      vertex 10.6784 -17.5481 2.5
      vertex 10.6784 -17.5481 2.71
    endloop
  endfacet
  facet normal 0.0872006 0.996191 -0
    outer loop
      vertex -8.75 -18.25 2.5
      vertex -9.27094 -18.2044 2.71
      vertex -8.75 -18.25 2.71
    endloop
  endfacet
  facet normal 0.0872006 0.996191 0
    outer loop
      vertex -9.27094 -18.2044 2.71
      vertex -8.75 -18.25 2.5
      vertex -9.27094 -18.2044 2.5
    endloop
  endfacet
  facet normal -0.422615 -0.906309 0
    outer loop
      vertex 9.77606 18.0691 2.5
      vertex 10.25 17.8481 2.71
      vertex 9.77606 18.0691 2.71
    endloop
  endfacet
  facet normal -0.422615 -0.906309 -0
    outer loop
      vertex 10.25 17.8481 2.71
      vertex 9.77606 18.0691 2.5
      vertex 10.25 17.8481 2.5
    endloop
  endfacet
  facet normal 0.707107 0.707107 0
    outer loop
      vertex -10.6784 -17.5481 2.71
      vertex -11.0481 -17.1784 2.5
      vertex -11.0481 -17.1784 2.71
    endloop
  endfacet
  facet normal 0.707107 0.707107 0
    outer loop
      vertex -11.0481 -17.1784 2.5
      vertex -10.6784 -17.5481 2.71
      vertex -10.6784 -17.5481 2.5
    endloop
  endfacet
  facet normal -0.573616 -0.819124 0
    outer loop
      vertex 10.25 17.8481 2.5
      vertex 10.6784 17.5481 2.71
      vertex 10.25 17.8481 2.71
    endloop
  endfacet
  facet normal -0.573616 -0.819124 -0
    outer loop
      vertex 10.6784 17.5481 2.71
      vertex 10.25 17.8481 2.5
      vertex 10.6784 17.5481 2.5
    endloop
  endfacet
  facet normal -0.99619 0.0872073 0
    outer loop
      vertex 11.7044 -15.7709 2.5
      vertex 11.75 -15.25 2.71
      vertex 11.75 -15.25 2.5
    endloop
  endfacet
  facet normal -0.99619 0.0872073 0
    outer loop
      vertex 11.75 -15.25 2.71
      vertex 11.7044 -15.7709 2.5
      vertex 11.7044 -15.7709 2.71
    endloop
  endfacet
  facet normal 0.707107 -0.707107 0
    outer loop
      vertex -11.0481 17.1784 2.71
      vertex -10.6784 17.5481 2.5
      vertex -10.6784 17.5481 2.71
    endloop
  endfacet
  facet normal 0.707107 -0.707107 0
    outer loop
      vertex -10.6784 17.5481 2.5
      vertex -11.0481 17.1784 2.71
      vertex -11.0481 17.1784 2.5
    endloop
  endfacet
  facet normal -0.258736 -0.965948 0
    outer loop
      vertex 9.27094 18.2044 2.5
      vertex 9.77606 18.0691 2.71
      vertex 9.27094 18.2044 2.71
    endloop
  endfacet
  facet normal -0.258736 -0.965948 -0
    outer loop
      vertex 9.77606 18.0691 2.71
      vertex 9.27094 18.2044 2.5
      vertex 9.77606 18.0691 2.5
    endloop
  endfacet
  facet normal 0.258736 -0.965948 0
    outer loop
      vertex -9.77606 18.0691 2.5
      vertex -9.27094 18.2044 2.71
      vertex -9.77606 18.0691 2.71
    endloop
  endfacet
  facet normal 0.258736 -0.965948 0
    outer loop
      vertex -9.27094 18.2044 2.71
      vertex -9.77606 18.0691 2.5
      vertex -9.27094 18.2044 2.5
    endloop
  endfacet
  facet normal -0.0872006 -0.996191 0
    outer loop
      vertex 8.75 18.25 2.5
      vertex 9.27094 18.2044 2.71
      vertex 8.75 18.25 2.71
    endloop
  endfacet
  facet normal -0.0872006 -0.996191 -0
    outer loop
      vertex 9.27094 18.2044 2.71
      vertex 8.75 18.25 2.5
      vertex 9.27094 18.2044 2.5
    endloop
  endfacet
  facet normal 0.99619 -0.0872073 0
    outer loop
      vertex -11.75 15.25 2.71
      vertex -11.7044 15.7709 2.5
      vertex -11.7044 15.7709 2.71
    endloop
  endfacet
  facet normal 0.99619 -0.0872073 0
    outer loop
      vertex -11.7044 15.7709 2.5
      vertex -11.75 15.25 2.71
      vertex -11.75 15.25 2.5
    endloop
  endfacet
  facet normal 0.965958 -0.258698 0
    outer loop
      vertex -11.7044 15.7709 2.71
      vertex -11.5691 16.2761 2.5
      vertex -11.5691 16.2761 2.71
    endloop
  endfacet
  facet normal 0.965958 -0.258698 0
    outer loop
      vertex -11.5691 16.2761 2.5
      vertex -11.7044 15.7709 2.71
      vertex -11.7044 15.7709 2.5
    endloop
  endfacet
  facet normal 0.422615 -0.906309 0
    outer loop
      vertex -10.25 17.8481 2.5
      vertex -9.77606 18.0691 2.71
      vertex -10.25 17.8481 2.71
    endloop
  endfacet
  facet normal 0.422615 -0.906309 0
    outer loop
      vertex -9.77606 18.0691 2.71
      vertex -10.25 17.8481 2.5
      vertex -9.77606 18.0691 2.5
    endloop
  endfacet
  facet normal 0.573616 -0.819124 0
    outer loop
      vertex -10.6784 17.5481 2.5
      vertex -10.25 17.8481 2.71
      vertex -10.6784 17.5481 2.71
    endloop
  endfacet
  facet normal 0.573616 -0.819124 0
    outer loop
      vertex -10.25 17.8481 2.71
      vertex -10.6784 17.5481 2.5
      vertex -10.25 17.8481 2.5
    endloop
  endfacet
endsolid OpenSCAD_Model
