solid OpenSCAD_Model
  facet normal -1 0 0
    outer loop
      vertex 0.0005 -7 141
      vertex 0.0005 7 156
      vertex 0.0005 7 141
    endloop
  endfacet
  facet normal -1 -0 0
    outer loop
      vertex 0.0005 7 156
      vertex 0.0005 -7 141
      vertex 0.0005 -7 156
    endloop
  endfacet
  facet normal 1 -0 0
    outer loop
      vertex 5.0005 -7 156
      vertex 5.0005 7 141
      vertex 5.0005 7 156
    endloop
  endfacet
  facet normal 1 0 0
    outer loop
      vertex 5.0005 7 141
      vertex 5.0005 -7 156
      vertex 5.0005 -7 141
    endloop
  endfacet
  facet normal 0.422634 -0.9063 0
    outer loop
      vertex 1.85 1.12583 146
      vertex 2.05537 1.2216 156
      vertex 1.85 1.12583 156
    endloop
  endfacet
  facet normal 0.422634 -0.9063 0
    outer loop
      vertex 2.05537 1.2216 156
      vertex 1.85 1.12583 146
      vertex 2.05537 1.2216 146
    endloop
  endfacet
  facet normal 0.258813 -0.965927 0
    outer loop
      vertex 2.05537 1.2216 146
      vertex 2.27426 1.28025 156
      vertex 2.05537 1.2216 156
    endloop
  endfacet
  facet normal 0.258813 -0.965927 0
    outer loop
      vertex 2.27426 1.28025 156
      vertex 2.05537 1.2216 146
      vertex 2.27426 1.28025 146
    endloop
  endfacet
  facet normal -0.965926 -0.25882 0
    outer loop
      vertex 3.78025 0.225742 146
      vertex 3.7216 0.444626 156
      vertex 3.7216 0.444626 146
    endloop
  endfacet
  facet normal -0.965926 -0.25882 0
    outer loop
      vertex 3.7216 0.444626 156
      vertex 3.78025 0.225742 146
      vertex 3.78025 0.225742 156
    endloop
  endfacet
  facet normal -0.996195 -0.0871563 0
    outer loop
      vertex 3.8 0 146
      vertex 3.78025 0.225742 156
      vertex 3.78025 0.225742 146
    endloop
  endfacet
  facet normal -0.996195 -0.0871563 0
    outer loop
      vertex 3.78025 0.225742 156
      vertex 3.8 0 146
      vertex 3.8 0 156
    endloop
  endfacet
  facet normal -0.906304 -0.422627 0
    outer loop
      vertex 3.7216 0.444626 146
      vertex 3.62583 0.65 156
      vertex 3.62583 0.65 146
    endloop
  endfacet
  facet normal -0.906304 -0.422627 0
    outer loop
      vertex 3.62583 0.65 156
      vertex 3.7216 0.444626 146
      vertex 3.7216 0.444626 156
    endloop
  endfacet
  facet normal -0.906304 0.422627 0
    outer loop
      vertex 3.62583 -0.65 146
      vertex 3.7216 -0.444626 156
      vertex 3.7216 -0.444626 146
    endloop
  endfacet
  facet normal -0.906304 0.422627 0
    outer loop
      vertex 3.7216 -0.444626 156
      vertex 3.62583 -0.65 146
      vertex 3.62583 -0.65 156
    endloop
  endfacet
  facet normal -0.996195 0.0871563 0
    outer loop
      vertex 3.78025 -0.225742 146
      vertex 3.8 0 156
      vertex 3.8 0 146
    endloop
  endfacet
  facet normal -0.996195 0.0871563 0
    outer loop
      vertex 3.8 0 156
      vertex 3.78025 -0.225742 146
      vertex 3.78025 -0.225742 156
    endloop
  endfacet
  facet normal -0.819163 -0.573561 0
    outer loop
      vertex 3.62583 0.65 146
      vertex 3.49586 0.835624 156
      vertex 3.49586 0.835624 146
    endloop
  endfacet
  facet normal -0.819163 -0.573561 0
    outer loop
      vertex 3.49586 0.835624 156
      vertex 3.62583 0.65 146
      vertex 3.62583 0.65 156
    endloop
  endfacet
  facet normal 0.707091 -0.707122 0
    outer loop
      vertex 1.50414 0.835624 156
      vertex 1.66438 0.995857 146
      vertex 1.66438 0.995857 156
    endloop
  endfacet
  facet normal 0.707091 -0.707122 0
    outer loop
      vertex 1.66438 0.995857 146
      vertex 1.50414 0.835624 156
      vertex 1.50414 0.835624 146
    endloop
  endfacet
  facet normal 0.0871571 -0.996195 0
    outer loop
      vertex 2.27426 1.28025 146
      vertex 2.5 1.3 156
      vertex 2.27426 1.28025 156
    endloop
  endfacet
  facet normal 0.0871571 -0.996195 0
    outer loop
      vertex 2.5 1.3 156
      vertex 2.27426 1.28025 146
      vertex 2.5 1.3 146
    endloop
  endfacet
  facet normal 0.573578 -0.819151 0
    outer loop
      vertex 1.66438 0.995857 146
      vertex 1.85 1.12583 156
      vertex 1.66438 0.995857 156
    endloop
  endfacet
  facet normal 0.573578 -0.819151 0
    outer loop
      vertex 1.85 1.12583 156
      vertex 1.66438 0.995857 146
      vertex 1.85 1.12583 146
    endloop
  endfacet
  facet normal -0.819163 0.573561 0
    outer loop
      vertex 3.49586 -0.835624 146
      vertex 3.62583 -0.65 156
      vertex 3.62583 -0.65 146
    endloop
  endfacet
  facet normal -0.819163 0.573561 0
    outer loop
      vertex 3.62583 -0.65 156
      vertex 3.49586 -0.835624 146
      vertex 3.49586 -0.835624 156
    endloop
  endfacet
  facet normal -0.707091 0.707122 0
    outer loop
      vertex 3.33562 -0.995857 146
      vertex 3.49586 -0.835624 156
      vertex 3.49586 -0.835624 146
    endloop
  endfacet
  facet normal -0.707091 0.707122 0
    outer loop
      vertex 3.49586 -0.835624 156
      vertex 3.33562 -0.995857 146
      vertex 3.33562 -0.995857 156
    endloop
  endfacet
  facet normal -0.965926 0.25882 0
    outer loop
      vertex 3.7216 -0.444626 146
      vertex 3.78025 -0.225742 156
      vertex 3.78025 -0.225742 146
    endloop
  endfacet
  facet normal -0.965926 0.25882 0
    outer loop
      vertex 3.78025 -0.225742 156
      vertex 3.7216 -0.444626 146
      vertex 3.7216 -0.444626 156
    endloop
  endfacet
  facet normal -0.258813 -0.965927 0
    outer loop
      vertex 2.72574 1.28025 146
      vertex 2.94463 1.2216 156
      vertex 2.72574 1.28025 156
    endloop
  endfacet
  facet normal -0.258813 -0.965927 -0
    outer loop
      vertex 2.94463 1.2216 156
      vertex 2.72574 1.28025 146
      vertex 2.94463 1.2216 146
    endloop
  endfacet
  facet normal -0.573578 0.819151 0
    outer loop
      vertex 3.33562 -0.995857 146
      vertex 3.15 -1.12583 156
      vertex 3.33562 -0.995857 156
    endloop
  endfacet
  facet normal -0.573578 0.819151 0
    outer loop
      vertex 3.15 -1.12583 156
      vertex 3.33562 -0.995857 146
      vertex 3.15 -1.12583 146
    endloop
  endfacet
  facet normal 0.573578 0.819151 -0
    outer loop
      vertex 1.85 -1.12583 146
      vertex 1.66438 -0.995857 156
      vertex 1.85 -1.12583 156
    endloop
  endfacet
  facet normal 0.573578 0.819151 0
    outer loop
      vertex 1.66438 -0.995857 156
      vertex 1.85 -1.12583 146
      vertex 1.66438 -0.995857 146
    endloop
  endfacet
  facet normal -0.422634 0.9063 0
    outer loop
      vertex 3.15 -1.12583 146
      vertex 2.94463 -1.2216 156
      vertex 3.15 -1.12583 156
    endloop
  endfacet
  facet normal -0.422634 0.9063 0
    outer loop
      vertex 2.94463 -1.2216 156
      vertex 3.15 -1.12583 146
      vertex 2.94463 -1.2216 146
    endloop
  endfacet
  facet normal -0.422634 -0.9063 0
    outer loop
      vertex 2.94463 1.2216 146
      vertex 3.15 1.12583 156
      vertex 2.94463 1.2216 156
    endloop
  endfacet
  facet normal -0.422634 -0.9063 -0
    outer loop
      vertex 3.15 1.12583 156
      vertex 2.94463 1.2216 146
      vertex 3.15 1.12583 146
    endloop
  endfacet
  facet normal 0 0 1
    outer loop
      vertex 3.78025 0.225742 146
      vertex 3.78025 -0.225742 146
      vertex 3.8 0 146
    endloop
  endfacet
  facet normal 0 0 1
    outer loop
      vertex 3.7216 0.444626 146
      vertex 3.78025 -0.225742 146
      vertex 3.78025 0.225742 146
    endloop
  endfacet
  facet normal 0 0 1
    outer loop
      vertex 3.7216 0.444626 146
      vertex 3.7216 -0.444626 146
      vertex 3.78025 -0.225742 146
    endloop
  endfacet
  facet normal 0 0 1
    outer loop
      vertex 3.62583 0.65 146
      vertex 3.7216 -0.444626 146
      vertex 3.7216 0.444626 146
    endloop
  endfacet
  facet normal 0 0 1
    outer loop
      vertex 3.62583 0.65 146
      vertex 3.62583 -0.65 146
      vertex 3.7216 -0.444626 146
    endloop
  endfacet
  facet normal 0 0 1
    outer loop
      vertex 3.49586 0.835624 146
      vertex 3.62583 -0.65 146
      vertex 3.62583 0.65 146
    endloop
  endfacet
  facet normal 0 0 1
    outer loop
      vertex 3.49586 0.835624 146
      vertex 3.49586 -0.835624 146
      vertex 3.62583 -0.65 146
    endloop
  endfacet
  facet normal 0 0 1
    outer loop
      vertex 3.33562 0.995857 146
      vertex 3.49586 -0.835624 146
      vertex 3.49586 0.835624 146
    endloop
  endfacet
  facet normal 0 0 1
    outer loop
      vertex 3.33562 0.995857 146
      vertex 3.33562 -0.995857 146
      vertex 3.49586 -0.835624 146
    endloop
  endfacet
  facet normal 0 0 1
    outer loop
      vertex 3.15 1.12583 146
      vertex 3.33562 -0.995857 146
      vertex 3.33562 0.995857 146
    endloop
  endfacet
  facet normal 0 0 1
    outer loop
      vertex 3.15 1.12583 146
      vertex 3.15 -1.12583 146
      vertex 3.33562 -0.995857 146
    endloop
  endfacet
  facet normal 0 0 1
    outer loop
      vertex 2.94463 1.2216 146
      vertex 3.15 -1.12583 146
      vertex 3.15 1.12583 146
    endloop
  endfacet
  facet normal 0 0 1
    outer loop
      vertex 2.94463 1.2216 146
      vertex 2.94463 -1.2216 146
      vertex 3.15 -1.12583 146
    endloop
  endfacet
  facet normal 0 0 1
    outer loop
      vertex 2.72574 1.28025 146
      vertex 2.94463 -1.2216 146
      vertex 2.94463 1.2216 146
    endloop
  endfacet
  facet normal 0 0 1
    outer loop
      vertex 2.72574 1.28025 146
      vertex 2.72574 -1.28025 146
      vertex 2.94463 -1.2216 146
    endloop
  endfacet
  facet normal 0 0 1
    outer loop
      vertex 2.5 1.3 146
      vertex 2.72574 -1.28025 146
      vertex 2.72574 1.28025 146
    endloop
  endfacet
  facet normal 0 0 1
    outer loop
      vertex 2.5 1.3 146
      vertex 2.5 -1.3 146
      vertex 2.72574 -1.28025 146
    endloop
  endfacet
  facet normal -0 0 1
    outer loop
      vertex 2.27426 1.28025 146
      vertex 2.5 -1.3 146
      vertex 2.5 1.3 146
    endloop
  endfacet
  facet normal 0 0 1
    outer loop
      vertex 2.27426 1.28025 146
      vertex 2.27426 -1.28025 146
      vertex 2.5 -1.3 146
    endloop
  endfacet
  facet normal -0 0 1
    outer loop
      vertex 2.05537 1.2216 146
      vertex 2.27426 -1.28025 146
      vertex 2.27426 1.28025 146
    endloop
  endfacet
  facet normal 0 0 1
    outer loop
      vertex 2.05537 1.2216 146
      vertex 2.05537 -1.2216 146
      vertex 2.27426 -1.28025 146
    endloop
  endfacet
  facet normal -0 0 1
    outer loop
      vertex 1.85 1.12583 146
      vertex 2.05537 -1.2216 146
      vertex 2.05537 1.2216 146
    endloop
  endfacet
  facet normal 0 0 1
    outer loop
      vertex 1.85 1.12583 146
      vertex 1.85 -1.12583 146
      vertex 2.05537 -1.2216 146
    endloop
  endfacet
  facet normal -0 0 1
    outer loop
      vertex 1.66438 0.995857 146
      vertex 1.85 -1.12583 146
      vertex 1.85 1.12583 146
    endloop
  endfacet
  facet normal 0 0 1
    outer loop
      vertex 1.66438 0.995857 146
      vertex 1.66438 -0.995857 146
      vertex 1.85 -1.12583 146
    endloop
  endfacet
  facet normal -0 0 1
    outer loop
      vertex 1.50414 0.835624 146
      vertex 1.66438 -0.995857 146
      vertex 1.66438 0.995857 146
    endloop
  endfacet
  facet normal 0 0 1
    outer loop
      vertex 1.50414 0.835624 146
      vertex 1.50414 -0.835624 146
      vertex 1.66438 -0.995857 146
    endloop
  endfacet
  facet normal -0 0 1
    outer loop
      vertex 1.37417 0.65 146
      vertex 1.50414 -0.835624 146
      vertex 1.50414 0.835624 146
    endloop
  endfacet
  facet normal 0 0 1
    outer loop
      vertex 1.37417 0.65 146
      vertex 1.37417 -0.65 146
      vertex 1.50414 -0.835624 146
    endloop
  endfacet
  facet normal -0 0 1
    outer loop
      vertex 1.2784 0.444626 146
      vertex 1.37417 -0.65 146
      vertex 1.37417 0.65 146
    endloop
  endfacet
  facet normal 0 0 1
    outer loop
      vertex 1.2784 0.444626 146
      vertex 1.2784 -0.444626 146
      vertex 1.37417 -0.65 146
    endloop
  endfacet
  facet normal -0 0 1
    outer loop
      vertex 1.21975 0.225742 146
      vertex 1.2784 -0.444626 146
      vertex 1.2784 0.444626 146
    endloop
  endfacet
  facet normal 0 0 1
    outer loop
      vertex 1.21975 0.225742 146
      vertex 1.21975 -0.225742 146
      vertex 1.2784 -0.444626 146
    endloop
  endfacet
  facet normal 0 -0 1
    outer loop
      vertex 1.21975 -0.225742 146
      vertex 1.21975 0.225742 146
      vertex 1.2 0 146
    endloop
  endfacet
  facet normal 0.965926 -0.25882 0
    outer loop
      vertex 1.21975 0.225742 156
      vertex 1.2784 0.444626 146
      vertex 1.2784 0.444626 156
    endloop
  endfacet
  facet normal 0.965926 -0.25882 0
    outer loop
      vertex 1.2784 0.444626 146
      vertex 1.21975 0.225742 156
      vertex 1.21975 0.225742 146
    endloop
  endfacet
  facet normal -0.707091 -0.707122 0
    outer loop
      vertex 3.49586 0.835624 146
      vertex 3.33562 0.995857 156
      vertex 3.33562 0.995857 146
    endloop
  endfacet
  facet normal -0.707091 -0.707122 0
    outer loop
      vertex 3.33562 0.995857 156
      vertex 3.49586 0.835624 146
      vertex 3.49586 0.835624 156
    endloop
  endfacet
  facet normal 0.906304 0.422627 0
    outer loop
      vertex 1.37417 -0.65 156
      vertex 1.2784 -0.444626 146
      vertex 1.2784 -0.444626 156
    endloop
  endfacet
  facet normal 0.906304 0.422627 0
    outer loop
      vertex 1.2784 -0.444626 146
      vertex 1.37417 -0.65 156
      vertex 1.37417 -0.65 146
    endloop
  endfacet
  facet normal -0.573578 -0.819151 0
    outer loop
      vertex 3.15 1.12583 146
      vertex 3.33562 0.995857 156
      vertex 3.15 1.12583 156
    endloop
  endfacet
  facet normal -0.573578 -0.819151 -0
    outer loop
      vertex 3.33562 0.995857 156
      vertex 3.15 1.12583 146
      vertex 3.33562 0.995857 146
    endloop
  endfacet
  facet normal 0.258813 0.965927 -0
    outer loop
      vertex 2.27426 -1.28025 146
      vertex 2.05537 -1.2216 156
      vertex 2.27426 -1.28025 156
    endloop
  endfacet
  facet normal 0.258813 0.965927 0
    outer loop
      vertex 2.05537 -1.2216 156
      vertex 2.27426 -1.28025 146
      vertex 2.05537 -1.2216 146
    endloop
  endfacet
  facet normal 0.707091 0.707122 0
    outer loop
      vertex 1.66438 -0.995857 156
      vertex 1.50414 -0.835624 146
      vertex 1.50414 -0.835624 156
    endloop
  endfacet
  facet normal 0.707091 0.707122 0
    outer loop
      vertex 1.50414 -0.835624 146
      vertex 1.66438 -0.995857 156
      vertex 1.66438 -0.995857 146
    endloop
  endfacet
  facet normal 0.819163 -0.573561 0
    outer loop
      vertex 1.37417 0.65 156
      vertex 1.50414 0.835624 146
      vertex 1.50414 0.835624 156
    endloop
  endfacet
  facet normal 0.819163 -0.573561 0
    outer loop
      vertex 1.50414 0.835624 146
      vertex 1.37417 0.65 156
      vertex 1.37417 0.65 146
    endloop
  endfacet
  facet normal -0.258813 0.965927 0
    outer loop
      vertex 2.94463 -1.2216 146
      vertex 2.72574 -1.28025 156
      vertex 2.94463 -1.2216 156
    endloop
  endfacet
  facet normal -0.258813 0.965927 0
    outer loop
      vertex 2.72574 -1.28025 156
      vertex 2.94463 -1.2216 146
      vertex 2.72574 -1.28025 146
    endloop
  endfacet
  facet normal -0.0871571 0.996195 0
    outer loop
      vertex 2.72574 -1.28025 146
      vertex 2.5 -1.3 156
      vertex 2.72574 -1.28025 156
    endloop
  endfacet
  facet normal -0.0871571 0.996195 0
    outer loop
      vertex 2.5 -1.3 156
      vertex 2.72574 -1.28025 146
      vertex 2.5 -1.3 146
    endloop
  endfacet
  facet normal 0.996195 0.0871563 0
    outer loop
      vertex 1.21975 -0.225742 156
      vertex 1.2 0 146
      vertex 1.2 0 156
    endloop
  endfacet
  facet normal 0.996195 0.0871563 0
    outer loop
      vertex 1.2 0 146
      vertex 1.21975 -0.225742 156
      vertex 1.21975 -0.225742 146
    endloop
  endfacet
  facet normal 0.819163 0.573561 0
    outer loop
      vertex 1.50414 -0.835624 156
      vertex 1.37417 -0.65 146
      vertex 1.37417 -0.65 156
    endloop
  endfacet
  facet normal 0.819163 0.573561 0
    outer loop
      vertex 1.37417 -0.65 146
      vertex 1.50414 -0.835624 156
      vertex 1.50414 -0.835624 146
    endloop
  endfacet
  facet normal -0.0871571 -0.996195 0
    outer loop
      vertex 2.5 1.3 146
      vertex 2.72574 1.28025 156
      vertex 2.5 1.3 156
    endloop
  endfacet
  facet normal -0.0871571 -0.996195 -0
    outer loop
      vertex 2.72574 1.28025 156
      vertex 2.5 1.3 146
      vertex 2.72574 1.28025 146
    endloop
  endfacet
  facet normal 0.996195 -0.0871563 0
    outer loop
      vertex 1.2 0 156
      vertex 1.21975 0.225742 146
      vertex 1.21975 0.225742 156
    endloop
  endfacet
  facet normal 0.996195 -0.0871563 0
    outer loop
      vertex 1.21975 0.225742 146
      vertex 1.2 0 156
      vertex 1.2 0 146
    endloop
  endfacet
  facet normal 0.965926 0.25882 0
    outer loop
      vertex 1.2784 -0.444626 156
      vertex 1.21975 -0.225742 146
      vertex 1.21975 -0.225742 156
    endloop
  endfacet
  facet normal 0.965926 0.25882 0
    outer loop
      vertex 1.21975 -0.225742 146
      vertex 1.2784 -0.444626 156
      vertex 1.2784 -0.444626 146
    endloop
  endfacet
  facet normal 0.0871571 0.996195 -0
    outer loop
      vertex 2.5 -1.3 146
      vertex 2.27426 -1.28025 156
      vertex 2.5 -1.3 156
    endloop
  endfacet
  facet normal 0.0871571 0.996195 0
    outer loop
      vertex 2.27426 -1.28025 156
      vertex 2.5 -1.3 146
      vertex 2.27426 -1.28025 146
    endloop
  endfacet
  facet normal 0.906304 -0.422627 0
    outer loop
      vertex 1.2784 0.444626 156
      vertex 1.37417 0.65 146
      vertex 1.37417 0.65 156
    endloop
  endfacet
  facet normal 0.906304 -0.422627 0
    outer loop
      vertex 1.37417 0.65 146
      vertex 1.2784 0.444626 156
      vertex 1.2784 0.444626 146
    endloop
  endfacet
  facet normal 0.422634 0.9063 -0
    outer loop
      vertex 2.05537 -1.2216 146
      vertex 1.85 -1.12583 156
      vertex 2.05537 -1.2216 156
    endloop
  endfacet
  facet normal 0.422634 0.9063 0
    outer loop
      vertex 1.85 -1.12583 156
      vertex 2.05537 -1.2216 146
      vertex 1.85 -1.12583 146
    endloop
  endfacet
  facet normal 0 0 1
    outer loop
      vertex 5.0005 7 156
      vertex 3.8 0 156
      vertex 5.0005 -7 156
    endloop
  endfacet
  facet normal 0 0 1
    outer loop
      vertex 5.0005 7 156
      vertex 3.78025 0.225742 156
      vertex 3.8 0 156
    endloop
  endfacet
  facet normal 0 0 1
    outer loop
      vertex 5.0005 7 156
      vertex 3.7216 0.444626 156
      vertex 3.78025 0.225742 156
    endloop
  endfacet
  facet normal 0 0 1
    outer loop
      vertex 5.0005 7 156
      vertex 3.62583 0.65 156
      vertex 3.7216 0.444626 156
    endloop
  endfacet
  facet normal 0 0 1
    outer loop
      vertex 5.0005 7 156
      vertex 3.49586 0.835624 156
      vertex 3.62583 0.65 156
    endloop
  endfacet
  facet normal 0 0 1
    outer loop
      vertex 5.0005 7 156
      vertex 3.33562 0.995857 156
      vertex 3.49586 0.835624 156
    endloop
  endfacet
  facet normal 0 0 1
    outer loop
      vertex 5.0005 7 156
      vertex 3.15 1.12583 156
      vertex 3.33562 0.995857 156
    endloop
  endfacet
  facet normal 0 0 1
    outer loop
      vertex 5.0005 7 156
      vertex 2.94463 1.2216 156
      vertex 3.15 1.12583 156
    endloop
  endfacet
  facet normal 0 0 1
    outer loop
      vertex 5.0005 7 156
      vertex 2.72574 1.28025 156
      vertex 2.94463 1.2216 156
    endloop
  endfacet
  facet normal 0 0 1
    outer loop
      vertex 5.0005 7 156
      vertex 2.5 1.3 156
      vertex 2.72574 1.28025 156
    endloop
  endfacet
  facet normal -0 0 1
    outer loop
      vertex 0.0005 7 156
      vertex 2.5 1.3 156
      vertex 5.0005 7 156
    endloop
  endfacet
  facet normal 0 0 1
    outer loop
      vertex 2.5 1.3 156
      vertex 0.0005 7 156
      vertex 2.27426 1.28025 156
    endloop
  endfacet
  facet normal 0 0 1
    outer loop
      vertex 2.27426 1.28025 156
      vertex 0.0005 7 156
      vertex 2.05537 1.2216 156
    endloop
  endfacet
  facet normal 0 0 1
    outer loop
      vertex 2.05537 1.2216 156
      vertex 0.0005 7 156
      vertex 1.85 1.12583 156
    endloop
  endfacet
  facet normal 0 0 1
    outer loop
      vertex 1.85 1.12583 156
      vertex 0.0005 7 156
      vertex 1.66438 0.995857 156
    endloop
  endfacet
  facet normal 0 0 1
    outer loop
      vertex 1.66438 0.995857 156
      vertex 0.0005 7 156
      vertex 1.50414 0.835624 156
    endloop
  endfacet
  facet normal 0 0 1
    outer loop
      vertex 1.21975 0.225742 156
      vertex 0.0005 7 156
      vertex 1.2 0 156
    endloop
  endfacet
  facet normal 0 0 1
    outer loop
      vertex 1.2784 0.444626 156
      vertex 0.0005 7 156
      vertex 1.21975 0.225742 156
    endloop
  endfacet
  facet normal 0 0 1
    outer loop
      vertex 1.37417 0.65 156
      vertex 0.0005 7 156
      vertex 1.2784 0.444626 156
    endloop
  endfacet
  facet normal 0 0 1
    outer loop
      vertex 1.50414 0.835624 156
      vertex 0.0005 7 156
      vertex 1.37417 0.65 156
    endloop
  endfacet
  facet normal -0 0 1
    outer loop
      vertex 3.78025 -0.225742 156
      vertex 5.0005 -7 156
      vertex 3.8 0 156
    endloop
  endfacet
  facet normal -0 0 1
    outer loop
      vertex 3.7216 -0.444626 156
      vertex 5.0005 -7 156
      vertex 3.78025 -0.225742 156
    endloop
  endfacet
  facet normal -0 0 1
    outer loop
      vertex 3.62583 -0.65 156
      vertex 5.0005 -7 156
      vertex 3.7216 -0.444626 156
    endloop
  endfacet
  facet normal -0 0 1
    outer loop
      vertex 3.49586 -0.835624 156
      vertex 5.0005 -7 156
      vertex 3.62583 -0.65 156
    endloop
  endfacet
  facet normal -0 0 1
    outer loop
      vertex 3.33562 -0.995857 156
      vertex 5.0005 -7 156
      vertex 3.49586 -0.835624 156
    endloop
  endfacet
  facet normal -0 0 1
    outer loop
      vertex 3.15 -1.12583 156
      vertex 5.0005 -7 156
      vertex 3.33562 -0.995857 156
    endloop
  endfacet
  facet normal -0 0 1
    outer loop
      vertex 2.94463 -1.2216 156
      vertex 5.0005 -7 156
      vertex 3.15 -1.12583 156
    endloop
  endfacet
  facet normal -0 0 1
    outer loop
      vertex 2.72574 -1.28025 156
      vertex 5.0005 -7 156
      vertex 2.94463 -1.2216 156
    endloop
  endfacet
  facet normal -0 0 1
    outer loop
      vertex 2.5 -1.3 156
      vertex 5.0005 -7 156
      vertex 2.72574 -1.28025 156
    endloop
  endfacet
  facet normal 0 0 1
    outer loop
      vertex 0.0005 -7 156
      vertex 2.5 -1.3 156
      vertex 2.27426 -1.28025 156
    endloop
  endfacet
  facet normal 0 0 1
    outer loop
      vertex 0.0005 -7 156
      vertex 2.27426 -1.28025 156
      vertex 2.05537 -1.2216 156
    endloop
  endfacet
  facet normal 0 0 1
    outer loop
      vertex 0.0005 -7 156
      vertex 2.05537 -1.2216 156
      vertex 1.85 -1.12583 156
    endloop
  endfacet
  facet normal 0 0 1
    outer loop
      vertex 0.0005 -7 156
      vertex 1.85 -1.12583 156
      vertex 1.66438 -0.995857 156
    endloop
  endfacet
  facet normal 0 0 1
    outer loop
      vertex 0.0005 -7 156
      vertex 1.66438 -0.995857 156
      vertex 1.50414 -0.835624 156
    endloop
  endfacet
  facet normal 0 0 1
    outer loop
      vertex 0.0005 -7 156
      vertex 1.50414 -0.835624 156
      vertex 1.37417 -0.65 156
    endloop
  endfacet
  facet normal 0 0 1
    outer loop
      vertex 0.0005 -7 156
      vertex 1.2 0 156
      vertex 0.0005 7 156
    endloop
  endfacet
  facet normal 0 0 1
    outer loop
      vertex 2.5 -1.3 156
      vertex 0.0005 -7 156
      vertex 5.0005 -7 156
    endloop
  endfacet
  facet normal 0 0 1
    outer loop
      vertex 1.2784 -0.444626 156
      vertex 0.0005 -7 156
      vertex 1.37417 -0.65 156
    endloop
  endfacet
  facet normal 0 0 1
    outer loop
      vertex 1.21975 -0.225742 156
      vertex 0.0005 -7 156
      vertex 1.2784 -0.444626 156
    endloop
  endfacet
  facet normal 0 0 1
    outer loop
      vertex 1.2 0 156
      vertex 0.0005 -7 156
      vertex 1.21975 -0.225742 156
    endloop
  endfacet
  facet normal 0 0 -1
    outer loop
      vertex 0.0005 -7 141
      vertex 5.0005 7 141
      vertex 5.0005 -7 141
    endloop
  endfacet
  facet normal -0 0 -1
    outer loop
      vertex 5.0005 7 141
      vertex 0.0005 -7 141
      vertex 0.0005 7 141
    endloop
  endfacet
  facet normal 0 1 -0
    outer loop
      vertex 5.0005 7 141
      vertex 0.0005 7 156
      vertex 5.0005 7 156
    endloop
  endfacet
  facet normal 0 1 0
    outer loop
      vertex 0.0005 7 156
      vertex 5.0005 7 141
      vertex 0.0005 7 141
    endloop
  endfacet
  facet normal 0 -1 0
    outer loop
      vertex 0.0005 -7 141
      vertex 5.0005 -7 156
      vertex 0.0005 -7 156
    endloop
  endfacet
  facet normal 0 -1 -0
    outer loop
      vertex 5.0005 -7 156
      vertex 0.0005 -7 141
      vertex 5.0005 -7 141
    endloop
  endfacet
endsolid OpenSCAD_Model
