solid OpenSCAD_Model
  facet normal -0.906163 0.422929 0
    outer loop
      vertex 185.952 7.56515 -30
      vertex 186.505 8.75 0
      vertex 186.505 8.75 -30
    endloop
  endfacet
  facet normal -0.906163 0.422929 0
    outer loop
      vertex 186.505 8.75 0
      vertex 185.952 7.56515 -30
      vertex 185.952 7.56515 0
    endloop
  endfacet
  facet normal 0.965995 0.25856 0
    outer loop
      vertex 200.386 6.30236 0
      vertex 200.048 7.56515 -30
      vertex 200.048 7.56515 0
    endloop
  endfacet
  facet normal 0.965995 0.25856 0
    outer loop
      vertex 200.048 7.56515 -30
      vertex 200.386 6.30236 0
      vertex 200.386 6.30236 -30
    endloop
  endfacet
  facet normal 0.996191 0.0872 0
    outer loop
      vertex 200.5 5 0
      vertex 200.386 6.30236 -30
      vertex 200.386 6.30236 0
    endloop
  endfacet
  facet normal 0.996191 0.0872 0
    outer loop
      vertex 200.386 6.30236 -30
      vertex 200.5 5 0
      vertex 200.5 5 -30
    endloop
  endfacet
  facet normal 0.906163 0.422929 0
    outer loop
      vertex 200.048 7.56515 0
      vertex 199.495 8.75 -30
      vertex 199.495 8.75 0
    endloop
  endfacet
  facet normal 0.906163 0.422929 0
    outer loop
      vertex 199.495 8.75 -30
      vertex 200.048 7.56515 0
      vertex 200.048 7.56515 -30
    endloop
  endfacet
  facet normal -0.573543 -0.819176 0
    outer loop
      vertex 188.179 -0.745333 -30
      vertex 189.25 -1.49519 0
      vertex 188.179 -0.745333 0
    endloop
  endfacet
  facet normal -0.573543 -0.819176 -0
    outer loop
      vertex 189.25 -1.49519 0
      vertex 188.179 -0.745333 -30
      vertex 189.25 -1.49519 -30
    endloop
  endfacet
  facet normal 0.819101 -0.57365 0
    outer loop
      vertex 198.745 0.179093 0
      vertex 199.495 1.25 -30
      vertex 199.495 1.25 0
    endloop
  endfacet
  facet normal 0.819101 -0.57365 0
    outer loop
      vertex 199.495 1.25 -30
      vertex 198.745 0.179093 0
      vertex 198.745 0.179093 -30
    endloop
  endfacet
  facet normal -0.0871783 -0.996193 0
    outer loop
      vertex 191.698 -2.38606 -30
      vertex 193 -2.5 0
      vertex 191.698 -2.38606 0
    endloop
  endfacet
  facet normal -0.0871783 -0.996193 -0
    outer loop
      vertex 193 -2.5 0
      vertex 191.698 -2.38606 -30
      vertex 193 -2.5 -30
    endloop
  endfacet
  facet normal -0.573565 0.81916 0
    outer loop
      vertex 189.25 11.4952 -30
      vertex 188.179 10.7453 0
      vertex 189.25 11.4952 0
    endloop
  endfacet
  facet normal -0.573565 0.81916 0
    outer loop
      vertex 188.179 10.7453 0
      vertex 189.25 11.4952 -30
      vertex 188.179 10.7453 -30
    endloop
  endfacet
  facet normal -0.258783 -0.965935 0
    outer loop
      vertex 190.435 -2.04769 -30
      vertex 191.698 -2.38606 0
      vertex 190.435 -2.04769 0
    endloop
  endfacet
  facet normal -0.258783 -0.965935 -0
    outer loop
      vertex 191.698 -2.38606 0
      vertex 190.435 -2.04769 -30
      vertex 191.698 -2.38606 -30
    endloop
  endfacet
  facet normal 0.422571 -0.90633 0
    outer loop
      vertex 195.565 -2.04769 -30
      vertex 196.75 -1.49519 0
      vertex 195.565 -2.04769 0
    endloop
  endfacet
  facet normal 0.422571 -0.90633 0
    outer loop
      vertex 196.75 -1.49519 0
      vertex 195.565 -2.04769 -30
      vertex 196.75 -1.49519 -30
    endloop
  endfacet
  facet normal 0.70727 -0.706944 0
    outer loop
      vertex 197.821 -0.745333 0
      vertex 198.745 0.179093 -30
      vertex 198.745 0.179093 0
    endloop
  endfacet
  facet normal 0.70727 -0.706944 0
    outer loop
      vertex 198.745 0.179093 -30
      vertex 197.821 -0.745333 0
      vertex 197.821 -0.745333 -30
    endloop
  endfacet
  facet normal -0.996191 -0.0872 0
    outer loop
      vertex 185.614 3.69764 -30
      vertex 185.5 5 0
      vertex 185.5 5 -30
    endloop
  endfacet
  facet normal -0.996191 -0.0872 0
    outer loop
      vertex 185.5 5 0
      vertex 185.614 3.69764 -30
      vertex 185.614 3.69764 0
    endloop
  endfacet
  facet normal 0.573543 -0.819176 0
    outer loop
      vertex 196.75 -1.49519 -30
      vertex 197.821 -0.745333 0
      vertex 196.75 -1.49519 0
    endloop
  endfacet
  facet normal 0.573543 -0.819176 0
    outer loop
      vertex 197.821 -0.745333 0
      vertex 196.75 -1.49519 -30
      vertex 197.821 -0.745333 -30
    endloop
  endfacet
  facet normal 0 0 -1
    outer loop
      vertex 200.386 3.69764 -30
      vertex 200.386 6.30236 -30
      vertex 200.5 5 -30
    endloop
  endfacet
  facet normal 0 0 -1
    outer loop
      vertex 200.048 2.43485 -30
      vertex 200.386 6.30236 -30
      vertex 200.386 3.69764 -30
    endloop
  endfacet
  facet normal 0 0 -1
    outer loop
      vertex 200.048 2.43485 -30
      vertex 200.048 7.56515 -30
      vertex 200.386 6.30236 -30
    endloop
  endfacet
  facet normal 0 0 -1
    outer loop
      vertex 199.495 1.25 -30
      vertex 200.048 7.56515 -30
      vertex 200.048 2.43485 -30
    endloop
  endfacet
  facet normal 0 0 -1
    outer loop
      vertex 199.495 1.25 -30
      vertex 199.495 8.75 -30
      vertex 200.048 7.56515 -30
    endloop
  endfacet
  facet normal 0 0 -1
    outer loop
      vertex 198.745 0.179093 -30
      vertex 199.495 8.75 -30
      vertex 199.495 1.25 -30
    endloop
  endfacet
  facet normal 0 0 -1
    outer loop
      vertex 198.745 0.179093 -30
      vertex 198.745 9.82091 -30
      vertex 199.495 8.75 -30
    endloop
  endfacet
  facet normal 0 0 -1
    outer loop
      vertex 197.821 -0.745333 -30
      vertex 198.745 9.82091 -30
      vertex 198.745 0.179093 -30
    endloop
  endfacet
  facet normal 0 0 -1
    outer loop
      vertex 197.821 -0.745333 -30
      vertex 197.821 10.7453 -30
      vertex 198.745 9.82091 -30
    endloop
  endfacet
  facet normal 0 0 -1
    outer loop
      vertex 196.75 -1.49519 -30
      vertex 197.821 10.7453 -30
      vertex 197.821 -0.745333 -30
    endloop
  endfacet
  facet normal 0 0 -1
    outer loop
      vertex 196.75 -1.49519 -30
      vertex 196.75 11.4952 -30
      vertex 197.821 10.7453 -30
    endloop
  endfacet
  facet normal 0 0 -1
    outer loop
      vertex 195.565 -2.04769 -30
      vertex 196.75 11.4952 -30
      vertex 196.75 -1.49519 -30
    endloop
  endfacet
  facet normal 0 0 -1
    outer loop
      vertex 195.565 -2.04769 -30
      vertex 195.565 12.0477 -30
      vertex 196.75 11.4952 -30
    endloop
  endfacet
  facet normal 0 0 -1
    outer loop
      vertex 194.302 -2.38606 -30
      vertex 195.565 12.0477 -30
      vertex 195.565 -2.04769 -30
    endloop
  endfacet
  facet normal 0 0 -1
    outer loop
      vertex 194.302 -2.38606 -30
      vertex 194.302 12.3861 -30
      vertex 195.565 12.0477 -30
    endloop
  endfacet
  facet normal 0 0 -1
    outer loop
      vertex 193 -2.5 -30
      vertex 194.302 12.3861 -30
      vertex 194.302 -2.38606 -30
    endloop
  endfacet
  facet normal 0 0 -1
    outer loop
      vertex 193 -2.5 -30
      vertex 193 12.5 -30
      vertex 194.302 12.3861 -30
    endloop
  endfacet
  facet normal 0 0 -1
    outer loop
      vertex 191.698 -2.38606 -30
      vertex 193 12.5 -30
      vertex 193 -2.5 -30
    endloop
  endfacet
  facet normal 0 0 -1
    outer loop
      vertex 191.698 -2.38606 -30
      vertex 191.698 12.3861 -30
      vertex 193 12.5 -30
    endloop
  endfacet
  facet normal 0 0 -1
    outer loop
      vertex 190.435 -2.04769 -30
      vertex 191.698 12.3861 -30
      vertex 191.698 -2.38606 -30
    endloop
  endfacet
  facet normal 0 0 -1
    outer loop
      vertex 190.435 -2.04769 -30
      vertex 190.435 12.0477 -30
      vertex 191.698 12.3861 -30
    endloop
  endfacet
  facet normal 0 0 -1
    outer loop
      vertex 189.25 -1.49519 -30
      vertex 190.435 12.0477 -30
      vertex 190.435 -2.04769 -30
    endloop
  endfacet
  facet normal 0 0 -1
    outer loop
      vertex 189.25 -1.49519 -30
      vertex 189.25 11.4952 -30
      vertex 190.435 12.0477 -30
    endloop
  endfacet
  facet normal 0 0 -1
    outer loop
      vertex 188.179 -0.745333 -30
      vertex 189.25 11.4952 -30
      vertex 189.25 -1.49519 -30
    endloop
  endfacet
  facet normal 0 0 -1
    outer loop
      vertex 188.179 -0.745333 -30
      vertex 188.179 10.7453 -30
      vertex 189.25 11.4952 -30
    endloop
  endfacet
  facet normal 0 0 -1
    outer loop
      vertex 187.255 0.179093 -30
      vertex 188.179 10.7453 -30
      vertex 188.179 -0.745333 -30
    endloop
  endfacet
  facet normal 0 0 -1
    outer loop
      vertex 187.255 0.179093 -30
      vertex 187.255 9.82091 -30
      vertex 188.179 10.7453 -30
    endloop
  endfacet
  facet normal 0 0 -1
    outer loop
      vertex 186.505 1.25 -30
      vertex 187.255 9.82091 -30
      vertex 187.255 0.179093 -30
    endloop
  endfacet
  facet normal 0 0 -1
    outer loop
      vertex 186.505 1.25 -30
      vertex 186.505 8.75 -30
      vertex 187.255 9.82091 -30
    endloop
  endfacet
  facet normal 0 0 -1
    outer loop
      vertex 185.952 2.43485 -30
      vertex 186.505 8.75 -30
      vertex 186.505 1.25 -30
    endloop
  endfacet
  facet normal 0 0 -1
    outer loop
      vertex 185.952 2.43485 -30
      vertex 185.952 7.56515 -30
      vertex 186.505 8.75 -30
    endloop
  endfacet
  facet normal 0 0 -1
    outer loop
      vertex 185.614 3.69764 -30
      vertex 185.952 7.56515 -30
      vertex 185.952 2.43485 -30
    endloop
  endfacet
  facet normal 0 0 -1
    outer loop
      vertex 185.614 3.69764 -30
      vertex 185.614 6.30236 -30
      vertex 185.952 7.56515 -30
    endloop
  endfacet
  facet normal 0 -0 -1
    outer loop
      vertex 185.614 6.30236 -30
      vertex 185.614 3.69764 -30
      vertex 185.5 5 -30
    endloop
  endfacet
  facet normal 0.0871783 -0.996193 0
    outer loop
      vertex 193 -2.5 -30
      vertex 194.302 -2.38606 0
      vertex 193 -2.5 0
    endloop
  endfacet
  facet normal 0.0871783 -0.996193 0
    outer loop
      vertex 194.302 -2.38606 0
      vertex 193 -2.5 -30
      vertex 194.302 -2.38606 -30
    endloop
  endfacet
  facet normal -0.819101 0.573649 0
    outer loop
      vertex 186.505 8.75 -30
      vertex 187.255 9.82091 0
      vertex 187.255 9.82091 -30
    endloop
  endfacet
  facet normal -0.819101 0.573649 0
    outer loop
      vertex 187.255 9.82091 0
      vertex 186.505 8.75 -30
      vertex 186.505 8.75 0
    endloop
  endfacet
  facet normal -0.422571 0.90633 0
    outer loop
      vertex 190.435 12.0477 -30
      vertex 189.25 11.4952 0
      vertex 190.435 12.0477 0
    endloop
  endfacet
  facet normal -0.422571 0.90633 0
    outer loop
      vertex 189.25 11.4952 0
      vertex 190.435 12.0477 -30
      vertex 189.25 11.4952 -30
    endloop
  endfacet
  facet normal -0.965995 -0.25856 0
    outer loop
      vertex 185.952 2.43485 -30
      vertex 185.614 3.69764 0
      vertex 185.614 3.69764 -30
    endloop
  endfacet
  facet normal -0.965995 -0.25856 0
    outer loop
      vertex 185.614 3.69764 0
      vertex 185.952 2.43485 -30
      vertex 185.952 2.43485 0
    endloop
  endfacet
  facet normal 0 0 1
    outer loop
      vertex 194.6 5 0
      vertex 200.5 5 0
      vertex 200.386 6.30236 0
    endloop
  endfacet
  facet normal 0 0 1
    outer loop
      vertex 194.576 5.27784 0
      vertex 200.386 6.30236 0
      vertex 200.048 7.56515 0
    endloop
  endfacet
  facet normal 0 0 1
    outer loop
      vertex 200.5 5 0
      vertex 194.6 5 0
      vertex 200.386 3.69764 0
    endloop
  endfacet
  facet normal 0 0 1
    outer loop
      vertex 194.504 5.54723 0
      vertex 200.048 7.56515 0
      vertex 199.495 8.75 0
    endloop
  endfacet
  facet normal -0 0 1
    outer loop
      vertex 194.576 4.72216 0
      vertex 200.386 3.69764 0
      vertex 194.6 5 0
    endloop
  endfacet
  facet normal 0 0 1
    outer loop
      vertex 194.386 5.8 0
      vertex 199.495 8.75 0
      vertex 198.745 9.82091 0
    endloop
  endfacet
  facet normal 0 0 1
    outer loop
      vertex 200.386 3.69764 0
      vertex 194.576 4.72216 0
      vertex 200.048 2.43485 0
    endloop
  endfacet
  facet normal 0 0 1
    outer loop
      vertex 194.226 6.02846 0
      vertex 198.745 9.82091 0
      vertex 197.821 10.7453 0
    endloop
  endfacet
  facet normal -0 0 1
    outer loop
      vertex 194.504 4.45277 0
      vertex 200.048 2.43485 0
      vertex 194.576 4.72216 0
    endloop
  endfacet
  facet normal 0 0 1
    outer loop
      vertex 194.028 6.22567 0
      vertex 197.821 10.7453 0
      vertex 196.75 11.4952 0
    endloop
  endfacet
  facet normal 0 0 1
    outer loop
      vertex 200.048 2.43485 0
      vertex 194.504 4.45277 0
      vertex 199.495 1.25 0
    endloop
  endfacet
  facet normal 0 0 1
    outer loop
      vertex 193.8 6.38564 0
      vertex 196.75 11.4952 0
      vertex 195.565 12.0477 0
    endloop
  endfacet
  facet normal -0 0 1
    outer loop
      vertex 194.386 4.2 0
      vertex 199.495 1.25 0
      vertex 194.504 4.45277 0
    endloop
  endfacet
  facet normal 0 0 1
    outer loop
      vertex 199.495 1.25 0
      vertex 194.386 4.2 0
      vertex 198.745 0.179093 0
    endloop
  endfacet
  facet normal 0 0 1
    outer loop
      vertex 200.386 6.30236 0
      vertex 194.576 5.27784 0
      vertex 194.6 5 0
    endloop
  endfacet
  facet normal 0 0 1
    outer loop
      vertex 200.048 7.56515 0
      vertex 194.504 5.54723 0
      vertex 194.576 5.27784 0
    endloop
  endfacet
  facet normal 0 0 1
    outer loop
      vertex 199.495 8.75 0
      vertex 194.386 5.8 0
      vertex 194.504 5.54723 0
    endloop
  endfacet
  facet normal 0 0 1
    outer loop
      vertex 193.547 6.50351 0
      vertex 195.565 12.0477 0
      vertex 194.302 12.3861 0
    endloop
  endfacet
  facet normal 0 0 1
    outer loop
      vertex 198.745 9.82091 0
      vertex 194.226 6.02846 0
      vertex 194.386 5.8 0
    endloop
  endfacet
  facet normal 0 0 1
    outer loop
      vertex 197.821 10.7453 0
      vertex 194.028 6.22567 0
      vertex 194.226 6.02846 0
    endloop
  endfacet
  facet normal 0 0 1
    outer loop
      vertex 196.75 11.4952 0
      vertex 193.8 6.38564 0
      vertex 194.028 6.22567 0
    endloop
  endfacet
  facet normal 0 0 1
    outer loop
      vertex 195.565 12.0477 0
      vertex 193.547 6.50351 0
      vertex 193.8 6.38564 0
    endloop
  endfacet
  facet normal 0 0 1
    outer loop
      vertex 194.302 12.3861 0
      vertex 193.278 6.57569 0
      vertex 193.547 6.50351 0
    endloop
  endfacet
  facet normal 0 0 1
    outer loop
      vertex 193 12.5 0
      vertex 193.278 6.57569 0
      vertex 194.302 12.3861 0
    endloop
  endfacet
  facet normal 0 0 1
    outer loop
      vertex 193 12.5 0
      vertex 193 6.6 0
      vertex 193.278 6.57569 0
    endloop
  endfacet
  facet normal 0 0 1
    outer loop
      vertex 193 12.5 0
      vertex 192.722 6.57569 0
      vertex 193 6.6 0
    endloop
  endfacet
  facet normal -0 0 1
    outer loop
      vertex 191.698 12.3861 0
      vertex 192.722 6.57569 0
      vertex 193 12.5 0
    endloop
  endfacet
  facet normal 0 0 1
    outer loop
      vertex 192.722 6.57569 0
      vertex 191.698 12.3861 0
      vertex 192.453 6.50351 0
    endloop
  endfacet
  facet normal -0 0 1
    outer loop
      vertex 190.435 12.0477 0
      vertex 192.453 6.50351 0
      vertex 191.698 12.3861 0
    endloop
  endfacet
  facet normal 0 0 1
    outer loop
      vertex 192.453 6.50351 0
      vertex 190.435 12.0477 0
      vertex 192.2 6.38564 0
    endloop
  endfacet
  facet normal -0 0 1
    outer loop
      vertex 189.25 11.4952 0
      vertex 192.2 6.38564 0
      vertex 190.435 12.0477 0
    endloop
  endfacet
  facet normal 0 0 1
    outer loop
      vertex 192.2 6.38564 0
      vertex 189.25 11.4952 0
      vertex 191.972 6.22567 0
    endloop
  endfacet
  facet normal -0 0 1
    outer loop
      vertex 188.179 10.7453 0
      vertex 191.972 6.22567 0
      vertex 189.25 11.4952 0
    endloop
  endfacet
  facet normal 0 0 1
    outer loop
      vertex 191.972 6.22567 0
      vertex 188.179 10.7453 0
      vertex 191.774 6.02846 0
    endloop
  endfacet
  facet normal -0 0 1
    outer loop
      vertex 187.255 9.82091 0
      vertex 191.774 6.02846 0
      vertex 188.179 10.7453 0
    endloop
  endfacet
  facet normal 0 0 1
    outer loop
      vertex 191.774 6.02846 0
      vertex 187.255 9.82091 0
      vertex 191.614 5.8 0
    endloop
  endfacet
  facet normal -0 0 1
    outer loop
      vertex 194.226 3.97154 0
      vertex 198.745 0.179093 0
      vertex 194.386 4.2 0
    endloop
  endfacet
  facet normal 0 0 1
    outer loop
      vertex 198.745 0.179093 0
      vertex 194.226 3.97154 0
      vertex 197.821 -0.745333 0
    endloop
  endfacet
  facet normal -0 0 1
    outer loop
      vertex 194.028 3.77433 0
      vertex 197.821 -0.745333 0
      vertex 194.226 3.97154 0
    endloop
  endfacet
  facet normal 0 0 1
    outer loop
      vertex 197.821 -0.745333 0
      vertex 194.028 3.77433 0
      vertex 196.75 -1.49519 0
    endloop
  endfacet
  facet normal -0 0 1
    outer loop
      vertex 193.8 3.61436 0
      vertex 196.75 -1.49519 0
      vertex 194.028 3.77433 0
    endloop
  endfacet
  facet normal 0 0 1
    outer loop
      vertex 196.75 -1.49519 0
      vertex 193.8 3.61436 0
      vertex 195.565 -2.04769 0
    endloop
  endfacet
  facet normal -0 0 1
    outer loop
      vertex 193.547 3.49649 0
      vertex 195.565 -2.04769 0
      vertex 193.8 3.61436 0
    endloop
  endfacet
  facet normal 0 0 1
    outer loop
      vertex 195.565 -2.04769 0
      vertex 193.547 3.49649 0
      vertex 194.302 -2.38606 0
    endloop
  endfacet
  facet normal -0 0 1
    outer loop
      vertex 193.278 3.42431 0
      vertex 194.302 -2.38606 0
      vertex 193.547 3.49649 0
    endloop
  endfacet
  facet normal -0 0 1
    outer loop
      vertex 193 3.4 0
      vertex 194.302 -2.38606 0
      vertex 193.278 3.42431 0
    endloop
  endfacet
  facet normal 0 0 1
    outer loop
      vertex 193 3.4 0
      vertex 193 -2.5 0
      vertex 194.302 -2.38606 0
    endloop
  endfacet
  facet normal 0 0 1
    outer loop
      vertex 192.722 3.42431 0
      vertex 193 -2.5 0
      vertex 193 3.4 0
    endloop
  endfacet
  facet normal 0 0 1
    outer loop
      vertex 191.698 -2.38606 0
      vertex 192.722 3.42431 0
      vertex 192.453 3.49649 0
    endloop
  endfacet
  facet normal 0 0 1
    outer loop
      vertex 190.435 -2.04769 0
      vertex 192.453 3.49649 0
      vertex 192.2 3.61436 0
    endloop
  endfacet
  facet normal 0 0 1
    outer loop
      vertex 189.25 -1.49519 0
      vertex 192.2 3.61436 0
      vertex 191.972 3.77433 0
    endloop
  endfacet
  facet normal 0 0 1
    outer loop
      vertex 188.179 -0.745333 0
      vertex 191.972 3.77433 0
      vertex 191.774 3.97154 0
    endloop
  endfacet
  facet normal 0 0 1
    outer loop
      vertex 192.722 3.42431 0
      vertex 191.698 -2.38606 0
      vertex 193 -2.5 0
    endloop
  endfacet
  facet normal 0 0 1
    outer loop
      vertex 187.255 0.179093 0
      vertex 191.774 3.97154 0
      vertex 191.614 4.2 0
    endloop
  endfacet
  facet normal 0 0 1
    outer loop
      vertex 186.505 1.25 0
      vertex 191.614 4.2 0
      vertex 191.496 4.45277 0
    endloop
  endfacet
  facet normal 0 0 1
    outer loop
      vertex 185.952 2.43485 0
      vertex 191.496 4.45277 0
      vertex 191.424 4.72216 0
    endloop
  endfacet
  facet normal 0 0 1
    outer loop
      vertex 185.614 3.69764 0
      vertex 191.424 4.72216 0
      vertex 191.4 5 0
    endloop
  endfacet
  facet normal -0 0 1
    outer loop
      vertex 186.505 8.75 0
      vertex 191.614 5.8 0
      vertex 187.255 9.82091 0
    endloop
  endfacet
  facet normal 0 0 1
    outer loop
      vertex 192.453 3.49649 0
      vertex 190.435 -2.04769 0
      vertex 191.698 -2.38606 0
    endloop
  endfacet
  facet normal 0 0 1
    outer loop
      vertex 191.614 5.8 0
      vertex 186.505 8.75 0
      vertex 191.496 5.54723 0
    endloop
  endfacet
  facet normal 0 0 1
    outer loop
      vertex 192.2 3.61436 0
      vertex 189.25 -1.49519 0
      vertex 190.435 -2.04769 0
    endloop
  endfacet
  facet normal -0 0 1
    outer loop
      vertex 185.952 7.56515 0
      vertex 191.496 5.54723 0
      vertex 186.505 8.75 0
    endloop
  endfacet
  facet normal 0 0 1
    outer loop
      vertex 191.972 3.77433 0
      vertex 188.179 -0.745333 0
      vertex 189.25 -1.49519 0
    endloop
  endfacet
  facet normal 0 0 1
    outer loop
      vertex 191.496 5.54723 0
      vertex 185.952 7.56515 0
      vertex 191.424 5.27784 0
    endloop
  endfacet
  facet normal 0 0 1
    outer loop
      vertex 191.774 3.97154 0
      vertex 187.255 0.179093 0
      vertex 188.179 -0.745333 0
    endloop
  endfacet
  facet normal -0 0 1
    outer loop
      vertex 185.614 6.30236 0
      vertex 191.424 5.27784 0
      vertex 185.952 7.56515 0
    endloop
  endfacet
  facet normal 0 0 1
    outer loop
      vertex 191.614 4.2 0
      vertex 186.505 1.25 0
      vertex 187.255 0.179093 0
    endloop
  endfacet
  facet normal 0 0 1
    outer loop
      vertex 191.424 5.27784 0
      vertex 185.614 6.30236 0
      vertex 191.4 5 0
    endloop
  endfacet
  facet normal 0 0 1
    outer loop
      vertex 191.496 4.45277 0
      vertex 185.952 2.43485 0
      vertex 186.505 1.25 0
    endloop
  endfacet
  facet normal 0 0 1
    outer loop
      vertex 185.5 5 0
      vertex 191.4 5 0
      vertex 185.614 6.30236 0
    endloop
  endfacet
  facet normal 0 0 1
    outer loop
      vertex 191.424 4.72216 0
      vertex 185.614 3.69764 0
      vertex 185.952 2.43485 0
    endloop
  endfacet
  facet normal 0 0 1
    outer loop
      vertex 191.4 5 0
      vertex 185.5 5 0
      vertex 185.614 3.69764 0
    endloop
  endfacet
  facet normal 0.819101 0.573649 0
    outer loop
      vertex 199.495 8.75 0
      vertex 198.745 9.82091 -30
      vertex 198.745 9.82091 0
    endloop
  endfacet
  facet normal 0.819101 0.573649 0
    outer loop
      vertex 198.745 9.82091 -30
      vertex 199.495 8.75 0
      vertex 199.495 8.75 -30
    endloop
  endfacet
  facet normal 0.906163 -0.422929 0
    outer loop
      vertex 199.495 1.25 0
      vertex 200.048 2.43485 -30
      vertex 200.048 2.43485 0
    endloop
  endfacet
  facet normal 0.906163 -0.422929 0
    outer loop
      vertex 200.048 2.43485 -30
      vertex 199.495 1.25 0
      vertex 199.495 1.25 -30
    endloop
  endfacet
  facet normal 0.996191 -0.0872 0
    outer loop
      vertex 200.386 3.69764 0
      vertex 200.5 5 -30
      vertex 200.5 5 0
    endloop
  endfacet
  facet normal 0.996191 -0.0872 0
    outer loop
      vertex 200.5 5 -30
      vertex 200.386 3.69764 0
      vertex 200.386 3.69764 -30
    endloop
  endfacet
  facet normal 0.965995 -0.25856 0
    outer loop
      vertex 200.048 2.43485 0
      vertex 200.386 3.69764 -30
      vertex 200.386 3.69764 0
    endloop
  endfacet
  facet normal 0.965995 -0.25856 0
    outer loop
      vertex 200.386 3.69764 -30
      vertex 200.048 2.43485 0
      vertex 200.048 2.43485 -30
    endloop
  endfacet
  facet normal 0.422571 0.90633 -0
    outer loop
      vertex 196.75 11.4952 -30
      vertex 195.565 12.0477 0
      vertex 196.75 11.4952 0
    endloop
  endfacet
  facet normal 0.422571 0.90633 0
    outer loop
      vertex 195.565 12.0477 0
      vertex 196.75 11.4952 -30
      vertex 195.565 12.0477 -30
    endloop
  endfacet
  facet normal 0.707256 0.706958 0
    outer loop
      vertex 198.745 9.82091 0
      vertex 197.821 10.7453 -30
      vertex 197.821 10.7453 0
    endloop
  endfacet
  facet normal 0.707256 0.706958 0
    outer loop
      vertex 197.821 10.7453 -30
      vertex 198.745 9.82091 0
      vertex 198.745 9.82091 -30
    endloop
  endfacet
  facet normal 0.258783 -0.965935 0
    outer loop
      vertex 194.302 -2.38606 -30
      vertex 195.565 -2.04769 0
      vertex 194.302 -2.38606 0
    endloop
  endfacet
  facet normal 0.258783 -0.965935 0
    outer loop
      vertex 195.565 -2.04769 0
      vertex 194.302 -2.38606 -30
      vertex 195.565 -2.04769 -30
    endloop
  endfacet
  facet normal -0.996191 0.0872 0
    outer loop
      vertex 185.5 5 -30
      vertex 185.614 6.30236 0
      vertex 185.614 6.30236 -30
    endloop
  endfacet
  facet normal -0.996191 0.0872 0
    outer loop
      vertex 185.614 6.30236 0
      vertex 185.5 5 -30
      vertex 185.5 5 0
    endloop
  endfacet
  facet normal 0.573565 0.81916 -0
    outer loop
      vertex 197.821 10.7453 -30
      vertex 196.75 11.4952 0
      vertex 197.821 10.7453 0
    endloop
  endfacet
  facet normal 0.573565 0.81916 0
    outer loop
      vertex 196.75 11.4952 0
      vertex 197.821 10.7453 -30
      vertex 196.75 11.4952 -30
    endloop
  endfacet
  facet normal -0.422571 -0.90633 0
    outer loop
      vertex 189.25 -1.49519 -30
      vertex 190.435 -2.04769 0
      vertex 189.25 -1.49519 0
    endloop
  endfacet
  facet normal -0.422571 -0.90633 -0
    outer loop
      vertex 190.435 -2.04769 0
      vertex 189.25 -1.49519 -30
      vertex 190.435 -2.04769 -30
    endloop
  endfacet
  facet normal -0.258805 0.96593 0
    outer loop
      vertex 191.698 12.3861 -30
      vertex 190.435 12.0477 0
      vertex 191.698 12.3861 0
    endloop
  endfacet
  facet normal -0.258805 0.96593 0
    outer loop
      vertex 190.435 12.0477 0
      vertex 191.698 12.3861 -30
      vertex 190.435 12.0477 -30
    endloop
  endfacet
  facet normal -0.087148 0.996195 0
    outer loop
      vertex 193 12.5 -30
      vertex 191.698 12.3861 0
      vertex 193 12.5 0
    endloop
  endfacet
  facet normal -0.087148 0.996195 0
    outer loop
      vertex 191.698 12.3861 0
      vertex 193 12.5 -30
      vertex 191.698 12.3861 -30
    endloop
  endfacet
  facet normal -0.906163 -0.422929 0
    outer loop
      vertex 186.505 1.25 -30
      vertex 185.952 2.43485 0
      vertex 185.952 2.43485 -30
    endloop
  endfacet
  facet normal -0.906163 -0.422929 0
    outer loop
      vertex 185.952 2.43485 0
      vertex 186.505 1.25 -30
      vertex 186.505 1.25 0
    endloop
  endfacet
  facet normal 0.087148 0.996195 -0
    outer loop
      vertex 194.302 12.3861 -30
      vertex 193 12.5 0
      vertex 194.302 12.3861 0
    endloop
  endfacet
  facet normal 0.087148 0.996195 0
    outer loop
      vertex 193 12.5 0
      vertex 194.302 12.3861 -30
      vertex 193 12.5 -30
    endloop
  endfacet
  facet normal -0.819101 -0.57365 0
    outer loop
      vertex 187.255 0.179093 -30
      vertex 186.505 1.25 0
      vertex 186.505 1.25 -30
    endloop
  endfacet
  facet normal -0.819101 -0.57365 0
    outer loop
      vertex 186.505 1.25 0
      vertex 187.255 0.179093 -30
      vertex 187.255 0.179093 0
    endloop
  endfacet
  facet normal -0.70727 -0.706944 0
    outer loop
      vertex 188.179 -0.745333 -30
      vertex 187.255 0.179093 0
      vertex 187.255 0.179093 -30
    endloop
  endfacet
  facet normal -0.70727 -0.706944 0
    outer loop
      vertex 187.255 0.179093 0
      vertex 188.179 -0.745333 -30
      vertex 188.179 -0.745333 0
    endloop
  endfacet
  facet normal 0.258805 0.96593 -0
    outer loop
      vertex 195.565 12.0477 -30
      vertex 194.302 12.3861 0
      vertex 195.565 12.0477 0
    endloop
  endfacet
  facet normal 0.258805 0.96593 0
    outer loop
      vertex 194.302 12.3861 0
      vertex 195.565 12.0477 -30
      vertex 194.302 12.3861 -30
    endloop
  endfacet
  facet normal -0.965995 0.25856 0
    outer loop
      vertex 185.614 6.30236 -30
      vertex 185.952 7.56515 0
      vertex 185.952 7.56515 -30
    endloop
  endfacet
  facet normal -0.965995 0.25856 0
    outer loop
      vertex 185.952 7.56515 0
      vertex 185.614 6.30236 -30
      vertex 185.614 6.30236 0
    endloop
  endfacet
  facet normal -0.707256 0.706958 0
    outer loop
      vertex 187.255 9.82091 -30
      vertex 188.179 10.7453 0
      vertex 188.179 10.7453 -30
    endloop
  endfacet
  facet normal -0.707256 0.706958 0
    outer loop
      vertex 188.179 10.7453 0
      vertex 187.255 9.82091 -30
      vertex 187.255 9.82091 0
    endloop
  endfacet
  facet normal 0 1 -0
    outer loop
      vertex 194.55 2.31532 -4.05
      vertex 191.45 2.31532 -1.7
      vertex 194.55 2.31532 -1.7
    endloop
  endfacet
  facet normal 0 1 0
    outer loop
      vertex 191.45 2.31532 -1.7
      vertex 194.55 2.31532 -4.05
      vertex 191.45 2.31532 -4.05
    endloop
  endfacet
  facet normal -0.866026 0.5 0
    outer loop
      vertex 194.55 2.31532 -4.05
      vertex 196.1 5 -1.7
      vertex 196.1 5 -4.05
    endloop
  endfacet
  facet normal -0.866026 0.5 0
    outer loop
      vertex 196.1 5 -1.7
      vertex 194.55 2.31532 -4.05
      vertex 194.55 2.31532 -1.7
    endloop
  endfacet
  facet normal 0 -1 0
    outer loop
      vertex 191.45 7.68468 -4.05
      vertex 194.55 7.68468 -1.7
      vertex 191.45 7.68468 -1.7
    endloop
  endfacet
  facet normal 0 -1 -0
    outer loop
      vertex 194.55 7.68468 -1.7
      vertex 191.45 7.68468 -4.05
      vertex 194.55 7.68468 -4.05
    endloop
  endfacet
  facet normal -0.866026 -0.5 0
    outer loop
      vertex 196.1 5 -4.05
      vertex 194.55 7.68468 -1.7
      vertex 194.55 7.68468 -4.05
    endloop
  endfacet
  facet normal -0.866026 -0.5 0
    outer loop
      vertex 194.55 7.68468 -1.7
      vertex 196.1 5 -4.05
      vertex 196.1 5 -1.7
    endloop
  endfacet
  facet normal 0.866026 -0.5 0
    outer loop
      vertex 189.9 5 -1.7
      vertex 191.45 7.68468 -4.05
      vertex 191.45 7.68468 -1.7
    endloop
  endfacet
  facet normal 0.866026 -0.5 0
    outer loop
      vertex 191.45 7.68468 -4.05
      vertex 189.9 5 -1.7
      vertex 189.9 5 -4.05
    endloop
  endfacet
  facet normal 0.866026 0.5 0
    outer loop
      vertex 191.45 2.31532 -1.7
      vertex 189.9 5 -4.05
      vertex 189.9 5 -1.7
    endloop
  endfacet
  facet normal 0.866026 0.5 0
    outer loop
      vertex 189.9 5 -4.05
      vertex 191.45 2.31532 -1.7
      vertex 191.45 2.31532 -4.05
    endloop
  endfacet
  facet normal -0 0 -1
    outer loop
      vertex 196.1 5 -1.7
      vertex 194.576 4.72216 -1.7
      vertex 194.6 5 -1.7
    endloop
  endfacet
  facet normal 0 0 -1
    outer loop
      vertex 194.386 4.2 -1.7
      vertex 196.1 5 -1.7
      vertex 194.55 2.31532 -1.7
    endloop
  endfacet
  facet normal 0 0 -1
    outer loop
      vertex 196.1 5 -1.7
      vertex 194.504 4.45277 -1.7
      vertex 194.576 4.72216 -1.7
    endloop
  endfacet
  facet normal 0 0 -1
    outer loop
      vertex 196.1 5 -1.7
      vertex 194.386 4.2 -1.7
      vertex 194.504 4.45277 -1.7
    endloop
  endfacet
  facet normal 0 0 -1
    outer loop
      vertex 194.55 2.31532 -1.7
      vertex 194.226 3.97154 -1.7
      vertex 194.386 4.2 -1.7
    endloop
  endfacet
  facet normal 0 0 -1
    outer loop
      vertex 194.55 2.31532 -1.7
      vertex 194.028 3.77433 -1.7
      vertex 194.226 3.97154 -1.7
    endloop
  endfacet
  facet normal 0 0 -1
    outer loop
      vertex 194.55 2.31532 -1.7
      vertex 193.8 3.61436 -1.7
      vertex 194.028 3.77433 -1.7
    endloop
  endfacet
  facet normal 0 0 -1
    outer loop
      vertex 194.55 2.31532 -1.7
      vertex 193.547 3.49649 -1.7
      vertex 193.8 3.61436 -1.7
    endloop
  endfacet
  facet normal 0 0 -1
    outer loop
      vertex 194.55 2.31532 -1.7
      vertex 193.278 3.42431 -1.7
      vertex 193.547 3.49649 -1.7
    endloop
  endfacet
  facet normal 0 0 -1
    outer loop
      vertex 194.55 2.31532 -1.7
      vertex 193 3.4 -1.7
      vertex 193.278 3.42431 -1.7
    endloop
  endfacet
  facet normal 0 0 -1
    outer loop
      vertex 191.45 2.31532 -1.7
      vertex 193 3.4 -1.7
      vertex 194.55 2.31532 -1.7
    endloop
  endfacet
  facet normal -0 0 -1
    outer loop
      vertex 193 3.4 -1.7
      vertex 191.45 2.31532 -1.7
      vertex 192.722 3.42431 -1.7
    endloop
  endfacet
  facet normal -0 0 -1
    outer loop
      vertex 192.722 3.42431 -1.7
      vertex 191.45 2.31532 -1.7
      vertex 192.453 3.49649 -1.7
    endloop
  endfacet
  facet normal -0 0 -1
    outer loop
      vertex 192.453 3.49649 -1.7
      vertex 191.45 2.31532 -1.7
      vertex 192.2 3.61436 -1.7
    endloop
  endfacet
  facet normal 0 0 -1
    outer loop
      vertex 191.45 2.31532 -1.7
      vertex 191.972 3.77433 -1.7
      vertex 192.2 3.61436 -1.7
    endloop
  endfacet
  facet normal 0 0 -1
    outer loop
      vertex 191.45 2.31532 -1.7
      vertex 191.774 3.97154 -1.7
      vertex 191.972 3.77433 -1.7
    endloop
  endfacet
  facet normal 0 0 -1
    outer loop
      vertex 191.45 2.31532 -1.7
      vertex 191.614 4.2 -1.7
      vertex 191.774 3.97154 -1.7
    endloop
  endfacet
  facet normal 0 0 -1
    outer loop
      vertex 189.9 5 -1.7
      vertex 191.614 4.2 -1.7
      vertex 191.45 2.31532 -1.7
    endloop
  endfacet
  facet normal 0 0 -1
    outer loop
      vertex 191.614 4.2 -1.7
      vertex 189.9 5 -1.7
      vertex 191.496 4.45277 -1.7
    endloop
  endfacet
  facet normal 0 0 -1
    outer loop
      vertex 191.496 4.45277 -1.7
      vertex 189.9 5 -1.7
      vertex 191.424 4.72216 -1.7
    endloop
  endfacet
  facet normal 0 0 -1
    outer loop
      vertex 191.424 4.72216 -1.7
      vertex 189.9 5 -1.7
      vertex 191.4 5 -1.7
    endloop
  endfacet
  facet normal 0 0 -1
    outer loop
      vertex 194.576 5.27784 -1.7
      vertex 196.1 5 -1.7
      vertex 194.6 5 -1.7
    endloop
  endfacet
  facet normal 0 0 -1
    outer loop
      vertex 194.504 5.54723 -1.7
      vertex 196.1 5 -1.7
      vertex 194.576 5.27784 -1.7
    endloop
  endfacet
  facet normal 0 0 -1
    outer loop
      vertex 194.386 5.8 -1.7
      vertex 196.1 5 -1.7
      vertex 194.504 5.54723 -1.7
    endloop
  endfacet
  facet normal 0 0 -1
    outer loop
      vertex 196.1 5 -1.7
      vertex 194.386 5.8 -1.7
      vertex 194.55 7.68468 -1.7
    endloop
  endfacet
  facet normal 0 0 -1
    outer loop
      vertex 194.226 6.02846 -1.7
      vertex 194.55 7.68468 -1.7
      vertex 194.386 5.8 -1.7
    endloop
  endfacet
  facet normal 0 0 -1
    outer loop
      vertex 194.028 6.22567 -1.7
      vertex 194.55 7.68468 -1.7
      vertex 194.226 6.02846 -1.7
    endloop
  endfacet
  facet normal 0 0 -1
    outer loop
      vertex 193.8 6.38564 -1.7
      vertex 194.55 7.68468 -1.7
      vertex 194.028 6.22567 -1.7
    endloop
  endfacet
  facet normal 0 0 -1
    outer loop
      vertex 193.547 6.50351 -1.7
      vertex 194.55 7.68468 -1.7
      vertex 193.8 6.38564 -1.7
    endloop
  endfacet
  facet normal 0 0 -1
    outer loop
      vertex 193.278 6.57569 -1.7
      vertex 194.55 7.68468 -1.7
      vertex 193.547 6.50351 -1.7
    endloop
  endfacet
  facet normal 0 0 -1
    outer loop
      vertex 193 6.6 -1.7
      vertex 194.55 7.68468 -1.7
      vertex 193.278 6.57569 -1.7
    endloop
  endfacet
  facet normal 0 0 -1
    outer loop
      vertex 191.45 7.68468 -1.7
      vertex 193 6.6 -1.7
      vertex 192.722 6.57569 -1.7
    endloop
  endfacet
  facet normal 0 0 -1
    outer loop
      vertex 191.45 7.68468 -1.7
      vertex 192.722 6.57569 -1.7
      vertex 192.453 6.50351 -1.7
    endloop
  endfacet
  facet normal 0 0 -1
    outer loop
      vertex 191.45 7.68468 -1.7
      vertex 192.453 6.50351 -1.7
      vertex 192.2 6.38564 -1.7
    endloop
  endfacet
  facet normal 0 0 -1
    outer loop
      vertex 193 6.6 -1.7
      vertex 191.45 7.68468 -1.7
      vertex 194.55 7.68468 -1.7
    endloop
  endfacet
  facet normal 0 0 -1
    outer loop
      vertex 191.972 6.22567 -1.7
      vertex 191.45 7.68468 -1.7
      vertex 192.2 6.38564 -1.7
    endloop
  endfacet
  facet normal 0 0 -1
    outer loop
      vertex 191.774 6.02846 -1.7
      vertex 191.45 7.68468 -1.7
      vertex 191.972 6.22567 -1.7
    endloop
  endfacet
  facet normal 0 0 -1
    outer loop
      vertex 191.614 5.8 -1.7
      vertex 191.45 7.68468 -1.7
      vertex 191.774 6.02846 -1.7
    endloop
  endfacet
  facet normal 0 0 -1
    outer loop
      vertex 189.9 5 -1.7
      vertex 191.614 5.8 -1.7
      vertex 191.496 5.54723 -1.7
    endloop
  endfacet
  facet normal 0 0 -1
    outer loop
      vertex 189.9 5 -1.7
      vertex 191.496 5.54723 -1.7
      vertex 191.424 5.27784 -1.7
    endloop
  endfacet
  facet normal 0 0 -1
    outer loop
      vertex 189.9 5 -1.7
      vertex 191.424 5.27784 -1.7
      vertex 191.4 5 -1.7
    endloop
  endfacet
  facet normal -0 0 -1
    outer loop
      vertex 191.614 5.8 -1.7
      vertex 189.9 5 -1.7
      vertex 191.45 7.68468 -1.7
    endloop
  endfacet
  facet normal 0 0 1
    outer loop
      vertex 196.1 5 -4.05
      vertex 194.576 5.27784 -4.05
      vertex 194.6 5 -4.05
    endloop
  endfacet
  facet normal -0 0 1
    outer loop
      vertex 194.386 5.8 -4.05
      vertex 196.1 5 -4.05
      vertex 194.55 7.68468 -4.05
    endloop
  endfacet
  facet normal 0 0 1
    outer loop
      vertex 196.1 5 -4.05
      vertex 194.504 5.54723 -4.05
      vertex 194.576 5.27784 -4.05
    endloop
  endfacet
  facet normal 0 0 1
    outer loop
      vertex 196.1 5 -4.05
      vertex 194.386 5.8 -4.05
      vertex 194.504 5.54723 -4.05
    endloop
  endfacet
  facet normal 0 0 1
    outer loop
      vertex 194.55 7.68468 -4.05
      vertex 194.226 6.02846 -4.05
      vertex 194.386 5.8 -4.05
    endloop
  endfacet
  facet normal 0 0 1
    outer loop
      vertex 194.55 7.68468 -4.05
      vertex 194.028 6.22567 -4.05
      vertex 194.226 6.02846 -4.05
    endloop
  endfacet
  facet normal 0 0 1
    outer loop
      vertex 194.55 7.68468 -4.05
      vertex 193.8 6.38564 -4.05
      vertex 194.028 6.22567 -4.05
    endloop
  endfacet
  facet normal 0 0 1
    outer loop
      vertex 194.55 7.68468 -4.05
      vertex 193.547 6.50351 -4.05
      vertex 193.8 6.38564 -4.05
    endloop
  endfacet
  facet normal 0 0 1
    outer loop
      vertex 194.55 7.68468 -4.05
      vertex 193.278 6.57569 -4.05
      vertex 193.547 6.50351 -4.05
    endloop
  endfacet
  facet normal 0 0 1
    outer loop
      vertex 194.55 7.68468 -4.05
      vertex 193 6.6 -4.05
      vertex 193.278 6.57569 -4.05
    endloop
  endfacet
  facet normal -0 0 1
    outer loop
      vertex 191.45 7.68468 -4.05
      vertex 193 6.6 -4.05
      vertex 194.55 7.68468 -4.05
    endloop
  endfacet
  facet normal 0 0 1
    outer loop
      vertex 193 6.6 -4.05
      vertex 191.45 7.68468 -4.05
      vertex 192.722 6.57569 -4.05
    endloop
  endfacet
  facet normal 0 0 1
    outer loop
      vertex 192.722 6.57569 -4.05
      vertex 191.45 7.68468 -4.05
      vertex 192.453 6.50351 -4.05
    endloop
  endfacet
  facet normal 0 0 1
    outer loop
      vertex 192.453 6.50351 -4.05
      vertex 191.45 7.68468 -4.05
      vertex 192.2 6.38564 -4.05
    endloop
  endfacet
  facet normal 0 0 1
    outer loop
      vertex 191.45 7.68468 -4.05
      vertex 191.972 6.22567 -4.05
      vertex 192.2 6.38564 -4.05
    endloop
  endfacet
  facet normal 0 0 1
    outer loop
      vertex 191.45 7.68468 -4.05
      vertex 191.774 6.02846 -4.05
      vertex 191.972 6.22567 -4.05
    endloop
  endfacet
  facet normal 0 0 1
    outer loop
      vertex 191.45 7.68468 -4.05
      vertex 191.614 5.8 -4.05
      vertex 191.774 6.02846 -4.05
    endloop
  endfacet
  facet normal 0 0 1
    outer loop
      vertex 189.9 5 -4.05
      vertex 191.614 5.8 -4.05
      vertex 191.45 7.68468 -4.05
    endloop
  endfacet
  facet normal 0 0 1
    outer loop
      vertex 191.614 5.8 -4.05
      vertex 189.9 5 -4.05
      vertex 191.496 5.54723 -4.05
    endloop
  endfacet
  facet normal 0 0 1
    outer loop
      vertex 191.496 5.54723 -4.05
      vertex 189.9 5 -4.05
      vertex 191.424 5.27784 -4.05
    endloop
  endfacet
  facet normal 0 0 1
    outer loop
      vertex 191.424 5.27784 -4.05
      vertex 189.9 5 -4.05
      vertex 191.4 5 -4.05
    endloop
  endfacet
  facet normal 0 0 1
    outer loop
      vertex 194.576 4.72216 -4.05
      vertex 196.1 5 -4.05
      vertex 194.6 5 -4.05
    endloop
  endfacet
  facet normal 0 0 1
    outer loop
      vertex 194.504 4.45277 -4.05
      vertex 196.1 5 -4.05
      vertex 194.576 4.72216 -4.05
    endloop
  endfacet
  facet normal 0 0 1
    outer loop
      vertex 194.386 4.2 -4.05
      vertex 196.1 5 -4.05
      vertex 194.504 4.45277 -4.05
    endloop
  endfacet
  facet normal 0 0 1
    outer loop
      vertex 196.1 5 -4.05
      vertex 194.386 4.2 -4.05
      vertex 194.55 2.31532 -4.05
    endloop
  endfacet
  facet normal -0 0 1
    outer loop
      vertex 194.226 3.97154 -4.05
      vertex 194.55 2.31532 -4.05
      vertex 194.386 4.2 -4.05
    endloop
  endfacet
  facet normal -0 0 1
    outer loop
      vertex 194.028 3.77433 -4.05
      vertex 194.55 2.31532 -4.05
      vertex 194.226 3.97154 -4.05
    endloop
  endfacet
  facet normal -0 0 1
    outer loop
      vertex 193.8 3.61436 -4.05
      vertex 194.55 2.31532 -4.05
      vertex 194.028 3.77433 -4.05
    endloop
  endfacet
  facet normal -0 0 1
    outer loop
      vertex 193.547 3.49649 -4.05
      vertex 194.55 2.31532 -4.05
      vertex 193.8 3.61436 -4.05
    endloop
  endfacet
  facet normal -0 0 1
    outer loop
      vertex 193.278 3.42431 -4.05
      vertex 194.55 2.31532 -4.05
      vertex 193.547 3.49649 -4.05
    endloop
  endfacet
  facet normal -0 0 1
    outer loop
      vertex 193 3.4 -4.05
      vertex 194.55 2.31532 -4.05
      vertex 193.278 3.42431 -4.05
    endloop
  endfacet
  facet normal 0 0 1
    outer loop
      vertex 191.45 2.31532 -4.05
      vertex 193 3.4 -4.05
      vertex 192.722 3.42431 -4.05
    endloop
  endfacet
  facet normal 0 0 1
    outer loop
      vertex 191.45 2.31532 -4.05
      vertex 192.722 3.42431 -4.05
      vertex 192.453 3.49649 -4.05
    endloop
  endfacet
  facet normal 0 0 1
    outer loop
      vertex 191.45 2.31532 -4.05
      vertex 192.453 3.49649 -4.05
      vertex 192.2 3.61436 -4.05
    endloop
  endfacet
  facet normal 0 0 1
    outer loop
      vertex 193 3.4 -4.05
      vertex 191.45 2.31532 -4.05
      vertex 194.55 2.31532 -4.05
    endloop
  endfacet
  facet normal 0 0 1
    outer loop
      vertex 191.972 3.77433 -4.05
      vertex 191.45 2.31532 -4.05
      vertex 192.2 3.61436 -4.05
    endloop
  endfacet
  facet normal 0 0 1
    outer loop
      vertex 191.774 3.97154 -4.05
      vertex 191.45 2.31532 -4.05
      vertex 191.972 3.77433 -4.05
    endloop
  endfacet
  facet normal 0 0 1
    outer loop
      vertex 191.614 4.2 -4.05
      vertex 191.45 2.31532 -4.05
      vertex 191.774 3.97154 -4.05
    endloop
  endfacet
  facet normal 0 0 1
    outer loop
      vertex 189.9 5 -4.05
      vertex 191.614 4.2 -4.05
      vertex 191.496 4.45277 -4.05
    endloop
  endfacet
  facet normal 0 0 1
    outer loop
      vertex 189.9 5 -4.05
      vertex 191.496 4.45277 -4.05
      vertex 191.424 4.72216 -4.05
    endloop
  endfacet
  facet normal -0 0 1
    outer loop
      vertex 189.9 5 -4.05
      vertex 191.424 4.72216 -4.05
      vertex 191.4 5 -4.05
    endloop
  endfacet
  facet normal 0 0 1
    outer loop
      vertex 191.614 4.2 -4.05
      vertex 189.9 5 -4.05
      vertex 191.45 2.31532 -4.05
    endloop
  endfacet
  facet normal 0.25916 -0.965835 0
    outer loop
      vertex 192.453 6.50351 -10.05
      vertex 192.722 6.57569 -4.05
      vertex 192.453 6.50351 -4.05
    endloop
  endfacet
  facet normal 0.25916 -0.965835 0
    outer loop
      vertex 192.722 6.57569 -4.05
      vertex 192.453 6.50351 -10.05
      vertex 192.722 6.57569 -10.05
    endloop
  endfacet
  facet normal 0.25916 -0.965835 0
    outer loop
      vertex 192.453 6.50351 -1.7
      vertex 192.722 6.57569 0
      vertex 192.453 6.50351 0
    endloop
  endfacet
  facet normal 0.25916 -0.965835 0
    outer loop
      vertex 192.722 6.57569 0
      vertex 192.453 6.50351 -1.7
      vertex 192.722 6.57569 -1.7
    endloop
  endfacet
  facet normal -0.96609 -0.258207 0
    outer loop
      vertex 194.576 5.27784 -10.05
      vertex 194.504 5.54723 -4.05
      vertex 194.504 5.54723 -10.05
    endloop
  endfacet
  facet normal -0.96609 -0.258207 0
    outer loop
      vertex 194.504 5.54723 -4.05
      vertex 194.576 5.27784 -10.05
      vertex 194.576 5.27784 -4.05
    endloop
  endfacet
  facet normal -0.96609 -0.258207 0
    outer loop
      vertex 194.576 5.27784 -1.7
      vertex 194.504 5.54723 0
      vertex 194.504 5.54723 -1.7
    endloop
  endfacet
  facet normal -0.96609 -0.258207 0
    outer loop
      vertex 194.504 5.54723 0
      vertex 194.576 5.27784 -1.7
      vertex 194.576 5.27784 0
    endloop
  endfacet
  facet normal -0.99629 -0.0860602 0
    outer loop
      vertex 194.6 5 -10.05
      vertex 194.576 5.27784 -4.05
      vertex 194.576 5.27784 -10.05
    endloop
  endfacet
  facet normal -0.99629 -0.0860602 0
    outer loop
      vertex 194.576 5.27784 -4.05
      vertex 194.6 5 -10.05
      vertex 194.6 5 -4.05
    endloop
  endfacet
  facet normal -0.99629 -0.0860602 0
    outer loop
      vertex 194.6 5 -1.7
      vertex 194.576 5.27784 0
      vertex 194.576 5.27784 -1.7
    endloop
  endfacet
  facet normal -0.99629 -0.0860602 0
    outer loop
      vertex 194.576 5.27784 0
      vertex 194.6 5 -1.7
      vertex 194.6 5 0
    endloop
  endfacet
  facet normal -0.906127 -0.423005 0
    outer loop
      vertex 194.504 5.54723 -10.05
      vertex 194.386 5.8 -4.05
      vertex 194.386 5.8 -10.05
    endloop
  endfacet
  facet normal -0.906127 -0.423005 0
    outer loop
      vertex 194.386 5.8 -4.05
      vertex 194.504 5.54723 -10.05
      vertex 194.504 5.54723 -4.05
    endloop
  endfacet
  facet normal -0.906127 -0.423005 0
    outer loop
      vertex 194.504 5.54723 -1.7
      vertex 194.386 5.8 0
      vertex 194.386 5.8 -1.7
    endloop
  endfacet
  facet normal -0.906127 -0.423005 0
    outer loop
      vertex 194.386 5.8 0
      vertex 194.504 5.54723 -1.7
      vertex 194.504 5.54723 0
    endloop
  endfacet
  facet normal 0 0 1
    outer loop
      vertex 194.576 5.27784 -10.05
      vertex 194.576 4.72216 -10.05
      vertex 194.6 5 -10.05
    endloop
  endfacet
  facet normal 0 0 1
    outer loop
      vertex 194.504 5.54723 -10.05
      vertex 194.576 4.72216 -10.05
      vertex 194.576 5.27784 -10.05
    endloop
  endfacet
  facet normal 0 0 1
    outer loop
      vertex 194.504 5.54723 -10.05
      vertex 194.504 4.45277 -10.05
      vertex 194.576 4.72216 -10.05
    endloop
  endfacet
  facet normal 0 0 1
    outer loop
      vertex 194.386 5.8 -10.05
      vertex 194.504 4.45277 -10.05
      vertex 194.504 5.54723 -10.05
    endloop
  endfacet
  facet normal 0 0 1
    outer loop
      vertex 194.386 5.8 -10.05
      vertex 194.386 4.2 -10.05
      vertex 194.504 4.45277 -10.05
    endloop
  endfacet
  facet normal 0 0 1
    outer loop
      vertex 194.226 6.02846 -10.05
      vertex 194.386 4.2 -10.05
      vertex 194.386 5.8 -10.05
    endloop
  endfacet
  facet normal 0 0 1
    outer loop
      vertex 194.226 6.02846 -10.05
      vertex 194.226 3.97154 -10.05
      vertex 194.386 4.2 -10.05
    endloop
  endfacet
  facet normal 0 0 1
    outer loop
      vertex 194.028 6.22567 -10.05
      vertex 194.226 3.97154 -10.05
      vertex 194.226 6.02846 -10.05
    endloop
  endfacet
  facet normal 0 0 1
    outer loop
      vertex 194.028 6.22567 -10.05
      vertex 194.028 3.77433 -10.05
      vertex 194.226 3.97154 -10.05
    endloop
  endfacet
  facet normal 0 0 1
    outer loop
      vertex 193.8 6.38564 -10.05
      vertex 194.028 3.77433 -10.05
      vertex 194.028 6.22567 -10.05
    endloop
  endfacet
  facet normal 0 0 1
    outer loop
      vertex 193.8 6.38564 -10.05
      vertex 193.8 3.61436 -10.05
      vertex 194.028 3.77433 -10.05
    endloop
  endfacet
  facet normal 0 0 1
    outer loop
      vertex 193.547 6.50351 -10.05
      vertex 193.8 3.61436 -10.05
      vertex 193.8 6.38564 -10.05
    endloop
  endfacet
  facet normal 0 0 1
    outer loop
      vertex 193.547 6.50351 -10.05
      vertex 193.547 3.49649 -10.05
      vertex 193.8 3.61436 -10.05
    endloop
  endfacet
  facet normal 0 0 1
    outer loop
      vertex 193.278 6.57569 -10.05
      vertex 193.547 3.49649 -10.05
      vertex 193.547 6.50351 -10.05
    endloop
  endfacet
  facet normal 0 0 1
    outer loop
      vertex 193.278 6.57569 -10.05
      vertex 193.278 3.42431 -10.05
      vertex 193.547 3.49649 -10.05
    endloop
  endfacet
  facet normal 0 0 1
    outer loop
      vertex 193 6.6 -10.05
      vertex 193.278 3.42431 -10.05
      vertex 193.278 6.57569 -10.05
    endloop
  endfacet
  facet normal 0 0 1
    outer loop
      vertex 193 6.6 -10.05
      vertex 193 3.4 -10.05
      vertex 193.278 3.42431 -10.05
    endloop
  endfacet
  facet normal -0 0 1
    outer loop
      vertex 192.722 6.57569 -10.05
      vertex 193 3.4 -10.05
      vertex 193 6.6 -10.05
    endloop
  endfacet
  facet normal 0 0 1
    outer loop
      vertex 192.722 6.57569 -10.05
      vertex 192.722 3.42431 -10.05
      vertex 193 3.4 -10.05
    endloop
  endfacet
  facet normal -0 0 1
    outer loop
      vertex 192.453 6.50351 -10.05
      vertex 192.722 3.42431 -10.05
      vertex 192.722 6.57569 -10.05
    endloop
  endfacet
  facet normal 0 0 1
    outer loop
      vertex 192.453 6.50351 -10.05
      vertex 192.453 3.49649 -10.05
      vertex 192.722 3.42431 -10.05
    endloop
  endfacet
  facet normal -0 0 1
    outer loop
      vertex 192.2 6.38564 -10.05
      vertex 192.453 3.49649 -10.05
      vertex 192.453 6.50351 -10.05
    endloop
  endfacet
  facet normal 0 0 1
    outer loop
      vertex 192.2 6.38564 -10.05
      vertex 192.2 3.61436 -10.05
      vertex 192.453 3.49649 -10.05
    endloop
  endfacet
  facet normal -0 0 1
    outer loop
      vertex 191.972 6.22567 -10.05
      vertex 192.2 3.61436 -10.05
      vertex 192.2 6.38564 -10.05
    endloop
  endfacet
  facet normal 0 0 1
    outer loop
      vertex 191.972 6.22567 -10.05
      vertex 191.972 3.77433 -10.05
      vertex 192.2 3.61436 -10.05
    endloop
  endfacet
  facet normal -0 0 1
    outer loop
      vertex 191.774 6.02846 -10.05
      vertex 191.972 3.77433 -10.05
      vertex 191.972 6.22567 -10.05
    endloop
  endfacet
  facet normal 0 0 1
    outer loop
      vertex 191.774 6.02846 -10.05
      vertex 191.774 3.97154 -10.05
      vertex 191.972 3.77433 -10.05
    endloop
  endfacet
  facet normal -0 0 1
    outer loop
      vertex 191.614 5.8 -10.05
      vertex 191.774 3.97154 -10.05
      vertex 191.774 6.02846 -10.05
    endloop
  endfacet
  facet normal 0 0 1
    outer loop
      vertex 191.614 5.8 -10.05
      vertex 191.614 4.2 -10.05
      vertex 191.774 3.97154 -10.05
    endloop
  endfacet
  facet normal -0 0 1
    outer loop
      vertex 191.496 5.54723 -10.05
      vertex 191.614 4.2 -10.05
      vertex 191.614 5.8 -10.05
    endloop
  endfacet
  facet normal 0 0 1
    outer loop
      vertex 191.496 5.54723 -10.05
      vertex 191.496 4.45277 -10.05
      vertex 191.614 4.2 -10.05
    endloop
  endfacet
  facet normal -0 0 1
    outer loop
      vertex 191.424 5.27784 -10.05
      vertex 191.496 4.45277 -10.05
      vertex 191.496 5.54723 -10.05
    endloop
  endfacet
  facet normal 0 0 1
    outer loop
      vertex 191.424 5.27784 -10.05
      vertex 191.424 4.72216 -10.05
      vertex 191.496 4.45277 -10.05
    endloop
  endfacet
  facet normal 0 -0 1
    outer loop
      vertex 191.424 4.72216 -10.05
      vertex 191.424 5.27784 -10.05
      vertex 191.4 5 -10.05
    endloop
  endfacet
  facet normal 0.906127 0.423005 0
    outer loop
      vertex 191.614 4.2 -4.05
      vertex 191.496 4.45277 -10.05
      vertex 191.496 4.45277 -4.05
    endloop
  endfacet
  facet normal 0.906127 0.423005 0
    outer loop
      vertex 191.496 4.45277 -10.05
      vertex 191.614 4.2 -4.05
      vertex 191.614 4.2 -10.05
    endloop
  endfacet
  facet normal 0.906127 0.423005 0
    outer loop
      vertex 191.614 4.2 0
      vertex 191.496 4.45277 -1.7
      vertex 191.496 4.45277 0
    endloop
  endfacet
  facet normal 0.906127 0.423005 0
    outer loop
      vertex 191.496 4.45277 -1.7
      vertex 191.614 4.2 0
      vertex 191.614 4.2 -1.7
    endloop
  endfacet
  facet normal -0.906127 0.423005 0
    outer loop
      vertex 194.386 4.2 -10.05
      vertex 194.504 4.45277 -4.05
      vertex 194.504 4.45277 -10.05
    endloop
  endfacet
  facet normal -0.906127 0.423005 0
    outer loop
      vertex 194.504 4.45277 -4.05
      vertex 194.386 4.2 -10.05
      vertex 194.386 4.2 -4.05
    endloop
  endfacet
  facet normal -0.906127 0.423005 0
    outer loop
      vertex 194.386 4.2 -1.7
      vertex 194.504 4.45277 0
      vertex 194.504 4.45277 -1.7
    endloop
  endfacet
  facet normal -0.906127 0.423005 0
    outer loop
      vertex 194.504 4.45277 0
      vertex 194.386 4.2 -1.7
      vertex 194.386 4.2 0
    endloop
  endfacet
  facet normal -0.819101 0.57365 0
    outer loop
      vertex 194.226 3.97154 -10.05
      vertex 194.386 4.2 -4.05
      vertex 194.386 4.2 -10.05
    endloop
  endfacet
  facet normal -0.819101 0.57365 0
    outer loop
      vertex 194.386 4.2 -4.05
      vertex 194.226 3.97154 -10.05
      vertex 194.226 3.97154 -4.05
    endloop
  endfacet
  facet normal -0.819101 0.57365 0
    outer loop
      vertex 194.226 3.97154 -1.7
      vertex 194.386 4.2 0
      vertex 194.386 4.2 -1.7
    endloop
  endfacet
  facet normal -0.819101 0.57365 0
    outer loop
      vertex 194.386 4.2 0
      vertex 194.226 3.97154 -1.7
      vertex 194.226 3.97154 0
    endloop
  endfacet
  facet normal -0.99629 0.0860602 0
    outer loop
      vertex 194.576 4.72216 -10.05
      vertex 194.6 5 -4.05
      vertex 194.6 5 -10.05
    endloop
  endfacet
  facet normal -0.99629 0.0860602 0
    outer loop
      vertex 194.6 5 -4.05
      vertex 194.576 4.72216 -10.05
      vertex 194.576 4.72216 -4.05
    endloop
  endfacet
  facet normal -0.99629 0.0860602 0
    outer loop
      vertex 194.576 4.72216 -1.7
      vertex 194.6 5 0
      vertex 194.6 5 -1.7
    endloop
  endfacet
  facet normal -0.99629 0.0860602 0
    outer loop
      vertex 194.6 5 0
      vertex 194.576 4.72216 -1.7
      vertex 194.576 4.72216 0
    endloop
  endfacet
  facet normal -0.819101 -0.57365 0
    outer loop
      vertex 194.386 5.8 -10.05
      vertex 194.226 6.02846 -4.05
      vertex 194.226 6.02846 -10.05
    endloop
  endfacet
  facet normal -0.819101 -0.57365 0
    outer loop
      vertex 194.226 6.02846 -4.05
      vertex 194.386 5.8 -10.05
      vertex 194.386 5.8 -4.05
    endloop
  endfacet
  facet normal -0.819101 -0.57365 0
    outer loop
      vertex 194.386 5.8 -1.7
      vertex 194.226 6.02846 0
      vertex 194.226 6.02846 -1.7
    endloop
  endfacet
  facet normal -0.819101 -0.57365 0
    outer loop
      vertex 194.226 6.02846 0
      vertex 194.386 5.8 -1.7
      vertex 194.386 5.8 0
    endloop
  endfacet
  facet normal 0.96609 0.258207 0
    outer loop
      vertex 191.496 4.45277 -4.05
      vertex 191.424 4.72216 -10.05
      vertex 191.424 4.72216 -4.05
    endloop
  endfacet
  facet normal 0.96609 0.258207 0
    outer loop
      vertex 191.424 4.72216 -10.05
      vertex 191.496 4.45277 -4.05
      vertex 191.496 4.45277 -10.05
    endloop
  endfacet
  facet normal 0.96609 0.258207 0
    outer loop
      vertex 191.496 4.45277 0
      vertex 191.424 4.72216 -1.7
      vertex 191.424 4.72216 0
    endloop
  endfacet
  facet normal 0.96609 0.258207 0
    outer loop
      vertex 191.424 4.72216 -1.7
      vertex 191.496 4.45277 0
      vertex 191.496 4.45277 -1.7
    endloop
  endfacet
  facet normal -0.705692 0.708519 0
    outer loop
      vertex 194.226 3.97154 -10.05
      vertex 194.028 3.77433 -4.05
      vertex 194.226 3.97154 -4.05
    endloop
  endfacet
  facet normal -0.705692 0.708519 0
    outer loop
      vertex 194.028 3.77433 -4.05
      vertex 194.226 3.97154 -10.05
      vertex 194.028 3.77433 -10.05
    endloop
  endfacet
  facet normal -0.705692 0.708519 0
    outer loop
      vertex 194.226 3.97154 -1.7
      vertex 194.028 3.77433 0
      vertex 194.226 3.97154 0
    endloop
  endfacet
  facet normal -0.705692 0.708519 0
    outer loop
      vertex 194.028 3.77433 0
      vertex 194.226 3.97154 -1.7
      vertex 194.028 3.77433 -1.7
    endloop
  endfacet
  facet normal 0.705692 -0.708519 0
    outer loop
      vertex 191.774 6.02846 -10.05
      vertex 191.972 6.22567 -4.05
      vertex 191.774 6.02846 -4.05
    endloop
  endfacet
  facet normal 0.705692 -0.708519 0
    outer loop
      vertex 191.972 6.22567 -4.05
      vertex 191.774 6.02846 -10.05
      vertex 191.972 6.22567 -10.05
    endloop
  endfacet
  facet normal 0.705692 -0.708519 0
    outer loop
      vertex 191.774 6.02846 -1.7
      vertex 191.972 6.22567 0
      vertex 191.774 6.02846 0
    endloop
  endfacet
  facet normal 0.705692 -0.708519 0
    outer loop
      vertex 191.972 6.22567 0
      vertex 191.774 6.02846 -1.7
      vertex 191.972 6.22567 -1.7
    endloop
  endfacet
  facet normal 0.0871136 -0.996198 0
    outer loop
      vertex 192.722 6.57569 -10.05
      vertex 193 6.6 -4.05
      vertex 192.722 6.57569 -4.05
    endloop
  endfacet
  facet normal 0.0871136 -0.996198 0
    outer loop
      vertex 193 6.6 -4.05
      vertex 192.722 6.57569 -10.05
      vertex 193 6.6 -10.05
    endloop
  endfacet
  facet normal 0.0871136 -0.996198 0
    outer loop
      vertex 192.722 6.57569 -1.7
      vertex 193 6.6 0
      vertex 192.722 6.57569 0
    endloop
  endfacet
  facet normal 0.0871136 -0.996198 0
    outer loop
      vertex 193 6.6 0
      vertex 192.722 6.57569 -1.7
      vertex 193 6.6 -1.7
    endloop
  endfacet
  facet normal 0.574354 -0.818607 0
    outer loop
      vertex 191.972 6.22567 -10.05
      vertex 192.2 6.38564 -4.05
      vertex 191.972 6.22567 -4.05
    endloop
  endfacet
  facet normal 0.574354 -0.818607 0
    outer loop
      vertex 192.2 6.38564 -4.05
      vertex 191.972 6.22567 -10.05
      vertex 192.2 6.38564 -10.05
    endloop
  endfacet
  facet normal 0.574354 -0.818607 0
    outer loop
      vertex 191.972 6.22567 -1.7
      vertex 192.2 6.38564 0
      vertex 191.972 6.22567 0
    endloop
  endfacet
  facet normal 0.574354 -0.818607 0
    outer loop
      vertex 192.2 6.38564 0
      vertex 191.972 6.22567 -1.7
      vertex 192.2 6.38564 -1.7
    endloop
  endfacet
  facet normal 0.422307 -0.906453 0
    outer loop
      vertex 192.2 6.38564 -10.05
      vertex 192.453 6.50351 -4.05
      vertex 192.2 6.38564 -4.05
    endloop
  endfacet
  facet normal 0.422307 -0.906453 0
    outer loop
      vertex 192.453 6.50351 -4.05
      vertex 192.2 6.38564 -10.05
      vertex 192.453 6.50351 -10.05
    endloop
  endfacet
  facet normal 0.422307 -0.906453 0
    outer loop
      vertex 192.2 6.38564 -1.7
      vertex 192.453 6.50351 0
      vertex 192.2 6.38564 0
    endloop
  endfacet
  facet normal 0.422307 -0.906453 0
    outer loop
      vertex 192.453 6.50351 0
      vertex 192.2 6.38564 -1.7
      vertex 192.453 6.50351 -1.7
    endloop
  endfacet
  facet normal -0.422307 0.906453 0
    outer loop
      vertex 193.8 3.61436 -10.05
      vertex 193.547 3.49649 -4.05
      vertex 193.8 3.61436 -4.05
    endloop
  endfacet
  facet normal -0.422307 0.906453 0
    outer loop
      vertex 193.547 3.49649 -4.05
      vertex 193.8 3.61436 -10.05
      vertex 193.547 3.49649 -10.05
    endloop
  endfacet
  facet normal -0.422307 0.906453 0
    outer loop
      vertex 193.8 3.61436 -1.7
      vertex 193.547 3.49649 0
      vertex 193.8 3.61436 0
    endloop
  endfacet
  facet normal -0.422307 0.906453 0
    outer loop
      vertex 193.547 3.49649 0
      vertex 193.8 3.61436 -1.7
      vertex 193.547 3.49649 -1.7
    endloop
  endfacet
  facet normal 0.99629 0.0860602 0
    outer loop
      vertex 191.424 4.72216 -4.05
      vertex 191.4 5 -10.05
      vertex 191.4 5 -4.05
    endloop
  endfacet
  facet normal 0.99629 0.0860602 0
    outer loop
      vertex 191.4 5 -10.05
      vertex 191.424 4.72216 -4.05
      vertex 191.424 4.72216 -10.05
    endloop
  endfacet
  facet normal 0.99629 0.0860602 0
    outer loop
      vertex 191.424 4.72216 0
      vertex 191.4 5 -1.7
      vertex 191.4 5 0
    endloop
  endfacet
  facet normal 0.99629 0.0860602 0
    outer loop
      vertex 191.4 5 -1.7
      vertex 191.424 4.72216 0
      vertex 191.424 4.72216 -1.7
    endloop
  endfacet
  facet normal -0.574354 -0.818607 0
    outer loop
      vertex 193.8 6.38564 -10.05
      vertex 194.028 6.22567 -4.05
      vertex 193.8 6.38564 -4.05
    endloop
  endfacet
  facet normal -0.574354 -0.818607 -0
    outer loop
      vertex 194.028 6.22567 -4.05
      vertex 193.8 6.38564 -10.05
      vertex 194.028 6.22567 -10.05
    endloop
  endfacet
  facet normal -0.574354 -0.818607 0
    outer loop
      vertex 193.8 6.38564 -1.7
      vertex 194.028 6.22567 0
      vertex 193.8 6.38564 0
    endloop
  endfacet
  facet normal -0.574354 -0.818607 -0
    outer loop
      vertex 194.028 6.22567 0
      vertex 193.8 6.38564 -1.7
      vertex 194.028 6.22567 -1.7
    endloop
  endfacet
  facet normal -0.25916 -0.965835 0
    outer loop
      vertex 193.278 6.57569 -10.05
      vertex 193.547 6.50351 -4.05
      vertex 193.278 6.57569 -4.05
    endloop
  endfacet
  facet normal -0.25916 -0.965835 -0
    outer loop
      vertex 193.547 6.50351 -4.05
      vertex 193.278 6.57569 -10.05
      vertex 193.547 6.50351 -10.05
    endloop
  endfacet
  facet normal -0.25916 -0.965835 0
    outer loop
      vertex 193.278 6.57569 -1.7
      vertex 193.547 6.50351 0
      vertex 193.278 6.57569 0
    endloop
  endfacet
  facet normal -0.25916 -0.965835 -0
    outer loop
      vertex 193.547 6.50351 0
      vertex 193.278 6.57569 -1.7
      vertex 193.547 6.50351 -1.7
    endloop
  endfacet
  facet normal -0.574354 0.818607 0
    outer loop
      vertex 194.028 3.77433 -10.05
      vertex 193.8 3.61436 -4.05
      vertex 194.028 3.77433 -4.05
    endloop
  endfacet
  facet normal -0.574354 0.818607 0
    outer loop
      vertex 193.8 3.61436 -4.05
      vertex 194.028 3.77433 -10.05
      vertex 193.8 3.61436 -10.05
    endloop
  endfacet
  facet normal -0.574354 0.818607 0
    outer loop
      vertex 194.028 3.77433 -1.7
      vertex 193.8 3.61436 0
      vertex 194.028 3.77433 0
    endloop
  endfacet
  facet normal -0.574354 0.818607 0
    outer loop
      vertex 193.8 3.61436 0
      vertex 194.028 3.77433 -1.7
      vertex 193.8 3.61436 -1.7
    endloop
  endfacet
  facet normal 0.96609 -0.258207 0
    outer loop
      vertex 191.424 5.27784 -4.05
      vertex 191.496 5.54723 -10.05
      vertex 191.496 5.54723 -4.05
    endloop
  endfacet
  facet normal 0.96609 -0.258207 0
    outer loop
      vertex 191.496 5.54723 -10.05
      vertex 191.424 5.27784 -4.05
      vertex 191.424 5.27784 -10.05
    endloop
  endfacet
  facet normal 0.96609 -0.258207 0
    outer loop
      vertex 191.424 5.27784 0
      vertex 191.496 5.54723 -1.7
      vertex 191.496 5.54723 0
    endloop
  endfacet
  facet normal 0.96609 -0.258207 0
    outer loop
      vertex 191.496 5.54723 -1.7
      vertex 191.424 5.27784 0
      vertex 191.424 5.27784 -1.7
    endloop
  endfacet
  facet normal -0.422307 -0.906453 0
    outer loop
      vertex 193.547 6.50351 -10.05
      vertex 193.8 6.38564 -4.05
      vertex 193.547 6.50351 -4.05
    endloop
  endfacet
  facet normal -0.422307 -0.906453 -0
    outer loop
      vertex 193.8 6.38564 -4.05
      vertex 193.547 6.50351 -10.05
      vertex 193.8 6.38564 -10.05
    endloop
  endfacet
  facet normal -0.422307 -0.906453 0
    outer loop
      vertex 193.547 6.50351 -1.7
      vertex 193.8 6.38564 0
      vertex 193.547 6.50351 0
    endloop
  endfacet
  facet normal -0.422307 -0.906453 -0
    outer loop
      vertex 193.8 6.38564 0
      vertex 193.547 6.50351 -1.7
      vertex 193.8 6.38564 -1.7
    endloop
  endfacet
  facet normal 0.819101 -0.57365 0
    outer loop
      vertex 191.614 5.8 -4.05
      vertex 191.774 6.02846 -10.05
      vertex 191.774 6.02846 -4.05
    endloop
  endfacet
  facet normal 0.819101 -0.57365 0
    outer loop
      vertex 191.774 6.02846 -10.05
      vertex 191.614 5.8 -4.05
      vertex 191.614 5.8 -10.05
    endloop
  endfacet
  facet normal 0.819101 -0.57365 0
    outer loop
      vertex 191.614 5.8 0
      vertex 191.774 6.02846 -1.7
      vertex 191.774 6.02846 0
    endloop
  endfacet
  facet normal 0.819101 -0.57365 0
    outer loop
      vertex 191.774 6.02846 -1.7
      vertex 191.614 5.8 0
      vertex 191.614 5.8 -1.7
    endloop
  endfacet
  facet normal 0.819101 0.57365 0
    outer loop
      vertex 191.774 3.97154 -4.05
      vertex 191.614 4.2 -10.05
      vertex 191.614 4.2 -4.05
    endloop
  endfacet
  facet normal 0.819101 0.57365 0
    outer loop
      vertex 191.614 4.2 -10.05
      vertex 191.774 3.97154 -4.05
      vertex 191.774 3.97154 -10.05
    endloop
  endfacet
  facet normal 0.819101 0.57365 0
    outer loop
      vertex 191.774 3.97154 0
      vertex 191.614 4.2 -1.7
      vertex 191.614 4.2 0
    endloop
  endfacet
  facet normal 0.819101 0.57365 0
    outer loop
      vertex 191.614 4.2 -1.7
      vertex 191.774 3.97154 0
      vertex 191.774 3.97154 -1.7
    endloop
  endfacet
  facet normal -0.25916 0.965835 0
    outer loop
      vertex 193.547 3.49649 -10.05
      vertex 193.278 3.42431 -4.05
      vertex 193.547 3.49649 -4.05
    endloop
  endfacet
  facet normal -0.25916 0.965835 0
    outer loop
      vertex 193.278 3.42431 -4.05
      vertex 193.547 3.49649 -10.05
      vertex 193.278 3.42431 -10.05
    endloop
  endfacet
  facet normal -0.25916 0.965835 0
    outer loop
      vertex 193.547 3.49649 -1.7
      vertex 193.278 3.42431 0
      vertex 193.547 3.49649 0
    endloop
  endfacet
  facet normal -0.25916 0.965835 0
    outer loop
      vertex 193.278 3.42431 0
      vertex 193.547 3.49649 -1.7
      vertex 193.278 3.42431 -1.7
    endloop
  endfacet
  facet normal -0.705692 -0.708519 0
    outer loop
      vertex 194.028 6.22567 -10.05
      vertex 194.226 6.02846 -4.05
      vertex 194.028 6.22567 -4.05
    endloop
  endfacet
  facet normal -0.705692 -0.708519 -0
    outer loop
      vertex 194.226 6.02846 -4.05
      vertex 194.028 6.22567 -10.05
      vertex 194.226 6.02846 -10.05
    endloop
  endfacet
  facet normal -0.705692 -0.708519 0
    outer loop
      vertex 194.028 6.22567 -1.7
      vertex 194.226 6.02846 0
      vertex 194.028 6.22567 0
    endloop
  endfacet
  facet normal -0.705692 -0.708519 -0
    outer loop
      vertex 194.226 6.02846 0
      vertex 194.028 6.22567 -1.7
      vertex 194.226 6.02846 -1.7
    endloop
  endfacet
  facet normal -0.96609 0.258207 0
    outer loop
      vertex 194.504 4.45277 -10.05
      vertex 194.576 4.72216 -4.05
      vertex 194.576 4.72216 -10.05
    endloop
  endfacet
  facet normal -0.96609 0.258207 0
    outer loop
      vertex 194.576 4.72216 -4.05
      vertex 194.504 4.45277 -10.05
      vertex 194.504 4.45277 -4.05
    endloop
  endfacet
  facet normal -0.96609 0.258207 0
    outer loop
      vertex 194.504 4.45277 -1.7
      vertex 194.576 4.72216 0
      vertex 194.576 4.72216 -1.7
    endloop
  endfacet
  facet normal -0.96609 0.258207 0
    outer loop
      vertex 194.576 4.72216 0
      vertex 194.504 4.45277 -1.7
      vertex 194.504 4.45277 0
    endloop
  endfacet
  facet normal 0.705692 0.708519 -0
    outer loop
      vertex 191.972 3.77433 -10.05
      vertex 191.774 3.97154 -4.05
      vertex 191.972 3.77433 -4.05
    endloop
  endfacet
  facet normal 0.705692 0.708519 0
    outer loop
      vertex 191.774 3.97154 -4.05
      vertex 191.972 3.77433 -10.05
      vertex 191.774 3.97154 -10.05
    endloop
  endfacet
  facet normal 0.705692 0.708519 -0
    outer loop
      vertex 191.972 3.77433 -1.7
      vertex 191.774 3.97154 0
      vertex 191.972 3.77433 0
    endloop
  endfacet
  facet normal 0.705692 0.708519 0
    outer loop
      vertex 191.774 3.97154 0
      vertex 191.972 3.77433 -1.7
      vertex 191.774 3.97154 -1.7
    endloop
  endfacet
  facet normal 0.906127 -0.423005 0
    outer loop
      vertex 191.496 5.54723 -4.05
      vertex 191.614 5.8 -10.05
      vertex 191.614 5.8 -4.05
    endloop
  endfacet
  facet normal 0.906127 -0.423005 0
    outer loop
      vertex 191.614 5.8 -10.05
      vertex 191.496 5.54723 -4.05
      vertex 191.496 5.54723 -10.05
    endloop
  endfacet
  facet normal 0.906127 -0.423005 0
    outer loop
      vertex 191.496 5.54723 0
      vertex 191.614 5.8 -1.7
      vertex 191.614 5.8 0
    endloop
  endfacet
  facet normal 0.906127 -0.423005 0
    outer loop
      vertex 191.614 5.8 -1.7
      vertex 191.496 5.54723 0
      vertex 191.496 5.54723 -1.7
    endloop
  endfacet
  facet normal 0.574354 0.818607 -0
    outer loop
      vertex 192.2 3.61436 -10.05
      vertex 191.972 3.77433 -4.05
      vertex 192.2 3.61436 -4.05
    endloop
  endfacet
  facet normal 0.574354 0.818607 0
    outer loop
      vertex 191.972 3.77433 -4.05
      vertex 192.2 3.61436 -10.05
      vertex 191.972 3.77433 -10.05
    endloop
  endfacet
  facet normal 0.574354 0.818607 -0
    outer loop
      vertex 192.2 3.61436 -1.7
      vertex 191.972 3.77433 0
      vertex 192.2 3.61436 0
    endloop
  endfacet
  facet normal 0.574354 0.818607 0
    outer loop
      vertex 191.972 3.77433 0
      vertex 192.2 3.61436 -1.7
      vertex 191.972 3.77433 -1.7
    endloop
  endfacet
  facet normal -0.0871136 0.996198 0
    outer loop
      vertex 193.278 3.42431 -10.05
      vertex 193 3.4 -4.05
      vertex 193.278 3.42431 -4.05
    endloop
  endfacet
  facet normal -0.0871136 0.996198 0
    outer loop
      vertex 193 3.4 -4.05
      vertex 193.278 3.42431 -10.05
      vertex 193 3.4 -10.05
    endloop
  endfacet
  facet normal -0.0871136 0.996198 0
    outer loop
      vertex 193.278 3.42431 -1.7
      vertex 193 3.4 0
      vertex 193.278 3.42431 0
    endloop
  endfacet
  facet normal -0.0871136 0.996198 0
    outer loop
      vertex 193 3.4 0
      vertex 193.278 3.42431 -1.7
      vertex 193 3.4 -1.7
    endloop
  endfacet
  facet normal -0.0871136 -0.996198 0
    outer loop
      vertex 193 6.6 -10.05
      vertex 193.278 6.57569 -4.05
      vertex 193 6.6 -4.05
    endloop
  endfacet
  facet normal -0.0871136 -0.996198 -0
    outer loop
      vertex 193.278 6.57569 -4.05
      vertex 193 6.6 -10.05
      vertex 193.278 6.57569 -10.05
    endloop
  endfacet
  facet normal -0.0871136 -0.996198 0
    outer loop
      vertex 193 6.6 -1.7
      vertex 193.278 6.57569 0
      vertex 193 6.6 0
    endloop
  endfacet
  facet normal -0.0871136 -0.996198 -0
    outer loop
      vertex 193.278 6.57569 0
      vertex 193 6.6 -1.7
      vertex 193.278 6.57569 -1.7
    endloop
  endfacet
  facet normal 0.99629 -0.0860602 0
    outer loop
      vertex 191.4 5 -4.05
      vertex 191.424 5.27784 -10.05
      vertex 191.424 5.27784 -4.05
    endloop
  endfacet
  facet normal 0.99629 -0.0860602 0
    outer loop
      vertex 191.424 5.27784 -10.05
      vertex 191.4 5 -4.05
      vertex 191.4 5 -10.05
    endloop
  endfacet
  facet normal 0.99629 -0.0860602 0
    outer loop
      vertex 191.4 5 0
      vertex 191.424 5.27784 -1.7
      vertex 191.424 5.27784 0
    endloop
  endfacet
  facet normal 0.99629 -0.0860602 0
    outer loop
      vertex 191.424 5.27784 -1.7
      vertex 191.4 5 0
      vertex 191.4 5 -1.7
    endloop
  endfacet
  facet normal 0.0871136 0.996198 -0
    outer loop
      vertex 193 3.4 -10.05
      vertex 192.722 3.42431 -4.05
      vertex 193 3.4 -4.05
    endloop
  endfacet
  facet normal 0.0871136 0.996198 0
    outer loop
      vertex 192.722 3.42431 -4.05
      vertex 193 3.4 -10.05
      vertex 192.722 3.42431 -10.05
    endloop
  endfacet
  facet normal 0.0871136 0.996198 -0
    outer loop
      vertex 193 3.4 -1.7
      vertex 192.722 3.42431 0
      vertex 193 3.4 0
    endloop
  endfacet
  facet normal 0.0871136 0.996198 0
    outer loop
      vertex 192.722 3.42431 0
      vertex 193 3.4 -1.7
      vertex 192.722 3.42431 -1.7
    endloop
  endfacet
  facet normal 0.25916 0.965835 -0
    outer loop
      vertex 192.722 3.42431 -10.05
      vertex 192.453 3.49649 -4.05
      vertex 192.722 3.42431 -4.05
    endloop
  endfacet
  facet normal 0.25916 0.965835 0
    outer loop
      vertex 192.453 3.49649 -4.05
      vertex 192.722 3.42431 -10.05
      vertex 192.453 3.49649 -10.05
    endloop
  endfacet
  facet normal 0.25916 0.965835 -0
    outer loop
      vertex 192.722 3.42431 -1.7
      vertex 192.453 3.49649 0
      vertex 192.722 3.42431 0
    endloop
  endfacet
  facet normal 0.25916 0.965835 0
    outer loop
      vertex 192.453 3.49649 0
      vertex 192.722 3.42431 -1.7
      vertex 192.453 3.49649 -1.7
    endloop
  endfacet
  facet normal 0.422307 0.906453 -0
    outer loop
      vertex 192.453 3.49649 -10.05
      vertex 192.2 3.61436 -4.05
      vertex 192.453 3.49649 -4.05
    endloop
  endfacet
  facet normal 0.422307 0.906453 0
    outer loop
      vertex 192.2 3.61436 -4.05
      vertex 192.453 3.49649 -10.05
      vertex 192.2 3.61436 -10.05
    endloop
  endfacet
  facet normal 0.422307 0.906453 -0
    outer loop
      vertex 192.453 3.49649 -1.7
      vertex 192.2 3.61436 0
      vertex 192.453 3.49649 0
    endloop
  endfacet
  facet normal 0.422307 0.906453 0
    outer loop
      vertex 192.2 3.61436 0
      vertex 192.453 3.49649 -1.7
      vertex 192.2 3.61436 -1.7
    endloop
  endfacet
endsolid OpenSCAD_Model
