solid OpenSCAD_Model
  facet normal 0.172362 -0.985034 0
    outer loop
      vertex 0 -4 -1.5
      vertex 0.347296 -3.93923 1.5
      vertex 0 -4 1.5
    endloop
  endfacet
  facet normal 0.172362 -0.985034 0
    outer loop
      vertex 0.347296 -3.93923 1.5
      vertex 0 -4 -1.5
      vertex 0.347296 -3.93923 -1.5
    endloop
  endfacet
  facet normal 0.991143 0.132802 0
    outer loop
      vertex 1.96962 0.694592 1.5
      vertex 1.87938 1.36808 -1.5
      vertex 1.87938 1.36808 1.5
    endloop
  endfacet
  facet normal 0.991143 0.132802 0
    outer loop
      vertex 1.87938 1.36808 -1.5
      vertex 1.96962 0.694592 1.5
      vertex 1.96962 0.694592 -1.5
    endloop
  endfacet
  facet normal 0.999045 0.0436961 0
    outer loop
      vertex 2 0 1.5
      vertex 1.96962 0.694592 -1.5
      vertex 1.96962 0.694592 1.5
    endloop
  endfacet
  facet normal 0.999045 0.0436961 0
    outer loop
      vertex 1.96962 0.694592 -1.5
      vertex 2 0 1.5
      vertex 2 0 -1.5
    endloop
  endfacet
  facet normal 0.973881 0.227057 0
    outer loop
      vertex 1.87938 1.36808 1.5
      vertex 1.73205 2 -1.5
      vertex 1.73205 2 1.5
    endloop
  endfacet
  facet normal 0.973881 0.227057 0
    outer loop
      vertex 1.73205 2 -1.5
      vertex 1.87938 1.36808 1.5
      vertex 1.87938 1.36808 -1.5
    endloop
  endfacet
  facet normal 0.682039 0.731316 -0
    outer loop
      vertex 1 3.4641 -1.5
      vertex 0.68404 3.75877 1.5
      vertex 1 3.4641 1.5
    endloop
  endfacet
  facet normal 0.682039 0.731316 0
    outer loop
      vertex 0.68404 3.75877 1.5
      vertex 1 3.4641 -1.5
      vertex 0.68404 3.75877 -1.5
    endloop
  endfacet
  facet normal -0 0 1
    outer loop
      vertex 1.47721 0.520944 1.5
      vertex 2 0 1.5
      vertex 1.96962 0.694592 1.5
    endloop
  endfacet
  facet normal -0 0 1
    outer loop
      vertex 1.40954 1.02606 1.5
      vertex 1.96962 0.694592 1.5
      vertex 1.87938 1.36808 1.5
    endloop
  endfacet
  facet normal 0 0 1
    outer loop
      vertex 2 0 1.5
      vertex 1.47721 0.520944 1.5
      vertex 1.5 0 1.5
    endloop
  endfacet
  facet normal -0 0 1
    outer loop
      vertex 1.29904 1.5 1.5
      vertex 1.87938 1.36808 1.5
      vertex 1.73205 2 1.5
    endloop
  endfacet
  facet normal 0 0 1
    outer loop
      vertex 1.47721 -0.520944 1.5
      vertex 2 0 1.5
      vertex 1.5 0 1.5
    endloop
  endfacet
  facet normal 0 0 1
    outer loop
      vertex 1.14907 1.92836 1.5
      vertex 1.73205 2 1.5
      vertex 1.53209 2.57115 1.5
    endloop
  endfacet
  facet normal 0 0 1
    outer loop
      vertex 1.40954 -1.02606 1.5
      vertex 1.96962 -0.694592 1.5
      vertex 1.47721 -0.520944 1.5
    endloop
  endfacet
  facet normal 0 0 1
    outer loop
      vertex 1.96962 -0.694592 1.5
      vertex 1.40954 -1.02606 1.5
      vertex 1.87938 -1.36808 1.5
    endloop
  endfacet
  facet normal 0 0 1
    outer loop
      vertex 2 0 1.5
      vertex 1.47721 -0.520944 1.5
      vertex 1.96962 -0.694592 1.5
    endloop
  endfacet
  facet normal 0 0 1
    outer loop
      vertex 1.96962 0.694592 1.5
      vertex 1.40954 1.02606 1.5
      vertex 1.47721 0.520944 1.5
    endloop
  endfacet
  facet normal 0 0 1
    outer loop
      vertex 1.87938 1.36808 1.5
      vertex 1.29904 1.5 1.5
      vertex 1.40954 1.02606 1.5
    endloop
  endfacet
  facet normal -0 0 1
    outer loop
      vertex 0.75 2.59808 1.5
      vertex 1.53209 2.57115 1.5
      vertex 1.28557 3.06418 1.5
    endloop
  endfacet
  facet normal 0 0 1
    outer loop
      vertex 1.73205 2 1.5
      vertex 1.14907 1.92836 1.5
      vertex 1.29904 1.5 1.5
    endloop
  endfacet
  facet normal 0 0 1
    outer loop
      vertex 0.51303 2.81908 1.5
      vertex 1.28557 3.06418 1.5
      vertex 1 3.4641 1.5
    endloop
  endfacet
  facet normal 0 0 1
    outer loop
      vertex 1.53209 2.57115 1.5
      vertex 0.964181 2.29813 1.5
      vertex 1.14907 1.92836 1.5
    endloop
  endfacet
  facet normal 0 0 1
    outer loop
      vertex 1.53209 2.57115 1.5
      vertex 0.75 2.59808 1.5
      vertex 0.964181 2.29813 1.5
    endloop
  endfacet
  facet normal 0 0 1
    outer loop
      vertex 0.260472 2.95442 1.5
      vertex 1 3.4641 1.5
      vertex 0.68404 3.75877 1.5
    endloop
  endfacet
  facet normal 0 0 1
    outer loop
      vertex 1.28557 3.06418 1.5
      vertex 0.51303 2.81908 1.5
      vertex 0.75 2.59808 1.5
    endloop
  endfacet
  facet normal 0 0 1
    outer loop
      vertex 0.260472 2.95442 1.5
      vertex 0.68404 3.75877 1.5
      vertex 0.347296 3.93923 1.5
    endloop
  endfacet
  facet normal 0 0 1
    outer loop
      vertex 1 3.4641 1.5
      vertex 0.260472 2.95442 1.5
      vertex 0.51303 2.81908 1.5
    endloop
  endfacet
  facet normal 0 0 1
    outer loop
      vertex 0 3 1.5
      vertex 0.347296 3.93923 1.5
      vertex 0 4 1.5
    endloop
  endfacet
  facet normal 0 0 1
    outer loop
      vertex 0.347296 3.93923 1.5
      vertex 0 3 1.5
      vertex 0.260472 2.95442 1.5
    endloop
  endfacet
  facet normal 0 0 1
    outer loop
      vertex 1.29904 -1.5 1.5
      vertex 1.87938 -1.36808 1.5
      vertex 1.40954 -1.02606 1.5
    endloop
  endfacet
  facet normal 0 0 1
    outer loop
      vertex 1.87938 -1.36808 1.5
      vertex 1.29904 -1.5 1.5
      vertex 1.73205 -2 1.5
    endloop
  endfacet
  facet normal -0 0 1
    outer loop
      vertex 1.14907 -1.92836 1.5
      vertex 1.73205 -2 1.5
      vertex 1.29904 -1.5 1.5
    endloop
  endfacet
  facet normal 0 0 1
    outer loop
      vertex 1.73205 -2 1.5
      vertex 1.14907 -1.92836 1.5
      vertex 1.53209 -2.57115 1.5
    endloop
  endfacet
  facet normal -0 0 1
    outer loop
      vertex 0.964181 -2.29813 1.5
      vertex 1.53209 -2.57115 1.5
      vertex 1.14907 -1.92836 1.5
    endloop
  endfacet
  facet normal 0 0 1
    outer loop
      vertex 0.75 -2.59808 1.5
      vertex 1.53209 -2.57115 1.5
      vertex 0.964181 -2.29813 1.5
    endloop
  endfacet
  facet normal 0 0 1
    outer loop
      vertex 1.53209 -2.57115 1.5
      vertex 0.75 -2.59808 1.5
      vertex 1.28557 -3.06418 1.5
    endloop
  endfacet
  facet normal -0 0 1
    outer loop
      vertex 0.51303 -2.81908 1.5
      vertex 1.28557 -3.06418 1.5
      vertex 0.75 -2.59808 1.5
    endloop
  endfacet
  facet normal 0 0 1
    outer loop
      vertex 1.28557 -3.06418 1.5
      vertex 0.51303 -2.81908 1.5
      vertex 1 -3.4641 1.5
    endloop
  endfacet
  facet normal -0 0 1
    outer loop
      vertex 0.260472 -2.95442 1.5
      vertex 1 -3.4641 1.5
      vertex 0.51303 -2.81908 1.5
    endloop
  endfacet
  facet normal 0 0 1
    outer loop
      vertex 1 -3.4641 1.5
      vertex 0.260472 -2.95442 1.5
      vertex 0.68404 -3.75877 1.5
    endloop
  endfacet
  facet normal 0 0 1
    outer loop
      vertex 0.68404 -3.75877 1.5
      vertex 0.260472 -2.95442 1.5
      vertex 0.347296 -3.93923 1.5
    endloop
  endfacet
  facet normal -0 0 1
    outer loop
      vertex 0 -3 1.5
      vertex 0.347296 -3.93923 1.5
      vertex 0.260472 -2.95442 1.5
    endloop
  endfacet
  facet normal 0 0 1
    outer loop
      vertex 0.347296 -3.93923 1.5
      vertex 0 -3 1.5
      vertex 0 -4 1.5
    endloop
  endfacet
  facet normal 0.943829 0.330435 0
    outer loop
      vertex 1.73205 2 1.5
      vertex 1.53209 2.57115 -1.5
      vertex 1.53209 2.57115 1.5
    endloop
  endfacet
  facet normal 0.943829 0.330435 0
    outer loop
      vertex 1.53209 2.57115 -1.5
      vertex 1.73205 2 1.5
      vertex 1.73205 2 -1.5
    endloop
  endfacet
  facet normal 0.894424 -0.447221 0
    outer loop
      vertex 1.28557 -3.06418 1.5
      vertex 1.53209 -2.57115 -1.5
      vertex 1.53209 -2.57115 1.5
    endloop
  endfacet
  facet normal 0.894424 -0.447221 0
    outer loop
      vertex 1.53209 -2.57115 -1.5
      vertex 1.28557 -3.06418 1.5
      vertex 1.28557 -3.06418 -1.5
    endloop
  endfacet
  facet normal 0.172362 0.985034 -0
    outer loop
      vertex 0.347296 3.93923 -1.5
      vertex 0 4 1.5
      vertex 0.347296 3.93923 1.5
    endloop
  endfacet
  facet normal 0.172362 0.985034 0
    outer loop
      vertex 0 4 1.5
      vertex 0.347296 3.93923 -1.5
      vertex 0 4 -1.5
    endloop
  endfacet
  facet normal 0.813817 -0.581121 0
    outer loop
      vertex 1 -3.4641 1.5
      vertex 1.28557 -3.06418 -1.5
      vertex 1.28557 -3.06418 1.5
    endloop
  endfacet
  facet normal 0.813817 -0.581121 0
    outer loop
      vertex 1.28557 -3.06418 -1.5
      vertex 1 -3.4641 1.5
      vertex 1 -3.4641 -1.5
    endloop
  endfacet
  facet normal 0.999045 -0.0436961 0
    outer loop
      vertex 1.96962 -0.694592 1.5
      vertex 2 0 -1.5
      vertex 2 0 1.5
    endloop
  endfacet
  facet normal 0.999045 -0.0436961 0
    outer loop
      vertex 2 0 -1.5
      vertex 1.96962 -0.694592 1.5
      vertex 1.96962 -0.694592 -1.5
    endloop
  endfacet
  facet normal 0.973881 -0.227057 0
    outer loop
      vertex 1.73205 -2 1.5
      vertex 1.87938 -1.36808 -1.5
      vertex 1.87938 -1.36808 1.5
    endloop
  endfacet
  facet normal 0.973881 -0.227057 0
    outer loop
      vertex 1.87938 -1.36808 -1.5
      vertex 1.73205 -2 1.5
      vertex 1.73205 -2 -1.5
    endloop
  endfacet
  facet normal 0.472346 -0.881413 0
    outer loop
      vertex 0.347296 -3.93923 -1.5
      vertex 0.68404 -3.75877 1.5
      vertex 0.347296 -3.93923 1.5
    endloop
  endfacet
  facet normal 0.472346 -0.881413 0
    outer loop
      vertex 0.68404 -3.75877 1.5
      vertex 0.347296 -3.93923 -1.5
      vertex 0.68404 -3.75877 -1.5
    endloop
  endfacet
  facet normal 0.943829 -0.330435 0
    outer loop
      vertex 1.53209 -2.57115 1.5
      vertex 1.73205 -2 -1.5
      vertex 1.73205 -2 1.5
    endloop
  endfacet
  facet normal 0.943829 -0.330435 0
    outer loop
      vertex 1.73205 -2 -1.5
      vertex 1.53209 -2.57115 1.5
      vertex 1.53209 -2.57115 -1.5
    endloop
  endfacet
  facet normal 0.894424 0.447221 0
    outer loop
      vertex 1.53209 2.57115 1.5
      vertex 1.28557 3.06418 -1.5
      vertex 1.28557 3.06418 1.5
    endloop
  endfacet
  facet normal 0.894424 0.447221 0
    outer loop
      vertex 1.28557 3.06418 -1.5
      vertex 1.53209 2.57115 1.5
      vertex 1.53209 2.57115 -1.5
    endloop
  endfacet
  facet normal 0.991143 -0.132802 0
    outer loop
      vertex 1.87938 -1.36808 1.5
      vertex 1.96962 -0.694592 -1.5
      vertex 1.96962 -0.694592 1.5
    endloop
  endfacet
  facet normal 0.991143 -0.132802 0
    outer loop
      vertex 1.96962 -0.694592 -1.5
      vertex 1.87938 -1.36808 1.5
      vertex 1.87938 -1.36808 -1.5
    endloop
  endfacet
  facet normal 0.813817 0.581121 0
    outer loop
      vertex 1.28557 3.06418 1.5
      vertex 1 3.4641 -1.5
      vertex 1 3.4641 1.5
    endloop
  endfacet
  facet normal 0.813817 0.581121 0
    outer loop
      vertex 1 3.4641 -1.5
      vertex 1.28557 3.06418 1.5
      vertex 1.28557 3.06418 -1.5
    endloop
  endfacet
  facet normal 0.472346 0.881413 -0
    outer loop
      vertex 0.68404 3.75877 -1.5
      vertex 0.347296 3.93923 1.5
      vertex 0.68404 3.75877 1.5
    endloop
  endfacet
  facet normal 0.472346 0.881413 0
    outer loop
      vertex 0.347296 3.93923 1.5
      vertex 0.68404 3.75877 -1.5
      vertex 0.347296 3.93923 -1.5
    endloop
  endfacet
  facet normal 0.682039 -0.731316 0
    outer loop
      vertex 0.68404 -3.75877 -1.5
      vertex 1 -3.4641 1.5
      vertex 0.68404 -3.75877 1.5
    endloop
  endfacet
  facet normal 0.682039 -0.731316 0
    outer loop
      vertex 1 -3.4641 1.5
      vertex 0.68404 -3.75877 -1.5
      vertex 1 -3.4641 -1.5
    endloop
  endfacet
  facet normal 0 0 -1
    outer loop
      vertex 1.47721 -0.520944 -1.5
      vertex 2 0 -1.5
      vertex 1.96962 -0.694592 -1.5
    endloop
  endfacet
  facet normal 0 0 -1
    outer loop
      vertex 1.40954 -1.02606 -1.5
      vertex 1.96962 -0.694592 -1.5
      vertex 1.87938 -1.36808 -1.5
    endloop
  endfacet
  facet normal -0 0 -1
    outer loop
      vertex 2 0 -1.5
      vertex 1.47721 -0.520944 -1.5
      vertex 1.5 0 -1.5
    endloop
  endfacet
  facet normal 0 0 -1
    outer loop
      vertex 1.29904 -1.5 -1.5
      vertex 1.87938 -1.36808 -1.5
      vertex 1.73205 -2 -1.5
    endloop
  endfacet
  facet normal 0 0 -1
    outer loop
      vertex 1.47721 0.520944 -1.5
      vertex 2 0 -1.5
      vertex 1.5 0 -1.5
    endloop
  endfacet
  facet normal 0 0 -1
    outer loop
      vertex 1.14907 -1.92836 -1.5
      vertex 1.73205 -2 -1.5
      vertex 1.53209 -2.57115 -1.5
    endloop
  endfacet
  facet normal 0 0 -1
    outer loop
      vertex 1.40954 1.02606 -1.5
      vertex 1.96962 0.694592 -1.5
      vertex 1.47721 0.520944 -1.5
    endloop
  endfacet
  facet normal 0 0 -1
    outer loop
      vertex 1.96962 0.694592 -1.5
      vertex 1.40954 1.02606 -1.5
      vertex 1.87938 1.36808 -1.5
    endloop
  endfacet
  facet normal 0 0 -1
    outer loop
      vertex 2 0 -1.5
      vertex 1.47721 0.520944 -1.5
      vertex 1.96962 0.694592 -1.5
    endloop
  endfacet
  facet normal -0 0 -1
    outer loop
      vertex 1.96962 -0.694592 -1.5
      vertex 1.40954 -1.02606 -1.5
      vertex 1.47721 -0.520944 -1.5
    endloop
  endfacet
  facet normal -0 0 -1
    outer loop
      vertex 1.87938 -1.36808 -1.5
      vertex 1.29904 -1.5 -1.5
      vertex 1.40954 -1.02606 -1.5
    endloop
  endfacet
  facet normal 0 0 -1
    outer loop
      vertex 0.75 -2.59808 -1.5
      vertex 1.53209 -2.57115 -1.5
      vertex 1.28557 -3.06418 -1.5
    endloop
  endfacet
  facet normal 0 0 -1
    outer loop
      vertex 1.73205 -2 -1.5
      vertex 1.14907 -1.92836 -1.5
      vertex 1.29904 -1.5 -1.5
    endloop
  endfacet
  facet normal 0 0 -1
    outer loop
      vertex 0.51303 -2.81908 -1.5
      vertex 1.28557 -3.06418 -1.5
      vertex 1 -3.4641 -1.5
    endloop
  endfacet
  facet normal 0 0 -1
    outer loop
      vertex 1.53209 -2.57115 -1.5
      vertex 0.964181 -2.29813 -1.5
      vertex 1.14907 -1.92836 -1.5
    endloop
  endfacet
  facet normal -0 0 -1
    outer loop
      vertex 1.53209 -2.57115 -1.5
      vertex 0.75 -2.59808 -1.5
      vertex 0.964181 -2.29813 -1.5
    endloop
  endfacet
  facet normal 0 0 -1
    outer loop
      vertex 0.260472 -2.95442 -1.5
      vertex 1 -3.4641 -1.5
      vertex 0.68404 -3.75877 -1.5
    endloop
  endfacet
  facet normal 0 0 -1
    outer loop
      vertex 1.28557 -3.06418 -1.5
      vertex 0.51303 -2.81908 -1.5
      vertex 0.75 -2.59808 -1.5
    endloop
  endfacet
  facet normal 0 0 -1
    outer loop
      vertex 0.260472 -2.95442 -1.5
      vertex 0.68404 -3.75877 -1.5
      vertex 0.347296 -3.93923 -1.5
    endloop
  endfacet
  facet normal 0 0 -1
    outer loop
      vertex 1 -3.4641 -1.5
      vertex 0.260472 -2.95442 -1.5
      vertex 0.51303 -2.81908 -1.5
    endloop
  endfacet
  facet normal 0 0 -1
    outer loop
      vertex 0 -3 -1.5
      vertex 0.347296 -3.93923 -1.5
      vertex 0 -4 -1.5
    endloop
  endfacet
  facet normal 0 0 -1
    outer loop
      vertex 0.347296 -3.93923 -1.5
      vertex 0 -3 -1.5
      vertex 0.260472 -2.95442 -1.5
    endloop
  endfacet
  facet normal 0 0 -1
    outer loop
      vertex 1.29904 1.5 -1.5
      vertex 1.87938 1.36808 -1.5
      vertex 1.40954 1.02606 -1.5
    endloop
  endfacet
  facet normal 0 0 -1
    outer loop
      vertex 1.87938 1.36808 -1.5
      vertex 1.29904 1.5 -1.5
      vertex 1.73205 2 -1.5
    endloop
  endfacet
  facet normal 0 0 -1
    outer loop
      vertex 1.14907 1.92836 -1.5
      vertex 1.73205 2 -1.5
      vertex 1.29904 1.5 -1.5
    endloop
  endfacet
  facet normal -0 0 -1
    outer loop
      vertex 1.73205 2 -1.5
      vertex 1.14907 1.92836 -1.5
      vertex 1.53209 2.57115 -1.5
    endloop
  endfacet
  facet normal 0 0 -1
    outer loop
      vertex 0.964181 2.29813 -1.5
      vertex 1.53209 2.57115 -1.5
      vertex 1.14907 1.92836 -1.5
    endloop
  endfacet
  facet normal 0 0 -1
    outer loop
      vertex 0.75 2.59808 -1.5
      vertex 1.53209 2.57115 -1.5
      vertex 0.964181 2.29813 -1.5
    endloop
  endfacet
  facet normal 0 0 -1
    outer loop
      vertex 1.53209 2.57115 -1.5
      vertex 0.75 2.59808 -1.5
      vertex 1.28557 3.06418 -1.5
    endloop
  endfacet
  facet normal 0 0 -1
    outer loop
      vertex 0.51303 2.81908 -1.5
      vertex 1.28557 3.06418 -1.5
      vertex 0.75 2.59808 -1.5
    endloop
  endfacet
  facet normal -0 0 -1
    outer loop
      vertex 1.28557 3.06418 -1.5
      vertex 0.51303 2.81908 -1.5
      vertex 1 3.4641 -1.5
    endloop
  endfacet
  facet normal 0 0 -1
    outer loop
      vertex 0.260472 2.95442 -1.5
      vertex 1 3.4641 -1.5
      vertex 0.51303 2.81908 -1.5
    endloop
  endfacet
  facet normal -0 0 -1
    outer loop
      vertex 1 3.4641 -1.5
      vertex 0.260472 2.95442 -1.5
      vertex 0.68404 3.75877 -1.5
    endloop
  endfacet
  facet normal -0 0 -1
    outer loop
      vertex 0.68404 3.75877 -1.5
      vertex 0.260472 2.95442 -1.5
      vertex 0.347296 3.93923 -1.5
    endloop
  endfacet
  facet normal 0 0 -1
    outer loop
      vertex 0 3 -1.5
      vertex 0.347296 3.93923 -1.5
      vertex 0.260472 2.95442 -1.5
    endloop
  endfacet
  facet normal -0 0 -1
    outer loop
      vertex 0.347296 3.93923 -1.5
      vertex 0 3 -1.5
      vertex 0 4 -1.5
    endloop
  endfacet
  facet normal -0.991145 0.132783 0
    outer loop
      vertex 1.40954 -1.02606 -1.5
      vertex 1.47721 -0.520944 1.5
      vertex 1.47721 -0.520944 -1.5
    endloop
  endfacet
  facet normal -0.991145 0.132783 0
    outer loop
      vertex 1.47721 -0.520944 1.5
      vertex 1.40954 -1.02606 -1.5
      vertex 1.40954 -1.02606 1.5
    endloop
  endfacet
  facet normal -0.991145 -0.132783 0
    outer loop
      vertex 1.47721 0.520944 -1.5
      vertex 1.40954 1.02606 1.5
      vertex 1.40954 1.02606 -1.5
    endloop
  endfacet
  facet normal -0.991145 -0.132783 0
    outer loop
      vertex 1.40954 1.02606 1.5
      vertex 1.47721 0.520944 -1.5
      vertex 1.47721 0.520944 1.5
    endloop
  endfacet
  facet normal -0.999044 -0.0437057 0
    outer loop
      vertex 1.5 0 -1.5
      vertex 1.47721 0.520944 1.5
      vertex 1.47721 0.520944 -1.5
    endloop
  endfacet
  facet normal -0.999044 -0.0437057 0
    outer loop
      vertex 1.47721 0.520944 1.5
      vertex 1.5 0 -1.5
      vertex 1.5 0 1.5
    endloop
  endfacet
  facet normal -0.97388 -0.227062 0
    outer loop
      vertex 1.40954 1.02606 -1.5
      vertex 1.29904 1.5 1.5
      vertex 1.29904 1.5 -1.5
    endloop
  endfacet
  facet normal -0.97388 -0.227062 0
    outer loop
      vertex 1.29904 1.5 1.5
      vertex 1.40954 1.02606 -1.5
      vertex 1.40954 1.02606 1.5
    endloop
  endfacet
  facet normal -0.172371 0.985032 0
    outer loop
      vertex 0.260472 -2.95442 -1.5
      vertex 0 -3 1.5
      vertex 0.260472 -2.95442 1.5
    endloop
  endfacet
  facet normal -0.172371 0.985032 0
    outer loop
      vertex 0 -3 1.5
      vertex 0.260472 -2.95442 -1.5
      vertex 0 -3 -1.5
    endloop
  endfacet
  facet normal -0.97388 0.227062 0
    outer loop
      vertex 1.29904 -1.5 -1.5
      vertex 1.40954 -1.02606 1.5
      vertex 1.40954 -1.02606 -1.5
    endloop
  endfacet
  facet normal -0.97388 0.227062 0
    outer loop
      vertex 1.40954 -1.02606 1.5
      vertex 1.29904 -1.5 -1.5
      vertex 1.29904 -1.5 1.5
    endloop
  endfacet
  facet normal -0.894423 -0.447221 0
    outer loop
      vertex 1.14907 1.92836 -1.5
      vertex 0.964181 2.29813 1.5
      vertex 0.964181 2.29813 -1.5
    endloop
  endfacet
  facet normal -0.894423 -0.447221 0
    outer loop
      vertex 0.964181 2.29813 1.5
      vertex 1.14907 1.92836 -1.5
      vertex 1.14907 1.92836 1.5
    endloop
  endfacet
  facet normal -0.894423 0.447221 0
    outer loop
      vertex 0.964181 -2.29813 -1.5
      vertex 1.14907 -1.92836 1.5
      vertex 1.14907 -1.92836 -1.5
    endloop
  endfacet
  facet normal -0.894423 0.447221 0
    outer loop
      vertex 1.14907 -1.92836 1.5
      vertex 0.964181 -2.29813 -1.5
      vertex 0.964181 -2.29813 1.5
    endloop
  endfacet
  facet normal -0.472333 -0.88142 0
    outer loop
      vertex 0.260472 2.95442 -1.5
      vertex 0.51303 2.81908 1.5
      vertex 0.260472 2.95442 1.5
    endloop
  endfacet
  facet normal -0.472333 -0.88142 -0
    outer loop
      vertex 0.51303 2.81908 1.5
      vertex 0.260472 2.95442 -1.5
      vertex 0.51303 2.81908 -1.5
    endloop
  endfacet
  facet normal -0.943828 0.330437 0
    outer loop
      vertex 1.14907 -1.92836 -1.5
      vertex 1.29904 -1.5 1.5
      vertex 1.29904 -1.5 -1.5
    endloop
  endfacet
  facet normal -0.943828 0.330437 0
    outer loop
      vertex 1.29904 -1.5 1.5
      vertex 1.14907 -1.92836 -1.5
      vertex 1.14907 -1.92836 1.5
    endloop
  endfacet
  facet normal -0.682035 0.73132 0
    outer loop
      vertex 0.75 -2.59808 -1.5
      vertex 0.51303 -2.81908 1.5
      vertex 0.75 -2.59808 1.5
    endloop
  endfacet
  facet normal -0.682035 0.73132 0
    outer loop
      vertex 0.51303 -2.81908 1.5
      vertex 0.75 -2.59808 -1.5
      vertex 0.51303 -2.81908 -1.5
    endloop
  endfacet
  facet normal -0.943828 -0.330437 0
    outer loop
      vertex 1.29904 1.5 -1.5
      vertex 1.14907 1.92836 1.5
      vertex 1.14907 1.92836 -1.5
    endloop
  endfacet
  facet normal -0.943828 -0.330437 0
    outer loop
      vertex 1.14907 1.92836 1.5
      vertex 1.29904 1.5 -1.5
      vertex 1.29904 1.5 1.5
    endloop
  endfacet
  facet normal -0.682035 -0.73132 0
    outer loop
      vertex 0.51303 2.81908 -1.5
      vertex 0.75 2.59808 1.5
      vertex 0.51303 2.81908 1.5
    endloop
  endfacet
  facet normal -0.682035 -0.73132 -0
    outer loop
      vertex 0.75 2.59808 1.5
      vertex 0.51303 2.81908 -1.5
      vertex 0.75 2.59808 -1.5
    endloop
  endfacet
  facet normal -0.472333 0.88142 0
    outer loop
      vertex 0.51303 -2.81908 -1.5
      vertex 0.260472 -2.95442 1.5
      vertex 0.51303 -2.81908 1.5
    endloop
  endfacet
  facet normal -0.472333 0.88142 0
    outer loop
      vertex 0.260472 -2.95442 1.5
      vertex 0.51303 -2.81908 -1.5
      vertex 0.260472 -2.95442 -1.5
    endloop
  endfacet
  facet normal -0.813822 0.581114 0
    outer loop
      vertex 0.75 -2.59808 -1.5
      vertex 0.964181 -2.29813 1.5
      vertex 0.964181 -2.29813 -1.5
    endloop
  endfacet
  facet normal -0.813822 0.581114 0
    outer loop
      vertex 0.964181 -2.29813 1.5
      vertex 0.75 -2.59808 -1.5
      vertex 0.75 -2.59808 1.5
    endloop
  endfacet
  facet normal -0.813822 -0.581114 0
    outer loop
      vertex 0.964181 2.29813 -1.5
      vertex 0.75 2.59808 1.5
      vertex 0.75 2.59808 -1.5
    endloop
  endfacet
  facet normal -0.813822 -0.581114 0
    outer loop
      vertex 0.75 2.59808 1.5
      vertex 0.964181 2.29813 -1.5
      vertex 0.964181 2.29813 1.5
    endloop
  endfacet
  facet normal -0.172371 -0.985032 0
    outer loop
      vertex 0 3 -1.5
      vertex 0.260472 2.95442 1.5
      vertex 0 3 1.5
    endloop
  endfacet
  facet normal -0.172371 -0.985032 -0
    outer loop
      vertex 0.260472 2.95442 1.5
      vertex 0 3 -1.5
      vertex 0.260472 2.95442 -1.5
    endloop
  endfacet
  facet normal -0.999044 0.0437057 0
    outer loop
      vertex 1.47721 -0.520944 -1.5
      vertex 1.5 0 1.5
      vertex 1.5 0 -1.5
    endloop
  endfacet
  facet normal -0.999044 0.0437057 0
    outer loop
      vertex 1.5 0 1.5
      vertex 1.47721 -0.520944 -1.5
      vertex 1.47721 -0.520944 1.5
    endloop
  endfacet
  facet normal -1 0 0
    outer loop
      vertex 0 -4 -1.5
      vertex 0 -3 1.5
      vertex 0 -3 -1.5
    endloop
  endfacet
  facet normal -1 -0 0
    outer loop
      vertex 0 -3 1.5
      vertex 0 -4 -1.5
      vertex 0 -4 1.5
    endloop
  endfacet
  facet normal -1 0 0
    outer loop
      vertex 0 3 -1.5
      vertex 0 4 1.5
      vertex 0 4 -1.5
    endloop
  endfacet
  facet normal -1 -0 0
    outer loop
      vertex 0 4 1.5
      vertex 0 3 -1.5
      vertex 0 3 1.5
    endloop
  endfacet
  facet normal 1 -0 0
    outer loop
      vertex 1 -1 5
      vertex 1 1 -5
      vertex 1 1 5
    endloop
  endfacet
  facet normal 1 0 0
    outer loop
      vertex 1 1 -5
      vertex 1 -1 5
      vertex 1 -1 -5
    endloop
  endfacet
  facet normal -0 0 1
    outer loop
      vertex 0 1 5
      vertex 1 -1 5
      vertex 1 1 5
    endloop
  endfacet
  facet normal 0 0 1
    outer loop
      vertex 1 -1 5
      vertex 0 1 5
      vertex 0 -1 5
    endloop
  endfacet
  facet normal 0 0 -1
    outer loop
      vertex 0 -1 -5
      vertex 1 1 -5
      vertex 1 -1 -5
    endloop
  endfacet
  facet normal -0 0 -1
    outer loop
      vertex 1 1 -5
      vertex 0 -1 -5
      vertex 0 1 -5
    endloop
  endfacet
  facet normal -1 0 0
    outer loop
      vertex 0 -1 -5
      vertex 0 1 5
      vertex 0 1 -5
    endloop
  endfacet
  facet normal -1 -0 0
    outer loop
      vertex 0 1 5
      vertex 0 -1 -5
      vertex 0 -1 5
    endloop
  endfacet
  facet normal 0 1 -0
    outer loop
      vertex 1 1 -5
      vertex 0 1 5
      vertex 1 1 5
    endloop
  endfacet
  facet normal 0 1 0
    outer loop
      vertex 0 1 5
      vertex 1 1 -5
      vertex 0 1 -5
    endloop
  endfacet
  facet normal 0 -1 0
    outer loop
      vertex 0 -1 -5
      vertex 1 -1 5
      vertex 0 -1 5
    endloop
  endfacet
  facet normal 0 -1 -0
    outer loop
      vertex 1 -1 5
      vertex 0 -1 -5
      vertex 1 -1 -5
    endloop
  endfacet
endsolid OpenSCAD_Model
