solid OpenSCAD_Model
  facet normal 0 1 -0
    outer loop
      vertex 1.55 9.81532 -0.0499992
      vertex -1.55 9.81532 5
      vertex 1.55 9.81532 5
    endloop
  endfacet
  facet normal 0 1 0
    outer loop
      vertex -1.55 9.81532 5
      vertex 1.55 9.81532 -0.0499992
      vertex -1.55 9.81532 -0.0499992
    endloop
  endfacet
  facet normal -0.866026 0.5 0
    outer loop
      vertex 1.55 9.81532 -0.0499992
      vertex 3.1 12.5 5
      vertex 3.1 12.5 -0.0499992
    endloop
  endfacet
  facet normal -0.866026 0.5 0
    outer loop
      vertex 3.1 12.5 5
      vertex 1.55 9.81532 -0.0499992
      vertex 1.55 9.81532 5
    endloop
  endfacet
  facet normal 0 -1 0
    outer loop
      vertex -1.55 15.1847 -0.0499992
      vertex 1.55 15.1847 5
      vertex -1.55 15.1847 5
    endloop
  endfacet
  facet normal 0 -1 -0
    outer loop
      vertex 1.55 15.1847 5
      vertex -1.55 15.1847 -0.0499992
      vertex 1.55 15.1847 -0.0499992
    endloop
  endfacet
  facet normal -0.866027 -0.499997 0
    outer loop
      vertex 3.1 12.5 -0.0499992
      vertex 1.55 15.1847 5
      vertex 1.55 15.1847 -0.0499992
    endloop
  endfacet
  facet normal -0.866027 -0.499997 0
    outer loop
      vertex 1.55 15.1847 5
      vertex 3.1 12.5 -0.0499992
      vertex 3.1 12.5 5
    endloop
  endfacet
  facet normal 0.866027 -0.499997 0
    outer loop
      vertex -3.1 12.5 5
      vertex -1.55 15.1847 -0.0499992
      vertex -1.55 15.1847 5
    endloop
  endfacet
  facet normal 0.866027 -0.499997 0
    outer loop
      vertex -1.55 15.1847 -0.0499992
      vertex -3.1 12.5 5
      vertex -3.1 12.5 -0.0499992
    endloop
  endfacet
  facet normal 0.866026 0.5 0
    outer loop
      vertex -1.55 9.81532 5
      vertex -3.1 12.5 -0.0499992
      vertex -3.1 12.5 5
    endloop
  endfacet
  facet normal 0.866026 0.5 0
    outer loop
      vertex -3.1 12.5 -0.0499992
      vertex -1.55 9.81532 5
      vertex -1.55 9.81532 -0.0499992
    endloop
  endfacet
  facet normal 0 0 1
    outer loop
      vertex 3.1 12.5 -0.0499992
      vertex 1.57569 12.7778 -0.0499992
      vertex 1.6 12.5 -0.0499992
    endloop
  endfacet
  facet normal -0 0 1
    outer loop
      vertex 1.38564 13.3 -0.0499992
      vertex 3.1 12.5 -0.0499992
      vertex 1.55 15.1847 -0.0499992
    endloop
  endfacet
  facet normal 0 0 1
    outer loop
      vertex 3.1 12.5 -0.0499992
      vertex 1.50351 13.0472 -0.0499992
      vertex 1.57569 12.7778 -0.0499992
    endloop
  endfacet
  facet normal 0 0 1
    outer loop
      vertex 3.1 12.5 -0.0499992
      vertex 1.38564 13.3 -0.0499992
      vertex 1.50351 13.0472 -0.0499992
    endloop
  endfacet
  facet normal 0 0 1
    outer loop
      vertex 1.55 15.1847 -0.0499992
      vertex 1.22567 13.5285 -0.0499992
      vertex 1.38564 13.3 -0.0499992
    endloop
  endfacet
  facet normal 0 0 1
    outer loop
      vertex 1.55 15.1847 -0.0499992
      vertex 1.02846 13.7257 -0.0499992
      vertex 1.22567 13.5285 -0.0499992
    endloop
  endfacet
  facet normal 0 0 1
    outer loop
      vertex 1.55 15.1847 -0.0499992
      vertex 0.799999 13.8856 -0.0499992
      vertex 1.02846 13.7257 -0.0499992
    endloop
  endfacet
  facet normal 0 0 1
    outer loop
      vertex 1.55 15.1847 -0.0499992
      vertex 0.547232 14.0035 -0.0499992
      vertex 0.799999 13.8856 -0.0499992
    endloop
  endfacet
  facet normal 0 0 1
    outer loop
      vertex 1.55 15.1847 -0.0499992
      vertex 0.277837 14.0757 -0.0499992
      vertex 0.547232 14.0035 -0.0499992
    endloop
  endfacet
  facet normal 0 0 1
    outer loop
      vertex 1.55 15.1847 -0.0499992
      vertex 0 14.1 -0.0499992
      vertex 0.277837 14.0757 -0.0499992
    endloop
  endfacet
  facet normal -0 0 1
    outer loop
      vertex -1.55 15.1847 -0.0499992
      vertex 0 14.1 -0.0499992
      vertex 1.55 15.1847 -0.0499992
    endloop
  endfacet
  facet normal 0 0 1
    outer loop
      vertex 0 14.1 -0.0499992
      vertex -1.55 15.1847 -0.0499992
      vertex -0.277837 14.0757 -0.0499992
    endloop
  endfacet
  facet normal 0 0 1
    outer loop
      vertex -0.277837 14.0757 -0.0499992
      vertex -1.55 15.1847 -0.0499992
      vertex -0.547232 14.0035 -0.0499992
    endloop
  endfacet
  facet normal 0 0 1
    outer loop
      vertex -0.547232 14.0035 -0.0499992
      vertex -1.55 15.1847 -0.0499992
      vertex -0.799999 13.8856 -0.0499992
    endloop
  endfacet
  facet normal 0 0 1
    outer loop
      vertex -1.55 15.1847 -0.0499992
      vertex -1.02846 13.7257 -0.0499992
      vertex -0.799999 13.8856 -0.0499992
    endloop
  endfacet
  facet normal 0 0 1
    outer loop
      vertex -1.55 15.1847 -0.0499992
      vertex -1.22567 13.5285 -0.0499992
      vertex -1.02846 13.7257 -0.0499992
    endloop
  endfacet
  facet normal 0 0 1
    outer loop
      vertex -1.55 15.1847 -0.0499992
      vertex -1.38564 13.3 -0.0499992
      vertex -1.22567 13.5285 -0.0499992
    endloop
  endfacet
  facet normal 0 0 1
    outer loop
      vertex -3.1 12.5 -0.0499992
      vertex -1.38564 13.3 -0.0499992
      vertex -1.55 15.1847 -0.0499992
    endloop
  endfacet
  facet normal 0 0 1
    outer loop
      vertex -1.38564 13.3 -0.0499992
      vertex -3.1 12.5 -0.0499992
      vertex -1.50351 13.0472 -0.0499992
    endloop
  endfacet
  facet normal 0 0 1
    outer loop
      vertex -1.50351 13.0472 -0.0499992
      vertex -3.1 12.5 -0.0499992
      vertex -1.57569 12.7778 -0.0499992
    endloop
  endfacet
  facet normal 0 0 1
    outer loop
      vertex -1.57569 12.7778 -0.0499992
      vertex -3.1 12.5 -0.0499992
      vertex -1.6 12.5 -0.0499992
    endloop
  endfacet
  facet normal 0 0 1
    outer loop
      vertex 1.57569 12.2222 -0.0499992
      vertex 3.1 12.5 -0.0499992
      vertex 1.6 12.5 -0.0499992
    endloop
  endfacet
  facet normal 0 0 1
    outer loop
      vertex 1.50351 11.9528 -0.0499992
      vertex 3.1 12.5 -0.0499992
      vertex 1.57569 12.2222 -0.0499992
    endloop
  endfacet
  facet normal 0 0 1
    outer loop
      vertex 1.38564 11.7 -0.0499992
      vertex 3.1 12.5 -0.0499992
      vertex 1.50351 11.9528 -0.0499992
    endloop
  endfacet
  facet normal 0 0 1
    outer loop
      vertex 3.1 12.5 -0.0499992
      vertex 1.38564 11.7 -0.0499992
      vertex 1.55 9.81532 -0.0499992
    endloop
  endfacet
  facet normal -0 0 1
    outer loop
      vertex 1.22567 11.4715 -0.0499992
      vertex 1.55 9.81532 -0.0499992
      vertex 1.38564 11.7 -0.0499992
    endloop
  endfacet
  facet normal -0 0 1
    outer loop
      vertex 1.02846 11.2743 -0.0499992
      vertex 1.55 9.81532 -0.0499992
      vertex 1.22567 11.4715 -0.0499992
    endloop
  endfacet
  facet normal -0 0 1
    outer loop
      vertex 0.799999 11.1144 -0.0499992
      vertex 1.55 9.81532 -0.0499992
      vertex 1.02846 11.2743 -0.0499992
    endloop
  endfacet
  facet normal -0 0 1
    outer loop
      vertex 0.547232 10.9965 -0.0499992
      vertex 1.55 9.81532 -0.0499992
      vertex 0.799999 11.1144 -0.0499992
    endloop
  endfacet
  facet normal -0 0 1
    outer loop
      vertex 0.277837 10.9243 -0.0499992
      vertex 1.55 9.81532 -0.0499992
      vertex 0.547232 10.9965 -0.0499992
    endloop
  endfacet
  facet normal -0 0 1
    outer loop
      vertex 0 10.9 -0.0499992
      vertex 1.55 9.81532 -0.0499992
      vertex 0.277837 10.9243 -0.0499992
    endloop
  endfacet
  facet normal 0 0 1
    outer loop
      vertex -1.55 9.81532 -0.0499992
      vertex 0 10.9 -0.0499992
      vertex -0.277837 10.9243 -0.0499992
    endloop
  endfacet
  facet normal 0 0 1
    outer loop
      vertex -1.55 9.81532 -0.0499992
      vertex -0.277837 10.9243 -0.0499992
      vertex -0.547232 10.9965 -0.0499992
    endloop
  endfacet
  facet normal 0 0 1
    outer loop
      vertex -1.55 9.81532 -0.0499992
      vertex -0.547232 10.9965 -0.0499992
      vertex -0.799999 11.1144 -0.0499992
    endloop
  endfacet
  facet normal 0 0 1
    outer loop
      vertex 0 10.9 -0.0499992
      vertex -1.55 9.81532 -0.0499992
      vertex 1.55 9.81532 -0.0499992
    endloop
  endfacet
  facet normal 0 0 1
    outer loop
      vertex -1.02846 11.2743 -0.0499992
      vertex -1.55 9.81532 -0.0499992
      vertex -0.799999 11.1144 -0.0499992
    endloop
  endfacet
  facet normal 0 0 1
    outer loop
      vertex -1.22567 11.4715 -0.0499992
      vertex -1.55 9.81532 -0.0499992
      vertex -1.02846 11.2743 -0.0499992
    endloop
  endfacet
  facet normal 0 0 1
    outer loop
      vertex -1.38564 11.7 -0.0499992
      vertex -1.55 9.81532 -0.0499992
      vertex -1.22567 11.4715 -0.0499992
    endloop
  endfacet
  facet normal 0 0 1
    outer loop
      vertex -3.1 12.5 -0.0499992
      vertex -1.38564 11.7 -0.0499992
      vertex -1.50351 11.9528 -0.0499992
    endloop
  endfacet
  facet normal 0 0 1
    outer loop
      vertex -3.1 12.5 -0.0499992
      vertex -1.50351 11.9528 -0.0499992
      vertex -1.57569 12.2222 -0.0499992
    endloop
  endfacet
  facet normal -0 0 1
    outer loop
      vertex -3.1 12.5 -0.0499992
      vertex -1.57569 12.2222 -0.0499992
      vertex -1.6 12.5 -0.0499992
    endloop
  endfacet
  facet normal 0 0 1
    outer loop
      vertex -1.38564 11.7 -0.0499992
      vertex -3.1 12.5 -0.0499992
      vertex -1.55 9.81532 -0.0499992
    endloop
  endfacet
  facet normal 0.258872 -0.965912 0
    outer loop
      vertex -0.547232 14.0035 -5
      vertex -0.277837 14.0757 -0.0499992
      vertex -0.547232 14.0035 -0.0499992
    endloop
  endfacet
  facet normal 0.258872 -0.965912 0
    outer loop
      vertex -0.277837 14.0757 -0.0499992
      vertex -0.547232 14.0035 -5
      vertex -0.277837 14.0757 -5
    endloop
  endfacet
  facet normal -0.965931 -0.258801 0
    outer loop
      vertex 1.57569 12.7778 -5
      vertex 1.50351 13.0472 -0.0499992
      vertex 1.50351 13.0472 -5
    endloop
  endfacet
  facet normal -0.965931 -0.258801 0
    outer loop
      vertex 1.50351 13.0472 -0.0499992
      vertex 1.57569 12.7778 -5
      vertex 1.57569 12.7778 -0.0499992
    endloop
  endfacet
  facet normal -0.996193 -0.0871758 0
    outer loop
      vertex 1.6 12.5 -5
      vertex 1.57569 12.7778 -0.0499992
      vertex 1.57569 12.7778 -5
    endloop
  endfacet
  facet normal -0.996193 -0.0871758 0
    outer loop
      vertex 1.57569 12.7778 -0.0499992
      vertex 1.6 12.5 -5
      vertex 1.6 12.5 -0.0499992
    endloop
  endfacet
  facet normal -0.906325 -0.422581 0
    outer loop
      vertex 1.50351 13.0472 -5
      vertex 1.38564 13.3 -0.0499992
      vertex 1.38564 13.3 -5
    endloop
  endfacet
  facet normal -0.906325 -0.422581 0
    outer loop
      vertex 1.38564 13.3 -0.0499992
      vertex 1.50351 13.0472 -5
      vertex 1.50351 13.0472 -0.0499992
    endloop
  endfacet
  facet normal 0.906325 0.422581 0
    outer loop
      vertex -1.38564 11.7 -0.0499992
      vertex -1.50351 11.9528 -5
      vertex -1.50351 11.9528 -0.0499992
    endloop
  endfacet
  facet normal 0.906325 0.422581 0
    outer loop
      vertex -1.50351 11.9528 -5
      vertex -1.38564 11.7 -0.0499992
      vertex -1.38564 11.7 -5
    endloop
  endfacet
  facet normal -0.906325 0.422581 0
    outer loop
      vertex 1.38564 11.7 -5
      vertex 1.50351 11.9528 -0.0499992
      vertex 1.50351 11.9528 -5
    endloop
  endfacet
  facet normal -0.906325 0.422581 0
    outer loop
      vertex 1.50351 11.9528 -0.0499992
      vertex 1.38564 11.7 -5
      vertex 1.38564 11.7 -0.0499992
    endloop
  endfacet
  facet normal -0.819198 0.57351 0
    outer loop
      vertex 1.22567 11.4715 -5
      vertex 1.38564 11.7 -0.0499992
      vertex 1.38564 11.7 -5
    endloop
  endfacet
  facet normal -0.819198 0.57351 0
    outer loop
      vertex 1.38564 11.7 -0.0499992
      vertex 1.22567 11.4715 -5
      vertex 1.22567 11.4715 -0.0499992
    endloop
  endfacet
  facet normal -0.996193 0.0871758 0
    outer loop
      vertex 1.57569 12.2222 -5
      vertex 1.6 12.5 -0.0499992
      vertex 1.6 12.5 -5
    endloop
  endfacet
  facet normal -0.996193 0.0871758 0
    outer loop
      vertex 1.6 12.5 -0.0499992
      vertex 1.57569 12.2222 -5
      vertex 1.57569 12.2222 -0.0499992
    endloop
  endfacet
  facet normal -0.819198 -0.57351 0
    outer loop
      vertex 1.38564 13.3 -5
      vertex 1.22567 13.5285 -0.0499992
      vertex 1.22567 13.5285 -5
    endloop
  endfacet
  facet normal -0.819198 -0.57351 0
    outer loop
      vertex 1.22567 13.5285 -0.0499992
      vertex 1.38564 13.3 -5
      vertex 1.38564 13.3 -0.0499992
    endloop
  endfacet
  facet normal -0.707089 0.707125 0
    outer loop
      vertex 1.02846 11.2743 -5
      vertex 1.22567 11.4715 -0.0499992
      vertex 1.22567 11.4715 -5
    endloop
  endfacet
  facet normal -0.707089 0.707125 0
    outer loop
      vertex 1.22567 11.4715 -0.0499992
      vertex 1.02846 11.2743 -5
      vertex 1.02846 11.2743 -0.0499992
    endloop
  endfacet
  facet normal 0.707089 -0.707125 0
    outer loop
      vertex -1.22567 13.5285 -0.0499992
      vertex -1.02846 13.7257 -5
      vertex -1.02846 13.7257 -0.0499992
    endloop
  endfacet
  facet normal 0.707089 -0.707125 0
    outer loop
      vertex -1.02846 13.7257 -5
      vertex -1.22567 13.5285 -0.0499992
      vertex -1.22567 13.5285 -5
    endloop
  endfacet
  facet normal 0.0871287 -0.996197 0
    outer loop
      vertex -0.277837 14.0757 -5
      vertex 0 14.1 -0.0499992
      vertex -0.277837 14.0757 -0.0499992
    endloop
  endfacet
  facet normal 0.0871287 -0.996197 0
    outer loop
      vertex 0 14.1 -0.0499992
      vertex -0.277837 14.0757 -5
      vertex 0 14.1 -5
    endloop
  endfacet
  facet normal 0.573408 -0.81927 0
    outer loop
      vertex -1.02846 13.7257 -5
      vertex -0.799999 13.8856 -0.0499992
      vertex -1.02846 13.7257 -0.0499992
    endloop
  endfacet
  facet normal 0.573408 -0.81927 0
    outer loop
      vertex -0.799999 13.8856 -0.0499992
      vertex -1.02846 13.7257 -5
      vertex -0.799999 13.8856 -5
    endloop
  endfacet
  facet normal 0.422715 -0.906263 0
    outer loop
      vertex -0.799999 13.8856 -5
      vertex -0.547232 14.0035 -0.0499992
      vertex -0.799999 13.8856 -0.0499992
    endloop
  endfacet
  facet normal 0.422715 -0.906263 0
    outer loop
      vertex -0.547232 14.0035 -0.0499992
      vertex -0.799999 13.8856 -5
      vertex -0.547232 14.0035 -5
    endloop
  endfacet
  facet normal -0.422715 0.906263 0
    outer loop
      vertex 0.799999 11.1144 -5
      vertex 0.547232 10.9965 -0.0499992
      vertex 0.799999 11.1144 -0.0499992
    endloop
  endfacet
  facet normal -0.422715 0.906263 0
    outer loop
      vertex 0.547232 10.9965 -0.0499992
      vertex 0.799999 11.1144 -5
      vertex 0.547232 10.9965 -5
    endloop
  endfacet
  facet normal 0.996193 0.0871758 0
    outer loop
      vertex -1.57569 12.2222 -0.0499992
      vertex -1.6 12.5 -5
      vertex -1.6 12.5 -0.0499992
    endloop
  endfacet
  facet normal 0.996193 0.0871758 0
    outer loop
      vertex -1.6 12.5 -5
      vertex -1.57569 12.2222 -0.0499992
      vertex -1.57569 12.2222 -5
    endloop
  endfacet
  facet normal -0.573408 -0.81927 0
    outer loop
      vertex 0.799999 13.8856 -5
      vertex 1.02846 13.7257 -0.0499992
      vertex 0.799999 13.8856 -0.0499992
    endloop
  endfacet
  facet normal -0.573408 -0.81927 -0
    outer loop
      vertex 1.02846 13.7257 -0.0499992
      vertex 0.799999 13.8856 -5
      vertex 1.02846 13.7257 -5
    endloop
  endfacet
  facet normal -0.258872 -0.965912 0
    outer loop
      vertex 0.277837 14.0757 -5
      vertex 0.547232 14.0035 -0.0499992
      vertex 0.277837 14.0757 -0.0499992
    endloop
  endfacet
  facet normal -0.258872 -0.965912 -0
    outer loop
      vertex 0.547232 14.0035 -0.0499992
      vertex 0.277837 14.0757 -5
      vertex 0.547232 14.0035 -5
    endloop
  endfacet
  facet normal -0.573408 0.81927 0
    outer loop
      vertex 1.02846 11.2743 -5
      vertex 0.799999 11.1144 -0.0499992
      vertex 1.02846 11.2743 -0.0499992
    endloop
  endfacet
  facet normal -0.573408 0.81927 0
    outer loop
      vertex 0.799999 11.1144 -0.0499992
      vertex 1.02846 11.2743 -5
      vertex 0.799999 11.1144 -5
    endloop
  endfacet
  facet normal 0.965931 -0.258801 0
    outer loop
      vertex -1.57569 12.7778 -0.0499992
      vertex -1.50351 13.0472 -5
      vertex -1.50351 13.0472 -0.0499992
    endloop
  endfacet
  facet normal 0.965931 -0.258801 0
    outer loop
      vertex -1.50351 13.0472 -5
      vertex -1.57569 12.7778 -0.0499992
      vertex -1.57569 12.7778 -5
    endloop
  endfacet
  facet normal 0.819198 -0.57351 0
    outer loop
      vertex -1.38564 13.3 -0.0499992
      vertex -1.22567 13.5285 -5
      vertex -1.22567 13.5285 -0.0499992
    endloop
  endfacet
  facet normal 0.819198 -0.57351 0
    outer loop
      vertex -1.22567 13.5285 -5
      vertex -1.38564 13.3 -0.0499992
      vertex -1.38564 13.3 -5
    endloop
  endfacet
  facet normal 0.819198 0.57351 0
    outer loop
      vertex -1.22567 11.4715 -0.0499992
      vertex -1.38564 11.7 -5
      vertex -1.38564 11.7 -0.0499992
    endloop
  endfacet
  facet normal 0.819198 0.57351 0
    outer loop
      vertex -1.38564 11.7 -5
      vertex -1.22567 11.4715 -0.0499992
      vertex -1.22567 11.4715 -5
    endloop
  endfacet
  facet normal -0.258872 0.965912 0
    outer loop
      vertex 0.547232 10.9965 -5
      vertex 0.277837 10.9243 -0.0499992
      vertex 0.547232 10.9965 -0.0499992
    endloop
  endfacet
  facet normal -0.258872 0.965912 0
    outer loop
      vertex 0.277837 10.9243 -0.0499992
      vertex 0.547232 10.9965 -5
      vertex 0.277837 10.9243 -5
    endloop
  endfacet
  facet normal -0.707089 -0.707125 0
    outer loop
      vertex 1.22567 13.5285 -5
      vertex 1.02846 13.7257 -0.0499992
      vertex 1.02846 13.7257 -5
    endloop
  endfacet
  facet normal -0.707089 -0.707125 0
    outer loop
      vertex 1.02846 13.7257 -0.0499992
      vertex 1.22567 13.5285 -5
      vertex 1.22567 13.5285 -0.0499992
    endloop
  endfacet
  facet normal -0.965931 0.258801 0
    outer loop
      vertex 1.50351 11.9528 -5
      vertex 1.57569 12.2222 -0.0499992
      vertex 1.57569 12.2222 -5
    endloop
  endfacet
  facet normal -0.965931 0.258801 0
    outer loop
      vertex 1.57569 12.2222 -0.0499992
      vertex 1.50351 11.9528 -5
      vertex 1.50351 11.9528 -0.0499992
    endloop
  endfacet
  facet normal 0.707089 0.707125 0
    outer loop
      vertex -1.02846 11.2743 -0.0499992
      vertex -1.22567 11.4715 -5
      vertex -1.22567 11.4715 -0.0499992
    endloop
  endfacet
  facet normal 0.707089 0.707125 0
    outer loop
      vertex -1.22567 11.4715 -5
      vertex -1.02846 11.2743 -0.0499992
      vertex -1.02846 11.2743 -5
    endloop
  endfacet
  facet normal 0.906325 -0.422581 0
    outer loop
      vertex -1.50351 13.0472 -0.0499992
      vertex -1.38564 13.3 -5
      vertex -1.38564 13.3 -0.0499992
    endloop
  endfacet
  facet normal 0.906325 -0.422581 0
    outer loop
      vertex -1.38564 13.3 -5
      vertex -1.50351 13.0472 -0.0499992
      vertex -1.50351 13.0472 -5
    endloop
  endfacet
  facet normal 0.573408 0.81927 -0
    outer loop
      vertex -0.799999 11.1144 -5
      vertex -1.02846 11.2743 -0.0499992
      vertex -0.799999 11.1144 -0.0499992
    endloop
  endfacet
  facet normal 0.573408 0.81927 0
    outer loop
      vertex -1.02846 11.2743 -0.0499992
      vertex -0.799999 11.1144 -5
      vertex -1.02846 11.2743 -5
    endloop
  endfacet
  facet normal -0.0871287 0.996197 0
    outer loop
      vertex 0.277837 10.9243 -5
      vertex 0 10.9 -0.0499992
      vertex 0.277837 10.9243 -0.0499992
    endloop
  endfacet
  facet normal -0.0871287 0.996197 0
    outer loop
      vertex 0 10.9 -0.0499992
      vertex 0.277837 10.9243 -5
      vertex 0 10.9 -5
    endloop
  endfacet
  facet normal -0.0871287 -0.996197 0
    outer loop
      vertex 0 14.1 -5
      vertex 0.277837 14.0757 -0.0499992
      vertex 0 14.1 -0.0499992
    endloop
  endfacet
  facet normal -0.0871287 -0.996197 -0
    outer loop
      vertex 0.277837 14.0757 -0.0499992
      vertex 0 14.1 -5
      vertex 0.277837 14.0757 -5
    endloop
  endfacet
  facet normal -0.422715 -0.906263 0
    outer loop
      vertex 0.547232 14.0035 -5
      vertex 0.799999 13.8856 -0.0499992
      vertex 0.547232 14.0035 -0.0499992
    endloop
  endfacet
  facet normal -0.422715 -0.906263 -0
    outer loop
      vertex 0.799999 13.8856 -0.0499992
      vertex 0.547232 14.0035 -5
      vertex 0.799999 13.8856 -5
    endloop
  endfacet
  facet normal 0.0871287 0.996197 -0
    outer loop
      vertex 0 10.9 -5
      vertex -0.277837 10.9243 -0.0499992
      vertex 0 10.9 -0.0499992
    endloop
  endfacet
  facet normal 0.0871287 0.996197 0
    outer loop
      vertex -0.277837 10.9243 -0.0499992
      vertex 0 10.9 -5
      vertex -0.277837 10.9243 -5
    endloop
  endfacet
  facet normal 0.258872 0.965912 -0
    outer loop
      vertex -0.277837 10.9243 -5
      vertex -0.547232 10.9965 -0.0499992
      vertex -0.277837 10.9243 -0.0499992
    endloop
  endfacet
  facet normal 0.258872 0.965912 0
    outer loop
      vertex -0.547232 10.9965 -0.0499992
      vertex -0.277837 10.9243 -5
      vertex -0.547232 10.9965 -5
    endloop
  endfacet
  facet normal 0.996193 -0.0871758 0
    outer loop
      vertex -1.6 12.5 -0.0499992
      vertex -1.57569 12.7778 -5
      vertex -1.57569 12.7778 -0.0499992
    endloop
  endfacet
  facet normal 0.996193 -0.0871758 0
    outer loop
      vertex -1.57569 12.7778 -5
      vertex -1.6 12.5 -0.0499992
      vertex -1.6 12.5 -5
    endloop
  endfacet
  facet normal 0.965931 0.258801 0
    outer loop
      vertex -1.50351 11.9528 -0.0499992
      vertex -1.57569 12.2222 -5
      vertex -1.57569 12.2222 -0.0499992
    endloop
  endfacet
  facet normal 0.965931 0.258801 0
    outer loop
      vertex -1.57569 12.2222 -5
      vertex -1.50351 11.9528 -0.0499992
      vertex -1.50351 11.9528 -5
    endloop
  endfacet
  facet normal 0.422715 0.906263 -0
    outer loop
      vertex -0.547232 10.9965 -5
      vertex -0.799999 11.1144 -0.0499992
      vertex -0.547232 10.9965 -0.0499992
    endloop
  endfacet
  facet normal 0.422715 0.906263 0
    outer loop
      vertex -0.799999 11.1144 -0.0499992
      vertex -0.547232 10.9965 -5
      vertex -0.799999 11.1144 -5
    endloop
  endfacet
  facet normal 0 1 -0
    outer loop
      vertex 1.55 -15.1847 -0.0499992
      vertex -1.55 -15.1847 5
      vertex 1.55 -15.1847 5
    endloop
  endfacet
  facet normal 0 1 0
    outer loop
      vertex -1.55 -15.1847 5
      vertex 1.55 -15.1847 -0.0499992
      vertex -1.55 -15.1847 -0.0499992
    endloop
  endfacet
  facet normal -0.866027 0.499997 0
    outer loop
      vertex 1.55 -15.1847 -0.0499992
      vertex 3.1 -12.5 5
      vertex 3.1 -12.5 -0.0499992
    endloop
  endfacet
  facet normal -0.866027 0.499997 0
    outer loop
      vertex 3.1 -12.5 5
      vertex 1.55 -15.1847 -0.0499992
      vertex 1.55 -15.1847 5
    endloop
  endfacet
  facet normal 0 -1 0
    outer loop
      vertex -1.55 -9.81532 -0.0499992
      vertex 1.55 -9.81532 5
      vertex -1.55 -9.81532 5
    endloop
  endfacet
  facet normal 0 -1 -0
    outer loop
      vertex 1.55 -9.81532 5
      vertex -1.55 -9.81532 -0.0499992
      vertex 1.55 -9.81532 -0.0499992
    endloop
  endfacet
  facet normal -0.866026 -0.5 0
    outer loop
      vertex 3.1 -12.5 -0.0499992
      vertex 1.55 -9.81532 5
      vertex 1.55 -9.81532 -0.0499992
    endloop
  endfacet
  facet normal -0.866026 -0.5 0
    outer loop
      vertex 1.55 -9.81532 5
      vertex 3.1 -12.5 -0.0499992
      vertex 3.1 -12.5 5
    endloop
  endfacet
  facet normal 0.866026 -0.5 0
    outer loop
      vertex -3.1 -12.5 5
      vertex -1.55 -9.81532 -0.0499992
      vertex -1.55 -9.81532 5
    endloop
  endfacet
  facet normal 0.866026 -0.5 0
    outer loop
      vertex -1.55 -9.81532 -0.0499992
      vertex -3.1 -12.5 5
      vertex -3.1 -12.5 -0.0499992
    endloop
  endfacet
  facet normal 0.866027 0.499997 0
    outer loop
      vertex -1.55 -15.1847 5
      vertex -3.1 -12.5 -0.0499992
      vertex -3.1 -12.5 5
    endloop
  endfacet
  facet normal 0.866027 0.499997 0
    outer loop
      vertex -3.1 -12.5 -0.0499992
      vertex -1.55 -15.1847 5
      vertex -1.55 -15.1847 -0.0499992
    endloop
  endfacet
  facet normal 0 0 1
    outer loop
      vertex 3.1 -12.5 -0.0499992
      vertex 1.57569 -12.2222 -0.0499992
      vertex 1.6 -12.5 -0.0499992
    endloop
  endfacet
  facet normal -0 0 1
    outer loop
      vertex 1.38564 -11.7 -0.0499992
      vertex 3.1 -12.5 -0.0499992
      vertex 1.55 -9.81532 -0.0499992
    endloop
  endfacet
  facet normal 0 0 1
    outer loop
      vertex 3.1 -12.5 -0.0499992
      vertex 1.50351 -11.9528 -0.0499992
      vertex 1.57569 -12.2222 -0.0499992
    endloop
  endfacet
  facet normal 0 0 1
    outer loop
      vertex 3.1 -12.5 -0.0499992
      vertex 1.38564 -11.7 -0.0499992
      vertex 1.50351 -11.9528 -0.0499992
    endloop
  endfacet
  facet normal 0 0 1
    outer loop
      vertex 1.55 -9.81532 -0.0499992
      vertex 1.22567 -11.4715 -0.0499992
      vertex 1.38564 -11.7 -0.0499992
    endloop
  endfacet
  facet normal 0 0 1
    outer loop
      vertex 1.55 -9.81532 -0.0499992
      vertex 1.02846 -11.2743 -0.0499992
      vertex 1.22567 -11.4715 -0.0499992
    endloop
  endfacet
  facet normal 0 0 1
    outer loop
      vertex 1.55 -9.81532 -0.0499992
      vertex 0.799999 -11.1144 -0.0499992
      vertex 1.02846 -11.2743 -0.0499992
    endloop
  endfacet
  facet normal 0 0 1
    outer loop
      vertex 1.55 -9.81532 -0.0499992
      vertex 0.547232 -10.9965 -0.0499992
      vertex 0.799999 -11.1144 -0.0499992
    endloop
  endfacet
  facet normal 0 0 1
    outer loop
      vertex 1.55 -9.81532 -0.0499992
      vertex 0.277837 -10.9243 -0.0499992
      vertex 0.547232 -10.9965 -0.0499992
    endloop
  endfacet
  facet normal 0 0 1
    outer loop
      vertex 1.55 -9.81532 -0.0499992
      vertex 0 -10.9 -0.0499992
      vertex 0.277837 -10.9243 -0.0499992
    endloop
  endfacet
  facet normal -0 0 1
    outer loop
      vertex -1.55 -9.81532 -0.0499992
      vertex 0 -10.9 -0.0499992
      vertex 1.55 -9.81532 -0.0499992
    endloop
  endfacet
  facet normal 0 0 1
    outer loop
      vertex 0 -10.9 -0.0499992
      vertex -1.55 -9.81532 -0.0499992
      vertex -0.277837 -10.9243 -0.0499992
    endloop
  endfacet
  facet normal 0 0 1
    outer loop
      vertex -0.277837 -10.9243 -0.0499992
      vertex -1.55 -9.81532 -0.0499992
      vertex -0.547232 -10.9965 -0.0499992
    endloop
  endfacet
  facet normal 0 0 1
    outer loop
      vertex -0.547232 -10.9965 -0.0499992
      vertex -1.55 -9.81532 -0.0499992
      vertex -0.799999 -11.1144 -0.0499992
    endloop
  endfacet
  facet normal 0 0 1
    outer loop
      vertex -1.55 -9.81532 -0.0499992
      vertex -1.02846 -11.2743 -0.0499992
      vertex -0.799999 -11.1144 -0.0499992
    endloop
  endfacet
  facet normal 0 0 1
    outer loop
      vertex -1.55 -9.81532 -0.0499992
      vertex -1.22567 -11.4715 -0.0499992
      vertex -1.02846 -11.2743 -0.0499992
    endloop
  endfacet
  facet normal 0 0 1
    outer loop
      vertex -1.55 -9.81532 -0.0499992
      vertex -1.38564 -11.7 -0.0499992
      vertex -1.22567 -11.4715 -0.0499992
    endloop
  endfacet
  facet normal 0 0 1
    outer loop
      vertex -3.1 -12.5 -0.0499992
      vertex -1.38564 -11.7 -0.0499992
      vertex -1.55 -9.81532 -0.0499992
    endloop
  endfacet
  facet normal 0 0 1
    outer loop
      vertex -1.38564 -11.7 -0.0499992
      vertex -3.1 -12.5 -0.0499992
      vertex -1.50351 -11.9528 -0.0499992
    endloop
  endfacet
  facet normal 0 0 1
    outer loop
      vertex -1.50351 -11.9528 -0.0499992
      vertex -3.1 -12.5 -0.0499992
      vertex -1.57569 -12.2222 -0.0499992
    endloop
  endfacet
  facet normal 0 0 1
    outer loop
      vertex -1.57569 -12.2222 -0.0499992
      vertex -3.1 -12.5 -0.0499992
      vertex -1.6 -12.5 -0.0499992
    endloop
  endfacet
  facet normal 0 0 1
    outer loop
      vertex 1.57569 -12.7778 -0.0499992
      vertex 3.1 -12.5 -0.0499992
      vertex 1.6 -12.5 -0.0499992
    endloop
  endfacet
  facet normal 0 0 1
    outer loop
      vertex 1.50351 -13.0472 -0.0499992
      vertex 3.1 -12.5 -0.0499992
      vertex 1.57569 -12.7778 -0.0499992
    endloop
  endfacet
  facet normal 0 0 1
    outer loop
      vertex 1.38564 -13.3 -0.0499992
      vertex 3.1 -12.5 -0.0499992
      vertex 1.50351 -13.0472 -0.0499992
    endloop
  endfacet
  facet normal 0 0 1
    outer loop
      vertex 3.1 -12.5 -0.0499992
      vertex 1.38564 -13.3 -0.0499992
      vertex 1.55 -15.1847 -0.0499992
    endloop
  endfacet
  facet normal -0 0 1
    outer loop
      vertex 1.22567 -13.5285 -0.0499992
      vertex 1.55 -15.1847 -0.0499992
      vertex 1.38564 -13.3 -0.0499992
    endloop
  endfacet
  facet normal -0 0 1
    outer loop
      vertex 1.02846 -13.7257 -0.0499992
      vertex 1.55 -15.1847 -0.0499992
      vertex 1.22567 -13.5285 -0.0499992
    endloop
  endfacet
  facet normal -0 0 1
    outer loop
      vertex 0.799999 -13.8856 -0.0499992
      vertex 1.55 -15.1847 -0.0499992
      vertex 1.02846 -13.7257 -0.0499992
    endloop
  endfacet
  facet normal -0 0 1
    outer loop
      vertex 0.547232 -14.0035 -0.0499992
      vertex 1.55 -15.1847 -0.0499992
      vertex 0.799999 -13.8856 -0.0499992
    endloop
  endfacet
  facet normal -0 0 1
    outer loop
      vertex 0.277837 -14.0757 -0.0499992
      vertex 1.55 -15.1847 -0.0499992
      vertex 0.547232 -14.0035 -0.0499992
    endloop
  endfacet
  facet normal -0 0 1
    outer loop
      vertex 0 -14.1 -0.0499992
      vertex 1.55 -15.1847 -0.0499992
      vertex 0.277837 -14.0757 -0.0499992
    endloop
  endfacet
  facet normal 0 0 1
    outer loop
      vertex -1.55 -15.1847 -0.0499992
      vertex 0 -14.1 -0.0499992
      vertex -0.277837 -14.0757 -0.0499992
    endloop
  endfacet
  facet normal 0 0 1
    outer loop
      vertex -1.55 -15.1847 -0.0499992
      vertex -0.277837 -14.0757 -0.0499992
      vertex -0.547232 -14.0035 -0.0499992
    endloop
  endfacet
  facet normal 0 0 1
    outer loop
      vertex -1.55 -15.1847 -0.0499992
      vertex -0.547232 -14.0035 -0.0499992
      vertex -0.799999 -13.8856 -0.0499992
    endloop
  endfacet
  facet normal 0 0 1
    outer loop
      vertex 0 -14.1 -0.0499992
      vertex -1.55 -15.1847 -0.0499992
      vertex 1.55 -15.1847 -0.0499992
    endloop
  endfacet
  facet normal 0 0 1
    outer loop
      vertex -1.02846 -13.7257 -0.0499992
      vertex -1.55 -15.1847 -0.0499992
      vertex -0.799999 -13.8856 -0.0499992
    endloop
  endfacet
  facet normal 0 0 1
    outer loop
      vertex -1.22567 -13.5285 -0.0499992
      vertex -1.55 -15.1847 -0.0499992
      vertex -1.02846 -13.7257 -0.0499992
    endloop
  endfacet
  facet normal 0 0 1
    outer loop
      vertex -1.38564 -13.3 -0.0499992
      vertex -1.55 -15.1847 -0.0499992
      vertex -1.22567 -13.5285 -0.0499992
    endloop
  endfacet
  facet normal 0 0 1
    outer loop
      vertex -3.1 -12.5 -0.0499992
      vertex -1.38564 -13.3 -0.0499992
      vertex -1.50351 -13.0472 -0.0499992
    endloop
  endfacet
  facet normal 0 0 1
    outer loop
      vertex -3.1 -12.5 -0.0499992
      vertex -1.50351 -13.0472 -0.0499992
      vertex -1.57569 -12.7778 -0.0499992
    endloop
  endfacet
  facet normal -0 0 1
    outer loop
      vertex -3.1 -12.5 -0.0499992
      vertex -1.57569 -12.7778 -0.0499992
      vertex -1.6 -12.5 -0.0499992
    endloop
  endfacet
  facet normal 0 0 1
    outer loop
      vertex -1.38564 -13.3 -0.0499992
      vertex -3.1 -12.5 -0.0499992
      vertex -1.55 -15.1847 -0.0499992
    endloop
  endfacet
  facet normal 0.258872 -0.965912 0
    outer loop
      vertex -0.547232 -10.9965 -5
      vertex -0.277837 -10.9243 -0.0499992
      vertex -0.547232 -10.9965 -0.0499992
    endloop
  endfacet
  facet normal 0.258872 -0.965912 0
    outer loop
      vertex -0.277837 -10.9243 -0.0499992
      vertex -0.547232 -10.9965 -5
      vertex -0.277837 -10.9243 -5
    endloop
  endfacet
  facet normal -0.965931 -0.258801 0
    outer loop
      vertex 1.57569 -12.2222 -5
      vertex 1.50351 -11.9528 -0.0499992
      vertex 1.50351 -11.9528 -5
    endloop
  endfacet
  facet normal -0.965931 -0.258801 0
    outer loop
      vertex 1.50351 -11.9528 -0.0499992
      vertex 1.57569 -12.2222 -5
      vertex 1.57569 -12.2222 -0.0499992
    endloop
  endfacet
  facet normal -0.996193 -0.0871758 0
    outer loop
      vertex 1.6 -12.5 -5
      vertex 1.57569 -12.2222 -0.0499992
      vertex 1.57569 -12.2222 -5
    endloop
  endfacet
  facet normal -0.996193 -0.0871758 0
    outer loop
      vertex 1.57569 -12.2222 -0.0499992
      vertex 1.6 -12.5 -5
      vertex 1.6 -12.5 -0.0499992
    endloop
  endfacet
  facet normal -0.906325 -0.422581 0
    outer loop
      vertex 1.50351 -11.9528 -5
      vertex 1.38564 -11.7 -0.0499992
      vertex 1.38564 -11.7 -5
    endloop
  endfacet
  facet normal -0.906325 -0.422581 0
    outer loop
      vertex 1.38564 -11.7 -0.0499992
      vertex 1.50351 -11.9528 -5
      vertex 1.50351 -11.9528 -0.0499992
    endloop
  endfacet
  facet normal 0.906325 0.422581 0
    outer loop
      vertex -1.38564 -13.3 -0.0499992
      vertex -1.50351 -13.0472 -5
      vertex -1.50351 -13.0472 -0.0499992
    endloop
  endfacet
  facet normal 0.906325 0.422581 0
    outer loop
      vertex -1.50351 -13.0472 -5
      vertex -1.38564 -13.3 -0.0499992
      vertex -1.38564 -13.3 -5
    endloop
  endfacet
  facet normal -0.906325 0.422581 0
    outer loop
      vertex 1.38564 -13.3 -5
      vertex 1.50351 -13.0472 -0.0499992
      vertex 1.50351 -13.0472 -5
    endloop
  endfacet
  facet normal -0.906325 0.422581 0
    outer loop
      vertex 1.50351 -13.0472 -0.0499992
      vertex 1.38564 -13.3 -5
      vertex 1.38564 -13.3 -0.0499992
    endloop
  endfacet
  facet normal -0.819198 0.57351 0
    outer loop
      vertex 1.22567 -13.5285 -5
      vertex 1.38564 -13.3 -0.0499992
      vertex 1.38564 -13.3 -5
    endloop
  endfacet
  facet normal -0.819198 0.57351 0
    outer loop
      vertex 1.38564 -13.3 -0.0499992
      vertex 1.22567 -13.5285 -5
      vertex 1.22567 -13.5285 -0.0499992
    endloop
  endfacet
  facet normal -0.996193 0.0871758 0
    outer loop
      vertex 1.57569 -12.7778 -5
      vertex 1.6 -12.5 -0.0499992
      vertex 1.6 -12.5 -5
    endloop
  endfacet
  facet normal -0.996193 0.0871758 0
    outer loop
      vertex 1.6 -12.5 -0.0499992
      vertex 1.57569 -12.7778 -5
      vertex 1.57569 -12.7778 -0.0499992
    endloop
  endfacet
  facet normal -0.819198 -0.57351 0
    outer loop
      vertex 1.38564 -11.7 -5
      vertex 1.22567 -11.4715 -0.0499992
      vertex 1.22567 -11.4715 -5
    endloop
  endfacet
  facet normal -0.819198 -0.57351 0
    outer loop
      vertex 1.22567 -11.4715 -0.0499992
      vertex 1.38564 -11.7 -5
      vertex 1.38564 -11.7 -0.0499992
    endloop
  endfacet
  facet normal -0.707089 0.707125 0
    outer loop
      vertex 1.02846 -13.7257 -5
      vertex 1.22567 -13.5285 -0.0499992
      vertex 1.22567 -13.5285 -5
    endloop
  endfacet
  facet normal -0.707089 0.707125 0
    outer loop
      vertex 1.22567 -13.5285 -0.0499992
      vertex 1.02846 -13.7257 -5
      vertex 1.02846 -13.7257 -0.0499992
    endloop
  endfacet
  facet normal 0.707089 -0.707125 0
    outer loop
      vertex -1.22567 -11.4715 -0.0499992
      vertex -1.02846 -11.2743 -5
      vertex -1.02846 -11.2743 -0.0499992
    endloop
  endfacet
  facet normal 0.707089 -0.707125 0
    outer loop
      vertex -1.02846 -11.2743 -5
      vertex -1.22567 -11.4715 -0.0499992
      vertex -1.22567 -11.4715 -5
    endloop
  endfacet
  facet normal 0.0871287 -0.996197 0
    outer loop
      vertex -0.277837 -10.9243 -5
      vertex 0 -10.9 -0.0499992
      vertex -0.277837 -10.9243 -0.0499992
    endloop
  endfacet
  facet normal 0.0871287 -0.996197 0
    outer loop
      vertex 0 -10.9 -0.0499992
      vertex -0.277837 -10.9243 -5
      vertex 0 -10.9 -5
    endloop
  endfacet
  facet normal 0.573408 -0.81927 0
    outer loop
      vertex -1.02846 -11.2743 -5
      vertex -0.799999 -11.1144 -0.0499992
      vertex -1.02846 -11.2743 -0.0499992
    endloop
  endfacet
  facet normal 0.573408 -0.81927 0
    outer loop
      vertex -0.799999 -11.1144 -0.0499992
      vertex -1.02846 -11.2743 -5
      vertex -0.799999 -11.1144 -5
    endloop
  endfacet
  facet normal 0.422715 -0.906263 0
    outer loop
      vertex -0.799999 -11.1144 -5
      vertex -0.547232 -10.9965 -0.0499992
      vertex -0.799999 -11.1144 -0.0499992
    endloop
  endfacet
  facet normal 0.422715 -0.906263 0
    outer loop
      vertex -0.547232 -10.9965 -0.0499992
      vertex -0.799999 -11.1144 -5
      vertex -0.547232 -10.9965 -5
    endloop
  endfacet
  facet normal -0.422715 0.906263 0
    outer loop
      vertex 0.799999 -13.8856 -5
      vertex 0.547232 -14.0035 -0.0499992
      vertex 0.799999 -13.8856 -0.0499992
    endloop
  endfacet
  facet normal -0.422715 0.906263 0
    outer loop
      vertex 0.547232 -14.0035 -0.0499992
      vertex 0.799999 -13.8856 -5
      vertex 0.547232 -14.0035 -5
    endloop
  endfacet
  facet normal 0.996193 0.0871758 0
    outer loop
      vertex -1.57569 -12.7778 -0.0499992
      vertex -1.6 -12.5 -5
      vertex -1.6 -12.5 -0.0499992
    endloop
  endfacet
  facet normal 0.996193 0.0871758 0
    outer loop
      vertex -1.6 -12.5 -5
      vertex -1.57569 -12.7778 -0.0499992
      vertex -1.57569 -12.7778 -5
    endloop
  endfacet
  facet normal -0.573408 -0.81927 0
    outer loop
      vertex 0.799999 -11.1144 -5
      vertex 1.02846 -11.2743 -0.0499992
      vertex 0.799999 -11.1144 -0.0499992
    endloop
  endfacet
  facet normal -0.573408 -0.81927 -0
    outer loop
      vertex 1.02846 -11.2743 -0.0499992
      vertex 0.799999 -11.1144 -5
      vertex 1.02846 -11.2743 -5
    endloop
  endfacet
  facet normal -0.258872 -0.965912 0
    outer loop
      vertex 0.277837 -10.9243 -5
      vertex 0.547232 -10.9965 -0.0499992
      vertex 0.277837 -10.9243 -0.0499992
    endloop
  endfacet
  facet normal -0.258872 -0.965912 -0
    outer loop
      vertex 0.547232 -10.9965 -0.0499992
      vertex 0.277837 -10.9243 -5
      vertex 0.547232 -10.9965 -5
    endloop
  endfacet
  facet normal -0.573408 0.81927 0
    outer loop
      vertex 1.02846 -13.7257 -5
      vertex 0.799999 -13.8856 -0.0499992
      vertex 1.02846 -13.7257 -0.0499992
    endloop
  endfacet
  facet normal -0.573408 0.81927 0
    outer loop
      vertex 0.799999 -13.8856 -0.0499992
      vertex 1.02846 -13.7257 -5
      vertex 0.799999 -13.8856 -5
    endloop
  endfacet
  facet normal 0.965931 -0.258801 0
    outer loop
      vertex -1.57569 -12.2222 -0.0499992
      vertex -1.50351 -11.9528 -5
      vertex -1.50351 -11.9528 -0.0499992
    endloop
  endfacet
  facet normal 0.965931 -0.258801 0
    outer loop
      vertex -1.50351 -11.9528 -5
      vertex -1.57569 -12.2222 -0.0499992
      vertex -1.57569 -12.2222 -5
    endloop
  endfacet
  facet normal 0.819198 -0.57351 0
    outer loop
      vertex -1.38564 -11.7 -0.0499992
      vertex -1.22567 -11.4715 -5
      vertex -1.22567 -11.4715 -0.0499992
    endloop
  endfacet
  facet normal 0.819198 -0.57351 0
    outer loop
      vertex -1.22567 -11.4715 -5
      vertex -1.38564 -11.7 -0.0499992
      vertex -1.38564 -11.7 -5
    endloop
  endfacet
  facet normal 0.819198 0.57351 0
    outer loop
      vertex -1.22567 -13.5285 -0.0499992
      vertex -1.38564 -13.3 -5
      vertex -1.38564 -13.3 -0.0499992
    endloop
  endfacet
  facet normal 0.819198 0.57351 0
    outer loop
      vertex -1.38564 -13.3 -5
      vertex -1.22567 -13.5285 -0.0499992
      vertex -1.22567 -13.5285 -5
    endloop
  endfacet
  facet normal -0.258872 0.965912 0
    outer loop
      vertex 0.547232 -14.0035 -5
      vertex 0.277837 -14.0757 -0.0499992
      vertex 0.547232 -14.0035 -0.0499992
    endloop
  endfacet
  facet normal -0.258872 0.965912 0
    outer loop
      vertex 0.277837 -14.0757 -0.0499992
      vertex 0.547232 -14.0035 -5
      vertex 0.277837 -14.0757 -5
    endloop
  endfacet
  facet normal -0.707089 -0.707125 0
    outer loop
      vertex 1.22567 -11.4715 -5
      vertex 1.02846 -11.2743 -0.0499992
      vertex 1.02846 -11.2743 -5
    endloop
  endfacet
  facet normal -0.707089 -0.707125 0
    outer loop
      vertex 1.02846 -11.2743 -0.0499992
      vertex 1.22567 -11.4715 -5
      vertex 1.22567 -11.4715 -0.0499992
    endloop
  endfacet
  facet normal -0.965931 0.258801 0
    outer loop
      vertex 1.50351 -13.0472 -5
      vertex 1.57569 -12.7778 -0.0499992
      vertex 1.57569 -12.7778 -5
    endloop
  endfacet
  facet normal -0.965931 0.258801 0
    outer loop
      vertex 1.57569 -12.7778 -0.0499992
      vertex 1.50351 -13.0472 -5
      vertex 1.50351 -13.0472 -0.0499992
    endloop
  endfacet
  facet normal 0.707089 0.707125 0
    outer loop
      vertex -1.02846 -13.7257 -0.0499992
      vertex -1.22567 -13.5285 -5
      vertex -1.22567 -13.5285 -0.0499992
    endloop
  endfacet
  facet normal 0.707089 0.707125 0
    outer loop
      vertex -1.22567 -13.5285 -5
      vertex -1.02846 -13.7257 -0.0499992
      vertex -1.02846 -13.7257 -5
    endloop
  endfacet
  facet normal 0.906325 -0.422581 0
    outer loop
      vertex -1.50351 -11.9528 -0.0499992
      vertex -1.38564 -11.7 -5
      vertex -1.38564 -11.7 -0.0499992
    endloop
  endfacet
  facet normal 0.906325 -0.422581 0
    outer loop
      vertex -1.38564 -11.7 -5
      vertex -1.50351 -11.9528 -0.0499992
      vertex -1.50351 -11.9528 -5
    endloop
  endfacet
  facet normal 0.573408 0.81927 -0
    outer loop
      vertex -0.799999 -13.8856 -5
      vertex -1.02846 -13.7257 -0.0499992
      vertex -0.799999 -13.8856 -0.0499992
    endloop
  endfacet
  facet normal 0.573408 0.81927 0
    outer loop
      vertex -1.02846 -13.7257 -0.0499992
      vertex -0.799999 -13.8856 -5
      vertex -1.02846 -13.7257 -5
    endloop
  endfacet
  facet normal -0.0871287 0.996197 0
    outer loop
      vertex 0.277837 -14.0757 -5
      vertex 0 -14.1 -0.0499992
      vertex 0.277837 -14.0757 -0.0499992
    endloop
  endfacet
  facet normal -0.0871287 0.996197 0
    outer loop
      vertex 0 -14.1 -0.0499992
      vertex 0.277837 -14.0757 -5
      vertex 0 -14.1 -5
    endloop
  endfacet
  facet normal -0.0871287 -0.996197 0
    outer loop
      vertex 0 -10.9 -5
      vertex 0.277837 -10.9243 -0.0499992
      vertex 0 -10.9 -0.0499992
    endloop
  endfacet
  facet normal -0.0871287 -0.996197 -0
    outer loop
      vertex 0.277837 -10.9243 -0.0499992
      vertex 0 -10.9 -5
      vertex 0.277837 -10.9243 -5
    endloop
  endfacet
  facet normal -0.422715 -0.906263 0
    outer loop
      vertex 0.547232 -10.9965 -5
      vertex 0.799999 -11.1144 -0.0499992
      vertex 0.547232 -10.9965 -0.0499992
    endloop
  endfacet
  facet normal -0.422715 -0.906263 -0
    outer loop
      vertex 0.799999 -11.1144 -0.0499992
      vertex 0.547232 -10.9965 -5
      vertex 0.799999 -11.1144 -5
    endloop
  endfacet
  facet normal 0.0871287 0.996197 -0
    outer loop
      vertex 0 -14.1 -5
      vertex -0.277837 -14.0757 -0.0499992
      vertex 0 -14.1 -0.0499992
    endloop
  endfacet
  facet normal 0.0871287 0.996197 0
    outer loop
      vertex -0.277837 -14.0757 -0.0499992
      vertex 0 -14.1 -5
      vertex -0.277837 -14.0757 -5
    endloop
  endfacet
  facet normal 0.258872 0.965912 -0
    outer loop
      vertex -0.277837 -14.0757 -5
      vertex -0.547232 -14.0035 -0.0499992
      vertex -0.277837 -14.0757 -0.0499992
    endloop
  endfacet
  facet normal 0.258872 0.965912 0
    outer loop
      vertex -0.547232 -14.0035 -0.0499992
      vertex -0.277837 -14.0757 -5
      vertex -0.547232 -14.0035 -5
    endloop
  endfacet
  facet normal 0.996193 -0.0871758 0
    outer loop
      vertex -1.6 -12.5 -0.0499992
      vertex -1.57569 -12.2222 -5
      vertex -1.57569 -12.2222 -0.0499992
    endloop
  endfacet
  facet normal 0.996193 -0.0871758 0
    outer loop
      vertex -1.57569 -12.2222 -5
      vertex -1.6 -12.5 -0.0499992
      vertex -1.6 -12.5 -5
    endloop
  endfacet
  facet normal 0.965931 0.258801 0
    outer loop
      vertex -1.50351 -13.0472 -0.0499992
      vertex -1.57569 -12.7778 -5
      vertex -1.57569 -12.7778 -0.0499992
    endloop
  endfacet
  facet normal 0.965931 0.258801 0
    outer loop
      vertex -1.57569 -12.7778 -5
      vertex -1.50351 -13.0472 -0.0499992
      vertex -1.50351 -13.0472 -5
    endloop
  endfacet
  facet normal 0.422715 0.906263 -0
    outer loop
      vertex -0.547232 -14.0035 -5
      vertex -0.799999 -13.8856 -0.0499992
      vertex -0.547232 -14.0035 -0.0499992
    endloop
  endfacet
  facet normal 0.422715 0.906263 0
    outer loop
      vertex -0.799999 -13.8856 -0.0499992
      vertex -0.547232 -14.0035 -5
      vertex -0.799999 -13.8856 -5
    endloop
  endfacet
  facet normal 0 1 -0
    outer loop
      vertex 1.55 -2.68468 -5
      vertex -1.55 -2.68468 0.0499992
      vertex 1.55 -2.68468 0.0499992
    endloop
  endfacet
  facet normal 0 1 0
    outer loop
      vertex -1.55 -2.68468 0.0499992
      vertex 1.55 -2.68468 -5
      vertex -1.55 -2.68468 -5
    endloop
  endfacet
  facet normal 0.866026 0.5 0
    outer loop
      vertex -1.55 -2.68468 0.0499992
      vertex -3.1 0 -5
      vertex -3.1 0 0.0499992
    endloop
  endfacet
  facet normal 0.866026 0.5 0
    outer loop
      vertex -3.1 0 -5
      vertex -1.55 -2.68468 0.0499992
      vertex -1.55 -2.68468 -5
    endloop
  endfacet
  facet normal 0 -1 0
    outer loop
      vertex -1.55 2.68468 -5
      vertex 1.55 2.68468 0.0499992
      vertex -1.55 2.68468 0.0499992
    endloop
  endfacet
  facet normal 0 -1 -0
    outer loop
      vertex 1.55 2.68468 0.0499992
      vertex -1.55 2.68468 -5
      vertex 1.55 2.68468 -5
    endloop
  endfacet
  facet normal 0.866026 -0.5 0
    outer loop
      vertex -3.1 0 0.0499992
      vertex -1.55 2.68468 -5
      vertex -1.55 2.68468 0.0499992
    endloop
  endfacet
  facet normal 0.866026 -0.5 0
    outer loop
      vertex -1.55 2.68468 -5
      vertex -3.1 0 0.0499992
      vertex -3.1 0 -5
    endloop
  endfacet
  facet normal -0.866026 -0.5 0
    outer loop
      vertex 3.1 0 -5
      vertex 1.55 2.68468 0.0499992
      vertex 1.55 2.68468 -5
    endloop
  endfacet
  facet normal -0.866026 -0.5 0
    outer loop
      vertex 1.55 2.68468 0.0499992
      vertex 3.1 0 -5
      vertex 3.1 0 0.0499992
    endloop
  endfacet
  facet normal -0.866026 0.5 0
    outer loop
      vertex 1.55 -2.68468 -5
      vertex 3.1 0 0.0499992
      vertex 3.1 0 -5
    endloop
  endfacet
  facet normal -0.866026 0.5 0
    outer loop
      vertex 3.1 0 0.0499992
      vertex 1.55 -2.68468 -5
      vertex 1.55 -2.68468 0.0499992
    endloop
  endfacet
  facet normal -0 0 -1
    outer loop
      vertex 3.1 0 0.0499992
      vertex 1.57569 -0.277837 0.0499992
      vertex 1.6 0 0.0499992
    endloop
  endfacet
  facet normal 0 0 -1
    outer loop
      vertex 1.38564 -0.799999 0.0499992
      vertex 3.1 0 0.0499992
      vertex 1.55 -2.68468 0.0499992
    endloop
  endfacet
  facet normal 0 0 -1
    outer loop
      vertex 3.1 0 0.0499992
      vertex 1.50351 -0.547232 0.0499992
      vertex 1.57569 -0.277837 0.0499992
    endloop
  endfacet
  facet normal 0 0 -1
    outer loop
      vertex 3.1 0 0.0499992
      vertex 1.38564 -0.799999 0.0499992
      vertex 1.50351 -0.547232 0.0499992
    endloop
  endfacet
  facet normal 0 0 -1
    outer loop
      vertex 1.55 -2.68468 0.0499992
      vertex 1.22567 -1.02846 0.0499992
      vertex 1.38564 -0.799999 0.0499992
    endloop
  endfacet
  facet normal 0 0 -1
    outer loop
      vertex 1.55 -2.68468 0.0499992
      vertex 1.02846 -1.22567 0.0499992
      vertex 1.22567 -1.02846 0.0499992
    endloop
  endfacet
  facet normal 0 0 -1
    outer loop
      vertex 1.55 -2.68468 0.0499992
      vertex 0.799999 -1.38564 0.0499992
      vertex 1.02846 -1.22567 0.0499992
    endloop
  endfacet
  facet normal 0 0 -1
    outer loop
      vertex 1.55 -2.68468 0.0499992
      vertex 0.547232 -1.50351 0.0499992
      vertex 0.799999 -1.38564 0.0499992
    endloop
  endfacet
  facet normal 0 0 -1
    outer loop
      vertex 1.55 -2.68468 0.0499992
      vertex 0.277837 -1.57569 0.0499992
      vertex 0.547232 -1.50351 0.0499992
    endloop
  endfacet
  facet normal 0 0 -1
    outer loop
      vertex 1.55 -2.68468 0.0499992
      vertex 0 -1.6 0.0499992
      vertex 0.277837 -1.57569 0.0499992
    endloop
  endfacet
  facet normal 0 0 -1
    outer loop
      vertex -1.55 -2.68468 0.0499992
      vertex 0 -1.6 0.0499992
      vertex 1.55 -2.68468 0.0499992
    endloop
  endfacet
  facet normal -0 0 -1
    outer loop
      vertex 0 -1.6 0.0499992
      vertex -1.55 -2.68468 0.0499992
      vertex -0.277837 -1.57569 0.0499992
    endloop
  endfacet
  facet normal -0 0 -1
    outer loop
      vertex -0.277837 -1.57569 0.0499992
      vertex -1.55 -2.68468 0.0499992
      vertex -0.547232 -1.50351 0.0499992
    endloop
  endfacet
  facet normal -0 0 -1
    outer loop
      vertex -0.547232 -1.50351 0.0499992
      vertex -1.55 -2.68468 0.0499992
      vertex -0.799999 -1.38564 0.0499992
    endloop
  endfacet
  facet normal 0 0 -1
    outer loop
      vertex -1.55 -2.68468 0.0499992
      vertex -1.02846 -1.22567 0.0499992
      vertex -0.799999 -1.38564 0.0499992
    endloop
  endfacet
  facet normal 0 0 -1
    outer loop
      vertex -1.55 -2.68468 0.0499992
      vertex -1.22567 -1.02846 0.0499992
      vertex -1.02846 -1.22567 0.0499992
    endloop
  endfacet
  facet normal 0 0 -1
    outer loop
      vertex -1.55 -2.68468 0.0499992
      vertex -1.38564 -0.799999 0.0499992
      vertex -1.22567 -1.02846 0.0499992
    endloop
  endfacet
  facet normal 0 0 -1
    outer loop
      vertex -3.1 0 0.0499992
      vertex -1.38564 -0.799999 0.0499992
      vertex -1.55 -2.68468 0.0499992
    endloop
  endfacet
  facet normal 0 0 -1
    outer loop
      vertex -1.38564 -0.799999 0.0499992
      vertex -3.1 0 0.0499992
      vertex -1.50351 -0.547232 0.0499992
    endloop
  endfacet
  facet normal 0 0 -1
    outer loop
      vertex -1.50351 -0.547232 0.0499992
      vertex -3.1 0 0.0499992
      vertex -1.57569 -0.277837 0.0499992
    endloop
  endfacet
  facet normal 0 0 -1
    outer loop
      vertex -1.57569 -0.277837 0.0499992
      vertex -3.1 0 0.0499992
      vertex -1.6 0 0.0499992
    endloop
  endfacet
  facet normal 0 0 -1
    outer loop
      vertex 1.57569 0.277837 0.0499992
      vertex 3.1 0 0.0499992
      vertex 1.6 0 0.0499992
    endloop
  endfacet
  facet normal 0 0 -1
    outer loop
      vertex 1.50351 0.547232 0.0499992
      vertex 3.1 0 0.0499992
      vertex 1.57569 0.277837 0.0499992
    endloop
  endfacet
  facet normal 0 0 -1
    outer loop
      vertex 1.38564 0.799999 0.0499992
      vertex 3.1 0 0.0499992
      vertex 1.50351 0.547232 0.0499992
    endloop
  endfacet
  facet normal 0 0 -1
    outer loop
      vertex 3.1 0 0.0499992
      vertex 1.38564 0.799999 0.0499992
      vertex 1.55 2.68468 0.0499992
    endloop
  endfacet
  facet normal 0 0 -1
    outer loop
      vertex 1.22567 1.02846 0.0499992
      vertex 1.55 2.68468 0.0499992
      vertex 1.38564 0.799999 0.0499992
    endloop
  endfacet
  facet normal 0 0 -1
    outer loop
      vertex 1.02846 1.22567 0.0499992
      vertex 1.55 2.68468 0.0499992
      vertex 1.22567 1.02846 0.0499992
    endloop
  endfacet
  facet normal 0 0 -1
    outer loop
      vertex 0.799999 1.38564 0.0499992
      vertex 1.55 2.68468 0.0499992
      vertex 1.02846 1.22567 0.0499992
    endloop
  endfacet
  facet normal 0 0 -1
    outer loop
      vertex 0.547232 1.50351 0.0499992
      vertex 1.55 2.68468 0.0499992
      vertex 0.799999 1.38564 0.0499992
    endloop
  endfacet
  facet normal 0 0 -1
    outer loop
      vertex 0.277837 1.57569 0.0499992
      vertex 1.55 2.68468 0.0499992
      vertex 0.547232 1.50351 0.0499992
    endloop
  endfacet
  facet normal 0 0 -1
    outer loop
      vertex 0 1.6 0.0499992
      vertex 1.55 2.68468 0.0499992
      vertex 0.277837 1.57569 0.0499992
    endloop
  endfacet
  facet normal 0 0 -1
    outer loop
      vertex -1.55 2.68468 0.0499992
      vertex 0 1.6 0.0499992
      vertex -0.277837 1.57569 0.0499992
    endloop
  endfacet
  facet normal 0 0 -1
    outer loop
      vertex -1.55 2.68468 0.0499992
      vertex -0.277837 1.57569 0.0499992
      vertex -0.547232 1.50351 0.0499992
    endloop
  endfacet
  facet normal 0 0 -1
    outer loop
      vertex -1.55 2.68468 0.0499992
      vertex -0.547232 1.50351 0.0499992
      vertex -0.799999 1.38564 0.0499992
    endloop
  endfacet
  facet normal 0 0 -1
    outer loop
      vertex 0 1.6 0.0499992
      vertex -1.55 2.68468 0.0499992
      vertex 1.55 2.68468 0.0499992
    endloop
  endfacet
  facet normal 0 0 -1
    outer loop
      vertex -1.02846 1.22567 0.0499992
      vertex -1.55 2.68468 0.0499992
      vertex -0.799999 1.38564 0.0499992
    endloop
  endfacet
  facet normal 0 0 -1
    outer loop
      vertex -1.22567 1.02846 0.0499992
      vertex -1.55 2.68468 0.0499992
      vertex -1.02846 1.22567 0.0499992
    endloop
  endfacet
  facet normal 0 0 -1
    outer loop
      vertex -1.38564 0.799999 0.0499992
      vertex -1.55 2.68468 0.0499992
      vertex -1.22567 1.02846 0.0499992
    endloop
  endfacet
  facet normal 0 0 -1
    outer loop
      vertex -3.1 0 0.0499992
      vertex -1.38564 0.799999 0.0499992
      vertex -1.50351 0.547232 0.0499992
    endloop
  endfacet
  facet normal 0 0 -1
    outer loop
      vertex -3.1 0 0.0499992
      vertex -1.50351 0.547232 0.0499992
      vertex -1.57569 0.277837 0.0499992
    endloop
  endfacet
  facet normal 0 0 -1
    outer loop
      vertex -3.1 0 0.0499992
      vertex -1.57569 0.277837 0.0499992
      vertex -1.6 0 0.0499992
    endloop
  endfacet
  facet normal -0 0 -1
    outer loop
      vertex -1.38564 0.799999 0.0499992
      vertex -3.1 0 0.0499992
      vertex -1.55 2.68468 0.0499992
    endloop
  endfacet
  facet normal -0.258805 -0.96593 0
    outer loop
      vertex 0.277837 1.57569 0.0499992
      vertex 0.547232 1.50351 5
      vertex 0.277837 1.57569 5
    endloop
  endfacet
  facet normal -0.258805 -0.96593 -0
    outer loop
      vertex 0.547232 1.50351 5
      vertex 0.277837 1.57569 0.0499992
      vertex 0.547232 1.50351 0.0499992
    endloop
  endfacet
  facet normal 0.96593 -0.258805 0
    outer loop
      vertex -1.57569 0.277837 5
      vertex -1.50351 0.547232 0.0499992
      vertex -1.50351 0.547232 5
    endloop
  endfacet
  facet normal 0.96593 -0.258805 0
    outer loop
      vertex -1.50351 0.547232 0.0499992
      vertex -1.57569 0.277837 5
      vertex -1.57569 0.277837 0.0499992
    endloop
  endfacet
  facet normal 0.996194 -0.0871643 0
    outer loop
      vertex -1.6 0 5
      vertex -1.57569 0.277837 0.0499992
      vertex -1.57569 0.277837 5
    endloop
  endfacet
  facet normal 0.996194 -0.0871643 0
    outer loop
      vertex -1.57569 0.277837 0.0499992
      vertex -1.6 0 5
      vertex -1.6 0 0.0499992
    endloop
  endfacet
  facet normal 0.906304 -0.422627 0
    outer loop
      vertex -1.50351 0.547232 5
      vertex -1.38564 0.799999 0.0499992
      vertex -1.38564 0.799999 5
    endloop
  endfacet
  facet normal 0.906304 -0.422627 0
    outer loop
      vertex -1.38564 0.799999 0.0499992
      vertex -1.50351 0.547232 5
      vertex -1.50351 0.547232 0.0499992
    endloop
  endfacet
  facet normal -0.906304 0.422627 0
    outer loop
      vertex 1.38564 -0.799999 0.0499992
      vertex 1.50351 -0.547232 5
      vertex 1.50351 -0.547232 0.0499992
    endloop
  endfacet
  facet normal -0.906304 0.422627 0
    outer loop
      vertex 1.50351 -0.547232 5
      vertex 1.38564 -0.799999 0.0499992
      vertex 1.38564 -0.799999 5
    endloop
  endfacet
  facet normal 0.906304 0.422627 0
    outer loop
      vertex -1.38564 -0.799999 5
      vertex -1.50351 -0.547232 0.0499992
      vertex -1.50351 -0.547232 5
    endloop
  endfacet
  facet normal 0.906304 0.422627 0
    outer loop
      vertex -1.50351 -0.547232 0.0499992
      vertex -1.38564 -0.799999 5
      vertex -1.38564 -0.799999 0.0499992
    endloop
  endfacet
  facet normal 0.819152 0.573576 0
    outer loop
      vertex -1.22567 -1.02846 5
      vertex -1.38564 -0.799999 0.0499992
      vertex -1.38564 -0.799999 5
    endloop
  endfacet
  facet normal 0.819152 0.573576 0
    outer loop
      vertex -1.38564 -0.799999 0.0499992
      vertex -1.22567 -1.02846 5
      vertex -1.22567 -1.02846 0.0499992
    endloop
  endfacet
  facet normal 0.996194 0.0871643 0
    outer loop
      vertex -1.57569 -0.277837 5
      vertex -1.6 0 0.0499992
      vertex -1.6 0 5
    endloop
  endfacet
  facet normal 0.996194 0.0871643 0
    outer loop
      vertex -1.6 0 0.0499992
      vertex -1.57569 -0.277837 5
      vertex -1.57569 -0.277837 0.0499992
    endloop
  endfacet
  facet normal 0.819152 -0.573576 0
    outer loop
      vertex -1.38564 0.799999 5
      vertex -1.22567 1.02846 0.0499992
      vertex -1.22567 1.02846 5
    endloop
  endfacet
  facet normal 0.819152 -0.573576 0
    outer loop
      vertex -1.22567 1.02846 0.0499992
      vertex -1.38564 0.799999 5
      vertex -1.38564 0.799999 0.0499992
    endloop
  endfacet
  facet normal 0.707107 0.707107 0
    outer loop
      vertex -1.02846 -1.22567 5
      vertex -1.22567 -1.02846 0.0499992
      vertex -1.22567 -1.02846 5
    endloop
  endfacet
  facet normal 0.707107 0.707107 0
    outer loop
      vertex -1.22567 -1.02846 0.0499992
      vertex -1.02846 -1.22567 5
      vertex -1.02846 -1.22567 0.0499992
    endloop
  endfacet
  facet normal -0.707107 -0.707107 0
    outer loop
      vertex 1.22567 1.02846 0.0499992
      vertex 1.02846 1.22567 5
      vertex 1.02846 1.22567 0.0499992
    endloop
  endfacet
  facet normal -0.707107 -0.707107 0
    outer loop
      vertex 1.02846 1.22567 5
      vertex 1.22567 1.02846 0.0499992
      vertex 1.22567 1.02846 5
    endloop
  endfacet
  facet normal -0.0871643 -0.996194 0
    outer loop
      vertex 0 1.6 0.0499992
      vertex 0.277837 1.57569 5
      vertex 0 1.6 5
    endloop
  endfacet
  facet normal -0.0871643 -0.996194 -0
    outer loop
      vertex 0.277837 1.57569 5
      vertex 0 1.6 0.0499992
      vertex 0.277837 1.57569 0.0499992
    endloop
  endfacet
  facet normal -0.573576 -0.819152 0
    outer loop
      vertex 0.799999 1.38564 0.0499992
      vertex 1.02846 1.22567 5
      vertex 0.799999 1.38564 5
    endloop
  endfacet
  facet normal -0.573576 -0.819152 -0
    outer loop
      vertex 1.02846 1.22567 5
      vertex 0.799999 1.38564 0.0499992
      vertex 1.02846 1.22567 0.0499992
    endloop
  endfacet
  facet normal -0.422627 -0.906304 0
    outer loop
      vertex 0.547232 1.50351 0.0499992
      vertex 0.799999 1.38564 5
      vertex 0.547232 1.50351 5
    endloop
  endfacet
  facet normal -0.422627 -0.906304 -0
    outer loop
      vertex 0.799999 1.38564 5
      vertex 0.547232 1.50351 0.0499992
      vertex 0.799999 1.38564 0.0499992
    endloop
  endfacet
  facet normal 0.422627 0.906304 -0
    outer loop
      vertex -0.547232 -1.50351 0.0499992
      vertex -0.799999 -1.38564 5
      vertex -0.547232 -1.50351 5
    endloop
  endfacet
  facet normal 0.422627 0.906304 0
    outer loop
      vertex -0.799999 -1.38564 5
      vertex -0.547232 -1.50351 0.0499992
      vertex -0.799999 -1.38564 0.0499992
    endloop
  endfacet
  facet normal -0.996194 0.0871643 0
    outer loop
      vertex 1.57569 -0.277837 0.0499992
      vertex 1.6 0 5
      vertex 1.6 0 0.0499992
    endloop
  endfacet
  facet normal -0.996194 0.0871643 0
    outer loop
      vertex 1.6 0 5
      vertex 1.57569 -0.277837 0.0499992
      vertex 1.57569 -0.277837 5
    endloop
  endfacet
  facet normal 0.573576 -0.819152 0
    outer loop
      vertex -1.02846 1.22567 0.0499992
      vertex -0.799999 1.38564 5
      vertex -1.02846 1.22567 5
    endloop
  endfacet
  facet normal 0.573576 -0.819152 0
    outer loop
      vertex -0.799999 1.38564 5
      vertex -1.02846 1.22567 0.0499992
      vertex -0.799999 1.38564 0.0499992
    endloop
  endfacet
  facet normal 0.258805 -0.96593 0
    outer loop
      vertex -0.547232 1.50351 0.0499992
      vertex -0.277837 1.57569 5
      vertex -0.547232 1.50351 5
    endloop
  endfacet
  facet normal 0.258805 -0.96593 0
    outer loop
      vertex -0.277837 1.57569 5
      vertex -0.547232 1.50351 0.0499992
      vertex -0.277837 1.57569 0.0499992
    endloop
  endfacet
  facet normal 0.573576 0.819152 -0
    outer loop
      vertex -0.799999 -1.38564 0.0499992
      vertex -1.02846 -1.22567 5
      vertex -0.799999 -1.38564 5
    endloop
  endfacet
  facet normal 0.573576 0.819152 0
    outer loop
      vertex -1.02846 -1.22567 5
      vertex -0.799999 -1.38564 0.0499992
      vertex -1.02846 -1.22567 0.0499992
    endloop
  endfacet
  facet normal -0.96593 -0.258805 0
    outer loop
      vertex 1.57569 0.277837 0.0499992
      vertex 1.50351 0.547232 5
      vertex 1.50351 0.547232 0.0499992
    endloop
  endfacet
  facet normal -0.96593 -0.258805 0
    outer loop
      vertex 1.50351 0.547232 5
      vertex 1.57569 0.277837 0.0499992
      vertex 1.57569 0.277837 5
    endloop
  endfacet
  facet normal -0.819152 -0.573576 0
    outer loop
      vertex 1.38564 0.799999 0.0499992
      vertex 1.22567 1.02846 5
      vertex 1.22567 1.02846 0.0499992
    endloop
  endfacet
  facet normal -0.819152 -0.573576 0
    outer loop
      vertex 1.22567 1.02846 5
      vertex 1.38564 0.799999 0.0499992
      vertex 1.38564 0.799999 5
    endloop
  endfacet
  facet normal -0.819152 0.573576 0
    outer loop
      vertex 1.22567 -1.02846 0.0499992
      vertex 1.38564 -0.799999 5
      vertex 1.38564 -0.799999 0.0499992
    endloop
  endfacet
  facet normal -0.819152 0.573576 0
    outer loop
      vertex 1.38564 -0.799999 5
      vertex 1.22567 -1.02846 0.0499992
      vertex 1.22567 -1.02846 5
    endloop
  endfacet
  facet normal 0.258805 0.96593 -0
    outer loop
      vertex -0.277837 -1.57569 0.0499992
      vertex -0.547232 -1.50351 5
      vertex -0.277837 -1.57569 5
    endloop
  endfacet
  facet normal 0.258805 0.96593 0
    outer loop
      vertex -0.547232 -1.50351 5
      vertex -0.277837 -1.57569 0.0499992
      vertex -0.547232 -1.50351 0.0499992
    endloop
  endfacet
  facet normal 0.707107 -0.707107 0
    outer loop
      vertex -1.22567 1.02846 5
      vertex -1.02846 1.22567 0.0499992
      vertex -1.02846 1.22567 5
    endloop
  endfacet
  facet normal 0.707107 -0.707107 0
    outer loop
      vertex -1.02846 1.22567 0.0499992
      vertex -1.22567 1.02846 5
      vertex -1.22567 1.02846 0.0499992
    endloop
  endfacet
  facet normal 0.96593 0.258805 0
    outer loop
      vertex -1.50351 -0.547232 5
      vertex -1.57569 -0.277837 0.0499992
      vertex -1.57569 -0.277837 5
    endloop
  endfacet
  facet normal 0.96593 0.258805 0
    outer loop
      vertex -1.57569 -0.277837 0.0499992
      vertex -1.50351 -0.547232 5
      vertex -1.50351 -0.547232 0.0499992
    endloop
  endfacet
  facet normal -0.707107 0.707107 0
    outer loop
      vertex 1.02846 -1.22567 0.0499992
      vertex 1.22567 -1.02846 5
      vertex 1.22567 -1.02846 0.0499992
    endloop
  endfacet
  facet normal -0.707107 0.707107 0
    outer loop
      vertex 1.22567 -1.02846 5
      vertex 1.02846 -1.22567 0.0499992
      vertex 1.02846 -1.22567 5
    endloop
  endfacet
  facet normal -0.906304 -0.422627 0
    outer loop
      vertex 1.50351 0.547232 0.0499992
      vertex 1.38564 0.799999 5
      vertex 1.38564 0.799999 0.0499992
    endloop
  endfacet
  facet normal -0.906304 -0.422627 0
    outer loop
      vertex 1.38564 0.799999 5
      vertex 1.50351 0.547232 0.0499992
      vertex 1.50351 0.547232 5
    endloop
  endfacet
  facet normal -0.573576 0.819152 0
    outer loop
      vertex 1.02846 -1.22567 0.0499992
      vertex 0.799999 -1.38564 5
      vertex 1.02846 -1.22567 5
    endloop
  endfacet
  facet normal -0.573576 0.819152 0
    outer loop
      vertex 0.799999 -1.38564 5
      vertex 1.02846 -1.22567 0.0499992
      vertex 0.799999 -1.38564 0.0499992
    endloop
  endfacet
  facet normal 0.0871643 0.996194 -0
    outer loop
      vertex 0 -1.6 0.0499992
      vertex -0.277837 -1.57569 5
      vertex 0 -1.6 5
    endloop
  endfacet
  facet normal 0.0871643 0.996194 0
    outer loop
      vertex -0.277837 -1.57569 5
      vertex 0 -1.6 0.0499992
      vertex -0.277837 -1.57569 0.0499992
    endloop
  endfacet
  facet normal 0.0871643 -0.996194 0
    outer loop
      vertex -0.277837 1.57569 0.0499992
      vertex 0 1.6 5
      vertex -0.277837 1.57569 5
    endloop
  endfacet
  facet normal 0.0871643 -0.996194 0
    outer loop
      vertex 0 1.6 5
      vertex -0.277837 1.57569 0.0499992
      vertex 0 1.6 0.0499992
    endloop
  endfacet
  facet normal 0.422627 -0.906304 0
    outer loop
      vertex -0.799999 1.38564 0.0499992
      vertex -0.547232 1.50351 5
      vertex -0.799999 1.38564 5
    endloop
  endfacet
  facet normal 0.422627 -0.906304 0
    outer loop
      vertex -0.547232 1.50351 5
      vertex -0.799999 1.38564 0.0499992
      vertex -0.547232 1.50351 0.0499992
    endloop
  endfacet
  facet normal -0.0871643 0.996194 0
    outer loop
      vertex 0.277837 -1.57569 0.0499992
      vertex 0 -1.6 5
      vertex 0.277837 -1.57569 5
    endloop
  endfacet
  facet normal -0.0871643 0.996194 0
    outer loop
      vertex 0 -1.6 5
      vertex 0.277837 -1.57569 0.0499992
      vertex 0 -1.6 0.0499992
    endloop
  endfacet
  facet normal -0.258805 0.96593 0
    outer loop
      vertex 0.547232 -1.50351 0.0499992
      vertex 0.277837 -1.57569 5
      vertex 0.547232 -1.50351 5
    endloop
  endfacet
  facet normal -0.258805 0.96593 0
    outer loop
      vertex 0.277837 -1.57569 5
      vertex 0.547232 -1.50351 0.0499992
      vertex 0.277837 -1.57569 0.0499992
    endloop
  endfacet
  facet normal -0.996194 -0.0871643 0
    outer loop
      vertex 1.6 0 0.0499992
      vertex 1.57569 0.277837 5
      vertex 1.57569 0.277837 0.0499992
    endloop
  endfacet
  facet normal -0.996194 -0.0871643 0
    outer loop
      vertex 1.57569 0.277837 5
      vertex 1.6 0 0.0499992
      vertex 1.6 0 5
    endloop
  endfacet
  facet normal -0.96593 0.258805 0
    outer loop
      vertex 1.50351 -0.547232 0.0499992
      vertex 1.57569 -0.277837 5
      vertex 1.57569 -0.277837 0.0499992
    endloop
  endfacet
  facet normal -0.96593 0.258805 0
    outer loop
      vertex 1.57569 -0.277837 5
      vertex 1.50351 -0.547232 0.0499992
      vertex 1.50351 -0.547232 5
    endloop
  endfacet
  facet normal -0.422627 0.906304 0
    outer loop
      vertex 0.799999 -1.38564 0.0499992
      vertex 0.547232 -1.50351 5
      vertex 0.799999 -1.38564 5
    endloop
  endfacet
  facet normal -0.422627 0.906304 0
    outer loop
      vertex 0.547232 -1.50351 5
      vertex 0.799999 -1.38564 0.0499992
      vertex 0.547232 -1.50351 0.0499992
    endloop
  endfacet
  facet normal 1 -0 0
    outer loop
      vertex 4.6 -17.5 5
      vertex 4.6 17.5 -5
      vertex 4.6 17.5 5
    endloop
  endfacet
  facet normal 1 0 0
    outer loop
      vertex 4.6 17.5 -5
      vertex 4.6 -17.5 5
      vertex 4.6 -17.5 -5
    endloop
  endfacet
  facet normal 0 0 1
    outer loop
      vertex 3.1 12.5 5
      vertex 1.6 0 5
      vertex 3.1 -12.5 5
    endloop
  endfacet
  facet normal 0 0 1
    outer loop
      vertex 3.1 12.5 5
      vertex 1.57569 0.277837 5
      vertex 1.6 0 5
    endloop
  endfacet
  facet normal 0 0 1
    outer loop
      vertex 1.50351 0.547232 5
      vertex 3.1 12.5 5
      vertex 1.55 9.81532 5
    endloop
  endfacet
  facet normal 0 0 1
    outer loop
      vertex 3.1 12.5 5
      vertex 1.50351 0.547232 5
      vertex 1.57569 0.277837 5
    endloop
  endfacet
  facet normal 0 0 1
    outer loop
      vertex 1.55 9.81532 5
      vertex 1.38564 0.799999 5
      vertex 1.50351 0.547232 5
    endloop
  endfacet
  facet normal 0 0 1
    outer loop
      vertex 1.55 9.81532 5
      vertex 1.22567 1.02846 5
      vertex 1.38564 0.799999 5
    endloop
  endfacet
  facet normal 0 0 1
    outer loop
      vertex 1.55 9.81532 5
      vertex 1.02846 1.22567 5
      vertex 1.22567 1.02846 5
    endloop
  endfacet
  facet normal 0 0 1
    outer loop
      vertex 1.55 9.81532 5
      vertex 0.799999 1.38564 5
      vertex 1.02846 1.22567 5
    endloop
  endfacet
  facet normal 0 0 1
    outer loop
      vertex 1.55 9.81532 5
      vertex 0.547232 1.50351 5
      vertex 0.799999 1.38564 5
    endloop
  endfacet
  facet normal 0 0 1
    outer loop
      vertex 1.55 9.81532 5
      vertex 0.277837 1.57569 5
      vertex 0.547232 1.50351 5
    endloop
  endfacet
  facet normal 0 0 1
    outer loop
      vertex 1.55 9.81532 5
      vertex 0 1.6 5
      vertex 0.277837 1.57569 5
    endloop
  endfacet
  facet normal -0 0 1
    outer loop
      vertex -1.55 9.81532 5
      vertex 0 1.6 5
      vertex 1.55 9.81532 5
    endloop
  endfacet
  facet normal 0 0 1
    outer loop
      vertex 0 1.6 5
      vertex -1.55 9.81532 5
      vertex -0.277837 1.57569 5
    endloop
  endfacet
  facet normal 0 0 1
    outer loop
      vertex -0.277837 1.57569 5
      vertex -1.55 9.81532 5
      vertex -0.547232 1.50351 5
    endloop
  endfacet
  facet normal 0 0 1
    outer loop
      vertex -0.547232 1.50351 5
      vertex -1.55 9.81532 5
      vertex -0.799999 1.38564 5
    endloop
  endfacet
  facet normal 0 0 1
    outer loop
      vertex -0.799999 1.38564 5
      vertex -1.55 9.81532 5
      vertex -1.02846 1.22567 5
    endloop
  endfacet
  facet normal 0 0 1
    outer loop
      vertex -1.02846 1.22567 5
      vertex -1.55 9.81532 5
      vertex -1.22567 1.02846 5
    endloop
  endfacet
  facet normal 0 0 1
    outer loop
      vertex -1.22567 1.02846 5
      vertex -1.55 9.81532 5
      vertex -1.38564 0.799999 5
    endloop
  endfacet
  facet normal 0 0 1
    outer loop
      vertex -1.38564 0.799999 5
      vertex -1.55 9.81532 5
      vertex -1.50351 0.547232 5
    endloop
  endfacet
  facet normal 0 0 1
    outer loop
      vertex -3.1 12.5 5
      vertex -1.50351 0.547232 5
      vertex -1.55 9.81532 5
    endloop
  endfacet
  facet normal 0 0 1
    outer loop
      vertex -1.50351 0.547232 5
      vertex -3.1 12.5 5
      vertex -1.57569 0.277837 5
    endloop
  endfacet
  facet normal 0 0 1
    outer loop
      vertex -1.57569 0.277837 5
      vertex -3.1 12.5 5
      vertex -1.6 0 5
    endloop
  endfacet
  facet normal 0 0 1
    outer loop
      vertex 4.6 17.5 5
      vertex 3.1 12.5 5
      vertex 4.6 -17.5 5
    endloop
  endfacet
  facet normal 0 0 1
    outer loop
      vertex 4.6 17.5 5
      vertex 1.55 15.1847 5
      vertex 3.1 12.5 5
    endloop
  endfacet
  facet normal 0 0 1
    outer loop
      vertex 4.6 17.5 5
      vertex -1.55 15.1847 5
      vertex 1.55 15.1847 5
    endloop
  endfacet
  facet normal 0 0 1
    outer loop
      vertex -3.1 12.5 5
      vertex -4.6 17.5 5
      vertex -3.1 -12.5 5
    endloop
  endfacet
  facet normal 0 0 1
    outer loop
      vertex -1.55 15.1847 5
      vertex -4.6 17.5 5
      vertex -3.1 12.5 5
    endloop
  endfacet
  facet normal -0 0 1
    outer loop
      vertex -4.6 17.5 5
      vertex -1.55 15.1847 5
      vertex 4.6 17.5 5
    endloop
  endfacet
  facet normal -0 0 1
    outer loop
      vertex 3.1 -12.5 5
      vertex 4.6 -17.5 5
      vertex 3.1 12.5 5
    endloop
  endfacet
  facet normal -0 0 1
    outer loop
      vertex 1.55 -15.1847 5
      vertex 4.6 -17.5 5
      vertex 3.1 -12.5 5
    endloop
  endfacet
  facet normal -0 0 1
    outer loop
      vertex -1.55 -15.1847 5
      vertex 4.6 -17.5 5
      vertex 1.55 -15.1847 5
    endloop
  endfacet
  facet normal 0 0 1
    outer loop
      vertex -1.55 -15.1847 5
      vertex -4.6 -17.5 5
      vertex 4.6 -17.5 5
    endloop
  endfacet
  facet normal 0 0 1
    outer loop
      vertex -3.1 -12.5 5
      vertex -4.6 -17.5 5
      vertex -1.55 -15.1847 5
    endloop
  endfacet
  facet normal 0 0 1
    outer loop
      vertex -4.6 -17.5 5
      vertex -3.1 -12.5 5
      vertex -4.6 17.5 5
    endloop
  endfacet
  facet normal -0 0 1
    outer loop
      vertex 1.57569 -0.277837 5
      vertex 3.1 -12.5 5
      vertex 1.6 0 5
    endloop
  endfacet
  facet normal -0 0 1
    outer loop
      vertex 1.50351 -0.547232 5
      vertex 3.1 -12.5 5
      vertex 1.57569 -0.277837 5
    endloop
  endfacet
  facet normal 0 0 1
    outer loop
      vertex 3.1 -12.5 5
      vertex 1.50351 -0.547232 5
      vertex 1.55 -9.81532 5
    endloop
  endfacet
  facet normal -0 0 1
    outer loop
      vertex 1.38564 -0.799999 5
      vertex 1.55 -9.81532 5
      vertex 1.50351 -0.547232 5
    endloop
  endfacet
  facet normal -0 0 1
    outer loop
      vertex 1.22567 -1.02846 5
      vertex 1.55 -9.81532 5
      vertex 1.38564 -0.799999 5
    endloop
  endfacet
  facet normal -0 0 1
    outer loop
      vertex 1.02846 -1.22567 5
      vertex 1.55 -9.81532 5
      vertex 1.22567 -1.02846 5
    endloop
  endfacet
  facet normal -0 0 1
    outer loop
      vertex 0.799999 -1.38564 5
      vertex 1.55 -9.81532 5
      vertex 1.02846 -1.22567 5
    endloop
  endfacet
  facet normal -0 0 1
    outer loop
      vertex 0.547232 -1.50351 5
      vertex 1.55 -9.81532 5
      vertex 0.799999 -1.38564 5
    endloop
  endfacet
  facet normal -0 0 1
    outer loop
      vertex 0.277837 -1.57569 5
      vertex 1.55 -9.81532 5
      vertex 0.547232 -1.50351 5
    endloop
  endfacet
  facet normal -0 0 1
    outer loop
      vertex 0 -1.6 5
      vertex 1.55 -9.81532 5
      vertex 0.277837 -1.57569 5
    endloop
  endfacet
  facet normal 0 0 1
    outer loop
      vertex -1.55 -9.81532 5
      vertex 0 -1.6 5
      vertex -0.277837 -1.57569 5
    endloop
  endfacet
  facet normal 0 0 1
    outer loop
      vertex -1.55 -9.81532 5
      vertex -0.277837 -1.57569 5
      vertex -0.547232 -1.50351 5
    endloop
  endfacet
  facet normal 0 0 1
    outer loop
      vertex -1.55 -9.81532 5
      vertex -0.547232 -1.50351 5
      vertex -0.799999 -1.38564 5
    endloop
  endfacet
  facet normal 0 0 1
    outer loop
      vertex -1.55 -9.81532 5
      vertex -0.799999 -1.38564 5
      vertex -1.02846 -1.22567 5
    endloop
  endfacet
  facet normal 0 0 1
    outer loop
      vertex -1.55 -9.81532 5
      vertex -1.02846 -1.22567 5
      vertex -1.22567 -1.02846 5
    endloop
  endfacet
  facet normal 0 0 1
    outer loop
      vertex -1.55 -9.81532 5
      vertex -1.22567 -1.02846 5
      vertex -1.38564 -0.799999 5
    endloop
  endfacet
  facet normal 0 0 1
    outer loop
      vertex -1.55 -9.81532 5
      vertex -1.38564 -0.799999 5
      vertex -1.50351 -0.547232 5
    endloop
  endfacet
  facet normal 0 0 1
    outer loop
      vertex 0 -1.6 5
      vertex -1.55 -9.81532 5
      vertex 1.55 -9.81532 5
    endloop
  endfacet
  facet normal 0 0 1
    outer loop
      vertex -3.1 -12.5 5
      vertex -1.50351 -0.547232 5
      vertex -1.57569 -0.277837 5
    endloop
  endfacet
  facet normal 0 0 1
    outer loop
      vertex -3.1 -12.5 5
      vertex -1.57569 -0.277837 5
      vertex -1.6 0 5
    endloop
  endfacet
  facet normal 0 0 1
    outer loop
      vertex -3.1 -12.5 5
      vertex -1.6 0 5
      vertex -3.1 12.5 5
    endloop
  endfacet
  facet normal 0 0 1
    outer loop
      vertex -1.50351 -0.547232 5
      vertex -3.1 -12.5 5
      vertex -1.55 -9.81532 5
    endloop
  endfacet
  facet normal 0 0 -1
    outer loop
      vertex 4.6 17.5 -5
      vertex 1.57569 12.2222 -5
      vertex 1.6 12.5 -5
    endloop
  endfacet
  facet normal 0 0 -1
    outer loop
      vertex 1.50351 11.9528 -5
      vertex 3.1 0 -5
      vertex 1.55 2.68468 -5
    endloop
  endfacet
  facet normal 0 0 -1
    outer loop
      vertex 4.6 17.5 -5
      vertex 1.50351 11.9528 -5
      vertex 1.57569 12.2222 -5
    endloop
  endfacet
  facet normal 0 0 -1
    outer loop
      vertex 1.55 2.68468 -5
      vertex 1.38564 11.7 -5
      vertex 1.50351 11.9528 -5
    endloop
  endfacet
  facet normal 0 0 -1
    outer loop
      vertex 1.55 2.68468 -5
      vertex 1.22567 11.4715 -5
      vertex 1.38564 11.7 -5
    endloop
  endfacet
  facet normal 0 0 -1
    outer loop
      vertex 1.55 2.68468 -5
      vertex 1.02846 11.2743 -5
      vertex 1.22567 11.4715 -5
    endloop
  endfacet
  facet normal 0 0 -1
    outer loop
      vertex 1.55 2.68468 -5
      vertex 0.799999 11.1144 -5
      vertex 1.02846 11.2743 -5
    endloop
  endfacet
  facet normal 0 0 -1
    outer loop
      vertex 1.55 2.68468 -5
      vertex 0.547232 10.9965 -5
      vertex 0.799999 11.1144 -5
    endloop
  endfacet
  facet normal 0 0 -1
    outer loop
      vertex 1.55 2.68468 -5
      vertex 0.277837 10.9243 -5
      vertex 0.547232 10.9965 -5
    endloop
  endfacet
  facet normal 0 0 -1
    outer loop
      vertex 1.55 2.68468 -5
      vertex 0 10.9 -5
      vertex 0.277837 10.9243 -5
    endloop
  endfacet
  facet normal 0 0 -1
    outer loop
      vertex -1.55 2.68468 -5
      vertex 0 10.9 -5
      vertex 1.55 2.68468 -5
    endloop
  endfacet
  facet normal -0 0 -1
    outer loop
      vertex 0 10.9 -5
      vertex -1.55 2.68468 -5
      vertex -0.277837 10.9243 -5
    endloop
  endfacet
  facet normal -0 0 -1
    outer loop
      vertex -0.277837 10.9243 -5
      vertex -1.55 2.68468 -5
      vertex -0.547232 10.9965 -5
    endloop
  endfacet
  facet normal -0 0 -1
    outer loop
      vertex -0.547232 10.9965 -5
      vertex -1.55 2.68468 -5
      vertex -0.799999 11.1144 -5
    endloop
  endfacet
  facet normal -0 0 -1
    outer loop
      vertex -0.799999 11.1144 -5
      vertex -1.55 2.68468 -5
      vertex -1.02846 11.2743 -5
    endloop
  endfacet
  facet normal -0 0 -1
    outer loop
      vertex -1.02846 11.2743 -5
      vertex -1.55 2.68468 -5
      vertex -1.22567 11.4715 -5
    endloop
  endfacet
  facet normal -0 0 -1
    outer loop
      vertex -1.22567 11.4715 -5
      vertex -1.55 2.68468 -5
      vertex -1.38564 11.7 -5
    endloop
  endfacet
  facet normal -0 0 -1
    outer loop
      vertex -1.38564 11.7 -5
      vertex -1.55 2.68468 -5
      vertex -1.50351 11.9528 -5
    endloop
  endfacet
  facet normal 0 0 -1
    outer loop
      vertex -3.1 0 -5
      vertex -1.50351 11.9528 -5
      vertex -1.55 2.68468 -5
    endloop
  endfacet
  facet normal 0 0 -1
    outer loop
      vertex -4.6 17.5 -5
      vertex -1.50351 11.9528 -5
      vertex -3.1 0 -5
    endloop
  endfacet
  facet normal 0 0 -1
    outer loop
      vertex -1.50351 11.9528 -5
      vertex -4.6 17.5 -5
      vertex -1.57569 12.2222 -5
    endloop
  endfacet
  facet normal 0 0 -1
    outer loop
      vertex 4.6 -17.5 -5
      vertex 3.1 0 -5
      vertex 4.6 17.5 -5
    endloop
  endfacet
  facet normal 0 0 -1
    outer loop
      vertex 1.57569 -12.2222 -5
      vertex 4.6 -17.5 -5
      vertex 1.6 -12.5 -5
    endloop
  endfacet
  facet normal 0 0 -1
    outer loop
      vertex 4.6 -17.5 -5
      vertex 1.57569 -12.7778 -5
      vertex 1.6 -12.5 -5
    endloop
  endfacet
  facet normal 0 0 -1
    outer loop
      vertex 4.6 -17.5 -5
      vertex 1.50351 -13.0472 -5
      vertex 1.57569 -12.7778 -5
    endloop
  endfacet
  facet normal 0 0 -1
    outer loop
      vertex 4.6 -17.5 -5
      vertex 1.38564 -13.3 -5
      vertex 1.50351 -13.0472 -5
    endloop
  endfacet
  facet normal 0 0 -1
    outer loop
      vertex 4.6 -17.5 -5
      vertex 1.22567 -13.5285 -5
      vertex 1.38564 -13.3 -5
    endloop
  endfacet
  facet normal 0 0 -1
    outer loop
      vertex 4.6 -17.5 -5
      vertex 1.02846 -13.7257 -5
      vertex 1.22567 -13.5285 -5
    endloop
  endfacet
  facet normal 0 0 -1
    outer loop
      vertex 4.6 -17.5 -5
      vertex 0.799999 -13.8856 -5
      vertex 1.02846 -13.7257 -5
    endloop
  endfacet
  facet normal 0 0 -1
    outer loop
      vertex 4.6 -17.5 -5
      vertex 0.547232 -14.0035 -5
      vertex 0.799999 -13.8856 -5
    endloop
  endfacet
  facet normal 0 0 -1
    outer loop
      vertex 4.6 -17.5 -5
      vertex 0.277837 -14.0757 -5
      vertex 0.547232 -14.0035 -5
    endloop
  endfacet
  facet normal 0 0 -1
    outer loop
      vertex 4.6 -17.5 -5
      vertex 0 -14.1 -5
      vertex 0.277837 -14.0757 -5
    endloop
  endfacet
  facet normal 0 0 -1
    outer loop
      vertex -4.6 -17.5 -5
      vertex 0 -14.1 -5
      vertex 4.6 -17.5 -5
    endloop
  endfacet
  facet normal -0 0 -1
    outer loop
      vertex 0 -14.1 -5
      vertex -4.6 -17.5 -5
      vertex -0.277837 -14.0757 -5
    endloop
  endfacet
  facet normal -0 0 -1
    outer loop
      vertex -0.277837 -14.0757 -5
      vertex -4.6 -17.5 -5
      vertex -0.547232 -14.0035 -5
    endloop
  endfacet
  facet normal 0 0 -1
    outer loop
      vertex -4.6 -17.5 -5
      vertex -1.6 -12.5 -5
      vertex -1.57569 -12.7778 -5
    endloop
  endfacet
  facet normal -0 0 -1
    outer loop
      vertex -1.6 -12.5 -5
      vertex -4.6 -17.5 -5
      vertex -3.1 0 -5
    endloop
  endfacet
  facet normal -0 0 -1
    outer loop
      vertex -1.50351 -13.0472 -5
      vertex -4.6 -17.5 -5
      vertex -1.57569 -12.7778 -5
    endloop
  endfacet
  facet normal -0 0 -1
    outer loop
      vertex -1.38564 -13.3 -5
      vertex -4.6 -17.5 -5
      vertex -1.50351 -13.0472 -5
    endloop
  endfacet
  facet normal -0 0 -1
    outer loop
      vertex -1.22567 -13.5285 -5
      vertex -4.6 -17.5 -5
      vertex -1.38564 -13.3 -5
    endloop
  endfacet
  facet normal -0 0 -1
    outer loop
      vertex -1.02846 -13.7257 -5
      vertex -4.6 -17.5 -5
      vertex -1.22567 -13.5285 -5
    endloop
  endfacet
  facet normal -0 0 -1
    outer loop
      vertex -0.799999 -13.8856 -5
      vertex -4.6 -17.5 -5
      vertex -1.02846 -13.7257 -5
    endloop
  endfacet
  facet normal -0 0 -1
    outer loop
      vertex -0.547232 -14.0035 -5
      vertex -4.6 -17.5 -5
      vertex -0.799999 -13.8856 -5
    endloop
  endfacet
  facet normal 0 0 -1
    outer loop
      vertex 1.50351 11.9528 -5
      vertex 4.6 17.5 -5
      vertex 3.1 0 -5
    endloop
  endfacet
  facet normal 0 0 -1
    outer loop
      vertex 1.57569 12.7778 -5
      vertex 4.6 17.5 -5
      vertex 1.6 12.5 -5
    endloop
  endfacet
  facet normal 0 0 -1
    outer loop
      vertex 1.50351 13.0472 -5
      vertex 4.6 17.5 -5
      vertex 1.57569 12.7778 -5
    endloop
  endfacet
  facet normal 0 0 -1
    outer loop
      vertex 1.38564 13.3 -5
      vertex 4.6 17.5 -5
      vertex 1.50351 13.0472 -5
    endloop
  endfacet
  facet normal 0 0 -1
    outer loop
      vertex 1.22567 13.5285 -5
      vertex 4.6 17.5 -5
      vertex 1.38564 13.3 -5
    endloop
  endfacet
  facet normal 0 0 -1
    outer loop
      vertex 1.02846 13.7257 -5
      vertex 4.6 17.5 -5
      vertex 1.22567 13.5285 -5
    endloop
  endfacet
  facet normal 0 0 -1
    outer loop
      vertex 0.799999 13.8856 -5
      vertex 4.6 17.5 -5
      vertex 1.02846 13.7257 -5
    endloop
  endfacet
  facet normal 0 0 -1
    outer loop
      vertex 0.547232 14.0035 -5
      vertex 4.6 17.5 -5
      vertex 0.799999 13.8856 -5
    endloop
  endfacet
  facet normal 0 0 -1
    outer loop
      vertex 0.277837 14.0757 -5
      vertex 4.6 17.5 -5
      vertex 0.547232 14.0035 -5
    endloop
  endfacet
  facet normal 0 0 -1
    outer loop
      vertex 0 14.1 -5
      vertex 4.6 17.5 -5
      vertex 0.277837 14.0757 -5
    endloop
  endfacet
  facet normal 0 0 -1
    outer loop
      vertex -4.6 17.5 -5
      vertex 0 14.1 -5
      vertex -0.277837 14.0757 -5
    endloop
  endfacet
  facet normal 0 0 -1
    outer loop
      vertex -4.6 17.5 -5
      vertex -0.277837 14.0757 -5
      vertex -0.547232 14.0035 -5
    endloop
  endfacet
  facet normal 0 0 -1
    outer loop
      vertex -4.6 17.5 -5
      vertex -0.547232 14.0035 -5
      vertex -0.799999 13.8856 -5
    endloop
  endfacet
  facet normal 0 0 -1
    outer loop
      vertex -1.57569 12.2222 -5
      vertex -4.6 17.5 -5
      vertex -1.6 12.5 -5
    endloop
  endfacet
  facet normal 0 0 -1
    outer loop
      vertex 0 14.1 -5
      vertex -4.6 17.5 -5
      vertex 4.6 17.5 -5
    endloop
  endfacet
  facet normal 0 0 -1
    outer loop
      vertex -1.02846 13.7257 -5
      vertex -4.6 17.5 -5
      vertex -0.799999 13.8856 -5
    endloop
  endfacet
  facet normal 0 0 -1
    outer loop
      vertex -1.22567 13.5285 -5
      vertex -4.6 17.5 -5
      vertex -1.02846 13.7257 -5
    endloop
  endfacet
  facet normal 0 0 -1
    outer loop
      vertex -1.38564 13.3 -5
      vertex -4.6 17.5 -5
      vertex -1.22567 13.5285 -5
    endloop
  endfacet
  facet normal 0 0 -1
    outer loop
      vertex -1.50351 13.0472 -5
      vertex -4.6 17.5 -5
      vertex -1.38564 13.3 -5
    endloop
  endfacet
  facet normal 0 0 -1
    outer loop
      vertex -1.57569 12.7778 -5
      vertex -4.6 17.5 -5
      vertex -1.50351 13.0472 -5
    endloop
  endfacet
  facet normal 0 0 -1
    outer loop
      vertex -1.6 12.5 -5
      vertex -4.6 17.5 -5
      vertex -1.57569 12.7778 -5
    endloop
  endfacet
  facet normal 0 0 -1
    outer loop
      vertex -4.6 17.5 -5
      vertex -3.1 0 -5
      vertex -4.6 -17.5 -5
    endloop
  endfacet
  facet normal 0 0 -1
    outer loop
      vertex 1.50351 -11.9528 -5
      vertex 4.6 -17.5 -5
      vertex 1.57569 -12.2222 -5
    endloop
  endfacet
  facet normal 0 0 -1
    outer loop
      vertex 4.6 -17.5 -5
      vertex 1.50351 -11.9528 -5
      vertex 3.1 0 -5
    endloop
  endfacet
  facet normal 0 0 -1
    outer loop
      vertex 3.1 0 -5
      vertex 1.50351 -11.9528 -5
      vertex 1.55 -2.68468 -5
    endloop
  endfacet
  facet normal 0 0 -1
    outer loop
      vertex 1.38564 -11.7 -5
      vertex 1.55 -2.68468 -5
      vertex 1.50351 -11.9528 -5
    endloop
  endfacet
  facet normal 0 0 -1
    outer loop
      vertex 1.22567 -11.4715 -5
      vertex 1.55 -2.68468 -5
      vertex 1.38564 -11.7 -5
    endloop
  endfacet
  facet normal 0 0 -1
    outer loop
      vertex 1.02846 -11.2743 -5
      vertex 1.55 -2.68468 -5
      vertex 1.22567 -11.4715 -5
    endloop
  endfacet
  facet normal 0 0 -1
    outer loop
      vertex 0.799999 -11.1144 -5
      vertex 1.55 -2.68468 -5
      vertex 1.02846 -11.2743 -5
    endloop
  endfacet
  facet normal 0 0 -1
    outer loop
      vertex 0.547232 -10.9965 -5
      vertex 1.55 -2.68468 -5
      vertex 0.799999 -11.1144 -5
    endloop
  endfacet
  facet normal 0 0 -1
    outer loop
      vertex 0.277837 -10.9243 -5
      vertex 1.55 -2.68468 -5
      vertex 0.547232 -10.9965 -5
    endloop
  endfacet
  facet normal 0 0 -1
    outer loop
      vertex 0 -10.9 -5
      vertex 1.55 -2.68468 -5
      vertex 0.277837 -10.9243 -5
    endloop
  endfacet
  facet normal 0 0 -1
    outer loop
      vertex -1.55 -2.68468 -5
      vertex 0 -10.9 -5
      vertex -0.277837 -10.9243 -5
    endloop
  endfacet
  facet normal 0 0 -1
    outer loop
      vertex -1.55 -2.68468 -5
      vertex -0.277837 -10.9243 -5
      vertex -0.547232 -10.9965 -5
    endloop
  endfacet
  facet normal 0 0 -1
    outer loop
      vertex -1.55 -2.68468 -5
      vertex -0.547232 -10.9965 -5
      vertex -0.799999 -11.1144 -5
    endloop
  endfacet
  facet normal 0 0 -1
    outer loop
      vertex -1.55 -2.68468 -5
      vertex -0.799999 -11.1144 -5
      vertex -1.02846 -11.2743 -5
    endloop
  endfacet
  facet normal 0 0 -1
    outer loop
      vertex -1.55 -2.68468 -5
      vertex -1.02846 -11.2743 -5
      vertex -1.22567 -11.4715 -5
    endloop
  endfacet
  facet normal 0 0 -1
    outer loop
      vertex -1.55 -2.68468 -5
      vertex -1.22567 -11.4715 -5
      vertex -1.38564 -11.7 -5
    endloop
  endfacet
  facet normal 0 0 -1
    outer loop
      vertex -1.55 -2.68468 -5
      vertex -1.38564 -11.7 -5
      vertex -1.50351 -11.9528 -5
    endloop
  endfacet
  facet normal 0 0 -1
    outer loop
      vertex 0 -10.9 -5
      vertex -1.55 -2.68468 -5
      vertex 1.55 -2.68468 -5
    endloop
  endfacet
  facet normal 0 0 -1
    outer loop
      vertex -3.1 0 -5
      vertex -1.50351 -11.9528 -5
      vertex -1.57569 -12.2222 -5
    endloop
  endfacet
  facet normal 0 0 -1
    outer loop
      vertex -3.1 0 -5
      vertex -1.57569 -12.2222 -5
      vertex -1.6 -12.5 -5
    endloop
  endfacet
  facet normal 0 0 -1
    outer loop
      vertex -1.50351 -11.9528 -5
      vertex -3.1 0 -5
      vertex -1.55 -2.68468 -5
    endloop
  endfacet
  facet normal -1 0 0
    outer loop
      vertex -4.6 -17.5 -5
      vertex -4.6 17.5 5
      vertex -4.6 17.5 -5
    endloop
  endfacet
  facet normal -1 -0 0
    outer loop
      vertex -4.6 17.5 5
      vertex -4.6 -17.5 -5
      vertex -4.6 -17.5 5
    endloop
  endfacet
  facet normal 0 1 -0
    outer loop
      vertex 4.6 17.5 -5
      vertex -4.6 17.5 5
      vertex 4.6 17.5 5
    endloop
  endfacet
  facet normal 0 1 0
    outer loop
      vertex -4.6 17.5 5
      vertex 4.6 17.5 -5
      vertex -4.6 17.5 -5
    endloop
  endfacet
  facet normal 0 -1 0
    outer loop
      vertex -4.6 -17.5 -5
      vertex 4.6 -17.5 5
      vertex -4.6 -17.5 5
    endloop
  endfacet
  facet normal 0 -1 -0
    outer loop
      vertex 4.6 -17.5 5
      vertex -4.6 -17.5 -5
      vertex 4.6 -17.5 -5
    endloop
  endfacet
endsolid OpenSCAD_Model
