solid OpenSCAD_Model
  facet normal -0 0 1
    outer loop
      vertex 0 75 3
      vertex 345 -75 3
      vertex 345 75 3
    endloop
  endfacet
  facet normal 0 0 1
    outer loop
      vertex 345 -75 3
      vertex 0 75 3
      vertex 0 -75 3
    endloop
  endfacet
  facet normal 0 0 -1
    outer loop
      vertex 0 -75 0
      vertex 345 75 0
      vertex 345 -75 0
    endloop
  endfacet
  facet normal -0 0 -1
    outer loop
      vertex 345 75 0
      vertex 0 -75 0
      vertex 0 75 0
    endloop
  endfacet
  facet normal -1 0 0
    outer loop
      vertex 0 -75 0
      vertex 0 75 3
      vertex 0 75 0
    endloop
  endfacet
  facet normal -1 -0 0
    outer loop
      vertex 0 75 3
      vertex 0 -75 0
      vertex 0 -75 3
    endloop
  endfacet
  facet normal 0 1 -0
    outer loop
      vertex 345 75 0
      vertex 0 75 3
      vertex 345 75 3
    endloop
  endfacet
  facet normal 0 1 0
    outer loop
      vertex 0 75 3
      vertex 345 75 0
      vertex 0 75 0
    endloop
  endfacet
  facet normal 0 -1 0
    outer loop
      vertex 0 -75 0
      vertex 345 -75 3
      vertex 0 -75 3
    endloop
  endfacet
  facet normal 0 -1 -0
    outer loop
      vertex 345 -75 3
      vertex 0 -75 0
      vertex 345 -75 0
    endloop
  endfacet
  facet normal 1 -0 0
    outer loop
      vertex 345 -75 3
      vertex 345 75 0
      vertex 345 75 3
    endloop
  endfacet
  facet normal 1 0 0
    outer loop
      vertex 345 75 0
      vertex 345 -75 3
      vertex 345 -75 0
    endloop
  endfacet
endsolid OpenSCAD_Model
