solid OpenSCAD_Model
  facet normal -0.984707 0.174217 0
    outer loop
      vertex 347.799 6.12807 -10
      vertex 347.84 6.35981 10
      vertex 347.84 6.35981 -10
    endloop
  endfacet
  facet normal -0.984707 0.174217 0
    outer loop
      vertex 347.84 6.35981 10
      vertex 347.799 6.12807 -10
      vertex 347.799 6.12807 10
    endloop
  endfacet
  facet normal 0.867236 -0.497898 0
    outer loop
      vertex 350.25 5.23608 10
      vertex 350.367 5.43987 -10
      vertex 350.367 5.43987 10
    endloop
  endfacet
  facet normal 0.867236 -0.497898 0
    outer loop
      vertex 350.367 5.43987 -10
      vertex 350.25 5.23608 10
      vertex 350.25 5.23608 -10
    endloop
  endfacet
  facet normal 0.766598 -0.642127 0
    outer loop
      vertex 350.099 5.05581 10
      vertex 350.25 5.23608 -10
      vertex 350.25 5.23608 10
    endloop
  endfacet
  facet normal 0.766598 -0.642127 0
    outer loop
      vertex 350.25 5.23608 -10
      vertex 350.099 5.05581 10
      vertex 350.099 5.05581 -10
    endloop
  endfacet
  facet normal 0.938987 -0.343951 0
    outer loop
      vertex 350.367 5.43987 10
      vertex 350.448 5.661 -10
      vertex 350.448 5.661 10
    endloop
  endfacet
  facet normal 0.938987 -0.343951 0
    outer loop
      vertex 350.448 5.661 -10
      vertex 350.367 5.43987 10
      vertex 350.367 5.43987 -10
    endloop
  endfacet
  facet normal -0.766598 -0.642127 0
    outer loop
      vertex 348.189 5.05581 -10
      vertex 348.038 5.23608 10
      vertex 348.038 5.23608 -10
    endloop
  endfacet
  facet normal -0.766598 -0.642127 0
    outer loop
      vertex 348.038 5.23608 10
      vertex 348.189 5.05581 -10
      vertex 348.189 5.05581 10
    endloop
  endfacet
  facet normal -0.865407 0.50107 0
    outer loop
      vertex 347.92 6.58094 -10
      vertex 348.038 6.78474 10
      vertex 348.038 6.78474 -10
    endloop
  endfacet
  facet normal -0.865407 0.50107 0
    outer loop
      vertex 348.038 6.78474 10
      vertex 347.92 6.58094 -10
      vertex 347.92 6.58094 10
    endloop
  endfacet
  facet normal 0.641251 -0.767331 0
    outer loop
      vertex 349.918 4.90455 -10
      vertex 350.099 5.05581 10
      vertex 349.918 4.90455 10
    endloop
  endfacet
  facet normal 0.641251 -0.767331 0
    outer loop
      vertex 350.099 5.05581 10
      vertex 349.918 4.90455 -10
      vertex 350.099 5.05581 -10
    endloop
  endfacet
  facet normal -0.76658 0.642148 0
    outer loop
      vertex 348.038 6.78474 -10
      vertex 348.189 6.965 10
      vertex 348.189 6.965 -10
    endloop
  endfacet
  facet normal -0.76658 0.642148 0
    outer loop
      vertex 348.189 6.965 10
      vertex 348.038 6.78474 -10
      vertex 348.038 6.78474 10
    endloop
  endfacet
  facet normal 0.76658 0.642148 0
    outer loop
      vertex 350.25 6.78474 10
      vertex 350.099 6.965 -10
      vertex 350.099 6.965 10
    endloop
  endfacet
  facet normal 0.76658 0.642148 0
    outer loop
      vertex 350.099 6.965 -10
      vertex 350.25 6.78474 10
      vertex 350.25 6.78474 -10
    endloop
  endfacet
  facet normal 0.984709 -0.17421 0
    outer loop
      vertex 350.448 5.661 10
      vertex 350.489 5.89275 -10
      vertex 350.489 5.89275 10
    endloop
  endfacet
  facet normal 0.984709 -0.17421 0
    outer loop
      vertex 350.489 5.89275 -10
      vertex 350.448 5.661 10
      vertex 350.448 5.661 -10
    endloop
  endfacet
  facet normal 0.49962 0.866245 -0
    outer loop
      vertex 349.918 7.11626 -10
      vertex 349.714 7.23392 10
      vertex 349.918 7.11626 10
    endloop
  endfacet
  facet normal 0.49962 0.866245 0
    outer loop
      vertex 349.714 7.23392 10
      vertex 349.918 7.11626 -10
      vertex 349.714 7.23392 -10
    endloop
  endfacet
  facet normal 0.342218 0.939621 -0
    outer loop
      vertex 349.714 7.23392 -10
      vertex 349.493 7.31441 10
      vertex 349.714 7.23392 10
    endloop
  endfacet
  facet normal 0.342218 0.939621 0
    outer loop
      vertex 349.493 7.31441 10
      vertex 349.714 7.23392 -10
      vertex 349.493 7.31441 -10
    endloop
  endfacet
  facet normal -0.340818 -0.940129 0
    outer loop
      vertex 348.573 4.78689 -10
      vertex 348.795 4.70641 10
      vertex 348.573 4.78689 10
    endloop
  endfacet
  facet normal -0.340818 -0.940129 -0
    outer loop
      vertex 348.795 4.70641 10
      vertex 348.573 4.78689 -10
      vertex 348.795 4.70641 -10
    endloop
  endfacet
  facet normal -0.940353 -0.340199 0
    outer loop
      vertex 347.92 5.43987 -10
      vertex 347.84 5.661 10
      vertex 347.84 5.661 -10
    endloop
  endfacet
  facet normal -0.940353 -0.340199 0
    outer loop
      vertex 347.84 5.661 10
      vertex 347.92 5.43987 -10
      vertex 347.92 5.43987 10
    endloop
  endfacet
  facet normal 0.34218 -0.939634 0
    outer loop
      vertex 349.493 4.70641 -10
      vertex 349.714 4.78689 10
      vertex 349.493 4.70641 10
    endloop
  endfacet
  facet normal 0.34218 -0.939634 0
    outer loop
      vertex 349.714 4.78689 10
      vertex 349.493 4.70641 -10
      vertex 349.714 4.78689 -10
    endloop
  endfacet
  facet normal -0.340855 0.940116 0
    outer loop
      vertex 348.795 7.31441 -10
      vertex 348.573 7.23392 10
      vertex 348.795 7.31441 10
    endloop
  endfacet
  facet normal -0.340855 0.940116 0
    outer loop
      vertex 348.573 7.23392 10
      vertex 348.795 7.31441 -10
      vertex 348.573 7.23392 -10
    endloop
  endfacet
  facet normal 0 0 -1
    outer loop
      vertex 350.448 5.661 -10
      vertex 350.489 6.12807 -10
      vertex 350.489 5.89275 -10
    endloop
  endfacet
  facet normal 0 0 -1
    outer loop
      vertex 350.448 5.661 -10
      vertex 350.448 6.35981 -10
      vertex 350.489 6.12807 -10
    endloop
  endfacet
  facet normal 0 0 -1
    outer loop
      vertex 350.367 5.43987 -10
      vertex 350.448 6.35981 -10
      vertex 350.448 5.661 -10
    endloop
  endfacet
  facet normal 0 0 -1
    outer loop
      vertex 350.367 5.43987 -10
      vertex 350.367 6.58094 -10
      vertex 350.448 6.35981 -10
    endloop
  endfacet
  facet normal 0 0 -1
    outer loop
      vertex 350.25 5.23608 -10
      vertex 350.367 6.58094 -10
      vertex 350.367 5.43987 -10
    endloop
  endfacet
  facet normal 0 0 -1
    outer loop
      vertex 350.25 5.23608 -10
      vertex 350.25 6.78474 -10
      vertex 350.367 6.58094 -10
    endloop
  endfacet
  facet normal 0 0 -1
    outer loop
      vertex 350.099 5.05581 -10
      vertex 350.25 6.78474 -10
      vertex 350.25 5.23608 -10
    endloop
  endfacet
  facet normal 0 0 -1
    outer loop
      vertex 350.099 5.05581 -10
      vertex 350.099 6.965 -10
      vertex 350.25 6.78474 -10
    endloop
  endfacet
  facet normal 0 0 -1
    outer loop
      vertex 349.918 4.90455 -10
      vertex 350.099 6.965 -10
      vertex 350.099 5.05581 -10
    endloop
  endfacet
  facet normal 0 0 -1
    outer loop
      vertex 349.918 4.90455 -10
      vertex 349.918 7.11626 -10
      vertex 350.099 6.965 -10
    endloop
  endfacet
  facet normal 0 0 -1
    outer loop
      vertex 349.714 4.78689 -10
      vertex 349.918 7.11626 -10
      vertex 349.918 4.90455 -10
    endloop
  endfacet
  facet normal 0 0 -1
    outer loop
      vertex 349.714 4.78689 -10
      vertex 349.714 7.23392 -10
      vertex 349.918 7.11626 -10
    endloop
  endfacet
  facet normal 0 0 -1
    outer loop
      vertex 349.493 4.70641 -10
      vertex 349.714 7.23392 -10
      vertex 349.714 4.78689 -10
    endloop
  endfacet
  facet normal 0 0 -1
    outer loop
      vertex 349.493 4.70641 -10
      vertex 349.493 7.31441 -10
      vertex 349.714 7.23392 -10
    endloop
  endfacet
  facet normal 0 0 -1
    outer loop
      vertex 349.262 4.66554 -10
      vertex 349.493 7.31441 -10
      vertex 349.493 4.70641 -10
    endloop
  endfacet
  facet normal 0 0 -1
    outer loop
      vertex 349.262 4.66554 -10
      vertex 349.262 7.35527 -10
      vertex 349.493 7.31441 -10
    endloop
  endfacet
  facet normal 0 0 -1
    outer loop
      vertex 349.026 4.66554 -10
      vertex 349.262 7.35527 -10
      vertex 349.262 4.66554 -10
    endloop
  endfacet
  facet normal 0 0 -1
    outer loop
      vertex 349.026 4.66554 -10
      vertex 349.026 7.35527 -10
      vertex 349.262 7.35527 -10
    endloop
  endfacet
  facet normal 0 0 -1
    outer loop
      vertex 348.795 4.70641 -10
      vertex 349.026 7.35527 -10
      vertex 349.026 4.66554 -10
    endloop
  endfacet
  facet normal 0 0 -1
    outer loop
      vertex 348.795 4.70641 -10
      vertex 348.795 7.31441 -10
      vertex 349.026 7.35527 -10
    endloop
  endfacet
  facet normal 0 0 -1
    outer loop
      vertex 348.573 4.78689 -10
      vertex 348.795 7.31441 -10
      vertex 348.795 4.70641 -10
    endloop
  endfacet
  facet normal 0 0 -1
    outer loop
      vertex 348.573 4.78689 -10
      vertex 348.573 7.23392 -10
      vertex 348.795 7.31441 -10
    endloop
  endfacet
  facet normal 0 0 -1
    outer loop
      vertex 348.37 4.90455 -10
      vertex 348.573 7.23392 -10
      vertex 348.573 4.78689 -10
    endloop
  endfacet
  facet normal 0 0 -1
    outer loop
      vertex 348.37 4.90455 -10
      vertex 348.37 7.11626 -10
      vertex 348.573 7.23392 -10
    endloop
  endfacet
  facet normal 0 0 -1
    outer loop
      vertex 348.189 5.05581 -10
      vertex 348.37 7.11626 -10
      vertex 348.37 4.90455 -10
    endloop
  endfacet
  facet normal 0 0 -1
    outer loop
      vertex 348.189 5.05581 -10
      vertex 348.189 6.965 -10
      vertex 348.37 7.11626 -10
    endloop
  endfacet
  facet normal 0 0 -1
    outer loop
      vertex 348.038 5.23608 -10
      vertex 348.189 6.965 -10
      vertex 348.189 5.05581 -10
    endloop
  endfacet
  facet normal 0 0 -1
    outer loop
      vertex 348.038 5.23608 -10
      vertex 348.038 6.78474 -10
      vertex 348.189 6.965 -10
    endloop
  endfacet
  facet normal 0 0 -1
    outer loop
      vertex 347.92 5.43987 -10
      vertex 348.038 6.78474 -10
      vertex 348.038 5.23608 -10
    endloop
  endfacet
  facet normal 0 0 -1
    outer loop
      vertex 347.92 5.43987 -10
      vertex 347.92 6.58094 -10
      vertex 348.038 6.78474 -10
    endloop
  endfacet
  facet normal 0 0 -1
    outer loop
      vertex 347.84 5.661 -10
      vertex 347.92 6.58094 -10
      vertex 347.92 5.43987 -10
    endloop
  endfacet
  facet normal 0 0 -1
    outer loop
      vertex 347.84 5.661 -10
      vertex 347.84 6.35981 -10
      vertex 347.92 6.58094 -10
    endloop
  endfacet
  facet normal 0 0 -1
    outer loop
      vertex 347.799 5.89275 -10
      vertex 347.84 6.35981 -10
      vertex 347.84 5.661 -10
    endloop
  endfacet
  facet normal 0 0 -1
    outer loop
      vertex 347.84 6.35981 -10
      vertex 347.799 5.89275 -10
      vertex 347.799 6.12807 -10
    endloop
  endfacet
  facet normal -1 0 0
    outer loop
      vertex 347.799 5.89275 -10
      vertex 347.799 6.12807 10
      vertex 347.799 6.12807 -10
    endloop
  endfacet
  facet normal -1 -0 0
    outer loop
      vertex 347.799 6.12807 10
      vertex 347.799 5.89275 -10
      vertex 347.799 5.89275 10
    endloop
  endfacet
  facet normal -0.984709 -0.17421 0
    outer loop
      vertex 347.84 5.661 -10
      vertex 347.799 5.89275 10
      vertex 347.799 5.89275 -10
    endloop
  endfacet
  facet normal -0.984709 -0.17421 0
    outer loop
      vertex 347.799 5.89275 10
      vertex 347.84 5.661 -10
      vertex 347.84 5.661 10
    endloop
  endfacet
  facet normal 0.867246 0.497879 0
    outer loop
      vertex 350.367 6.58094 10
      vertex 350.25 6.78474 -10
      vertex 350.25 6.78474 10
    endloop
  endfacet
  facet normal 0.867246 0.497879 0
    outer loop
      vertex 350.25 6.78474 -10
      vertex 350.367 6.58094 10
      vertex 350.367 6.58094 -10
    endloop
  endfacet
  facet normal -0.501463 -0.865179 0
    outer loop
      vertex 348.37 4.90455 -10
      vertex 348.573 4.78689 10
      vertex 348.37 4.90455 10
    endloop
  endfacet
  facet normal -0.501463 -0.865179 -0
    outer loop
      vertex 348.573 4.78689 10
      vertex 348.37 4.90455 -10
      vertex 348.573 4.78689 -10
    endloop
  endfacet
  facet normal -0.865396 -0.501088 0
    outer loop
      vertex 348.038 5.23608 -10
      vertex 347.92 5.43987 10
      vertex 347.92 5.43987 -10
    endloop
  endfacet
  facet normal -0.865396 -0.501088 0
    outer loop
      vertex 347.92 5.43987 10
      vertex 348.038 5.23608 -10
      vertex 348.038 5.23608 10
    endloop
  endfacet
  facet normal 0.984707 0.174217 0
    outer loop
      vertex 350.489 6.12807 10
      vertex 350.448 6.35981 -10
      vertex 350.448 6.35981 10
    endloop
  endfacet
  facet normal 0.984707 0.174217 0
    outer loop
      vertex 350.448 6.35981 -10
      vertex 350.489 6.12807 10
      vertex 350.489 6.12807 -10
    endloop
  endfacet
  facet normal -0.641251 0.767331 0
    outer loop
      vertex 348.37 7.11626 -10
      vertex 348.189 6.965 10
      vertex 348.37 7.11626 10
    endloop
  endfacet
  facet normal -0.641251 0.767331 0
    outer loop
      vertex 348.189 6.965 10
      vertex 348.37 7.11626 -10
      vertex 348.189 6.965 -10
    endloop
  endfacet
  facet normal 0.938987 0.343951 0
    outer loop
      vertex 350.448 6.35981 10
      vertex 350.367 6.58094 -10
      vertex 350.367 6.58094 10
    endloop
  endfacet
  facet normal 0.938987 0.343951 0
    outer loop
      vertex 350.367 6.58094 -10
      vertex 350.448 6.35981 10
      vertex 350.448 6.35981 -10
    endloop
  endfacet
  facet normal 0 0 1
    outer loop
      vertex 350.448 6.35981 10
      vertex 350.489 5.89275 10
      vertex 350.489 6.12807 10
    endloop
  endfacet
  facet normal 0 0 1
    outer loop
      vertex 350.448 6.35981 10
      vertex 350.448 5.661 10
      vertex 350.489 5.89275 10
    endloop
  endfacet
  facet normal 0 0 1
    outer loop
      vertex 350.367 6.58094 10
      vertex 350.448 5.661 10
      vertex 350.448 6.35981 10
    endloop
  endfacet
  facet normal 0 0 1
    outer loop
      vertex 350.367 6.58094 10
      vertex 350.367 5.43987 10
      vertex 350.448 5.661 10
    endloop
  endfacet
  facet normal 0 0 1
    outer loop
      vertex 350.25 6.78474 10
      vertex 350.367 5.43987 10
      vertex 350.367 6.58094 10
    endloop
  endfacet
  facet normal 0 0 1
    outer loop
      vertex 350.25 6.78474 10
      vertex 350.25 5.23608 10
      vertex 350.367 5.43987 10
    endloop
  endfacet
  facet normal 0 0 1
    outer loop
      vertex 350.099 6.965 10
      vertex 350.25 5.23608 10
      vertex 350.25 6.78474 10
    endloop
  endfacet
  facet normal 0 0 1
    outer loop
      vertex 350.099 6.965 10
      vertex 350.099 5.05581 10
      vertex 350.25 5.23608 10
    endloop
  endfacet
  facet normal 0 0 1
    outer loop
      vertex 349.918 7.11626 10
      vertex 350.099 5.05581 10
      vertex 350.099 6.965 10
    endloop
  endfacet
  facet normal 0 0 1
    outer loop
      vertex 349.918 7.11626 10
      vertex 349.918 4.90455 10
      vertex 350.099 5.05581 10
    endloop
  endfacet
  facet normal 0 0 1
    outer loop
      vertex 349.714 7.23392 10
      vertex 349.918 4.90455 10
      vertex 349.918 7.11626 10
    endloop
  endfacet
  facet normal 0 0 1
    outer loop
      vertex 349.714 7.23392 10
      vertex 349.714 4.78689 10
      vertex 349.918 4.90455 10
    endloop
  endfacet
  facet normal 0 0 1
    outer loop
      vertex 349.493 7.31441 10
      vertex 349.714 4.78689 10
      vertex 349.714 7.23392 10
    endloop
  endfacet
  facet normal 0 0 1
    outer loop
      vertex 349.493 7.31441 10
      vertex 349.493 4.70641 10
      vertex 349.714 4.78689 10
    endloop
  endfacet
  facet normal 0 0 1
    outer loop
      vertex 349.262 7.35527 10
      vertex 349.493 4.70641 10
      vertex 349.493 7.31441 10
    endloop
  endfacet
  facet normal 0 0 1
    outer loop
      vertex 349.262 7.35527 10
      vertex 349.262 4.66554 10
      vertex 349.493 4.70641 10
    endloop
  endfacet
  facet normal -0 0 1
    outer loop
      vertex 349.026 7.35527 10
      vertex 349.262 4.66554 10
      vertex 349.262 7.35527 10
    endloop
  endfacet
  facet normal 0 0 1
    outer loop
      vertex 349.026 7.35527 10
      vertex 349.026 4.66554 10
      vertex 349.262 4.66554 10
    endloop
  endfacet
  facet normal -0 0 1
    outer loop
      vertex 348.795 7.31441 10
      vertex 349.026 4.66554 10
      vertex 349.026 7.35527 10
    endloop
  endfacet
  facet normal 0 0 1
    outer loop
      vertex 348.795 7.31441 10
      vertex 348.795 4.70641 10
      vertex 349.026 4.66554 10
    endloop
  endfacet
  facet normal -0 0 1
    outer loop
      vertex 348.573 7.23392 10
      vertex 348.795 4.70641 10
      vertex 348.795 7.31441 10
    endloop
  endfacet
  facet normal 0 0 1
    outer loop
      vertex 348.573 7.23392 10
      vertex 348.573 4.78689 10
      vertex 348.795 4.70641 10
    endloop
  endfacet
  facet normal -0 0 1
    outer loop
      vertex 348.37 7.11626 10
      vertex 348.573 4.78689 10
      vertex 348.573 7.23392 10
    endloop
  endfacet
  facet normal 0 0 1
    outer loop
      vertex 348.37 7.11626 10
      vertex 348.37 4.90455 10
      vertex 348.573 4.78689 10
    endloop
  endfacet
  facet normal -0 0 1
    outer loop
      vertex 348.189 6.965 10
      vertex 348.37 4.90455 10
      vertex 348.37 7.11626 10
    endloop
  endfacet
  facet normal 0 0 1
    outer loop
      vertex 348.189 6.965 10
      vertex 348.189 5.05581 10
      vertex 348.37 4.90455 10
    endloop
  endfacet
  facet normal -0 0 1
    outer loop
      vertex 348.038 6.78474 10
      vertex 348.189 5.05581 10
      vertex 348.189 6.965 10
    endloop
  endfacet
  facet normal 0 0 1
    outer loop
      vertex 348.038 6.78474 10
      vertex 348.038 5.23608 10
      vertex 348.189 5.05581 10
    endloop
  endfacet
  facet normal -0 0 1
    outer loop
      vertex 347.92 6.58094 10
      vertex 348.038 5.23608 10
      vertex 348.038 6.78474 10
    endloop
  endfacet
  facet normal 0 0 1
    outer loop
      vertex 347.92 6.58094 10
      vertex 347.92 5.43987 10
      vertex 348.038 5.23608 10
    endloop
  endfacet
  facet normal -0 0 1
    outer loop
      vertex 347.84 6.35981 10
      vertex 347.92 5.43987 10
      vertex 347.92 6.58094 10
    endloop
  endfacet
  facet normal 0 0 1
    outer loop
      vertex 347.84 6.35981 10
      vertex 347.84 5.661 10
      vertex 347.92 5.43987 10
    endloop
  endfacet
  facet normal -0 0 1
    outer loop
      vertex 347.799 6.12807 10
      vertex 347.84 5.661 10
      vertex 347.84 6.35981 10
    endloop
  endfacet
  facet normal 0 0 1
    outer loop
      vertex 347.84 5.661 10
      vertex 347.799 6.12807 10
      vertex 347.799 5.89275 10
    endloop
  endfacet
  facet normal -0.641251 -0.767331 0
    outer loop
      vertex 348.189 5.05581 -10
      vertex 348.37 4.90455 10
      vertex 348.189 5.05581 10
    endloop
  endfacet
  facet normal -0.641251 -0.767331 -0
    outer loop
      vertex 348.37 4.90455 10
      vertex 348.189 5.05581 -10
      vertex 348.37 4.90455 -10
    endloop
  endfacet
  facet normal 0.49962 -0.866245 0
    outer loop
      vertex 349.714 4.78689 -10
      vertex 349.918 4.90455 10
      vertex 349.714 4.78689 10
    endloop
  endfacet
  facet normal 0.49962 -0.866245 0
    outer loop
      vertex 349.918 4.90455 10
      vertex 349.714 4.78689 -10
      vertex 349.918 4.90455 -10
    endloop
  endfacet
  facet normal 1 -0 0
    outer loop
      vertex 350.489 5.89275 10
      vertex 350.489 6.12807 -10
      vertex 350.489 6.12807 10
    endloop
  endfacet
  facet normal 1 0 0
    outer loop
      vertex 350.489 6.12807 -10
      vertex 350.489 5.89275 10
      vertex 350.489 5.89275 -10
    endloop
  endfacet
  facet normal -0.940353 0.340199 0
    outer loop
      vertex 347.84 6.35981 -10
      vertex 347.92 6.58094 10
      vertex 347.92 6.58094 -10
    endloop
  endfacet
  facet normal -0.940353 0.340199 0
    outer loop
      vertex 347.92 6.58094 10
      vertex 347.84 6.35981 -10
      vertex 347.84 6.35981 10
    endloop
  endfacet
  facet normal 0.174179 0.984714 -0
    outer loop
      vertex 349.493 7.31441 -10
      vertex 349.262 7.35527 10
      vertex 349.493 7.31441 10
    endloop
  endfacet
  facet normal 0.174179 0.984714 0
    outer loop
      vertex 349.262 7.35527 10
      vertex 349.493 7.31441 -10
      vertex 349.262 7.35527 -10
    endloop
  endfacet
  facet normal 0.641251 0.767331 -0
    outer loop
      vertex 350.099 6.965 -10
      vertex 349.918 7.11626 10
      vertex 350.099 6.965 10
    endloop
  endfacet
  facet normal 0.641251 0.767331 0
    outer loop
      vertex 349.918 7.11626 10
      vertex 350.099 6.965 -10
      vertex 349.918 7.11626 -10
    endloop
  endfacet
  facet normal -0.174221 -0.984707 0
    outer loop
      vertex 348.795 4.70641 -10
      vertex 349.026 4.66554 10
      vertex 348.795 4.70641 10
    endloop
  endfacet
  facet normal -0.174221 -0.984707 -0
    outer loop
      vertex 349.026 4.66554 10
      vertex 348.795 4.70641 -10
      vertex 349.026 4.66554 -10
    endloop
  endfacet
  facet normal 0.174221 -0.984707 0
    outer loop
      vertex 349.262 4.66554 -10
      vertex 349.493 4.70641 10
      vertex 349.262 4.66554 10
    endloop
  endfacet
  facet normal 0.174221 -0.984707 0
    outer loop
      vertex 349.493 4.70641 10
      vertex 349.262 4.66554 -10
      vertex 349.493 4.70641 -10
    endloop
  endfacet
  facet normal 0 -1 0
    outer loop
      vertex 349.026 4.66554 -10
      vertex 349.262 4.66554 10
      vertex 349.026 4.66554 10
    endloop
  endfacet
  facet normal 0 -1 -0
    outer loop
      vertex 349.262 4.66554 10
      vertex 349.026 4.66554 -10
      vertex 349.262 4.66554 -10
    endloop
  endfacet
  facet normal -0.174179 0.984714 0
    outer loop
      vertex 349.026 7.35527 -10
      vertex 348.795 7.31441 10
      vertex 349.026 7.35527 10
    endloop
  endfacet
  facet normal -0.174179 0.984714 0
    outer loop
      vertex 348.795 7.31441 10
      vertex 349.026 7.35527 -10
      vertex 348.795 7.31441 -10
    endloop
  endfacet
  facet normal 0 1 -0
    outer loop
      vertex 349.262 7.35527 -10
      vertex 349.026 7.35527 10
      vertex 349.262 7.35527 10
    endloop
  endfacet
  facet normal 0 1 0
    outer loop
      vertex 349.026 7.35527 10
      vertex 349.262 7.35527 -10
      vertex 349.026 7.35527 -10
    endloop
  endfacet
  facet normal -0.501463 0.865179 0
    outer loop
      vertex 348.573 7.23392 -10
      vertex 348.37 7.11626 10
      vertex 348.573 7.23392 10
    endloop
  endfacet
  facet normal -0.501463 0.865179 0
    outer loop
      vertex 348.37 7.11626 10
      vertex 348.573 7.23392 -10
      vertex 348.37 7.11626 -10
    endloop
  endfacet
  facet normal -0.643192 0.765705 0
    outer loop
      vertex 293.215 -48.0381 -10
      vertex 293.035 -48.1893 10
      vertex 293.215 -48.0381 10
    endloop
  endfacet
  facet normal -0.643192 0.765705 0
    outer loop
      vertex 293.035 -48.1893 10
      vertex 293.215 -48.0381 -10
      vertex 293.035 -48.1893 -10
    endloop
  endfacet
  facet normal 0.8653 -0.501254 0
    outer loop
      vertex 295.095 -49.9182 10
      vertex 295.213 -49.7145 -10
      vertex 295.213 -49.7145 10
    endloop
  endfacet
  facet normal 0.8653 -0.501254 0
    outer loop
      vertex 295.213 -49.7145 -10
      vertex 295.095 -49.9182 10
      vertex 295.095 -49.9182 -10
    endloop
  endfacet
  facet normal 0.766651 -0.642065 0
    outer loop
      vertex 294.944 -50.0985 10
      vertex 295.095 -49.9182 -10
      vertex 295.095 -49.9182 10
    endloop
  endfacet
  facet normal 0.766651 -0.642065 0
    outer loop
      vertex 295.095 -49.9182 -10
      vertex 294.944 -50.0985 10
      vertex 294.944 -50.0985 -10
    endloop
  endfacet
  facet normal 0.939023 -0.343855 0
    outer loop
      vertex 295.213 -49.7145 10
      vertex 295.294 -49.4933 -10
      vertex 295.294 -49.4933 10
    endloop
  endfacet
  facet normal 0.939023 -0.343855 0
    outer loop
      vertex 295.294 -49.4933 -10
      vertex 295.213 -49.7145 10
      vertex 295.213 -49.7145 -10
    endloop
  endfacet
  facet normal -0.499428 -0.866355 0
    outer loop
      vertex 293.215 -50.2498 -10
      vertex 293.419 -50.3674 10
      vertex 293.215 -50.2498 10
    endloop
  endfacet
  facet normal -0.499428 -0.866355 -0
    outer loop
      vertex 293.419 -50.3674 10
      vertex 293.215 -50.2498 -10
      vertex 293.419 -50.3674 -10
    endloop
  endfacet
  facet normal -0.173616 -0.984813 0
    outer loop
      vertex 293.64 -50.4479 -10
      vertex 293.872 -50.4888 10
      vertex 293.64 -50.4479 10
    endloop
  endfacet
  facet normal -0.173616 -0.984813 -0
    outer loop
      vertex 293.872 -50.4888 10
      vertex 293.64 -50.4479 -10
      vertex 293.872 -50.4888 -10
    endloop
  endfacet
  facet normal -0.643441 -0.765495 0
    outer loop
      vertex 293.035 -50.0985 -10
      vertex 293.215 -50.2498 10
      vertex 293.035 -50.0985 10
    endloop
  endfacet
  facet normal -0.643441 -0.765495 -0
    outer loop
      vertex 293.215 -50.2498 10
      vertex 293.035 -50.0985 -10
      vertex 293.215 -50.2498 -10
    endloop
  endfacet
  facet normal 0.499428 -0.866355 0
    outer loop
      vertex 294.56 -50.3674 -10
      vertex 294.764 -50.2498 10
      vertex 294.56 -50.3674 10
    endloop
  endfacet
  facet normal 0.499428 -0.866355 0
    outer loop
      vertex 294.764 -50.2498 10
      vertex 294.56 -50.3674 -10
      vertex 294.764 -50.2498 -10
    endloop
  endfacet
  facet normal 0 -1 0
    outer loop
      vertex 293.872 -50.4888 -10
      vertex 294.107 -50.4888 10
      vertex 293.872 -50.4888 10
    endloop
  endfacet
  facet normal 0 -1 -0
    outer loop
      vertex 294.107 -50.4888 10
      vertex 293.872 -50.4888 -10
      vertex 294.107 -50.4888 -10
    endloop
  endfacet
  facet normal 0.342255 -0.939607 0
    outer loop
      vertex 294.339 -50.4479 -10
      vertex 294.56 -50.3674 10
      vertex 294.339 -50.4479 10
    endloop
  endfacet
  facet normal 0.342255 -0.939607 0
    outer loop
      vertex 294.56 -50.3674 10
      vertex 294.339 -50.4479 -10
      vertex 294.56 -50.3674 -10
    endloop
  endfacet
  facet normal -0.342255 -0.939607 0
    outer loop
      vertex 293.419 -50.3674 -10
      vertex 293.64 -50.4479 10
      vertex 293.419 -50.3674 10
    endloop
  endfacet
  facet normal -0.342255 -0.939607 -0
    outer loop
      vertex 293.64 -50.4479 10
      vertex 293.419 -50.3674 -10
      vertex 293.64 -50.4479 -10
    endloop
  endfacet
  facet normal 0.499747 0.866171 -0
    outer loop
      vertex 294.764 -48.0381 -10
      vertex 294.56 -47.9204 10
      vertex 294.764 -48.0381 10
    endloop
  endfacet
  facet normal 0.499747 0.866171 0
    outer loop
      vertex 294.56 -47.9204 10
      vertex 294.764 -48.0381 -10
      vertex 294.56 -47.9204 -10
    endloop
  endfacet
  facet normal 0.766651 0.642065 0
    outer loop
      vertex 295.095 -48.3696 10
      vertex 294.944 -48.1893 -10
      vertex 294.944 -48.1893 10
    endloop
  endfacet
  facet normal 0.766651 0.642065 0
    outer loop
      vertex 294.944 -48.1893 -10
      vertex 295.095 -48.3696 10
      vertex 295.095 -48.3696 -10
    endloop
  endfacet
  facet normal 0.342255 0.939607 -0
    outer loop
      vertex 294.56 -47.9204 -10
      vertex 294.339 -47.8399 10
      vertex 294.56 -47.9204 10
    endloop
  endfacet
  facet normal 0.342255 0.939607 0
    outer loop
      vertex 294.339 -47.8399 10
      vertex 294.56 -47.9204 -10
      vertex 294.339 -47.8399 -10
    endloop
  endfacet
  facet normal -0.766651 0.642065 0
    outer loop
      vertex 292.884 -48.3696 -10
      vertex 293.035 -48.1893 10
      vertex 293.035 -48.1893 -10
    endloop
  endfacet
  facet normal -0.766651 0.642065 0
    outer loop
      vertex 293.035 -48.1893 10
      vertex 292.884 -48.3696 -10
      vertex 292.884 -48.3696 10
    endloop
  endfacet
  facet normal 0.643441 -0.765495 0
    outer loop
      vertex 294.764 -50.2498 -10
      vertex 294.944 -50.0985 10
      vertex 294.764 -50.2498 10
    endloop
  endfacet
  facet normal 0.643441 -0.765495 0
    outer loop
      vertex 294.944 -50.0985 10
      vertex 294.764 -50.2498 -10
      vertex 294.944 -50.0985 -10
    endloop
  endfacet
  facet normal -0.940339 0.34024 0
    outer loop
      vertex 292.686 -48.7945 -10
      vertex 292.766 -48.5734 10
      vertex 292.766 -48.5734 -10
    endloop
  endfacet
  facet normal -0.940339 0.34024 0
    outer loop
      vertex 292.766 -48.5734 10
      vertex 292.686 -48.7945 -10
      vertex 292.686 -48.7945 10
    endloop
  endfacet
  facet normal -0.173204 0.984886 0
    outer loop
      vertex 293.872 -47.7991 -10
      vertex 293.64 -47.8399 10
      vertex 293.872 -47.7991 10
    endloop
  endfacet
  facet normal -0.173204 0.984886 0
    outer loop
      vertex 293.64 -47.8399 10
      vertex 293.872 -47.7991 -10
      vertex 293.64 -47.8399 -10
    endloop
  endfacet
  facet normal -0.984702 -0.174246 0
    outer loop
      vertex 292.686 -49.4933 -10
      vertex 292.645 -49.2616 10
      vertex 292.645 -49.2616 -10
    endloop
  endfacet
  facet normal -0.984702 -0.174246 0
    outer loop
      vertex 292.645 -49.2616 10
      vertex 292.686 -49.4933 -10
      vertex 292.686 -49.4933 10
    endloop
  endfacet
  facet normal -1 0 0
    outer loop
      vertex 292.645 -49.2616 -10
      vertex 292.645 -49.0263 10
      vertex 292.645 -49.0263 -10
    endloop
  endfacet
  facet normal -1 -0 0
    outer loop
      vertex 292.645 -49.0263 10
      vertex 292.645 -49.2616 -10
      vertex 292.645 -49.2616 10
    endloop
  endfacet
  facet normal 0.173204 0.984886 -0
    outer loop
      vertex 294.339 -47.8399 -10
      vertex 294.107 -47.7991 10
      vertex 294.339 -47.8399 10
    endloop
  endfacet
  facet normal 0.173204 0.984886 0
    outer loop
      vertex 294.107 -47.7991 10
      vertex 294.339 -47.8399 -10
      vertex 294.107 -47.7991 -10
    endloop
  endfacet
  facet normal 0.173616 -0.984813 0
    outer loop
      vertex 294.107 -50.4888 -10
      vertex 294.339 -50.4479 10
      vertex 294.107 -50.4888 10
    endloop
  endfacet
  facet normal 0.173616 -0.984813 0
    outer loop
      vertex 294.339 -50.4479 10
      vertex 294.107 -50.4888 -10
      vertex 294.339 -50.4479 -10
    endloop
  endfacet
  facet normal 0.985423 -0.170121 0
    outer loop
      vertex 295.294 -49.4933 10
      vertex 295.334 -49.2616 -10
      vertex 295.334 -49.2616 10
    endloop
  endfacet
  facet normal 0.985423 -0.170121 0
    outer loop
      vertex 295.334 -49.2616 -10
      vertex 295.294 -49.4933 10
      vertex 295.294 -49.4933 -10
    endloop
  endfacet
  facet normal 0 1 -0
    outer loop
      vertex 294.107 -47.7991 -10
      vertex 293.872 -47.7991 10
      vertex 294.107 -47.7991 10
    endloop
  endfacet
  facet normal 0 1 0
    outer loop
      vertex 293.872 -47.7991 10
      vertex 294.107 -47.7991 -10
      vertex 293.872 -47.7991 -10
    endloop
  endfacet
  facet normal 0.938972 0.343993 0
    outer loop
      vertex 295.294 -48.7945 10
      vertex 295.213 -48.5734 -10
      vertex 295.213 -48.5734 10
    endloop
  endfacet
  facet normal 0.938972 0.343993 0
    outer loop
      vertex 295.213 -48.5734 -10
      vertex 295.294 -48.7945 10
      vertex 295.294 -48.7945 -10
    endloop
  endfacet
  facet normal 1 -0 0
    outer loop
      vertex 295.334 -49.2616 10
      vertex 295.334 -49.0263 -10
      vertex 295.334 -49.0263 10
    endloop
  endfacet
  facet normal 1 0 0
    outer loop
      vertex 295.334 -49.0263 -10
      vertex 295.334 -49.2616 10
      vertex 295.334 -49.2616 -10
    endloop
  endfacet
  facet normal -0.342255 0.939607 0
    outer loop
      vertex 293.64 -47.8399 -10
      vertex 293.419 -47.9204 10
      vertex 293.64 -47.8399 10
    endloop
  endfacet
  facet normal -0.342255 0.939607 0
    outer loop
      vertex 293.419 -47.9204 10
      vertex 293.64 -47.8399 -10
      vertex 293.419 -47.9204 -10
    endloop
  endfacet
  facet normal 0.985436 0.170049 0
    outer loop
      vertex 295.334 -49.0263 10
      vertex 295.294 -48.7945 -10
      vertex 295.294 -48.7945 10
    endloop
  endfacet
  facet normal 0.985436 0.170049 0
    outer loop
      vertex 295.294 -48.7945 -10
      vertex 295.334 -49.0263 10
      vertex 295.334 -49.0263 -10
    endloop
  endfacet
  facet normal 0.643192 0.765705 -0
    outer loop
      vertex 294.944 -48.1893 -10
      vertex 294.764 -48.0381 10
      vertex 294.944 -48.1893 10
    endloop
  endfacet
  facet normal 0.643192 0.765705 0
    outer loop
      vertex 294.764 -48.0381 10
      vertex 294.944 -48.1893 -10
      vertex 294.764 -48.0381 -10
    endloop
  endfacet
  facet normal -0.984715 0.174173 0
    outer loop
      vertex 292.645 -49.0263 -10
      vertex 292.686 -48.7945 10
      vertex 292.686 -48.7945 -10
    endloop
  endfacet
  facet normal -0.984715 0.174173 0
    outer loop
      vertex 292.686 -48.7945 10
      vertex 292.645 -49.0263 -10
      vertex 292.645 -49.0263 10
    endloop
  endfacet
  facet normal -0.865407 0.50107 0
    outer loop
      vertex 292.766 -48.5734 -10
      vertex 292.884 -48.3696 10
      vertex 292.884 -48.3696 -10
    endloop
  endfacet
  facet normal -0.865407 0.50107 0
    outer loop
      vertex 292.884 -48.3696 10
      vertex 292.766 -48.5734 -10
      vertex 292.766 -48.5734 10
    endloop
  endfacet
  facet normal -0.499747 0.866171 0
    outer loop
      vertex 293.419 -47.9204 -10
      vertex 293.215 -48.0381 10
      vertex 293.419 -47.9204 10
    endloop
  endfacet
  facet normal -0.499747 0.866171 0
    outer loop
      vertex 293.215 -48.0381 10
      vertex 293.419 -47.9204 -10
      vertex 293.215 -48.0381 -10
    endloop
  endfacet
  facet normal -0.8653 -0.501254 0
    outer loop
      vertex 292.884 -49.9182 -10
      vertex 292.766 -49.7145 10
      vertex 292.766 -49.7145 -10
    endloop
  endfacet
  facet normal -0.8653 -0.501254 0
    outer loop
      vertex 292.766 -49.7145 10
      vertex 292.884 -49.9182 -10
      vertex 292.884 -49.9182 10
    endloop
  endfacet
  facet normal 0 0 -1
    outer loop
      vertex 295.294 -49.4933 -10
      vertex 295.334 -49.0263 -10
      vertex 295.334 -49.2616 -10
    endloop
  endfacet
  facet normal 0 0 -1
    outer loop
      vertex 295.294 -49.4933 -10
      vertex 295.294 -48.7945 -10
      vertex 295.334 -49.0263 -10
    endloop
  endfacet
  facet normal 0 0 -1
    outer loop
      vertex 295.213 -49.7145 -10
      vertex 295.294 -48.7945 -10
      vertex 295.294 -49.4933 -10
    endloop
  endfacet
  facet normal 0 0 -1
    outer loop
      vertex 295.213 -49.7145 -10
      vertex 295.213 -48.5734 -10
      vertex 295.294 -48.7945 -10
    endloop
  endfacet
  facet normal 0 0 -1
    outer loop
      vertex 295.095 -49.9182 -10
      vertex 295.213 -48.5734 -10
      vertex 295.213 -49.7145 -10
    endloop
  endfacet
  facet normal 0 0 -1
    outer loop
      vertex 295.095 -49.9182 -10
      vertex 295.095 -48.3696 -10
      vertex 295.213 -48.5734 -10
    endloop
  endfacet
  facet normal 0 0 -1
    outer loop
      vertex 294.944 -50.0985 -10
      vertex 295.095 -48.3696 -10
      vertex 295.095 -49.9182 -10
    endloop
  endfacet
  facet normal 0 0 -1
    outer loop
      vertex 294.944 -50.0985 -10
      vertex 294.944 -48.1893 -10
      vertex 295.095 -48.3696 -10
    endloop
  endfacet
  facet normal 0 0 -1
    outer loop
      vertex 294.764 -50.2498 -10
      vertex 294.944 -48.1893 -10
      vertex 294.944 -50.0985 -10
    endloop
  endfacet
  facet normal 0 0 -1
    outer loop
      vertex 294.764 -50.2498 -10
      vertex 294.764 -48.0381 -10
      vertex 294.944 -48.1893 -10
    endloop
  endfacet
  facet normal 0 0 -1
    outer loop
      vertex 294.56 -50.3674 -10
      vertex 294.764 -48.0381 -10
      vertex 294.764 -50.2498 -10
    endloop
  endfacet
  facet normal 0 0 -1
    outer loop
      vertex 294.56 -50.3674 -10
      vertex 294.56 -47.9204 -10
      vertex 294.764 -48.0381 -10
    endloop
  endfacet
  facet normal 0 0 -1
    outer loop
      vertex 294.339 -50.4479 -10
      vertex 294.56 -47.9204 -10
      vertex 294.56 -50.3674 -10
    endloop
  endfacet
  facet normal 0 0 -1
    outer loop
      vertex 294.339 -50.4479 -10
      vertex 294.339 -47.8399 -10
      vertex 294.56 -47.9204 -10
    endloop
  endfacet
  facet normal 0 0 -1
    outer loop
      vertex 294.107 -50.4888 -10
      vertex 294.339 -47.8399 -10
      vertex 294.339 -50.4479 -10
    endloop
  endfacet
  facet normal 0 0 -1
    outer loop
      vertex 294.107 -50.4888 -10
      vertex 294.107 -47.7991 -10
      vertex 294.339 -47.8399 -10
    endloop
  endfacet
  facet normal 0 0 -1
    outer loop
      vertex 293.872 -50.4888 -10
      vertex 294.107 -47.7991 -10
      vertex 294.107 -50.4888 -10
    endloop
  endfacet
  facet normal 0 0 -1
    outer loop
      vertex 293.872 -50.4888 -10
      vertex 293.872 -47.7991 -10
      vertex 294.107 -47.7991 -10
    endloop
  endfacet
  facet normal 0 0 -1
    outer loop
      vertex 293.64 -50.4479 -10
      vertex 293.872 -47.7991 -10
      vertex 293.872 -50.4888 -10
    endloop
  endfacet
  facet normal 0 0 -1
    outer loop
      vertex 293.64 -50.4479 -10
      vertex 293.64 -47.8399 -10
      vertex 293.872 -47.7991 -10
    endloop
  endfacet
  facet normal 0 0 -1
    outer loop
      vertex 293.419 -50.3674 -10
      vertex 293.64 -47.8399 -10
      vertex 293.64 -50.4479 -10
    endloop
  endfacet
  facet normal 0 0 -1
    outer loop
      vertex 293.419 -50.3674 -10
      vertex 293.419 -47.9204 -10
      vertex 293.64 -47.8399 -10
    endloop
  endfacet
  facet normal 0 0 -1
    outer loop
      vertex 293.215 -50.2498 -10
      vertex 293.419 -47.9204 -10
      vertex 293.419 -50.3674 -10
    endloop
  endfacet
  facet normal 0 0 -1
    outer loop
      vertex 293.215 -50.2498 -10
      vertex 293.215 -48.0381 -10
      vertex 293.419 -47.9204 -10
    endloop
  endfacet
  facet normal 0 0 -1
    outer loop
      vertex 293.035 -50.0985 -10
      vertex 293.215 -48.0381 -10
      vertex 293.215 -50.2498 -10
    endloop
  endfacet
  facet normal 0 0 -1
    outer loop
      vertex 293.035 -50.0985 -10
      vertex 293.035 -48.1893 -10
      vertex 293.215 -48.0381 -10
    endloop
  endfacet
  facet normal 0 0 -1
    outer loop
      vertex 292.884 -49.9182 -10
      vertex 293.035 -48.1893 -10
      vertex 293.035 -50.0985 -10
    endloop
  endfacet
  facet normal 0 0 -1
    outer loop
      vertex 292.884 -49.9182 -10
      vertex 292.884 -48.3696 -10
      vertex 293.035 -48.1893 -10
    endloop
  endfacet
  facet normal 0 0 -1
    outer loop
      vertex 292.766 -49.7145 -10
      vertex 292.884 -48.3696 -10
      vertex 292.884 -49.9182 -10
    endloop
  endfacet
  facet normal 0 0 -1
    outer loop
      vertex 292.766 -49.7145 -10
      vertex 292.766 -48.5734 -10
      vertex 292.884 -48.3696 -10
    endloop
  endfacet
  facet normal 0 0 -1
    outer loop
      vertex 292.686 -49.4933 -10
      vertex 292.766 -48.5734 -10
      vertex 292.766 -49.7145 -10
    endloop
  endfacet
  facet normal 0 0 -1
    outer loop
      vertex 292.686 -49.4933 -10
      vertex 292.686 -48.7945 -10
      vertex 292.766 -48.5734 -10
    endloop
  endfacet
  facet normal 0 0 -1
    outer loop
      vertex 292.645 -49.2616 -10
      vertex 292.686 -48.7945 -10
      vertex 292.686 -49.4933 -10
    endloop
  endfacet
  facet normal 0 0 -1
    outer loop
      vertex 292.686 -48.7945 -10
      vertex 292.645 -49.2616 -10
      vertex 292.645 -49.0263 -10
    endloop
  endfacet
  facet normal 0.865407 0.50107 0
    outer loop
      vertex 295.213 -48.5734 10
      vertex 295.095 -48.3696 -10
      vertex 295.095 -48.3696 10
    endloop
  endfacet
  facet normal 0.865407 0.50107 0
    outer loop
      vertex 295.095 -48.3696 -10
      vertex 295.213 -48.5734 10
      vertex 295.213 -48.5734 -10
    endloop
  endfacet
  facet normal -0.766651 -0.642065 0
    outer loop
      vertex 293.035 -50.0985 -10
      vertex 292.884 -49.9182 10
      vertex 292.884 -49.9182 -10
    endloop
  endfacet
  facet normal -0.766651 -0.642065 0
    outer loop
      vertex 292.884 -49.9182 10
      vertex 293.035 -50.0985 -10
      vertex 293.035 -50.0985 10
    endloop
  endfacet
  facet normal 0 0 1
    outer loop
      vertex 295.294 -48.7945 10
      vertex 295.334 -49.2616 10
      vertex 295.334 -49.0263 10
    endloop
  endfacet
  facet normal 0 0 1
    outer loop
      vertex 295.294 -48.7945 10
      vertex 295.294 -49.4933 10
      vertex 295.334 -49.2616 10
    endloop
  endfacet
  facet normal 0 0 1
    outer loop
      vertex 295.213 -48.5734 10
      vertex 295.294 -49.4933 10
      vertex 295.294 -48.7945 10
    endloop
  endfacet
  facet normal 0 0 1
    outer loop
      vertex 295.213 -48.5734 10
      vertex 295.213 -49.7145 10
      vertex 295.294 -49.4933 10
    endloop
  endfacet
  facet normal 0 0 1
    outer loop
      vertex 295.095 -48.3696 10
      vertex 295.213 -49.7145 10
      vertex 295.213 -48.5734 10
    endloop
  endfacet
  facet normal 0 0 1
    outer loop
      vertex 295.095 -48.3696 10
      vertex 295.095 -49.9182 10
      vertex 295.213 -49.7145 10
    endloop
  endfacet
  facet normal 0 0 1
    outer loop
      vertex 294.944 -48.1893 10
      vertex 295.095 -49.9182 10
      vertex 295.095 -48.3696 10
    endloop
  endfacet
  facet normal 0 0 1
    outer loop
      vertex 294.944 -48.1893 10
      vertex 294.944 -50.0985 10
      vertex 295.095 -49.9182 10
    endloop
  endfacet
  facet normal 0 0 1
    outer loop
      vertex 294.764 -48.0381 10
      vertex 294.944 -50.0985 10
      vertex 294.944 -48.1893 10
    endloop
  endfacet
  facet normal 0 0 1
    outer loop
      vertex 294.764 -48.0381 10
      vertex 294.764 -50.2498 10
      vertex 294.944 -50.0985 10
    endloop
  endfacet
  facet normal 0 0 1
    outer loop
      vertex 294.56 -47.9204 10
      vertex 294.764 -50.2498 10
      vertex 294.764 -48.0381 10
    endloop
  endfacet
  facet normal 0 0 1
    outer loop
      vertex 294.56 -47.9204 10
      vertex 294.56 -50.3674 10
      vertex 294.764 -50.2498 10
    endloop
  endfacet
  facet normal 0 0 1
    outer loop
      vertex 294.339 -47.8399 10
      vertex 294.56 -50.3674 10
      vertex 294.56 -47.9204 10
    endloop
  endfacet
  facet normal 0 0 1
    outer loop
      vertex 294.339 -47.8399 10
      vertex 294.339 -50.4479 10
      vertex 294.56 -50.3674 10
    endloop
  endfacet
  facet normal 0 0 1
    outer loop
      vertex 294.107 -47.7991 10
      vertex 294.339 -50.4479 10
      vertex 294.339 -47.8399 10
    endloop
  endfacet
  facet normal 0 0 1
    outer loop
      vertex 294.107 -47.7991 10
      vertex 294.107 -50.4888 10
      vertex 294.339 -50.4479 10
    endloop
  endfacet
  facet normal -0 0 1
    outer loop
      vertex 293.872 -47.7991 10
      vertex 294.107 -50.4888 10
      vertex 294.107 -47.7991 10
    endloop
  endfacet
  facet normal 0 0 1
    outer loop
      vertex 293.872 -47.7991 10
      vertex 293.872 -50.4888 10
      vertex 294.107 -50.4888 10
    endloop
  endfacet
  facet normal -0 0 1
    outer loop
      vertex 293.64 -47.8399 10
      vertex 293.872 -50.4888 10
      vertex 293.872 -47.7991 10
    endloop
  endfacet
  facet normal 0 0 1
    outer loop
      vertex 293.64 -47.8399 10
      vertex 293.64 -50.4479 10
      vertex 293.872 -50.4888 10
    endloop
  endfacet
  facet normal -0 0 1
    outer loop
      vertex 293.419 -47.9204 10
      vertex 293.64 -50.4479 10
      vertex 293.64 -47.8399 10
    endloop
  endfacet
  facet normal 0 0 1
    outer loop
      vertex 293.419 -47.9204 10
      vertex 293.419 -50.3674 10
      vertex 293.64 -50.4479 10
    endloop
  endfacet
  facet normal -0 0 1
    outer loop
      vertex 293.215 -48.0381 10
      vertex 293.419 -50.3674 10
      vertex 293.419 -47.9204 10
    endloop
  endfacet
  facet normal 0 0 1
    outer loop
      vertex 293.215 -48.0381 10
      vertex 293.215 -50.2498 10
      vertex 293.419 -50.3674 10
    endloop
  endfacet
  facet normal -0 0 1
    outer loop
      vertex 293.035 -48.1893 10
      vertex 293.215 -50.2498 10
      vertex 293.215 -48.0381 10
    endloop
  endfacet
  facet normal 0 0 1
    outer loop
      vertex 293.035 -48.1893 10
      vertex 293.035 -50.0985 10
      vertex 293.215 -50.2498 10
    endloop
  endfacet
  facet normal -0 0 1
    outer loop
      vertex 292.884 -48.3696 10
      vertex 293.035 -50.0985 10
      vertex 293.035 -48.1893 10
    endloop
  endfacet
  facet normal 0 0 1
    outer loop
      vertex 292.884 -48.3696 10
      vertex 292.884 -49.9182 10
      vertex 293.035 -50.0985 10
    endloop
  endfacet
  facet normal -0 0 1
    outer loop
      vertex 292.766 -48.5734 10
      vertex 292.884 -49.9182 10
      vertex 292.884 -48.3696 10
    endloop
  endfacet
  facet normal 0 0 1
    outer loop
      vertex 292.766 -48.5734 10
      vertex 292.766 -49.7145 10
      vertex 292.884 -49.9182 10
    endloop
  endfacet
  facet normal -0 0 1
    outer loop
      vertex 292.686 -48.7945 10
      vertex 292.766 -49.7145 10
      vertex 292.766 -48.5734 10
    endloop
  endfacet
  facet normal 0 0 1
    outer loop
      vertex 292.686 -48.7945 10
      vertex 292.686 -49.4933 10
      vertex 292.766 -49.7145 10
    endloop
  endfacet
  facet normal -0 0 1
    outer loop
      vertex 292.645 -49.0263 10
      vertex 292.686 -49.4933 10
      vertex 292.686 -48.7945 10
    endloop
  endfacet
  facet normal 0 0 1
    outer loop
      vertex 292.686 -49.4933 10
      vertex 292.645 -49.0263 10
      vertex 292.645 -49.2616 10
    endloop
  endfacet
  facet normal -0.940388 -0.340104 0
    outer loop
      vertex 292.766 -49.7145 -10
      vertex 292.686 -49.4933 10
      vertex 292.686 -49.4933 -10
    endloop
  endfacet
  facet normal -0.940388 -0.340104 0
    outer loop
      vertex 292.686 -49.4933 10
      vertex 292.766 -49.7145 -10
      vertex 292.766 -49.7145 10
    endloop
  endfacet
  facet normal -0.766651 0.642065 0
    outer loop
      vertex 304.905 49.9182 -10
      vertex 305.056 50.0985 10
      vertex 305.056 50.0985 -10
    endloop
  endfacet
  facet normal -0.766651 0.642065 0
    outer loop
      vertex 305.056 50.0985 10
      vertex 304.905 49.9182 -10
      vertex 304.905 49.9182 10
    endloop
  endfacet
  facet normal -0.643441 0.765495 0
    outer loop
      vertex 305.236 50.2498 -10
      vertex 305.056 50.0985 10
      vertex 305.236 50.2498 10
    endloop
  endfacet
  facet normal -0.643441 0.765495 0
    outer loop
      vertex 305.056 50.0985 10
      vertex 305.236 50.2498 -10
      vertex 305.056 50.0985 -10
    endloop
  endfacet
  facet normal 0.342255 0.939607 -0
    outer loop
      vertex 306.581 50.3674 -10
      vertex 306.36 50.4479 10
      vertex 306.581 50.3674 10
    endloop
  endfacet
  facet normal 0.342255 0.939607 0
    outer loop
      vertex 306.36 50.4479 10
      vertex 306.581 50.3674 -10
      vertex 306.36 50.4479 -10
    endloop
  endfacet
  facet normal -0.8653 0.501254 0
    outer loop
      vertex 304.787 49.7145 -10
      vertex 304.905 49.9182 10
      vertex 304.905 49.9182 -10
    endloop
  endfacet
  facet normal -0.8653 0.501254 0
    outer loop
      vertex 304.905 49.9182 10
      vertex 304.787 49.7145 -10
      vertex 304.787 49.7145 10
    endloop
  endfacet
  facet normal 0.643192 -0.765705 0
    outer loop
      vertex 306.785 48.0381 -10
      vertex 306.965 48.1893 10
      vertex 306.785 48.0381 10
    endloop
  endfacet
  facet normal 0.643192 -0.765705 0
    outer loop
      vertex 306.965 48.1893 10
      vertex 306.785 48.0381 -10
      vertex 306.965 48.1893 -10
    endloop
  endfacet
  facet normal 0.940339 -0.34024 0
    outer loop
      vertex 307.234 48.5734 10
      vertex 307.314 48.7945 -10
      vertex 307.314 48.7945 10
    endloop
  endfacet
  facet normal 0.940339 -0.34024 0
    outer loop
      vertex 307.314 48.7945 -10
      vertex 307.234 48.5734 10
      vertex 307.234 48.5734 -10
    endloop
  endfacet
  facet normal 1 -0 0
    outer loop
      vertex 307.355 49.0263 10
      vertex 307.355 49.2616 -10
      vertex 307.355 49.2616 10
    endloop
  endfacet
  facet normal 1 0 0
    outer loop
      vertex 307.355 49.2616 -10
      vertex 307.355 49.0263 10
      vertex 307.355 49.0263 -10
    endloop
  endfacet
  facet normal 0.766651 -0.642065 0
    outer loop
      vertex 306.965 48.1893 10
      vertex 307.116 48.3696 -10
      vertex 307.116 48.3696 10
    endloop
  endfacet
  facet normal 0.766651 -0.642065 0
    outer loop
      vertex 307.116 48.3696 -10
      vertex 306.965 48.1893 10
      vertex 306.965 48.1893 -10
    endloop
  endfacet
  facet normal 0.643441 0.765495 -0
    outer loop
      vertex 306.965 50.0985 -10
      vertex 306.785 50.2498 10
      vertex 306.965 50.0985 10
    endloop
  endfacet
  facet normal 0.643441 0.765495 0
    outer loop
      vertex 306.785 50.2498 10
      vertex 306.965 50.0985 -10
      vertex 306.785 50.2498 -10
    endloop
  endfacet
  facet normal -0.865407 -0.50107 0
    outer loop
      vertex 304.905 48.3696 -10
      vertex 304.787 48.5734 10
      vertex 304.787 48.5734 -10
    endloop
  endfacet
  facet normal -0.865407 -0.50107 0
    outer loop
      vertex 304.787 48.5734 10
      vertex 304.905 48.3696 -10
      vertex 304.905 48.3696 10
    endloop
  endfacet
  facet normal 0.865407 -0.50107 0
    outer loop
      vertex 307.116 48.3696 10
      vertex 307.234 48.5734 -10
      vertex 307.234 48.5734 10
    endloop
  endfacet
  facet normal 0.865407 -0.50107 0
    outer loop
      vertex 307.234 48.5734 -10
      vertex 307.116 48.3696 10
      vertex 307.116 48.3696 -10
    endloop
  endfacet
  facet normal -0.342255 -0.939607 0
    outer loop
      vertex 305.44 47.9204 -10
      vertex 305.661 47.8399 10
      vertex 305.44 47.9204 10
    endloop
  endfacet
  facet normal -0.342255 -0.939607 -0
    outer loop
      vertex 305.661 47.8399 10
      vertex 305.44 47.9204 -10
      vertex 305.661 47.8399 -10
    endloop
  endfacet
  facet normal 0.8653 0.501254 0
    outer loop
      vertex 307.234 49.7145 10
      vertex 307.116 49.9182 -10
      vertex 307.116 49.9182 10
    endloop
  endfacet
  facet normal 0.8653 0.501254 0
    outer loop
      vertex 307.116 49.9182 -10
      vertex 307.234 49.7145 10
      vertex 307.234 49.7145 -10
    endloop
  endfacet
  facet normal -0.173204 -0.984886 0
    outer loop
      vertex 305.661 47.8399 -10
      vertex 305.893 47.7991 10
      vertex 305.661 47.8399 10
    endloop
  endfacet
  facet normal -0.173204 -0.984886 -0
    outer loop
      vertex 305.893 47.7991 10
      vertex 305.661 47.8399 -10
      vertex 305.893 47.7991 -10
    endloop
  endfacet
  facet normal 0.984702 0.174246 0
    outer loop
      vertex 307.355 49.2616 10
      vertex 307.314 49.4933 -10
      vertex 307.314 49.4933 10
    endloop
  endfacet
  facet normal 0.984702 0.174246 0
    outer loop
      vertex 307.314 49.4933 -10
      vertex 307.355 49.2616 10
      vertex 307.355 49.2616 -10
    endloop
  endfacet
  facet normal 0.173204 -0.984886 0
    outer loop
      vertex 306.128 47.7991 -10
      vertex 306.36 47.8399 10
      vertex 306.128 47.7991 10
    endloop
  endfacet
  facet normal 0.173204 -0.984886 0
    outer loop
      vertex 306.36 47.8399 10
      vertex 306.128 47.7991 -10
      vertex 306.36 47.8399 -10
    endloop
  endfacet
  facet normal 0.173616 0.984813 -0
    outer loop
      vertex 306.36 50.4479 -10
      vertex 306.128 50.4888 10
      vertex 306.36 50.4479 10
    endloop
  endfacet
  facet normal 0.173616 0.984813 0
    outer loop
      vertex 306.128 50.4888 10
      vertex 306.36 50.4479 -10
      vertex 306.128 50.4888 -10
    endloop
  endfacet
  facet normal 0.766651 0.642065 0
    outer loop
      vertex 307.116 49.9182 10
      vertex 306.965 50.0985 -10
      vertex 306.965 50.0985 10
    endloop
  endfacet
  facet normal 0.766651 0.642065 0
    outer loop
      vertex 306.965 50.0985 -10
      vertex 307.116 49.9182 10
      vertex 307.116 49.9182 -10
    endloop
  endfacet
  facet normal -0.985436 -0.170049 0
    outer loop
      vertex 304.706 48.7945 -10
      vertex 304.666 49.0263 10
      vertex 304.666 49.0263 -10
    endloop
  endfacet
  facet normal -0.985436 -0.170049 0
    outer loop
      vertex 304.666 49.0263 10
      vertex 304.706 48.7945 -10
      vertex 304.706 48.7945 10
    endloop
  endfacet
  facet normal -0.173616 0.984813 0
    outer loop
      vertex 305.893 50.4888 -10
      vertex 305.661 50.4479 10
      vertex 305.893 50.4888 10
    endloop
  endfacet
  facet normal -0.173616 0.984813 0
    outer loop
      vertex 305.661 50.4479 10
      vertex 305.893 50.4888 -10
      vertex 305.661 50.4479 -10
    endloop
  endfacet
  facet normal 0.984715 -0.174173 0
    outer loop
      vertex 307.314 48.7945 10
      vertex 307.355 49.0263 -10
      vertex 307.355 49.0263 10
    endloop
  endfacet
  facet normal 0.984715 -0.174173 0
    outer loop
      vertex 307.355 49.0263 -10
      vertex 307.314 48.7945 10
      vertex 307.314 48.7945 -10
    endloop
  endfacet
  facet normal 0.940388 0.340104 0
    outer loop
      vertex 307.314 49.4933 10
      vertex 307.234 49.7145 -10
      vertex 307.234 49.7145 10
    endloop
  endfacet
  facet normal 0.940388 0.340104 0
    outer loop
      vertex 307.234 49.7145 -10
      vertex 307.314 49.4933 10
      vertex 307.314 49.4933 -10
    endloop
  endfacet
  facet normal -0.939023 0.343855 0
    outer loop
      vertex 304.706 49.4933 -10
      vertex 304.787 49.7145 10
      vertex 304.787 49.7145 -10
    endloop
  endfacet
  facet normal -0.939023 0.343855 0
    outer loop
      vertex 304.787 49.7145 10
      vertex 304.706 49.4933 -10
      vertex 304.706 49.4933 10
    endloop
  endfacet
  facet normal 0.342255 -0.939607 0
    outer loop
      vertex 306.36 47.8399 -10
      vertex 306.581 47.9204 10
      vertex 306.36 47.8399 10
    endloop
  endfacet
  facet normal 0.342255 -0.939607 0
    outer loop
      vertex 306.581 47.9204 10
      vertex 306.36 47.8399 -10
      vertex 306.581 47.9204 -10
    endloop
  endfacet
  facet normal -0.938972 -0.343993 0
    outer loop
      vertex 304.787 48.5734 -10
      vertex 304.706 48.7945 10
      vertex 304.706 48.7945 -10
    endloop
  endfacet
  facet normal -0.938972 -0.343993 0
    outer loop
      vertex 304.706 48.7945 10
      vertex 304.787 48.5734 -10
      vertex 304.787 48.5734 10
    endloop
  endfacet
  facet normal -0.643192 -0.765705 0
    outer loop
      vertex 305.056 48.1893 -10
      vertex 305.236 48.0381 10
      vertex 305.056 48.1893 10
    endloop
  endfacet
  facet normal -0.643192 -0.765705 -0
    outer loop
      vertex 305.236 48.0381 10
      vertex 305.056 48.1893 -10
      vertex 305.236 48.0381 -10
    endloop
  endfacet
  facet normal -0.985423 0.170121 0
    outer loop
      vertex 304.666 49.2616 -10
      vertex 304.706 49.4933 10
      vertex 304.706 49.4933 -10
    endloop
  endfacet
  facet normal -0.985423 0.170121 0
    outer loop
      vertex 304.706 49.4933 10
      vertex 304.666 49.2616 -10
      vertex 304.666 49.2616 10
    endloop
  endfacet
  facet normal 0.499428 0.866355 -0
    outer loop
      vertex 306.785 50.2498 -10
      vertex 306.581 50.3674 10
      vertex 306.785 50.2498 10
    endloop
  endfacet
  facet normal 0.499428 0.866355 0
    outer loop
      vertex 306.581 50.3674 10
      vertex 306.785 50.2498 -10
      vertex 306.581 50.3674 -10
    endloop
  endfacet
  facet normal 0.499747 -0.866171 0
    outer loop
      vertex 306.581 47.9204 -10
      vertex 306.785 48.0381 10
      vertex 306.581 47.9204 10
    endloop
  endfacet
  facet normal 0.499747 -0.866171 0
    outer loop
      vertex 306.785 48.0381 10
      vertex 306.581 47.9204 -10
      vertex 306.785 48.0381 -10
    endloop
  endfacet
  facet normal -0.766651 -0.642065 0
    outer loop
      vertex 305.056 48.1893 -10
      vertex 304.905 48.3696 10
      vertex 304.905 48.3696 -10
    endloop
  endfacet
  facet normal -0.766651 -0.642065 0
    outer loop
      vertex 304.905 48.3696 10
      vertex 305.056 48.1893 -10
      vertex 305.056 48.1893 10
    endloop
  endfacet
  facet normal -0.499747 -0.866171 0
    outer loop
      vertex 305.236 48.0381 -10
      vertex 305.44 47.9204 10
      vertex 305.236 48.0381 10
    endloop
  endfacet
  facet normal -0.499747 -0.866171 -0
    outer loop
      vertex 305.44 47.9204 10
      vertex 305.236 48.0381 -10
      vertex 305.44 47.9204 -10
    endloop
  endfacet
  facet normal 0 -1 0
    outer loop
      vertex 305.893 47.7991 -10
      vertex 306.128 47.7991 10
      vertex 305.893 47.7991 10
    endloop
  endfacet
  facet normal 0 -1 -0
    outer loop
      vertex 306.128 47.7991 10
      vertex 305.893 47.7991 -10
      vertex 306.128 47.7991 -10
    endloop
  endfacet
  facet normal -1 0 0
    outer loop
      vertex 304.666 49.0263 -10
      vertex 304.666 49.2616 10
      vertex 304.666 49.2616 -10
    endloop
  endfacet
  facet normal -1 -0 0
    outer loop
      vertex 304.666 49.2616 10
      vertex 304.666 49.0263 -10
      vertex 304.666 49.0263 10
    endloop
  endfacet
  facet normal 0 0 -1
    outer loop
      vertex 307.314 48.7945 -10
      vertex 307.355 49.2616 -10
      vertex 307.355 49.0263 -10
    endloop
  endfacet
  facet normal 0 0 -1
    outer loop
      vertex 307.314 48.7945 -10
      vertex 307.314 49.4933 -10
      vertex 307.355 49.2616 -10
    endloop
  endfacet
  facet normal 0 0 -1
    outer loop
      vertex 307.234 48.5734 -10
      vertex 307.314 49.4933 -10
      vertex 307.314 48.7945 -10
    endloop
  endfacet
  facet normal 0 0 -1
    outer loop
      vertex 307.234 48.5734 -10
      vertex 307.234 49.7145 -10
      vertex 307.314 49.4933 -10
    endloop
  endfacet
  facet normal 0 0 -1
    outer loop
      vertex 307.116 48.3696 -10
      vertex 307.234 49.7145 -10
      vertex 307.234 48.5734 -10
    endloop
  endfacet
  facet normal 0 0 -1
    outer loop
      vertex 307.116 48.3696 -10
      vertex 307.116 49.9182 -10
      vertex 307.234 49.7145 -10
    endloop
  endfacet
  facet normal 0 0 -1
    outer loop
      vertex 306.965 48.1893 -10
      vertex 307.116 49.9182 -10
      vertex 307.116 48.3696 -10
    endloop
  endfacet
  facet normal 0 0 -1
    outer loop
      vertex 306.965 48.1893 -10
      vertex 306.965 50.0985 -10
      vertex 307.116 49.9182 -10
    endloop
  endfacet
  facet normal 0 0 -1
    outer loop
      vertex 306.785 48.0381 -10
      vertex 306.965 50.0985 -10
      vertex 306.965 48.1893 -10
    endloop
  endfacet
  facet normal 0 0 -1
    outer loop
      vertex 306.785 48.0381 -10
      vertex 306.785 50.2498 -10
      vertex 306.965 50.0985 -10
    endloop
  endfacet
  facet normal 0 0 -1
    outer loop
      vertex 306.581 47.9204 -10
      vertex 306.785 50.2498 -10
      vertex 306.785 48.0381 -10
    endloop
  endfacet
  facet normal 0 0 -1
    outer loop
      vertex 306.581 47.9204 -10
      vertex 306.581 50.3674 -10
      vertex 306.785 50.2498 -10
    endloop
  endfacet
  facet normal 0 0 -1
    outer loop
      vertex 306.36 47.8399 -10
      vertex 306.581 50.3674 -10
      vertex 306.581 47.9204 -10
    endloop
  endfacet
  facet normal 0 0 -1
    outer loop
      vertex 306.36 47.8399 -10
      vertex 306.36 50.4479 -10
      vertex 306.581 50.3674 -10
    endloop
  endfacet
  facet normal 0 0 -1
    outer loop
      vertex 306.128 47.7991 -10
      vertex 306.36 50.4479 -10
      vertex 306.36 47.8399 -10
    endloop
  endfacet
  facet normal 0 0 -1
    outer loop
      vertex 306.128 47.7991 -10
      vertex 306.128 50.4888 -10
      vertex 306.36 50.4479 -10
    endloop
  endfacet
  facet normal 0 0 -1
    outer loop
      vertex 305.893 47.7991 -10
      vertex 306.128 50.4888 -10
      vertex 306.128 47.7991 -10
    endloop
  endfacet
  facet normal 0 0 -1
    outer loop
      vertex 305.893 47.7991 -10
      vertex 305.893 50.4888 -10
      vertex 306.128 50.4888 -10
    endloop
  endfacet
  facet normal 0 0 -1
    outer loop
      vertex 305.661 47.8399 -10
      vertex 305.893 50.4888 -10
      vertex 305.893 47.7991 -10
    endloop
  endfacet
  facet normal 0 0 -1
    outer loop
      vertex 305.661 47.8399 -10
      vertex 305.661 50.4479 -10
      vertex 305.893 50.4888 -10
    endloop
  endfacet
  facet normal 0 0 -1
    outer loop
      vertex 305.44 47.9204 -10
      vertex 305.661 50.4479 -10
      vertex 305.661 47.8399 -10
    endloop
  endfacet
  facet normal 0 0 -1
    outer loop
      vertex 305.44 47.9204 -10
      vertex 305.44 50.3674 -10
      vertex 305.661 50.4479 -10
    endloop
  endfacet
  facet normal 0 0 -1
    outer loop
      vertex 305.236 48.0381 -10
      vertex 305.44 50.3674 -10
      vertex 305.44 47.9204 -10
    endloop
  endfacet
  facet normal 0 0 -1
    outer loop
      vertex 305.236 48.0381 -10
      vertex 305.236 50.2498 -10
      vertex 305.44 50.3674 -10
    endloop
  endfacet
  facet normal 0 0 -1
    outer loop
      vertex 305.056 48.1893 -10
      vertex 305.236 50.2498 -10
      vertex 305.236 48.0381 -10
    endloop
  endfacet
  facet normal 0 0 -1
    outer loop
      vertex 305.056 48.1893 -10
      vertex 305.056 50.0985 -10
      vertex 305.236 50.2498 -10
    endloop
  endfacet
  facet normal 0 0 -1
    outer loop
      vertex 304.905 48.3696 -10
      vertex 305.056 50.0985 -10
      vertex 305.056 48.1893 -10
    endloop
  endfacet
  facet normal 0 0 -1
    outer loop
      vertex 304.905 48.3696 -10
      vertex 304.905 49.9182 -10
      vertex 305.056 50.0985 -10
    endloop
  endfacet
  facet normal 0 0 -1
    outer loop
      vertex 304.787 48.5734 -10
      vertex 304.905 49.9182 -10
      vertex 304.905 48.3696 -10
    endloop
  endfacet
  facet normal 0 0 -1
    outer loop
      vertex 304.787 48.5734 -10
      vertex 304.787 49.7145 -10
      vertex 304.905 49.9182 -10
    endloop
  endfacet
  facet normal 0 0 -1
    outer loop
      vertex 304.706 48.7945 -10
      vertex 304.787 49.7145 -10
      vertex 304.787 48.5734 -10
    endloop
  endfacet
  facet normal 0 0 -1
    outer loop
      vertex 304.706 48.7945 -10
      vertex 304.706 49.4933 -10
      vertex 304.787 49.7145 -10
    endloop
  endfacet
  facet normal 0 0 -1
    outer loop
      vertex 304.666 49.0263 -10
      vertex 304.706 49.4933 -10
      vertex 304.706 48.7945 -10
    endloop
  endfacet
  facet normal 0 0 -1
    outer loop
      vertex 304.706 49.4933 -10
      vertex 304.666 49.0263 -10
      vertex 304.666 49.2616 -10
    endloop
  endfacet
  facet normal 0 0 1
    outer loop
      vertex 307.314 49.4933 10
      vertex 307.355 49.0263 10
      vertex 307.355 49.2616 10
    endloop
  endfacet
  facet normal 0 0 1
    outer loop
      vertex 307.314 49.4933 10
      vertex 307.314 48.7945 10
      vertex 307.355 49.0263 10
    endloop
  endfacet
  facet normal 0 0 1
    outer loop
      vertex 307.234 49.7145 10
      vertex 307.314 48.7945 10
      vertex 307.314 49.4933 10
    endloop
  endfacet
  facet normal 0 0 1
    outer loop
      vertex 307.234 49.7145 10
      vertex 307.234 48.5734 10
      vertex 307.314 48.7945 10
    endloop
  endfacet
  facet normal 0 0 1
    outer loop
      vertex 307.116 49.9182 10
      vertex 307.234 48.5734 10
      vertex 307.234 49.7145 10
    endloop
  endfacet
  facet normal 0 0 1
    outer loop
      vertex 307.116 49.9182 10
      vertex 307.116 48.3696 10
      vertex 307.234 48.5734 10
    endloop
  endfacet
  facet normal 0 0 1
    outer loop
      vertex 306.965 50.0985 10
      vertex 307.116 48.3696 10
      vertex 307.116 49.9182 10
    endloop
  endfacet
  facet normal 0 0 1
    outer loop
      vertex 306.965 50.0985 10
      vertex 306.965 48.1893 10
      vertex 307.116 48.3696 10
    endloop
  endfacet
  facet normal 0 0 1
    outer loop
      vertex 306.785 50.2498 10
      vertex 306.965 48.1893 10
      vertex 306.965 50.0985 10
    endloop
  endfacet
  facet normal 0 0 1
    outer loop
      vertex 306.785 50.2498 10
      vertex 306.785 48.0381 10
      vertex 306.965 48.1893 10
    endloop
  endfacet
  facet normal 0 0 1
    outer loop
      vertex 306.581 50.3674 10
      vertex 306.785 48.0381 10
      vertex 306.785 50.2498 10
    endloop
  endfacet
  facet normal 0 0 1
    outer loop
      vertex 306.581 50.3674 10
      vertex 306.581 47.9204 10
      vertex 306.785 48.0381 10
    endloop
  endfacet
  facet normal 0 0 1
    outer loop
      vertex 306.36 50.4479 10
      vertex 306.581 47.9204 10
      vertex 306.581 50.3674 10
    endloop
  endfacet
  facet normal 0 0 1
    outer loop
      vertex 306.36 50.4479 10
      vertex 306.36 47.8399 10
      vertex 306.581 47.9204 10
    endloop
  endfacet
  facet normal 0 0 1
    outer loop
      vertex 306.128 50.4888 10
      vertex 306.36 47.8399 10
      vertex 306.36 50.4479 10
    endloop
  endfacet
  facet normal 0 0 1
    outer loop
      vertex 306.128 50.4888 10
      vertex 306.128 47.7991 10
      vertex 306.36 47.8399 10
    endloop
  endfacet
  facet normal -0 0 1
    outer loop
      vertex 305.893 50.4888 10
      vertex 306.128 47.7991 10
      vertex 306.128 50.4888 10
    endloop
  endfacet
  facet normal 0 0 1
    outer loop
      vertex 305.893 50.4888 10
      vertex 305.893 47.7991 10
      vertex 306.128 47.7991 10
    endloop
  endfacet
  facet normal -0 0 1
    outer loop
      vertex 305.661 50.4479 10
      vertex 305.893 47.7991 10
      vertex 305.893 50.4888 10
    endloop
  endfacet
  facet normal 0 0 1
    outer loop
      vertex 305.661 50.4479 10
      vertex 305.661 47.8399 10
      vertex 305.893 47.7991 10
    endloop
  endfacet
  facet normal -0 0 1
    outer loop
      vertex 305.44 50.3674 10
      vertex 305.661 47.8399 10
      vertex 305.661 50.4479 10
    endloop
  endfacet
  facet normal 0 0 1
    outer loop
      vertex 305.44 50.3674 10
      vertex 305.44 47.9204 10
      vertex 305.661 47.8399 10
    endloop
  endfacet
  facet normal -0 0 1
    outer loop
      vertex 305.236 50.2498 10
      vertex 305.44 47.9204 10
      vertex 305.44 50.3674 10
    endloop
  endfacet
  facet normal 0 0 1
    outer loop
      vertex 305.236 50.2498 10
      vertex 305.236 48.0381 10
      vertex 305.44 47.9204 10
    endloop
  endfacet
  facet normal -0 0 1
    outer loop
      vertex 305.056 50.0985 10
      vertex 305.236 48.0381 10
      vertex 305.236 50.2498 10
    endloop
  endfacet
  facet normal 0 0 1
    outer loop
      vertex 305.056 50.0985 10
      vertex 305.056 48.1893 10
      vertex 305.236 48.0381 10
    endloop
  endfacet
  facet normal -0 0 1
    outer loop
      vertex 304.905 49.9182 10
      vertex 305.056 48.1893 10
      vertex 305.056 50.0985 10
    endloop
  endfacet
  facet normal 0 0 1
    outer loop
      vertex 304.905 49.9182 10
      vertex 304.905 48.3696 10
      vertex 305.056 48.1893 10
    endloop
  endfacet
  facet normal -0 0 1
    outer loop
      vertex 304.787 49.7145 10
      vertex 304.905 48.3696 10
      vertex 304.905 49.9182 10
    endloop
  endfacet
  facet normal 0 0 1
    outer loop
      vertex 304.787 49.7145 10
      vertex 304.787 48.5734 10
      vertex 304.905 48.3696 10
    endloop
  endfacet
  facet normal -0 0 1
    outer loop
      vertex 304.706 49.4933 10
      vertex 304.787 48.5734 10
      vertex 304.787 49.7145 10
    endloop
  endfacet
  facet normal 0 0 1
    outer loop
      vertex 304.706 49.4933 10
      vertex 304.706 48.7945 10
      vertex 304.787 48.5734 10
    endloop
  endfacet
  facet normal -0 0 1
    outer loop
      vertex 304.666 49.2616 10
      vertex 304.706 48.7945 10
      vertex 304.706 49.4933 10
    endloop
  endfacet
  facet normal 0 0 1
    outer loop
      vertex 304.706 48.7945 10
      vertex 304.666 49.2616 10
      vertex 304.666 49.0263 10
    endloop
  endfacet
  facet normal 0 1 -0
    outer loop
      vertex 306.128 50.4888 -10
      vertex 305.893 50.4888 10
      vertex 306.128 50.4888 10
    endloop
  endfacet
  facet normal 0 1 0
    outer loop
      vertex 305.893 50.4888 10
      vertex 306.128 50.4888 -10
      vertex 305.893 50.4888 -10
    endloop
  endfacet
  facet normal -0.499428 0.866355 0
    outer loop
      vertex 305.44 50.3674 -10
      vertex 305.236 50.2498 10
      vertex 305.44 50.3674 10
    endloop
  endfacet
  facet normal -0.499428 0.866355 0
    outer loop
      vertex 305.236 50.2498 10
      vertex 305.44 50.3674 -10
      vertex 305.236 50.2498 -10
    endloop
  endfacet
  facet normal -0.342255 0.939607 0
    outer loop
      vertex 305.661 50.4479 -10
      vertex 305.44 50.3674 10
      vertex 305.661 50.4479 10
    endloop
  endfacet
  facet normal -0.342255 0.939607 0
    outer loop
      vertex 305.44 50.3674 10
      vertex 305.661 50.4479 -10
      vertex 305.44 50.3674 -10
    endloop
  endfacet
  facet normal -0.342218 -0.939621 0
    outer loop
      vertex 250.286 -7.23392 -10
      vertex 250.507 -7.31441 10
      vertex 250.286 -7.23392 10
    endloop
  endfacet
  facet normal -0.342218 -0.939621 -0
    outer loop
      vertex 250.507 -7.31441 10
      vertex 250.286 -7.23392 -10
      vertex 250.507 -7.31441 -10
    endloop
  endfacet
  facet normal -0.641251 -0.767331 0
    outer loop
      vertex 249.901 -6.965 -10
      vertex 250.082 -7.11626 10
      vertex 249.901 -6.965 10
    endloop
  endfacet
  facet normal -0.641251 -0.767331 -0
    outer loop
      vertex 250.082 -7.11626 10
      vertex 249.901 -6.965 -10
      vertex 250.082 -7.11626 -10
    endloop
  endfacet
  facet normal 0.865407 -0.50107 0
    outer loop
      vertex 251.962 -6.78474 10
      vertex 252.08 -6.58094 -10
      vertex 252.08 -6.58094 10
    endloop
  endfacet
  facet normal 0.865407 -0.50107 0
    outer loop
      vertex 252.08 -6.58094 -10
      vertex 251.962 -6.78474 10
      vertex 251.962 -6.78474 -10
    endloop
  endfacet
  facet normal 0.76658 -0.642148 0
    outer loop
      vertex 251.811 -6.965 10
      vertex 251.962 -6.78474 -10
      vertex 251.962 -6.78474 10
    endloop
  endfacet
  facet normal 0.76658 -0.642148 0
    outer loop
      vertex 251.962 -6.78474 -10
      vertex 251.811 -6.965 10
      vertex 251.811 -6.965 -10
    endloop
  endfacet
  facet normal 0.940353 -0.340199 0
    outer loop
      vertex 252.08 -6.58094 10
      vertex 252.16 -6.35981 -10
      vertex 252.16 -6.35981 10
    endloop
  endfacet
  facet normal 0.940353 -0.340199 0
    outer loop
      vertex 252.16 -6.35981 -10
      vertex 252.08 -6.58094 10
      vertex 252.08 -6.58094 -10
    endloop
  endfacet
  facet normal -0.49962 0.866245 0
    outer loop
      vertex 250.286 -4.78689 -10
      vertex 250.082 -4.90455 10
      vertex 250.286 -4.78689 10
    endloop
  endfacet
  facet normal -0.49962 0.866245 0
    outer loop
      vertex 250.082 -4.90455 10
      vertex 250.286 -4.78689 -10
      vertex 250.082 -4.90455 -10
    endloop
  endfacet
  facet normal -1 0 0
    outer loop
      vertex 249.511 -6.12807 -10
      vertex 249.511 -5.89275 10
      vertex 249.511 -5.89275 -10
    endloop
  endfacet
  facet normal -1 -0 0
    outer loop
      vertex 249.511 -5.89275 10
      vertex 249.511 -6.12807 -10
      vertex 249.511 -6.12807 10
    endloop
  endfacet
  facet normal 1 -0 0
    outer loop
      vertex 252.201 -6.12807 10
      vertex 252.201 -5.89275 -10
      vertex 252.201 -5.89275 10
    endloop
  endfacet
  facet normal 1 0 0
    outer loop
      vertex 252.201 -5.89275 -10
      vertex 252.201 -6.12807 10
      vertex 252.201 -6.12807 -10
    endloop
  endfacet
  facet normal 0.174221 0.984707 -0
    outer loop
      vertex 251.205 -4.70641 -10
      vertex 250.974 -4.66554 10
      vertex 251.205 -4.70641 10
    endloop
  endfacet
  facet normal 0.174221 0.984707 0
    outer loop
      vertex 250.974 -4.66554 10
      vertex 251.205 -4.70641 -10
      vertex 250.974 -4.66554 -10
    endloop
  endfacet
  facet normal 0.501463 -0.865179 0
    outer loop
      vertex 251.427 -7.23392 -10
      vertex 251.63 -7.11626 10
      vertex 251.427 -7.23392 10
    endloop
  endfacet
  facet normal 0.501463 -0.865179 0
    outer loop
      vertex 251.63 -7.11626 10
      vertex 251.427 -7.23392 -10
      vertex 251.63 -7.11626 -10
    endloop
  endfacet
  facet normal 0.641251 -0.767331 0
    outer loop
      vertex 251.63 -7.11626 -10
      vertex 251.811 -6.965 10
      vertex 251.63 -7.11626 10
    endloop
  endfacet
  facet normal 0.641251 -0.767331 0
    outer loop
      vertex 251.811 -6.965 10
      vertex 251.63 -7.11626 -10
      vertex 251.811 -6.965 -10
    endloop
  endfacet
  facet normal -0.766598 0.642127 0
    outer loop
      vertex 249.75 -5.23608 -10
      vertex 249.901 -5.05581 10
      vertex 249.901 -5.05581 -10
    endloop
  endfacet
  facet normal -0.766598 0.642127 0
    outer loop
      vertex 249.901 -5.05581 10
      vertex 249.75 -5.23608 -10
      vertex 249.75 -5.23608 10
    endloop
  endfacet
  facet normal 0.174179 -0.984714 0
    outer loop
      vertex 250.974 -7.35527 -10
      vertex 251.205 -7.31441 10
      vertex 250.974 -7.35527 10
    endloop
  endfacet
  facet normal 0.174179 -0.984714 0
    outer loop
      vertex 251.205 -7.31441 10
      vertex 250.974 -7.35527 -10
      vertex 251.205 -7.31441 -10
    endloop
  endfacet
  facet normal 0.340855 -0.940116 0
    outer loop
      vertex 251.205 -7.31441 -10
      vertex 251.427 -7.23392 10
      vertex 251.205 -7.31441 10
    endloop
  endfacet
  facet normal 0.340855 -0.940116 0
    outer loop
      vertex 251.427 -7.23392 10
      vertex 251.205 -7.31441 -10
      vertex 251.427 -7.23392 -10
    endloop
  endfacet
  facet normal 0.940353 0.340199 0
    outer loop
      vertex 252.16 -5.661 10
      vertex 252.08 -5.43987 -10
      vertex 252.08 -5.43987 10
    endloop
  endfacet
  facet normal 0.940353 0.340199 0
    outer loop
      vertex 252.08 -5.43987 -10
      vertex 252.16 -5.661 10
      vertex 252.16 -5.661 -10
    endloop
  endfacet
  facet normal -0.867236 0.497898 0
    outer loop
      vertex 249.633 -5.43987 -10
      vertex 249.75 -5.23608 10
      vertex 249.75 -5.23608 -10
    endloop
  endfacet
  facet normal -0.867236 0.497898 0
    outer loop
      vertex 249.75 -5.23608 10
      vertex 249.633 -5.43987 -10
      vertex 249.633 -5.43987 10
    endloop
  endfacet
  facet normal -0.938987 -0.343951 0
    outer loop
      vertex 249.633 -6.58094 -10
      vertex 249.552 -6.35981 10
      vertex 249.552 -6.35981 -10
    endloop
  endfacet
  facet normal -0.938987 -0.343951 0
    outer loop
      vertex 249.552 -6.35981 10
      vertex 249.633 -6.58094 -10
      vertex 249.633 -6.58094 10
    endloop
  endfacet
  facet normal -0.49962 -0.866245 0
    outer loop
      vertex 250.082 -7.11626 -10
      vertex 250.286 -7.23392 10
      vertex 250.082 -7.11626 10
    endloop
  endfacet
  facet normal -0.49962 -0.866245 -0
    outer loop
      vertex 250.286 -7.23392 10
      vertex 250.082 -7.11626 -10
      vertex 250.286 -7.23392 -10
    endloop
  endfacet
  facet normal 0.984707 -0.174217 0
    outer loop
      vertex 252.16 -6.35981 10
      vertex 252.201 -6.12807 -10
      vertex 252.201 -6.12807 10
    endloop
  endfacet
  facet normal 0.984707 -0.174217 0
    outer loop
      vertex 252.201 -6.12807 -10
      vertex 252.16 -6.35981 10
      vertex 252.16 -6.35981 -10
    endloop
  endfacet
  facet normal 0.501463 0.865179 -0
    outer loop
      vertex 251.63 -4.90455 -10
      vertex 251.427 -4.78689 10
      vertex 251.63 -4.90455 10
    endloop
  endfacet
  facet normal 0.501463 0.865179 0
    outer loop
      vertex 251.427 -4.78689 10
      vertex 251.63 -4.90455 -10
      vertex 251.427 -4.78689 -10
    endloop
  endfacet
  facet normal 0.641251 0.767331 -0
    outer loop
      vertex 251.811 -5.05581 -10
      vertex 251.63 -4.90455 10
      vertex 251.811 -5.05581 10
    endloop
  endfacet
  facet normal 0.641251 0.767331 0
    outer loop
      vertex 251.63 -4.90455 10
      vertex 251.811 -5.05581 -10
      vertex 251.63 -4.90455 -10
    endloop
  endfacet
  facet normal 0 1 -0
    outer loop
      vertex 250.974 -4.66554 -10
      vertex 250.738 -4.66554 10
      vertex 250.974 -4.66554 10
    endloop
  endfacet
  facet normal 0 1 0
    outer loop
      vertex 250.738 -4.66554 10
      vertex 250.974 -4.66554 -10
      vertex 250.738 -4.66554 -10
    endloop
  endfacet
  facet normal -0.34218 0.939634 0
    outer loop
      vertex 250.507 -4.70641 -10
      vertex 250.286 -4.78689 10
      vertex 250.507 -4.70641 10
    endloop
  endfacet
  facet normal -0.34218 0.939634 0
    outer loop
      vertex 250.286 -4.78689 10
      vertex 250.507 -4.70641 -10
      vertex 250.286 -4.78689 -10
    endloop
  endfacet
  facet normal -0.984707 -0.174217 0
    outer loop
      vertex 249.552 -6.35981 -10
      vertex 249.511 -6.12807 10
      vertex 249.511 -6.12807 -10
    endloop
  endfacet
  facet normal -0.984707 -0.174217 0
    outer loop
      vertex 249.511 -6.12807 10
      vertex 249.552 -6.35981 -10
      vertex 249.552 -6.35981 10
    endloop
  endfacet
  facet normal 0.984709 0.17421 0
    outer loop
      vertex 252.201 -5.89275 10
      vertex 252.16 -5.661 -10
      vertex 252.16 -5.661 10
    endloop
  endfacet
  facet normal 0.984709 0.17421 0
    outer loop
      vertex 252.16 -5.661 -10
      vertex 252.201 -5.89275 10
      vertex 252.201 -5.89275 -10
    endloop
  endfacet
  facet normal 0.340818 0.940129 -0
    outer loop
      vertex 251.427 -4.78689 -10
      vertex 251.205 -4.70641 10
      vertex 251.427 -4.78689 10
    endloop
  endfacet
  facet normal 0.340818 0.940129 0
    outer loop
      vertex 251.205 -4.70641 10
      vertex 251.427 -4.78689 -10
      vertex 251.205 -4.70641 -10
    endloop
  endfacet
  facet normal -0.938987 0.343951 0
    outer loop
      vertex 249.552 -5.661 -10
      vertex 249.633 -5.43987 10
      vertex 249.633 -5.43987 -10
    endloop
  endfacet
  facet normal -0.938987 0.343951 0
    outer loop
      vertex 249.633 -5.43987 10
      vertex 249.552 -5.661 -10
      vertex 249.552 -5.661 10
    endloop
  endfacet
  facet normal 0.766598 0.642127 0
    outer loop
      vertex 251.962 -5.23608 10
      vertex 251.811 -5.05581 -10
      vertex 251.811 -5.05581 10
    endloop
  endfacet
  facet normal 0.766598 0.642127 0
    outer loop
      vertex 251.811 -5.05581 -10
      vertex 251.962 -5.23608 10
      vertex 251.962 -5.23608 -10
    endloop
  endfacet
  facet normal -0.984709 0.17421 0
    outer loop
      vertex 249.511 -5.89275 -10
      vertex 249.552 -5.661 10
      vertex 249.552 -5.661 -10
    endloop
  endfacet
  facet normal -0.984709 0.17421 0
    outer loop
      vertex 249.552 -5.661 10
      vertex 249.511 -5.89275 -10
      vertex 249.511 -5.89275 10
    endloop
  endfacet
  facet normal 0 -1 0
    outer loop
      vertex 250.738 -7.35527 -10
      vertex 250.974 -7.35527 10
      vertex 250.738 -7.35527 10
    endloop
  endfacet
  facet normal 0 -1 -0
    outer loop
      vertex 250.974 -7.35527 10
      vertex 250.738 -7.35527 -10
      vertex 250.974 -7.35527 -10
    endloop
  endfacet
  facet normal -0.174179 -0.984714 0
    outer loop
      vertex 250.507 -7.31441 -10
      vertex 250.738 -7.35527 10
      vertex 250.507 -7.31441 10
    endloop
  endfacet
  facet normal -0.174179 -0.984714 -0
    outer loop
      vertex 250.738 -7.35527 10
      vertex 250.507 -7.31441 -10
      vertex 250.738 -7.35527 -10
    endloop
  endfacet
  facet normal 0 0 -1
    outer loop
      vertex 252.16 -6.35981 -10
      vertex 252.201 -5.89275 -10
      vertex 252.201 -6.12807 -10
    endloop
  endfacet
  facet normal 0 0 -1
    outer loop
      vertex 252.16 -6.35981 -10
      vertex 252.16 -5.661 -10
      vertex 252.201 -5.89275 -10
    endloop
  endfacet
  facet normal 0 0 -1
    outer loop
      vertex 252.08 -6.58094 -10
      vertex 252.16 -5.661 -10
      vertex 252.16 -6.35981 -10
    endloop
  endfacet
  facet normal 0 0 -1
    outer loop
      vertex 252.08 -6.58094 -10
      vertex 252.08 -5.43987 -10
      vertex 252.16 -5.661 -10
    endloop
  endfacet
  facet normal 0 0 -1
    outer loop
      vertex 251.962 -6.78474 -10
      vertex 252.08 -5.43987 -10
      vertex 252.08 -6.58094 -10
    endloop
  endfacet
  facet normal 0 0 -1
    outer loop
      vertex 251.962 -6.78474 -10
      vertex 251.962 -5.23608 -10
      vertex 252.08 -5.43987 -10
    endloop
  endfacet
  facet normal 0 0 -1
    outer loop
      vertex 251.811 -6.965 -10
      vertex 251.962 -5.23608 -10
      vertex 251.962 -6.78474 -10
    endloop
  endfacet
  facet normal 0 0 -1
    outer loop
      vertex 251.811 -6.965 -10
      vertex 251.811 -5.05581 -10
      vertex 251.962 -5.23608 -10
    endloop
  endfacet
  facet normal 0 0 -1
    outer loop
      vertex 251.63 -7.11626 -10
      vertex 251.811 -5.05581 -10
      vertex 251.811 -6.965 -10
    endloop
  endfacet
  facet normal 0 0 -1
    outer loop
      vertex 251.63 -7.11626 -10
      vertex 251.63 -4.90455 -10
      vertex 251.811 -5.05581 -10
    endloop
  endfacet
  facet normal 0 0 -1
    outer loop
      vertex 251.427 -7.23392 -10
      vertex 251.63 -4.90455 -10
      vertex 251.63 -7.11626 -10
    endloop
  endfacet
  facet normal 0 0 -1
    outer loop
      vertex 251.427 -7.23392 -10
      vertex 251.427 -4.78689 -10
      vertex 251.63 -4.90455 -10
    endloop
  endfacet
  facet normal 0 0 -1
    outer loop
      vertex 251.205 -7.31441 -10
      vertex 251.427 -4.78689 -10
      vertex 251.427 -7.23392 -10
    endloop
  endfacet
  facet normal 0 0 -1
    outer loop
      vertex 251.205 -7.31441 -10
      vertex 251.205 -4.70641 -10
      vertex 251.427 -4.78689 -10
    endloop
  endfacet
  facet normal 0 0 -1
    outer loop
      vertex 250.974 -7.35527 -10
      vertex 251.205 -4.70641 -10
      vertex 251.205 -7.31441 -10
    endloop
  endfacet
  facet normal 0 0 -1
    outer loop
      vertex 250.974 -7.35527 -10
      vertex 250.974 -4.66554 -10
      vertex 251.205 -4.70641 -10
    endloop
  endfacet
  facet normal 0 0 -1
    outer loop
      vertex 250.738 -7.35527 -10
      vertex 250.974 -4.66554 -10
      vertex 250.974 -7.35527 -10
    endloop
  endfacet
  facet normal 0 0 -1
    outer loop
      vertex 250.738 -7.35527 -10
      vertex 250.738 -4.66554 -10
      vertex 250.974 -4.66554 -10
    endloop
  endfacet
  facet normal 0 0 -1
    outer loop
      vertex 250.507 -7.31441 -10
      vertex 250.738 -4.66554 -10
      vertex 250.738 -7.35527 -10
    endloop
  endfacet
  facet normal 0 0 -1
    outer loop
      vertex 250.507 -7.31441 -10
      vertex 250.507 -4.70641 -10
      vertex 250.738 -4.66554 -10
    endloop
  endfacet
  facet normal 0 0 -1
    outer loop
      vertex 250.286 -7.23392 -10
      vertex 250.507 -4.70641 -10
      vertex 250.507 -7.31441 -10
    endloop
  endfacet
  facet normal 0 0 -1
    outer loop
      vertex 250.286 -7.23392 -10
      vertex 250.286 -4.78689 -10
      vertex 250.507 -4.70641 -10
    endloop
  endfacet
  facet normal 0 0 -1
    outer loop
      vertex 250.082 -7.11626 -10
      vertex 250.286 -4.78689 -10
      vertex 250.286 -7.23392 -10
    endloop
  endfacet
  facet normal 0 0 -1
    outer loop
      vertex 250.082 -7.11626 -10
      vertex 250.082 -4.90455 -10
      vertex 250.286 -4.78689 -10
    endloop
  endfacet
  facet normal 0 0 -1
    outer loop
      vertex 249.901 -6.965 -10
      vertex 250.082 -4.90455 -10
      vertex 250.082 -7.11626 -10
    endloop
  endfacet
  facet normal 0 0 -1
    outer loop
      vertex 249.901 -6.965 -10
      vertex 249.901 -5.05581 -10
      vertex 250.082 -4.90455 -10
    endloop
  endfacet
  facet normal 0 0 -1
    outer loop
      vertex 249.75 -6.78474 -10
      vertex 249.901 -5.05581 -10
      vertex 249.901 -6.965 -10
    endloop
  endfacet
  facet normal 0 0 -1
    outer loop
      vertex 249.75 -6.78474 -10
      vertex 249.75 -5.23608 -10
      vertex 249.901 -5.05581 -10
    endloop
  endfacet
  facet normal 0 0 -1
    outer loop
      vertex 249.633 -6.58094 -10
      vertex 249.75 -5.23608 -10
      vertex 249.75 -6.78474 -10
    endloop
  endfacet
  facet normal 0 0 -1
    outer loop
      vertex 249.633 -6.58094 -10
      vertex 249.633 -5.43987 -10
      vertex 249.75 -5.23608 -10
    endloop
  endfacet
  facet normal 0 0 -1
    outer loop
      vertex 249.552 -6.35981 -10
      vertex 249.633 -5.43987 -10
      vertex 249.633 -6.58094 -10
    endloop
  endfacet
  facet normal 0 0 -1
    outer loop
      vertex 249.552 -6.35981 -10
      vertex 249.552 -5.661 -10
      vertex 249.633 -5.43987 -10
    endloop
  endfacet
  facet normal 0 0 -1
    outer loop
      vertex 249.511 -6.12807 -10
      vertex 249.552 -5.661 -10
      vertex 249.552 -6.35981 -10
    endloop
  endfacet
  facet normal 0 0 -1
    outer loop
      vertex 249.552 -5.661 -10
      vertex 249.511 -6.12807 -10
      vertex 249.511 -5.89275 -10
    endloop
  endfacet
  facet normal 0 0 1
    outer loop
      vertex 252.16 -5.661 10
      vertex 252.201 -6.12807 10
      vertex 252.201 -5.89275 10
    endloop
  endfacet
  facet normal 0 0 1
    outer loop
      vertex 252.16 -5.661 10
      vertex 252.16 -6.35981 10
      vertex 252.201 -6.12807 10
    endloop
  endfacet
  facet normal 0 0 1
    outer loop
      vertex 252.08 -5.43987 10
      vertex 252.16 -6.35981 10
      vertex 252.16 -5.661 10
    endloop
  endfacet
  facet normal 0 0 1
    outer loop
      vertex 252.08 -5.43987 10
      vertex 252.08 -6.58094 10
      vertex 252.16 -6.35981 10
    endloop
  endfacet
  facet normal 0 0 1
    outer loop
      vertex 251.962 -5.23608 10
      vertex 252.08 -6.58094 10
      vertex 252.08 -5.43987 10
    endloop
  endfacet
  facet normal 0 0 1
    outer loop
      vertex 251.962 -5.23608 10
      vertex 251.962 -6.78474 10
      vertex 252.08 -6.58094 10
    endloop
  endfacet
  facet normal 0 0 1
    outer loop
      vertex 251.811 -5.05581 10
      vertex 251.962 -6.78474 10
      vertex 251.962 -5.23608 10
    endloop
  endfacet
  facet normal 0 0 1
    outer loop
      vertex 251.811 -5.05581 10
      vertex 251.811 -6.965 10
      vertex 251.962 -6.78474 10
    endloop
  endfacet
  facet normal 0 0 1
    outer loop
      vertex 251.63 -4.90455 10
      vertex 251.811 -6.965 10
      vertex 251.811 -5.05581 10
    endloop
  endfacet
  facet normal 0 0 1
    outer loop
      vertex 251.63 -4.90455 10
      vertex 251.63 -7.11626 10
      vertex 251.811 -6.965 10
    endloop
  endfacet
  facet normal 0 0 1
    outer loop
      vertex 251.427 -4.78689 10
      vertex 251.63 -7.11626 10
      vertex 251.63 -4.90455 10
    endloop
  endfacet
  facet normal 0 0 1
    outer loop
      vertex 251.427 -4.78689 10
      vertex 251.427 -7.23392 10
      vertex 251.63 -7.11626 10
    endloop
  endfacet
  facet normal 0 0 1
    outer loop
      vertex 251.205 -4.70641 10
      vertex 251.427 -7.23392 10
      vertex 251.427 -4.78689 10
    endloop
  endfacet
  facet normal 0 0 1
    outer loop
      vertex 251.205 -4.70641 10
      vertex 251.205 -7.31441 10
      vertex 251.427 -7.23392 10
    endloop
  endfacet
  facet normal 0 0 1
    outer loop
      vertex 250.974 -4.66554 10
      vertex 251.205 -7.31441 10
      vertex 251.205 -4.70641 10
    endloop
  endfacet
  facet normal 0 0 1
    outer loop
      vertex 250.974 -4.66554 10
      vertex 250.974 -7.35527 10
      vertex 251.205 -7.31441 10
    endloop
  endfacet
  facet normal -0 0 1
    outer loop
      vertex 250.738 -4.66554 10
      vertex 250.974 -7.35527 10
      vertex 250.974 -4.66554 10
    endloop
  endfacet
  facet normal 0 0 1
    outer loop
      vertex 250.738 -4.66554 10
      vertex 250.738 -7.35527 10
      vertex 250.974 -7.35527 10
    endloop
  endfacet
  facet normal -0 0 1
    outer loop
      vertex 250.507 -4.70641 10
      vertex 250.738 -7.35527 10
      vertex 250.738 -4.66554 10
    endloop
  endfacet
  facet normal 0 0 1
    outer loop
      vertex 250.507 -4.70641 10
      vertex 250.507 -7.31441 10
      vertex 250.738 -7.35527 10
    endloop
  endfacet
  facet normal -0 0 1
    outer loop
      vertex 250.286 -4.78689 10
      vertex 250.507 -7.31441 10
      vertex 250.507 -4.70641 10
    endloop
  endfacet
  facet normal 0 0 1
    outer loop
      vertex 250.286 -4.78689 10
      vertex 250.286 -7.23392 10
      vertex 250.507 -7.31441 10
    endloop
  endfacet
  facet normal -0 0 1
    outer loop
      vertex 250.082 -4.90455 10
      vertex 250.286 -7.23392 10
      vertex 250.286 -4.78689 10
    endloop
  endfacet
  facet normal 0 0 1
    outer loop
      vertex 250.082 -4.90455 10
      vertex 250.082 -7.11626 10
      vertex 250.286 -7.23392 10
    endloop
  endfacet
  facet normal -0 0 1
    outer loop
      vertex 249.901 -5.05581 10
      vertex 250.082 -7.11626 10
      vertex 250.082 -4.90455 10
    endloop
  endfacet
  facet normal 0 0 1
    outer loop
      vertex 249.901 -5.05581 10
      vertex 249.901 -6.965 10
      vertex 250.082 -7.11626 10
    endloop
  endfacet
  facet normal -0 0 1
    outer loop
      vertex 249.75 -5.23608 10
      vertex 249.901 -6.965 10
      vertex 249.901 -5.05581 10
    endloop
  endfacet
  facet normal 0 0 1
    outer loop
      vertex 249.75 -5.23608 10
      vertex 249.75 -6.78474 10
      vertex 249.901 -6.965 10
    endloop
  endfacet
  facet normal -0 0 1
    outer loop
      vertex 249.633 -5.43987 10
      vertex 249.75 -6.78474 10
      vertex 249.75 -5.23608 10
    endloop
  endfacet
  facet normal 0 0 1
    outer loop
      vertex 249.633 -5.43987 10
      vertex 249.633 -6.58094 10
      vertex 249.75 -6.78474 10
    endloop
  endfacet
  facet normal -0 0 1
    outer loop
      vertex 249.552 -5.661 10
      vertex 249.633 -6.58094 10
      vertex 249.633 -5.43987 10
    endloop
  endfacet
  facet normal 0 0 1
    outer loop
      vertex 249.552 -5.661 10
      vertex 249.552 -6.35981 10
      vertex 249.633 -6.58094 10
    endloop
  endfacet
  facet normal -0 0 1
    outer loop
      vertex 249.511 -5.89275 10
      vertex 249.552 -6.35981 10
      vertex 249.552 -5.661 10
    endloop
  endfacet
  facet normal 0 0 1
    outer loop
      vertex 249.552 -6.35981 10
      vertex 249.511 -5.89275 10
      vertex 249.511 -6.12807 10
    endloop
  endfacet
  facet normal 0.865396 0.501088 0
    outer loop
      vertex 252.08 -5.43987 10
      vertex 251.962 -5.23608 -10
      vertex 251.962 -5.23608 10
    endloop
  endfacet
  facet normal 0.865396 0.501088 0
    outer loop
      vertex 251.962 -5.23608 -10
      vertex 252.08 -5.43987 10
      vertex 252.08 -5.43987 -10
    endloop
  endfacet
  facet normal -0.641251 0.767331 0
    outer loop
      vertex 250.082 -4.90455 -10
      vertex 249.901 -5.05581 10
      vertex 250.082 -4.90455 10
    endloop
  endfacet
  facet normal -0.641251 0.767331 0
    outer loop
      vertex 249.901 -5.05581 10
      vertex 250.082 -4.90455 -10
      vertex 249.901 -5.05581 -10
    endloop
  endfacet
  facet normal -0.174221 0.984707 0
    outer loop
      vertex 250.738 -4.66554 -10
      vertex 250.507 -4.70641 10
      vertex 250.738 -4.66554 10
    endloop
  endfacet
  facet normal -0.174221 0.984707 0
    outer loop
      vertex 250.507 -4.70641 10
      vertex 250.738 -4.66554 -10
      vertex 250.507 -4.70641 -10
    endloop
  endfacet
  facet normal -0.867246 -0.497879 0
    outer loop
      vertex 249.75 -6.78474 -10
      vertex 249.633 -6.58094 10
      vertex 249.633 -6.58094 -10
    endloop
  endfacet
  facet normal -0.867246 -0.497879 0
    outer loop
      vertex 249.633 -6.58094 10
      vertex 249.75 -6.78474 -10
      vertex 249.75 -6.78474 10
    endloop
  endfacet
  facet normal -0.76658 -0.642148 0
    outer loop
      vertex 249.901 -6.965 -10
      vertex 249.75 -6.78474 10
      vertex 249.75 -6.78474 -10
    endloop
  endfacet
  facet normal -0.76658 -0.642148 0
    outer loop
      vertex 249.75 -6.78474 10
      vertex 249.901 -6.965 -10
      vertex 249.901 -6.965 10
    endloop
  endfacet
endsolid OpenSCAD_Model
