solid OpenSCAD_Model
  facet normal 0.129972 0.989228 -0.0673436
    outer loop
      vertex 30 84.982 120
      vertex 29.9589 84.9874 120
      vertex 30 84.9997 120.26
    endloop
  endfacet
  facet normal 0.119791 0.990566 -0.0665575
    outer loop
      vertex 27.4539 85.291 120
      vertex 30 85.15 122.484
      vertex 29.8288 85.0038 120
    endloop
  endfacet
  facet normal 0.119797 0.990564 -0.0665643
    outer loop
      vertex 30 85.15 122.484
      vertex 27.4539 85.291 120
      vertex 30 86.1022 136.654
    endloop
  endfacet
  facet normal 0.115157 0.991161 -0.0658644
    outer loop
      vertex 30 86.1022 136.654
      vertex 29.1238 86.9771 148.288
      vertex 30 86.8753 148.288
    endloop
  endfacet
  facet normal 0.115616 0.991102 -0.0659512
    outer loop
      vertex 27.3236 85.3062 120
      vertex 30 86.1022 136.654
      vertex 27.4539 85.291 120
    endloop
  endfacet
  facet normal 0.11509 0.991169 -0.06587
    outer loop
      vertex 30 86.1022 136.654
      vertex 27.3236 85.3062 120
      vertex 29.1238 86.9771 148.288
    endloop
  endfacet
  facet normal 0.109721 0.991798 -0.0655654
    outer loop
      vertex 27.3236 85.3062 120
      vertex 25 85.5856 120.338
      vertex 29.1238 86.9771 148.288
    endloop
  endfacet
  facet normal 0.109696 0.99179 -0.0657281
    outer loop
      vertex 25 85.5856 120.338
      vertex 27.3236 85.3062 120
      vertex 25 85.5632 120
    endloop
  endfacet
  facet normal 0.105281 0.99232 -0.0649382
    outer loop
      vertex 29.1238 86.9771 148.288
      vertex 25 85.7659 123.094
      vertex 26.4677 87.2589 148.288
    endloop
  endfacet
  facet normal 0.105161 0.992334 -0.0649194
    outer loop
      vertex 25 85.7659 123.094
      vertex 29.1238 86.9771 148.288
      vertex 25 85.5856 120.338
    endloop
  endfacet
  facet normal 0.0995233 0.992933 -0.0646392
    outer loop
      vertex 26.4677 87.2589 148.288
      vertex 25 85.7659 123.094
      vertex 25 86.7336 137.959
    endloop
  endfacet
  facet normal 0.0954319 0.993371 -0.0640801
    outer loop
      vertex 26.4677 87.2589 148.288
      vertex 25 86.7336 137.959
      vertex 25 87.3999 148.288
    endloop
  endfacet
  facet normal 0.12479 0.989948 -0.0665586
    outer loop
      vertex 29.8288 85.0038 120
      vertex 30 84.9997 120.26
      vertex 29.9589 84.9874 120
    endloop
  endfacet
  facet normal 0.1253 0.989861 -0.0668957
    outer loop
      vertex 30 84.9997 120.26
      vertex 29.8288 85.0038 120
      vertex 30 85.15 122.484
    endloop
  endfacet
  facet normal 0.0877146 0.995449 -0.037256
    outer loop
      vertex 29.3393 88.1403 178.035
      vertex 25 87.918 161.879
      vertex 26.4136 88.3981 178.035
    endloop
  endfacet
  facet normal 0.0877106 0.995449 -0.037255
    outer loop
      vertex 25 87.918 161.879
      vertex 29.3393 88.1403 178.035
      vertex 25 87.6488 154.686
    endloop
  endfacet
  facet normal 0.0785118 0.996269 -0.0358383
    outer loop
      vertex 26.4136 88.3981 178.035
      vertex 25 88.2219 170.04
      vertex 25 88.5095 178.035
    endloop
  endfacet
  facet normal 0.105417 0.993605 -0.040452
    outer loop
      vertex 26.4677 87.2589 148.288
      vertex 30 87.2225 156.599
      vertex 29.1238 86.9771 148.288
    endloop
  endfacet
  facet normal 0.10544 0.993602 -0.0404617
    outer loop
      vertex 30 87.2225 156.599
      vertex 26.4677 87.2589 148.288
      vertex 30 87.6228 166.429
    endloop
  endfacet
  facet normal 0.0955538 0.994672 -0.0386962
    outer loop
      vertex 26.4677 87.2589 148.288
      vertex 25 87.6488 154.686
      vertex 29.3393 88.1403 178.035
    endloop
  endfacet
  facet normal 0.0955568 0.994672 -0.0386955
    outer loop
      vertex 25 87.6488 154.686
      vertex 26.4677 87.2589 148.288
      vertex 25 87.3999 148.288
    endloop
  endfacet
  facet normal 0.0969395 0.994533 -0.0388267
    outer loop
      vertex 30 87.6228 166.429
      vertex 29.3393 88.1403 178.035
      vertex 30 88.0759 178.035
    endloop
  endfacet
  facet normal 0.096945 0.994532 -0.0388264
    outer loop
      vertex 29.3393 88.1403 178.035
      vertex 30 87.6228 166.429
      vertex 26.4677 87.2589 148.288
    endloop
  endfacet
  facet normal 0.0877756 0.99614 -0
    outer loop
      vertex 29.3393 88.1403 178.035
      vertex 26.4136 88.3981 240
      vertex 29.3393 88.1403 240
    endloop
  endfacet
  facet normal 0.0877756 0.99614 0
    outer loop
      vertex 26.4136 88.3981 240
      vertex 29.3393 88.1403 178.035
      vertex 26.4136 88.3981 178.035
    endloop
  endfacet
  facet normal 0.0785623 0.996909 -0
    outer loop
      vertex 26.4136 88.3981 178.035
      vertex 25 88.5095 240
      vertex 26.4136 88.3981 240
    endloop
  endfacet
  facet normal 0.0785623 0.996909 0
    outer loop
      vertex 25 88.5095 240
      vertex 26.4136 88.3981 178.035
      vertex 25 88.5095 178.035
    endloop
  endfacet
  facet normal 0.106181 0.99352 -0.0405301
    outer loop
      vertex 30 87.0592 152.596
      vertex 29.1238 86.9771 148.288
      vertex 30 87.2225 156.599
    endloop
  endfacet
  facet normal 0.115304 0.992426 -0.0423647
    outer loop
      vertex 30 86.8753 148.288
      vertex 29.1238 86.9771 148.288
      vertex 30 87.0592 152.596
    endloop
  endfacet
  facet normal 0.0855891 0.99564 -0.0370757
    outer loop
      vertex 26.4136 88.3981 178.035
      vertex 25 87.918 161.879
      vertex 25 88.2219 170.04
    endloop
  endfacet
  facet normal 0.0970126 0.995283 -0
    outer loop
      vertex 30 88.0759 178.035
      vertex 29.3393 88.1403 240
      vertex 30 88.0759 240
    endloop
  endfacet
  facet normal 0.0970126 0.995283 0
    outer loop
      vertex 29.3393 88.1403 240
      vertex 30 88.0759 178.035
      vertex 29.3393 88.1403 178.035
    endloop
  endfacet
  facet normal 0.129972 -0.989228 -0.0673436
    outer loop
      vertex 30 -84.982 120
      vertex 30 -84.9997 120.26
      vertex 29.9589 -84.9874 120
    endloop
  endfacet
  facet normal 0.119797 -0.990564 -0.0665643
    outer loop
      vertex 27.4539 -85.291 120
      vertex 30 -85.15 122.484
      vertex 30 -86.1022 136.654
    endloop
  endfacet
  facet normal 0.119791 -0.990566 -0.0665575
    outer loop
      vertex 30 -85.15 122.484
      vertex 27.4539 -85.291 120
      vertex 29.8288 -85.0038 120
    endloop
  endfacet
  facet normal 0.115157 -0.991161 -0.0658644
    outer loop
      vertex 29.1238 -86.9771 148.288
      vertex 30 -86.1022 136.654
      vertex 30 -86.8753 148.288
    endloop
  endfacet
  facet normal 0.11509 -0.991169 -0.06587
    outer loop
      vertex 27.3236 -85.3062 120
      vertex 30 -86.1022 136.654
      vertex 29.1238 -86.9771 148.288
    endloop
  endfacet
  facet normal 0.115616 -0.991102 -0.0659512
    outer loop
      vertex 30 -86.1022 136.654
      vertex 27.3236 -85.3062 120
      vertex 27.4539 -85.291 120
    endloop
  endfacet
  facet normal 0.109696 -0.99179 -0.0657281
    outer loop
      vertex 27.3236 -85.3062 120
      vertex 25 -85.5856 120.338
      vertex 25 -85.5632 120
    endloop
  endfacet
  facet normal 0.109721 -0.991798 -0.0655654
    outer loop
      vertex 25 -85.5856 120.338
      vertex 27.3236 -85.3062 120
      vertex 29.1238 -86.9771 148.288
    endloop
  endfacet
  facet normal 0.105281 -0.99232 -0.0649382
    outer loop
      vertex 25 -85.7659 123.094
      vertex 29.1238 -86.9771 148.288
      vertex 26.4677 -87.2589 148.288
    endloop
  endfacet
  facet normal 0.105161 -0.992334 -0.0649194
    outer loop
      vertex 29.1238 -86.9771 148.288
      vertex 25 -85.7659 123.094
      vertex 25 -85.5856 120.338
    endloop
  endfacet
  facet normal 0.0995233 -0.992933 -0.0646392
    outer loop
      vertex 25 -85.7659 123.094
      vertex 26.4677 -87.2589 148.288
      vertex 25 -86.7336 137.959
    endloop
  endfacet
  facet normal 0.0954319 -0.993371 -0.0640801
    outer loop
      vertex 25 -86.7336 137.959
      vertex 26.4677 -87.2589 148.288
      vertex 25 -87.3999 148.288
    endloop
  endfacet
  facet normal 0.1253 -0.989861 -0.0668957
    outer loop
      vertex 29.8288 -85.0038 120
      vertex 30 -84.9997 120.26
      vertex 30 -85.15 122.484
    endloop
  endfacet
  facet normal 0.12479 -0.989948 -0.0665586
    outer loop
      vertex 30 -84.9997 120.26
      vertex 29.8288 -85.0038 120
      vertex 29.9589 -84.9874 120
    endloop
  endfacet
  facet normal 0.0877146 -0.995449 -0.037256
    outer loop
      vertex 25 -87.918 161.879
      vertex 29.3393 -88.1403 178.035
      vertex 26.4136 -88.3981 178.035
    endloop
  endfacet
  facet normal 0.0877106 -0.995449 -0.037255
    outer loop
      vertex 29.3393 -88.1403 178.035
      vertex 25 -87.918 161.879
      vertex 25 -87.6488 154.686
    endloop
  endfacet
  facet normal 0.0785118 -0.996269 -0.0358383
    outer loop
      vertex 25 -88.2219 170.04
      vertex 26.4136 -88.3981 178.035
      vertex 25 -88.5095 178.035
    endloop
  endfacet
  facet normal 0.10544 -0.993602 -0.0404617
    outer loop
      vertex 26.4677 -87.2589 148.288
      vertex 30 -87.2225 156.599
      vertex 30 -87.6228 166.429
    endloop
  endfacet
  facet normal 0.105417 -0.993605 -0.040452
    outer loop
      vertex 30 -87.2225 156.599
      vertex 26.4677 -87.2589 148.288
      vertex 29.1238 -86.9771 148.288
    endloop
  endfacet
  facet normal 0.0955568 -0.994672 -0.0386955
    outer loop
      vertex 26.4677 -87.2589 148.288
      vertex 25 -87.6488 154.686
      vertex 25 -87.3999 148.288
    endloop
  endfacet
  facet normal 0.0955538 -0.994672 -0.0386962
    outer loop
      vertex 25 -87.6488 154.686
      vertex 26.4677 -87.2589 148.288
      vertex 29.3393 -88.1403 178.035
    endloop
  endfacet
  facet normal 0.0969395 -0.994533 -0.0388267
    outer loop
      vertex 29.3393 -88.1403 178.035
      vertex 30 -87.6228 166.429
      vertex 30 -88.0759 178.035
    endloop
  endfacet
  facet normal 0.096945 -0.994532 -0.0388264
    outer loop
      vertex 30 -87.6228 166.429
      vertex 29.3393 -88.1403 178.035
      vertex 26.4677 -87.2589 148.288
    endloop
  endfacet
  facet normal 0.0877756 -0.99614 0
    outer loop
      vertex 26.4136 -88.3981 178.035
      vertex 29.3393 -88.1403 240
      vertex 26.4136 -88.3981 240
    endloop
  endfacet
  facet normal 0.0877756 -0.99614 0
    outer loop
      vertex 29.3393 -88.1403 240
      vertex 26.4136 -88.3981 178.035
      vertex 29.3393 -88.1403 178.035
    endloop
  endfacet
  facet normal 0.0785623 -0.996909 0
    outer loop
      vertex 25 -88.5095 178.035
      vertex 26.4136 -88.3981 240
      vertex 25 -88.5095 240
    endloop
  endfacet
  facet normal 0.0785623 -0.996909 0
    outer loop
      vertex 26.4136 -88.3981 240
      vertex 25 -88.5095 178.035
      vertex 26.4136 -88.3981 178.035
    endloop
  endfacet
  facet normal 0.106181 -0.99352 -0.0405301
    outer loop
      vertex 30 -87.0592 152.596
      vertex 30 -87.2225 156.599
      vertex 29.1238 -86.9771 148.288
    endloop
  endfacet
  facet normal 0.115304 -0.992426 -0.0423647
    outer loop
      vertex 30 -86.8753 148.288
      vertex 30 -87.0592 152.596
      vertex 29.1238 -86.9771 148.288
    endloop
  endfacet
  facet normal 0.0855891 -0.99564 -0.0370757
    outer loop
      vertex 25 -87.918 161.879
      vertex 26.4136 -88.3981 178.035
      vertex 25 -88.2219 170.04
    endloop
  endfacet
  facet normal 0.0970126 -0.995283 0
    outer loop
      vertex 29.3393 -88.1403 178.035
      vertex 30 -88.0759 240
      vertex 29.3393 -88.1403 240
    endloop
  endfacet
  facet normal 0.0970126 -0.995283 0
    outer loop
      vertex 30 -88.0759 240
      vertex 29.3393 -88.1403 178.035
      vertex 30 -88.0759 178.035
    endloop
  endfacet
  facet normal 1 -0 0
    outer loop
      vertex 30 -88.0759 178.035
      vertex 30 -50 135
      vertex 30 -50 240
    endloop
  endfacet
  facet normal 1 0 0
    outer loop
      vertex 30 -50 135
      vertex 30 -84.9997 120.26
      vertex 30 -84.982 120
    endloop
  endfacet
  facet normal 1 0 0
    outer loop
      vertex 30 -50 135
      vertex 30 -85.15 122.484
      vertex 30 -84.9997 120.26
    endloop
  endfacet
  facet normal 1 0 0
    outer loop
      vertex 30 -50 135
      vertex 30 -86.1022 136.654
      vertex 30 -85.15 122.484
    endloop
  endfacet
  facet normal 1 0 0
    outer loop
      vertex 30 -50 135
      vertex 30 -86.8753 148.288
      vertex 30 -86.1022 136.654
    endloop
  endfacet
  facet normal 1 0 0
    outer loop
      vertex 30 -50 135
      vertex 30 -87.0592 152.596
      vertex 30 -86.8753 148.288
    endloop
  endfacet
  facet normal 1 0 0
    outer loop
      vertex 30 -50 135
      vertex 30 -87.2225 156.599
      vertex 30 -87.0592 152.596
    endloop
  endfacet
  facet normal 1 0 0
    outer loop
      vertex 30 -50 135
      vertex 30 -87.6228 166.429
      vertex 30 -87.2225 156.599
    endloop
  endfacet
  facet normal 1 0 0
    outer loop
      vertex 30 -88.0759 178.035
      vertex 30 -50 240
      vertex 30 -88.0759 240
    endloop
  endfacet
  facet normal 1 0 0
    outer loop
      vertex 30 -50 135
      vertex 30 -88.0759 178.035
      vertex 30 -87.6228 166.429
    endloop
  endfacet
  facet normal 1 -0 0
    outer loop
      vertex 30 50 240
      vertex 30 88.0759 178.035
      vertex 30 88.0759 240
    endloop
  endfacet
  facet normal 1 0 0
    outer loop
      vertex 30 50 135
      vertex 30 88.0759 178.035
      vertex 30 50 240
    endloop
  endfacet
  facet normal 1 0 0
    outer loop
      vertex 30 88.0759 178.035
      vertex 30 50 135
      vertex 30 87.6228 166.429
    endloop
  endfacet
  facet normal 1 0 0
    outer loop
      vertex 30 87.6228 166.429
      vertex 30 50 135
      vertex 30 87.2225 156.599
    endloop
  endfacet
  facet normal 1 0 0
    outer loop
      vertex 30 87.2225 156.599
      vertex 30 50 135
      vertex 30 87.0592 152.596
    endloop
  endfacet
  facet normal 1 0 0
    outer loop
      vertex 30 87.0592 152.596
      vertex 30 50 135
      vertex 30 86.8753 148.288
    endloop
  endfacet
  facet normal 1 0 0
    outer loop
      vertex 30 49.8481 133.264
      vertex 30 86.1022 136.654
      vertex 30 50 135
    endloop
  endfacet
  facet normal 1 0 0
    outer loop
      vertex 30 86.1022 136.654
      vertex 30 49.8481 133.264
      vertex 30 85.15 122.484
    endloop
  endfacet
  facet normal 1 0 0
    outer loop
      vertex 30 86.8753 148.288
      vertex 30 50 135
      vertex 30 86.1022 136.654
    endloop
  endfacet
  facet normal 1 -0 0
    outer loop
      vertex 30 49.3969 131.58
      vertex 30 85.15 122.484
      vertex 30 49.8481 133.264
    endloop
  endfacet
  facet normal 1 0 0
    outer loop
      vertex 30 85.15 122.484
      vertex 30 49.3969 131.58
      vertex 30 84.9997 120.26
    endloop
  endfacet
  facet normal 1 -0 0
    outer loop
      vertex 30 48.6603 130
      vertex 30 84.9997 120.26
      vertex 30 49.3969 131.58
    endloop
  endfacet
  facet normal 1 0 0
    outer loop
      vertex 30 84.9997 120.26
      vertex 30 48.6603 130
      vertex 30 84.982 120
    endloop
  endfacet
  facet normal 1 -0 0
    outer loop
      vertex 30 47.6604 128.572
      vertex 30 84.982 120
      vertex 30 48.6603 130
    endloop
  endfacet
  facet normal 1 -0 0
    outer loop
      vertex 30 46.4279 127.34
      vertex 30 84.982 120
      vertex 30 47.6604 128.572
    endloop
  endfacet
  facet normal 1 -0 0
    outer loop
      vertex 30 45 126.34
      vertex 30 84.982 120
      vertex 30 46.4279 127.34
    endloop
  endfacet
  facet normal 1 -0 0
    outer loop
      vertex 30 43.4202 125.603
      vertex 30 84.982 120
      vertex 30 45 126.34
    endloop
  endfacet
  facet normal 1 -0 0
    outer loop
      vertex 30 41.7365 125.152
      vertex 30 84.982 120
      vertex 30 43.4202 125.603
    endloop
  endfacet
  facet normal 1 -0 0
    outer loop
      vertex 30 40 125
      vertex 30 84.982 120
      vertex 30 41.7365 125.152
    endloop
  endfacet
  facet normal 1 -0 0
    outer loop
      vertex 30 -40 125
      vertex 30 84.982 120
      vertex 30 40 125
    endloop
  endfacet
  facet normal 1 0 0
    outer loop
      vertex 30 -40 125
      vertex 30 -84.982 120
      vertex 30 84.982 120
    endloop
  endfacet
  facet normal 1 0 0
    outer loop
      vertex 30 -41.7365 125.152
      vertex 30 -84.982 120
      vertex 30 -40 125
    endloop
  endfacet
  facet normal 1 0 0
    outer loop
      vertex 30 -43.4202 125.603
      vertex 30 -84.982 120
      vertex 30 -41.7365 125.152
    endloop
  endfacet
  facet normal 1 0 0
    outer loop
      vertex 30 -45 126.34
      vertex 30 -84.982 120
      vertex 30 -43.4202 125.603
    endloop
  endfacet
  facet normal 1 0 0
    outer loop
      vertex 30 -46.4279 127.34
      vertex 30 -84.982 120
      vertex 30 -45 126.34
    endloop
  endfacet
  facet normal 1 0 0
    outer loop
      vertex 30 -47.6604 128.572
      vertex 30 -84.982 120
      vertex 30 -46.4279 127.34
    endloop
  endfacet
  facet normal 1 0 0
    outer loop
      vertex 30 -48.6603 130
      vertex 30 -84.982 120
      vertex 30 -47.6604 128.572
    endloop
  endfacet
  facet normal 1 0 0
    outer loop
      vertex 30 -49.3969 131.58
      vertex 30 -84.982 120
      vertex 30 -48.6603 130
    endloop
  endfacet
  facet normal 1 0 0
    outer loop
      vertex 30 -49.8481 133.264
      vertex 30 -84.982 120
      vertex 30 -49.3969 131.58
    endloop
  endfacet
  facet normal 1 0 0
    outer loop
      vertex 30 -84.982 120
      vertex 30 -49.8481 133.264
      vertex 30 -50 135
    endloop
  endfacet
  facet normal -1 0 0
    outer loop
      vertex 25 86.7336 137.959
      vertex 25 49.8481 133.264
      vertex 25 50 135
    endloop
  endfacet
  facet normal -1 0 0
    outer loop
      vertex 25 85.5856 120.338
      vertex 25 49.3969 131.58
      vertex 25 49.8481 133.264
    endloop
  endfacet
  facet normal -1 0 0
    outer loop
      vertex 25 85.5856 120.338
      vertex 25 48.6603 130
      vertex 25 49.3969 131.58
    endloop
  endfacet
  facet normal -1 0 0
    outer loop
      vertex 25 85.5632 120
      vertex 25 47.6604 128.572
      vertex 25 48.6603 130
    endloop
  endfacet
  facet normal -1 0 0
    outer loop
      vertex 25 85.5632 120
      vertex 25 46.4279 127.34
      vertex 25 47.6604 128.572
    endloop
  endfacet
  facet normal -1 0 0
    outer loop
      vertex 25 85.5632 120
      vertex 25 45 126.34
      vertex 25 46.4279 127.34
    endloop
  endfacet
  facet normal -1 0 0
    outer loop
      vertex 25 85.5632 120
      vertex 25 43.4202 125.603
      vertex 25 45 126.34
    endloop
  endfacet
  facet normal -1 0 0
    outer loop
      vertex 25 85.5632 120
      vertex 25 41.7365 125.152
      vertex 25 43.4202 125.603
    endloop
  endfacet
  facet normal -1 0 0
    outer loop
      vertex 25 85.5632 120
      vertex 25 40 125
      vertex 25 41.7365 125.152
    endloop
  endfacet
  facet normal -1 0 0
    outer loop
      vertex 25 85.5632 120
      vertex 25 -40 125
      vertex 25 40 125
    endloop
  endfacet
  facet normal -1 0 0
    outer loop
      vertex 25 -85.5632 120
      vertex 25 -40 125
      vertex 25 85.5632 120
    endloop
  endfacet
  facet normal -1 0 0
    outer loop
      vertex 25 -85.5632 120
      vertex 25 -41.7365 125.152
      vertex 25 -40 125
    endloop
  endfacet
  facet normal -1 0 0
    outer loop
      vertex 25 -85.5632 120
      vertex 25 -43.4202 125.603
      vertex 25 -41.7365 125.152
    endloop
  endfacet
  facet normal -1 0 0
    outer loop
      vertex 25 -85.5632 120
      vertex 25 -45 126.34
      vertex 25 -43.4202 125.603
    endloop
  endfacet
  facet normal -1 0 0
    outer loop
      vertex 25 -85.5632 120
      vertex 25 -46.4279 127.34
      vertex 25 -45 126.34
    endloop
  endfacet
  facet normal -1 0 0
    outer loop
      vertex 25 -85.5632 120
      vertex 25 -47.6604 128.572
      vertex 25 -46.4279 127.34
    endloop
  endfacet
  facet normal -1 0 0
    outer loop
      vertex 25 -85.5632 120
      vertex 25 -48.6603 130
      vertex 25 -47.6604 128.572
    endloop
  endfacet
  facet normal -1 0 0
    outer loop
      vertex 25 -85.5856 120.338
      vertex 25 -48.6603 130
      vertex 25 -85.5632 120
    endloop
  endfacet
  facet normal -1 -0 0
    outer loop
      vertex 25 -48.6603 130
      vertex 25 -85.5856 120.338
      vertex 25 -49.3969 131.58
    endloop
  endfacet
  facet normal -1 0 0
    outer loop
      vertex 25 -85.7659 123.094
      vertex 25 -49.3969 131.58
      vertex 25 -85.5856 120.338
    endloop
  endfacet
  facet normal -1 -0 0
    outer loop
      vertex 25 -49.3969 131.58
      vertex 25 -85.7659 123.094
      vertex 25 -49.8481 133.264
    endloop
  endfacet
  facet normal -1 0 0
    outer loop
      vertex 25 -86.7336 137.959
      vertex 25 -49.8481 133.264
      vertex 25 -85.7659 123.094
    endloop
  endfacet
  facet normal -1 0 0
    outer loop
      vertex 25 -49.8481 133.264
      vertex 25 -86.7336 137.959
      vertex 25 -50 135
    endloop
  endfacet
  facet normal -1 0 0
    outer loop
      vertex 25 -87.3999 148.288
      vertex 25 -50 135
      vertex 25 -86.7336 137.959
    endloop
  endfacet
  facet normal -1 0 0
    outer loop
      vertex 25 -87.6488 154.686
      vertex 25 -50 135
      vertex 25 -87.3999 148.288
    endloop
  endfacet
  facet normal -1 0 0
    outer loop
      vertex 25 -87.918 161.879
      vertex 25 -50 135
      vertex 25 -87.6488 154.686
    endloop
  endfacet
  facet normal -1 0 0
    outer loop
      vertex 25 -88.2219 170.04
      vertex 25 -50 135
      vertex 25 -87.918 161.879
    endloop
  endfacet
  facet normal -1 0 0
    outer loop
      vertex 25 -88.5095 178.035
      vertex 25 -50 135
      vertex 25 -88.2219 170.04
    endloop
  endfacet
  facet normal -1 0 0
    outer loop
      vertex 25 -50 135
      vertex 25 -88.5095 178.035
      vertex 25 -50 240
    endloop
  endfacet
  facet normal -1 -0 0
    outer loop
      vertex 25 -50 240
      vertex 25 -88.5095 178.035
      vertex 25 -88.5095 240
    endloop
  endfacet
  facet normal -1 0 0
    outer loop
      vertex 25 50 135
      vertex 25 88.5095 178.035
      vertex 25 88.2219 170.04
    endloop
  endfacet
  facet normal -1 0 0
    outer loop
      vertex 25 50 135
      vertex 25 88.2219 170.04
      vertex 25 87.918 161.879
    endloop
  endfacet
  facet normal -1 0 0
    outer loop
      vertex 25 50 135
      vertex 25 87.918 161.879
      vertex 25 87.6488 154.686
    endloop
  endfacet
  facet normal -1 0 0
    outer loop
      vertex 25 50 135
      vertex 25 87.6488 154.686
      vertex 25 87.3999 148.288
    endloop
  endfacet
  facet normal -1 0 0
    outer loop
      vertex 25 50 135
      vertex 25 87.3999 148.288
      vertex 25 86.7336 137.959
    endloop
  endfacet
  facet normal -1 0 0
    outer loop
      vertex 25 49.8481 133.264
      vertex 25 86.7336 137.959
      vertex 25 85.7659 123.094
    endloop
  endfacet
  facet normal -1 0 0
    outer loop
      vertex 25 49.8481 133.264
      vertex 25 85.7659 123.094
      vertex 25 85.5856 120.338
    endloop
  endfacet
  facet normal -1 0 0
    outer loop
      vertex 25 48.6603 130
      vertex 25 85.5856 120.338
      vertex 25 85.5632 120
    endloop
  endfacet
  facet normal -1 -0 0
    outer loop
      vertex 25 88.5095 178.035
      vertex 25 50 135
      vertex 25 50 240
    endloop
  endfacet
  facet normal -1 0 0
    outer loop
      vertex 25 88.5095 178.035
      vertex 25 50 240
      vertex 25 88.5095 240
    endloop
  endfacet
  facet normal 0 0.706963 0.70725
    outer loop
      vertex 30 -46.4279 127.34
      vertex 25 -47.6604 128.572
      vertex 30 -47.6604 128.572
    endloop
  endfacet
  facet normal 0 0.706963 0.70725
    outer loop
      vertex 25 -47.6604 128.572
      vertex 30 -46.4279 127.34
      vertex 25 -46.4279 127.34
    endloop
  endfacet
  facet normal 0 -1 0
    outer loop
      vertex 25 50 135
      vertex 30 50 240
      vertex 25 50 240
    endloop
  endfacet
  facet normal 0 -1 -0
    outer loop
      vertex 30 50 240
      vertex 25 50 135
      vertex 30 50 135
    endloop
  endfacet
  facet normal 0 1 -0
    outer loop
      vertex 30 -50 135
      vertex 25 -50 240
      vertex 30 -50 240
    endloop
  endfacet
  facet normal 0 1 0
    outer loop
      vertex 25 -50 240
      vertex 30 -50 135
      vertex 25 -50 135
    endloop
  endfacet
  facet normal 0 -0.422772 0.906236
    outer loop
      vertex 25 45 126.34
      vertex 30 43.4202 125.603
      vertex 30 45 126.34
    endloop
  endfacet
  facet normal 0 -0.422772 0.906236
    outer loop
      vertex 30 43.4202 125.603
      vertex 25 45 126.34
      vertex 25 43.4202 125.603
    endloop
  endfacet
  facet normal 0 -0.906344 0.42254
    outer loop
      vertex 25 48.6603 130
      vertex 30 49.3969 131.58
      vertex 25 49.3969 131.58
    endloop
  endfacet
  facet normal 0 -0.906344 0.42254
    outer loop
      vertex 30 49.3969 131.58
      vertex 25 48.6603 130
      vertex 30 48.6603 130
    endloop
  endfacet
  facet normal 0 0.906344 0.42254
    outer loop
      vertex 30 -48.6603 130
      vertex 25 -49.3969 131.58
      vertex 30 -49.3969 131.58
    endloop
  endfacet
  facet normal 0 0.906344 0.42254
    outer loop
      vertex 25 -49.3969 131.58
      vertex 30 -48.6603 130
      vertex 25 -48.6603 130
    endloop
  endfacet
  facet normal 0 0.819151 0.573578
    outer loop
      vertex 30 -47.6604 128.572
      vertex 25 -48.6603 130
      vertex 30 -48.6603 130
    endloop
  endfacet
  facet normal 0 0.819151 0.573578
    outer loop
      vertex 25 -48.6603 130
      vertex 30 -47.6604 128.572
      vertex 25 -47.6604 128.572
    endloop
  endfacet
  facet normal 0 -0.996194 0.087167
    outer loop
      vertex 25 49.8481 133.264
      vertex 30 50 135
      vertex 25 50 135
    endloop
  endfacet
  facet normal 0 -0.996194 0.087167
    outer loop
      vertex 30 50 135
      vertex 25 49.8481 133.264
      vertex 30 49.8481 133.264
    endloop
  endfacet
  facet normal 0 0.96593 0.258805
    outer loop
      vertex 30 -49.3969 131.58
      vertex 25 -49.8481 133.264
      vertex 30 -49.8481 133.264
    endloop
  endfacet
  facet normal 0 0.96593 0.258805
    outer loop
      vertex 25 -49.8481 133.264
      vertex 30 -49.3969 131.58
      vertex 25 -49.3969 131.58
    endloop
  endfacet
  facet normal -0 0 1
    outer loop
      vertex 25 40 125
      vertex 30 -40 125
      vertex 30 40 125
    endloop
  endfacet
  facet normal 0 0 1
    outer loop
      vertex 30 -40 125
      vertex 25 40 125
      vertex 25 -40 125
    endloop
  endfacet
  facet normal -0 0.258741 0.965947
    outer loop
      vertex 25 -41.7365 125.152
      vertex 30 -43.4202 125.603
      vertex 30 -41.7365 125.152
    endloop
  endfacet
  facet normal 0 0.258741 0.965947
    outer loop
      vertex 30 -43.4202 125.603
      vertex 25 -41.7365 125.152
      vertex 25 -43.4202 125.603
    endloop
  endfacet
  facet normal 0 -0.706963 0.70725
    outer loop
      vertex 25 46.4279 127.34
      vertex 30 47.6604 128.572
      vertex 25 47.6604 128.572
    endloop
  endfacet
  facet normal 0 -0.706963 0.70725
    outer loop
      vertex 30 47.6604 128.572
      vertex 25 46.4279 127.34
      vertex 30 46.4279 127.34
    endloop
  endfacet
  facet normal -0 0.422772 0.906236
    outer loop
      vertex 25 -43.4202 125.603
      vertex 30 -45 126.34
      vertex 30 -43.4202 125.603
    endloop
  endfacet
  facet normal 0 0.422772 0.906236
    outer loop
      vertex 30 -45 126.34
      vertex 25 -43.4202 125.603
      vertex 25 -45 126.34
    endloop
  endfacet
  facet normal 0 -0.087199 0.996191
    outer loop
      vertex 25 41.7365 125.152
      vertex 30 40 125
      vertex 30 41.7365 125.152
    endloop
  endfacet
  facet normal 0 -0.087199 0.996191
    outer loop
      vertex 30 40 125
      vertex 25 41.7365 125.152
      vertex 25 40 125
    endloop
  endfacet
  facet normal -0 0.573643 0.819105
    outer loop
      vertex 25 -45 126.34
      vertex 30 -46.4279 127.34
      vertex 30 -45 126.34
    endloop
  endfacet
  facet normal 0 0.573643 0.819105
    outer loop
      vertex 30 -46.4279 127.34
      vertex 25 -45 126.34
      vertex 25 -46.4279 127.34
    endloop
  endfacet
  facet normal 0 -0.258741 0.965947
    outer loop
      vertex 25 43.4202 125.603
      vertex 30 41.7365 125.152
      vertex 30 43.4202 125.603
    endloop
  endfacet
  facet normal 0 -0.258741 0.965947
    outer loop
      vertex 30 41.7365 125.152
      vertex 25 43.4202 125.603
      vertex 25 41.7365 125.152
    endloop
  endfacet
  facet normal -0 0.087199 0.996191
    outer loop
      vertex 25 -40 125
      vertex 30 -41.7365 125.152
      vertex 30 -40 125
    endloop
  endfacet
  facet normal 0 0.087199 0.996191
    outer loop
      vertex 30 -41.7365 125.152
      vertex 25 -40 125
      vertex 25 -41.7365 125.152
    endloop
  endfacet
  facet normal 0 -0.573643 0.819105
    outer loop
      vertex 25 46.4279 127.34
      vertex 30 45 126.34
      vertex 30 46.4279 127.34
    endloop
  endfacet
  facet normal 0 -0.573643 0.819105
    outer loop
      vertex 30 45 126.34
      vertex 25 46.4279 127.34
      vertex 25 45 126.34
    endloop
  endfacet
  facet normal 0 -0.96593 0.258805
    outer loop
      vertex 25 49.3969 131.58
      vertex 30 49.8481 133.264
      vertex 25 49.8481 133.264
    endloop
  endfacet
  facet normal 0 -0.96593 0.258805
    outer loop
      vertex 30 49.8481 133.264
      vertex 25 49.3969 131.58
      vertex 30 49.3969 131.58
    endloop
  endfacet
  facet normal 0 0.996194 0.087167
    outer loop
      vertex 30 -49.8481 133.264
      vertex 25 -50 135
      vertex 30 -50 135
    endloop
  endfacet
  facet normal 0 0.996194 0.087167
    outer loop
      vertex 25 -50 135
      vertex 30 -49.8481 133.264
      vertex 25 -49.8481 133.264
    endloop
  endfacet
  facet normal 0 -0.819151 0.573578
    outer loop
      vertex 25 47.6604 128.572
      vertex 30 48.6603 130
      vertex 25 48.6603 130
    endloop
  endfacet
  facet normal 0 -0.819151 0.573578
    outer loop
      vertex 30 48.6603 130
      vertex 25 47.6604 128.572
      vertex 30 47.6604 128.572
    endloop
  endfacet
  facet normal 0 0 1
    outer loop
      vertex 29.3393 88.1403 240
      vertex 30 50 240
      vertex 30 88.0759 240
    endloop
  endfacet
  facet normal 0 0 1
    outer loop
      vertex 25 50 240
      vertex 29.3393 88.1403 240
      vertex 26.4136 88.3981 240
    endloop
  endfacet
  facet normal 0 0 1
    outer loop
      vertex 25 50 240
      vertex 26.4136 88.3981 240
      vertex 25 88.5095 240
    endloop
  endfacet
  facet normal 0 0 1
    outer loop
      vertex 29.3393 88.1403 240
      vertex 25 50 240
      vertex 30 50 240
    endloop
  endfacet
  facet normal 0 0 1
    outer loop
      vertex 30 -50 240
      vertex 29.3393 -88.1403 240
      vertex 30 -88.0759 240
    endloop
  endfacet
  facet normal -0 0 1
    outer loop
      vertex 25 -50 240
      vertex 29.3393 -88.1403 240
      vertex 30 -50 240
    endloop
  endfacet
  facet normal 0 0 1
    outer loop
      vertex 29.3393 -88.1403 240
      vertex 25 -50 240
      vertex 26.4136 -88.3981 240
    endloop
  endfacet
  facet normal 0 0 1
    outer loop
      vertex 26.4136 -88.3981 240
      vertex 25 -50 240
      vertex 25 -88.5095 240
    endloop
  endfacet
  facet normal 0 0 -1
    outer loop
      vertex 29.9589 -84.9874 120
      vertex 30 84.982 120
      vertex 30 -84.982 120
    endloop
  endfacet
  facet normal 0 0 -1
    outer loop
      vertex 29.9589 -84.9874 120
      vertex 29.9589 84.9874 120
      vertex 30 84.982 120
    endloop
  endfacet
  facet normal 0 0 -1
    outer loop
      vertex 29.8288 -85.0038 120
      vertex 29.9589 84.9874 120
      vertex 29.9589 -84.9874 120
    endloop
  endfacet
  facet normal 0 0 -1
    outer loop
      vertex 29.8288 -85.0038 120
      vertex 29.8288 85.0038 120
      vertex 29.9589 84.9874 120
    endloop
  endfacet
  facet normal 0 0 -1
    outer loop
      vertex 27.4539 -85.291 120
      vertex 29.8288 85.0038 120
      vertex 29.8288 -85.0038 120
    endloop
  endfacet
  facet normal 0 0 -1
    outer loop
      vertex 27.4539 -85.291 120
      vertex 27.4539 85.291 120
      vertex 29.8288 85.0038 120
    endloop
  endfacet
  facet normal 0 0 -1
    outer loop
      vertex 27.3236 -85.3062 120
      vertex 27.4539 85.291 120
      vertex 27.4539 -85.291 120
    endloop
  endfacet
  facet normal 0 0 -1
    outer loop
      vertex 27.3236 -85.3062 120
      vertex 27.3236 85.3062 120
      vertex 27.4539 85.291 120
    endloop
  endfacet
  facet normal 0 0 -1
    outer loop
      vertex 25 -85.5632 120
      vertex 27.3236 85.3062 120
      vertex 27.3236 -85.3062 120
    endloop
  endfacet
  facet normal -0 0 -1
    outer loop
      vertex 27.3236 85.3062 120
      vertex 25 -85.5632 120
      vertex 25 85.5632 120
    endloop
  endfacet
endsolid OpenSCAD_Model
