solid OpenSCAD_Model
  facet normal 0.0872073 0.99619 -0
    outer loop
      vertex 30.0209 22.4544 2.5
      vertex 29.5 22.5 2.71
      vertex 30.0209 22.4544 2.71
    endloop
  endfacet
  facet normal 0.0872073 0.99619 0
    outer loop
      vertex 29.5 22.5 2.71
      vertex 30.0209 22.4544 2.5
      vertex 29.5 22.5 2.5
    endloop
  endfacet
  facet normal 0.707107 -0.707107 0
    outer loop
      vertex 31.4284 -21.7981 2.71
      vertex 31.7981 -21.4284 2.5
      vertex 31.7981 -21.4284 2.71
    endloop
  endfacet
  facet normal 0.707107 -0.707107 0
    outer loop
      vertex 31.7981 -21.4284 2.5
      vertex 31.4284 -21.7981 2.71
      vertex 31.4284 -21.7981 2.5
    endloop
  endfacet
  facet normal -0.258698 0.965958 0
    outer loop
      vertex -30.0209 22.4544 2.5
      vertex -30.5261 22.3191 2.71
      vertex -30.0209 22.4544 2.71
    endloop
  endfacet
  facet normal -0.258698 0.965958 0
    outer loop
      vertex -30.5261 22.3191 2.71
      vertex -30.0209 22.4544 2.5
      vertex -30.5261 22.3191 2.5
    endloop
  endfacet
  facet normal 0 -1 0
    outer loop
      vertex -29.5 -22.5 2.5
      vertex 29.5 -22.5 2.71
      vertex -29.5 -22.5 2.71
    endloop
  endfacet
  facet normal 0 -1 -0
    outer loop
      vertex 29.5 -22.5 2.71
      vertex -29.5 -22.5 2.5
      vertex 29.5 -22.5 2.5
    endloop
  endfacet
  facet normal 0.573616 0.819124 -0
    outer loop
      vertex 31.4284 21.7981 2.5
      vertex 31 22.0981 2.71
      vertex 31.4284 21.7981 2.71
    endloop
  endfacet
  facet normal 0.573616 0.819124 0
    outer loop
      vertex 31 22.0981 2.71
      vertex 31.4284 21.7981 2.5
      vertex 31 22.0981 2.5
    endloop
  endfacet
  facet normal -0.707107 -0.707107 0
    outer loop
      vertex -31.4284 -21.7981 2.5
      vertex -31.7981 -21.4284 2.71
      vertex -31.7981 -21.4284 2.5
    endloop
  endfacet
  facet normal -0.707107 -0.707107 0
    outer loop
      vertex -31.7981 -21.4284 2.71
      vertex -31.4284 -21.7981 2.5
      vertex -31.4284 -21.7981 2.71
    endloop
  endfacet
  facet normal -0.573616 -0.819124 0
    outer loop
      vertex -31.4284 -21.7981 2.5
      vertex -31 -22.0981 2.71
      vertex -31.4284 -21.7981 2.71
    endloop
  endfacet
  facet normal -0.573616 -0.819124 -0
    outer loop
      vertex -31 -22.0981 2.71
      vertex -31.4284 -21.7981 2.5
      vertex -31 -22.0981 2.5
    endloop
  endfacet
  facet normal -1 0 0
    outer loop
      vertex -32.5 -19.5 2.5
      vertex -32.5 19.5 2.71
      vertex -32.5 19.5 2.5
    endloop
  endfacet
  facet normal -1 -0 0
    outer loop
      vertex -32.5 19.5 2.71
      vertex -32.5 -19.5 2.5
      vertex -32.5 -19.5 2.71
    endloop
  endfacet
  facet normal -0.906295 0.422645 0
    outer loop
      vertex -32.3191 20.5261 2.5
      vertex -32.0981 21 2.71
      vertex -32.0981 21 2.5
    endloop
  endfacet
  facet normal -0.906295 0.422645 0
    outer loop
      vertex -32.0981 21 2.71
      vertex -32.3191 20.5261 2.5
      vertex -32.3191 20.5261 2.71
    endloop
  endfacet
  facet normal -0.707107 0.707107 0
    outer loop
      vertex -31.7981 21.4284 2.5
      vertex -31.4284 21.7981 2.71
      vertex -31.4284 21.7981 2.5
    endloop
  endfacet
  facet normal -0.707107 0.707107 0
    outer loop
      vertex -31.4284 21.7981 2.71
      vertex -31.7981 21.4284 2.5
      vertex -31.7981 21.4284 2.71
    endloop
  endfacet
  facet normal 0 1 -0
    outer loop
      vertex 29.5 22.5 2.5
      vertex -29.5 22.5 2.71
      vertex 29.5 22.5 2.71
    endloop
  endfacet
  facet normal 0 1 0
    outer loop
      vertex -29.5 22.5 2.71
      vertex 29.5 22.5 2.5
      vertex -29.5 22.5 2.5
    endloop
  endfacet
  facet normal -0.99619 -0.0872073 0
    outer loop
      vertex -32.4544 -20.0209 2.5
      vertex -32.5 -19.5 2.71
      vertex -32.5 -19.5 2.5
    endloop
  endfacet
  facet normal -0.99619 -0.0872073 0
    outer loop
      vertex -32.5 -19.5 2.71
      vertex -32.4544 -20.0209 2.5
      vertex -32.4544 -20.0209 2.71
    endloop
  endfacet
  facet normal 0.99619 -0.0872073 0
    outer loop
      vertex 32.4544 -20.0209 2.71
      vertex 32.5 -19.5 2.5
      vertex 32.5 -19.5 2.71
    endloop
  endfacet
  facet normal 0.99619 -0.0872073 0
    outer loop
      vertex 32.5 -19.5 2.5
      vertex 32.4544 -20.0209 2.71
      vertex 32.4544 -20.0209 2.5
    endloop
  endfacet
  facet normal 0.258698 -0.965958 0
    outer loop
      vertex 30.0209 -22.4544 2.5
      vertex 30.5261 -22.3191 2.71
      vertex 30.0209 -22.4544 2.71
    endloop
  endfacet
  facet normal 0.258698 -0.965958 0
    outer loop
      vertex 30.5261 -22.3191 2.71
      vertex 30.0209 -22.4544 2.5
      vertex 30.5261 -22.3191 2.5
    endloop
  endfacet
  facet normal 0.573616 -0.819124 0
    outer loop
      vertex 31 -22.0981 2.5
      vertex 31.4284 -21.7981 2.71
      vertex 31 -22.0981 2.71
    endloop
  endfacet
  facet normal 0.573616 -0.819124 0
    outer loop
      vertex 31.4284 -21.7981 2.71
      vertex 31 -22.0981 2.5
      vertex 31.4284 -21.7981 2.5
    endloop
  endfacet
  facet normal -0.965958 -0.258698 0
    outer loop
      vertex -32.3191 -20.5261 2.5
      vertex -32.4544 -20.0209 2.71
      vertex -32.4544 -20.0209 2.5
    endloop
  endfacet
  facet normal -0.965958 -0.258698 0
    outer loop
      vertex -32.4544 -20.0209 2.71
      vertex -32.3191 -20.5261 2.5
      vertex -32.3191 -20.5261 2.71
    endloop
  endfacet
  facet normal 1 -0 0
    outer loop
      vertex 32.5 -19.5 2.71
      vertex 32.5 19.5 2.5
      vertex 32.5 19.5 2.71
    endloop
  endfacet
  facet normal 1 0 0
    outer loop
      vertex 32.5 19.5 2.5
      vertex 32.5 -19.5 2.71
      vertex 32.5 -19.5 2.5
    endloop
  endfacet
  facet normal -0.819124 -0.573616 0
    outer loop
      vertex -31.7981 -21.4284 2.5
      vertex -32.0981 -21 2.71
      vertex -32.0981 -21 2.5
    endloop
  endfacet
  facet normal -0.819124 -0.573616 0
    outer loop
      vertex -32.0981 -21 2.71
      vertex -31.7981 -21.4284 2.5
      vertex -31.7981 -21.4284 2.71
    endloop
  endfacet
  facet normal 0.99619 0.0872073 0
    outer loop
      vertex 32.5 19.5 2.71
      vertex 32.4544 20.0209 2.5
      vertex 32.4544 20.0209 2.71
    endloop
  endfacet
  facet normal 0.99619 0.0872073 0
    outer loop
      vertex 32.4544 20.0209 2.5
      vertex 32.5 19.5 2.71
      vertex 32.5 19.5 2.5
    endloop
  endfacet
  facet normal 0.819124 -0.573616 0
    outer loop
      vertex 31.7981 -21.4284 2.71
      vertex 32.0981 -21 2.5
      vertex 32.0981 -21 2.71
    endloop
  endfacet
  facet normal 0.819124 -0.573616 0
    outer loop
      vertex 32.0981 -21 2.5
      vertex 31.7981 -21.4284 2.71
      vertex 31.7981 -21.4284 2.5
    endloop
  endfacet
  facet normal -0.906295 -0.422645 0
    outer loop
      vertex -32.0981 -21 2.5
      vertex -32.3191 -20.5261 2.71
      vertex -32.3191 -20.5261 2.5
    endloop
  endfacet
  facet normal -0.906295 -0.422645 0
    outer loop
      vertex -32.3191 -20.5261 2.71
      vertex -32.0981 -21 2.5
      vertex -32.0981 -21 2.71
    endloop
  endfacet
  facet normal -0.573616 0.819124 0
    outer loop
      vertex -31 22.0981 2.5
      vertex -31.4284 21.7981 2.71
      vertex -31 22.0981 2.71
    endloop
  endfacet
  facet normal -0.573616 0.819124 0
    outer loop
      vertex -31.4284 21.7981 2.71
      vertex -31 22.0981 2.5
      vertex -31.4284 21.7981 2.5
    endloop
  endfacet
  facet normal 0.258698 0.965958 -0
    outer loop
      vertex 30.5261 22.3191 2.5
      vertex 30.0209 22.4544 2.71
      vertex 30.5261 22.3191 2.71
    endloop
  endfacet
  facet normal 0.258698 0.965958 0
    outer loop
      vertex 30.0209 22.4544 2.71
      vertex 30.5261 22.3191 2.5
      vertex 30.0209 22.4544 2.5
    endloop
  endfacet
  facet normal -0.422645 0.906295 0
    outer loop
      vertex -30.5261 22.3191 2.5
      vertex -31 22.0981 2.71
      vertex -30.5261 22.3191 2.71
    endloop
  endfacet
  facet normal -0.422645 0.906295 0
    outer loop
      vertex -31 22.0981 2.71
      vertex -30.5261 22.3191 2.5
      vertex -31 22.0981 2.5
    endloop
  endfacet
  facet normal -0.819124 0.573616 0
    outer loop
      vertex -32.0981 21 2.5
      vertex -31.7981 21.4284 2.71
      vertex -31.7981 21.4284 2.5
    endloop
  endfacet
  facet normal -0.819124 0.573616 0
    outer loop
      vertex -31.7981 21.4284 2.71
      vertex -32.0981 21 2.5
      vertex -32.0981 21 2.71
    endloop
  endfacet
  facet normal -0.422645 -0.906295 0
    outer loop
      vertex -31 -22.0981 2.5
      vertex -30.5261 -22.3191 2.71
      vertex -31 -22.0981 2.71
    endloop
  endfacet
  facet normal -0.422645 -0.906295 -0
    outer loop
      vertex -30.5261 -22.3191 2.71
      vertex -31 -22.0981 2.5
      vertex -30.5261 -22.3191 2.5
    endloop
  endfacet
  facet normal 0.0872073 -0.99619 0
    outer loop
      vertex 29.5 -22.5 2.5
      vertex 30.0209 -22.4544 2.71
      vertex 29.5 -22.5 2.71
    endloop
  endfacet
  facet normal 0.0872073 -0.99619 0
    outer loop
      vertex 30.0209 -22.4544 2.71
      vertex 29.5 -22.5 2.5
      vertex 30.0209 -22.4544 2.5
    endloop
  endfacet
  facet normal 0.906295 0.422645 0
    outer loop
      vertex 32.3191 20.5261 2.71
      vertex 32.0981 21 2.5
      vertex 32.0981 21 2.71
    endloop
  endfacet
  facet normal 0.906295 0.422645 0
    outer loop
      vertex 32.0981 21 2.5
      vertex 32.3191 20.5261 2.71
      vertex 32.3191 20.5261 2.5
    endloop
  endfacet
  facet normal 0.906295 -0.422645 0
    outer loop
      vertex 32.0981 -21 2.71
      vertex 32.3191 -20.5261 2.5
      vertex 32.3191 -20.5261 2.71
    endloop
  endfacet
  facet normal 0.906295 -0.422645 0
    outer loop
      vertex 32.3191 -20.5261 2.5
      vertex 32.0981 -21 2.71
      vertex 32.0981 -21 2.5
    endloop
  endfacet
  facet normal 0.422645 -0.906295 0
    outer loop
      vertex 30.5261 -22.3191 2.5
      vertex 31 -22.0981 2.71
      vertex 30.5261 -22.3191 2.71
    endloop
  endfacet
  facet normal 0.422645 -0.906295 0
    outer loop
      vertex 31 -22.0981 2.71
      vertex 30.5261 -22.3191 2.5
      vertex 31 -22.0981 2.5
    endloop
  endfacet
  facet normal 0.819124 0.573616 0
    outer loop
      vertex 32.0981 21 2.71
      vertex 31.7981 21.4284 2.5
      vertex 31.7981 21.4284 2.71
    endloop
  endfacet
  facet normal 0.819124 0.573616 0
    outer loop
      vertex 31.7981 21.4284 2.5
      vertex 32.0981 21 2.71
      vertex 32.0981 21 2.5
    endloop
  endfacet
  facet normal 0.965958 -0.258698 0
    outer loop
      vertex 32.3191 -20.5261 2.71
      vertex 32.4544 -20.0209 2.5
      vertex 32.4544 -20.0209 2.71
    endloop
  endfacet
  facet normal 0.965958 -0.258698 0
    outer loop
      vertex 32.4544 -20.0209 2.5
      vertex 32.3191 -20.5261 2.71
      vertex 32.3191 -20.5261 2.5
    endloop
  endfacet
  facet normal 0.965958 0.258698 0
    outer loop
      vertex 32.4544 20.0209 2.71
      vertex 32.3191 20.5261 2.5
      vertex 32.3191 20.5261 2.71
    endloop
  endfacet
  facet normal 0.965958 0.258698 0
    outer loop
      vertex 32.3191 20.5261 2.5
      vertex 32.4544 20.0209 2.71
      vertex 32.4544 20.0209 2.5
    endloop
  endfacet
  facet normal 0.707107 0.707107 0
    outer loop
      vertex 31.7981 21.4284 2.71
      vertex 31.4284 21.7981 2.5
      vertex 31.4284 21.7981 2.71
    endloop
  endfacet
  facet normal 0.707107 0.707107 0
    outer loop
      vertex 31.4284 21.7981 2.5
      vertex 31.7981 21.4284 2.71
      vertex 31.7981 21.4284 2.5
    endloop
  endfacet
  facet normal 0.422645 0.906295 -0
    outer loop
      vertex 31 22.0981 2.5
      vertex 30.5261 22.3191 2.71
      vertex 31 22.0981 2.71
    endloop
  endfacet
  facet normal 0.422645 0.906295 0
    outer loop
      vertex 30.5261 22.3191 2.71
      vertex 31 22.0981 2.5
      vertex 30.5261 22.3191 2.5
    endloop
  endfacet
  facet normal -0.0872073 -0.99619 0
    outer loop
      vertex -30.0209 -22.4544 2.5
      vertex -29.5 -22.5 2.71
      vertex -30.0209 -22.4544 2.71
    endloop
  endfacet
  facet normal -0.0872073 -0.99619 -0
    outer loop
      vertex -29.5 -22.5 2.71
      vertex -30.0209 -22.4544 2.5
      vertex -29.5 -22.5 2.5
    endloop
  endfacet
  facet normal -0.258698 -0.965958 0
    outer loop
      vertex -30.5261 -22.3191 2.5
      vertex -30.0209 -22.4544 2.71
      vertex -30.5261 -22.3191 2.71
    endloop
  endfacet
  facet normal -0.258698 -0.965958 -0
    outer loop
      vertex -30.0209 -22.4544 2.71
      vertex -30.5261 -22.3191 2.5
      vertex -30.0209 -22.4544 2.5
    endloop
  endfacet
  facet normal 0 0 -1
    outer loop
      vertex 31.5691 -19.7761 2.5
      vertex 32.5 -19.5 2.5
      vertex 32.4544 -20.0209 2.5
    endloop
  endfacet
  facet normal 0 0 -1
    outer loop
      vertex 32.5 -19.5 2.5
      vertex 31.75 -18.75 2.5
      vertex 32.5 19.5 2.5
    endloop
  endfacet
  facet normal 0 0 -1
    outer loop
      vertex 31.5691 -19.7761 2.5
      vertex 32.4544 -20.0209 2.5
      vertex 32.3191 -20.5261 2.5
    endloop
  endfacet
  facet normal 0 0 -1
    outer loop
      vertex 31.75 18.75 2.5
      vertex 32.5 19.5 2.5
      vertex 31.75 -18.75 2.5
    endloop
  endfacet
  facet normal 0 0 -1
    outer loop
      vertex 31.3481 -20.25 2.5
      vertex 32.3191 -20.5261 2.5
      vertex 32.0981 -21 2.5
    endloop
  endfacet
  facet normal 0 0 -1
    outer loop
      vertex 31.7044 19.2709 2.5
      vertex 32.5 19.5 2.5
      vertex 31.75 18.75 2.5
    endloop
  endfacet
  facet normal 0 0 -1
    outer loop
      vertex 31.0481 -20.6784 2.5
      vertex 32.0981 -21 2.5
      vertex 31.7981 -21.4284 2.5
    endloop
  endfacet
  facet normal 0 0 -1
    outer loop
      vertex 31.5691 19.7761 2.5
      vertex 32.5 19.5 2.5
      vertex 31.7044 19.2709 2.5
    endloop
  endfacet
  facet normal 0 0 -1
    outer loop
      vertex 32.5 19.5 2.5
      vertex 31.5691 19.7761 2.5
      vertex 32.4544 20.0209 2.5
    endloop
  endfacet
  facet normal 0 0 -1
    outer loop
      vertex 32.5 -19.5 2.5
      vertex 31.7044 -19.2709 2.5
      vertex 31.75 -18.75 2.5
    endloop
  endfacet
  facet normal -0 0 -1
    outer loop
      vertex 32.5 -19.5 2.5
      vertex 31.5691 -19.7761 2.5
      vertex 31.7044 -19.2709 2.5
    endloop
  endfacet
  facet normal 0 0 -1
    outer loop
      vertex 31.0481 -20.6784 2.5
      vertex 31.7981 -21.4284 2.5
      vertex 31.4284 -21.7981 2.5
    endloop
  endfacet
  facet normal 0 0 -1
    outer loop
      vertex 32.3191 -20.5261 2.5
      vertex 31.3481 -20.25 2.5
      vertex 31.5691 -19.7761 2.5
    endloop
  endfacet
  facet normal 0 0 -1
    outer loop
      vertex 32.0981 -21 2.5
      vertex 31.0481 -20.6784 2.5
      vertex 31.3481 -20.25 2.5
    endloop
  endfacet
  facet normal 0 0 -1
    outer loop
      vertex 30.6784 -21.0481 2.5
      vertex 31.4284 -21.7981 2.5
      vertex 31 -22.0981 2.5
    endloop
  endfacet
  facet normal 0 0 -1
    outer loop
      vertex 31.4284 -21.7981 2.5
      vertex 30.6784 -21.0481 2.5
      vertex 31.0481 -20.6784 2.5
    endloop
  endfacet
  facet normal 0 0 -1
    outer loop
      vertex 30.25 -21.3481 2.5
      vertex 31 -22.0981 2.5
      vertex 30.5261 -22.3191 2.5
    endloop
  endfacet
  facet normal 0 0 -1
    outer loop
      vertex 31 -22.0981 2.5
      vertex 30.25 -21.3481 2.5
      vertex 30.6784 -21.0481 2.5
    endloop
  endfacet
  facet normal 0 0 -1
    outer loop
      vertex 29.7761 -21.5691 2.5
      vertex 30.5261 -22.3191 2.5
      vertex 30.0209 -22.4544 2.5
    endloop
  endfacet
  facet normal 0 0 -1
    outer loop
      vertex 30.5261 -22.3191 2.5
      vertex 29.7761 -21.5691 2.5
      vertex 30.25 -21.3481 2.5
    endloop
  endfacet
  facet normal 0 0 -1
    outer loop
      vertex 29.5 -22.5 2.5
      vertex 29.7761 -21.5691 2.5
      vertex 30.0209 -22.4544 2.5
    endloop
  endfacet
  facet normal 0 0 -1
    outer loop
      vertex 29.5 -22.5 2.5
      vertex 29.2709 -21.7044 2.5
      vertex 29.7761 -21.5691 2.5
    endloop
  endfacet
  facet normal 0 0 -1
    outer loop
      vertex 29.5 -22.5 2.5
      vertex 28.75 -21.75 2.5
      vertex 29.2709 -21.7044 2.5
    endloop
  endfacet
  facet normal 0 0 -1
    outer loop
      vertex 29.5 -22.5 2.5
      vertex -28.75 -21.75 2.5
      vertex 28.75 -21.75 2.5
    endloop
  endfacet
  facet normal 0 0 -1
    outer loop
      vertex -29.5 -22.5 2.5
      vertex -28.75 -21.75 2.5
      vertex 29.5 -22.5 2.5
    endloop
  endfacet
  facet normal 0 0 -1
    outer loop
      vertex -29.5 -22.5 2.5
      vertex -29.2709 -21.7044 2.5
      vertex -28.75 -21.75 2.5
    endloop
  endfacet
  facet normal 0 0 -1
    outer loop
      vertex -29.5 -22.5 2.5
      vertex -29.7761 -21.5691 2.5
      vertex -29.2709 -21.7044 2.5
    endloop
  endfacet
  facet normal 0 0 -1
    outer loop
      vertex -30.0209 -22.4544 2.5
      vertex -29.7761 -21.5691 2.5
      vertex -29.5 -22.5 2.5
    endloop
  endfacet
  facet normal 0 0 -1
    outer loop
      vertex -30.5261 -22.3191 2.5
      vertex -29.7761 -21.5691 2.5
      vertex -30.0209 -22.4544 2.5
    endloop
  endfacet
  facet normal -0 0 -1
    outer loop
      vertex -29.7761 -21.5691 2.5
      vertex -30.5261 -22.3191 2.5
      vertex -30.25 -21.3481 2.5
    endloop
  endfacet
  facet normal 0 0 -1
    outer loop
      vertex -31 -22.0981 2.5
      vertex -30.25 -21.3481 2.5
      vertex -30.5261 -22.3191 2.5
    endloop
  endfacet
  facet normal -0 0 -1
    outer loop
      vertex -30.25 -21.3481 2.5
      vertex -31 -22.0981 2.5
      vertex -30.6784 -21.0481 2.5
    endloop
  endfacet
  facet normal 0 0 -1
    outer loop
      vertex -31.4284 -21.7981 2.5
      vertex -30.6784 -21.0481 2.5
      vertex -31 -22.0981 2.5
    endloop
  endfacet
  facet normal -0 0 -1
    outer loop
      vertex -30.6784 -21.0481 2.5
      vertex -31.4284 -21.7981 2.5
      vertex -31.0481 -20.6784 2.5
    endloop
  endfacet
  facet normal 0 0 -1
    outer loop
      vertex -31.7981 -21.4284 2.5
      vertex -31.0481 -20.6784 2.5
      vertex -31.4284 -21.7981 2.5
    endloop
  endfacet
  facet normal 0 0 -1
    outer loop
      vertex -32.0981 -21 2.5
      vertex -31.0481 -20.6784 2.5
      vertex -31.7981 -21.4284 2.5
    endloop
  endfacet
  facet normal -0 0 -1
    outer loop
      vertex -31.0481 -20.6784 2.5
      vertex -32.0981 -21 2.5
      vertex -31.3481 -20.25 2.5
    endloop
  endfacet
  facet normal 0 0 -1
    outer loop
      vertex -32.4544 -20.0209 2.5
      vertex -31.5691 -19.7761 2.5
      vertex -32.3191 -20.5261 2.5
    endloop
  endfacet
  facet normal -0 0 -1
    outer loop
      vertex -31.3481 -20.25 2.5
      vertex -32.3191 -20.5261 2.5
      vertex -31.5691 -19.7761 2.5
    endloop
  endfacet
  facet normal 0 0 -1
    outer loop
      vertex -32.3191 -20.5261 2.5
      vertex -31.3481 -20.25 2.5
      vertex -32.0981 -21 2.5
    endloop
  endfacet
  facet normal -0 0 -1
    outer loop
      vertex 32.4544 20.0209 2.5
      vertex 31.5691 19.7761 2.5
      vertex 32.3191 20.5261 2.5
    endloop
  endfacet
  facet normal 0 0 -1
    outer loop
      vertex 31.3481 20.25 2.5
      vertex 32.3191 20.5261 2.5
      vertex 31.5691 19.7761 2.5
    endloop
  endfacet
  facet normal -0 0 -1
    outer loop
      vertex 32.3191 20.5261 2.5
      vertex 31.3481 20.25 2.5
      vertex 32.0981 21 2.5
    endloop
  endfacet
  facet normal 0 0 -1
    outer loop
      vertex 31.0481 20.6784 2.5
      vertex 32.0981 21 2.5
      vertex 31.3481 20.25 2.5
    endloop
  endfacet
  facet normal -0 0 -1
    outer loop
      vertex 32.0981 21 2.5
      vertex 31.0481 20.6784 2.5
      vertex 31.7981 21.4284 2.5
    endloop
  endfacet
  facet normal -0 0 -1
    outer loop
      vertex 31.7981 21.4284 2.5
      vertex 31.0481 20.6784 2.5
      vertex 31.4284 21.7981 2.5
    endloop
  endfacet
  facet normal 0 0 -1
    outer loop
      vertex 30.6784 21.0481 2.5
      vertex 31.4284 21.7981 2.5
      vertex 31.0481 20.6784 2.5
    endloop
  endfacet
  facet normal -0 0 -1
    outer loop
      vertex 31.4284 21.7981 2.5
      vertex 30.6784 21.0481 2.5
      vertex 31 22.0981 2.5
    endloop
  endfacet
  facet normal 0 0 -1
    outer loop
      vertex 30.25 21.3481 2.5
      vertex 31 22.0981 2.5
      vertex 30.6784 21.0481 2.5
    endloop
  endfacet
  facet normal -0 0 -1
    outer loop
      vertex 31 22.0981 2.5
      vertex 30.25 21.3481 2.5
      vertex 30.5261 22.3191 2.5
    endloop
  endfacet
  facet normal 0 0 -1
    outer loop
      vertex 29.7761 21.5691 2.5
      vertex 30.5261 22.3191 2.5
      vertex 30.25 21.3481 2.5
    endloop
  endfacet
  facet normal -0 0 -1
    outer loop
      vertex 30.5261 22.3191 2.5
      vertex 29.7761 21.5691 2.5
      vertex 30.0209 22.4544 2.5
    endloop
  endfacet
  facet normal 0 0 -1
    outer loop
      vertex 29.7761 21.5691 2.5
      vertex 29.5 22.5 2.5
      vertex 30.0209 22.4544 2.5
    endloop
  endfacet
  facet normal 0 0 -1
    outer loop
      vertex 29.2709 21.7044 2.5
      vertex 29.5 22.5 2.5
      vertex 29.7761 21.5691 2.5
    endloop
  endfacet
  facet normal 0 0 -1
    outer loop
      vertex 28.75 21.75 2.5
      vertex 29.5 22.5 2.5
      vertex 29.2709 21.7044 2.5
    endloop
  endfacet
  facet normal 0 0 -1
    outer loop
      vertex -28.75 21.75 2.5
      vertex 29.5 22.5 2.5
      vertex 28.75 21.75 2.5
    endloop
  endfacet
  facet normal 0 0 -1
    outer loop
      vertex -28.75 21.75 2.5
      vertex -29.5 22.5 2.5
      vertex 29.5 22.5 2.5
    endloop
  endfacet
  facet normal 0 0 -1
    outer loop
      vertex -29.2709 21.7044 2.5
      vertex -29.5 22.5 2.5
      vertex -28.75 21.75 2.5
    endloop
  endfacet
  facet normal 0 0 -1
    outer loop
      vertex -29.7761 21.5691 2.5
      vertex -29.5 22.5 2.5
      vertex -29.2709 21.7044 2.5
    endloop
  endfacet
  facet normal 0 0 -1
    outer loop
      vertex -29.7761 21.5691 2.5
      vertex -30.0209 22.4544 2.5
      vertex -29.5 22.5 2.5
    endloop
  endfacet
  facet normal 0 0 -1
    outer loop
      vertex -30.5261 22.3191 2.5
      vertex -29.7761 21.5691 2.5
      vertex -30.25 21.3481 2.5
    endloop
  endfacet
  facet normal 0 0 -1
    outer loop
      vertex -29.7761 21.5691 2.5
      vertex -30.5261 22.3191 2.5
      vertex -30.0209 22.4544 2.5
    endloop
  endfacet
  facet normal 0 0 -1
    outer loop
      vertex -31 22.0981 2.5
      vertex -30.25 21.3481 2.5
      vertex -30.6784 21.0481 2.5
    endloop
  endfacet
  facet normal 0 0 -1
    outer loop
      vertex -30.25 21.3481 2.5
      vertex -31 22.0981 2.5
      vertex -30.5261 22.3191 2.5
    endloop
  endfacet
  facet normal 0 0 -1
    outer loop
      vertex -31.4284 21.7981 2.5
      vertex -30.6784 21.0481 2.5
      vertex -31.0481 20.6784 2.5
    endloop
  endfacet
  facet normal 0 0 -1
    outer loop
      vertex -32.0981 21 2.5
      vertex -31.0481 20.6784 2.5
      vertex -31.3481 20.25 2.5
    endloop
  endfacet
  facet normal 0 0 -1
    outer loop
      vertex -30.6784 21.0481 2.5
      vertex -31.4284 21.7981 2.5
      vertex -31 22.0981 2.5
    endloop
  endfacet
  facet normal 0 0 -1
    outer loop
      vertex -32.3191 20.5261 2.5
      vertex -31.3481 20.25 2.5
      vertex -31.5691 19.7761 2.5
    endloop
  endfacet
  facet normal 0 0 -1
    outer loop
      vertex -32.5 19.5 2.5
      vertex -31.5691 19.7761 2.5
      vertex -31.7044 19.2709 2.5
    endloop
  endfacet
  facet normal 0 0 -1
    outer loop
      vertex -31.0481 20.6784 2.5
      vertex -31.7981 21.4284 2.5
      vertex -31.4284 21.7981 2.5
    endloop
  endfacet
  facet normal 0 0 -1
    outer loop
      vertex -32.5 19.5 2.5
      vertex -31.7044 19.2709 2.5
      vertex -31.75 18.75 2.5
    endloop
  endfacet
  facet normal -0 0 -1
    outer loop
      vertex -31.75 -18.75 2.5
      vertex -32.5 -19.5 2.5
      vertex -31.75 18.75 2.5
    endloop
  endfacet
  facet normal 0 0 -1
    outer loop
      vertex -32.5 -19.5 2.5
      vertex -31.5691 -19.7761 2.5
      vertex -32.4544 -20.0209 2.5
    endloop
  endfacet
  facet normal 0 0 -1
    outer loop
      vertex -32.5 19.5 2.5
      vertex -31.75 18.75 2.5
      vertex -32.5 -19.5 2.5
    endloop
  endfacet
  facet normal 0 0 -1
    outer loop
      vertex -31.5691 -19.7761 2.5
      vertex -32.5 -19.5 2.5
      vertex -31.7044 -19.2709 2.5
    endloop
  endfacet
  facet normal -0 0 -1
    outer loop
      vertex -31.5691 19.7761 2.5
      vertex -32.5 19.5 2.5
      vertex -32.4544 20.0209 2.5
    endloop
  endfacet
  facet normal -0 0 -1
    outer loop
      vertex -31.7044 -19.2709 2.5
      vertex -32.5 -19.5 2.5
      vertex -31.75 -18.75 2.5
    endloop
  endfacet
  facet normal 0 0 -1
    outer loop
      vertex -31.0481 20.6784 2.5
      vertex -32.0981 21 2.5
      vertex -31.7981 21.4284 2.5
    endloop
  endfacet
  facet normal 0 0 -1
    outer loop
      vertex -31.3481 20.25 2.5
      vertex -32.3191 20.5261 2.5
      vertex -32.0981 21 2.5
    endloop
  endfacet
  facet normal 0 0 -1
    outer loop
      vertex -31.5691 19.7761 2.5
      vertex -32.4544 20.0209 2.5
      vertex -32.3191 20.5261 2.5
    endloop
  endfacet
  facet normal -0.965958 0.258698 0
    outer loop
      vertex -32.4544 20.0209 2.5
      vertex -32.3191 20.5261 2.71
      vertex -32.3191 20.5261 2.5
    endloop
  endfacet
  facet normal -0.965958 0.258698 0
    outer loop
      vertex -32.3191 20.5261 2.71
      vertex -32.4544 20.0209 2.5
      vertex -32.4544 20.0209 2.71
    endloop
  endfacet
  facet normal -0.0872073 0.99619 0
    outer loop
      vertex -29.5 22.5 2.5
      vertex -30.0209 22.4544 2.71
      vertex -29.5 22.5 2.71
    endloop
  endfacet
  facet normal -0.0872073 0.99619 0
    outer loop
      vertex -30.0209 22.4544 2.71
      vertex -29.5 22.5 2.5
      vertex -30.0209 22.4544 2.5
    endloop
  endfacet
  facet normal -0 0 1
    outer loop
      vertex 31.5691 19.7761 2.71
      vertex 32.5 19.5 2.71
      vertex 32.4544 20.0209 2.71
    endloop
  endfacet
  facet normal 0 0 1
    outer loop
      vertex 32.5 19.5 2.71
      vertex 31.75 18.75 2.71
      vertex 32.5 -19.5 2.71
    endloop
  endfacet
  facet normal 0 0 1
    outer loop
      vertex 31.5691 19.7761 2.71
      vertex 32.4544 20.0209 2.71
      vertex 32.3191 20.5261 2.71
    endloop
  endfacet
  facet normal -0 0 1
    outer loop
      vertex 31.75 -18.75 2.71
      vertex 32.5 -19.5 2.71
      vertex 31.75 18.75 2.71
    endloop
  endfacet
  facet normal 0 0 1
    outer loop
      vertex 31.3481 20.25 2.71
      vertex 32.3191 20.5261 2.71
      vertex 32.0981 21 2.71
    endloop
  endfacet
  facet normal -0 0 1
    outer loop
      vertex 31.7044 -19.2709 2.71
      vertex 32.5 -19.5 2.71
      vertex 31.75 -18.75 2.71
    endloop
  endfacet
  facet normal 0 0 1
    outer loop
      vertex 31.0481 20.6784 2.71
      vertex 32.0981 21 2.71
      vertex 31.7981 21.4284 2.71
    endloop
  endfacet
  facet normal 0 0 1
    outer loop
      vertex 31.5691 -19.7761 2.71
      vertex 32.5 -19.5 2.71
      vertex 31.7044 -19.2709 2.71
    endloop
  endfacet
  facet normal 0 0 1
    outer loop
      vertex 32.5 -19.5 2.71
      vertex 31.5691 -19.7761 2.71
      vertex 32.4544 -20.0209 2.71
    endloop
  endfacet
  facet normal 0 0 1
    outer loop
      vertex 32.5 19.5 2.71
      vertex 31.7044 19.2709 2.71
      vertex 31.75 18.75 2.71
    endloop
  endfacet
  facet normal 0 0 1
    outer loop
      vertex 32.5 19.5 2.71
      vertex 31.5691 19.7761 2.71
      vertex 31.7044 19.2709 2.71
    endloop
  endfacet
  facet normal 0 0 1
    outer loop
      vertex 31.0481 20.6784 2.71
      vertex 31.7981 21.4284 2.71
      vertex 31.4284 21.7981 2.71
    endloop
  endfacet
  facet normal 0 0 1
    outer loop
      vertex 32.3191 20.5261 2.71
      vertex 31.3481 20.25 2.71
      vertex 31.5691 19.7761 2.71
    endloop
  endfacet
  facet normal 0 0 1
    outer loop
      vertex 32.0981 21 2.71
      vertex 31.0481 20.6784 2.71
      vertex 31.3481 20.25 2.71
    endloop
  endfacet
  facet normal 0 0 1
    outer loop
      vertex 30.6784 21.0481 2.71
      vertex 31.4284 21.7981 2.71
      vertex 31 22.0981 2.71
    endloop
  endfacet
  facet normal 0 0 1
    outer loop
      vertex 31.4284 21.7981 2.71
      vertex 30.6784 21.0481 2.71
      vertex 31.0481 20.6784 2.71
    endloop
  endfacet
  facet normal 0 0 1
    outer loop
      vertex 30.25 21.3481 2.71
      vertex 31 22.0981 2.71
      vertex 30.5261 22.3191 2.71
    endloop
  endfacet
  facet normal 0 0 1
    outer loop
      vertex 31 22.0981 2.71
      vertex 30.25 21.3481 2.71
      vertex 30.6784 21.0481 2.71
    endloop
  endfacet
  facet normal 0 0 1
    outer loop
      vertex 29.7761 21.5691 2.71
      vertex 30.5261 22.3191 2.71
      vertex 30.0209 22.4544 2.71
    endloop
  endfacet
  facet normal 0 0 1
    outer loop
      vertex 30.5261 22.3191 2.71
      vertex 29.7761 21.5691 2.71
      vertex 30.25 21.3481 2.71
    endloop
  endfacet
  facet normal 0 0 1
    outer loop
      vertex 29.5 22.5 2.71
      vertex 29.7761 21.5691 2.71
      vertex 30.0209 22.4544 2.71
    endloop
  endfacet
  facet normal 0 0 1
    outer loop
      vertex 29.5 22.5 2.71
      vertex 29.2709 21.7044 2.71
      vertex 29.7761 21.5691 2.71
    endloop
  endfacet
  facet normal 0 0 1
    outer loop
      vertex 29.5 22.5 2.71
      vertex 28.75 21.75 2.71
      vertex 29.2709 21.7044 2.71
    endloop
  endfacet
  facet normal 0 0 1
    outer loop
      vertex 29.5 22.5 2.71
      vertex -28.75 21.75 2.71
      vertex 28.75 21.75 2.71
    endloop
  endfacet
  facet normal -0 0 1
    outer loop
      vertex -29.5 22.5 2.71
      vertex -28.75 21.75 2.71
      vertex 29.5 22.5 2.71
    endloop
  endfacet
  facet normal 0 0 1
    outer loop
      vertex -29.5 22.5 2.71
      vertex -29.2709 21.7044 2.71
      vertex -28.75 21.75 2.71
    endloop
  endfacet
  facet normal 0 0 1
    outer loop
      vertex -29.5 22.5 2.71
      vertex -29.7761 21.5691 2.71
      vertex -29.2709 21.7044 2.71
    endloop
  endfacet
  facet normal -0 0 1
    outer loop
      vertex -30.0209 22.4544 2.71
      vertex -29.7761 21.5691 2.71
      vertex -29.5 22.5 2.71
    endloop
  endfacet
  facet normal -0 0 1
    outer loop
      vertex -30.5261 22.3191 2.71
      vertex -29.7761 21.5691 2.71
      vertex -30.0209 22.4544 2.71
    endloop
  endfacet
  facet normal 0 0 1
    outer loop
      vertex -29.7761 21.5691 2.71
      vertex -30.5261 22.3191 2.71
      vertex -30.25 21.3481 2.71
    endloop
  endfacet
  facet normal -0 0 1
    outer loop
      vertex -31 22.0981 2.71
      vertex -30.25 21.3481 2.71
      vertex -30.5261 22.3191 2.71
    endloop
  endfacet
  facet normal 0 0 1
    outer loop
      vertex -30.25 21.3481 2.71
      vertex -31 22.0981 2.71
      vertex -30.6784 21.0481 2.71
    endloop
  endfacet
  facet normal -0 0 1
    outer loop
      vertex -31.4284 21.7981 2.71
      vertex -30.6784 21.0481 2.71
      vertex -31 22.0981 2.71
    endloop
  endfacet
  facet normal 0 0 1
    outer loop
      vertex -30.6784 21.0481 2.71
      vertex -31.4284 21.7981 2.71
      vertex -31.0481 20.6784 2.71
    endloop
  endfacet
  facet normal -0 0 1
    outer loop
      vertex -31.7981 21.4284 2.71
      vertex -31.0481 20.6784 2.71
      vertex -31.4284 21.7981 2.71
    endloop
  endfacet
  facet normal -0 0 1
    outer loop
      vertex -32.0981 21 2.71
      vertex -31.0481 20.6784 2.71
      vertex -31.7981 21.4284 2.71
    endloop
  endfacet
  facet normal 0 0 1
    outer loop
      vertex -31.0481 20.6784 2.71
      vertex -32.0981 21 2.71
      vertex -31.3481 20.25 2.71
    endloop
  endfacet
  facet normal -0 0 1
    outer loop
      vertex -32.4544 20.0209 2.71
      vertex -31.5691 19.7761 2.71
      vertex -32.3191 20.5261 2.71
    endloop
  endfacet
  facet normal 0 0 1
    outer loop
      vertex -31.3481 20.25 2.71
      vertex -32.3191 20.5261 2.71
      vertex -31.5691 19.7761 2.71
    endloop
  endfacet
  facet normal -0 0 1
    outer loop
      vertex -32.3191 20.5261 2.71
      vertex -31.3481 20.25 2.71
      vertex -32.0981 21 2.71
    endloop
  endfacet
  facet normal 0 0 1
    outer loop
      vertex 32.4544 -20.0209 2.71
      vertex 31.5691 -19.7761 2.71
      vertex 32.3191 -20.5261 2.71
    endloop
  endfacet
  facet normal -0 0 1
    outer loop
      vertex 31.3481 -20.25 2.71
      vertex 32.3191 -20.5261 2.71
      vertex 31.5691 -19.7761 2.71
    endloop
  endfacet
  facet normal 0 0 1
    outer loop
      vertex 32.3191 -20.5261 2.71
      vertex 31.3481 -20.25 2.71
      vertex 32.0981 -21 2.71
    endloop
  endfacet
  facet normal -0 0 1
    outer loop
      vertex 31.0481 -20.6784 2.71
      vertex 32.0981 -21 2.71
      vertex 31.3481 -20.25 2.71
    endloop
  endfacet
  facet normal 0 0 1
    outer loop
      vertex 32.0981 -21 2.71
      vertex 31.0481 -20.6784 2.71
      vertex 31.7981 -21.4284 2.71
    endloop
  endfacet
  facet normal 0 0 1
    outer loop
      vertex 31.7981 -21.4284 2.71
      vertex 31.0481 -20.6784 2.71
      vertex 31.4284 -21.7981 2.71
    endloop
  endfacet
  facet normal -0 0 1
    outer loop
      vertex 30.6784 -21.0481 2.71
      vertex 31.4284 -21.7981 2.71
      vertex 31.0481 -20.6784 2.71
    endloop
  endfacet
  facet normal 0 0 1
    outer loop
      vertex 31.4284 -21.7981 2.71
      vertex 30.6784 -21.0481 2.71
      vertex 31 -22.0981 2.71
    endloop
  endfacet
  facet normal -0 0 1
    outer loop
      vertex 30.25 -21.3481 2.71
      vertex 31 -22.0981 2.71
      vertex 30.6784 -21.0481 2.71
    endloop
  endfacet
  facet normal 0 0 1
    outer loop
      vertex 31 -22.0981 2.71
      vertex 30.25 -21.3481 2.71
      vertex 30.5261 -22.3191 2.71
    endloop
  endfacet
  facet normal -0 0 1
    outer loop
      vertex 29.7761 -21.5691 2.71
      vertex 30.5261 -22.3191 2.71
      vertex 30.25 -21.3481 2.71
    endloop
  endfacet
  facet normal 0 0 1
    outer loop
      vertex 30.5261 -22.3191 2.71
      vertex 29.7761 -21.5691 2.71
      vertex 30.0209 -22.4544 2.71
    endloop
  endfacet
  facet normal 0 0 1
    outer loop
      vertex 29.7761 -21.5691 2.71
      vertex 29.5 -22.5 2.71
      vertex 30.0209 -22.4544 2.71
    endloop
  endfacet
  facet normal -0 0 1
    outer loop
      vertex 29.2709 -21.7044 2.71
      vertex 29.5 -22.5 2.71
      vertex 29.7761 -21.5691 2.71
    endloop
  endfacet
  facet normal -0 0 1
    outer loop
      vertex 28.75 -21.75 2.71
      vertex 29.5 -22.5 2.71
      vertex 29.2709 -21.7044 2.71
    endloop
  endfacet
  facet normal -0 0 1
    outer loop
      vertex -28.75 -21.75 2.71
      vertex 29.5 -22.5 2.71
      vertex 28.75 -21.75 2.71
    endloop
  endfacet
  facet normal 0 0 1
    outer loop
      vertex -28.75 -21.75 2.71
      vertex -29.5 -22.5 2.71
      vertex 29.5 -22.5 2.71
    endloop
  endfacet
  facet normal 0 0 1
    outer loop
      vertex -29.2709 -21.7044 2.71
      vertex -29.5 -22.5 2.71
      vertex -28.75 -21.75 2.71
    endloop
  endfacet
  facet normal 0 0 1
    outer loop
      vertex -29.7761 -21.5691 2.71
      vertex -29.5 -22.5 2.71
      vertex -29.2709 -21.7044 2.71
    endloop
  endfacet
  facet normal 0 0 1
    outer loop
      vertex -29.7761 -21.5691 2.71
      vertex -30.0209 -22.4544 2.71
      vertex -29.5 -22.5 2.71
    endloop
  endfacet
  facet normal 0 0 1
    outer loop
      vertex -30.5261 -22.3191 2.71
      vertex -29.7761 -21.5691 2.71
      vertex -30.25 -21.3481 2.71
    endloop
  endfacet
  facet normal 0 0 1
    outer loop
      vertex -29.7761 -21.5691 2.71
      vertex -30.5261 -22.3191 2.71
      vertex -30.0209 -22.4544 2.71
    endloop
  endfacet
  facet normal 0 0 1
    outer loop
      vertex -31 -22.0981 2.71
      vertex -30.25 -21.3481 2.71
      vertex -30.6784 -21.0481 2.71
    endloop
  endfacet
  facet normal 0 0 1
    outer loop
      vertex -30.25 -21.3481 2.71
      vertex -31 -22.0981 2.71
      vertex -30.5261 -22.3191 2.71
    endloop
  endfacet
  facet normal 0 0 1
    outer loop
      vertex -31.4284 -21.7981 2.71
      vertex -30.6784 -21.0481 2.71
      vertex -31.0481 -20.6784 2.71
    endloop
  endfacet
  facet normal 0 0 1
    outer loop
      vertex -32.0981 -21 2.71
      vertex -31.0481 -20.6784 2.71
      vertex -31.3481 -20.25 2.71
    endloop
  endfacet
  facet normal 0 0 1
    outer loop
      vertex -30.6784 -21.0481 2.71
      vertex -31.4284 -21.7981 2.71
      vertex -31 -22.0981 2.71
    endloop
  endfacet
  facet normal 0 0 1
    outer loop
      vertex -32.3191 -20.5261 2.71
      vertex -31.3481 -20.25 2.71
      vertex -31.5691 -19.7761 2.71
    endloop
  endfacet
  facet normal -0 0 1
    outer loop
      vertex -32.5 -19.5 2.71
      vertex -31.5691 -19.7761 2.71
      vertex -31.7044 -19.2709 2.71
    endloop
  endfacet
  facet normal 0 0 1
    outer loop
      vertex -31.0481 -20.6784 2.71
      vertex -31.7981 -21.4284 2.71
      vertex -31.4284 -21.7981 2.71
    endloop
  endfacet
  facet normal 0 0 1
    outer loop
      vertex -32.5 -19.5 2.71
      vertex -31.7044 -19.2709 2.71
      vertex -31.75 -18.75 2.71
    endloop
  endfacet
  facet normal 0 0 1
    outer loop
      vertex -31.75 18.75 2.71
      vertex -32.5 19.5 2.71
      vertex -31.75 -18.75 2.71
    endloop
  endfacet
  facet normal 0 0 1
    outer loop
      vertex -32.5 19.5 2.71
      vertex -31.5691 19.7761 2.71
      vertex -32.4544 20.0209 2.71
    endloop
  endfacet
  facet normal 0 0 1
    outer loop
      vertex -32.5 -19.5 2.71
      vertex -31.75 -18.75 2.71
      vertex -32.5 19.5 2.71
    endloop
  endfacet
  facet normal 0 0 1
    outer loop
      vertex -31.5691 19.7761 2.71
      vertex -32.5 19.5 2.71
      vertex -31.7044 19.2709 2.71
    endloop
  endfacet
  facet normal 0 0 1
    outer loop
      vertex -31.5691 -19.7761 2.71
      vertex -32.5 -19.5 2.71
      vertex -32.4544 -20.0209 2.71
    endloop
  endfacet
  facet normal 0 0 1
    outer loop
      vertex -31.7044 19.2709 2.71
      vertex -32.5 19.5 2.71
      vertex -31.75 18.75 2.71
    endloop
  endfacet
  facet normal 0 0 1
    outer loop
      vertex -31.0481 -20.6784 2.71
      vertex -32.0981 -21 2.71
      vertex -31.7981 -21.4284 2.71
    endloop
  endfacet
  facet normal 0 0 1
    outer loop
      vertex -31.3481 -20.25 2.71
      vertex -32.3191 -20.5261 2.71
      vertex -32.0981 -21 2.71
    endloop
  endfacet
  facet normal 0 0 1
    outer loop
      vertex -31.5691 -19.7761 2.71
      vertex -32.4544 -20.0209 2.71
      vertex -32.3191 -20.5261 2.71
    endloop
  endfacet
  facet normal -0.99619 0.0872073 0
    outer loop
      vertex -32.5 19.5 2.5
      vertex -32.4544 20.0209 2.71
      vertex -32.4544 20.0209 2.5
    endloop
  endfacet
  facet normal -0.99619 0.0872073 0
    outer loop
      vertex -32.4544 20.0209 2.71
      vertex -32.5 19.5 2.5
      vertex -32.5 19.5 2.71
    endloop
  endfacet
  facet normal 0.965958 0.258698 0
    outer loop
      vertex -31.5691 -19.7761 2.71
      vertex -31.7044 -19.2709 2.5
      vertex -31.7044 -19.2709 2.71
    endloop
  endfacet
  facet normal 0.965958 0.258698 0
    outer loop
      vertex -31.7044 -19.2709 2.5
      vertex -31.5691 -19.7761 2.71
      vertex -31.5691 -19.7761 2.5
    endloop
  endfacet
  facet normal 0.422645 0.906295 -0
    outer loop
      vertex -29.7761 -21.5691 2.5
      vertex -30.25 -21.3481 2.71
      vertex -29.7761 -21.5691 2.71
    endloop
  endfacet
  facet normal 0.422645 0.906295 0
    outer loop
      vertex -30.25 -21.3481 2.71
      vertex -29.7761 -21.5691 2.5
      vertex -30.25 -21.3481 2.5
    endloop
  endfacet
  facet normal -1 0 0
    outer loop
      vertex 31.75 -18.75 2.5
      vertex 31.75 18.75 2.71
      vertex 31.75 18.75 2.5
    endloop
  endfacet
  facet normal -1 -0 0
    outer loop
      vertex 31.75 18.75 2.71
      vertex 31.75 -18.75 2.5
      vertex 31.75 -18.75 2.71
    endloop
  endfacet
  facet normal -0.819124 0.573616 0
    outer loop
      vertex 31.0481 -20.6784 2.5
      vertex 31.3481 -20.25 2.71
      vertex 31.3481 -20.25 2.5
    endloop
  endfacet
  facet normal -0.819124 0.573616 0
    outer loop
      vertex 31.3481 -20.25 2.71
      vertex 31.0481 -20.6784 2.5
      vertex 31.0481 -20.6784 2.71
    endloop
  endfacet
  facet normal 0.99619 -0.0872073 0
    outer loop
      vertex -31.75 18.75 2.71
      vertex -31.7044 19.2709 2.5
      vertex -31.7044 19.2709 2.71
    endloop
  endfacet
  facet normal 0.99619 -0.0872073 0
    outer loop
      vertex -31.7044 19.2709 2.5
      vertex -31.75 18.75 2.71
      vertex -31.75 18.75 2.5
    endloop
  endfacet
  facet normal 0 1 -0
    outer loop
      vertex 28.75 -21.75 2.5
      vertex -28.75 -21.75 2.71
      vertex 28.75 -21.75 2.71
    endloop
  endfacet
  facet normal 0 1 0
    outer loop
      vertex -28.75 -21.75 2.71
      vertex 28.75 -21.75 2.5
      vertex -28.75 -21.75 2.5
    endloop
  endfacet
  facet normal 0.258698 0.965958 -0
    outer loop
      vertex -29.2709 -21.7044 2.5
      vertex -29.7761 -21.5691 2.71
      vertex -29.2709 -21.7044 2.71
    endloop
  endfacet
  facet normal 0.258698 0.965958 0
    outer loop
      vertex -29.7761 -21.5691 2.71
      vertex -29.2709 -21.7044 2.5
      vertex -29.7761 -21.5691 2.5
    endloop
  endfacet
  facet normal 0.573616 0.819124 -0
    outer loop
      vertex -30.25 -21.3481 2.5
      vertex -30.6784 -21.0481 2.71
      vertex -30.25 -21.3481 2.71
    endloop
  endfacet
  facet normal 0.573616 0.819124 0
    outer loop
      vertex -30.6784 -21.0481 2.71
      vertex -30.25 -21.3481 2.5
      vertex -30.6784 -21.0481 2.5
    endloop
  endfacet
  facet normal 0.819124 0.573616 0
    outer loop
      vertex -31.0481 -20.6784 2.71
      vertex -31.3481 -20.25 2.5
      vertex -31.3481 -20.25 2.71
    endloop
  endfacet
  facet normal 0.819124 0.573616 0
    outer loop
      vertex -31.3481 -20.25 2.5
      vertex -31.0481 -20.6784 2.71
      vertex -31.0481 -20.6784 2.5
    endloop
  endfacet
  facet normal 1 -0 0
    outer loop
      vertex -31.75 -18.75 2.71
      vertex -31.75 18.75 2.5
      vertex -31.75 18.75 2.71
    endloop
  endfacet
  facet normal 1 0 0
    outer loop
      vertex -31.75 18.75 2.5
      vertex -31.75 -18.75 2.71
      vertex -31.75 -18.75 2.5
    endloop
  endfacet
  facet normal -0.573616 0.819124 0
    outer loop
      vertex 30.6784 -21.0481 2.5
      vertex 30.25 -21.3481 2.71
      vertex 30.6784 -21.0481 2.71
    endloop
  endfacet
  facet normal -0.573616 0.819124 0
    outer loop
      vertex 30.25 -21.3481 2.71
      vertex 30.6784 -21.0481 2.5
      vertex 30.25 -21.3481 2.5
    endloop
  endfacet
  facet normal -0.707107 0.707107 0
    outer loop
      vertex 30.6784 -21.0481 2.5
      vertex 31.0481 -20.6784 2.71
      vertex 31.0481 -20.6784 2.5
    endloop
  endfacet
  facet normal -0.707107 0.707107 0
    outer loop
      vertex 31.0481 -20.6784 2.71
      vertex 30.6784 -21.0481 2.5
      vertex 30.6784 -21.0481 2.71
    endloop
  endfacet
  facet normal 0.258698 -0.965958 0
    outer loop
      vertex -29.7761 21.5691 2.5
      vertex -29.2709 21.7044 2.71
      vertex -29.7761 21.5691 2.71
    endloop
  endfacet
  facet normal 0.258698 -0.965958 0
    outer loop
      vertex -29.2709 21.7044 2.71
      vertex -29.7761 21.5691 2.5
      vertex -29.2709 21.7044 2.5
    endloop
  endfacet
  facet normal 0.707107 0.707107 0
    outer loop
      vertex -30.6784 -21.0481 2.71
      vertex -31.0481 -20.6784 2.5
      vertex -31.0481 -20.6784 2.71
    endloop
  endfacet
  facet normal 0.707107 0.707107 0
    outer loop
      vertex -31.0481 -20.6784 2.5
      vertex -30.6784 -21.0481 2.71
      vertex -30.6784 -21.0481 2.5
    endloop
  endfacet
  facet normal -0.965958 0.258698 0
    outer loop
      vertex 31.5691 -19.7761 2.5
      vertex 31.7044 -19.2709 2.71
      vertex 31.7044 -19.2709 2.5
    endloop
  endfacet
  facet normal -0.965958 0.258698 0
    outer loop
      vertex 31.7044 -19.2709 2.71
      vertex 31.5691 -19.7761 2.5
      vertex 31.5691 -19.7761 2.71
    endloop
  endfacet
  facet normal 0 -1 0
    outer loop
      vertex -28.75 21.75 2.5
      vertex 28.75 21.75 2.71
      vertex -28.75 21.75 2.71
    endloop
  endfacet
  facet normal 0 -1 -0
    outer loop
      vertex 28.75 21.75 2.71
      vertex -28.75 21.75 2.5
      vertex 28.75 21.75 2.5
    endloop
  endfacet
  facet normal -0.99619 -0.0872073 0
    outer loop
      vertex 31.75 18.75 2.5
      vertex 31.7044 19.2709 2.71
      vertex 31.7044 19.2709 2.5
    endloop
  endfacet
  facet normal -0.99619 -0.0872073 0
    outer loop
      vertex 31.7044 19.2709 2.71
      vertex 31.75 18.75 2.5
      vertex 31.75 18.75 2.71
    endloop
  endfacet
  facet normal 0.707107 -0.707107 0
    outer loop
      vertex -31.0481 20.6784 2.71
      vertex -30.6784 21.0481 2.5
      vertex -30.6784 21.0481 2.71
    endloop
  endfacet
  facet normal 0.707107 -0.707107 0
    outer loop
      vertex -30.6784 21.0481 2.5
      vertex -31.0481 20.6784 2.71
      vertex -31.0481 20.6784 2.5
    endloop
  endfacet
  facet normal -0.258698 0.965958 0
    outer loop
      vertex 29.7761 -21.5691 2.5
      vertex 29.2709 -21.7044 2.71
      vertex 29.7761 -21.5691 2.71
    endloop
  endfacet
  facet normal -0.258698 0.965958 0
    outer loop
      vertex 29.2709 -21.7044 2.71
      vertex 29.7761 -21.5691 2.5
      vertex 29.2709 -21.7044 2.5
    endloop
  endfacet
  facet normal 0.906295 0.422645 0
    outer loop
      vertex -31.3481 -20.25 2.71
      vertex -31.5691 -19.7761 2.5
      vertex -31.5691 -19.7761 2.71
    endloop
  endfacet
  facet normal 0.906295 0.422645 0
    outer loop
      vertex -31.5691 -19.7761 2.5
      vertex -31.3481 -20.25 2.71
      vertex -31.3481 -20.25 2.5
    endloop
  endfacet
  facet normal -0.99619 0.0872073 0
    outer loop
      vertex 31.7044 -19.2709 2.5
      vertex 31.75 -18.75 2.71
      vertex 31.75 -18.75 2.5
    endloop
  endfacet
  facet normal -0.99619 0.0872073 0
    outer loop
      vertex 31.75 -18.75 2.71
      vertex 31.7044 -19.2709 2.5
      vertex 31.7044 -19.2709 2.71
    endloop
  endfacet
  facet normal -0.906295 0.422645 0
    outer loop
      vertex 31.3481 -20.25 2.5
      vertex 31.5691 -19.7761 2.71
      vertex 31.5691 -19.7761 2.5
    endloop
  endfacet
  facet normal -0.906295 0.422645 0
    outer loop
      vertex 31.5691 -19.7761 2.71
      vertex 31.3481 -20.25 2.5
      vertex 31.3481 -20.25 2.71
    endloop
  endfacet
  facet normal 0.906295 -0.422645 0
    outer loop
      vertex -31.5691 19.7761 2.71
      vertex -31.3481 20.25 2.5
      vertex -31.3481 20.25 2.71
    endloop
  endfacet
  facet normal 0.906295 -0.422645 0
    outer loop
      vertex -31.3481 20.25 2.5
      vertex -31.5691 19.7761 2.71
      vertex -31.5691 19.7761 2.5
    endloop
  endfacet
  facet normal 0.965958 -0.258698 0
    outer loop
      vertex -31.7044 19.2709 2.71
      vertex -31.5691 19.7761 2.5
      vertex -31.5691 19.7761 2.71
    endloop
  endfacet
  facet normal 0.965958 -0.258698 0
    outer loop
      vertex -31.5691 19.7761 2.5
      vertex -31.7044 19.2709 2.71
      vertex -31.7044 19.2709 2.5
    endloop
  endfacet
  facet normal -0.422645 0.906295 0
    outer loop
      vertex 30.25 -21.3481 2.5
      vertex 29.7761 -21.5691 2.71
      vertex 30.25 -21.3481 2.71
    endloop
  endfacet
  facet normal -0.422645 0.906295 0
    outer loop
      vertex 29.7761 -21.5691 2.71
      vertex 30.25 -21.3481 2.5
      vertex 29.7761 -21.5691 2.5
    endloop
  endfacet
  facet normal 0.422645 -0.906295 0
    outer loop
      vertex -30.25 21.3481 2.5
      vertex -29.7761 21.5691 2.71
      vertex -30.25 21.3481 2.71
    endloop
  endfacet
  facet normal 0.422645 -0.906295 0
    outer loop
      vertex -29.7761 21.5691 2.71
      vertex -30.25 21.3481 2.5
      vertex -29.7761 21.5691 2.5
    endloop
  endfacet
  facet normal 0.573616 -0.819124 0
    outer loop
      vertex -30.6784 21.0481 2.5
      vertex -30.25 21.3481 2.71
      vertex -30.6784 21.0481 2.71
    endloop
  endfacet
  facet normal 0.573616 -0.819124 0
    outer loop
      vertex -30.25 21.3481 2.71
      vertex -30.6784 21.0481 2.5
      vertex -30.25 21.3481 2.5
    endloop
  endfacet
  facet normal -0.707107 -0.707107 0
    outer loop
      vertex 31.0481 20.6784 2.5
      vertex 30.6784 21.0481 2.71
      vertex 30.6784 21.0481 2.5
    endloop
  endfacet
  facet normal -0.707107 -0.707107 0
    outer loop
      vertex 30.6784 21.0481 2.71
      vertex 31.0481 20.6784 2.5
      vertex 31.0481 20.6784 2.71
    endloop
  endfacet
  facet normal 0.0872073 -0.99619 0
    outer loop
      vertex -29.2709 21.7044 2.5
      vertex -28.75 21.75 2.71
      vertex -29.2709 21.7044 2.71
    endloop
  endfacet
  facet normal 0.0872073 -0.99619 0
    outer loop
      vertex -28.75 21.75 2.71
      vertex -29.2709 21.7044 2.5
      vertex -28.75 21.75 2.5
    endloop
  endfacet
  facet normal 0.819124 -0.573616 0
    outer loop
      vertex -31.3481 20.25 2.71
      vertex -31.0481 20.6784 2.5
      vertex -31.0481 20.6784 2.71
    endloop
  endfacet
  facet normal 0.819124 -0.573616 0
    outer loop
      vertex -31.0481 20.6784 2.5
      vertex -31.3481 20.25 2.71
      vertex -31.3481 20.25 2.5
    endloop
  endfacet
  facet normal -0.965958 -0.258698 0
    outer loop
      vertex 31.7044 19.2709 2.5
      vertex 31.5691 19.7761 2.71
      vertex 31.5691 19.7761 2.5
    endloop
  endfacet
  facet normal -0.965958 -0.258698 0
    outer loop
      vertex 31.5691 19.7761 2.71
      vertex 31.7044 19.2709 2.5
      vertex 31.7044 19.2709 2.71
    endloop
  endfacet
  facet normal 0.99619 0.0872073 0
    outer loop
      vertex -31.7044 -19.2709 2.71
      vertex -31.75 -18.75 2.5
      vertex -31.75 -18.75 2.71
    endloop
  endfacet
  facet normal 0.99619 0.0872073 0
    outer loop
      vertex -31.75 -18.75 2.5
      vertex -31.7044 -19.2709 2.71
      vertex -31.7044 -19.2709 2.5
    endloop
  endfacet
  facet normal -0.0872073 0.99619 0
    outer loop
      vertex 29.2709 -21.7044 2.5
      vertex 28.75 -21.75 2.71
      vertex 29.2709 -21.7044 2.71
    endloop
  endfacet
  facet normal -0.0872073 0.99619 0
    outer loop
      vertex 28.75 -21.75 2.71
      vertex 29.2709 -21.7044 2.5
      vertex 28.75 -21.75 2.5
    endloop
  endfacet
  facet normal -0.422645 -0.906295 0
    outer loop
      vertex 29.7761 21.5691 2.5
      vertex 30.25 21.3481 2.71
      vertex 29.7761 21.5691 2.71
    endloop
  endfacet
  facet normal -0.422645 -0.906295 -0
    outer loop
      vertex 30.25 21.3481 2.71
      vertex 29.7761 21.5691 2.5
      vertex 30.25 21.3481 2.5
    endloop
  endfacet
  facet normal 0.0872073 0.99619 -0
    outer loop
      vertex -28.75 -21.75 2.5
      vertex -29.2709 -21.7044 2.71
      vertex -28.75 -21.75 2.71
    endloop
  endfacet
  facet normal 0.0872073 0.99619 0
    outer loop
      vertex -29.2709 -21.7044 2.71
      vertex -28.75 -21.75 2.5
      vertex -29.2709 -21.7044 2.5
    endloop
  endfacet
  facet normal -0.819124 -0.573616 0
    outer loop
      vertex 31.3481 20.25 2.5
      vertex 31.0481 20.6784 2.71
      vertex 31.0481 20.6784 2.5
    endloop
  endfacet
  facet normal -0.819124 -0.573616 0
    outer loop
      vertex 31.0481 20.6784 2.71
      vertex 31.3481 20.25 2.5
      vertex 31.3481 20.25 2.71
    endloop
  endfacet
  facet normal -0.906295 -0.422645 0
    outer loop
      vertex 31.5691 19.7761 2.5
      vertex 31.3481 20.25 2.71
      vertex 31.3481 20.25 2.5
    endloop
  endfacet
  facet normal -0.906295 -0.422645 0
    outer loop
      vertex 31.3481 20.25 2.71
      vertex 31.5691 19.7761 2.5
      vertex 31.5691 19.7761 2.71
    endloop
  endfacet
  facet normal -0.573616 -0.819124 0
    outer loop
      vertex 30.25 21.3481 2.5
      vertex 30.6784 21.0481 2.71
      vertex 30.25 21.3481 2.71
    endloop
  endfacet
  facet normal -0.573616 -0.819124 -0
    outer loop
      vertex 30.6784 21.0481 2.71
      vertex 30.25 21.3481 2.5
      vertex 30.6784 21.0481 2.5
    endloop
  endfacet
  facet normal -0.0872073 -0.99619 0
    outer loop
      vertex 28.75 21.75 2.5
      vertex 29.2709 21.7044 2.71
      vertex 28.75 21.75 2.71
    endloop
  endfacet
  facet normal -0.0872073 -0.99619 -0
    outer loop
      vertex 29.2709 21.7044 2.71
      vertex 28.75 21.75 2.5
      vertex 29.2709 21.7044 2.5
    endloop
  endfacet
  facet normal -0.258698 -0.965958 0
    outer loop
      vertex 29.2709 21.7044 2.5
      vertex 29.7761 21.5691 2.71
      vertex 29.2709 21.7044 2.71
    endloop
  endfacet
  facet normal -0.258698 -0.965958 -0
    outer loop
      vertex 29.7761 21.5691 2.71
      vertex 29.2709 21.7044 2.5
      vertex 29.7761 21.5691 2.5
    endloop
  endfacet
endsolid OpenSCAD_Model
