solid OpenSCAD_Model
  facet normal -0.258698 -0.965958 0
    outer loop
      vertex -41.5261 -34.8191 2.5
      vertex -41.0209 -34.9544 2.71
      vertex -41.5261 -34.8191 2.71
    endloop
  endfacet
  facet normal -0.258698 -0.965958 -0
    outer loop
      vertex -41.0209 -34.9544 2.71
      vertex -41.5261 -34.8191 2.5
      vertex -41.0209 -34.9544 2.5
    endloop
  endfacet
  facet normal 1 -0 0
    outer loop
      vertex 43.5 -32 2.71
      vertex 43.5 32 2.5
      vertex 43.5 32 2.71
    endloop
  endfacet
  facet normal 1 0 0
    outer loop
      vertex 43.5 32 2.5
      vertex 43.5 -32 2.71
      vertex 43.5 -32 2.5
    endloop
  endfacet
  facet normal 0.906295 -0.422645 0
    outer loop
      vertex 43.0981 -33.5 2.71
      vertex 43.3191 -33.0261 2.5
      vertex 43.3191 -33.0261 2.71
    endloop
  endfacet
  facet normal 0.906295 -0.422645 0
    outer loop
      vertex 43.3191 -33.0261 2.5
      vertex 43.0981 -33.5 2.71
      vertex 43.0981 -33.5 2.5
    endloop
  endfacet
  facet normal 0 1 -0
    outer loop
      vertex 40.5 35 2.5
      vertex -40.5 35 2.71
      vertex 40.5 35 2.71
    endloop
  endfacet
  facet normal 0 1 0
    outer loop
      vertex -40.5 35 2.71
      vertex 40.5 35 2.5
      vertex -40.5 35 2.5
    endloop
  endfacet
  facet normal 0.0872073 0.99619 -0
    outer loop
      vertex 41.0209 34.9544 2.5
      vertex 40.5 35 2.71
      vertex 41.0209 34.9544 2.71
    endloop
  endfacet
  facet normal 0.0872073 0.99619 0
    outer loop
      vertex 40.5 35 2.71
      vertex 41.0209 34.9544 2.5
      vertex 40.5 35 2.5
    endloop
  endfacet
  facet normal 0.0872073 -0.99619 0
    outer loop
      vertex 40.5 -35 2.5
      vertex 41.0209 -34.9544 2.71
      vertex 40.5 -35 2.71
    endloop
  endfacet
  facet normal 0.0872073 -0.99619 0
    outer loop
      vertex 41.0209 -34.9544 2.71
      vertex 40.5 -35 2.5
      vertex 41.0209 -34.9544 2.5
    endloop
  endfacet
  facet normal 0.422645 0.906295 -0
    outer loop
      vertex 42 34.5981 2.5
      vertex 41.5261 34.8191 2.71
      vertex 42 34.5981 2.71
    endloop
  endfacet
  facet normal 0.422645 0.906295 0
    outer loop
      vertex 41.5261 34.8191 2.71
      vertex 42 34.5981 2.5
      vertex 41.5261 34.8191 2.5
    endloop
  endfacet
  facet normal -0.906295 0.422645 0
    outer loop
      vertex -43.3191 33.0261 2.5
      vertex -43.0981 33.5 2.71
      vertex -43.0981 33.5 2.5
    endloop
  endfacet
  facet normal -0.906295 0.422645 0
    outer loop
      vertex -43.0981 33.5 2.71
      vertex -43.3191 33.0261 2.5
      vertex -43.3191 33.0261 2.71
    endloop
  endfacet
  facet normal -0.906295 -0.422645 0
    outer loop
      vertex -43.0981 -33.5 2.5
      vertex -43.3191 -33.0261 2.71
      vertex -43.3191 -33.0261 2.5
    endloop
  endfacet
  facet normal -0.906295 -0.422645 0
    outer loop
      vertex -43.3191 -33.0261 2.71
      vertex -43.0981 -33.5 2.5
      vertex -43.0981 -33.5 2.71
    endloop
  endfacet
  facet normal -0.422645 -0.906295 0
    outer loop
      vertex -42 -34.5981 2.5
      vertex -41.5261 -34.8191 2.71
      vertex -42 -34.5981 2.71
    endloop
  endfacet
  facet normal -0.422645 -0.906295 -0
    outer loop
      vertex -41.5261 -34.8191 2.71
      vertex -42 -34.5981 2.5
      vertex -41.5261 -34.8191 2.5
    endloop
  endfacet
  facet normal -0.573616 0.819124 0
    outer loop
      vertex -42 34.5981 2.5
      vertex -42.4284 34.2981 2.71
      vertex -42 34.5981 2.71
    endloop
  endfacet
  facet normal -0.573616 0.819124 0
    outer loop
      vertex -42.4284 34.2981 2.71
      vertex -42 34.5981 2.5
      vertex -42.4284 34.2981 2.5
    endloop
  endfacet
  facet normal 0.965958 0.258698 0
    outer loop
      vertex 43.4544 32.5209 2.71
      vertex 43.3191 33.0261 2.5
      vertex 43.3191 33.0261 2.71
    endloop
  endfacet
  facet normal 0.965958 0.258698 0
    outer loop
      vertex 43.3191 33.0261 2.5
      vertex 43.4544 32.5209 2.71
      vertex 43.4544 32.5209 2.5
    endloop
  endfacet
  facet normal 0.707107 0.707107 0
    outer loop
      vertex 42.7981 33.9284 2.71
      vertex 42.4284 34.2981 2.5
      vertex 42.4284 34.2981 2.71
    endloop
  endfacet
  facet normal 0.707107 0.707107 0
    outer loop
      vertex 42.4284 34.2981 2.5
      vertex 42.7981 33.9284 2.71
      vertex 42.7981 33.9284 2.5
    endloop
  endfacet
  facet normal -0.707107 0.707107 0
    outer loop
      vertex -42.7981 33.9284 2.5
      vertex -42.4284 34.2981 2.71
      vertex -42.4284 34.2981 2.5
    endloop
  endfacet
  facet normal -0.707107 0.707107 0
    outer loop
      vertex -42.4284 34.2981 2.71
      vertex -42.7981 33.9284 2.5
      vertex -42.7981 33.9284 2.71
    endloop
  endfacet
  facet normal 0.258698 0.965958 -0
    outer loop
      vertex 41.5261 34.8191 2.5
      vertex 41.0209 34.9544 2.71
      vertex 41.5261 34.8191 2.71
    endloop
  endfacet
  facet normal 0.258698 0.965958 0
    outer loop
      vertex 41.0209 34.9544 2.71
      vertex 41.5261 34.8191 2.5
      vertex 41.0209 34.9544 2.5
    endloop
  endfacet
  facet normal -1 0 0
    outer loop
      vertex -43.5 -32 2.5
      vertex -43.5 32 2.71
      vertex -43.5 32 2.5
    endloop
  endfacet
  facet normal -1 -0 0
    outer loop
      vertex -43.5 32 2.71
      vertex -43.5 -32 2.5
      vertex -43.5 -32 2.71
    endloop
  endfacet
  facet normal -0.422645 0.906295 0
    outer loop
      vertex -41.5261 34.8191 2.5
      vertex -42 34.5981 2.71
      vertex -41.5261 34.8191 2.71
    endloop
  endfacet
  facet normal -0.422645 0.906295 0
    outer loop
      vertex -42 34.5981 2.71
      vertex -41.5261 34.8191 2.5
      vertex -42 34.5981 2.5
    endloop
  endfacet
  facet normal -0.573616 -0.819124 0
    outer loop
      vertex -42.4284 -34.2981 2.5
      vertex -42 -34.5981 2.71
      vertex -42.4284 -34.2981 2.71
    endloop
  endfacet
  facet normal -0.573616 -0.819124 -0
    outer loop
      vertex -42 -34.5981 2.71
      vertex -42.4284 -34.2981 2.5
      vertex -42 -34.5981 2.5
    endloop
  endfacet
  facet normal 0.819124 -0.573616 0
    outer loop
      vertex 42.7981 -33.9284 2.71
      vertex 43.0981 -33.5 2.5
      vertex 43.0981 -33.5 2.71
    endloop
  endfacet
  facet normal 0.819124 -0.573616 0
    outer loop
      vertex 43.0981 -33.5 2.5
      vertex 42.7981 -33.9284 2.71
      vertex 42.7981 -33.9284 2.5
    endloop
  endfacet
  facet normal -0.0872073 -0.99619 0
    outer loop
      vertex -41.0209 -34.9544 2.5
      vertex -40.5 -35 2.71
      vertex -41.0209 -34.9544 2.71
    endloop
  endfacet
  facet normal -0.0872073 -0.99619 -0
    outer loop
      vertex -40.5 -35 2.71
      vertex -41.0209 -34.9544 2.5
      vertex -40.5 -35 2.5
    endloop
  endfacet
  facet normal 0.707107 -0.707107 0
    outer loop
      vertex 42.4284 -34.2981 2.71
      vertex 42.7981 -33.9284 2.5
      vertex 42.7981 -33.9284 2.71
    endloop
  endfacet
  facet normal 0.707107 -0.707107 0
    outer loop
      vertex 42.7981 -33.9284 2.5
      vertex 42.4284 -34.2981 2.71
      vertex 42.4284 -34.2981 2.5
    endloop
  endfacet
  facet normal -0.0872073 0.99619 0
    outer loop
      vertex -40.5 35 2.5
      vertex -41.0209 34.9544 2.71
      vertex -40.5 35 2.71
    endloop
  endfacet
  facet normal -0.0872073 0.99619 0
    outer loop
      vertex -41.0209 34.9544 2.71
      vertex -40.5 35 2.5
      vertex -41.0209 34.9544 2.5
    endloop
  endfacet
  facet normal 0 -1 0
    outer loop
      vertex -40.5 -35 2.5
      vertex 40.5 -35 2.71
      vertex -40.5 -35 2.71
    endloop
  endfacet
  facet normal 0 -1 -0
    outer loop
      vertex 40.5 -35 2.71
      vertex -40.5 -35 2.5
      vertex 40.5 -35 2.5
    endloop
  endfacet
  facet normal -0.99619 -0.0872073 0
    outer loop
      vertex -43.4544 -32.5209 2.5
      vertex -43.5 -32 2.71
      vertex -43.5 -32 2.5
    endloop
  endfacet
  facet normal -0.99619 -0.0872073 0
    outer loop
      vertex -43.5 -32 2.71
      vertex -43.4544 -32.5209 2.5
      vertex -43.4544 -32.5209 2.71
    endloop
  endfacet
  facet normal -0.258698 0.965958 0
    outer loop
      vertex -41.0209 34.9544 2.5
      vertex -41.5261 34.8191 2.71
      vertex -41.0209 34.9544 2.71
    endloop
  endfacet
  facet normal -0.258698 0.965958 0
    outer loop
      vertex -41.5261 34.8191 2.71
      vertex -41.0209 34.9544 2.5
      vertex -41.5261 34.8191 2.5
    endloop
  endfacet
  facet normal 0.573616 -0.819124 0
    outer loop
      vertex 42 -34.5981 2.5
      vertex 42.4284 -34.2981 2.71
      vertex 42 -34.5981 2.71
    endloop
  endfacet
  facet normal 0.573616 -0.819124 0
    outer loop
      vertex 42.4284 -34.2981 2.71
      vertex 42 -34.5981 2.5
      vertex 42.4284 -34.2981 2.5
    endloop
  endfacet
  facet normal 0.965958 -0.258698 0
    outer loop
      vertex 43.3191 -33.0261 2.71
      vertex 43.4544 -32.5209 2.5
      vertex 43.4544 -32.5209 2.71
    endloop
  endfacet
  facet normal 0.965958 -0.258698 0
    outer loop
      vertex 43.4544 -32.5209 2.5
      vertex 43.3191 -33.0261 2.71
      vertex 43.3191 -33.0261 2.5
    endloop
  endfacet
  facet normal 0.99619 0.0872073 0
    outer loop
      vertex 43.5 32 2.71
      vertex 43.4544 32.5209 2.5
      vertex 43.4544 32.5209 2.71
    endloop
  endfacet
  facet normal 0.99619 0.0872073 0
    outer loop
      vertex 43.4544 32.5209 2.5
      vertex 43.5 32 2.71
      vertex 43.5 32 2.5
    endloop
  endfacet
  facet normal 0.99619 -0.0872073 0
    outer loop
      vertex 43.4544 -32.5209 2.71
      vertex 43.5 -32 2.5
      vertex 43.5 -32 2.71
    endloop
  endfacet
  facet normal 0.99619 -0.0872073 0
    outer loop
      vertex 43.5 -32 2.5
      vertex 43.4544 -32.5209 2.71
      vertex 43.4544 -32.5209 2.5
    endloop
  endfacet
  facet normal 0.573616 0.819124 -0
    outer loop
      vertex 42.4284 34.2981 2.5
      vertex 42 34.5981 2.71
      vertex 42.4284 34.2981 2.71
    endloop
  endfacet
  facet normal 0.573616 0.819124 0
    outer loop
      vertex 42 34.5981 2.71
      vertex 42.4284 34.2981 2.5
      vertex 42 34.5981 2.5
    endloop
  endfacet
  facet normal -0.707107 -0.707107 0
    outer loop
      vertex -42.4284 -34.2981 2.5
      vertex -42.7981 -33.9284 2.71
      vertex -42.7981 -33.9284 2.5
    endloop
  endfacet
  facet normal -0.707107 -0.707107 0
    outer loop
      vertex -42.7981 -33.9284 2.71
      vertex -42.4284 -34.2981 2.5
      vertex -42.4284 -34.2981 2.71
    endloop
  endfacet
  facet normal -0.819124 -0.573616 0
    outer loop
      vertex -42.7981 -33.9284 2.5
      vertex -43.0981 -33.5 2.71
      vertex -43.0981 -33.5 2.5
    endloop
  endfacet
  facet normal -0.819124 -0.573616 0
    outer loop
      vertex -43.0981 -33.5 2.71
      vertex -42.7981 -33.9284 2.5
      vertex -42.7981 -33.9284 2.71
    endloop
  endfacet
  facet normal -0.819124 0.573616 0
    outer loop
      vertex -43.0981 33.5 2.5
      vertex -42.7981 33.9284 2.71
      vertex -42.7981 33.9284 2.5
    endloop
  endfacet
  facet normal -0.819124 0.573616 0
    outer loop
      vertex -42.7981 33.9284 2.71
      vertex -43.0981 33.5 2.5
      vertex -43.0981 33.5 2.71
    endloop
  endfacet
  facet normal 0.258698 -0.965958 0
    outer loop
      vertex 41.0209 -34.9544 2.5
      vertex 41.5261 -34.8191 2.71
      vertex 41.0209 -34.9544 2.71
    endloop
  endfacet
  facet normal 0.258698 -0.965958 0
    outer loop
      vertex 41.5261 -34.8191 2.71
      vertex 41.0209 -34.9544 2.5
      vertex 41.5261 -34.8191 2.5
    endloop
  endfacet
  facet normal 0.906295 0.422645 0
    outer loop
      vertex 43.3191 33.0261 2.71
      vertex 43.0981 33.5 2.5
      vertex 43.0981 33.5 2.71
    endloop
  endfacet
  facet normal 0.906295 0.422645 0
    outer loop
      vertex 43.0981 33.5 2.5
      vertex 43.3191 33.0261 2.71
      vertex 43.3191 33.0261 2.5
    endloop
  endfacet
  facet normal 0.422645 -0.906295 0
    outer loop
      vertex 41.5261 -34.8191 2.5
      vertex 42 -34.5981 2.71
      vertex 41.5261 -34.8191 2.71
    endloop
  endfacet
  facet normal 0.422645 -0.906295 0
    outer loop
      vertex 42 -34.5981 2.71
      vertex 41.5261 -34.8191 2.5
      vertex 42 -34.5981 2.5
    endloop
  endfacet
  facet normal -0.965958 -0.258698 0
    outer loop
      vertex -43.3191 -33.0261 2.5
      vertex -43.4544 -32.5209 2.71
      vertex -43.4544 -32.5209 2.5
    endloop
  endfacet
  facet normal -0.965958 -0.258698 0
    outer loop
      vertex -43.4544 -32.5209 2.71
      vertex -43.3191 -33.0261 2.5
      vertex -43.3191 -33.0261 2.71
    endloop
  endfacet
  facet normal 0.819124 0.573616 0
    outer loop
      vertex 43.0981 33.5 2.71
      vertex 42.7981 33.9284 2.5
      vertex 42.7981 33.9284 2.71
    endloop
  endfacet
  facet normal 0.819124 0.573616 0
    outer loop
      vertex 42.7981 33.9284 2.5
      vertex 43.0981 33.5 2.71
      vertex 43.0981 33.5 2.5
    endloop
  endfacet
  facet normal -0 0 1
    outer loop
      vertex 42.5691 32.2761 2.71
      vertex 43.5 32 2.71
      vertex 43.4544 32.5209 2.71
    endloop
  endfacet
  facet normal 0 0 1
    outer loop
      vertex 43.5 32 2.71
      vertex 42.75 31.25 2.71
      vertex 43.5 -32 2.71
    endloop
  endfacet
  facet normal 0 0 1
    outer loop
      vertex 42.5691 32.2761 2.71
      vertex 43.4544 32.5209 2.71
      vertex 43.3191 33.0261 2.71
    endloop
  endfacet
  facet normal -0 0 1
    outer loop
      vertex 42.75 -31.25 2.71
      vertex 43.5 -32 2.71
      vertex 42.75 31.25 2.71
    endloop
  endfacet
  facet normal 0 0 1
    outer loop
      vertex 42.3481 32.75 2.71
      vertex 43.3191 33.0261 2.71
      vertex 43.0981 33.5 2.71
    endloop
  endfacet
  facet normal -0 0 1
    outer loop
      vertex 42.7044 -31.7709 2.71
      vertex 43.5 -32 2.71
      vertex 42.75 -31.25 2.71
    endloop
  endfacet
  facet normal 0 0 1
    outer loop
      vertex 42.0481 33.1784 2.71
      vertex 43.0981 33.5 2.71
      vertex 42.7981 33.9284 2.71
    endloop
  endfacet
  facet normal 0 0 1
    outer loop
      vertex 42.5691 -32.2761 2.71
      vertex 43.5 -32 2.71
      vertex 42.7044 -31.7709 2.71
    endloop
  endfacet
  facet normal 0 0 1
    outer loop
      vertex 43.5 -32 2.71
      vertex 42.5691 -32.2761 2.71
      vertex 43.4544 -32.5209 2.71
    endloop
  endfacet
  facet normal 0 0 1
    outer loop
      vertex 43.5 32 2.71
      vertex 42.7044 31.7709 2.71
      vertex 42.75 31.25 2.71
    endloop
  endfacet
  facet normal 0 0 1
    outer loop
      vertex 43.5 32 2.71
      vertex 42.5691 32.2761 2.71
      vertex 42.7044 31.7709 2.71
    endloop
  endfacet
  facet normal 0 0 1
    outer loop
      vertex 42.0481 33.1784 2.71
      vertex 42.7981 33.9284 2.71
      vertex 42.4284 34.2981 2.71
    endloop
  endfacet
  facet normal 0 0 1
    outer loop
      vertex 43.3191 33.0261 2.71
      vertex 42.3481 32.75 2.71
      vertex 42.5691 32.2761 2.71
    endloop
  endfacet
  facet normal 0 0 1
    outer loop
      vertex 43.0981 33.5 2.71
      vertex 42.0481 33.1784 2.71
      vertex 42.3481 32.75 2.71
    endloop
  endfacet
  facet normal 0 0 1
    outer loop
      vertex 41.6784 33.5481 2.71
      vertex 42.4284 34.2981 2.71
      vertex 42 34.5981 2.71
    endloop
  endfacet
  facet normal 0 0 1
    outer loop
      vertex 42.4284 34.2981 2.71
      vertex 41.6784 33.5481 2.71
      vertex 42.0481 33.1784 2.71
    endloop
  endfacet
  facet normal 0 0 1
    outer loop
      vertex 41.25 33.8481 2.71
      vertex 42 34.5981 2.71
      vertex 41.5261 34.8191 2.71
    endloop
  endfacet
  facet normal 0 0 1
    outer loop
      vertex 42 34.5981 2.71
      vertex 41.25 33.8481 2.71
      vertex 41.6784 33.5481 2.71
    endloop
  endfacet
  facet normal 0 0 1
    outer loop
      vertex 40.7761 34.0691 2.71
      vertex 41.5261 34.8191 2.71
      vertex 41.0209 34.9544 2.71
    endloop
  endfacet
  facet normal 0 0 1
    outer loop
      vertex 41.5261 34.8191 2.71
      vertex 40.7761 34.0691 2.71
      vertex 41.25 33.8481 2.71
    endloop
  endfacet
  facet normal 0 0 1
    outer loop
      vertex 40.5 35 2.71
      vertex 40.7761 34.0691 2.71
      vertex 41.0209 34.9544 2.71
    endloop
  endfacet
  facet normal 0 0 1
    outer loop
      vertex 40.5 35 2.71
      vertex 40.2709 34.2044 2.71
      vertex 40.7761 34.0691 2.71
    endloop
  endfacet
  facet normal 0 0 1
    outer loop
      vertex 40.5 35 2.71
      vertex 39.75 34.25 2.71
      vertex 40.2709 34.2044 2.71
    endloop
  endfacet
  facet normal 0 0 1
    outer loop
      vertex 40.5 35 2.71
      vertex -39.75 34.25 2.71
      vertex 39.75 34.25 2.71
    endloop
  endfacet
  facet normal -0 0 1
    outer loop
      vertex -40.5 35 2.71
      vertex -39.75 34.25 2.71
      vertex 40.5 35 2.71
    endloop
  endfacet
  facet normal 0 0 1
    outer loop
      vertex -40.5 35 2.71
      vertex -40.2709 34.2044 2.71
      vertex -39.75 34.25 2.71
    endloop
  endfacet
  facet normal 0 0 1
    outer loop
      vertex -40.5 35 2.71
      vertex -40.7761 34.0691 2.71
      vertex -40.2709 34.2044 2.71
    endloop
  endfacet
  facet normal -0 0 1
    outer loop
      vertex -41.0209 34.9544 2.71
      vertex -40.7761 34.0691 2.71
      vertex -40.5 35 2.71
    endloop
  endfacet
  facet normal -0 0 1
    outer loop
      vertex -41.5261 34.8191 2.71
      vertex -40.7761 34.0691 2.71
      vertex -41.0209 34.9544 2.71
    endloop
  endfacet
  facet normal 0 0 1
    outer loop
      vertex -40.7761 34.0691 2.71
      vertex -41.5261 34.8191 2.71
      vertex -41.25 33.8481 2.71
    endloop
  endfacet
  facet normal -0 0 1
    outer loop
      vertex -42 34.5981 2.71
      vertex -41.25 33.8481 2.71
      vertex -41.5261 34.8191 2.71
    endloop
  endfacet
  facet normal 0 0 1
    outer loop
      vertex -41.25 33.8481 2.71
      vertex -42 34.5981 2.71
      vertex -41.6784 33.5481 2.71
    endloop
  endfacet
  facet normal -0 0 1
    outer loop
      vertex -42.4284 34.2981 2.71
      vertex -41.6784 33.5481 2.71
      vertex -42 34.5981 2.71
    endloop
  endfacet
  facet normal 0 0 1
    outer loop
      vertex -41.6784 33.5481 2.71
      vertex -42.4284 34.2981 2.71
      vertex -42.0481 33.1784 2.71
    endloop
  endfacet
  facet normal -0 0 1
    outer loop
      vertex -42.7981 33.9284 2.71
      vertex -42.0481 33.1784 2.71
      vertex -42.4284 34.2981 2.71
    endloop
  endfacet
  facet normal -0 0 1
    outer loop
      vertex -43.0981 33.5 2.71
      vertex -42.0481 33.1784 2.71
      vertex -42.7981 33.9284 2.71
    endloop
  endfacet
  facet normal 0 0 1
    outer loop
      vertex -42.0481 33.1784 2.71
      vertex -43.0981 33.5 2.71
      vertex -42.3481 32.75 2.71
    endloop
  endfacet
  facet normal -0 0 1
    outer loop
      vertex -43.4544 32.5209 2.71
      vertex -42.5691 32.2761 2.71
      vertex -43.3191 33.0261 2.71
    endloop
  endfacet
  facet normal 0 0 1
    outer loop
      vertex -42.3481 32.75 2.71
      vertex -43.3191 33.0261 2.71
      vertex -42.5691 32.2761 2.71
    endloop
  endfacet
  facet normal -0 0 1
    outer loop
      vertex -43.3191 33.0261 2.71
      vertex -42.3481 32.75 2.71
      vertex -43.0981 33.5 2.71
    endloop
  endfacet
  facet normal 0 0 1
    outer loop
      vertex 43.4544 -32.5209 2.71
      vertex 42.5691 -32.2761 2.71
      vertex 43.3191 -33.0261 2.71
    endloop
  endfacet
  facet normal -0 0 1
    outer loop
      vertex 42.3481 -32.75 2.71
      vertex 43.3191 -33.0261 2.71
      vertex 42.5691 -32.2761 2.71
    endloop
  endfacet
  facet normal 0 0 1
    outer loop
      vertex 43.3191 -33.0261 2.71
      vertex 42.3481 -32.75 2.71
      vertex 43.0981 -33.5 2.71
    endloop
  endfacet
  facet normal -0 0 1
    outer loop
      vertex 42.0481 -33.1784 2.71
      vertex 43.0981 -33.5 2.71
      vertex 42.3481 -32.75 2.71
    endloop
  endfacet
  facet normal 0 0 1
    outer loop
      vertex 43.0981 -33.5 2.71
      vertex 42.0481 -33.1784 2.71
      vertex 42.7981 -33.9284 2.71
    endloop
  endfacet
  facet normal 0 0 1
    outer loop
      vertex 42.7981 -33.9284 2.71
      vertex 42.0481 -33.1784 2.71
      vertex 42.4284 -34.2981 2.71
    endloop
  endfacet
  facet normal -0 0 1
    outer loop
      vertex 41.6784 -33.5481 2.71
      vertex 42.4284 -34.2981 2.71
      vertex 42.0481 -33.1784 2.71
    endloop
  endfacet
  facet normal 0 0 1
    outer loop
      vertex 42.4284 -34.2981 2.71
      vertex 41.6784 -33.5481 2.71
      vertex 42 -34.5981 2.71
    endloop
  endfacet
  facet normal -0 0 1
    outer loop
      vertex 41.25 -33.8481 2.71
      vertex 42 -34.5981 2.71
      vertex 41.6784 -33.5481 2.71
    endloop
  endfacet
  facet normal 0 0 1
    outer loop
      vertex 42 -34.5981 2.71
      vertex 41.25 -33.8481 2.71
      vertex 41.5261 -34.8191 2.71
    endloop
  endfacet
  facet normal -0 0 1
    outer loop
      vertex 40.7761 -34.0691 2.71
      vertex 41.5261 -34.8191 2.71
      vertex 41.25 -33.8481 2.71
    endloop
  endfacet
  facet normal 0 0 1
    outer loop
      vertex 41.5261 -34.8191 2.71
      vertex 40.7761 -34.0691 2.71
      vertex 41.0209 -34.9544 2.71
    endloop
  endfacet
  facet normal 0 0 1
    outer loop
      vertex 40.7761 -34.0691 2.71
      vertex 40.5 -35 2.71
      vertex 41.0209 -34.9544 2.71
    endloop
  endfacet
  facet normal -0 0 1
    outer loop
      vertex 40.2709 -34.2044 2.71
      vertex 40.5 -35 2.71
      vertex 40.7761 -34.0691 2.71
    endloop
  endfacet
  facet normal -0 0 1
    outer loop
      vertex 39.75 -34.25 2.71
      vertex 40.5 -35 2.71
      vertex 40.2709 -34.2044 2.71
    endloop
  endfacet
  facet normal -0 0 1
    outer loop
      vertex -39.75 -34.25 2.71
      vertex 40.5 -35 2.71
      vertex 39.75 -34.25 2.71
    endloop
  endfacet
  facet normal 0 0 1
    outer loop
      vertex -39.75 -34.25 2.71
      vertex -40.5 -35 2.71
      vertex 40.5 -35 2.71
    endloop
  endfacet
  facet normal 0 0 1
    outer loop
      vertex -40.2709 -34.2044 2.71
      vertex -40.5 -35 2.71
      vertex -39.75 -34.25 2.71
    endloop
  endfacet
  facet normal 0 0 1
    outer loop
      vertex -40.7761 -34.0691 2.71
      vertex -40.5 -35 2.71
      vertex -40.2709 -34.2044 2.71
    endloop
  endfacet
  facet normal 0 0 1
    outer loop
      vertex -40.7761 -34.0691 2.71
      vertex -41.0209 -34.9544 2.71
      vertex -40.5 -35 2.71
    endloop
  endfacet
  facet normal 0 0 1
    outer loop
      vertex -41.5261 -34.8191 2.71
      vertex -40.7761 -34.0691 2.71
      vertex -41.25 -33.8481 2.71
    endloop
  endfacet
  facet normal 0 0 1
    outer loop
      vertex -40.7761 -34.0691 2.71
      vertex -41.5261 -34.8191 2.71
      vertex -41.0209 -34.9544 2.71
    endloop
  endfacet
  facet normal 0 0 1
    outer loop
      vertex -42 -34.5981 2.71
      vertex -41.25 -33.8481 2.71
      vertex -41.6784 -33.5481 2.71
    endloop
  endfacet
  facet normal 0 0 1
    outer loop
      vertex -41.25 -33.8481 2.71
      vertex -42 -34.5981 2.71
      vertex -41.5261 -34.8191 2.71
    endloop
  endfacet
  facet normal 0 0 1
    outer loop
      vertex -42.4284 -34.2981 2.71
      vertex -41.6784 -33.5481 2.71
      vertex -42.0481 -33.1784 2.71
    endloop
  endfacet
  facet normal 0 0 1
    outer loop
      vertex -43.0981 -33.5 2.71
      vertex -42.0481 -33.1784 2.71
      vertex -42.3481 -32.75 2.71
    endloop
  endfacet
  facet normal 0 0 1
    outer loop
      vertex -41.6784 -33.5481 2.71
      vertex -42.4284 -34.2981 2.71
      vertex -42 -34.5981 2.71
    endloop
  endfacet
  facet normal 0 0 1
    outer loop
      vertex -43.3191 -33.0261 2.71
      vertex -42.3481 -32.75 2.71
      vertex -42.5691 -32.2761 2.71
    endloop
  endfacet
  facet normal -0 0 1
    outer loop
      vertex -43.5 -32 2.71
      vertex -42.5691 -32.2761 2.71
      vertex -42.7044 -31.7709 2.71
    endloop
  endfacet
  facet normal 0 0 1
    outer loop
      vertex -42.0481 -33.1784 2.71
      vertex -42.7981 -33.9284 2.71
      vertex -42.4284 -34.2981 2.71
    endloop
  endfacet
  facet normal 0 0 1
    outer loop
      vertex -43.5 -32 2.71
      vertex -42.7044 -31.7709 2.71
      vertex -42.75 -31.25 2.71
    endloop
  endfacet
  facet normal 0 0 1
    outer loop
      vertex -42.75 31.25 2.71
      vertex -43.5 32 2.71
      vertex -42.75 -31.25 2.71
    endloop
  endfacet
  facet normal 0 0 1
    outer loop
      vertex -43.5 32 2.71
      vertex -42.5691 32.2761 2.71
      vertex -43.4544 32.5209 2.71
    endloop
  endfacet
  facet normal 0 0 1
    outer loop
      vertex -43.5 -32 2.71
      vertex -42.75 -31.25 2.71
      vertex -43.5 32 2.71
    endloop
  endfacet
  facet normal 0 0 1
    outer loop
      vertex -42.5691 32.2761 2.71
      vertex -43.5 32 2.71
      vertex -42.7044 31.7709 2.71
    endloop
  endfacet
  facet normal 0 0 1
    outer loop
      vertex -42.5691 -32.2761 2.71
      vertex -43.5 -32 2.71
      vertex -43.4544 -32.5209 2.71
    endloop
  endfacet
  facet normal 0 0 1
    outer loop
      vertex -42.7044 31.7709 2.71
      vertex -43.5 32 2.71
      vertex -42.75 31.25 2.71
    endloop
  endfacet
  facet normal 0 0 1
    outer loop
      vertex -42.0481 -33.1784 2.71
      vertex -43.0981 -33.5 2.71
      vertex -42.7981 -33.9284 2.71
    endloop
  endfacet
  facet normal 0 0 1
    outer loop
      vertex -42.3481 -32.75 2.71
      vertex -43.3191 -33.0261 2.71
      vertex -43.0981 -33.5 2.71
    endloop
  endfacet
  facet normal 0 0 1
    outer loop
      vertex -42.5691 -32.2761 2.71
      vertex -43.4544 -32.5209 2.71
      vertex -43.3191 -33.0261 2.71
    endloop
  endfacet
  facet normal -0.965958 0.258698 0
    outer loop
      vertex -43.4544 32.5209 2.5
      vertex -43.3191 33.0261 2.71
      vertex -43.3191 33.0261 2.5
    endloop
  endfacet
  facet normal -0.965958 0.258698 0
    outer loop
      vertex -43.3191 33.0261 2.71
      vertex -43.4544 32.5209 2.5
      vertex -43.4544 32.5209 2.71
    endloop
  endfacet
  facet normal -0.99619 0.0872073 0
    outer loop
      vertex -43.5 32 2.5
      vertex -43.4544 32.5209 2.71
      vertex -43.4544 32.5209 2.5
    endloop
  endfacet
  facet normal -0.99619 0.0872073 0
    outer loop
      vertex -43.4544 32.5209 2.71
      vertex -43.5 32 2.5
      vertex -43.5 32 2.71
    endloop
  endfacet
  facet normal 0 0 -1
    outer loop
      vertex 42.5691 -32.2761 2.5
      vertex 43.5 -32 2.5
      vertex 43.4544 -32.5209 2.5
    endloop
  endfacet
  facet normal 0 0 -1
    outer loop
      vertex 43.5 -32 2.5
      vertex 42.75 -31.25 2.5
      vertex 43.5 32 2.5
    endloop
  endfacet
  facet normal 0 0 -1
    outer loop
      vertex 42.5691 -32.2761 2.5
      vertex 43.4544 -32.5209 2.5
      vertex 43.3191 -33.0261 2.5
    endloop
  endfacet
  facet normal 0 0 -1
    outer loop
      vertex 42.75 31.25 2.5
      vertex 43.5 32 2.5
      vertex 42.75 -31.25 2.5
    endloop
  endfacet
  facet normal 0 0 -1
    outer loop
      vertex 42.3481 -32.75 2.5
      vertex 43.3191 -33.0261 2.5
      vertex 43.0981 -33.5 2.5
    endloop
  endfacet
  facet normal 0 0 -1
    outer loop
      vertex 42.7044 31.7709 2.5
      vertex 43.5 32 2.5
      vertex 42.75 31.25 2.5
    endloop
  endfacet
  facet normal 0 0 -1
    outer loop
      vertex 42.0481 -33.1784 2.5
      vertex 43.0981 -33.5 2.5
      vertex 42.7981 -33.9284 2.5
    endloop
  endfacet
  facet normal 0 0 -1
    outer loop
      vertex 42.5691 32.2761 2.5
      vertex 43.5 32 2.5
      vertex 42.7044 31.7709 2.5
    endloop
  endfacet
  facet normal 0 0 -1
    outer loop
      vertex 43.5 32 2.5
      vertex 42.5691 32.2761 2.5
      vertex 43.4544 32.5209 2.5
    endloop
  endfacet
  facet normal 0 0 -1
    outer loop
      vertex 43.5 -32 2.5
      vertex 42.7044 -31.7709 2.5
      vertex 42.75 -31.25 2.5
    endloop
  endfacet
  facet normal -0 0 -1
    outer loop
      vertex 43.5 -32 2.5
      vertex 42.5691 -32.2761 2.5
      vertex 42.7044 -31.7709 2.5
    endloop
  endfacet
  facet normal 0 0 -1
    outer loop
      vertex 42.0481 -33.1784 2.5
      vertex 42.7981 -33.9284 2.5
      vertex 42.4284 -34.2981 2.5
    endloop
  endfacet
  facet normal 0 0 -1
    outer loop
      vertex 43.3191 -33.0261 2.5
      vertex 42.3481 -32.75 2.5
      vertex 42.5691 -32.2761 2.5
    endloop
  endfacet
  facet normal 0 0 -1
    outer loop
      vertex 43.0981 -33.5 2.5
      vertex 42.0481 -33.1784 2.5
      vertex 42.3481 -32.75 2.5
    endloop
  endfacet
  facet normal 0 0 -1
    outer loop
      vertex 41.6784 -33.5481 2.5
      vertex 42.4284 -34.2981 2.5
      vertex 42 -34.5981 2.5
    endloop
  endfacet
  facet normal 0 0 -1
    outer loop
      vertex 42.4284 -34.2981 2.5
      vertex 41.6784 -33.5481 2.5
      vertex 42.0481 -33.1784 2.5
    endloop
  endfacet
  facet normal 0 0 -1
    outer loop
      vertex 41.25 -33.8481 2.5
      vertex 42 -34.5981 2.5
      vertex 41.5261 -34.8191 2.5
    endloop
  endfacet
  facet normal 0 0 -1
    outer loop
      vertex 42 -34.5981 2.5
      vertex 41.25 -33.8481 2.5
      vertex 41.6784 -33.5481 2.5
    endloop
  endfacet
  facet normal 0 0 -1
    outer loop
      vertex 40.7761 -34.0691 2.5
      vertex 41.5261 -34.8191 2.5
      vertex 41.0209 -34.9544 2.5
    endloop
  endfacet
  facet normal 0 0 -1
    outer loop
      vertex 41.5261 -34.8191 2.5
      vertex 40.7761 -34.0691 2.5
      vertex 41.25 -33.8481 2.5
    endloop
  endfacet
  facet normal 0 0 -1
    outer loop
      vertex 40.5 -35 2.5
      vertex 40.7761 -34.0691 2.5
      vertex 41.0209 -34.9544 2.5
    endloop
  endfacet
  facet normal 0 0 -1
    outer loop
      vertex 40.5 -35 2.5
      vertex 40.2709 -34.2044 2.5
      vertex 40.7761 -34.0691 2.5
    endloop
  endfacet
  facet normal 0 0 -1
    outer loop
      vertex 40.5 -35 2.5
      vertex 39.75 -34.25 2.5
      vertex 40.2709 -34.2044 2.5
    endloop
  endfacet
  facet normal 0 0 -1
    outer loop
      vertex 40.5 -35 2.5
      vertex -39.75 -34.25 2.5
      vertex 39.75 -34.25 2.5
    endloop
  endfacet
  facet normal 0 0 -1
    outer loop
      vertex -40.5 -35 2.5
      vertex -39.75 -34.25 2.5
      vertex 40.5 -35 2.5
    endloop
  endfacet
  facet normal 0 0 -1
    outer loop
      vertex -40.5 -35 2.5
      vertex -40.2709 -34.2044 2.5
      vertex -39.75 -34.25 2.5
    endloop
  endfacet
  facet normal 0 0 -1
    outer loop
      vertex -40.5 -35 2.5
      vertex -40.7761 -34.0691 2.5
      vertex -40.2709 -34.2044 2.5
    endloop
  endfacet
  facet normal 0 0 -1
    outer loop
      vertex -41.0209 -34.9544 2.5
      vertex -40.7761 -34.0691 2.5
      vertex -40.5 -35 2.5
    endloop
  endfacet
  facet normal 0 0 -1
    outer loop
      vertex -41.5261 -34.8191 2.5
      vertex -40.7761 -34.0691 2.5
      vertex -41.0209 -34.9544 2.5
    endloop
  endfacet
  facet normal -0 0 -1
    outer loop
      vertex -40.7761 -34.0691 2.5
      vertex -41.5261 -34.8191 2.5
      vertex -41.25 -33.8481 2.5
    endloop
  endfacet
  facet normal 0 0 -1
    outer loop
      vertex -42 -34.5981 2.5
      vertex -41.25 -33.8481 2.5
      vertex -41.5261 -34.8191 2.5
    endloop
  endfacet
  facet normal -0 0 -1
    outer loop
      vertex -41.25 -33.8481 2.5
      vertex -42 -34.5981 2.5
      vertex -41.6784 -33.5481 2.5
    endloop
  endfacet
  facet normal 0 0 -1
    outer loop
      vertex -42.4284 -34.2981 2.5
      vertex -41.6784 -33.5481 2.5
      vertex -42 -34.5981 2.5
    endloop
  endfacet
  facet normal -0 0 -1
    outer loop
      vertex -41.6784 -33.5481 2.5
      vertex -42.4284 -34.2981 2.5
      vertex -42.0481 -33.1784 2.5
    endloop
  endfacet
  facet normal 0 0 -1
    outer loop
      vertex -42.7981 -33.9284 2.5
      vertex -42.0481 -33.1784 2.5
      vertex -42.4284 -34.2981 2.5
    endloop
  endfacet
  facet normal 0 0 -1
    outer loop
      vertex -43.0981 -33.5 2.5
      vertex -42.0481 -33.1784 2.5
      vertex -42.7981 -33.9284 2.5
    endloop
  endfacet
  facet normal -0 0 -1
    outer loop
      vertex -42.0481 -33.1784 2.5
      vertex -43.0981 -33.5 2.5
      vertex -42.3481 -32.75 2.5
    endloop
  endfacet
  facet normal 0 0 -1
    outer loop
      vertex -43.4544 -32.5209 2.5
      vertex -42.5691 -32.2761 2.5
      vertex -43.3191 -33.0261 2.5
    endloop
  endfacet
  facet normal -0 0 -1
    outer loop
      vertex -42.3481 -32.75 2.5
      vertex -43.3191 -33.0261 2.5
      vertex -42.5691 -32.2761 2.5
    endloop
  endfacet
  facet normal 0 0 -1
    outer loop
      vertex -43.3191 -33.0261 2.5
      vertex -42.3481 -32.75 2.5
      vertex -43.0981 -33.5 2.5
    endloop
  endfacet
  facet normal -0 0 -1
    outer loop
      vertex 43.4544 32.5209 2.5
      vertex 42.5691 32.2761 2.5
      vertex 43.3191 33.0261 2.5
    endloop
  endfacet
  facet normal 0 0 -1
    outer loop
      vertex 42.3481 32.75 2.5
      vertex 43.3191 33.0261 2.5
      vertex 42.5691 32.2761 2.5
    endloop
  endfacet
  facet normal -0 0 -1
    outer loop
      vertex 43.3191 33.0261 2.5
      vertex 42.3481 32.75 2.5
      vertex 43.0981 33.5 2.5
    endloop
  endfacet
  facet normal 0 0 -1
    outer loop
      vertex 42.0481 33.1784 2.5
      vertex 43.0981 33.5 2.5
      vertex 42.3481 32.75 2.5
    endloop
  endfacet
  facet normal -0 0 -1
    outer loop
      vertex 43.0981 33.5 2.5
      vertex 42.0481 33.1784 2.5
      vertex 42.7981 33.9284 2.5
    endloop
  endfacet
  facet normal -0 0 -1
    outer loop
      vertex 42.7981 33.9284 2.5
      vertex 42.0481 33.1784 2.5
      vertex 42.4284 34.2981 2.5
    endloop
  endfacet
  facet normal 0 0 -1
    outer loop
      vertex 41.6784 33.5481 2.5
      vertex 42.4284 34.2981 2.5
      vertex 42.0481 33.1784 2.5
    endloop
  endfacet
  facet normal -0 0 -1
    outer loop
      vertex 42.4284 34.2981 2.5
      vertex 41.6784 33.5481 2.5
      vertex 42 34.5981 2.5
    endloop
  endfacet
  facet normal 0 0 -1
    outer loop
      vertex 41.25 33.8481 2.5
      vertex 42 34.5981 2.5
      vertex 41.6784 33.5481 2.5
    endloop
  endfacet
  facet normal -0 0 -1
    outer loop
      vertex 42 34.5981 2.5
      vertex 41.25 33.8481 2.5
      vertex 41.5261 34.8191 2.5
    endloop
  endfacet
  facet normal 0 0 -1
    outer loop
      vertex 40.7761 34.0691 2.5
      vertex 41.5261 34.8191 2.5
      vertex 41.25 33.8481 2.5
    endloop
  endfacet
  facet normal -0 0 -1
    outer loop
      vertex 41.5261 34.8191 2.5
      vertex 40.7761 34.0691 2.5
      vertex 41.0209 34.9544 2.5
    endloop
  endfacet
  facet normal 0 0 -1
    outer loop
      vertex 40.7761 34.0691 2.5
      vertex 40.5 35 2.5
      vertex 41.0209 34.9544 2.5
    endloop
  endfacet
  facet normal 0 0 -1
    outer loop
      vertex 40.2709 34.2044 2.5
      vertex 40.5 35 2.5
      vertex 40.7761 34.0691 2.5
    endloop
  endfacet
  facet normal 0 0 -1
    outer loop
      vertex 39.75 34.25 2.5
      vertex 40.5 35 2.5
      vertex 40.2709 34.2044 2.5
    endloop
  endfacet
  facet normal 0 0 -1
    outer loop
      vertex -39.75 34.25 2.5
      vertex 40.5 35 2.5
      vertex 39.75 34.25 2.5
    endloop
  endfacet
  facet normal 0 0 -1
    outer loop
      vertex -39.75 34.25 2.5
      vertex -40.5 35 2.5
      vertex 40.5 35 2.5
    endloop
  endfacet
  facet normal 0 0 -1
    outer loop
      vertex -40.2709 34.2044 2.5
      vertex -40.5 35 2.5
      vertex -39.75 34.25 2.5
    endloop
  endfacet
  facet normal 0 0 -1
    outer loop
      vertex -40.7761 34.0691 2.5
      vertex -40.5 35 2.5
      vertex -40.2709 34.2044 2.5
    endloop
  endfacet
  facet normal 0 0 -1
    outer loop
      vertex -40.7761 34.0691 2.5
      vertex -41.0209 34.9544 2.5
      vertex -40.5 35 2.5
    endloop
  endfacet
  facet normal 0 0 -1
    outer loop
      vertex -41.5261 34.8191 2.5
      vertex -40.7761 34.0691 2.5
      vertex -41.25 33.8481 2.5
    endloop
  endfacet
  facet normal 0 0 -1
    outer loop
      vertex -40.7761 34.0691 2.5
      vertex -41.5261 34.8191 2.5
      vertex -41.0209 34.9544 2.5
    endloop
  endfacet
  facet normal 0 0 -1
    outer loop
      vertex -42 34.5981 2.5
      vertex -41.25 33.8481 2.5
      vertex -41.6784 33.5481 2.5
    endloop
  endfacet
  facet normal 0 0 -1
    outer loop
      vertex -41.25 33.8481 2.5
      vertex -42 34.5981 2.5
      vertex -41.5261 34.8191 2.5
    endloop
  endfacet
  facet normal 0 0 -1
    outer loop
      vertex -42.4284 34.2981 2.5
      vertex -41.6784 33.5481 2.5
      vertex -42.0481 33.1784 2.5
    endloop
  endfacet
  facet normal 0 0 -1
    outer loop
      vertex -43.0981 33.5 2.5
      vertex -42.0481 33.1784 2.5
      vertex -42.3481 32.75 2.5
    endloop
  endfacet
  facet normal 0 0 -1
    outer loop
      vertex -41.6784 33.5481 2.5
      vertex -42.4284 34.2981 2.5
      vertex -42 34.5981 2.5
    endloop
  endfacet
  facet normal 0 0 -1
    outer loop
      vertex -43.3191 33.0261 2.5
      vertex -42.3481 32.75 2.5
      vertex -42.5691 32.2761 2.5
    endloop
  endfacet
  facet normal 0 0 -1
    outer loop
      vertex -43.5 32 2.5
      vertex -42.5691 32.2761 2.5
      vertex -42.7044 31.7709 2.5
    endloop
  endfacet
  facet normal 0 0 -1
    outer loop
      vertex -42.0481 33.1784 2.5
      vertex -42.7981 33.9284 2.5
      vertex -42.4284 34.2981 2.5
    endloop
  endfacet
  facet normal 0 0 -1
    outer loop
      vertex -43.5 32 2.5
      vertex -42.7044 31.7709 2.5
      vertex -42.75 31.25 2.5
    endloop
  endfacet
  facet normal -0 0 -1
    outer loop
      vertex -42.75 -31.25 2.5
      vertex -43.5 -32 2.5
      vertex -42.75 31.25 2.5
    endloop
  endfacet
  facet normal 0 0 -1
    outer loop
      vertex -43.5 -32 2.5
      vertex -42.5691 -32.2761 2.5
      vertex -43.4544 -32.5209 2.5
    endloop
  endfacet
  facet normal 0 0 -1
    outer loop
      vertex -43.5 32 2.5
      vertex -42.75 31.25 2.5
      vertex -43.5 -32 2.5
    endloop
  endfacet
  facet normal 0 0 -1
    outer loop
      vertex -42.5691 -32.2761 2.5
      vertex -43.5 -32 2.5
      vertex -42.7044 -31.7709 2.5
    endloop
  endfacet
  facet normal -0 0 -1
    outer loop
      vertex -42.5691 32.2761 2.5
      vertex -43.5 32 2.5
      vertex -43.4544 32.5209 2.5
    endloop
  endfacet
  facet normal -0 0 -1
    outer loop
      vertex -42.7044 -31.7709 2.5
      vertex -43.5 -32 2.5
      vertex -42.75 -31.25 2.5
    endloop
  endfacet
  facet normal 0 0 -1
    outer loop
      vertex -42.0481 33.1784 2.5
      vertex -43.0981 33.5 2.5
      vertex -42.7981 33.9284 2.5
    endloop
  endfacet
  facet normal 0 0 -1
    outer loop
      vertex -42.3481 32.75 2.5
      vertex -43.3191 33.0261 2.5
      vertex -43.0981 33.5 2.5
    endloop
  endfacet
  facet normal 0 0 -1
    outer loop
      vertex -42.5691 32.2761 2.5
      vertex -43.4544 32.5209 2.5
      vertex -43.3191 33.0261 2.5
    endloop
  endfacet
  facet normal 0.258698 0.965958 -0
    outer loop
      vertex -40.2709 -34.2044 2.5
      vertex -40.7761 -34.0691 2.71
      vertex -40.2709 -34.2044 2.71
    endloop
  endfacet
  facet normal 0.258698 0.965958 0
    outer loop
      vertex -40.7761 -34.0691 2.71
      vertex -40.2709 -34.2044 2.5
      vertex -40.7761 -34.0691 2.5
    endloop
  endfacet
  facet normal -1 0 0
    outer loop
      vertex 42.75 -31.25 2.5
      vertex 42.75 31.25 2.71
      vertex 42.75 31.25 2.5
    endloop
  endfacet
  facet normal -1 -0 0
    outer loop
      vertex 42.75 31.25 2.71
      vertex 42.75 -31.25 2.5
      vertex 42.75 -31.25 2.71
    endloop
  endfacet
  facet normal -0.906295 0.422645 0
    outer loop
      vertex 42.3481 -32.75 2.5
      vertex 42.5691 -32.2761 2.71
      vertex 42.5691 -32.2761 2.5
    endloop
  endfacet
  facet normal -0.906295 0.422645 0
    outer loop
      vertex 42.5691 -32.2761 2.71
      vertex 42.3481 -32.75 2.5
      vertex 42.3481 -32.75 2.71
    endloop
  endfacet
  facet normal 0 -1 0
    outer loop
      vertex -39.75 34.25 2.5
      vertex 39.75 34.25 2.71
      vertex -39.75 34.25 2.71
    endloop
  endfacet
  facet normal 0 -1 -0
    outer loop
      vertex 39.75 34.25 2.71
      vertex -39.75 34.25 2.5
      vertex 39.75 34.25 2.5
    endloop
  endfacet
  facet normal -0.0872073 -0.99619 0
    outer loop
      vertex 39.75 34.25 2.5
      vertex 40.2709 34.2044 2.71
      vertex 39.75 34.25 2.71
    endloop
  endfacet
  facet normal -0.0872073 -0.99619 -0
    outer loop
      vertex 40.2709 34.2044 2.71
      vertex 39.75 34.25 2.5
      vertex 40.2709 34.2044 2.5
    endloop
  endfacet
  facet normal -0.0872073 0.99619 0
    outer loop
      vertex 40.2709 -34.2044 2.5
      vertex 39.75 -34.25 2.71
      vertex 40.2709 -34.2044 2.71
    endloop
  endfacet
  facet normal -0.0872073 0.99619 0
    outer loop
      vertex 39.75 -34.25 2.71
      vertex 40.2709 -34.2044 2.5
      vertex 39.75 -34.25 2.5
    endloop
  endfacet
  facet normal -0.422645 -0.906295 0
    outer loop
      vertex 40.7761 34.0691 2.5
      vertex 41.25 33.8481 2.71
      vertex 40.7761 34.0691 2.71
    endloop
  endfacet
  facet normal -0.422645 -0.906295 -0
    outer loop
      vertex 41.25 33.8481 2.71
      vertex 40.7761 34.0691 2.5
      vertex 41.25 33.8481 2.5
    endloop
  endfacet
  facet normal 0.906295 -0.422645 0
    outer loop
      vertex -42.5691 32.2761 2.71
      vertex -42.3481 32.75 2.5
      vertex -42.3481 32.75 2.71
    endloop
  endfacet
  facet normal 0.906295 -0.422645 0
    outer loop
      vertex -42.3481 32.75 2.5
      vertex -42.5691 32.2761 2.71
      vertex -42.5691 32.2761 2.5
    endloop
  endfacet
  facet normal 0.906295 0.422645 0
    outer loop
      vertex -42.3481 -32.75 2.71
      vertex -42.5691 -32.2761 2.5
      vertex -42.5691 -32.2761 2.71
    endloop
  endfacet
  facet normal 0.906295 0.422645 0
    outer loop
      vertex -42.5691 -32.2761 2.5
      vertex -42.3481 -32.75 2.71
      vertex -42.3481 -32.75 2.5
    endloop
  endfacet
  facet normal 0.422645 0.906295 -0
    outer loop
      vertex -40.7761 -34.0691 2.5
      vertex -41.25 -33.8481 2.71
      vertex -40.7761 -34.0691 2.71
    endloop
  endfacet
  facet normal 0.422645 0.906295 0
    outer loop
      vertex -41.25 -33.8481 2.71
      vertex -40.7761 -34.0691 2.5
      vertex -41.25 -33.8481 2.5
    endloop
  endfacet
  facet normal -0.965958 -0.258698 0
    outer loop
      vertex 42.7044 31.7709 2.5
      vertex 42.5691 32.2761 2.71
      vertex 42.5691 32.2761 2.5
    endloop
  endfacet
  facet normal -0.965958 -0.258698 0
    outer loop
      vertex 42.5691 32.2761 2.71
      vertex 42.7044 31.7709 2.5
      vertex 42.7044 31.7709 2.71
    endloop
  endfacet
  facet normal -0.707107 -0.707107 0
    outer loop
      vertex 42.0481 33.1784 2.5
      vertex 41.6784 33.5481 2.71
      vertex 41.6784 33.5481 2.5
    endloop
  endfacet
  facet normal -0.707107 -0.707107 0
    outer loop
      vertex 41.6784 33.5481 2.71
      vertex 42.0481 33.1784 2.5
      vertex 42.0481 33.1784 2.71
    endloop
  endfacet
  facet normal 0.707107 -0.707107 0
    outer loop
      vertex -42.0481 33.1784 2.71
      vertex -41.6784 33.5481 2.5
      vertex -41.6784 33.5481 2.71
    endloop
  endfacet
  facet normal 0.707107 -0.707107 0
    outer loop
      vertex -41.6784 33.5481 2.5
      vertex -42.0481 33.1784 2.71
      vertex -42.0481 33.1784 2.5
    endloop
  endfacet
  facet normal -0.258698 -0.965958 0
    outer loop
      vertex 40.2709 34.2044 2.5
      vertex 40.7761 34.0691 2.71
      vertex 40.2709 34.2044 2.71
    endloop
  endfacet
  facet normal -0.258698 -0.965958 -0
    outer loop
      vertex 40.7761 34.0691 2.71
      vertex 40.2709 34.2044 2.5
      vertex 40.7761 34.0691 2.5
    endloop
  endfacet
  facet normal 1 -0 0
    outer loop
      vertex -42.75 -31.25 2.71
      vertex -42.75 31.25 2.5
      vertex -42.75 31.25 2.71
    endloop
  endfacet
  facet normal 1 0 0
    outer loop
      vertex -42.75 31.25 2.5
      vertex -42.75 -31.25 2.71
      vertex -42.75 -31.25 2.5
    endloop
  endfacet
  facet normal 0.422645 -0.906295 0
    outer loop
      vertex -41.25 33.8481 2.5
      vertex -40.7761 34.0691 2.71
      vertex -41.25 33.8481 2.71
    endloop
  endfacet
  facet normal 0.422645 -0.906295 0
    outer loop
      vertex -40.7761 34.0691 2.71
      vertex -41.25 33.8481 2.5
      vertex -40.7761 34.0691 2.5
    endloop
  endfacet
  facet normal 0.573616 0.819124 -0
    outer loop
      vertex -41.25 -33.8481 2.5
      vertex -41.6784 -33.5481 2.71
      vertex -41.25 -33.8481 2.71
    endloop
  endfacet
  facet normal 0.573616 0.819124 0
    outer loop
      vertex -41.6784 -33.5481 2.71
      vertex -41.25 -33.8481 2.5
      vertex -41.6784 -33.5481 2.5
    endloop
  endfacet
  facet normal -0.819124 0.573616 0
    outer loop
      vertex 42.0481 -33.1784 2.5
      vertex 42.3481 -32.75 2.71
      vertex 42.3481 -32.75 2.5
    endloop
  endfacet
  facet normal -0.819124 0.573616 0
    outer loop
      vertex 42.3481 -32.75 2.71
      vertex 42.0481 -33.1784 2.5
      vertex 42.0481 -33.1784 2.71
    endloop
  endfacet
  facet normal 0.707107 0.707107 0
    outer loop
      vertex -41.6784 -33.5481 2.71
      vertex -42.0481 -33.1784 2.5
      vertex -42.0481 -33.1784 2.71
    endloop
  endfacet
  facet normal 0.707107 0.707107 0
    outer loop
      vertex -42.0481 -33.1784 2.5
      vertex -41.6784 -33.5481 2.71
      vertex -41.6784 -33.5481 2.5
    endloop
  endfacet
  facet normal 0.0872073 0.99619 -0
    outer loop
      vertex -39.75 -34.25 2.5
      vertex -40.2709 -34.2044 2.71
      vertex -39.75 -34.25 2.71
    endloop
  endfacet
  facet normal 0.0872073 0.99619 0
    outer loop
      vertex -40.2709 -34.2044 2.71
      vertex -39.75 -34.25 2.5
      vertex -40.2709 -34.2044 2.5
    endloop
  endfacet
  facet normal -0.707107 0.707107 0
    outer loop
      vertex 41.6784 -33.5481 2.5
      vertex 42.0481 -33.1784 2.71
      vertex 42.0481 -33.1784 2.5
    endloop
  endfacet
  facet normal -0.707107 0.707107 0
    outer loop
      vertex 42.0481 -33.1784 2.71
      vertex 41.6784 -33.5481 2.5
      vertex 41.6784 -33.5481 2.71
    endloop
  endfacet
  facet normal 0.0872073 -0.99619 0
    outer loop
      vertex -40.2709 34.2044 2.5
      vertex -39.75 34.25 2.71
      vertex -40.2709 34.2044 2.71
    endloop
  endfacet
  facet normal 0.0872073 -0.99619 0
    outer loop
      vertex -39.75 34.25 2.71
      vertex -40.2709 34.2044 2.5
      vertex -39.75 34.25 2.5
    endloop
  endfacet
  facet normal 0 1 -0
    outer loop
      vertex 39.75 -34.25 2.5
      vertex -39.75 -34.25 2.71
      vertex 39.75 -34.25 2.71
    endloop
  endfacet
  facet normal 0 1 0
    outer loop
      vertex -39.75 -34.25 2.71
      vertex 39.75 -34.25 2.5
      vertex -39.75 -34.25 2.5
    endloop
  endfacet
  facet normal 0.99619 0.0872073 0
    outer loop
      vertex -42.7044 -31.7709 2.71
      vertex -42.75 -31.25 2.5
      vertex -42.75 -31.25 2.71
    endloop
  endfacet
  facet normal 0.99619 0.0872073 0
    outer loop
      vertex -42.75 -31.25 2.5
      vertex -42.7044 -31.7709 2.71
      vertex -42.7044 -31.7709 2.5
    endloop
  endfacet
  facet normal 0.258698 -0.965958 0
    outer loop
      vertex -40.7761 34.0691 2.5
      vertex -40.2709 34.2044 2.71
      vertex -40.7761 34.0691 2.71
    endloop
  endfacet
  facet normal 0.258698 -0.965958 0
    outer loop
      vertex -40.2709 34.2044 2.71
      vertex -40.7761 34.0691 2.5
      vertex -40.2709 34.2044 2.5
    endloop
  endfacet
  facet normal 0.573616 -0.819124 0
    outer loop
      vertex -41.6784 33.5481 2.5
      vertex -41.25 33.8481 2.71
      vertex -41.6784 33.5481 2.71
    endloop
  endfacet
  facet normal 0.573616 -0.819124 0
    outer loop
      vertex -41.25 33.8481 2.71
      vertex -41.6784 33.5481 2.5
      vertex -41.25 33.8481 2.5
    endloop
  endfacet
  facet normal -0.573616 0.819124 0
    outer loop
      vertex 41.6784 -33.5481 2.5
      vertex 41.25 -33.8481 2.71
      vertex 41.6784 -33.5481 2.71
    endloop
  endfacet
  facet normal -0.573616 0.819124 0
    outer loop
      vertex 41.25 -33.8481 2.71
      vertex 41.6784 -33.5481 2.5
      vertex 41.25 -33.8481 2.5
    endloop
  endfacet
  facet normal -0.99619 -0.0872073 0
    outer loop
      vertex 42.75 31.25 2.5
      vertex 42.7044 31.7709 2.71
      vertex 42.7044 31.7709 2.5
    endloop
  endfacet
  facet normal -0.99619 -0.0872073 0
    outer loop
      vertex 42.7044 31.7709 2.71
      vertex 42.75 31.25 2.5
      vertex 42.75 31.25 2.71
    endloop
  endfacet
  facet normal -0.99619 0.0872073 0
    outer loop
      vertex 42.7044 -31.7709 2.5
      vertex 42.75 -31.25 2.71
      vertex 42.75 -31.25 2.5
    endloop
  endfacet
  facet normal -0.99619 0.0872073 0
    outer loop
      vertex 42.75 -31.25 2.71
      vertex 42.7044 -31.7709 2.5
      vertex 42.7044 -31.7709 2.71
    endloop
  endfacet
  facet normal -0.965958 0.258698 0
    outer loop
      vertex 42.5691 -32.2761 2.5
      vertex 42.7044 -31.7709 2.71
      vertex 42.7044 -31.7709 2.5
    endloop
  endfacet
  facet normal -0.965958 0.258698 0
    outer loop
      vertex 42.7044 -31.7709 2.71
      vertex 42.5691 -32.2761 2.5
      vertex 42.5691 -32.2761 2.71
    endloop
  endfacet
  facet normal -0.573616 -0.819124 0
    outer loop
      vertex 41.25 33.8481 2.5
      vertex 41.6784 33.5481 2.71
      vertex 41.25 33.8481 2.71
    endloop
  endfacet
  facet normal -0.573616 -0.819124 -0
    outer loop
      vertex 41.6784 33.5481 2.71
      vertex 41.25 33.8481 2.5
      vertex 41.6784 33.5481 2.5
    endloop
  endfacet
  facet normal 0.819124 0.573616 0
    outer loop
      vertex -42.0481 -33.1784 2.71
      vertex -42.3481 -32.75 2.5
      vertex -42.3481 -32.75 2.71
    endloop
  endfacet
  facet normal 0.819124 0.573616 0
    outer loop
      vertex -42.3481 -32.75 2.5
      vertex -42.0481 -33.1784 2.71
      vertex -42.0481 -33.1784 2.5
    endloop
  endfacet
  facet normal 0.819124 -0.573616 0
    outer loop
      vertex -42.3481 32.75 2.71
      vertex -42.0481 33.1784 2.5
      vertex -42.0481 33.1784 2.71
    endloop
  endfacet
  facet normal 0.819124 -0.573616 0
    outer loop
      vertex -42.0481 33.1784 2.5
      vertex -42.3481 32.75 2.71
      vertex -42.3481 32.75 2.5
    endloop
  endfacet
  facet normal -0.258698 0.965958 0
    outer loop
      vertex 40.7761 -34.0691 2.5
      vertex 40.2709 -34.2044 2.71
      vertex 40.7761 -34.0691 2.71
    endloop
  endfacet
  facet normal -0.258698 0.965958 0
    outer loop
      vertex 40.2709 -34.2044 2.71
      vertex 40.7761 -34.0691 2.5
      vertex 40.2709 -34.2044 2.5
    endloop
  endfacet
  facet normal -0.906295 -0.422645 0
    outer loop
      vertex 42.5691 32.2761 2.5
      vertex 42.3481 32.75 2.71
      vertex 42.3481 32.75 2.5
    endloop
  endfacet
  facet normal -0.906295 -0.422645 0
    outer loop
      vertex 42.3481 32.75 2.71
      vertex 42.5691 32.2761 2.5
      vertex 42.5691 32.2761 2.71
    endloop
  endfacet
  facet normal 0.965958 0.258698 0
    outer loop
      vertex -42.5691 -32.2761 2.71
      vertex -42.7044 -31.7709 2.5
      vertex -42.7044 -31.7709 2.71
    endloop
  endfacet
  facet normal 0.965958 0.258698 0
    outer loop
      vertex -42.7044 -31.7709 2.5
      vertex -42.5691 -32.2761 2.71
      vertex -42.5691 -32.2761 2.5
    endloop
  endfacet
  facet normal -0.422645 0.906295 0
    outer loop
      vertex 41.25 -33.8481 2.5
      vertex 40.7761 -34.0691 2.71
      vertex 41.25 -33.8481 2.71
    endloop
  endfacet
  facet normal -0.422645 0.906295 0
    outer loop
      vertex 40.7761 -34.0691 2.71
      vertex 41.25 -33.8481 2.5
      vertex 40.7761 -34.0691 2.5
    endloop
  endfacet
  facet normal -0.819124 -0.573616 0
    outer loop
      vertex 42.3481 32.75 2.5
      vertex 42.0481 33.1784 2.71
      vertex 42.0481 33.1784 2.5
    endloop
  endfacet
  facet normal -0.819124 -0.573616 0
    outer loop
      vertex 42.0481 33.1784 2.71
      vertex 42.3481 32.75 2.5
      vertex 42.3481 32.75 2.71
    endloop
  endfacet
  facet normal 0.965958 -0.258698 0
    outer loop
      vertex -42.7044 31.7709 2.71
      vertex -42.5691 32.2761 2.5
      vertex -42.5691 32.2761 2.71
    endloop
  endfacet
  facet normal 0.965958 -0.258698 0
    outer loop
      vertex -42.5691 32.2761 2.5
      vertex -42.7044 31.7709 2.71
      vertex -42.7044 31.7709 2.5
    endloop
  endfacet
  facet normal 0.99619 -0.0872073 0
    outer loop
      vertex -42.75 31.25 2.71
      vertex -42.7044 31.7709 2.5
      vertex -42.7044 31.7709 2.71
    endloop
  endfacet
  facet normal 0.99619 -0.0872073 0
    outer loop
      vertex -42.7044 31.7709 2.5
      vertex -42.75 31.25 2.71
      vertex -42.75 31.25 2.5
    endloop
  endfacet
endsolid OpenSCAD_Model
