solid OpenSCAD_Model
  facet normal 1 -0 0
    outer loop
      vertex 4.25 -5.75 1.05
      vertex 4.25 5.75 -0.0499992
      vertex 4.25 5.75 1.05
    endloop
  endfacet
  facet normal 1 0 0
    outer loop
      vertex 4.25 5.75 -0.0499992
      vertex 4.25 -5.75 1.05
      vertex 4.25 -5.75 -0.0499992
    endloop
  endfacet
  facet normal -0 0 1
    outer loop
      vertex -4.25 5.75 1.05
      vertex 4.25 -5.75 1.05
      vertex 4.25 5.75 1.05
    endloop
  endfacet
  facet normal 0 0 1
    outer loop
      vertex 4.25 -5.75 1.05
      vertex -4.25 5.75 1.05
      vertex -4.25 -5.75 1.05
    endloop
  endfacet
  facet normal 0 0 -1
    outer loop
      vertex -4.25 -5.75 -0.0499992
      vertex 4.25 5.75 -0.0499992
      vertex 4.25 -5.75 -0.0499992
    endloop
  endfacet
  facet normal -0 0 -1
    outer loop
      vertex 4.25 5.75 -0.0499992
      vertex -4.25 -5.75 -0.0499992
      vertex -4.25 5.75 -0.0499992
    endloop
  endfacet
  facet normal -1 0 0
    outer loop
      vertex -4.25 -5.75 -0.0499992
      vertex -4.25 5.75 1.05
      vertex -4.25 5.75 -0.0499992
    endloop
  endfacet
  facet normal -1 -0 0
    outer loop
      vertex -4.25 5.75 1.05
      vertex -4.25 -5.75 -0.0499992
      vertex -4.25 -5.75 1.05
    endloop
  endfacet
  facet normal 0 1 -0
    outer loop
      vertex 4.25 5.75 -0.0499992
      vertex -4.25 5.75 1.05
      vertex 4.25 5.75 1.05
    endloop
  endfacet
  facet normal 0 1 0
    outer loop
      vertex -4.25 5.75 1.05
      vertex 4.25 5.75 -0.0499992
      vertex -4.25 5.75 -0.0499992
    endloop
  endfacet
  facet normal 0 -1 0
    outer loop
      vertex -4.25 -5.75 -0.0499992
      vertex 4.25 -5.75 1.05
      vertex -4.25 -5.75 1.05
    endloop
  endfacet
  facet normal 0 -1 -0
    outer loop
      vertex 4.25 -5.75 1.05
      vertex -4.25 -5.75 -0.0499992
      vertex 4.25 -5.75 -0.0499992
    endloop
  endfacet
endsolid OpenSCAD_Model
