solid OpenSCAD_Model
  facet normal 0 0 -1
    outer loop
      vertex 1.82247e-06 -5 10
      vertex 13.5 5 10
      vertex 13.5 -5 10
    endloop
  endfacet
  facet normal -0 0 -1
    outer loop
      vertex 13.5 5 10
      vertex 1.82247e-06 -5 10
      vertex 1.82247e-06 5 10
    endloop
  endfacet
  facet normal -1 0 0
    outer loop
      vertex 1.82247e-06 -5 10
      vertex 1.82247e-06 5 30
      vertex 1.82247e-06 5 10
    endloop
  endfacet
  facet normal -1 -0 0
    outer loop
      vertex 1.82247e-06 5 30
      vertex 1.82247e-06 -5 10
      vertex 1.82247e-06 -5 30
    endloop
  endfacet
  facet normal 0 -1 0
    outer loop
      vertex 1.82247e-06 -5 30
      vertex 1.82247e-06 -5 10
      vertex 13.5 -5 10
    endloop
  endfacet
  facet normal 0 1 0
    outer loop
      vertex 13.5 5 10
      vertex 1.82247e-06 5 10
      vertex 1.82247e-06 5 30
    endloop
  endfacet
  facet normal 0.828849 -0 0.559473
    outer loop
      vertex 1.82247e-06 -5 30
      vertex 13.5 5 10
      vertex 1.82247e-06 5 30
    endloop
  endfacet
  facet normal 0.828849 0 0.559473
    outer loop
      vertex 13.5 5 10
      vertex 1.82247e-06 -5 30
      vertex 13.5 -5 10
    endloop
  endfacet
  facet normal -0 0 1
    outer loop
      vertex 11.5 5 -1.34998e-06
      vertex 15.5 -5 -1.34998e-06
      vertex 15.5 5 -1.34998e-06
    endloop
  endfacet
  facet normal 0 0 1
    outer loop
      vertex 15.5 -5 -1.34998e-06
      vertex 11.5 5 -1.34998e-06
      vertex 11.5 -5 -1.34998e-06
    endloop
  endfacet
  facet normal -1 0 0
    outer loop
      vertex 11.5 -5 -10
      vertex 11.5 5 -1.34998e-06
      vertex 11.5 5 -10
    endloop
  endfacet
  facet normal -1 -0 0
    outer loop
      vertex 11.5 5 -1.34998e-06
      vertex 11.5 -5 -10
      vertex 11.5 -5 -1.34998e-06
    endloop
  endfacet
  facet normal 0 1 0
    outer loop
      vertex 15.5 5 -1.34998e-06
      vertex 11.5 5 -10
      vertex 11.5 5 -1.34998e-06
    endloop
  endfacet
  facet normal 0 -1 0
    outer loop
      vertex 11.5 -5 -1.34998e-06
      vertex 11.5 -5 -10
      vertex 15.5 -5 -1.34998e-06
    endloop
  endfacet
  facet normal 0.928477 0 -0.371391
    outer loop
      vertex 15.5 -5 -1.34998e-06
      vertex 11.5 5 -10
      vertex 15.5 5 -1.34998e-06
    endloop
  endfacet
  facet normal 0.928477 0 -0.371391
    outer loop
      vertex 11.5 5 -10
      vertex 15.5 -5 -1.34998e-06
      vertex 11.5 -5 -10
    endloop
  endfacet
  facet normal 1 -0 0
    outer loop
      vertex 13.5 -5 10
      vertex 13.5 5 0
      vertex 13.5 5 10
    endloop
  endfacet
  facet normal 1 0 0
    outer loop
      vertex 13.5 5 0
      vertex 13.5 -5 10
      vertex 13.5 -5 0
    endloop
  endfacet
  facet normal -0 0 1
    outer loop
      vertex 6.5 5 10
      vertex 13.5 -5 10
      vertex 13.5 5 10
    endloop
  endfacet
  facet normal 0 0 1
    outer loop
      vertex 13.5 -5 10
      vertex 6.5 5 10
      vertex 6.5 -5 10
    endloop
  endfacet
  facet normal 0 0 -1
    outer loop
      vertex 11.5 -5 0
      vertex 13.5 5 0
      vertex 13.5 -5 0
    endloop
  endfacet
  facet normal -0 0 -1
    outer loop
      vertex 13.5 5 0
      vertex 11.5 -5 0
      vertex 11.5 5 0
    endloop
  endfacet
  facet normal -1 0 0
    outer loop
      vertex 11.5 -5 0
      vertex 11.5 5 8
      vertex 11.5 5 0
    endloop
  endfacet
  facet normal -1 -0 0
    outer loop
      vertex 11.5 5 8
      vertex 11.5 -5 0
      vertex 11.5 -5 8
    endloop
  endfacet
  facet normal 0 1 0
    outer loop
      vertex 13.5 5 10
      vertex 11.5 5 8
      vertex 6.5 5 10
    endloop
  endfacet
  facet normal 0 1 -0
    outer loop
      vertex 13.5 5 0
      vertex 11.5 5 8
      vertex 13.5 5 10
    endloop
  endfacet
  facet normal 0 1 0
    outer loop
      vertex 11.5 5 8
      vertex 13.5 5 0
      vertex 11.5 5 0
    endloop
  endfacet
  facet normal 0 1 -0
    outer loop
      vertex 8.5 5 8
      vertex 6.5 5 10
      vertex 11.5 5 8
    endloop
  endfacet
  facet normal 0 1 0
    outer loop
      vertex 6.5 5 -10
      vertex 8.5 5 8
      vertex 8.5 5 -10
    endloop
  endfacet
  facet normal 0 1 0
    outer loop
      vertex 8.5 5 8
      vertex 6.5 5 -10
      vertex 6.5 5 10
    endloop
  endfacet
  facet normal 0 -1 0
    outer loop
      vertex 6.5 -5 10
      vertex 8.5 -5 8
      vertex 13.5 -5 10
    endloop
  endfacet
  facet normal 0 -1 0
    outer loop
      vertex 6.5 -5 -10
      vertex 8.5 -5 8
      vertex 6.5 -5 10
    endloop
  endfacet
  facet normal 0 -1 -0
    outer loop
      vertex 8.5 -5 8
      vertex 6.5 -5 -10
      vertex 8.5 -5 -10
    endloop
  endfacet
  facet normal 0 -1 0
    outer loop
      vertex 11.5 -5 8
      vertex 13.5 -5 10
      vertex 8.5 -5 8
    endloop
  endfacet
  facet normal 0 -1 0
    outer loop
      vertex 13.5 -5 0
      vertex 11.5 -5 8
      vertex 11.5 -5 0
    endloop
  endfacet
  facet normal 0 -1 0
    outer loop
      vertex 11.5 -5 8
      vertex 13.5 -5 0
      vertex 13.5 -5 10
    endloop
  endfacet
  facet normal 1 -0 0
    outer loop
      vertex 8.5 -5 8
      vertex 8.5 5 -10
      vertex 8.5 5 8
    endloop
  endfacet
  facet normal 1 0 0
    outer loop
      vertex 8.5 5 -10
      vertex 8.5 -5 8
      vertex 8.5 -5 -10
    endloop
  endfacet
  facet normal 0 0 -1
    outer loop
      vertex 6.5 -5 -10
      vertex 8.5 5 -10
      vertex 8.5 -5 -10
    endloop
  endfacet
  facet normal -0 0 -1
    outer loop
      vertex 8.5 5 -10
      vertex 6.5 -5 -10
      vertex 6.5 5 -10
    endloop
  endfacet
  facet normal -1 0 0
    outer loop
      vertex 6.5 -5 -10
      vertex 6.5 5 10
      vertex 6.5 5 -10
    endloop
  endfacet
  facet normal -1 -0 0
    outer loop
      vertex 6.5 5 10
      vertex 6.5 -5 -10
      vertex 6.5 -5 10
    endloop
  endfacet
  facet normal 0 0 -1
    outer loop
      vertex 8.5 -5 8
      vertex 11.5 5 8
      vertex 11.5 -5 8
    endloop
  endfacet
  facet normal -0 0 -1
    outer loop
      vertex 11.5 5 8
      vertex 8.5 -5 8
      vertex 8.5 5 8
    endloop
  endfacet
  facet normal 1 -0 0
    outer loop
      vertex 4.25 -5.75 1.05
      vertex 4.25 5.75 -0.0499992
      vertex 4.25 5.75 1.05
    endloop
  endfacet
  facet normal 1 0 0
    outer loop
      vertex 4.25 5.75 -0.0499992
      vertex 4.25 -5.75 1.05
      vertex 4.25 -5.75 -0.0499992
    endloop
  endfacet
  facet normal -0 0 1
    outer loop
      vertex -4.25 5.75 1.05
      vertex 4.25 -5.75 1.05
      vertex 4.25 5.75 1.05
    endloop
  endfacet
  facet normal 0 0 1
    outer loop
      vertex 4.25 -5.75 1.05
      vertex -4.25 5.75 1.05
      vertex -4.25 -5.75 1.05
    endloop
  endfacet
  facet normal 0 0 -1
    outer loop
      vertex -4.25 -5.75 -0.0499992
      vertex 4.25 5.75 -0.0499992
      vertex 4.25 -5.75 -0.0499992
    endloop
  endfacet
  facet normal -0 0 -1
    outer loop
      vertex 4.25 5.75 -0.0499992
      vertex -4.25 -5.75 -0.0499992
      vertex -4.25 5.75 -0.0499992
    endloop
  endfacet
  facet normal -1 0 0
    outer loop
      vertex -4.25 -5.75 -0.0499992
      vertex -4.25 5.75 1.05
      vertex -4.25 5.75 -0.0499992
    endloop
  endfacet
  facet normal -1 -0 0
    outer loop
      vertex -4.25 5.75 1.05
      vertex -4.25 -5.75 -0.0499992
      vertex -4.25 -5.75 1.05
    endloop
  endfacet
  facet normal 0 1 -0
    outer loop
      vertex 4.25 5.75 -0.0499992
      vertex -4.25 5.75 1.05
      vertex 4.25 5.75 1.05
    endloop
  endfacet
  facet normal 0 1 0
    outer loop
      vertex -4.25 5.75 1.05
      vertex 4.25 5.75 -0.0499992
      vertex -4.25 5.75 -0.0499992
    endloop
  endfacet
  facet normal 0 -1 0
    outer loop
      vertex -4.25 -5.75 -0.0499992
      vertex 4.25 -5.75 1.05
      vertex -4.25 -5.75 1.05
    endloop
  endfacet
  facet normal 0 -1 -0
    outer loop
      vertex 4.25 -5.75 1.05
      vertex -4.25 -5.75 -0.0499992
      vertex 4.25 -5.75 -0.0499992
    endloop
  endfacet
endsolid OpenSCAD_Model
