solid OpenSCAD_Model
  facet normal 0.947466 0.308929 -0.0828946
    outer loop
      vertex 146.351 0 468.431
      vertex 139.299 2.93893 398.781
      vertex 145.4 2.93893 468.514
    endloop
  endfacet
  facet normal 0.947364 0.309246 -0.082871
    outer loop
      vertex 139.299 2.93893 398.781
      vertex 146.351 0 468.431
      vertex 140.251 0 398.697
    endloop
  endfacet
  facet normal 0.58562 0.808965 -0.0512364
    outer loop
      vertex 145.4 2.93893 468.514
      vertex 136.809 4.75528 398.999
      vertex 142.91 4.75528 468.732
    endloop
  endfacet
  facet normal 0.58562 0.808965 -0.0512364
    outer loop
      vertex 136.809 4.75528 398.999
      vertex 145.4 2.93893 468.514
      vertex 139.299 2.93893 398.781
    endloop
  endfacet
  facet normal 0 1 0
    outer loop
      vertex 142.91 4.75528 468.732
      vertex 133.73 4.75528 399.268
      vertex 139.831 4.75528 469.001
    endloop
  endfacet
  facet normal -0 1 0
    outer loop
      vertex 133.73 4.75528 399.268
      vertex 142.91 4.75528 468.732
      vertex 136.809 4.75528 398.999
    endloop
  endfacet
  facet normal -0.58562 0.808965 0.0512364
    outer loop
      vertex 139.831 4.75528 469.001
      vertex 131.24 2.93893 399.486
      vertex 137.341 2.93893 469.219
    endloop
  endfacet
  facet normal -0.58562 0.808965 0.0512364
    outer loop
      vertex 131.24 2.93893 399.486
      vertex 139.831 4.75528 469.001
      vertex 133.73 4.75528 399.268
    endloop
  endfacet
  facet normal -0.947466 0.308929 0.0828946
    outer loop
      vertex 130.289 0 399.569
      vertex 137.341 2.93893 469.219
      vertex 131.24 2.93893 399.486
    endloop
  endfacet
  facet normal -0.947364 0.309246 0.082871
    outer loop
      vertex 137.341 2.93893 469.219
      vertex 130.289 0 399.569
      vertex 136.389 0 469.303
    endloop
  endfacet
  facet normal -0.947466 -0.308929 0.0828946
    outer loop
      vertex 137.341 -2.93893 469.219
      vertex 130.289 0 399.569
      vertex 131.24 -2.93893 399.486
    endloop
  endfacet
  facet normal -0.947364 -0.309246 0.082871
    outer loop
      vertex 130.289 0 399.569
      vertex 137.341 -2.93893 469.219
      vertex 136.389 0 469.303
    endloop
  endfacet
  facet normal -0.58562 -0.808965 0.0512364
    outer loop
      vertex 131.24 -2.93893 399.486
      vertex 139.831 -4.75528 469.001
      vertex 137.341 -2.93893 469.219
    endloop
  endfacet
  facet normal -0.58562 -0.808965 0.0512364
    outer loop
      vertex 139.831 -4.75528 469.001
      vertex 131.24 -2.93893 399.486
      vertex 133.73 -4.75528 399.268
    endloop
  endfacet
  facet normal 0 -1 0
    outer loop
      vertex 133.73 -4.75528 399.268
      vertex 142.91 -4.75528 468.732
      vertex 139.831 -4.75528 469.001
    endloop
  endfacet
  facet normal 0 -1 0
    outer loop
      vertex 142.91 -4.75528 468.732
      vertex 133.73 -4.75528 399.268
      vertex 136.809 -4.75528 398.999
    endloop
  endfacet
  facet normal 0.58562 -0.808965 -0.0512364
    outer loop
      vertex 136.809 -4.75528 398.999
      vertex 145.4 -2.93893 468.514
      vertex 142.91 -4.75528 468.732
    endloop
  endfacet
  facet normal 0.58562 -0.808965 -0.0512364
    outer loop
      vertex 145.4 -2.93893 468.514
      vertex 136.809 -4.75528 398.999
      vertex 139.299 -2.93893 398.781
    endloop
  endfacet
  facet normal 0.947466 -0.308929 -0.0828946
    outer loop
      vertex 139.299 -2.93893 398.781
      vertex 146.351 0 468.431
      vertex 145.4 -2.93893 468.514
    endloop
  endfacet
  facet normal 0.947364 -0.309246 -0.082871
    outer loop
      vertex 146.351 0 468.431
      vertex 139.299 -2.93893 398.781
      vertex 140.251 0 398.697
    endloop
  endfacet
  facet normal -0.0878938 0 -0.99613
    outer loop
      vertex 139.299 -2.93893 398.781
      vertex 139.299 2.93893 398.781
      vertex 140.251 0 398.697
    endloop
  endfacet
  facet normal -0.0872166 0 -0.996189
    outer loop
      vertex 136.809 -4.75528 398.999
      vertex 139.299 2.93893 398.781
      vertex 139.299 -2.93893 398.781
    endloop
  endfacet
  facet normal -0.0872166 0 -0.996189
    outer loop
      vertex 136.809 -4.75528 398.999
      vertex 136.809 4.75528 398.999
      vertex 139.299 2.93893 398.781
    endloop
  endfacet
  facet normal -0.0870345 0 -0.996205
    outer loop
      vertex 133.73 -4.75528 399.268
      vertex 136.809 4.75528 398.999
      vertex 136.809 -4.75528 398.999
    endloop
  endfacet
  facet normal -0.0870345 0 -0.996205
    outer loop
      vertex 133.73 -4.75528 399.268
      vertex 133.73 4.75528 399.268
      vertex 136.809 4.75528 398.999
    endloop
  endfacet
  facet normal -0.0872166 0 -0.996189
    outer loop
      vertex 131.24 -2.93893 399.486
      vertex 133.73 4.75528 399.268
      vertex 133.73 -4.75528 399.268
    endloop
  endfacet
  facet normal -0.0872166 0 -0.996189
    outer loop
      vertex 131.24 -2.93893 399.486
      vertex 131.24 2.93893 399.486
      vertex 133.73 4.75528 399.268
    endloop
  endfacet
  facet normal -0.086946 -0 -0.996213
    outer loop
      vertex 131.24 2.93893 399.486
      vertex 131.24 -2.93893 399.486
      vertex 130.289 0 399.569
    endloop
  endfacet
  facet normal 0.086946 0 0.996213
    outer loop
      vertex 145.4 2.93893 468.514
      vertex 145.4 -2.93893 468.514
      vertex 146.351 0 468.431
    endloop
  endfacet
  facet normal 0.0872166 0 0.996189
    outer loop
      vertex 142.91 4.75528 468.732
      vertex 145.4 -2.93893 468.514
      vertex 145.4 2.93893 468.514
    endloop
  endfacet
  facet normal 0.0872166 0 0.996189
    outer loop
      vertex 142.91 4.75528 468.732
      vertex 142.91 -4.75528 468.732
      vertex 145.4 -2.93893 468.514
    endloop
  endfacet
  facet normal 0.0870345 0 0.996205
    outer loop
      vertex 139.831 4.75528 469.001
      vertex 142.91 -4.75528 468.732
      vertex 142.91 4.75528 468.732
    endloop
  endfacet
  facet normal 0.0870345 0 0.996205
    outer loop
      vertex 139.831 4.75528 469.001
      vertex 139.831 -4.75528 469.001
      vertex 142.91 -4.75528 468.732
    endloop
  endfacet
  facet normal 0.0872166 0 0.996189
    outer loop
      vertex 137.341 2.93893 469.219
      vertex 139.831 -4.75528 469.001
      vertex 139.831 4.75528 469.001
    endloop
  endfacet
  facet normal 0.0872166 0 0.996189
    outer loop
      vertex 137.341 2.93893 469.219
      vertex 137.341 -2.93893 469.219
      vertex 139.831 -4.75528 469.001
    endloop
  endfacet
  facet normal 0.0878938 -0 0.99613
    outer loop
      vertex 137.341 -2.93893 469.219
      vertex 137.341 2.93893 469.219
      vertex 136.389 0 469.303
    endloop
  endfacet
endsolid OpenSCAD_Model
